<?xml version="1.0" encoding="UTF-8" standalone="no"?>
<!DOCTYPE svg PUBLIC "-//W3C//DTD SVG 1.1//EN"
 "http://www.w3.org/Graphics/SVG/1.1/DTD/svg11.dtd">
<!-- Generated by graphviz version 2.47.0 (20210316.2052)
 -->
<!-- Title: libs/dolphin/os/__ppc_eabi_init.cpp Pages: 1 -->
<svg width="648pt" height="162pt"
 viewBox="0.00 0.00 648.00 162.00" xmlns="http://www.w3.org/2000/svg" xmlns:xlink="http://www.w3.org/1999/xlink">
<g id="graph0" class="graph" transform="scale(1 1) rotate(0) translate(4 158)">
<title>libs/dolphin/os/__ppc_eabi_init.cpp</title>
<polygon fill="white" stroke="transparent" points="-4,4 -4,-158 644,-158 644,4 -4,4"/>
<!-- Node1 -->
<g id="node1" class="node">
<title>Node1</title>
<g id="a_node1"><a xlink:title=" ">
<polygon fill="#bfbfbf" stroke="black" points="186.5,-123.5 186.5,-153.5 294.5,-153.5 294.5,-123.5 186.5,-123.5"/>
<text text-anchor="start" x="194.5" y="-141.5" font-family="Helvetica,sans-Serif" font-size="10.00">libs/dolphin/os/__ppc</text>
<text text-anchor="middle" x="240.5" y="-130.5" font-family="Helvetica,sans-Serif" font-size="10.00">_eabi_init.cpp</text>
</a>
</g>
</g>
<!-- Node2 -->
<g id="node2" class="node">
<title>Node2</title>
<g id="a_node2"><a xlink:href="dol2asm_8h.html" target="_top" xlink:title=" ">
<polygon fill="white" stroke="black" points="0,-62 0,-81 61,-81 61,-62 0,-62"/>
<text text-anchor="middle" x="30.5" y="-69" font-family="Helvetica,sans-Serif" font-size="10.00">dol2asm.h</text>
</a>
</g>
</g>
<!-- Node1&#45;&gt;Node2 -->
<g id="edge1" class="edge">
<title>Node1&#45;&gt;Node2</title>
<path fill="none" stroke="midnightblue" d="M193.86,-123.42C160.78,-113.39 115.37,-99.52 75.5,-87 72.71,-86.12 69.83,-85.21 66.93,-84.29"/>
<polygon fill="midnightblue" stroke="midnightblue" points="67.72,-80.87 57.13,-81.15 65.59,-87.53 67.72,-80.87"/>
</g>
<!-- Node3 -->
<g id="node3" class="node">
<title>Node3</title>
<g id="a_node3"><a xlink:href="types_8h.html" target="_top" xlink:title=" ">
<polygon fill="white" stroke="black" points="91,-0.5 91,-19.5 172,-19.5 172,-0.5 91,-0.5"/>
<text text-anchor="middle" x="131.5" y="-7.5" font-family="Helvetica,sans-Serif" font-size="10.00">dolphin/types.h</text>
</a>
</g>
</g>
<!-- Node1&#45;&gt;Node3 -->
<g id="edge2" class="edge">
<title>Node1&#45;&gt;Node3</title>
<path fill="none" stroke="midnightblue" d="M186.24,-131.1C158.38,-124.75 126.74,-112.12 109.5,-87 97.29,-69.2 108.36,-44.61 118.73,-28.28"/>
<polygon fill="midnightblue" stroke="midnightblue" points="121.82,-29.96 124.58,-19.73 116.04,-26.01 121.82,-29.96"/>
</g>
<!-- Node4 -->
<g id="node4" class="node">
<title>Node4</title>
<g id="a_node4"><a xlink:href="____ppc__eabi__init_8h.html" target="_top" xlink:title=" ">
<polygon fill="white" stroke="black" points="118,-56.5 118,-86.5 231,-86.5 231,-56.5 118,-56.5"/>
<text text-anchor="start" x="126" y="-74.5" font-family="Helvetica,sans-Serif" font-size="10.00">dolphin/os/__ppc_eabi</text>
<text text-anchor="middle" x="174.5" y="-63.5" font-family="Helvetica,sans-Serif" font-size="10.00">_init.h</text>
</a>
</g>
</g>
<!-- Node1&#45;&gt;Node4 -->
<g id="edge3" class="edge">
<title>Node1&#45;&gt;Node4</title>
<path fill="none" stroke="midnightblue" d="M226.18,-123.4C217.36,-114.71 205.88,-103.4 195.98,-93.66"/>
<polygon fill="midnightblue" stroke="midnightblue" points="198.37,-91.1 188.79,-86.58 193.46,-96.09 198.37,-91.1"/>
</g>
<!-- Node5 -->
<g id="node5" class="node">
<title>Node5</title>
<g id="a_node5"><a xlink:title=" ">
<polygon fill="white" stroke="#bfbfbf" points="249.5,-56.5 249.5,-86.5 365.5,-86.5 365.5,-56.5 249.5,-56.5"/>
<text text-anchor="start" x="257.5" y="-74.5" font-family="Helvetica,sans-Serif" font-size="10.00">asm/dolphin/os/__ppc</text>
<text text-anchor="middle" x="307.5" y="-63.5" font-family="Helvetica,sans-Serif" font-size="10.00">_eabi_init/__init_user.s</text>
</a>
</g>
</g>
<!-- Node1&#45;&gt;Node5 -->
<g id="edge5" class="edge">
<title>Node1&#45;&gt;Node5</title>
<path fill="none" stroke="midnightblue" d="M255.04,-123.4C263.99,-114.71 275.64,-103.4 285.69,-93.66"/>
<polygon fill="midnightblue" stroke="midnightblue" points="288.25,-96.05 292.99,-86.58 283.38,-91.03 288.25,-96.05"/>
</g>
<!-- Node6 -->
<g id="node6" class="node">
<title>Node6</title>
<g id="a_node6"><a xlink:title=" ">
<polygon fill="white" stroke="#bfbfbf" points="384,-56.5 384,-86.5 497,-86.5 497,-56.5 384,-56.5"/>
<text text-anchor="start" x="392" y="-74.5" font-family="Helvetica,sans-Serif" font-size="10.00">asm/dolphin/os/__ppc</text>
<text text-anchor="middle" x="440.5" y="-63.5" font-family="Helvetica,sans-Serif" font-size="10.00">_eabi_init/__init_cpp.s</text>
</a>
</g>
</g>
<!-- Node1&#45;&gt;Node6 -->
<g id="edge6" class="edge">
<title>Node1&#45;&gt;Node6</title>
<path fill="none" stroke="midnightblue" d="M283.9,-123.4C314.3,-113.52 355.11,-100.25 387.44,-89.74"/>
<polygon fill="midnightblue" stroke="midnightblue" points="388.76,-93 397.19,-86.58 386.6,-86.34 388.76,-93"/>
</g>
<!-- Node7 -->
<g id="node7" class="node">
<title>Node7</title>
<g id="a_node7"><a xlink:title=" ">
<polygon fill="white" stroke="#bfbfbf" points="515,-56.5 515,-86.5 640,-86.5 640,-56.5 515,-56.5"/>
<text text-anchor="start" x="523" y="-74.5" font-family="Helvetica,sans-Serif" font-size="10.00">asm/dolphin/os/__ppc</text>
<text text-anchor="middle" x="577.5" y="-63.5" font-family="Helvetica,sans-Serif" font-size="10.00">_eabi_init/_ExitProcess.s</text>
</a>
</g>
</g>
<!-- Node1&#45;&gt;Node7 -->
<g id="edge7" class="edge">
<title>Node1&#45;&gt;Node7</title>
<path fill="none" stroke="midnightblue" d="M294.54,-127.47C346.11,-117.84 426.26,-102.75 504.73,-87.34"/>
<polygon fill="midnightblue" stroke="midnightblue" points="505.65,-90.72 514.79,-85.36 504.3,-83.85 505.65,-90.72"/>
</g>
<!-- Node4&#45;&gt;Node3 -->
<g id="edge4" class="edge">
<title>Node4&#45;&gt;Node3</title>
<path fill="none" stroke="midnightblue" d="M164.31,-56.4C158.13,-47.84 150.2,-36.87 143.68,-27.86"/>
<polygon fill="midnightblue" stroke="midnightblue" points="146.45,-25.71 137.76,-19.66 140.78,-29.81 146.45,-25.71"/>
</g>
</g>
</svg>
