<?xml version="1.0" encoding="UTF-8" standalone="no"?>
<!DOCTYPE svg PUBLIC "-//W3C//DTD SVG 1.1//EN"
 "http://www.w3.org/Graphics/SVG/1.1/DTD/svg11.dtd">
<!-- Generated by graphviz version 2.47.0 (20210316.2052)
 -->
<!-- Title: libs/MSL_C.PPCEABI.bare.H/MSL_Common/Src/alloc.cpp Pages: 1 -->
<svg width="978pt" height="173pt"
 viewBox="0.00 0.00 978.00 173.00" xmlns="http://www.w3.org/2000/svg" xmlns:xlink="http://www.w3.org/1999/xlink">
<g id="graph0" class="graph" transform="scale(1 1) rotate(0) translate(4 169)">
<title>libs/MSL_C.PPCEABI.bare.H/MSL_Common/Src/alloc.cpp</title>
<polygon fill="white" stroke="transparent" points="-4,4 -4,-169 974,-169 974,4 -4,4"/>
<!-- Node1 -->
<g id="node1" class="node">
<title>Node1</title>
<g id="a_node1"><a xlink:title=" ">
<polygon fill="#bfbfbf" stroke="black" points="270.5,-134.5 270.5,-164.5 422.5,-164.5 422.5,-134.5 270.5,-134.5"/>
<text text-anchor="start" x="278.5" y="-152.5" font-family="Helvetica,sans-Serif" font-size="10.00">libs/MSL_C.PPCEABI.bare.</text>
<text text-anchor="middle" x="346.5" y="-141.5" font-family="Helvetica,sans-Serif" font-size="10.00">H/MSL_Common/Src/alloc.cpp</text>
</a>
</g>
</g>
<!-- Node2 -->
<g id="node2" class="node">
<title>Node2</title>
<g id="a_node2"><a xlink:href="dol2asm_8h.html" target="_top" xlink:title=" ">
<polygon fill="white" stroke="black" points="0,-67.5 0,-86.5 61,-86.5 61,-67.5 0,-67.5"/>
<text text-anchor="middle" x="30.5" y="-74.5" font-family="Helvetica,sans-Serif" font-size="10.00">dol2asm.h</text>
</a>
</g>
</g>
<!-- Node1&#45;&gt;Node2 -->
<g id="edge1" class="edge">
<title>Node1&#45;&gt;Node2</title>
<path fill="none" stroke="midnightblue" d="M270.29,-139.16C215.34,-131.26 139.83,-117.99 75.5,-98 69.18,-96.04 62.56,-93.43 56.41,-90.75"/>
<polygon fill="midnightblue" stroke="midnightblue" points="57.78,-87.53 47.23,-86.56 54.88,-93.9 57.78,-87.53"/>
</g>
<!-- Node3 -->
<g id="node3" class="node">
<title>Node3</title>
<g id="a_node3"><a xlink:href="types_8h.html" target="_top" xlink:title=" ">
<polygon fill="white" stroke="black" points="96,-0.5 96,-19.5 177,-19.5 177,-0.5 96,-0.5"/>
<text text-anchor="middle" x="136.5" y="-7.5" font-family="Helvetica,sans-Serif" font-size="10.00">dolphin/types.h</text>
</a>
</g>
</g>
<!-- Node1&#45;&gt;Node3 -->
<g id="edge2" class="edge">
<title>Node1&#45;&gt;Node3</title>
<path fill="none" stroke="midnightblue" d="M270.28,-142.59C208.56,-136.03 128.67,-122.9 108.5,-98 91.77,-77.35 108.92,-46.48 122.77,-27.61"/>
<polygon fill="midnightblue" stroke="midnightblue" points="125.6,-29.68 128.96,-19.63 120.06,-25.39 125.6,-29.68"/>
</g>
<!-- Node4 -->
<g id="node4" class="node">
<title>Node4</title>
<g id="a_node4"><a xlink:href="alloc_8h.html" target="_top" xlink:title=" ">
<polygon fill="white" stroke="black" points="117.5,-62 117.5,-92 251.5,-92 251.5,-62 117.5,-62"/>
<text text-anchor="start" x="125.5" y="-80" font-family="Helvetica,sans-Serif" font-size="10.00">MSL_C.PPCEABI.bare.H</text>
<text text-anchor="middle" x="184.5" y="-69" font-family="Helvetica,sans-Serif" font-size="10.00">/MSL_Common/Src/alloc.h</text>
</a>
</g>
</g>
<!-- Node1&#45;&gt;Node4 -->
<g id="edge3" class="edge">
<title>Node1&#45;&gt;Node4</title>
<path fill="none" stroke="midnightblue" d="M314.11,-134.4C288.83,-123.4 253.54,-108.04 226.16,-96.13"/>
<polygon fill="midnightblue" stroke="midnightblue" points="227.4,-92.85 216.84,-92.07 224.61,-99.27 227.4,-92.85"/>
</g>
<!-- Node5 -->
<g id="node5" class="node">
<title>Node5</title>
<g id="a_node5"><a xlink:title=" ">
<polygon fill="white" stroke="#bfbfbf" points="270,-62 270,-92 423,-92 423,-62 270,-62"/>
<text text-anchor="start" x="278" y="-80" font-family="Helvetica,sans-Serif" font-size="10.00">asm/MSL_C.PPCEABI.bare.H</text>
<text text-anchor="middle" x="346.5" y="-69" font-family="Helvetica,sans-Serif" font-size="10.00">/MSL_Common/Src/alloc/free.s</text>
</a>
</g>
</g>
<!-- Node1&#45;&gt;Node5 -->
<g id="edge5" class="edge">
<title>Node1&#45;&gt;Node5</title>
<path fill="none" stroke="midnightblue" d="M346.5,-134.23C346.5,-125.16 346.5,-113.16 346.5,-102.58"/>
<polygon fill="midnightblue" stroke="midnightblue" points="350,-102.25 346.5,-92.25 343,-102.25 350,-102.25"/>
</g>
<!-- Node6 -->
<g id="node6" class="node">
<title>Node6</title>
<g id="a_node6"><a xlink:title=" ">
<polygon fill="white" stroke="#bfbfbf" points="441,-56.5 441,-97.5 588,-97.5 588,-56.5 441,-56.5"/>
<text text-anchor="start" x="449" y="-85.5" font-family="Helvetica,sans-Serif" font-size="10.00">asm/MSL_C.PPCEABI.bare.H</text>
<text text-anchor="start" x="449" y="-74.5" font-family="Helvetica,sans-Serif" font-size="10.00">/MSL_Common/Src/alloc/</text>
<text text-anchor="middle" x="514.5" y="-63.5" font-family="Helvetica,sans-Serif" font-size="10.00">__pool_free.s</text>
</a>
</g>
</g>
<!-- Node1&#45;&gt;Node6 -->
<g id="edge6" class="edge">
<title>Node1&#45;&gt;Node6</title>
<path fill="none" stroke="midnightblue" d="M380.09,-134.4C402.52,-124.99 432.56,-112.39 458.55,-101.48"/>
<polygon fill="midnightblue" stroke="midnightblue" points="460.05,-104.64 467.92,-97.55 457.35,-98.19 460.05,-104.64"/>
</g>
<!-- Node7 -->
<g id="node7" class="node">
<title>Node7</title>
<g id="a_node7"><a xlink:title=" ">
<polygon fill="white" stroke="#bfbfbf" points="606,-56.5 606,-97.5 779,-97.5 779,-56.5 606,-56.5"/>
<text text-anchor="start" x="614" y="-85.5" font-family="Helvetica,sans-Serif" font-size="10.00">asm/MSL_C.PPCEABI.bare.H</text>
<text text-anchor="start" x="614" y="-74.5" font-family="Helvetica,sans-Serif" font-size="10.00">/MSL_Common/Src/alloc/deallocate</text>
<text text-anchor="middle" x="692.5" y="-63.5" font-family="Helvetica,sans-Serif" font-size="10.00">_from_fixed_pools.s</text>
</a>
</g>
</g>
<!-- Node1&#45;&gt;Node7 -->
<g id="edge7" class="edge">
<title>Node1&#45;&gt;Node7</title>
<path fill="none" stroke="midnightblue" d="M417.13,-134.47C464.99,-124.91 529.94,-111.87 595.66,-98.37"/>
<polygon fill="midnightblue" stroke="midnightblue" points="596.7,-101.73 605.79,-96.29 595.29,-94.88 596.7,-101.73"/>
</g>
<!-- Node8 -->
<g id="node8" class="node">
<title>Node8</title>
<g id="a_node8"><a xlink:title=" ">
<polygon fill="white" stroke="#bfbfbf" points="797,-56.5 797,-97.5 970,-97.5 970,-56.5 797,-56.5"/>
<text text-anchor="start" x="805" y="-85.5" font-family="Helvetica,sans-Serif" font-size="10.00">asm/MSL_C.PPCEABI.bare.H</text>
<text text-anchor="start" x="805" y="-74.5" font-family="Helvetica,sans-Serif" font-size="10.00">/MSL_Common/Src/alloc/deallocate</text>
<text text-anchor="middle" x="883.5" y="-63.5" font-family="Helvetica,sans-Serif" font-size="10.00">_from_var_pools.s</text>
</a>
</g>
</g>
<!-- Node1&#45;&gt;Node8 -->
<g id="edge8" class="edge">
<title>Node1&#45;&gt;Node8</title>
<path fill="none" stroke="midnightblue" d="M422.66,-141.99C508.83,-134.12 653.52,-119.43 786.85,-98.2"/>
<polygon fill="midnightblue" stroke="midnightblue" points="787.52,-101.64 796.84,-96.59 786.41,-94.73 787.52,-101.64"/>
</g>
<!-- Node4&#45;&gt;Node3 -->
<g id="edge4" class="edge">
<title>Node4&#45;&gt;Node3</title>
<path fill="none" stroke="midnightblue" d="M174.08,-61.9C166.67,-51.86 156.69,-38.34 148.87,-27.75"/>
<polygon fill="midnightblue" stroke="midnightblue" points="151.68,-25.66 142.92,-19.69 146.05,-29.82 151.68,-25.66"/>
</g>
</g>
</svg>
