<?xml version="1.0" encoding="UTF-8" standalone="no"?>
<!DOCTYPE svg PUBLIC "-//W3C//DTD SVG 1.1//EN"
 "http://www.w3.org/Graphics/SVG/1.1/DTD/svg11.dtd">
<!-- Generated by graphviz version 2.47.0 (20210316.2052)
 -->
<!-- Title: libs/MSL_C.PPCEABI.bare.H/MSL_Common/Src/ansi_files.cpp Pages: 1 -->
<svg width="581pt" height="184pt"
 viewBox="0.00 0.00 581.00 184.00" xmlns="http://www.w3.org/2000/svg" xmlns:xlink="http://www.w3.org/1999/xlink">
<g id="graph0" class="graph" transform="scale(1 1) rotate(0) translate(4 180)">
<title>libs/MSL_C.PPCEABI.bare.H/MSL_Common/Src/ansi_files.cpp</title>
<polygon fill="white" stroke="transparent" points="-4,4 -4,-180 577,-180 577,4 -4,4"/>
<!-- Node1 -->
<g id="node1" class="node">
<title>Node1</title>
<g id="a_node1"><a xlink:title=" ">
<polygon fill="#bfbfbf" stroke="black" points="112.5,-134.5 112.5,-175.5 248.5,-175.5 248.5,-134.5 112.5,-134.5"/>
<text text-anchor="start" x="120.5" y="-163.5" font-family="Helvetica,sans-Serif" font-size="10.00">libs/MSL_C.PPCEABI.bare.</text>
<text text-anchor="start" x="120.5" y="-152.5" font-family="Helvetica,sans-Serif" font-size="10.00">H/MSL_Common/Src/ansi</text>
<text text-anchor="middle" x="180.5" y="-141.5" font-family="Helvetica,sans-Serif" font-size="10.00">_files.cpp</text>
</a>
</g>
</g>
<!-- Node2 -->
<g id="node2" class="node">
<title>Node2</title>
<g id="a_node2"><a xlink:href="dol2asm_8h.html" target="_top" xlink:title=" ">
<polygon fill="white" stroke="black" points="0,-67.5 0,-86.5 61,-86.5 61,-67.5 0,-67.5"/>
<text text-anchor="middle" x="30.5" y="-74.5" font-family="Helvetica,sans-Serif" font-size="10.00">dol2asm.h</text>
</a>
</g>
</g>
<!-- Node1&#45;&gt;Node2 -->
<g id="edge1" class="edge">
<title>Node1&#45;&gt;Node2</title>
<path fill="none" stroke="midnightblue" d="M141.87,-134.43C115.02,-120.82 79.95,-103.06 56.4,-91.12"/>
<polygon fill="midnightblue" stroke="midnightblue" points="57.88,-87.95 47.38,-86.55 54.72,-94.19 57.88,-87.95"/>
</g>
<!-- Node3 -->
<g id="node3" class="node">
<title>Node3</title>
<g id="a_node3"><a xlink:href="types_8h.html" target="_top" xlink:title=" ">
<polygon fill="white" stroke="black" points="94,-0.5 94,-19.5 175,-19.5 175,-0.5 94,-0.5"/>
<text text-anchor="middle" x="134.5" y="-7.5" font-family="Helvetica,sans-Serif" font-size="10.00">dolphin/types.h</text>
</a>
</g>
</g>
<!-- Node1&#45;&gt;Node3 -->
<g id="edge2" class="edge">
<title>Node1&#45;&gt;Node3</title>
<path fill="none" stroke="midnightblue" d="M143.42,-134.27C130.18,-125.15 116.76,-112.97 109.5,-98 98.39,-75.09 111.35,-46.34 122.37,-28.31"/>
<polygon fill="midnightblue" stroke="midnightblue" points="125.58,-29.79 128.13,-19.5 119.73,-25.96 125.58,-29.79"/>
</g>
<!-- Node4 -->
<g id="node4" class="node">
<title>Node4</title>
<g id="a_node4"><a xlink:href="ansi__files_8h.html" target="_top" xlink:title=" ">
<polygon fill="white" stroke="black" points="118,-56.5 118,-97.5 243,-97.5 243,-56.5 118,-56.5"/>
<text text-anchor="start" x="126" y="-85.5" font-family="Helvetica,sans-Serif" font-size="10.00">MSL_C.PPCEABI.bare.H</text>
<text text-anchor="start" x="126" y="-74.5" font-family="Helvetica,sans-Serif" font-size="10.00">/MSL_Common/Src/ansi</text>
<text text-anchor="middle" x="180.5" y="-63.5" font-family="Helvetica,sans-Serif" font-size="10.00">_files.h</text>
</a>
</g>
</g>
<!-- Node1&#45;&gt;Node4 -->
<g id="edge3" class="edge">
<title>Node1&#45;&gt;Node4</title>
<path fill="none" stroke="midnightblue" d="M180.5,-134.43C180.5,-126.27 180.5,-116.62 180.5,-107.63"/>
<polygon fill="midnightblue" stroke="midnightblue" points="184,-107.51 180.5,-97.51 177,-107.51 184,-107.51"/>
</g>
<!-- Node5 -->
<g id="node5" class="node">
<title>Node5</title>
<g id="a_node5"><a xlink:title=" ">
<polygon fill="white" stroke="#bfbfbf" points="261,-56.5 261,-97.5 408,-97.5 408,-56.5 261,-56.5"/>
<text text-anchor="start" x="269" y="-85.5" font-family="Helvetica,sans-Serif" font-size="10.00">asm/MSL_C.PPCEABI.bare.H</text>
<text text-anchor="start" x="269" y="-74.5" font-family="Helvetica,sans-Serif" font-size="10.00">/MSL_Common/Src/ansi_files</text>
<text text-anchor="middle" x="334.5" y="-63.5" font-family="Helvetica,sans-Serif" font-size="10.00">/__flush_all.s</text>
</a>
</g>
</g>
<!-- Node1&#45;&gt;Node5 -->
<g id="edge5" class="edge">
<title>Node1&#45;&gt;Node5</title>
<path fill="none" stroke="midnightblue" d="M220.16,-134.43C240.19,-124.54 264.66,-112.46 285.82,-102.02"/>
<polygon fill="midnightblue" stroke="midnightblue" points="287.56,-105.07 294.98,-97.51 284.46,-98.79 287.56,-105.07"/>
</g>
<!-- Node6 -->
<g id="node6" class="node">
<title>Node6</title>
<g id="a_node6"><a xlink:title=" ">
<polygon fill="white" stroke="#bfbfbf" points="426,-56.5 426,-97.5 573,-97.5 573,-56.5 426,-56.5"/>
<text text-anchor="start" x="434" y="-85.5" font-family="Helvetica,sans-Serif" font-size="10.00">asm/MSL_C.PPCEABI.bare.H</text>
<text text-anchor="start" x="434" y="-74.5" font-family="Helvetica,sans-Serif" font-size="10.00">/MSL_Common/Src/ansi_files</text>
<text text-anchor="middle" x="499.5" y="-63.5" font-family="Helvetica,sans-Serif" font-size="10.00">/__close_all.s</text>
</a>
</g>
</g>
<!-- Node1&#45;&gt;Node6 -->
<g id="edge6" class="edge">
<title>Node1&#45;&gt;Node6</title>
<path fill="none" stroke="midnightblue" d="M248.72,-138.02C293.69,-127.45 354.15,-113.18 415.84,-98.39"/>
<polygon fill="midnightblue" stroke="midnightblue" points="416.84,-101.75 425.75,-96.01 415.21,-94.94 416.84,-101.75"/>
</g>
<!-- Node4&#45;&gt;Node3 -->
<g id="edge4" class="edge">
<title>Node4&#45;&gt;Node3</title>
<path fill="none" stroke="midnightblue" d="M166.7,-56.5C160.26,-47.39 152.66,-36.66 146.47,-27.91"/>
<polygon fill="midnightblue" stroke="midnightblue" points="149.26,-25.79 140.62,-19.65 143.54,-29.84 149.26,-25.79"/>
</g>
</g>
</svg>
