<?xml version="1.0" encoding="UTF-8" standalone="no"?>
<!DOCTYPE svg PUBLIC "-//W3C//DTD SVG 1.1//EN"
 "http://www.w3.org/Graphics/SVG/1.1/DTD/svg11.dtd">
<!-- Generated by graphviz version 2.47.0 (20210316.2052)
 -->
<!-- Title: libs/dolphin/ar/ar.cpp Pages: 1 -->
<svg width="1682pt" height="151pt"
 viewBox="0.00 0.00 1682.00 151.00" xmlns="http://www.w3.org/2000/svg" xmlns:xlink="http://www.w3.org/1999/xlink">
<g id="graph0" class="graph" transform="scale(1 1) rotate(0) translate(4 147)">
<title>libs/dolphin/ar/ar.cpp</title>
<polygon fill="white" stroke="transparent" points="-4,4 -4,-147 1678,-147 1678,4 -4,4"/>
<!-- Node1 -->
<g id="node1" class="node">
<title>Node1</title>
<g id="a_node1"><a xlink:title=" ">
<polygon fill="#bfbfbf" stroke="black" points="738.5,-123.5 738.5,-142.5 844.5,-142.5 844.5,-123.5 738.5,-123.5"/>
<text text-anchor="middle" x="791.5" y="-130.5" font-family="Helvetica,sans-Serif" font-size="10.00">libs/dolphin/ar/ar.cpp</text>
</a>
</g>
</g>
<!-- Node2 -->
<g id="node2" class="node">
<title>Node2</title>
<g id="a_node2"><a xlink:href="dol2asm_8h.html" target="_top" xlink:title=" ">
<polygon fill="white" stroke="black" points="0,-62 0,-81 61,-81 61,-62 0,-62"/>
<text text-anchor="middle" x="30.5" y="-69" font-family="Helvetica,sans-Serif" font-size="10.00">dol2asm.h</text>
</a>
</g>
</g>
<!-- Node1&#45;&gt;Node2 -->
<g id="edge1" class="edge">
<title>Node1&#45;&gt;Node2</title>
<path fill="none" stroke="midnightblue" d="M738.33,-130.37C594.95,-125.71 202.62,-111.08 75.5,-87 71.53,-86.25 67.42,-85.25 63.38,-84.13"/>
<polygon fill="midnightblue" stroke="midnightblue" points="64.16,-80.7 53.57,-81.15 62.12,-87.4 64.16,-80.7"/>
</g>
<!-- Node3 -->
<g id="node3" class="node">
<title>Node3</title>
<g id="a_node3"><a xlink:href="types_8h.html" target="_top" xlink:title=" ">
<polygon fill="white" stroke="black" points="82,-0.5 82,-19.5 163,-19.5 163,-0.5 82,-0.5"/>
<text text-anchor="middle" x="122.5" y="-7.5" font-family="Helvetica,sans-Serif" font-size="10.00">dolphin/types.h</text>
</a>
</g>
</g>
<!-- Node1&#45;&gt;Node3 -->
<g id="edge2" class="edge">
<title>Node1&#45;&gt;Node3</title>
<path fill="none" stroke="midnightblue" d="M738.3,-132.56C585.27,-133.63 152.15,-132.56 109.5,-87 94.89,-71.4 103.56,-45.69 112.16,-28.56"/>
<polygon fill="midnightblue" stroke="midnightblue" points="115.33,-30.06 117.03,-19.6 109.18,-26.71 115.33,-30.06"/>
</g>
<!-- Node4 -->
<g id="node4" class="node">
<title>Node4</title>
<g id="a_node4"><a xlink:href="ar_8h.html" target="_top" xlink:title=" ">
<polygon fill="white" stroke="black" points="118,-62 118,-81 195,-81 195,-62 118,-62"/>
<text text-anchor="middle" x="156.5" y="-69" font-family="Helvetica,sans-Serif" font-size="10.00">dolphin/ar/ar.h</text>
</a>
</g>
</g>
<!-- Node1&#45;&gt;Node4 -->
<g id="edge3" class="edge">
<title>Node1&#45;&gt;Node4</title>
<path fill="none" stroke="midnightblue" d="M738.38,-131.77C634.79,-130.47 398.9,-123.37 204.5,-87 200.05,-86.17 195.42,-85.07 190.88,-83.86"/>
<polygon fill="midnightblue" stroke="midnightblue" points="191.74,-80.47 181.16,-81.07 189.8,-87.19 191.74,-80.47"/>
</g>
<!-- Node5 -->
<g id="node5" class="node">
<title>Node5</title>
<g id="a_node5"><a xlink:title=" ">
<polygon fill="white" stroke="#bfbfbf" points="213.5,-56.5 213.5,-86.5 357.5,-86.5 357.5,-56.5 213.5,-56.5"/>
<text text-anchor="start" x="221.5" y="-74.5" font-family="Helvetica,sans-Serif" font-size="10.00">asm/dolphin/ar/ar/ARRegister</text>
<text text-anchor="middle" x="285.5" y="-63.5" font-family="Helvetica,sans-Serif" font-size="10.00">DMACallback.s</text>
</a>
</g>
</g>
<!-- Node1&#45;&gt;Node5 -->
<g id="edge5" class="edge">
<title>Node1&#45;&gt;Node5</title>
<path fill="none" stroke="midnightblue" d="M738.34,-127.6C659.62,-120.82 507.18,-106.65 367.89,-87.14"/>
<polygon fill="midnightblue" stroke="midnightblue" points="368.27,-83.66 357.88,-85.72 367.29,-90.59 368.27,-83.66"/>
</g>
<!-- Node6 -->
<g id="node6" class="node">
<title>Node6</title>
<g id="a_node6"><a xlink:title=" ">
<polygon fill="white" stroke="#bfbfbf" points="375.5,-62 375.5,-81 557.5,-81 557.5,-62 375.5,-62"/>
<text text-anchor="middle" x="466.5" y="-69" font-family="Helvetica,sans-Serif" font-size="10.00">asm/dolphin/ar/ar/ARGetDMAStatus.s</text>
</a>
</g>
</g>
<!-- Node1&#45;&gt;Node6 -->
<g id="edge6" class="edge">
<title>Node1&#45;&gt;Node6</title>
<path fill="none" stroke="midnightblue" d="M744.94,-123.48C686.41,-112.76 586.02,-94.38 523.12,-82.87"/>
<polygon fill="midnightblue" stroke="midnightblue" points="523.45,-79.37 512.98,-81.01 522.18,-86.25 523.45,-79.37"/>
</g>
<!-- Node7 -->
<g id="node7" class="node">
<title>Node7</title>
<g id="a_node7"><a xlink:title=" ">
<polygon fill="white" stroke="#bfbfbf" points="576,-56.5 576,-86.5 705,-86.5 705,-56.5 576,-56.5"/>
<text text-anchor="start" x="584" y="-74.5" font-family="Helvetica,sans-Serif" font-size="10.00">asm/dolphin/ar/ar/ARStart</text>
<text text-anchor="middle" x="640.5" y="-63.5" font-family="Helvetica,sans-Serif" font-size="10.00">DMA.s</text>
</a>
</g>
</g>
<!-- Node1&#45;&gt;Node7 -->
<g id="edge7" class="edge">
<title>Node1&#45;&gt;Node7</title>
<path fill="none" stroke="midnightblue" d="M769.87,-123.48C747.98,-114.85 713.5,-101.26 685.64,-90.29"/>
<polygon fill="midnightblue" stroke="midnightblue" points="686.67,-86.93 676.09,-86.52 684.11,-93.45 686.67,-86.93"/>
</g>
<!-- Node8 -->
<g id="node8" class="node">
<title>Node8</title>
<g id="a_node8"><a xlink:title=" ">
<polygon fill="white" stroke="#bfbfbf" points="723,-62 723,-81 860,-81 860,-62 723,-62"/>
<text text-anchor="middle" x="791.5" y="-69" font-family="Helvetica,sans-Serif" font-size="10.00">asm/dolphin/ar/ar/ARAlloc.s</text>
</a>
</g>
</g>
<!-- Node1&#45;&gt;Node8 -->
<g id="edge8" class="edge">
<title>Node1&#45;&gt;Node8</title>
<path fill="none" stroke="midnightblue" d="M791.5,-123.48C791.5,-115.08 791.5,-101.98 791.5,-91.16"/>
<polygon fill="midnightblue" stroke="midnightblue" points="795,-91.01 791.5,-81.01 788,-91.01 795,-91.01"/>
</g>
<!-- Node9 -->
<g id="node9" class="node">
<title>Node9</title>
<g id="a_node9"><a xlink:title=" ">
<polygon fill="white" stroke="#bfbfbf" points="878,-62 878,-81 1007,-81 1007,-62 878,-62"/>
<text text-anchor="middle" x="942.5" y="-69" font-family="Helvetica,sans-Serif" font-size="10.00">asm/dolphin/ar/ar/ARInit.s</text>
</a>
</g>
</g>
<!-- Node1&#45;&gt;Node9 -->
<g id="edge9" class="edge">
<title>Node1&#45;&gt;Node9</title>
<path fill="none" stroke="midnightblue" d="M813.13,-123.48C838.92,-113.31 882.21,-96.26 911.54,-84.7"/>
<polygon fill="midnightblue" stroke="midnightblue" points="912.88,-87.93 920.91,-81.01 910.32,-81.42 912.88,-87.93"/>
</g>
<!-- Node10 -->
<g id="node10" class="node">
<title>Node10</title>
<g id="a_node10"><a xlink:title=" ">
<polygon fill="white" stroke="#bfbfbf" points="1025.5,-62 1025.5,-81 1175.5,-81 1175.5,-62 1025.5,-62"/>
<text text-anchor="middle" x="1100.5" y="-69" font-family="Helvetica,sans-Serif" font-size="10.00">asm/dolphin/ar/ar/ARGetSize.s</text>
</a>
</g>
</g>
<!-- Node1&#45;&gt;Node10 -->
<g id="edge10" class="edge">
<title>Node1&#45;&gt;Node10</title>
<path fill="none" stroke="midnightblue" d="M835.77,-123.48C891.3,-112.78 986.47,-94.46 1046.3,-82.94"/>
<polygon fill="midnightblue" stroke="midnightblue" points="1047.15,-86.34 1056.31,-81.01 1045.83,-79.46 1047.15,-86.34"/>
</g>
<!-- Node11 -->
<g id="node11" class="node">
<title>Node11</title>
<g id="a_node11"><a xlink:title=" ">
<polygon fill="white" stroke="#bfbfbf" points="1194,-56.5 1194,-86.5 1289,-86.5 1289,-56.5 1194,-56.5"/>
<text text-anchor="start" x="1202" y="-74.5" font-family="Helvetica,sans-Serif" font-size="10.00">asm/dolphin/ar/ar/</text>
<text text-anchor="middle" x="1241.5" y="-63.5" font-family="Helvetica,sans-Serif" font-size="10.00">__ARHandler.s</text>
</a>
</g>
</g>
<!-- Node1&#45;&gt;Node11 -->
<g id="edge11" class="edge">
<title>Node1&#45;&gt;Node11</title>
<path fill="none" stroke="midnightblue" d="M844.6,-128.21C918.5,-122.43 1056.69,-109.8 1183.8,-86.96"/>
<polygon fill="midnightblue" stroke="midnightblue" points="1184.5,-90.39 1193.71,-85.16 1183.24,-83.51 1184.5,-90.39"/>
</g>
<!-- Node12 -->
<g id="node12" class="node">
<title>Node12</title>
<g id="a_node12"><a xlink:title=" ">
<polygon fill="white" stroke="#bfbfbf" points="1307,-56.5 1307,-86.5 1414,-86.5 1414,-56.5 1307,-56.5"/>
<text text-anchor="start" x="1315" y="-74.5" font-family="Helvetica,sans-Serif" font-size="10.00">asm/dolphin/ar/ar/</text>
<text text-anchor="middle" x="1360.5" y="-63.5" font-family="Helvetica,sans-Serif" font-size="10.00">__ARClearInterrupt.s</text>
</a>
</g>
</g>
<!-- Node1&#45;&gt;Node12 -->
<g id="edge12" class="edge">
<title>Node1&#45;&gt;Node12</title>
<path fill="none" stroke="midnightblue" d="M844.72,-129.75C935.64,-125.37 1126.79,-113.81 1296.94,-87.11"/>
<polygon fill="midnightblue" stroke="midnightblue" points="1297.5,-90.57 1306.82,-85.54 1296.4,-83.66 1297.5,-90.57"/>
</g>
<!-- Node13 -->
<g id="node13" class="node">
<title>Node13</title>
<g id="a_node13"><a xlink:title=" ">
<polygon fill="white" stroke="#bfbfbf" points="1432.5,-56.5 1432.5,-86.5 1560.5,-86.5 1560.5,-56.5 1432.5,-56.5"/>
<text text-anchor="start" x="1440.5" y="-74.5" font-family="Helvetica,sans-Serif" font-size="10.00">asm/dolphin/ar/ar/</text>
<text text-anchor="middle" x="1496.5" y="-63.5" font-family="Helvetica,sans-Serif" font-size="10.00">__ARGetInterruptStatus.s</text>
</a>
</g>
</g>
<!-- Node1&#45;&gt;Node13 -->
<g id="edge13" class="edge">
<title>Node1&#45;&gt;Node13</title>
<path fill="none" stroke="midnightblue" d="M844.58,-130.46C951.88,-126.86 1202.36,-116.01 1422.36,-87.04"/>
<polygon fill="midnightblue" stroke="midnightblue" points="1423.03,-90.48 1432.48,-85.69 1422.11,-83.54 1423.03,-90.48"/>
</g>
<!-- Node14 -->
<g id="node14" class="node">
<title>Node14</title>
<g id="a_node14"><a xlink:title=" ">
<polygon fill="white" stroke="#bfbfbf" points="1579,-56.5 1579,-86.5 1674,-86.5 1674,-56.5 1579,-56.5"/>
<text text-anchor="start" x="1587" y="-74.5" font-family="Helvetica,sans-Serif" font-size="10.00">asm/dolphin/ar/ar/</text>
<text text-anchor="middle" x="1626.5" y="-63.5" font-family="Helvetica,sans-Serif" font-size="10.00">__ARChecksize.s</text>
</a>
</g>
</g>
<!-- Node1&#45;&gt;Node14 -->
<g id="edge14" class="edge">
<title>Node1&#45;&gt;Node14</title>
<path fill="none" stroke="midnightblue" d="M844.69,-132.41C969.62,-132.64 1291.43,-128.86 1568.49,-86.93"/>
<polygon fill="midnightblue" stroke="midnightblue" points="1569.39,-90.33 1578.74,-85.35 1568.33,-83.41 1569.39,-90.33"/>
</g>
<!-- Node4&#45;&gt;Node3 -->
<g id="edge4" class="edge">
<title>Node4&#45;&gt;Node3</title>
<path fill="none" stroke="midnightblue" d="M151.63,-61.98C146.63,-53.23 138.71,-39.37 132.39,-28.31"/>
<polygon fill="midnightblue" stroke="midnightblue" points="135.36,-26.46 127.36,-19.51 129.28,-29.93 135.36,-26.46"/>
</g>
</g>
</svg>
