<?xml version="1.0" encoding="UTF-8" standalone="no"?>
<!DOCTYPE svg PUBLIC "-//W3C//DTD SVG 1.1//EN"
 "http://www.w3.org/Graphics/SVG/1.1/DTD/svg11.dtd">
<!-- Generated by graphviz version 2.47.0 (20210316.2052)
 -->
<!-- Title: libs/SSystem/SComponent/c_bg_s_gnd_chk.cpp Pages: 1 -->
<svg width="1242pt" height="173pt"
 viewBox="0.00 0.00 1242.00 173.00" xmlns="http://www.w3.org/2000/svg" xmlns:xlink="http://www.w3.org/1999/xlink">
<g id="graph0" class="graph" transform="scale(1 1) rotate(0) translate(4 169)">
<title>libs/SSystem/SComponent/c_bg_s_gnd_chk.cpp</title>
<polygon fill="white" stroke="transparent" points="-4,4 -4,-169 1238,-169 1238,4 -4,4"/>
<!-- Node1 -->
<g id="node1" class="node">
<title>Node1</title>
<g id="a_node1"><a xlink:title=" ">
<polygon fill="#bfbfbf" stroke="black" points="408.5,-134.5 408.5,-164.5 542.5,-164.5 542.5,-134.5 408.5,-134.5"/>
<text text-anchor="start" x="416.5" y="-152.5" font-family="Helvetica,sans-Serif" font-size="10.00">libs/SSystem/SComponent</text>
<text text-anchor="middle" x="475.5" y="-141.5" font-family="Helvetica,sans-Serif" font-size="10.00">/c_bg_s_gnd_chk.cpp</text>
</a>
</g>
</g>
<!-- Node2 -->
<g id="node2" class="node">
<title>Node2</title>
<g id="a_node2"><a xlink:href="dol2asm_8h.html" target="_top" xlink:title=" ">
<polygon fill="white" stroke="black" points="0,-67.5 0,-86.5 61,-86.5 61,-67.5 0,-67.5"/>
<text text-anchor="middle" x="30.5" y="-74.5" font-family="Helvetica,sans-Serif" font-size="10.00">dol2asm.h</text>
</a>
</g>
</g>
<!-- Node1&#45;&gt;Node2 -->
<g id="edge1" class="edge">
<title>Node1&#45;&gt;Node2</title>
<path fill="none" stroke="midnightblue" d="M408.14,-145.99C327.68,-141.64 189.62,-129.82 75.5,-98 69.01,-96.19 62.26,-93.6 56.02,-90.89"/>
<polygon fill="midnightblue" stroke="midnightblue" points="57.29,-87.62 46.74,-86.6 54.35,-93.97 57.29,-87.62"/>
</g>
<!-- Node3 -->
<g id="node3" class="node">
<title>Node3</title>
<g id="a_node3"><a xlink:href="types_8h.html" target="_top" xlink:title=" ">
<polygon fill="white" stroke="black" points="92,-0.5 92,-19.5 173,-19.5 173,-0.5 92,-0.5"/>
<text text-anchor="middle" x="132.5" y="-7.5" font-family="Helvetica,sans-Serif" font-size="10.00">dolphin/types.h</text>
</a>
</g>
</g>
<!-- Node1&#45;&gt;Node3 -->
<g id="edge2" class="edge">
<title>Node1&#45;&gt;Node3</title>
<path fill="none" stroke="midnightblue" d="M408.12,-149.33C312.99,-148.89 146.59,-141.69 108.5,-98 91.25,-78.21 106.86,-47.05 119.71,-27.88"/>
<polygon fill="midnightblue" stroke="midnightblue" points="122.7,-29.72 125.64,-19.54 117,-25.67 122.7,-29.72"/>
</g>
<!-- Node4 -->
<g id="node4" class="node">
<title>Node4</title>
<g id="a_node4"><a xlink:href="c__bg__s__gnd__chk_8h.html" target="_top" xlink:title=" ">
<polygon fill="white" stroke="black" points="117.5,-62 117.5,-92 233.5,-92 233.5,-62 117.5,-62"/>
<text text-anchor="start" x="125.5" y="-80" font-family="Helvetica,sans-Serif" font-size="10.00">SSystem/SComponent</text>
<text text-anchor="middle" x="175.5" y="-69" font-family="Helvetica,sans-Serif" font-size="10.00">/c_bg_s_gnd_chk.h</text>
</a>
</g>
</g>
<!-- Node1&#45;&gt;Node4 -->
<g id="edge3" class="edge">
<title>Node1&#45;&gt;Node4</title>
<path fill="none" stroke="midnightblue" d="M408.45,-135.23C361.95,-125.71 298.71,-112.11 243.5,-98 239.48,-96.97 235.33,-95.87 231.17,-94.72"/>
<polygon fill="midnightblue" stroke="midnightblue" points="232.04,-91.33 221.47,-92 230.15,-98.07 232.04,-91.33"/>
</g>
<!-- Node5 -->
<g id="node5" class="node">
<title>Node5</title>
<g id="a_node5"><a xlink:title=" ">
<polygon fill="white" stroke="#bfbfbf" points="252,-56.5 252,-97.5 389,-97.5 389,-56.5 252,-56.5"/>
<text text-anchor="start" x="260" y="-85.5" font-family="Helvetica,sans-Serif" font-size="10.00">asm/SSystem/SComponent</text>
<text text-anchor="start" x="260" y="-74.5" font-family="Helvetica,sans-Serif" font-size="10.00">/c_bg_s_gnd_chk/__ct_</text>
<text text-anchor="middle" x="320.5" y="-63.5" font-family="Helvetica,sans-Serif" font-size="10.00">_11cBgS_GndChkFv.s</text>
</a>
</g>
</g>
<!-- Node1&#45;&gt;Node5 -->
<g id="edge5" class="edge">
<title>Node1&#45;&gt;Node5</title>
<path fill="none" stroke="midnightblue" d="M444.51,-134.4C423.99,-125.07 396.58,-112.61 372.75,-101.77"/>
<polygon fill="midnightblue" stroke="midnightblue" points="374.03,-98.5 363.47,-97.55 371.13,-104.87 374.03,-98.5"/>
</g>
<!-- Node6 -->
<g id="node6" class="node">
<title>Node6</title>
<g id="a_node6"><a xlink:title=" ">
<polygon fill="white" stroke="#bfbfbf" points="407,-56.5 407,-97.5 544,-97.5 544,-56.5 407,-56.5"/>
<text text-anchor="start" x="415" y="-85.5" font-family="Helvetica,sans-Serif" font-size="10.00">asm/SSystem/SComponent</text>
<text text-anchor="start" x="415" y="-74.5" font-family="Helvetica,sans-Serif" font-size="10.00">/c_bg_s_gnd_chk/__dt_</text>
<text text-anchor="middle" x="475.5" y="-63.5" font-family="Helvetica,sans-Serif" font-size="10.00">_11cBgS_GndChkFv.s</text>
</a>
</g>
</g>
<!-- Node1&#45;&gt;Node6 -->
<g id="edge6" class="edge">
<title>Node1&#45;&gt;Node6</title>
<path fill="none" stroke="midnightblue" d="M475.5,-134.23C475.5,-126.57 475.5,-116.84 475.5,-107.63"/>
<polygon fill="midnightblue" stroke="midnightblue" points="479,-107.59 475.5,-97.59 472,-107.59 479,-107.59"/>
</g>
<!-- Node7 -->
<g id="node7" class="node">
<title>Node7</title>
<g id="a_node7"><a xlink:title=" ">
<polygon fill="white" stroke="#bfbfbf" points="562.5,-56.5 562.5,-97.5 714.5,-97.5 714.5,-56.5 562.5,-56.5"/>
<text text-anchor="start" x="570.5" y="-85.5" font-family="Helvetica,sans-Serif" font-size="10.00">asm/SSystem/SComponent</text>
<text text-anchor="start" x="570.5" y="-74.5" font-family="Helvetica,sans-Serif" font-size="10.00">/c_bg_s_gnd_chk/SetPos</text>
<text text-anchor="middle" x="638.5" y="-63.5" font-family="Helvetica,sans-Serif" font-size="10.00">__11cBgS_GndChkFPC3Vec.s</text>
</a>
</g>
</g>
<!-- Node1&#45;&gt;Node7 -->
<g id="edge7" class="edge">
<title>Node1&#45;&gt;Node7</title>
<path fill="none" stroke="midnightblue" d="M508.09,-134.4C529.76,-125.03 558.74,-112.5 583.88,-101.62"/>
<polygon fill="midnightblue" stroke="midnightblue" points="585.52,-104.73 593.31,-97.55 582.74,-98.3 585.52,-104.73"/>
</g>
<!-- Node8 -->
<g id="node8" class="node">
<title>Node8</title>
<g id="a_node8"><a xlink:title=" ">
<polygon fill="white" stroke="#bfbfbf" points="733,-56.5 733,-97.5 888,-97.5 888,-56.5 733,-56.5"/>
<text text-anchor="start" x="741" y="-85.5" font-family="Helvetica,sans-Serif" font-size="10.00">asm/SSystem/SComponent</text>
<text text-anchor="start" x="741" y="-74.5" font-family="Helvetica,sans-Serif" font-size="10.00">/c_bg_s_gnd_chk/SetPos</text>
<text text-anchor="middle" x="810.5" y="-63.5" font-family="Helvetica,sans-Serif" font-size="10.00">__11cBgS_GndChkFPC4cXyz.s</text>
</a>
</g>
</g>
<!-- Node1&#45;&gt;Node8 -->
<g id="edge8" class="edge">
<title>Node1&#45;&gt;Node8</title>
<path fill="none" stroke="midnightblue" d="M542.7,-135.29C590.3,-125.82 655.92,-112.55 722.85,-98.12"/>
<polygon fill="midnightblue" stroke="midnightblue" points="723.7,-101.51 732.73,-95.98 722.22,-94.67 723.7,-101.51"/>
</g>
<!-- Node9 -->
<g id="node9" class="node">
<title>Node9</title>
<g id="a_node9"><a xlink:title=" ">
<polygon fill="white" stroke="#bfbfbf" points="906,-56.5 906,-97.5 1045,-97.5 1045,-56.5 906,-56.5"/>
<text text-anchor="start" x="914" y="-85.5" font-family="Helvetica,sans-Serif" font-size="10.00">asm/SSystem/SComponent</text>
<text text-anchor="start" x="914" y="-74.5" font-family="Helvetica,sans-Serif" font-size="10.00">/c_bg_s_gnd_chk/PreCheck</text>
<text text-anchor="middle" x="975.5" y="-63.5" font-family="Helvetica,sans-Serif" font-size="10.00">__11cBgS_GndChkFv.s</text>
</a>
</g>
</g>
<!-- Node1&#45;&gt;Node9 -->
<g id="edge9" class="edge">
<title>Node1&#45;&gt;Node9</title>
<path fill="none" stroke="midnightblue" d="M542.79,-143.2C624.3,-136.18 765.88,-121.99 895.74,-98.22"/>
<polygon fill="midnightblue" stroke="midnightblue" points="896.67,-101.61 905.86,-96.34 895.39,-94.72 896.67,-101.61"/>
</g>
<!-- Node10 -->
<g id="node10" class="node">
<title>Node10</title>
<g id="a_node10"><a xlink:title=" ">
<polygon fill="white" stroke="#bfbfbf" points="1063,-62 1063,-92 1234,-92 1234,-62 1063,-62"/>
<text text-anchor="start" x="1071" y="-80" font-family="Helvetica,sans-Serif" font-size="10.00">asm/SSystem/SComponent</text>
<text text-anchor="middle" x="1148.5" y="-69" font-family="Helvetica,sans-Serif" font-size="10.00">/c_bg_s_gnd_chk/func_80267D54.s</text>
</a>
</g>
</g>
<!-- Node1&#45;&gt;Node10 -->
<g id="edge10" class="edge">
<title>Node1&#45;&gt;Node10</title>
<path fill="none" stroke="midnightblue" d="M542.68,-145.32C650.91,-139.6 870.38,-125.51 1054.5,-98 1062.16,-96.86 1070.13,-95.47 1078.05,-93.97"/>
<polygon fill="midnightblue" stroke="midnightblue" points="1078.88,-97.37 1088.02,-92.01 1077.53,-90.5 1078.88,-97.37"/>
</g>
<!-- Node4&#45;&gt;Node3 -->
<g id="edge4" class="edge">
<title>Node4&#45;&gt;Node3</title>
<path fill="none" stroke="midnightblue" d="M166.17,-61.9C159.6,-51.96 150.76,-38.61 143.79,-28.07"/>
<polygon fill="midnightblue" stroke="midnightblue" points="146.69,-26.1 138.25,-19.69 140.85,-29.97 146.69,-26.1"/>
</g>
</g>
</svg>
