<?xml version="1.0" encoding="UTF-8" standalone="no"?>
<!DOCTYPE svg PUBLIC "-//W3C//DTD SVG 1.1//EN"
 "http://www.w3.org/Graphics/SVG/1.1/DTD/svg11.dtd">
<!-- Generated by graphviz version 2.47.0 (20210316.2052)
 -->
<!-- Title: libs/SSystem/SComponent/c_bg_s_chk.cpp Pages: 1 -->
<svg width="894pt" height="173pt"
 viewBox="0.00 0.00 893.50 173.00" xmlns="http://www.w3.org/2000/svg" xmlns:xlink="http://www.w3.org/1999/xlink">
<g id="graph0" class="graph" transform="scale(1 1) rotate(0) translate(4 169)">
<title>libs/SSystem/SComponent/c_bg_s_chk.cpp</title>
<polygon fill="white" stroke="transparent" points="-4,4 -4,-169 889.5,-169 889.5,4 -4,4"/>
<!-- Node1 -->
<g id="node1" class="node">
<title>Node1</title>
<g id="a_node1"><a xlink:title=" ">
<polygon fill="#bfbfbf" stroke="black" points="253,-134.5 253,-164.5 387,-164.5 387,-134.5 253,-134.5"/>
<text text-anchor="start" x="261" y="-152.5" font-family="Helvetica,sans-Serif" font-size="10.00">libs/SSystem/SComponent</text>
<text text-anchor="middle" x="320" y="-141.5" font-family="Helvetica,sans-Serif" font-size="10.00">/c_bg_s_chk.cpp</text>
</a>
</g>
</g>
<!-- Node2 -->
<g id="node2" class="node">
<title>Node2</title>
<g id="a_node2"><a xlink:href="c__bg__s__chk_8h.html" target="_top" xlink:title=" ">
<polygon fill="white" stroke="black" points="0,-62 0,-92 116,-92 116,-62 0,-62"/>
<text text-anchor="start" x="8" y="-80" font-family="Helvetica,sans-Serif" font-size="10.00">SSystem/SComponent</text>
<text text-anchor="middle" x="58" y="-69" font-family="Helvetica,sans-Serif" font-size="10.00">/c_bg_s_chk.h</text>
</a>
</g>
</g>
<!-- Node1&#45;&gt;Node2 -->
<g id="edge1" class="edge">
<title>Node1&#45;&gt;Node2</title>
<path fill="none" stroke="midnightblue" d="M266.31,-134.4C228.24,-124.36 175.95,-110.49 130,-98 126.17,-96.96 122.22,-95.88 118.24,-94.79"/>
<polygon fill="midnightblue" stroke="midnightblue" points="118.9,-91.34 108.33,-92.06 117.05,-98.09 118.9,-91.34"/>
</g>
<!-- Node3 -->
<g id="node3" class="node">
<title>Node3</title>
<g id="a_node3"><a xlink:href="types_8h.html" target="_top" xlink:title=" ">
<polygon fill="white" stroke="black" points="60.5,-0.5 60.5,-19.5 141.5,-19.5 141.5,-0.5 60.5,-0.5"/>
<text text-anchor="middle" x="101" y="-7.5" font-family="Helvetica,sans-Serif" font-size="10.00">dolphin/types.h</text>
</a>
</g>
</g>
<!-- Node1&#45;&gt;Node3 -->
<g id="edge4" class="edge">
<title>Node1&#45;&gt;Node3</title>
<path fill="none" stroke="midnightblue" d="M252.71,-136.54C223.46,-128.97 190.02,-116.91 164,-98 138.82,-79.7 119.7,-48.28 109.43,-28.63"/>
<polygon fill="midnightblue" stroke="midnightblue" points="112.5,-26.93 104.89,-19.56 106.24,-30.06 112.5,-26.93"/>
</g>
<!-- Node4 -->
<g id="node4" class="node">
<title>Node4</title>
<g id="a_node4"><a xlink:href="dol2asm_8h.html" target="_top" xlink:title=" ">
<polygon fill="white" stroke="black" points="172.5,-67.5 172.5,-86.5 233.5,-86.5 233.5,-67.5 172.5,-67.5"/>
<text text-anchor="middle" x="203" y="-74.5" font-family="Helvetica,sans-Serif" font-size="10.00">dol2asm.h</text>
</a>
</g>
</g>
<!-- Node1&#45;&gt;Node4 -->
<g id="edge3" class="edge">
<title>Node1&#45;&gt;Node4</title>
<path fill="none" stroke="midnightblue" d="M296.6,-134.4C276.02,-122 246.23,-104.05 225.81,-91.75"/>
<polygon fill="midnightblue" stroke="midnightblue" points="227.53,-88.7 217.16,-86.53 223.92,-94.69 227.53,-88.7"/>
</g>
<!-- Node5 -->
<g id="node5" class="node">
<title>Node5</title>
<g id="a_node5"><a xlink:title=" ">
<polygon fill="white" stroke="#bfbfbf" points="251.5,-56.5 251.5,-97.5 388.5,-97.5 388.5,-56.5 251.5,-56.5"/>
<text text-anchor="start" x="259.5" y="-85.5" font-family="Helvetica,sans-Serif" font-size="10.00">asm/SSystem/SComponent</text>
<text text-anchor="start" x="259.5" y="-74.5" font-family="Helvetica,sans-Serif" font-size="10.00">/c_bg_s_chk/__ct__8cBgS</text>
<text text-anchor="middle" x="320" y="-63.5" font-family="Helvetica,sans-Serif" font-size="10.00">_ChkFv.s</text>
</a>
</g>
</g>
<!-- Node1&#45;&gt;Node5 -->
<g id="edge5" class="edge">
<title>Node1&#45;&gt;Node5</title>
<path fill="none" stroke="midnightblue" d="M320,-134.23C320,-126.57 320,-116.84 320,-107.63"/>
<polygon fill="midnightblue" stroke="midnightblue" points="323.5,-107.59 320,-97.59 316.5,-107.59 323.5,-107.59"/>
</g>
<!-- Node6 -->
<g id="node6" class="node">
<title>Node6</title>
<g id="a_node6"><a xlink:title=" ">
<polygon fill="white" stroke="#bfbfbf" points="406.5,-56.5 406.5,-97.5 543.5,-97.5 543.5,-56.5 406.5,-56.5"/>
<text text-anchor="start" x="414.5" y="-85.5" font-family="Helvetica,sans-Serif" font-size="10.00">asm/SSystem/SComponent</text>
<text text-anchor="start" x="414.5" y="-74.5" font-family="Helvetica,sans-Serif" font-size="10.00">/c_bg_s_chk/__dt__8cBgS</text>
<text text-anchor="middle" x="475" y="-63.5" font-family="Helvetica,sans-Serif" font-size="10.00">_ChkFv.s</text>
</a>
</g>
</g>
<!-- Node1&#45;&gt;Node6 -->
<g id="edge6" class="edge">
<title>Node1&#45;&gt;Node6</title>
<path fill="none" stroke="midnightblue" d="M350.99,-134.4C371.51,-125.07 398.92,-112.61 422.75,-101.77"/>
<polygon fill="midnightblue" stroke="midnightblue" points="424.37,-104.87 432.03,-97.55 421.47,-98.5 424.37,-104.87"/>
</g>
<!-- Node7 -->
<g id="node7" class="node">
<title>Node7</title>
<g id="a_node7"><a xlink:title=" ">
<polygon fill="white" stroke="#bfbfbf" points="561.5,-56.5 561.5,-97.5 712.5,-97.5 712.5,-56.5 561.5,-56.5"/>
<text text-anchor="start" x="569.5" y="-85.5" font-family="Helvetica,sans-Serif" font-size="10.00">asm/SSystem/SComponent</text>
<text text-anchor="start" x="569.5" y="-74.5" font-family="Helvetica,sans-Serif" font-size="10.00">/c_bg_s_chk/SetExtChk</text>
<text text-anchor="middle" x="637" y="-63.5" font-family="Helvetica,sans-Serif" font-size="10.00">__8cBgS_ChkFR8cBgS_Chk.s</text>
</a>
</g>
</g>
<!-- Node1&#45;&gt;Node7 -->
<g id="edge7" class="edge">
<title>Node1&#45;&gt;Node7</title>
<path fill="none" stroke="midnightblue" d="M386.36,-134.49C430.66,-125.05 490.46,-112.15 551.63,-98.29"/>
<polygon fill="midnightblue" stroke="midnightblue" points="552.48,-101.69 561.46,-96.06 550.93,-94.86 552.48,-101.69"/>
</g>
<!-- Node8 -->
<g id="node8" class="node">
<title>Node8</title>
<g id="a_node8"><a xlink:title=" ">
<polygon fill="white" stroke="#bfbfbf" points="730.5,-56.5 730.5,-97.5 885.5,-97.5 885.5,-56.5 730.5,-56.5"/>
<text text-anchor="start" x="738.5" y="-85.5" font-family="Helvetica,sans-Serif" font-size="10.00">asm/SSystem/SComponent</text>
<text text-anchor="start" x="738.5" y="-74.5" font-family="Helvetica,sans-Serif" font-size="10.00">/c_bg_s_chk/ChkSameActorPid</text>
<text text-anchor="middle" x="808" y="-63.5" font-family="Helvetica,sans-Serif" font-size="10.00">__8cBgS_ChkCFUi.s</text>
</a>
</g>
</g>
<!-- Node1&#45;&gt;Node8 -->
<g id="edge8" class="edge">
<title>Node1&#45;&gt;Node8</title>
<path fill="none" stroke="midnightblue" d="M387.18,-142.21C465.16,-134.42 597.75,-119.7 720.32,-98.22"/>
<polygon fill="midnightblue" stroke="midnightblue" points="721.02,-101.65 730.26,-96.46 719.8,-94.76 721.02,-101.65"/>
</g>
<!-- Node2&#45;&gt;Node3 -->
<g id="edge2" class="edge">
<title>Node2&#45;&gt;Node3</title>
<path fill="none" stroke="midnightblue" d="M67.33,-61.9C73.9,-51.96 82.74,-38.61 89.71,-28.07"/>
<polygon fill="midnightblue" stroke="midnightblue" points="92.65,-29.97 95.25,-19.69 86.81,-26.1 92.65,-29.97"/>
</g>
</g>
</svg>
