<?xml version="1.0" encoding="UTF-8" standalone="no"?>
<!DOCTYPE svg PUBLIC "-//W3C//DTD SVG 1.1//EN"
 "http://www.w3.org/Graphics/SVG/1.1/DTD/svg11.dtd">
<!-- Generated by graphviz version 2.47.0 (20210316.2052)
 -->
<!-- Title: libs/SSystem/SComponent/c_bg_s_chk.cpp Pages: 1 -->
<svg width="894pt" height="173pt"
 viewBox="0.00 0.00 894.00 173.00" xmlns="http://www.w3.org/2000/svg" xmlns:xlink="http://www.w3.org/1999/xlink">
<g id="graph0" class="graph" transform="scale(1 1) rotate(0) translate(4 169)">
<title>libs/SSystem/SComponent/c_bg_s_chk.cpp</title>
<polygon fill="white" stroke="transparent" points="-4,4 -4,-169 890,-169 890,4 -4,4"/>
<!-- Node1 -->
<g id="node1" class="node">
<title>Node1</title>
<g id="a_node1"><a xlink:title=" ">
<polygon fill="#bfbfbf" stroke="black" points="253.5,-134.5 253.5,-164.5 387.5,-164.5 387.5,-134.5 253.5,-134.5"/>
<text text-anchor="start" x="261.5" y="-152.5" font-family="Helvetica,sans-Serif" font-size="10.00">libs/SSystem/SComponent</text>
<text text-anchor="middle" x="320.5" y="-141.5" font-family="Helvetica,sans-Serif" font-size="10.00">/c_bg_s_chk.cpp</text>
</a>
</g>
</g>
<!-- Node2 -->
<g id="node2" class="node">
<title>Node2</title>
<g id="a_node2"><a xlink:href="dol2asm_8h.html" target="_top" xlink:title=" ">
<polygon fill="white" stroke="black" points="0,-67.5 0,-86.5 61,-86.5 61,-67.5 0,-67.5"/>
<text text-anchor="middle" x="30.5" y="-74.5" font-family="Helvetica,sans-Serif" font-size="10.00">dol2asm.h</text>
</a>
</g>
</g>
<!-- Node1&#45;&gt;Node2 -->
<g id="edge1" class="edge">
<title>Node1&#45;&gt;Node2</title>
<path fill="none" stroke="midnightblue" d="M253.47,-138.68C203.66,-130.43 134.42,-116.92 75.5,-98 69.45,-96.06 63.12,-93.56 57.19,-90.99"/>
<polygon fill="midnightblue" stroke="midnightblue" points="58.24,-87.62 47.68,-86.68 55.35,-94 58.24,-87.62"/>
</g>
<!-- Node3 -->
<g id="node3" class="node">
<title>Node3</title>
<g id="a_node3"><a xlink:href="types_8h.html" target="_top" xlink:title=" ">
<polygon fill="white" stroke="black" points="92,-0.5 92,-19.5 173,-19.5 173,-0.5 92,-0.5"/>
<text text-anchor="middle" x="132.5" y="-7.5" font-family="Helvetica,sans-Serif" font-size="10.00">dolphin/types.h</text>
</a>
</g>
</g>
<!-- Node1&#45;&gt;Node3 -->
<g id="edge2" class="edge">
<title>Node1&#45;&gt;Node3</title>
<path fill="none" stroke="midnightblue" d="M253.33,-141.51C198.19,-134.23 126.38,-120.64 108.5,-98 92.31,-77.5 107.39,-46.8 119.87,-27.88"/>
<polygon fill="midnightblue" stroke="midnightblue" points="122.78,-29.84 125.64,-19.64 117.04,-25.82 122.78,-29.84"/>
</g>
<!-- Node4 -->
<g id="node4" class="node">
<title>Node4</title>
<g id="a_node4"><a xlink:href="c__bg__s__chk_8h.html" target="_top" xlink:title=" ">
<polygon fill="white" stroke="black" points="117.5,-62 117.5,-92 233.5,-92 233.5,-62 117.5,-62"/>
<text text-anchor="start" x="125.5" y="-80" font-family="Helvetica,sans-Serif" font-size="10.00">SSystem/SComponent</text>
<text text-anchor="middle" x="175.5" y="-69" font-family="Helvetica,sans-Serif" font-size="10.00">/c_bg_s_chk.h</text>
</a>
</g>
</g>
<!-- Node1&#45;&gt;Node4 -->
<g id="edge3" class="edge">
<title>Node1&#45;&gt;Node4</title>
<path fill="none" stroke="midnightblue" d="M291.51,-134.4C269.18,-123.55 238.12,-108.45 213.76,-96.6"/>
<polygon fill="midnightblue" stroke="midnightblue" points="214.97,-93.3 204.44,-92.07 211.91,-99.59 214.97,-93.3"/>
</g>
<!-- Node5 -->
<g id="node5" class="node">
<title>Node5</title>
<g id="a_node5"><a xlink:title=" ">
<polygon fill="white" stroke="#bfbfbf" points="252,-56.5 252,-97.5 389,-97.5 389,-56.5 252,-56.5"/>
<text text-anchor="start" x="260" y="-85.5" font-family="Helvetica,sans-Serif" font-size="10.00">asm/SSystem/SComponent</text>
<text text-anchor="start" x="260" y="-74.5" font-family="Helvetica,sans-Serif" font-size="10.00">/c_bg_s_chk/__ct__8cBgS</text>
<text text-anchor="middle" x="320.5" y="-63.5" font-family="Helvetica,sans-Serif" font-size="10.00">_ChkFv.s</text>
</a>
</g>
</g>
<!-- Node1&#45;&gt;Node5 -->
<g id="edge5" class="edge">
<title>Node1&#45;&gt;Node5</title>
<path fill="none" stroke="midnightblue" d="M320.5,-134.23C320.5,-126.57 320.5,-116.84 320.5,-107.63"/>
<polygon fill="midnightblue" stroke="midnightblue" points="324,-107.59 320.5,-97.59 317,-107.59 324,-107.59"/>
</g>
<!-- Node6 -->
<g id="node6" class="node">
<title>Node6</title>
<g id="a_node6"><a xlink:title=" ">
<polygon fill="white" stroke="#bfbfbf" points="407,-56.5 407,-97.5 544,-97.5 544,-56.5 407,-56.5"/>
<text text-anchor="start" x="415" y="-85.5" font-family="Helvetica,sans-Serif" font-size="10.00">asm/SSystem/SComponent</text>
<text text-anchor="start" x="415" y="-74.5" font-family="Helvetica,sans-Serif" font-size="10.00">/c_bg_s_chk/__dt__8cBgS</text>
<text text-anchor="middle" x="475.5" y="-63.5" font-family="Helvetica,sans-Serif" font-size="10.00">_ChkFv.s</text>
</a>
</g>
</g>
<!-- Node1&#45;&gt;Node6 -->
<g id="edge6" class="edge">
<title>Node1&#45;&gt;Node6</title>
<path fill="none" stroke="midnightblue" d="M351.49,-134.4C372.01,-125.07 399.42,-112.61 423.25,-101.77"/>
<polygon fill="midnightblue" stroke="midnightblue" points="424.87,-104.87 432.53,-97.55 421.97,-98.5 424.87,-104.87"/>
</g>
<!-- Node7 -->
<g id="node7" class="node">
<title>Node7</title>
<g id="a_node7"><a xlink:title=" ">
<polygon fill="white" stroke="#bfbfbf" points="562,-56.5 562,-97.5 713,-97.5 713,-56.5 562,-56.5"/>
<text text-anchor="start" x="570" y="-85.5" font-family="Helvetica,sans-Serif" font-size="10.00">asm/SSystem/SComponent</text>
<text text-anchor="start" x="570" y="-74.5" font-family="Helvetica,sans-Serif" font-size="10.00">/c_bg_s_chk/SetExtChk</text>
<text text-anchor="middle" x="637.5" y="-63.5" font-family="Helvetica,sans-Serif" font-size="10.00">__8cBgS_ChkFR8cBgS_Chk.s</text>
</a>
</g>
</g>
<!-- Node1&#45;&gt;Node7 -->
<g id="edge7" class="edge">
<title>Node1&#45;&gt;Node7</title>
<path fill="none" stroke="midnightblue" d="M386.86,-134.49C431.16,-125.05 490.96,-112.15 552.13,-98.29"/>
<polygon fill="midnightblue" stroke="midnightblue" points="552.98,-101.69 561.96,-96.06 551.43,-94.86 552.98,-101.69"/>
</g>
<!-- Node8 -->
<g id="node8" class="node">
<title>Node8</title>
<g id="a_node8"><a xlink:title=" ">
<polygon fill="white" stroke="#bfbfbf" points="731,-56.5 731,-97.5 886,-97.5 886,-56.5 731,-56.5"/>
<text text-anchor="start" x="739" y="-85.5" font-family="Helvetica,sans-Serif" font-size="10.00">asm/SSystem/SComponent</text>
<text text-anchor="start" x="739" y="-74.5" font-family="Helvetica,sans-Serif" font-size="10.00">/c_bg_s_chk/ChkSameActorPid</text>
<text text-anchor="middle" x="808.5" y="-63.5" font-family="Helvetica,sans-Serif" font-size="10.00">__8cBgS_ChkCFUi.s</text>
</a>
</g>
</g>
<!-- Node1&#45;&gt;Node8 -->
<g id="edge8" class="edge">
<title>Node1&#45;&gt;Node8</title>
<path fill="none" stroke="midnightblue" d="M387.68,-142.21C465.66,-134.42 598.25,-119.7 720.82,-98.22"/>
<polygon fill="midnightblue" stroke="midnightblue" points="721.52,-101.65 730.76,-96.46 720.3,-94.76 721.52,-101.65"/>
</g>
<!-- Node4&#45;&gt;Node3 -->
<g id="edge4" class="edge">
<title>Node4&#45;&gt;Node3</title>
<path fill="none" stroke="midnightblue" d="M166.17,-61.9C159.6,-51.96 150.76,-38.61 143.79,-28.07"/>
<polygon fill="midnightblue" stroke="midnightblue" points="146.69,-26.1 138.25,-19.69 140.85,-29.97 146.69,-26.1"/>
</g>
</g>
</svg>
