<?xml version="1.0" encoding="UTF-8" standalone="no"?>
<!DOCTYPE svg PUBLIC "-//W3C//DTD SVG 1.1//EN"
 "http://www.w3.org/Graphics/SVG/1.1/DTD/svg11.dtd">
<!-- Generated by graphviz version 2.47.0 (20210316.2052)
 -->
<!-- Title: libs/SSystem/SComponent/c_bg_s_gnd_chk.cpp Pages: 1 -->
<svg width="1242pt" height="173pt"
 viewBox="0.00 0.00 1241.50 173.00" xmlns="http://www.w3.org/2000/svg" xmlns:xlink="http://www.w3.org/1999/xlink">
<g id="graph0" class="graph" transform="scale(1 1) rotate(0) translate(4 169)">
<title>libs/SSystem/SComponent/c_bg_s_gnd_chk.cpp</title>
<polygon fill="white" stroke="transparent" points="-4,4 -4,-169 1237.5,-169 1237.5,4 -4,4"/>
<!-- Node1 -->
<g id="node1" class="node">
<title>Node1</title>
<g id="a_node1"><a xlink:title=" ">
<polygon fill="#bfbfbf" stroke="black" points="408,-134.5 408,-164.5 542,-164.5 542,-134.5 408,-134.5"/>
<text text-anchor="start" x="416" y="-152.5" font-family="Helvetica,sans-Serif" font-size="10.00">libs/SSystem/SComponent</text>
<text text-anchor="middle" x="475" y="-141.5" font-family="Helvetica,sans-Serif" font-size="10.00">/c_bg_s_gnd_chk.cpp</text>
</a>
</g>
</g>
<!-- Node2 -->
<g id="node2" class="node">
<title>Node2</title>
<g id="a_node2"><a xlink:href="c__bg__s__gnd__chk_8h.html" target="_top" xlink:title=" ">
<polygon fill="white" stroke="black" points="0,-62 0,-92 116,-92 116,-62 0,-62"/>
<text text-anchor="start" x="8" y="-80" font-family="Helvetica,sans-Serif" font-size="10.00">SSystem/SComponent</text>
<text text-anchor="middle" x="58" y="-69" font-family="Helvetica,sans-Serif" font-size="10.00">/c_bg_s_gnd_chk.h</text>
</a>
</g>
</g>
<!-- Node1&#45;&gt;Node2 -->
<g id="edge1" class="edge">
<title>Node1&#45;&gt;Node2</title>
<path fill="none" stroke="midnightblue" d="M407.78,-141.19C337.92,-133.01 225.65,-118.2 130,-98 125.25,-97 120.35,-95.86 115.45,-94.65"/>
<polygon fill="midnightblue" stroke="midnightblue" points="115.99,-91.17 105.43,-92.08 114.25,-97.95 115.99,-91.17"/>
</g>
<!-- Node3 -->
<g id="node3" class="node">
<title>Node3</title>
<g id="a_node3"><a xlink:href="types_8h.html" target="_top" xlink:title=" ">
<polygon fill="white" stroke="black" points="60.5,-0.5 60.5,-19.5 141.5,-19.5 141.5,-0.5 60.5,-0.5"/>
<text text-anchor="middle" x="101" y="-7.5" font-family="Helvetica,sans-Serif" font-size="10.00">dolphin/types.h</text>
</a>
</g>
</g>
<!-- Node1&#45;&gt;Node3 -->
<g id="edge4" class="edge">
<title>Node1&#45;&gt;Node3</title>
<path fill="none" stroke="midnightblue" d="M407.73,-143.58C328.83,-136.79 203.75,-122.51 164,-98 149.97,-89.35 125.28,-51.17 111.34,-28.36"/>
<polygon fill="midnightblue" stroke="midnightblue" points="114.25,-26.41 106.09,-19.66 108.26,-30.03 114.25,-26.41"/>
</g>
<!-- Node4 -->
<g id="node4" class="node">
<title>Node4</title>
<g id="a_node4"><a xlink:href="dol2asm_8h.html" target="_top" xlink:title=" ">
<polygon fill="white" stroke="black" points="172.5,-67.5 172.5,-86.5 233.5,-86.5 233.5,-67.5 172.5,-67.5"/>
<text text-anchor="middle" x="203" y="-74.5" font-family="Helvetica,sans-Serif" font-size="10.00">dol2asm.h</text>
</a>
</g>
</g>
<!-- Node1&#45;&gt;Node4 -->
<g id="edge3" class="edge">
<title>Node1&#45;&gt;Node4</title>
<path fill="none" stroke="midnightblue" d="M407.78,-138.44C360.79,-130.3 297.04,-117.05 243,-98 237.6,-96.1 231.99,-93.63 226.74,-91.08"/>
<polygon fill="midnightblue" stroke="midnightblue" points="228.3,-87.95 217.81,-86.51 225.12,-94.18 228.3,-87.95"/>
</g>
<!-- Node5 -->
<g id="node5" class="node">
<title>Node5</title>
<g id="a_node5"><a xlink:title=" ">
<polygon fill="white" stroke="#bfbfbf" points="251.5,-56.5 251.5,-97.5 388.5,-97.5 388.5,-56.5 251.5,-56.5"/>
<text text-anchor="start" x="259.5" y="-85.5" font-family="Helvetica,sans-Serif" font-size="10.00">asm/SSystem/SComponent</text>
<text text-anchor="start" x="259.5" y="-74.5" font-family="Helvetica,sans-Serif" font-size="10.00">/c_bg_s_gnd_chk/__ct_</text>
<text text-anchor="middle" x="320" y="-63.5" font-family="Helvetica,sans-Serif" font-size="10.00">_11cBgS_GndChkFv.s</text>
</a>
</g>
</g>
<!-- Node1&#45;&gt;Node5 -->
<g id="edge5" class="edge">
<title>Node1&#45;&gt;Node5</title>
<path fill="none" stroke="midnightblue" d="M444.01,-134.4C423.49,-125.07 396.08,-112.61 372.25,-101.77"/>
<polygon fill="midnightblue" stroke="midnightblue" points="373.53,-98.5 362.97,-97.55 370.63,-104.87 373.53,-98.5"/>
</g>
<!-- Node6 -->
<g id="node6" class="node">
<title>Node6</title>
<g id="a_node6"><a xlink:title=" ">
<polygon fill="white" stroke="#bfbfbf" points="406.5,-56.5 406.5,-97.5 543.5,-97.5 543.5,-56.5 406.5,-56.5"/>
<text text-anchor="start" x="414.5" y="-85.5" font-family="Helvetica,sans-Serif" font-size="10.00">asm/SSystem/SComponent</text>
<text text-anchor="start" x="414.5" y="-74.5" font-family="Helvetica,sans-Serif" font-size="10.00">/c_bg_s_gnd_chk/__dt_</text>
<text text-anchor="middle" x="475" y="-63.5" font-family="Helvetica,sans-Serif" font-size="10.00">_11cBgS_GndChkFv.s</text>
</a>
</g>
</g>
<!-- Node1&#45;&gt;Node6 -->
<g id="edge6" class="edge">
<title>Node1&#45;&gt;Node6</title>
<path fill="none" stroke="midnightblue" d="M475,-134.23C475,-126.57 475,-116.84 475,-107.63"/>
<polygon fill="midnightblue" stroke="midnightblue" points="478.5,-107.59 475,-97.59 471.5,-107.59 478.5,-107.59"/>
</g>
<!-- Node7 -->
<g id="node7" class="node">
<title>Node7</title>
<g id="a_node7"><a xlink:title=" ">
<polygon fill="white" stroke="#bfbfbf" points="562,-56.5 562,-97.5 714,-97.5 714,-56.5 562,-56.5"/>
<text text-anchor="start" x="570" y="-85.5" font-family="Helvetica,sans-Serif" font-size="10.00">asm/SSystem/SComponent</text>
<text text-anchor="start" x="570" y="-74.5" font-family="Helvetica,sans-Serif" font-size="10.00">/c_bg_s_gnd_chk/SetPos</text>
<text text-anchor="middle" x="638" y="-63.5" font-family="Helvetica,sans-Serif" font-size="10.00">__11cBgS_GndChkFPC3Vec.s</text>
</a>
</g>
</g>
<!-- Node1&#45;&gt;Node7 -->
<g id="edge7" class="edge">
<title>Node1&#45;&gt;Node7</title>
<path fill="none" stroke="midnightblue" d="M507.59,-134.4C529.26,-125.03 558.24,-112.5 583.38,-101.62"/>
<polygon fill="midnightblue" stroke="midnightblue" points="585.02,-104.73 592.81,-97.55 582.24,-98.3 585.02,-104.73"/>
</g>
<!-- Node8 -->
<g id="node8" class="node">
<title>Node8</title>
<g id="a_node8"><a xlink:title=" ">
<polygon fill="white" stroke="#bfbfbf" points="732.5,-56.5 732.5,-97.5 887.5,-97.5 887.5,-56.5 732.5,-56.5"/>
<text text-anchor="start" x="740.5" y="-85.5" font-family="Helvetica,sans-Serif" font-size="10.00">asm/SSystem/SComponent</text>
<text text-anchor="start" x="740.5" y="-74.5" font-family="Helvetica,sans-Serif" font-size="10.00">/c_bg_s_gnd_chk/SetPos</text>
<text text-anchor="middle" x="810" y="-63.5" font-family="Helvetica,sans-Serif" font-size="10.00">__11cBgS_GndChkFPC4cXyz.s</text>
</a>
</g>
</g>
<!-- Node1&#45;&gt;Node8 -->
<g id="edge8" class="edge">
<title>Node1&#45;&gt;Node8</title>
<path fill="none" stroke="midnightblue" d="M542.2,-135.29C589.8,-125.82 655.42,-112.55 722.35,-98.12"/>
<polygon fill="midnightblue" stroke="midnightblue" points="723.2,-101.51 732.23,-95.98 721.72,-94.67 723.2,-101.51"/>
</g>
<!-- Node9 -->
<g id="node9" class="node">
<title>Node9</title>
<g id="a_node9"><a xlink:title=" ">
<polygon fill="white" stroke="#bfbfbf" points="905.5,-56.5 905.5,-97.5 1044.5,-97.5 1044.5,-56.5 905.5,-56.5"/>
<text text-anchor="start" x="913.5" y="-85.5" font-family="Helvetica,sans-Serif" font-size="10.00">asm/SSystem/SComponent</text>
<text text-anchor="start" x="913.5" y="-74.5" font-family="Helvetica,sans-Serif" font-size="10.00">/c_bg_s_gnd_chk/PreCheck</text>
<text text-anchor="middle" x="975" y="-63.5" font-family="Helvetica,sans-Serif" font-size="10.00">__11cBgS_GndChkFv.s</text>
</a>
</g>
</g>
<!-- Node1&#45;&gt;Node9 -->
<g id="edge9" class="edge">
<title>Node1&#45;&gt;Node9</title>
<path fill="none" stroke="midnightblue" d="M542.29,-143.2C623.8,-136.18 765.38,-121.99 895.24,-98.22"/>
<polygon fill="midnightblue" stroke="midnightblue" points="896.17,-101.61 905.36,-96.34 894.89,-94.72 896.17,-101.61"/>
</g>
<!-- Node10 -->
<g id="node10" class="node">
<title>Node10</title>
<g id="a_node10"><a xlink:title=" ">
<polygon fill="white" stroke="#bfbfbf" points="1062.5,-62 1062.5,-92 1233.5,-92 1233.5,-62 1062.5,-62"/>
<text text-anchor="start" x="1070.5" y="-80" font-family="Helvetica,sans-Serif" font-size="10.00">asm/SSystem/SComponent</text>
<text text-anchor="middle" x="1148" y="-69" font-family="Helvetica,sans-Serif" font-size="10.00">/c_bg_s_gnd_chk/func_80267D54.s</text>
</a>
</g>
</g>
<!-- Node1&#45;&gt;Node10 -->
<g id="edge10" class="edge">
<title>Node1&#45;&gt;Node10</title>
<path fill="none" stroke="midnightblue" d="M542.18,-145.32C650.41,-139.6 869.88,-125.51 1054,-98 1061.66,-96.86 1069.63,-95.47 1077.55,-93.97"/>
<polygon fill="midnightblue" stroke="midnightblue" points="1078.38,-97.37 1087.52,-92.01 1077.03,-90.5 1078.38,-97.37"/>
</g>
<!-- Node2&#45;&gt;Node3 -->
<g id="edge2" class="edge">
<title>Node2&#45;&gt;Node3</title>
<path fill="none" stroke="midnightblue" d="M67.33,-61.9C73.9,-51.96 82.74,-38.61 89.71,-28.07"/>
<polygon fill="midnightblue" stroke="midnightblue" points="92.65,-29.97 95.25,-19.69 86.81,-26.1 92.65,-29.97"/>
</g>
</g>
</svg>
