<?xml version="1.0" encoding="UTF-8" standalone="no"?>
<!DOCTYPE svg PUBLIC "-//W3C//DTD SVG 1.1//EN"
 "http://www.w3.org/Graphics/SVG/1.1/DTD/svg11.dtd">
<!-- Generated by graphviz version 2.47.0 (20210316.2052)
 -->
<!-- Title: libs/SSystem/SComponent/c_bg_s_lin_chk.cpp Pages: 1 -->
<svg width="1264pt" height="173pt"
 viewBox="0.00 0.00 1263.50 173.00" xmlns="http://www.w3.org/2000/svg" xmlns:xlink="http://www.w3.org/1999/xlink">
<g id="graph0" class="graph" transform="scale(1 1) rotate(0) translate(4 169)">
<title>libs/SSystem/SComponent/c_bg_s_lin_chk.cpp</title>
<polygon fill="white" stroke="transparent" points="-4,4 -4,-169 1259.5,-169 1259.5,4 -4,4"/>
<!-- Node1 -->
<g id="node1" class="node">
<title>Node1</title>
<g id="a_node1"><a xlink:title=" ">
<polygon fill="#bfbfbf" stroke="black" points="408.5,-134.5 408.5,-164.5 542.5,-164.5 542.5,-134.5 408.5,-134.5"/>
<text text-anchor="start" x="416.5" y="-152.5" font-family="Helvetica,sans-Serif" font-size="10.00">libs/SSystem/SComponent</text>
<text text-anchor="middle" x="475.5" y="-141.5" font-family="Helvetica,sans-Serif" font-size="10.00">/c_bg_s_lin_chk.cpp</text>
</a>
</g>
</g>
<!-- Node2 -->
<g id="node2" class="node">
<title>Node2</title>
<g id="a_node2"><a xlink:href="dol2asm_8h.html" target="_top" xlink:title=" ">
<polygon fill="white" stroke="black" points="0,-67.5 0,-86.5 61,-86.5 61,-67.5 0,-67.5"/>
<text text-anchor="middle" x="30.5" y="-74.5" font-family="Helvetica,sans-Serif" font-size="10.00">dol2asm.h</text>
</a>
</g>
</g>
<!-- Node1&#45;&gt;Node2 -->
<g id="edge1" class="edge">
<title>Node1&#45;&gt;Node2</title>
<path fill="none" stroke="midnightblue" d="M408.14,-145.99C327.68,-141.64 189.62,-129.82 75.5,-98 69.01,-96.19 62.26,-93.6 56.02,-90.89"/>
<polygon fill="midnightblue" stroke="midnightblue" points="57.29,-87.62 46.74,-86.6 54.35,-93.97 57.29,-87.62"/>
</g>
<!-- Node3 -->
<g id="node3" class="node">
<title>Node3</title>
<g id="a_node3"><a xlink:href="types_8h.html" target="_top" xlink:title=" ">
<polygon fill="white" stroke="black" points="92,-0.5 92,-19.5 173,-19.5 173,-0.5 92,-0.5"/>
<text text-anchor="middle" x="132.5" y="-7.5" font-family="Helvetica,sans-Serif" font-size="10.00">dolphin/types.h</text>
</a>
</g>
</g>
<!-- Node1&#45;&gt;Node3 -->
<g id="edge2" class="edge">
<title>Node1&#45;&gt;Node3</title>
<path fill="none" stroke="midnightblue" d="M408.12,-149.33C312.99,-148.89 146.59,-141.69 108.5,-98 91.25,-78.21 106.86,-47.05 119.71,-27.88"/>
<polygon fill="midnightblue" stroke="midnightblue" points="122.7,-29.72 125.64,-19.54 117,-25.67 122.7,-29.72"/>
</g>
<!-- Node4 -->
<g id="node4" class="node">
<title>Node4</title>
<g id="a_node4"><a xlink:href="c__bg__s__lin__chk_8h.html" target="_top" xlink:title=" ">
<polygon fill="white" stroke="black" points="117.5,-62 117.5,-92 233.5,-92 233.5,-62 117.5,-62"/>
<text text-anchor="start" x="125.5" y="-80" font-family="Helvetica,sans-Serif" font-size="10.00">SSystem/SComponent</text>
<text text-anchor="middle" x="175.5" y="-69" font-family="Helvetica,sans-Serif" font-size="10.00">/c_bg_s_lin_chk.h</text>
</a>
</g>
</g>
<!-- Node1&#45;&gt;Node4 -->
<g id="edge3" class="edge">
<title>Node1&#45;&gt;Node4</title>
<path fill="none" stroke="midnightblue" d="M408.45,-135.23C361.95,-125.71 298.71,-112.11 243.5,-98 239.48,-96.97 235.33,-95.87 231.17,-94.72"/>
<polygon fill="midnightblue" stroke="midnightblue" points="232.04,-91.33 221.47,-92 230.15,-98.07 232.04,-91.33"/>
</g>
<!-- Node5 -->
<g id="node5" class="node">
<title>Node5</title>
<g id="a_node5"><a xlink:title=" ">
<polygon fill="white" stroke="#bfbfbf" points="252,-56.5 252,-97.5 389,-97.5 389,-56.5 252,-56.5"/>
<text text-anchor="start" x="260" y="-85.5" font-family="Helvetica,sans-Serif" font-size="10.00">asm/SSystem/SComponent</text>
<text text-anchor="start" x="260" y="-74.5" font-family="Helvetica,sans-Serif" font-size="10.00">/c_bg_s_lin_chk/__ct_</text>
<text text-anchor="middle" x="320.5" y="-63.5" font-family="Helvetica,sans-Serif" font-size="10.00">_11cBgS_LinChkFv.s</text>
</a>
</g>
</g>
<!-- Node1&#45;&gt;Node5 -->
<g id="edge5" class="edge">
<title>Node1&#45;&gt;Node5</title>
<path fill="none" stroke="midnightblue" d="M444.51,-134.4C423.99,-125.07 396.58,-112.61 372.75,-101.77"/>
<polygon fill="midnightblue" stroke="midnightblue" points="374.03,-98.5 363.47,-97.55 371.13,-104.87 374.03,-98.5"/>
</g>
<!-- Node6 -->
<g id="node6" class="node">
<title>Node6</title>
<g id="a_node6"><a xlink:title=" ">
<polygon fill="white" stroke="#bfbfbf" points="407,-56.5 407,-97.5 544,-97.5 544,-56.5 407,-56.5"/>
<text text-anchor="start" x="415" y="-85.5" font-family="Helvetica,sans-Serif" font-size="10.00">asm/SSystem/SComponent</text>
<text text-anchor="start" x="415" y="-74.5" font-family="Helvetica,sans-Serif" font-size="10.00">/c_bg_s_lin_chk/__dt_</text>
<text text-anchor="middle" x="475.5" y="-63.5" font-family="Helvetica,sans-Serif" font-size="10.00">_11cBgS_LinChkFv.s</text>
</a>
</g>
</g>
<!-- Node1&#45;&gt;Node6 -->
<g id="edge6" class="edge">
<title>Node1&#45;&gt;Node6</title>
<path fill="none" stroke="midnightblue" d="M475.5,-134.23C475.5,-126.57 475.5,-116.84 475.5,-107.63"/>
<polygon fill="midnightblue" stroke="midnightblue" points="479,-107.59 475.5,-97.59 472,-107.59 479,-107.59"/>
</g>
<!-- Node7 -->
<g id="node7" class="node">
<title>Node7</title>
<g id="a_node7"><a xlink:title=" ">
<polygon fill="white" stroke="#bfbfbf" points="562,-56.5 562,-97.5 705,-97.5 705,-56.5 562,-56.5"/>
<text text-anchor="start" x="570" y="-85.5" font-family="Helvetica,sans-Serif" font-size="10.00">asm/SSystem/SComponent</text>
<text text-anchor="start" x="570" y="-74.5" font-family="Helvetica,sans-Serif" font-size="10.00">/c_bg_s_lin_chk/ct__11cBgS</text>
<text text-anchor="middle" x="633.5" y="-63.5" font-family="Helvetica,sans-Serif" font-size="10.00">_LinChkFv.s</text>
</a>
</g>
</g>
<!-- Node1&#45;&gt;Node7 -->
<g id="edge7" class="edge">
<title>Node1&#45;&gt;Node7</title>
<path fill="none" stroke="midnightblue" d="M507.09,-134.4C528.1,-125.03 556.19,-112.5 580.56,-101.62"/>
<polygon fill="midnightblue" stroke="midnightblue" points="581.99,-104.82 589.69,-97.55 579.14,-98.42 581.99,-104.82"/>
</g>
<!-- Node8 -->
<g id="node8" class="node">
<title>Node8</title>
<g id="a_node8"><a xlink:title=" ">
<polygon fill="white" stroke="#bfbfbf" points="723,-56.5 723,-97.5 918,-97.5 918,-56.5 723,-56.5"/>
<text text-anchor="start" x="731" y="-85.5" font-family="Helvetica,sans-Serif" font-size="10.00">asm/SSystem/SComponent</text>
<text text-anchor="start" x="731" y="-74.5" font-family="Helvetica,sans-Serif" font-size="10.00">/c_bg_s_lin_chk/Set2_</text>
<text text-anchor="middle" x="820.5" y="-63.5" font-family="Helvetica,sans-Serif" font-size="10.00">_11cBgS_LinChkFPC4cXyzPC4cXyzUi.s</text>
</a>
</g>
</g>
<!-- Node1&#45;&gt;Node8 -->
<g id="edge8" class="edge">
<title>Node1&#45;&gt;Node8</title>
<path fill="none" stroke="midnightblue" d="M542.84,-134.74C591.77,-124.74 658.95,-111.01 714.98,-99.56"/>
<polygon fill="midnightblue" stroke="midnightblue" points="715.84,-102.96 724.94,-97.53 714.44,-96.1 715.84,-102.96"/>
</g>
<!-- Node9 -->
<g id="node9" class="node">
<title>Node9</title>
<g id="a_node9"><a xlink:title=" ">
<polygon fill="white" stroke="#bfbfbf" points="936,-56.5 936,-97.5 1073,-97.5 1073,-56.5 936,-56.5"/>
<text text-anchor="start" x="944" y="-85.5" font-family="Helvetica,sans-Serif" font-size="10.00">asm/SSystem/SComponent</text>
<text text-anchor="start" x="944" y="-74.5" font-family="Helvetica,sans-Serif" font-size="10.00">/c_bg_s_lin_chk/PreCalc</text>
<text text-anchor="middle" x="1004.5" y="-63.5" font-family="Helvetica,sans-Serif" font-size="10.00">__11cBgS_LinChkFv.s</text>
</a>
</g>
</g>
<!-- Node1&#45;&gt;Node9 -->
<g id="edge9" class="edge">
<title>Node1&#45;&gt;Node9</title>
<path fill="none" stroke="midnightblue" d="M542.57,-144.02C629.14,-137.56 784.51,-123.7 925.63,-98.23"/>
<polygon fill="midnightblue" stroke="midnightblue" points="926.56,-101.62 935.76,-96.37 925.3,-94.73 926.56,-101.62"/>
</g>
<!-- Node10 -->
<g id="node10" class="node">
<title>Node10</title>
<g id="a_node10"><a xlink:title=" ">
<polygon fill="white" stroke="#bfbfbf" points="1091.5,-62 1091.5,-92 1255.5,-92 1255.5,-62 1091.5,-62"/>
<text text-anchor="start" x="1099.5" y="-80" font-family="Helvetica,sans-Serif" font-size="10.00">asm/SSystem/SComponent</text>
<text text-anchor="middle" x="1173.5" y="-69" font-family="Helvetica,sans-Serif" font-size="10.00">/c_bg_s_lin_chk/func_80267F80.s</text>
</a>
</g>
</g>
<!-- Node1&#45;&gt;Node10 -->
<g id="edge10" class="edge">
<title>Node1&#45;&gt;Node10</title>
<path fill="none" stroke="midnightblue" d="M542.76,-145.84C655.08,-140.73 887.75,-127.37 1082.5,-98 1089.84,-96.89 1097.47,-95.54 1105.06,-94.07"/>
<polygon fill="midnightblue" stroke="midnightblue" points="1105.86,-97.47 1114.97,-92.07 1104.48,-90.61 1105.86,-97.47"/>
</g>
<!-- Node4&#45;&gt;Node3 -->
<g id="edge4" class="edge">
<title>Node4&#45;&gt;Node3</title>
<path fill="none" stroke="midnightblue" d="M166.17,-61.9C159.6,-51.96 150.76,-38.61 143.79,-28.07"/>
<polygon fill="midnightblue" stroke="midnightblue" points="146.69,-26.1 138.25,-19.69 140.85,-29.97 146.69,-26.1"/>
</g>
</g>
</svg>
