<?xml version="1.0" encoding="UTF-8" standalone="no"?>
<!DOCTYPE svg PUBLIC "-//W3C//DTD SVG 1.1//EN"
 "http://www.w3.org/Graphics/SVG/1.1/DTD/svg11.dtd">
<!-- Generated by graphviz version 2.47.0 (20210316.2052)
 -->
<!-- Title: libs/SSystem/SComponent/c_bg_w.cpp Pages: 1 -->
<!--zoomable 173 -->
<svg id="main" version="1.1" xmlns="http://www.w3.org/2000/svg" xmlns:xlink="http://www.w3.org/1999/xlink" xml:space="preserve" onload="init(evt)">
<style type="text/css"><![CDATA[
.edge:hover path { stroke: red; }
.edge:hover polygon { stroke: red; fill: red; }
]]></style>
<script type="text/javascript"><![CDATA[
var edges = document.getElementsByTagName('g');
if (edges && edges.length) {
  for (var i=0;i<edges.length;i++) {
    if (edges[i].id.substr(0,4)=='edge') {
      edges[i].setAttribute('class','edge');
    }
  }
}
]]></script>
        <defs>
                <circle id="rim" cx="0" cy="0" r="7"/>
                <circle id="rim2" cx="0" cy="0" r="3.5"/>
                <g id="zoomPlus">
                        <use xlink:href="#rim" fill="#404040">
                                <set attributeName="fill" to="#808080" begin="zoomplus.mouseover" end="zoomplus.mouseout"/>
                        </use>
                        <path d="M-4,0h8M0,-4v8" fill="none" stroke="white" stroke-width="1.5" pointer-events="none"/>
                </g>
                <g id="zoomMin">
                        <use xlink:href="#rim" fill="#404040">
                                <set attributeName="fill" to="#808080" begin="zoomminus.mouseover" end="zoomminus.mouseout"/>
                        </use>
                        <path d="M-4,0h8" fill="none" stroke="white" stroke-width="1.5" pointer-events="none"/>
                </g>
                <g id="dirArrow">
                        <path fill="none" stroke="white" stroke-width="1.5" d="M0,-3.0v7 M-2.5,-0.5L0,-3.0L2.5,-0.5"/>
                </g>
               <g id="resetDef">
                       <use xlink:href="#rim2" fill="#404040">
                               <set attributeName="fill" to="#808080" begin="reset.mouseover" end="reset.mouseout"/>
                       </use>
               </g>
        </defs>

<script type="text/javascript">
var viewWidth = 1282;
var viewHeight = 173;
var sectionId = 'dynsection-0';
</script>
<script xlink:href="svgpan.js"/>
<svg id="graph" class="graph">
<g id="viewport">
<title>libs/SSystem/SComponent/c_bg_w.cpp</title>
<polygon fill="white" stroke="transparent" points="-4,4 -4,-169 1278,-169 1278,4 -4,4"/>
<!-- Node1 -->
<g id="node1" class="node">
<title>Node1</title>
<g id="a_node1"><a xlink:title=" ">
<polygon fill="#bfbfbf" stroke="black" points="408,-134.5 408,-164.5 542,-164.5 542,-134.5 408,-134.5"/>
<text text-anchor="start" x="416" y="-152.5" font-family="Helvetica,sans-Serif" font-size="10.00">libs/SSystem/SComponent</text>
<text text-anchor="middle" x="475" y="-141.5" font-family="Helvetica,sans-Serif" font-size="10.00">/c_bg_w.cpp</text>
</a>
</g>
</g>
<!-- Node2 -->
<g id="node2" class="node">
<title>Node2</title>
<g id="a_node2"><a xlink:href="c__bg__w_8h.html" target="_top" xlink:title=" ">
<polygon fill="white" stroke="black" points="0,-62 0,-92 116,-92 116,-62 0,-62"/>
<text text-anchor="start" x="8" y="-80" font-family="Helvetica,sans-Serif" font-size="10.00">SSystem/SComponent</text>
<text text-anchor="middle" x="58" y="-69" font-family="Helvetica,sans-Serif" font-size="10.00">/c_bg_w.h</text>
</a>
</g>
</g>
<!-- Node1&#45;&gt;Node2 -->
<g id="edge1" class="edge">
<title>Node1&#45;&gt;Node2</title>
<path fill="none" stroke="midnightblue" d="M407.78,-141.19C337.92,-133.01 225.65,-118.2 130,-98 125.25,-97 120.35,-95.86 115.45,-94.65"/>
<polygon fill="midnightblue" stroke="midnightblue" points="115.99,-91.17 105.43,-92.08 114.25,-97.95 115.99,-91.17"/>
</g>
<!-- Node3 -->
<g id="node3" class="node">
<title>Node3</title>
<g id="a_node3"><a xlink:href="types_8h.html" target="_top" xlink:title=" ">
<polygon fill="white" stroke="black" points="60.5,-0.5 60.5,-19.5 141.5,-19.5 141.5,-0.5 60.5,-0.5"/>
<text text-anchor="middle" x="101" y="-7.5" font-family="Helvetica,sans-Serif" font-size="10.00">dolphin/types.h</text>
</a>
</g>
</g>
<!-- Node1&#45;&gt;Node3 -->
<g id="edge4" class="edge">
<title>Node1&#45;&gt;Node3</title>
<path fill="none" stroke="midnightblue" d="M407.73,-143.58C328.83,-136.79 203.75,-122.51 164,-98 149.97,-89.35 125.28,-51.17 111.34,-28.36"/>
<polygon fill="midnightblue" stroke="midnightblue" points="114.25,-26.41 106.09,-19.66 108.26,-30.03 114.25,-26.41"/>
</g>
<!-- Node4 -->
<g id="node4" class="node">
<title>Node4</title>
<g id="a_node4"><a xlink:href="dol2asm_8h.html" target="_top" xlink:title=" ">
<polygon fill="white" stroke="black" points="172.5,-67.5 172.5,-86.5 233.5,-86.5 233.5,-67.5 172.5,-67.5"/>
<text text-anchor="middle" x="203" y="-74.5" font-family="Helvetica,sans-Serif" font-size="10.00">dol2asm.h</text>
</a>
</g>
</g>
<!-- Node1&#45;&gt;Node4 -->
<g id="edge3" class="edge">
<title>Node1&#45;&gt;Node4</title>
<path fill="none" stroke="midnightblue" d="M407.78,-138.44C360.79,-130.3 297.04,-117.05 243,-98 237.6,-96.1 231.99,-93.63 226.74,-91.08"/>
<polygon fill="midnightblue" stroke="midnightblue" points="228.3,-87.95 217.81,-86.51 225.12,-94.18 228.3,-87.95"/>
</g>
<!-- Node5 -->
<g id="node5" class="node">
<title>Node5</title>
<g id="a_node5"><a xlink:title=" ">
<polygon fill="white" stroke="#bfbfbf" points="251.5,-56.5 251.5,-97.5 388.5,-97.5 388.5,-56.5 251.5,-56.5"/>
<text text-anchor="start" x="259.5" y="-85.5" font-family="Helvetica,sans-Serif" font-size="10.00">asm/SSystem/SComponent</text>
<text text-anchor="start" x="259.5" y="-74.5" font-family="Helvetica,sans-Serif" font-size="10.00">/c_bg_w/Regist__9cBgW</text>
<text text-anchor="middle" x="320" y="-63.5" font-family="Helvetica,sans-Serif" font-size="10.00">_BgIdFi.s</text>
</a>
</g>
</g>
<!-- Node1&#45;&gt;Node5 -->
<g id="edge5" class="edge">
<title>Node1&#45;&gt;Node5</title>
<path fill="none" stroke="midnightblue" d="M444.01,-134.4C423.49,-125.07 396.08,-112.61 372.25,-101.77"/>
<polygon fill="midnightblue" stroke="midnightblue" points="373.53,-98.5 362.97,-97.55 370.63,-104.87 373.53,-98.5"/>
</g>
<!-- Node6 -->
<g id="node6" class="node">
<title>Node6</title>
<g id="a_node6"><a xlink:title=" ">
<polygon fill="white" stroke="#bfbfbf" points="406.5,-56.5 406.5,-97.5 543.5,-97.5 543.5,-56.5 406.5,-56.5"/>
<text text-anchor="start" x="414.5" y="-85.5" font-family="Helvetica,sans-Serif" font-size="10.00">asm/SSystem/SComponent</text>
<text text-anchor="start" x="414.5" y="-74.5" font-family="Helvetica,sans-Serif" font-size="10.00">/c_bg_w/Release__9cBgW</text>
<text text-anchor="middle" x="475" y="-63.5" font-family="Helvetica,sans-Serif" font-size="10.00">_BgIdFv.s</text>
</a>
</g>
</g>
<!-- Node1&#45;&gt;Node6 -->
<g id="edge6" class="edge">
<title>Node1&#45;&gt;Node6</title>
<path fill="none" stroke="midnightblue" d="M475,-134.23C475,-126.57 475,-116.84 475,-107.63"/>
<polygon fill="midnightblue" stroke="midnightblue" points="478.5,-107.59 475,-97.59 471.5,-107.59 478.5,-107.59"/>
</g>
<!-- Node7 -->
<g id="node7" class="node">
<title>Node7</title>
<g id="a_node7"><a xlink:title=" ">
<polygon fill="white" stroke="#bfbfbf" points="561.5,-56.5 561.5,-97.5 700.5,-97.5 700.5,-56.5 561.5,-56.5"/>
<text text-anchor="start" x="569.5" y="-85.5" font-family="Helvetica,sans-Serif" font-size="10.00">asm/SSystem/SComponent</text>
<text text-anchor="start" x="569.5" y="-74.5" font-family="Helvetica,sans-Serif" font-size="10.00">/c_bg_w/ChkUsed__9cBgW</text>
<text text-anchor="middle" x="631" y="-63.5" font-family="Helvetica,sans-Serif" font-size="10.00">_BgIdCFv.s</text>
</a>
</g>
</g>
<!-- Node1&#45;&gt;Node7 -->
<g id="edge7" class="edge">
<title>Node1&#45;&gt;Node7</title>
<path fill="none" stroke="midnightblue" d="M506.19,-134.4C526.84,-125.07 554.42,-112.61 578.41,-101.77"/>
<polygon fill="midnightblue" stroke="midnightblue" points="580.08,-104.85 587.75,-97.55 577.19,-98.48 580.08,-104.85"/>
</g>
<!-- Node8 -->
<g id="node8" class="node">
<title>Node8</title>
<g id="a_node8"><a xlink:title=" ">
<polygon fill="white" stroke="#bfbfbf" points="718.5,-62 718.5,-92 899.5,-92 899.5,-62 718.5,-62"/>
<text text-anchor="start" x="726.5" y="-80" font-family="Helvetica,sans-Serif" font-size="10.00">asm/SSystem/SComponent</text>
<text text-anchor="middle" x="809" y="-69" font-family="Helvetica,sans-Serif" font-size="10.00">/c_bg_w/cBgW_CheckBGround__Ff.s</text>
</a>
</g>
</g>
<!-- Node1&#45;&gt;Node8 -->
<g id="edge8" class="edge">
<title>Node1&#45;&gt;Node8</title>
<path fill="none" stroke="midnightblue" d="M541.39,-134.49C596.51,-122.85 674.94,-106.3 732.65,-94.11"/>
<polygon fill="midnightblue" stroke="midnightblue" points="733.39,-97.54 742.45,-92.05 731.95,-90.69 733.39,-97.54"/>
</g>
<!-- Node9 -->
<g id="node9" class="node">
<title>Node9</title>
<g id="a_node9"><a xlink:title=" ">
<polygon fill="white" stroke="#bfbfbf" points="918,-62 918,-92 1088,-92 1088,-62 918,-62"/>
<text text-anchor="start" x="926" y="-80" font-family="Helvetica,sans-Serif" font-size="10.00">asm/SSystem/SComponent</text>
<text text-anchor="middle" x="1003" y="-69" font-family="Helvetica,sans-Serif" font-size="10.00">/c_bg_w/cBgW_CheckBRoof__Ff.s</text>
</a>
</g>
</g>
<!-- Node1&#45;&gt;Node9 -->
<g id="edge9" class="edge">
<title>Node1&#45;&gt;Node9</title>
<path fill="none" stroke="midnightblue" d="M542.19,-142.65C627.71,-134.76 779.88,-119.2 909,-98 916.27,-96.81 923.83,-95.43 931.36,-93.97"/>
<polygon fill="midnightblue" stroke="midnightblue" points="932.09,-97.39 941.22,-92.01 930.73,-90.53 932.09,-97.39"/>
</g>
<!-- Node10 -->
<g id="node10" class="node">
<title>Node10</title>
<g id="a_node10"><a xlink:title=" ">
<polygon fill="white" stroke="#bfbfbf" points="1106,-62 1106,-92 1274,-92 1274,-62 1106,-62"/>
<text text-anchor="start" x="1114" y="-80" font-family="Helvetica,sans-Serif" font-size="10.00">asm/SSystem/SComponent</text>
<text text-anchor="middle" x="1190" y="-69" font-family="Helvetica,sans-Serif" font-size="10.00">/c_bg_w/cBgW_CheckBWall__Ff.s</text>
</a>
</g>
</g>
<!-- Node1&#45;&gt;Node10 -->
<g id="edge10" class="edge">
<title>Node1&#45;&gt;Node10</title>
<path fill="none" stroke="midnightblue" d="M542.06,-145.93C656.43,-140.92 896.3,-127.6 1097,-98 1104.58,-96.88 1112.47,-95.51 1120.31,-94.02"/>
<polygon fill="midnightblue" stroke="midnightblue" points="1121.04,-97.44 1130.18,-92.07 1119.69,-90.57 1121.04,-97.44"/>
</g>
<!-- Node2&#45;&gt;Node3 -->
<g id="edge2" class="edge">
<title>Node2&#45;&gt;Node3</title>
<path fill="none" stroke="midnightblue" d="M67.33,-61.9C73.9,-51.96 82.74,-38.61 89.71,-28.07"/>
<polygon fill="midnightblue" stroke="midnightblue" points="92.65,-29.97 95.25,-19.69 86.81,-26.1 92.65,-29.97"/>
</g>
</g>
</svg>
        <g id="navigator" transform="translate(0 0)" fill="#404254">
                <rect fill="#f2f5e9" fill-opacity="0.5" stroke="#606060" stroke-width=".5" x="0" y="0" width="60" height="60"/>
                <use id="zoomplus" xlink:href="#zoomPlus" x="17" y="9" onmousedown="handleZoom(evt,'in')"/>
                <use id="zoomminus" xlink:href="#zoomMin" x="42" y="9" onmousedown="handleZoom(evt,'out')"/>
                <use id="reset" xlink:href="#resetDef" x="30" y="36" onmousedown="handleReset()"/>
                <g id="arrowUp" xlink:href="#dirArrow" transform="translate(30 24)" onmousedown="handlePan(0,-1)">
                  <use xlink:href="#rim" fill="#404040">
                        <set attributeName="fill" to="#808080" begin="arrowUp.mouseover" end="arrowUp.mouseout"/>
                  </use>
                  <path fill="none" stroke="white" stroke-width="1.5" d="M0,-3.0v7 M-2.5,-0.5L0,-3.0L2.5,-0.5"/>
                </g>
                <g id="arrowRight" xlink:href="#dirArrow" transform="rotate(90) translate(36 -43)" onmousedown="handlePan(1,0)">
                  <use xlink:href="#rim" fill="#404040">
                        <set attributeName="fill" to="#808080" begin="arrowRight.mouseover" end="arrowRight.mouseout"/>
                  </use>
                  <path fill="none" stroke="white" stroke-width="1.5" d="M0,-3.0v7 M-2.5,-0.5L0,-3.0L2.5,-0.5"/>
                </g>
                <g id="arrowDown" xlink:href="#dirArrow" transform="rotate(180) translate(-30 -48)" onmousedown="handlePan(0,1)">
                  <use xlink:href="#rim" fill="#404040">
                        <set attributeName="fill" to="#808080" begin="arrowDown.mouseover" end="arrowDown.mouseout"/>
                  </use>
                  <path fill="none" stroke="white" stroke-width="1.5" d="M0,-3.0v7 M-2.5,-0.5L0,-3.0L2.5,-0.5"/>
                </g>
                <g id="arrowLeft" xlink:href="#dirArrow" transform="rotate(270) translate(-36 17)" onmousedown="handlePan(-1,0)">
                  <use xlink:href="#rim" fill="#404040">
                        <set attributeName="fill" to="#808080" begin="arrowLeft.mouseover" end="arrowLeft.mouseout"/>
                  </use>
                  <path fill="none" stroke="white" stroke-width="1.5" d="M0,-3.0v7 M-2.5,-0.5L0,-3.0L2.5,-0.5"/>
                </g>
        </g>
        <svg viewBox="0 0 15 15" width="100%" height="30px" preserveAspectRatio="xMaxYMin meet">
         <g id="arrow_out" transform="scale(0.3 0.3)">
          <a xlink:href="c__bg__w_8cpp__incl_org.svg" target="_base">
           <rect id="button" ry="5" rx="5" y="6" x="6" height="38" width="38"
                fill="#f2f5e9" fill-opacity="0.5" stroke="#606060" stroke-width="1.0"/>
           <path id="arrow"
             d="M 11.500037,31.436501 C 11.940474,20.09759 22.043105,11.32322 32.158766,21.979434 L 37.068811,17.246167 C 37.068811,17.246167 37.088388,32 37.088388,32 L 22.160133,31.978069 C 22.160133,31.978069 26.997745,27.140456 26.997745,27.140456 C 18.528582,18.264221 13.291696,25.230495 11.500037,31.436501 z"
             style="fill:#404040;"/>
          </a>
         </g>
        </svg>
</svg>
