<?xml version="1.0" encoding="UTF-8" standalone="no"?>
<!DOCTYPE svg PUBLIC "-//W3C//DTD SVG 1.1//EN"
 "http://www.w3.org/Graphics/SVG/1.1/DTD/svg11.dtd">
<!-- Generated by graphviz version 2.47.0 (20210316.2052)
 -->
<!-- Title: libs/SSystem/SComponent/c_bg_s_shdw_draw.cpp Pages: 1 -->
<svg width="1000pt" height="184pt"
 viewBox="0.00 0.00 1000.00 184.00" xmlns="http://www.w3.org/2000/svg" xmlns:xlink="http://www.w3.org/1999/xlink">
<g id="graph0" class="graph" transform="scale(1 1) rotate(0) translate(4 180)">
<title>libs/SSystem/SComponent/c_bg_s_shdw_draw.cpp</title>
<polygon fill="white" stroke="transparent" points="-4,4 -4,-180 996,-180 996,4 -4,4"/>
<!-- Node1 -->
<g id="node1" class="node">
<title>Node1</title>
<g id="a_node1"><a xlink:title=" ">
<polygon fill="#bfbfbf" stroke="black" points="253,-145.5 253,-175.5 387,-175.5 387,-145.5 253,-145.5"/>
<text text-anchor="start" x="261" y="-163.5" font-family="Helvetica,sans-Serif" font-size="10.00">libs/SSystem/SComponent</text>
<text text-anchor="middle" x="320" y="-152.5" font-family="Helvetica,sans-Serif" font-size="10.00">/c_bg_s_shdw_draw.cpp</text>
</a>
</g>
</g>
<!-- Node2 -->
<g id="node2" class="node">
<title>Node2</title>
<g id="a_node2"><a xlink:href="c__bg__s__shdw__draw_8h.html" target="_top" xlink:title=" ">
<polygon fill="white" stroke="black" points="0,-67.5 0,-97.5 116,-97.5 116,-67.5 0,-67.5"/>
<text text-anchor="start" x="8" y="-85.5" font-family="Helvetica,sans-Serif" font-size="10.00">SSystem/SComponent</text>
<text text-anchor="middle" x="58" y="-74.5" font-family="Helvetica,sans-Serif" font-size="10.00">/c_bg_s_shdw_draw.h</text>
</a>
</g>
</g>
<!-- Node1&#45;&gt;Node2 -->
<g id="edge1" class="edge">
<title>Node1&#45;&gt;Node2</title>
<path fill="none" stroke="midnightblue" d="M262.29,-145.45C224.45,-135.92 174.02,-122.62 130,-109 122.07,-106.55 113.72,-103.77 105.63,-100.97"/>
<polygon fill="midnightblue" stroke="midnightblue" points="106.52,-97.58 95.92,-97.58 104.2,-104.18 106.52,-97.58"/>
</g>
<!-- Node3 -->
<g id="node3" class="node">
<title>Node3</title>
<g id="a_node3"><a xlink:href="types_8h.html" target="_top" xlink:title=" ">
<polygon fill="white" stroke="black" points="60.5,-0.5 60.5,-19.5 141.5,-19.5 141.5,-0.5 60.5,-0.5"/>
<text text-anchor="middle" x="101" y="-7.5" font-family="Helvetica,sans-Serif" font-size="10.00">dolphin/types.h</text>
</a>
</g>
</g>
<!-- Node1&#45;&gt;Node3 -->
<g id="edge4" class="edge">
<title>Node1&#45;&gt;Node3</title>
<path fill="none" stroke="midnightblue" d="M252.99,-148.4C223.46,-140.98 189.71,-128.8 164,-109 149.5,-97.83 124.02,-53.48 110.32,-28.44"/>
<polygon fill="midnightblue" stroke="midnightblue" points="113.39,-26.74 105.55,-19.61 107.23,-30.07 113.39,-26.74"/>
</g>
<!-- Node4 -->
<g id="node4" class="node">
<title>Node4</title>
<g id="a_node4"><a xlink:href="dol2asm_8h.html" target="_top" xlink:title=" ">
<polygon fill="white" stroke="black" points="172.5,-73 172.5,-92 233.5,-92 233.5,-73 172.5,-73"/>
<text text-anchor="middle" x="203" y="-80" font-family="Helvetica,sans-Serif" font-size="10.00">dol2asm.h</text>
</a>
</g>
</g>
<!-- Node1&#45;&gt;Node4 -->
<g id="edge3" class="edge">
<title>Node1&#45;&gt;Node4</title>
<path fill="none" stroke="midnightblue" d="M298.27,-145.38C277.31,-131.77 245.78,-111.29 224.8,-97.66"/>
<polygon fill="midnightblue" stroke="midnightblue" points="226.54,-94.62 216.25,-92.11 222.73,-100.49 226.54,-94.62"/>
</g>
<!-- Node5 -->
<g id="node5" class="node">
<title>Node5</title>
<g id="a_node5"><a xlink:title=" ">
<polygon fill="white" stroke="#bfbfbf" points="251.5,-62 251.5,-103 388.5,-103 388.5,-62 251.5,-62"/>
<text text-anchor="start" x="259.5" y="-91" font-family="Helvetica,sans-Serif" font-size="10.00">asm/SSystem/SComponent</text>
<text text-anchor="start" x="259.5" y="-80" font-family="Helvetica,sans-Serif" font-size="10.00">/c_bg_s_shdw_draw/__ct</text>
<text text-anchor="middle" x="320" y="-69" font-family="Helvetica,sans-Serif" font-size="10.00">__13cBgS_ShdwDrawFv.s</text>
</a>
</g>
</g>
<!-- Node1&#45;&gt;Node5 -->
<g id="edge5" class="edge">
<title>Node1&#45;&gt;Node5</title>
<path fill="none" stroke="midnightblue" d="M320,-145.2C320,-136.21 320,-124.27 320,-113.29"/>
<polygon fill="midnightblue" stroke="midnightblue" points="323.5,-113.18 320,-103.18 316.5,-113.18 323.5,-113.18"/>
</g>
<!-- Node6 -->
<g id="node6" class="node">
<title>Node6</title>
<g id="a_node6"><a xlink:title=" ">
<polygon fill="white" stroke="#bfbfbf" points="406.5,-62 406.5,-103 543.5,-103 543.5,-62 406.5,-62"/>
<text text-anchor="start" x="414.5" y="-91" font-family="Helvetica,sans-Serif" font-size="10.00">asm/SSystem/SComponent</text>
<text text-anchor="start" x="414.5" y="-80" font-family="Helvetica,sans-Serif" font-size="10.00">/c_bg_s_shdw_draw/__dt</text>
<text text-anchor="middle" x="475" y="-69" font-family="Helvetica,sans-Serif" font-size="10.00">__13cBgS_ShdwDrawFv.s</text>
</a>
</g>
</g>
<!-- Node1&#45;&gt;Node6 -->
<g id="edge6" class="edge">
<title>Node1&#45;&gt;Node6</title>
<path fill="none" stroke="midnightblue" d="M348.79,-145.38C370.39,-134.79 400.48,-120.04 425.86,-107.6"/>
<polygon fill="midnightblue" stroke="midnightblue" points="427.53,-110.67 434.97,-103.13 424.45,-104.39 427.53,-110.67"/>
</g>
<!-- Node7 -->
<g id="node7" class="node">
<title>Node7</title>
<g id="a_node7"><a xlink:title=" ">
<polygon fill="white" stroke="#bfbfbf" points="562,-62 562,-103 756,-103 756,-62 562,-62"/>
<text text-anchor="start" x="570" y="-91" font-family="Helvetica,sans-Serif" font-size="10.00">asm/SSystem/SComponent</text>
<text text-anchor="start" x="570" y="-80" font-family="Helvetica,sans-Serif" font-size="10.00">/c_bg_s_shdw_draw/Set</text>
<text text-anchor="middle" x="659" y="-69" font-family="Helvetica,sans-Serif" font-size="10.00">__13cBgS_ShdwDrawFR4cXyzR4cXyz.s</text>
</a>
</g>
</g>
<!-- Node1&#45;&gt;Node7 -->
<g id="edge7" class="edge">
<title>Node1&#45;&gt;Node7</title>
<path fill="none" stroke="midnightblue" d="M386.63,-145.48C433.27,-135.56 497.02,-121.8 553,-109 558.06,-107.84 563.25,-106.64 568.49,-105.42"/>
<polygon fill="midnightblue" stroke="midnightblue" points="569.66,-108.74 578.6,-103.04 568.06,-101.92 569.66,-108.74"/>
</g>
<!-- Node8 -->
<g id="node8" class="node">
<title>Node8</title>
<g id="a_node8"><a xlink:title=" ">
<polygon fill="white" stroke="#bfbfbf" points="774,-56.5 774,-108.5 992,-108.5 992,-56.5 774,-56.5"/>
<text text-anchor="start" x="782" y="-96.5" font-family="Helvetica,sans-Serif" font-size="10.00">asm/SSystem/SComponent</text>
<text text-anchor="start" x="782" y="-85.5" font-family="Helvetica,sans-Serif" font-size="10.00">/c_bg_s_shdw_draw/SetCallback</text>
<text text-anchor="start" x="782" y="-74.5" font-family="Helvetica,sans-Serif" font-size="10.00">__13cBgS_ShdwDrawFPFP13cBgS</text>
<text text-anchor="middle" x="883" y="-63.5" font-family="Helvetica,sans-Serif" font-size="10.00">_ShdwDrawP10cBgD_Vtx_tiiiP8cM3dGPla_i.s</text>
</a>
</g>
</g>
<!-- Node1&#45;&gt;Node8 -->
<g id="edge8" class="edge">
<title>Node1&#45;&gt;Node8</title>
<path fill="none" stroke="midnightblue" d="M387.01,-154C472.3,-146.52 624.36,-131.63 763.77,-109.14"/>
<polygon fill="midnightblue" stroke="midnightblue" points="764.48,-112.57 773.78,-107.5 763.35,-105.66 764.48,-112.57"/>
</g>
<!-- Node2&#45;&gt;Node3 -->
<g id="edge2" class="edge">
<title>Node2&#45;&gt;Node3</title>
<path fill="none" stroke="midnightblue" d="M66.7,-67.23C73.52,-56.06 83.03,-40.46 90.31,-28.52"/>
<polygon fill="midnightblue" stroke="midnightblue" points="93.36,-30.25 95.58,-19.89 87.38,-26.61 93.36,-30.25"/>
</g>
</g>
</svg>
