<?xml version="1.0" encoding="UTF-8" standalone="no"?>
<!DOCTYPE svg PUBLIC "-//W3C//DTD SVG 1.1//EN"
 "http://www.w3.org/Graphics/SVG/1.1/DTD/svg11.dtd">
<!-- Generated by graphviz version 2.47.0 (20210316.2052)
 -->
<!-- Title: libs/SSystem/SComponent/c_cc_s.cpp Pages: 1 -->
<!--zoomable 184 -->
<svg id="main" version="1.1" xmlns="http://www.w3.org/2000/svg" xmlns:xlink="http://www.w3.org/1999/xlink" xml:space="preserve" onload="init(evt)">
<style type="text/css"><![CDATA[
.edge:hover path { stroke: red; }
.edge:hover polygon { stroke: red; fill: red; }
]]></style>
<script type="text/javascript"><![CDATA[
var edges = document.getElementsByTagName('g');
if (edges && edges.length) {
  for (var i=0;i<edges.length;i++) {
    if (edges[i].id.substr(0,4)=='edge') {
      edges[i].setAttribute('class','edge');
    }
  }
}
]]></script>
        <defs>
                <circle id="rim" cx="0" cy="0" r="7"/>
                <circle id="rim2" cx="0" cy="0" r="3.5"/>
                <g id="zoomPlus">
                        <use xlink:href="#rim" fill="#404040">
                                <set attributeName="fill" to="#808080" begin="zoomplus.mouseover" end="zoomplus.mouseout"/>
                        </use>
                        <path d="M-4,0h8M0,-4v8" fill="none" stroke="white" stroke-width="1.5" pointer-events="none"/>
                </g>
                <g id="zoomMin">
                        <use xlink:href="#rim" fill="#404040">
                                <set attributeName="fill" to="#808080" begin="zoomminus.mouseover" end="zoomminus.mouseout"/>
                        </use>
                        <path d="M-4,0h8" fill="none" stroke="white" stroke-width="1.5" pointer-events="none"/>
                </g>
                <g id="dirArrow">
                        <path fill="none" stroke="white" stroke-width="1.5" d="M0,-3.0v7 M-2.5,-0.5L0,-3.0L2.5,-0.5"/>
                </g>
               <g id="resetDef">
                       <use xlink:href="#rim2" fill="#404040">
                               <set attributeName="fill" to="#808080" begin="reset.mouseover" end="reset.mouseout"/>
                       </use>
               </g>
        </defs>

<script type="text/javascript">
var viewWidth = 4904;
var viewHeight = 184;
var sectionId = 'dynsection-0';
</script>
<script xlink:href="svgpan.js"/>
<svg id="graph" class="graph">
<g id="viewport">
<title>libs/SSystem/SComponent/c_cc_s.cpp</title>
<polygon fill="white" stroke="transparent" points="-4,4 -4,-180 4900,-180 4900,4 -4,4"/>
<!-- Node1 -->
<g id="node1" class="node">
<title>Node1</title>
<g id="a_node1"><a xlink:title=" ">
<polygon fill="#bfbfbf" stroke="black" points="2178.5,-145.5 2178.5,-175.5 2312.5,-175.5 2312.5,-145.5 2178.5,-145.5"/>
<text text-anchor="start" x="2186.5" y="-163.5" font-family="Helvetica,sans-Serif" font-size="10.00">libs/SSystem/SComponent</text>
<text text-anchor="middle" x="2245.5" y="-152.5" font-family="Helvetica,sans-Serif" font-size="10.00">/c_cc_s.cpp</text>
</a>
</g>
</g>
<!-- Node2 -->
<g id="node2" class="node">
<title>Node2</title>
<g id="a_node2"><a xlink:href="dol2asm_8h.html" target="_top" xlink:title=" ">
<polygon fill="white" stroke="black" points="0,-73 0,-92 61,-92 61,-73 0,-73"/>
<text text-anchor="middle" x="30.5" y="-80" font-family="Helvetica,sans-Serif" font-size="10.00">dol2asm.h</text>
</a>
</g>
</g>
<!-- Node1&#45;&gt;Node2 -->
<g id="edge1" class="edge">
<title>Node1&#45;&gt;Node2</title>
<path fill="none" stroke="midnightblue" d="M2178.48,-158.86C1823.92,-155.36 179.17,-137.62 75.5,-109 66.86,-106.61 58.11,-102.21 50.66,-97.73"/>
<polygon fill="midnightblue" stroke="midnightblue" points="52.31,-94.63 42.01,-92.15 48.52,-100.51 52.31,-94.63"/>
</g>
<!-- Node3 -->
<g id="node3" class="node">
<title>Node3</title>
<g id="a_node3"><a xlink:href="types_8h.html" target="_top" xlink:title=" ">
<polygon fill="white" stroke="black" points="92,-0.5 92,-19.5 173,-19.5 173,-0.5 92,-0.5"/>
<text text-anchor="middle" x="132.5" y="-7.5" font-family="Helvetica,sans-Serif" font-size="10.00">dolphin/types.h</text>
</a>
</g>
</g>
<!-- Node1&#45;&gt;Node3 -->
<g id="edge2" class="edge">
<title>Node1&#45;&gt;Node3</title>
<path fill="none" stroke="midnightblue" d="M2178.39,-159.19C1819.91,-157.38 145.54,-146.93 108.5,-109 87.19,-87.18 105.97,-49.7 120.17,-27.96"/>
<polygon fill="midnightblue" stroke="midnightblue" points="123.06,-29.93 125.84,-19.7 117.29,-25.97 123.06,-29.93"/>
</g>
<!-- Node4 -->
<g id="node4" class="node">
<title>Node4</title>
<g id="a_node4"><a xlink:href="c__cc__s_8h.html" target="_top" xlink:title=" ">
<polygon fill="white" stroke="black" points="117.5,-67.5 117.5,-97.5 233.5,-97.5 233.5,-67.5 117.5,-67.5"/>
<text text-anchor="start" x="125.5" y="-85.5" font-family="Helvetica,sans-Serif" font-size="10.00">SSystem/SComponent</text>
<text text-anchor="middle" x="175.5" y="-74.5" font-family="Helvetica,sans-Serif" font-size="10.00">/c_cc_s.h</text>
</a>
</g>
</g>
<!-- Node1&#45;&gt;Node4 -->
<g id="edge3" class="edge">
<title>Node1&#45;&gt;Node4</title>
<path fill="none" stroke="midnightblue" d="M2178.49,-159.13C1852.1,-157.17 436.54,-146.53 243.5,-109 234.32,-107.22 224.75,-104.32 215.79,-101.12"/>
<polygon fill="midnightblue" stroke="midnightblue" points="216.94,-97.81 206.35,-97.55 214.47,-104.36 216.94,-97.81"/>
</g>
<!-- Node5 -->
<g id="node5" class="node">
<title>Node5</title>
<g id="a_node5"><a xlink:title=" ">
<polygon fill="white" stroke="#bfbfbf" points="252,-67.5 252,-97.5 389,-97.5 389,-67.5 252,-67.5"/>
<text text-anchor="start" x="260" y="-85.5" font-family="Helvetica,sans-Serif" font-size="10.00">asm/SSystem/SComponent</text>
<text text-anchor="middle" x="320.5" y="-74.5" font-family="Helvetica,sans-Serif" font-size="10.00">/c_cc_s/__ct__4cCcSFv.s</text>
</a>
</g>
</g>
<!-- Node1&#45;&gt;Node5 -->
<g id="edge5" class="edge">
<title>Node1&#45;&gt;Node5</title>
<path fill="none" stroke="midnightblue" d="M2178.37,-158.81C1867.6,-155.47 576.24,-139.81 398.5,-109 387.65,-107.12 376.23,-104.05 365.59,-100.68"/>
<polygon fill="midnightblue" stroke="midnightblue" points="366.66,-97.34 356.06,-97.52 364.46,-103.99 366.66,-97.34"/>
</g>
<!-- Node6 -->
<g id="node6" class="node">
<title>Node6</title>
<g id="a_node6"><a xlink:title=" ">
<polygon fill="white" stroke="#bfbfbf" points="407,-67.5 407,-97.5 544,-97.5 544,-67.5 407,-67.5"/>
<text text-anchor="start" x="415" y="-85.5" font-family="Helvetica,sans-Serif" font-size="10.00">asm/SSystem/SComponent</text>
<text text-anchor="middle" x="475.5" y="-74.5" font-family="Helvetica,sans-Serif" font-size="10.00">/c_cc_s/Ct__4cCcSFv.s</text>
</a>
</g>
</g>
<!-- Node1&#45;&gt;Node6 -->
<g id="edge6" class="edge">
<title>Node1&#45;&gt;Node6</title>
<path fill="none" stroke="midnightblue" d="M2178.43,-158.63C1884.23,-154.66 715.26,-137.25 553.5,-109 542.65,-107.1 531.23,-104.03 520.59,-100.66"/>
<polygon fill="midnightblue" stroke="midnightblue" points="521.66,-97.32 511.07,-97.5 519.46,-103.97 521.66,-97.32"/>
</g>
<!-- Node7 -->
<g id="node7" class="node">
<title>Node7</title>
<g id="a_node7"><a xlink:title=" ">
<polygon fill="white" stroke="#bfbfbf" points="562,-67.5 562,-97.5 699,-97.5 699,-67.5 562,-67.5"/>
<text text-anchor="start" x="570" y="-85.5" font-family="Helvetica,sans-Serif" font-size="10.00">asm/SSystem/SComponent</text>
<text text-anchor="middle" x="630.5" y="-74.5" font-family="Helvetica,sans-Serif" font-size="10.00">/c_cc_s/Dt__4cCcSFv.s</text>
</a>
</g>
</g>
<!-- Node1&#45;&gt;Node7 -->
<g id="edge7" class="edge">
<title>Node1&#45;&gt;Node7</title>
<path fill="none" stroke="midnightblue" d="M2178.27,-159.81C1920.75,-160.63 997.07,-159.85 708.5,-109 697.87,-107.13 686.69,-104.13 676.23,-100.83"/>
<polygon fill="midnightblue" stroke="midnightblue" points="677.06,-97.42 666.46,-97.61 674.86,-104.07 677.06,-97.42"/>
</g>
<!-- Node8 -->
<g id="node8" class="node">
<title>Node8</title>
<g id="a_node8"><a xlink:title=" ">
<polygon fill="white" stroke="#bfbfbf" points="717,-67.5 717,-97.5 872,-97.5 872,-67.5 717,-67.5"/>
<text text-anchor="start" x="725" y="-85.5" font-family="Helvetica,sans-Serif" font-size="10.00">asm/SSystem/SComponent</text>
<text text-anchor="middle" x="794.5" y="-74.5" font-family="Helvetica,sans-Serif" font-size="10.00">/c_cc_s/GetWt__4cCcSCFUc.s</text>
</a>
</g>
</g>
<!-- Node1&#45;&gt;Node8 -->
<g id="edge8" class="edge">
<title>Node1&#45;&gt;Node8</title>
<path fill="none" stroke="midnightblue" d="M2178.26,-159.21C1939.81,-157.86 1135.43,-150.26 881.5,-109 869.36,-107.03 856.53,-103.88 844.56,-100.47"/>
<polygon fill="midnightblue" stroke="midnightblue" points="845.32,-97.04 834.74,-97.55 843.33,-103.76 845.32,-97.04"/>
</g>
<!-- Node9 -->
<g id="node9" class="node">
<title>Node9</title>
<g id="a_node9"><a xlink:title=" ">
<polygon fill="white" stroke="#bfbfbf" points="890,-67.5 890,-97.5 1069,-97.5 1069,-67.5 890,-67.5"/>
<text text-anchor="start" x="898" y="-85.5" font-family="Helvetica,sans-Serif" font-size="10.00">asm/SSystem/SComponent</text>
<text text-anchor="middle" x="979.5" y="-74.5" font-family="Helvetica,sans-Serif" font-size="10.00">/c_cc_s/Set__4cCcSFP8cCcD_Obj.s</text>
</a>
</g>
</g>
<!-- Node1&#45;&gt;Node9 -->
<g id="edge9" class="edge">
<title>Node1&#45;&gt;Node9</title>
<path fill="none" stroke="midnightblue" d="M2178.15,-158.43C1962.85,-154.73 1292.88,-140.89 1078.5,-109 1064.51,-106.92 1049.65,-103.66 1035.8,-100.17"/>
<polygon fill="midnightblue" stroke="midnightblue" points="1036.48,-96.73 1025.92,-97.59 1034.72,-103.5 1036.48,-96.73"/>
</g>
<!-- Node10 -->
<g id="node10" class="node">
<title>Node10</title>
<g id="a_node10"><a xlink:title=" ">
<polygon fill="white" stroke="#bfbfbf" points="1087,-67.5 1087,-97.5 1248,-97.5 1248,-67.5 1087,-67.5"/>
<text text-anchor="start" x="1095" y="-85.5" font-family="Helvetica,sans-Serif" font-size="10.00">asm/SSystem/SComponent</text>
<text text-anchor="middle" x="1167.5" y="-74.5" font-family="Helvetica,sans-Serif" font-size="10.00">/c_cc_s/ClrCoHitInf__4cCcSFv.s</text>
</a>
</g>
</g>
<!-- Node1&#45;&gt;Node10 -->
<g id="edge10" class="edge">
<title>Node1&#45;&gt;Node10</title>
<path fill="none" stroke="midnightblue" d="M2178.5,-158.04C1986.28,-153.54 1435.43,-138.37 1257.5,-109 1244.98,-106.93 1231.72,-103.75 1219.34,-100.33"/>
<polygon fill="midnightblue" stroke="midnightblue" points="1220.21,-96.94 1209.63,-97.55 1218.28,-103.67 1220.21,-96.94"/>
</g>
<!-- Node11 -->
<g id="node11" class="node">
<title>Node11</title>
<g id="a_node11"><a xlink:title=" ">
<polygon fill="white" stroke="#bfbfbf" points="1266.5,-67.5 1266.5,-97.5 1426.5,-97.5 1426.5,-67.5 1266.5,-67.5"/>
<text text-anchor="start" x="1274.5" y="-85.5" font-family="Helvetica,sans-Serif" font-size="10.00">asm/SSystem/SComponent</text>
<text text-anchor="middle" x="1346.5" y="-74.5" font-family="Helvetica,sans-Serif" font-size="10.00">/c_cc_s/ClrTgHitInf__4cCcSFv.s</text>
</a>
</g>
</g>
<!-- Node1&#45;&gt;Node11 -->
<g id="edge11" class="edge">
<title>Node1&#45;&gt;Node11</title>
<path fill="none" stroke="midnightblue" d="M2178.26,-160.21C2038.72,-160.6 1708,-155.96 1435.5,-109 1423.37,-106.91 1410.54,-103.79 1398.51,-100.44"/>
<polygon fill="midnightblue" stroke="midnightblue" points="1399.2,-97 1388.62,-97.59 1397.26,-103.72 1399.2,-97"/>
</g>
<!-- Node12 -->
<g id="node12" class="node">
<title>Node12</title>
<g id="a_node12"><a xlink:title=" ">
<polygon fill="white" stroke="#bfbfbf" points="1444.5,-67.5 1444.5,-97.5 1602.5,-97.5 1602.5,-67.5 1444.5,-67.5"/>
<text text-anchor="start" x="1452.5" y="-85.5" font-family="Helvetica,sans-Serif" font-size="10.00">asm/SSystem/SComponent</text>
<text text-anchor="middle" x="1523.5" y="-74.5" font-family="Helvetica,sans-Serif" font-size="10.00">/c_cc_s/ClrAtHitInf__4cCcSFv.s</text>
</a>
</g>
</g>
<!-- Node1&#45;&gt;Node12 -->
<g id="edge12" class="edge">
<title>Node1&#45;&gt;Node12</title>
<path fill="none" stroke="midnightblue" d="M2178.29,-158.6C2061.9,-156.06 1815.7,-146.32 1611.5,-109 1599.64,-106.83 1587.09,-103.71 1575.3,-100.4"/>
<polygon fill="midnightblue" stroke="midnightblue" points="1576.19,-97.01 1565.61,-97.58 1574.23,-103.73 1576.19,-97.01"/>
</g>
<!-- Node13 -->
<g id="node13" class="node">
<title>Node13</title>
<g id="a_node13"><a xlink:title=" ">
<polygon fill="white" stroke="#bfbfbf" points="1620,-62 1620,-103 1797,-103 1797,-62 1620,-62"/>
<text text-anchor="start" x="1628" y="-91" font-family="Helvetica,sans-Serif" font-size="10.00">asm/SSystem/SComponent</text>
<text text-anchor="start" x="1628" y="-80" font-family="Helvetica,sans-Serif" font-size="10.00">/c_cc_s/ChkNoHitAtTg_</text>
<text text-anchor="middle" x="1708.5" y="-69" font-family="Helvetica,sans-Serif" font-size="10.00">_4cCcSFP8cCcD_ObjP8cCcD_Obj.s</text>
</a>
</g>
</g>
<!-- Node1&#45;&gt;Node13 -->
<g id="edge13" class="edge">
<title>Node1&#45;&gt;Node13</title>
<path fill="none" stroke="midnightblue" d="M2178.13,-154.7C2091.58,-147.85 1936.97,-133.35 1806.5,-109 1800.69,-107.92 1794.71,-106.67 1788.71,-105.34"/>
<polygon fill="midnightblue" stroke="midnightblue" points="1789.16,-101.85 1778.63,-103.01 1787.58,-108.67 1789.16,-101.85"/>
</g>
<!-- Node14 -->
<g id="node14" class="node">
<title>Node14</title>
<g id="a_node14"><a xlink:title=" ">
<polygon fill="white" stroke="#bfbfbf" points="1815,-67.5 1815,-97.5 1966,-97.5 1966,-67.5 1815,-67.5"/>
<text text-anchor="start" x="1823" y="-85.5" font-family="Helvetica,sans-Serif" font-size="10.00">asm/SSystem/SComponent</text>
<text text-anchor="middle" x="1890.5" y="-74.5" font-family="Helvetica,sans-Serif" font-size="10.00">/c_cc_s/ChkAtTg__4cCcSFv.s</text>
</a>
</g>
</g>
<!-- Node1&#45;&gt;Node14 -->
<g id="edge14" class="edge">
<title>Node1&#45;&gt;Node14</title>
<path fill="none" stroke="midnightblue" d="M2178.23,-148.96C2123.34,-139.88 2043.97,-125.62 1975.5,-109 1965.18,-106.49 1954.25,-103.49 1943.78,-100.43"/>
<polygon fill="midnightblue" stroke="midnightblue" points="1944.52,-97 1933.94,-97.5 1942.52,-103.71 1944.52,-97"/>
</g>
<!-- Node15 -->
<g id="node15" class="node">
<title>Node15</title>
<g id="a_node15"><a xlink:title=" ">
<polygon fill="white" stroke="#bfbfbf" points="1984.5,-62 1984.5,-103 2156.5,-103 2156.5,-62 1984.5,-62"/>
<text text-anchor="start" x="1992.5" y="-91" font-family="Helvetica,sans-Serif" font-size="10.00">asm/SSystem/SComponent</text>
<text text-anchor="start" x="1992.5" y="-80" font-family="Helvetica,sans-Serif" font-size="10.00">/c_cc_s/ChkNoHitCo__4cCcSFP8c</text>
<text text-anchor="middle" x="2070.5" y="-69" font-family="Helvetica,sans-Serif" font-size="10.00">CcD_ObjP8cCcD_Obj.s</text>
</a>
</g>
</g>
<!-- Node1&#45;&gt;Node15 -->
<g id="edge15" class="edge">
<title>Node1&#45;&gt;Node15</title>
<path fill="none" stroke="midnightblue" d="M2212.99,-145.38C2188.39,-134.7 2154.04,-119.78 2125.23,-107.27"/>
<polygon fill="midnightblue" stroke="midnightblue" points="2126.26,-103.9 2115.7,-103.13 2123.47,-110.32 2126.26,-103.9"/>
</g>
<!-- Node16 -->
<g id="node16" class="node">
<title>Node16</title>
<g id="a_node16"><a xlink:title=" ">
<polygon fill="white" stroke="#bfbfbf" points="2174.5,-67.5 2174.5,-97.5 2316.5,-97.5 2316.5,-67.5 2174.5,-67.5"/>
<text text-anchor="start" x="2182.5" y="-85.5" font-family="Helvetica,sans-Serif" font-size="10.00">asm/SSystem/SComponent</text>
<text text-anchor="middle" x="2245.5" y="-74.5" font-family="Helvetica,sans-Serif" font-size="10.00">/c_cc_s/ChkCo__4cCcSFv.s</text>
</a>
</g>
</g>
<!-- Node1&#45;&gt;Node16 -->
<g id="edge16" class="edge">
<title>Node1&#45;&gt;Node16</title>
<path fill="none" stroke="midnightblue" d="M2245.5,-145.2C2245.5,-134.7 2245.5,-120.16 2245.5,-107.83"/>
<polygon fill="midnightblue" stroke="midnightblue" points="2249,-107.73 2245.5,-97.73 2242,-107.73 2249,-107.73"/>
</g>
<!-- Node17 -->
<g id="node17" class="node">
<title>Node17</title>
<g id="a_node17"><a xlink:title=" ">
<polygon fill="white" stroke="#bfbfbf" points="2335,-56.5 2335,-108.5 2498,-108.5 2498,-56.5 2335,-56.5"/>
<text text-anchor="start" x="2343" y="-96.5" font-family="Helvetica,sans-Serif" font-size="10.00">asm/SSystem/SComponent</text>
<text text-anchor="start" x="2343" y="-85.5" font-family="Helvetica,sans-Serif" font-size="10.00">/c_cc_s/CalcTgPlusDmg</text>
<text text-anchor="start" x="2343" y="-74.5" font-family="Helvetica,sans-Serif" font-size="10.00">__4cCcSFP8cCcD_ObjP8cCcD</text>
<text text-anchor="middle" x="2416.5" y="-63.5" font-family="Helvetica,sans-Serif" font-size="10.00">_ObjP9cCcD_SttsP9cCcD_Stts.s</text>
</a>
</g>
</g>
<!-- Node1&#45;&gt;Node17 -->
<g id="edge17" class="edge">
<title>Node1&#45;&gt;Node17</title>
<path fill="none" stroke="midnightblue" d="M2277.26,-145.38C2297.91,-136.21 2325.58,-123.91 2350.82,-112.69"/>
<polygon fill="midnightblue" stroke="midnightblue" points="2352.27,-115.88 2359.99,-108.62 2349.43,-109.48 2352.27,-115.88"/>
</g>
<!-- Node18 -->
<g id="node18" class="node">
<title>Node18</title>
<g id="a_node18"><a xlink:title=" ">
<polygon fill="white" stroke="#bfbfbf" points="2516,-62 2516,-103 2731,-103 2731,-62 2516,-62"/>
<text text-anchor="start" x="2524" y="-91" font-family="Helvetica,sans-Serif" font-size="10.00">asm/SSystem/SComponent</text>
<text text-anchor="start" x="2524" y="-80" font-family="Helvetica,sans-Serif" font-size="10.00">/c_cc_s/SetAtTgCommonHitInf</text>
<text text-anchor="middle" x="2623.5" y="-69" font-family="Helvetica,sans-Serif" font-size="10.00">__4cCcSFP8cCcD_ObjP8cCcD_ObjP4cXyz.s</text>
</a>
</g>
</g>
<!-- Node1&#45;&gt;Node18 -->
<g id="edge18" class="edge">
<title>Node1&#45;&gt;Node18</title>
<path fill="none" stroke="midnightblue" d="M2312.63,-147.06C2365.62,-137.12 2441.38,-122.64 2507.5,-109 2513.53,-107.76 2519.73,-106.46 2525.98,-105.13"/>
<polygon fill="midnightblue" stroke="midnightblue" points="2526.78,-108.54 2535.83,-103.03 2525.32,-101.69 2526.78,-108.54"/>
</g>
<!-- Node19 -->
<g id="node19" class="node">
<title>Node19</title>
<g id="a_node19"><a xlink:title=" ">
<polygon fill="white" stroke="#bfbfbf" points="2749.5,-56.5 2749.5,-108.5 2937.5,-108.5 2937.5,-56.5 2749.5,-56.5"/>
<text text-anchor="start" x="2757.5" y="-96.5" font-family="Helvetica,sans-Serif" font-size="10.00">asm/SSystem/SComponent</text>
<text text-anchor="start" x="2757.5" y="-85.5" font-family="Helvetica,sans-Serif" font-size="10.00">/c_cc_s/SetCoCommonHitInf</text>
<text text-anchor="start" x="2757.5" y="-74.5" font-family="Helvetica,sans-Serif" font-size="10.00">__4cCcSFP8cCcD_ObjP4cXyzP8cCcD</text>
<text text-anchor="middle" x="2843.5" y="-63.5" font-family="Helvetica,sans-Serif" font-size="10.00">_ObjP4cXyzf.s</text>
</a>
</g>
</g>
<!-- Node1&#45;&gt;Node19 -->
<g id="edge19" class="edge">
<title>Node1&#45;&gt;Node19</title>
<path fill="none" stroke="midnightblue" d="M2312.76,-155.66C2406.41,-149.63 2581.43,-135.96 2739.41,-109.09"/>
<polygon fill="midnightblue" stroke="midnightblue" points="2740.05,-112.53 2749.31,-107.38 2738.86,-105.63 2740.05,-112.53"/>
</g>
<!-- Node20 -->
<g id="node20" class="node">
<title>Node20</title>
<g id="a_node20"><a xlink:title=" ">
<polygon fill="white" stroke="#bfbfbf" points="2955.5,-56.5 2955.5,-108.5 3143.5,-108.5 3143.5,-56.5 2955.5,-56.5"/>
<text text-anchor="start" x="2963.5" y="-96.5" font-family="Helvetica,sans-Serif" font-size="10.00">asm/SSystem/SComponent</text>
<text text-anchor="start" x="2963.5" y="-85.5" font-family="Helvetica,sans-Serif" font-size="10.00">/c_cc_s/SetPosCorrect</text>
<text text-anchor="start" x="2963.5" y="-74.5" font-family="Helvetica,sans-Serif" font-size="10.00">__4cCcSFP8cCcD_ObjP4cXyzP8cCcD</text>
<text text-anchor="middle" x="3049.5" y="-63.5" font-family="Helvetica,sans-Serif" font-size="10.00">_ObjP4cXyzf.s</text>
</a>
</g>
</g>
<!-- Node1&#45;&gt;Node20 -->
<g id="edge20" class="edge">
<title>Node1&#45;&gt;Node20</title>
<path fill="none" stroke="midnightblue" d="M2312.63,-158.47C2436.17,-155.74 2707.89,-145.89 2945.13,-109.1"/>
<polygon fill="midnightblue" stroke="midnightblue" points="2946,-112.51 2955.33,-107.5 2944.91,-105.59 2946,-112.51"/>
</g>
<!-- Node21 -->
<g id="node21" class="node">
<title>Node21</title>
<g id="a_node21"><a xlink:title=" ">
<polygon fill="white" stroke="#bfbfbf" points="3161.5,-67.5 3161.5,-97.5 3313.5,-97.5 3313.5,-67.5 3161.5,-67.5"/>
<text text-anchor="start" x="3169.5" y="-85.5" font-family="Helvetica,sans-Serif" font-size="10.00">asm/SSystem/SComponent</text>
<text text-anchor="middle" x="3237.5" y="-74.5" font-family="Helvetica,sans-Serif" font-size="10.00">/c_cc_s/CalcArea__4cCcSFv.s</text>
</a>
</g>
</g>
<!-- Node1&#45;&gt;Node21 -->
<g id="edge21" class="edge">
<title>Node1&#45;&gt;Node21</title>
<path fill="none" stroke="midnightblue" d="M2312.82,-157.81C2494.35,-152.92 2991.14,-137.29 3152.5,-109 3164.12,-106.96 3176.39,-103.86 3187.89,-100.52"/>
<polygon fill="midnightblue" stroke="midnightblue" points="3189.2,-103.78 3197.76,-97.54 3187.17,-97.08 3189.2,-103.78"/>
</g>
<!-- Node22 -->
<g id="node22" class="node">
<title>Node22</title>
<g id="a_node22"><a xlink:title=" ">
<polygon fill="white" stroke="#bfbfbf" points="3332,-67.5 3332,-97.5 3469,-97.5 3469,-67.5 3332,-67.5"/>
<text text-anchor="start" x="3340" y="-85.5" font-family="Helvetica,sans-Serif" font-size="10.00">asm/SSystem/SComponent</text>
<text text-anchor="middle" x="3400.5" y="-74.5" font-family="Helvetica,sans-Serif" font-size="10.00">/c_cc_s/Move__4cCcSFv.s</text>
</a>
</g>
</g>
<!-- Node1&#45;&gt;Node22 -->
<g id="edge22" class="edge">
<title>Node1&#45;&gt;Node22</title>
<path fill="none" stroke="midnightblue" d="M2312.71,-158.71C2516.82,-155.94 3127.34,-144.8 3322.5,-109 3333.12,-107.05 3344.29,-104.02 3354.75,-100.72"/>
<polygon fill="midnightblue" stroke="midnightblue" points="3356.12,-103.96 3364.52,-97.5 3353.93,-97.31 3356.12,-103.96"/>
</g>
<!-- Node23 -->
<g id="node23" class="node">
<title>Node23</title>
<g id="a_node23"><a xlink:title=" ">
<polygon fill="white" stroke="#bfbfbf" points="3487.5,-67.5 3487.5,-97.5 3645.5,-97.5 3645.5,-67.5 3487.5,-67.5"/>
<text text-anchor="start" x="3495.5" y="-85.5" font-family="Helvetica,sans-Serif" font-size="10.00">asm/SSystem/SComponent</text>
<text text-anchor="middle" x="3566.5" y="-74.5" font-family="Helvetica,sans-Serif" font-size="10.00">/c_cc_s/DrawClear__4cCcSFv.s</text>
</a>
</g>
</g>
<!-- Node1&#45;&gt;Node23 -->
<g id="edge23" class="edge">
<title>Node1&#45;&gt;Node23</title>
<path fill="none" stroke="midnightblue" d="M2312.76,-158.88C2536.01,-156.48 3251.19,-146.03 3478.5,-109 3490.77,-107 3503.74,-103.85 3515.85,-100.43"/>
<polygon fill="midnightblue" stroke="midnightblue" points="3517.17,-103.69 3525.78,-97.52 3515.2,-96.97 3517.17,-103.69"/>
</g>
<!-- Node24 -->
<g id="node24" class="node">
<title>Node24</title>
<g id="a_node24"><a xlink:title=" ">
<polygon fill="white" stroke="#bfbfbf" points="3663.5,-62 3663.5,-103 3845.5,-103 3845.5,-62 3663.5,-62"/>
<text text-anchor="start" x="3671.5" y="-91" font-family="Helvetica,sans-Serif" font-size="10.00">asm/SSystem/SComponent</text>
<text text-anchor="start" x="3671.5" y="-80" font-family="Helvetica,sans-Serif" font-size="10.00">/c_cc_s/SetCoGCorrectProc</text>
<text text-anchor="middle" x="3754.5" y="-69" font-family="Helvetica,sans-Serif" font-size="10.00">__4cCcSFP8cCcD_ObjP8cCcD_Obj.s</text>
</a>
</g>
</g>
<!-- Node1&#45;&gt;Node24 -->
<g id="edge24" class="edge">
<title>Node1&#45;&gt;Node24</title>
<path fill="none" stroke="midnightblue" d="M2312.8,-158.99C2556.27,-156.87 3390.71,-146.91 3654.5,-109 3661.57,-107.98 3668.87,-106.67 3676.14,-105.16"/>
<polygon fill="midnightblue" stroke="midnightblue" points="3677,-108.56 3686.03,-103.01 3675.52,-101.72 3677,-108.56"/>
</g>
<!-- Node25 -->
<g id="node25" class="node">
<title>Node25</title>
<g id="a_node25"><a xlink:title=" ">
<polygon fill="white" stroke="#bfbfbf" points="3864,-67.5 3864,-97.5 4001,-97.5 4001,-67.5 3864,-67.5"/>
<text text-anchor="start" x="3872" y="-85.5" font-family="Helvetica,sans-Serif" font-size="10.00">asm/SSystem/SComponent</text>
<text text-anchor="middle" x="3932.5" y="-74.5" font-family="Helvetica,sans-Serif" font-size="10.00">/c_cc_s/func_80265DF8.s</text>
</a>
</g>
</g>
<!-- Node1&#45;&gt;Node25 -->
<g id="edge25" class="edge">
<title>Node1&#45;&gt;Node25</title>
<path fill="none" stroke="midnightblue" d="M2312.68,-159.93C2577.74,-161.23 3551.18,-162.21 3854.5,-109 3865.13,-107.13 3876.31,-104.14 3886.77,-100.85"/>
<polygon fill="midnightblue" stroke="midnightblue" points="3888.14,-104.08 3896.54,-97.62 3885.95,-97.43 3888.14,-104.08"/>
</g>
<!-- Node26 -->
<g id="node26" class="node">
<title>Node26</title>
<g id="a_node26"><a xlink:title=" ">
<polygon fill="white" stroke="#bfbfbf" points="4019,-67.5 4019,-97.5 4156,-97.5 4156,-67.5 4019,-67.5"/>
<text text-anchor="start" x="4027" y="-85.5" font-family="Helvetica,sans-Serif" font-size="10.00">asm/SSystem/SComponent</text>
<text text-anchor="middle" x="4087.5" y="-74.5" font-family="Helvetica,sans-Serif" font-size="10.00">/c_cc_s/func_80265DFC.s</text>
</a>
</g>
</g>
<!-- Node1&#45;&gt;Node26 -->
<g id="edge26" class="edge">
<title>Node1&#45;&gt;Node26</title>
<path fill="none" stroke="midnightblue" d="M2312.65,-158.73C2614.85,-155.13 3841.29,-138.78 4010.5,-109 4021.12,-107.13 4032.27,-104.1 4042.68,-100.77"/>
<polygon fill="midnightblue" stroke="midnightblue" points="4044.03,-104.01 4052.4,-97.51 4041.81,-97.37 4044.03,-104.01"/>
</g>
<!-- Node27 -->
<g id="node27" class="node">
<title>Node27</title>
<g id="a_node27"><a xlink:title=" ">
<polygon fill="white" stroke="#bfbfbf" points="4174.5,-56.5 4174.5,-108.5 4388.5,-108.5 4388.5,-56.5 4174.5,-56.5"/>
<text text-anchor="start" x="4182.5" y="-96.5" font-family="Helvetica,sans-Serif" font-size="10.00">asm/SSystem/SComponent</text>
<text text-anchor="start" x="4182.5" y="-85.5" font-family="Helvetica,sans-Serif" font-size="10.00">/c_cc_s/ChkNoHitGAtTg</text>
<text text-anchor="start" x="4182.5" y="-74.5" font-family="Helvetica,sans-Serif" font-size="10.00">__4cCcSFPC12cCcD_GObjInfPC12cCc</text>
<text text-anchor="middle" x="4281.5" y="-63.5" font-family="Helvetica,sans-Serif" font-size="10.00">D_GObjInfP10cCcD_GSttsP10cCcD_GStts.s</text>
</a>
</g>
</g>
<!-- Node1&#45;&gt;Node27 -->
<g id="edge27" class="edge">
<title>Node1&#45;&gt;Node27</title>
<path fill="none" stroke="midnightblue" d="M2312.59,-159.45C2605.54,-158.95 3774.81,-154.19 4164.32,-109.01"/>
<polygon fill="midnightblue" stroke="midnightblue" points="4164.98,-112.46 4174.5,-107.8 4164.15,-105.5 4164.98,-112.46"/>
</g>
<!-- Node28 -->
<g id="node28" class="node">
<title>Node28</title>
<g id="a_node28"><a xlink:title=" ">
<polygon fill="white" stroke="#bfbfbf" points="4407,-67.5 4407,-97.5 4544,-97.5 4544,-67.5 4407,-67.5"/>
<text text-anchor="start" x="4415" y="-85.5" font-family="Helvetica,sans-Serif" font-size="10.00">asm/SSystem/SComponent</text>
<text text-anchor="middle" x="4475.5" y="-74.5" font-family="Helvetica,sans-Serif" font-size="10.00">/c_cc_s/func_80265E08.s</text>
</a>
</g>
</g>
<!-- Node1&#45;&gt;Node28 -->
<g id="edge28" class="edge">
<title>Node1&#45;&gt;Node28</title>
<path fill="none" stroke="midnightblue" d="M2312.63,-159.09C2653.87,-156.86 4188.18,-144.87 4397.5,-109 4408.36,-107.14 4419.77,-104.08 4430.42,-100.71"/>
<polygon fill="midnightblue" stroke="midnightblue" points="4431.55,-104.02 4439.94,-97.55 4429.35,-97.37 4431.55,-104.02"/>
</g>
<!-- Node29 -->
<g id="node29" class="node">
<title>Node29</title>
<g id="a_node29"><a xlink:title=" ">
<polygon fill="white" stroke="#bfbfbf" points="4562,-62 4562,-103 4741,-103 4741,-62 4562,-62"/>
<text text-anchor="start" x="4570" y="-91" font-family="Helvetica,sans-Serif" font-size="10.00">asm/SSystem/SComponent</text>
<text text-anchor="start" x="4570" y="-80" font-family="Helvetica,sans-Serif" font-size="10.00">/c_cc_s/ChkNoHitGCo__4cCcSFP8c</text>
<text text-anchor="middle" x="4651.5" y="-69" font-family="Helvetica,sans-Serif" font-size="10.00">CcD_ObjP8cCcD_Obj.s</text>
</a>
</g>
</g>
<!-- Node1&#45;&gt;Node29 -->
<g id="edge29" class="edge">
<title>Node1&#45;&gt;Node29</title>
<path fill="none" stroke="midnightblue" d="M2312.7,-158.96C2668.73,-155.98 4326.92,-140.52 4553.5,-109 4560.56,-108.02 4567.85,-106.71 4575.11,-105.19"/>
<polygon fill="midnightblue" stroke="midnightblue" points="4575.96,-108.59 4584.97,-103.02 4574.45,-101.76 4575.96,-108.59"/>
</g>
<!-- Node30 -->
<g id="node30" class="node">
<title>Node30</title>
<g id="a_node30"><a xlink:title=" ">
<polygon fill="white" stroke="#bfbfbf" points="4759,-62 4759,-103 4896,-103 4896,-62 4759,-62"/>
<text text-anchor="start" x="4767" y="-91" font-family="Helvetica,sans-Serif" font-size="10.00">asm/SSystem/SComponent</text>
<text text-anchor="start" x="4767" y="-80" font-family="Helvetica,sans-Serif" font-size="10.00">/c_cc_s/MoveAfterCheck</text>
<text text-anchor="middle" x="4827.5" y="-69" font-family="Helvetica,sans-Serif" font-size="10.00">__4cCcSFv.s</text>
</a>
</g>
</g>
<!-- Node1&#45;&gt;Node30 -->
<g id="edge30" class="edge">
<title>Node1&#45;&gt;Node30</title>
<path fill="none" stroke="midnightblue" d="M2312.56,-159.35C2686.35,-158.33 4504.52,-151.22 4750.5,-109 4755.49,-108.14 4760.6,-107.02 4765.69,-105.73"/>
<polygon fill="midnightblue" stroke="midnightblue" points="4766.71,-109.08 4775.43,-103.06 4764.86,-102.33 4766.71,-109.08"/>
</g>
<!-- Node4&#45;&gt;Node3 -->
<g id="edge4" class="edge">
<title>Node4&#45;&gt;Node3</title>
<path fill="none" stroke="midnightblue" d="M166.8,-67.23C159.98,-56.06 150.47,-40.46 143.19,-28.52"/>
<polygon fill="midnightblue" stroke="midnightblue" points="146.12,-26.61 137.92,-19.89 140.14,-30.25 146.12,-26.61"/>
</g>
</g>
</svg>
        <g id="navigator" transform="translate(0 0)" fill="#404254">
                <rect fill="#f2f5e9" fill-opacity="0.5" stroke="#606060" stroke-width=".5" x="0" y="0" width="60" height="60"/>
                <use id="zoomplus" xlink:href="#zoomPlus" x="17" y="9" onmousedown="handleZoom(evt,'in')"/>
                <use id="zoomminus" xlink:href="#zoomMin" x="42" y="9" onmousedown="handleZoom(evt,'out')"/>
                <use id="reset" xlink:href="#resetDef" x="30" y="36" onmousedown="handleReset()"/>
                <g id="arrowUp" xlink:href="#dirArrow" transform="translate(30 24)" onmousedown="handlePan(0,-1)">
                  <use xlink:href="#rim" fill="#404040">
                        <set attributeName="fill" to="#808080" begin="arrowUp.mouseover" end="arrowUp.mouseout"/>
                  </use>
                  <path fill="none" stroke="white" stroke-width="1.5" d="M0,-3.0v7 M-2.5,-0.5L0,-3.0L2.5,-0.5"/>
                </g>
                <g id="arrowRight" xlink:href="#dirArrow" transform="rotate(90) translate(36 -43)" onmousedown="handlePan(1,0)">
                  <use xlink:href="#rim" fill="#404040">
                        <set attributeName="fill" to="#808080" begin="arrowRight.mouseover" end="arrowRight.mouseout"/>
                  </use>
                  <path fill="none" stroke="white" stroke-width="1.5" d="M0,-3.0v7 M-2.5,-0.5L0,-3.0L2.5,-0.5"/>
                </g>
                <g id="arrowDown" xlink:href="#dirArrow" transform="rotate(180) translate(-30 -48)" onmousedown="handlePan(0,1)">
                  <use xlink:href="#rim" fill="#404040">
                        <set attributeName="fill" to="#808080" begin="arrowDown.mouseover" end="arrowDown.mouseout"/>
                  </use>
                  <path fill="none" stroke="white" stroke-width="1.5" d="M0,-3.0v7 M-2.5,-0.5L0,-3.0L2.5,-0.5"/>
                </g>
                <g id="arrowLeft" xlink:href="#dirArrow" transform="rotate(270) translate(-36 17)" onmousedown="handlePan(-1,0)">
                  <use xlink:href="#rim" fill="#404040">
                        <set attributeName="fill" to="#808080" begin="arrowLeft.mouseover" end="arrowLeft.mouseout"/>
                  </use>
                  <path fill="none" stroke="white" stroke-width="1.5" d="M0,-3.0v7 M-2.5,-0.5L0,-3.0L2.5,-0.5"/>
                </g>
        </g>
        <svg viewBox="0 0 15 15" width="100%" height="30px" preserveAspectRatio="xMaxYMin meet">
         <g id="arrow_out" transform="scale(0.3 0.3)">
          <a xlink:href="c__cc__s_8cpp__incl_org.svg" target="_base">
           <rect id="button" ry="5" rx="5" y="6" x="6" height="38" width="38"
                fill="#f2f5e9" fill-opacity="0.5" stroke="#606060" stroke-width="1.0"/>
           <path id="arrow"
             d="M 11.500037,31.436501 C 11.940474,20.09759 22.043105,11.32322 32.158766,21.979434 L 37.068811,17.246167 C 37.068811,17.246167 37.088388,32 37.088388,32 L 22.160133,31.978069 C 22.160133,31.978069 26.997745,27.140456 26.997745,27.140456 C 18.528582,18.264221 13.291696,25.230495 11.500037,31.436501 z"
             style="fill:#404040;"/>
          </a>
         </g>
        </svg>
</svg>
