<?xml version="1.0" encoding="UTF-8" standalone="no"?>
<!DOCTYPE svg PUBLIC "-//W3C//DTD SVG 1.1//EN"
 "http://www.w3.org/Graphics/SVG/1.1/DTD/svg11.dtd">
<!-- Generated by graphviz version 2.47.0 (20210316.2052)
 -->
<!-- Title: libs/SSystem/SComponent/c_lib.cpp Pages: 1 -->
<svg width="4762pt" height="173pt"
 viewBox="0.00 0.00 4761.50 173.00" xmlns="http://www.w3.org/2000/svg" xmlns:xlink="http://www.w3.org/1999/xlink">
<g id="graph0" class="graph" transform="scale(1 1) rotate(0) translate(4 169)">
<title>libs/SSystem/SComponent/c_lib.cpp</title>
<polygon fill="white" stroke="transparent" points="-4,4 -4,-169 4757.5,-169 4757.5,4 -4,4"/>
<!-- Node1 -->
<g id="node1" class="node">
<title>Node1</title>
<g id="a_node1"><a xlink:title=" ">
<polygon fill="#bfbfbf" stroke="black" points="2217,-134.5 2217,-164.5 2351,-164.5 2351,-134.5 2217,-134.5"/>
<text text-anchor="start" x="2225" y="-152.5" font-family="Helvetica,sans-Serif" font-size="10.00">libs/SSystem/SComponent</text>
<text text-anchor="middle" x="2284" y="-141.5" font-family="Helvetica,sans-Serif" font-size="10.00">/c_lib.cpp</text>
</a>
</g>
</g>
<!-- Node2 -->
<g id="node2" class="node">
<title>Node2</title>
<g id="a_node2"><a xlink:href="c__lib_8h.html" target="_top" xlink:title=" ">
<polygon fill="white" stroke="black" points="0,-62 0,-92 116,-92 116,-62 0,-62"/>
<text text-anchor="start" x="8" y="-80" font-family="Helvetica,sans-Serif" font-size="10.00">SSystem/SComponent</text>
<text text-anchor="middle" x="58" y="-69" font-family="Helvetica,sans-Serif" font-size="10.00">/c_lib.h</text>
</a>
</g>
</g>
<!-- Node1&#45;&gt;Node2 -->
<g id="edge1" class="edge">
<title>Node1&#45;&gt;Node2</title>
<path fill="none" stroke="midnightblue" d="M2216.84,-147.91C1875.42,-144.8 340.27,-129.18 130,-98 124.08,-97.12 117.96,-95.91 111.9,-94.52"/>
<polygon fill="midnightblue" stroke="midnightblue" points="112.35,-91.02 101.8,-92.02 110.67,-97.82 112.35,-91.02"/>
</g>
<!-- Node3 -->
<g id="node3" class="node">
<title>Node3</title>
<g id="a_node3"><a xlink:href="types_8h.html" target="_top" xlink:title=" ">
<polygon fill="white" stroke="black" points="60.5,-0.5 60.5,-19.5 141.5,-19.5 141.5,-0.5 60.5,-0.5"/>
<text text-anchor="middle" x="101" y="-7.5" font-family="Helvetica,sans-Serif" font-size="10.00">dolphin/types.h</text>
</a>
</g>
</g>
<!-- Node1&#45;&gt;Node3 -->
<g id="edge4" class="edge">
<title>Node1&#45;&gt;Node3</title>
<path fill="none" stroke="midnightblue" d="M2216.8,-148.57C1865.93,-148.74 256.88,-146.82 164,-98 149.34,-90.29 124.69,-51.4 110.98,-28.3"/>
<polygon fill="midnightblue" stroke="midnightblue" points="113.9,-26.37 105.83,-19.51 107.86,-29.91 113.9,-26.37"/>
</g>
<!-- Node4 -->
<g id="node4" class="node">
<title>Node4</title>
<g id="a_node4"><a xlink:href="dol2asm_8h.html" target="_top" xlink:title=" ">
<polygon fill="white" stroke="black" points="172.5,-67.5 172.5,-86.5 233.5,-86.5 233.5,-67.5 172.5,-67.5"/>
<text text-anchor="middle" x="203" y="-74.5" font-family="Helvetica,sans-Serif" font-size="10.00">dol2asm.h</text>
</a>
</g>
</g>
<!-- Node1&#45;&gt;Node4 -->
<g id="edge3" class="edge">
<title>Node1&#45;&gt;Node4</title>
<path fill="none" stroke="midnightblue" d="M2216.97,-148.58C1886.4,-148.72 437.81,-146.54 243,-98 237.16,-96.55 231.19,-94.14 225.71,-91.49"/>
<polygon fill="midnightblue" stroke="midnightblue" points="226.96,-88.19 216.49,-86.61 223.69,-94.38 226.96,-88.19"/>
</g>
<!-- Node5 -->
<g id="node5" class="node">
<title>Node5</title>
<g id="a_node5"><a xlink:title=" ">
<polygon fill="white" stroke="#bfbfbf" points="252,-62 252,-92 422,-92 422,-62 252,-62"/>
<text text-anchor="start" x="260" y="-80" font-family="Helvetica,sans-Serif" font-size="10.00">asm/SSystem/SComponent</text>
<text text-anchor="middle" x="337" y="-69" font-family="Helvetica,sans-Serif" font-size="10.00">/c_lib/cLib_memCpy__FPvPCvUl.s</text>
</a>
</g>
</g>
<!-- Node1&#45;&gt;Node5 -->
<g id="edge5" class="edge">
<title>Node1&#45;&gt;Node5</title>
<path fill="none" stroke="midnightblue" d="M2216.84,-148.31C1927.65,-147.24 787.12,-140.38 431,-98 422.45,-96.98 413.53,-95.56 404.74,-93.95"/>
<polygon fill="midnightblue" stroke="midnightblue" points="405.37,-90.5 394.89,-92.05 404.05,-97.38 405.37,-90.5"/>
</g>
<!-- Node6 -->
<g id="node6" class="node">
<title>Node6</title>
<g id="a_node6"><a xlink:title=" ">
<polygon fill="white" stroke="#bfbfbf" points="440,-62 440,-92 592,-92 592,-62 440,-62"/>
<text text-anchor="start" x="448" y="-80" font-family="Helvetica,sans-Serif" font-size="10.00">asm/SSystem/SComponent</text>
<text text-anchor="middle" x="516" y="-69" font-family="Helvetica,sans-Serif" font-size="10.00">/c_lib/cLib_memSet__FPviUl.s</text>
</a>
</g>
</g>
<!-- Node1&#45;&gt;Node6 -->
<g id="edge6" class="edge">
<title>Node1&#45;&gt;Node6</title>
<path fill="none" stroke="midnightblue" d="M2216.65,-148.29C1943.99,-147.14 921.45,-140.07 601,-98 593.58,-97.03 585.86,-95.68 578.23,-94.15"/>
<polygon fill="midnightblue" stroke="midnightblue" points="578.8,-90.69 568.29,-92.04 577.35,-97.54 578.8,-90.69"/>
</g>
<!-- Node7 -->
<g id="node7" class="node">
<title>Node7</title>
<g id="a_node7"><a xlink:title=" ">
<polygon fill="white" stroke="#bfbfbf" points="610,-62 610,-92 756,-92 756,-62 610,-62"/>
<text text-anchor="start" x="618" y="-80" font-family="Helvetica,sans-Serif" font-size="10.00">asm/SSystem/SComponent</text>
<text text-anchor="middle" x="683" y="-69" font-family="Helvetica,sans-Serif" font-size="10.00">/c_lib/cLib_addCalc__FPfffff.s</text>
</a>
</g>
</g>
<!-- Node1&#45;&gt;Node7 -->
<g id="edge7" class="edge">
<title>Node1&#45;&gt;Node7</title>
<path fill="none" stroke="midnightblue" d="M2216.84,-148.08C1961.69,-146.2 1052.44,-136.86 766,-98 758.83,-97.03 751.38,-95.7 744.01,-94.18"/>
<polygon fill="midnightblue" stroke="midnightblue" points="744.57,-90.72 734.05,-92.02 743.08,-97.56 744.57,-90.72"/>
</g>
<!-- Node8 -->
<g id="node8" class="node">
<title>Node8</title>
<g id="a_node8"><a xlink:title=" ">
<polygon fill="white" stroke="#bfbfbf" points="774.5,-56.5 774.5,-97.5 911.5,-97.5 911.5,-56.5 774.5,-56.5"/>
<text text-anchor="start" x="782.5" y="-85.5" font-family="Helvetica,sans-Serif" font-size="10.00">asm/SSystem/SComponent</text>
<text text-anchor="start" x="782.5" y="-74.5" font-family="Helvetica,sans-Serif" font-size="10.00">/c_lib/cLib_addCalc2_</text>
<text text-anchor="middle" x="843" y="-63.5" font-family="Helvetica,sans-Serif" font-size="10.00">_FPffff.s</text>
</a>
</g>
</g>
<!-- Node1&#45;&gt;Node8 -->
<g id="edge8" class="edge">
<title>Node1&#45;&gt;Node8</title>
<path fill="none" stroke="midnightblue" d="M2216.85,-147.91C1981.76,-145.56 1195.71,-135.16 922.04,-97.93"/>
<polygon fill="midnightblue" stroke="midnightblue" points="922.13,-94.4 911.74,-96.48 921.16,-101.34 922.13,-94.4"/>
</g>
<!-- Node9 -->
<g id="node9" class="node">
<title>Node9</title>
<g id="a_node9"><a xlink:title=" ">
<polygon fill="white" stroke="#bfbfbf" points="929.5,-56.5 929.5,-97.5 1066.5,-97.5 1066.5,-56.5 929.5,-56.5"/>
<text text-anchor="start" x="937.5" y="-85.5" font-family="Helvetica,sans-Serif" font-size="10.00">asm/SSystem/SComponent</text>
<text text-anchor="start" x="937.5" y="-74.5" font-family="Helvetica,sans-Serif" font-size="10.00">/c_lib/cLib_addCalc0_</text>
<text text-anchor="middle" x="998" y="-63.5" font-family="Helvetica,sans-Serif" font-size="10.00">_FPfff.s</text>
</a>
</g>
</g>
<!-- Node1&#45;&gt;Node9 -->
<g id="edge9" class="edge">
<title>Node1&#45;&gt;Node9</title>
<path fill="none" stroke="midnightblue" d="M2217,-147.54C2000.22,-144.16 1318.52,-131.23 1076.88,-97.91"/>
<polygon fill="midnightblue" stroke="midnightblue" points="1077.14,-94.41 1066.74,-96.46 1076.15,-101.34 1077.14,-94.41"/>
</g>
<!-- Node10 -->
<g id="node10" class="node">
<title>Node10</title>
<g id="a_node10"><a xlink:title=" ">
<polygon fill="white" stroke="#bfbfbf" points="1084.5,-56.5 1084.5,-97.5 1221.5,-97.5 1221.5,-56.5 1084.5,-56.5"/>
<text text-anchor="start" x="1092.5" y="-85.5" font-family="Helvetica,sans-Serif" font-size="10.00">asm/SSystem/SComponent</text>
<text text-anchor="start" x="1092.5" y="-74.5" font-family="Helvetica,sans-Serif" font-size="10.00">/c_lib/cLib_addCalcPos</text>
<text text-anchor="middle" x="1153" y="-63.5" font-family="Helvetica,sans-Serif" font-size="10.00">__FP4cXyzRC4cXyzfff.s</text>
</a>
</g>
</g>
<!-- Node1&#45;&gt;Node10 -->
<g id="edge10" class="edge">
<title>Node1&#45;&gt;Node10</title>
<path fill="none" stroke="midnightblue" d="M2216.96,-147.07C2019.51,-142.56 1441.43,-127.32 1231.75,-97.89"/>
<polygon fill="midnightblue" stroke="midnightblue" points="1232.15,-94.41 1221.75,-96.43 1231.14,-101.34 1232.15,-94.41"/>
</g>
<!-- Node11 -->
<g id="node11" class="node">
<title>Node11</title>
<g id="a_node11"><a xlink:title=" ">
<polygon fill="white" stroke="#bfbfbf" points="1239.5,-56.5 1239.5,-97.5 1376.5,-97.5 1376.5,-56.5 1239.5,-56.5"/>
<text text-anchor="start" x="1247.5" y="-85.5" font-family="Helvetica,sans-Serif" font-size="10.00">asm/SSystem/SComponent</text>
<text text-anchor="start" x="1247.5" y="-74.5" font-family="Helvetica,sans-Serif" font-size="10.00">/c_lib/cLib_addCalcPosXZ</text>
<text text-anchor="middle" x="1308" y="-63.5" font-family="Helvetica,sans-Serif" font-size="10.00">__FP4cXyzRC4cXyzfff.s</text>
</a>
</g>
</g>
<!-- Node1&#45;&gt;Node11 -->
<g id="edge11" class="edge">
<title>Node1&#45;&gt;Node11</title>
<path fill="none" stroke="midnightblue" d="M2216.79,-149.17C2068.39,-149.69 1701.65,-145.72 1386.98,-97.97"/>
<polygon fill="midnightblue" stroke="midnightblue" points="1387.17,-94.46 1376.75,-96.4 1386.11,-101.38 1387.17,-94.46"/>
</g>
<!-- Node12 -->
<g id="node12" class="node">
<title>Node12</title>
<g id="a_node12"><a xlink:title=" ">
<polygon fill="white" stroke="#bfbfbf" points="1394.5,-56.5 1394.5,-97.5 1531.5,-97.5 1531.5,-56.5 1394.5,-56.5"/>
<text text-anchor="start" x="1402.5" y="-85.5" font-family="Helvetica,sans-Serif" font-size="10.00">asm/SSystem/SComponent</text>
<text text-anchor="start" x="1402.5" y="-74.5" font-family="Helvetica,sans-Serif" font-size="10.00">/c_lib/cLib_addCalcPos2</text>
<text text-anchor="middle" x="1463" y="-63.5" font-family="Helvetica,sans-Serif" font-size="10.00">__FP4cXyzRC4cXyzff.s</text>
</a>
</g>
</g>
<!-- Node1&#45;&gt;Node12 -->
<g id="edge12" class="edge">
<title>Node1&#45;&gt;Node12</title>
<path fill="none" stroke="midnightblue" d="M2216.93,-148.04C2087.83,-146.27 1795.84,-137.94 1541.92,-97.98"/>
<polygon fill="midnightblue" stroke="midnightblue" points="1542.19,-94.48 1531.76,-96.36 1541.08,-101.39 1542.19,-94.48"/>
</g>
<!-- Node13 -->
<g id="node13" class="node">
<title>Node13</title>
<g id="a_node13"><a xlink:title=" ">
<polygon fill="white" stroke="#bfbfbf" points="1549.5,-56.5 1549.5,-97.5 1686.5,-97.5 1686.5,-56.5 1549.5,-56.5"/>
<text text-anchor="start" x="1557.5" y="-85.5" font-family="Helvetica,sans-Serif" font-size="10.00">asm/SSystem/SComponent</text>
<text text-anchor="start" x="1557.5" y="-74.5" font-family="Helvetica,sans-Serif" font-size="10.00">/c_lib/cLib_addCalcPosXZ2</text>
<text text-anchor="middle" x="1618" y="-63.5" font-family="Helvetica,sans-Serif" font-size="10.00">__FP4cXyzRC4cXyzff.s</text>
</a>
</g>
</g>
<!-- Node1&#45;&gt;Node13 -->
<g id="edge13" class="edge">
<title>Node1&#45;&gt;Node13</title>
<path fill="none" stroke="midnightblue" d="M2216.97,-146.35C2109.21,-142.1 1890.75,-130.22 1696.86,-97.99"/>
<polygon fill="midnightblue" stroke="midnightblue" points="1697.21,-94.5 1686.77,-96.29 1696.05,-101.4 1697.21,-94.5"/>
</g>
<!-- Node14 -->
<g id="node14" class="node">
<title>Node14</title>
<g id="a_node14"><a xlink:title=" ">
<polygon fill="white" stroke="#bfbfbf" points="1704.5,-56.5 1704.5,-97.5 1841.5,-97.5 1841.5,-56.5 1704.5,-56.5"/>
<text text-anchor="start" x="1712.5" y="-85.5" font-family="Helvetica,sans-Serif" font-size="10.00">asm/SSystem/SComponent</text>
<text text-anchor="start" x="1712.5" y="-74.5" font-family="Helvetica,sans-Serif" font-size="10.00">/c_lib/cLib_addCalcAngleS</text>
<text text-anchor="middle" x="1773" y="-63.5" font-family="Helvetica,sans-Serif" font-size="10.00">__FPsssss.s</text>
</a>
</g>
</g>
<!-- Node1&#45;&gt;Node14 -->
<g id="edge14" class="edge">
<title>Node1&#45;&gt;Node14</title>
<path fill="none" stroke="midnightblue" d="M2216.82,-143.49C2133.42,-136.65 1986.74,-122.54 1851.89,-98.03"/>
<polygon fill="midnightblue" stroke="midnightblue" points="1852.26,-94.54 1841.79,-96.18 1850.99,-101.43 1852.26,-94.54"/>
</g>
<!-- Node15 -->
<g id="node15" class="node">
<title>Node15</title>
<g id="a_node15"><a xlink:title=" ">
<polygon fill="white" stroke="#bfbfbf" points="1859.5,-56.5 1859.5,-97.5 1998.5,-97.5 1998.5,-56.5 1859.5,-56.5"/>
<text text-anchor="start" x="1867.5" y="-85.5" font-family="Helvetica,sans-Serif" font-size="10.00">asm/SSystem/SComponent</text>
<text text-anchor="start" x="1867.5" y="-74.5" font-family="Helvetica,sans-Serif" font-size="10.00">/c_lib/cLib_addCalcAngleS2</text>
<text text-anchor="middle" x="1929" y="-63.5" font-family="Helvetica,sans-Serif" font-size="10.00">__FPssss.s</text>
</a>
</g>
</g>
<!-- Node1&#45;&gt;Node15 -->
<g id="edge15" class="edge">
<title>Node1&#45;&gt;Node15</title>
<path fill="none" stroke="midnightblue" d="M2216.82,-137.5C2163.08,-128.41 2085.59,-114.63 2008.6,-98.06"/>
<polygon fill="midnightblue" stroke="midnightblue" points="2009.24,-94.62 1998.73,-95.92 2007.76,-101.46 2009.24,-94.62"/>
</g>
<!-- Node16 -->
<g id="node16" class="node">
<title>Node16</title>
<g id="a_node16"><a xlink:title=" ">
<polygon fill="white" stroke="#bfbfbf" points="2017,-62 2017,-92 2193,-92 2193,-62 2017,-62"/>
<text text-anchor="start" x="2025" y="-80" font-family="Helvetica,sans-Serif" font-size="10.00">asm/SSystem/SComponent</text>
<text text-anchor="middle" x="2105" y="-69" font-family="Helvetica,sans-Serif" font-size="10.00">/c_lib/cLib_chaseUC__FPUcUcUc.s</text>
</a>
</g>
</g>
<!-- Node1&#45;&gt;Node16 -->
<g id="edge16" class="edge">
<title>Node1&#45;&gt;Node16</title>
<path fill="none" stroke="midnightblue" d="M2248.21,-134.4C2220.04,-123.31 2180.6,-107.78 2150.24,-95.82"/>
<polygon fill="midnightblue" stroke="midnightblue" points="2151.32,-92.48 2140.73,-92.07 2148.75,-98.99 2151.32,-92.48"/>
</g>
<!-- Node17 -->
<g id="node17" class="node">
<title>Node17</title>
<g id="a_node17"><a xlink:title=" ">
<polygon fill="white" stroke="#bfbfbf" points="2211,-62 2211,-92 2357,-92 2357,-62 2211,-62"/>
<text text-anchor="start" x="2219" y="-80" font-family="Helvetica,sans-Serif" font-size="10.00">asm/SSystem/SComponent</text>
<text text-anchor="middle" x="2284" y="-69" font-family="Helvetica,sans-Serif" font-size="10.00">/c_lib/cLib_chaseS__FPsss.s</text>
</a>
</g>
</g>
<!-- Node1&#45;&gt;Node17 -->
<g id="edge17" class="edge">
<title>Node1&#45;&gt;Node17</title>
<path fill="none" stroke="midnightblue" d="M2284,-134.23C2284,-125.16 2284,-113.16 2284,-102.58"/>
<polygon fill="midnightblue" stroke="midnightblue" points="2287.5,-102.25 2284,-92.25 2280.5,-102.25 2287.5,-102.25"/>
</g>
<!-- Node18 -->
<g id="node18" class="node">
<title>Node18</title>
<g id="a_node18"><a xlink:title=" ">
<polygon fill="white" stroke="#bfbfbf" points="2375,-62 2375,-92 2513,-92 2513,-62 2375,-62"/>
<text text-anchor="start" x="2383" y="-80" font-family="Helvetica,sans-Serif" font-size="10.00">asm/SSystem/SComponent</text>
<text text-anchor="middle" x="2444" y="-69" font-family="Helvetica,sans-Serif" font-size="10.00">/c_lib/cLib_chaseF__FPfff.s</text>
</a>
</g>
</g>
<!-- Node1&#45;&gt;Node18 -->
<g id="edge18" class="edge">
<title>Node1&#45;&gt;Node18</title>
<path fill="none" stroke="midnightblue" d="M2315.99,-134.4C2340.96,-123.4 2375.81,-108.04 2402.85,-96.13"/>
<polygon fill="midnightblue" stroke="midnightblue" points="2404.32,-99.31 2412.06,-92.07 2401.5,-92.9 2404.32,-99.31"/>
</g>
<!-- Node19 -->
<g id="node19" class="node">
<title>Node19</title>
<g id="a_node19"><a xlink:title=" ">
<polygon fill="white" stroke="#bfbfbf" points="2531.5,-56.5 2531.5,-97.5 2668.5,-97.5 2668.5,-56.5 2531.5,-56.5"/>
<text text-anchor="start" x="2539.5" y="-85.5" font-family="Helvetica,sans-Serif" font-size="10.00">asm/SSystem/SComponent</text>
<text text-anchor="start" x="2539.5" y="-74.5" font-family="Helvetica,sans-Serif" font-size="10.00">/c_lib/cLib_chasePos_</text>
<text text-anchor="middle" x="2600" y="-63.5" font-family="Helvetica,sans-Serif" font-size="10.00">_FP4cXyzRC4cXyzf.s</text>
</a>
</g>
</g>
<!-- Node1&#45;&gt;Node19 -->
<g id="edge19" class="edge">
<title>Node1&#45;&gt;Node19</title>
<path fill="none" stroke="midnightblue" d="M2351.11,-135.04C2396.54,-125.75 2458.16,-112.8 2521.39,-98.1"/>
<polygon fill="midnightblue" stroke="midnightblue" points="2522.19,-101.51 2531.14,-95.82 2520.6,-94.69 2522.19,-101.51"/>
</g>
<!-- Node20 -->
<g id="node20" class="node">
<title>Node20</title>
<g id="a_node20"><a xlink:title=" ">
<polygon fill="white" stroke="#bfbfbf" points="2686.5,-56.5 2686.5,-97.5 2823.5,-97.5 2823.5,-56.5 2686.5,-56.5"/>
<text text-anchor="start" x="2694.5" y="-85.5" font-family="Helvetica,sans-Serif" font-size="10.00">asm/SSystem/SComponent</text>
<text text-anchor="start" x="2694.5" y="-74.5" font-family="Helvetica,sans-Serif" font-size="10.00">/c_lib/cLib_chasePosXZ</text>
<text text-anchor="middle" x="2755" y="-63.5" font-family="Helvetica,sans-Serif" font-size="10.00">__FP4cXyzRC4cXyzf.s</text>
</a>
</g>
</g>
<!-- Node1&#45;&gt;Node20 -->
<g id="edge20" class="edge">
<title>Node1&#45;&gt;Node20</title>
<path fill="none" stroke="midnightblue" d="M2351.34,-142.49C2427.96,-135.06 2556.95,-120.78 2676.22,-98.24"/>
<polygon fill="midnightblue" stroke="midnightblue" points="2677.09,-101.64 2686.25,-96.32 2675.77,-94.76 2677.09,-101.64"/>
</g>
<!-- Node21 -->
<g id="node21" class="node">
<title>Node21</title>
<g id="a_node21"><a xlink:title=" ">
<polygon fill="white" stroke="#bfbfbf" points="2841.5,-56.5 2841.5,-97.5 2978.5,-97.5 2978.5,-56.5 2841.5,-56.5"/>
<text text-anchor="start" x="2849.5" y="-85.5" font-family="Helvetica,sans-Serif" font-size="10.00">asm/SSystem/SComponent</text>
<text text-anchor="start" x="2849.5" y="-74.5" font-family="Helvetica,sans-Serif" font-size="10.00">/c_lib/cLib_chaseAngleS</text>
<text text-anchor="middle" x="2910" y="-63.5" font-family="Helvetica,sans-Serif" font-size="10.00">__FPsss.s</text>
</a>
</g>
</g>
<!-- Node1&#45;&gt;Node21 -->
<g id="edge21" class="edge">
<title>Node1&#45;&gt;Node21</title>
<path fill="none" stroke="midnightblue" d="M2351.23,-145.83C2453.25,-141.01 2653.33,-128.53 2831.21,-98.18"/>
<polygon fill="midnightblue" stroke="midnightblue" points="2832.02,-101.59 2841.27,-96.44 2830.82,-94.7 2832.02,-101.59"/>
</g>
<!-- Node22 -->
<g id="node22" class="node">
<title>Node22</title>
<g id="a_node22"><a xlink:title=" ">
<polygon fill="white" stroke="#bfbfbf" points="2996.5,-56.5 2996.5,-97.5 3133.5,-97.5 3133.5,-56.5 2996.5,-56.5"/>
<text text-anchor="start" x="3004.5" y="-85.5" font-family="Helvetica,sans-Serif" font-size="10.00">asm/SSystem/SComponent</text>
<text text-anchor="start" x="3004.5" y="-74.5" font-family="Helvetica,sans-Serif" font-size="10.00">/c_lib/cLib_targetAngleY</text>
<text text-anchor="middle" x="3065" y="-63.5" font-family="Helvetica,sans-Serif" font-size="10.00">__FPC3VecPC3Vec.s</text>
</a>
</g>
</g>
<!-- Node1&#45;&gt;Node22 -->
<g id="edge22" class="edge">
<title>Node1&#45;&gt;Node22</title>
<path fill="none" stroke="midnightblue" d="M2351.45,-147.74C2475.6,-145.46 2748.58,-136.31 2986.07,-98.17"/>
<polygon fill="midnightblue" stroke="midnightblue" points="2986.98,-101.57 2996.29,-96.51 2985.85,-94.66 2986.98,-101.57"/>
</g>
<!-- Node23 -->
<g id="node23" class="node">
<title>Node23</title>
<g id="a_node23"><a xlink:title=" ">
<polygon fill="white" stroke="#bfbfbf" points="3151.5,-56.5 3151.5,-97.5 3288.5,-97.5 3288.5,-56.5 3151.5,-56.5"/>
<text text-anchor="start" x="3159.5" y="-85.5" font-family="Helvetica,sans-Serif" font-size="10.00">asm/SSystem/SComponent</text>
<text text-anchor="start" x="3159.5" y="-74.5" font-family="Helvetica,sans-Serif" font-size="10.00">/c_lib/cLib_targetAngleY</text>
<text text-anchor="middle" x="3220" y="-63.5" font-family="Helvetica,sans-Serif" font-size="10.00">__FRC3VecRC3Vec.s</text>
</a>
</g>
</g>
<!-- Node1&#45;&gt;Node23 -->
<g id="edge23" class="edge">
<title>Node1&#45;&gt;Node23</title>
<path fill="none" stroke="midnightblue" d="M2351.03,-148.99C2494.67,-149.09 2842.7,-144.22 3141.14,-98.14"/>
<polygon fill="midnightblue" stroke="midnightblue" points="3141.95,-101.56 3151.29,-96.56 3140.87,-94.64 3141.95,-101.56"/>
</g>
<!-- Node24 -->
<g id="node24" class="node">
<title>Node24</title>
<g id="a_node24"><a xlink:title=" ">
<polygon fill="white" stroke="#bfbfbf" points="3306.5,-56.5 3306.5,-97.5 3443.5,-97.5 3443.5,-56.5 3306.5,-56.5"/>
<text text-anchor="start" x="3314.5" y="-85.5" font-family="Helvetica,sans-Serif" font-size="10.00">asm/SSystem/SComponent</text>
<text text-anchor="start" x="3314.5" y="-74.5" font-family="Helvetica,sans-Serif" font-size="10.00">/c_lib/cLib_targetAngleX</text>
<text text-anchor="middle" x="3375" y="-63.5" font-family="Helvetica,sans-Serif" font-size="10.00">__FPC4cXyzPC4cXyz.s</text>
</a>
</g>
</g>
<!-- Node1&#45;&gt;Node24 -->
<g id="edge24" class="edge">
<title>Node1&#45;&gt;Node24</title>
<path fill="none" stroke="midnightblue" d="M2351.33,-146.94C2543.88,-142.21 3095.34,-126.62 3296.15,-98.09"/>
<polygon fill="midnightblue" stroke="midnightblue" points="3296.92,-101.51 3306.3,-96.59 3295.89,-94.59 3296.92,-101.51"/>
</g>
<!-- Node25 -->
<g id="node25" class="node">
<title>Node25</title>
<g id="a_node25"><a xlink:title=" ">
<polygon fill="white" stroke="#bfbfbf" points="3462,-56.5 3462,-97.5 3620,-97.5 3620,-56.5 3462,-56.5"/>
<text text-anchor="start" x="3470" y="-85.5" font-family="Helvetica,sans-Serif" font-size="10.00">asm/SSystem/SComponent</text>
<text text-anchor="start" x="3470" y="-74.5" font-family="Helvetica,sans-Serif" font-size="10.00">/c_lib/cLib_offsetPos</text>
<text text-anchor="middle" x="3541" y="-63.5" font-family="Helvetica,sans-Serif" font-size="10.00">__FP4cXyzPC4cXyzsPC4cXyz.s</text>
</a>
</g>
</g>
<!-- Node1&#45;&gt;Node25 -->
<g id="edge25" class="edge">
<title>Node1&#45;&gt;Node25</title>
<path fill="none" stroke="midnightblue" d="M2351.05,-147.19C2563.06,-142.82 3218.12,-127.34 3451.83,-97.99"/>
<polygon fill="midnightblue" stroke="midnightblue" points="3452.5,-101.43 3461.97,-96.67 3451.6,-94.49 3452.5,-101.43"/>
</g>
<!-- Node26 -->
<g id="node26" class="node">
<title>Node26</title>
<g id="a_node26"><a xlink:title=" ">
<polygon fill="white" stroke="#bfbfbf" points="3638.5,-56.5 3638.5,-97.5 3775.5,-97.5 3775.5,-56.5 3638.5,-56.5"/>
<text text-anchor="start" x="3646.5" y="-85.5" font-family="Helvetica,sans-Serif" font-size="10.00">asm/SSystem/SComponent</text>
<text text-anchor="start" x="3646.5" y="-74.5" font-family="Helvetica,sans-Serif" font-size="10.00">/c_lib/cLib_distanceAngleS</text>
<text text-anchor="middle" x="3707" y="-63.5" font-family="Helvetica,sans-Serif" font-size="10.00">__Fss.s</text>
</a>
</g>
</g>
<!-- Node1&#45;&gt;Node26 -->
<g id="edge26" class="edge">
<title>Node1&#45;&gt;Node26</title>
<path fill="none" stroke="midnightblue" d="M2351.07,-147.87C2584.06,-145.41 3358.25,-134.71 3628.1,-97.91"/>
<polygon fill="midnightblue" stroke="midnightblue" points="3628.84,-101.34 3638.26,-96.47 3627.87,-94.4 3628.84,-101.34"/>
</g>
<!-- Node27 -->
<g id="node27" class="node">
<title>Node27</title>
<g id="a_node27"><a xlink:title=" ">
<polygon fill="white" stroke="#bfbfbf" points="3793.5,-62 3793.5,-92 3930.5,-92 3930.5,-62 3793.5,-62"/>
<text text-anchor="start" x="3801.5" y="-80" font-family="Helvetica,sans-Serif" font-size="10.00">asm/SSystem/SComponent</text>
<text text-anchor="middle" x="3862" y="-69" font-family="Helvetica,sans-Serif" font-size="10.00">/c_lib/MtxInit__Fv.s</text>
</a>
</g>
</g>
<!-- Node1&#45;&gt;Node27 -->
<g id="edge27" class="edge">
<title>Node1&#45;&gt;Node27</title>
<path fill="none" stroke="midnightblue" d="M2351.29,-148.21C2604.85,-146.79 3502.44,-138.94 3785,-98 3791.37,-97.08 3797.97,-95.83 3804.51,-94.4"/>
<polygon fill="midnightblue" stroke="midnightblue" points="3805.74,-97.71 3814.69,-92.04 3804.16,-90.89 3805.74,-97.71"/>
</g>
<!-- Node28 -->
<g id="node28" class="node">
<title>Node28</title>
<g id="a_node28"><a xlink:title=" ">
<polygon fill="white" stroke="#bfbfbf" points="3948.5,-62 3948.5,-92 4085.5,-92 4085.5,-62 3948.5,-62"/>
<text text-anchor="start" x="3956.5" y="-80" font-family="Helvetica,sans-Serif" font-size="10.00">asm/SSystem/SComponent</text>
<text text-anchor="middle" x="4017" y="-69" font-family="Helvetica,sans-Serif" font-size="10.00">/c_lib/MtxTrans__FfffUc.s</text>
</a>
</g>
</g>
<!-- Node1&#45;&gt;Node28 -->
<g id="edge28" class="edge">
<title>Node1&#45;&gt;Node28</title>
<path fill="none" stroke="midnightblue" d="M2351.21,-148.45C2620.97,-147.96 3625.56,-143.05 3940,-98 3946.37,-97.09 3952.97,-95.84 3959.51,-94.42"/>
<polygon fill="midnightblue" stroke="midnightblue" points="3960.74,-97.73 3969.69,-92.06 3959.16,-90.91 3960.74,-97.73"/>
</g>
<!-- Node29 -->
<g id="node29" class="node">
<title>Node29</title>
<g id="a_node29"><a xlink:title=" ">
<polygon fill="white" stroke="#bfbfbf" points="4103.5,-62 4103.5,-92 4240.5,-92 4240.5,-62 4103.5,-62"/>
<text text-anchor="start" x="4111.5" y="-80" font-family="Helvetica,sans-Serif" font-size="10.00">asm/SSystem/SComponent</text>
<text text-anchor="middle" x="4172" y="-69" font-family="Helvetica,sans-Serif" font-size="10.00">/c_lib/MtxScale__FfffUc.s</text>
</a>
</g>
</g>
<!-- Node1&#45;&gt;Node29 -->
<g id="edge29" class="edge">
<title>Node1&#45;&gt;Node29</title>
<path fill="none" stroke="midnightblue" d="M2351.12,-148.66C2636.29,-149.02 3748.56,-147.18 4095,-98 4101.37,-97.1 4107.97,-95.86 4114.51,-94.44"/>
<polygon fill="midnightblue" stroke="midnightblue" points="4115.74,-97.75 4124.69,-92.08 4114.16,-90.93 4115.74,-97.75"/>
</g>
<!-- Node30 -->
<g id="node30" class="node">
<title>Node30</title>
<g id="a_node30"><a xlink:title=" ">
<polygon fill="white" stroke="#bfbfbf" points="4259,-62 4259,-92 4443,-92 4443,-62 4259,-62"/>
<text text-anchor="start" x="4267" y="-80" font-family="Helvetica,sans-Serif" font-size="10.00">asm/SSystem/SComponent</text>
<text text-anchor="middle" x="4351" y="-69" font-family="Helvetica,sans-Serif" font-size="10.00">/c_lib/MtxPosition__FP4cXyzP4cXyz.s</text>
</a>
</g>
</g>
<!-- Node1&#45;&gt;Node30 -->
<g id="edge30" class="edge">
<title>Node1&#45;&gt;Node30</title>
<path fill="none" stroke="midnightblue" d="M2351.16,-148.31C2651.13,-147.21 3870.14,-140.18 4250,-98 4259.36,-96.96 4269.15,-95.5 4278.79,-93.84"/>
<polygon fill="midnightblue" stroke="midnightblue" points="4279.54,-97.26 4288.76,-92.04 4278.3,-90.37 4279.54,-97.26"/>
</g>
<!-- Node31 -->
<g id="node31" class="node">
<title>Node31</title>
<g id="a_node31"><a xlink:title=" ">
<polygon fill="white" stroke="#bfbfbf" points="4461.5,-62 4461.5,-92 4598.5,-92 4598.5,-62 4461.5,-62"/>
<text text-anchor="start" x="4469.5" y="-80" font-family="Helvetica,sans-Serif" font-size="10.00">asm/SSystem/SComponent</text>
<text text-anchor="middle" x="4530" y="-69" font-family="Helvetica,sans-Serif" font-size="10.00">/c_lib/MtxPush__Fv.s</text>
</a>
</g>
</g>
<!-- Node1&#45;&gt;Node31 -->
<g id="edge31" class="edge">
<title>Node1&#45;&gt;Node31</title>
<path fill="none" stroke="midnightblue" d="M2351.02,-147.85C2693.47,-144.39 4239.94,-127.27 4452,-98 4458.7,-97.08 4465.65,-95.79 4472.52,-94.3"/>
<polygon fill="midnightblue" stroke="midnightblue" points="4473.53,-97.66 4482.49,-92.01 4471.96,-90.84 4473.53,-97.66"/>
</g>
<!-- Node32 -->
<g id="node32" class="node">
<title>Node32</title>
<g id="a_node32"><a xlink:title=" ">
<polygon fill="white" stroke="#bfbfbf" points="4616.5,-62 4616.5,-92 4753.5,-92 4753.5,-62 4616.5,-62"/>
<text text-anchor="start" x="4624.5" y="-80" font-family="Helvetica,sans-Serif" font-size="10.00">asm/SSystem/SComponent</text>
<text text-anchor="middle" x="4685" y="-69" font-family="Helvetica,sans-Serif" font-size="10.00">/c_lib/MtxPull__Fv.s</text>
</a>
</g>
</g>
<!-- Node1&#45;&gt;Node32 -->
<g id="edge32" class="edge">
<title>Node1&#45;&gt;Node32</title>
<path fill="none" stroke="midnightblue" d="M2351.08,-147.97C2708.33,-145.03 4379.71,-129.69 4608,-98 4614.62,-97.08 4621.48,-95.8 4628.27,-94.31"/>
<polygon fill="midnightblue" stroke="midnightblue" points="4629.17,-97.7 4638.11,-92.02 4627.58,-90.88 4629.17,-97.7"/>
</g>
<!-- Node2&#45;&gt;Node3 -->
<g id="edge2" class="edge">
<title>Node2&#45;&gt;Node3</title>
<path fill="none" stroke="midnightblue" d="M67.33,-61.9C73.9,-51.96 82.74,-38.61 89.71,-28.07"/>
<polygon fill="midnightblue" stroke="midnightblue" points="92.65,-29.97 95.25,-19.69 86.81,-26.1 92.65,-29.97"/>
</g>
</g>
</svg>
