<?xml version="1.0" encoding="UTF-8" standalone="no"?>
<!DOCTYPE svg PUBLIC "-//W3C//DTD SVG 1.1//EN"
 "http://www.w3.org/Graphics/SVG/1.1/DTD/svg11.dtd">
<!-- Generated by graphviz version 2.47.0 (20210316.2052)
 -->
<!-- Title: libs/SSystem/SComponent/c_m3d_g_cyl.cpp Pages: 1 -->
<svg width="1940pt" height="173pt"
 viewBox="0.00 0.00 1939.50 173.00" xmlns="http://www.w3.org/2000/svg" xmlns:xlink="http://www.w3.org/1999/xlink">
<g id="graph0" class="graph" transform="scale(1 1) rotate(0) translate(4 169)">
<title>libs/SSystem/SComponent/c_m3d_g_cyl.cpp</title>
<polygon fill="white" stroke="transparent" points="-4,4 -4,-169 1935.5,-169 1935.5,4 -4,4"/>
<!-- Node1 -->
<g id="node1" class="node">
<title>Node1</title>
<g id="a_node1"><a xlink:title=" ">
<polygon fill="#bfbfbf" stroke="black" points="753,-134.5 753,-164.5 887,-164.5 887,-134.5 753,-134.5"/>
<text text-anchor="start" x="761" y="-152.5" font-family="Helvetica,sans-Serif" font-size="10.00">libs/SSystem/SComponent</text>
<text text-anchor="middle" x="820" y="-141.5" font-family="Helvetica,sans-Serif" font-size="10.00">/c_m3d_g_cyl.cpp</text>
</a>
</g>
</g>
<!-- Node2 -->
<g id="node2" class="node">
<title>Node2</title>
<g id="a_node2"><a xlink:href="c__m3d__g__cyl_8h.html" target="_top" xlink:title=" ">
<polygon fill="white" stroke="black" points="0,-62 0,-92 116,-92 116,-62 0,-62"/>
<text text-anchor="start" x="8" y="-80" font-family="Helvetica,sans-Serif" font-size="10.00">SSystem/SComponent</text>
<text text-anchor="middle" x="58" y="-69" font-family="Helvetica,sans-Serif" font-size="10.00">/c_m3d_g_cyl.h</text>
</a>
</g>
</g>
<!-- Node1&#45;&gt;Node2 -->
<g id="edge1" class="edge">
<title>Node1&#45;&gt;Node2</title>
<path fill="none" stroke="midnightblue" d="M752.85,-147.98C628.87,-146.05 356.03,-137.27 130,-98 124.57,-97.06 118.95,-95.87 113.37,-94.56"/>
<polygon fill="midnightblue" stroke="midnightblue" points="113.95,-91.1 103.4,-92.07 112.25,-97.89 113.95,-91.1"/>
</g>
<!-- Node3 -->
<g id="node3" class="node">
<title>Node3</title>
<g id="a_node3"><a xlink:href="types_8h.html" target="_top" xlink:title=" ">
<polygon fill="white" stroke="black" points="60.5,-0.5 60.5,-19.5 141.5,-19.5 141.5,-0.5 60.5,-0.5"/>
<text text-anchor="middle" x="101" y="-7.5" font-family="Helvetica,sans-Serif" font-size="10.00">dolphin/types.h</text>
</a>
</g>
</g>
<!-- Node1&#45;&gt;Node3 -->
<g id="edge4" class="edge">
<title>Node1&#45;&gt;Node3</title>
<path fill="none" stroke="midnightblue" d="M752.93,-146.52C596.02,-141.43 214.49,-126.27 164,-98 149.62,-89.95 125.07,-51.54 111.24,-28.54"/>
<polygon fill="midnightblue" stroke="midnightblue" points="114.14,-26.57 106.03,-19.75 108.12,-30.14 114.14,-26.57"/>
</g>
<!-- Node4 -->
<g id="node4" class="node">
<title>Node4</title>
<g id="a_node4"><a xlink:href="dol2asm_8h.html" target="_top" xlink:title=" ">
<polygon fill="white" stroke="black" points="172.5,-67.5 172.5,-86.5 233.5,-86.5 233.5,-67.5 172.5,-67.5"/>
<text text-anchor="middle" x="203" y="-74.5" font-family="Helvetica,sans-Serif" font-size="10.00">dol2asm.h</text>
</a>
</g>
</g>
<!-- Node1&#45;&gt;Node4 -->
<g id="edge3" class="edge">
<title>Node1&#45;&gt;Node4</title>
<path fill="none" stroke="midnightblue" d="M752.9,-145.78C622.01,-139.97 337.23,-124.63 243,-98 237.3,-96.39 231.45,-93.96 226.04,-91.35"/>
<polygon fill="midnightblue" stroke="midnightblue" points="227.4,-88.11 216.91,-86.58 224.16,-94.32 227.4,-88.11"/>
</g>
<!-- Node5 -->
<g id="node5" class="node">
<title>Node5</title>
<g id="a_node5"><a xlink:title=" ">
<polygon fill="white" stroke="#bfbfbf" points="251.5,-56.5 251.5,-97.5 410.5,-97.5 410.5,-56.5 251.5,-56.5"/>
<text text-anchor="start" x="259.5" y="-85.5" font-family="Helvetica,sans-Serif" font-size="10.00">asm/SSystem/SComponent</text>
<text text-anchor="start" x="259.5" y="-74.5" font-family="Helvetica,sans-Serif" font-size="10.00">/c_m3d_g_cyl/__ct__8cM3dGCyl</text>
<text text-anchor="middle" x="331" y="-63.5" font-family="Helvetica,sans-Serif" font-size="10.00">FPC4cXyzff.s</text>
</a>
</g>
</g>
<!-- Node1&#45;&gt;Node5 -->
<g id="edge5" class="edge">
<title>Node1&#45;&gt;Node5</title>
<path fill="none" stroke="midnightblue" d="M752.83,-142C675.22,-134.04 543.52,-119.18 420.48,-98"/>
<polygon fill="midnightblue" stroke="midnightblue" points="420.95,-94.53 410.5,-96.26 419.75,-101.42 420.95,-94.53"/>
</g>
<!-- Node6 -->
<g id="node6" class="node">
<title>Node6</title>
<g id="a_node6"><a xlink:title=" ">
<polygon fill="white" stroke="#bfbfbf" points="428.5,-56.5 428.5,-97.5 613.5,-97.5 613.5,-56.5 428.5,-56.5"/>
<text text-anchor="start" x="436.5" y="-85.5" font-family="Helvetica,sans-Serif" font-size="10.00">asm/SSystem/SComponent</text>
<text text-anchor="start" x="436.5" y="-74.5" font-family="Helvetica,sans-Serif" font-size="10.00">/c_m3d_g_cyl/Set__8cM3dGCylFRC9c</text>
<text text-anchor="middle" x="521" y="-63.5" font-family="Helvetica,sans-Serif" font-size="10.00">M3dGCylS.s</text>
</a>
</g>
</g>
<!-- Node1&#45;&gt;Node6 -->
<g id="edge6" class="edge">
<title>Node1&#45;&gt;Node6</title>
<path fill="none" stroke="midnightblue" d="M760.57,-134.49C718.59,-124.59 661.49,-111.13 613.57,-99.83"/>
<polygon fill="midnightblue" stroke="midnightblue" points="614.34,-96.41 603.81,-97.53 612.74,-103.23 614.34,-96.41"/>
</g>
<!-- Node7 -->
<g id="node7" class="node">
<title>Node7</title>
<g id="a_node7"><a xlink:title=" ">
<polygon fill="white" stroke="#bfbfbf" points="631.5,-56.5 631.5,-97.5 816.5,-97.5 816.5,-56.5 631.5,-56.5"/>
<text text-anchor="start" x="639.5" y="-85.5" font-family="Helvetica,sans-Serif" font-size="10.00">asm/SSystem/SComponent</text>
<text text-anchor="start" x="639.5" y="-74.5" font-family="Helvetica,sans-Serif" font-size="10.00">/c_m3d_g_cyl/Set__8cM3dGCylFRC4c</text>
<text text-anchor="middle" x="724" y="-63.5" font-family="Helvetica,sans-Serif" font-size="10.00">Xyzff.s</text>
</a>
</g>
</g>
<!-- Node1&#45;&gt;Node7 -->
<g id="edge7" class="edge">
<title>Node1&#45;&gt;Node7</title>
<path fill="none" stroke="midnightblue" d="M800.57,-134.23C788.57,-125.42 772.83,-113.86 758.74,-103.51"/>
<polygon fill="midnightblue" stroke="midnightblue" points="760.81,-100.69 750.67,-97.59 756.66,-106.33 760.81,-100.69"/>
</g>
<!-- Node8 -->
<g id="node8" class="node">
<title>Node8</title>
<g id="a_node8"><a xlink:title=" ">
<polygon fill="white" stroke="#bfbfbf" points="835,-56.5 835,-97.5 997,-97.5 997,-56.5 835,-56.5"/>
<text text-anchor="start" x="843" y="-85.5" font-family="Helvetica,sans-Serif" font-size="10.00">asm/SSystem/SComponent</text>
<text text-anchor="start" x="843" y="-74.5" font-family="Helvetica,sans-Serif" font-size="10.00">/c_m3d_g_cyl/SetC__8cM3dGCyl</text>
<text text-anchor="middle" x="916" y="-63.5" font-family="Helvetica,sans-Serif" font-size="10.00">FRC4cXyz.s</text>
</a>
</g>
</g>
<!-- Node1&#45;&gt;Node8 -->
<g id="edge8" class="edge">
<title>Node1&#45;&gt;Node8</title>
<path fill="none" stroke="midnightblue" d="M839.43,-134.23C851.43,-125.42 867.17,-113.86 881.26,-103.51"/>
<polygon fill="midnightblue" stroke="midnightblue" points="883.34,-106.33 889.33,-97.59 879.19,-100.69 883.34,-106.33"/>
</g>
<!-- Node9 -->
<g id="node9" class="node">
<title>Node9</title>
<g id="a_node9"><a xlink:title=" ">
<polygon fill="white" stroke="#bfbfbf" points="1015.5,-62 1015.5,-92 1194.5,-92 1194.5,-62 1015.5,-62"/>
<text text-anchor="start" x="1023.5" y="-80" font-family="Helvetica,sans-Serif" font-size="10.00">asm/SSystem/SComponent</text>
<text text-anchor="middle" x="1105" y="-69" font-family="Helvetica,sans-Serif" font-size="10.00">/c_m3d_g_cyl/SetH__8cM3dGCylFf.s</text>
</a>
</g>
</g>
<!-- Node1&#45;&gt;Node9 -->
<g id="edge9" class="edge">
<title>Node1&#45;&gt;Node9</title>
<path fill="none" stroke="midnightblue" d="M876.65,-134.49C923.12,-122.99 989.01,-106.69 1038.08,-94.55"/>
<polygon fill="midnightblue" stroke="midnightblue" points="1039.11,-97.91 1047.97,-92.11 1037.42,-91.11 1039.11,-97.91"/>
</g>
<!-- Node10 -->
<g id="node10" class="node">
<title>Node10</title>
<g id="a_node10"><a xlink:title=" ">
<polygon fill="white" stroke="#bfbfbf" points="1212.5,-62 1212.5,-92 1391.5,-92 1391.5,-62 1212.5,-62"/>
<text text-anchor="start" x="1220.5" y="-80" font-family="Helvetica,sans-Serif" font-size="10.00">asm/SSystem/SComponent</text>
<text text-anchor="middle" x="1302" y="-69" font-family="Helvetica,sans-Serif" font-size="10.00">/c_m3d_g_cyl/SetR__8cM3dGCylFf.s</text>
</a>
</g>
</g>
<!-- Node1&#45;&gt;Node10 -->
<g id="edge10" class="edge">
<title>Node1&#45;&gt;Node10</title>
<path fill="none" stroke="midnightblue" d="M887.15,-141.12C963.97,-132.35 1093.42,-116.53 1204,-98 1211.32,-96.77 1218.93,-95.4 1226.53,-93.96"/>
<polygon fill="midnightblue" stroke="midnightblue" points="1227.33,-97.37 1236.49,-92.04 1226.01,-90.49 1227.33,-97.37"/>
</g>
<!-- Node11 -->
<g id="node11" class="node">
<title>Node11</title>
<g id="a_node11"><a xlink:title=" ">
<polygon fill="white" stroke="#bfbfbf" points="1410,-56.5 1410,-97.5 1574,-97.5 1574,-56.5 1410,-56.5"/>
<text text-anchor="start" x="1418" y="-85.5" font-family="Helvetica,sans-Serif" font-size="10.00">asm/SSystem/SComponent</text>
<text text-anchor="start" x="1418" y="-74.5" font-family="Helvetica,sans-Serif" font-size="10.00">/c_m3d_g_cyl/cross__8cM3dGCyl</text>
<text text-anchor="middle" x="1492" y="-63.5" font-family="Helvetica,sans-Serif" font-size="10.00">CFPC8cM3dGSphP4cXyz.s</text>
</a>
</g>
</g>
<!-- Node1&#45;&gt;Node11 -->
<g id="edge11" class="edge">
<title>Node1&#45;&gt;Node11</title>
<path fill="none" stroke="midnightblue" d="M887.43,-145.48C994.21,-140.07 1208.84,-126.67 1399.81,-98.08"/>
<polygon fill="midnightblue" stroke="midnightblue" points="1400.39,-101.54 1409.75,-96.58 1399.34,-94.61 1400.39,-101.54"/>
</g>
<!-- Node12 -->
<g id="node12" class="node">
<title>Node12</title>
<g id="a_node12"><a xlink:title=" ">
<polygon fill="white" stroke="#bfbfbf" points="1592,-56.5 1592,-97.5 1756,-97.5 1756,-56.5 1592,-56.5"/>
<text text-anchor="start" x="1600" y="-85.5" font-family="Helvetica,sans-Serif" font-size="10.00">asm/SSystem/SComponent</text>
<text text-anchor="start" x="1600" y="-74.5" font-family="Helvetica,sans-Serif" font-size="10.00">/c_m3d_g_cyl/cross__8cM3dGCyl</text>
<text text-anchor="middle" x="1674" y="-63.5" font-family="Helvetica,sans-Serif" font-size="10.00">CFPC8cM3dGCylP4cXyz.s</text>
</a>
</g>
</g>
<!-- Node1&#45;&gt;Node12 -->
<g id="edge12" class="edge">
<title>Node1&#45;&gt;Node12</title>
<path fill="none" stroke="midnightblue" d="M887.2,-147.44C1018.83,-144.62 1319.92,-134.56 1581.68,-98.08"/>
<polygon fill="midnightblue" stroke="midnightblue" points="1582.35,-101.52 1591.76,-96.65 1581.37,-94.58 1582.35,-101.52"/>
</g>
<!-- Node13 -->
<g id="node13" class="node">
<title>Node13</title>
<g id="a_node13"><a xlink:title=" ">
<polygon fill="white" stroke="#bfbfbf" points="1774.5,-56.5 1774.5,-97.5 1931.5,-97.5 1931.5,-56.5 1774.5,-56.5"/>
<text text-anchor="start" x="1782.5" y="-85.5" font-family="Helvetica,sans-Serif" font-size="10.00">asm/SSystem/SComponent</text>
<text text-anchor="start" x="1782.5" y="-74.5" font-family="Helvetica,sans-Serif" font-size="10.00">/c_m3d_g_cyl/calcMinMax</text>
<text text-anchor="middle" x="1853" y="-63.5" font-family="Helvetica,sans-Serif" font-size="10.00">__8cM3dGCylFP4cXyzP4cXyz.s</text>
</a>
</g>
</g>
<!-- Node1&#45;&gt;Node13 -->
<g id="edge13" class="edge">
<title>Node1&#45;&gt;Node13</title>
<path fill="none" stroke="midnightblue" d="M887.11,-148.82C1040.8,-148.71 1430.04,-143.65 1764.08,-97.98"/>
<polygon fill="midnightblue" stroke="midnightblue" points="1765.01,-101.39 1774.44,-96.55 1764.05,-94.45 1765.01,-101.39"/>
</g>
<!-- Node2&#45;&gt;Node3 -->
<g id="edge2" class="edge">
<title>Node2&#45;&gt;Node3</title>
<path fill="none" stroke="midnightblue" d="M67.33,-61.9C73.9,-51.96 82.74,-38.61 89.71,-28.07"/>
<polygon fill="midnightblue" stroke="midnightblue" points="92.65,-29.97 95.25,-19.69 86.81,-26.1 92.65,-29.97"/>
</g>
</g>
</svg>
