<?xml version="1.0" encoding="UTF-8" standalone="no"?>
<!DOCTYPE svg PUBLIC "-//W3C//DTD SVG 1.1//EN"
 "http://www.w3.org/Graphics/SVG/1.1/DTD/svg11.dtd">
<!-- Generated by graphviz version 2.47.0 (20210316.2052)
 -->
<!-- Title: libs/SSystem/SComponent/c_m3d_g_cps.cpp Pages: 1 -->
<svg width="1268pt" height="173pt"
 viewBox="0.00 0.00 1267.50 173.00" xmlns="http://www.w3.org/2000/svg" xmlns:xlink="http://www.w3.org/1999/xlink">
<g id="graph0" class="graph" transform="scale(1 1) rotate(0) translate(4 169)">
<title>libs/SSystem/SComponent/c_m3d_g_cps.cpp</title>
<polygon fill="white" stroke="transparent" points="-4,4 -4,-169 1263.5,-169 1263.5,4 -4,4"/>
<!-- Node1 -->
<g id="node1" class="node">
<title>Node1</title>
<g id="a_node1"><a xlink:title=" ">
<polygon fill="#bfbfbf" stroke="black" points="377.5,-134.5 377.5,-164.5 511.5,-164.5 511.5,-134.5 377.5,-134.5"/>
<text text-anchor="start" x="385.5" y="-152.5" font-family="Helvetica,sans-Serif" font-size="10.00">libs/SSystem/SComponent</text>
<text text-anchor="middle" x="444.5" y="-141.5" font-family="Helvetica,sans-Serif" font-size="10.00">/c_m3d_g_cps.cpp</text>
</a>
</g>
</g>
<!-- Node2 -->
<g id="node2" class="node">
<title>Node2</title>
<g id="a_node2"><a xlink:href="dol2asm_8h.html" target="_top" xlink:title=" ">
<polygon fill="white" stroke="black" points="0,-67.5 0,-86.5 61,-86.5 61,-67.5 0,-67.5"/>
<text text-anchor="middle" x="30.5" y="-74.5" font-family="Helvetica,sans-Serif" font-size="10.00">dol2asm.h</text>
</a>
</g>
</g>
<!-- Node1&#45;&gt;Node2 -->
<g id="edge1" class="edge">
<title>Node1&#45;&gt;Node2</title>
<path fill="none" stroke="midnightblue" d="M377.35,-145.01C302.49,-139.81 178.43,-127.28 75.5,-98 69.02,-96.16 62.27,-93.56 56.03,-90.84"/>
<polygon fill="midnightblue" stroke="midnightblue" points="57.3,-87.57 46.75,-86.56 54.37,-93.92 57.3,-87.57"/>
</g>
<!-- Node3 -->
<g id="node3" class="node">
<title>Node3</title>
<g id="a_node3"><a xlink:href="types_8h.html" target="_top" xlink:title=" ">
<polygon fill="white" stroke="black" points="92,-0.5 92,-19.5 173,-19.5 173,-0.5 92,-0.5"/>
<text text-anchor="middle" x="132.5" y="-7.5" font-family="Helvetica,sans-Serif" font-size="10.00">dolphin/types.h</text>
</a>
</g>
</g>
<!-- Node1&#45;&gt;Node3 -->
<g id="edge2" class="edge">
<title>Node1&#45;&gt;Node3</title>
<path fill="none" stroke="midnightblue" d="M377.24,-148.33C289.31,-146.51 142.46,-137.45 108.5,-98 91.37,-78.1 106.95,-46.97 119.76,-27.85"/>
<polygon fill="midnightblue" stroke="midnightblue" points="122.73,-29.7 125.67,-19.52 117.02,-25.65 122.73,-29.7"/>
</g>
<!-- Node4 -->
<g id="node4" class="node">
<title>Node4</title>
<g id="a_node4"><a xlink:href="c__m3d__g__cps_8h.html" target="_top" xlink:title=" ">
<polygon fill="white" stroke="black" points="117.5,-62 117.5,-92 233.5,-92 233.5,-62 117.5,-62"/>
<text text-anchor="start" x="125.5" y="-80" font-family="Helvetica,sans-Serif" font-size="10.00">SSystem/SComponent</text>
<text text-anchor="middle" x="175.5" y="-69" font-family="Helvetica,sans-Serif" font-size="10.00">/c_m3d_g_cps.h</text>
</a>
</g>
</g>
<!-- Node1&#45;&gt;Node4 -->
<g id="edge3" class="edge">
<title>Node1&#45;&gt;Node4</title>
<path fill="none" stroke="midnightblue" d="M385.1,-134.4C344.75,-124.63 290.26,-111.09 242.5,-98 238.89,-97.01 235.18,-95.97 231.45,-94.91"/>
<polygon fill="midnightblue" stroke="midnightblue" points="232.13,-91.46 221.56,-92.05 230.19,-98.18 232.13,-91.46"/>
</g>
<!-- Node5 -->
<g id="node5" class="node">
<title>Node5</title>
<g id="a_node5"><a xlink:title=" ">
<polygon fill="white" stroke="#bfbfbf" points="251,-62 251,-92 436,-92 436,-62 251,-62"/>
<text text-anchor="start" x="259" y="-80" font-family="Helvetica,sans-Serif" font-size="10.00">asm/SSystem/SComponent</text>
<text text-anchor="middle" x="343.5" y="-69" font-family="Helvetica,sans-Serif" font-size="10.00">/c_m3d_g_cps/__ct__8cM3dGCpsFv.s</text>
</a>
</g>
</g>
<!-- Node1&#45;&gt;Node5 -->
<g id="edge5" class="edge">
<title>Node1&#45;&gt;Node5</title>
<path fill="none" stroke="midnightblue" d="M424.06,-134.23C409.04,-123.75 388.44,-109.37 371.83,-97.78"/>
<polygon fill="midnightblue" stroke="midnightblue" points="373.77,-94.86 363.56,-92 369.76,-100.6 373.77,-94.86"/>
</g>
<!-- Node6 -->
<g id="node6" class="node">
<title>Node6</title>
<g id="a_node6"><a xlink:title=" ">
<polygon fill="white" stroke="#bfbfbf" points="454,-62 454,-92 639,-92 639,-62 454,-62"/>
<text text-anchor="start" x="462" y="-80" font-family="Helvetica,sans-Serif" font-size="10.00">asm/SSystem/SComponent</text>
<text text-anchor="middle" x="546.5" y="-69" font-family="Helvetica,sans-Serif" font-size="10.00">/c_m3d_g_cps/__dt__8cM3dGCpsFv.s</text>
</a>
</g>
</g>
<!-- Node1&#45;&gt;Node6 -->
<g id="edge6" class="edge">
<title>Node1&#45;&gt;Node6</title>
<path fill="none" stroke="midnightblue" d="M465.14,-134.23C480.31,-123.75 501.11,-109.37 517.89,-97.78"/>
<polygon fill="midnightblue" stroke="midnightblue" points="520,-100.57 526.24,-92 516.02,-94.81 520,-100.57"/>
</g>
<!-- Node7 -->
<g id="node7" class="node">
<title>Node7</title>
<g id="a_node7"><a xlink:title=" ">
<polygon fill="white" stroke="#bfbfbf" points="657,-56.5 657,-97.5 850,-97.5 850,-56.5 657,-56.5"/>
<text text-anchor="start" x="665" y="-85.5" font-family="Helvetica,sans-Serif" font-size="10.00">asm/SSystem/SComponent</text>
<text text-anchor="start" x="665" y="-74.5" font-family="Helvetica,sans-Serif" font-size="10.00">/c_m3d_g_cps/Set__8cM3dGCpsFRC4c</text>
<text text-anchor="middle" x="753.5" y="-63.5" font-family="Helvetica,sans-Serif" font-size="10.00">XyzRC4cXyzf.s</text>
</a>
</g>
</g>
<!-- Node1&#45;&gt;Node7 -->
<g id="edge7" class="edge">
<title>Node1&#45;&gt;Node7</title>
<path fill="none" stroke="midnightblue" d="M505.92,-134.49C549.4,-124.57 608.55,-111.07 658.14,-99.76"/>
<polygon fill="midnightblue" stroke="midnightblue" points="658.95,-103.16 667.92,-97.53 657.39,-96.34 658.95,-103.16"/>
</g>
<!-- Node8 -->
<g id="node8" class="node">
<title>Node8</title>
<g id="a_node8"><a xlink:title=" ">
<polygon fill="white" stroke="#bfbfbf" points="868,-56.5 868,-97.5 1061,-97.5 1061,-56.5 868,-56.5"/>
<text text-anchor="start" x="876" y="-85.5" font-family="Helvetica,sans-Serif" font-size="10.00">asm/SSystem/SComponent</text>
<text text-anchor="start" x="876" y="-74.5" font-family="Helvetica,sans-Serif" font-size="10.00">/c_m3d_g_cps/Set__8cM3dGCpsFRC9c</text>
<text text-anchor="middle" x="964.5" y="-63.5" font-family="Helvetica,sans-Serif" font-size="10.00">M3dGCpsS.s</text>
</a>
</g>
</g>
<!-- Node1&#45;&gt;Node8 -->
<g id="edge8" class="edge">
<title>Node1&#45;&gt;Node8</title>
<path fill="none" stroke="midnightblue" d="M511.54,-141.74C591.65,-133.35 729.98,-117.87 857.88,-98.21"/>
<polygon fill="midnightblue" stroke="midnightblue" points="858.51,-101.65 867.85,-96.66 857.43,-94.73 858.51,-101.65"/>
</g>
<!-- Node9 -->
<g id="node9" class="node">
<title>Node9</title>
<g id="a_node9"><a xlink:title=" ">
<polygon fill="white" stroke="#bfbfbf" points="1079.5,-56.5 1079.5,-97.5 1259.5,-97.5 1259.5,-56.5 1079.5,-56.5"/>
<text text-anchor="start" x="1087.5" y="-85.5" font-family="Helvetica,sans-Serif" font-size="10.00">asm/SSystem/SComponent</text>
<text text-anchor="start" x="1087.5" y="-74.5" font-family="Helvetica,sans-Serif" font-size="10.00">/c_m3d_g_cps/SetCps__8cM3dGCps</text>
<text text-anchor="middle" x="1169.5" y="-63.5" font-family="Helvetica,sans-Serif" font-size="10.00">FRC8cM3dGCps.s</text>
</a>
</g>
</g>
<!-- Node1&#45;&gt;Node9 -->
<g id="edge9" class="edge">
<title>Node1&#45;&gt;Node9</title>
<path fill="none" stroke="midnightblue" d="M511.95,-145.69C625.2,-140.4 860.82,-126.9 1069.55,-98.05"/>
<polygon fill="midnightblue" stroke="midnightblue" points="1070.05,-101.51 1079.47,-96.66 1069.08,-94.58 1070.05,-101.51"/>
</g>
<!-- Node4&#45;&gt;Node3 -->
<g id="edge4" class="edge">
<title>Node4&#45;&gt;Node3</title>
<path fill="none" stroke="midnightblue" d="M166.17,-61.9C159.6,-51.96 150.76,-38.61 143.79,-28.07"/>
<polygon fill="midnightblue" stroke="midnightblue" points="146.69,-26.1 138.25,-19.69 140.85,-29.97 146.69,-26.1"/>
</g>
</g>
</svg>
