<?xml version="1.0" encoding="UTF-8" standalone="no"?>
<!DOCTYPE svg PUBLIC "-//W3C//DTD SVG 1.1//EN"
 "http://www.w3.org/Graphics/SVG/1.1/DTD/svg11.dtd">
<!-- Generated by graphviz version 2.47.0 (20210316.2052)
 -->
<!-- Title: libs/SSystem/SComponent/c_m3d_g_pla.cpp Pages: 1 -->
<svg width="1553pt" height="173pt"
 viewBox="0.00 0.00 1553.00 173.00" xmlns="http://www.w3.org/2000/svg" xmlns:xlink="http://www.w3.org/1999/xlink">
<g id="graph0" class="graph" transform="scale(1 1) rotate(0) translate(4 169)">
<title>libs/SSystem/SComponent/c_m3d_g_pla.cpp</title>
<polygon fill="white" stroke="transparent" points="-4,4 -4,-169 1549,-169 1549,4 -4,4"/>
<!-- Node1 -->
<g id="node1" class="node">
<title>Node1</title>
<g id="a_node1"><a xlink:title=" ">
<polygon fill="#bfbfbf" stroke="black" points="572.5,-134.5 572.5,-164.5 706.5,-164.5 706.5,-134.5 572.5,-134.5"/>
<text text-anchor="start" x="580.5" y="-152.5" font-family="Helvetica,sans-Serif" font-size="10.00">libs/SSystem/SComponent</text>
<text text-anchor="middle" x="639.5" y="-141.5" font-family="Helvetica,sans-Serif" font-size="10.00">/c_m3d_g_pla.cpp</text>
</a>
</g>
</g>
<!-- Node2 -->
<g id="node2" class="node">
<title>Node2</title>
<g id="a_node2"><a xlink:href="dol2asm_8h.html" target="_top" xlink:title=" ">
<polygon fill="white" stroke="black" points="0,-67.5 0,-86.5 61,-86.5 61,-67.5 0,-67.5"/>
<text text-anchor="middle" x="30.5" y="-74.5" font-family="Helvetica,sans-Serif" font-size="10.00">dol2asm.h</text>
</a>
</g>
</g>
<!-- Node1&#45;&gt;Node2 -->
<g id="edge1" class="edge">
<title>Node1&#45;&gt;Node2</title>
<path fill="none" stroke="midnightblue" d="M572.03,-145.24C443.39,-138.55 167.69,-121.91 75.5,-98 68.87,-96.28 61.99,-93.68 55.66,-90.92"/>
<polygon fill="midnightblue" stroke="midnightblue" points="56.82,-87.6 46.28,-86.55 53.87,-93.95 56.82,-87.6"/>
</g>
<!-- Node3 -->
<g id="node3" class="node">
<title>Node3</title>
<g id="a_node3"><a xlink:href="types_8h.html" target="_top" xlink:title=" ">
<polygon fill="white" stroke="black" points="92,-0.5 92,-19.5 173,-19.5 173,-0.5 92,-0.5"/>
<text text-anchor="middle" x="132.5" y="-7.5" font-family="Helvetica,sans-Serif" font-size="10.00">dolphin/types.h</text>
</a>
</g>
</g>
<!-- Node1&#45;&gt;Node3 -->
<g id="edge2" class="edge">
<title>Node1&#45;&gt;Node3</title>
<path fill="none" stroke="midnightblue" d="M572.26,-147.05C436.33,-143.43 139.15,-131.7 108.5,-98 90.75,-78.49 106.72,-47.02 119.74,-27.75"/>
<polygon fill="midnightblue" stroke="midnightblue" points="122.59,-29.79 125.56,-19.61 116.9,-25.71 122.59,-29.79"/>
</g>
<!-- Node4 -->
<g id="node4" class="node">
<title>Node4</title>
<g id="a_node4"><a xlink:href="c__m3d__g__pla_8h.html" target="_top" xlink:title=" ">
<polygon fill="white" stroke="black" points="117.5,-62 117.5,-92 233.5,-92 233.5,-62 117.5,-62"/>
<text text-anchor="start" x="125.5" y="-80" font-family="Helvetica,sans-Serif" font-size="10.00">SSystem/SComponent</text>
<text text-anchor="middle" x="175.5" y="-69" font-family="Helvetica,sans-Serif" font-size="10.00">/c_m3d_g_pla.h</text>
</a>
</g>
</g>
<!-- Node1&#45;&gt;Node4 -->
<g id="edge3" class="edge">
<title>Node1&#45;&gt;Node4</title>
<path fill="none" stroke="midnightblue" d="M572.4,-143.22C493.2,-136.24 357.8,-121.94 243.5,-98 238.85,-97.03 234.06,-95.89 229.27,-94.67"/>
<polygon fill="midnightblue" stroke="midnightblue" points="230.07,-91.26 219.5,-92.05 228.25,-98.02 230.07,-91.26"/>
</g>
<!-- Node5 -->
<g id="node5" class="node">
<title>Node5</title>
<g id="a_node5"><a xlink:title=" ">
<polygon fill="white" stroke="#bfbfbf" points="252,-56.5 252,-97.5 413,-97.5 413,-56.5 252,-56.5"/>
<text text-anchor="start" x="260" y="-85.5" font-family="Helvetica,sans-Serif" font-size="10.00">asm/SSystem/SComponent</text>
<text text-anchor="start" x="260" y="-74.5" font-family="Helvetica,sans-Serif" font-size="10.00">/c_m3d_g_pla/__ct__8cM3dGPla</text>
<text text-anchor="middle" x="332.5" y="-63.5" font-family="Helvetica,sans-Serif" font-size="10.00">FPC4cXyzf.s</text>
</a>
</g>
</g>
<!-- Node1&#45;&gt;Node5 -->
<g id="edge5" class="edge">
<title>Node1&#45;&gt;Node5</title>
<path fill="none" stroke="midnightblue" d="M578.48,-134.49C534.05,-124.29 473.15,-110.3 423.06,-98.8"/>
<polygon fill="midnightblue" stroke="midnightblue" points="423.72,-95.36 413.19,-96.53 422.16,-102.18 423.72,-95.36"/>
</g>
<!-- Node6 -->
<g id="node6" class="node">
<title>Node6</title>
<g id="a_node6"><a xlink:title=" ">
<polygon fill="white" stroke="#bfbfbf" points="431,-56.5 431,-97.5 642,-97.5 642,-56.5 431,-56.5"/>
<text text-anchor="start" x="439" y="-85.5" font-family="Helvetica,sans-Serif" font-size="10.00">asm/SSystem/SComponent</text>
<text text-anchor="start" x="439" y="-74.5" font-family="Helvetica,sans-Serif" font-size="10.00">/c_m3d_g_pla/crossInfLin</text>
<text text-anchor="middle" x="536.5" y="-63.5" font-family="Helvetica,sans-Serif" font-size="10.00">__8cM3dGPlaCFRC4cXyzRC4cXyzR4cXyz.s</text>
</a>
</g>
</g>
<!-- Node1&#45;&gt;Node6 -->
<g id="edge6" class="edge">
<title>Node1&#45;&gt;Node6</title>
<path fill="none" stroke="midnightblue" d="M618.66,-134.23C605.78,-125.42 588.89,-113.86 573.77,-103.51"/>
<polygon fill="midnightblue" stroke="midnightblue" points="575.35,-100.35 565.12,-97.59 571.39,-106.12 575.35,-100.35"/>
</g>
<!-- Node7 -->
<g id="node7" class="node">
<title>Node7</title>
<g id="a_node7"><a xlink:title=" ">
<polygon fill="white" stroke="#bfbfbf" points="660.5,-56.5 660.5,-97.5 824.5,-97.5 824.5,-56.5 660.5,-56.5"/>
<text text-anchor="start" x="668.5" y="-85.5" font-family="Helvetica,sans-Serif" font-size="10.00">asm/SSystem/SComponent</text>
<text text-anchor="start" x="668.5" y="-74.5" font-family="Helvetica,sans-Serif" font-size="10.00">/c_m3d_g_pla/SetupNP0</text>
<text text-anchor="middle" x="742.5" y="-63.5" font-family="Helvetica,sans-Serif" font-size="10.00">__8cM3dGPlaFRC3VecRC3Vec.s</text>
</a>
</g>
</g>
<!-- Node1&#45;&gt;Node7 -->
<g id="edge7" class="edge">
<title>Node1&#45;&gt;Node7</title>
<path fill="none" stroke="midnightblue" d="M660.34,-134.23C673.22,-125.42 690.11,-113.86 705.23,-103.51"/>
<polygon fill="midnightblue" stroke="midnightblue" points="707.61,-106.12 713.88,-97.59 703.65,-100.35 707.61,-106.12"/>
</g>
<!-- Node8 -->
<g id="node8" class="node">
<title>Node8</title>
<g id="a_node8"><a xlink:title=" ">
<polygon fill="white" stroke="#bfbfbf" points="842.5,-56.5 842.5,-97.5 1000.5,-97.5 1000.5,-56.5 842.5,-56.5"/>
<text text-anchor="start" x="850.5" y="-85.5" font-family="Helvetica,sans-Serif" font-size="10.00">asm/SSystem/SComponent</text>
<text text-anchor="start" x="850.5" y="-74.5" font-family="Helvetica,sans-Serif" font-size="10.00">/c_m3d_g_pla/SetupNP_</text>
<text text-anchor="middle" x="921.5" y="-63.5" font-family="Helvetica,sans-Serif" font-size="10.00">_8cM3dGPlaFRC3VecRC3Vec.s</text>
</a>
</g>
</g>
<!-- Node1&#45;&gt;Node8 -->
<g id="edge8" class="edge">
<title>Node1&#45;&gt;Node8</title>
<path fill="none" stroke="midnightblue" d="M695.55,-134.49C734.98,-124.63 788.54,-111.24 833.62,-99.97"/>
<polygon fill="midnightblue" stroke="midnightblue" points="834.55,-103.35 843.4,-97.53 832.85,-96.56 834.55,-103.35"/>
</g>
<!-- Node9 -->
<g id="node9" class="node">
<title>Node9</title>
<g id="a_node9"><a xlink:title=" ">
<polygon fill="white" stroke="#bfbfbf" points="1018.5,-56.5 1018.5,-97.5 1166.5,-97.5 1166.5,-56.5 1018.5,-56.5"/>
<text text-anchor="start" x="1026.5" y="-85.5" font-family="Helvetica,sans-Serif" font-size="10.00">asm/SSystem/SComponent</text>
<text text-anchor="start" x="1026.5" y="-74.5" font-family="Helvetica,sans-Serif" font-size="10.00">/c_m3d_g_pla/getCrossY</text>
<text text-anchor="middle" x="1092.5" y="-63.5" font-family="Helvetica,sans-Serif" font-size="10.00">__8cM3dGPlaCFRC4cXyzPf.s</text>
</a>
</g>
</g>
<!-- Node1&#45;&gt;Node9 -->
<g id="edge9" class="edge">
<title>Node1&#45;&gt;Node9</title>
<path fill="none" stroke="midnightblue" d="M706.67,-141.39C778.88,-133.29 897.19,-118.68 1008.33,-98.13"/>
<polygon fill="midnightblue" stroke="midnightblue" points="1009.18,-101.53 1018.37,-96.25 1007.9,-94.65 1009.18,-101.53"/>
</g>
<!-- Node10 -->
<g id="node10" class="node">
<title>Node10</title>
<g id="a_node10"><a xlink:title=" ">
<polygon fill="white" stroke="#bfbfbf" points="1185,-56.5 1185,-97.5 1340,-97.5 1340,-56.5 1185,-56.5"/>
<text text-anchor="start" x="1193" y="-85.5" font-family="Helvetica,sans-Serif" font-size="10.00">asm/SSystem/SComponent</text>
<text text-anchor="start" x="1193" y="-74.5" font-family="Helvetica,sans-Serif" font-size="10.00">/c_m3d_g_pla/getCrossYLessD</text>
<text text-anchor="middle" x="1262.5" y="-63.5" font-family="Helvetica,sans-Serif" font-size="10.00">__8cM3dGPlaCFRC3VecPf.s</text>
</a>
</g>
</g>
<!-- Node1&#45;&gt;Node10 -->
<g id="edge10" class="edge">
<title>Node1&#45;&gt;Node10</title>
<path fill="none" stroke="midnightblue" d="M706.71,-145.02C806.66,-139.22 1000.46,-125.55 1174.69,-98.01"/>
<polygon fill="midnightblue" stroke="midnightblue" points="1175.49,-101.43 1184.81,-96.39 1174.38,-94.52 1175.49,-101.43"/>
</g>
<!-- Node11 -->
<g id="node11" class="node">
<title>Node11</title>
<g id="a_node11"><a xlink:title=" ">
<polygon fill="white" stroke="#bfbfbf" points="1358,-56.5 1358,-97.5 1545,-97.5 1545,-56.5 1358,-56.5"/>
<text text-anchor="start" x="1366" y="-85.5" font-family="Helvetica,sans-Serif" font-size="10.00">asm/SSystem/SComponent</text>
<text text-anchor="start" x="1366" y="-74.5" font-family="Helvetica,sans-Serif" font-size="10.00">/c_m3d_g_pla/Set__8cM3dGPlaFPC8c</text>
<text text-anchor="middle" x="1451.5" y="-63.5" font-family="Helvetica,sans-Serif" font-size="10.00">M3dGPla.s</text>
</a>
</g>
</g>
<!-- Node1&#45;&gt;Node11 -->
<g id="edge11" class="edge">
<title>Node1&#45;&gt;Node11</title>
<path fill="none" stroke="midnightblue" d="M706.83,-146.46C831.53,-142.08 1106.95,-129.61 1347.92,-98.13"/>
<polygon fill="midnightblue" stroke="midnightblue" points="1348.46,-101.59 1357.92,-96.81 1347.55,-94.65 1348.46,-101.59"/>
</g>
<!-- Node4&#45;&gt;Node3 -->
<g id="edge4" class="edge">
<title>Node4&#45;&gt;Node3</title>
<path fill="none" stroke="midnightblue" d="M166.17,-61.9C159.6,-51.96 150.76,-38.61 143.79,-28.07"/>
<polygon fill="midnightblue" stroke="midnightblue" points="146.69,-26.1 138.25,-19.69 140.85,-29.97 146.69,-26.1"/>
</g>
</g>
</svg>
