<?xml version="1.0" encoding="UTF-8" standalone="no"?>
<!DOCTYPE svg PUBLIC "-//W3C//DTD SVG 1.1//EN"
 "http://www.w3.org/Graphics/SVG/1.1/DTD/svg11.dtd">
<!-- Generated by graphviz version 2.47.0 (20210316.2052)
 -->
<!-- Title: libs/SSystem/SComponent/c_m3d_g_cps.cpp Pages: 1 -->
<svg width="1268pt" height="173pt"
 viewBox="0.00 0.00 1268.00 173.00" xmlns="http://www.w3.org/2000/svg" xmlns:xlink="http://www.w3.org/1999/xlink">
<g id="graph0" class="graph" transform="scale(1 1) rotate(0) translate(4 169)">
<title>libs/SSystem/SComponent/c_m3d_g_cps.cpp</title>
<polygon fill="white" stroke="transparent" points="-4,4 -4,-169 1264,-169 1264,4 -4,4"/>
<!-- Node1 -->
<g id="node1" class="node">
<title>Node1</title>
<g id="a_node1"><a xlink:title=" ">
<polygon fill="#bfbfbf" stroke="black" points="378,-134.5 378,-164.5 512,-164.5 512,-134.5 378,-134.5"/>
<text text-anchor="start" x="386" y="-152.5" font-family="Helvetica,sans-Serif" font-size="10.00">libs/SSystem/SComponent</text>
<text text-anchor="middle" x="445" y="-141.5" font-family="Helvetica,sans-Serif" font-size="10.00">/c_m3d_g_cps.cpp</text>
</a>
</g>
</g>
<!-- Node2 -->
<g id="node2" class="node">
<title>Node2</title>
<g id="a_node2"><a xlink:href="c__m3d__g__cps_8h.html" target="_top" xlink:title=" ">
<polygon fill="white" stroke="black" points="0,-62 0,-92 116,-92 116,-62 0,-62"/>
<text text-anchor="start" x="8" y="-80" font-family="Helvetica,sans-Serif" font-size="10.00">SSystem/SComponent</text>
<text text-anchor="middle" x="58" y="-69" font-family="Helvetica,sans-Serif" font-size="10.00">/c_m3d_g_cps.h</text>
</a>
</g>
</g>
<!-- Node1&#45;&gt;Node2 -->
<g id="edge1" class="edge">
<title>Node1&#45;&gt;Node2</title>
<path fill="none" stroke="midnightblue" d="M377.92,-139.96C313.87,-131.29 214.82,-116.52 130,-98 125.33,-96.98 120.52,-95.84 115.7,-94.64"/>
<polygon fill="midnightblue" stroke="midnightblue" points="116.39,-91.2 105.84,-92.09 114.65,-97.98 116.39,-91.2"/>
</g>
<!-- Node3 -->
<g id="node3" class="node">
<title>Node3</title>
<g id="a_node3"><a xlink:href="types_8h.html" target="_top" xlink:title=" ">
<polygon fill="white" stroke="black" points="60.5,-0.5 60.5,-19.5 141.5,-19.5 141.5,-0.5 60.5,-0.5"/>
<text text-anchor="middle" x="101" y="-7.5" font-family="Helvetica,sans-Serif" font-size="10.00">dolphin/types.h</text>
</a>
</g>
</g>
<!-- Node1&#45;&gt;Node3 -->
<g id="edge4" class="edge">
<title>Node1&#45;&gt;Node3</title>
<path fill="none" stroke="midnightblue" d="M377.82,-142.24C306.32,-134.58 198.78,-119.85 164,-98 150.04,-89.23 125.33,-51.1 111.36,-28.33"/>
<polygon fill="midnightblue" stroke="midnightblue" points="114.27,-26.38 106.1,-19.64 108.29,-30.01 114.27,-26.38"/>
</g>
<!-- Node4 -->
<g id="node4" class="node">
<title>Node4</title>
<g id="a_node4"><a xlink:href="dol2asm_8h.html" target="_top" xlink:title=" ">
<polygon fill="white" stroke="black" points="172.5,-67.5 172.5,-86.5 233.5,-86.5 233.5,-67.5 172.5,-67.5"/>
<text text-anchor="middle" x="203" y="-74.5" font-family="Helvetica,sans-Serif" font-size="10.00">dol2asm.h</text>
</a>
</g>
</g>
<!-- Node1&#45;&gt;Node4 -->
<g id="edge3" class="edge">
<title>Node1&#45;&gt;Node4</title>
<path fill="none" stroke="midnightblue" d="M377.94,-135.59C338.08,-126.97 286.9,-114.24 243,-98 237.85,-96.1 232.5,-93.72 227.44,-91.27"/>
<polygon fill="midnightblue" stroke="midnightblue" points="228.73,-88 218.23,-86.6 225.56,-94.24 228.73,-88"/>
</g>
<!-- Node5 -->
<g id="node5" class="node">
<title>Node5</title>
<g id="a_node5"><a xlink:title=" ">
<polygon fill="white" stroke="#bfbfbf" points="251.5,-62 251.5,-92 436.5,-92 436.5,-62 251.5,-62"/>
<text text-anchor="start" x="259.5" y="-80" font-family="Helvetica,sans-Serif" font-size="10.00">asm/SSystem/SComponent</text>
<text text-anchor="middle" x="344" y="-69" font-family="Helvetica,sans-Serif" font-size="10.00">/c_m3d_g_cps/__ct__8cM3dGCpsFv.s</text>
</a>
</g>
</g>
<!-- Node1&#45;&gt;Node5 -->
<g id="edge5" class="edge">
<title>Node1&#45;&gt;Node5</title>
<path fill="none" stroke="midnightblue" d="M424.56,-134.23C409.54,-123.75 388.94,-109.37 372.33,-97.78"/>
<polygon fill="midnightblue" stroke="midnightblue" points="374.27,-94.86 364.06,-92 370.26,-100.6 374.27,-94.86"/>
</g>
<!-- Node6 -->
<g id="node6" class="node">
<title>Node6</title>
<g id="a_node6"><a xlink:title=" ">
<polygon fill="white" stroke="#bfbfbf" points="454.5,-62 454.5,-92 639.5,-92 639.5,-62 454.5,-62"/>
<text text-anchor="start" x="462.5" y="-80" font-family="Helvetica,sans-Serif" font-size="10.00">asm/SSystem/SComponent</text>
<text text-anchor="middle" x="547" y="-69" font-family="Helvetica,sans-Serif" font-size="10.00">/c_m3d_g_cps/__dt__8cM3dGCpsFv.s</text>
</a>
</g>
</g>
<!-- Node1&#45;&gt;Node6 -->
<g id="edge6" class="edge">
<title>Node1&#45;&gt;Node6</title>
<path fill="none" stroke="midnightblue" d="M465.64,-134.23C480.81,-123.75 501.61,-109.37 518.39,-97.78"/>
<polygon fill="midnightblue" stroke="midnightblue" points="520.5,-100.57 526.74,-92 516.52,-94.81 520.5,-100.57"/>
</g>
<!-- Node7 -->
<g id="node7" class="node">
<title>Node7</title>
<g id="a_node7"><a xlink:title=" ">
<polygon fill="white" stroke="#bfbfbf" points="657.5,-56.5 657.5,-97.5 850.5,-97.5 850.5,-56.5 657.5,-56.5"/>
<text text-anchor="start" x="665.5" y="-85.5" font-family="Helvetica,sans-Serif" font-size="10.00">asm/SSystem/SComponent</text>
<text text-anchor="start" x="665.5" y="-74.5" font-family="Helvetica,sans-Serif" font-size="10.00">/c_m3d_g_cps/Set__8cM3dGCpsFRC4c</text>
<text text-anchor="middle" x="754" y="-63.5" font-family="Helvetica,sans-Serif" font-size="10.00">XyzRC4cXyzf.s</text>
</a>
</g>
</g>
<!-- Node1&#45;&gt;Node7 -->
<g id="edge7" class="edge">
<title>Node1&#45;&gt;Node7</title>
<path fill="none" stroke="midnightblue" d="M506.42,-134.49C549.9,-124.57 609.05,-111.07 658.64,-99.76"/>
<polygon fill="midnightblue" stroke="midnightblue" points="659.45,-103.16 668.42,-97.53 657.89,-96.34 659.45,-103.16"/>
</g>
<!-- Node8 -->
<g id="node8" class="node">
<title>Node8</title>
<g id="a_node8"><a xlink:title=" ">
<polygon fill="white" stroke="#bfbfbf" points="868.5,-56.5 868.5,-97.5 1061.5,-97.5 1061.5,-56.5 868.5,-56.5"/>
<text text-anchor="start" x="876.5" y="-85.5" font-family="Helvetica,sans-Serif" font-size="10.00">asm/SSystem/SComponent</text>
<text text-anchor="start" x="876.5" y="-74.5" font-family="Helvetica,sans-Serif" font-size="10.00">/c_m3d_g_cps/Set__8cM3dGCpsFRC9c</text>
<text text-anchor="middle" x="965" y="-63.5" font-family="Helvetica,sans-Serif" font-size="10.00">M3dGCpsS.s</text>
</a>
</g>
</g>
<!-- Node1&#45;&gt;Node8 -->
<g id="edge8" class="edge">
<title>Node1&#45;&gt;Node8</title>
<path fill="none" stroke="midnightblue" d="M512.04,-141.74C592.15,-133.35 730.48,-117.87 858.38,-98.21"/>
<polygon fill="midnightblue" stroke="midnightblue" points="859.01,-101.65 868.35,-96.66 857.93,-94.73 859.01,-101.65"/>
</g>
<!-- Node9 -->
<g id="node9" class="node">
<title>Node9</title>
<g id="a_node9"><a xlink:title=" ">
<polygon fill="white" stroke="#bfbfbf" points="1080,-56.5 1080,-97.5 1260,-97.5 1260,-56.5 1080,-56.5"/>
<text text-anchor="start" x="1088" y="-85.5" font-family="Helvetica,sans-Serif" font-size="10.00">asm/SSystem/SComponent</text>
<text text-anchor="start" x="1088" y="-74.5" font-family="Helvetica,sans-Serif" font-size="10.00">/c_m3d_g_cps/SetCps__8cM3dGCps</text>
<text text-anchor="middle" x="1170" y="-63.5" font-family="Helvetica,sans-Serif" font-size="10.00">FRC8cM3dGCps.s</text>
</a>
</g>
</g>
<!-- Node1&#45;&gt;Node9 -->
<g id="edge9" class="edge">
<title>Node1&#45;&gt;Node9</title>
<path fill="none" stroke="midnightblue" d="M512.45,-145.69C625.7,-140.4 861.32,-126.9 1070.05,-98.05"/>
<polygon fill="midnightblue" stroke="midnightblue" points="1070.55,-101.51 1079.97,-96.66 1069.58,-94.58 1070.55,-101.51"/>
</g>
<!-- Node2&#45;&gt;Node3 -->
<g id="edge2" class="edge">
<title>Node2&#45;&gt;Node3</title>
<path fill="none" stroke="midnightblue" d="M67.33,-61.9C73.9,-51.96 82.74,-38.61 89.71,-28.07"/>
<polygon fill="midnightblue" stroke="midnightblue" points="92.65,-29.97 95.25,-19.69 86.81,-26.1 92.65,-29.97"/>
</g>
</g>
</svg>
