<?xml version="1.0" encoding="UTF-8" standalone="no"?>
<!DOCTYPE svg PUBLIC "-//W3C//DTD SVG 1.1//EN"
 "http://www.w3.org/Graphics/SVG/1.1/DTD/svg11.dtd">
<!-- Generated by graphviz version 2.47.0 (20210316.2052)
 -->
<!-- Title: libs/SSystem/SComponent/c_m3d_g_pla.cpp Pages: 1 -->
<svg width="1553pt" height="173pt"
 viewBox="0.00 0.00 1552.50 173.00" xmlns="http://www.w3.org/2000/svg" xmlns:xlink="http://www.w3.org/1999/xlink">
<g id="graph0" class="graph" transform="scale(1 1) rotate(0) translate(4 169)">
<title>libs/SSystem/SComponent/c_m3d_g_pla.cpp</title>
<polygon fill="white" stroke="transparent" points="-4,4 -4,-169 1548.5,-169 1548.5,4 -4,4"/>
<!-- Node1 -->
<g id="node1" class="node">
<title>Node1</title>
<g id="a_node1"><a xlink:title=" ">
<polygon fill="#bfbfbf" stroke="black" points="572,-134.5 572,-164.5 706,-164.5 706,-134.5 572,-134.5"/>
<text text-anchor="start" x="580" y="-152.5" font-family="Helvetica,sans-Serif" font-size="10.00">libs/SSystem/SComponent</text>
<text text-anchor="middle" x="639" y="-141.5" font-family="Helvetica,sans-Serif" font-size="10.00">/c_m3d_g_pla.cpp</text>
</a>
</g>
</g>
<!-- Node2 -->
<g id="node2" class="node">
<title>Node2</title>
<g id="a_node2"><a xlink:href="c__m3d__g__pla_8h.html" target="_top" xlink:title=" ">
<polygon fill="white" stroke="black" points="0,-62 0,-92 116,-92 116,-62 0,-62"/>
<text text-anchor="start" x="8" y="-80" font-family="Helvetica,sans-Serif" font-size="10.00">SSystem/SComponent</text>
<text text-anchor="middle" x="58" y="-69" font-family="Helvetica,sans-Serif" font-size="10.00">/c_m3d_g_pla.h</text>
</a>
</g>
</g>
<!-- Node1&#45;&gt;Node2 -->
<g id="edge1" class="edge">
<title>Node1&#45;&gt;Node2</title>
<path fill="none" stroke="midnightblue" d="M571.78,-145.52C473.89,-140.34 286.68,-127.31 130,-98 124.87,-97.04 119.58,-95.89 114.3,-94.63"/>
<polygon fill="midnightblue" stroke="midnightblue" points="114.75,-91.14 104.2,-92.1 113.05,-97.93 114.75,-91.14"/>
</g>
<!-- Node3 -->
<g id="node3" class="node">
<title>Node3</title>
<g id="a_node3"><a xlink:href="types_8h.html" target="_top" xlink:title=" ">
<polygon fill="white" stroke="black" points="60.5,-0.5 60.5,-19.5 141.5,-19.5 141.5,-0.5 60.5,-0.5"/>
<text text-anchor="middle" x="101" y="-7.5" font-family="Helvetica,sans-Serif" font-size="10.00">dolphin/types.h</text>
</a>
</g>
</g>
<!-- Node1&#45;&gt;Node3 -->
<g id="edge4" class="edge">
<title>Node1&#45;&gt;Node3</title>
<path fill="none" stroke="midnightblue" d="M571.91,-148C457.8,-146.06 231.73,-137.23 164,-98 149.74,-89.74 125.14,-51.41 111.27,-28.48"/>
<polygon fill="midnightblue" stroke="midnightblue" points="114.18,-26.51 106.05,-19.72 108.17,-30.1 114.18,-26.51"/>
</g>
<!-- Node4 -->
<g id="node4" class="node">
<title>Node4</title>
<g id="a_node4"><a xlink:href="dol2asm_8h.html" target="_top" xlink:title=" ">
<polygon fill="white" stroke="black" points="172.5,-67.5 172.5,-86.5 233.5,-86.5 233.5,-67.5 172.5,-67.5"/>
<text text-anchor="middle" x="203" y="-74.5" font-family="Helvetica,sans-Serif" font-size="10.00">dol2asm.h</text>
</a>
</g>
</g>
<!-- Node1&#45;&gt;Node4 -->
<g id="edge3" class="edge">
<title>Node1&#45;&gt;Node4</title>
<path fill="none" stroke="midnightblue" d="M571.71,-146.78C491.75,-143.17 355.06,-132.08 243,-98 237.43,-96.31 231.69,-93.89 226.36,-91.31"/>
<polygon fill="midnightblue" stroke="midnightblue" points="227.82,-88.13 217.33,-86.64 224.6,-94.35 227.82,-88.13"/>
</g>
<!-- Node5 -->
<g id="node5" class="node">
<title>Node5</title>
<g id="a_node5"><a xlink:title=" ">
<polygon fill="white" stroke="#bfbfbf" points="251.5,-56.5 251.5,-97.5 412.5,-97.5 412.5,-56.5 251.5,-56.5"/>
<text text-anchor="start" x="259.5" y="-85.5" font-family="Helvetica,sans-Serif" font-size="10.00">asm/SSystem/SComponent</text>
<text text-anchor="start" x="259.5" y="-74.5" font-family="Helvetica,sans-Serif" font-size="10.00">/c_m3d_g_pla/__ct__8cM3dGPla</text>
<text text-anchor="middle" x="332" y="-63.5" font-family="Helvetica,sans-Serif" font-size="10.00">FPC4cXyzf.s</text>
</a>
</g>
</g>
<!-- Node1&#45;&gt;Node5 -->
<g id="edge5" class="edge">
<title>Node1&#45;&gt;Node5</title>
<path fill="none" stroke="midnightblue" d="M577.98,-134.49C533.55,-124.29 472.65,-110.3 422.56,-98.8"/>
<polygon fill="midnightblue" stroke="midnightblue" points="423.22,-95.36 412.69,-96.53 421.66,-102.18 423.22,-95.36"/>
</g>
<!-- Node6 -->
<g id="node6" class="node">
<title>Node6</title>
<g id="a_node6"><a xlink:title=" ">
<polygon fill="white" stroke="#bfbfbf" points="430.5,-56.5 430.5,-97.5 641.5,-97.5 641.5,-56.5 430.5,-56.5"/>
<text text-anchor="start" x="438.5" y="-85.5" font-family="Helvetica,sans-Serif" font-size="10.00">asm/SSystem/SComponent</text>
<text text-anchor="start" x="438.5" y="-74.5" font-family="Helvetica,sans-Serif" font-size="10.00">/c_m3d_g_pla/crossInfLin</text>
<text text-anchor="middle" x="536" y="-63.5" font-family="Helvetica,sans-Serif" font-size="10.00">__8cM3dGPlaCFRC4cXyzRC4cXyzR4cXyz.s</text>
</a>
</g>
</g>
<!-- Node1&#45;&gt;Node6 -->
<g id="edge6" class="edge">
<title>Node1&#45;&gt;Node6</title>
<path fill="none" stroke="midnightblue" d="M618.16,-134.23C605.28,-125.42 588.39,-113.86 573.27,-103.51"/>
<polygon fill="midnightblue" stroke="midnightblue" points="574.85,-100.35 564.62,-97.59 570.89,-106.12 574.85,-100.35"/>
</g>
<!-- Node7 -->
<g id="node7" class="node">
<title>Node7</title>
<g id="a_node7"><a xlink:title=" ">
<polygon fill="white" stroke="#bfbfbf" points="660,-56.5 660,-97.5 824,-97.5 824,-56.5 660,-56.5"/>
<text text-anchor="start" x="668" y="-85.5" font-family="Helvetica,sans-Serif" font-size="10.00">asm/SSystem/SComponent</text>
<text text-anchor="start" x="668" y="-74.5" font-family="Helvetica,sans-Serif" font-size="10.00">/c_m3d_g_pla/SetupNP0</text>
<text text-anchor="middle" x="742" y="-63.5" font-family="Helvetica,sans-Serif" font-size="10.00">__8cM3dGPlaFRC3VecRC3Vec.s</text>
</a>
</g>
</g>
<!-- Node1&#45;&gt;Node7 -->
<g id="edge7" class="edge">
<title>Node1&#45;&gt;Node7</title>
<path fill="none" stroke="midnightblue" d="M659.84,-134.23C672.72,-125.42 689.61,-113.86 704.73,-103.51"/>
<polygon fill="midnightblue" stroke="midnightblue" points="707.11,-106.12 713.38,-97.59 703.15,-100.35 707.11,-106.12"/>
</g>
<!-- Node8 -->
<g id="node8" class="node">
<title>Node8</title>
<g id="a_node8"><a xlink:title=" ">
<polygon fill="white" stroke="#bfbfbf" points="842,-56.5 842,-97.5 1000,-97.5 1000,-56.5 842,-56.5"/>
<text text-anchor="start" x="850" y="-85.5" font-family="Helvetica,sans-Serif" font-size="10.00">asm/SSystem/SComponent</text>
<text text-anchor="start" x="850" y="-74.5" font-family="Helvetica,sans-Serif" font-size="10.00">/c_m3d_g_pla/SetupNP_</text>
<text text-anchor="middle" x="921" y="-63.5" font-family="Helvetica,sans-Serif" font-size="10.00">_8cM3dGPlaFRC3VecRC3Vec.s</text>
</a>
</g>
</g>
<!-- Node1&#45;&gt;Node8 -->
<g id="edge8" class="edge">
<title>Node1&#45;&gt;Node8</title>
<path fill="none" stroke="midnightblue" d="M695.05,-134.49C734.48,-124.63 788.04,-111.24 833.12,-99.97"/>
<polygon fill="midnightblue" stroke="midnightblue" points="834.05,-103.35 842.9,-97.53 832.35,-96.56 834.05,-103.35"/>
</g>
<!-- Node9 -->
<g id="node9" class="node">
<title>Node9</title>
<g id="a_node9"><a xlink:title=" ">
<polygon fill="white" stroke="#bfbfbf" points="1018,-56.5 1018,-97.5 1166,-97.5 1166,-56.5 1018,-56.5"/>
<text text-anchor="start" x="1026" y="-85.5" font-family="Helvetica,sans-Serif" font-size="10.00">asm/SSystem/SComponent</text>
<text text-anchor="start" x="1026" y="-74.5" font-family="Helvetica,sans-Serif" font-size="10.00">/c_m3d_g_pla/getCrossY</text>
<text text-anchor="middle" x="1092" y="-63.5" font-family="Helvetica,sans-Serif" font-size="10.00">__8cM3dGPlaCFRC4cXyzPf.s</text>
</a>
</g>
</g>
<!-- Node1&#45;&gt;Node9 -->
<g id="edge9" class="edge">
<title>Node1&#45;&gt;Node9</title>
<path fill="none" stroke="midnightblue" d="M706.17,-141.39C778.38,-133.29 896.69,-118.68 1007.83,-98.13"/>
<polygon fill="midnightblue" stroke="midnightblue" points="1008.68,-101.53 1017.87,-96.25 1007.4,-94.65 1008.68,-101.53"/>
</g>
<!-- Node10 -->
<g id="node10" class="node">
<title>Node10</title>
<g id="a_node10"><a xlink:title=" ">
<polygon fill="white" stroke="#bfbfbf" points="1184.5,-56.5 1184.5,-97.5 1339.5,-97.5 1339.5,-56.5 1184.5,-56.5"/>
<text text-anchor="start" x="1192.5" y="-85.5" font-family="Helvetica,sans-Serif" font-size="10.00">asm/SSystem/SComponent</text>
<text text-anchor="start" x="1192.5" y="-74.5" font-family="Helvetica,sans-Serif" font-size="10.00">/c_m3d_g_pla/getCrossYLessD</text>
<text text-anchor="middle" x="1262" y="-63.5" font-family="Helvetica,sans-Serif" font-size="10.00">__8cM3dGPlaCFRC3VecPf.s</text>
</a>
</g>
</g>
<!-- Node1&#45;&gt;Node10 -->
<g id="edge10" class="edge">
<title>Node1&#45;&gt;Node10</title>
<path fill="none" stroke="midnightblue" d="M706.21,-145.02C806.16,-139.22 999.96,-125.55 1174.19,-98.01"/>
<polygon fill="midnightblue" stroke="midnightblue" points="1174.99,-101.43 1184.31,-96.39 1173.88,-94.52 1174.99,-101.43"/>
</g>
<!-- Node11 -->
<g id="node11" class="node">
<title>Node11</title>
<g id="a_node11"><a xlink:title=" ">
<polygon fill="white" stroke="#bfbfbf" points="1357.5,-56.5 1357.5,-97.5 1544.5,-97.5 1544.5,-56.5 1357.5,-56.5"/>
<text text-anchor="start" x="1365.5" y="-85.5" font-family="Helvetica,sans-Serif" font-size="10.00">asm/SSystem/SComponent</text>
<text text-anchor="start" x="1365.5" y="-74.5" font-family="Helvetica,sans-Serif" font-size="10.00">/c_m3d_g_pla/Set__8cM3dGPlaFPC8c</text>
<text text-anchor="middle" x="1451" y="-63.5" font-family="Helvetica,sans-Serif" font-size="10.00">M3dGPla.s</text>
</a>
</g>
</g>
<!-- Node1&#45;&gt;Node11 -->
<g id="edge11" class="edge">
<title>Node1&#45;&gt;Node11</title>
<path fill="none" stroke="midnightblue" d="M706.33,-146.46C831.03,-142.08 1106.45,-129.61 1347.42,-98.13"/>
<polygon fill="midnightblue" stroke="midnightblue" points="1347.96,-101.59 1357.42,-96.81 1347.05,-94.65 1347.96,-101.59"/>
</g>
<!-- Node2&#45;&gt;Node3 -->
<g id="edge2" class="edge">
<title>Node2&#45;&gt;Node3</title>
<path fill="none" stroke="midnightblue" d="M67.33,-61.9C73.9,-51.96 82.74,-38.61 89.71,-28.07"/>
<polygon fill="midnightblue" stroke="midnightblue" points="92.65,-29.97 95.25,-19.69 86.81,-26.1 92.65,-29.97"/>
</g>
</g>
</svg>
