<?xml version="1.0" encoding="UTF-8" standalone="no"?>
<!DOCTYPE svg PUBLIC "-//W3C//DTD SVG 1.1//EN"
 "http://www.w3.org/Graphics/SVG/1.1/DTD/svg11.dtd">
<!-- Generated by graphviz version 2.47.0 (20210316.2052)
 -->
<!-- Title: libs/SSystem/SComponent/c_node.cpp Pages: 1 -->
<!--zoomable 184 -->
<svg id="main" version="1.1" xmlns="http://www.w3.org/2000/svg" xmlns:xlink="http://www.w3.org/1999/xlink" xml:space="preserve" onload="init(evt)">
<style type="text/css"><![CDATA[
.edge:hover path { stroke: red; }
.edge:hover polygon { stroke: red; fill: red; }
]]></style>
<script type="text/javascript"><![CDATA[
var edges = document.getElementsByTagName('g');
if (edges && edges.length) {
  for (var i=0;i<edges.length;i++) {
    if (edges[i].id.substr(0,4)=='edge') {
      edges[i].setAttribute('class','edge');
    }
  }
}
]]></script>
        <defs>
                <circle id="rim" cx="0" cy="0" r="7"/>
                <circle id="rim2" cx="0" cy="0" r="3.5"/>
                <g id="zoomPlus">
                        <use xlink:href="#rim" fill="#404040">
                                <set attributeName="fill" to="#808080" begin="zoomplus.mouseover" end="zoomplus.mouseout"/>
                        </use>
                        <path d="M-4,0h8M0,-4v8" fill="none" stroke="white" stroke-width="1.5" pointer-events="none"/>
                </g>
                <g id="zoomMin">
                        <use xlink:href="#rim" fill="#404040">
                                <set attributeName="fill" to="#808080" begin="zoomminus.mouseover" end="zoomminus.mouseout"/>
                        </use>
                        <path d="M-4,0h8" fill="none" stroke="white" stroke-width="1.5" pointer-events="none"/>
                </g>
                <g id="dirArrow">
                        <path fill="none" stroke="white" stroke-width="1.5" d="M0,-3.0v7 M-2.5,-0.5L0,-3.0L2.5,-0.5"/>
                </g>
               <g id="resetDef">
                       <use xlink:href="#rim2" fill="#404040">
                               <set attributeName="fill" to="#808080" begin="reset.mouseover" end="reset.mouseout"/>
                       </use>
               </g>
        </defs>

<script type="text/javascript">
var viewWidth = 2374;
var viewHeight = 184;
var sectionId = 'dynsection-0';
</script>
<script xlink:href="svgpan.js"/>
<svg id="graph" class="graph">
<g id="viewport">
<title>libs/SSystem/SComponent/c_node.cpp</title>
<polygon fill="white" stroke="transparent" points="-4,4 -4,-180 2370,-180 2370,4 -4,4"/>
<!-- Node1 -->
<g id="node1" class="node">
<title>Node1</title>
<g id="a_node1"><a xlink:title=" ">
<polygon fill="#bfbfbf" stroke="black" points="1008.5,-145.5 1008.5,-175.5 1142.5,-175.5 1142.5,-145.5 1008.5,-145.5"/>
<text text-anchor="start" x="1016.5" y="-163.5" font-family="Helvetica,sans-Serif" font-size="10.00">libs/SSystem/SComponent</text>
<text text-anchor="middle" x="1075.5" y="-152.5" font-family="Helvetica,sans-Serif" font-size="10.00">/c_node.cpp</text>
</a>
</g>
</g>
<!-- Node2 -->
<g id="node2" class="node">
<title>Node2</title>
<g id="a_node2"><a xlink:href="dol2asm_8h.html" target="_top" xlink:title=" ">
<polygon fill="white" stroke="black" points="0,-73 0,-92 61,-92 61,-73 0,-73"/>
<text text-anchor="middle" x="30.5" y="-80" font-family="Helvetica,sans-Serif" font-size="10.00">dol2asm.h</text>
</a>
</g>
</g>
<!-- Node1&#45;&gt;Node2 -->
<g id="edge1" class="edge">
<title>Node1&#45;&gt;Node2</title>
<path fill="none" stroke="midnightblue" d="M1008.26,-160.13C813.4,-161.3 251.08,-160.06 75.5,-109 66.89,-106.5 58.15,-102.07 50.69,-97.59"/>
<polygon fill="midnightblue" stroke="midnightblue" points="52.35,-94.5 42.04,-92.05 48.57,-100.39 52.35,-94.5"/>
</g>
<!-- Node3 -->
<g id="node3" class="node">
<title>Node3</title>
<g id="a_node3"><a xlink:href="types_8h.html" target="_top" xlink:title=" ">
<polygon fill="white" stroke="black" points="92,-0.5 92,-19.5 173,-19.5 173,-0.5 92,-0.5"/>
<text text-anchor="middle" x="132.5" y="-7.5" font-family="Helvetica,sans-Serif" font-size="10.00">dolphin/types.h</text>
</a>
</g>
</g>
<!-- Node1&#45;&gt;Node3 -->
<g id="edge2" class="edge">
<title>Node1&#45;&gt;Node3</title>
<path fill="none" stroke="midnightblue" d="M1008.46,-158.5C794.39,-154.99 139.46,-141.62 108.5,-109 87.6,-86.98 106.01,-49.84 120.07,-28.16"/>
<polygon fill="midnightblue" stroke="midnightblue" points="123.14,-29.88 125.89,-19.65 117.36,-25.93 123.14,-29.88"/>
</g>
<!-- Node4 -->
<g id="node4" class="node">
<title>Node4</title>
<g id="a_node4"><a xlink:href="c__node_8h.html" target="_top" xlink:title=" ">
<polygon fill="white" stroke="black" points="117.5,-67.5 117.5,-97.5 233.5,-97.5 233.5,-67.5 117.5,-67.5"/>
<text text-anchor="start" x="125.5" y="-85.5" font-family="Helvetica,sans-Serif" font-size="10.00">SSystem/SComponent</text>
<text text-anchor="middle" x="175.5" y="-74.5" font-family="Helvetica,sans-Serif" font-size="10.00">/c_node.h</text>
</a>
</g>
</g>
<!-- Node1&#45;&gt;Node4 -->
<g id="edge3" class="edge">
<title>Node1&#45;&gt;Node4</title>
<path fill="none" stroke="midnightblue" d="M1008.35,-158.05C837.23,-153.92 388.12,-140.36 242.5,-109 233.75,-107.12 224.63,-104.28 216.03,-101.17"/>
<polygon fill="midnightblue" stroke="midnightblue" points="217.19,-97.87 206.6,-97.58 214.7,-104.41 217.19,-97.87"/>
</g>
<!-- Node5 -->
<g id="node5" class="node">
<title>Node5</title>
<g id="a_node5"><a xlink:title=" ">
<polygon fill="white" stroke="#bfbfbf" points="251.5,-62 251.5,-103 401.5,-103 401.5,-62 251.5,-62"/>
<text text-anchor="start" x="259.5" y="-91" font-family="Helvetica,sans-Serif" font-size="10.00">asm/SSystem/SComponent</text>
<text text-anchor="start" x="259.5" y="-80" font-family="Helvetica,sans-Serif" font-size="10.00">/c_node/cNd_Join__FP10node</text>
<text text-anchor="middle" x="326.5" y="-69" font-family="Helvetica,sans-Serif" font-size="10.00">_classP10node_class.s</text>
</a>
</g>
</g>
<!-- Node1&#45;&gt;Node5 -->
<g id="edge5" class="edge">
<title>Node1&#45;&gt;Node5</title>
<path fill="none" stroke="midnightblue" d="M1008.44,-159.15C887.93,-157.48 627.18,-149.07 411.5,-109 406.42,-108.06 401.22,-106.92 396.01,-105.67"/>
<polygon fill="midnightblue" stroke="midnightblue" points="396.56,-102.2 386.01,-103.11 394.83,-108.98 396.56,-102.2"/>
</g>
<!-- Node6 -->
<g id="node6" class="node">
<title>Node6</title>
<g id="a_node6"><a xlink:title=" ">
<polygon fill="white" stroke="#bfbfbf" points="420,-62 420,-103 557,-103 557,-62 420,-62"/>
<text text-anchor="start" x="428" y="-91" font-family="Helvetica,sans-Serif" font-size="10.00">asm/SSystem/SComponent</text>
<text text-anchor="start" x="428" y="-80" font-family="Helvetica,sans-Serif" font-size="10.00">/c_node/cNd_LengthOf_</text>
<text text-anchor="middle" x="488.5" y="-69" font-family="Helvetica,sans-Serif" font-size="10.00">_FP10node_class.s</text>
</a>
</g>
</g>
<!-- Node1&#45;&gt;Node6 -->
<g id="edge6" class="edge">
<title>Node1&#45;&gt;Node6</title>
<path fill="none" stroke="midnightblue" d="M1008.09,-157.46C909.97,-153.45 722.48,-141.83 566.5,-109 562.15,-108.08 557.7,-107.01 553.24,-105.84"/>
<polygon fill="midnightblue" stroke="midnightblue" points="554.06,-102.43 543.49,-103.12 552.18,-109.18 554.06,-102.43"/>
</g>
<!-- Node7 -->
<g id="node7" class="node">
<title>Node7</title>
<g id="a_node7"><a xlink:title=" ">
<polygon fill="white" stroke="#bfbfbf" points="575.5,-62 575.5,-103 727.5,-103 727.5,-62 575.5,-62"/>
<text text-anchor="start" x="583.5" y="-91" font-family="Helvetica,sans-Serif" font-size="10.00">asm/SSystem/SComponent</text>
<text text-anchor="start" x="583.5" y="-80" font-family="Helvetica,sans-Serif" font-size="10.00">/c_node/cNd_First__FP10node</text>
<text text-anchor="middle" x="651.5" y="-69" font-family="Helvetica,sans-Serif" font-size="10.00">_class.s</text>
</a>
</g>
</g>
<!-- Node1&#45;&gt;Node7 -->
<g id="edge7" class="edge">
<title>Node1&#45;&gt;Node7</title>
<path fill="none" stroke="midnightblue" d="M1008.4,-152.39C939.63,-144.42 829.85,-129.84 736.5,-109 732.07,-108.01 727.53,-106.91 722.96,-105.74"/>
<polygon fill="midnightblue" stroke="midnightblue" points="723.54,-102.27 712.97,-103.07 721.73,-109.03 723.54,-102.27"/>
</g>
<!-- Node8 -->
<g id="node8" class="node">
<title>Node8</title>
<g id="a_node8"><a xlink:title=" ">
<polygon fill="white" stroke="#bfbfbf" points="745.5,-62 745.5,-103 897.5,-103 897.5,-62 745.5,-62"/>
<text text-anchor="start" x="753.5" y="-91" font-family="Helvetica,sans-Serif" font-size="10.00">asm/SSystem/SComponent</text>
<text text-anchor="start" x="753.5" y="-80" font-family="Helvetica,sans-Serif" font-size="10.00">/c_node/cNd_Last__FP10node</text>
<text text-anchor="middle" x="821.5" y="-69" font-family="Helvetica,sans-Serif" font-size="10.00">_class.s</text>
</a>
</g>
</g>
<!-- Node1&#45;&gt;Node8 -->
<g id="edge8" class="edge">
<title>Node1&#45;&gt;Node8</title>
<path fill="none" stroke="midnightblue" d="M1028.51,-145.47C994.6,-135.35 947.72,-121.34 906.5,-109 903.33,-108.05 900.09,-107.08 896.81,-106.1"/>
<polygon fill="midnightblue" stroke="midnightblue" points="897.51,-102.66 886.93,-103.14 895.5,-109.36 897.51,-102.66"/>
</g>
<!-- Node9 -->
<g id="node9" class="node">
<title>Node9</title>
<g id="a_node9"><a xlink:title=" ">
<polygon fill="white" stroke="#bfbfbf" points="915.5,-62 915.5,-103 1071.5,-103 1071.5,-62 915.5,-62"/>
<text text-anchor="start" x="923.5" y="-91" font-family="Helvetica,sans-Serif" font-size="10.00">asm/SSystem/SComponent</text>
<text text-anchor="start" x="923.5" y="-80" font-family="Helvetica,sans-Serif" font-size="10.00">/c_node/cNd_Order__FP10node</text>
<text text-anchor="middle" x="993.5" y="-69" font-family="Helvetica,sans-Serif" font-size="10.00">_classi.s</text>
</a>
</g>
</g>
<!-- Node1&#45;&gt;Node9 -->
<g id="edge9" class="edge">
<title>Node1&#45;&gt;Node9</title>
<path fill="none" stroke="midnightblue" d="M1060.08,-145.2C1049.47,-135.38 1035.07,-122.03 1022.37,-110.26"/>
<polygon fill="midnightblue" stroke="midnightblue" points="1024.45,-107.41 1014.73,-103.18 1019.69,-112.54 1024.45,-107.41"/>
</g>
<!-- Node10 -->
<g id="node10" class="node">
<title>Node10</title>
<g id="a_node10"><a xlink:title=" ">
<polygon fill="white" stroke="#bfbfbf" points="1090,-62 1090,-103 1227,-103 1227,-62 1090,-62"/>
<text text-anchor="start" x="1098" y="-91" font-family="Helvetica,sans-Serif" font-size="10.00">asm/SSystem/SComponent</text>
<text text-anchor="start" x="1098" y="-80" font-family="Helvetica,sans-Serif" font-size="10.00">/c_node/cNd_SingleCut</text>
<text text-anchor="middle" x="1158.5" y="-69" font-family="Helvetica,sans-Serif" font-size="10.00">__FP10node_class.s</text>
</a>
</g>
</g>
<!-- Node1&#45;&gt;Node10 -->
<g id="edge10" class="edge">
<title>Node1&#45;&gt;Node10</title>
<path fill="none" stroke="midnightblue" d="M1091.11,-145.2C1101.84,-135.38 1116.42,-122.03 1129.28,-110.26"/>
<polygon fill="midnightblue" stroke="midnightblue" points="1132,-112.51 1137.01,-103.18 1127.27,-107.35 1132,-112.51"/>
</g>
<!-- Node11 -->
<g id="node11" class="node">
<title>Node11</title>
<g id="a_node11"><a xlink:title=" ">
<polygon fill="white" stroke="#bfbfbf" points="1245,-62 1245,-103 1392,-103 1392,-62 1245,-62"/>
<text text-anchor="start" x="1253" y="-91" font-family="Helvetica,sans-Serif" font-size="10.00">asm/SSystem/SComponent</text>
<text text-anchor="start" x="1253" y="-80" font-family="Helvetica,sans-Serif" font-size="10.00">/c_node/cNd_Cut__FP10node</text>
<text text-anchor="middle" x="1318.5" y="-69" font-family="Helvetica,sans-Serif" font-size="10.00">_class.s</text>
</a>
</g>
</g>
<!-- Node1&#45;&gt;Node11 -->
<g id="edge11" class="edge">
<title>Node1&#45;&gt;Node11</title>
<path fill="none" stroke="midnightblue" d="M1120.35,-145.47C1155.65,-134.43 1205.53,-118.83 1246.41,-106.05"/>
<polygon fill="midnightblue" stroke="midnightblue" points="1247.56,-109.36 1256.06,-103.03 1245.47,-102.67 1247.56,-109.36"/>
</g>
<!-- Node12 -->
<g id="node12" class="node">
<title>Node12</title>
<g id="a_node12"><a xlink:title=" ">
<polygon fill="white" stroke="#bfbfbf" points="1410,-56.5 1410,-108.5 1547,-108.5 1547,-56.5 1410,-56.5"/>
<text text-anchor="start" x="1418" y="-96.5" font-family="Helvetica,sans-Serif" font-size="10.00">asm/SSystem/SComponent</text>
<text text-anchor="start" x="1418" y="-85.5" font-family="Helvetica,sans-Serif" font-size="10.00">/c_node/cNd_Addition_</text>
<text text-anchor="start" x="1418" y="-74.5" font-family="Helvetica,sans-Serif" font-size="10.00">_FP10node_classP10node</text>
<text text-anchor="middle" x="1478.5" y="-63.5" font-family="Helvetica,sans-Serif" font-size="10.00">_class.s</text>
</a>
</g>
</g>
<!-- Node1&#45;&gt;Node12 -->
<g id="edge12" class="edge">
<title>Node1&#45;&gt;Node12</title>
<path fill="none" stroke="midnightblue" d="M1142.63,-152.41C1206.72,-144.89 1306.04,-131.29 1399.88,-109.25"/>
<polygon fill="midnightblue" stroke="midnightblue" points="1400.9,-112.6 1409.82,-106.87 1399.28,-105.79 1400.9,-112.6"/>
</g>
<!-- Node13 -->
<g id="node13" class="node">
<title>Node13</title>
<g id="a_node13"><a xlink:title=" ">
<polygon fill="white" stroke="#bfbfbf" points="1565,-62 1565,-103 1722,-103 1722,-62 1565,-62"/>
<text text-anchor="start" x="1573" y="-91" font-family="Helvetica,sans-Serif" font-size="10.00">asm/SSystem/SComponent</text>
<text text-anchor="start" x="1573" y="-80" font-family="Helvetica,sans-Serif" font-size="10.00">/c_node/cNd_Insert__FP10node</text>
<text text-anchor="middle" x="1643.5" y="-69" font-family="Helvetica,sans-Serif" font-size="10.00">_classP10node_class.s</text>
</a>
</g>
</g>
<!-- Node1&#45;&gt;Node13 -->
<g id="edge13" class="edge">
<title>Node1&#45;&gt;Node13</title>
<path fill="none" stroke="midnightblue" d="M1142.59,-156.28C1236.08,-150.94 1410.49,-137.82 1556.5,-109 1561.58,-108 1566.79,-106.83 1572.02,-105.56"/>
<polygon fill="midnightblue" stroke="midnightblue" points="1573.23,-108.86 1582.06,-103 1571.5,-102.08 1573.23,-108.86"/>
</g>
<!-- Node14 -->
<g id="node14" class="node">
<title>Node14</title>
<g id="a_node14"><a xlink:title=" ">
<polygon fill="white" stroke="#bfbfbf" points="1740,-62 1740,-103 1877,-103 1877,-62 1740,-62"/>
<text text-anchor="start" x="1748" y="-91" font-family="Helvetica,sans-Serif" font-size="10.00">asm/SSystem/SComponent</text>
<text text-anchor="start" x="1748" y="-80" font-family="Helvetica,sans-Serif" font-size="10.00">/c_node/cNd_SetObject</text>
<text text-anchor="middle" x="1808.5" y="-69" font-family="Helvetica,sans-Serif" font-size="10.00">__FP10node_classPv.s</text>
</a>
</g>
</g>
<!-- Node1&#45;&gt;Node14 -->
<g id="edge14" class="edge">
<title>Node1&#45;&gt;Node14</title>
<path fill="none" stroke="midnightblue" d="M1142.81,-159.68C1262.47,-158.81 1519.56,-151.59 1731.5,-109 1735.97,-108.1 1740.54,-107.02 1745.11,-105.82"/>
<polygon fill="midnightblue" stroke="midnightblue" points="1746.41,-109.09 1755.1,-103.03 1744.52,-102.35 1746.41,-109.09"/>
</g>
<!-- Node15 -->
<g id="node15" class="node">
<title>Node15</title>
<g id="a_node15"><a xlink:title=" ">
<polygon fill="white" stroke="#bfbfbf" points="1895,-62 1895,-103 2032,-103 2032,-62 1895,-62"/>
<text text-anchor="start" x="1903" y="-91" font-family="Helvetica,sans-Serif" font-size="10.00">asm/SSystem/SComponent</text>
<text text-anchor="start" x="1903" y="-80" font-family="Helvetica,sans-Serif" font-size="10.00">/c_node/cNd_ClearObject</text>
<text text-anchor="middle" x="1963.5" y="-69" font-family="Helvetica,sans-Serif" font-size="10.00">__FP10node_class.s</text>
</a>
</g>
</g>
<!-- Node1&#45;&gt;Node15 -->
<g id="edge15" class="edge">
<title>Node1&#45;&gt;Node15</title>
<path fill="none" stroke="midnightblue" d="M1142.64,-157.54C1310.41,-152.3 1744.62,-136.43 1886.5,-109 1891.18,-108.1 1895.97,-106.98 1900.75,-105.74"/>
<polygon fill="midnightblue" stroke="midnightblue" points="1901.85,-109.07 1910.54,-103.01 1899.97,-102.32 1901.85,-109.07"/>
</g>
<!-- Node16 -->
<g id="node16" class="node">
<title>Node16</title>
<g id="a_node16"><a xlink:title=" ">
<polygon fill="white" stroke="#bfbfbf" points="2050,-62 2050,-103 2187,-103 2187,-62 2050,-62"/>
<text text-anchor="start" x="2058" y="-91" font-family="Helvetica,sans-Serif" font-size="10.00">asm/SSystem/SComponent</text>
<text text-anchor="start" x="2058" y="-80" font-family="Helvetica,sans-Serif" font-size="10.00">/c_node/cNd_ForcedClear</text>
<text text-anchor="middle" x="2118.5" y="-69" font-family="Helvetica,sans-Serif" font-size="10.00">__FP10node_class.s</text>
</a>
</g>
</g>
<!-- Node1&#45;&gt;Node16 -->
<g id="edge16" class="edge">
<title>Node1&#45;&gt;Node16</title>
<path fill="none" stroke="midnightblue" d="M1142.76,-158.32C1332.39,-154.62 1868.72,-141.52 2041.5,-109 2046.18,-108.12 2050.97,-107.02 2055.76,-105.79"/>
<polygon fill="midnightblue" stroke="midnightblue" points="2056.85,-109.12 2065.55,-103.08 2054.98,-102.37 2056.85,-109.12"/>
</g>
<!-- Node17 -->
<g id="node17" class="node">
<title>Node17</title>
<g id="a_node17"><a xlink:title=" ">
<polygon fill="white" stroke="#bfbfbf" points="2205,-62 2205,-103 2366,-103 2366,-62 2205,-62"/>
<text text-anchor="start" x="2213" y="-91" font-family="Helvetica,sans-Serif" font-size="10.00">asm/SSystem/SComponent</text>
<text text-anchor="start" x="2213" y="-80" font-family="Helvetica,sans-Serif" font-size="10.00">/c_node/cNd_Create__FP10node</text>
<text text-anchor="middle" x="2285.5" y="-69" font-family="Helvetica,sans-Serif" font-size="10.00">_classPv.s</text>
</a>
</g>
</g>
<!-- Node1&#45;&gt;Node17 -->
<g id="edge17" class="edge">
<title>Node1&#45;&gt;Node17</title>
<path fill="none" stroke="midnightblue" d="M1142.79,-158.53C1352.42,-155.19 1991.86,-142.45 2196.5,-109 2202.29,-108.05 2208.24,-106.86 2214.19,-105.5"/>
<polygon fill="midnightblue" stroke="midnightblue" points="2215.27,-108.84 2224.16,-103.09 2213.62,-102.04 2215.27,-108.84"/>
</g>
<!-- Node4&#45;&gt;Node3 -->
<g id="edge4" class="edge">
<title>Node4&#45;&gt;Node3</title>
<path fill="none" stroke="midnightblue" d="M166.8,-67.23C159.98,-56.06 150.47,-40.46 143.19,-28.52"/>
<polygon fill="midnightblue" stroke="midnightblue" points="146.12,-26.61 137.92,-19.89 140.14,-30.25 146.12,-26.61"/>
</g>
</g>
</svg>
        <g id="navigator" transform="translate(0 0)" fill="#404254">
                <rect fill="#f2f5e9" fill-opacity="0.5" stroke="#606060" stroke-width=".5" x="0" y="0" width="60" height="60"/>
                <use id="zoomplus" xlink:href="#zoomPlus" x="17" y="9" onmousedown="handleZoom(evt,'in')"/>
                <use id="zoomminus" xlink:href="#zoomMin" x="42" y="9" onmousedown="handleZoom(evt,'out')"/>
                <use id="reset" xlink:href="#resetDef" x="30" y="36" onmousedown="handleReset()"/>
                <g id="arrowUp" xlink:href="#dirArrow" transform="translate(30 24)" onmousedown="handlePan(0,-1)">
                  <use xlink:href="#rim" fill="#404040">
                        <set attributeName="fill" to="#808080" begin="arrowUp.mouseover" end="arrowUp.mouseout"/>
                  </use>
                  <path fill="none" stroke="white" stroke-width="1.5" d="M0,-3.0v7 M-2.5,-0.5L0,-3.0L2.5,-0.5"/>
                </g>
                <g id="arrowRight" xlink:href="#dirArrow" transform="rotate(90) translate(36 -43)" onmousedown="handlePan(1,0)">
                  <use xlink:href="#rim" fill="#404040">
                        <set attributeName="fill" to="#808080" begin="arrowRight.mouseover" end="arrowRight.mouseout"/>
                  </use>
                  <path fill="none" stroke="white" stroke-width="1.5" d="M0,-3.0v7 M-2.5,-0.5L0,-3.0L2.5,-0.5"/>
                </g>
                <g id="arrowDown" xlink:href="#dirArrow" transform="rotate(180) translate(-30 -48)" onmousedown="handlePan(0,1)">
                  <use xlink:href="#rim" fill="#404040">
                        <set attributeName="fill" to="#808080" begin="arrowDown.mouseover" end="arrowDown.mouseout"/>
                  </use>
                  <path fill="none" stroke="white" stroke-width="1.5" d="M0,-3.0v7 M-2.5,-0.5L0,-3.0L2.5,-0.5"/>
                </g>
                <g id="arrowLeft" xlink:href="#dirArrow" transform="rotate(270) translate(-36 17)" onmousedown="handlePan(-1,0)">
                  <use xlink:href="#rim" fill="#404040">
                        <set attributeName="fill" to="#808080" begin="arrowLeft.mouseover" end="arrowLeft.mouseout"/>
                  </use>
                  <path fill="none" stroke="white" stroke-width="1.5" d="M0,-3.0v7 M-2.5,-0.5L0,-3.0L2.5,-0.5"/>
                </g>
        </g>
        <svg viewBox="0 0 15 15" width="100%" height="30px" preserveAspectRatio="xMaxYMin meet">
         <g id="arrow_out" transform="scale(0.3 0.3)">
          <a xlink:href="c__node_8cpp__incl_org.svg" target="_base">
           <rect id="button" ry="5" rx="5" y="6" x="6" height="38" width="38"
                fill="#f2f5e9" fill-opacity="0.5" stroke="#606060" stroke-width="1.0"/>
           <path id="arrow"
             d="M 11.500037,31.436501 C 11.940474,20.09759 22.043105,11.32322 32.158766,21.979434 L 37.068811,17.246167 C 37.068811,17.246167 37.088388,32 37.088388,32 L 22.160133,31.978069 C 22.160133,31.978069 26.997745,27.140456 26.997745,27.140456 C 18.528582,18.264221 13.291696,25.230495 11.500037,31.436501 z"
             style="fill:#404040;"/>
          </a>
         </g>
        </svg>
</svg>
