<?xml version="1.0" encoding="UTF-8" standalone="no"?>
<!DOCTYPE svg PUBLIC "-//W3C//DTD SVG 1.1//EN"
 "http://www.w3.org/Graphics/SVG/1.1/DTD/svg11.dtd">
<!-- Generated by graphviz version 2.47.0 (20210316.2052)
 -->
<!-- Title: libs/SSystem/SComponent/c_node.cpp Pages: 1 -->
<svg width="2374pt" height="184pt"
 viewBox="0.00 0.00 2373.50 184.00" xmlns="http://www.w3.org/2000/svg" xmlns:xlink="http://www.w3.org/1999/xlink">
<g id="graph0" class="graph" transform="scale(1 1) rotate(0) translate(4 180)">
<title>libs/SSystem/SComponent/c_node.cpp</title>
<polygon fill="white" stroke="transparent" points="-4,4 -4,-180 2369.5,-180 2369.5,4 -4,4"/>
<!-- Node1 -->
<g id="node1" class="node">
<title>Node1</title>
<g id="a_node1"><a xlink:title=" ">
<polygon fill="#bfbfbf" stroke="black" points="1008,-145.5 1008,-175.5 1142,-175.5 1142,-145.5 1008,-145.5"/>
<text text-anchor="start" x="1016" y="-163.5" font-family="Helvetica,sans-Serif" font-size="10.00">libs/SSystem/SComponent</text>
<text text-anchor="middle" x="1075" y="-152.5" font-family="Helvetica,sans-Serif" font-size="10.00">/c_node.cpp</text>
</a>
</g>
</g>
<!-- Node2 -->
<g id="node2" class="node">
<title>Node2</title>
<g id="a_node2"><a xlink:href="c__node_8h.html" target="_top" xlink:title=" ">
<polygon fill="white" stroke="black" points="0,-67.5 0,-97.5 116,-97.5 116,-67.5 0,-67.5"/>
<text text-anchor="start" x="8" y="-85.5" font-family="Helvetica,sans-Serif" font-size="10.00">SSystem/SComponent</text>
<text text-anchor="middle" x="58" y="-74.5" font-family="Helvetica,sans-Serif" font-size="10.00">/c_node.h</text>
</a>
</g>
</g>
<!-- Node1&#45;&gt;Node2 -->
<g id="edge1" class="edge">
<title>Node1&#45;&gt;Node2</title>
<path fill="none" stroke="midnightblue" d="M1007.83,-158.41C821.06,-154.98 298.27,-142.57 130,-109 120.44,-107.09 110.44,-104.18 101.04,-101"/>
<polygon fill="midnightblue" stroke="midnightblue" points="102.09,-97.66 91.5,-97.61 99.75,-104.25 102.09,-97.66"/>
</g>
<!-- Node3 -->
<g id="node3" class="node">
<title>Node3</title>
<g id="a_node3"><a xlink:href="types_8h.html" target="_top" xlink:title=" ">
<polygon fill="white" stroke="black" points="60.5,-0.5 60.5,-19.5 141.5,-19.5 141.5,-0.5 60.5,-0.5"/>
<text text-anchor="middle" x="101" y="-7.5" font-family="Helvetica,sans-Serif" font-size="10.00">dolphin/types.h</text>
</a>
</g>
</g>
<!-- Node1&#45;&gt;Node3 -->
<g id="edge4" class="edge">
<title>Node1&#45;&gt;Node3</title>
<path fill="none" stroke="midnightblue" d="M1007.85,-159.27C809.62,-158.11 236.29,-151.1 164,-109 155.94,-104.31 126.82,-55.55 111.15,-28.63"/>
<polygon fill="midnightblue" stroke="midnightblue" points="114.09,-26.72 106.05,-19.82 108.03,-30.23 114.09,-26.72"/>
</g>
<!-- Node4 -->
<g id="node4" class="node">
<title>Node4</title>
<g id="a_node4"><a xlink:href="dol2asm_8h.html" target="_top" xlink:title=" ">
<polygon fill="white" stroke="black" points="172.5,-73 172.5,-92 233.5,-92 233.5,-73 172.5,-73"/>
<text text-anchor="middle" x="203" y="-80" font-family="Helvetica,sans-Serif" font-size="10.00">dol2asm.h</text>
</a>
</g>
</g>
<!-- Node1&#45;&gt;Node4 -->
<g id="edge3" class="edge">
<title>Node1&#45;&gt;Node4</title>
<path fill="none" stroke="midnightblue" d="M1007.98,-159.84C836.17,-160.02 383.58,-155.89 242,-109 234.67,-106.57 227.39,-102.41 221.14,-98.15"/>
<polygon fill="midnightblue" stroke="midnightblue" points="222.95,-95.14 212.83,-92.02 218.8,-100.77 222.95,-95.14"/>
</g>
<!-- Node5 -->
<g id="node5" class="node">
<title>Node5</title>
<g id="a_node5"><a xlink:title=" ">
<polygon fill="white" stroke="#bfbfbf" points="251,-62 251,-103 401,-103 401,-62 251,-62"/>
<text text-anchor="start" x="259" y="-91" font-family="Helvetica,sans-Serif" font-size="10.00">asm/SSystem/SComponent</text>
<text text-anchor="start" x="259" y="-80" font-family="Helvetica,sans-Serif" font-size="10.00">/c_node/cNd_Join__FP10node</text>
<text text-anchor="middle" x="326" y="-69" font-family="Helvetica,sans-Serif" font-size="10.00">_classP10node_class.s</text>
</a>
</g>
</g>
<!-- Node1&#45;&gt;Node5 -->
<g id="edge5" class="edge">
<title>Node1&#45;&gt;Node5</title>
<path fill="none" stroke="midnightblue" d="M1007.94,-159.15C887.43,-157.48 626.68,-149.07 411,-109 405.92,-108.06 400.72,-106.92 395.51,-105.67"/>
<polygon fill="midnightblue" stroke="midnightblue" points="396.06,-102.2 385.51,-103.11 394.33,-108.98 396.06,-102.2"/>
</g>
<!-- Node6 -->
<g id="node6" class="node">
<title>Node6</title>
<g id="a_node6"><a xlink:title=" ">
<polygon fill="white" stroke="#bfbfbf" points="419.5,-62 419.5,-103 556.5,-103 556.5,-62 419.5,-62"/>
<text text-anchor="start" x="427.5" y="-91" font-family="Helvetica,sans-Serif" font-size="10.00">asm/SSystem/SComponent</text>
<text text-anchor="start" x="427.5" y="-80" font-family="Helvetica,sans-Serif" font-size="10.00">/c_node/cNd_LengthOf_</text>
<text text-anchor="middle" x="488" y="-69" font-family="Helvetica,sans-Serif" font-size="10.00">_FP10node_class.s</text>
</a>
</g>
</g>
<!-- Node1&#45;&gt;Node6 -->
<g id="edge6" class="edge">
<title>Node1&#45;&gt;Node6</title>
<path fill="none" stroke="midnightblue" d="M1007.59,-157.46C909.47,-153.45 721.98,-141.83 566,-109 561.65,-108.08 557.2,-107.01 552.74,-105.84"/>
<polygon fill="midnightblue" stroke="midnightblue" points="553.56,-102.43 542.99,-103.12 551.68,-109.18 553.56,-102.43"/>
</g>
<!-- Node7 -->
<g id="node7" class="node">
<title>Node7</title>
<g id="a_node7"><a xlink:title=" ">
<polygon fill="white" stroke="#bfbfbf" points="575,-62 575,-103 727,-103 727,-62 575,-62"/>
<text text-anchor="start" x="583" y="-91" font-family="Helvetica,sans-Serif" font-size="10.00">asm/SSystem/SComponent</text>
<text text-anchor="start" x="583" y="-80" font-family="Helvetica,sans-Serif" font-size="10.00">/c_node/cNd_First__FP10node</text>
<text text-anchor="middle" x="651" y="-69" font-family="Helvetica,sans-Serif" font-size="10.00">_class.s</text>
</a>
</g>
</g>
<!-- Node1&#45;&gt;Node7 -->
<g id="edge7" class="edge">
<title>Node1&#45;&gt;Node7</title>
<path fill="none" stroke="midnightblue" d="M1007.9,-152.39C939.13,-144.42 829.35,-129.84 736,-109 731.57,-108.01 727.03,-106.91 722.46,-105.74"/>
<polygon fill="midnightblue" stroke="midnightblue" points="723.04,-102.27 712.47,-103.07 721.23,-109.03 723.04,-102.27"/>
</g>
<!-- Node8 -->
<g id="node8" class="node">
<title>Node8</title>
<g id="a_node8"><a xlink:title=" ">
<polygon fill="white" stroke="#bfbfbf" points="745,-62 745,-103 897,-103 897,-62 745,-62"/>
<text text-anchor="start" x="753" y="-91" font-family="Helvetica,sans-Serif" font-size="10.00">asm/SSystem/SComponent</text>
<text text-anchor="start" x="753" y="-80" font-family="Helvetica,sans-Serif" font-size="10.00">/c_node/cNd_Last__FP10node</text>
<text text-anchor="middle" x="821" y="-69" font-family="Helvetica,sans-Serif" font-size="10.00">_class.s</text>
</a>
</g>
</g>
<!-- Node1&#45;&gt;Node8 -->
<g id="edge8" class="edge">
<title>Node1&#45;&gt;Node8</title>
<path fill="none" stroke="midnightblue" d="M1028.01,-145.47C994.1,-135.35 947.22,-121.34 906,-109 902.83,-108.05 899.59,-107.08 896.31,-106.1"/>
<polygon fill="midnightblue" stroke="midnightblue" points="897.01,-102.66 886.43,-103.14 895,-109.36 897.01,-102.66"/>
</g>
<!-- Node9 -->
<g id="node9" class="node">
<title>Node9</title>
<g id="a_node9"><a xlink:title=" ">
<polygon fill="white" stroke="#bfbfbf" points="915,-62 915,-103 1071,-103 1071,-62 915,-62"/>
<text text-anchor="start" x="923" y="-91" font-family="Helvetica,sans-Serif" font-size="10.00">asm/SSystem/SComponent</text>
<text text-anchor="start" x="923" y="-80" font-family="Helvetica,sans-Serif" font-size="10.00">/c_node/cNd_Order__FP10node</text>
<text text-anchor="middle" x="993" y="-69" font-family="Helvetica,sans-Serif" font-size="10.00">_classi.s</text>
</a>
</g>
</g>
<!-- Node1&#45;&gt;Node9 -->
<g id="edge9" class="edge">
<title>Node1&#45;&gt;Node9</title>
<path fill="none" stroke="midnightblue" d="M1059.58,-145.2C1048.97,-135.38 1034.57,-122.03 1021.87,-110.26"/>
<polygon fill="midnightblue" stroke="midnightblue" points="1023.95,-107.41 1014.23,-103.18 1019.19,-112.54 1023.95,-107.41"/>
</g>
<!-- Node10 -->
<g id="node10" class="node">
<title>Node10</title>
<g id="a_node10"><a xlink:title=" ">
<polygon fill="white" stroke="#bfbfbf" points="1089.5,-62 1089.5,-103 1226.5,-103 1226.5,-62 1089.5,-62"/>
<text text-anchor="start" x="1097.5" y="-91" font-family="Helvetica,sans-Serif" font-size="10.00">asm/SSystem/SComponent</text>
<text text-anchor="start" x="1097.5" y="-80" font-family="Helvetica,sans-Serif" font-size="10.00">/c_node/cNd_SingleCut</text>
<text text-anchor="middle" x="1158" y="-69" font-family="Helvetica,sans-Serif" font-size="10.00">__FP10node_class.s</text>
</a>
</g>
</g>
<!-- Node1&#45;&gt;Node10 -->
<g id="edge10" class="edge">
<title>Node1&#45;&gt;Node10</title>
<path fill="none" stroke="midnightblue" d="M1090.61,-145.2C1101.34,-135.38 1115.92,-122.03 1128.78,-110.26"/>
<polygon fill="midnightblue" stroke="midnightblue" points="1131.5,-112.51 1136.51,-103.18 1126.77,-107.35 1131.5,-112.51"/>
</g>
<!-- Node11 -->
<g id="node11" class="node">
<title>Node11</title>
<g id="a_node11"><a xlink:title=" ">
<polygon fill="white" stroke="#bfbfbf" points="1244.5,-62 1244.5,-103 1391.5,-103 1391.5,-62 1244.5,-62"/>
<text text-anchor="start" x="1252.5" y="-91" font-family="Helvetica,sans-Serif" font-size="10.00">asm/SSystem/SComponent</text>
<text text-anchor="start" x="1252.5" y="-80" font-family="Helvetica,sans-Serif" font-size="10.00">/c_node/cNd_Cut__FP10node</text>
<text text-anchor="middle" x="1318" y="-69" font-family="Helvetica,sans-Serif" font-size="10.00">_class.s</text>
</a>
</g>
</g>
<!-- Node1&#45;&gt;Node11 -->
<g id="edge11" class="edge">
<title>Node1&#45;&gt;Node11</title>
<path fill="none" stroke="midnightblue" d="M1119.85,-145.47C1155.15,-134.43 1205.03,-118.83 1245.91,-106.05"/>
<polygon fill="midnightblue" stroke="midnightblue" points="1247.06,-109.36 1255.56,-103.03 1244.97,-102.67 1247.06,-109.36"/>
</g>
<!-- Node12 -->
<g id="node12" class="node">
<title>Node12</title>
<g id="a_node12"><a xlink:title=" ">
<polygon fill="white" stroke="#bfbfbf" points="1409.5,-56.5 1409.5,-108.5 1546.5,-108.5 1546.5,-56.5 1409.5,-56.5"/>
<text text-anchor="start" x="1417.5" y="-96.5" font-family="Helvetica,sans-Serif" font-size="10.00">asm/SSystem/SComponent</text>
<text text-anchor="start" x="1417.5" y="-85.5" font-family="Helvetica,sans-Serif" font-size="10.00">/c_node/cNd_Addition_</text>
<text text-anchor="start" x="1417.5" y="-74.5" font-family="Helvetica,sans-Serif" font-size="10.00">_FP10node_classP10node</text>
<text text-anchor="middle" x="1478" y="-63.5" font-family="Helvetica,sans-Serif" font-size="10.00">_class.s</text>
</a>
</g>
</g>
<!-- Node1&#45;&gt;Node12 -->
<g id="edge12" class="edge">
<title>Node1&#45;&gt;Node12</title>
<path fill="none" stroke="midnightblue" d="M1142.13,-152.41C1206.22,-144.89 1305.54,-131.29 1399.38,-109.25"/>
<polygon fill="midnightblue" stroke="midnightblue" points="1400.4,-112.6 1409.32,-106.87 1398.78,-105.79 1400.4,-112.6"/>
</g>
<!-- Node13 -->
<g id="node13" class="node">
<title>Node13</title>
<g id="a_node13"><a xlink:title=" ">
<polygon fill="white" stroke="#bfbfbf" points="1564.5,-62 1564.5,-103 1721.5,-103 1721.5,-62 1564.5,-62"/>
<text text-anchor="start" x="1572.5" y="-91" font-family="Helvetica,sans-Serif" font-size="10.00">asm/SSystem/SComponent</text>
<text text-anchor="start" x="1572.5" y="-80" font-family="Helvetica,sans-Serif" font-size="10.00">/c_node/cNd_Insert__FP10node</text>
<text text-anchor="middle" x="1643" y="-69" font-family="Helvetica,sans-Serif" font-size="10.00">_classP10node_class.s</text>
</a>
</g>
</g>
<!-- Node1&#45;&gt;Node13 -->
<g id="edge13" class="edge">
<title>Node1&#45;&gt;Node13</title>
<path fill="none" stroke="midnightblue" d="M1142.09,-156.28C1235.58,-150.94 1409.99,-137.82 1556,-109 1561.08,-108 1566.29,-106.83 1571.52,-105.56"/>
<polygon fill="midnightblue" stroke="midnightblue" points="1572.73,-108.86 1581.56,-103 1571,-102.08 1572.73,-108.86"/>
</g>
<!-- Node14 -->
<g id="node14" class="node">
<title>Node14</title>
<g id="a_node14"><a xlink:title=" ">
<polygon fill="white" stroke="#bfbfbf" points="1739.5,-62 1739.5,-103 1876.5,-103 1876.5,-62 1739.5,-62"/>
<text text-anchor="start" x="1747.5" y="-91" font-family="Helvetica,sans-Serif" font-size="10.00">asm/SSystem/SComponent</text>
<text text-anchor="start" x="1747.5" y="-80" font-family="Helvetica,sans-Serif" font-size="10.00">/c_node/cNd_SetObject</text>
<text text-anchor="middle" x="1808" y="-69" font-family="Helvetica,sans-Serif" font-size="10.00">__FP10node_classPv.s</text>
</a>
</g>
</g>
<!-- Node1&#45;&gt;Node14 -->
<g id="edge14" class="edge">
<title>Node1&#45;&gt;Node14</title>
<path fill="none" stroke="midnightblue" d="M1142.31,-159.68C1261.97,-158.81 1519.06,-151.59 1731,-109 1735.47,-108.1 1740.04,-107.02 1744.61,-105.82"/>
<polygon fill="midnightblue" stroke="midnightblue" points="1745.91,-109.09 1754.6,-103.03 1744.02,-102.35 1745.91,-109.09"/>
</g>
<!-- Node15 -->
<g id="node15" class="node">
<title>Node15</title>
<g id="a_node15"><a xlink:title=" ">
<polygon fill="white" stroke="#bfbfbf" points="1894.5,-62 1894.5,-103 2031.5,-103 2031.5,-62 1894.5,-62"/>
<text text-anchor="start" x="1902.5" y="-91" font-family="Helvetica,sans-Serif" font-size="10.00">asm/SSystem/SComponent</text>
<text text-anchor="start" x="1902.5" y="-80" font-family="Helvetica,sans-Serif" font-size="10.00">/c_node/cNd_ClearObject</text>
<text text-anchor="middle" x="1963" y="-69" font-family="Helvetica,sans-Serif" font-size="10.00">__FP10node_class.s</text>
</a>
</g>
</g>
<!-- Node1&#45;&gt;Node15 -->
<g id="edge15" class="edge">
<title>Node1&#45;&gt;Node15</title>
<path fill="none" stroke="midnightblue" d="M1142.14,-157.54C1309.91,-152.3 1744.12,-136.43 1886,-109 1890.68,-108.1 1895.47,-106.98 1900.25,-105.74"/>
<polygon fill="midnightblue" stroke="midnightblue" points="1901.35,-109.07 1910.04,-103.01 1899.47,-102.32 1901.35,-109.07"/>
</g>
<!-- Node16 -->
<g id="node16" class="node">
<title>Node16</title>
<g id="a_node16"><a xlink:title=" ">
<polygon fill="white" stroke="#bfbfbf" points="2049.5,-62 2049.5,-103 2186.5,-103 2186.5,-62 2049.5,-62"/>
<text text-anchor="start" x="2057.5" y="-91" font-family="Helvetica,sans-Serif" font-size="10.00">asm/SSystem/SComponent</text>
<text text-anchor="start" x="2057.5" y="-80" font-family="Helvetica,sans-Serif" font-size="10.00">/c_node/cNd_ForcedClear</text>
<text text-anchor="middle" x="2118" y="-69" font-family="Helvetica,sans-Serif" font-size="10.00">__FP10node_class.s</text>
</a>
</g>
</g>
<!-- Node1&#45;&gt;Node16 -->
<g id="edge16" class="edge">
<title>Node1&#45;&gt;Node16</title>
<path fill="none" stroke="midnightblue" d="M1142.26,-158.32C1331.89,-154.62 1868.22,-141.52 2041,-109 2045.68,-108.12 2050.47,-107.02 2055.26,-105.79"/>
<polygon fill="midnightblue" stroke="midnightblue" points="2056.35,-109.12 2065.05,-103.08 2054.48,-102.37 2056.35,-109.12"/>
</g>
<!-- Node17 -->
<g id="node17" class="node">
<title>Node17</title>
<g id="a_node17"><a xlink:title=" ">
<polygon fill="white" stroke="#bfbfbf" points="2204.5,-62 2204.5,-103 2365.5,-103 2365.5,-62 2204.5,-62"/>
<text text-anchor="start" x="2212.5" y="-91" font-family="Helvetica,sans-Serif" font-size="10.00">asm/SSystem/SComponent</text>
<text text-anchor="start" x="2212.5" y="-80" font-family="Helvetica,sans-Serif" font-size="10.00">/c_node/cNd_Create__FP10node</text>
<text text-anchor="middle" x="2285" y="-69" font-family="Helvetica,sans-Serif" font-size="10.00">_classPv.s</text>
</a>
</g>
</g>
<!-- Node1&#45;&gt;Node17 -->
<g id="edge17" class="edge">
<title>Node1&#45;&gt;Node17</title>
<path fill="none" stroke="midnightblue" d="M1142.29,-158.53C1351.92,-155.19 1991.36,-142.45 2196,-109 2201.79,-108.05 2207.74,-106.86 2213.69,-105.5"/>
<polygon fill="midnightblue" stroke="midnightblue" points="2214.77,-108.84 2223.66,-103.09 2213.12,-102.04 2214.77,-108.84"/>
</g>
<!-- Node2&#45;&gt;Node3 -->
<g id="edge2" class="edge">
<title>Node2&#45;&gt;Node3</title>
<path fill="none" stroke="midnightblue" d="M66.7,-67.23C73.52,-56.06 83.03,-40.46 90.31,-28.52"/>
<polygon fill="midnightblue" stroke="midnightblue" points="93.36,-30.25 95.58,-19.89 87.38,-26.61 93.36,-30.25"/>
</g>
</g>
</svg>
