<?xml version="1.0" encoding="UTF-8" standalone="no"?>
<!DOCTYPE svg PUBLIC "-//W3C//DTD SVG 1.1//EN"
 "http://www.w3.org/Graphics/SVG/1.1/DTD/svg11.dtd">
<!-- Generated by graphviz version 2.47.0 (20210316.2052)
 -->
<!-- Title: libs/SSystem/SComponent/c_phase.cpp Pages: 1 -->
<svg width="1538pt" height="184pt"
 viewBox="0.00 0.00 1537.50 184.00" xmlns="http://www.w3.org/2000/svg" xmlns:xlink="http://www.w3.org/1999/xlink">
<g id="graph0" class="graph" transform="scale(1 1) rotate(0) translate(4 180)">
<title>libs/SSystem/SComponent/c_phase.cpp</title>
<polygon fill="white" stroke="transparent" points="-4,4 -4,-180 1533.5,-180 1533.5,4 -4,4"/>
<!-- Node1 -->
<g id="node1" class="node">
<title>Node1</title>
<g id="a_node1"><a xlink:title=" ">
<polygon fill="#bfbfbf" stroke="black" points="564,-145.5 564,-175.5 698,-175.5 698,-145.5 564,-145.5"/>
<text text-anchor="start" x="572" y="-163.5" font-family="Helvetica,sans-Serif" font-size="10.00">libs/SSystem/SComponent</text>
<text text-anchor="middle" x="631" y="-152.5" font-family="Helvetica,sans-Serif" font-size="10.00">/c_phase.cpp</text>
</a>
</g>
</g>
<!-- Node2 -->
<g id="node2" class="node">
<title>Node2</title>
<g id="a_node2"><a xlink:href="c__phase_8h.html" target="_top" xlink:title=" ">
<polygon fill="white" stroke="black" points="0,-67.5 0,-97.5 116,-97.5 116,-67.5 0,-67.5"/>
<text text-anchor="start" x="8" y="-85.5" font-family="Helvetica,sans-Serif" font-size="10.00">SSystem/SComponent</text>
<text text-anchor="middle" x="58" y="-74.5" font-family="Helvetica,sans-Serif" font-size="10.00">/c_phase.h</text>
</a>
</g>
</g>
<!-- Node1&#45;&gt;Node2 -->
<g id="edge1" class="edge">
<title>Node1&#45;&gt;Node2</title>
<path fill="none" stroke="midnightblue" d="M563.73,-157.83C466.8,-154.27 282.7,-143.21 130,-109 120.78,-106.93 111.12,-104.04 101.97,-100.95"/>
<polygon fill="midnightblue" stroke="midnightblue" points="102.89,-97.56 92.3,-97.54 100.56,-104.16 102.89,-97.56"/>
</g>
<!-- Node3 -->
<g id="node3" class="node">
<title>Node3</title>
<g id="a_node3"><a xlink:href="types_8h.html" target="_top" xlink:title=" ">
<polygon fill="white" stroke="black" points="60.5,-0.5 60.5,-19.5 141.5,-19.5 141.5,-0.5 60.5,-0.5"/>
<text text-anchor="middle" x="101" y="-7.5" font-family="Helvetica,sans-Serif" font-size="10.00">dolphin/types.h</text>
</a>
</g>
</g>
<!-- Node1&#45;&gt;Node3 -->
<g id="edge4" class="edge">
<title>Node1&#45;&gt;Node3</title>
<path fill="none" stroke="midnightblue" d="M563.91,-159.24C451.09,-157.67 229.29,-149.36 164,-109 156.07,-104.1 126.89,-55.43 111.18,-28.58"/>
<polygon fill="midnightblue" stroke="midnightblue" points="114.12,-26.67 106.06,-19.79 108.07,-30.19 114.12,-26.67"/>
</g>
<!-- Node4 -->
<g id="node4" class="node">
<title>Node4</title>
<g id="a_node4"><a xlink:href="dol2asm_8h.html" target="_top" xlink:title=" ">
<polygon fill="white" stroke="black" points="172.5,-73 172.5,-92 233.5,-92 233.5,-73 172.5,-73"/>
<text text-anchor="middle" x="203" y="-80" font-family="Helvetica,sans-Serif" font-size="10.00">dol2asm.h</text>
</a>
</g>
</g>
<!-- Node1&#45;&gt;Node4 -->
<g id="edge3" class="edge">
<title>Node1&#45;&gt;Node4</title>
<path fill="none" stroke="midnightblue" d="M563.71,-159.53C484.64,-157.6 350.58,-148.09 243,-109 235.72,-106.35 228.39,-102.21 222.03,-98.03"/>
<polygon fill="midnightblue" stroke="midnightblue" points="223.71,-94.93 213.52,-92.04 219.68,-100.66 223.71,-94.93"/>
</g>
<!-- Node5 -->
<g id="node5" class="node">
<title>Node5</title>
<g id="a_node5"><a xlink:title=" ">
<polygon fill="white" stroke="#bfbfbf" points="251.5,-62 251.5,-103 430.5,-103 430.5,-62 251.5,-62"/>
<text text-anchor="start" x="259.5" y="-91" font-family="Helvetica,sans-Serif" font-size="10.00">asm/SSystem/SComponent</text>
<text text-anchor="start" x="259.5" y="-80" font-family="Helvetica,sans-Serif" font-size="10.00">/c_phase/cPhs_Reset__FP30request</text>
<text text-anchor="middle" x="341" y="-69" font-family="Helvetica,sans-Serif" font-size="10.00">_of_phase_process_class.s</text>
</a>
</g>
</g>
<!-- Node1&#45;&gt;Node5 -->
<g id="edge5" class="edge">
<title>Node1&#45;&gt;Node5</title>
<path fill="none" stroke="midnightblue" d="M577.47,-145.47C534.91,-134.32 474.57,-118.5 425.49,-105.64"/>
<polygon fill="midnightblue" stroke="midnightblue" points="426.08,-102.18 415.52,-103.03 424.31,-108.95 426.08,-102.18"/>
</g>
<!-- Node6 -->
<g id="node6" class="node">
<title>Node6</title>
<g id="a_node6"><a xlink:title=" ">
<polygon fill="white" stroke="#bfbfbf" points="449,-62 449,-103 625,-103 625,-62 449,-62"/>
<text text-anchor="start" x="457" y="-91" font-family="Helvetica,sans-Serif" font-size="10.00">asm/SSystem/SComponent</text>
<text text-anchor="start" x="457" y="-80" font-family="Helvetica,sans-Serif" font-size="10.00">/c_phase/cPhs_Set__FP30request</text>
<text text-anchor="middle" x="537" y="-69" font-family="Helvetica,sans-Serif" font-size="10.00">_of_phase_process_classPPFPv_i.s</text>
</a>
</g>
</g>
<!-- Node1&#45;&gt;Node6 -->
<g id="edge6" class="edge">
<title>Node1&#45;&gt;Node6</title>
<path fill="none" stroke="midnightblue" d="M613.32,-145.2C600.93,-135.19 584.03,-121.52 569.27,-109.59"/>
<polygon fill="midnightblue" stroke="midnightblue" points="571.32,-106.75 561.34,-103.18 566.92,-112.19 571.32,-106.75"/>
</g>
<!-- Node7 -->
<g id="node7" class="node">
<title>Node7</title>
<g id="a_node7"><a xlink:title=" ">
<polygon fill="white" stroke="#bfbfbf" points="642.5,-56.5 642.5,-108.5 809.5,-108.5 809.5,-56.5 642.5,-56.5"/>
<text text-anchor="start" x="650.5" y="-96.5" font-family="Helvetica,sans-Serif" font-size="10.00">asm/SSystem/SComponent</text>
<text text-anchor="start" x="650.5" y="-85.5" font-family="Helvetica,sans-Serif" font-size="10.00">/c_phase/cPhs_UnCompleate</text>
<text text-anchor="start" x="650.5" y="-74.5" font-family="Helvetica,sans-Serif" font-size="10.00">__FP30request_of_phase_process</text>
<text text-anchor="middle" x="726" y="-63.5" font-family="Helvetica,sans-Serif" font-size="10.00">_class.s</text>
</a>
</g>
</g>
<!-- Node1&#45;&gt;Node7 -->
<g id="edge7" class="edge">
<title>Node1&#45;&gt;Node7</title>
<path fill="none" stroke="midnightblue" d="M648.87,-145.2C659.55,-136.66 673.56,-125.45 686.71,-114.93"/>
<polygon fill="midnightblue" stroke="midnightblue" points="689.12,-117.48 694.75,-108.5 684.75,-112.02 689.12,-117.48"/>
</g>
<!-- Node8 -->
<g id="node8" class="node">
<title>Node8</title>
<g id="a_node8"><a xlink:title=" ">
<polygon fill="white" stroke="#bfbfbf" points="827.5,-56.5 827.5,-108.5 994.5,-108.5 994.5,-56.5 827.5,-56.5"/>
<text text-anchor="start" x="835.5" y="-96.5" font-family="Helvetica,sans-Serif" font-size="10.00">asm/SSystem/SComponent</text>
<text text-anchor="start" x="835.5" y="-85.5" font-family="Helvetica,sans-Serif" font-size="10.00">/c_phase/cPhs_Compleate</text>
<text text-anchor="start" x="835.5" y="-74.5" font-family="Helvetica,sans-Serif" font-size="10.00">__FP30request_of_phase_process</text>
<text text-anchor="middle" x="911" y="-63.5" font-family="Helvetica,sans-Serif" font-size="10.00">_class.s</text>
</a>
</g>
</g>
<!-- Node1&#45;&gt;Node8 -->
<g id="edge8" class="edge">
<title>Node1&#45;&gt;Node8</title>
<path fill="none" stroke="midnightblue" d="M683.7,-145.46C719.13,-136 767.12,-123.13 817.5,-109.4"/>
<polygon fill="midnightblue" stroke="midnightblue" points="818.54,-112.75 827.27,-106.74 816.7,-105.99 818.54,-112.75"/>
</g>
<!-- Node9 -->
<g id="node9" class="node">
<title>Node9</title>
<g id="a_node9"><a xlink:title=" ">
<polygon fill="white" stroke="#bfbfbf" points="1012.5,-62 1012.5,-103 1185.5,-103 1185.5,-62 1012.5,-62"/>
<text text-anchor="start" x="1020.5" y="-91" font-family="Helvetica,sans-Serif" font-size="10.00">asm/SSystem/SComponent</text>
<text text-anchor="start" x="1020.5" y="-80" font-family="Helvetica,sans-Serif" font-size="10.00">/c_phase/cPhs_Next__FP30request</text>
<text text-anchor="middle" x="1099" y="-69" font-family="Helvetica,sans-Serif" font-size="10.00">_of_phase_process_class.s</text>
</a>
</g>
</g>
<!-- Node1&#45;&gt;Node9 -->
<g id="edge9" class="edge">
<title>Node1&#45;&gt;Node9</title>
<path fill="none" stroke="midnightblue" d="M698.13,-153.02C773.14,-145.18 897.97,-130.32 1004,-109 1009.39,-107.92 1014.92,-106.7 1020.48,-105.41"/>
<polygon fill="midnightblue" stroke="midnightblue" points="1021.59,-108.74 1030.49,-103 1019.95,-101.94 1021.59,-108.74"/>
</g>
<!-- Node10 -->
<g id="node10" class="node">
<title>Node10</title>
<g id="a_node10"><a xlink:title=" ">
<polygon fill="white" stroke="#bfbfbf" points="1203.5,-62 1203.5,-103 1368.5,-103 1368.5,-62 1203.5,-62"/>
<text text-anchor="start" x="1211.5" y="-91" font-family="Helvetica,sans-Serif" font-size="10.00">asm/SSystem/SComponent</text>
<text text-anchor="start" x="1211.5" y="-80" font-family="Helvetica,sans-Serif" font-size="10.00">/c_phase/cPhs_Do__FP30request</text>
<text text-anchor="middle" x="1286" y="-69" font-family="Helvetica,sans-Serif" font-size="10.00">_of_phase_process_classPv.s</text>
</a>
</g>
</g>
<!-- Node1&#45;&gt;Node10 -->
<g id="edge10" class="edge">
<title>Node1&#45;&gt;Node10</title>
<path fill="none" stroke="midnightblue" d="M698.39,-157.47C804.71,-153.37 1017.56,-141.52 1195,-109 1200.45,-108 1206.04,-106.82 1211.64,-105.53"/>
<polygon fill="midnightblue" stroke="midnightblue" points="1212.82,-108.85 1221.72,-103.09 1211.17,-102.04 1212.82,-108.85"/>
</g>
<!-- Node11 -->
<g id="node11" class="node">
<title>Node11</title>
<g id="a_node11"><a xlink:title=" ">
<polygon fill="white" stroke="#bfbfbf" points="1386.5,-56.5 1386.5,-108.5 1529.5,-108.5 1529.5,-56.5 1386.5,-56.5"/>
<text text-anchor="start" x="1394.5" y="-96.5" font-family="Helvetica,sans-Serif" font-size="10.00">asm/SSystem/SComponent</text>
<text text-anchor="start" x="1394.5" y="-85.5" font-family="Helvetica,sans-Serif" font-size="10.00">/c_phase/cPhs_Handler</text>
<text text-anchor="start" x="1394.5" y="-74.5" font-family="Helvetica,sans-Serif" font-size="10.00">__FP30request_of_phase</text>
<text text-anchor="middle" x="1458" y="-63.5" font-family="Helvetica,sans-Serif" font-size="10.00">_process_classPPFPv_iPv.s</text>
</a>
</g>
</g>
<!-- Node1&#45;&gt;Node11 -->
<g id="edge11" class="edge">
<title>Node1&#45;&gt;Node11</title>
<path fill="none" stroke="midnightblue" d="M698.14,-160.34C828.06,-160.81 1122.69,-156.2 1376.12,-109.18"/>
<polygon fill="midnightblue" stroke="midnightblue" points="1377.07,-112.56 1386.25,-107.27 1375.78,-105.68 1377.07,-112.56"/>
</g>
<!-- Node2&#45;&gt;Node3 -->
<g id="edge2" class="edge">
<title>Node2&#45;&gt;Node3</title>
<path fill="none" stroke="midnightblue" d="M66.7,-67.23C73.52,-56.06 83.03,-40.46 90.31,-28.52"/>
<polygon fill="midnightblue" stroke="midnightblue" points="93.36,-30.25 95.58,-19.89 87.38,-26.61 93.36,-30.25"/>
</g>
</g>
</svg>
