<?xml version="1.0" encoding="UTF-8" standalone="no"?>
<!DOCTYPE svg PUBLIC "-//W3C//DTD SVG 1.1//EN"
 "http://www.w3.org/Graphics/SVG/1.1/DTD/svg11.dtd">
<!-- Generated by graphviz version 2.47.0 (20210316.2052)
 -->
<!-- Title: libs/SSystem/SComponent/c_sxyz.cpp Pages: 1 -->
<svg width="1273pt" height="162pt"
 viewBox="0.00 0.00 1272.50 162.00" xmlns="http://www.w3.org/2000/svg" xmlns:xlink="http://www.w3.org/1999/xlink">
<g id="graph0" class="graph" transform="scale(1 1) rotate(0) translate(4 158)">
<title>libs/SSystem/SComponent/c_sxyz.cpp</title>
<polygon fill="white" stroke="transparent" points="-4,4 -4,-158 1268.5,-158 1268.5,4 -4,4"/>
<!-- Node1 -->
<g id="node1" class="node">
<title>Node1</title>
<g id="a_node1"><a xlink:title=" ">
<polygon fill="#bfbfbf" stroke="black" points="427,-123.5 427,-153.5 561,-153.5 561,-123.5 427,-123.5"/>
<text text-anchor="start" x="435" y="-141.5" font-family="Helvetica,sans-Serif" font-size="10.00">libs/SSystem/SComponent</text>
<text text-anchor="middle" x="494" y="-130.5" font-family="Helvetica,sans-Serif" font-size="10.00">/c_sxyz.cpp</text>
</a>
</g>
</g>
<!-- Node2 -->
<g id="node2" class="node">
<title>Node2</title>
<g id="a_node2"><a xlink:href="c__sxyz_8h.html" target="_top" xlink:title=" ">
<polygon fill="white" stroke="black" points="0,-56.5 0,-86.5 116,-86.5 116,-56.5 0,-56.5"/>
<text text-anchor="start" x="8" y="-74.5" font-family="Helvetica,sans-Serif" font-size="10.00">SSystem/SComponent</text>
<text text-anchor="middle" x="58" y="-63.5" font-family="Helvetica,sans-Serif" font-size="10.00">/c_sxyz.h</text>
</a>
</g>
</g>
<!-- Node1&#45;&gt;Node2 -->
<g id="edge1" class="edge">
<title>Node1&#45;&gt;Node2</title>
<path fill="none" stroke="midnightblue" d="M426.72,-129.41C353.53,-120.32 233.15,-104.53 130,-87 128.73,-86.78 127.44,-86.56 126.15,-86.34"/>
<polygon fill="midnightblue" stroke="midnightblue" points="126.57,-82.85 116.1,-84.52 125.32,-89.74 126.57,-82.85"/>
</g>
<!-- Node3 -->
<g id="node3" class="node">
<title>Node3</title>
<g id="a_node3"><a xlink:href="types_8h.html" target="_top" xlink:title=" ">
<polygon fill="white" stroke="black" points="60.5,-0.5 60.5,-19.5 141.5,-19.5 141.5,-0.5 60.5,-0.5"/>
<text text-anchor="middle" x="101" y="-7.5" font-family="Helvetica,sans-Serif" font-size="10.00">dolphin/types.h</text>
</a>
</g>
</g>
<!-- Node1&#45;&gt;Node3 -->
<g id="edge4" class="edge">
<title>Node1&#45;&gt;Node3</title>
<path fill="none" stroke="midnightblue" d="M426.9,-132.87C343.78,-126.16 207.75,-111.78 164,-87 139.84,-73.32 121.03,-46.52 110.47,-28.68"/>
<polygon fill="midnightblue" stroke="midnightblue" points="113.44,-26.82 105.47,-19.83 107.35,-30.26 113.44,-26.82"/>
</g>
<!-- Node4 -->
<g id="node4" class="node">
<title>Node4</title>
<g id="a_node4"><a xlink:href="dol2asm_8h.html" target="_top" xlink:title=" ">
<polygon fill="white" stroke="black" points="172.5,-62 172.5,-81 233.5,-81 233.5,-62 172.5,-62"/>
<text text-anchor="middle" x="203" y="-69" font-family="Helvetica,sans-Serif" font-size="10.00">dol2asm.h</text>
</a>
</g>
</g>
<!-- Node1&#45;&gt;Node4 -->
<g id="edge3" class="edge">
<title>Node1&#45;&gt;Node4</title>
<path fill="none" stroke="midnightblue" d="M426.77,-126.78C375.85,-117.99 304.42,-104.21 243,-87 240.2,-86.22 237.31,-85.33 234.44,-84.39"/>
<polygon fill="midnightblue" stroke="midnightblue" points="235.41,-81.02 224.82,-81.07 233.13,-87.64 235.41,-81.02"/>
</g>
<!-- Node5 -->
<g id="node5" class="node">
<title>Node5</title>
<g id="a_node5"><a xlink:title=" ">
<polygon fill="white" stroke="#bfbfbf" points="252,-56.5 252,-86.5 394,-86.5 394,-56.5 252,-56.5"/>
<text text-anchor="start" x="260" y="-74.5" font-family="Helvetica,sans-Serif" font-size="10.00">asm/SSystem/SComponent</text>
<text text-anchor="middle" x="323" y="-63.5" font-family="Helvetica,sans-Serif" font-size="10.00">/c_sxyz/__ct__5csXyzFsss.s</text>
</a>
</g>
</g>
<!-- Node1&#45;&gt;Node5 -->
<g id="edge5" class="edge">
<title>Node1&#45;&gt;Node5</title>
<path fill="none" stroke="midnightblue" d="M456.9,-123.4C431.24,-113.64 396.91,-100.59 369.44,-90.15"/>
<polygon fill="midnightblue" stroke="midnightblue" points="370.62,-86.86 360.03,-86.58 368.14,-93.4 370.62,-86.86"/>
</g>
<!-- Node6 -->
<g id="node6" class="node">
<title>Node6</title>
<g id="a_node6"><a xlink:title=" ">
<polygon fill="white" stroke="#bfbfbf" points="412,-56.5 412,-86.5 576,-86.5 576,-56.5 412,-56.5"/>
<text text-anchor="start" x="420" y="-74.5" font-family="Helvetica,sans-Serif" font-size="10.00">asm/SSystem/SComponent</text>
<text text-anchor="middle" x="494" y="-63.5" font-family="Helvetica,sans-Serif" font-size="10.00">/c_sxyz/__pl__5csXyzFR5csXyz.s</text>
</a>
</g>
</g>
<!-- Node1&#45;&gt;Node6 -->
<g id="edge6" class="edge">
<title>Node1&#45;&gt;Node6</title>
<path fill="none" stroke="midnightblue" d="M494,-123.4C494,-115.64 494,-105.81 494,-96.86"/>
<polygon fill="midnightblue" stroke="midnightblue" points="497.5,-96.58 494,-86.58 490.5,-96.58 497.5,-96.58"/>
</g>
<!-- Node7 -->
<g id="node7" class="node">
<title>Node7</title>
<g id="a_node7"><a xlink:title=" ">
<polygon fill="white" stroke="#bfbfbf" points="594.5,-56.5 594.5,-86.5 763.5,-86.5 763.5,-56.5 594.5,-56.5"/>
<text text-anchor="start" x="602.5" y="-74.5" font-family="Helvetica,sans-Serif" font-size="10.00">asm/SSystem/SComponent</text>
<text text-anchor="middle" x="679" y="-63.5" font-family="Helvetica,sans-Serif" font-size="10.00">/c_sxyz/__apl__5csXyzFR5csXyz.s</text>
</a>
</g>
</g>
<!-- Node1&#45;&gt;Node7 -->
<g id="edge7" class="edge">
<title>Node1&#45;&gt;Node7</title>
<path fill="none" stroke="midnightblue" d="M534.14,-123.4C562.02,-113.6 599.36,-100.48 629.15,-90.02"/>
<polygon fill="midnightblue" stroke="midnightblue" points="630.66,-93.19 638.94,-86.58 628.34,-86.59 630.66,-93.19"/>
</g>
<!-- Node8 -->
<g id="node8" class="node">
<title>Node8</title>
<g id="a_node8"><a xlink:title=" ">
<polygon fill="white" stroke="#bfbfbf" points="781.5,-56.5 781.5,-86.5 948.5,-86.5 948.5,-56.5 781.5,-56.5"/>
<text text-anchor="start" x="789.5" y="-74.5" font-family="Helvetica,sans-Serif" font-size="10.00">asm/SSystem/SComponent</text>
<text text-anchor="middle" x="865" y="-63.5" font-family="Helvetica,sans-Serif" font-size="10.00">/c_sxyz/__mi__5csXyzFR5csXyz.s</text>
</a>
</g>
</g>
<!-- Node1&#45;&gt;Node8 -->
<g id="edge8" class="edge">
<title>Node1&#45;&gt;Node8</title>
<path fill="none" stroke="midnightblue" d="M561.19,-125.73C621.07,-115.24 709.18,-99.8 775.12,-88.25"/>
<polygon fill="midnightblue" stroke="midnightblue" points="775.84,-91.67 785.09,-86.5 774.64,-84.78 775.84,-91.67"/>
</g>
<!-- Node9 -->
<g id="node9" class="node">
<title>Node9</title>
<g id="a_node9"><a xlink:title=" ">
<polygon fill="white" stroke="#bfbfbf" points="966.5,-56.5 966.5,-86.5 1103.5,-86.5 1103.5,-56.5 966.5,-56.5"/>
<text text-anchor="start" x="974.5" y="-74.5" font-family="Helvetica,sans-Serif" font-size="10.00">asm/SSystem/SComponent</text>
<text text-anchor="middle" x="1035" y="-63.5" font-family="Helvetica,sans-Serif" font-size="10.00">/c_sxyz/__ml__5csXyzFf.s</text>
</a>
</g>
</g>
<!-- Node1&#45;&gt;Node9 -->
<g id="edge9" class="edge">
<title>Node1&#45;&gt;Node9</title>
<path fill="none" stroke="midnightblue" d="M561.06,-131.85C649.43,-124.04 809.92,-108.58 956.14,-87.21"/>
<polygon fill="midnightblue" stroke="midnightblue" points="956.82,-90.65 966.2,-85.73 955.79,-83.73 956.82,-90.65"/>
</g>
<!-- Node10 -->
<g id="node10" class="node">
<title>Node10</title>
<g id="a_node10"><a xlink:title=" ">
<polygon fill="white" stroke="#bfbfbf" points="1121.5,-56.5 1121.5,-86.5 1264.5,-86.5 1264.5,-56.5 1121.5,-56.5"/>
<text text-anchor="start" x="1129.5" y="-74.5" font-family="Helvetica,sans-Serif" font-size="10.00">asm/SSystem/SComponent</text>
<text text-anchor="middle" x="1193" y="-63.5" font-family="Helvetica,sans-Serif" font-size="10.00">/c_sxyz/__sinit_c_sxyz_cpp.s</text>
</a>
</g>
</g>
<!-- Node1&#45;&gt;Node10 -->
<g id="edge10" class="edge">
<title>Node1&#45;&gt;Node10</title>
<path fill="none" stroke="midnightblue" d="M561.09,-134.18C673.11,-128.17 905.44,-113.69 1111.02,-87.19"/>
<polygon fill="midnightblue" stroke="midnightblue" points="1111.63,-90.64 1121.09,-85.88 1110.73,-83.7 1111.63,-90.64"/>
</g>
<!-- Node2&#45;&gt;Node3 -->
<g id="edge2" class="edge">
<title>Node2&#45;&gt;Node3</title>
<path fill="none" stroke="midnightblue" d="M68.19,-56.4C74.37,-47.84 82.3,-36.87 88.82,-27.86"/>
<polygon fill="midnightblue" stroke="midnightblue" points="91.72,-29.81 94.74,-19.66 86.05,-25.71 91.72,-29.81"/>
</g>
</g>
</svg>
