<?xml version="1.0" encoding="UTF-8" standalone="no"?>
<!DOCTYPE svg PUBLIC "-//W3C//DTD SVG 1.1//EN"
 "http://www.w3.org/Graphics/SVG/1.1/DTD/svg11.dtd">
<!-- Generated by graphviz version 2.47.0 (20210316.2052)
 -->
<!-- Title: libs/SSystem/SComponent/c_tag.cpp Pages: 1 -->
<svg width="1692pt" height="184pt"
 viewBox="0.00 0.00 1692.00 184.00" xmlns="http://www.w3.org/2000/svg" xmlns:xlink="http://www.w3.org/1999/xlink">
<g id="graph0" class="graph" transform="scale(1 1) rotate(0) translate(4 180)">
<title>libs/SSystem/SComponent/c_tag.cpp</title>
<polygon fill="white" stroke="transparent" points="-4,4 -4,-180 1688,-180 1688,4 -4,4"/>
<!-- Node1 -->
<g id="node1" class="node">
<title>Node1</title>
<g id="a_node1"><a xlink:title=" ">
<polygon fill="#bfbfbf" stroke="black" points="624,-145.5 624,-175.5 758,-175.5 758,-145.5 624,-145.5"/>
<text text-anchor="start" x="632" y="-163.5" font-family="Helvetica,sans-Serif" font-size="10.00">libs/SSystem/SComponent</text>
<text text-anchor="middle" x="691" y="-152.5" font-family="Helvetica,sans-Serif" font-size="10.00">/c_tag.cpp</text>
</a>
</g>
</g>
<!-- Node2 -->
<g id="node2" class="node">
<title>Node2</title>
<g id="a_node2"><a xlink:href="c__tag_8h.html" target="_top" xlink:title=" ">
<polygon fill="white" stroke="black" points="0,-67.5 0,-97.5 116,-97.5 116,-67.5 0,-67.5"/>
<text text-anchor="start" x="8" y="-85.5" font-family="Helvetica,sans-Serif" font-size="10.00">SSystem/SComponent</text>
<text text-anchor="middle" x="58" y="-74.5" font-family="Helvetica,sans-Serif" font-size="10.00">/c_tag.h</text>
</a>
</g>
</g>
<!-- Node1&#45;&gt;Node2 -->
<g id="edge1" class="edge">
<title>Node1&#45;&gt;Node2</title>
<path fill="none" stroke="midnightblue" d="M623.68,-158.86C517.54,-156.64 305.31,-147.3 130,-109 120.77,-106.98 111.1,-104.12 101.96,-101.02"/>
<polygon fill="midnightblue" stroke="midnightblue" points="102.87,-97.64 92.28,-97.61 100.55,-104.24 102.87,-97.64"/>
</g>
<!-- Node3 -->
<g id="node3" class="node">
<title>Node3</title>
<g id="a_node3"><a xlink:href="types_8h.html" target="_top" xlink:title=" ">
<polygon fill="white" stroke="black" points="60.5,-0.5 60.5,-19.5 141.5,-19.5 141.5,-0.5 60.5,-0.5"/>
<text text-anchor="middle" x="101" y="-7.5" font-family="Helvetica,sans-Serif" font-size="10.00">dolphin/types.h</text>
</a>
</g>
</g>
<!-- Node1&#45;&gt;Node3 -->
<g id="edge4" class="edge">
<title>Node1&#45;&gt;Node3</title>
<path fill="none" stroke="midnightblue" d="M623.75,-160.22C499.46,-160.4 239.53,-155.05 164,-109 156.04,-104.15 126.87,-55.46 111.17,-28.59"/>
<polygon fill="midnightblue" stroke="midnightblue" points="114.11,-26.68 106.06,-19.8 108.06,-30.2 114.11,-26.68"/>
</g>
<!-- Node4 -->
<g id="node4" class="node">
<title>Node4</title>
<g id="a_node4"><a xlink:href="dol2asm_8h.html" target="_top" xlink:title=" ">
<polygon fill="white" stroke="black" points="172.5,-73 172.5,-92 233.5,-92 233.5,-73 172.5,-73"/>
<text text-anchor="middle" x="203" y="-80" font-family="Helvetica,sans-Serif" font-size="10.00">dol2asm.h</text>
</a>
</g>
</g>
<!-- Node1&#45;&gt;Node4 -->
<g id="edge3" class="edge">
<title>Node1&#45;&gt;Node4</title>
<path fill="none" stroke="midnightblue" d="M623.79,-155.65C516.47,-148.89 311.53,-133.24 243,-109 235.7,-106.42 228.36,-102.29 222,-98.1"/>
<polygon fill="midnightblue" stroke="midnightblue" points="223.69,-95.01 213.5,-92.09 219.65,-100.72 223.69,-95.01"/>
</g>
<!-- Node5 -->
<g id="node5" class="node">
<title>Node5</title>
<g id="a_node5"><a xlink:title=" ">
<polygon fill="white" stroke="#bfbfbf" points="251.5,-62 251.5,-103 406.5,-103 406.5,-62 251.5,-62"/>
<text text-anchor="start" x="259.5" y="-91" font-family="Helvetica,sans-Serif" font-size="10.00">asm/SSystem/SComponent</text>
<text text-anchor="start" x="259.5" y="-80" font-family="Helvetica,sans-Serif" font-size="10.00">/c_tag/cTg_IsUse__FP16create</text>
<text text-anchor="middle" x="329" y="-69" font-family="Helvetica,sans-Serif" font-size="10.00">_tag_class.s</text>
</a>
</g>
</g>
<!-- Node1&#45;&gt;Node5 -->
<g id="edge5" class="edge">
<title>Node1&#45;&gt;Node5</title>
<path fill="none" stroke="midnightblue" d="M623.91,-149.17C567.98,-140.09 486.37,-125.73 416,-109 411.66,-107.97 407.22,-106.85 402.75,-105.69"/>
<polygon fill="midnightblue" stroke="midnightblue" points="403.51,-102.27 392.94,-103.06 401.69,-109.03 403.51,-102.27"/>
</g>
<!-- Node6 -->
<g id="node6" class="node">
<title>Node6</title>
<g id="a_node6"><a xlink:title=" ">
<polygon fill="white" stroke="#bfbfbf" points="425,-62 425,-103 577,-103 577,-62 425,-62"/>
<text text-anchor="start" x="433" y="-91" font-family="Helvetica,sans-Serif" font-size="10.00">asm/SSystem/SComponent</text>
<text text-anchor="start" x="433" y="-80" font-family="Helvetica,sans-Serif" font-size="10.00">/c_tag/cTg_SingleCutFromTree</text>
<text text-anchor="middle" x="501" y="-69" font-family="Helvetica,sans-Serif" font-size="10.00">__FP16create_tag_class.s</text>
</a>
</g>
</g>
<!-- Node1&#45;&gt;Node6 -->
<g id="edge6" class="edge">
<title>Node1&#45;&gt;Node6</title>
<path fill="none" stroke="midnightblue" d="M655.71,-145.38C628.77,-134.61 591.05,-119.52 559.61,-106.94"/>
<polygon fill="midnightblue" stroke="midnightblue" points="560.65,-103.59 550.07,-103.13 558.05,-110.09 560.65,-103.59"/>
</g>
<!-- Node7 -->
<g id="node7" class="node">
<title>Node7</title>
<g id="a_node7"><a xlink:title=" ">
<polygon fill="white" stroke="#bfbfbf" points="595.5,-56.5 595.5,-108.5 786.5,-108.5 786.5,-56.5 595.5,-56.5"/>
<text text-anchor="start" x="603.5" y="-96.5" font-family="Helvetica,sans-Serif" font-size="10.00">asm/SSystem/SComponent</text>
<text text-anchor="start" x="603.5" y="-85.5" font-family="Helvetica,sans-Serif" font-size="10.00">/c_tag/cTg_AdditionToTree</text>
<text text-anchor="start" x="603.5" y="-74.5" font-family="Helvetica,sans-Serif" font-size="10.00">__FP21node_lists_tree_classiP16create</text>
<text text-anchor="middle" x="691" y="-63.5" font-family="Helvetica,sans-Serif" font-size="10.00">_tag_class.s</text>
</a>
</g>
</g>
<!-- Node1&#45;&gt;Node7 -->
<g id="edge7" class="edge">
<title>Node1&#45;&gt;Node7</title>
<path fill="none" stroke="midnightblue" d="M691,-145.2C691,-137.63 691,-127.95 691,-118.53"/>
<polygon fill="midnightblue" stroke="midnightblue" points="694.5,-118.5 691,-108.5 687.5,-118.5 694.5,-118.5"/>
</g>
<!-- Node8 -->
<g id="node8" class="node">
<title>Node8</title>
<g id="a_node8"><a xlink:title=" ">
<polygon fill="white" stroke="#bfbfbf" points="804.5,-56.5 804.5,-108.5 995.5,-108.5 995.5,-56.5 804.5,-56.5"/>
<text text-anchor="start" x="812.5" y="-96.5" font-family="Helvetica,sans-Serif" font-size="10.00">asm/SSystem/SComponent</text>
<text text-anchor="start" x="812.5" y="-85.5" font-family="Helvetica,sans-Serif" font-size="10.00">/c_tag/cTg_InsertToTree</text>
<text text-anchor="start" x="812.5" y="-74.5" font-family="Helvetica,sans-Serif" font-size="10.00">__FP21node_lists_tree_classiP16create</text>
<text text-anchor="middle" x="900" y="-63.5" font-family="Helvetica,sans-Serif" font-size="10.00">_tag_classi.s</text>
</a>
</g>
</g>
<!-- Node1&#45;&gt;Node8 -->
<g id="edge8" class="edge">
<title>Node1&#45;&gt;Node8</title>
<path fill="none" stroke="midnightblue" d="M729.82,-145.38C755.5,-136.05 790.07,-123.47 821.34,-112.1"/>
<polygon fill="midnightblue" stroke="midnightblue" points="822.73,-115.32 830.93,-108.62 820.34,-108.74 822.73,-115.32"/>
</g>
<!-- Node9 -->
<g id="node9" class="node">
<title>Node9</title>
<g id="a_node9"><a xlink:title=" ">
<polygon fill="white" stroke="#bfbfbf" points="1014,-62 1014,-103 1172,-103 1172,-62 1014,-62"/>
<text text-anchor="start" x="1022" y="-91" font-family="Helvetica,sans-Serif" font-size="10.00">asm/SSystem/SComponent</text>
<text text-anchor="start" x="1022" y="-80" font-family="Helvetica,sans-Serif" font-size="10.00">/c_tag/cTg_GetFirst__FP15node</text>
<text text-anchor="middle" x="1093" y="-69" font-family="Helvetica,sans-Serif" font-size="10.00">_list_class.s</text>
</a>
</g>
</g>
<!-- Node1&#45;&gt;Node9 -->
<g id="edge9" class="edge">
<title>Node1&#45;&gt;Node9</title>
<path fill="none" stroke="midnightblue" d="M758.22,-151.12C822.11,-142.58 920.69,-127.92 1005,-109 1009.61,-107.97 1014.33,-106.83 1019.08,-105.63"/>
<polygon fill="midnightblue" stroke="midnightblue" points="1020.04,-108.99 1028.83,-103.08 1018.27,-102.22 1020.04,-108.99"/>
</g>
<!-- Node10 -->
<g id="node10" class="node">
<title>Node10</title>
<g id="a_node10"><a xlink:title=" ">
<polygon fill="white" stroke="#bfbfbf" points="1190.5,-62 1190.5,-103 1327.5,-103 1327.5,-62 1190.5,-62"/>
<text text-anchor="start" x="1198.5" y="-91" font-family="Helvetica,sans-Serif" font-size="10.00">asm/SSystem/SComponent</text>
<text text-anchor="start" x="1198.5" y="-80" font-family="Helvetica,sans-Serif" font-size="10.00">/c_tag/cTg_SingleCut_</text>
<text text-anchor="middle" x="1259" y="-69" font-family="Helvetica,sans-Serif" font-size="10.00">_FP16create_tag_class.s</text>
</a>
</g>
</g>
<!-- Node1&#45;&gt;Node10 -->
<g id="edge10" class="edge">
<title>Node1&#45;&gt;Node10</title>
<path fill="none" stroke="midnightblue" d="M758.28,-157.1C853.37,-152.69 1032.1,-140.63 1181,-109 1185.35,-108.08 1189.8,-107 1194.26,-105.82"/>
<polygon fill="midnightblue" stroke="midnightblue" points="1195.32,-109.16 1204,-103.09 1193.43,-102.41 1195.32,-109.16"/>
</g>
<!-- Node11 -->
<g id="node11" class="node">
<title>Node11</title>
<g id="a_node11"><a xlink:title=" ">
<polygon fill="white" stroke="#bfbfbf" points="1346,-62 1346,-103 1508,-103 1508,-62 1346,-62"/>
<text text-anchor="start" x="1354" y="-91" font-family="Helvetica,sans-Serif" font-size="10.00">asm/SSystem/SComponent</text>
<text text-anchor="start" x="1354" y="-80" font-family="Helvetica,sans-Serif" font-size="10.00">/c_tag/cTg_Addition__FP15node</text>
<text text-anchor="middle" x="1427" y="-69" font-family="Helvetica,sans-Serif" font-size="10.00">_list_classP16create_tag_class.s</text>
</a>
</g>
</g>
<!-- Node1&#45;&gt;Node11 -->
<g id="edge11" class="edge">
<title>Node1&#45;&gt;Node11</title>
<path fill="none" stroke="midnightblue" d="M758.05,-158.62C876.01,-156.1 1127.99,-146.4 1337,-109 1342.63,-107.99 1348.42,-106.78 1354.21,-105.44"/>
<polygon fill="midnightblue" stroke="midnightblue" points="1355.05,-108.83 1363.94,-103.07 1353.39,-102.03 1355.05,-108.83"/>
</g>
<!-- Node12 -->
<g id="node12" class="node">
<title>Node12</title>
<g id="a_node12"><a xlink:title=" ">
<polygon fill="white" stroke="#bfbfbf" points="1526,-62 1526,-103 1684,-103 1684,-62 1526,-62"/>
<text text-anchor="start" x="1534" y="-91" font-family="Helvetica,sans-Serif" font-size="10.00">asm/SSystem/SComponent</text>
<text text-anchor="start" x="1534" y="-80" font-family="Helvetica,sans-Serif" font-size="10.00">/c_tag/cTg_Create__FP16create</text>
<text text-anchor="middle" x="1605" y="-69" font-family="Helvetica,sans-Serif" font-size="10.00">_tag_classPv.s</text>
</a>
</g>
</g>
<!-- Node1&#45;&gt;Node12 -->
<g id="edge12" class="edge">
<title>Node1&#45;&gt;Node12</title>
<path fill="none" stroke="midnightblue" d="M758.23,-160.39C899.75,-161.17 1238.3,-157.29 1517,-109 1522.49,-108.05 1528.12,-106.88 1533.75,-105.58"/>
<polygon fill="midnightblue" stroke="midnightblue" points="1534.99,-108.88 1543.86,-103.09 1533.31,-102.08 1534.99,-108.88"/>
</g>
<!-- Node2&#45;&gt;Node3 -->
<g id="edge2" class="edge">
<title>Node2&#45;&gt;Node3</title>
<path fill="none" stroke="midnightblue" d="M66.7,-67.23C73.52,-56.06 83.03,-40.46 90.31,-28.52"/>
<polygon fill="midnightblue" stroke="midnightblue" points="93.36,-30.25 95.58,-19.89 87.38,-26.61 93.36,-30.25"/>
</g>
</g>
</svg>
