<?xml version="1.0" encoding="UTF-8" standalone="no"?>
<!DOCTYPE svg PUBLIC "-//W3C//DTD SVG 1.1//EN"
 "http://www.w3.org/Graphics/SVG/1.1/DTD/svg11.dtd">
<!-- Generated by graphviz version 2.47.0 (20210316.2052)
 -->
<!-- Title: libs/SSystem/SComponent/c_xyz.cpp Pages: 1 -->
<!--zoomable 173 -->
<svg id="main" version="1.1" xmlns="http://www.w3.org/2000/svg" xmlns:xlink="http://www.w3.org/1999/xlink" xml:space="preserve" onload="init(evt)">
<style type="text/css"><![CDATA[
.edge:hover path { stroke: red; }
.edge:hover polygon { stroke: red; fill: red; }
]]></style>
<script type="text/javascript"><![CDATA[
var edges = document.getElementsByTagName('g');
if (edges && edges.length) {
  for (var i=0;i<edges.length;i++) {
    if (edges[i].id.substr(0,4)=='edge') {
      edges[i].setAttribute('class','edge');
    }
  }
}
]]></script>
        <defs>
                <circle id="rim" cx="0" cy="0" r="7"/>
                <circle id="rim2" cx="0" cy="0" r="3.5"/>
                <g id="zoomPlus">
                        <use xlink:href="#rim" fill="#404040">
                                <set attributeName="fill" to="#808080" begin="zoomplus.mouseover" end="zoomplus.mouseout"/>
                        </use>
                        <path d="M-4,0h8M0,-4v8" fill="none" stroke="white" stroke-width="1.5" pointer-events="none"/>
                </g>
                <g id="zoomMin">
                        <use xlink:href="#rim" fill="#404040">
                                <set attributeName="fill" to="#808080" begin="zoomminus.mouseover" end="zoomminus.mouseout"/>
                        </use>
                        <path d="M-4,0h8" fill="none" stroke="white" stroke-width="1.5" pointer-events="none"/>
                </g>
                <g id="dirArrow">
                        <path fill="none" stroke="white" stroke-width="1.5" d="M0,-3.0v7 M-2.5,-0.5L0,-3.0L2.5,-0.5"/>
                </g>
               <g id="resetDef">
                       <use xlink:href="#rim2" fill="#404040">
                               <set attributeName="fill" to="#808080" begin="reset.mouseover" end="reset.mouseout"/>
                       </use>
               </g>
        </defs>

<script type="text/javascript">
var viewWidth = 3444;
var viewHeight = 173;
var sectionId = 'dynsection-0';
</script>
<script xlink:href="svgpan.js"/>
<svg id="graph" class="graph">
<g id="viewport">
<title>libs/SSystem/SComponent/c_xyz.cpp</title>
<polygon fill="white" stroke="transparent" points="-4,4 -4,-169 3439.5,-169 3439.5,4 -4,4"/>
<!-- Node1 -->
<g id="node1" class="node">
<title>Node1</title>
<g id="a_node1"><a xlink:title=" ">
<polygon fill="#bfbfbf" stroke="black" points="1522,-134.5 1522,-164.5 1656,-164.5 1656,-134.5 1522,-134.5"/>
<text text-anchor="start" x="1530" y="-152.5" font-family="Helvetica,sans-Serif" font-size="10.00">libs/SSystem/SComponent</text>
<text text-anchor="middle" x="1589" y="-141.5" font-family="Helvetica,sans-Serif" font-size="10.00">/c_xyz.cpp</text>
</a>
</g>
</g>
<!-- Node2 -->
<g id="node2" class="node">
<title>Node2</title>
<g id="a_node2"><a xlink:href="c__xyz_8h.html" target="_top" xlink:title=" ">
<polygon fill="white" stroke="black" points="0,-62 0,-92 116,-92 116,-62 0,-62"/>
<text text-anchor="start" x="8" y="-80" font-family="Helvetica,sans-Serif" font-size="10.00">SSystem/SComponent</text>
<text text-anchor="middle" x="58" y="-69" font-family="Helvetica,sans-Serif" font-size="10.00">/c_xyz.h</text>
</a>
</g>
</g>
<!-- Node1&#45;&gt;Node2 -->
<g id="edge1" class="edge">
<title>Node1&#45;&gt;Node2</title>
<path fill="none" stroke="midnightblue" d="M1521.87,-148.28C1273.04,-147.13 403.67,-140.14 130,-98 124.17,-97.1 118.14,-95.89 112.16,-94.51"/>
<polygon fill="midnightblue" stroke="midnightblue" points="112.74,-91.05 102.19,-92.04 111.06,-97.84 112.74,-91.05"/>
</g>
<!-- Node3 -->
<g id="node3" class="node">
<title>Node3</title>
<g id="a_node3"><a xlink:href="types_8h.html" target="_top" xlink:title=" ">
<polygon fill="white" stroke="black" points="60.5,-0.5 60.5,-19.5 141.5,-19.5 141.5,-0.5 60.5,-0.5"/>
<text text-anchor="middle" x="101" y="-7.5" font-family="Helvetica,sans-Serif" font-size="10.00">dolphin/types.h</text>
</a>
</g>
</g>
<!-- Node1&#45;&gt;Node3 -->
<g id="edge4" class="edge">
<title>Node1&#45;&gt;Node3</title>
<path fill="none" stroke="midnightblue" d="M1521.63,-147.75C1247.1,-144.5 224.48,-130.24 164,-98 149.46,-90.25 124.96,-51.73 111.19,-28.62"/>
<polygon fill="midnightblue" stroke="midnightblue" points="114.09,-26.65 106.01,-19.8 108.06,-30.19 114.09,-26.65"/>
</g>
<!-- Node4 -->
<g id="node4" class="node">
<title>Node4</title>
<g id="a_node4"><a xlink:href="dol2asm_8h.html" target="_top" xlink:title=" ">
<polygon fill="white" stroke="black" points="172.5,-67.5 172.5,-86.5 233.5,-86.5 233.5,-67.5 172.5,-67.5"/>
<text text-anchor="middle" x="203" y="-74.5" font-family="Helvetica,sans-Serif" font-size="10.00">dol2asm.h</text>
</a>
</g>
</g>
<!-- Node1&#45;&gt;Node4 -->
<g id="edge3" class="edge">
<title>Node1&#45;&gt;Node4</title>
<path fill="none" stroke="midnightblue" d="M1521.8,-147.69C1266.68,-144.37 366.17,-130.46 242,-98 236.29,-96.51 230.47,-94.09 225.12,-91.44"/>
<polygon fill="midnightblue" stroke="midnightblue" points="226.59,-88.25 216.13,-86.57 223.26,-94.41 226.59,-88.25"/>
</g>
<!-- Node5 -->
<g id="node5" class="node">
<title>Node5</title>
<g id="a_node5"><a xlink:title=" ">
<polygon fill="white" stroke="#bfbfbf" points="251,-62 251,-92 409,-92 409,-62 251,-62"/>
<text text-anchor="start" x="259" y="-80" font-family="Helvetica,sans-Serif" font-size="10.00">asm/SSystem/SComponent</text>
<text text-anchor="middle" x="330" y="-69" font-family="Helvetica,sans-Serif" font-size="10.00">/c_xyz/__pl__4cXyzCFRC3Vec.s</text>
</a>
</g>
</g>
<!-- Node1&#45;&gt;Node5 -->
<g id="edge5" class="edge">
<title>Node1&#45;&gt;Node5</title>
<path fill="none" stroke="midnightblue" d="M1521.89,-147.17C1306.56,-142.67 634.53,-126.64 419,-98 411.27,-96.97 403.23,-95.6 395.27,-94.06"/>
<polygon fill="midnightblue" stroke="midnightblue" points="395.77,-90.59 385.27,-92.02 394.37,-97.45 395.77,-90.59"/>
</g>
<!-- Node6 -->
<g id="node6" class="node">
<title>Node6</title>
<g id="a_node6"><a xlink:title=" ">
<polygon fill="white" stroke="#bfbfbf" points="427.5,-62 427.5,-92 588.5,-92 588.5,-62 427.5,-62"/>
<text text-anchor="start" x="435.5" y="-80" font-family="Helvetica,sans-Serif" font-size="10.00">asm/SSystem/SComponent</text>
<text text-anchor="middle" x="508" y="-69" font-family="Helvetica,sans-Serif" font-size="10.00">/c_xyz/__mi__4cXyzCFRC3Vec.s</text>
</a>
</g>
</g>
<!-- Node1&#45;&gt;Node6 -->
<g id="edge6" class="edge">
<title>Node1&#45;&gt;Node6</title>
<path fill="none" stroke="midnightblue" d="M1521.95,-148.95C1361.53,-149.18 943.26,-144.82 598,-98 590.3,-96.96 582.29,-95.59 574.36,-94.06"/>
<polygon fill="midnightblue" stroke="midnightblue" points="574.89,-90.6 564.39,-92.05 573.5,-97.46 574.89,-90.6"/>
</g>
<!-- Node7 -->
<g id="node7" class="node">
<title>Node7</title>
<g id="a_node7"><a xlink:title=" ">
<polygon fill="white" stroke="#bfbfbf" points="606.5,-62 606.5,-92 743.5,-92 743.5,-62 606.5,-62"/>
<text text-anchor="start" x="614.5" y="-80" font-family="Helvetica,sans-Serif" font-size="10.00">asm/SSystem/SComponent</text>
<text text-anchor="middle" x="675" y="-69" font-family="Helvetica,sans-Serif" font-size="10.00">/c_xyz/__ml__4cXyzCFf.s</text>
</a>
</g>
</g>
<!-- Node1&#45;&gt;Node7 -->
<g id="edge7" class="edge">
<title>Node1&#45;&gt;Node7</title>
<path fill="none" stroke="midnightblue" d="M1521.89,-148.77C1379.37,-148.39 1036.34,-142.47 753,-98 746.75,-97.02 740.26,-95.76 733.83,-94.35"/>
<polygon fill="midnightblue" stroke="midnightblue" points="734.33,-90.87 723.8,-92.03 732.76,-97.69 734.33,-90.87"/>
</g>
<!-- Node8 -->
<g id="node8" class="node">
<title>Node8</title>
<g id="a_node8"><a xlink:title=" ">
<polygon fill="white" stroke="#bfbfbf" points="761.5,-62 761.5,-92 922.5,-92 922.5,-62 761.5,-62"/>
<text text-anchor="start" x="769.5" y="-80" font-family="Helvetica,sans-Serif" font-size="10.00">asm/SSystem/SComponent</text>
<text text-anchor="middle" x="842" y="-69" font-family="Helvetica,sans-Serif" font-size="10.00">/c_xyz/__ml__4cXyzCFRC3Vec.s</text>
</a>
</g>
</g>
<!-- Node1&#45;&gt;Node8 -->
<g id="edge8" class="edge">
<title>Node1&#45;&gt;Node8</title>
<path fill="none" stroke="midnightblue" d="M1521.97,-146.49C1402.72,-142.21 1146.14,-129.86 932,-98 924.62,-96.9 916.95,-95.54 909.34,-94.05"/>
<polygon fill="midnightblue" stroke="midnightblue" points="909.88,-90.59 899.39,-92.03 908.49,-97.45 909.88,-90.59"/>
</g>
<!-- Node9 -->
<g id="node9" class="node">
<title>Node9</title>
<g id="a_node9"><a xlink:title=" ">
<polygon fill="white" stroke="#bfbfbf" points="940.5,-62 940.5,-92 1077.5,-92 1077.5,-62 940.5,-62"/>
<text text-anchor="start" x="948.5" y="-80" font-family="Helvetica,sans-Serif" font-size="10.00">asm/SSystem/SComponent</text>
<text text-anchor="middle" x="1009" y="-69" font-family="Helvetica,sans-Serif" font-size="10.00">/c_xyz/__dv__4cXyzCFf.s</text>
</a>
</g>
</g>
<!-- Node1&#45;&gt;Node9 -->
<g id="edge9" class="edge">
<title>Node1&#45;&gt;Node9</title>
<path fill="none" stroke="midnightblue" d="M1521.97,-144.98C1425.3,-139.17 1241.38,-125.4 1087,-98 1081.18,-96.97 1075.15,-95.73 1069.15,-94.38"/>
<polygon fill="midnightblue" stroke="midnightblue" points="1069.64,-90.9 1059.11,-92.03 1068.05,-97.72 1069.64,-90.9"/>
</g>
<!-- Node10 -->
<g id="node10" class="node">
<title>Node10</title>
<g id="a_node10"><a xlink:title=" ">
<polygon fill="white" stroke="#bfbfbf" points="1095.5,-56.5 1095.5,-97.5 1232.5,-97.5 1232.5,-56.5 1095.5,-56.5"/>
<text text-anchor="start" x="1103.5" y="-85.5" font-family="Helvetica,sans-Serif" font-size="10.00">asm/SSystem/SComponent</text>
<text text-anchor="start" x="1103.5" y="-74.5" font-family="Helvetica,sans-Serif" font-size="10.00">/c_xyz/getCrossProduct</text>
<text text-anchor="middle" x="1164" y="-63.5" font-family="Helvetica,sans-Serif" font-size="10.00">__4cXyzCFRC3Vec.s</text>
</a>
</g>
</g>
<!-- Node1&#45;&gt;Node10 -->
<g id="edge10" class="edge">
<title>Node1&#45;&gt;Node10</title>
<path fill="none" stroke="midnightblue" d="M1521.79,-140.87C1453.81,-132.67 1345.58,-118.28 1242.75,-98.04"/>
<polygon fill="midnightblue" stroke="midnightblue" points="1243.3,-94.59 1232.81,-96.07 1241.94,-101.45 1243.3,-94.59"/>
</g>
<!-- Node11 -->
<g id="node11" class="node">
<title>Node11</title>
<g id="a_node11"><a xlink:title=" ">
<polygon fill="white" stroke="#bfbfbf" points="1251,-62 1251,-92 1423,-92 1423,-62 1251,-62"/>
<text text-anchor="start" x="1259" y="-80" font-family="Helvetica,sans-Serif" font-size="10.00">asm/SSystem/SComponent</text>
<text text-anchor="middle" x="1337" y="-69" font-family="Helvetica,sans-Serif" font-size="10.00">/c_xyz/outprod__4cXyzCFRC3Vec.s</text>
</a>
</g>
</g>
<!-- Node1&#45;&gt;Node11 -->
<g id="edge11" class="edge">
<title>Node1&#45;&gt;Node11</title>
<path fill="none" stroke="midnightblue" d="M1538.91,-134.49C1498.16,-123.09 1440.53,-106.96 1397.26,-94.86"/>
<polygon fill="midnightblue" stroke="midnightblue" points="1398,-91.43 1387.42,-92.11 1396.11,-98.17 1398,-91.43"/>
</g>
<!-- Node12 -->
<g id="node12" class="node">
<title>Node12</title>
<g id="a_node12"><a xlink:title=" ">
<polygon fill="white" stroke="#bfbfbf" points="1441.5,-62 1441.5,-92 1578.5,-92 1578.5,-62 1441.5,-62"/>
<text text-anchor="start" x="1449.5" y="-80" font-family="Helvetica,sans-Serif" font-size="10.00">asm/SSystem/SComponent</text>
<text text-anchor="middle" x="1510" y="-69" font-family="Helvetica,sans-Serif" font-size="10.00">/c_xyz/norm__4cXyzCFv.s</text>
</a>
</g>
</g>
<!-- Node1&#45;&gt;Node12 -->
<g id="edge12" class="edge">
<title>Node1&#45;&gt;Node12</title>
<path fill="none" stroke="midnightblue" d="M1573.01,-134.23C1561.59,-124.04 1546.04,-110.16 1533.24,-98.74"/>
<polygon fill="midnightblue" stroke="midnightblue" points="1535.48,-96.05 1525.69,-92 1530.82,-101.27 1535.48,-96.05"/>
</g>
<!-- Node13 -->
<g id="node13" class="node">
<title>Node13</title>
<g id="a_node13"><a xlink:title=" ">
<polygon fill="white" stroke="#bfbfbf" points="1596.5,-62 1596.5,-92 1739.5,-92 1739.5,-62 1596.5,-62"/>
<text text-anchor="start" x="1604.5" y="-80" font-family="Helvetica,sans-Serif" font-size="10.00">asm/SSystem/SComponent</text>
<text text-anchor="middle" x="1668" y="-69" font-family="Helvetica,sans-Serif" font-size="10.00">/c_xyz/normZP__4cXyzCFv.s</text>
</a>
</g>
</g>
<!-- Node1&#45;&gt;Node13 -->
<g id="edge13" class="edge">
<title>Node1&#45;&gt;Node13</title>
<path fill="none" stroke="midnightblue" d="M1604.99,-134.23C1616.41,-124.04 1631.96,-110.16 1644.76,-98.74"/>
<polygon fill="midnightblue" stroke="midnightblue" points="1647.18,-101.27 1652.31,-92 1642.52,-96.05 1647.18,-101.27"/>
</g>
<!-- Node14 -->
<g id="node14" class="node">
<title>Node14</title>
<g id="a_node14"><a xlink:title=" ">
<polygon fill="white" stroke="#bfbfbf" points="1757.5,-62 1757.5,-92 1900.5,-92 1900.5,-62 1757.5,-62"/>
<text text-anchor="start" x="1765.5" y="-80" font-family="Helvetica,sans-Serif" font-size="10.00">asm/SSystem/SComponent</text>
<text text-anchor="middle" x="1829" y="-69" font-family="Helvetica,sans-Serif" font-size="10.00">/c_xyz/normZC__4cXyzCFv.s</text>
</a>
</g>
</g>
<!-- Node1&#45;&gt;Node14 -->
<g id="edge14" class="edge">
<title>Node1&#45;&gt;Node14</title>
<path fill="none" stroke="midnightblue" d="M1636.7,-134.49C1675.43,-123.11 1730.17,-107.03 1771.35,-94.93"/>
<polygon fill="midnightblue" stroke="midnightblue" points="1772.37,-98.28 1780.98,-92.11 1770.4,-91.57 1772.37,-98.28"/>
</g>
<!-- Node15 -->
<g id="node15" class="node">
<title>Node15</title>
<g id="a_node15"><a xlink:title=" ">
<polygon fill="white" stroke="#bfbfbf" points="1918.5,-62 1918.5,-92 2061.5,-92 2061.5,-62 1918.5,-62"/>
<text text-anchor="start" x="1926.5" y="-80" font-family="Helvetica,sans-Serif" font-size="10.00">asm/SSystem/SComponent</text>
<text text-anchor="middle" x="1990" y="-69" font-family="Helvetica,sans-Serif" font-size="10.00">/c_xyz/normalize__4cXyzFv.s</text>
</a>
</g>
</g>
<!-- Node1&#45;&gt;Node15 -->
<g id="edge15" class="edge">
<title>Node1&#45;&gt;Node15</title>
<path fill="none" stroke="midnightblue" d="M1656.02,-139.73C1721.17,-130.78 1822.79,-115.72 1910,-98 1915.44,-96.9 1921.06,-95.67 1926.69,-94.38"/>
<polygon fill="midnightblue" stroke="midnightblue" points="1927.86,-97.7 1936.79,-92 1926.25,-90.88 1927.86,-97.7"/>
</g>
<!-- Node16 -->
<g id="node16" class="node">
<title>Node16</title>
<g id="a_node16"><a xlink:title=" ">
<polygon fill="white" stroke="#bfbfbf" points="2080,-62 2080,-92 2236,-92 2236,-62 2080,-62"/>
<text text-anchor="start" x="2088" y="-80" font-family="Helvetica,sans-Serif" font-size="10.00">asm/SSystem/SComponent</text>
<text text-anchor="middle" x="2158" y="-69" font-family="Helvetica,sans-Serif" font-size="10.00">/c_xyz/normalizeZP__4cXyzFv.s</text>
</a>
</g>
</g>
<!-- Node1&#45;&gt;Node16 -->
<g id="edge16" class="edge">
<title>Node1&#45;&gt;Node16</title>
<path fill="none" stroke="midnightblue" d="M1656.01,-144.07C1749.43,-137.3 1923.89,-122.52 2071,-98 2077.68,-96.89 2084.61,-95.57 2091.51,-94.16"/>
<polygon fill="midnightblue" stroke="midnightblue" points="2092.52,-97.52 2101.57,-92.02 2091.06,-90.67 2092.52,-97.52"/>
</g>
<!-- Node17 -->
<g id="node17" class="node">
<title>Node17</title>
<g id="a_node17"><a xlink:title=" ">
<polygon fill="white" stroke="#bfbfbf" points="2254.5,-62 2254.5,-92 2411.5,-92 2411.5,-62 2254.5,-62"/>
<text text-anchor="start" x="2262.5" y="-80" font-family="Helvetica,sans-Serif" font-size="10.00">asm/SSystem/SComponent</text>
<text text-anchor="middle" x="2333" y="-69" font-family="Helvetica,sans-Serif" font-size="10.00">/c_xyz/normalizeRS__4cXyzFv.s</text>
</a>
</g>
</g>
<!-- Node1&#45;&gt;Node17 -->
<g id="edge17" class="edge">
<title>Node1&#45;&gt;Node17</title>
<path fill="none" stroke="midnightblue" d="M1656.42,-146.57C1775.71,-142.43 2031.54,-130.29 2245,-98 2252.14,-96.92 2259.55,-95.58 2266.92,-94.11"/>
<polygon fill="midnightblue" stroke="midnightblue" points="2267.82,-97.5 2276.9,-92.04 2266.4,-90.65 2267.82,-97.5"/>
</g>
<!-- Node18 -->
<g id="node18" class="node">
<title>Node18</title>
<g id="a_node18"><a xlink:title=" ">
<polygon fill="white" stroke="#bfbfbf" points="2429.5,-62 2429.5,-92 2590.5,-92 2590.5,-62 2429.5,-62"/>
<text text-anchor="start" x="2437.5" y="-80" font-family="Helvetica,sans-Serif" font-size="10.00">asm/SSystem/SComponent</text>
<text text-anchor="middle" x="2510" y="-69" font-family="Helvetica,sans-Serif" font-size="10.00">/c_xyz/__eq__4cXyzCFRC3Vec.s</text>
</a>
</g>
</g>
<!-- Node1&#45;&gt;Node18 -->
<g id="edge18" class="edge">
<title>Node1&#45;&gt;Node18</title>
<path fill="none" stroke="midnightblue" d="M1656.23,-148.07C1798.2,-146.35 2138.74,-138.02 2421,-98 2428.41,-96.95 2436.12,-95.6 2443.77,-94.11"/>
<polygon fill="midnightblue" stroke="midnightblue" points="2444.66,-97.5 2453.75,-92.07 2443.26,-90.64 2444.66,-97.5"/>
</g>
<!-- Node19 -->
<g id="node19" class="node">
<title>Node19</title>
<g id="a_node19"><a xlink:title=" ">
<polygon fill="white" stroke="#bfbfbf" points="2608.5,-62 2608.5,-92 2769.5,-92 2769.5,-62 2608.5,-62"/>
<text text-anchor="start" x="2616.5" y="-80" font-family="Helvetica,sans-Serif" font-size="10.00">asm/SSystem/SComponent</text>
<text text-anchor="middle" x="2689" y="-69" font-family="Helvetica,sans-Serif" font-size="10.00">/c_xyz/__ne__4cXyzCFRC3Vec.s</text>
</a>
</g>
</g>
<!-- Node1&#45;&gt;Node19 -->
<g id="edge19" class="edge">
<title>Node1&#45;&gt;Node19</title>
<path fill="none" stroke="midnightblue" d="M1656.21,-149.1C1818.98,-149.7 2246.95,-146.12 2600,-98 2607.61,-96.96 2615.54,-95.6 2623.38,-94.07"/>
<polygon fill="midnightblue" stroke="midnightblue" points="2624.14,-97.49 2633.24,-92.06 2622.75,-90.63 2624.14,-97.49"/>
</g>
<!-- Node20 -->
<g id="node20" class="node">
<title>Node20</title>
<g id="a_node20"><a xlink:title=" ">
<polygon fill="white" stroke="#bfbfbf" points="2787.5,-62 2787.5,-92 2924.5,-92 2924.5,-62 2787.5,-62"/>
<text text-anchor="start" x="2795.5" y="-80" font-family="Helvetica,sans-Serif" font-size="10.00">asm/SSystem/SComponent</text>
<text text-anchor="middle" x="2856" y="-69" font-family="Helvetica,sans-Serif" font-size="10.00">/c_xyz/isZero__4cXyzCFv.s</text>
</a>
</g>
</g>
<!-- Node1&#45;&gt;Node20 -->
<g id="edge20" class="edge">
<title>Node1&#45;&gt;Node20</title>
<path fill="none" stroke="midnightblue" d="M1656.15,-147.52C1874.03,-144.04 2559.91,-130.72 2779,-98 2785.28,-97.06 2791.78,-95.82 2798.22,-94.41"/>
<polygon fill="midnightblue" stroke="midnightblue" points="2799.32,-97.74 2808.27,-92.07 2797.73,-90.93 2799.32,-97.74"/>
</g>
<!-- Node21 -->
<g id="node21" class="node">
<title>Node21</title>
<g id="a_node21"><a xlink:title=" ">
<polygon fill="white" stroke="#bfbfbf" points="2943,-62 2943,-92 3099,-92 3099,-62 2943,-62"/>
<text text-anchor="start" x="2951" y="-80" font-family="Helvetica,sans-Serif" font-size="10.00">asm/SSystem/SComponent</text>
<text text-anchor="middle" x="3021" y="-69" font-family="Helvetica,sans-Serif" font-size="10.00">/c_xyz/atan2sX_Z__4cXyzCFv.s</text>
</a>
</g>
</g>
<!-- Node1&#45;&gt;Node21 -->
<g id="edge21" class="edge">
<title>Node1&#45;&gt;Node21</title>
<path fill="none" stroke="midnightblue" d="M1656.04,-147.65C1891.92,-144.42 2682.81,-131.29 2934,-98 2941.48,-97.01 2949.26,-95.67 2956.95,-94.16"/>
<polygon fill="midnightblue" stroke="midnightblue" points="2957.91,-97.53 2966.99,-92.07 2956.49,-90.68 2957.91,-97.53"/>
</g>
<!-- Node22 -->
<g id="node22" class="node">
<title>Node22</title>
<g id="a_node22"><a xlink:title=" ">
<polygon fill="white" stroke="#bfbfbf" points="3117.5,-62 3117.5,-92 3280.5,-92 3280.5,-62 3117.5,-62"/>
<text text-anchor="start" x="3125.5" y="-80" font-family="Helvetica,sans-Serif" font-size="10.00">asm/SSystem/SComponent</text>
<text text-anchor="middle" x="3199" y="-69" font-family="Helvetica,sans-Serif" font-size="10.00">/c_xyz/atan2sY_XZ__4cXyzCFv.s</text>
</a>
</g>
</g>
<!-- Node1&#45;&gt;Node22 -->
<g id="edge22" class="edge">
<title>Node1&#45;&gt;Node22</title>
<path fill="none" stroke="midnightblue" d="M1656.18,-147.9C1911.41,-145.38 2820.99,-134 3108,-98 3115.99,-97 3124.31,-95.63 3132.53,-94.08"/>
<polygon fill="midnightblue" stroke="midnightblue" points="3133.36,-97.48 3142.48,-92.1 3131.99,-90.61 3133.36,-97.48"/>
</g>
<!-- Node23 -->
<g id="node23" class="node">
<title>Node23</title>
<g id="a_node23"><a xlink:title=" ">
<polygon fill="white" stroke="#bfbfbf" points="3298.5,-62 3298.5,-92 3435.5,-92 3435.5,-62 3298.5,-62"/>
<text text-anchor="start" x="3306.5" y="-80" font-family="Helvetica,sans-Serif" font-size="10.00">asm/SSystem/SComponent</text>
<text text-anchor="middle" x="3367" y="-69" font-family="Helvetica,sans-Serif" font-size="10.00">/c_xyz/__sinit_c_xyz_cpp.s</text>
</a>
</g>
</g>
<!-- Node1&#45;&gt;Node23 -->
<g id="edge23" class="edge">
<title>Node1&#45;&gt;Node23</title>
<path fill="none" stroke="midnightblue" d="M1656.17,-148.52C1930.44,-148.27 2966.27,-144.25 3290,-98 3296.37,-97.09 3302.97,-95.85 3309.51,-94.43"/>
<polygon fill="midnightblue" stroke="midnightblue" points="3310.74,-97.73 3319.69,-92.07 3309.16,-90.92 3310.74,-97.73"/>
</g>
<!-- Node2&#45;&gt;Node3 -->
<g id="edge2" class="edge">
<title>Node2&#45;&gt;Node3</title>
<path fill="none" stroke="midnightblue" d="M67.33,-61.9C73.9,-51.96 82.74,-38.61 89.71,-28.07"/>
<polygon fill="midnightblue" stroke="midnightblue" points="92.65,-29.97 95.25,-19.69 86.81,-26.1 92.65,-29.97"/>
</g>
</g>
</svg>
        <g id="navigator" transform="translate(0 0)" fill="#404254">
                <rect fill="#f2f5e9" fill-opacity="0.5" stroke="#606060" stroke-width=".5" x="0" y="0" width="60" height="60"/>
                <use id="zoomplus" xlink:href="#zoomPlus" x="17" y="9" onmousedown="handleZoom(evt,'in')"/>
                <use id="zoomminus" xlink:href="#zoomMin" x="42" y="9" onmousedown="handleZoom(evt,'out')"/>
                <use id="reset" xlink:href="#resetDef" x="30" y="36" onmousedown="handleReset()"/>
                <g id="arrowUp" xlink:href="#dirArrow" transform="translate(30 24)" onmousedown="handlePan(0,-1)">
                  <use xlink:href="#rim" fill="#404040">
                        <set attributeName="fill" to="#808080" begin="arrowUp.mouseover" end="arrowUp.mouseout"/>
                  </use>
                  <path fill="none" stroke="white" stroke-width="1.5" d="M0,-3.0v7 M-2.5,-0.5L0,-3.0L2.5,-0.5"/>
                </g>
                <g id="arrowRight" xlink:href="#dirArrow" transform="rotate(90) translate(36 -43)" onmousedown="handlePan(1,0)">
                  <use xlink:href="#rim" fill="#404040">
                        <set attributeName="fill" to="#808080" begin="arrowRight.mouseover" end="arrowRight.mouseout"/>
                  </use>
                  <path fill="none" stroke="white" stroke-width="1.5" d="M0,-3.0v7 M-2.5,-0.5L0,-3.0L2.5,-0.5"/>
                </g>
                <g id="arrowDown" xlink:href="#dirArrow" transform="rotate(180) translate(-30 -48)" onmousedown="handlePan(0,1)">
                  <use xlink:href="#rim" fill="#404040">
                        <set attributeName="fill" to="#808080" begin="arrowDown.mouseover" end="arrowDown.mouseout"/>
                  </use>
                  <path fill="none" stroke="white" stroke-width="1.5" d="M0,-3.0v7 M-2.5,-0.5L0,-3.0L2.5,-0.5"/>
                </g>
                <g id="arrowLeft" xlink:href="#dirArrow" transform="rotate(270) translate(-36 17)" onmousedown="handlePan(-1,0)">
                  <use xlink:href="#rim" fill="#404040">
                        <set attributeName="fill" to="#808080" begin="arrowLeft.mouseover" end="arrowLeft.mouseout"/>
                  </use>
                  <path fill="none" stroke="white" stroke-width="1.5" d="M0,-3.0v7 M-2.5,-0.5L0,-3.0L2.5,-0.5"/>
                </g>
        </g>
        <svg viewBox="0 0 15 15" width="100%" height="30px" preserveAspectRatio="xMaxYMin meet">
         <g id="arrow_out" transform="scale(0.3 0.3)">
          <a xlink:href="c__xyz_8cpp__incl_org.svg" target="_base">
           <rect id="button" ry="5" rx="5" y="6" x="6" height="38" width="38"
                fill="#f2f5e9" fill-opacity="0.5" stroke="#606060" stroke-width="1.0"/>
           <path id="arrow"
             d="M 11.500037,31.436501 C 11.940474,20.09759 22.043105,11.32322 32.158766,21.979434 L 37.068811,17.246167 C 37.068811,17.246167 37.088388,32 37.088388,32 L 22.160133,31.978069 C 22.160133,31.978069 26.997745,27.140456 26.997745,27.140456 C 18.528582,18.264221 13.291696,25.230495 11.500037,31.436501 z"
             style="fill:#404040;"/>
          </a>
         </g>
        </svg>
</svg>
