<?xml version="1.0" encoding="UTF-8" standalone="no"?>
<!DOCTYPE svg PUBLIC "-//W3C//DTD SVG 1.1//EN"
 "http://www.w3.org/Graphics/SVG/1.1/DTD/svg11.dtd">
<!-- Generated by graphviz version 2.47.0 (20210316.2052)
 -->
<!-- Title: libs/dolphin/card/CARDUnlock.cpp Pages: 1 -->
<svg width="1284pt" height="151pt"
 viewBox="0.00 0.00 1283.50 151.00" xmlns="http://www.w3.org/2000/svg" xmlns:xlink="http://www.w3.org/1999/xlink">
<g id="graph0" class="graph" transform="scale(1 1) rotate(0) translate(4 147)">
<title>libs/dolphin/card/CARDUnlock.cpp</title>
<polygon fill="white" stroke="transparent" points="-4,4 -4,-147 1279.5,-147 1279.5,4 -4,4"/>
<!-- Node1 -->
<g id="node1" class="node">
<title>Node1</title>
<g id="a_node1"><a xlink:title=" ">
<polygon fill="#bfbfbf" stroke="black" points="436.5,-123.5 436.5,-142.5 602.5,-142.5 602.5,-123.5 436.5,-123.5"/>
<text text-anchor="middle" x="519.5" y="-130.5" font-family="Helvetica,sans-Serif" font-size="10.00">libs/dolphin/card/CARDUnlock.cpp</text>
</a>
</g>
</g>
<!-- Node2 -->
<g id="node2" class="node">
<title>Node2</title>
<g id="a_node2"><a xlink:href="dol2asm_8h.html" target="_top" xlink:title=" ">
<polygon fill="white" stroke="black" points="0,-62 0,-81 61,-81 61,-62 0,-62"/>
<text text-anchor="middle" x="30.5" y="-69" font-family="Helvetica,sans-Serif" font-size="10.00">dol2asm.h</text>
</a>
</g>
</g>
<!-- Node1&#45;&gt;Node2 -->
<g id="edge1" class="edge">
<title>Node1&#45;&gt;Node2</title>
<path fill="none" stroke="midnightblue" d="M436.46,-128.81C346.66,-124.15 199.68,-113 75.5,-87 71.63,-86.19 67.63,-85.17 63.68,-84.05"/>
<polygon fill="midnightblue" stroke="midnightblue" points="64.66,-80.69 54.07,-81.13 62.61,-87.39 64.66,-80.69"/>
</g>
<!-- Node3 -->
<g id="node3" class="node">
<title>Node3</title>
<g id="a_node3"><a xlink:href="types_8h.html" target="_top" xlink:title=" ">
<polygon fill="white" stroke="black" points="97,-0.5 97,-19.5 178,-19.5 178,-0.5 97,-0.5"/>
<text text-anchor="middle" x="137.5" y="-7.5" font-family="Helvetica,sans-Serif" font-size="10.00">dolphin/types.h</text>
</a>
</g>
</g>
<!-- Node1&#45;&gt;Node3 -->
<g id="edge2" class="edge">
<title>Node1&#45;&gt;Node3</title>
<path fill="none" stroke="midnightblue" d="M436.34,-128.71C322.82,-123.36 130.89,-110.86 109.5,-87 94.32,-70.06 109.51,-44.17 122.75,-27.42"/>
<polygon fill="midnightblue" stroke="midnightblue" points="125.57,-29.49 129.32,-19.58 120.21,-24.99 125.57,-29.49"/>
</g>
<!-- Node4 -->
<g id="node4" class="node">
<title>Node4</title>
<g id="a_node4"><a xlink:href="CARDUnlock_8h.html" target="_top" xlink:title=" ">
<polygon fill="white" stroke="black" points="118,-62 118,-81 255,-81 255,-62 118,-62"/>
<text text-anchor="middle" x="186.5" y="-69" font-family="Helvetica,sans-Serif" font-size="10.00">dolphin/card/CARDUnlock.h</text>
</a>
</g>
</g>
<!-- Node1&#45;&gt;Node4 -->
<g id="edge3" class="edge">
<title>Node1&#45;&gt;Node4</title>
<path fill="none" stroke="midnightblue" d="M470.11,-123.42C418.73,-114.47 335.94,-99.94 264.5,-87 257.15,-85.67 249.41,-84.25 241.78,-82.84"/>
<polygon fill="midnightblue" stroke="midnightblue" points="242.33,-79.38 231.86,-81 241.05,-86.27 242.33,-79.38"/>
</g>
<!-- Node5 -->
<g id="node5" class="node">
<title>Node5</title>
<g id="a_node5"><a xlink:title=" ">
<polygon fill="white" stroke="#bfbfbf" points="273.5,-56.5 273.5,-86.5 425.5,-86.5 425.5,-56.5 273.5,-56.5"/>
<text text-anchor="start" x="281.5" y="-74.5" font-family="Helvetica,sans-Serif" font-size="10.00">asm/dolphin/card/CARDUnlock</text>
<text text-anchor="middle" x="349.5" y="-63.5" font-family="Helvetica,sans-Serif" font-size="10.00">/bitrev.s</text>
</a>
</g>
</g>
<!-- Node1&#45;&gt;Node5 -->
<g id="edge5" class="edge">
<title>Node1&#45;&gt;Node5</title>
<path fill="none" stroke="midnightblue" d="M495.14,-123.48C470.18,-114.74 430.66,-100.91 399.09,-89.86"/>
<polygon fill="midnightblue" stroke="midnightblue" points="400.16,-86.52 389.57,-86.52 397.85,-93.13 400.16,-86.52"/>
</g>
<!-- Node6 -->
<g id="node6" class="node">
<title>Node6</title>
<g id="a_node6"><a xlink:title=" ">
<polygon fill="white" stroke="#bfbfbf" points="443.5,-56.5 443.5,-86.5 595.5,-86.5 595.5,-56.5 443.5,-56.5"/>
<text text-anchor="start" x="451.5" y="-74.5" font-family="Helvetica,sans-Serif" font-size="10.00">asm/dolphin/card/CARDUnlock</text>
<text text-anchor="middle" x="519.5" y="-63.5" font-family="Helvetica,sans-Serif" font-size="10.00">/ReadArrayUnlock.s</text>
</a>
</g>
</g>
<!-- Node1&#45;&gt;Node6 -->
<g id="edge6" class="edge">
<title>Node1&#45;&gt;Node6</title>
<path fill="none" stroke="midnightblue" d="M519.5,-123.48C519.5,-116.47 519.5,-106.19 519.5,-96.7"/>
<polygon fill="midnightblue" stroke="midnightblue" points="523,-96.52 519.5,-86.52 516,-96.52 523,-96.52"/>
</g>
<!-- Node7 -->
<g id="node7" class="node">
<title>Node7</title>
<g id="a_node7"><a xlink:title=" ">
<polygon fill="white" stroke="#bfbfbf" points="613.5,-56.5 613.5,-86.5 765.5,-86.5 765.5,-56.5 613.5,-56.5"/>
<text text-anchor="start" x="621.5" y="-74.5" font-family="Helvetica,sans-Serif" font-size="10.00">asm/dolphin/card/CARDUnlock</text>
<text text-anchor="middle" x="689.5" y="-63.5" font-family="Helvetica,sans-Serif" font-size="10.00">/DummyLen.s</text>
</a>
</g>
</g>
<!-- Node1&#45;&gt;Node7 -->
<g id="edge7" class="edge">
<title>Node1&#45;&gt;Node7</title>
<path fill="none" stroke="midnightblue" d="M543.86,-123.48C568.82,-114.74 608.34,-100.91 639.91,-89.86"/>
<polygon fill="midnightblue" stroke="midnightblue" points="641.15,-93.13 649.43,-86.52 638.84,-86.52 641.15,-93.13"/>
</g>
<!-- Node8 -->
<g id="node8" class="node">
<title>Node8</title>
<g id="a_node8"><a xlink:title=" ">
<polygon fill="white" stroke="#bfbfbf" points="783.5,-56.5 783.5,-86.5 935.5,-86.5 935.5,-56.5 783.5,-56.5"/>
<text text-anchor="start" x="791.5" y="-74.5" font-family="Helvetica,sans-Serif" font-size="10.00">asm/dolphin/card/CARDUnlock</text>
<text text-anchor="middle" x="859.5" y="-63.5" font-family="Helvetica,sans-Serif" font-size="10.00">/__CARDUnlock.s</text>
</a>
</g>
</g>
<!-- Node1&#45;&gt;Node8 -->
<g id="edge8" class="edge">
<title>Node1&#45;&gt;Node8</title>
<path fill="none" stroke="midnightblue" d="M568.21,-123.48C621.55,-114.14 708.12,-98.99 773.04,-87.63"/>
<polygon fill="midnightblue" stroke="midnightblue" points="774.02,-91.01 783.27,-85.84 772.82,-84.12 774.02,-91.01"/>
</g>
<!-- Node9 -->
<g id="node9" class="node">
<title>Node9</title>
<g id="a_node9"><a xlink:title=" ">
<polygon fill="white" stroke="#bfbfbf" points="953.5,-56.5 953.5,-86.5 1105.5,-86.5 1105.5,-56.5 953.5,-56.5"/>
<text text-anchor="start" x="961.5" y="-74.5" font-family="Helvetica,sans-Serif" font-size="10.00">asm/dolphin/card/CARDUnlock</text>
<text text-anchor="middle" x="1029.5" y="-63.5" font-family="Helvetica,sans-Serif" font-size="10.00">/InitCallback.s</text>
</a>
</g>
</g>
<!-- Node1&#45;&gt;Node9 -->
<g id="edge9" class="edge">
<title>Node1&#45;&gt;Node9</title>
<path fill="none" stroke="midnightblue" d="M602.76,-124.76C686.31,-117.13 818.95,-104.05 943.02,-87.15"/>
<polygon fill="midnightblue" stroke="midnightblue" points="943.65,-90.6 953.08,-85.77 942.7,-83.66 943.65,-90.6"/>
</g>
<!-- Node10 -->
<g id="node10" class="node">
<title>Node10</title>
<g id="a_node10"><a xlink:title=" ">
<polygon fill="white" stroke="#bfbfbf" points="1123.5,-56.5 1123.5,-86.5 1275.5,-86.5 1275.5,-56.5 1123.5,-56.5"/>
<text text-anchor="start" x="1131.5" y="-74.5" font-family="Helvetica,sans-Serif" font-size="10.00">asm/dolphin/card/CARDUnlock</text>
<text text-anchor="middle" x="1199.5" y="-63.5" font-family="Helvetica,sans-Serif" font-size="10.00">/DoneCallback.s</text>
</a>
</g>
</g>
<!-- Node1&#45;&gt;Node10 -->
<g id="edge10" class="edge">
<title>Node1&#45;&gt;Node10</title>
<path fill="none" stroke="midnightblue" d="M602.52,-128.18C715.72,-122.41 924.99,-109.81 1113.02,-87.11"/>
<polygon fill="midnightblue" stroke="midnightblue" points="1113.59,-90.57 1123.09,-85.88 1112.74,-83.62 1113.59,-90.57"/>
</g>
<!-- Node4&#45;&gt;Node3 -->
<g id="edge4" class="edge">
<title>Node4&#45;&gt;Node3</title>
<path fill="none" stroke="midnightblue" d="M179.48,-61.98C172.06,-52.96 160.17,-38.52 150.93,-27.31"/>
<polygon fill="midnightblue" stroke="midnightblue" points="153.57,-25 144.51,-19.51 148.16,-29.45 153.57,-25"/>
</g>
</g>
</svg>
