<?xml version="1.0" encoding="UTF-8" standalone="no"?>
<!DOCTYPE svg PUBLIC "-//W3C//DTD SVG 1.1//EN"
 "http://www.w3.org/Graphics/SVG/1.1/DTD/svg11.dtd">
<!-- Generated by graphviz version 2.47.0 (20210316.2052)
 -->
<!-- Title: libs/dolphin/card/CARDBlock.cpp Pages: 1 -->
<!--zoomable 151 -->
<svg id="main" version="1.1" xmlns="http://www.w3.org/2000/svg" xmlns:xlink="http://www.w3.org/1999/xlink" xml:space="preserve" onload="init(evt)">
<style type="text/css"><![CDATA[
.edge:hover path { stroke: red; }
.edge:hover polygon { stroke: red; fill: red; }
]]></style>
<script type="text/javascript"><![CDATA[
var edges = document.getElementsByTagName('g');
if (edges && edges.length) {
  for (var i=0;i<edges.length;i++) {
    if (edges[i].id.substr(0,4)=='edge') {
      edges[i].setAttribute('class','edge');
    }
  }
}
]]></script>
        <defs>
                <circle id="rim" cx="0" cy="0" r="7"/>
                <circle id="rim2" cx="0" cy="0" r="3.5"/>
                <g id="zoomPlus">
                        <use xlink:href="#rim" fill="#404040">
                                <set attributeName="fill" to="#808080" begin="zoomplus.mouseover" end="zoomplus.mouseout"/>
                        </use>
                        <path d="M-4,0h8M0,-4v8" fill="none" stroke="white" stroke-width="1.5" pointer-events="none"/>
                </g>
                <g id="zoomMin">
                        <use xlink:href="#rim" fill="#404040">
                                <set attributeName="fill" to="#808080" begin="zoomminus.mouseover" end="zoomminus.mouseout"/>
                        </use>
                        <path d="M-4,0h8" fill="none" stroke="white" stroke-width="1.5" pointer-events="none"/>
                </g>
                <g id="dirArrow">
                        <path fill="none" stroke="white" stroke-width="1.5" d="M0,-3.0v7 M-2.5,-0.5L0,-3.0L2.5,-0.5"/>
                </g>
               <g id="resetDef">
                       <use xlink:href="#rim2" fill="#404040">
                               <set attributeName="fill" to="#808080" begin="reset.mouseover" end="reset.mouseout"/>
                       </use>
               </g>
        </defs>

<script type="text/javascript">
var viewWidth = 1088;
var viewHeight = 151;
var sectionId = 'dynsection-0';
</script>
<script xlink:href="svgpan.js"/>
<svg id="graph" class="graph">
<g id="viewport">
<title>libs/dolphin/card/CARDBlock.cpp</title>
<polygon fill="white" stroke="transparent" points="-4,4 -4,-147 1083.5,-147 1083.5,4 -4,4"/>
<!-- Node1 -->
<g id="node1" class="node">
<title>Node1</title>
<g id="a_node1"><a xlink:title=" ">
<polygon fill="#bfbfbf" stroke="black" points="343.5,-123.5 343.5,-142.5 503.5,-142.5 503.5,-123.5 343.5,-123.5"/>
<text text-anchor="middle" x="423.5" y="-130.5" font-family="Helvetica,sans-Serif" font-size="10.00">libs/dolphin/card/CARDBlock.cpp</text>
</a>
</g>
</g>
<!-- Node2 -->
<g id="node2" class="node">
<title>Node2</title>
<g id="a_node2"><a xlink:href="dol2asm_8h.html" target="_top" xlink:title=" ">
<polygon fill="white" stroke="black" points="0,-62 0,-81 61,-81 61,-62 0,-62"/>
<text text-anchor="middle" x="30.5" y="-69" font-family="Helvetica,sans-Serif" font-size="10.00">dol2asm.h</text>
</a>
</g>
</g>
<!-- Node1&#45;&gt;Node2 -->
<g id="edge1" class="edge">
<title>Node1&#45;&gt;Node2</title>
<path fill="none" stroke="midnightblue" d="M343.3,-125.83C272.3,-119.37 166.16,-107.29 75.5,-87 71.84,-86.18 68.05,-85.19 64.3,-84.12"/>
<polygon fill="midnightblue" stroke="midnightblue" points="65.15,-80.72 54.56,-81.15 63.11,-87.42 65.15,-80.72"/>
</g>
<!-- Node3 -->
<g id="node3" class="node">
<title>Node3</title>
<g id="a_node3"><a xlink:href="types_8h.html" target="_top" xlink:title=" ">
<polygon fill="white" stroke="black" points="96,-0.5 96,-19.5 177,-19.5 177,-0.5 96,-0.5"/>
<text text-anchor="middle" x="136.5" y="-7.5" font-family="Helvetica,sans-Serif" font-size="10.00">dolphin/types.h</text>
</a>
</g>
</g>
<!-- Node1&#45;&gt;Node3 -->
<g id="edge2" class="edge">
<title>Node1&#45;&gt;Node3</title>
<path fill="none" stroke="midnightblue" d="M343.21,-131.98C260.36,-130.05 139.17,-121.23 109.5,-87 94.66,-69.88 109.36,-44.04 122.19,-27.35"/>
<polygon fill="midnightblue" stroke="midnightblue" points="124.95,-29.5 128.57,-19.54 119.53,-25.07 124.95,-29.5"/>
</g>
<!-- Node4 -->
<g id="node4" class="node">
<title>Node4</title>
<g id="a_node4"><a xlink:href="CARDBlock_8h.html" target="_top" xlink:title=" ">
<polygon fill="white" stroke="black" points="118,-62 118,-81 249,-81 249,-62 118,-62"/>
<text text-anchor="middle" x="183.5" y="-69" font-family="Helvetica,sans-Serif" font-size="10.00">dolphin/card/CARDBlock.h</text>
</a>
</g>
</g>
<!-- Node1&#45;&gt;Node4 -->
<g id="edge3" class="edge">
<title>Node1&#45;&gt;Node4</title>
<path fill="none" stroke="midnightblue" d="M389.11,-123.48C346.61,-112.94 274.2,-94.99 227.63,-83.44"/>
<polygon fill="midnightblue" stroke="midnightblue" points="228.37,-80.02 217.82,-81.01 226.69,-86.81 228.37,-80.02"/>
</g>
<!-- Node5 -->
<g id="node5" class="node">
<title>Node5</title>
<g id="a_node5"><a xlink:title=" ">
<polygon fill="white" stroke="#bfbfbf" points="267.5,-56.5 267.5,-86.5 413.5,-86.5 413.5,-56.5 267.5,-56.5"/>
<text text-anchor="start" x="275.5" y="-74.5" font-family="Helvetica,sans-Serif" font-size="10.00">asm/dolphin/card/CARDBlock</text>
<text text-anchor="middle" x="340.5" y="-63.5" font-family="Helvetica,sans-Serif" font-size="10.00">/__CARDGetFatBlock.s</text>
</a>
</g>
</g>
<!-- Node1&#45;&gt;Node5 -->
<g id="edge5" class="edge">
<title>Node1&#45;&gt;Node5</title>
<path fill="none" stroke="midnightblue" d="M411.61,-123.48C400.37,-115.42 383.08,-103.02 368.36,-92.47"/>
<polygon fill="midnightblue" stroke="midnightblue" points="370.23,-89.5 360.06,-86.52 366.15,-95.19 370.23,-89.5"/>
</g>
<!-- Node6 -->
<g id="node6" class="node">
<title>Node6</title>
<g id="a_node6"><a xlink:title=" ">
<polygon fill="white" stroke="#bfbfbf" points="432,-56.5 432,-86.5 581,-86.5 581,-56.5 432,-56.5"/>
<text text-anchor="start" x="440" y="-74.5" font-family="Helvetica,sans-Serif" font-size="10.00">asm/dolphin/card/CARDBlock</text>
<text text-anchor="middle" x="506.5" y="-63.5" font-family="Helvetica,sans-Serif" font-size="10.00">/CARDBlock__WriteCallback.s</text>
</a>
</g>
</g>
<!-- Node1&#45;&gt;Node6 -->
<g id="edge6" class="edge">
<title>Node1&#45;&gt;Node6</title>
<path fill="none" stroke="midnightblue" d="M435.39,-123.48C446.63,-115.42 463.92,-103.02 478.64,-92.47"/>
<polygon fill="midnightblue" stroke="midnightblue" points="480.85,-95.19 486.94,-86.52 476.77,-89.5 480.85,-95.19"/>
</g>
<!-- Node7 -->
<g id="node7" class="node">
<title>Node7</title>
<g id="a_node7"><a xlink:title=" ">
<polygon fill="white" stroke="#bfbfbf" points="599.5,-56.5 599.5,-86.5 751.5,-86.5 751.5,-56.5 599.5,-56.5"/>
<text text-anchor="start" x="607.5" y="-74.5" font-family="Helvetica,sans-Serif" font-size="10.00">asm/dolphin/card/CARDBlock</text>
<text text-anchor="middle" x="675.5" y="-63.5" font-family="Helvetica,sans-Serif" font-size="10.00">/CARDBlock__EraseCallback.s</text>
</a>
</g>
</g>
<!-- Node1&#45;&gt;Node7 -->
<g id="edge7" class="edge">
<title>Node1&#45;&gt;Node7</title>
<path fill="none" stroke="midnightblue" d="M459.61,-123.48C497.72,-114.48 558.74,-100.07 606.2,-88.86"/>
<polygon fill="midnightblue" stroke="midnightblue" points="607.18,-92.23 616.11,-86.52 605.57,-85.41 607.18,-92.23"/>
</g>
<!-- Node8 -->
<g id="node8" class="node">
<title>Node8</title>
<g id="a_node8"><a xlink:title=" ">
<polygon fill="white" stroke="#bfbfbf" points="769.5,-56.5 769.5,-86.5 915.5,-86.5 915.5,-56.5 769.5,-56.5"/>
<text text-anchor="start" x="777.5" y="-74.5" font-family="Helvetica,sans-Serif" font-size="10.00">asm/dolphin/card/CARDBlock</text>
<text text-anchor="middle" x="842.5" y="-63.5" font-family="Helvetica,sans-Serif" font-size="10.00">/__CARDAllocBlock.s</text>
</a>
</g>
</g>
<!-- Node1&#45;&gt;Node8 -->
<g id="edge8" class="edge">
<title>Node1&#45;&gt;Node8</title>
<path fill="none" stroke="midnightblue" d="M493.98,-123.47C559.98,-115.28 661.61,-102.16 759.17,-87.17"/>
<polygon fill="midnightblue" stroke="midnightblue" points="759.86,-90.6 769.21,-85.62 758.79,-83.69 759.86,-90.6"/>
</g>
<!-- Node9 -->
<g id="node9" class="node">
<title>Node9</title>
<g id="a_node9"><a xlink:title=" ">
<polygon fill="white" stroke="#bfbfbf" points="933.5,-56.5 933.5,-86.5 1079.5,-86.5 1079.5,-56.5 933.5,-56.5"/>
<text text-anchor="start" x="941.5" y="-74.5" font-family="Helvetica,sans-Serif" font-size="10.00">asm/dolphin/card/CARDBlock</text>
<text text-anchor="middle" x="1006.5" y="-63.5" font-family="Helvetica,sans-Serif" font-size="10.00">/__CARDUpdateFatBlock.s</text>
</a>
</g>
</g>
<!-- Node1&#45;&gt;Node9 -->
<g id="edge9" class="edge">
<title>Node1&#45;&gt;Node9</title>
<path fill="none" stroke="midnightblue" d="M503.56,-126.93C600.53,-120.31 769.04,-107.27 923.1,-87.11"/>
<polygon fill="midnightblue" stroke="midnightblue" points="923.78,-90.56 933.23,-85.78 922.86,-83.62 923.78,-90.56"/>
</g>
<!-- Node4&#45;&gt;Node3 -->
<g id="edge4" class="edge">
<title>Node4&#45;&gt;Node3</title>
<path fill="none" stroke="midnightblue" d="M176.77,-61.98C169.72,-53.05 158.47,-38.81 149.65,-27.64"/>
<polygon fill="midnightblue" stroke="midnightblue" points="152.17,-25.19 143.22,-19.51 146.67,-29.53 152.17,-25.19"/>
</g>
</g>
</svg>
        <g id="navigator" transform="translate(0 0)" fill="#404254">
                <rect fill="#f2f5e9" fill-opacity="0.5" stroke="#606060" stroke-width=".5" x="0" y="0" width="60" height="60"/>
                <use id="zoomplus" xlink:href="#zoomPlus" x="17" y="9" onmousedown="handleZoom(evt,'in')"/>
                <use id="zoomminus" xlink:href="#zoomMin" x="42" y="9" onmousedown="handleZoom(evt,'out')"/>
                <use id="reset" xlink:href="#resetDef" x="30" y="36" onmousedown="handleReset()"/>
                <g id="arrowUp" xlink:href="#dirArrow" transform="translate(30 24)" onmousedown="handlePan(0,-1)">
                  <use xlink:href="#rim" fill="#404040">
                        <set attributeName="fill" to="#808080" begin="arrowUp.mouseover" end="arrowUp.mouseout"/>
                  </use>
                  <path fill="none" stroke="white" stroke-width="1.5" d="M0,-3.0v7 M-2.5,-0.5L0,-3.0L2.5,-0.5"/>
                </g>
                <g id="arrowRight" xlink:href="#dirArrow" transform="rotate(90) translate(36 -43)" onmousedown="handlePan(1,0)">
                  <use xlink:href="#rim" fill="#404040">
                        <set attributeName="fill" to="#808080" begin="arrowRight.mouseover" end="arrowRight.mouseout"/>
                  </use>
                  <path fill="none" stroke="white" stroke-width="1.5" d="M0,-3.0v7 M-2.5,-0.5L0,-3.0L2.5,-0.5"/>
                </g>
                <g id="arrowDown" xlink:href="#dirArrow" transform="rotate(180) translate(-30 -48)" onmousedown="handlePan(0,1)">
                  <use xlink:href="#rim" fill="#404040">
                        <set attributeName="fill" to="#808080" begin="arrowDown.mouseover" end="arrowDown.mouseout"/>
                  </use>
                  <path fill="none" stroke="white" stroke-width="1.5" d="M0,-3.0v7 M-2.5,-0.5L0,-3.0L2.5,-0.5"/>
                </g>
                <g id="arrowLeft" xlink:href="#dirArrow" transform="rotate(270) translate(-36 17)" onmousedown="handlePan(-1,0)">
                  <use xlink:href="#rim" fill="#404040">
                        <set attributeName="fill" to="#808080" begin="arrowLeft.mouseover" end="arrowLeft.mouseout"/>
                  </use>
                  <path fill="none" stroke="white" stroke-width="1.5" d="M0,-3.0v7 M-2.5,-0.5L0,-3.0L2.5,-0.5"/>
                </g>
        </g>
        <svg viewBox="0 0 15 15" width="100%" height="30px" preserveAspectRatio="xMaxYMin meet">
         <g id="arrow_out" transform="scale(0.3 0.3)">
          <a xlink:href="CARDBlock_8cpp__incl_org.svg" target="_base">
           <rect id="button" ry="5" rx="5" y="6" x="6" height="38" width="38"
                fill="#f2f5e9" fill-opacity="0.5" stroke="#606060" stroke-width="1.0"/>
           <path id="arrow"
             d="M 11.500037,31.436501 C 11.940474,20.09759 22.043105,11.32322 32.158766,21.979434 L 37.068811,17.246167 C 37.068811,17.246167 37.088388,32 37.088388,32 L 22.160133,31.978069 C 22.160133,31.978069 26.997745,27.140456 26.997745,27.140456 C 18.528582,18.264221 13.291696,25.230495 11.500037,31.436501 z"
             style="fill:#404040;"/>
          </a>
         </g>
        </svg>
</svg>
