<?xml version="1.0" encoding="UTF-8" standalone="no"?>
<!DOCTYPE svg PUBLIC "-//W3C//DTD SVG 1.1//EN"
 "http://www.w3.org/Graphics/SVG/1.1/DTD/svg11.dtd">
<!-- Generated by graphviz version 2.47.0 (20210316.2052)
 -->
<!-- Title: libs/dolphin/card/CARDBlock.cpp Pages: 1 -->
<svg width="1078pt" height="151pt"
 viewBox="0.00 0.00 1077.50 151.00" xmlns="http://www.w3.org/2000/svg" xmlns:xlink="http://www.w3.org/1999/xlink">
<g id="graph0" class="graph" transform="scale(1 1) rotate(0) translate(4 147)">
<title>libs/dolphin/card/CARDBlock.cpp</title>
<polygon fill="white" stroke="transparent" points="-4,4 -4,-147 1073.5,-147 1073.5,4 -4,4"/>
<!-- Node1 -->
<g id="node1" class="node">
<title>Node1</title>
<g id="a_node1"><a xlink:title=" ">
<polygon fill="#bfbfbf" stroke="black" points="342.5,-123.5 342.5,-142.5 502.5,-142.5 502.5,-123.5 342.5,-123.5"/>
<text text-anchor="middle" x="422.5" y="-130.5" font-family="Helvetica,sans-Serif" font-size="10.00">libs/dolphin/card/CARDBlock.cpp</text>
</a>
</g>
</g>
<!-- Node2 -->
<g id="node2" class="node">
<title>Node2</title>
<g id="a_node2"><a xlink:href="dol2asm_8h.html" target="_top" xlink:title=" ">
<polygon fill="white" stroke="black" points="0,-62 0,-81 61,-81 61,-62 0,-62"/>
<text text-anchor="middle" x="30.5" y="-69" font-family="Helvetica,sans-Serif" font-size="10.00">dol2asm.h</text>
</a>
</g>
</g>
<!-- Node1&#45;&gt;Node2 -->
<g id="edge1" class="edge">
<title>Node1&#45;&gt;Node2</title>
<path fill="none" stroke="midnightblue" d="M342.19,-125.78C271.39,-119.3 165.75,-107.21 75.5,-87 71.84,-86.18 68.05,-85.19 64.3,-84.12"/>
<polygon fill="midnightblue" stroke="midnightblue" points="65.15,-80.72 54.56,-81.15 63.11,-87.41 65.15,-80.72"/>
</g>
<!-- Node3 -->
<g id="node3" class="node">
<title>Node3</title>
<g id="a_node3"><a xlink:href="types_8h.html" target="_top" xlink:title=" ">
<polygon fill="white" stroke="black" points="96,-0.5 96,-19.5 177,-19.5 177,-0.5 96,-0.5"/>
<text text-anchor="middle" x="136.5" y="-7.5" font-family="Helvetica,sans-Serif" font-size="10.00">dolphin/types.h</text>
</a>
</g>
</g>
<!-- Node1&#45;&gt;Node3 -->
<g id="edge2" class="edge">
<title>Node1&#45;&gt;Node3</title>
<path fill="none" stroke="midnightblue" d="M342.46,-131.94C259.88,-129.98 139.07,-121.13 109.5,-87 94.66,-69.88 109.37,-44.04 122.2,-27.34"/>
<polygon fill="midnightblue" stroke="midnightblue" points="124.95,-29.5 128.57,-19.54 119.53,-25.07 124.95,-29.5"/>
</g>
<!-- Node4 -->
<g id="node4" class="node">
<title>Node4</title>
<g id="a_node4"><a xlink:href="CARDBlock_8h.html" target="_top" xlink:title=" ">
<polygon fill="white" stroke="black" points="118,-62 118,-81 249,-81 249,-62 118,-62"/>
<text text-anchor="middle" x="183.5" y="-69" font-family="Helvetica,sans-Serif" font-size="10.00">dolphin/card/CARDBlock.h</text>
</a>
</g>
</g>
<!-- Node1&#45;&gt;Node4 -->
<g id="edge3" class="edge">
<title>Node1&#45;&gt;Node4</title>
<path fill="none" stroke="midnightblue" d="M388.26,-123.48C345.93,-112.94 273.82,-94.99 227.45,-83.44"/>
<polygon fill="midnightblue" stroke="midnightblue" points="228.23,-80.03 217.68,-81.01 226.54,-86.82 228.23,-80.03"/>
</g>
<!-- Node5 -->
<g id="node5" class="node">
<title>Node5</title>
<g id="a_node5"><a xlink:title=" ">
<polygon fill="white" stroke="#bfbfbf" points="267.5,-56.5 267.5,-86.5 413.5,-86.5 413.5,-56.5 267.5,-56.5"/>
<text text-anchor="start" x="275.5" y="-74.5" font-family="Helvetica,sans-Serif" font-size="10.00">asm/dolphin/card/CARDBlock</text>
<text text-anchor="middle" x="340.5" y="-63.5" font-family="Helvetica,sans-Serif" font-size="10.00">/__CARDGetFatBlock.s</text>
</a>
</g>
</g>
<!-- Node1&#45;&gt;Node5 -->
<g id="edge5" class="edge">
<title>Node1&#45;&gt;Node5</title>
<path fill="none" stroke="midnightblue" d="M410.75,-123.48C399.65,-115.42 382.57,-103.02 368.03,-92.47"/>
<polygon fill="midnightblue" stroke="midnightblue" points="369.98,-89.56 359.83,-86.52 365.86,-95.23 369.98,-89.56"/>
</g>
<!-- Node6 -->
<g id="node6" class="node">
<title>Node6</title>
<g id="a_node6"><a xlink:title=" ">
<polygon fill="white" stroke="#bfbfbf" points="431.5,-56.5 431.5,-86.5 577.5,-86.5 577.5,-56.5 431.5,-56.5"/>
<text text-anchor="start" x="439.5" y="-74.5" font-family="Helvetica,sans-Serif" font-size="10.00">asm/dolphin/card/CARDBlock</text>
<text text-anchor="middle" x="504.5" y="-63.5" font-family="Helvetica,sans-Serif" font-size="10.00">/WriteCallback.s</text>
</a>
</g>
</g>
<!-- Node1&#45;&gt;Node6 -->
<g id="edge6" class="edge">
<title>Node1&#45;&gt;Node6</title>
<path fill="none" stroke="midnightblue" d="M434.25,-123.48C445.35,-115.42 462.43,-103.02 476.97,-92.47"/>
<polygon fill="midnightblue" stroke="midnightblue" points="479.14,-95.23 485.17,-86.52 475.02,-89.56 479.14,-95.23"/>
</g>
<!-- Node7 -->
<g id="node7" class="node">
<title>Node7</title>
<g id="a_node7"><a xlink:title=" ">
<polygon fill="white" stroke="#bfbfbf" points="595.5,-56.5 595.5,-86.5 741.5,-86.5 741.5,-56.5 595.5,-56.5"/>
<text text-anchor="start" x="603.5" y="-74.5" font-family="Helvetica,sans-Serif" font-size="10.00">asm/dolphin/card/CARDBlock</text>
<text text-anchor="middle" x="668.5" y="-63.5" font-family="Helvetica,sans-Serif" font-size="10.00">/EraseCallback.s</text>
</a>
</g>
</g>
<!-- Node1&#45;&gt;Node7 -->
<g id="edge7" class="edge">
<title>Node1&#45;&gt;Node7</title>
<path fill="none" stroke="midnightblue" d="M457.75,-123.48C494.88,-114.49 554.27,-100.13 600.56,-88.93"/>
<polygon fill="midnightblue" stroke="midnightblue" points="601.63,-92.28 610.52,-86.52 599.98,-85.47 601.63,-92.28"/>
</g>
<!-- Node8 -->
<g id="node8" class="node">
<title>Node8</title>
<g id="a_node8"><a xlink:title=" ">
<polygon fill="white" stroke="#bfbfbf" points="759.5,-56.5 759.5,-86.5 905.5,-86.5 905.5,-56.5 759.5,-56.5"/>
<text text-anchor="start" x="767.5" y="-74.5" font-family="Helvetica,sans-Serif" font-size="10.00">asm/dolphin/card/CARDBlock</text>
<text text-anchor="middle" x="832.5" y="-63.5" font-family="Helvetica,sans-Serif" font-size="10.00">/__CARDAllocBlock.s</text>
</a>
</g>
</g>
<!-- Node1&#45;&gt;Node8 -->
<g id="edge8" class="edge">
<title>Node1&#45;&gt;Node8</title>
<path fill="none" stroke="midnightblue" d="M490.14,-123.5C554.27,-115.26 653.57,-102.04 749.08,-87.19"/>
<polygon fill="midnightblue" stroke="midnightblue" points="749.87,-90.61 759.21,-85.61 748.79,-83.69 749.87,-90.61"/>
</g>
<!-- Node9 -->
<g id="node9" class="node">
<title>Node9</title>
<g id="a_node9"><a xlink:title=" ">
<polygon fill="white" stroke="#bfbfbf" points="923.5,-56.5 923.5,-86.5 1069.5,-86.5 1069.5,-56.5 923.5,-56.5"/>
<text text-anchor="start" x="931.5" y="-74.5" font-family="Helvetica,sans-Serif" font-size="10.00">asm/dolphin/card/CARDBlock</text>
<text text-anchor="middle" x="996.5" y="-63.5" font-family="Helvetica,sans-Serif" font-size="10.00">/__CARDUpdateFatBlock.s</text>
</a>
</g>
</g>
<!-- Node1&#45;&gt;Node9 -->
<g id="edge9" class="edge">
<title>Node1&#45;&gt;Node9</title>
<path fill="none" stroke="midnightblue" d="M502.84,-126.73C598.24,-120 762.4,-106.96 912.88,-87.15"/>
<polygon fill="midnightblue" stroke="midnightblue" points="913.78,-90.56 923.23,-85.77 912.86,-83.62 913.78,-90.56"/>
</g>
<!-- Node4&#45;&gt;Node3 -->
<g id="edge4" class="edge">
<title>Node4&#45;&gt;Node3</title>
<path fill="none" stroke="midnightblue" d="M176.77,-61.98C169.72,-53.05 158.47,-38.81 149.65,-27.64"/>
<polygon fill="midnightblue" stroke="midnightblue" points="152.17,-25.19 143.22,-19.51 146.67,-29.53 152.17,-25.19"/>
</g>
</g>
</svg>
