<?xml version="1.0" encoding="UTF-8" standalone="no"?>
<!DOCTYPE svg PUBLIC "-//W3C//DTD SVG 1.1//EN"
 "http://www.w3.org/Graphics/SVG/1.1/DTD/svg11.dtd">
<!-- Generated by graphviz version 2.47.0 (20210316.2052)
 -->
<!-- Title: libs/dolphin/card/CARDBios.cpp Pages: 1 -->
<svg width="4368pt" height="151pt"
 viewBox="0.00 0.00 4367.50 151.00" xmlns="http://www.w3.org/2000/svg" xmlns:xlink="http://www.w3.org/1999/xlink">
<g id="graph0" class="graph" transform="scale(1 1) rotate(0) translate(4 147)">
<title>libs/dolphin/card/CARDBios.cpp</title>
<polygon fill="white" stroke="transparent" points="-4,4 -4,-147 4363.5,-147 4363.5,4 -4,4"/>
<!-- Node1 -->
<g id="node1" class="node">
<title>Node1</title>
<g id="a_node1"><a xlink:title=" ">
<polygon fill="#bfbfbf" stroke="black" points="2000,-123.5 2000,-142.5 2155,-142.5 2155,-123.5 2000,-123.5"/>
<text text-anchor="middle" x="2077.5" y="-130.5" font-family="Helvetica,sans-Serif" font-size="10.00">libs/dolphin/card/CARDBios.cpp</text>
</a>
</g>
</g>
<!-- Node2 -->
<g id="node2" class="node">
<title>Node2</title>
<g id="a_node2"><a xlink:href="dol2asm_8h.html" target="_top" xlink:title=" ">
<polygon fill="white" stroke="black" points="0,-62 0,-81 61,-81 61,-62 0,-62"/>
<text text-anchor="middle" x="30.5" y="-69" font-family="Helvetica,sans-Serif" font-size="10.00">dol2asm.h</text>
</a>
</g>
</g>
<!-- Node1&#45;&gt;Node2 -->
<g id="edge1" class="edge">
<title>Node1&#45;&gt;Node2</title>
<path fill="none" stroke="midnightblue" d="M1999.9,-131.58C1654.73,-129.54 267.37,-119.36 75.5,-87 71.22,-86.28 66.79,-85.24 62.45,-84.04"/>
<polygon fill="midnightblue" stroke="midnightblue" points="63.2,-80.61 52.61,-81.03 61.15,-87.3 63.2,-80.61"/>
</g>
<!-- Node3 -->
<g id="node3" class="node">
<title>Node3</title>
<g id="a_node3"><a xlink:href="types_8h.html" target="_top" xlink:title=" ">
<polygon fill="white" stroke="black" points="94,-0.5 94,-19.5 175,-19.5 175,-0.5 94,-0.5"/>
<text text-anchor="middle" x="134.5" y="-7.5" font-family="Helvetica,sans-Serif" font-size="10.00">dolphin/types.h</text>
</a>
</g>
</g>
<!-- Node1&#45;&gt;Node3 -->
<g id="edge2" class="edge">
<title>Node1&#45;&gt;Node3</title>
<path fill="none" stroke="midnightblue" d="M1999.95,-131.7C1639.31,-130.1 142.13,-121.41 108.5,-87 92.73,-70.86 107.28,-44.77 120.12,-27.74"/>
<polygon fill="midnightblue" stroke="midnightblue" points="122.99,-29.76 126.51,-19.77 117.53,-25.39 122.99,-29.76"/>
</g>
<!-- Node4 -->
<g id="node4" class="node">
<title>Node4</title>
<g id="a_node4"><a xlink:href="CARDBios_8h.html" target="_top" xlink:title=" ">
<polygon fill="white" stroke="black" points="117.5,-62 117.5,-81 243.5,-81 243.5,-62 117.5,-62"/>
<text text-anchor="middle" x="180.5" y="-69" font-family="Helvetica,sans-Serif" font-size="10.00">dolphin/card/CARDBios.h</text>
</a>
</g>
</g>
<!-- Node1&#45;&gt;Node4 -->
<g id="edge3" class="edge">
<title>Node1&#45;&gt;Node4</title>
<path fill="none" stroke="midnightblue" d="M1999.98,-131.86C1697.97,-131.03 599.82,-125.38 253.5,-87 244.92,-86.05 235.84,-84.61 227.11,-82.99"/>
<polygon fill="midnightblue" stroke="midnightblue" points="227.56,-79.51 217.07,-81.04 226.22,-86.39 227.56,-79.51"/>
</g>
<!-- Node5 -->
<g id="node5" class="node">
<title>Node5</title>
<g id="a_node5"><a xlink:title=" ">
<polygon fill="white" stroke="#bfbfbf" points="262,-56.5 262,-86.5 409,-86.5 409,-56.5 262,-56.5"/>
<text text-anchor="start" x="270" y="-74.5" font-family="Helvetica,sans-Serif" font-size="10.00">asm/dolphin/card/CARDBios</text>
<text text-anchor="middle" x="335.5" y="-63.5" font-family="Helvetica,sans-Serif" font-size="10.00">/__CARDDefaultApiCallback.s</text>
</a>
</g>
</g>
<!-- Node1&#45;&gt;Node5 -->
<g id="edge5" class="edge">
<title>Node1&#45;&gt;Node5</title>
<path fill="none" stroke="midnightblue" d="M1999.84,-131.4C1718.35,-128.98 751.28,-118.6 419.3,-86.94"/>
<polygon fill="midnightblue" stroke="midnightblue" points="419.48,-83.44 409.19,-85.95 418.8,-90.41 419.48,-83.44"/>
</g>
<!-- Node6 -->
<g id="node6" class="node">
<title>Node6</title>
<g id="a_node6"><a xlink:title=" ">
<polygon fill="white" stroke="#bfbfbf" points="427.5,-56.5 427.5,-86.5 567.5,-86.5 567.5,-56.5 427.5,-56.5"/>
<text text-anchor="start" x="435.5" y="-74.5" font-family="Helvetica,sans-Serif" font-size="10.00">asm/dolphin/card/CARDBios</text>
<text text-anchor="middle" x="497.5" y="-63.5" font-family="Helvetica,sans-Serif" font-size="10.00">/__CARDSyncCallback.s</text>
</a>
</g>
</g>
<!-- Node1&#45;&gt;Node6 -->
<g id="edge6" class="edge">
<title>Node1&#45;&gt;Node6</title>
<path fill="none" stroke="midnightblue" d="M1999.99,-131.23C1736.59,-128.37 876.27,-117 577.59,-86.97"/>
<polygon fill="midnightblue" stroke="midnightblue" points="577.94,-83.49 567.63,-85.94 577.22,-90.45 577.94,-83.49"/>
</g>
<!-- Node7 -->
<g id="node7" class="node">
<title>Node7</title>
<g id="a_node7"><a xlink:title=" ">
<polygon fill="white" stroke="#bfbfbf" points="585.5,-56.5 585.5,-86.5 725.5,-86.5 725.5,-56.5 585.5,-56.5"/>
<text text-anchor="start" x="593.5" y="-74.5" font-family="Helvetica,sans-Serif" font-size="10.00">asm/dolphin/card/CARDBios</text>
<text text-anchor="middle" x="655.5" y="-63.5" font-family="Helvetica,sans-Serif" font-size="10.00">/__CARDExtHandler.s</text>
</a>
</g>
</g>
<!-- Node1&#45;&gt;Node7 -->
<g id="edge7" class="edge">
<title>Node1&#45;&gt;Node7</title>
<path fill="none" stroke="midnightblue" d="M1999.65,-130.91C1754.86,-127.23 1001.7,-114.08 735.65,-86.98"/>
<polygon fill="midnightblue" stroke="midnightblue" points="735.94,-83.49 725.63,-85.93 735.21,-90.45 735.94,-83.49"/>
</g>
<!-- Node8 -->
<g id="node8" class="node">
<title>Node8</title>
<g id="a_node8"><a xlink:title=" ">
<polygon fill="white" stroke="#bfbfbf" points="743.5,-56.5 743.5,-86.5 883.5,-86.5 883.5,-56.5 743.5,-56.5"/>
<text text-anchor="start" x="751.5" y="-74.5" font-family="Helvetica,sans-Serif" font-size="10.00">asm/dolphin/card/CARDBios</text>
<text text-anchor="middle" x="813.5" y="-63.5" font-family="Helvetica,sans-Serif" font-size="10.00">/__CARDExiHandler.s</text>
</a>
</g>
</g>
<!-- Node1&#45;&gt;Node8 -->
<g id="edge8" class="edge">
<title>Node1&#45;&gt;Node8</title>
<path fill="none" stroke="midnightblue" d="M1999.73,-130.51C1775.18,-125.96 1127.49,-111.2 893.78,-87"/>
<polygon fill="midnightblue" stroke="midnightblue" points="893.95,-83.5 883.63,-85.91 893.2,-90.46 893.95,-83.5"/>
</g>
<!-- Node9 -->
<g id="node9" class="node">
<title>Node9</title>
<g id="a_node9"><a xlink:title=" ">
<polygon fill="white" stroke="#bfbfbf" points="901.5,-56.5 901.5,-86.5 1041.5,-86.5 1041.5,-56.5 901.5,-56.5"/>
<text text-anchor="start" x="909.5" y="-74.5" font-family="Helvetica,sans-Serif" font-size="10.00">asm/dolphin/card/CARDBios</text>
<text text-anchor="middle" x="971.5" y="-63.5" font-family="Helvetica,sans-Serif" font-size="10.00">/__CARDTxHandler.s</text>
</a>
</g>
</g>
<!-- Node1&#45;&gt;Node9 -->
<g id="edge9" class="edge">
<title>Node1&#45;&gt;Node9</title>
<path fill="none" stroke="midnightblue" d="M1999.92,-132.24C1829.82,-131.97 1411.26,-127.02 1051.72,-87.02"/>
<polygon fill="midnightblue" stroke="midnightblue" points="1051.96,-83.53 1041.64,-85.89 1051.18,-90.49 1051.96,-83.53"/>
</g>
<!-- Node10 -->
<g id="node10" class="node">
<title>Node10</title>
<g id="a_node10"><a xlink:title=" ">
<polygon fill="white" stroke="#bfbfbf" points="1059.5,-56.5 1059.5,-86.5 1199.5,-86.5 1199.5,-56.5 1059.5,-56.5"/>
<text text-anchor="start" x="1067.5" y="-74.5" font-family="Helvetica,sans-Serif" font-size="10.00">asm/dolphin/card/CARDBios</text>
<text text-anchor="middle" x="1129.5" y="-63.5" font-family="Helvetica,sans-Serif" font-size="10.00">/__CARDUnlockedHandler.s</text>
</a>
</g>
</g>
<!-- Node1&#45;&gt;Node10 -->
<g id="edge10" class="edge">
<title>Node1&#45;&gt;Node10</title>
<path fill="none" stroke="midnightblue" d="M1999.91,-131.35C1849.35,-129.36 1507.01,-121.25 1209.75,-87.04"/>
<polygon fill="midnightblue" stroke="midnightblue" points="1209.98,-83.54 1199.64,-85.86 1209.17,-90.49 1209.98,-83.54"/>
</g>
<!-- Node11 -->
<g id="node11" class="node">
<title>Node11</title>
<g id="a_node11"><a xlink:title=" ">
<polygon fill="white" stroke="#bfbfbf" points="1217.5,-56.5 1217.5,-86.5 1357.5,-86.5 1357.5,-56.5 1217.5,-56.5"/>
<text text-anchor="start" x="1225.5" y="-74.5" font-family="Helvetica,sans-Serif" font-size="10.00">asm/dolphin/card/CARDBios</text>
<text text-anchor="middle" x="1287.5" y="-63.5" font-family="Helvetica,sans-Serif" font-size="10.00">/__CARDEnableInterrupt.s</text>
</a>
</g>
</g>
<!-- Node1&#45;&gt;Node11 -->
<g id="edge11" class="edge">
<title>Node1&#45;&gt;Node11</title>
<path fill="none" stroke="midnightblue" d="M1999.89,-130.09C1870.75,-126.26 1603.46,-115.5 1367.78,-87.06"/>
<polygon fill="midnightblue" stroke="midnightblue" points="1368,-83.56 1357.64,-85.82 1367.15,-90.51 1368,-83.56"/>
</g>
<!-- Node12 -->
<g id="node12" class="node">
<title>Node12</title>
<g id="a_node12"><a xlink:title=" ">
<polygon fill="white" stroke="#bfbfbf" points="1375.5,-56.5 1375.5,-86.5 1515.5,-86.5 1515.5,-56.5 1375.5,-56.5"/>
<text text-anchor="start" x="1383.5" y="-74.5" font-family="Helvetica,sans-Serif" font-size="10.00">asm/dolphin/card/CARDBios</text>
<text text-anchor="middle" x="1445.5" y="-63.5" font-family="Helvetica,sans-Serif" font-size="10.00">/__CARDReadStatus.s</text>
</a>
</g>
</g>
<!-- Node1&#45;&gt;Node12 -->
<g id="edge12" class="edge">
<title>Node1&#45;&gt;Node12</title>
<path fill="none" stroke="midnightblue" d="M1999.85,-128.14C1894.66,-122.37 1700.84,-109.79 1525.82,-87.09"/>
<polygon fill="midnightblue" stroke="midnightblue" points="1526.02,-83.58 1515.65,-85.75 1525.11,-90.52 1526.02,-83.58"/>
</g>
<!-- Node13 -->
<g id="node13" class="node">
<title>Node13</title>
<g id="a_node13"><a xlink:title=" ">
<polygon fill="white" stroke="#bfbfbf" points="1533.5,-56.5 1533.5,-86.5 1673.5,-86.5 1673.5,-56.5 1533.5,-56.5"/>
<text text-anchor="start" x="1541.5" y="-74.5" font-family="Helvetica,sans-Serif" font-size="10.00">asm/dolphin/card/CARDBios</text>
<text text-anchor="middle" x="1603.5" y="-63.5" font-family="Helvetica,sans-Serif" font-size="10.00">/__CARDReadVendorID.s</text>
</a>
</g>
</g>
<!-- Node1&#45;&gt;Node13 -->
<g id="edge13" class="edge">
<title>Node1&#45;&gt;Node13</title>
<path fill="none" stroke="midnightblue" d="M1999.72,-124.72C1922.17,-117.1 1799.44,-104.07 1683.76,-87.13"/>
<polygon fill="midnightblue" stroke="midnightblue" points="1684.07,-83.63 1673.67,-85.64 1683.05,-90.56 1684.07,-83.63"/>
</g>
<!-- Node14 -->
<g id="node14" class="node">
<title>Node14</title>
<g id="a_node14"><a xlink:title=" ">
<polygon fill="white" stroke="#bfbfbf" points="1691.5,-56.5 1691.5,-86.5 1831.5,-86.5 1831.5,-56.5 1691.5,-56.5"/>
<text text-anchor="start" x="1699.5" y="-74.5" font-family="Helvetica,sans-Serif" font-size="10.00">asm/dolphin/card/CARDBios</text>
<text text-anchor="middle" x="1761.5" y="-63.5" font-family="Helvetica,sans-Serif" font-size="10.00">/__CARDClearStatus.s</text>
</a>
</g>
</g>
<!-- Node1&#45;&gt;Node14 -->
<g id="edge14" class="edge">
<title>Node1&#45;&gt;Node14</title>
<path fill="none" stroke="midnightblue" d="M2032.22,-123.48C1982.6,-114.13 1902.01,-98.96 1841.64,-87.59"/>
<polygon fill="midnightblue" stroke="midnightblue" points="1842.23,-84.14 1831.75,-85.73 1840.93,-91.02 1842.23,-84.14"/>
</g>
<!-- Node15 -->
<g id="node15" class="node">
<title>Node15</title>
<g id="a_node15"><a xlink:title=" ">
<polygon fill="white" stroke="#bfbfbf" points="1849.5,-56.5 1849.5,-86.5 1989.5,-86.5 1989.5,-56.5 1849.5,-56.5"/>
<text text-anchor="start" x="1857.5" y="-74.5" font-family="Helvetica,sans-Serif" font-size="10.00">asm/dolphin/card/CARDBios</text>
<text text-anchor="middle" x="1919.5" y="-63.5" font-family="Helvetica,sans-Serif" font-size="10.00">/TimeoutHandler.s</text>
</a>
</g>
</g>
<!-- Node1&#45;&gt;Node15 -->
<g id="edge15" class="edge">
<title>Node1&#45;&gt;Node15</title>
<path fill="none" stroke="midnightblue" d="M2054.86,-123.48C2031.86,-114.81 1995.57,-101.15 1966.35,-90.14"/>
<polygon fill="midnightblue" stroke="midnightblue" points="1967.33,-86.77 1956.74,-86.52 1964.86,-93.32 1967.33,-86.77"/>
</g>
<!-- Node16 -->
<g id="node16" class="node">
<title>Node16</title>
<g id="a_node16"><a xlink:title=" ">
<polygon fill="white" stroke="#bfbfbf" points="2007.5,-56.5 2007.5,-86.5 2147.5,-86.5 2147.5,-56.5 2007.5,-56.5"/>
<text text-anchor="start" x="2015.5" y="-74.5" font-family="Helvetica,sans-Serif" font-size="10.00">asm/dolphin/card/CARDBios</text>
<text text-anchor="middle" x="2077.5" y="-63.5" font-family="Helvetica,sans-Serif" font-size="10.00">/Retry.s</text>
</a>
</g>
</g>
<!-- Node1&#45;&gt;Node16 -->
<g id="edge16" class="edge">
<title>Node1&#45;&gt;Node16</title>
<path fill="none" stroke="midnightblue" d="M2077.5,-123.48C2077.5,-116.47 2077.5,-106.19 2077.5,-96.7"/>
<polygon fill="midnightblue" stroke="midnightblue" points="2081,-96.52 2077.5,-86.52 2074,-96.52 2081,-96.52"/>
</g>
<!-- Node17 -->
<g id="node17" class="node">
<title>Node17</title>
<g id="a_node17"><a xlink:title=" ">
<polygon fill="white" stroke="#bfbfbf" points="2165.5,-56.5 2165.5,-86.5 2305.5,-86.5 2305.5,-56.5 2165.5,-56.5"/>
<text text-anchor="start" x="2173.5" y="-74.5" font-family="Helvetica,sans-Serif" font-size="10.00">asm/dolphin/card/CARDBios</text>
<text text-anchor="middle" x="2235.5" y="-63.5" font-family="Helvetica,sans-Serif" font-size="10.00">/UnlockedCallback.s</text>
</a>
</g>
</g>
<!-- Node1&#45;&gt;Node17 -->
<g id="edge17" class="edge">
<title>Node1&#45;&gt;Node17</title>
<path fill="none" stroke="midnightblue" d="M2100.14,-123.48C2123.14,-114.81 2159.43,-101.15 2188.65,-90.14"/>
<polygon fill="midnightblue" stroke="midnightblue" points="2190.14,-93.32 2198.26,-86.52 2187.67,-86.77 2190.14,-93.32"/>
</g>
<!-- Node18 -->
<g id="node18" class="node">
<title>Node18</title>
<g id="a_node18"><a xlink:title=" ">
<polygon fill="white" stroke="#bfbfbf" points="2323.5,-56.5 2323.5,-86.5 2463.5,-86.5 2463.5,-56.5 2323.5,-56.5"/>
<text text-anchor="start" x="2331.5" y="-74.5" font-family="Helvetica,sans-Serif" font-size="10.00">asm/dolphin/card/CARDBios</text>
<text text-anchor="middle" x="2393.5" y="-63.5" font-family="Helvetica,sans-Serif" font-size="10.00">/__CARDStart.s</text>
</a>
</g>
</g>
<!-- Node1&#45;&gt;Node18 -->
<g id="edge18" class="edge">
<title>Node1&#45;&gt;Node18</title>
<path fill="none" stroke="midnightblue" d="M2122.78,-123.48C2172.4,-114.13 2252.99,-98.96 2313.36,-87.59"/>
<polygon fill="midnightblue" stroke="midnightblue" points="2314.07,-91.02 2323.25,-85.73 2312.77,-84.14 2314.07,-91.02"/>
</g>
<!-- Node19 -->
<g id="node19" class="node">
<title>Node19</title>
<g id="a_node19"><a xlink:title=" ">
<polygon fill="white" stroke="#bfbfbf" points="2481.5,-56.5 2481.5,-86.5 2621.5,-86.5 2621.5,-56.5 2481.5,-56.5"/>
<text text-anchor="start" x="2489.5" y="-74.5" font-family="Helvetica,sans-Serif" font-size="10.00">asm/dolphin/card/CARDBios</text>
<text text-anchor="middle" x="2551.5" y="-63.5" font-family="Helvetica,sans-Serif" font-size="10.00">/__CARDReadSegment.s</text>
</a>
</g>
</g>
<!-- Node1&#45;&gt;Node19 -->
<g id="edge19" class="edge">
<title>Node1&#45;&gt;Node19</title>
<path fill="none" stroke="midnightblue" d="M2155.28,-124.72C2232.83,-117.1 2355.56,-104.07 2471.24,-87.13"/>
<polygon fill="midnightblue" stroke="midnightblue" points="2471.95,-90.56 2481.33,-85.64 2470.93,-83.63 2471.95,-90.56"/>
</g>
<!-- Node20 -->
<g id="node20" class="node">
<title>Node20</title>
<g id="a_node20"><a xlink:title=" ">
<polygon fill="white" stroke="#bfbfbf" points="2639.5,-56.5 2639.5,-86.5 2779.5,-86.5 2779.5,-56.5 2639.5,-56.5"/>
<text text-anchor="start" x="2647.5" y="-74.5" font-family="Helvetica,sans-Serif" font-size="10.00">asm/dolphin/card/CARDBios</text>
<text text-anchor="middle" x="2709.5" y="-63.5" font-family="Helvetica,sans-Serif" font-size="10.00">/__CARDWritePage.s</text>
</a>
</g>
</g>
<!-- Node1&#45;&gt;Node20 -->
<g id="edge20" class="edge">
<title>Node1&#45;&gt;Node20</title>
<path fill="none" stroke="midnightblue" d="M2155.15,-128.14C2260.34,-122.37 2454.16,-109.79 2629.18,-87.09"/>
<polygon fill="midnightblue" stroke="midnightblue" points="2629.89,-90.52 2639.35,-85.75 2628.98,-83.58 2629.89,-90.52"/>
</g>
<!-- Node21 -->
<g id="node21" class="node">
<title>Node21</title>
<g id="a_node21"><a xlink:title=" ">
<polygon fill="white" stroke="#bfbfbf" points="2797.5,-56.5 2797.5,-86.5 2937.5,-86.5 2937.5,-56.5 2797.5,-56.5"/>
<text text-anchor="start" x="2805.5" y="-74.5" font-family="Helvetica,sans-Serif" font-size="10.00">asm/dolphin/card/CARDBios</text>
<text text-anchor="middle" x="2867.5" y="-63.5" font-family="Helvetica,sans-Serif" font-size="10.00">/__CARDEraseSector.s</text>
</a>
</g>
</g>
<!-- Node1&#45;&gt;Node21 -->
<g id="edge21" class="edge">
<title>Node1&#45;&gt;Node21</title>
<path fill="none" stroke="midnightblue" d="M2155.11,-130.09C2284.25,-126.26 2551.54,-115.5 2787.22,-87.06"/>
<polygon fill="midnightblue" stroke="midnightblue" points="2787.85,-90.51 2797.36,-85.82 2787,-83.56 2787.85,-90.51"/>
</g>
<!-- Node22 -->
<g id="node22" class="node">
<title>Node22</title>
<g id="a_node22"><a xlink:title=" ">
<polygon fill="white" stroke="#bfbfbf" points="2955.5,-56.5 2955.5,-86.5 3095.5,-86.5 3095.5,-56.5 2955.5,-56.5"/>
<text text-anchor="start" x="2963.5" y="-74.5" font-family="Helvetica,sans-Serif" font-size="10.00">asm/dolphin/card/CARDBios</text>
<text text-anchor="middle" x="3025.5" y="-63.5" font-family="Helvetica,sans-Serif" font-size="10.00">/CARDInit.s</text>
</a>
</g>
</g>
<!-- Node1&#45;&gt;Node22 -->
<g id="edge22" class="edge">
<title>Node1&#45;&gt;Node22</title>
<path fill="none" stroke="midnightblue" d="M2155.09,-131.35C2305.65,-129.36 2647.99,-121.25 2945.25,-87.04"/>
<polygon fill="midnightblue" stroke="midnightblue" points="2945.83,-90.49 2955.36,-85.86 2945.02,-83.54 2945.83,-90.49"/>
</g>
<!-- Node23 -->
<g id="node23" class="node">
<title>Node23</title>
<g id="a_node23"><a xlink:title=" ">
<polygon fill="white" stroke="#bfbfbf" points="3113.5,-56.5 3113.5,-86.5 3253.5,-86.5 3253.5,-56.5 3113.5,-56.5"/>
<text text-anchor="start" x="3121.5" y="-74.5" font-family="Helvetica,sans-Serif" font-size="10.00">asm/dolphin/card/CARDBios</text>
<text text-anchor="middle" x="3183.5" y="-63.5" font-family="Helvetica,sans-Serif" font-size="10.00">/__CARDGetFontEncode.s</text>
</a>
</g>
</g>
<!-- Node1&#45;&gt;Node23 -->
<g id="edge23" class="edge">
<title>Node1&#45;&gt;Node23</title>
<path fill="none" stroke="midnightblue" d="M2155.08,-132.24C2325.18,-131.97 2743.74,-127.02 3103.28,-87.02"/>
<polygon fill="midnightblue" stroke="midnightblue" points="3103.82,-90.49 3113.36,-85.89 3103.04,-83.53 3103.82,-90.49"/>
</g>
<!-- Node24 -->
<g id="node24" class="node">
<title>Node24</title>
<g id="a_node24"><a xlink:title=" ">
<polygon fill="white" stroke="#bfbfbf" points="3271.5,-56.5 3271.5,-86.5 3411.5,-86.5 3411.5,-56.5 3271.5,-56.5"/>
<text text-anchor="start" x="3279.5" y="-74.5" font-family="Helvetica,sans-Serif" font-size="10.00">asm/dolphin/card/CARDBios</text>
<text text-anchor="middle" x="3341.5" y="-63.5" font-family="Helvetica,sans-Serif" font-size="10.00">/__CARDSetDiskID.s</text>
</a>
</g>
</g>
<!-- Node1&#45;&gt;Node24 -->
<g id="edge24" class="edge">
<title>Node1&#45;&gt;Node24</title>
<path fill="none" stroke="midnightblue" d="M2155.27,-130.51C2379.82,-125.96 3027.51,-111.2 3261.22,-87"/>
<polygon fill="midnightblue" stroke="midnightblue" points="3261.8,-90.46 3271.37,-85.91 3261.05,-83.5 3261.8,-90.46"/>
</g>
<!-- Node25 -->
<g id="node25" class="node">
<title>Node25</title>
<g id="a_node25"><a xlink:title=" ">
<polygon fill="white" stroke="#bfbfbf" points="3429.5,-56.5 3429.5,-86.5 3569.5,-86.5 3569.5,-56.5 3429.5,-56.5"/>
<text text-anchor="start" x="3437.5" y="-74.5" font-family="Helvetica,sans-Serif" font-size="10.00">asm/dolphin/card/CARDBios</text>
<text text-anchor="middle" x="3499.5" y="-63.5" font-family="Helvetica,sans-Serif" font-size="10.00">/__CARDGetControlBlock.s</text>
</a>
</g>
</g>
<!-- Node1&#45;&gt;Node25 -->
<g id="edge25" class="edge">
<title>Node1&#45;&gt;Node25</title>
<path fill="none" stroke="midnightblue" d="M2155.35,-130.91C2400.14,-127.23 3153.3,-114.08 3419.35,-86.98"/>
<polygon fill="midnightblue" stroke="midnightblue" points="3419.79,-90.45 3429.37,-85.93 3419.06,-83.49 3419.79,-90.45"/>
</g>
<!-- Node26 -->
<g id="node26" class="node">
<title>Node26</title>
<g id="a_node26"><a xlink:title=" ">
<polygon fill="white" stroke="#bfbfbf" points="3587.5,-56.5 3587.5,-86.5 3727.5,-86.5 3727.5,-56.5 3587.5,-56.5"/>
<text text-anchor="start" x="3595.5" y="-74.5" font-family="Helvetica,sans-Serif" font-size="10.00">asm/dolphin/card/CARDBios</text>
<text text-anchor="middle" x="3657.5" y="-63.5" font-family="Helvetica,sans-Serif" font-size="10.00">/__CARDPutControlBlock.s</text>
</a>
</g>
</g>
<!-- Node1&#45;&gt;Node26 -->
<g id="edge26" class="edge">
<title>Node1&#45;&gt;Node26</title>
<path fill="none" stroke="midnightblue" d="M2155.01,-131.23C2418.41,-128.37 3278.73,-117 3577.41,-86.97"/>
<polygon fill="midnightblue" stroke="midnightblue" points="3577.78,-90.45 3587.37,-85.94 3577.06,-83.49 3577.78,-90.45"/>
</g>
<!-- Node27 -->
<g id="node27" class="node">
<title>Node27</title>
<g id="a_node27"><a xlink:title=" ">
<polygon fill="white" stroke="#bfbfbf" points="3745.5,-56.5 3745.5,-86.5 3885.5,-86.5 3885.5,-56.5 3745.5,-56.5"/>
<text text-anchor="start" x="3753.5" y="-74.5" font-family="Helvetica,sans-Serif" font-size="10.00">asm/dolphin/card/CARDBios</text>
<text text-anchor="middle" x="3815.5" y="-63.5" font-family="Helvetica,sans-Serif" font-size="10.00">/CARDFreeBlocks.s</text>
</a>
</g>
</g>
<!-- Node1&#45;&gt;Node27 -->
<g id="edge27" class="edge">
<title>Node1&#45;&gt;Node27</title>
<path fill="none" stroke="midnightblue" d="M2155.17,-131.49C2436.69,-129.37 3403.86,-119.92 3735.28,-86.98"/>
<polygon fill="midnightblue" stroke="midnightblue" points="3735.78,-90.45 3745.37,-85.95 3735.07,-83.49 3735.78,-90.45"/>
</g>
<!-- Node28 -->
<g id="node28" class="node">
<title>Node28</title>
<g id="a_node28"><a xlink:title=" ">
<polygon fill="white" stroke="#bfbfbf" points="3903.5,-56.5 3903.5,-86.5 4043.5,-86.5 4043.5,-56.5 3903.5,-56.5"/>
<text text-anchor="start" x="3911.5" y="-74.5" font-family="Helvetica,sans-Serif" font-size="10.00">asm/dolphin/card/CARDBios</text>
<text text-anchor="middle" x="3973.5" y="-63.5" font-family="Helvetica,sans-Serif" font-size="10.00">/__CARDSync.s</text>
</a>
</g>
</g>
<!-- Node1&#45;&gt;Node28 -->
<g id="edge28" class="edge">
<title>Node1&#45;&gt;Node28</title>
<path fill="none" stroke="midnightblue" d="M2155.22,-131.7C2453.94,-130.29 3529.23,-122.86 3893.33,-86.98"/>
<polygon fill="midnightblue" stroke="midnightblue" points="3893.77,-90.45 3903.37,-85.96 3893.07,-83.49 3893.77,-90.45"/>
</g>
<!-- Node29 -->
<g id="node29" class="node">
<title>Node29</title>
<g id="a_node29"><a xlink:title=" ">
<polygon fill="white" stroke="#bfbfbf" points="4061.5,-56.5 4061.5,-86.5 4201.5,-86.5 4201.5,-56.5 4061.5,-56.5"/>
<text text-anchor="start" x="4069.5" y="-74.5" font-family="Helvetica,sans-Serif" font-size="10.00">asm/dolphin/card/CARDBios</text>
<text text-anchor="middle" x="4131.5" y="-63.5" font-family="Helvetica,sans-Serif" font-size="10.00">/CARDBios__OnReset.s</text>
</a>
</g>
</g>
<!-- Node1&#45;&gt;Node29 -->
<g id="edge29" class="edge">
<title>Node1&#45;&gt;Node29</title>
<path fill="none" stroke="midnightblue" d="M2155.12,-131.88C2470.07,-131.13 3654.27,-125.82 4051.28,-86.98"/>
<polygon fill="midnightblue" stroke="midnightblue" points="4051.77,-90.45 4061.37,-85.97 4051.07,-83.48 4051.77,-90.45"/>
</g>
<!-- Node30 -->
<g id="node30" class="node">
<title>Node30</title>
<g id="a_node30"><a xlink:title=" ">
<polygon fill="white" stroke="#bfbfbf" points="4219.5,-56.5 4219.5,-86.5 4359.5,-86.5 4359.5,-56.5 4219.5,-56.5"/>
<text text-anchor="start" x="4227.5" y="-74.5" font-family="Helvetica,sans-Serif" font-size="10.00">asm/dolphin/card/CARDBios</text>
<text text-anchor="middle" x="4289.5" y="-63.5" font-family="Helvetica,sans-Serif" font-size="10.00">/CARDGetFastMode.s</text>
</a>
</g>
</g>
<!-- Node1&#45;&gt;Node30 -->
<g id="edge30" class="edge">
<title>Node1&#45;&gt;Node30</title>
<path fill="none" stroke="midnightblue" d="M2155.05,-132.03C2485.65,-131.91 3779.54,-128.78 4209.38,-86.97"/>
<polygon fill="midnightblue" stroke="midnightblue" points="4209.77,-90.45 4219.37,-85.97 4209.07,-83.48 4209.77,-90.45"/>
</g>
<!-- Node4&#45;&gt;Node3 -->
<g id="edge4" class="edge">
<title>Node4&#45;&gt;Node3</title>
<path fill="none" stroke="midnightblue" d="M173.91,-61.98C167.01,-53.05 156,-38.81 147.37,-27.64"/>
<polygon fill="midnightblue" stroke="midnightblue" points="149.96,-25.28 141.08,-19.51 144.43,-29.56 149.96,-25.28"/>
</g>
</g>
</svg>
