<?xml version="1.0" encoding="UTF-8" standalone="no"?>
<!DOCTYPE svg PUBLIC "-//W3C//DTD SVG 1.1//EN"
 "http://www.w3.org/Graphics/SVG/1.1/DTD/svg11.dtd">
<!-- Generated by graphviz version 2.47.0 (20210316.2052)
 -->
<!-- Title: src/d/a/d_a_obj.cpp Pages: 1 -->
<svg width="2398pt" height="162pt"
 viewBox="0.00 0.00 2398.00 162.00" xmlns="http://www.w3.org/2000/svg" xmlns:xlink="http://www.w3.org/1999/xlink">
<g id="graph0" class="graph" transform="scale(1 1) rotate(0) translate(4 158)">
<title>src/d/a/d_a_obj.cpp</title>
<polygon fill="white" stroke="transparent" points="-4,4 -4,-158 2394,-158 2394,4 -4,4"/>
<!-- Node1 -->
<g id="node1" class="node">
<title>Node1</title>
<g id="a_node1"><a xlink:title=" ">
<polygon fill="#bfbfbf" stroke="black" points="1028,-134.5 1028,-153.5 1129,-153.5 1129,-134.5 1028,-134.5"/>
<text text-anchor="middle" x="1078.5" y="-141.5" font-family="Helvetica,sans-Serif" font-size="10.00">src/d/a/d_a_obj.cpp</text>
</a>
</g>
</g>
<!-- Node2 -->
<g id="node2" class="node">
<title>Node2</title>
<g id="a_node2"><a xlink:href="dol2asm_8h.html" target="_top" xlink:title=" ">
<polygon fill="white" stroke="black" points="0,-67.5 0,-86.5 61,-86.5 61,-67.5 0,-67.5"/>
<text text-anchor="middle" x="30.5" y="-74.5" font-family="Helvetica,sans-Serif" font-size="10.00">dol2asm.h</text>
</a>
</g>
</g>
<!-- Node1&#45;&gt;Node2 -->
<g id="edge1" class="edge">
<title>Node1&#45;&gt;Node2</title>
<path fill="none" stroke="midnightblue" d="M1027.96,-143.21C850.9,-143.55 259.36,-141.35 75.5,-98 68.73,-96.4 61.72,-93.8 55.3,-90.99"/>
<polygon fill="midnightblue" stroke="midnightblue" points="56.36,-87.63 45.82,-86.53 53.38,-93.96 56.36,-87.63"/>
</g>
<!-- Node3 -->
<g id="node3" class="node">
<title>Node3</title>
<g id="a_node3"><a xlink:href="types_8h.html" target="_top" xlink:title=" ">
<polygon fill="white" stroke="black" points="81,-0.5 81,-19.5 162,-19.5 162,-0.5 81,-0.5"/>
<text text-anchor="middle" x="121.5" y="-7.5" font-family="Helvetica,sans-Serif" font-size="10.00">dolphin/types.h</text>
</a>
</g>
</g>
<!-- Node1&#45;&gt;Node3 -->
<g id="edge2" class="edge">
<title>Node1&#45;&gt;Node3</title>
<path fill="none" stroke="midnightblue" d="M1027.92,-142.57C833.09,-140.65 140.5,-131.51 108.5,-98 90.9,-79.56 101.77,-48.19 111.48,-28.58"/>
<polygon fill="midnightblue" stroke="midnightblue" points="114.68,-30 116.29,-19.53 108.5,-26.72 114.68,-30"/>
</g>
<!-- Node4 -->
<g id="node4" class="node">
<title>Node4</title>
<g id="a_node4"><a xlink:href="d__a__obj_8h.html" target="_top" xlink:title=" ">
<polygon fill="white" stroke="black" points="117.5,-67.5 117.5,-86.5 191.5,-86.5 191.5,-67.5 117.5,-67.5"/>
<text text-anchor="middle" x="154.5" y="-74.5" font-family="Helvetica,sans-Serif" font-size="10.00">d/a/d_a_obj.h</text>
</a>
</g>
</g>
<!-- Node1&#45;&gt;Node4 -->
<g id="edge3" class="edge">
<title>Node1&#45;&gt;Node4</title>
<path fill="none" stroke="midnightblue" d="M1027.98,-142.72C865.91,-141.47 360.36,-134.66 201.5,-98 194.42,-96.37 187.05,-93.73 180.31,-90.9"/>
<polygon fill="midnightblue" stroke="midnightblue" points="181.54,-87.61 170.99,-86.7 178.67,-94 181.54,-87.61"/>
</g>
<!-- Node5 -->
<g id="node5" class="node">
<title>Node5</title>
<g id="a_node5"><a xlink:title=" ">
<polygon fill="white" stroke="#bfbfbf" points="210,-56.5 210,-97.5 363,-97.5 363,-56.5 210,-56.5"/>
<text text-anchor="start" x="218" y="-85.5" font-family="Helvetica,sans-Serif" font-size="10.00">asm/d/a/d_a_obj/eff</text>
<text text-anchor="start" x="218" y="-74.5" font-family="Helvetica,sans-Serif" font-size="10.00">_break_tsubo__5daObjFP10fop</text>
<text text-anchor="middle" x="286.5" y="-63.5" font-family="Helvetica,sans-Serif" font-size="10.00">Ac_ac_c4cXyzi.s</text>
</a>
</g>
</g>
<!-- Node1&#45;&gt;Node5 -->
<g id="edge5" class="edge">
<title>Node1&#45;&gt;Node5</title>
<path fill="none" stroke="midnightblue" d="M1027.69,-142.63C912.74,-141.16 623.88,-134.03 373.3,-97.98"/>
<polygon fill="midnightblue" stroke="midnightblue" points="373.67,-94.49 363.27,-96.52 372.66,-101.42 373.67,-94.49"/>
</g>
<!-- Node6 -->
<g id="node6" class="node">
<title>Node6</title>
<g id="a_node6"><a xlink:title=" ">
<polygon fill="white" stroke="#bfbfbf" points="381.5,-56.5 381.5,-97.5 555.5,-97.5 555.5,-56.5 381.5,-56.5"/>
<text text-anchor="start" x="389.5" y="-85.5" font-family="Helvetica,sans-Serif" font-size="10.00">asm/d/a/d_a_obj/make</text>
<text text-anchor="start" x="389.5" y="-74.5" font-family="Helvetica,sans-Serif" font-size="10.00">_eff_break_kotubo__5daObjFP10fop</text>
<text text-anchor="middle" x="468.5" y="-63.5" font-family="Helvetica,sans-Serif" font-size="10.00">Ac_ac_c.s</text>
</a>
</g>
</g>
<!-- Node1&#45;&gt;Node6 -->
<g id="edge6" class="edge">
<title>Node1&#45;&gt;Node6</title>
<path fill="none" stroke="midnightblue" d="M1027.67,-140.5C936.99,-135.61 741.24,-123.12 565.6,-97.91"/>
<polygon fill="midnightblue" stroke="midnightblue" points="566.06,-94.44 555.66,-96.47 565.06,-101.37 566.06,-94.44"/>
</g>
<!-- Node7 -->
<g id="node7" class="node">
<title>Node7</title>
<g id="a_node7"><a xlink:title=" ">
<polygon fill="white" stroke="#bfbfbf" points="574,-56.5 574,-97.5 753,-97.5 753,-56.5 574,-56.5"/>
<text text-anchor="start" x="582" y="-85.5" font-family="Helvetica,sans-Serif" font-size="10.00">asm/d/a/d_a_obj/make</text>
<text text-anchor="start" x="582" y="-74.5" font-family="Helvetica,sans-Serif" font-size="10.00">_eff_break_kotubo2__5daObjFP10fop</text>
<text text-anchor="middle" x="663.5" y="-63.5" font-family="Helvetica,sans-Serif" font-size="10.00">Ac_ac_c.s</text>
</a>
</g>
</g>
<!-- Node1&#45;&gt;Node7 -->
<g id="edge7" class="edge">
<title>Node1&#45;&gt;Node7</title>
<path fill="none" stroke="midnightblue" d="M1027.73,-136.69C967.2,-128.96 862.75,-114.98 762.98,-98.03"/>
<polygon fill="midnightblue" stroke="midnightblue" points="763.48,-94.57 753.04,-96.33 762.3,-101.47 763.48,-94.57"/>
</g>
<!-- Node8 -->
<g id="node8" class="node">
<title>Node8</title>
<g id="a_node8"><a xlink:title=" ">
<polygon fill="white" stroke="#bfbfbf" points="771.5,-56.5 771.5,-97.5 911.5,-97.5 911.5,-56.5 771.5,-56.5"/>
<text text-anchor="start" x="779.5" y="-85.5" font-family="Helvetica,sans-Serif" font-size="10.00">asm/d/a/d_a_obj/make</text>
<text text-anchor="start" x="779.5" y="-74.5" font-family="Helvetica,sans-Serif" font-size="10.00">_eff_break_gm_kotubo</text>
<text text-anchor="middle" x="841.5" y="-63.5" font-family="Helvetica,sans-Serif" font-size="10.00">__5daObjFP10fopAc_ac_c.s</text>
</a>
</g>
</g>
<!-- Node1&#45;&gt;Node8 -->
<g id="edge8" class="edge">
<title>Node1&#45;&gt;Node8</title>
<path fill="none" stroke="midnightblue" d="M1047.03,-134.37C1015.14,-125.62 964.5,-111.74 921.48,-99.93"/>
<polygon fill="midnightblue" stroke="midnightblue" points="922.14,-96.49 911.57,-97.22 920.29,-103.24 922.14,-96.49"/>
</g>
<!-- Node9 -->
<g id="node9" class="node">
<title>Node9</title>
<g id="a_node9"><a xlink:title=" ">
<polygon fill="white" stroke="#bfbfbf" points="929.5,-56.5 929.5,-97.5 1069.5,-97.5 1069.5,-56.5 929.5,-56.5"/>
<text text-anchor="start" x="937.5" y="-85.5" font-family="Helvetica,sans-Serif" font-size="10.00">asm/d/a/d_a_obj/make</text>
<text text-anchor="start" x="937.5" y="-74.5" font-family="Helvetica,sans-Serif" font-size="10.00">_eff_break_gm_ootubo</text>
<text text-anchor="middle" x="999.5" y="-63.5" font-family="Helvetica,sans-Serif" font-size="10.00">__5daObjFP10fopAc_ac_c.s</text>
</a>
</g>
</g>
<!-- Node1&#45;&gt;Node9 -->
<g id="edge9" class="edge">
<title>Node1&#45;&gt;Node9</title>
<path fill="none" stroke="midnightblue" d="M1067.85,-134.23C1058.43,-126.49 1044.2,-114.78 1031.16,-104.05"/>
<polygon fill="midnightblue" stroke="midnightblue" points="1033.2,-101.19 1023.25,-97.54 1028.75,-106.6 1033.2,-101.19"/>
</g>
<!-- Node10 -->
<g id="node10" class="node">
<title>Node10</title>
<g id="a_node10"><a xlink:title=" ">
<polygon fill="white" stroke="#bfbfbf" points="1087.5,-56.5 1087.5,-97.5 1229.5,-97.5 1229.5,-56.5 1087.5,-56.5"/>
<text text-anchor="start" x="1095.5" y="-85.5" font-family="Helvetica,sans-Serif" font-size="10.00">asm/d/a/d_a_obj/posMoveF</text>
<text text-anchor="start" x="1095.5" y="-74.5" font-family="Helvetica,sans-Serif" font-size="10.00">_stream__5daObjFP10fopAc</text>
<text text-anchor="middle" x="1158.5" y="-63.5" font-family="Helvetica,sans-Serif" font-size="10.00">_ac_cPC4cXyzPC4cXyzff.s</text>
</a>
</g>
</g>
<!-- Node1&#45;&gt;Node10 -->
<g id="edge10" class="edge">
<title>Node1&#45;&gt;Node10</title>
<path fill="none" stroke="midnightblue" d="M1089.29,-134.23C1098.83,-126.49 1113.23,-114.78 1126.44,-104.05"/>
<polygon fill="midnightblue" stroke="midnightblue" points="1128.89,-106.56 1134.45,-97.54 1124.48,-101.13 1128.89,-106.56"/>
</g>
<!-- Node11 -->
<g id="node11" class="node">
<title>Node11</title>
<g id="a_node11"><a xlink:title=" ">
<polygon fill="white" stroke="#bfbfbf" points="1247.5,-62 1247.5,-92 1357.5,-92 1357.5,-62 1247.5,-62"/>
<text text-anchor="start" x="1255.5" y="-80" font-family="Helvetica,sans-Serif" font-size="10.00">asm/d/a/d_a_obj/func</text>
<text text-anchor="middle" x="1302.5" y="-69" font-family="Helvetica,sans-Serif" font-size="10.00">_800373F0.s</text>
</a>
</g>
</g>
<!-- Node1&#45;&gt;Node11 -->
<g id="edge11" class="edge">
<title>Node1&#45;&gt;Node11</title>
<path fill="none" stroke="midnightblue" d="M1109.85,-134.47C1142.16,-125.61 1193.96,-111.22 1238.5,-98 1241.78,-97.03 1245.15,-96.01 1248.55,-94.98"/>
<polygon fill="midnightblue" stroke="midnightblue" points="1249.6,-98.32 1258.14,-92.04 1247.55,-91.63 1249.6,-98.32"/>
</g>
<!-- Node12 -->
<g id="node12" class="node">
<title>Node12</title>
<g id="a_node12"><a xlink:title=" ">
<polygon fill="white" stroke="#bfbfbf" points="1375.5,-62 1375.5,-92 1485.5,-92 1485.5,-62 1375.5,-62"/>
<text text-anchor="start" x="1383.5" y="-80" font-family="Helvetica,sans-Serif" font-size="10.00">asm/d/a/d_a_obj/func</text>
<text text-anchor="middle" x="1430.5" y="-69" font-family="Helvetica,sans-Serif" font-size="10.00">_800374EC.s</text>
</a>
</g>
</g>
<!-- Node1&#45;&gt;Node12 -->
<g id="edge12" class="edge">
<title>Node1&#45;&gt;Node12</title>
<path fill="none" stroke="midnightblue" d="M1129.14,-137.39C1187,-130.45 1284.32,-117.15 1366.5,-98 1370.58,-97.05 1374.78,-95.97 1378.98,-94.82"/>
<polygon fill="midnightblue" stroke="midnightblue" points="1380.09,-98.14 1388.74,-92.02 1378.17,-91.41 1380.09,-98.14"/>
</g>
<!-- Node13 -->
<g id="node13" class="node">
<title>Node13</title>
<g id="a_node13"><a xlink:title=" ">
<polygon fill="white" stroke="#bfbfbf" points="1503.5,-56.5 1503.5,-97.5 1723.5,-97.5 1723.5,-56.5 1503.5,-56.5"/>
<text text-anchor="start" x="1511.5" y="-85.5" font-family="Helvetica,sans-Serif" font-size="10.00">asm/d/a/d_a_obj/posMoveF</text>
<text text-anchor="start" x="1511.5" y="-74.5" font-family="Helvetica,sans-Serif" font-size="10.00">_grade__5daObjFP10fopAc</text>
<text text-anchor="middle" x="1613.5" y="-63.5" font-family="Helvetica,sans-Serif" font-size="10.00">_ac_cPC4cXyzPC4cXyzffPC4cXyzffPC4cXyz.s</text>
</a>
</g>
</g>
<!-- Node1&#45;&gt;Node13 -->
<g id="edge13" class="edge">
<title>Node1&#45;&gt;Node13</title>
<path fill="none" stroke="midnightblue" d="M1129.21,-138.48C1205.76,-131.45 1355.62,-116.86 1493.03,-98.16"/>
<polygon fill="midnightblue" stroke="midnightblue" points="1493.89,-101.58 1503.32,-96.75 1492.93,-94.64 1493.89,-101.58"/>
</g>
<!-- Node14 -->
<g id="node14" class="node">
<title>Node14</title>
<g id="a_node14"><a xlink:title=" ">
<polygon fill="white" stroke="#bfbfbf" points="1741.5,-56.5 1741.5,-97.5 1915.5,-97.5 1915.5,-56.5 1741.5,-56.5"/>
<text text-anchor="start" x="1749.5" y="-85.5" font-family="Helvetica,sans-Serif" font-size="10.00">asm/d/a/d_a_obj/quat</text>
<text text-anchor="start" x="1749.5" y="-74.5" font-family="Helvetica,sans-Serif" font-size="10.00">_rotBaseY__5daObjFP10Quaternion</text>
<text text-anchor="middle" x="1828.5" y="-63.5" font-family="Helvetica,sans-Serif" font-size="10.00">RC4cXyz.s</text>
</a>
</g>
</g>
<!-- Node1&#45;&gt;Node14 -->
<g id="edge14" class="edge">
<title>Node1&#45;&gt;Node14</title>
<path fill="none" stroke="midnightblue" d="M1129.21,-141.87C1237.83,-138.94 1501.12,-129.12 1731.23,-98.07"/>
<polygon fill="midnightblue" stroke="midnightblue" points="1732.04,-101.49 1741.47,-96.67 1731.09,-94.56 1732.04,-101.49"/>
</g>
<!-- Node15 -->
<g id="node15" class="node">
<title>Node15</title>
<g id="a_node15"><a xlink:title=" ">
<polygon fill="white" stroke="#bfbfbf" points="1933.5,-56.5 1933.5,-97.5 2087.5,-97.5 2087.5,-56.5 1933.5,-56.5"/>
<text text-anchor="start" x="1941.5" y="-85.5" font-family="Helvetica,sans-Serif" font-size="10.00">asm/d/a/d_a_obj/HitSeStart</text>
<text text-anchor="start" x="1941.5" y="-74.5" font-family="Helvetica,sans-Serif" font-size="10.00">__5daObjFPC4cXyziPC12dCcD</text>
<text text-anchor="middle" x="2010.5" y="-63.5" font-family="Helvetica,sans-Serif" font-size="10.00">_GObjInfUl.s</text>
</a>
</g>
</g>
<!-- Node1&#45;&gt;Node15 -->
<g id="edge15" class="edge">
<title>Node1&#45;&gt;Node15</title>
<path fill="none" stroke="midnightblue" d="M1129.34,-143.39C1259.87,-143.73 1617.44,-140.49 1923.32,-98.03"/>
<polygon fill="midnightblue" stroke="midnightblue" points="1923.85,-101.49 1933.27,-96.63 1922.88,-94.56 1923.85,-101.49"/>
</g>
<!-- Node16 -->
<g id="node16" class="node">
<title>Node16</title>
<g id="a_node16"><a xlink:title=" ">
<polygon fill="white" stroke="#bfbfbf" points="2106,-62 2106,-92 2239,-92 2239,-62 2106,-62"/>
<text text-anchor="start" x="2114" y="-80" font-family="Helvetica,sans-Serif" font-size="10.00">asm/d/a/d_a_obj/GetCoCP</text>
<text text-anchor="middle" x="2172.5" y="-69" font-family="Helvetica,sans-Serif" font-size="10.00">__12cCcD_CylAttrFv.s</text>
</a>
</g>
</g>
<!-- Node1&#45;&gt;Node16 -->
<g id="edge16" class="edge">
<title>Node1&#45;&gt;Node16</title>
<path fill="none" stroke="midnightblue" d="M1129.28,-142.19C1307.92,-139.1 1906.84,-126.81 2096.5,-98 2102.7,-97.06 2109.12,-95.81 2115.48,-94.4"/>
<polygon fill="midnightblue" stroke="midnightblue" points="2116.46,-97.76 2125.39,-92.06 2114.86,-90.95 2116.46,-97.76"/>
</g>
<!-- Node17 -->
<g id="node17" class="node">
<title>Node17</title>
<g id="a_node17"><a xlink:title=" ">
<polygon fill="white" stroke="#bfbfbf" points="2257,-62 2257,-92 2390,-92 2390,-62 2257,-62"/>
<text text-anchor="start" x="2265" y="-80" font-family="Helvetica,sans-Serif" font-size="10.00">asm/d/a/d_a_obj/GetCoCP</text>
<text text-anchor="middle" x="2323.5" y="-69" font-family="Helvetica,sans-Serif" font-size="10.00">__12cCcD_SphAttrFv.s</text>
</a>
</g>
</g>
<!-- Node1&#45;&gt;Node17 -->
<g id="edge17" class="edge">
<title>Node1&#45;&gt;Node17</title>
<path fill="none" stroke="midnightblue" d="M1129.28,-142.55C1324.64,-140.57 2027.77,-131.25 2248.5,-98 2254.71,-97.06 2261.14,-95.81 2267.51,-94.38"/>
<polygon fill="midnightblue" stroke="midnightblue" points="2268.52,-97.73 2277.43,-92.01 2266.89,-90.93 2268.52,-97.73"/>
</g>
<!-- Node4&#45;&gt;Node3 -->
<g id="edge4" class="edge">
<title>Node4&#45;&gt;Node3</title>
<path fill="none" stroke="midnightblue" d="M150.05,-67.23C145.05,-57.39 136.81,-41.16 130.47,-28.66"/>
<polygon fill="midnightblue" stroke="midnightblue" points="133.53,-26.96 125.88,-19.63 127.29,-30.13 133.53,-26.96"/>
</g>
</g>
</svg>
