<?xml version="1.0" encoding="UTF-8" standalone="no"?>
<!DOCTYPE svg PUBLIC "-//W3C//DTD SVG 1.1//EN"
 "http://www.w3.org/Graphics/SVG/1.1/DTD/svg11.dtd">
<!-- Generated by graphviz version 2.47.0 (20210316.2052)
 -->
<!-- Title: src/d/a/d_a_shop_item_static.cpp Pages: 1 -->
<svg width="804pt" height="173pt"
 viewBox="0.00 0.00 804.00 173.00" xmlns="http://www.w3.org/2000/svg" xmlns:xlink="http://www.w3.org/1999/xlink">
<g id="graph0" class="graph" transform="scale(1 1) rotate(0) translate(4 169)">
<title>src/d/a/d_a_shop_item_static.cpp</title>
<polygon fill="white" stroke="transparent" points="-4,4 -4,-169 800,-169 800,4 -4,4"/>
<!-- Node1 -->
<g id="node1" class="node">
<title>Node1</title>
<g id="a_node1"><a xlink:title=" ">
<polygon fill="#bfbfbf" stroke="black" points="208.5,-134.5 208.5,-164.5 324.5,-164.5 324.5,-134.5 208.5,-134.5"/>
<text text-anchor="start" x="216.5" y="-152.5" font-family="Helvetica,sans-Serif" font-size="10.00">src/d/a/d_a_shop_item</text>
<text text-anchor="middle" x="266.5" y="-141.5" font-family="Helvetica,sans-Serif" font-size="10.00">_static.cpp</text>
</a>
</g>
</g>
<!-- Node2 -->
<g id="node2" class="node">
<title>Node2</title>
<g id="a_node2"><a xlink:href="dol2asm_8h.html" target="_top" xlink:title=" ">
<polygon fill="white" stroke="black" points="0,-67.5 0,-86.5 61,-86.5 61,-67.5 0,-67.5"/>
<text text-anchor="middle" x="30.5" y="-74.5" font-family="Helvetica,sans-Serif" font-size="10.00">dol2asm.h</text>
</a>
</g>
</g>
<!-- Node1&#45;&gt;Node2 -->
<g id="edge1" class="edge">
<title>Node1&#45;&gt;Node2</title>
<path fill="none" stroke="midnightblue" d="M208.1,-135.62C169.91,-126.57 119.18,-113.37 75.5,-98 69.61,-95.93 63.42,-93.41 57.58,-90.87"/>
<polygon fill="midnightblue" stroke="midnightblue" points="58.75,-87.56 48.19,-86.65 55.87,-93.94 58.75,-87.56"/>
</g>
<!-- Node3 -->
<g id="node3" class="node">
<title>Node3</title>
<g id="a_node3"><a xlink:href="types_8h.html" target="_top" xlink:title=" ">
<polygon fill="white" stroke="black" points="97,-0.5 97,-19.5 178,-19.5 178,-0.5 97,-0.5"/>
<text text-anchor="middle" x="137.5" y="-7.5" font-family="Helvetica,sans-Serif" font-size="10.00">dolphin/types.h</text>
</a>
</g>
</g>
<!-- Node1&#45;&gt;Node3 -->
<g id="edge2" class="edge">
<title>Node1&#45;&gt;Node3</title>
<path fill="none" stroke="midnightblue" d="M208.16,-146.2C173.17,-141.45 131.17,-129.05 108.5,-98 92.93,-76.67 109.71,-46.46 123.45,-27.83"/>
<polygon fill="midnightblue" stroke="midnightblue" points="126.4,-29.74 129.8,-19.7 120.89,-25.43 126.4,-29.74"/>
</g>
<!-- Node4 -->
<g id="node4" class="node">
<title>Node4</title>
<g id="a_node4"><a xlink:href="d__a__shop__item__static_8h.html" target="_top" xlink:title=" ">
<polygon fill="white" stroke="black" points="117.5,-67.5 117.5,-86.5 253.5,-86.5 253.5,-67.5 117.5,-67.5"/>
<text text-anchor="middle" x="185.5" y="-74.5" font-family="Helvetica,sans-Serif" font-size="10.00">d/a/d_a_shop_item_static.h</text>
</a>
</g>
</g>
<!-- Node1&#45;&gt;Node4 -->
<g id="edge3" class="edge">
<title>Node1&#45;&gt;Node4</title>
<path fill="none" stroke="midnightblue" d="M250.11,-134.23C236.63,-122.5 217.56,-105.9 203.63,-93.78"/>
<polygon fill="midnightblue" stroke="midnightblue" points="205.56,-90.82 195.72,-86.89 200.96,-96.1 205.56,-90.82"/>
</g>
<!-- Node5 -->
<g id="node5" class="node">
<title>Node5</title>
<g id="a_node5"><a xlink:title=" ">
<polygon fill="white" stroke="#bfbfbf" points="271.5,-56.5 271.5,-97.5 423.5,-97.5 423.5,-56.5 271.5,-56.5"/>
<text text-anchor="start" x="279.5" y="-85.5" font-family="Helvetica,sans-Serif" font-size="10.00">asm/d/a/d_a_shop_item</text>
<text text-anchor="start" x="279.5" y="-74.5" font-family="Helvetica,sans-Serif" font-size="10.00">_static/getRotateP__12daShop</text>
<text text-anchor="middle" x="347.5" y="-63.5" font-family="Helvetica,sans-Serif" font-size="10.00">Item_cFv.s</text>
</a>
</g>
</g>
<!-- Node1&#45;&gt;Node5 -->
<g id="edge5" class="edge">
<title>Node1&#45;&gt;Node5</title>
<path fill="none" stroke="midnightblue" d="M282.89,-134.23C292.73,-125.67 305.56,-114.5 317.19,-104.38"/>
<polygon fill="midnightblue" stroke="midnightblue" points="319.75,-106.79 324.99,-97.59 315.15,-101.51 319.75,-106.79"/>
</g>
<!-- Node6 -->
<g id="node6" class="node">
<title>Node6</title>
<g id="a_node6"><a xlink:title=" ">
<polygon fill="white" stroke="#bfbfbf" points="442,-62 442,-92 631,-92 631,-62 442,-62"/>
<text text-anchor="start" x="450" y="-80" font-family="Helvetica,sans-Serif" font-size="10.00">asm/d/a/d_a_shop_item</text>
<text text-anchor="middle" x="536.5" y="-69" font-family="Helvetica,sans-Serif" font-size="10.00">_static/getPosP__12daShopItem_cFv.s</text>
</a>
</g>
</g>
<!-- Node1&#45;&gt;Node6 -->
<g id="edge6" class="edge">
<title>Node1&#45;&gt;Node6</title>
<path fill="none" stroke="midnightblue" d="M320.17,-134.49C364.01,-123.04 426.1,-106.83 472.52,-94.71"/>
<polygon fill="midnightblue" stroke="midnightblue" points="473.68,-98.02 482.47,-92.11 471.91,-91.25 473.68,-98.02"/>
</g>
<!-- Node7 -->
<g id="node7" class="node">
<title>Node7</title>
<g id="a_node7"><a xlink:title=" ">
<polygon fill="white" stroke="#bfbfbf" points="649,-56.5 649,-97.5 796,-97.5 796,-56.5 649,-56.5"/>
<text text-anchor="start" x="657" y="-85.5" font-family="Helvetica,sans-Serif" font-size="10.00">asm/d/a/d_a_shop_item</text>
<text text-anchor="start" x="657" y="-74.5" font-family="Helvetica,sans-Serif" font-size="10.00">_static/CheckShopItemCreate</text>
<text text-anchor="middle" x="722.5" y="-63.5" font-family="Helvetica,sans-Serif" font-size="10.00">Heap__FP10fopAc_ac_c.s</text>
</a>
</g>
</g>
<!-- Node1&#45;&gt;Node7 -->
<g id="edge7" class="edge">
<title>Node1&#45;&gt;Node7</title>
<path fill="none" stroke="midnightblue" d="M324.79,-142.55C396.53,-134.8 522.23,-119.83 638.67,-98.26"/>
<polygon fill="midnightblue" stroke="midnightblue" points="639.64,-101.64 648.82,-96.36 638.35,-94.76 639.64,-101.64"/>
</g>
<!-- Node4&#45;&gt;Node3 -->
<g id="edge4" class="edge">
<title>Node4&#45;&gt;Node3</title>
<path fill="none" stroke="midnightblue" d="M179.03,-67.23C171.61,-57.2 159.3,-40.51 150,-27.92"/>
<polygon fill="midnightblue" stroke="midnightblue" points="152.63,-25.59 143.87,-19.63 147,-29.75 152.63,-25.59"/>
</g>
</g>
</svg>
