<?xml version="1.0" encoding="UTF-8" standalone="no"?>
<!DOCTYPE svg PUBLIC "-//W3C//DTD SVG 1.1//EN"
 "http://www.w3.org/Graphics/SVG/1.1/DTD/svg11.dtd">
<!-- Generated by graphviz version 2.47.0 (20210316.2052)
 -->
<!-- Title: src/d/a/d_a_horse_static.cpp Pages: 1 -->
<!--zoomable 162 -->
<svg id="main" version="1.1" xmlns="http://www.w3.org/2000/svg" xmlns:xlink="http://www.w3.org/1999/xlink" xml:space="preserve" onload="init(evt)">
<style type="text/css"><![CDATA[
.edge:hover path { stroke: red; }
.edge:hover polygon { stroke: red; fill: red; }
]]></style>
<script type="text/javascript"><![CDATA[
var edges = document.getElementsByTagName('g');
if (edges && edges.length) {
  for (var i=0;i<edges.length;i++) {
    if (edges[i].id.substr(0,4)=='edge') {
      edges[i].setAttribute('class','edge');
    }
  }
}
]]></script>
        <defs>
                <circle id="rim" cx="0" cy="0" r="7"/>
                <circle id="rim2" cx="0" cy="0" r="3.5"/>
                <g id="zoomPlus">
                        <use xlink:href="#rim" fill="#404040">
                                <set attributeName="fill" to="#808080" begin="zoomplus.mouseover" end="zoomplus.mouseout"/>
                        </use>
                        <path d="M-4,0h8M0,-4v8" fill="none" stroke="white" stroke-width="1.5" pointer-events="none"/>
                </g>
                <g id="zoomMin">
                        <use xlink:href="#rim" fill="#404040">
                                <set attributeName="fill" to="#808080" begin="zoomminus.mouseover" end="zoomminus.mouseout"/>
                        </use>
                        <path d="M-4,0h8" fill="none" stroke="white" stroke-width="1.5" pointer-events="none"/>
                </g>
                <g id="dirArrow">
                        <path fill="none" stroke="white" stroke-width="1.5" d="M0,-3.0v7 M-2.5,-0.5L0,-3.0L2.5,-0.5"/>
                </g>
               <g id="resetDef">
                       <use xlink:href="#rim2" fill="#404040">
                               <set attributeName="fill" to="#808080" begin="reset.mouseover" end="reset.mouseout"/>
                       </use>
               </g>
        </defs>

<script type="text/javascript">
var viewWidth = 1356;
var viewHeight = 162;
var sectionId = 'dynsection-0';
</script>
<script xlink:href="svgpan.js"/>
<svg id="graph" class="graph">
<g id="viewport">
<title>src/d/a/d_a_horse_static.cpp</title>
<polygon fill="white" stroke="transparent" points="-4,4 -4,-158 1351.5,-158 1351.5,4 -4,4"/>
<!-- Node1 -->
<g id="node1" class="node">
<title>Node1</title>
<g id="a_node1"><a xlink:title=" ">
<polygon fill="#bfbfbf" stroke="black" points="492.5,-134.5 492.5,-153.5 634.5,-153.5 634.5,-134.5 492.5,-134.5"/>
<text text-anchor="middle" x="563.5" y="-141.5" font-family="Helvetica,sans-Serif" font-size="10.00">src/d/a/d_a_horse_static.cpp</text>
</a>
</g>
</g>
<!-- Node2 -->
<g id="node2" class="node">
<title>Node2</title>
<g id="a_node2"><a xlink:href="dol2asm_8h.html" target="_top" xlink:title=" ">
<polygon fill="white" stroke="black" points="0,-67.5 0,-86.5 61,-86.5 61,-67.5 0,-67.5"/>
<text text-anchor="middle" x="30.5" y="-74.5" font-family="Helvetica,sans-Serif" font-size="10.00">dol2asm.h</text>
</a>
</g>
</g>
<!-- Node1&#45;&gt;Node2 -->
<g id="edge1" class="edge">
<title>Node1&#45;&gt;Node2</title>
<path fill="none" stroke="midnightblue" d="M492.36,-143.63C396.22,-142.86 220.19,-135.73 75.5,-98 68.88,-96.27 61.99,-93.67 55.66,-90.91"/>
<polygon fill="midnightblue" stroke="midnightblue" points="56.83,-87.59 46.29,-86.54 53.87,-93.93 56.83,-87.59"/>
</g>
<!-- Node3 -->
<g id="node3" class="node">
<title>Node3</title>
<g id="a_node3"><a xlink:href="types_8h.html" target="_top" xlink:title=" ">
<polygon fill="white" stroke="black" points="92,-0.5 92,-19.5 173,-19.5 173,-0.5 92,-0.5"/>
<text text-anchor="middle" x="132.5" y="-7.5" font-family="Helvetica,sans-Serif" font-size="10.00">dolphin/types.h</text>
</a>
</g>
</g>
<!-- Node1&#45;&gt;Node3 -->
<g id="edge2" class="edge">
<title>Node1&#45;&gt;Node3</title>
<path fill="none" stroke="midnightblue" d="M492.13,-141.08C370.73,-137.08 134.66,-125.77 109.5,-98 91.92,-78.6 107.21,-47.32 119.87,-28.02"/>
<polygon fill="midnightblue" stroke="midnightblue" points="122.88,-29.83 125.72,-19.62 117.14,-25.83 122.88,-29.83"/>
</g>
<!-- Node4 -->
<g id="node4" class="node">
<title>Node4</title>
<g id="a_node4"><a xlink:href="d__a__horse__static_8h.html" target="_top" xlink:title=" ">
<polygon fill="white" stroke="black" points="118,-67.5 118,-86.5 233,-86.5 233,-67.5 118,-67.5"/>
<text text-anchor="middle" x="175.5" y="-74.5" font-family="Helvetica,sans-Serif" font-size="10.00">d/a/d_a_horse_static.h</text>
</a>
</g>
</g>
<!-- Node1&#45;&gt;Node4 -->
<g id="edge3" class="edge">
<title>Node1&#45;&gt;Node4</title>
<path fill="none" stroke="midnightblue" d="M492.19,-136.12C426.78,-129.08 327.45,-116.52 242.5,-98 232,-95.71 220.76,-92.61 210.53,-89.54"/>
<polygon fill="midnightblue" stroke="midnightblue" points="211.3,-86.12 200.72,-86.51 209.24,-92.81 211.3,-86.12"/>
</g>
<!-- Node5 -->
<g id="node5" class="node">
<title>Node5</title>
<g id="a_node5"><a xlink:title=" ">
<polygon fill="white" stroke="#bfbfbf" points="251,-62 251,-92 408,-92 408,-62 251,-62"/>
<text text-anchor="start" x="259" y="-80" font-family="Helvetica,sans-Serif" font-size="10.00">asm/d/a/d_a_horse_static</text>
<text text-anchor="middle" x="329.5" y="-69" font-family="Helvetica,sans-Serif" font-size="10.00">/checkWait__10e_wb_classFv.s</text>
</a>
</g>
</g>
<!-- Node1&#45;&gt;Node5 -->
<g id="edge5" class="edge">
<title>Node1&#45;&gt;Node5</title>
<path fill="none" stroke="midnightblue" d="M532.43,-134.37C496.17,-124.3 435.39,-107.41 389.78,-94.74"/>
<polygon fill="midnightblue" stroke="midnightblue" points="390.57,-91.33 380,-92.03 388.7,-98.08 390.57,-91.33"/>
</g>
<!-- Node6 -->
<g id="node6" class="node">
<title>Node6</title>
<g id="a_node6"><a xlink:title=" ">
<polygon fill="white" stroke="#bfbfbf" points="426,-56.5 426,-97.5 555,-97.5 555,-56.5 426,-56.5"/>
<text text-anchor="start" x="434" y="-85.5" font-family="Helvetica,sans-Serif" font-size="10.00">asm/d/a/d_a_horse_static</text>
<text text-anchor="start" x="434" y="-74.5" font-family="Helvetica,sans-Serif" font-size="10.00">/setPlayerRideNow__10e</text>
<text text-anchor="middle" x="490.5" y="-63.5" font-family="Helvetica,sans-Serif" font-size="10.00">_wb_classFv.s</text>
</a>
</g>
</g>
<!-- Node1&#45;&gt;Node6 -->
<g id="edge6" class="edge">
<title>Node1&#45;&gt;Node6</title>
<path fill="none" stroke="midnightblue" d="M553.65,-134.23C545.04,-126.56 532.05,-115 520.1,-104.36"/>
<polygon fill="midnightblue" stroke="midnightblue" points="522.24,-101.58 512.45,-97.54 517.59,-106.81 522.24,-101.58"/>
</g>
<!-- Node7 -->
<g id="node7" class="node">
<title>Node7</title>
<g id="a_node7"><a xlink:title=" ">
<polygon fill="white" stroke="#bfbfbf" points="573,-56.5 573,-97.5 702,-97.5 702,-56.5 573,-56.5"/>
<text text-anchor="start" x="581" y="-85.5" font-family="Helvetica,sans-Serif" font-size="10.00">asm/d/a/d_a_horse_static</text>
<text text-anchor="start" x="581" y="-74.5" font-family="Helvetica,sans-Serif" font-size="10.00">/setPlayerRide__10e_wb</text>
<text text-anchor="middle" x="637.5" y="-63.5" font-family="Helvetica,sans-Serif" font-size="10.00">_classFv.s</text>
</a>
</g>
</g>
<!-- Node1&#45;&gt;Node7 -->
<g id="edge7" class="edge">
<title>Node1&#45;&gt;Node7</title>
<path fill="none" stroke="midnightblue" d="M573.48,-134.23C582.22,-126.56 595.38,-115 607.5,-104.36"/>
<polygon fill="midnightblue" stroke="midnightblue" points="610.05,-106.77 615.25,-97.54 605.43,-101.51 610.05,-106.77"/>
</g>
<!-- Node8 -->
<g id="node8" class="node">
<title>Node8</title>
<g id="a_node8"><a xlink:title=" ">
<polygon fill="white" stroke="#bfbfbf" points="720,-62 720,-92 857,-92 857,-62 720,-62"/>
<text text-anchor="start" x="728" y="-80" font-family="Helvetica,sans-Serif" font-size="10.00">asm/d/a/d_a_horse_static</text>
<text text-anchor="middle" x="788.5" y="-69" font-family="Helvetica,sans-Serif" font-size="10.00">/getOff__10e_wb_classFv.s</text>
</a>
</g>
</g>
<!-- Node1&#45;&gt;Node8 -->
<g id="edge8" class="edge">
<title>Node1&#45;&gt;Node8</title>
<path fill="none" stroke="midnightblue" d="M593.38,-134.37C628.16,-124.32 686.44,-107.49 730.26,-94.82"/>
<polygon fill="midnightblue" stroke="midnightblue" points="731.31,-98.17 739.94,-92.03 729.36,-91.44 731.31,-98.17"/>
</g>
<!-- Node9 -->
<g id="node9" class="node">
<title>Node9</title>
<g id="a_node9"><a xlink:title=" ">
<polygon fill="white" stroke="#bfbfbf" points="875,-56.5 875,-97.5 1026,-97.5 1026,-56.5 875,-56.5"/>
<text text-anchor="start" x="883" y="-85.5" font-family="Helvetica,sans-Serif" font-size="10.00">asm/d/a/d_a_horse_static</text>
<text text-anchor="start" x="883" y="-74.5" font-family="Helvetica,sans-Serif" font-size="10.00">/checkDownDamage__10e_wb</text>
<text text-anchor="middle" x="950.5" y="-63.5" font-family="Helvetica,sans-Serif" font-size="10.00">_classFv.s</text>
</a>
</g>
</g>
<!-- Node1&#45;&gt;Node9 -->
<g id="edge9" class="edge">
<title>Node1&#45;&gt;Node9</title>
<path fill="none" stroke="midnightblue" d="M632.38,-134.49C691.63,-126.78 779.6,-114.4 864.49,-98.32"/>
<polygon fill="midnightblue" stroke="midnightblue" points="865.39,-101.71 874.56,-96.39 864.08,-94.83 865.39,-101.71"/>
</g>
<!-- Node10 -->
<g id="node10" class="node">
<title>Node10</title>
<g id="a_node10"><a xlink:title=" ">
<polygon fill="white" stroke="#bfbfbf" points="1044,-56.5 1044,-97.5 1191,-97.5 1191,-56.5 1044,-56.5"/>
<text text-anchor="start" x="1052" y="-85.5" font-family="Helvetica,sans-Serif" font-size="10.00">asm/d/a/d_a_horse_static</text>
<text text-anchor="start" x="1052" y="-74.5" font-family="Helvetica,sans-Serif" font-size="10.00">/checkNormalRideMode__10e</text>
<text text-anchor="middle" x="1117.5" y="-63.5" font-family="Helvetica,sans-Serif" font-size="10.00">_wb_classCFv.s</text>
</a>
</g>
</g>
<!-- Node1&#45;&gt;Node10 -->
<g id="edge10" class="edge">
<title>Node1&#45;&gt;Node10</title>
<path fill="none" stroke="midnightblue" d="M634.69,-139.42C725.37,-134.14 887,-122.34 1033.76,-98.18"/>
<polygon fill="midnightblue" stroke="midnightblue" points="1034.56,-101.59 1043.85,-96.49 1033.41,-94.69 1034.56,-101.59"/>
</g>
<!-- Node11 -->
<g id="node11" class="node">
<title>Node11</title>
<g id="a_node11"><a xlink:title=" ">
<polygon fill="white" stroke="#bfbfbf" points="1209.5,-56.5 1209.5,-97.5 1347.5,-97.5 1347.5,-56.5 1209.5,-56.5"/>
<text text-anchor="start" x="1217.5" y="-85.5" font-family="Helvetica,sans-Serif" font-size="10.00">asm/d/a/d_a_horse_static</text>
<text text-anchor="start" x="1217.5" y="-74.5" font-family="Helvetica,sans-Serif" font-size="10.00">/setRunRideMode__10e_wb</text>
<text text-anchor="middle" x="1278.5" y="-63.5" font-family="Helvetica,sans-Serif" font-size="10.00">_classFv.s</text>
</a>
</g>
</g>
<!-- Node1&#45;&gt;Node11 -->
<g id="edge11" class="edge">
<title>Node1&#45;&gt;Node11</title>
<path fill="none" stroke="midnightblue" d="M634.68,-142.15C751.07,-139.84 989.35,-131.28 1199.34,-98.03"/>
<polygon fill="midnightblue" stroke="midnightblue" points="1200,-101.47 1209.31,-96.43 1198.89,-94.56 1200,-101.47"/>
</g>
<!-- Node4&#45;&gt;Node3 -->
<g id="edge4" class="edge">
<title>Node4&#45;&gt;Node3</title>
<path fill="none" stroke="midnightblue" d="M169.7,-67.23C163.12,-57.29 152.24,-40.84 143.94,-28.29"/>
<polygon fill="midnightblue" stroke="midnightblue" points="146.64,-26.04 138.21,-19.63 140.81,-29.9 146.64,-26.04"/>
</g>
</g>
</svg>
        <g id="navigator" transform="translate(0 0)" fill="#404254">
                <rect fill="#f2f5e9" fill-opacity="0.5" stroke="#606060" stroke-width=".5" x="0" y="0" width="60" height="60"/>
                <use id="zoomplus" xlink:href="#zoomPlus" x="17" y="9" onmousedown="handleZoom(evt,'in')"/>
                <use id="zoomminus" xlink:href="#zoomMin" x="42" y="9" onmousedown="handleZoom(evt,'out')"/>
                <use id="reset" xlink:href="#resetDef" x="30" y="36" onmousedown="handleReset()"/>
                <g id="arrowUp" xlink:href="#dirArrow" transform="translate(30 24)" onmousedown="handlePan(0,-1)">
                  <use xlink:href="#rim" fill="#404040">
                        <set attributeName="fill" to="#808080" begin="arrowUp.mouseover" end="arrowUp.mouseout"/>
                  </use>
                  <path fill="none" stroke="white" stroke-width="1.5" d="M0,-3.0v7 M-2.5,-0.5L0,-3.0L2.5,-0.5"/>
                </g>
                <g id="arrowRight" xlink:href="#dirArrow" transform="rotate(90) translate(36 -43)" onmousedown="handlePan(1,0)">
                  <use xlink:href="#rim" fill="#404040">
                        <set attributeName="fill" to="#808080" begin="arrowRight.mouseover" end="arrowRight.mouseout"/>
                  </use>
                  <path fill="none" stroke="white" stroke-width="1.5" d="M0,-3.0v7 M-2.5,-0.5L0,-3.0L2.5,-0.5"/>
                </g>
                <g id="arrowDown" xlink:href="#dirArrow" transform="rotate(180) translate(-30 -48)" onmousedown="handlePan(0,1)">
                  <use xlink:href="#rim" fill="#404040">
                        <set attributeName="fill" to="#808080" begin="arrowDown.mouseover" end="arrowDown.mouseout"/>
                  </use>
                  <path fill="none" stroke="white" stroke-width="1.5" d="M0,-3.0v7 M-2.5,-0.5L0,-3.0L2.5,-0.5"/>
                </g>
                <g id="arrowLeft" xlink:href="#dirArrow" transform="rotate(270) translate(-36 17)" onmousedown="handlePan(-1,0)">
                  <use xlink:href="#rim" fill="#404040">
                        <set attributeName="fill" to="#808080" begin="arrowLeft.mouseover" end="arrowLeft.mouseout"/>
                  </use>
                  <path fill="none" stroke="white" stroke-width="1.5" d="M0,-3.0v7 M-2.5,-0.5L0,-3.0L2.5,-0.5"/>
                </g>
        </g>
        <svg viewBox="0 0 15 15" width="100%" height="30px" preserveAspectRatio="xMaxYMin meet">
         <g id="arrow_out" transform="scale(0.3 0.3)">
          <a xlink:href="d__a__horse__static_8cpp__incl_org.svg" target="_base">
           <rect id="button" ry="5" rx="5" y="6" x="6" height="38" width="38"
                fill="#f2f5e9" fill-opacity="0.5" stroke="#606060" stroke-width="1.0"/>
           <path id="arrow"
             d="M 11.500037,31.436501 C 11.940474,20.09759 22.043105,11.32322 32.158766,21.979434 L 37.068811,17.246167 C 37.068811,17.246167 37.088388,32 37.088388,32 L 22.160133,31.978069 C 22.160133,31.978069 26.997745,27.140456 26.997745,27.140456 C 18.528582,18.264221 13.291696,25.230495 11.500037,31.436501 z"
             style="fill:#404040;"/>
          </a>
         </g>
        </svg>
</svg>
