<?xml version="1.0" encoding="UTF-8" standalone="no"?>
<!DOCTYPE svg PUBLIC "-//W3C//DTD SVG 1.1//EN"
 "http://www.w3.org/Graphics/SVG/1.1/DTD/svg11.dtd">
<!-- Generated by graphviz version 2.47.0 (20210316.2052)
 -->
<!-- Title: src/d/a/d_a_no_chg_room.cpp Pages: 1 -->
<svg width="1328pt" height="173pt"
 viewBox="0.00 0.00 1327.50 173.00" xmlns="http://www.w3.org/2000/svg" xmlns:xlink="http://www.w3.org/1999/xlink">
<g id="graph0" class="graph" transform="scale(1 1) rotate(0) translate(4 169)">
<title>src/d/a/d_a_no_chg_room.cpp</title>
<polygon fill="white" stroke="transparent" points="-4,4 -4,-169 1323.5,-169 1323.5,4 -4,4"/>
<!-- Node1 -->
<g id="node1" class="node">
<title>Node1</title>
<g id="a_node1"><a xlink:title=" ">
<polygon fill="#bfbfbf" stroke="black" points="528.5,-134.5 528.5,-164.5 630.5,-164.5 630.5,-134.5 528.5,-134.5"/>
<text text-anchor="start" x="536.5" y="-152.5" font-family="Helvetica,sans-Serif" font-size="10.00">src/d/a/d_a_no_chg</text>
<text text-anchor="middle" x="579.5" y="-141.5" font-family="Helvetica,sans-Serif" font-size="10.00">_room.cpp</text>
</a>
</g>
</g>
<!-- Node2 -->
<g id="node2" class="node">
<title>Node2</title>
<g id="a_node2"><a xlink:href="dol2asm_8h.html" target="_top" xlink:title=" ">
<polygon fill="white" stroke="black" points="0,-67.5 0,-86.5 61,-86.5 61,-67.5 0,-67.5"/>
<text text-anchor="middle" x="30.5" y="-74.5" font-family="Helvetica,sans-Serif" font-size="10.00">dol2asm.h</text>
</a>
</g>
</g>
<!-- Node1&#45;&gt;Node2 -->
<g id="edge1" class="edge">
<title>Node1&#45;&gt;Node2</title>
<path fill="none" stroke="midnightblue" d="M528.48,-148.7C436.4,-147.89 237.01,-140.8 75.5,-98 68.88,-96.25 62,-93.63 55.67,-90.87"/>
<polygon fill="midnightblue" stroke="midnightblue" points="56.84,-87.55 46.29,-86.51 53.88,-93.9 56.84,-87.55"/>
</g>
<!-- Node3 -->
<g id="node3" class="node">
<title>Node3</title>
<g id="a_node3"><a xlink:href="types_8h.html" target="_top" xlink:title=" ">
<polygon fill="white" stroke="black" points="93,-0.5 93,-19.5 174,-19.5 174,-0.5 93,-0.5"/>
<text text-anchor="middle" x="133.5" y="-7.5" font-family="Helvetica,sans-Serif" font-size="10.00">dolphin/types.h</text>
</a>
</g>
</g>
<!-- Node1&#45;&gt;Node3 -->
<g id="edge2" class="edge">
<title>Node1&#45;&gt;Node3</title>
<path fill="none" stroke="midnightblue" d="M528.31,-146.8C412.09,-142.41 136.19,-128.82 108.5,-98 90.82,-78.32 107.2,-46.9 120.49,-27.69"/>
<polygon fill="midnightblue" stroke="midnightblue" points="123.35,-29.72 126.43,-19.58 117.7,-25.59 123.35,-29.72"/>
</g>
<!-- Node4 -->
<g id="node4" class="node">
<title>Node4</title>
<g id="a_node4"><a xlink:href="d__a__no__chg__room_8h.html" target="_top" xlink:title=" ">
<polygon fill="white" stroke="black" points="117.5,-67.5 117.5,-86.5 237.5,-86.5 237.5,-67.5 117.5,-67.5"/>
<text text-anchor="middle" x="177.5" y="-74.5" font-family="Helvetica,sans-Serif" font-size="10.00">d/a/d_a_no_chg_room.h</text>
</a>
</g>
</g>
<!-- Node1&#45;&gt;Node4 -->
<g id="edge3" class="edge">
<title>Node1&#45;&gt;Node4</title>
<path fill="none" stroke="midnightblue" d="M528.34,-142.86C462.64,-135.14 345.3,-119.71 246.5,-98 235.7,-95.63 224.1,-92.5 213.56,-89.42"/>
<polygon fill="midnightblue" stroke="midnightblue" points="214.41,-86.03 203.83,-86.52 212.41,-92.73 214.41,-86.03"/>
</g>
<!-- Node5 -->
<g id="node5" class="node">
<title>Node5</title>
<g id="a_node5"><a xlink:title=" ">
<polygon fill="white" stroke="#bfbfbf" points="255.5,-62 255.5,-92 383.5,-92 383.5,-62 255.5,-62"/>
<text text-anchor="start" x="263.5" y="-80" font-family="Helvetica,sans-Serif" font-size="10.00">asm/d/a/d_a_no_chg</text>
<text text-anchor="middle" x="319.5" y="-69" font-family="Helvetica,sans-Serif" font-size="10.00">_room/isLoadRoom__Fi.s</text>
</a>
</g>
</g>
<!-- Node1&#45;&gt;Node5 -->
<g id="edge5" class="edge">
<title>Node1&#45;&gt;Node5</title>
<path fill="none" stroke="midnightblue" d="M528.44,-134.66C486.23,-123.21 426.15,-106.92 381.24,-94.74"/>
<polygon fill="midnightblue" stroke="midnightblue" points="381.9,-91.29 371.33,-92.05 380.07,-98.05 381.9,-91.29"/>
</g>
<!-- Node6 -->
<g id="node6" class="node">
<title>Node6</title>
<g id="a_node6"><a xlink:title=" ">
<polygon fill="white" stroke="#bfbfbf" points="402,-62 402,-92 567,-92 567,-62 402,-62"/>
<text text-anchor="start" x="410" y="-80" font-family="Helvetica,sans-Serif" font-size="10.00">asm/d/a/d_a_no_chg</text>
<text text-anchor="middle" x="484.5" y="-69" font-family="Helvetica,sans-Serif" font-size="10.00">_room/execute__9daNocrm_cFv.s</text>
</a>
</g>
</g>
<!-- Node1&#45;&gt;Node6 -->
<g id="edge6" class="edge">
<title>Node1&#45;&gt;Node6</title>
<path fill="none" stroke="midnightblue" d="M560.28,-134.23C546.28,-123.85 527.13,-109.63 511.58,-98.1"/>
<polygon fill="midnightblue" stroke="midnightblue" points="513.49,-95.15 503.37,-92 509.32,-100.77 513.49,-95.15"/>
</g>
<!-- Node7 -->
<g id="node7" class="node">
<title>Node7</title>
<g id="a_node7"><a xlink:title=" ">
<polygon fill="white" stroke="#bfbfbf" points="585.5,-62 585.5,-92 765.5,-92 765.5,-62 585.5,-62"/>
<text text-anchor="start" x="593.5" y="-80" font-family="Helvetica,sans-Serif" font-size="10.00">asm/d/a/d_a_no_chg</text>
<text text-anchor="middle" x="675.5" y="-69" font-family="Helvetica,sans-Serif" font-size="10.00">_room/getRoomNo__9daNocrm_cFi.s</text>
</a>
</g>
</g>
<!-- Node1&#45;&gt;Node7 -->
<g id="edge7" class="edge">
<title>Node1&#45;&gt;Node7</title>
<path fill="none" stroke="midnightblue" d="M598.93,-134.23C613.07,-123.85 632.42,-109.63 648.13,-98.1"/>
<polygon fill="midnightblue" stroke="midnightblue" points="650.44,-100.75 656.43,-92 646.3,-95.1 650.44,-100.75"/>
</g>
<!-- Node8 -->
<g id="node8" class="node">
<title>Node8</title>
<g id="a_node8"><a xlink:title=" ">
<polygon fill="white" stroke="#bfbfbf" points="784,-56.5 784,-97.5 903,-97.5 903,-56.5 784,-56.5"/>
<text text-anchor="start" x="792" y="-85.5" font-family="Helvetica,sans-Serif" font-size="10.00">asm/d/a/d_a_no_chg</text>
<text text-anchor="start" x="792" y="-74.5" font-family="Helvetica,sans-Serif" font-size="10.00">_room/daNocrm_create</text>
<text text-anchor="middle" x="843.5" y="-63.5" font-family="Helvetica,sans-Serif" font-size="10.00">__FP9daNocrm_c.s</text>
</a>
</g>
</g>
<!-- Node1&#45;&gt;Node8 -->
<g id="edge8" class="edge">
<title>Node1&#45;&gt;Node8</title>
<path fill="none" stroke="midnightblue" d="M630.52,-135.71C667.69,-126.3 719.49,-112.98 773.87,-98.14"/>
<polygon fill="midnightblue" stroke="midnightblue" points="774.97,-101.47 783.69,-95.45 773.12,-94.72 774.97,-101.47"/>
</g>
<!-- Node9 -->
<g id="node9" class="node">
<title>Node9</title>
<g id="a_node9"><a xlink:title=" ">
<polygon fill="white" stroke="#bfbfbf" points="921,-56.5 921,-97.5 1040,-97.5 1040,-56.5 921,-56.5"/>
<text text-anchor="start" x="929" y="-85.5" font-family="Helvetica,sans-Serif" font-size="10.00">asm/d/a/d_a_no_chg</text>
<text text-anchor="start" x="929" y="-74.5" font-family="Helvetica,sans-Serif" font-size="10.00">_room/daNocrm_Delete</text>
<text text-anchor="middle" x="980.5" y="-63.5" font-family="Helvetica,sans-Serif" font-size="10.00">__FP9daNocrm_c.s</text>
</a>
</g>
</g>
<!-- Node1&#45;&gt;Node9 -->
<g id="edge9" class="edge">
<title>Node1&#45;&gt;Node9</title>
<path fill="none" stroke="midnightblue" d="M630.67,-142.92C694.33,-135.51 806.46,-120.86 910.84,-98.24"/>
<polygon fill="midnightblue" stroke="midnightblue" points="911.9,-101.59 920.91,-96.02 910.4,-94.75 911.9,-101.59"/>
</g>
<!-- Node10 -->
<g id="node10" class="node">
<title>Node10</title>
<g id="a_node10"><a xlink:title=" ">
<polygon fill="white" stroke="#bfbfbf" points="1058,-56.5 1058,-97.5 1183,-97.5 1183,-56.5 1058,-56.5"/>
<text text-anchor="start" x="1066" y="-85.5" font-family="Helvetica,sans-Serif" font-size="10.00">asm/d/a/d_a_no_chg</text>
<text text-anchor="start" x="1066" y="-74.5" font-family="Helvetica,sans-Serif" font-size="10.00">_room/daNocrm_execute</text>
<text text-anchor="middle" x="1120.5" y="-63.5" font-family="Helvetica,sans-Serif" font-size="10.00">__FP9daNocrm_c.s</text>
</a>
</g>
</g>
<!-- Node1&#45;&gt;Node10 -->
<g id="edge10" class="edge">
<title>Node1&#45;&gt;Node10</title>
<path fill="none" stroke="midnightblue" d="M630.69,-145.81C715.62,-140.75 891.07,-127.68 1047.63,-98.21"/>
<polygon fill="midnightblue" stroke="midnightblue" points="1048.75,-101.56 1057.92,-96.24 1047.44,-94.68 1048.75,-101.56"/>
</g>
<!-- Node11 -->
<g id="node11" class="node">
<title>Node11</title>
<g id="a_node11"><a xlink:title=" ">
<polygon fill="white" stroke="#bfbfbf" points="1201.5,-56.5 1201.5,-97.5 1319.5,-97.5 1319.5,-56.5 1201.5,-56.5"/>
<text text-anchor="start" x="1209.5" y="-85.5" font-family="Helvetica,sans-Serif" font-size="10.00">asm/d/a/d_a_no_chg</text>
<text text-anchor="start" x="1209.5" y="-74.5" font-family="Helvetica,sans-Serif" font-size="10.00">_room/daNocrm_draw_</text>
<text text-anchor="middle" x="1260.5" y="-63.5" font-family="Helvetica,sans-Serif" font-size="10.00">_FP9daNocrm_c.s</text>
</a>
</g>
</g>
<!-- Node1&#45;&gt;Node11 -->
<g id="edge11" class="edge">
<title>Node1&#45;&gt;Node11</title>
<path fill="none" stroke="midnightblue" d="M630.83,-147.79C735.07,-145.6 978.96,-136.61 1191.25,-98.03"/>
<polygon fill="midnightblue" stroke="midnightblue" points="1192.13,-101.43 1201.33,-96.17 1190.87,-94.54 1192.13,-101.43"/>
</g>
<!-- Node4&#45;&gt;Node3 -->
<g id="edge4" class="edge">
<title>Node4&#45;&gt;Node3</title>
<path fill="none" stroke="midnightblue" d="M171.57,-67.23C164.77,-57.2 153.48,-40.51 144.95,-27.92"/>
<polygon fill="midnightblue" stroke="midnightblue" points="147.84,-25.95 139.34,-19.63 142.05,-29.87 147.84,-25.95"/>
</g>
</g>
</svg>
