<?xml version="1.0" encoding="UTF-8" standalone="no"?>
<!DOCTYPE svg PUBLIC "-//W3C//DTD SVG 1.1//EN"
 "http://www.w3.org/Graphics/SVG/1.1/DTD/svg11.dtd">
<!-- Generated by graphviz version 2.47.0 (20210316.2052)
 -->
<!-- Title: src/a/npc/d_a_npc_cd.cpp Pages: 1 -->
<!--zoomable 162 -->
<svg id="main" version="1.1" xmlns="http://www.w3.org/2000/svg" xmlns:xlink="http://www.w3.org/1999/xlink" xml:space="preserve" onload="init(evt)">
<style type="text/css"><![CDATA[
.edge:hover path { stroke: red; }
.edge:hover polygon { stroke: red; fill: red; }
]]></style>
<script type="text/javascript"><![CDATA[
var edges = document.getElementsByTagName('g');
if (edges && edges.length) {
  for (var i=0;i<edges.length;i++) {
    if (edges[i].id.substr(0,4)=='edge') {
      edges[i].setAttribute('class','edge');
    }
  }
}
]]></script>
        <defs>
                <circle id="rim" cx="0" cy="0" r="7"/>
                <circle id="rim2" cx="0" cy="0" r="3.5"/>
                <g id="zoomPlus">
                        <use xlink:href="#rim" fill="#404040">
                                <set attributeName="fill" to="#808080" begin="zoomplus.mouseover" end="zoomplus.mouseout"/>
                        </use>
                        <path d="M-4,0h8M0,-4v8" fill="none" stroke="white" stroke-width="1.5" pointer-events="none"/>
                </g>
                <g id="zoomMin">
                        <use xlink:href="#rim" fill="#404040">
                                <set attributeName="fill" to="#808080" begin="zoomminus.mouseover" end="zoomminus.mouseout"/>
                        </use>
                        <path d="M-4,0h8" fill="none" stroke="white" stroke-width="1.5" pointer-events="none"/>
                </g>
                <g id="dirArrow">
                        <path fill="none" stroke="white" stroke-width="1.5" d="M0,-3.0v7 M-2.5,-0.5L0,-3.0L2.5,-0.5"/>
                </g>
               <g id="resetDef">
                       <use xlink:href="#rim2" fill="#404040">
                               <set attributeName="fill" to="#808080" begin="reset.mouseover" end="reset.mouseout"/>
                       </use>
               </g>
        </defs>

<script type="text/javascript">
var viewWidth = 4722;
var viewHeight = 162;
var sectionId = 'dynsection-0';
</script>
<script xlink:href="svgpan.js"/>
<svg id="graph" class="graph">
<g id="viewport">
<title>src/a/npc/d_a_npc_cd.cpp</title>
<polygon fill="white" stroke="transparent" points="-4,4 -4,-158 4717.5,-158 4717.5,4 -4,4"/>
<!-- Node1 -->
<g id="node1" class="node">
<title>Node1</title>
<g id="a_node1"><a xlink:title=" ">
<polygon fill="#bfbfbf" stroke="black" points="2176,-134.5 2176,-153.5 2307,-153.5 2307,-134.5 2176,-134.5"/>
<text text-anchor="middle" x="2241.5" y="-141.5" font-family="Helvetica,sans-Serif" font-size="10.00">src/a/npc/d_a_npc_cd.cpp</text>
</a>
</g>
</g>
<!-- Node2 -->
<g id="node2" class="node">
<title>Node2</title>
<g id="a_node2"><a xlink:href="dol2asm_8h.html" target="_top" xlink:title=" ">
<polygon fill="white" stroke="black" points="0,-67.5 0,-86.5 61,-86.5 61,-67.5 0,-67.5"/>
<text text-anchor="middle" x="30.5" y="-74.5" font-family="Helvetica,sans-Serif" font-size="10.00">dol2asm.h</text>
</a>
</g>
</g>
<!-- Node1&#45;&gt;Node2 -->
<g id="edge1" class="edge">
<title>Node1&#45;&gt;Node2</title>
<path fill="none" stroke="midnightblue" d="M2175.83,-143.18C1835.96,-143.91 284.52,-144.63 75.5,-98 68.71,-96.49 61.69,-93.91 55.27,-91.11"/>
<polygon fill="midnightblue" stroke="midnightblue" points="56.34,-87.74 45.8,-86.63 53.34,-94.07 56.34,-87.74"/>
</g>
<!-- Node3 -->
<g id="node3" class="node">
<title>Node3</title>
<g id="a_node3"><a xlink:href="types_8h.html" target="_top" xlink:title=" ">
<polygon fill="white" stroke="black" points="89,-0.5 89,-19.5 170,-19.5 170,-0.5 89,-0.5"/>
<text text-anchor="middle" x="129.5" y="-7.5" font-family="Helvetica,sans-Serif" font-size="10.00">dolphin/types.h</text>
</a>
</g>
</g>
<!-- Node1&#45;&gt;Node3 -->
<g id="edge2" class="edge">
<title>Node1&#45;&gt;Node3</title>
<path fill="none" stroke="midnightblue" d="M2175.98,-142.87C1821.29,-141.99 145.57,-135.86 108.5,-98 90.19,-79.3 105.07,-47.54 117.38,-28.01"/>
<polygon fill="midnightblue" stroke="midnightblue" points="120.42,-29.77 123.07,-19.51 114.6,-25.88 120.42,-29.77"/>
</g>
<!-- Node4 -->
<g id="node4" class="node">
<title>Node4</title>
<g id="a_node4"><a xlink:href="d__a__npc__cd_8h.html" target="_top" xlink:title=" ">
<polygon fill="white" stroke="black" points="117.5,-67.5 117.5,-86.5 221.5,-86.5 221.5,-67.5 117.5,-67.5"/>
<text text-anchor="middle" x="169.5" y="-74.5" font-family="Helvetica,sans-Serif" font-size="10.00">a/npc/d_a_npc_cd.h</text>
</a>
</g>
</g>
<!-- Node1&#45;&gt;Node4 -->
<g id="edge3" class="edge">
<title>Node1&#45;&gt;Node4</title>
<path fill="none" stroke="midnightblue" d="M2175.85,-142.68C1851.22,-140.93 425.52,-131.4 230.5,-98 220.31,-96.25 209.49,-93.15 199.84,-89.9"/>
<polygon fill="midnightblue" stroke="midnightblue" points="200.88,-86.55 190.29,-86.5 198.54,-93.15 200.88,-86.55"/>
</g>
<!-- Node5 -->
<g id="node5" class="node">
<title>Node5</title>
<g id="a_node5"><a xlink:title=" ">
<polygon fill="white" stroke="#bfbfbf" points="239.5,-56.5 239.5,-97.5 403.5,-97.5 403.5,-56.5 239.5,-56.5"/>
<text text-anchor="start" x="247.5" y="-85.5" font-family="Helvetica,sans-Serif" font-size="10.00">asm/a/npc/d_a_npc_cd</text>
<text text-anchor="start" x="247.5" y="-74.5" font-family="Helvetica,sans-Serif" font-size="10.00">/a_npc_d_a_npc_cd__jntNodeCall</text>
<text text-anchor="middle" x="321.5" y="-63.5" font-family="Helvetica,sans-Serif" font-size="10.00">Back__FP8J3DJointi.s</text>
</a>
</g>
</g>
<!-- Node1&#45;&gt;Node5 -->
<g id="edge5" class="edge">
<title>Node1&#45;&gt;Node5</title>
<path fill="none" stroke="midnightblue" d="M2175.72,-143.05C1893.77,-143.01 785.23,-140.19 413.61,-97.83"/>
<polygon fill="midnightblue" stroke="midnightblue" points="413.97,-94.35 403.63,-96.66 413.15,-101.3 413.97,-94.35"/>
</g>
<!-- Node6 -->
<g id="node6" class="node">
<title>Node6</title>
<g id="a_node6"><a xlink:title=" ">
<polygon fill="white" stroke="#bfbfbf" points="422,-62 422,-92 571,-92 571,-62 422,-62"/>
<text text-anchor="start" x="430" y="-80" font-family="Helvetica,sans-Serif" font-size="10.00">asm/a/npc/d_a_npc_cd</text>
<text text-anchor="middle" x="496.5" y="-69" font-family="Helvetica,sans-Serif" font-size="10.00">/NpcCreate__9daNpcCd_cFi.s</text>
</a>
</g>
</g>
<!-- Node1&#45;&gt;Node6 -->
<g id="edge6" class="edge">
<title>Node1&#45;&gt;Node6</title>
<path fill="none" stroke="midnightblue" d="M2175.94,-143.03C1908.21,-142.88 897.09,-139.52 580.5,-98 573.16,-97.04 565.53,-95.7 557.99,-94.17"/>
<polygon fill="midnightblue" stroke="midnightblue" points="558.68,-90.74 548.17,-92.07 557.21,-97.59 558.68,-90.74"/>
</g>
<!-- Node7 -->
<g id="node7" class="node">
<title>Node7</title>
<g id="a_node7"><a xlink:title=" ">
<polygon fill="white" stroke="#bfbfbf" points="589.5,-62 589.5,-92 735.5,-92 735.5,-62 589.5,-62"/>
<text text-anchor="start" x="597.5" y="-80" font-family="Helvetica,sans-Serif" font-size="10.00">asm/a/npc/d_a_npc_cd</text>
<text text-anchor="middle" x="662.5" y="-69" font-family="Helvetica,sans-Serif" font-size="10.00">/ObjCreate__9daNpcCd_cFi.s</text>
</a>
</g>
</g>
<!-- Node1&#45;&gt;Node7 -->
<g id="edge7" class="edge">
<title>Node1&#45;&gt;Node7</title>
<path fill="none" stroke="midnightblue" d="M2175.7,-142.85C1924.67,-142 1027.12,-136.28 744.5,-98 737.41,-97.04 730.05,-95.72 722.77,-94.21"/>
<polygon fill="midnightblue" stroke="midnightblue" points="723.44,-90.77 712.92,-92.05 721.94,-97.61 723.44,-90.77"/>
</g>
<!-- Node8 -->
<g id="node8" class="node">
<title>Node8</title>
<g id="a_node8"><a xlink:title=" ">
<polygon fill="white" stroke="#bfbfbf" points="753.5,-62 753.5,-92 879.5,-92 879.5,-62 753.5,-62"/>
<text text-anchor="start" x="761.5" y="-80" font-family="Helvetica,sans-Serif" font-size="10.00">asm/a/npc/d_a_npc_cd</text>
<text text-anchor="middle" x="816.5" y="-69" font-family="Helvetica,sans-Serif" font-size="10.00">/isM___9daNpcCd_cFv.s</text>
</a>
</g>
</g>
<!-- Node1&#45;&gt;Node8 -->
<g id="edge8" class="edge">
<title>Node1&#45;&gt;Node8</title>
<path fill="none" stroke="midnightblue" d="M2175.69,-142.85C1940.46,-141.98 1141.88,-136.23 889.5,-98 883.59,-97.1 877.48,-95.9 871.42,-94.51"/>
<polygon fill="midnightblue" stroke="midnightblue" points="871.86,-91.02 861.32,-92.05 870.2,-97.82 871.86,-91.02"/>
</g>
<!-- Node9 -->
<g id="node9" class="node">
<title>Node9</title>
<g id="a_node9"><a xlink:title=" ">
<polygon fill="white" stroke="#bfbfbf" points="898,-62 898,-92 1043,-92 1043,-62 898,-62"/>
<text text-anchor="start" x="906" y="-80" font-family="Helvetica,sans-Serif" font-size="10.00">asm/a/npc/d_a_npc_cd</text>
<text text-anchor="middle" x="970.5" y="-69" font-family="Helvetica,sans-Serif" font-size="10.00">/getAnmP__9daNpcCd_cFii.s</text>
</a>
</g>
</g>
<!-- Node1&#45;&gt;Node9 -->
<g id="edge9" class="edge">
<title>Node1&#45;&gt;Node9</title>
<path fill="none" stroke="midnightblue" d="M2175.95,-142.26C1959.99,-139.54 1272.18,-128.63 1052.5,-98 1045.67,-97.05 1038.59,-95.77 1031.57,-94.32"/>
<polygon fill="midnightblue" stroke="midnightblue" points="1031.89,-90.81 1021.37,-92.09 1030.39,-97.65 1031.89,-90.81"/>
</g>
<!-- Node10 -->
<g id="node10" class="node">
<title>Node10</title>
<g id="a_node10"><a xlink:title=" ">
<polygon fill="white" stroke="#bfbfbf" points="1061,-62 1061,-92 1216,-92 1216,-62 1061,-62"/>
<text text-anchor="start" x="1069" y="-80" font-family="Helvetica,sans-Serif" font-size="10.00">asm/a/npc/d_a_npc_cd</text>
<text text-anchor="middle" x="1138.5" y="-69" font-family="Helvetica,sans-Serif" font-size="10.00">/setAttention__9daNpcCd_cFi.s</text>
</a>
</g>
</g>
<!-- Node1&#45;&gt;Node10 -->
<g id="edge10" class="edge">
<title>Node1&#45;&gt;Node10</title>
<path fill="none" stroke="midnightblue" d="M2175.81,-141.65C1981.27,-137.41 1410.18,-123.11 1225.5,-98 1218.03,-96.98 1210.25,-95.63 1202.55,-94.11"/>
<polygon fill="midnightblue" stroke="midnightblue" points="1203.02,-90.63 1192.52,-92.02 1201.6,-97.48 1203.02,-90.63"/>
</g>
<!-- Node11 -->
<g id="node11" class="node">
<title>Node11</title>
<g id="a_node11"><a xlink:title=" ">
<polygon fill="white" stroke="#bfbfbf" points="1234,-56.5 1234,-97.5 1353,-97.5 1353,-56.5 1234,-56.5"/>
<text text-anchor="start" x="1242" y="-85.5" font-family="Helvetica,sans-Serif" font-size="10.00">asm/a/npc/d_a_npc_cd</text>
<text text-anchor="start" x="1242" y="-74.5" font-family="Helvetica,sans-Serif" font-size="10.00">/loadResrc__9daNpcCd</text>
<text text-anchor="middle" x="1293.5" y="-63.5" font-family="Helvetica,sans-Serif" font-size="10.00">_cFii.s</text>
</a>
</g>
</g>
<!-- Node1&#45;&gt;Node11 -->
<g id="edge11" class="edge">
<title>Node1&#45;&gt;Node11</title>
<path fill="none" stroke="midnightblue" d="M2175.96,-141.61C2003.25,-137.62 1537.6,-124.82 1363.21,-97.83"/>
<polygon fill="midnightblue" stroke="midnightblue" points="1363.57,-94.34 1353.14,-96.2 1362.46,-101.25 1363.57,-94.34"/>
</g>
<!-- Node12 -->
<g id="node12" class="node">
<title>Node12</title>
<g id="a_node12"><a xlink:title=" ">
<polygon fill="white" stroke="#bfbfbf" points="1371.5,-56.5 1371.5,-97.5 1505.5,-97.5 1505.5,-56.5 1371.5,-56.5"/>
<text text-anchor="start" x="1379.5" y="-85.5" font-family="Helvetica,sans-Serif" font-size="10.00">asm/a/npc/d_a_npc_cd</text>
<text text-anchor="start" x="1379.5" y="-74.5" font-family="Helvetica,sans-Serif" font-size="10.00">/removeResrc__9daNpcCd</text>
<text text-anchor="middle" x="1438.5" y="-63.5" font-family="Helvetica,sans-Serif" font-size="10.00">_cFii.s</text>
</a>
</g>
</g>
<!-- Node1&#45;&gt;Node12 -->
<g id="edge12" class="edge">
<title>Node1&#45;&gt;Node12</title>
<path fill="none" stroke="midnightblue" d="M2175.86,-143.22C2049.5,-142.7 1763.75,-137.03 1515.81,-98.05"/>
<polygon fill="midnightblue" stroke="midnightblue" points="1516.32,-94.59 1505.9,-96.47 1515.22,-101.5 1516.32,-94.59"/>
</g>
<!-- Node13 -->
<g id="node13" class="node">
<title>Node13</title>
<g id="a_node13"><a xlink:title=" ">
<polygon fill="white" stroke="#bfbfbf" points="1523.5,-62 1523.5,-92 1689.5,-92 1689.5,-62 1523.5,-62"/>
<text text-anchor="start" x="1531.5" y="-80" font-family="Helvetica,sans-Serif" font-size="10.00">asm/a/npc/d_a_npc_cd</text>
<text text-anchor="middle" x="1606.5" y="-69" font-family="Helvetica,sans-Serif" font-size="10.00">/setEnvTevCol__9daNpcCd_cFv.s</text>
</a>
</g>
</g>
<!-- Node1&#45;&gt;Node13 -->
<g id="edge13" class="edge">
<title>Node1&#45;&gt;Node13</title>
<path fill="none" stroke="midnightblue" d="M2175.69,-140.28C2073.38,-135.43 1870.18,-123.33 1699.5,-98 1691.92,-96.87 1684.03,-95.5 1676.2,-94"/>
<polygon fill="midnightblue" stroke="midnightblue" points="1676.81,-90.56 1666.33,-92.05 1675.46,-97.43 1676.81,-90.56"/>
</g>
<!-- Node14 -->
<g id="node14" class="node">
<title>Node14</title>
<g id="a_node14"><a xlink:title=" ">
<polygon fill="white" stroke="#bfbfbf" points="1708,-62 1708,-92 1865,-92 1865,-62 1708,-62"/>
<text text-anchor="start" x="1716" y="-80" font-family="Helvetica,sans-Serif" font-size="10.00">asm/a/npc/d_a_npc_cd</text>
<text text-anchor="middle" x="1786.5" y="-69" font-family="Helvetica,sans-Serif" font-size="10.00">/setRoomNo__9daNpcCd_cFv.s</text>
</a>
</g>
</g>
<!-- Node1&#45;&gt;Node14 -->
<g id="edge14" class="edge">
<title>Node1&#45;&gt;Node14</title>
<path fill="none" stroke="midnightblue" d="M2175.9,-136.98C2102.25,-129.76 1979.32,-116.29 1874.5,-98 1867.97,-96.86 1861.19,-95.55 1854.42,-94.16"/>
<polygon fill="midnightblue" stroke="midnightblue" points="1855.06,-90.72 1844.55,-92.07 1853.61,-97.56 1855.06,-90.72"/>
</g>
<!-- Node15 -->
<g id="node15" class="node">
<title>Node15</title>
<g id="a_node15"><a xlink:title=" ">
<polygon fill="white" stroke="#bfbfbf" points="1883,-62 1883,-92 2030,-92 2030,-62 1883,-62"/>
<text text-anchor="start" x="1891" y="-80" font-family="Helvetica,sans-Serif" font-size="10.00">asm/a/npc/d_a_npc_cd</text>
<text text-anchor="middle" x="1956.5" y="-69" font-family="Helvetica,sans-Serif" font-size="10.00">/animation__9daNpcCd_cFv.s</text>
</a>
</g>
</g>
<!-- Node1&#45;&gt;Node15 -->
<g id="edge15" class="edge">
<title>Node1&#45;&gt;Node15</title>
<path fill="none" stroke="midnightblue" d="M2202.35,-134.49C2161.62,-125.58 2096.03,-111.11 2039.5,-98 2034.48,-96.84 2029.3,-95.62 2024.09,-94.39"/>
<polygon fill="midnightblue" stroke="midnightblue" points="2024.61,-90.91 2014.07,-92.01 2022.99,-97.72 2024.61,-90.91"/>
</g>
<!-- Node16 -->
<g id="node16" class="node">
<title>Node16</title>
<g id="a_node16"><a xlink:title=" ">
<polygon fill="white" stroke="#bfbfbf" points="2048,-56.5 2048,-97.5 2229,-97.5 2229,-56.5 2048,-56.5"/>
<text text-anchor="start" x="2056" y="-85.5" font-family="Helvetica,sans-Serif" font-size="10.00">asm/a/npc/d_a_npc_cd</text>
<text text-anchor="start" x="2056" y="-74.5" font-family="Helvetica,sans-Serif" font-size="10.00">/setAnm__9daNpcCd_cFP18J3DAnm</text>
<text text-anchor="middle" x="2138.5" y="-63.5" font-family="Helvetica,sans-Serif" font-size="10.00">TransformKeyffiii.s</text>
</a>
</g>
</g>
<!-- Node1&#45;&gt;Node16 -->
<g id="edge16" class="edge">
<title>Node1&#45;&gt;Node16</title>
<path fill="none" stroke="midnightblue" d="M2227.61,-134.23C2214.98,-126.27 2195.73,-114.11 2178.34,-103.14"/>
<polygon fill="midnightblue" stroke="midnightblue" points="2179.79,-99.92 2169.47,-97.54 2176.06,-105.84 2179.79,-99.92"/>
</g>
<!-- Node17 -->
<g id="node17" class="node">
<title>Node17</title>
<g id="a_node17"><a xlink:title=" ">
<polygon fill="white" stroke="#bfbfbf" points="2247,-62 2247,-92 2444,-92 2444,-62 2247,-62"/>
<text text-anchor="start" x="2255" y="-80" font-family="Helvetica,sans-Serif" font-size="10.00">asm/a/npc/d_a_npc_cd</text>
<text text-anchor="middle" x="2345.5" y="-69" font-family="Helvetica,sans-Serif" font-size="10.00">/drawObj__9daNpcCd_cFiP8J3DModelf.s</text>
</a>
</g>
</g>
<!-- Node1&#45;&gt;Node17 -->
<g id="edge17" class="edge">
<title>Node1&#45;&gt;Node17</title>
<path fill="none" stroke="midnightblue" d="M2255.53,-134.23C2270.53,-124.86 2294.8,-109.69 2314.35,-97.47"/>
<polygon fill="midnightblue" stroke="midnightblue" points="2316.33,-100.36 2322.96,-92.09 2312.62,-94.42 2316.33,-100.36"/>
</g>
<!-- Node18 -->
<g id="node18" class="node">
<title>Node18</title>
<g id="a_node18"><a xlink:title=" ">
<polygon fill="white" stroke="#bfbfbf" points="2462.5,-62 2462.5,-92 2606.5,-92 2606.5,-62 2462.5,-62"/>
<text text-anchor="start" x="2470.5" y="-80" font-family="Helvetica,sans-Serif" font-size="10.00">asm/a/npc/d_a_npc_cd</text>
<text text-anchor="middle" x="2534.5" y="-69" font-family="Helvetica,sans-Serif" font-size="10.00">/drawNpc__9daNpcCd_cFv.s</text>
</a>
</g>
</g>
<!-- Node1&#45;&gt;Node18 -->
<g id="edge18" class="edge">
<title>Node1&#45;&gt;Node18</title>
<path fill="none" stroke="midnightblue" d="M2283.82,-134.44C2326.68,-125.68 2394.82,-111.47 2453.5,-98 2458.49,-96.85 2463.65,-95.64 2468.83,-94.41"/>
<polygon fill="midnightblue" stroke="midnightblue" points="2469.88,-97.76 2478.78,-92.01 2468.24,-90.95 2469.88,-97.76"/>
</g>
<!-- Node19 -->
<g id="node19" class="node">
<title>Node19</title>
<g id="a_node19"><a xlink:title=" ">
<polygon fill="white" stroke="#bfbfbf" points="2624.5,-56.5 2624.5,-97.5 2770.5,-97.5 2770.5,-56.5 2624.5,-56.5"/>
<text text-anchor="start" x="2632.5" y="-85.5" font-family="Helvetica,sans-Serif" font-size="10.00">asm/a/npc/d_a_npc_cd</text>
<text text-anchor="start" x="2632.5" y="-74.5" font-family="Helvetica,sans-Serif" font-size="10.00">/jntNodeCB__9daNpcCd</text>
<text text-anchor="middle" x="2697.5" y="-63.5" font-family="Helvetica,sans-Serif" font-size="10.00">_cFP8J3DJointP8J3DModel.s</text>
</a>
</g>
</g>
<!-- Node1&#45;&gt;Node19 -->
<g id="edge19" class="edge">
<title>Node1&#45;&gt;Node19</title>
<path fill="none" stroke="midnightblue" d="M2307.05,-137.5C2379.88,-130.86 2501.09,-118.21 2614.39,-98.1"/>
<polygon fill="midnightblue" stroke="midnightblue" points="2615.05,-101.53 2624.28,-96.32 2613.81,-94.64 2615.05,-101.53"/>
</g>
<!-- Node20 -->
<g id="node20" class="node">
<title>Node20</title>
<g id="a_node20"><a xlink:title=" ">
<polygon fill="white" stroke="#bfbfbf" points="2788.5,-56.5 2788.5,-97.5 2906.5,-97.5 2906.5,-56.5 2788.5,-56.5"/>
<text text-anchor="start" x="2796.5" y="-85.5" font-family="Helvetica,sans-Serif" font-size="10.00">asm/a/npc/d_a_npc_cd</text>
<text text-anchor="start" x="2796.5" y="-74.5" font-family="Helvetica,sans-Serif" font-size="10.00">/setHitodamaParticle</text>
<text text-anchor="middle" x="2847.5" y="-63.5" font-family="Helvetica,sans-Serif" font-size="10.00">__9daNpcCd_cFv.s</text>
</a>
</g>
</g>
<!-- Node1&#45;&gt;Node20 -->
<g id="edge20" class="edge">
<title>Node1&#45;&gt;Node20</title>
<path fill="none" stroke="midnightblue" d="M2307.08,-141.78C2407.09,-138.99 2603.66,-129.82 2778.44,-98"/>
<polygon fill="midnightblue" stroke="midnightblue" points="2779.14,-101.43 2788.33,-96.17 2777.86,-94.55 2779.14,-101.43"/>
</g>
<!-- Node21 -->
<g id="node21" class="node">
<title>Node21</title>
<g id="a_node21"><a xlink:title=" ">
<polygon fill="white" stroke="#bfbfbf" points="2924.5,-62 2924.5,-92 3100.5,-92 3100.5,-62 2924.5,-62"/>
<text text-anchor="start" x="2932.5" y="-80" font-family="Helvetica,sans-Serif" font-size="10.00">asm/a/npc/d_a_npc_cd</text>
<text text-anchor="middle" x="3012.5" y="-69" font-family="Helvetica,sans-Serif" font-size="10.00">/getNpcMdlDataP__9daNpcCd_cFi.s</text>
</a>
</g>
</g>
<!-- Node1&#45;&gt;Node21 -->
<g id="edge21" class="edge">
<title>Node1&#45;&gt;Node21</title>
<path fill="none" stroke="midnightblue" d="M2307.34,-141.59C2428.3,-138.33 2693.83,-128.11 2915.5,-98 2923.77,-96.88 2932.38,-95.46 2940.92,-93.9"/>
<polygon fill="midnightblue" stroke="midnightblue" points="2941.71,-97.32 2950.88,-92.02 2940.4,-90.44 2941.71,-97.32"/>
</g>
<!-- Node22 -->
<g id="node22" class="node">
<title>Node22</title>
<g id="a_node22"><a xlink:title=" ">
<polygon fill="white" stroke="#bfbfbf" points="3119,-62 3119,-92 3292,-92 3292,-62 3119,-62"/>
<text text-anchor="start" x="3127" y="-80" font-family="Helvetica,sans-Serif" font-size="10.00">asm/a/npc/d_a_npc_cd</text>
<text text-anchor="middle" x="3205.5" y="-69" font-family="Helvetica,sans-Serif" font-size="10.00">/getObjMdlDataP__9daNpcCd_cFi.s</text>
</a>
</g>
</g>
<!-- Node1&#45;&gt;Node22 -->
<g id="edge22" class="edge">
<title>Node1&#45;&gt;Node22</title>
<path fill="none" stroke="midnightblue" d="M2307.14,-143.03C2452.38,-142.34 2811.69,-136.51 3109.5,-98 3117.87,-96.92 3126.61,-95.5 3135.24,-93.93"/>
<polygon fill="midnightblue" stroke="midnightblue" points="3136.14,-97.32 3145.31,-92.01 3134.83,-90.44 3136.14,-97.32"/>
</g>
<!-- Node23 -->
<g id="node23" class="node">
<title>Node23</title>
<g id="a_node23"><a xlink:title=" ">
<polygon fill="white" stroke="#bfbfbf" points="3310.5,-62 3310.5,-92 3462.5,-92 3462.5,-62 3310.5,-62"/>
<text text-anchor="start" x="3318.5" y="-80" font-family="Helvetica,sans-Serif" font-size="10.00">asm/a/npc/d_a_npc_cd</text>
<text text-anchor="middle" x="3386.5" y="-69" font-family="Helvetica,sans-Serif" font-size="10.00">/__ct__13daNpcCd_HIO_cFv.s</text>
</a>
</g>
</g>
<!-- Node1&#45;&gt;Node23 -->
<g id="edge23" class="edge">
<title>Node1&#45;&gt;Node23</title>
<path fill="none" stroke="midnightblue" d="M2307.18,-141.83C2507.36,-138.03 3107.96,-124.63 3301.5,-98 3308.81,-96.99 3316.41,-95.65 3323.93,-94.13"/>
<polygon fill="midnightblue" stroke="midnightblue" points="3324.69,-97.54 3333.74,-92.04 3323.23,-90.7 3324.69,-97.54"/>
</g>
<!-- Node24 -->
<g id="node24" class="node">
<title>Node24</title>
<g id="a_node24"><a xlink:title=" ">
<polygon fill="white" stroke="#bfbfbf" points="3481,-56.5 3481,-97.5 3604,-97.5 3604,-56.5 3481,-56.5"/>
<text text-anchor="start" x="3489" y="-85.5" font-family="Helvetica,sans-Serif" font-size="10.00">asm/a/npc/d_a_npc_cd</text>
<text text-anchor="start" x="3489" y="-74.5" font-family="Helvetica,sans-Serif" font-size="10.00">/__dt__19daNpcCd_HIO</text>
<text text-anchor="middle" x="3542.5" y="-63.5" font-family="Helvetica,sans-Serif" font-size="10.00">_Child_cFv.s</text>
</a>
</g>
</g>
<!-- Node1&#45;&gt;Node24 -->
<g id="edge24" class="edge">
<title>Node1&#45;&gt;Node24</title>
<path fill="none" stroke="midnightblue" d="M2307.03,-142.66C2524.9,-141.2 3224.55,-133.88 3470.76,-97.85"/>
<polygon fill="midnightblue" stroke="midnightblue" points="3471.38,-101.29 3480.74,-96.33 3470.32,-94.37 3471.38,-101.29"/>
</g>
<!-- Node25 -->
<g id="node25" class="node">
<title>Node25</title>
<g id="a_node25"><a xlink:title=" ">
<polygon fill="white" stroke="#bfbfbf" points="3622,-56.5 3622,-97.5 3745,-97.5 3745,-56.5 3622,-56.5"/>
<text text-anchor="start" x="3630" y="-85.5" font-family="Helvetica,sans-Serif" font-size="10.00">asm/a/npc/d_a_npc_cd</text>
<text text-anchor="start" x="3630" y="-74.5" font-family="Helvetica,sans-Serif" font-size="10.00">/__dt__17daNpcCd_HIO</text>
<text text-anchor="middle" x="3683.5" y="-63.5" font-family="Helvetica,sans-Serif" font-size="10.00">_Jnt_cFv.s</text>
</a>
</g>
</g>
<!-- Node1&#45;&gt;Node25 -->
<g id="edge25" class="edge">
<title>Node1&#45;&gt;Node25</title>
<path fill="none" stroke="midnightblue" d="M2307.07,-142.98C2541.37,-142.57 3337.4,-138.3 3611.91,-98.01"/>
<polygon fill="midnightblue" stroke="midnightblue" points="3612.49,-101.47 3621.85,-96.5 3611.44,-94.55 3612.49,-101.47"/>
</g>
<!-- Node26 -->
<g id="node26" class="node">
<title>Node26</title>
<g id="a_node26"><a xlink:title=" ">
<polygon fill="white" stroke="#bfbfbf" points="3763,-56.5 3763,-97.5 3886,-97.5 3886,-56.5 3763,-56.5"/>
<text text-anchor="start" x="3771" y="-85.5" font-family="Helvetica,sans-Serif" font-size="10.00">asm/a/npc/d_a_npc_cd</text>
<text text-anchor="start" x="3771" y="-74.5" font-family="Helvetica,sans-Serif" font-size="10.00">/__ct__19daNpcCd_HIO</text>
<text text-anchor="middle" x="3824.5" y="-63.5" font-family="Helvetica,sans-Serif" font-size="10.00">_Child_cFv.s</text>
</a>
</g>
</g>
<!-- Node1&#45;&gt;Node26 -->
<g id="edge26" class="edge">
<title>Node1&#45;&gt;Node26</title>
<path fill="none" stroke="midnightblue" d="M2307.19,-143.21C2557.04,-143.7 3449,-142.3 3752.73,-98.04"/>
<polygon fill="midnightblue" stroke="midnightblue" points="3753.48,-101.46 3762.85,-96.51 3752.44,-94.54 3753.48,-101.46"/>
</g>
<!-- Node27 -->
<g id="node27" class="node">
<title>Node27</title>
<g id="a_node27"><a xlink:title=" ">
<polygon fill="white" stroke="#bfbfbf" points="3904,-56.5 3904,-97.5 4027,-97.5 4027,-56.5 3904,-56.5"/>
<text text-anchor="start" x="3912" y="-85.5" font-family="Helvetica,sans-Serif" font-size="10.00">asm/a/npc/d_a_npc_cd</text>
<text text-anchor="start" x="3912" y="-74.5" font-family="Helvetica,sans-Serif" font-size="10.00">/__ct__17daNpcCd_HIO</text>
<text text-anchor="middle" x="3965.5" y="-63.5" font-family="Helvetica,sans-Serif" font-size="10.00">_Jnt_cFv.s</text>
</a>
</g>
</g>
<!-- Node1&#45;&gt;Node27 -->
<g id="edge27" class="edge">
<title>Node1&#45;&gt;Node27</title>
<path fill="none" stroke="midnightblue" d="M2307.29,-143.41C2572.05,-144.73 3560.85,-146.32 3893.72,-98.04"/>
<polygon fill="midnightblue" stroke="midnightblue" points="3894.48,-101.46 3903.85,-96.52 3893.44,-94.54 3894.48,-101.46"/>
</g>
<!-- Node28 -->
<g id="node28" class="node">
<title>Node28</title>
<g id="a_node28"><a xlink:title=" ">
<polygon fill="white" stroke="#bfbfbf" points="4045.5,-62 4045.5,-92 4219.5,-92 4219.5,-62 4045.5,-62"/>
<text text-anchor="start" x="4053.5" y="-80" font-family="Helvetica,sans-Serif" font-size="10.00">asm/a/npc/d_a_npc_cd</text>
<text text-anchor="middle" x="4132.5" y="-69" font-family="Helvetica,sans-Serif" font-size="10.00">/__dt__18fOpAcm_HIO_entry_cFv.s</text>
</a>
</g>
</g>
<!-- Node1&#45;&gt;Node28 -->
<g id="edge28" class="edge">
<title>Node1&#45;&gt;Node28</title>
<path fill="none" stroke="midnightblue" d="M2307.02,-142.94C2587.91,-142.44 3691.61,-137.92 4036.5,-98 4045.38,-96.97 4054.66,-95.52 4063.79,-93.87"/>
<polygon fill="midnightblue" stroke="midnightblue" points="4064.45,-97.31 4073.62,-92.01 4063.15,-90.43 4064.45,-97.31"/>
</g>
<!-- Node29 -->
<g id="node29" class="node">
<title>Node29</title>
<g id="a_node29"><a xlink:title=" ">
<polygon fill="white" stroke="#bfbfbf" points="4238,-62 4238,-92 4391,-92 4391,-62 4238,-62"/>
<text text-anchor="start" x="4246" y="-80" font-family="Helvetica,sans-Serif" font-size="10.00">asm/a/npc/d_a_npc_cd</text>
<text text-anchor="middle" x="4314.5" y="-69" font-family="Helvetica,sans-Serif" font-size="10.00">/__dt__14mDoHIO_entry_cFv.s</text>
</a>
</g>
</g>
<!-- Node1&#45;&gt;Node29 -->
<g id="edge29" class="edge">
<title>Node1&#45;&gt;Node29</title>
<path fill="none" stroke="midnightblue" d="M2307.14,-143.33C2606.53,-144.55 3844.33,-146.49 4228.5,-98 4236.2,-97.03 4244.22,-95.66 4252.12,-94.09"/>
<polygon fill="midnightblue" stroke="midnightblue" points="4252.98,-97.48 4262.05,-92 4251.55,-90.63 4252.98,-97.48"/>
</g>
<!-- Node30 -->
<g id="node30" class="node">
<title>Node30</title>
<g id="a_node30"><a xlink:title=" ">
<polygon fill="white" stroke="#bfbfbf" points="4409.5,-62 4409.5,-92 4561.5,-92 4561.5,-62 4409.5,-62"/>
<text text-anchor="start" x="4417.5" y="-80" font-family="Helvetica,sans-Serif" font-size="10.00">asm/a/npc/d_a_npc_cd</text>
<text text-anchor="middle" x="4485.5" y="-69" font-family="Helvetica,sans-Serif" font-size="10.00">/__dt__13daNpcCd_HIO_cFv.s</text>
</a>
</g>
</g>
<!-- Node1&#45;&gt;Node30 -->
<g id="edge30" class="edge">
<title>Node1&#45;&gt;Node30</title>
<path fill="none" stroke="midnightblue" d="M2307.11,-142.45C2645.82,-139.53 4188.79,-124.81 4400.5,-98 4408.11,-97.04 4416.04,-95.67 4423.86,-94.1"/>
<polygon fill="midnightblue" stroke="midnightblue" points="4424.62,-97.52 4433.67,-92.02 4423.16,-90.67 4424.62,-97.52"/>
</g>
<!-- Node31 -->
<g id="node31" class="node">
<title>Node31</title>
<g id="a_node31"><a xlink:title=" ">
<polygon fill="white" stroke="#bfbfbf" points="4579.5,-62 4579.5,-92 4713.5,-92 4713.5,-62 4579.5,-62"/>
<text text-anchor="start" x="4587.5" y="-80" font-family="Helvetica,sans-Serif" font-size="10.00">asm/a/npc/d_a_npc_cd</text>
<text text-anchor="middle" x="4646.5" y="-69" font-family="Helvetica,sans-Serif" font-size="10.00">/__sinit_d_a_npc_cd_cpp.s</text>
</a>
</g>
</g>
<!-- Node1&#45;&gt;Node31 -->
<g id="edge31" class="edge">
<title>Node1&#45;&gt;Node31</title>
<path fill="none" stroke="midnightblue" d="M2307.26,-142.66C2662.17,-140.72 4341.43,-129.89 4570.5,-98 4576.89,-97.11 4583.5,-95.87 4590.05,-94.43"/>
<polygon fill="midnightblue" stroke="midnightblue" points="4591.3,-97.74 4600.23,-92.04 4589.7,-90.92 4591.3,-97.74"/>
</g>
<!-- Node4&#45;&gt;Node3 -->
<g id="edge4" class="edge">
<title>Node4&#45;&gt;Node3</title>
<path fill="none" stroke="midnightblue" d="M164.11,-67.23C157.99,-57.29 147.86,-40.84 140.14,-28.29"/>
<polygon fill="midnightblue" stroke="midnightblue" points="143.03,-26.31 134.81,-19.63 137.07,-29.98 143.03,-26.31"/>
</g>
</g>
</svg>
        <g id="navigator" transform="translate(0 0)" fill="#404254">
                <rect fill="#f2f5e9" fill-opacity="0.5" stroke="#606060" stroke-width=".5" x="0" y="0" width="60" height="60"/>
                <use id="zoomplus" xlink:href="#zoomPlus" x="17" y="9" onmousedown="handleZoom(evt,'in')"/>
                <use id="zoomminus" xlink:href="#zoomMin" x="42" y="9" onmousedown="handleZoom(evt,'out')"/>
                <use id="reset" xlink:href="#resetDef" x="30" y="36" onmousedown="handleReset()"/>
                <g id="arrowUp" xlink:href="#dirArrow" transform="translate(30 24)" onmousedown="handlePan(0,-1)">
                  <use xlink:href="#rim" fill="#404040">
                        <set attributeName="fill" to="#808080" begin="arrowUp.mouseover" end="arrowUp.mouseout"/>
                  </use>
                  <path fill="none" stroke="white" stroke-width="1.5" d="M0,-3.0v7 M-2.5,-0.5L0,-3.0L2.5,-0.5"/>
                </g>
                <g id="arrowRight" xlink:href="#dirArrow" transform="rotate(90) translate(36 -43)" onmousedown="handlePan(1,0)">
                  <use xlink:href="#rim" fill="#404040">
                        <set attributeName="fill" to="#808080" begin="arrowRight.mouseover" end="arrowRight.mouseout"/>
                  </use>
                  <path fill="none" stroke="white" stroke-width="1.5" d="M0,-3.0v7 M-2.5,-0.5L0,-3.0L2.5,-0.5"/>
                </g>
                <g id="arrowDown" xlink:href="#dirArrow" transform="rotate(180) translate(-30 -48)" onmousedown="handlePan(0,1)">
                  <use xlink:href="#rim" fill="#404040">
                        <set attributeName="fill" to="#808080" begin="arrowDown.mouseover" end="arrowDown.mouseout"/>
                  </use>
                  <path fill="none" stroke="white" stroke-width="1.5" d="M0,-3.0v7 M-2.5,-0.5L0,-3.0L2.5,-0.5"/>
                </g>
                <g id="arrowLeft" xlink:href="#dirArrow" transform="rotate(270) translate(-36 17)" onmousedown="handlePan(-1,0)">
                  <use xlink:href="#rim" fill="#404040">
                        <set attributeName="fill" to="#808080" begin="arrowLeft.mouseover" end="arrowLeft.mouseout"/>
                  </use>
                  <path fill="none" stroke="white" stroke-width="1.5" d="M0,-3.0v7 M-2.5,-0.5L0,-3.0L2.5,-0.5"/>
                </g>
        </g>
        <svg viewBox="0 0 15 15" width="100%" height="30px" preserveAspectRatio="xMaxYMin meet">
         <g id="arrow_out" transform="scale(0.3 0.3)">
          <a xlink:href="d__a__npc__cd_8cpp__incl_org.svg" target="_base">
           <rect id="button" ry="5" rx="5" y="6" x="6" height="38" width="38"
                fill="#f2f5e9" fill-opacity="0.5" stroke="#606060" stroke-width="1.0"/>
           <path id="arrow"
             d="M 11.500037,31.436501 C 11.940474,20.09759 22.043105,11.32322 32.158766,21.979434 L 37.068811,17.246167 C 37.068811,17.246167 37.088388,32 37.088388,32 L 22.160133,31.978069 C 22.160133,31.978069 26.997745,27.140456 26.997745,27.140456 C 18.528582,18.264221 13.291696,25.230495 11.500037,31.436501 z"
             style="fill:#404040;"/>
          </a>
         </g>
        </svg>
</svg>
