<?xml version="1.0" encoding="UTF-8" standalone="no"?>
<!DOCTYPE svg PUBLIC "-//W3C//DTD SVG 1.1//EN"
 "http://www.w3.org/Graphics/SVG/1.1/DTD/svg11.dtd">
<!-- Generated by graphviz version 2.47.0 (20210316.2052)
 -->
<!-- Title: src/d/bg/d_bg_s_movebg_actor.cpp Pages: 1 -->
<svg width="2530pt" height="173pt"
 viewBox="0.00 0.00 2529.50 173.00" xmlns="http://www.w3.org/2000/svg" xmlns:xlink="http://www.w3.org/1999/xlink">
<g id="graph0" class="graph" transform="scale(1 1) rotate(0) translate(4 169)">
<title>src/d/bg/d_bg_s_movebg_actor.cpp</title>
<polygon fill="white" stroke="transparent" points="-4,4 -4,-169 2525.5,-169 2525.5,4 -4,4"/>
<!-- Node1 -->
<g id="node1" class="node">
<title>Node1</title>
<g id="a_node1"><a xlink:title=" ">
<polygon fill="#bfbfbf" stroke="black" points="1117.5,-134.5 1117.5,-164.5 1243.5,-164.5 1243.5,-134.5 1117.5,-134.5"/>
<text text-anchor="start" x="1125.5" y="-152.5" font-family="Helvetica,sans-Serif" font-size="10.00">src/d/bg/d_bg_s_movebg</text>
<text text-anchor="middle" x="1180.5" y="-141.5" font-family="Helvetica,sans-Serif" font-size="10.00">_actor.cpp</text>
</a>
</g>
</g>
<!-- Node2 -->
<g id="node2" class="node">
<title>Node2</title>
<g id="a_node2"><a xlink:href="dol2asm_8h.html" target="_top" xlink:title=" ">
<polygon fill="white" stroke="black" points="0,-67.5 0,-86.5 61,-86.5 61,-67.5 0,-67.5"/>
<text text-anchor="middle" x="30.5" y="-74.5" font-family="Helvetica,sans-Serif" font-size="10.00">dol2asm.h</text>
</a>
</g>
</g>
<!-- Node1&#45;&gt;Node2 -->
<g id="edge1" class="edge">
<title>Node1&#45;&gt;Node2</title>
<path fill="none" stroke="midnightblue" d="M1117.18,-148.68C913.28,-148.79 275.48,-145.24 75.5,-98 68.73,-96.4 61.72,-93.8 55.3,-90.99"/>
<polygon fill="midnightblue" stroke="midnightblue" points="56.36,-87.62 45.83,-86.52 53.38,-93.95 56.36,-87.62"/>
</g>
<!-- Node3 -->
<g id="node3" class="node">
<title>Node3</title>
<g id="a_node3"><a xlink:href="types_8h.html" target="_top" xlink:title=" ">
<polygon fill="white" stroke="black" points="90,-0.5 90,-19.5 171,-19.5 171,-0.5 90,-0.5"/>
<text text-anchor="middle" x="130.5" y="-7.5" font-family="Helvetica,sans-Serif" font-size="10.00">dolphin/types.h</text>
</a>
</g>
</g>
<!-- Node1&#45;&gt;Node3 -->
<g id="edge2" class="edge">
<title>Node1&#45;&gt;Node3</title>
<path fill="none" stroke="midnightblue" d="M1117.43,-147.9C892.83,-145.48 143.47,-134.65 108.5,-98 90.48,-79.11 105.48,-47.67 117.99,-28.21"/>
<polygon fill="midnightblue" stroke="midnightblue" points="121.03,-29.95 123.78,-19.72 115.25,-26.01 121.03,-29.95"/>
</g>
<!-- Node4 -->
<g id="node4" class="node">
<title>Node4</title>
<g id="a_node4"><a xlink:href="d__bg__s__movebg__actor_8h.html" target="_top" xlink:title=" ">
<polygon fill="white" stroke="black" points="117.5,-62 117.5,-92 227.5,-92 227.5,-62 117.5,-62"/>
<text text-anchor="start" x="125.5" y="-80" font-family="Helvetica,sans-Serif" font-size="10.00">d/bg/d_bg_s_movebg</text>
<text text-anchor="middle" x="172.5" y="-69" font-family="Helvetica,sans-Serif" font-size="10.00">_actor.h</text>
</a>
</g>
</g>
<!-- Node1&#45;&gt;Node4 -->
<g id="edge3" class="edge">
<title>Node1&#45;&gt;Node4</title>
<path fill="none" stroke="midnightblue" d="M1117.42,-147.18C934.56,-143.01 406.4,-128.6 236.5,-98 231.74,-97.14 226.84,-96.04 221.96,-94.78"/>
<polygon fill="midnightblue" stroke="midnightblue" points="222.63,-91.34 212.06,-92.04 220.77,-98.08 222.63,-91.34"/>
</g>
<!-- Node5 -->
<g id="node5" class="node">
<title>Node5</title>
<g id="a_node5"><a xlink:title=" ">
<polygon fill="white" stroke="#bfbfbf" points="245.5,-62 245.5,-92 439.5,-92 439.5,-62 245.5,-62"/>
<text text-anchor="start" x="253.5" y="-80" font-family="Helvetica,sans-Serif" font-size="10.00">asm/d/bg/d_bg_s_movebg</text>
<text text-anchor="middle" x="342.5" y="-69" font-family="Helvetica,sans-Serif" font-size="10.00">_actor/__ct__16dBgS_MoveBgActorFv.s</text>
</a>
</g>
</g>
<!-- Node1&#45;&gt;Node5 -->
<g id="edge5" class="edge">
<title>Node1&#45;&gt;Node5</title>
<path fill="none" stroke="midnightblue" d="M1117.19,-146.59C990.15,-142.23 695.25,-129.35 449.5,-98 440.25,-96.82 430.59,-95.35 421.02,-93.75"/>
<polygon fill="midnightblue" stroke="midnightblue" points="421.55,-90.29 411.1,-92.04 420.36,-97.19 421.55,-90.29"/>
</g>
<!-- Node6 -->
<g id="node6" class="node">
<title>Node6</title>
<g id="a_node6"><a xlink:title=" ">
<polygon fill="white" stroke="#bfbfbf" points="458,-56.5 458,-97.5 589,-97.5 589,-56.5 458,-56.5"/>
<text text-anchor="start" x="466" y="-85.5" font-family="Helvetica,sans-Serif" font-size="10.00">asm/d/bg/d_bg_s_movebg</text>
<text text-anchor="start" x="466" y="-74.5" font-family="Helvetica,sans-Serif" font-size="10.00">_actor/CheckCreateHeap</text>
<text text-anchor="middle" x="523.5" y="-63.5" font-family="Helvetica,sans-Serif" font-size="10.00">__FP10fopAc_ac_c.s</text>
</a>
</g>
</g>
<!-- Node1&#45;&gt;Node6 -->
<g id="edge6" class="edge">
<title>Node1&#45;&gt;Node6</title>
<path fill="none" stroke="midnightblue" d="M1117.16,-146.61C1011.58,-142.67 792.95,-131.16 599.28,-97.97"/>
<polygon fill="midnightblue" stroke="midnightblue" points="599.66,-94.48 589.21,-96.21 598.46,-101.37 599.66,-94.48"/>
</g>
<!-- Node7 -->
<g id="node7" class="node">
<title>Node7</title>
<g id="a_node7"><a xlink:title=" ">
<polygon fill="white" stroke="#bfbfbf" points="607,-56.5 607,-97.5 750,-97.5 750,-56.5 607,-56.5"/>
<text text-anchor="start" x="615" y="-85.5" font-family="Helvetica,sans-Serif" font-size="10.00">asm/d/bg/d_bg_s_movebg</text>
<text text-anchor="start" x="615" y="-74.5" font-family="Helvetica,sans-Serif" font-size="10.00">_actor/CreateHeap__16dBgS</text>
<text text-anchor="middle" x="678.5" y="-63.5" font-family="Helvetica,sans-Serif" font-size="10.00">_MoveBgActorFv.s</text>
</a>
</g>
</g>
<!-- Node1&#45;&gt;Node7 -->
<g id="edge7" class="edge">
<title>Node1&#45;&gt;Node7</title>
<path fill="none" stroke="midnightblue" d="M1117.37,-143.36C1036.73,-136.26 892.75,-121.75 760.31,-98.03"/>
<polygon fill="midnightblue" stroke="midnightblue" points="760.85,-94.58 750.39,-96.24 759.61,-101.46 760.85,-94.58"/>
</g>
<!-- Node8 -->
<g id="node8" class="node">
<title>Node8</title>
<g id="a_node8"><a xlink:title=" ">
<polygon fill="white" stroke="#bfbfbf" points="768,-56.5 768,-97.5 899,-97.5 899,-56.5 768,-56.5"/>
<text text-anchor="start" x="776" y="-85.5" font-family="Helvetica,sans-Serif" font-size="10.00">asm/d/bg/d_bg_s_movebg</text>
<text text-anchor="start" x="776" y="-74.5" font-family="Helvetica,sans-Serif" font-size="10.00">_actor/Create__16dBgS</text>
<text text-anchor="middle" x="833.5" y="-63.5" font-family="Helvetica,sans-Serif" font-size="10.00">_MoveBgActorFv.s</text>
</a>
</g>
</g>
<!-- Node1&#45;&gt;Node8 -->
<g id="edge8" class="edge">
<title>Node1&#45;&gt;Node8</title>
<path fill="none" stroke="midnightblue" d="M1117.29,-138.18C1064.25,-129.2 986.31,-115.26 909.17,-98.07"/>
<polygon fill="midnightblue" stroke="midnightblue" points="909.8,-94.63 899.28,-95.85 908.27,-101.46 909.8,-94.63"/>
</g>
<!-- Node9 -->
<g id="node9" class="node">
<title>Node9</title>
<g id="a_node9"><a xlink:title=" ">
<polygon fill="white" stroke="#bfbfbf" points="917.5,-56.5 917.5,-97.5 1063.5,-97.5 1063.5,-56.5 917.5,-56.5"/>
<text text-anchor="start" x="925.5" y="-85.5" font-family="Helvetica,sans-Serif" font-size="10.00">asm/d/bg/d_bg_s_movebg</text>
<text text-anchor="start" x="925.5" y="-74.5" font-family="Helvetica,sans-Serif" font-size="10.00">_actor/Execute__16dBgS</text>
<text text-anchor="middle" x="990.5" y="-63.5" font-family="Helvetica,sans-Serif" font-size="10.00">_MoveBgActorFPPA3_A4_f.s</text>
</a>
</g>
</g>
<!-- Node1&#45;&gt;Node9 -->
<g id="edge9" class="edge">
<title>Node1&#45;&gt;Node9</title>
<path fill="none" stroke="midnightblue" d="M1142.51,-134.4C1116.81,-124.87 1082.27,-112.05 1052.62,-101.05"/>
<polygon fill="midnightblue" stroke="midnightblue" points="1053.77,-97.74 1043.18,-97.55 1051.34,-104.31 1053.77,-97.74"/>
</g>
<!-- Node10 -->
<g id="node10" class="node">
<title>Node10</title>
<g id="a_node10"><a xlink:title=" ">
<polygon fill="white" stroke="#bfbfbf" points="1082,-62 1082,-92 1279,-92 1279,-62 1082,-62"/>
<text text-anchor="start" x="1090" y="-80" font-family="Helvetica,sans-Serif" font-size="10.00">asm/d/bg/d_bg_s_movebg</text>
<text text-anchor="middle" x="1180.5" y="-69" font-family="Helvetica,sans-Serif" font-size="10.00">_actor/Draw__16dBgS_MoveBgActorFv.s</text>
</a>
</g>
</g>
<!-- Node1&#45;&gt;Node10 -->
<g id="edge10" class="edge">
<title>Node1&#45;&gt;Node10</title>
<path fill="none" stroke="midnightblue" d="M1180.5,-134.23C1180.5,-125.16 1180.5,-113.16 1180.5,-102.58"/>
<polygon fill="midnightblue" stroke="midnightblue" points="1184,-102.25 1180.5,-92.25 1177,-102.25 1184,-102.25"/>
</g>
<!-- Node11 -->
<g id="node11" class="node">
<title>Node11</title>
<g id="a_node11"><a xlink:title=" ">
<polygon fill="white" stroke="#bfbfbf" points="1297,-56.5 1297,-97.5 1428,-97.5 1428,-56.5 1297,-56.5"/>
<text text-anchor="start" x="1305" y="-85.5" font-family="Helvetica,sans-Serif" font-size="10.00">asm/d/bg/d_bg_s_movebg</text>
<text text-anchor="start" x="1305" y="-74.5" font-family="Helvetica,sans-Serif" font-size="10.00">_actor/Delete__16dBgS</text>
<text text-anchor="middle" x="1362.5" y="-63.5" font-family="Helvetica,sans-Serif" font-size="10.00">_MoveBgActorFv.s</text>
</a>
</g>
</g>
<!-- Node1&#45;&gt;Node11 -->
<g id="edge11" class="edge">
<title>Node1&#45;&gt;Node11</title>
<path fill="none" stroke="midnightblue" d="M1216.89,-134.4C1241.4,-124.91 1274.3,-112.16 1302.63,-101.19"/>
<polygon fill="midnightblue" stroke="midnightblue" points="1303.98,-104.42 1312.04,-97.55 1301.45,-97.89 1303.98,-104.42"/>
</g>
<!-- Node12 -->
<g id="node12" class="node">
<title>Node12</title>
<g id="a_node12"><a xlink:title=" ">
<polygon fill="white" stroke="#bfbfbf" points="1446,-56.5 1446,-97.5 1577,-97.5 1577,-56.5 1446,-56.5"/>
<text text-anchor="start" x="1454" y="-85.5" font-family="Helvetica,sans-Serif" font-size="10.00">asm/d/bg/d_bg_s_movebg</text>
<text text-anchor="start" x="1454" y="-74.5" font-family="Helvetica,sans-Serif" font-size="10.00">_actor/IsDelete__16dBgS</text>
<text text-anchor="middle" x="1511.5" y="-63.5" font-family="Helvetica,sans-Serif" font-size="10.00">_MoveBgActorFv.s</text>
</a>
</g>
</g>
<!-- Node1&#45;&gt;Node12 -->
<g id="edge12" class="edge">
<title>Node1&#45;&gt;Node12</title>
<path fill="none" stroke="midnightblue" d="M1243.61,-137.37C1293.45,-128.29 1364.96,-114.62 1435.8,-98.33"/>
<polygon fill="midnightblue" stroke="midnightblue" points="1436.84,-101.68 1445.79,-96.01 1435.26,-94.86 1436.84,-101.68"/>
</g>
<!-- Node13 -->
<g id="node13" class="node">
<title>Node13</title>
<g id="a_node13"><a xlink:title=" ">
<polygon fill="white" stroke="#bfbfbf" points="1595,-56.5 1595,-97.5 1726,-97.5 1726,-56.5 1595,-56.5"/>
<text text-anchor="start" x="1603" y="-85.5" font-family="Helvetica,sans-Serif" font-size="10.00">asm/d/bg/d_bg_s_movebg</text>
<text text-anchor="start" x="1603" y="-74.5" font-family="Helvetica,sans-Serif" font-size="10.00">_actor/ToFore__16dBgS</text>
<text text-anchor="middle" x="1660.5" y="-63.5" font-family="Helvetica,sans-Serif" font-size="10.00">_MoveBgActorFv.s</text>
</a>
</g>
</g>
<!-- Node1&#45;&gt;Node13 -->
<g id="edge13" class="edge">
<title>Node1&#45;&gt;Node13</title>
<path fill="none" stroke="midnightblue" d="M1243.53,-143.42C1321.69,-136.51 1459.07,-122.35 1585.03,-98.17"/>
<polygon fill="midnightblue" stroke="midnightblue" points="1585.7,-101.6 1594.84,-96.26 1584.36,-94.73 1585.7,-101.6"/>
</g>
<!-- Node14 -->
<g id="node14" class="node">
<title>Node14</title>
<g id="a_node14"><a xlink:title=" ">
<polygon fill="white" stroke="#bfbfbf" points="1744,-56.5 1744,-97.5 1875,-97.5 1875,-56.5 1744,-56.5"/>
<text text-anchor="start" x="1752" y="-85.5" font-family="Helvetica,sans-Serif" font-size="10.00">asm/d/bg/d_bg_s_movebg</text>
<text text-anchor="start" x="1752" y="-74.5" font-family="Helvetica,sans-Serif" font-size="10.00">_actor/ToBack__16dBgS</text>
<text text-anchor="middle" x="1809.5" y="-63.5" font-family="Helvetica,sans-Serif" font-size="10.00">_MoveBgActorFv.s</text>
</a>
</g>
</g>
<!-- Node1&#45;&gt;Node14 -->
<g id="edge14" class="edge">
<title>Node1&#45;&gt;Node14</title>
<path fill="none" stroke="midnightblue" d="M1243.82,-146.31C1345.49,-142 1551.46,-130.06 1733.83,-98.15"/>
<polygon fill="midnightblue" stroke="midnightblue" points="1734.63,-101.57 1743.87,-96.37 1733.41,-94.67 1734.63,-101.57"/>
</g>
<!-- Node15 -->
<g id="node15" class="node">
<title>Node15</title>
<g id="a_node15"><a xlink:title=" ">
<polygon fill="white" stroke="#bfbfbf" points="1893,-56.5 1893,-97.5 2038,-97.5 2038,-56.5 1893,-56.5"/>
<text text-anchor="start" x="1901" y="-85.5" font-family="Helvetica,sans-Serif" font-size="10.00">asm/d/bg/d_bg_s_movebg</text>
<text text-anchor="start" x="1901" y="-74.5" font-family="Helvetica,sans-Serif" font-size="10.00">_actor/MoveBGCreateHeap</text>
<text text-anchor="middle" x="1965.5" y="-63.5" font-family="Helvetica,sans-Serif" font-size="10.00">__16dBgS_MoveBgActorFv.s</text>
</a>
</g>
</g>
<!-- Node1&#45;&gt;Node15 -->
<g id="edge15" class="edge">
<title>Node1&#45;&gt;Node15</title>
<path fill="none" stroke="midnightblue" d="M1243.54,-147.57C1365.51,-145 1642.3,-135.35 1882.78,-98.14"/>
<polygon fill="midnightblue" stroke="midnightblue" points="1883.42,-101.59 1892.76,-96.58 1882.34,-94.67 1883.42,-101.59"/>
</g>
<!-- Node16 -->
<g id="node16" class="node">
<title>Node16</title>
<g id="a_node16"><a xlink:title=" ">
<polygon fill="white" stroke="#bfbfbf" points="2056,-62 2056,-92 2187,-92 2187,-62 2056,-62"/>
<text text-anchor="start" x="2064" y="-80" font-family="Helvetica,sans-Serif" font-size="10.00">asm/d/bg/d_bg_s_movebg</text>
<text text-anchor="middle" x="2121.5" y="-69" font-family="Helvetica,sans-Serif" font-size="10.00">_actor/func_800787BC.s</text>
</a>
</g>
</g>
<!-- Node1&#45;&gt;Node16 -->
<g id="edge16" class="edge">
<title>Node1&#45;&gt;Node16</title>
<path fill="none" stroke="midnightblue" d="M1243.54,-149.25C1387.2,-149.99 1749.48,-146.42 2047.5,-98 2053.31,-97.06 2059.31,-95.84 2065.28,-94.48"/>
<polygon fill="midnightblue" stroke="midnightblue" points="2066.34,-97.82 2075.24,-92.07 2064.7,-91.02 2066.34,-97.82"/>
</g>
<!-- Node17 -->
<g id="node17" class="node">
<title>Node17</title>
<g id="a_node17"><a xlink:title=" ">
<polygon fill="white" stroke="#bfbfbf" points="2205.5,-56.5 2205.5,-97.5 2363.5,-97.5 2363.5,-56.5 2205.5,-56.5"/>
<text text-anchor="start" x="2213.5" y="-85.5" font-family="Helvetica,sans-Serif" font-size="10.00">asm/d/bg/d_bg_s_movebg</text>
<text text-anchor="start" x="2213.5" y="-74.5" font-family="Helvetica,sans-Serif" font-size="10.00">_actor/MoveBGDelete__16dBgS</text>
<text text-anchor="middle" x="2284.5" y="-63.5" font-family="Helvetica,sans-Serif" font-size="10.00">_MoveBgActorFv.s</text>
</a>
</g>
</g>
<!-- Node1&#45;&gt;Node17 -->
<g id="edge17" class="edge">
<title>Node1&#45;&gt;Node17</title>
<path fill="none" stroke="midnightblue" d="M1243.58,-149.16C1402.23,-150 1830.65,-147.25 2195.5,-98"/>
<polygon fill="midnightblue" stroke="midnightblue" points="2196.03,-101.46 2205.46,-96.64 2195.08,-94.53 2196.03,-101.46"/>
</g>
<!-- Node18 -->
<g id="node18" class="node">
<title>Node18</title>
<g id="a_node18"><a xlink:title=" ">
<polygon fill="white" stroke="#bfbfbf" points="2381.5,-56.5 2381.5,-97.5 2521.5,-97.5 2521.5,-56.5 2381.5,-56.5"/>
<text text-anchor="start" x="2389.5" y="-85.5" font-family="Helvetica,sans-Serif" font-size="10.00">asm/d/bg/d_bg_s_movebg</text>
<text text-anchor="start" x="2389.5" y="-74.5" font-family="Helvetica,sans-Serif" font-size="10.00">_actor/MoveBGExecute_</text>
<text text-anchor="middle" x="2451.5" y="-63.5" font-family="Helvetica,sans-Serif" font-size="10.00">_16dBgS_MoveBgActorFv.s</text>
</a>
</g>
</g>
<!-- Node1&#45;&gt;Node18 -->
<g id="edge18" class="edge">
<title>Node1&#45;&gt;Node18</title>
<path fill="none" stroke="midnightblue" d="M1243.61,-147.54C1454.12,-144.07 2131.97,-130.69 2371.4,-97.95"/>
<polygon fill="midnightblue" stroke="midnightblue" points="2372.03,-101.4 2381.44,-96.53 2371.05,-94.47 2372.03,-101.4"/>
</g>
<!-- Node4&#45;&gt;Node3 -->
<g id="edge4" class="edge">
<title>Node4&#45;&gt;Node3</title>
<path fill="none" stroke="midnightblue" d="M163.39,-61.9C157.03,-52.06 148.51,-38.88 141.74,-28.39"/>
<polygon fill="midnightblue" stroke="midnightblue" points="144.48,-26.19 136.12,-19.69 138.61,-29.99 144.48,-26.19"/>
</g>
</g>
</svg>
