<?xml version="1.0" encoding="UTF-8" standalone="no"?>
<!DOCTYPE svg PUBLIC "-//W3C//DTD SVG 1.1//EN"
 "http://www.w3.org/Graphics/SVG/1.1/DTD/svg11.dtd">
<!-- Generated by graphviz version 2.47.0 (20210316.2052)
 -->
<!-- Title: src/d/bg/d_bg_s_spl_grp_chk.cpp Pages: 1 -->
<svg width="1249pt" height="173pt"
 viewBox="0.00 0.00 1248.50 173.00" xmlns="http://www.w3.org/2000/svg" xmlns:xlink="http://www.w3.org/1999/xlink">
<g id="graph0" class="graph" transform="scale(1 1) rotate(0) translate(4 169)">
<title>src/d/bg/d_bg_s_spl_grp_chk.cpp</title>
<polygon fill="white" stroke="transparent" points="-4,4 -4,-169 1244.5,-169 1244.5,4 -4,4"/>
<!-- Node1 -->
<g id="node1" class="node">
<title>Node1</title>
<g id="a_node1"><a xlink:title=" ">
<polygon fill="#bfbfbf" stroke="black" points="459.5,-134.5 459.5,-164.5 563.5,-164.5 563.5,-134.5 459.5,-134.5"/>
<text text-anchor="start" x="467.5" y="-152.5" font-family="Helvetica,sans-Serif" font-size="10.00">src/d/bg/d_bg_s_spl</text>
<text text-anchor="middle" x="511.5" y="-141.5" font-family="Helvetica,sans-Serif" font-size="10.00">_grp_chk.cpp</text>
</a>
</g>
</g>
<!-- Node2 -->
<g id="node2" class="node">
<title>Node2</title>
<g id="a_node2"><a xlink:href="dol2asm_8h.html" target="_top" xlink:title=" ">
<polygon fill="white" stroke="black" points="0,-67.5 0,-86.5 61,-86.5 61,-67.5 0,-67.5"/>
<text text-anchor="middle" x="30.5" y="-74.5" font-family="Helvetica,sans-Serif" font-size="10.00">dol2asm.h</text>
</a>
</g>
</g>
<!-- Node1&#45;&gt;Node2 -->
<g id="edge1" class="edge">
<title>Node1&#45;&gt;Node2</title>
<path fill="none" stroke="midnightblue" d="M459.19,-147.52C376.36,-144.85 210.57,-134.91 75.5,-98 69.01,-96.23 62.25,-93.65 56,-90.93"/>
<polygon fill="midnightblue" stroke="midnightblue" points="57.27,-87.66 46.73,-86.65 54.34,-94.02 57.27,-87.66"/>
</g>
<!-- Node3 -->
<g id="node3" class="node">
<title>Node3</title>
<g id="a_node3"><a xlink:href="types_8h.html" target="_top" xlink:title=" ">
<polygon fill="white" stroke="black" points="90,-0.5 90,-19.5 171,-19.5 171,-0.5 90,-0.5"/>
<text text-anchor="middle" x="130.5" y="-7.5" font-family="Helvetica,sans-Serif" font-size="10.00">dolphin/types.h</text>
</a>
</g>
</g>
<!-- Node1&#45;&gt;Node3 -->
<g id="edge2" class="edge">
<title>Node1&#45;&gt;Node3</title>
<path fill="none" stroke="midnightblue" d="M459.36,-145.74C355.83,-139.72 132.3,-123.85 109.5,-98 92.27,-78.47 106.6,-47.23 118.55,-27.98"/>
<polygon fill="midnightblue" stroke="midnightblue" points="121.49,-29.87 124.08,-19.59 115.65,-26.02 121.49,-29.87"/>
</g>
<!-- Node4 -->
<g id="node4" class="node">
<title>Node4</title>
<g id="a_node4"><a xlink:href="d__bg__s__spl__grp__chk_8h.html" target="_top" xlink:title=" ">
<polygon fill="white" stroke="black" points="118,-62 118,-92 225,-92 225,-62 118,-62"/>
<text text-anchor="start" x="126" y="-80" font-family="Helvetica,sans-Serif" font-size="10.00">d/bg/d_bg_s_spl_grp</text>
<text text-anchor="middle" x="171.5" y="-69" font-family="Helvetica,sans-Serif" font-size="10.00">_chk.h</text>
</a>
</g>
</g>
<!-- Node1&#45;&gt;Node4 -->
<g id="edge3" class="edge">
<title>Node1&#45;&gt;Node4</title>
<path fill="none" stroke="midnightblue" d="M459.26,-141C403.26,-132.5 311.94,-117.27 234.5,-98 230.72,-97.06 226.84,-96.02 222.95,-94.92"/>
<polygon fill="midnightblue" stroke="midnightblue" points="223.89,-91.55 213.31,-92.09 221.92,-98.26 223.89,-91.55"/>
</g>
<!-- Node5 -->
<g id="node5" class="node">
<title>Node5</title>
<g id="a_node5"><a xlink:title=" ">
<polygon fill="white" stroke="#bfbfbf" points="243,-56.5 243,-97.5 362,-97.5 362,-56.5 243,-56.5"/>
<text text-anchor="start" x="251" y="-85.5" font-family="Helvetica,sans-Serif" font-size="10.00">asm/d/bg/d_bg_s_spl</text>
<text text-anchor="start" x="251" y="-74.5" font-family="Helvetica,sans-Serif" font-size="10.00">_grp_chk/Set__14dBgS</text>
<text text-anchor="middle" x="302.5" y="-63.5" font-family="Helvetica,sans-Serif" font-size="10.00">_SplGrpChkFR4cXyzf.s</text>
</a>
</g>
</g>
<!-- Node1&#45;&gt;Node5 -->
<g id="edge5" class="edge">
<title>Node1&#45;&gt;Node5</title>
<path fill="none" stroke="midnightblue" d="M469.96,-134.49C441.46,-124.87 403.01,-111.9 370.14,-100.82"/>
<polygon fill="midnightblue" stroke="midnightblue" points="371.18,-97.47 360.58,-97.59 368.94,-104.1 371.18,-97.47"/>
</g>
<!-- Node6 -->
<g id="node6" class="node">
<title>Node6</title>
<g id="a_node6"><a xlink:title=" ">
<polygon fill="white" stroke="#bfbfbf" points="380,-56.5 380,-97.5 503,-97.5 503,-56.5 380,-56.5"/>
<text text-anchor="start" x="388" y="-85.5" font-family="Helvetica,sans-Serif" font-size="10.00">asm/d/bg/d_bg_s_spl</text>
<text text-anchor="start" x="388" y="-74.5" font-family="Helvetica,sans-Serif" font-size="10.00">_grp_chk/__ct__14dBgS</text>
<text text-anchor="middle" x="441.5" y="-63.5" font-family="Helvetica,sans-Serif" font-size="10.00">_SplGrpChkFv.s</text>
</a>
</g>
</g>
<!-- Node1&#45;&gt;Node6 -->
<g id="edge6" class="edge">
<title>Node1&#45;&gt;Node6</title>
<path fill="none" stroke="midnightblue" d="M497.33,-134.23C488.99,-125.83 478.17,-114.93 468.28,-104.97"/>
<polygon fill="midnightblue" stroke="midnightblue" points="470.48,-102.22 460.95,-97.59 465.51,-107.15 470.48,-102.22"/>
</g>
<!-- Node7 -->
<g id="node7" class="node">
<title>Node7</title>
<g id="a_node7"><a xlink:title=" ">
<polygon fill="white" stroke="#bfbfbf" points="521,-56.5 521,-97.5 644,-97.5 644,-56.5 521,-56.5"/>
<text text-anchor="start" x="529" y="-85.5" font-family="Helvetica,sans-Serif" font-size="10.00">asm/d/bg/d_bg_s_spl</text>
<text text-anchor="start" x="529" y="-74.5" font-family="Helvetica,sans-Serif" font-size="10.00">_grp_chk/__dt__14dBgS</text>
<text text-anchor="middle" x="582.5" y="-63.5" font-family="Helvetica,sans-Serif" font-size="10.00">_SplGrpChkFv.s</text>
</a>
</g>
</g>
<!-- Node1&#45;&gt;Node7 -->
<g id="edge7" class="edge">
<title>Node1&#45;&gt;Node7</title>
<path fill="none" stroke="midnightblue" d="M525.87,-134.23C534.41,-125.75 545.52,-114.72 555.63,-104.68"/>
<polygon fill="midnightblue" stroke="midnightblue" points="558.14,-107.12 562.77,-97.59 553.21,-102.15 558.14,-107.12"/>
</g>
<!-- Node8 -->
<g id="node8" class="node">
<title>Node8</title>
<g id="a_node8"><a xlink:title=" ">
<polygon fill="white" stroke="#bfbfbf" points="662.5,-56.5 662.5,-97.5 780.5,-97.5 780.5,-56.5 662.5,-56.5"/>
<text text-anchor="start" x="670.5" y="-85.5" font-family="Helvetica,sans-Serif" font-size="10.00">asm/d/bg/d_bg_s_spl</text>
<text text-anchor="start" x="670.5" y="-74.5" font-family="Helvetica,sans-Serif" font-size="10.00">_grp_chk/Init__14dBgS</text>
<text text-anchor="middle" x="721.5" y="-63.5" font-family="Helvetica,sans-Serif" font-size="10.00">_SplGrpChkFv.s</text>
</a>
</g>
</g>
<!-- Node1&#45;&gt;Node8 -->
<g id="edge8" class="edge">
<title>Node1&#45;&gt;Node8</title>
<path fill="none" stroke="midnightblue" d="M553.24,-134.49C581.87,-124.87 620.51,-111.9 653.54,-100.82"/>
<polygon fill="midnightblue" stroke="midnightblue" points="654.78,-104.09 663.14,-97.59 652.55,-97.46 654.78,-104.09"/>
</g>
<!-- Node9 -->
<g id="node9" class="node">
<title>Node9</title>
<g id="a_node9"><a xlink:title=" ">
<polygon fill="white" stroke="#bfbfbf" points="798.5,-62 798.5,-92 934.5,-92 934.5,-62 798.5,-62"/>
<text text-anchor="start" x="806.5" y="-80" font-family="Helvetica,sans-Serif" font-size="10.00">asm/d/bg/d_bg_s_spl</text>
<text text-anchor="middle" x="866.5" y="-69" font-family="Helvetica,sans-Serif" font-size="10.00">_grp_chk/func_80078D4C.s</text>
</a>
</g>
</g>
<!-- Node1&#45;&gt;Node9 -->
<g id="edge9" class="edge">
<title>Node1&#45;&gt;Node9</title>
<path fill="none" stroke="midnightblue" d="M563.74,-140.2C619.78,-131.02 711.3,-115.23 789.5,-98 794.43,-96.91 799.53,-95.73 804.63,-94.5"/>
<polygon fill="midnightblue" stroke="midnightblue" points="805.57,-97.87 814.44,-92.08 803.89,-91.08 805.57,-97.87"/>
</g>
<!-- Node10 -->
<g id="node10" class="node">
<title>Node10</title>
<g id="a_node10"><a xlink:title=" ">
<polygon fill="white" stroke="#bfbfbf" points="952.5,-62 952.5,-92 1086.5,-92 1086.5,-62 952.5,-62"/>
<text text-anchor="start" x="960.5" y="-80" font-family="Helvetica,sans-Serif" font-size="10.00">asm/d/bg/d_bg_s_spl</text>
<text text-anchor="middle" x="1019.5" y="-69" font-family="Helvetica,sans-Serif" font-size="10.00">_grp_chk/func_80078D54.s</text>
</a>
</g>
</g>
<!-- Node1&#45;&gt;Node10 -->
<g id="edge10" class="edge">
<title>Node1&#45;&gt;Node10</title>
<path fill="none" stroke="midnightblue" d="M563.73,-144.78C645.31,-138.45 807.72,-123.67 943.5,-98 948.95,-96.97 954.58,-95.76 960.2,-94.46"/>
<polygon fill="midnightblue" stroke="midnightblue" points="961.36,-97.78 970.26,-92.04 959.72,-90.98 961.36,-97.78"/>
</g>
<!-- Node11 -->
<g id="node11" class="node">
<title>Node11</title>
<g id="a_node11"><a xlink:title=" ">
<polygon fill="white" stroke="#bfbfbf" points="1104.5,-62 1104.5,-92 1240.5,-92 1240.5,-62 1104.5,-62"/>
<text text-anchor="start" x="1112.5" y="-80" font-family="Helvetica,sans-Serif" font-size="10.00">asm/d/bg/d_bg_s_spl</text>
<text text-anchor="middle" x="1172.5" y="-69" font-family="Helvetica,sans-Serif" font-size="10.00">_grp_chk/func_80078D5C.s</text>
</a>
</g>
</g>
<!-- Node1&#45;&gt;Node11 -->
<g id="edge11" class="edge">
<title>Node1&#45;&gt;Node11</title>
<path fill="none" stroke="midnightblue" d="M563.83,-146.92C666.48,-143.17 901.17,-131.4 1095.5,-98 1101.34,-97 1107.39,-95.77 1113.41,-94.42"/>
<polygon fill="midnightblue" stroke="midnightblue" points="1114.54,-97.74 1123.47,-92.04 1112.94,-90.93 1114.54,-97.74"/>
</g>
<!-- Node4&#45;&gt;Node3 -->
<g id="edge4" class="edge">
<title>Node4&#45;&gt;Node3</title>
<path fill="none" stroke="midnightblue" d="M162.6,-61.9C156.4,-52.06 148.08,-38.88 141.47,-28.39"/>
<polygon fill="midnightblue" stroke="midnightblue" points="144.28,-26.29 135.98,-19.69 138.36,-30.02 144.28,-26.29"/>
</g>
</g>
</svg>
