<?xml version="1.0" encoding="UTF-8" standalone="no"?>
<!DOCTYPE svg PUBLIC "-//W3C//DTD SVG 1.1//EN"
 "http://www.w3.org/Graphics/SVG/1.1/DTD/svg11.dtd">
<!-- Generated by graphviz version 2.47.0 (20210316.2052)
 -->
<!-- Title: src/d/bg/d_bg_s_acch.cpp Pages: 1 -->
<svg width="6582pt" height="173pt"
 viewBox="0.00 0.00 6582.00 173.00" xmlns="http://www.w3.org/2000/svg" xmlns:xlink="http://www.w3.org/1999/xlink">
<g id="graph0" class="graph" transform="scale(1 1) rotate(0) translate(4 169)">
<title>src/d/bg/d_bg_s_acch.cpp</title>
<polygon fill="white" stroke="transparent" points="-4,4 -4,-169 6578,-169 6578,4 -4,4"/>
<!-- Node1 -->
<g id="node1" class="node">
<title>Node1</title>
<g id="a_node1"><a xlink:title=" ">
<polygon fill="#bfbfbf" stroke="black" points="3234.5,-145.5 3234.5,-164.5 3365.5,-164.5 3365.5,-145.5 3234.5,-145.5"/>
<text text-anchor="middle" x="3300" y="-152.5" font-family="Helvetica,sans-Serif" font-size="10.00">src/d/bg/d_bg_s_acch.cpp</text>
</a>
</g>
</g>
<!-- Node2 -->
<g id="node2" class="node">
<title>Node2</title>
<g id="a_node2"><a xlink:href="d__bg__s__acch_8h.html" target="_top" xlink:title=" ">
<polygon fill="white" stroke="black" points="0,-73 0,-92 104,-92 104,-73 0,-73"/>
<text text-anchor="middle" x="52" y="-80" font-family="Helvetica,sans-Serif" font-size="10.00">d/bg/d_bg_s_acch.h</text>
</a>
</g>
</g>
<!-- Node1&#45;&gt;Node2 -->
<g id="edge1" class="edge">
<title>Node1&#45;&gt;Node2</title>
<path fill="none" stroke="midnightblue" d="M3234.25,-153.73C2793.07,-151.83 276.31,-139.68 118,-109 104.53,-106.39 90.24,-101.2 78.42,-96.18"/>
<polygon fill="midnightblue" stroke="midnightblue" points="79.71,-92.92 69.15,-92.07 76.87,-99.32 79.71,-92.92"/>
</g>
<!-- Node3 -->
<g id="node3" class="node">
<title>Node3</title>
<g id="a_node3"><a xlink:href="types_8h.html" target="_top" xlink:title=" ">
<polygon fill="white" stroke="black" points="51.5,-0.5 51.5,-19.5 132.5,-19.5 132.5,-0.5 51.5,-0.5"/>
<text text-anchor="middle" x="92" y="-7.5" font-family="Helvetica,sans-Serif" font-size="10.00">dolphin/types.h</text>
</a>
</g>
</g>
<!-- Node1&#45;&gt;Node3 -->
<g id="edge4" class="edge">
<title>Node1&#45;&gt;Node3</title>
<path fill="none" stroke="midnightblue" d="M3234.37,-153.94C2788.63,-153.39 221.38,-148.53 152,-109 136.24,-100.02 112.59,-54.34 100.22,-28.64"/>
<polygon fill="midnightblue" stroke="midnightblue" points="103.37,-27.13 95.93,-19.59 97.05,-30.13 103.37,-27.13"/>
</g>
<!-- Node4 -->
<g id="node4" class="node">
<title>Node4</title>
<g id="a_node4"><a xlink:href="dol2asm_8h.html" target="_top" xlink:title=" ">
<polygon fill="white" stroke="black" points="160.5,-73 160.5,-92 221.5,-92 221.5,-73 160.5,-73"/>
<text text-anchor="middle" x="191" y="-80" font-family="Helvetica,sans-Serif" font-size="10.00">dol2asm.h</text>
</a>
</g>
</g>
<!-- Node1&#45;&gt;Node4 -->
<g id="edge3" class="edge">
<title>Node1&#45;&gt;Node4</title>
<path fill="none" stroke="midnightblue" d="M3234.43,-154.05C2802.62,-154.28 379.75,-153.57 231,-109 223.47,-106.74 216,-102.63 209.59,-98.35"/>
<polygon fill="midnightblue" stroke="midnightblue" points="211.22,-95.21 201.07,-92.17 207.11,-100.88 211.22,-95.21"/>
</g>
<!-- Node5 -->
<g id="node5" class="node">
<title>Node5</title>
<g id="a_node5"><a xlink:title=" ">
<polygon fill="white" stroke="#bfbfbf" points="240,-67.5 240,-97.5 382,-97.5 382,-67.5 240,-67.5"/>
<text text-anchor="start" x="248" y="-85.5" font-family="Helvetica,sans-Serif" font-size="10.00">asm/d/bg/d_bg_s_acch</text>
<text text-anchor="middle" x="311" y="-74.5" font-family="Helvetica,sans-Serif" font-size="10.00">/__ct__12dBgS_AcchCirFv.s</text>
</a>
</g>
</g>
<!-- Node1&#45;&gt;Node5 -->
<g id="edge5" class="edge">
<title>Node1&#45;&gt;Node5</title>
<path fill="none" stroke="midnightblue" d="M3234.44,-154.12C2829.88,-154.72 680.79,-155.67 392,-109 380.63,-107.16 368.66,-104.07 357.51,-100.66"/>
<polygon fill="midnightblue" stroke="midnightblue" points="358.55,-97.32 347.96,-97.61 356.42,-103.99 358.55,-97.32"/>
</g>
<!-- Node6 -->
<g id="node6" class="node">
<title>Node6</title>
<g id="a_node6"><a xlink:title=" ">
<polygon fill="white" stroke="#bfbfbf" points="400.5,-67.5 400.5,-97.5 567.5,-97.5 567.5,-67.5 400.5,-67.5"/>
<text text-anchor="start" x="408.5" y="-85.5" font-family="Helvetica,sans-Serif" font-size="10.00">asm/d/bg/d_bg_s_acch</text>
<text text-anchor="middle" x="484" y="-74.5" font-family="Helvetica,sans-Serif" font-size="10.00">/ClrWallHit__12dBgS_AcchCirFv.s</text>
</a>
</g>
</g>
<!-- Node1&#45;&gt;Node6 -->
<g id="edge6" class="edge">
<title>Node1&#45;&gt;Node6</title>
<path fill="none" stroke="midnightblue" d="M3234.27,-153.9C2844.76,-153.19 847.15,-147.64 577,-109 563.66,-107.09 549.52,-103.86 536.39,-100.33"/>
<polygon fill="midnightblue" stroke="midnightblue" points="537.16,-96.91 526.59,-97.59 535.27,-103.65 537.16,-96.91"/>
</g>
<!-- Node7 -->
<g id="node7" class="node">
<title>Node7</title>
<g id="a_node7"><a xlink:title=" ">
<polygon fill="white" stroke="#bfbfbf" points="585.5,-67.5 585.5,-97.5 746.5,-97.5 746.5,-67.5 585.5,-67.5"/>
<text text-anchor="start" x="593.5" y="-85.5" font-family="Helvetica,sans-Serif" font-size="10.00">asm/d/bg/d_bg_s_acch</text>
<text text-anchor="middle" x="666" y="-74.5" font-family="Helvetica,sans-Serif" font-size="10.00">/SetWallR__12dBgS_AcchCirFf.s</text>
</a>
</g>
</g>
<!-- Node1&#45;&gt;Node7 -->
<g id="edge7" class="edge">
<title>Node1&#45;&gt;Node7</title>
<path fill="none" stroke="midnightblue" d="M3234.38,-153.85C2860.53,-152.87 1007.26,-146.18 756,-109 743.2,-107.11 729.64,-103.92 717.05,-100.43"/>
<polygon fill="midnightblue" stroke="midnightblue" points="717.76,-96.99 707.18,-97.58 715.82,-103.72 717.76,-96.99"/>
</g>
<!-- Node8 -->
<g id="node8" class="node">
<title>Node8</title>
<g id="a_node8"><a xlink:title=" ">
<polygon fill="white" stroke="#bfbfbf" points="764.5,-67.5 764.5,-97.5 939.5,-97.5 939.5,-67.5 764.5,-67.5"/>
<text text-anchor="start" x="772.5" y="-85.5" font-family="Helvetica,sans-Serif" font-size="10.00">asm/d/bg/d_bg_s_acch</text>
<text text-anchor="middle" x="852" y="-74.5" font-family="Helvetica,sans-Serif" font-size="10.00">/CalcWallRR__12dBgS_AcchCirFv.s</text>
</a>
</g>
</g>
<!-- Node1&#45;&gt;Node8 -->
<g id="edge8" class="edge">
<title>Node1&#45;&gt;Node8</title>
<path fill="none" stroke="midnightblue" d="M3234.49,-153.68C2878.14,-151.79 1180.43,-141.17 949,-109 934.98,-107.05 920.09,-103.77 906.29,-100.2"/>
<polygon fill="midnightblue" stroke="midnightblue" points="907.03,-96.77 896.46,-97.56 905.21,-103.53 907.03,-96.77"/>
</g>
<!-- Node9 -->
<g id="node9" class="node">
<title>Node9</title>
<g id="a_node9"><a xlink:title=" ">
<polygon fill="white" stroke="#bfbfbf" points="957.5,-67.5 957.5,-97.5 1114.5,-97.5 1114.5,-67.5 957.5,-67.5"/>
<text text-anchor="start" x="965.5" y="-85.5" font-family="Helvetica,sans-Serif" font-size="10.00">asm/d/bg/d_bg_s_acch</text>
<text text-anchor="middle" x="1036" y="-74.5" font-family="Helvetica,sans-Serif" font-size="10.00">/SetWall__12dBgS_AcchCirFff.s</text>
</a>
</g>
</g>
<!-- Node1&#45;&gt;Node9 -->
<g id="edge9" class="edge">
<title>Node1&#45;&gt;Node9</title>
<path fill="none" stroke="midnightblue" d="M3234.4,-153.66C2894.04,-151.78 1336.74,-141.45 1124,-109 1111.47,-107.09 1098.21,-103.9 1085.89,-100.41"/>
<polygon fill="midnightblue" stroke="midnightblue" points="1086.83,-97.03 1076.25,-97.56 1084.85,-103.75 1086.83,-97.03"/>
</g>
<!-- Node10 -->
<g id="node10" class="node">
<title>Node10</title>
<g id="a_node10"><a xlink:title=" ">
<polygon fill="white" stroke="#bfbfbf" points="1132.5,-62 1132.5,-103 1263.5,-103 1263.5,-62 1132.5,-62"/>
<text text-anchor="start" x="1140.5" y="-91" font-family="Helvetica,sans-Serif" font-size="10.00">asm/d/bg/d_bg_s_acch</text>
<text text-anchor="start" x="1140.5" y="-80" font-family="Helvetica,sans-Serif" font-size="10.00">/SetWallHDirect__12dBgS</text>
<text text-anchor="middle" x="1198" y="-69" font-family="Helvetica,sans-Serif" font-size="10.00">_AcchCirFf.s</text>
</a>
</g>
</g>
<!-- Node1&#45;&gt;Node10 -->
<g id="edge10" class="edge">
<title>Node1&#45;&gt;Node10</title>
<path fill="none" stroke="midnightblue" d="M3234.36,-153.73C2908.16,-152.24 1469.49,-143.73 1273,-109 1268.26,-108.16 1263.41,-107.07 1258.57,-105.82"/>
<polygon fill="midnightblue" stroke="midnightblue" points="1259.26,-102.38 1248.69,-103.05 1257.37,-109.12 1259.26,-102.38"/>
</g>
<!-- Node11 -->
<g id="node11" class="node">
<title>Node11</title>
<g id="a_node11"><a xlink:title=" ">
<polygon fill="white" stroke="#bfbfbf" points="1281.5,-67.5 1281.5,-97.5 1406.5,-97.5 1406.5,-67.5 1281.5,-67.5"/>
<text text-anchor="start" x="1289.5" y="-85.5" font-family="Helvetica,sans-Serif" font-size="10.00">asm/d/bg/d_bg_s_acch</text>
<text text-anchor="middle" x="1344" y="-74.5" font-family="Helvetica,sans-Serif" font-size="10.00">/__dt__9dBgS_AcchFv.s</text>
</a>
</g>
</g>
<!-- Node1&#45;&gt;Node11 -->
<g id="edge11" class="edge">
<title>Node1&#45;&gt;Node11</title>
<path fill="none" stroke="midnightblue" d="M3234.39,-153.66C2922.51,-151.89 1597.5,-142.43 1416,-109 1406.22,-107.2 1396,-104.27 1386.43,-101.02"/>
<polygon fill="midnightblue" stroke="midnightblue" points="1387.33,-97.63 1376.74,-97.56 1384.97,-104.22 1387.33,-97.63"/>
</g>
<!-- Node12 -->
<g id="node12" class="node">
<title>Node12</title>
<g id="a_node12"><a xlink:title=" ">
<polygon fill="white" stroke="#bfbfbf" points="1424.5,-67.5 1424.5,-97.5 1549.5,-97.5 1549.5,-67.5 1424.5,-67.5"/>
<text text-anchor="start" x="1432.5" y="-85.5" font-family="Helvetica,sans-Serif" font-size="10.00">asm/d/bg/d_bg_s_acch</text>
<text text-anchor="middle" x="1487" y="-74.5" font-family="Helvetica,sans-Serif" font-size="10.00">/__ct__9dBgS_AcchFv.s</text>
</a>
</g>
</g>
<!-- Node1&#45;&gt;Node12 -->
<g id="edge12" class="edge">
<title>Node1&#45;&gt;Node12</title>
<path fill="none" stroke="midnightblue" d="M3234.49,-153.52C2937.62,-151.2 1725.77,-139.88 1559,-109 1549.23,-107.19 1539,-104.25 1529.43,-101.01"/>
<polygon fill="midnightblue" stroke="midnightblue" points="1530.33,-97.61 1519.74,-97.54 1527.98,-104.2 1530.33,-97.61"/>
</g>
<!-- Node13 -->
<g id="node13" class="node">
<title>Node13</title>
<g id="a_node13"><a xlink:title=" ">
<polygon fill="white" stroke="#bfbfbf" points="1567.5,-67.5 1567.5,-97.5 1686.5,-97.5 1686.5,-67.5 1567.5,-67.5"/>
<text text-anchor="start" x="1575.5" y="-85.5" font-family="Helvetica,sans-Serif" font-size="10.00">asm/d/bg/d_bg_s_acch</text>
<text text-anchor="middle" x="1627" y="-74.5" font-family="Helvetica,sans-Serif" font-size="10.00">/Init__9dBgS_AcchFv.s</text>
</a>
</g>
</g>
<!-- Node1&#45;&gt;Node13 -->
<g id="edge13" class="edge">
<title>Node1&#45;&gt;Node13</title>
<path fill="none" stroke="midnightblue" d="M3234.04,-153.41C2951.2,-150.73 1848.4,-138.47 1696,-109 1686.7,-107.2 1677,-104.3 1667.9,-101.1"/>
<polygon fill="midnightblue" stroke="midnightblue" points="1668.92,-97.74 1658.33,-97.53 1666.48,-104.3 1668.92,-97.74"/>
</g>
<!-- Node14 -->
<g id="node14" class="node">
<title>Node14</title>
<g id="a_node14"><a xlink:title=" ">
<polygon fill="white" stroke="#bfbfbf" points="1705,-56.5 1705,-108.5 1907,-108.5 1907,-56.5 1705,-56.5"/>
<text text-anchor="start" x="1713" y="-96.5" font-family="Helvetica,sans-Serif" font-size="10.00">asm/d/bg/d_bg_s_acch</text>
<text text-anchor="start" x="1713" y="-85.5" font-family="Helvetica,sans-Serif" font-size="10.00">/Set__9dBgS_AcchFP4cXyzP4cXyz</text>
<text text-anchor="start" x="1713" y="-74.5" font-family="Helvetica,sans-Serif" font-size="10.00">P10fopAc_ac_ciP12dBgS_AcchCirP4cXyz</text>
<text text-anchor="middle" x="1806" y="-63.5" font-family="Helvetica,sans-Serif" font-size="10.00">P5csXyzP5csXyz.s</text>
</a>
</g>
</g>
<!-- Node1&#45;&gt;Node14 -->
<g id="edge14" class="edge">
<title>Node1&#45;&gt;Node14</title>
<path fill="none" stroke="midnightblue" d="M3234.38,-153.55C2998.95,-151.66 2196.44,-142.93 1917.29,-108.87"/>
<polygon fill="midnightblue" stroke="midnightblue" points="1917.54,-105.37 1907.18,-107.59 1916.66,-112.32 1917.54,-105.37"/>
</g>
<!-- Node15 -->
<g id="node15" class="node">
<title>Node15</title>
<g id="a_node15"><a xlink:title=" ">
<polygon fill="white" stroke="#bfbfbf" points="1925.5,-62 1925.5,-103 2076.5,-103 2076.5,-62 1925.5,-62"/>
<text text-anchor="start" x="1933.5" y="-91" font-family="Helvetica,sans-Serif" font-size="10.00">asm/d/bg/d_bg_s_acch</text>
<text text-anchor="start" x="1933.5" y="-80" font-family="Helvetica,sans-Serif" font-size="10.00">/Set__9dBgS_AcchFP10fopAc</text>
<text text-anchor="middle" x="2001" y="-69" font-family="Helvetica,sans-Serif" font-size="10.00">_ac_ciP12dBgS_AcchCir.s</text>
</a>
</g>
</g>
<!-- Node1&#45;&gt;Node15 -->
<g id="edge15" class="edge">
<title>Node1&#45;&gt;Node15</title>
<path fill="none" stroke="midnightblue" d="M3234.15,-153.76C3014.74,-152.62 2309.81,-146.1 2086,-109 2080.35,-108.06 2074.55,-106.86 2068.77,-105.49"/>
<polygon fill="midnightblue" stroke="midnightblue" points="2069.62,-102.1 2059.07,-103.04 2067.91,-108.88 2069.62,-102.1"/>
</g>
<!-- Node16 -->
<g id="node16" class="node">
<title>Node16</title>
<g id="a_node16"><a xlink:title=" ">
<polygon fill="white" stroke="#bfbfbf" points="2095,-62 2095,-103 2227,-103 2227,-62 2095,-62"/>
<text text-anchor="start" x="2103" y="-91" font-family="Helvetica,sans-Serif" font-size="10.00">asm/d/bg/d_bg_s_acch</text>
<text text-anchor="start" x="2103" y="-80" font-family="Helvetica,sans-Serif" font-size="10.00">/GroundCheckInit__9dBgS</text>
<text text-anchor="middle" x="2161" y="-69" font-family="Helvetica,sans-Serif" font-size="10.00">_AcchFR4dBgS.s</text>
</a>
</g>
</g>
<!-- Node1&#45;&gt;Node16 -->
<g id="edge16" class="edge">
<title>Node1&#45;&gt;Node16</title>
<path fill="none" stroke="midnightblue" d="M3234.29,-153.67C3033.32,-152.27 2428.86,-145.09 2236,-109 2231.34,-108.13 2226.58,-107.03 2221.83,-105.78"/>
<polygon fill="midnightblue" stroke="midnightblue" points="2222.7,-102.39 2212.12,-103.03 2220.79,-109.13 2222.7,-102.39"/>
</g>
<!-- Node17 -->
<g id="node17" class="node">
<title>Node17</title>
<g id="a_node17"><a xlink:title=" ">
<polygon fill="white" stroke="#bfbfbf" points="2245,-62 2245,-103 2415,-103 2415,-62 2245,-62"/>
<text text-anchor="start" x="2253" y="-91" font-family="Helvetica,sans-Serif" font-size="10.00">asm/d/bg/d_bg_s_acch</text>
<text text-anchor="start" x="2253" y="-80" font-family="Helvetica,sans-Serif" font-size="10.00">/GroundCheck__9dBgS_AcchFR4d</text>
<text text-anchor="middle" x="2330" y="-69" font-family="Helvetica,sans-Serif" font-size="10.00">BgS.s</text>
</a>
</g>
</g>
<!-- Node1&#45;&gt;Node17 -->
<g id="edge17" class="edge">
<title>Node1&#45;&gt;Node17</title>
<path fill="none" stroke="midnightblue" d="M3234.47,-152.42C3058.93,-147.9 2580.88,-133.65 2425,-109 2418.69,-108 2412.2,-106.75 2405.71,-105.34"/>
<polygon fill="midnightblue" stroke="midnightblue" points="2406.07,-101.84 2395.54,-103.01 2404.51,-108.66 2406.07,-101.84"/>
</g>
<!-- Node18 -->
<g id="node18" class="node">
<title>Node18</title>
<g id="a_node18"><a xlink:title=" ">
<polygon fill="white" stroke="#bfbfbf" points="2433.5,-62 2433.5,-103 2564.5,-103 2564.5,-62 2433.5,-62"/>
<text text-anchor="start" x="2441.5" y="-91" font-family="Helvetica,sans-Serif" font-size="10.00">asm/d/bg/d_bg_s_acch</text>
<text text-anchor="start" x="2441.5" y="-80" font-family="Helvetica,sans-Serif" font-size="10.00">/GroundRoofProc__9dBgS</text>
<text text-anchor="middle" x="2499" y="-69" font-family="Helvetica,sans-Serif" font-size="10.00">_AcchFR4dBgS.s</text>
</a>
</g>
</g>
<!-- Node1&#45;&gt;Node18 -->
<g id="edge18" class="edge">
<title>Node1&#45;&gt;Node18</title>
<path fill="none" stroke="midnightblue" d="M3234.28,-152.16C3080.22,-147.49 2699.37,-133.74 2574,-109 2569.55,-108.12 2565.01,-107.05 2560.47,-105.84"/>
<polygon fill="midnightblue" stroke="midnightblue" points="2561.14,-102.39 2550.56,-103.02 2559.22,-109.13 2561.14,-102.39"/>
</g>
<!-- Node19 -->
<g id="node19" class="node">
<title>Node19</title>
<g id="a_node19"><a xlink:title=" ">
<polygon fill="white" stroke="#bfbfbf" points="2582.5,-67.5 2582.5,-97.5 2765.5,-97.5 2765.5,-67.5 2582.5,-67.5"/>
<text text-anchor="start" x="2590.5" y="-85.5" font-family="Helvetica,sans-Serif" font-size="10.00">asm/d/bg/d_bg_s_acch</text>
<text text-anchor="middle" x="2674" y="-74.5" font-family="Helvetica,sans-Serif" font-size="10.00">/LineCheck__9dBgS_AcchFR4dBgS.s</text>
</a>
</g>
</g>
<!-- Node1&#45;&gt;Node19 -->
<g id="edge19" class="edge">
<title>Node1&#45;&gt;Node19</title>
<path fill="none" stroke="midnightblue" d="M3234.09,-151.77C3134.2,-147.63 2938.74,-136.5 2775,-109 2761.22,-106.69 2746.56,-103.45 2732.81,-100.05"/>
<polygon fill="midnightblue" stroke="midnightblue" points="2733.53,-96.62 2722.98,-97.56 2731.81,-103.41 2733.53,-96.62"/>
</g>
<!-- Node20 -->
<g id="node20" class="node">
<title>Node20</title>
<g id="a_node20"><a xlink:title=" ">
<polygon fill="white" stroke="#bfbfbf" points="2783.5,-67.5 2783.5,-97.5 2950.5,-97.5 2950.5,-67.5 2783.5,-67.5"/>
<text text-anchor="start" x="2791.5" y="-85.5" font-family="Helvetica,sans-Serif" font-size="10.00">asm/d/bg/d_bg_s_acch</text>
<text text-anchor="middle" x="2867" y="-74.5" font-family="Helvetica,sans-Serif" font-size="10.00">/CrrPos__9dBgS_AcchFR4dBgS.s</text>
</a>
</g>
</g>
<!-- Node1&#45;&gt;Node20 -->
<g id="edge20" class="edge">
<title>Node1&#45;&gt;Node20</title>
<path fill="none" stroke="midnightblue" d="M3234.5,-148.09C3165.51,-141.23 3053.94,-128.32 2959,-109 2947.2,-106.6 2934.69,-103.51 2922.82,-100.31"/>
<polygon fill="midnightblue" stroke="midnightblue" points="2923.6,-96.89 2913.03,-97.61 2921.74,-103.64 2923.6,-96.89"/>
</g>
<!-- Node21 -->
<g id="node21" class="node">
<title>Node21</title>
<g id="a_node21"><a xlink:title=" ">
<polygon fill="white" stroke="#bfbfbf" points="2968,-67.5 2968,-97.5 3126,-97.5 3126,-67.5 2968,-67.5"/>
<text text-anchor="start" x="2976" y="-85.5" font-family="Helvetica,sans-Serif" font-size="10.00">asm/d/bg/d_bg_s_acch</text>
<text text-anchor="middle" x="3047" y="-74.5" font-family="Helvetica,sans-Serif" font-size="10.00">/GetWallAllR__9dBgS_AcchFv.s</text>
</a>
</g>
</g>
<!-- Node1&#45;&gt;Node21 -->
<g id="edge21" class="edge">
<title>Node1&#45;&gt;Node21</title>
<path fill="none" stroke="midnightblue" d="M3268.02,-145.44C3234.75,-136.49 3181.16,-121.98 3135,-109 3125.24,-106.25 3114.88,-103.3 3104.83,-100.4"/>
<polygon fill="midnightblue" stroke="midnightblue" points="3105.49,-96.95 3094.92,-97.53 3103.55,-103.67 3105.49,-96.95"/>
</g>
<!-- Node22 -->
<g id="node22" class="node">
<title>Node22</title>
<g id="a_node22"><a xlink:title=" ">
<polygon fill="white" stroke="#bfbfbf" points="3144,-67.5 3144,-97.5 3296,-97.5 3296,-67.5 3144,-67.5"/>
<text text-anchor="start" x="3152" y="-85.5" font-family="Helvetica,sans-Serif" font-size="10.00">asm/d/bg/d_bg_s_acch</text>
<text text-anchor="middle" x="3220" y="-74.5" font-family="Helvetica,sans-Serif" font-size="10.00">/SetWallCir__9dBgS_AcchFv.s</text>
</a>
</g>
</g>
<!-- Node1&#45;&gt;Node22 -->
<g id="edge22" class="edge">
<title>Node1&#45;&gt;Node22</title>
<path fill="none" stroke="midnightblue" d="M3290.19,-145.36C3278.68,-135.21 3259.19,-118.04 3243.67,-104.36"/>
<polygon fill="midnightblue" stroke="midnightblue" points="3245.79,-101.56 3235.97,-97.58 3241.16,-106.81 3245.79,-101.56"/>
</g>
<!-- Node23 -->
<g id="node23" class="node">
<title>Node23</title>
<g id="a_node23"><a xlink:title=" ">
<polygon fill="white" stroke="#bfbfbf" points="3314.5,-62 3314.5,-103 3445.5,-103 3445.5,-62 3314.5,-62"/>
<text text-anchor="start" x="3322.5" y="-91" font-family="Helvetica,sans-Serif" font-size="10.00">asm/d/bg/d_bg_s_acch</text>
<text text-anchor="start" x="3322.5" y="-80" font-family="Helvetica,sans-Serif" font-size="10.00">/CalcWallBmdCyl__9dBgS</text>
<text text-anchor="middle" x="3380" y="-69" font-family="Helvetica,sans-Serif" font-size="10.00">_AcchFv.s</text>
</a>
</g>
</g>
<!-- Node1&#45;&gt;Node23 -->
<g id="edge23" class="edge">
<title>Node1&#45;&gt;Node23</title>
<path fill="none" stroke="midnightblue" d="M3309.81,-145.36C3319.81,-136.54 3335.82,-122.43 3350.03,-109.91"/>
<polygon fill="midnightblue" stroke="midnightblue" points="3352.5,-112.4 3357.69,-103.16 3347.87,-107.15 3352.5,-112.4"/>
</g>
<!-- Node24 -->
<g id="node24" class="node">
<title>Node24</title>
<g id="a_node24"><a xlink:title=" ">
<polygon fill="white" stroke="#bfbfbf" points="3463.5,-62 3463.5,-103 3588.5,-103 3588.5,-62 3463.5,-62"/>
<text text-anchor="start" x="3471.5" y="-91" font-family="Helvetica,sans-Serif" font-size="10.00">asm/d/bg/d_bg_s_acch</text>
<text text-anchor="start" x="3471.5" y="-80" font-family="Helvetica,sans-Serif" font-size="10.00">/SetGroundUpY__9dBgS</text>
<text text-anchor="middle" x="3526" y="-69" font-family="Helvetica,sans-Serif" font-size="10.00">_AcchFf.s</text>
</a>
</g>
</g>
<!-- Node1&#45;&gt;Node24 -->
<g id="edge24" class="edge">
<title>Node1&#45;&gt;Node24</title>
<path fill="none" stroke="midnightblue" d="M3331.64,-145.44C3363.09,-136.78 3412.62,-122.75 3455,-109 3457.6,-108.16 3460.24,-107.28 3462.91,-106.39"/>
<polygon fill="midnightblue" stroke="midnightblue" points="3464.29,-109.62 3472.62,-103.07 3462.03,-102.99 3464.29,-109.62"/>
</g>
<!-- Node25 -->
<g id="node25" class="node">
<title>Node25</title>
<g id="a_node25"><a xlink:title=" ">
<polygon fill="white" stroke="#bfbfbf" points="3606.5,-62 3606.5,-103 3737.5,-103 3737.5,-62 3606.5,-62"/>
<text text-anchor="start" x="3614.5" y="-91" font-family="Helvetica,sans-Serif" font-size="10.00">asm/d/bg/d_bg_s_acch</text>
<text text-anchor="start" x="3614.5" y="-80" font-family="Helvetica,sans-Serif" font-size="10.00">/GetWallAllLowH__9dBgS</text>
<text text-anchor="middle" x="3672" y="-69" font-family="Helvetica,sans-Serif" font-size="10.00">_AcchFv.s</text>
</a>
</g>
</g>
<!-- Node1&#45;&gt;Node25 -->
<g id="edge25" class="edge">
<title>Node1&#45;&gt;Node25</title>
<path fill="none" stroke="midnightblue" d="M3365.78,-147.55C3426.61,-140.76 3519.24,-128.35 3598,-109 3601.65,-108.1 3605.37,-107.11 3609.1,-106.04"/>
<polygon fill="midnightblue" stroke="midnightblue" points="3610.42,-109.29 3618.99,-103.06 3608.41,-102.59 3610.42,-109.29"/>
</g>
<!-- Node26 -->
<g id="node26" class="node">
<title>Node26</title>
<g id="a_node26"><a xlink:title=" ">
<polygon fill="white" stroke="#bfbfbf" points="3755.5,-62 3755.5,-103 3898.5,-103 3898.5,-62 3755.5,-62"/>
<text text-anchor="start" x="3763.5" y="-91" font-family="Helvetica,sans-Serif" font-size="10.00">asm/d/bg/d_bg_s_acch</text>
<text text-anchor="start" x="3763.5" y="-80" font-family="Helvetica,sans-Serif" font-size="10.00">/GetWallAllLowH_R__9dBgS</text>
<text text-anchor="middle" x="3827" y="-69" font-family="Helvetica,sans-Serif" font-size="10.00">_AcchFv.s</text>
</a>
</g>
</g>
<!-- Node1&#45;&gt;Node26 -->
<g id="edge26" class="edge">
<title>Node1&#45;&gt;Node26</title>
<path fill="none" stroke="midnightblue" d="M3365.79,-151.66C3453.54,-147.57 3613.35,-136.71 3747,-109 3751.46,-108.08 3756.02,-107 3760.59,-105.82"/>
<polygon fill="midnightblue" stroke="midnightblue" points="3761.85,-109.1 3770.57,-103.09 3760.01,-102.35 3761.85,-109.1"/>
</g>
<!-- Node27 -->
<g id="node27" class="node">
<title>Node27</title>
<g id="a_node27"><a xlink:title=" ">
<polygon fill="white" stroke="#bfbfbf" points="3917,-67.5 3917,-97.5 4073,-97.5 4073,-67.5 3917,-67.5"/>
<text text-anchor="start" x="3925" y="-85.5" font-family="Helvetica,sans-Serif" font-size="10.00">asm/d/bg/d_bg_s_acch</text>
<text text-anchor="middle" x="3995" y="-74.5" font-family="Helvetica,sans-Serif" font-size="10.00">/GetSpeedY__9dBgS_AcchFv.s</text>
</a>
</g>
</g>
<!-- Node1&#45;&gt;Node27 -->
<g id="edge27" class="edge">
<title>Node1&#45;&gt;Node27</title>
<path fill="none" stroke="midnightblue" d="M3365.8,-153.66C3477.97,-152.08 3712.99,-144.38 3908,-109 3919.86,-106.85 3932.4,-103.7 3944.17,-100.35"/>
<polygon fill="midnightblue" stroke="midnightblue" points="3945.23,-103.69 3953.83,-97.5 3943.25,-96.97 3945.23,-103.69"/>
</g>
<!-- Node28 -->
<g id="node28" class="node">
<title>Node28</title>
<g id="a_node28"><a xlink:title=" ">
<polygon fill="white" stroke="#bfbfbf" points="4091,-62 4091,-103 4255,-103 4255,-62 4091,-62"/>
<text text-anchor="start" x="4099" y="-91" font-family="Helvetica,sans-Serif" font-size="10.00">asm/d/bg/d_bg_s_acch</text>
<text text-anchor="start" x="4099" y="-80" font-family="Helvetica,sans-Serif" font-size="10.00">/GetWallAddY__9dBgS_AcchFR3</text>
<text text-anchor="middle" x="4173" y="-69" font-family="Helvetica,sans-Serif" font-size="10.00">Vec.s</text>
</a>
</g>
</g>
<!-- Node1&#45;&gt;Node28 -->
<g id="edge28" class="edge">
<title>Node1&#45;&gt;Node28</title>
<path fill="none" stroke="midnightblue" d="M3365.56,-152.05C3527.8,-146.92 3944.85,-131.89 4082,-109 4087.81,-108.03 4093.77,-106.83 4099.74,-105.49"/>
<polygon fill="midnightblue" stroke="midnightblue" points="4100.84,-108.83 4109.75,-103.1 4099.21,-102.02 4100.84,-108.83"/>
</g>
<!-- Node29 -->
<g id="node29" class="node">
<title>Node29</title>
<g id="a_node29"><a xlink:title=" ">
<polygon fill="white" stroke="#bfbfbf" points="4273,-62 4273,-103 4407,-103 4407,-62 4273,-62"/>
<text text-anchor="start" x="4281" y="-91" font-family="Helvetica,sans-Serif" font-size="10.00">asm/d/bg/d_bg_s_acch</text>
<text text-anchor="start" x="4281" y="-80" font-family="Helvetica,sans-Serif" font-size="10.00">/SetNowActorInfo__9dBgS</text>
<text text-anchor="middle" x="4340" y="-69" font-family="Helvetica,sans-Serif" font-size="10.00">_AcchFiPvUi.s</text>
</a>
</g>
</g>
<!-- Node1&#45;&gt;Node29 -->
<g id="edge29" class="edge">
<title>Node1&#45;&gt;Node29</title>
<path fill="none" stroke="midnightblue" d="M3365.78,-153.3C3553.81,-150.91 4091.19,-141.37 4264,-109 4268.63,-108.13 4273.36,-107.05 4278.09,-105.82"/>
<polygon fill="midnightblue" stroke="midnightblue" points="4279.07,-109.18 4287.76,-103.12 4277.19,-102.44 4279.07,-109.18"/>
</g>
<!-- Node30 -->
<g id="node30" class="node">
<title>Node30</title>
<g id="a_node30"><a xlink:title=" ">
<polygon fill="white" stroke="#bfbfbf" points="4425.5,-62 4425.5,-103 4560.5,-103 4560.5,-62 4425.5,-62"/>
<text text-anchor="start" x="4433.5" y="-91" font-family="Helvetica,sans-Serif" font-size="10.00">asm/d/bg/d_bg_s_acch</text>
<text text-anchor="start" x="4433.5" y="-80" font-family="Helvetica,sans-Serif" font-size="10.00">/SetWallPolyIndex__9dBgS</text>
<text text-anchor="middle" x="4493" y="-69" font-family="Helvetica,sans-Serif" font-size="10.00">_AcchFii.s</text>
</a>
</g>
</g>
<!-- Node1&#45;&gt;Node30 -->
<g id="edge30" class="edge">
<title>Node1&#45;&gt;Node30</title>
<path fill="none" stroke="midnightblue" d="M3365.59,-153.75C3572.92,-152.6 4212.47,-146.05 4416,-109 4420.77,-108.13 4425.65,-107.04 4430.53,-105.79"/>
<polygon fill="midnightblue" stroke="midnightblue" points="4431.78,-109.07 4440.49,-103.04 4429.92,-102.33 4431.78,-109.07"/>
</g>
<!-- Node31 -->
<g id="node31" class="node">
<title>Node31</title>
<g id="a_node31"><a xlink:title=" ">
<polygon fill="white" stroke="#bfbfbf" points="4578.5,-62 4578.5,-103 4721.5,-103 4721.5,-62 4578.5,-62"/>
<text text-anchor="start" x="4586.5" y="-91" font-family="Helvetica,sans-Serif" font-size="10.00">asm/d/bg/d_bg_s_acch</text>
<text text-anchor="start" x="4586.5" y="-80" font-family="Helvetica,sans-Serif" font-size="10.00">/CalcMovePosWork__9dBgS</text>
<text text-anchor="middle" x="4650" y="-69" font-family="Helvetica,sans-Serif" font-size="10.00">_AcchFv.s</text>
</a>
</g>
</g>
<!-- Node1&#45;&gt;Node31 -->
<g id="edge31" class="edge">
<title>Node1&#45;&gt;Node31</title>
<path fill="none" stroke="midnightblue" d="M3365.74,-154.03C3591.65,-153.78 4335.11,-149.8 4570,-109 4575.08,-108.12 4580.28,-106.99 4585.47,-105.71"/>
<polygon fill="midnightblue" stroke="midnightblue" points="4586.64,-109.02 4595.41,-103.07 4584.84,-102.25 4586.64,-109.02"/>
</g>
<!-- Node32 -->
<g id="node32" class="node">
<title>Node32</title>
<g id="a_node32"><a xlink:title=" ">
<polygon fill="white" stroke="#bfbfbf" points="4740,-67.5 4740,-97.5 4898,-97.5 4898,-67.5 4740,-67.5"/>
<text text-anchor="start" x="4748" y="-85.5" font-family="Helvetica,sans-Serif" font-size="10.00">asm/d/bg/d_bg_s_acch</text>
<text text-anchor="middle" x="4819" y="-74.5" font-family="Helvetica,sans-Serif" font-size="10.00">/CalcWallRR__9dBgS_AcchFv.s</text>
</a>
</g>
</g>
<!-- Node1&#45;&gt;Node32 -->
<g id="edge32" class="edge">
<title>Node1&#45;&gt;Node32</title>
<path fill="none" stroke="midnightblue" d="M3365.86,-154.11C3609.95,-154.2 4462.78,-151.39 4731,-109 4743.27,-107.06 4756.25,-103.93 4768.36,-100.52"/>
<polygon fill="midnightblue" stroke="midnightblue" points="4769.69,-103.77 4778.3,-97.6 4767.71,-97.06 4769.69,-103.77"/>
</g>
<!-- Node33 -->
<g id="node33" class="node">
<title>Node33</title>
<g id="a_node33"><a xlink:title=" ">
<polygon fill="white" stroke="#bfbfbf" points="4916,-62 4916,-103 5048,-103 5048,-62 4916,-62"/>
<text text-anchor="start" x="4924" y="-91" font-family="Helvetica,sans-Serif" font-size="10.00">asm/d/bg/d_bg_s_acch</text>
<text text-anchor="start" x="4924" y="-80" font-family="Helvetica,sans-Serif" font-size="10.00">/SetMoveBGOnly__9dBgS</text>
<text text-anchor="middle" x="4982" y="-69" font-family="Helvetica,sans-Serif" font-size="10.00">_AcchFv.s</text>
</a>
</g>
</g>
<!-- Node1&#45;&gt;Node33 -->
<g id="edge33" class="edge">
<title>Node1&#45;&gt;Node33</title>
<path fill="none" stroke="midnightblue" d="M3365.59,-153.32C3648.12,-150.24 4753.86,-136.53 4907,-109 4911.74,-108.15 4916.59,-107.05 4921.43,-105.79"/>
<polygon fill="midnightblue" stroke="midnightblue" points="4922.63,-109.09 4931.3,-103.01 4920.73,-102.35 4922.63,-109.09"/>
</g>
<!-- Node34 -->
<g id="node34" class="node">
<title>Node34</title>
<g id="a_node34"><a xlink:title=" ">
<polygon fill="white" stroke="#bfbfbf" points="5066.5,-62 5066.5,-103 5195.5,-103 5195.5,-62 5066.5,-62"/>
<text text-anchor="start" x="5074.5" y="-91" font-family="Helvetica,sans-Serif" font-size="10.00">asm/d/bg/d_bg_s_acch</text>
<text text-anchor="start" x="5074.5" y="-80" font-family="Helvetica,sans-Serif" font-size="10.00">/ClrMoveBGOnly__9dBgS</text>
<text text-anchor="middle" x="5131" y="-69" font-family="Helvetica,sans-Serif" font-size="10.00">_AcchFv.s</text>
</a>
</g>
</g>
<!-- Node1&#45;&gt;Node34 -->
<g id="edge34" class="edge">
<title>Node1&#45;&gt;Node34</title>
<path fill="none" stroke="midnightblue" d="M3365.6,-153.51C3664.31,-151.1 4888.47,-139.45 5057,-109 5061.68,-108.15 5066.47,-107.06 5071.25,-105.81"/>
<polygon fill="midnightblue" stroke="midnightblue" points="5072.34,-109.14 5081,-103.03 5070.42,-102.4 5072.34,-109.14"/>
</g>
<!-- Node35 -->
<g id="node35" class="node">
<title>Node35</title>
<g id="a_node35"><a xlink:title=" ">
<polygon fill="white" stroke="#bfbfbf" points="5214,-62 5214,-103 5332,-103 5332,-62 5214,-62"/>
<text text-anchor="start" x="5222" y="-91" font-family="Helvetica,sans-Serif" font-size="10.00">asm/d/bg/d_bg_s_acch</text>
<text text-anchor="start" x="5222" y="-80" font-family="Helvetica,sans-Serif" font-size="10.00">/SetGndThinCellingOff</text>
<text text-anchor="middle" x="5273" y="-69" font-family="Helvetica,sans-Serif" font-size="10.00">__9dBgS_AcchFv.s</text>
</a>
</g>
</g>
<!-- Node1&#45;&gt;Node35 -->
<g id="edge35" class="edge">
<title>Node1&#45;&gt;Node35</title>
<path fill="none" stroke="midnightblue" d="M3365.57,-153.75C3679.54,-152.38 5021.64,-144.49 5205,-109 5209.11,-108.2 5213.29,-107.19 5217.47,-106.02"/>
<polygon fill="midnightblue" stroke="midnightblue" points="5218.61,-109.33 5227.15,-103.05 5216.56,-102.64 5218.61,-109.33"/>
</g>
<!-- Node36 -->
<g id="node36" class="node">
<title>Node36</title>
<g id="a_node36"><a xlink:title=" ">
<polygon fill="white" stroke="#bfbfbf" points="5350,-62 5350,-103 5468,-103 5468,-62 5350,-62"/>
<text text-anchor="start" x="5358" y="-91" font-family="Helvetica,sans-Serif" font-size="10.00">asm/d/bg/d_bg_s_acch</text>
<text text-anchor="start" x="5358" y="-80" font-family="Helvetica,sans-Serif" font-size="10.00">/ClrGndThinCellingOff</text>
<text text-anchor="middle" x="5409" y="-69" font-family="Helvetica,sans-Serif" font-size="10.00">__9dBgS_AcchFv.s</text>
</a>
</g>
</g>
<!-- Node1&#45;&gt;Node36 -->
<g id="edge36" class="edge">
<title>Node1&#45;&gt;Node36</title>
<path fill="none" stroke="midnightblue" d="M3365.58,-153.86C3693.07,-153 5143.61,-147.05 5341,-109 5345.11,-108.21 5349.3,-107.19 5353.47,-106.03"/>
<polygon fill="midnightblue" stroke="midnightblue" points="5354.61,-109.34 5363.15,-103.06 5352.56,-102.64 5354.61,-109.34"/>
</g>
<!-- Node37 -->
<g id="node37" class="node">
<title>Node37</title>
<g id="a_node37"><a xlink:title=" ">
<polygon fill="white" stroke="#bfbfbf" points="5486,-62 5486,-103 5604,-103 5604,-62 5486,-62"/>
<text text-anchor="start" x="5494" y="-91" font-family="Helvetica,sans-Serif" font-size="10.00">asm/d/bg/d_bg_s_acch</text>
<text text-anchor="start" x="5494" y="-80" font-family="Helvetica,sans-Serif" font-size="10.00">/ChkGndThinCellingOff</text>
<text text-anchor="middle" x="5545" y="-69" font-family="Helvetica,sans-Serif" font-size="10.00">__9dBgS_AcchFv.s</text>
</a>
</g>
</g>
<!-- Node1&#45;&gt;Node37 -->
<g id="edge37" class="edge">
<title>Node1&#45;&gt;Node37</title>
<path fill="none" stroke="midnightblue" d="M3365.68,-153.96C3706.45,-153.58 5265.56,-149.6 5477,-109 5481.11,-108.21 5485.3,-107.2 5489.47,-106.03"/>
<polygon fill="midnightblue" stroke="midnightblue" points="5490.61,-109.34 5499.15,-103.07 5488.56,-102.65 5490.61,-109.34"/>
</g>
<!-- Node38 -->
<g id="node38" class="node">
<title>Node38</title>
<g id="a_node38"><a xlink:title=" ">
<polygon fill="white" stroke="#bfbfbf" points="5622.5,-67.5 5622.5,-97.5 5777.5,-97.5 5777.5,-67.5 5622.5,-67.5"/>
<text text-anchor="start" x="5630.5" y="-85.5" font-family="Helvetica,sans-Serif" font-size="10.00">asm/d/bg/d_bg_s_acch</text>
<text text-anchor="middle" x="5700" y="-74.5" font-family="Helvetica,sans-Serif" font-size="10.00">/OnWallSort__9dBgS_AcchFv.s</text>
</a>
</g>
</g>
<!-- Node1&#45;&gt;Node38 -->
<g id="edge38" class="edge">
<title>Node1&#45;&gt;Node38</title>
<path fill="none" stroke="midnightblue" d="M3365.62,-153.76C3718.79,-152.34 5386.03,-143.83 5613,-109 5625.28,-107.12 5638.25,-103.97 5650.32,-100.52"/>
<polygon fill="midnightblue" stroke="midnightblue" points="5651.64,-103.78 5660.22,-97.57 5649.64,-97.07 5651.64,-103.78"/>
</g>
<!-- Node39 -->
<g id="node39" class="node">
<title>Node39</title>
<g id="a_node39"><a xlink:title=" ">
<polygon fill="white" stroke="#bfbfbf" points="5796,-67.5 5796,-97.5 5956,-97.5 5956,-67.5 5796,-67.5"/>
<text text-anchor="start" x="5804" y="-85.5" font-family="Helvetica,sans-Serif" font-size="10.00">asm/d/bg/d_bg_s_acch</text>
<text text-anchor="middle" x="5876" y="-74.5" font-family="Helvetica,sans-Serif" font-size="10.00">/ChkWallSort__9dBgS_AcchFv.s</text>
</a>
</g>
</g>
<!-- Node1&#45;&gt;Node39 -->
<g id="edge39" class="edge">
<title>Node1&#45;&gt;Node39</title>
<path fill="none" stroke="midnightblue" d="M3365.65,-153.83C3734.56,-152.77 5541.76,-145.7 5787,-109 5799.67,-107.1 5813.07,-103.92 5825.53,-100.43"/>
<polygon fill="midnightblue" stroke="midnightblue" points="5826.67,-103.74 5835.29,-97.58 5824.71,-97.02 5826.67,-103.74"/>
</g>
<!-- Node40 -->
<g id="node40" class="node">
<title>Node40</title>
<g id="a_node40"><a xlink:title=" ">
<polygon fill="white" stroke="#bfbfbf" points="5974.5,-67.5 5974.5,-97.5 6141.5,-97.5 6141.5,-67.5 5974.5,-67.5"/>
<text text-anchor="start" x="5982.5" y="-85.5" font-family="Helvetica,sans-Serif" font-size="10.00">asm/d/bg/d_bg_s_acch</text>
<text text-anchor="middle" x="6058" y="-74.5" font-family="Helvetica,sans-Serif" font-size="10.00">/ChkLineDown__9dBgS_AcchFv.s</text>
</a>
</g>
</g>
<!-- Node1&#45;&gt;Node40 -->
<g id="edge40" class="edge">
<title>Node1&#45;&gt;Node40</title>
<path fill="none" stroke="midnightblue" d="M3365.58,-153.88C3749.78,-153.02 5700.9,-146.82 5965,-109 5978.34,-107.09 5992.48,-103.86 6005.61,-100.33"/>
<polygon fill="midnightblue" stroke="midnightblue" points="6006.73,-103.65 6015.41,-97.59 6004.84,-96.91 6006.73,-103.65"/>
</g>
<!-- Node41 -->
<g id="node41" class="node">
<title>Node41</title>
<g id="a_node41"><a xlink:title=" ">
<polygon fill="white" stroke="#bfbfbf" points="6160,-67.5 6160,-97.5 6302,-97.5 6302,-67.5 6160,-67.5"/>
<text text-anchor="start" x="6168" y="-85.5" font-family="Helvetica,sans-Serif" font-size="10.00">asm/d/bg/d_bg_s_acch</text>
<text text-anchor="middle" x="6231" y="-74.5" font-family="Helvetica,sans-Serif" font-size="10.00">/__dt__12dBgS_AcchCirFv.s</text>
</a>
</g>
</g>
<!-- Node1&#45;&gt;Node41 -->
<g id="edge41" class="edge">
<title>Node1&#45;&gt;Node41</title>
<path fill="none" stroke="midnightblue" d="M3365.57,-154.11C3765.47,-154.65 5868.26,-155.26 6151,-109 6162.12,-107.18 6173.83,-104.13 6184.75,-100.77"/>
<polygon fill="midnightblue" stroke="midnightblue" points="6186.07,-104.02 6194.51,-97.61 6183.92,-97.35 6186.07,-104.02"/>
</g>
<!-- Node42 -->
<g id="node42" class="node">
<title>Node42</title>
<g id="a_node42"><a xlink:title=" ">
<polygon fill="white" stroke="#bfbfbf" points="6320,-67.5 6320,-97.5 6438,-97.5 6438,-67.5 6320,-67.5"/>
<text text-anchor="start" x="6328" y="-85.5" font-family="Helvetica,sans-Serif" font-size="10.00">asm/d/bg/d_bg_s_acch</text>
<text text-anchor="middle" x="6379" y="-74.5" font-family="Helvetica,sans-Serif" font-size="10.00">/func_80077484.s</text>
</a>
</g>
</g>
<!-- Node1&#45;&gt;Node42 -->
<g id="edge42" class="edge">
<title>Node1&#45;&gt;Node42</title>
<path fill="none" stroke="midnightblue" d="M3365.61,-153.66C3792.39,-151.34 6161.46,-137.27 6311,-109 6320.19,-107.26 6329.76,-104.39 6338.72,-101.19"/>
<polygon fill="midnightblue" stroke="midnightblue" points="6340.05,-104.43 6348.16,-97.62 6337.57,-97.88 6340.05,-104.43"/>
</g>
<!-- Node43 -->
<g id="node43" class="node">
<title>Node43</title>
<g id="a_node43"><a xlink:title=" ">
<polygon fill="white" stroke="#bfbfbf" points="6456,-67.5 6456,-97.5 6574,-97.5 6574,-67.5 6456,-67.5"/>
<text text-anchor="start" x="6464" y="-85.5" font-family="Helvetica,sans-Serif" font-size="10.00">asm/d/bg/d_bg_s_acch</text>
<text text-anchor="middle" x="6515" y="-74.5" font-family="Helvetica,sans-Serif" font-size="10.00">/func_8007748C.s</text>
</a>
</g>
</g>
<!-- Node1&#45;&gt;Node43 -->
<g id="edge43" class="edge">
<title>Node1&#45;&gt;Node43</title>
<path fill="none" stroke="midnightblue" d="M3365.73,-153.7C3803.99,-151.62 6290.37,-138.56 6447,-109 6456.19,-107.27 6465.76,-104.4 6474.73,-101.19"/>
<polygon fill="midnightblue" stroke="midnightblue" points="6476.05,-104.44 6484.16,-97.63 6473.57,-97.89 6476.05,-104.44"/>
</g>
<!-- Node2&#45;&gt;Node3 -->
<g id="edge2" class="edge">
<title>Node2&#45;&gt;Node3</title>
<path fill="none" stroke="midnightblue" d="M56.9,-72.86C63.14,-61.86 74.06,-42.61 82.07,-28.5"/>
<polygon fill="midnightblue" stroke="midnightblue" points="85.16,-30.14 87.06,-19.72 79.08,-26.69 85.16,-30.14"/>
</g>
</g>
</svg>
