<?xml version="1.0" encoding="UTF-8" standalone="no"?>
<!DOCTYPE svg PUBLIC "-//W3C//DTD SVG 1.1//EN"
 "http://www.w3.org/Graphics/SVG/1.1/DTD/svg11.dtd">
<!-- Generated by graphviz version 2.47.0 (20210316.2052)
 -->
<!-- Title: src/d/bg/d_bg_w_base.cpp Pages: 1 -->
<svg width="1528pt" height="173pt"
 viewBox="0.00 0.00 1527.50 173.00" xmlns="http://www.w3.org/2000/svg" xmlns:xlink="http://www.w3.org/1999/xlink">
<g id="graph0" class="graph" transform="scale(1 1) rotate(0) translate(4 169)">
<title>src/d/bg/d_bg_w_base.cpp</title>
<polygon fill="white" stroke="transparent" points="-4,4 -4,-169 1523.5,-169 1523.5,4 -4,4"/>
<!-- Node1 -->
<g id="node1" class="node">
<title>Node1</title>
<g id="a_node1"><a xlink:title=" ">
<polygon fill="#bfbfbf" stroke="black" points="527,-145.5 527,-164.5 660,-164.5 660,-145.5 527,-145.5"/>
<text text-anchor="middle" x="593.5" y="-152.5" font-family="Helvetica,sans-Serif" font-size="10.00">src/d/bg/d_bg_w_base.cpp</text>
</a>
</g>
</g>
<!-- Node2 -->
<g id="node2" class="node">
<title>Node2</title>
<g id="a_node2"><a xlink:href="dol2asm_8h.html" target="_top" xlink:title=" ">
<polygon fill="white" stroke="black" points="0,-73 0,-92 61,-92 61,-73 0,-73"/>
<text text-anchor="middle" x="30.5" y="-80" font-family="Helvetica,sans-Serif" font-size="10.00">dol2asm.h</text>
</a>
</g>
</g>
<!-- Node1&#45;&gt;Node2 -->
<g id="edge1" class="edge">
<title>Node1&#45;&gt;Node2</title>
<path fill="none" stroke="midnightblue" d="M526.67,-151.73C406.3,-147.07 157.94,-134.6 75.5,-109 67.06,-106.38 58.46,-102 51.06,-97.61"/>
<polygon fill="midnightblue" stroke="midnightblue" points="52.77,-94.55 42.45,-92.17 49.03,-100.47 52.77,-94.55"/>
</g>
<!-- Node3 -->
<g id="node3" class="node">
<title>Node3</title>
<g id="a_node3"><a xlink:href="types_8h.html" target="_top" xlink:title=" ">
<polygon fill="white" stroke="black" points="89,-0.5 89,-19.5 170,-19.5 170,-0.5 89,-0.5"/>
<text text-anchor="middle" x="129.5" y="-7.5" font-family="Helvetica,sans-Serif" font-size="10.00">dolphin/types.h</text>
</a>
</g>
</g>
<!-- Node1&#45;&gt;Node3 -->
<g id="edge2" class="edge">
<title>Node1&#45;&gt;Node3</title>
<path fill="none" stroke="midnightblue" d="M526.8,-152.69C400.41,-149.52 136.13,-139.31 108.5,-109 88.18,-86.71 105.01,-49.67 117.99,-28.08"/>
<polygon fill="midnightblue" stroke="midnightblue" points="120.97,-29.92 123.37,-19.61 115.06,-26.17 120.97,-29.92"/>
</g>
<!-- Node4 -->
<g id="node4" class="node">
<title>Node4</title>
<g id="a_node4"><a xlink:href="d__bg__w__base_8h.html" target="_top" xlink:title=" ">
<polygon fill="white" stroke="black" points="117.5,-73 117.5,-92 223.5,-92 223.5,-73 117.5,-73"/>
<text text-anchor="middle" x="170.5" y="-80" font-family="Helvetica,sans-Serif" font-size="10.00">d/bg/d_bg_w_base.h</text>
</a>
</g>
</g>
<!-- Node1&#45;&gt;Node4 -->
<g id="edge3" class="edge">
<title>Node1&#45;&gt;Node4</title>
<path fill="none" stroke="midnightblue" d="M526.84,-150.86C453.83,-146.23 333.78,-135.08 233.5,-109 221.35,-105.84 208.41,-100.9 197.44,-96.21"/>
<polygon fill="midnightblue" stroke="midnightblue" points="198.56,-92.87 188,-92.02 195.73,-99.27 198.56,-92.87"/>
</g>
<!-- Node5 -->
<g id="node5" class="node">
<title>Node5</title>
<g id="a_node5"><a xlink:title=" ">
<polygon fill="white" stroke="#bfbfbf" points="242,-67.5 242,-97.5 369,-97.5 369,-67.5 242,-67.5"/>
<text text-anchor="start" x="250" y="-85.5" font-family="Helvetica,sans-Serif" font-size="10.00">asm/d/bg/d_bg_w_base</text>
<text text-anchor="middle" x="305.5" y="-74.5" font-family="Helvetica,sans-Serif" font-size="10.00">/__ct__9dBgW_BaseFv.s</text>
</a>
</g>
</g>
<!-- Node1&#45;&gt;Node5 -->
<g id="edge5" class="edge">
<title>Node1&#45;&gt;Node5</title>
<path fill="none" stroke="midnightblue" d="M543.53,-145.44C499.67,-137.48 434.35,-124.53 378.5,-109 369.95,-106.62 360.94,-103.77 352.29,-100.85"/>
<polygon fill="midnightblue" stroke="midnightblue" points="353.31,-97.5 342.72,-97.55 351.03,-104.12 353.31,-97.5"/>
</g>
<!-- Node6 -->
<g id="node6" class="node">
<title>Node6</title>
<g id="a_node6"><a xlink:title=" ">
<polygon fill="white" stroke="#bfbfbf" points="387,-67.5 387,-97.5 512,-97.5 512,-67.5 387,-67.5"/>
<text text-anchor="start" x="395" y="-85.5" font-family="Helvetica,sans-Serif" font-size="10.00">asm/d/bg/d_bg_w_base</text>
<text text-anchor="middle" x="449.5" y="-74.5" font-family="Helvetica,sans-Serif" font-size="10.00">/__dt__9cBgW_BgIdFv.s</text>
</a>
</g>
</g>
<!-- Node1&#45;&gt;Node6 -->
<g id="edge6" class="edge">
<title>Node1&#45;&gt;Node6</title>
<path fill="none" stroke="midnightblue" d="M576.13,-145.5C554.29,-134.8 516.17,-116.14 487.45,-102.08"/>
<polygon fill="midnightblue" stroke="midnightblue" points="488.63,-98.76 478.11,-97.51 485.55,-105.05 488.63,-98.76"/>
</g>
<!-- Node7 -->
<g id="node7" class="node">
<title>Node7</title>
<g id="a_node7"><a xlink:title=" ">
<polygon fill="white" stroke="#bfbfbf" points="530,-67.5 530,-97.5 657,-97.5 657,-67.5 530,-67.5"/>
<text text-anchor="start" x="538" y="-85.5" font-family="Helvetica,sans-Serif" font-size="10.00">asm/d/bg/d_bg_w_base</text>
<text text-anchor="middle" x="593.5" y="-74.5" font-family="Helvetica,sans-Serif" font-size="10.00">/__dt__9dBgW_BaseFv.s</text>
</a>
</g>
</g>
<!-- Node1&#45;&gt;Node7 -->
<g id="edge7" class="edge">
<title>Node1&#45;&gt;Node7</title>
<path fill="none" stroke="midnightblue" d="M593.5,-145.36C593.5,-136.05 593.5,-120.83 593.5,-107.81"/>
<polygon fill="midnightblue" stroke="midnightblue" points="597,-107.58 593.5,-97.58 590,-107.58 597,-107.58"/>
</g>
<!-- Node8 -->
<g id="node8" class="node">
<title>Node8</title>
<g id="a_node8"><a xlink:title=" ">
<polygon fill="white" stroke="#bfbfbf" points="675.5,-67.5 675.5,-97.5 845.5,-97.5 845.5,-67.5 675.5,-67.5"/>
<text text-anchor="start" x="683.5" y="-85.5" font-family="Helvetica,sans-Serif" font-size="10.00">asm/d/bg/d_bg_w_base</text>
<text text-anchor="middle" x="760.5" y="-74.5" font-family="Helvetica,sans-Serif" font-size="10.00">/ClrDBgWBase__9dBgW_BaseFv.s</text>
</a>
</g>
</g>
<!-- Node1&#45;&gt;Node8 -->
<g id="edge8" class="edge">
<title>Node1&#45;&gt;Node8</title>
<path fill="none" stroke="midnightblue" d="M613.64,-145.5C639.31,-134.66 684.33,-115.65 717.78,-101.53"/>
<polygon fill="midnightblue" stroke="midnightblue" points="719.47,-104.62 727.32,-97.51 716.75,-98.17 719.47,-104.62"/>
</g>
<!-- Node9 -->
<g id="node9" class="node">
<title>Node9</title>
<g id="a_node9"><a xlink:title=" ">
<polygon fill="white" stroke="#bfbfbf" points="863.5,-62 863.5,-103 997.5,-103 997.5,-62 863.5,-62"/>
<text text-anchor="start" x="871.5" y="-91" font-family="Helvetica,sans-Serif" font-size="10.00">asm/d/bg/d_bg_w_base</text>
<text text-anchor="start" x="871.5" y="-80" font-family="Helvetica,sans-Serif" font-size="10.00">/ChkMemoryError__9dBgW</text>
<text text-anchor="middle" x="930.5" y="-69" font-family="Helvetica,sans-Serif" font-size="10.00">_BaseFv.s</text>
</a>
</g>
</g>
<!-- Node1&#45;&gt;Node9 -->
<g id="edge9" class="edge">
<title>Node1&#45;&gt;Node9</title>
<path fill="none" stroke="midnightblue" d="M659.51,-145.47C712.63,-137.92 788.96,-125.54 854.5,-109 858.26,-108.05 862.11,-107 865.97,-105.9"/>
<polygon fill="midnightblue" stroke="midnightblue" points="867.01,-109.24 875.59,-103.03 865,-102.53 867.01,-109.24"/>
</g>
<!-- Node10 -->
<g id="node10" class="node">
<title>Node10</title>
<g id="a_node10"><a xlink:title=" ">
<polygon fill="white" stroke="#bfbfbf" points="1015.5,-62 1015.5,-103 1211.5,-103 1211.5,-62 1015.5,-62"/>
<text text-anchor="start" x="1023.5" y="-91" font-family="Helvetica,sans-Serif" font-size="10.00">asm/d/bg/d_bg_w_base</text>
<text text-anchor="start" x="1023.5" y="-80" font-family="Helvetica,sans-Serif" font-size="10.00">/CallRideCallBack__9dBgW</text>
<text text-anchor="middle" x="1113.5" y="-69" font-family="Helvetica,sans-Serif" font-size="10.00">_BaseFP10fopAc_ac_cP10fopAc_ac_c.s</text>
</a>
</g>
</g>
<!-- Node1&#45;&gt;Node10 -->
<g id="edge10" class="edge">
<title>Node1&#45;&gt;Node10</title>
<path fill="none" stroke="midnightblue" d="M660.02,-149.33C741.94,-143 885.15,-129.99 1006.5,-109 1013.07,-107.86 1019.85,-106.56 1026.64,-105.16"/>
<polygon fill="midnightblue" stroke="midnightblue" points="1027.54,-108.55 1036.59,-103.05 1026.08,-101.7 1027.54,-108.55"/>
</g>
<!-- Node11 -->
<g id="node11" class="node">
<title>Node11</title>
<g id="a_node11"><a xlink:title=" ">
<polygon fill="white" stroke="#bfbfbf" points="1230,-56.5 1230,-108.5 1381,-108.5 1381,-56.5 1230,-56.5"/>
<text text-anchor="start" x="1238" y="-96.5" font-family="Helvetica,sans-Serif" font-size="10.00">asm/d/bg/d_bg_w_base</text>
<text text-anchor="start" x="1238" y="-85.5" font-family="Helvetica,sans-Serif" font-size="10.00">/CallArrowStickCallBack</text>
<text text-anchor="start" x="1238" y="-74.5" font-family="Helvetica,sans-Serif" font-size="10.00">__9dBgW_BaseFP10fopAc_ac</text>
<text text-anchor="middle" x="1305.5" y="-63.5" font-family="Helvetica,sans-Serif" font-size="10.00">_cP10fopAc_ac_cR4cXyz.s</text>
</a>
</g>
</g>
<!-- Node1&#45;&gt;Node11 -->
<g id="edge11" class="edge">
<title>Node1&#45;&gt;Node11</title>
<path fill="none" stroke="midnightblue" d="M660,-154C773.35,-152.97 1011.12,-146.26 1219.79,-108.94"/>
<polygon fill="midnightblue" stroke="midnightblue" points="1220.49,-112.37 1229.7,-107.14 1219.24,-105.48 1220.49,-112.37"/>
</g>
<!-- Node12 -->
<g id="node12" class="node">
<title>Node12</title>
<g id="a_node12"><a xlink:title=" ">
<polygon fill="white" stroke="#bfbfbf" points="1399.5,-62 1399.5,-103 1519.5,-103 1519.5,-62 1399.5,-62"/>
<text text-anchor="start" x="1407.5" y="-91" font-family="Helvetica,sans-Serif" font-size="10.00">asm/d/bg/d_bg_w_base</text>
<text text-anchor="start" x="1407.5" y="-80" font-family="Helvetica,sans-Serif" font-size="10.00">/CalcDiffShapeAngleY</text>
<text text-anchor="middle" x="1459.5" y="-69" font-family="Helvetica,sans-Serif" font-size="10.00">__9dBgW_BaseFs.s</text>
</a>
</g>
</g>
<!-- Node1&#45;&gt;Node12 -->
<g id="edge12" class="edge">
<title>Node1&#45;&gt;Node12</title>
<path fill="none" stroke="midnightblue" d="M660.14,-152.78C825.57,-149.35 1251.68,-137.89 1390.5,-109 1394.4,-108.19 1398.37,-107.2 1402.34,-106.08"/>
<polygon fill="midnightblue" stroke="midnightblue" points="1403.62,-109.35 1412.16,-103.08 1401.57,-102.66 1403.62,-109.35"/>
</g>
<!-- Node4&#45;&gt;Node3 -->
<g id="edge4" class="edge">
<title>Node4&#45;&gt;Node3</title>
<path fill="none" stroke="midnightblue" d="M165.47,-72.86C159.08,-61.86 147.88,-42.61 139.68,-28.5"/>
<polygon fill="midnightblue" stroke="midnightblue" points="142.62,-26.6 134.57,-19.72 136.57,-30.12 142.62,-26.6"/>
</g>
</g>
</svg>
