<?xml version="1.0" encoding="UTF-8" standalone="no"?>
<!DOCTYPE svg PUBLIC "-//W3C//DTD SVG 1.1//EN"
 "http://www.w3.org/Graphics/SVG/1.1/DTD/svg11.dtd">
<!-- Generated by graphviz version 2.47.0 (20210316.2052)
 -->
<!-- Title: src/d/bg/d_bg_w_base.cpp Pages: 1 -->
<svg width="992pt" height="162pt"
 viewBox="0.00 0.00 991.50 162.00" xmlns="http://www.w3.org/2000/svg" xmlns:xlink="http://www.w3.org/1999/xlink">
<g id="graph0" class="graph" transform="scale(1 1) rotate(0) translate(4 158)">
<title>src/d/bg/d_bg_w_base.cpp</title>
<polygon fill="white" stroke="transparent" points="-4,4 -4,-158 987.5,-158 987.5,4 -4,4"/>
<!-- Node1 -->
<g id="node1" class="node">
<title>Node1</title>
<g id="a_node1"><a xlink:title=" ">
<polygon fill="#bfbfbf" stroke="black" points="311,-134.5 311,-153.5 444,-153.5 444,-134.5 311,-134.5"/>
<text text-anchor="middle" x="377.5" y="-141.5" font-family="Helvetica,sans-Serif" font-size="10.00">src/d/bg/d_bg_w_base.cpp</text>
</a>
</g>
</g>
<!-- Node2 -->
<g id="node2" class="node">
<title>Node2</title>
<g id="a_node2"><a xlink:href="dol2asm_8h.html" target="_top" xlink:title=" ">
<polygon fill="white" stroke="black" points="0,-67.5 0,-86.5 61,-86.5 61,-67.5 0,-67.5"/>
<text text-anchor="middle" x="30.5" y="-74.5" font-family="Helvetica,sans-Serif" font-size="10.00">dol2asm.h</text>
</a>
</g>
</g>
<!-- Node1&#45;&gt;Node2 -->
<g id="edge1" class="edge">
<title>Node1&#45;&gt;Node2</title>
<path fill="none" stroke="midnightblue" d="M310.71,-138.26C248.77,-132.64 154.52,-120.99 75.5,-98 69.04,-96.12 62.29,-93.5 56.05,-90.78"/>
<polygon fill="midnightblue" stroke="midnightblue" points="57.31,-87.51 46.77,-86.51 54.39,-93.87 57.31,-87.51"/>
</g>
<!-- Node3 -->
<g id="node3" class="node">
<title>Node3</title>
<g id="a_node3"><a xlink:href="types_8h.html" target="_top" xlink:title=" ">
<polygon fill="white" stroke="black" points="89,-0.5 89,-19.5 170,-19.5 170,-0.5 89,-0.5"/>
<text text-anchor="middle" x="129.5" y="-7.5" font-family="Helvetica,sans-Serif" font-size="10.00">dolphin/types.h</text>
</a>
</g>
</g>
<!-- Node1&#45;&gt;Node3 -->
<g id="edge2" class="edge">
<title>Node1&#45;&gt;Node3</title>
<path fill="none" stroke="midnightblue" d="M310.87,-141.36C239.78,-138.04 133.93,-128.04 108.5,-98 91.75,-78.22 105.75,-47.27 117.53,-28.12"/>
<polygon fill="midnightblue" stroke="midnightblue" points="120.61,-29.81 123.16,-19.53 114.75,-25.98 120.61,-29.81"/>
</g>
<!-- Node4 -->
<g id="node4" class="node">
<title>Node4</title>
<g id="a_node4"><a xlink:href="d__bg__w__base_8h.html" target="_top" xlink:title=" ">
<polygon fill="white" stroke="black" points="117.5,-67.5 117.5,-86.5 223.5,-86.5 223.5,-67.5 117.5,-67.5"/>
<text text-anchor="middle" x="170.5" y="-74.5" font-family="Helvetica,sans-Serif" font-size="10.00">d/bg/d_bg_w_base.h</text>
</a>
</g>
</g>
<!-- Node1&#45;&gt;Node4 -->
<g id="edge3" class="edge">
<title>Node1&#45;&gt;Node4</title>
<path fill="none" stroke="midnightblue" d="M350.15,-134.49C321.18,-125.47 274.1,-110.79 233.5,-98 225,-95.32 215.87,-92.43 207.26,-89.7"/>
<polygon fill="midnightblue" stroke="midnightblue" points="208.06,-86.28 197.47,-86.59 205.94,-92.95 208.06,-86.28"/>
</g>
<!-- Node5 -->
<g id="node5" class="node">
<title>Node5</title>
<g id="a_node5"><a xlink:title=" ">
<polygon fill="white" stroke="#bfbfbf" points="242,-62 242,-92 369,-92 369,-62 242,-62"/>
<text text-anchor="start" x="250" y="-80" font-family="Helvetica,sans-Serif" font-size="10.00">asm/d/bg/d_bg_w_base</text>
<text text-anchor="middle" x="305.5" y="-69" font-family="Helvetica,sans-Serif" font-size="10.00">/__ct__9dBgW_BaseFv.s</text>
</a>
</g>
</g>
<!-- Node1&#45;&gt;Node5 -->
<g id="edge5" class="edge">
<title>Node1&#45;&gt;Node5</title>
<path fill="none" stroke="midnightblue" d="M367.79,-134.23C357.78,-125.2 341.8,-110.77 328.54,-98.8"/>
<polygon fill="midnightblue" stroke="midnightblue" points="330.87,-96.19 321.11,-92.09 326.18,-101.39 330.87,-96.19"/>
</g>
<!-- Node6 -->
<g id="node6" class="node">
<title>Node6</title>
<g id="a_node6"><a xlink:title=" ">
<polygon fill="white" stroke="#bfbfbf" points="387,-62 387,-92 512,-92 512,-62 387,-62"/>
<text text-anchor="start" x="395" y="-80" font-family="Helvetica,sans-Serif" font-size="10.00">asm/d/bg/d_bg_w_base</text>
<text text-anchor="middle" x="449.5" y="-69" font-family="Helvetica,sans-Serif" font-size="10.00">/__dt__9cBgW_BgIdFv.s</text>
</a>
</g>
</g>
<!-- Node1&#45;&gt;Node6 -->
<g id="edge6" class="edge">
<title>Node1&#45;&gt;Node6</title>
<path fill="none" stroke="midnightblue" d="M387.21,-134.23C397.22,-125.2 413.2,-110.77 426.46,-98.8"/>
<polygon fill="midnightblue" stroke="midnightblue" points="428.82,-101.39 433.89,-92.09 424.13,-96.19 428.82,-101.39"/>
</g>
<!-- Node7 -->
<g id="node7" class="node">
<title>Node7</title>
<g id="a_node7"><a xlink:title=" ">
<polygon fill="white" stroke="#bfbfbf" points="530,-62 530,-92 657,-92 657,-62 530,-62"/>
<text text-anchor="start" x="538" y="-80" font-family="Helvetica,sans-Serif" font-size="10.00">asm/d/bg/d_bg_w_base</text>
<text text-anchor="middle" x="593.5" y="-69" font-family="Helvetica,sans-Serif" font-size="10.00">/__dt__9dBgW_BaseFv.s</text>
</a>
</g>
</g>
<!-- Node1&#45;&gt;Node7 -->
<g id="edge7" class="edge">
<title>Node1&#45;&gt;Node7</title>
<path fill="none" stroke="midnightblue" d="M406.18,-134.37C439.44,-124.36 495.05,-107.63 537.06,-94.98"/>
<polygon fill="midnightblue" stroke="midnightblue" points="538.32,-98.26 546.88,-92.03 536.3,-91.56 538.32,-98.26"/>
</g>
<!-- Node8 -->
<g id="node8" class="node">
<title>Node8</title>
<g id="a_node8"><a xlink:title=" ">
<polygon fill="white" stroke="#bfbfbf" points="675.5,-62 675.5,-92 845.5,-92 845.5,-62 675.5,-62"/>
<text text-anchor="start" x="683.5" y="-80" font-family="Helvetica,sans-Serif" font-size="10.00">asm/d/bg/d_bg_w_base</text>
<text text-anchor="middle" x="760.5" y="-69" font-family="Helvetica,sans-Serif" font-size="10.00">/ClrDBgWBase__9dBgW_BaseFv.s</text>
</a>
</g>
</g>
<!-- Node1&#45;&gt;Node8 -->
<g id="edge8" class="edge">
<title>Node1&#45;&gt;Node8</title>
<path fill="none" stroke="midnightblue" d="M438.56,-134.49C497.16,-126.09 588.1,-112.43 666.5,-98 673.11,-96.78 679.98,-95.45 686.85,-94.08"/>
<polygon fill="midnightblue" stroke="midnightblue" points="687.78,-97.46 696.88,-92.03 686.39,-90.6 687.78,-97.46"/>
</g>
<!-- Node9 -->
<g id="node9" class="node">
<title>Node9</title>
<g id="a_node9"><a xlink:title=" ">
<polygon fill="white" stroke="#bfbfbf" points="863.5,-56.5 863.5,-97.5 983.5,-97.5 983.5,-56.5 863.5,-56.5"/>
<text text-anchor="start" x="871.5" y="-85.5" font-family="Helvetica,sans-Serif" font-size="10.00">asm/d/bg/d_bg_w_base</text>
<text text-anchor="start" x="871.5" y="-74.5" font-family="Helvetica,sans-Serif" font-size="10.00">/CalcDiffShapeAngleY</text>
<text text-anchor="middle" x="923.5" y="-63.5" font-family="Helvetica,sans-Serif" font-size="10.00">__9dBgW_BaseFs.s</text>
</a>
</g>
</g>
<!-- Node1&#45;&gt;Node9 -->
<g id="edge9" class="edge">
<title>Node1&#45;&gt;Node9</title>
<path fill="none" stroke="midnightblue" d="M444.03,-140.67C534.73,-136.62 702.27,-126.04 853.51,-98"/>
<polygon fill="midnightblue" stroke="midnightblue" points="854.27,-101.42 863.45,-96.13 852.98,-94.54 854.27,-101.42"/>
</g>
<!-- Node4&#45;&gt;Node3 -->
<g id="edge4" class="edge">
<title>Node4&#45;&gt;Node3</title>
<path fill="none" stroke="midnightblue" d="M164.97,-67.23C158.7,-57.29 148.32,-40.84 140.41,-28.29"/>
<polygon fill="midnightblue" stroke="midnightblue" points="143.24,-26.22 134.94,-19.63 137.32,-29.95 143.24,-26.22"/>
</g>
</g>
</svg>
