<?xml version="1.0" encoding="UTF-8" standalone="no"?>
<!DOCTYPE svg PUBLIC "-//W3C//DTD SVG 1.1//EN"
 "http://www.w3.org/Graphics/SVG/1.1/DTD/svg11.dtd">
<!-- Generated by graphviz version 2.47.0 (20210316.2052)
 -->
<!-- Title: src/d/bg/d_bg_s_movebg_actor.cpp Pages: 1 -->
<svg width="1244pt" height="173pt"
 viewBox="0.00 0.00 1243.50 173.00" xmlns="http://www.w3.org/2000/svg" xmlns:xlink="http://www.w3.org/1999/xlink">
<g id="graph0" class="graph" transform="scale(1 1) rotate(0) translate(4 169)">
<title>src/d/bg/d_bg_s_movebg_actor.cpp</title>
<polygon fill="white" stroke="transparent" points="-4,4 -4,-169 1239.5,-169 1239.5,4 -4,4"/>
<!-- Node1 -->
<g id="node1" class="node">
<title>Node1</title>
<g id="a_node1"><a xlink:title=" ">
<polygon fill="#bfbfbf" stroke="black" points="460.5,-134.5 460.5,-164.5 586.5,-164.5 586.5,-134.5 460.5,-134.5"/>
<text text-anchor="start" x="468.5" y="-152.5" font-family="Helvetica,sans-Serif" font-size="10.00">src/d/bg/d_bg_s_movebg</text>
<text text-anchor="middle" x="523.5" y="-141.5" font-family="Helvetica,sans-Serif" font-size="10.00">_actor.cpp</text>
</a>
</g>
</g>
<!-- Node2 -->
<g id="node2" class="node">
<title>Node2</title>
<g id="a_node2"><a xlink:href="dol2asm_8h.html" target="_top" xlink:title=" ">
<polygon fill="white" stroke="black" points="0,-67.5 0,-86.5 61,-86.5 61,-67.5 0,-67.5"/>
<text text-anchor="middle" x="30.5" y="-74.5" font-family="Helvetica,sans-Serif" font-size="10.00">dol2asm.h</text>
</a>
</g>
</g>
<!-- Node1&#45;&gt;Node2 -->
<g id="edge1" class="edge">
<title>Node1&#45;&gt;Node2</title>
<path fill="none" stroke="midnightblue" d="M460.41,-147.43C372.64,-144.58 209.38,-134.37 75.5,-98 69,-96.24 62.24,-93.66 56,-90.95"/>
<polygon fill="midnightblue" stroke="midnightblue" points="57.27,-87.68 46.72,-86.66 54.33,-94.03 57.27,-87.68"/>
</g>
<!-- Node3 -->
<g id="node3" class="node">
<title>Node3</title>
<g id="a_node3"><a xlink:href="types_8h.html" target="_top" xlink:title=" ">
<polygon fill="white" stroke="black" points="90,-0.5 90,-19.5 171,-19.5 171,-0.5 90,-0.5"/>
<text text-anchor="middle" x="130.5" y="-7.5" font-family="Helvetica,sans-Serif" font-size="10.00">dolphin/types.h</text>
</a>
</g>
</g>
<!-- Node1&#45;&gt;Node3 -->
<g id="edge2" class="edge">
<title>Node1&#45;&gt;Node3</title>
<path fill="none" stroke="midnightblue" d="M460.4,-145.36C350.03,-139.21 131.42,-123.88 108.5,-98 91.19,-78.46 105.97,-47.22 118.24,-27.97"/>
<polygon fill="midnightblue" stroke="midnightblue" points="121.21,-29.83 123.92,-19.59 115.41,-25.91 121.21,-29.83"/>
</g>
<!-- Node4 -->
<g id="node4" class="node">
<title>Node4</title>
<g id="a_node4"><a xlink:href="d__bg__s__movebg__actor_8h.html" target="_top" xlink:title=" ">
<polygon fill="white" stroke="black" points="117.5,-62 117.5,-92 227.5,-92 227.5,-62 117.5,-62"/>
<text text-anchor="start" x="125.5" y="-80" font-family="Helvetica,sans-Serif" font-size="10.00">d/bg/d_bg_s_movebg</text>
<text text-anchor="middle" x="172.5" y="-69" font-family="Helvetica,sans-Serif" font-size="10.00">_actor.h</text>
</a>
</g>
</g>
<!-- Node1&#45;&gt;Node4 -->
<g id="edge3" class="edge">
<title>Node1&#45;&gt;Node4</title>
<path fill="none" stroke="midnightblue" d="M460.31,-139.77C401.84,-131.13 312.7,-116.53 236.5,-98 232.6,-97.05 228.6,-96 224.58,-94.88"/>
<polygon fill="midnightblue" stroke="midnightblue" points="225.21,-91.42 214.63,-92.01 223.26,-98.15 225.21,-91.42"/>
</g>
<!-- Node5 -->
<g id="node5" class="node">
<title>Node5</title>
<g id="a_node5"><a xlink:title=" ">
<polygon fill="white" stroke="#bfbfbf" points="245.5,-62 245.5,-92 439.5,-92 439.5,-62 245.5,-62"/>
<text text-anchor="start" x="253.5" y="-80" font-family="Helvetica,sans-Serif" font-size="10.00">asm/d/bg/d_bg_s_movebg</text>
<text text-anchor="middle" x="342.5" y="-69" font-family="Helvetica,sans-Serif" font-size="10.00">_actor/__ct__16dBgS_MoveBgActorFv.s</text>
</a>
</g>
</g>
<!-- Node1&#45;&gt;Node5 -->
<g id="edge5" class="edge">
<title>Node1&#45;&gt;Node5</title>
<path fill="none" stroke="midnightblue" d="M487.31,-134.4C458.82,-123.31 418.94,-107.78 388.25,-95.82"/>
<polygon fill="midnightblue" stroke="midnightblue" points="389.22,-92.44 378.63,-92.07 386.68,-98.96 389.22,-92.44"/>
</g>
<!-- Node6 -->
<g id="node6" class="node">
<title>Node6</title>
<g id="a_node6"><a xlink:title=" ">
<polygon fill="white" stroke="#bfbfbf" points="458,-56.5 458,-97.5 589,-97.5 589,-56.5 458,-56.5"/>
<text text-anchor="start" x="466" y="-85.5" font-family="Helvetica,sans-Serif" font-size="10.00">asm/d/bg/d_bg_s_movebg</text>
<text text-anchor="start" x="466" y="-74.5" font-family="Helvetica,sans-Serif" font-size="10.00">_actor/CheckCreateHeap</text>
<text text-anchor="middle" x="523.5" y="-63.5" font-family="Helvetica,sans-Serif" font-size="10.00">__FP10fopAc_ac_c.s</text>
</a>
</g>
</g>
<!-- Node1&#45;&gt;Node6 -->
<g id="edge6" class="edge">
<title>Node1&#45;&gt;Node6</title>
<path fill="none" stroke="midnightblue" d="M523.5,-134.23C523.5,-126.57 523.5,-116.84 523.5,-107.63"/>
<polygon fill="midnightblue" stroke="midnightblue" points="527,-107.59 523.5,-97.59 520,-107.59 527,-107.59"/>
</g>
<!-- Node7 -->
<g id="node7" class="node">
<title>Node7</title>
<g id="a_node7"><a xlink:title=" ">
<polygon fill="white" stroke="#bfbfbf" points="607,-56.5 607,-97.5 752,-97.5 752,-56.5 607,-56.5"/>
<text text-anchor="start" x="615" y="-85.5" font-family="Helvetica,sans-Serif" font-size="10.00">asm/d/bg/d_bg_s_movebg</text>
<text text-anchor="start" x="615" y="-74.5" font-family="Helvetica,sans-Serif" font-size="10.00">_actor/MoveBGCreateHeap</text>
<text text-anchor="middle" x="679.5" y="-63.5" font-family="Helvetica,sans-Serif" font-size="10.00">__16dBgS_MoveBgActorFv.s</text>
</a>
</g>
</g>
<!-- Node1&#45;&gt;Node7 -->
<g id="edge7" class="edge">
<title>Node1&#45;&gt;Node7</title>
<path fill="none" stroke="midnightblue" d="M554.69,-134.4C575.34,-125.07 602.92,-112.61 626.91,-101.77"/>
<polygon fill="midnightblue" stroke="midnightblue" points="628.58,-104.85 636.25,-97.55 625.69,-98.48 628.58,-104.85"/>
</g>
<!-- Node8 -->
<g id="node8" class="node">
<title>Node8</title>
<g id="a_node8"><a xlink:title=" ">
<polygon fill="white" stroke="#bfbfbf" points="770,-62 770,-92 901,-92 901,-62 770,-62"/>
<text text-anchor="start" x="778" y="-80" font-family="Helvetica,sans-Serif" font-size="10.00">asm/d/bg/d_bg_s_movebg</text>
<text text-anchor="middle" x="835.5" y="-69" font-family="Helvetica,sans-Serif" font-size="10.00">_actor/func_800787BC.s</text>
</a>
</g>
</g>
<!-- Node1&#45;&gt;Node8 -->
<g id="edge8" class="edge">
<title>Node1&#45;&gt;Node8</title>
<path fill="none" stroke="midnightblue" d="M586.6,-136.09C634.69,-126.4 702.47,-112.23 761.5,-98 765.91,-96.94 770.46,-95.8 775.04,-94.63"/>
<polygon fill="midnightblue" stroke="midnightblue" points="776.24,-97.94 785.04,-92.03 774.48,-91.16 776.24,-97.94"/>
</g>
<!-- Node9 -->
<g id="node9" class="node">
<title>Node9</title>
<g id="a_node9"><a xlink:title=" ">
<polygon fill="white" stroke="#bfbfbf" points="919.5,-56.5 919.5,-97.5 1077.5,-97.5 1077.5,-56.5 919.5,-56.5"/>
<text text-anchor="start" x="927.5" y="-85.5" font-family="Helvetica,sans-Serif" font-size="10.00">asm/d/bg/d_bg_s_movebg</text>
<text text-anchor="start" x="927.5" y="-74.5" font-family="Helvetica,sans-Serif" font-size="10.00">_actor/MoveBGDelete__16dBgS</text>
<text text-anchor="middle" x="998.5" y="-63.5" font-family="Helvetica,sans-Serif" font-size="10.00">_MoveBgActorFv.s</text>
</a>
</g>
</g>
<!-- Node1&#45;&gt;Node9 -->
<g id="edge9" class="edge">
<title>Node1&#45;&gt;Node9</title>
<path fill="none" stroke="midnightblue" d="M586.79,-142.08C661.55,-134.09 789.85,-119.09 909.36,-98.12"/>
<polygon fill="midnightblue" stroke="midnightblue" points="910.18,-101.53 919.42,-96.34 908.96,-94.64 910.18,-101.53"/>
</g>
<!-- Node10 -->
<g id="node10" class="node">
<title>Node10</title>
<g id="a_node10"><a xlink:title=" ">
<polygon fill="white" stroke="#bfbfbf" points="1095.5,-56.5 1095.5,-97.5 1235.5,-97.5 1235.5,-56.5 1095.5,-56.5"/>
<text text-anchor="start" x="1103.5" y="-85.5" font-family="Helvetica,sans-Serif" font-size="10.00">asm/d/bg/d_bg_s_movebg</text>
<text text-anchor="start" x="1103.5" y="-74.5" font-family="Helvetica,sans-Serif" font-size="10.00">_actor/MoveBGExecute_</text>
<text text-anchor="middle" x="1165.5" y="-63.5" font-family="Helvetica,sans-Serif" font-size="10.00">_16dBgS_MoveBgActorFv.s</text>
</a>
</g>
</g>
<!-- Node1&#45;&gt;Node10 -->
<g id="edge10" class="edge">
<title>Node1&#45;&gt;Node10</title>
<path fill="none" stroke="midnightblue" d="M586.82,-146.09C689.63,-141.47 899.27,-129.05 1085.44,-98.04"/>
<polygon fill="midnightblue" stroke="midnightblue" points="1086.13,-101.47 1095.41,-96.36 1084.97,-94.57 1086.13,-101.47"/>
</g>
<!-- Node4&#45;&gt;Node3 -->
<g id="edge4" class="edge">
<title>Node4&#45;&gt;Node3</title>
<path fill="none" stroke="midnightblue" d="M163.39,-61.9C157.03,-52.06 148.51,-38.88 141.74,-28.39"/>
<polygon fill="midnightblue" stroke="midnightblue" points="144.48,-26.19 136.12,-19.69 138.61,-29.99 144.48,-26.19"/>
</g>
</g>
</svg>
