<?xml version="1.0" encoding="UTF-8" standalone="no"?>
<!DOCTYPE svg PUBLIC "-//W3C//DTD SVG 1.1//EN"
 "http://www.w3.org/Graphics/SVG/1.1/DTD/svg11.dtd">
<!-- Generated by graphviz version 2.47.0 (20210316.2052)
 -->
<!-- Title: src/d/bg/d_bg_s_chk.cpp Pages: 1 -->
<svg width="760pt" height="162pt"
 viewBox="0.00 0.00 760.00 162.00" xmlns="http://www.w3.org/2000/svg" xmlns:xlink="http://www.w3.org/1999/xlink">
<g id="graph0" class="graph" transform="scale(1 1) rotate(0) translate(4 158)">
<title>src/d/bg/d_bg_s_chk.cpp</title>
<polygon fill="white" stroke="transparent" points="-4,4 -4,-158 756,-158 756,4 -4,4"/>
<!-- Node1 -->
<g id="node1" class="node">
<title>Node1</title>
<g id="a_node1"><a xlink:title=" ">
<polygon fill="#bfbfbf" stroke="black" points="231,-134.5 231,-153.5 356,-153.5 356,-134.5 231,-134.5"/>
<text text-anchor="middle" x="293.5" y="-141.5" font-family="Helvetica,sans-Serif" font-size="10.00">src/d/bg/d_bg_s_chk.cpp</text>
</a>
</g>
</g>
<!-- Node2 -->
<g id="node2" class="node">
<title>Node2</title>
<g id="a_node2"><a xlink:href="dol2asm_8h.html" target="_top" xlink:title=" ">
<polygon fill="white" stroke="black" points="0,-67.5 0,-86.5 61,-86.5 61,-67.5 0,-67.5"/>
<text text-anchor="middle" x="30.5" y="-74.5" font-family="Helvetica,sans-Serif" font-size="10.00">dol2asm.h</text>
</a>
</g>
</g>
<!-- Node1&#45;&gt;Node2 -->
<g id="edge1" class="edge">
<title>Node1&#45;&gt;Node2</title>
<path fill="none" stroke="midnightblue" d="M235.25,-134.47C190.84,-127.13 128.48,-115.02 75.5,-98 69.45,-96.06 63.12,-93.56 57.19,-90.99"/>
<polygon fill="midnightblue" stroke="midnightblue" points="58.24,-87.62 47.68,-86.68 55.35,-94 58.24,-87.62"/>
</g>
<!-- Node3 -->
<g id="node3" class="node">
<title>Node3</title>
<g id="a_node3"><a xlink:href="types_8h.html" target="_top" xlink:title=" ">
<polygon fill="white" stroke="black" points="87,-0.5 87,-19.5 168,-19.5 168,-0.5 87,-0.5"/>
<text text-anchor="middle" x="127.5" y="-7.5" font-family="Helvetica,sans-Serif" font-size="10.00">dolphin/types.h</text>
</a>
</g>
</g>
<!-- Node1&#45;&gt;Node3 -->
<g id="edge2" class="edge">
<title>Node1&#45;&gt;Node3</title>
<path fill="none" stroke="midnightblue" d="M230.57,-136C183.09,-129.27 123.61,-117.23 108.5,-98 92.65,-77.83 105.33,-47.25 116.22,-28.23"/>
<polygon fill="midnightblue" stroke="midnightblue" points="119.21,-30.05 121.44,-19.69 113.24,-26.4 119.21,-30.05"/>
</g>
<!-- Node4 -->
<g id="node4" class="node">
<title>Node4</title>
<g id="a_node4"><a xlink:href="d__bg__s__chk_8h.html" target="_top" xlink:title=" ">
<polygon fill="white" stroke="black" points="117.5,-67.5 117.5,-86.5 215.5,-86.5 215.5,-67.5 117.5,-67.5"/>
<text text-anchor="middle" x="166.5" y="-74.5" font-family="Helvetica,sans-Serif" font-size="10.00">d/bg/d_bg_s_chk.h</text>
</a>
</g>
</g>
<!-- Node1&#45;&gt;Node4 -->
<g id="edge3" class="edge">
<title>Node1&#45;&gt;Node4</title>
<path fill="none" stroke="midnightblue" d="M276.64,-134.37C255.1,-123.34 217.6,-104.16 192.42,-91.27"/>
<polygon fill="midnightblue" stroke="midnightblue" points="193.93,-88.11 183.43,-86.67 190.74,-94.34 193.93,-88.11"/>
</g>
<!-- Node5 -->
<g id="node5" class="node">
<title>Node5</title>
<g id="a_node5"><a xlink:title=" ">
<polygon fill="white" stroke="#bfbfbf" points="234,-62 234,-92 353,-92 353,-62 234,-62"/>
<text text-anchor="start" x="242" y="-80" font-family="Helvetica,sans-Serif" font-size="10.00">asm/d/bg/d_bg_s_chk</text>
<text text-anchor="middle" x="293.5" y="-69" font-family="Helvetica,sans-Serif" font-size="10.00">/__ct__8dBgS_ChkFv.s</text>
</a>
</g>
</g>
<!-- Node1&#45;&gt;Node5 -->
<g id="edge5" class="edge">
<title>Node1&#45;&gt;Node5</title>
<path fill="none" stroke="midnightblue" d="M293.5,-134.23C293.5,-126.04 293.5,-113.42 293.5,-102.21"/>
<polygon fill="midnightblue" stroke="midnightblue" points="297,-102.09 293.5,-92.09 290,-102.09 297,-102.09"/>
</g>
<!-- Node6 -->
<g id="node6" class="node">
<title>Node6</title>
<g id="a_node6"><a xlink:title=" ">
<polygon fill="white" stroke="#bfbfbf" points="371,-62 371,-92 490,-92 490,-62 371,-62"/>
<text text-anchor="start" x="379" y="-80" font-family="Helvetica,sans-Serif" font-size="10.00">asm/d/bg/d_bg_s_chk</text>
<text text-anchor="middle" x="430.5" y="-69" font-family="Helvetica,sans-Serif" font-size="10.00">/__dt__8dBgS_ChkFv.s</text>
</a>
</g>
</g>
<!-- Node1&#45;&gt;Node6 -->
<g id="edge6" class="edge">
<title>Node1&#45;&gt;Node6</title>
<path fill="none" stroke="midnightblue" d="M311.69,-134.37C331.98,-124.74 365.4,-108.89 391.63,-96.44"/>
<polygon fill="midnightblue" stroke="midnightblue" points="393.4,-99.48 400.93,-92.03 390.4,-93.15 393.4,-99.48"/>
</g>
<!-- Node7 -->
<g id="node7" class="node">
<title>Node7</title>
<g id="a_node7"><a xlink:title=" ">
<polygon fill="white" stroke="#bfbfbf" points="508,-56.5 508,-97.5 621,-97.5 621,-56.5 508,-56.5"/>
<text text-anchor="start" x="516" y="-85.5" font-family="Helvetica,sans-Serif" font-size="10.00">asm/d/bg/d_bg_s_chk</text>
<text text-anchor="start" x="516" y="-74.5" font-family="Helvetica,sans-Serif" font-size="10.00">/GetGrpPassChkInfo_</text>
<text text-anchor="middle" x="564.5" y="-63.5" font-family="Helvetica,sans-Serif" font-size="10.00">_8dBgS_ChkFv.s</text>
</a>
</g>
</g>
<!-- Node1&#45;&gt;Node7 -->
<g id="edge7" class="edge">
<title>Node1&#45;&gt;Node7</title>
<path fill="none" stroke="midnightblue" d="M337.56,-134.48C377.31,-126.55 437.58,-113.92 498.14,-98.27"/>
<polygon fill="midnightblue" stroke="midnightblue" points="499.07,-101.64 507.86,-95.73 497.3,-94.87 499.07,-101.64"/>
</g>
<!-- Node8 -->
<g id="node8" class="node">
<title>Node8</title>
<g id="a_node8"><a xlink:title=" ">
<polygon fill="white" stroke="#bfbfbf" points="639,-62 639,-92 752,-92 752,-62 639,-62"/>
<text text-anchor="start" x="647" y="-80" font-family="Helvetica,sans-Serif" font-size="10.00">asm/d/bg/d_bg_s_chk</text>
<text text-anchor="middle" x="695.5" y="-69" font-family="Helvetica,sans-Serif" font-size="10.00">/func_80077574.s</text>
</a>
</g>
</g>
<!-- Node1&#45;&gt;Node8 -->
<g id="edge8" class="edge">
<title>Node1&#45;&gt;Node8</title>
<path fill="none" stroke="midnightblue" d="M356.15,-137.77C424.23,-131.35 535.94,-118.71 630.5,-98 634.83,-97.05 639.3,-95.95 643.76,-94.76"/>
<polygon fill="midnightblue" stroke="midnightblue" points="644.78,-98.11 653.46,-92.04 642.89,-91.37 644.78,-98.11"/>
</g>
<!-- Node4&#45;&gt;Node3 -->
<g id="edge4" class="edge">
<title>Node4&#45;&gt;Node3</title>
<path fill="none" stroke="midnightblue" d="M161.24,-67.23C155.28,-57.29 145.4,-40.84 137.87,-28.29"/>
<polygon fill="midnightblue" stroke="midnightblue" points="140.82,-26.4 132.68,-19.63 134.82,-30 140.82,-26.4"/>
</g>
</g>
</svg>
