<?xml version="1.0" encoding="UTF-8" standalone="no"?>
<!DOCTYPE svg PUBLIC "-//W3C//DTD SVG 1.1//EN"
 "http://www.w3.org/Graphics/SVG/1.1/DTD/svg11.dtd">
<!-- Generated by graphviz version 2.47.0 (20210316.2052)
 -->
<!-- Title: src/d/bg/d_bg_s_movebg_actor.cpp Pages: 1 -->
<!--zoomable 184 -->
<svg id="main" version="1.1" xmlns="http://www.w3.org/2000/svg" xmlns:xlink="http://www.w3.org/1999/xlink" xml:space="preserve" onload="init(evt)">
<style type="text/css"><![CDATA[
.edge:hover path { stroke: red; }
.edge:hover polygon { stroke: red; fill: red; }
]]></style>
<script type="text/javascript"><![CDATA[
var edges = document.getElementsByTagName('g');
if (edges && edges.length) {
  for (var i=0;i<edges.length;i++) {
    if (edges[i].id.substr(0,4)=='edge') {
      edges[i].setAttribute('class','edge');
    }
  }
}
]]></script>
        <defs>
                <circle id="rim" cx="0" cy="0" r="7"/>
                <circle id="rim2" cx="0" cy="0" r="3.5"/>
                <g id="zoomPlus">
                        <use xlink:href="#rim" fill="#404040">
                                <set attributeName="fill" to="#808080" begin="zoomplus.mouseover" end="zoomplus.mouseout"/>
                        </use>
                        <path d="M-4,0h8M0,-4v8" fill="none" stroke="white" stroke-width="1.5" pointer-events="none"/>
                </g>
                <g id="zoomMin">
                        <use xlink:href="#rim" fill="#404040">
                                <set attributeName="fill" to="#808080" begin="zoomminus.mouseover" end="zoomminus.mouseout"/>
                        </use>
                        <path d="M-4,0h8" fill="none" stroke="white" stroke-width="1.5" pointer-events="none"/>
                </g>
                <g id="dirArrow">
                        <path fill="none" stroke="white" stroke-width="1.5" d="M0,-3.0v7 M-2.5,-0.5L0,-3.0L2.5,-0.5"/>
                </g>
               <g id="resetDef">
                       <use xlink:href="#rim2" fill="#404040">
                               <set attributeName="fill" to="#808080" begin="reset.mouseover" end="reset.mouseout"/>
                       </use>
               </g>
        </defs>

<script type="text/javascript">
var viewWidth = 2543;
var viewHeight = 184;
var sectionId = 'dynsection-0';
</script>
<script xlink:href="svgpan.js"/>
<svg id="graph" class="graph">
<g id="viewport">
<title>src/d/bg/d_bg_s_movebg_actor.cpp</title>
<polygon fill="white" stroke="transparent" points="-4,4 -4,-180 2538.5,-180 2538.5,4 -4,4"/>
<!-- Node1 -->
<g id="node1" class="node">
<title>Node1</title>
<g id="a_node1"><a xlink:title=" ">
<polygon fill="#bfbfbf" stroke="black" points="1130.5,-145.5 1130.5,-175.5 1256.5,-175.5 1256.5,-145.5 1130.5,-145.5"/>
<text text-anchor="start" x="1138.5" y="-163.5" font-family="Helvetica,sans-Serif" font-size="10.00">src/d/bg/d_bg_s_movebg</text>
<text text-anchor="middle" x="1193.5" y="-152.5" font-family="Helvetica,sans-Serif" font-size="10.00">_actor.cpp</text>
</a>
</g>
</g>
<!-- Node2 -->
<g id="node2" class="node">
<title>Node2</title>
<g id="a_node2"><a xlink:href="dol2asm_8h.html" target="_top" xlink:title=" ">
<polygon fill="white" stroke="black" points="0,-73 0,-92 61,-92 61,-73 0,-73"/>
<text text-anchor="middle" x="30.5" y="-80" font-family="Helvetica,sans-Serif" font-size="10.00">dol2asm.h</text>
</a>
</g>
</g>
<!-- Node1&#45;&gt;Node2 -->
<g id="edge1" class="edge">
<title>Node1&#45;&gt;Node2</title>
<path fill="none" stroke="midnightblue" d="M1130.23,-158.36C908.82,-154.15 176.73,-138.15 75.5,-109 66.88,-106.52 58.14,-102.09 50.69,-97.62"/>
<polygon fill="midnightblue" stroke="midnightblue" points="52.34,-94.52 42.03,-92.07 48.56,-100.41 52.34,-94.52"/>
</g>
<!-- Node3 -->
<g id="node3" class="node">
<title>Node3</title>
<g id="a_node3"><a xlink:href="types_8h.html" target="_top" xlink:title=" ">
<polygon fill="white" stroke="black" points="90,-0.5 90,-19.5 171,-19.5 171,-0.5 90,-0.5"/>
<text text-anchor="middle" x="130.5" y="-7.5" font-family="Helvetica,sans-Serif" font-size="10.00">dolphin/types.h</text>
</a>
</g>
</g>
<!-- Node1&#45;&gt;Node3 -->
<g id="edge2" class="edge">
<title>Node1&#45;&gt;Node3</title>
<path fill="none" stroke="midnightblue" d="M1130.45,-158.94C904.08,-156.63 143.94,-146.13 108.5,-109 87.63,-87.13 105.11,-49.95 118.57,-28.21"/>
<polygon fill="midnightblue" stroke="midnightblue" points="121.61,-29.96 124.15,-19.68 115.75,-26.14 121.61,-29.96"/>
</g>
<!-- Node4 -->
<g id="node4" class="node">
<title>Node4</title>
<g id="a_node4"><a xlink:href="d__bg__s__movebg__actor_8h.html" target="_top" xlink:title=" ">
<polygon fill="white" stroke="black" points="117.5,-67.5 117.5,-97.5 227.5,-97.5 227.5,-67.5 117.5,-67.5"/>
<text text-anchor="start" x="125.5" y="-85.5" font-family="Helvetica,sans-Serif" font-size="10.00">d/bg/d_bg_s_movebg</text>
<text text-anchor="middle" x="172.5" y="-74.5" font-family="Helvetica,sans-Serif" font-size="10.00">_actor.h</text>
</a>
</g>
</g>
<!-- Node1&#45;&gt;Node4 -->
<g id="edge3" class="edge">
<title>Node1&#45;&gt;Node4</title>
<path fill="none" stroke="midnightblue" d="M1130.42,-158.85C945.62,-156.51 407.75,-146.56 236.5,-109 228.1,-107.16 219.38,-104.34 211.17,-101.24"/>
<polygon fill="midnightblue" stroke="midnightblue" points="212.4,-97.96 201.82,-97.51 209.81,-104.47 212.4,-97.96"/>
</g>
<!-- Node5 -->
<g id="node5" class="node">
<title>Node5</title>
<g id="a_node5"><a xlink:title=" ">
<polygon fill="white" stroke="#bfbfbf" points="245.5,-67.5 245.5,-97.5 439.5,-97.5 439.5,-67.5 245.5,-67.5"/>
<text text-anchor="start" x="253.5" y="-85.5" font-family="Helvetica,sans-Serif" font-size="10.00">asm/d/bg/d_bg_s_movebg</text>
<text text-anchor="middle" x="342.5" y="-74.5" font-family="Helvetica,sans-Serif" font-size="10.00">_actor/__ct__16dBgS_MoveBgActorFv.s</text>
</a>
</g>
</g>
<!-- Node1&#45;&gt;Node5 -->
<g id="edge5" class="edge">
<title>Node1&#45;&gt;Node5</title>
<path fill="none" stroke="midnightblue" d="M1130.32,-158.8C1001.39,-156.58 699.02,-147.34 448.5,-109 433.68,-106.73 417.88,-103.42 403.13,-99.94"/>
<polygon fill="midnightblue" stroke="midnightblue" points="403.65,-96.47 393.11,-97.51 402,-103.27 403.65,-96.47"/>
</g>
<!-- Node6 -->
<g id="node6" class="node">
<title>Node6</title>
<g id="a_node6"><a xlink:title=" ">
<polygon fill="white" stroke="#bfbfbf" points="457.5,-56.5 457.5,-108.5 601.5,-108.5 601.5,-56.5 457.5,-56.5"/>
<text text-anchor="start" x="465.5" y="-96.5" font-family="Helvetica,sans-Serif" font-size="10.00">asm/d/bg/d_bg_s_movebg</text>
<text text-anchor="start" x="465.5" y="-85.5" font-family="Helvetica,sans-Serif" font-size="10.00">_actor/d_bg_d_bg_s_movebg</text>
<text text-anchor="start" x="465.5" y="-74.5" font-family="Helvetica,sans-Serif" font-size="10.00">_actor__CheckCreateHeap_</text>
<text text-anchor="middle" x="529.5" y="-63.5" font-family="Helvetica,sans-Serif" font-size="10.00">_FP10fopAc_ac_c.s</text>
</a>
</g>
</g>
<!-- Node1&#45;&gt;Node6 -->
<g id="edge6" class="edge">
<title>Node1&#45;&gt;Node6</title>
<path fill="none" stroke="midnightblue" d="M1130.44,-158.45C1022.97,-155.69 797.85,-145.62 611.5,-109 611.4,-108.98 611.3,-108.96 611.2,-108.94"/>
<polygon fill="midnightblue" stroke="midnightblue" points="612.24,-105.58 601.72,-106.88 610.75,-112.42 612.24,-105.58"/>
</g>
<!-- Node7 -->
<g id="node7" class="node">
<title>Node7</title>
<g id="a_node7"><a xlink:title=" ">
<polygon fill="white" stroke="#bfbfbf" points="620,-62 620,-103 763,-103 763,-62 620,-62"/>
<text text-anchor="start" x="628" y="-91" font-family="Helvetica,sans-Serif" font-size="10.00">asm/d/bg/d_bg_s_movebg</text>
<text text-anchor="start" x="628" y="-80" font-family="Helvetica,sans-Serif" font-size="10.00">_actor/CreateHeap__16dBgS</text>
<text text-anchor="middle" x="691.5" y="-69" font-family="Helvetica,sans-Serif" font-size="10.00">_MoveBgActorFv.s</text>
</a>
</g>
</g>
<!-- Node1&#45;&gt;Node7 -->
<g id="edge7" class="edge">
<title>Node1&#45;&gt;Node7</title>
<path fill="none" stroke="midnightblue" d="M1130.49,-155.6C1047.64,-149.65 897.9,-136.01 772.5,-109 768.08,-108.05 763.56,-106.96 759.03,-105.78"/>
<polygon fill="midnightblue" stroke="midnightblue" points="759.68,-102.33 749.11,-103.07 757.84,-109.08 759.68,-102.33"/>
</g>
<!-- Node8 -->
<g id="node8" class="node">
<title>Node8</title>
<g id="a_node8"><a xlink:title=" ">
<polygon fill="white" stroke="#bfbfbf" points="781,-62 781,-103 912,-103 912,-62 781,-62"/>
<text text-anchor="start" x="789" y="-91" font-family="Helvetica,sans-Serif" font-size="10.00">asm/d/bg/d_bg_s_movebg</text>
<text text-anchor="start" x="789" y="-80" font-family="Helvetica,sans-Serif" font-size="10.00">_actor/Create__16dBgS</text>
<text text-anchor="middle" x="846.5" y="-69" font-family="Helvetica,sans-Serif" font-size="10.00">_MoveBgActorFv.s</text>
</a>
</g>
</g>
<!-- Node1&#45;&gt;Node8 -->
<g id="edge8" class="edge">
<title>Node1&#45;&gt;Node8</title>
<path fill="none" stroke="midnightblue" d="M1130.27,-150.41C1074.78,-141.8 992.13,-127.46 921.5,-109 917.97,-108.08 914.36,-107.07 910.73,-106.01"/>
<polygon fill="midnightblue" stroke="midnightblue" points="911.7,-102.64 901.11,-103.08 909.66,-109.34 911.7,-102.64"/>
</g>
<!-- Node9 -->
<g id="node9" class="node">
<title>Node9</title>
<g id="a_node9"><a xlink:title=" ">
<polygon fill="white" stroke="#bfbfbf" points="930.5,-62 930.5,-103 1076.5,-103 1076.5,-62 930.5,-62"/>
<text text-anchor="start" x="938.5" y="-91" font-family="Helvetica,sans-Serif" font-size="10.00">asm/d/bg/d_bg_s_movebg</text>
<text text-anchor="start" x="938.5" y="-80" font-family="Helvetica,sans-Serif" font-size="10.00">_actor/Execute__16dBgS</text>
<text text-anchor="middle" x="1003.5" y="-69" font-family="Helvetica,sans-Serif" font-size="10.00">_MoveBgActorFPPA3_A4_f.s</text>
</a>
</g>
</g>
<!-- Node1&#45;&gt;Node9 -->
<g id="edge9" class="edge">
<title>Node1&#45;&gt;Node9</title>
<path fill="none" stroke="midnightblue" d="M1158.21,-145.38C1131.27,-134.61 1093.55,-119.52 1062.11,-106.94"/>
<polygon fill="midnightblue" stroke="midnightblue" points="1063.15,-103.59 1052.57,-103.13 1060.55,-110.09 1063.15,-103.59"/>
</g>
<!-- Node10 -->
<g id="node10" class="node">
<title>Node10</title>
<g id="a_node10"><a xlink:title=" ">
<polygon fill="white" stroke="#bfbfbf" points="1095,-67.5 1095,-97.5 1292,-97.5 1292,-67.5 1095,-67.5"/>
<text text-anchor="start" x="1103" y="-85.5" font-family="Helvetica,sans-Serif" font-size="10.00">asm/d/bg/d_bg_s_movebg</text>
<text text-anchor="middle" x="1193.5" y="-74.5" font-family="Helvetica,sans-Serif" font-size="10.00">_actor/Draw__16dBgS_MoveBgActorFv.s</text>
</a>
</g>
</g>
<!-- Node1&#45;&gt;Node10 -->
<g id="edge10" class="edge">
<title>Node1&#45;&gt;Node10</title>
<path fill="none" stroke="midnightblue" d="M1193.5,-145.2C1193.5,-134.7 1193.5,-120.16 1193.5,-107.83"/>
<polygon fill="midnightblue" stroke="midnightblue" points="1197,-107.73 1193.5,-97.73 1190,-107.73 1197,-107.73"/>
</g>
<!-- Node11 -->
<g id="node11" class="node">
<title>Node11</title>
<g id="a_node11"><a xlink:title=" ">
<polygon fill="white" stroke="#bfbfbf" points="1310,-62 1310,-103 1441,-103 1441,-62 1310,-62"/>
<text text-anchor="start" x="1318" y="-91" font-family="Helvetica,sans-Serif" font-size="10.00">asm/d/bg/d_bg_s_movebg</text>
<text text-anchor="start" x="1318" y="-80" font-family="Helvetica,sans-Serif" font-size="10.00">_actor/Delete__16dBgS</text>
<text text-anchor="middle" x="1375.5" y="-69" font-family="Helvetica,sans-Serif" font-size="10.00">_MoveBgActorFv.s</text>
</a>
</g>
</g>
<!-- Node1&#45;&gt;Node11 -->
<g id="edge11" class="edge">
<title>Node1&#45;&gt;Node11</title>
<path fill="none" stroke="midnightblue" d="M1227.31,-145.38C1253,-134.65 1288.93,-119.65 1318.97,-107.11"/>
<polygon fill="midnightblue" stroke="midnightblue" points="1320.62,-110.21 1328.5,-103.13 1317.92,-103.75 1320.62,-110.21"/>
</g>
<!-- Node12 -->
<g id="node12" class="node">
<title>Node12</title>
<g id="a_node12"><a xlink:title=" ">
<polygon fill="white" stroke="#bfbfbf" points="1459,-62 1459,-103 1590,-103 1590,-62 1459,-62"/>
<text text-anchor="start" x="1467" y="-91" font-family="Helvetica,sans-Serif" font-size="10.00">asm/d/bg/d_bg_s_movebg</text>
<text text-anchor="start" x="1467" y="-80" font-family="Helvetica,sans-Serif" font-size="10.00">_actor/IsDelete__16dBgS</text>
<text text-anchor="middle" x="1524.5" y="-69" font-family="Helvetica,sans-Serif" font-size="10.00">_MoveBgActorFv.s</text>
</a>
</g>
</g>
<!-- Node1&#45;&gt;Node12 -->
<g id="edge12" class="edge">
<title>Node1&#45;&gt;Node12</title>
<path fill="none" stroke="midnightblue" d="M1256.64,-149.59C1309,-140.78 1385.19,-126.58 1450.5,-109 1453.88,-108.09 1457.33,-107.1 1460.81,-106.07"/>
<polygon fill="midnightblue" stroke="midnightblue" points="1462.09,-109.33 1470.61,-103.03 1460.02,-102.65 1462.09,-109.33"/>
</g>
<!-- Node13 -->
<g id="node13" class="node">
<title>Node13</title>
<g id="a_node13"><a xlink:title=" ">
<polygon fill="white" stroke="#bfbfbf" points="1608,-62 1608,-103 1739,-103 1739,-62 1608,-62"/>
<text text-anchor="start" x="1616" y="-91" font-family="Helvetica,sans-Serif" font-size="10.00">asm/d/bg/d_bg_s_movebg</text>
<text text-anchor="start" x="1616" y="-80" font-family="Helvetica,sans-Serif" font-size="10.00">_actor/ToFore__16dBgS</text>
<text text-anchor="middle" x="1673.5" y="-69" font-family="Helvetica,sans-Serif" font-size="10.00">_MoveBgActorFv.s</text>
</a>
</g>
</g>
<!-- Node1&#45;&gt;Node13 -->
<g id="edge13" class="edge">
<title>Node1&#45;&gt;Node13</title>
<path fill="none" stroke="midnightblue" d="M1256.81,-155.72C1337.29,-149.98 1480.14,-136.67 1599.5,-109 1603.34,-108.11 1607.25,-107.1 1611.18,-106"/>
<polygon fill="midnightblue" stroke="midnightblue" points="1612.34,-109.3 1620.94,-103.11 1610.35,-102.59 1612.34,-109.3"/>
</g>
<!-- Node14 -->
<g id="node14" class="node">
<title>Node14</title>
<g id="a_node14"><a xlink:title=" ">
<polygon fill="white" stroke="#bfbfbf" points="1757,-62 1757,-103 1888,-103 1888,-62 1757,-62"/>
<text text-anchor="start" x="1765" y="-91" font-family="Helvetica,sans-Serif" font-size="10.00">asm/d/bg/d_bg_s_movebg</text>
<text text-anchor="start" x="1765" y="-80" font-family="Helvetica,sans-Serif" font-size="10.00">_actor/ToBack__16dBgS</text>
<text text-anchor="middle" x="1822.5" y="-69" font-family="Helvetica,sans-Serif" font-size="10.00">_MoveBgActorFv.s</text>
</a>
</g>
</g>
<!-- Node1&#45;&gt;Node14 -->
<g id="edge14" class="edge">
<title>Node1&#45;&gt;Node14</title>
<path fill="none" stroke="midnightblue" d="M1256.66,-158.68C1360.44,-156.25 1573.02,-146.64 1748.5,-109 1752.61,-108.12 1756.81,-107.08 1761.01,-105.93"/>
<polygon fill="midnightblue" stroke="midnightblue" points="1762.17,-109.24 1770.79,-103.08 1760.21,-102.52 1762.17,-109.24"/>
</g>
<!-- Node15 -->
<g id="node15" class="node">
<title>Node15</title>
<g id="a_node15"><a xlink:title=" ">
<polygon fill="white" stroke="#bfbfbf" points="1906,-62 1906,-103 2051,-103 2051,-62 1906,-62"/>
<text text-anchor="start" x="1914" y="-91" font-family="Helvetica,sans-Serif" font-size="10.00">asm/d/bg/d_bg_s_movebg</text>
<text text-anchor="start" x="1914" y="-80" font-family="Helvetica,sans-Serif" font-size="10.00">_actor/MoveBGCreateHeap</text>
<text text-anchor="middle" x="1978.5" y="-69" font-family="Helvetica,sans-Serif" font-size="10.00">__16dBgS_MoveBgActorFv.s</text>
</a>
</g>
</g>
<!-- Node1&#45;&gt;Node15 -->
<g id="edge15" class="edge">
<title>Node1&#45;&gt;Node15</title>
<path fill="none" stroke="midnightblue" d="M1256.77,-159.88C1380.83,-159.54 1664.28,-153.44 1897.5,-109 1902.44,-108.06 1907.51,-106.91 1912.57,-105.64"/>
<polygon fill="midnightblue" stroke="midnightblue" points="1913.53,-109.01 1922.28,-103.04 1911.72,-102.24 1913.53,-109.01"/>
</g>
<!-- Node16 -->
<g id="node16" class="node">
<title>Node16</title>
<g id="a_node16"><a xlink:title=" ">
<polygon fill="white" stroke="#bfbfbf" points="2069,-67.5 2069,-97.5 2200,-97.5 2200,-67.5 2069,-67.5"/>
<text text-anchor="start" x="2077" y="-85.5" font-family="Helvetica,sans-Serif" font-size="10.00">asm/d/bg/d_bg_s_movebg</text>
<text text-anchor="middle" x="2134.5" y="-74.5" font-family="Helvetica,sans-Serif" font-size="10.00">_actor/func_800787BC.s</text>
</a>
</g>
</g>
<!-- Node1&#45;&gt;Node16 -->
<g id="edge16" class="edge">
<title>Node1&#45;&gt;Node16</title>
<path fill="none" stroke="midnightblue" d="M1256.66,-158.06C1429.31,-153.77 1906.48,-139.42 2060.5,-109 2070.4,-107.04 2080.78,-104.08 2090.53,-100.85"/>
<polygon fill="midnightblue" stroke="midnightblue" points="2091.73,-104.14 2100.03,-97.57 2089.44,-97.53 2091.73,-104.14"/>
</g>
<!-- Node17 -->
<g id="node17" class="node">
<title>Node17</title>
<g id="a_node17"><a xlink:title=" ">
<polygon fill="white" stroke="#bfbfbf" points="2218.5,-62 2218.5,-103 2376.5,-103 2376.5,-62 2218.5,-62"/>
<text text-anchor="start" x="2226.5" y="-91" font-family="Helvetica,sans-Serif" font-size="10.00">asm/d/bg/d_bg_s_movebg</text>
<text text-anchor="start" x="2226.5" y="-80" font-family="Helvetica,sans-Serif" font-size="10.00">_actor/MoveBGDelete__16dBgS</text>
<text text-anchor="middle" x="2297.5" y="-69" font-family="Helvetica,sans-Serif" font-size="10.00">_MoveBgActorFv.s</text>
</a>
</g>
</g>
<!-- Node1&#45;&gt;Node17 -->
<g id="edge17" class="edge">
<title>Node1&#45;&gt;Node17</title>
<path fill="none" stroke="midnightblue" d="M1256.52,-158.28C1448.59,-154.27 2024.76,-139.92 2209.5,-109 2215.23,-108.04 2221.11,-106.84 2226.99,-105.48"/>
<polygon fill="midnightblue" stroke="midnightblue" points="2227.98,-108.84 2236.86,-103.06 2226.31,-102.04 2227.98,-108.84"/>
</g>
<!-- Node18 -->
<g id="node18" class="node">
<title>Node18</title>
<g id="a_node18"><a xlink:title=" ">
<polygon fill="white" stroke="#bfbfbf" points="2394.5,-62 2394.5,-103 2534.5,-103 2534.5,-62 2394.5,-62"/>
<text text-anchor="start" x="2402.5" y="-91" font-family="Helvetica,sans-Serif" font-size="10.00">asm/d/bg/d_bg_s_movebg</text>
<text text-anchor="start" x="2402.5" y="-80" font-family="Helvetica,sans-Serif" font-size="10.00">_actor/MoveBGExecute_</text>
<text text-anchor="middle" x="2464.5" y="-69" font-family="Helvetica,sans-Serif" font-size="10.00">_16dBgS_MoveBgActorFv.s</text>
</a>
</g>
</g>
<!-- Node1&#45;&gt;Node18 -->
<g id="edge18" class="edge">
<title>Node1&#45;&gt;Node18</title>
<path fill="none" stroke="midnightblue" d="M1256.69,-159.07C1470.51,-157.25 2165.69,-148.38 2385.5,-109 2390.51,-108.1 2395.65,-106.97 2400.78,-105.67"/>
<polygon fill="midnightblue" stroke="midnightblue" points="2401.85,-109.01 2410.59,-103.02 2400.03,-102.25 2401.85,-109.01"/>
</g>
<!-- Node4&#45;&gt;Node3 -->
<g id="edge4" class="edge">
<title>Node4&#45;&gt;Node3</title>
<path fill="none" stroke="midnightblue" d="M164,-67.23C157.34,-56.06 148.05,-40.46 140.94,-28.52"/>
<polygon fill="midnightblue" stroke="midnightblue" points="143.92,-26.69 135.8,-19.89 137.91,-30.28 143.92,-26.69"/>
</g>
</g>
</svg>
        <g id="navigator" transform="translate(0 0)" fill="#404254">
                <rect fill="#f2f5e9" fill-opacity="0.5" stroke="#606060" stroke-width=".5" x="0" y="0" width="60" height="60"/>
                <use id="zoomplus" xlink:href="#zoomPlus" x="17" y="9" onmousedown="handleZoom(evt,'in')"/>
                <use id="zoomminus" xlink:href="#zoomMin" x="42" y="9" onmousedown="handleZoom(evt,'out')"/>
                <use id="reset" xlink:href="#resetDef" x="30" y="36" onmousedown="handleReset()"/>
                <g id="arrowUp" xlink:href="#dirArrow" transform="translate(30 24)" onmousedown="handlePan(0,-1)">
                  <use xlink:href="#rim" fill="#404040">
                        <set attributeName="fill" to="#808080" begin="arrowUp.mouseover" end="arrowUp.mouseout"/>
                  </use>
                  <path fill="none" stroke="white" stroke-width="1.5" d="M0,-3.0v7 M-2.5,-0.5L0,-3.0L2.5,-0.5"/>
                </g>
                <g id="arrowRight" xlink:href="#dirArrow" transform="rotate(90) translate(36 -43)" onmousedown="handlePan(1,0)">
                  <use xlink:href="#rim" fill="#404040">
                        <set attributeName="fill" to="#808080" begin="arrowRight.mouseover" end="arrowRight.mouseout"/>
                  </use>
                  <path fill="none" stroke="white" stroke-width="1.5" d="M0,-3.0v7 M-2.5,-0.5L0,-3.0L2.5,-0.5"/>
                </g>
                <g id="arrowDown" xlink:href="#dirArrow" transform="rotate(180) translate(-30 -48)" onmousedown="handlePan(0,1)">
                  <use xlink:href="#rim" fill="#404040">
                        <set attributeName="fill" to="#808080" begin="arrowDown.mouseover" end="arrowDown.mouseout"/>
                  </use>
                  <path fill="none" stroke="white" stroke-width="1.5" d="M0,-3.0v7 M-2.5,-0.5L0,-3.0L2.5,-0.5"/>
                </g>
                <g id="arrowLeft" xlink:href="#dirArrow" transform="rotate(270) translate(-36 17)" onmousedown="handlePan(-1,0)">
                  <use xlink:href="#rim" fill="#404040">
                        <set attributeName="fill" to="#808080" begin="arrowLeft.mouseover" end="arrowLeft.mouseout"/>
                  </use>
                  <path fill="none" stroke="white" stroke-width="1.5" d="M0,-3.0v7 M-2.5,-0.5L0,-3.0L2.5,-0.5"/>
                </g>
        </g>
        <svg viewBox="0 0 15 15" width="100%" height="30px" preserveAspectRatio="xMaxYMin meet">
         <g id="arrow_out" transform="scale(0.3 0.3)">
          <a xlink:href="d__bg__s__movebg__actor_8cpp__incl_org.svg" target="_base">
           <rect id="button" ry="5" rx="5" y="6" x="6" height="38" width="38"
                fill="#f2f5e9" fill-opacity="0.5" stroke="#606060" stroke-width="1.0"/>
           <path id="arrow"
             d="M 11.500037,31.436501 C 11.940474,20.09759 22.043105,11.32322 32.158766,21.979434 L 37.068811,17.246167 C 37.068811,17.246167 37.088388,32 37.088388,32 L 22.160133,31.978069 C 22.160133,31.978069 26.997745,27.140456 26.997745,27.140456 C 18.528582,18.264221 13.291696,25.230495 11.500037,31.436501 z"
             style="fill:#404040;"/>
          </a>
         </g>
        </svg>
</svg>
