<?xml version="1.0" encoding="UTF-8" standalone="no"?>
<!DOCTYPE svg PUBLIC "-//W3C//DTD SVG 1.1//EN"
 "http://www.w3.org/Graphics/SVG/1.1/DTD/svg11.dtd">
<!-- Generated by graphviz version 2.47.0 (20210316.2052)
 -->
<!-- Title: src/d/bg/d_bg_s_wtr_chk.cpp Pages: 1 -->
<svg width="422pt" height="162pt"
 viewBox="0.00 0.00 422.00 162.00" xmlns="http://www.w3.org/2000/svg" xmlns:xlink="http://www.w3.org/1999/xlink">
<g id="graph0" class="graph" transform="scale(1 1) rotate(0) translate(4 158)">
<title>src/d/bg/d_bg_s_wtr_chk.cpp</title>
<polygon fill="white" stroke="transparent" points="-4,4 -4,-158 418,-158 418,4 -4,4"/>
<!-- Node1 -->
<g id="node1" class="node">
<title>Node1</title>
<g id="a_node1"><a xlink:title=" ">
<polygon fill="#bfbfbf" stroke="black" points="122,-123.5 122,-153.5 227,-153.5 227,-123.5 122,-123.5"/>
<text text-anchor="start" x="130" y="-141.5" font-family="Helvetica,sans-Serif" font-size="10.00">src/d/bg/d_bg_s_wtr</text>
<text text-anchor="middle" x="174.5" y="-130.5" font-family="Helvetica,sans-Serif" font-size="10.00">_chk.cpp</text>
</a>
</g>
</g>
<!-- Node2 -->
<g id="node2" class="node">
<title>Node2</title>
<g id="a_node2"><a xlink:href="d__bg__s__wtr__chk_8h.html" target="_top" xlink:title=" ">
<polygon fill="white" stroke="black" points="0,-62 0,-81 117,-81 117,-62 0,-62"/>
<text text-anchor="middle" x="58.5" y="-69" font-family="Helvetica,sans-Serif" font-size="10.00">d/bg/d_bg_s_wtr_chk.h</text>
</a>
</g>
</g>
<!-- Node1&#45;&gt;Node2 -->
<g id="edge1" class="edge">
<title>Node1&#45;&gt;Node2</title>
<path fill="none" stroke="midnightblue" d="M149.33,-123.4C129.52,-112.29 102.08,-96.92 82.56,-85.98"/>
<polygon fill="midnightblue" stroke="midnightblue" points="84.12,-82.84 73.68,-81.01 80.69,-88.95 84.12,-82.84"/>
</g>
<!-- Node3 -->
<g id="node3" class="node">
<title>Node3</title>
<g id="a_node3"><a xlink:href="types_8h.html" target="_top" xlink:title=" ">
<polygon fill="white" stroke="black" points="61,-0.5 61,-19.5 142,-19.5 142,-0.5 61,-0.5"/>
<text text-anchor="middle" x="101.5" y="-7.5" font-family="Helvetica,sans-Serif" font-size="10.00">dolphin/types.h</text>
</a>
</g>
</g>
<!-- Node1&#45;&gt;Node3 -->
<g id="edge4" class="edge">
<title>Node1&#45;&gt;Node3</title>
<path fill="none" stroke="midnightblue" d="M166.41,-123.48C153.04,-100.31 126.36,-54.07 111.71,-28.69"/>
<polygon fill="midnightblue" stroke="midnightblue" points="114.6,-26.7 106.57,-19.79 108.54,-30.2 114.6,-26.7"/>
</g>
<!-- Node4 -->
<g id="node4" class="node">
<title>Node4</title>
<g id="a_node4"><a xlink:href="dol2asm_8h.html" target="_top" xlink:title=" ">
<polygon fill="white" stroke="black" points="174,-62 174,-81 235,-81 235,-62 174,-62"/>
<text text-anchor="middle" x="204.5" y="-69" font-family="Helvetica,sans-Serif" font-size="10.00">dol2asm.h</text>
</a>
</g>
</g>
<!-- Node1&#45;&gt;Node4 -->
<g id="edge3" class="edge">
<title>Node1&#45;&gt;Node4</title>
<path fill="none" stroke="midnightblue" d="M181.01,-123.4C185.46,-113.76 191.39,-100.91 196.18,-90.54"/>
<polygon fill="midnightblue" stroke="midnightblue" points="199.47,-91.74 200.49,-81.19 193.12,-88.81 199.47,-91.74"/>
</g>
<!-- Node5 -->
<g id="node5" class="node">
<title>Node5</title>
<g id="a_node5"><a xlink:title=" ">
<polygon fill="white" stroke="#bfbfbf" points="253,-56.5 253,-86.5 414,-86.5 414,-56.5 253,-56.5"/>
<text text-anchor="start" x="261" y="-74.5" font-family="Helvetica,sans-Serif" font-size="10.00">asm/d/bg/d_bg_s_wtr</text>
<text text-anchor="middle" x="333.5" y="-63.5" font-family="Helvetica,sans-Serif" font-size="10.00">_chk/__ct__11dBgS_WtrChkFv.s</text>
</a>
</g>
</g>
<!-- Node1&#45;&gt;Node5 -->
<g id="edge5" class="edge">
<title>Node1&#45;&gt;Node5</title>
<path fill="none" stroke="midnightblue" d="M209,-123.4C232.65,-113.73 264.22,-100.82 289.65,-90.43"/>
<polygon fill="midnightblue" stroke="midnightblue" points="291.13,-93.6 299.07,-86.58 288.49,-87.12 291.13,-93.6"/>
</g>
<!-- Node2&#45;&gt;Node3 -->
<g id="edge2" class="edge">
<title>Node2&#45;&gt;Node3</title>
<path fill="none" stroke="midnightblue" d="M64.66,-61.98C71.11,-53.05 81.4,-38.81 89.47,-27.64"/>
<polygon fill="midnightblue" stroke="midnightblue" points="92.33,-29.66 95.35,-19.51 86.66,-25.56 92.33,-29.66"/>
</g>
</g>
</svg>
