<?xml version="1.0" encoding="UTF-8" standalone="no"?>
<!DOCTYPE svg PUBLIC "-//W3C//DTD SVG 1.1//EN"
 "http://www.w3.org/Graphics/SVG/1.1/DTD/svg11.dtd">
<!-- Generated by graphviz version 2.47.0 (20210316.2052)
 -->
<!-- Title: src/d/d_cam_param.cpp Pages: 1 -->
<svg width="3178pt" height="151pt"
 viewBox="0.00 0.00 3178.00 151.00" xmlns="http://www.w3.org/2000/svg" xmlns:xlink="http://www.w3.org/1999/xlink">
<g id="graph0" class="graph" transform="scale(1 1) rotate(0) translate(4 147)">
<title>src/d/d_cam_param.cpp</title>
<polygon fill="white" stroke="transparent" points="-4,4 -4,-147 3174,-147 3174,4 -4,4"/>
<!-- Node1 -->
<g id="node1" class="node">
<title>Node1</title>
<g id="a_node1"><a xlink:title=" ">
<polygon fill="#bfbfbf" stroke="black" points="1435,-123.5 1435,-142.5 1556,-142.5 1556,-123.5 1435,-123.5"/>
<text text-anchor="middle" x="1495.5" y="-130.5" font-family="Helvetica,sans-Serif" font-size="10.00">src/d/d_cam_param.cpp</text>
</a>
</g>
</g>
<!-- Node2 -->
<g id="node2" class="node">
<title>Node2</title>
<g id="a_node2"><a xlink:href="dol2asm_8h.html" target="_top" xlink:title=" ">
<polygon fill="white" stroke="black" points="0,-62 0,-81 61,-81 61,-62 0,-62"/>
<text text-anchor="middle" x="30.5" y="-69" font-family="Helvetica,sans-Serif" font-size="10.00">dol2asm.h</text>
</a>
</g>
</g>
<!-- Node1&#45;&gt;Node2 -->
<g id="edge1" class="edge">
<title>Node1&#45;&gt;Node2</title>
<path fill="none" stroke="midnightblue" d="M1434.61,-132.33C1198.42,-133.27 342.68,-133.33 75.5,-87 71.31,-86.27 66.98,-85.25 62.73,-84.08"/>
<polygon fill="midnightblue" stroke="midnightblue" points="63.67,-80.7 53.08,-81.14 61.63,-87.4 63.67,-80.7"/>
</g>
<!-- Node3 -->
<g id="node3" class="node">
<title>Node3</title>
<g id="a_node3"><a xlink:href="types_8h.html" target="_top" xlink:title=" ">
<polygon fill="white" stroke="black" points="86,-0.5 86,-19.5 167,-19.5 167,-0.5 86,-0.5"/>
<text text-anchor="middle" x="126.5" y="-7.5" font-family="Helvetica,sans-Serif" font-size="10.00">dolphin/types.h</text>
</a>
</g>
</g>
<!-- Node1&#45;&gt;Node3 -->
<g id="edge2" class="edge">
<title>Node1&#45;&gt;Node3</title>
<path fill="none" stroke="midnightblue" d="M1434.63,-132.35C1173,-133.59 155.21,-135.25 108.5,-87 93.3,-71.3 104.37,-45.25 114.66,-28.1"/>
<polygon fill="midnightblue" stroke="midnightblue" points="117.65,-29.91 120.12,-19.61 111.77,-26.13 117.65,-29.91"/>
</g>
<!-- Node4 -->
<g id="node4" class="node">
<title>Node4</title>
<g id="a_node4"><a xlink:href="d__cam__param_8h.html" target="_top" xlink:title=" ">
<polygon fill="white" stroke="black" points="117.5,-62 117.5,-81 211.5,-81 211.5,-62 117.5,-62"/>
<text text-anchor="middle" x="164.5" y="-69" font-family="Helvetica,sans-Serif" font-size="10.00">d/d_cam_param.h</text>
</a>
</g>
</g>
<!-- Node1&#45;&gt;Node4 -->
<g id="edge3" class="edge">
<title>Node1&#45;&gt;Node4</title>
<path fill="none" stroke="midnightblue" d="M1434.98,-131.61C1215.14,-129.93 459.28,-121.7 220.5,-87 214.58,-86.14 208.38,-84.89 202.36,-83.49"/>
<polygon fill="midnightblue" stroke="midnightblue" points="203.01,-80.05 192.46,-81.02 201.31,-86.84 203.01,-80.05"/>
</g>
<!-- Node5 -->
<g id="node5" class="node">
<title>Node5</title>
<g id="a_node5"><a xlink:title=" ">
<polygon fill="white" stroke="#bfbfbf" points="229.5,-56.5 229.5,-86.5 377.5,-86.5 377.5,-56.5 229.5,-56.5"/>
<text text-anchor="start" x="237.5" y="-74.5" font-family="Helvetica,sans-Serif" font-size="10.00">asm/d/d_cam_param/rational</text>
<text text-anchor="middle" x="303.5" y="-63.5" font-family="Helvetica,sans-Serif" font-size="10.00">BezierRatio__8dCamMathFff.s</text>
</a>
</g>
</g>
<!-- Node1&#45;&gt;Node5 -->
<g id="edge5" class="edge">
<title>Node1&#45;&gt;Node5</title>
<path fill="none" stroke="midnightblue" d="M1434.94,-132.31C1269.09,-132.55 793.45,-129.3 387.8,-86.91"/>
<polygon fill="midnightblue" stroke="midnightblue" points="387.94,-83.4 377.63,-85.84 387.21,-90.37 387.94,-83.4"/>
</g>
<!-- Node6 -->
<g id="node6" class="node">
<title>Node6</title>
<g id="a_node6"><a xlink:title=" ">
<polygon fill="white" stroke="#bfbfbf" points="396,-56.5 396,-86.5 551,-86.5 551,-56.5 396,-56.5"/>
<text text-anchor="start" x="404" y="-74.5" font-family="Helvetica,sans-Serif" font-size="10.00">asm/d/d_cam_param/zoomFovy</text>
<text text-anchor="middle" x="473.5" y="-63.5" font-family="Helvetica,sans-Serif" font-size="10.00">__8dCamMathFff.s</text>
</a>
</g>
</g>
<!-- Node1&#45;&gt;Node6 -->
<g id="edge6" class="edge">
<title>Node1&#45;&gt;Node6</title>
<path fill="none" stroke="midnightblue" d="M1434.87,-131.54C1287.24,-129.88 897.24,-122.33 561.64,-87.02"/>
<polygon fill="midnightblue" stroke="midnightblue" points="561.54,-83.49 551.23,-85.92 560.8,-90.45 561.54,-83.49"/>
</g>
<!-- Node7 -->
<g id="node7" class="node">
<title>Node7</title>
<g id="a_node7"><a xlink:title=" ">
<polygon fill="white" stroke="#bfbfbf" points="569,-56.5 569,-86.5 680,-86.5 680,-56.5 569,-56.5"/>
<text text-anchor="start" x="577" y="-74.5" font-family="Helvetica,sans-Serif" font-size="10.00">asm/d/d_cam_param/</text>
<text text-anchor="middle" x="624.5" y="-63.5" font-family="Helvetica,sans-Serif" font-size="10.00">__dt__7cDegreeFv.s</text>
</a>
</g>
</g>
<!-- Node1&#45;&gt;Node7 -->
<g id="edge7" class="edge">
<title>Node1&#45;&gt;Node7</title>
<path fill="none" stroke="midnightblue" d="M1434.76,-131.99C1301.56,-131.25 973.73,-125.43 690.13,-86.91"/>
<polygon fill="midnightblue" stroke="midnightblue" points="690.44,-83.42 680.06,-85.52 689.49,-90.35 690.44,-83.42"/>
</g>
<!-- Node8 -->
<g id="node8" class="node">
<title>Node8</title>
<g id="a_node8"><a xlink:title=" ">
<polygon fill="white" stroke="#bfbfbf" points="698,-56.5 698,-86.5 873,-86.5 873,-56.5 698,-56.5"/>
<text text-anchor="start" x="706" y="-74.5" font-family="Helvetica,sans-Serif" font-size="10.00">asm/d/d_cam_param/xyzRotate</text>
<text text-anchor="middle" x="785.5" y="-63.5" font-family="Helvetica,sans-Serif" font-size="10.00">X__8dCamMathFR4cXyz7cSAngle.s</text>
</a>
</g>
</g>
<!-- Node1&#45;&gt;Node8 -->
<g id="edge8" class="edge">
<title>Node1&#45;&gt;Node8</title>
<path fill="none" stroke="midnightblue" d="M1434.89,-129.06C1326.47,-123.48 1091.98,-109.9 883.45,-87.05"/>
<polygon fill="midnightblue" stroke="midnightblue" points="883.55,-83.54 873.23,-85.92 882.79,-90.49 883.55,-83.54"/>
</g>
<!-- Node9 -->
<g id="node9" class="node">
<title>Node9</title>
<g id="a_node9"><a xlink:title=" ">
<polygon fill="white" stroke="#bfbfbf" points="891,-56.5 891,-86.5 1066,-86.5 1066,-56.5 891,-56.5"/>
<text text-anchor="start" x="899" y="-74.5" font-family="Helvetica,sans-Serif" font-size="10.00">asm/d/d_cam_param/xyzRotate</text>
<text text-anchor="middle" x="978.5" y="-63.5" font-family="Helvetica,sans-Serif" font-size="10.00">Y__8dCamMathFR4cXyz7cSAngle.s</text>
</a>
</g>
</g>
<!-- Node1&#45;&gt;Node9 -->
<g id="edge9" class="edge">
<title>Node1&#45;&gt;Node9</title>
<path fill="none" stroke="midnightblue" d="M1434.9,-126.31C1355.17,-118.64 1210.44,-104.1 1076.3,-87.07"/>
<polygon fill="midnightblue" stroke="midnightblue" points="1076.61,-83.58 1066.25,-85.78 1075.72,-90.52 1076.61,-83.58"/>
</g>
<!-- Node10 -->
<g id="node10" class="node">
<title>Node10</title>
<g id="a_node10"><a xlink:title=" ">
<polygon fill="white" stroke="#bfbfbf" points="1084,-56.5 1084,-86.5 1281,-86.5 1281,-56.5 1084,-56.5"/>
<text text-anchor="start" x="1092" y="-74.5" font-family="Helvetica,sans-Serif" font-size="10.00">asm/d/d_cam_param/xyzHorizontal</text>
<text text-anchor="middle" x="1182.5" y="-63.5" font-family="Helvetica,sans-Serif" font-size="10.00">Distance__8dCamMathFR4cXyzR4cXyz.s</text>
</a>
</g>
</g>
<!-- Node1&#45;&gt;Node10 -->
<g id="edge10" class="edge">
<title>Node1&#45;&gt;Node10</title>
<path fill="none" stroke="midnightblue" d="M1450.65,-123.48C1402.72,-114.36 1325.61,-99.71 1266.36,-88.44"/>
<polygon fill="midnightblue" stroke="midnightblue" points="1266.75,-84.95 1256.27,-86.52 1265.44,-91.83 1266.75,-84.95"/>
</g>
<!-- Node11 -->
<g id="node11" class="node">
<title>Node11</title>
<g id="a_node11"><a xlink:title=" ">
<polygon fill="white" stroke="#bfbfbf" points="1299,-56.5 1299,-86.5 1412,-86.5 1412,-56.5 1299,-56.5"/>
<text text-anchor="start" x="1307" y="-74.5" font-family="Helvetica,sans-Serif" font-size="10.00">asm/d/d_cam_param/</text>
<text text-anchor="middle" x="1355.5" y="-63.5" font-family="Helvetica,sans-Serif" font-size="10.00">__ct__9dCstick_cFv.s</text>
</a>
</g>
</g>
<!-- Node1&#45;&gt;Node11 -->
<g id="edge11" class="edge">
<title>Node1&#45;&gt;Node11</title>
<path fill="none" stroke="midnightblue" d="M1475.44,-123.48C1455.33,-114.93 1423.74,-101.5 1398.03,-90.57"/>
<polygon fill="midnightblue" stroke="midnightblue" points="1399.07,-87.21 1388.5,-86.52 1396.33,-93.66 1399.07,-87.21"/>
</g>
<!-- Node12 -->
<g id="node12" class="node">
<title>Node12</title>
<g id="a_node12"><a xlink:title=" ">
<polygon fill="white" stroke="#bfbfbf" points="1430,-56.5 1430,-86.5 1561,-86.5 1561,-56.5 1430,-56.5"/>
<text text-anchor="start" x="1438" y="-74.5" font-family="Helvetica,sans-Serif" font-size="10.00">asm/d/d_cam_param/Shift</text>
<text text-anchor="middle" x="1495.5" y="-63.5" font-family="Helvetica,sans-Serif" font-size="10.00">__9dCstick_cFUl.s</text>
</a>
</g>
</g>
<!-- Node1&#45;&gt;Node12 -->
<g id="edge12" class="edge">
<title>Node1&#45;&gt;Node12</title>
<path fill="none" stroke="midnightblue" d="M1495.5,-123.48C1495.5,-116.47 1495.5,-106.19 1495.5,-96.7"/>
<polygon fill="midnightblue" stroke="midnightblue" points="1499,-96.52 1495.5,-86.52 1492,-96.52 1499,-96.52"/>
</g>
<!-- Node13 -->
<g id="node13" class="node">
<title>Node13</title>
<g id="a_node13"><a xlink:title=" ">
<polygon fill="white" stroke="#bfbfbf" points="1579,-56.5 1579,-86.5 1722,-86.5 1722,-56.5 1579,-56.5"/>
<text text-anchor="start" x="1587" y="-74.5" font-family="Helvetica,sans-Serif" font-size="10.00">asm/d/d_cam_param/</text>
<text text-anchor="middle" x="1650.5" y="-63.5" font-family="Helvetica,sans-Serif" font-size="10.00">__ct__11dCamBGChk_cFv.s</text>
</a>
</g>
</g>
<!-- Node1&#45;&gt;Node13 -->
<g id="edge13" class="edge">
<title>Node1&#45;&gt;Node13</title>
<path fill="none" stroke="midnightblue" d="M1517.71,-123.48C1540.27,-114.81 1575.88,-101.15 1604.54,-90.14"/>
<polygon fill="midnightblue" stroke="midnightblue" points="1605.89,-93.37 1613.97,-86.52 1603.38,-86.84 1605.89,-93.37"/>
</g>
<!-- Node14 -->
<g id="node14" class="node">
<title>Node14</title>
<g id="a_node14"><a xlink:title=" ">
<polygon fill="white" stroke="#bfbfbf" points="1740,-56.5 1740,-86.5 1877,-86.5 1877,-56.5 1740,-56.5"/>
<text text-anchor="start" x="1748" y="-74.5" font-family="Helvetica,sans-Serif" font-size="10.00">asm/d/d_cam_param/</text>
<text text-anchor="middle" x="1808.5" y="-63.5" font-family="Helvetica,sans-Serif" font-size="10.00">__ct__11dCamParam_cFl.s</text>
</a>
</g>
</g>
<!-- Node1&#45;&gt;Node14 -->
<g id="edge14" class="edge">
<title>Node1&#45;&gt;Node14</title>
<path fill="none" stroke="midnightblue" d="M1540.35,-123.48C1589.64,-114.1 1669.78,-98.87 1729.63,-87.49"/>
<polygon fill="midnightblue" stroke="midnightblue" points="1730.63,-90.86 1739.8,-85.56 1729.33,-83.99 1730.63,-90.86"/>
</g>
<!-- Node15 -->
<g id="node15" class="node">
<title>Node15</title>
<g id="a_node15"><a xlink:title=" ">
<polygon fill="white" stroke="#bfbfbf" points="1895.5,-56.5 1895.5,-86.5 2035.5,-86.5 2035.5,-56.5 1895.5,-56.5"/>
<text text-anchor="start" x="1903.5" y="-74.5" font-family="Helvetica,sans-Serif" font-size="10.00">asm/d/d_cam_param/</text>
<text text-anchor="middle" x="1965.5" y="-63.5" font-family="Helvetica,sans-Serif" font-size="10.00">__dt__11dCamParam_cFv.s</text>
</a>
</g>
</g>
<!-- Node1&#45;&gt;Node15 -->
<g id="edge15" class="edge">
<title>Node1&#45;&gt;Node15</title>
<path fill="none" stroke="midnightblue" d="M1556.28,-126.28C1631.28,-118.93 1762.92,-105.12 1885.4,-87.1"/>
<polygon fill="midnightblue" stroke="midnightblue" points="1885.95,-90.56 1895.33,-85.63 1884.92,-83.64 1885.95,-90.56"/>
</g>
<!-- Node16 -->
<g id="node16" class="node">
<title>Node16</title>
<g id="a_node16"><a xlink:title=" ">
<polygon fill="white" stroke="#bfbfbf" points="2053.5,-56.5 2053.5,-86.5 2197.5,-86.5 2197.5,-56.5 2053.5,-56.5"/>
<text text-anchor="start" x="2061.5" y="-74.5" font-family="Helvetica,sans-Serif" font-size="10.00">asm/d/d_cam_param/Change</text>
<text text-anchor="middle" x="2125.5" y="-63.5" font-family="Helvetica,sans-Serif" font-size="10.00">__11dCamParam_cFl.s</text>
</a>
</g>
</g>
<!-- Node1&#45;&gt;Node16 -->
<g id="edge16" class="edge">
<title>Node1&#45;&gt;Node16</title>
<path fill="none" stroke="midnightblue" d="M1556.22,-128.92C1655.83,-123.45 1860.32,-110.47 2043.07,-87.11"/>
<polygon fill="midnightblue" stroke="midnightblue" points="2043.66,-90.56 2053.13,-85.81 2042.76,-83.62 2043.66,-90.56"/>
</g>
<!-- Node17 -->
<g id="node17" class="node">
<title>Node17</title>
<g id="a_node17"><a xlink:title=" ">
<polygon fill="white" stroke="#bfbfbf" points="2216,-56.5 2216,-86.5 2363,-86.5 2363,-56.5 2216,-56.5"/>
<text text-anchor="start" x="2224" y="-74.5" font-family="Helvetica,sans-Serif" font-size="10.00">asm/d/d_cam_param/Search</text>
<text text-anchor="middle" x="2289.5" y="-63.5" font-family="Helvetica,sans-Serif" font-size="10.00">Style__11dCamParam_cFUl.s</text>
</a>
</g>
</g>
<!-- Node1&#45;&gt;Node17 -->
<g id="edge17" class="edge">
<title>Node1&#45;&gt;Node17</title>
<path fill="none" stroke="midnightblue" d="M1556.1,-130.41C1677.41,-126.73 1958.85,-115.76 2205.56,-87.01"/>
<polygon fill="midnightblue" stroke="midnightblue" points="2206.27,-90.45 2215.8,-85.81 2205.45,-83.5 2206.27,-90.45"/>
</g>
<!-- Node18 -->
<g id="node18" class="node">
<title>Node18</title>
<g id="a_node18"><a xlink:title=" ">
<polygon fill="white" stroke="#bfbfbf" points="2381,-56.5 2381,-86.5 2518,-86.5 2518,-56.5 2381,-56.5"/>
<text text-anchor="start" x="2389" y="-74.5" font-family="Helvetica,sans-Serif" font-size="10.00">asm/d/d_cam_param/</text>
<text text-anchor="middle" x="2449.5" y="-63.5" font-family="Helvetica,sans-Serif" font-size="10.00">__ct__11dCamSetup_cFv.s</text>
</a>
</g>
</g>
<!-- Node1&#45;&gt;Node18 -->
<g id="edge18" class="edge">
<title>Node1&#45;&gt;Node18</title>
<path fill="none" stroke="midnightblue" d="M1556.08,-131.7C1697.29,-130.39 2059.38,-123.55 2370.6,-87.12"/>
<polygon fill="midnightblue" stroke="midnightblue" points="2371.2,-90.58 2380.72,-85.93 2370.38,-83.63 2371.2,-90.58"/>
</g>
<!-- Node19 -->
<g id="node19" class="node">
<title>Node19</title>
<g id="a_node19"><a xlink:title=" ">
<polygon fill="white" stroke="#bfbfbf" points="2536,-56.5 2536,-86.5 2673,-86.5 2673,-56.5 2536,-56.5"/>
<text text-anchor="start" x="2544" y="-74.5" font-family="Helvetica,sans-Serif" font-size="10.00">asm/d/d_cam_param/</text>
<text text-anchor="middle" x="2604.5" y="-63.5" font-family="Helvetica,sans-Serif" font-size="10.00">__dt__11dCamSetup_cFv.s</text>
</a>
</g>
</g>
<!-- Node1&#45;&gt;Node19 -->
<g id="edge19" class="edge">
<title>Node1&#45;&gt;Node19</title>
<path fill="none" stroke="midnightblue" d="M1556.23,-132.37C1714.46,-132.67 2152.49,-129.4 2525.54,-87.12"/>
<polygon fill="midnightblue" stroke="midnightblue" points="2526.19,-90.57 2535.73,-85.95 2525.39,-83.61 2526.19,-90.57"/>
</g>
<!-- Node20 -->
<g id="node20" class="node">
<title>Node20</title>
<g id="a_node20"><a xlink:title=" ">
<polygon fill="white" stroke="#bfbfbf" points="2691.5,-56.5 2691.5,-86.5 2865.5,-86.5 2865.5,-56.5 2691.5,-56.5"/>
<text text-anchor="start" x="2699.5" y="-74.5" font-family="Helvetica,sans-Serif" font-size="10.00">asm/d/d_cam_param/CheckLatitude</text>
<text text-anchor="middle" x="2778.5" y="-63.5" font-family="Helvetica,sans-Serif" font-size="10.00">Range__11dCamSetup_cFPs.s</text>
</a>
</g>
</g>
<!-- Node1&#45;&gt;Node20 -->
<g id="edge20" class="edge">
<title>Node1&#45;&gt;Node20</title>
<path fill="none" stroke="midnightblue" d="M1556.19,-132.09C1729.97,-131.86 2244.5,-127.57 2681.45,-87.02"/>
<polygon fill="midnightblue" stroke="midnightblue" points="2681.8,-90.5 2691.43,-86.09 2681.15,-83.53 2681.8,-90.5"/>
</g>
<!-- Node21 -->
<g id="node21" class="node">
<title>Node21</title>
<g id="a_node21"><a xlink:title=" ">
<polygon fill="white" stroke="#bfbfbf" points="2884,-56.5 2884,-86.5 3039,-86.5 3039,-56.5 2884,-56.5"/>
<text text-anchor="start" x="2892" y="-74.5" font-family="Helvetica,sans-Serif" font-size="10.00">asm/d/d_cam_param/Player</text>
<text text-anchor="middle" x="2961.5" y="-63.5" font-family="Helvetica,sans-Serif" font-size="10.00">HideDist__11dCamSetup_cFv.s</text>
</a>
</g>
</g>
<!-- Node1&#45;&gt;Node21 -->
<g id="edge21" class="edge">
<title>Node1&#45;&gt;Node21</title>
<path fill="none" stroke="midnightblue" d="M1556.05,-131.09C1784.22,-127.51 2592.96,-113.29 2873.62,-86.96"/>
<polygon fill="midnightblue" stroke="midnightblue" points="2874.16,-90.42 2883.78,-85.98 2873.49,-83.46 2874.16,-90.42"/>
</g>
<!-- Node22 -->
<g id="node22" class="node">
<title>Node22</title>
<g id="a_node22"><a xlink:title=" ">
<polygon fill="white" stroke="#bfbfbf" points="3057,-56.5 3057,-86.5 3170,-86.5 3170,-56.5 3057,-56.5"/>
<text text-anchor="start" x="3065" y="-74.5" font-family="Helvetica,sans-Serif" font-size="10.00">asm/d/d_cam_param/</text>
<text text-anchor="middle" x="3113.5" y="-63.5" font-family="Helvetica,sans-Serif" font-size="10.00">__dt__9dCstick_cFv.s</text>
</a>
</g>
</g>
<!-- Node1&#45;&gt;Node22 -->
<g id="edge22" class="edge">
<title>Node1&#45;&gt;Node22</title>
<path fill="none" stroke="midnightblue" d="M1556.36,-131.79C1803.3,-130.68 2731.83,-124.16 3046.85,-87.02"/>
<polygon fill="midnightblue" stroke="midnightblue" points="3047.39,-90.48 3056.89,-85.79 3046.54,-83.53 3047.39,-90.48"/>
</g>
<!-- Node4&#45;&gt;Node3 -->
<g id="edge4" class="edge">
<title>Node4&#45;&gt;Node3</title>
<path fill="none" stroke="midnightblue" d="M159.06,-61.98C153.41,-53.14 144.44,-39.09 137.34,-27.98"/>
<polygon fill="midnightblue" stroke="midnightblue" points="140.27,-26.05 131.93,-19.51 134.37,-29.82 140.27,-26.05"/>
</g>
</g>
</svg>
