<?xml version="1.0" encoding="UTF-8" standalone="no"?>
<!DOCTYPE svg PUBLIC "-//W3C//DTD SVG 1.1//EN"
 "http://www.w3.org/Graphics/SVG/1.1/DTD/svg11.dtd">
<!-- Generated by graphviz version 2.47.0 (20210316.2052)
 -->
<!-- Title: src/d/cc/d_cc_uty.cpp Pages: 1 -->
<!--zoomable 162 -->
<svg id="main" version="1.1" xmlns="http://www.w3.org/2000/svg" xmlns:xlink="http://www.w3.org/1999/xlink" xml:space="preserve" onload="init(evt)">
<style type="text/css"><![CDATA[
.edge:hover path { stroke: red; }
.edge:hover polygon { stroke: red; fill: red; }
]]></style>
<script type="text/javascript"><![CDATA[
var edges = document.getElementsByTagName('g');
if (edges && edges.length) {
  for (var i=0;i<edges.length;i++) {
    if (edges[i].id.substr(0,4)=='edge') {
      edges[i].setAttribute('class','edge');
    }
  }
}
]]></script>
        <defs>
                <circle id="rim" cx="0" cy="0" r="7"/>
                <circle id="rim2" cx="0" cy="0" r="3.5"/>
                <g id="zoomPlus">
                        <use xlink:href="#rim" fill="#404040">
                                <set attributeName="fill" to="#808080" begin="zoomplus.mouseover" end="zoomplus.mouseout"/>
                        </use>
                        <path d="M-4,0h8M0,-4v8" fill="none" stroke="white" stroke-width="1.5" pointer-events="none"/>
                </g>
                <g id="zoomMin">
                        <use xlink:href="#rim" fill="#404040">
                                <set attributeName="fill" to="#808080" begin="zoomminus.mouseover" end="zoomminus.mouseout"/>
                        </use>
                        <path d="M-4,0h8" fill="none" stroke="white" stroke-width="1.5" pointer-events="none"/>
                </g>
                <g id="dirArrow">
                        <path fill="none" stroke="white" stroke-width="1.5" d="M0,-3.0v7 M-2.5,-0.5L0,-3.0L2.5,-0.5"/>
                </g>
               <g id="resetDef">
                       <use xlink:href="#rim2" fill="#404040">
                               <set attributeName="fill" to="#808080" begin="reset.mouseover" end="reset.mouseout"/>
                       </use>
               </g>
        </defs>

<script type="text/javascript">
var viewWidth = 1589;
var viewHeight = 162;
var sectionId = 'dynsection-0';
</script>
<script xlink:href="svgpan.js"/>
<svg id="graph" class="graph">
<g id="viewport">
<title>src/d/cc/d_cc_uty.cpp</title>
<polygon fill="white" stroke="transparent" points="-4,4 -4,-158 1585,-158 1585,4 -4,4"/>
<!-- Node1 -->
<g id="node1" class="node">
<title>Node1</title>
<g id="a_node1"><a xlink:title=" ">
<polygon fill="#bfbfbf" stroke="black" points="566.5,-134.5 566.5,-153.5 678.5,-153.5 678.5,-134.5 566.5,-134.5"/>
<text text-anchor="middle" x="622.5" y="-141.5" font-family="Helvetica,sans-Serif" font-size="10.00">src/d/cc/d_cc_uty.cpp</text>
</a>
</g>
</g>
<!-- Node2 -->
<g id="node2" class="node">
<title>Node2</title>
<g id="a_node2"><a xlink:href="dol2asm_8h.html" target="_top" xlink:title=" ">
<polygon fill="white" stroke="black" points="0,-67.5 0,-86.5 61,-86.5 61,-67.5 0,-67.5"/>
<text text-anchor="middle" x="30.5" y="-74.5" font-family="Helvetica,sans-Serif" font-size="10.00">dol2asm.h</text>
</a>
</g>
</g>
<!-- Node1&#45;&gt;Node2 -->
<g id="edge1" class="edge">
<title>Node1&#45;&gt;Node2</title>
<path fill="none" stroke="midnightblue" d="M566.43,-140.77C446.24,-135.61 167.24,-121.44 75.5,-98 68.87,-96.31 61.98,-93.71 55.65,-90.95"/>
<polygon fill="midnightblue" stroke="midnightblue" points="56.82,-87.64 46.27,-86.58 53.86,-93.98 56.82,-87.64"/>
</g>
<!-- Node3 -->
<g id="node3" class="node">
<title>Node3</title>
<g id="a_node3"><a xlink:href="types_8h.html" target="_top" xlink:title=" ">
<polygon fill="white" stroke="black" points="84,-0.5 84,-19.5 165,-19.5 165,-0.5 84,-0.5"/>
<text text-anchor="middle" x="124.5" y="-7.5" font-family="Helvetica,sans-Serif" font-size="10.00">dolphin/types.h</text>
</a>
</g>
</g>
<!-- Node1&#45;&gt;Node3 -->
<g id="edge2" class="edge">
<title>Node1&#45;&gt;Node3</title>
<path fill="none" stroke="midnightblue" d="M566.31,-142.26C439.53,-140 139.89,-131.17 109.5,-98 92.23,-79.15 103.84,-47.92 114.02,-28.46"/>
<polygon fill="midnightblue" stroke="midnightblue" points="117.08,-30.15 118.91,-19.71 110.97,-26.73 117.08,-30.15"/>
</g>
<!-- Node4 -->
<g id="node4" class="node">
<title>Node4</title>
<g id="a_node4"><a xlink:href="d__cc__uty_8h.html" target="_top" xlink:title=" ">
<polygon fill="white" stroke="black" points="118,-67.5 118,-86.5 203,-86.5 203,-67.5 118,-67.5"/>
<text text-anchor="middle" x="160.5" y="-74.5" font-family="Helvetica,sans-Serif" font-size="10.00">d/cc/d_cc_uty.h</text>
</a>
</g>
</g>
<!-- Node1&#45;&gt;Node4 -->
<g id="edge3" class="edge">
<title>Node1&#45;&gt;Node4</title>
<path fill="none" stroke="midnightblue" d="M566.34,-141.4C486.62,-138.11 336.54,-128.12 212.5,-98 204.66,-96.1 196.4,-93.31 188.84,-90.41"/>
<polygon fill="midnightblue" stroke="midnightblue" points="189.97,-87.1 179.38,-86.62 187.36,-93.59 189.97,-87.1"/>
</g>
<!-- Node5 -->
<g id="node5" class="node">
<title>Node5</title>
<g id="a_node5"><a xlink:title=" ">
<polygon fill="white" stroke="#bfbfbf" points="221.5,-62 221.5,-92 331.5,-92 331.5,-62 221.5,-62"/>
<text text-anchor="start" x="229.5" y="-80" font-family="Helvetica,sans-Serif" font-size="10.00">asm/d/cc/d_cc_uty/pl</text>
<text text-anchor="middle" x="276.5" y="-69" font-family="Helvetica,sans-Serif" font-size="10.00">_cut_LRC__Fi.s</text>
</a>
</g>
</g>
<!-- Node1&#45;&gt;Node5 -->
<g id="edge5" class="edge">
<title>Node1&#45;&gt;Node5</title>
<path fill="none" stroke="midnightblue" d="M566.34,-136.35C509.29,-129.06 418.61,-115.95 341.5,-98 337.42,-97.05 333.23,-95.98 329.03,-94.84"/>
<polygon fill="midnightblue" stroke="midnightblue" points="329.85,-91.44 319.27,-92.09 327.95,-98.17 329.85,-91.44"/>
</g>
<!-- Node6 -->
<g id="node6" class="node">
<title>Node6</title>
<g id="a_node6"><a xlink:title=" ">
<polygon fill="white" stroke="#bfbfbf" points="350,-62 350,-92 463,-92 463,-62 350,-62"/>
<text text-anchor="start" x="358" y="-80" font-family="Helvetica,sans-Serif" font-size="10.00">asm/d/cc/d_cc_uty/cc</text>
<text text-anchor="middle" x="406.5" y="-69" font-family="Helvetica,sans-Serif" font-size="10.00">_pl_cut_bit_get__Fv.s</text>
</a>
</g>
</g>
<!-- Node1&#45;&gt;Node6 -->
<g id="edge6" class="edge">
<title>Node1&#45;&gt;Node6</title>
<path fill="none" stroke="midnightblue" d="M594.02,-134.48C563.84,-125.45 514.8,-110.75 472.5,-98 469.19,-97 465.79,-95.97 462.35,-94.94"/>
<polygon fill="midnightblue" stroke="midnightblue" points="463.24,-91.55 452.65,-92 461.21,-98.25 463.24,-91.55"/>
</g>
<!-- Node7 -->
<g id="node7" class="node">
<title>Node7</title>
<g id="a_node7"><a xlink:title=" ">
<polygon fill="white" stroke="#bfbfbf" points="481.5,-62 481.5,-92 615.5,-92 615.5,-62 481.5,-62"/>
<text text-anchor="start" x="489.5" y="-80" font-family="Helvetica,sans-Serif" font-size="10.00">asm/d/cc/d_cc_uty/getMap</text>
<text text-anchor="middle" x="548.5" y="-69" font-family="Helvetica,sans-Serif" font-size="10.00">Info__FSc.s</text>
</a>
</g>
</g>
<!-- Node1&#45;&gt;Node7 -->
<g id="edge7" class="edge">
<title>Node1&#45;&gt;Node7</title>
<path fill="none" stroke="midnightblue" d="M612.52,-134.23C602.23,-125.2 585.81,-110.77 572.18,-98.8"/>
<polygon fill="midnightblue" stroke="midnightblue" points="574.36,-96.06 564.54,-92.09 569.74,-101.32 574.36,-96.06"/>
</g>
<!-- Node8 -->
<g id="node8" class="node">
<title>Node8</title>
<g id="a_node8"><a xlink:title=" ">
<polygon fill="white" stroke="#bfbfbf" points="633.5,-62 633.5,-92 761.5,-92 761.5,-62 633.5,-62"/>
<text text-anchor="start" x="641.5" y="-80" font-family="Helvetica,sans-Serif" font-size="10.00">asm/d/cc/d_cc_uty/getHit</text>
<text text-anchor="middle" x="697.5" y="-69" font-family="Helvetica,sans-Serif" font-size="10.00">Id__FP8cCcD_Obji.s</text>
</a>
</g>
</g>
<!-- Node1&#45;&gt;Node8 -->
<g id="edge8" class="edge">
<title>Node1&#45;&gt;Node8</title>
<path fill="none" stroke="midnightblue" d="M632.61,-134.23C643.04,-125.2 659.68,-110.77 673.5,-98.8"/>
<polygon fill="midnightblue" stroke="midnightblue" points="675.98,-101.28 681.24,-92.09 671.39,-95.99 675.98,-101.28"/>
</g>
<!-- Node9 -->
<g id="node9" class="node">
<title>Node9</title>
<g id="a_node9"><a xlink:title=" ">
<polygon fill="white" stroke="#bfbfbf" points="779.5,-56.5 779.5,-97.5 941.5,-97.5 941.5,-56.5 779.5,-56.5"/>
<text text-anchor="start" x="787.5" y="-85.5" font-family="Helvetica,sans-Serif" font-size="10.00">asm/d/cc/d_cc_uty/def</text>
<text text-anchor="start" x="787.5" y="-74.5" font-family="Helvetica,sans-Serif" font-size="10.00">_se_set__FP10Z2CreatureP8cCc</text>
<text text-anchor="middle" x="860.5" y="-63.5" font-family="Helvetica,sans-Serif" font-size="10.00">D_ObjUlP10fopAc_ac_c.s</text>
</a>
</g>
</g>
<!-- Node1&#45;&gt;Node9 -->
<g id="edge9" class="edge">
<title>Node1&#45;&gt;Node9</title>
<path fill="none" stroke="midnightblue" d="M654.1,-134.37C685.78,-125.72 735.86,-112.04 778.76,-100.32"/>
<polygon fill="midnightblue" stroke="midnightblue" points="779.92,-103.64 788.64,-97.63 778.07,-96.88 779.92,-103.64"/>
</g>
<!-- Node10 -->
<g id="node10" class="node">
<title>Node10</title>
<g id="a_node10"><a xlink:title=" ">
<polygon fill="white" stroke="#bfbfbf" points="960,-56.5 960,-97.5 1085,-97.5 1085,-56.5 960,-56.5"/>
<text text-anchor="start" x="968" y="-85.5" font-family="Helvetica,sans-Serif" font-size="10.00">asm/d/cc/d_cc_uty/at</text>
<text text-anchor="start" x="968" y="-74.5" font-family="Helvetica,sans-Serif" font-size="10.00">_power_get__FP11dCcU</text>
<text text-anchor="middle" x="1022.5" y="-63.5" font-family="Helvetica,sans-Serif" font-size="10.00">_AtInfo.s</text>
</a>
</g>
</g>
<!-- Node1&#45;&gt;Node10 -->
<g id="edge10" class="edge">
<title>Node1&#45;&gt;Node10</title>
<path fill="none" stroke="midnightblue" d="M678.6,-137.63C742.11,-131.03 848.78,-118.38 949.73,-98.01"/>
<polygon fill="midnightblue" stroke="midnightblue" points="950.7,-101.39 959.79,-95.95 949.29,-94.53 950.7,-101.39"/>
</g>
<!-- Node11 -->
<g id="node11" class="node">
<title>Node11</title>
<g id="a_node11"><a xlink:title=" ">
<polygon fill="white" stroke="#bfbfbf" points="1103.5,-56.5 1103.5,-97.5 1241.5,-97.5 1241.5,-56.5 1103.5,-56.5"/>
<text text-anchor="start" x="1111.5" y="-85.5" font-family="Helvetica,sans-Serif" font-size="10.00">asm/d/cc/d_cc_uty/at</text>
<text text-anchor="start" x="1111.5" y="-74.5" font-family="Helvetica,sans-Serif" font-size="10.00">_power_check__FP11dCcU</text>
<text text-anchor="middle" x="1172.5" y="-63.5" font-family="Helvetica,sans-Serif" font-size="10.00">_AtInfo.s</text>
</a>
</g>
</g>
<!-- Node1&#45;&gt;Node11 -->
<g id="edge11" class="edge">
<title>Node1&#45;&gt;Node11</title>
<path fill="none" stroke="midnightblue" d="M678.83,-140.47C765.8,-135.95 938.1,-124.51 1093.11,-98.1"/>
<polygon fill="midnightblue" stroke="midnightblue" points="1094.04,-101.49 1103.3,-96.34 1092.85,-94.6 1094.04,-101.49"/>
</g>
<!-- Node12 -->
<g id="node12" class="node">
<title>Node12</title>
<g id="a_node12"><a xlink:title=" ">
<polygon fill="white" stroke="#bfbfbf" points="1259.5,-56.5 1259.5,-97.5 1383.5,-97.5 1383.5,-56.5 1259.5,-56.5"/>
<text text-anchor="start" x="1267.5" y="-85.5" font-family="Helvetica,sans-Serif" font-size="10.00">asm/d/cc/d_cc_uty/cc</text>
<text text-anchor="start" x="1267.5" y="-74.5" font-family="Helvetica,sans-Serif" font-size="10.00">_at_check__FP10fopAc</text>
<text text-anchor="middle" x="1321.5" y="-63.5" font-family="Helvetica,sans-Serif" font-size="10.00">_ac_cP11dCcU_AtInfo.s</text>
</a>
</g>
</g>
<!-- Node1&#45;&gt;Node12 -->
<g id="edge12" class="edge">
<title>Node1&#45;&gt;Node12</title>
<path fill="none" stroke="midnightblue" d="M678.83,-142.78C787.65,-141.53 1034.27,-134.68 1249.43,-98"/>
<polygon fill="midnightblue" stroke="midnightblue" points="1250.07,-101.44 1259.33,-96.28 1248.88,-94.54 1250.07,-101.44"/>
</g>
<!-- Node13 -->
<g id="node13" class="node">
<title>Node13</title>
<g id="a_node13"><a xlink:title=" ">
<polygon fill="white" stroke="#bfbfbf" points="1402,-62 1402,-92 1581,-92 1581,-62 1402,-62"/>
<text text-anchor="start" x="1410" y="-80" font-family="Helvetica,sans-Serif" font-size="10.00">asm/d/cc/d_cc_uty/checkCut</text>
<text text-anchor="middle" x="1491.5" y="-69" font-family="Helvetica,sans-Serif" font-size="10.00">JumpCancelTurn__9daPy_py_cCFv.s</text>
</a>
</g>
</g>
<!-- Node1&#45;&gt;Node13 -->
<g id="edge13" class="edge">
<title>Node1&#45;&gt;Node13</title>
<path fill="none" stroke="midnightblue" d="M678.79,-142.42C806.33,-140.52 1126.9,-132.41 1392.5,-98 1401.09,-96.89 1410.05,-95.46 1418.92,-93.88"/>
<polygon fill="midnightblue" stroke="midnightblue" points="1419.68,-97.3 1428.88,-92.04 1418.41,-90.41 1419.68,-97.3"/>
</g>
<!-- Node4&#45;&gt;Node3 -->
<g id="edge4" class="edge">
<title>Node4&#45;&gt;Node3</title>
<path fill="none" stroke="midnightblue" d="M155.64,-67.23C150.19,-57.39 141.2,-41.16 134.28,-28.66"/>
<polygon fill="midnightblue" stroke="midnightblue" points="137.19,-26.68 129.28,-19.63 131.06,-30.07 137.19,-26.68"/>
</g>
</g>
</svg>
        <g id="navigator" transform="translate(0 0)" fill="#404254">
                <rect fill="#f2f5e9" fill-opacity="0.5" stroke="#606060" stroke-width=".5" x="0" y="0" width="60" height="60"/>
                <use id="zoomplus" xlink:href="#zoomPlus" x="17" y="9" onmousedown="handleZoom(evt,'in')"/>
                <use id="zoomminus" xlink:href="#zoomMin" x="42" y="9" onmousedown="handleZoom(evt,'out')"/>
                <use id="reset" xlink:href="#resetDef" x="30" y="36" onmousedown="handleReset()"/>
                <g id="arrowUp" xlink:href="#dirArrow" transform="translate(30 24)" onmousedown="handlePan(0,-1)">
                  <use xlink:href="#rim" fill="#404040">
                        <set attributeName="fill" to="#808080" begin="arrowUp.mouseover" end="arrowUp.mouseout"/>
                  </use>
                  <path fill="none" stroke="white" stroke-width="1.5" d="M0,-3.0v7 M-2.5,-0.5L0,-3.0L2.5,-0.5"/>
                </g>
                <g id="arrowRight" xlink:href="#dirArrow" transform="rotate(90) translate(36 -43)" onmousedown="handlePan(1,0)">
                  <use xlink:href="#rim" fill="#404040">
                        <set attributeName="fill" to="#808080" begin="arrowRight.mouseover" end="arrowRight.mouseout"/>
                  </use>
                  <path fill="none" stroke="white" stroke-width="1.5" d="M0,-3.0v7 M-2.5,-0.5L0,-3.0L2.5,-0.5"/>
                </g>
                <g id="arrowDown" xlink:href="#dirArrow" transform="rotate(180) translate(-30 -48)" onmousedown="handlePan(0,1)">
                  <use xlink:href="#rim" fill="#404040">
                        <set attributeName="fill" to="#808080" begin="arrowDown.mouseover" end="arrowDown.mouseout"/>
                  </use>
                  <path fill="none" stroke="white" stroke-width="1.5" d="M0,-3.0v7 M-2.5,-0.5L0,-3.0L2.5,-0.5"/>
                </g>
                <g id="arrowLeft" xlink:href="#dirArrow" transform="rotate(270) translate(-36 17)" onmousedown="handlePan(-1,0)">
                  <use xlink:href="#rim" fill="#404040">
                        <set attributeName="fill" to="#808080" begin="arrowLeft.mouseover" end="arrowLeft.mouseout"/>
                  </use>
                  <path fill="none" stroke="white" stroke-width="1.5" d="M0,-3.0v7 M-2.5,-0.5L0,-3.0L2.5,-0.5"/>
                </g>
        </g>
        <svg viewBox="0 0 15 15" width="100%" height="30px" preserveAspectRatio="xMaxYMin meet">
         <g id="arrow_out" transform="scale(0.3 0.3)">
          <a xlink:href="d__cc__uty_8cpp__incl_org.svg" target="_base">
           <rect id="button" ry="5" rx="5" y="6" x="6" height="38" width="38"
                fill="#f2f5e9" fill-opacity="0.5" stroke="#606060" stroke-width="1.0"/>
           <path id="arrow"
             d="M 11.500037,31.436501 C 11.940474,20.09759 22.043105,11.32322 32.158766,21.979434 L 37.068811,17.246167 C 37.068811,17.246167 37.088388,32 37.088388,32 L 22.160133,31.978069 C 22.160133,31.978069 26.997745,27.140456 26.997745,27.140456 C 18.528582,18.264221 13.291696,25.230495 11.500037,31.436501 z"
             style="fill:#404040;"/>
          </a>
         </g>
        </svg>
</svg>
