<?xml version="1.0" encoding="UTF-8" standalone="no"?>
<!DOCTYPE svg PUBLIC "-//W3C//DTD SVG 1.1//EN"
 "http://www.w3.org/Graphics/SVG/1.1/DTD/svg11.dtd">
<!-- Generated by graphviz version 2.47.0 (20210316.2052)
 -->
<!-- Title: src/d/d_cam_param.cpp Pages: 1 -->
<!--zoomable 151 -->
<svg id="main" version="1.1" xmlns="http://www.w3.org/2000/svg" xmlns:xlink="http://www.w3.org/1999/xlink" xml:space="preserve" onload="init(evt)">
<style type="text/css"><![CDATA[
.edge:hover path { stroke: red; }
.edge:hover polygon { stroke: red; fill: red; }
]]></style>
<script type="text/javascript"><![CDATA[
var edges = document.getElementsByTagName('g');
if (edges && edges.length) {
  for (var i=0;i<edges.length;i++) {
    if (edges[i].id.substr(0,4)=='edge') {
      edges[i].setAttribute('class','edge');
    }
  }
}
]]></script>
        <defs>
                <circle id="rim" cx="0" cy="0" r="7"/>
                <circle id="rim2" cx="0" cy="0" r="3.5"/>
                <g id="zoomPlus">
                        <use xlink:href="#rim" fill="#404040">
                                <set attributeName="fill" to="#808080" begin="zoomplus.mouseover" end="zoomplus.mouseout"/>
                        </use>
                        <path d="M-4,0h8M0,-4v8" fill="none" stroke="white" stroke-width="1.5" pointer-events="none"/>
                </g>
                <g id="zoomMin">
                        <use xlink:href="#rim" fill="#404040">
                                <set attributeName="fill" to="#808080" begin="zoomminus.mouseover" end="zoomminus.mouseout"/>
                        </use>
                        <path d="M-4,0h8" fill="none" stroke="white" stroke-width="1.5" pointer-events="none"/>
                </g>
                <g id="dirArrow">
                        <path fill="none" stroke="white" stroke-width="1.5" d="M0,-3.0v7 M-2.5,-0.5L0,-3.0L2.5,-0.5"/>
                </g>
               <g id="resetDef">
                       <use xlink:href="#rim2" fill="#404040">
                               <set attributeName="fill" to="#808080" begin="reset.mouseover" end="reset.mouseout"/>
                       </use>
               </g>
        </defs>

<script type="text/javascript">
var viewWidth = 3029;
var viewHeight = 151;
var sectionId = 'dynsection-0';
</script>
<script xlink:href="svgpan.js"/>
<svg id="graph" class="graph">
<g id="viewport">
<title>src/d/d_cam_param.cpp</title>
<polygon fill="white" stroke="transparent" points="-4,4 -4,-147 3025,-147 3025,4 -4,4"/>
<!-- Node1 -->
<g id="node1" class="node">
<title>Node1</title>
<g id="a_node1"><a xlink:title=" ">
<polygon fill="#bfbfbf" stroke="black" points="1368,-123.5 1368,-142.5 1489,-142.5 1489,-123.5 1368,-123.5"/>
<text text-anchor="middle" x="1428.5" y="-130.5" font-family="Helvetica,sans-Serif" font-size="10.00">src/d/d_cam_param.cpp</text>
</a>
</g>
</g>
<!-- Node2 -->
<g id="node2" class="node">
<title>Node2</title>
<g id="a_node2"><a xlink:href="dol2asm_8h.html" target="_top" xlink:title=" ">
<polygon fill="white" stroke="black" points="0,-62 0,-81 61,-81 61,-62 0,-62"/>
<text text-anchor="middle" x="30.5" y="-69" font-family="Helvetica,sans-Serif" font-size="10.00">dol2asm.h</text>
</a>
</g>
</g>
<!-- Node1&#45;&gt;Node2 -->
<g id="edge1" class="edge">
<title>Node1&#45;&gt;Node2</title>
<path fill="none" stroke="midnightblue" d="M1367.77,-132.22C1138.95,-132.7 329.03,-131.17 75.5,-87 71.32,-86.27 66.98,-85.24 62.74,-84.07"/>
<polygon fill="midnightblue" stroke="midnightblue" points="63.67,-80.7 53.08,-81.13 61.63,-87.39 63.67,-80.7"/>
</g>
<!-- Node3 -->
<g id="node3" class="node">
<title>Node3</title>
<g id="a_node3"><a xlink:href="types_8h.html" target="_top" xlink:title=" ">
<polygon fill="white" stroke="black" points="86,-0.5 86,-19.5 167,-19.5 167,-0.5 86,-0.5"/>
<text text-anchor="middle" x="126.5" y="-7.5" font-family="Helvetica,sans-Serif" font-size="10.00">dolphin/types.h</text>
</a>
</g>
</g>
<!-- Node1&#45;&gt;Node3 -->
<g id="edge2" class="edge">
<title>Node1&#45;&gt;Node3</title>
<path fill="none" stroke="midnightblue" d="M1367.6,-132.25C1113.99,-132.99 152.75,-132.78 108.5,-87 93.31,-71.29 104.38,-45.24 114.67,-28.1"/>
<polygon fill="midnightblue" stroke="midnightblue" points="117.66,-29.91 120.13,-19.61 111.77,-26.12 117.66,-29.91"/>
</g>
<!-- Node4 -->
<g id="node4" class="node">
<title>Node4</title>
<g id="a_node4"><a xlink:href="d__cam__param_8h.html" target="_top" xlink:title=" ">
<polygon fill="white" stroke="black" points="117.5,-62 117.5,-81 211.5,-81 211.5,-62 117.5,-62"/>
<text text-anchor="middle" x="164.5" y="-69" font-family="Helvetica,sans-Serif" font-size="10.00">d/d_cam_param.h</text>
</a>
</g>
</g>
<!-- Node1&#45;&gt;Node4 -->
<g id="edge3" class="edge">
<title>Node1&#45;&gt;Node4</title>
<path fill="none" stroke="midnightblue" d="M1367.89,-131.47C1155.48,-129.36 445.55,-119.93 220.5,-87 214.58,-86.13 208.38,-84.89 202.36,-83.48"/>
<polygon fill="midnightblue" stroke="midnightblue" points="203.01,-80.03 192.46,-81 201.31,-86.83 203.01,-80.03"/>
</g>
<!-- Node5 -->
<g id="node5" class="node">
<title>Node5</title>
<g id="a_node5"><a xlink:title=" ">
<polygon fill="white" stroke="#bfbfbf" points="229.5,-56.5 229.5,-86.5 377.5,-86.5 377.5,-56.5 229.5,-56.5"/>
<text text-anchor="start" x="237.5" y="-74.5" font-family="Helvetica,sans-Serif" font-size="10.00">asm/d/d_cam_param/rational</text>
<text text-anchor="middle" x="303.5" y="-63.5" font-family="Helvetica,sans-Serif" font-size="10.00">BezierRatio__8dCamMathFff.s</text>
</a>
</g>
</g>
<!-- Node1&#45;&gt;Node5 -->
<g id="edge5" class="edge">
<title>Node1&#45;&gt;Node5</title>
<path fill="none" stroke="midnightblue" d="M1367.87,-132.08C1208.8,-131.71 766.33,-126.96 387.69,-86.9"/>
<polygon fill="midnightblue" stroke="midnightblue" points="387.95,-83.41 377.63,-85.83 387.2,-90.37 387.95,-83.41"/>
</g>
<!-- Node6 -->
<g id="node6" class="node">
<title>Node6</title>
<g id="a_node6"><a xlink:title=" ">
<polygon fill="white" stroke="#bfbfbf" points="396,-56.5 396,-86.5 551,-86.5 551,-56.5 396,-56.5"/>
<text text-anchor="start" x="404" y="-74.5" font-family="Helvetica,sans-Serif" font-size="10.00">asm/d/d_cam_param/zoomFovy</text>
<text text-anchor="middle" x="473.5" y="-63.5" font-family="Helvetica,sans-Serif" font-size="10.00">__8dCamMathFff.s</text>
</a>
</g>
</g>
<!-- Node1&#45;&gt;Node6 -->
<g id="edge6" class="edge">
<title>Node1&#45;&gt;Node6</title>
<path fill="none" stroke="midnightblue" d="M1367.8,-131.22C1227.58,-128.9 870.18,-120.07 561.27,-86.99"/>
<polygon fill="midnightblue" stroke="midnightblue" points="561.55,-83.5 551.23,-85.9 560.79,-90.46 561.55,-83.5"/>
</g>
<!-- Node7 -->
<g id="node7" class="node">
<title>Node7</title>
<g id="a_node7"><a xlink:title=" ">
<polygon fill="white" stroke="#bfbfbf" points="569,-56.5 569,-86.5 680,-86.5 680,-56.5 569,-56.5"/>
<text text-anchor="start" x="577" y="-74.5" font-family="Helvetica,sans-Serif" font-size="10.00">asm/d/d_cam_param/</text>
<text text-anchor="middle" x="624.5" y="-63.5" font-family="Helvetica,sans-Serif" font-size="10.00">__dt__7cDegreeFv.s</text>
</a>
</g>
</g>
<!-- Node1&#45;&gt;Node7 -->
<g id="edge7" class="edge">
<title>Node1&#45;&gt;Node7</title>
<path fill="none" stroke="midnightblue" d="M1367.83,-131.56C1242.77,-129.93 947.23,-122.48 689.97,-86.89"/>
<polygon fill="midnightblue" stroke="midnightblue" points="690.45,-83.42 680.06,-85.5 689.48,-90.36 690.45,-83.42"/>
</g>
<!-- Node8 -->
<g id="node8" class="node">
<title>Node8</title>
<g id="a_node8"><a xlink:title=" ">
<polygon fill="white" stroke="#bfbfbf" points="698,-56.5 698,-86.5 873,-86.5 873,-56.5 698,-56.5"/>
<text text-anchor="start" x="706" y="-74.5" font-family="Helvetica,sans-Serif" font-size="10.00">asm/d/d_cam_param/xyzRotate</text>
<text text-anchor="middle" x="785.5" y="-63.5" font-family="Helvetica,sans-Serif" font-size="10.00">X__8dCamMathFR4cXyz7cSAngle.s</text>
</a>
</g>
</g>
<!-- Node1&#45;&gt;Node8 -->
<g id="edge8" class="edge">
<title>Node1&#45;&gt;Node8</title>
<path fill="none" stroke="midnightblue" d="M1367.77,-128.31C1268.66,-122 1065.74,-107.88 883.28,-87.04"/>
<polygon fill="midnightblue" stroke="midnightblue" points="883.57,-83.55 873.23,-85.88 882.77,-90.5 883.57,-83.55"/>
</g>
<!-- Node9 -->
<g id="node9" class="node">
<title>Node9</title>
<g id="a_node9"><a xlink:title=" ">
<polygon fill="white" stroke="#bfbfbf" points="891,-56.5 891,-86.5 1066,-86.5 1066,-56.5 891,-56.5"/>
<text text-anchor="start" x="899" y="-74.5" font-family="Helvetica,sans-Serif" font-size="10.00">asm/d/d_cam_param/xyzRotate</text>
<text text-anchor="middle" x="978.5" y="-63.5" font-family="Helvetica,sans-Serif" font-size="10.00">Y__8dCamMathFR4cXyz7cSAngle.s</text>
</a>
</g>
</g>
<!-- Node1&#45;&gt;Node9 -->
<g id="edge9" class="edge">
<title>Node1&#45;&gt;Node9</title>
<path fill="none" stroke="midnightblue" d="M1367.86,-124.67C1299.62,-116.34 1185.19,-102.09 1076.43,-87.11"/>
<polygon fill="midnightblue" stroke="midnightblue" points="1076.64,-83.61 1066.26,-85.71 1075.68,-90.54 1076.64,-83.61"/>
</g>
<!-- Node10 -->
<g id="node10" class="node">
<title>Node10</title>
<g id="a_node10"><a xlink:title=" ">
<polygon fill="white" stroke="#bfbfbf" points="1084,-56.5 1084,-86.5 1281,-86.5 1281,-56.5 1084,-56.5"/>
<text text-anchor="start" x="1092" y="-74.5" font-family="Helvetica,sans-Serif" font-size="10.00">asm/d/d_cam_param/xyzHorizontal</text>
<text text-anchor="middle" x="1182.5" y="-63.5" font-family="Helvetica,sans-Serif" font-size="10.00">Distance__8dCamMathFR4cXyzR4cXyz.s</text>
</a>
</g>
</g>
<!-- Node1&#45;&gt;Node10 -->
<g id="edge10" class="edge">
<title>Node1&#45;&gt;Node10</title>
<path fill="none" stroke="midnightblue" d="M1393.25,-123.48C1356.12,-114.49 1296.73,-100.13 1250.44,-88.93"/>
<polygon fill="midnightblue" stroke="midnightblue" points="1251.02,-85.47 1240.48,-86.52 1249.37,-92.28 1251.02,-85.47"/>
</g>
<!-- Node11 -->
<g id="node11" class="node">
<title>Node11</title>
<g id="a_node11"><a xlink:title=" ">
<polygon fill="white" stroke="#bfbfbf" points="1299,-56.5 1299,-86.5 1412,-86.5 1412,-56.5 1299,-56.5"/>
<text text-anchor="start" x="1307" y="-74.5" font-family="Helvetica,sans-Serif" font-size="10.00">asm/d/d_cam_param/</text>
<text text-anchor="middle" x="1355.5" y="-63.5" font-family="Helvetica,sans-Serif" font-size="10.00">__ct__9dCstick_cFv.s</text>
</a>
</g>
</g>
<!-- Node1&#45;&gt;Node11 -->
<g id="edge11" class="edge">
<title>Node1&#45;&gt;Node11</title>
<path fill="none" stroke="midnightblue" d="M1418.04,-123.48C1408.34,-115.57 1393.51,-103.48 1380.73,-93.07"/>
<polygon fill="midnightblue" stroke="midnightblue" points="1382.67,-90.13 1372.7,-86.52 1378.24,-95.55 1382.67,-90.13"/>
</g>
<!-- Node12 -->
<g id="node12" class="node">
<title>Node12</title>
<g id="a_node12"><a xlink:title=" ">
<polygon fill="white" stroke="#bfbfbf" points="1430,-56.5 1430,-86.5 1573,-86.5 1573,-56.5 1430,-56.5"/>
<text text-anchor="start" x="1438" y="-74.5" font-family="Helvetica,sans-Serif" font-size="10.00">asm/d/d_cam_param/</text>
<text text-anchor="middle" x="1501.5" y="-63.5" font-family="Helvetica,sans-Serif" font-size="10.00">__ct__11dCamBGChk_cFv.s</text>
</a>
</g>
</g>
<!-- Node1&#45;&gt;Node12 -->
<g id="edge12" class="edge">
<title>Node1&#45;&gt;Node12</title>
<path fill="none" stroke="midnightblue" d="M1438.96,-123.48C1448.66,-115.57 1463.49,-103.48 1476.27,-93.07"/>
<polygon fill="midnightblue" stroke="midnightblue" points="1478.76,-95.55 1484.3,-86.52 1474.33,-90.13 1478.76,-95.55"/>
</g>
<!-- Node13 -->
<g id="node13" class="node">
<title>Node13</title>
<g id="a_node13"><a xlink:title=" ">
<polygon fill="white" stroke="#bfbfbf" points="1591,-56.5 1591,-86.5 1728,-86.5 1728,-56.5 1591,-56.5"/>
<text text-anchor="start" x="1599" y="-74.5" font-family="Helvetica,sans-Serif" font-size="10.00">asm/d/d_cam_param/</text>
<text text-anchor="middle" x="1659.5" y="-63.5" font-family="Helvetica,sans-Serif" font-size="10.00">__ct__11dCamParam_cFl.s</text>
</a>
</g>
</g>
<!-- Node1&#45;&gt;Node13 -->
<g id="edge13" class="edge">
<title>Node1&#45;&gt;Node13</title>
<path fill="none" stroke="midnightblue" d="M1461.6,-123.48C1496.32,-114.53 1551.77,-100.25 1595.15,-89.07"/>
<polygon fill="midnightblue" stroke="midnightblue" points="1596.25,-92.41 1605.06,-86.52 1594.5,-85.63 1596.25,-92.41"/>
</g>
<!-- Node14 -->
<g id="node14" class="node">
<title>Node14</title>
<g id="a_node14"><a xlink:title=" ">
<polygon fill="white" stroke="#bfbfbf" points="1746.5,-56.5 1746.5,-86.5 1886.5,-86.5 1886.5,-56.5 1746.5,-56.5"/>
<text text-anchor="start" x="1754.5" y="-74.5" font-family="Helvetica,sans-Serif" font-size="10.00">asm/d/d_cam_param/</text>
<text text-anchor="middle" x="1816.5" y="-63.5" font-family="Helvetica,sans-Serif" font-size="10.00">__dt__11dCamParam_cFv.s</text>
</a>
</g>
</g>
<!-- Node1&#45;&gt;Node14 -->
<g id="edge14" class="edge">
<title>Node1&#45;&gt;Node14</title>
<path fill="none" stroke="midnightblue" d="M1489.29,-123.82C1549.48,-115.57 1644.54,-102.13 1736.3,-87.16"/>
<polygon fill="midnightblue" stroke="midnightblue" points="1737.01,-90.59 1746.31,-85.52 1735.88,-83.69 1737.01,-90.59"/>
</g>
<!-- Node15 -->
<g id="node15" class="node">
<title>Node15</title>
<g id="a_node15"><a xlink:title=" ">
<polygon fill="white" stroke="#bfbfbf" points="1904.5,-56.5 1904.5,-86.5 2048.5,-86.5 2048.5,-56.5 1904.5,-56.5"/>
<text text-anchor="start" x="1912.5" y="-74.5" font-family="Helvetica,sans-Serif" font-size="10.00">asm/d/d_cam_param/Change</text>
<text text-anchor="middle" x="1976.5" y="-63.5" font-family="Helvetica,sans-Serif" font-size="10.00">__11dCamParam_cFl.s</text>
</a>
</g>
</g>
<!-- Node1&#45;&gt;Node15 -->
<g id="edge15" class="edge">
<title>Node1&#45;&gt;Node15</title>
<path fill="none" stroke="midnightblue" d="M1489.13,-127.74C1576.46,-121.24 1742.91,-107.57 1894.18,-87.11"/>
<polygon fill="midnightblue" stroke="midnightblue" points="1894.69,-90.58 1904.12,-85.76 1893.74,-83.64 1894.69,-90.58"/>
</g>
<!-- Node16 -->
<g id="node16" class="node">
<title>Node16</title>
<g id="a_node16"><a xlink:title=" ">
<polygon fill="white" stroke="#bfbfbf" points="2067,-56.5 2067,-86.5 2214,-86.5 2214,-56.5 2067,-56.5"/>
<text text-anchor="start" x="2075" y="-74.5" font-family="Helvetica,sans-Serif" font-size="10.00">asm/d/d_cam_param/Search</text>
<text text-anchor="middle" x="2140.5" y="-63.5" font-family="Helvetica,sans-Serif" font-size="10.00">Style__11dCamParam_cFUl.s</text>
</a>
</g>
</g>
<!-- Node1&#45;&gt;Node16 -->
<g id="edge16" class="edge">
<title>Node1&#45;&gt;Node16</title>
<path fill="none" stroke="midnightblue" d="M1489.42,-129.7C1600.21,-125.07 1842.23,-112.88 2056.61,-87.02"/>
<polygon fill="midnightblue" stroke="midnightblue" points="2057.29,-90.46 2066.79,-85.78 2056.44,-83.51 2057.29,-90.46"/>
</g>
<!-- Node17 -->
<g id="node17" class="node">
<title>Node17</title>
<g id="a_node17"><a xlink:title=" ">
<polygon fill="white" stroke="#bfbfbf" points="2232,-56.5 2232,-86.5 2369,-86.5 2369,-56.5 2232,-56.5"/>
<text text-anchor="start" x="2240" y="-74.5" font-family="Helvetica,sans-Serif" font-size="10.00">asm/d/d_cam_param/</text>
<text text-anchor="middle" x="2300.5" y="-63.5" font-family="Helvetica,sans-Serif" font-size="10.00">__ct__11dCamSetup_cFv.s</text>
</a>
</g>
</g>
<!-- Node1&#45;&gt;Node17 -->
<g id="edge17" class="edge">
<title>Node1&#45;&gt;Node17</title>
<path fill="none" stroke="midnightblue" d="M1489.07,-131.24C1620.71,-129.03 1942.78,-120.47 2221.41,-87.16"/>
<polygon fill="midnightblue" stroke="midnightblue" points="2222.21,-90.58 2231.72,-85.91 2221.37,-83.63 2222.21,-90.58"/>
</g>
<!-- Node18 -->
<g id="node18" class="node">
<title>Node18</title>
<g id="a_node18"><a xlink:title=" ">
<polygon fill="white" stroke="#bfbfbf" points="2387,-56.5 2387,-86.5 2524,-86.5 2524,-56.5 2387,-56.5"/>
<text text-anchor="start" x="2395" y="-74.5" font-family="Helvetica,sans-Serif" font-size="10.00">asm/d/d_cam_param/</text>
<text text-anchor="middle" x="2455.5" y="-63.5" font-family="Helvetica,sans-Serif" font-size="10.00">__dt__11dCamSetup_cFv.s</text>
</a>
</g>
</g>
<!-- Node1&#45;&gt;Node18 -->
<g id="edge18" class="edge">
<title>Node1&#45;&gt;Node18</title>
<path fill="none" stroke="midnightblue" d="M1489.03,-132.04C1638.36,-131.51 2036.29,-126.31 2376.67,-87.11"/>
<polygon fill="midnightblue" stroke="midnightblue" points="2377.2,-90.57 2386.73,-85.94 2376.39,-83.62 2377.2,-90.57"/>
</g>
<!-- Node19 -->
<g id="node19" class="node">
<title>Node19</title>
<g id="a_node19"><a xlink:title=" ">
<polygon fill="white" stroke="#bfbfbf" points="2542.5,-56.5 2542.5,-86.5 2716.5,-86.5 2716.5,-56.5 2542.5,-56.5"/>
<text text-anchor="start" x="2550.5" y="-74.5" font-family="Helvetica,sans-Serif" font-size="10.00">asm/d/d_cam_param/CheckLatitude</text>
<text text-anchor="middle" x="2629.5" y="-63.5" font-family="Helvetica,sans-Serif" font-size="10.00">Range__11dCamSetup_cFPs.s</text>
</a>
</g>
</g>
<!-- Node1&#45;&gt;Node19 -->
<g id="edge19" class="edge">
<title>Node1&#45;&gt;Node19</title>
<path fill="none" stroke="midnightblue" d="M1489.15,-131.85C1654.72,-130.95 2128.48,-125.06 2532.3,-87.04"/>
<polygon fill="midnightblue" stroke="midnightblue" points="2532.81,-90.5 2542.43,-86.08 2532.14,-83.54 2532.81,-90.5"/>
</g>
<!-- Node20 -->
<g id="node20" class="node">
<title>Node20</title>
<g id="a_node20"><a xlink:title=" ">
<polygon fill="white" stroke="#bfbfbf" points="2735,-56.5 2735,-86.5 2890,-86.5 2890,-56.5 2735,-56.5"/>
<text text-anchor="start" x="2743" y="-74.5" font-family="Helvetica,sans-Serif" font-size="10.00">asm/d/d_cam_param/Player</text>
<text text-anchor="middle" x="2812.5" y="-63.5" font-family="Helvetica,sans-Serif" font-size="10.00">HideDist__11dCamSetup_cFv.s</text>
</a>
</g>
</g>
<!-- Node1&#45;&gt;Node20 -->
<g id="edge20" class="edge">
<title>Node1&#45;&gt;Node20</title>
<path fill="none" stroke="midnightblue" d="M1489.21,-130.95C1708.61,-126.98 2460.8,-111.92 2724.48,-86.97"/>
<polygon fill="midnightblue" stroke="midnightblue" points="2725.17,-90.42 2734.78,-85.97 2724.49,-83.46 2725.17,-90.42"/>
</g>
<!-- Node21 -->
<g id="node21" class="node">
<title>Node21</title>
<g id="a_node21"><a xlink:title=" ">
<polygon fill="white" stroke="#bfbfbf" points="2908,-56.5 2908,-86.5 3021,-86.5 3021,-56.5 2908,-56.5"/>
<text text-anchor="start" x="2916" y="-74.5" font-family="Helvetica,sans-Serif" font-size="10.00">asm/d/d_cam_param/</text>
<text text-anchor="middle" x="2964.5" y="-63.5" font-family="Helvetica,sans-Serif" font-size="10.00">__dt__9dCstick_cFv.s</text>
</a>
</g>
</g>
<!-- Node1&#45;&gt;Node21 -->
<g id="edge21" class="edge">
<title>Node1&#45;&gt;Node21</title>
<path fill="none" stroke="midnightblue" d="M1489.39,-131.67C1727.84,-130.15 2599.25,-122.32 2897.52,-87.05"/>
<polygon fill="midnightblue" stroke="midnightblue" points="2898.39,-90.48 2907.89,-85.79 2897.54,-83.53 2898.39,-90.48"/>
</g>
<!-- Node4&#45;&gt;Node3 -->
<g id="edge4" class="edge">
<title>Node4&#45;&gt;Node3</title>
<path fill="none" stroke="midnightblue" d="M159.06,-61.98C153.41,-53.14 144.44,-39.09 137.34,-27.98"/>
<polygon fill="midnightblue" stroke="midnightblue" points="140.27,-26.05 131.93,-19.51 134.37,-29.82 140.27,-26.05"/>
</g>
</g>
</svg>
        <g id="navigator" transform="translate(0 0)" fill="#404254">
                <rect fill="#f2f5e9" fill-opacity="0.5" stroke="#606060" stroke-width=".5" x="0" y="0" width="60" height="60"/>
                <use id="zoomplus" xlink:href="#zoomPlus" x="17" y="9" onmousedown="handleZoom(evt,'in')"/>
                <use id="zoomminus" xlink:href="#zoomMin" x="42" y="9" onmousedown="handleZoom(evt,'out')"/>
                <use id="reset" xlink:href="#resetDef" x="30" y="36" onmousedown="handleReset()"/>
                <g id="arrowUp" xlink:href="#dirArrow" transform="translate(30 24)" onmousedown="handlePan(0,-1)">
                  <use xlink:href="#rim" fill="#404040">
                        <set attributeName="fill" to="#808080" begin="arrowUp.mouseover" end="arrowUp.mouseout"/>
                  </use>
                  <path fill="none" stroke="white" stroke-width="1.5" d="M0,-3.0v7 M-2.5,-0.5L0,-3.0L2.5,-0.5"/>
                </g>
                <g id="arrowRight" xlink:href="#dirArrow" transform="rotate(90) translate(36 -43)" onmousedown="handlePan(1,0)">
                  <use xlink:href="#rim" fill="#404040">
                        <set attributeName="fill" to="#808080" begin="arrowRight.mouseover" end="arrowRight.mouseout"/>
                  </use>
                  <path fill="none" stroke="white" stroke-width="1.5" d="M0,-3.0v7 M-2.5,-0.5L0,-3.0L2.5,-0.5"/>
                </g>
                <g id="arrowDown" xlink:href="#dirArrow" transform="rotate(180) translate(-30 -48)" onmousedown="handlePan(0,1)">
                  <use xlink:href="#rim" fill="#404040">
                        <set attributeName="fill" to="#808080" begin="arrowDown.mouseover" end="arrowDown.mouseout"/>
                  </use>
                  <path fill="none" stroke="white" stroke-width="1.5" d="M0,-3.0v7 M-2.5,-0.5L0,-3.0L2.5,-0.5"/>
                </g>
                <g id="arrowLeft" xlink:href="#dirArrow" transform="rotate(270) translate(-36 17)" onmousedown="handlePan(-1,0)">
                  <use xlink:href="#rim" fill="#404040">
                        <set attributeName="fill" to="#808080" begin="arrowLeft.mouseover" end="arrowLeft.mouseout"/>
                  </use>
                  <path fill="none" stroke="white" stroke-width="1.5" d="M0,-3.0v7 M-2.5,-0.5L0,-3.0L2.5,-0.5"/>
                </g>
        </g>
        <svg viewBox="0 0 15 15" width="100%" height="30px" preserveAspectRatio="xMaxYMin meet">
         <g id="arrow_out" transform="scale(0.3 0.3)">
          <a xlink:href="d__cam__param_8cpp__incl_org.svg" target="_base">
           <rect id="button" ry="5" rx="5" y="6" x="6" height="38" width="38"
                fill="#f2f5e9" fill-opacity="0.5" stroke="#606060" stroke-width="1.0"/>
           <path id="arrow"
             d="M 11.500037,31.436501 C 11.940474,20.09759 22.043105,11.32322 32.158766,21.979434 L 37.068811,17.246167 C 37.068811,17.246167 37.088388,32 37.088388,32 L 22.160133,31.978069 C 22.160133,31.978069 26.997745,27.140456 26.997745,27.140456 C 18.528582,18.264221 13.291696,25.230495 11.500037,31.436501 z"
             style="fill:#404040;"/>
          </a>
         </g>
        </svg>
</svg>
