<?xml version="1.0" encoding="UTF-8" standalone="no"?>
<!DOCTYPE svg PUBLIC "-//W3C//DTD SVG 1.1//EN"
 "http://www.w3.org/Graphics/SVG/1.1/DTD/svg11.dtd">
<!-- Generated by graphviz version 2.47.0 (20210316.2052)
 -->
<!-- Title: src/d/d_eye_hl.cpp Pages: 1 -->
<svg width="1051pt" height="162pt"
 viewBox="0.00 0.00 1051.00 162.00" xmlns="http://www.w3.org/2000/svg" xmlns:xlink="http://www.w3.org/1999/xlink">
<g id="graph0" class="graph" transform="scale(1 1) rotate(0) translate(4 158)">
<title>src/d/d_eye_hl.cpp</title>
<polygon fill="white" stroke="transparent" points="-4,4 -4,-158 1047,-158 1047,4 -4,4"/>
<!-- Node1 -->
<g id="node1" class="node">
<title>Node1</title>
<g id="a_node1"><a xlink:title=" ">
<polygon fill="#bfbfbf" stroke="black" points="320.5,-134.5 320.5,-153.5 418.5,-153.5 418.5,-134.5 320.5,-134.5"/>
<text text-anchor="middle" x="369.5" y="-141.5" font-family="Helvetica,sans-Serif" font-size="10.00">src/d/d_eye_hl.cpp</text>
</a>
</g>
</g>
<!-- Node2 -->
<g id="node2" class="node">
<title>Node2</title>
<g id="a_node2"><a xlink:href="dol2asm_8h.html" target="_top" xlink:title=" ">
<polygon fill="white" stroke="black" points="0,-67.5 0,-86.5 61,-86.5 61,-67.5 0,-67.5"/>
<text text-anchor="middle" x="30.5" y="-74.5" font-family="Helvetica,sans-Serif" font-size="10.00">dol2asm.h</text>
</a>
</g>
</g>
<!-- Node1&#45;&gt;Node2 -->
<g id="edge1" class="edge">
<title>Node1&#45;&gt;Node2</title>
<path fill="none" stroke="midnightblue" d="M320.25,-139.49C261.15,-134.36 159.49,-122.61 75.5,-98 69.15,-96.14 62.52,-93.57 56.37,-90.9"/>
<polygon fill="midnightblue" stroke="midnightblue" points="57.74,-87.68 47.19,-86.7 54.82,-94.04 57.74,-87.68"/>
</g>
<!-- Node3 -->
<g id="node3" class="node">
<title>Node3</title>
<g id="a_node3"><a xlink:href="types_8h.html" target="_top" xlink:title=" ">
<polygon fill="white" stroke="black" points="81,-0.5 81,-19.5 162,-19.5 162,-0.5 81,-0.5"/>
<text text-anchor="middle" x="121.5" y="-7.5" font-family="Helvetica,sans-Serif" font-size="10.00">dolphin/types.h</text>
</a>
</g>
</g>
<!-- Node1&#45;&gt;Node3 -->
<g id="edge2" class="edge">
<title>Node1&#45;&gt;Node3</title>
<path fill="none" stroke="midnightblue" d="M320.25,-141.75C252.5,-138.87 135.9,-129.37 109.5,-98 93.27,-78.72 103,-48.07 111.94,-28.77"/>
<polygon fill="midnightblue" stroke="midnightblue" points="115.18,-30.1 116.52,-19.59 108.92,-26.97 115.18,-30.1"/>
</g>
<!-- Node4 -->
<g id="node4" class="node">
<title>Node4</title>
<g id="a_node4"><a xlink:href="d__eye__hl_8h.html" target="_top" xlink:title=" ">
<polygon fill="white" stroke="black" points="118,-67.5 118,-86.5 189,-86.5 189,-67.5 118,-67.5"/>
<text text-anchor="middle" x="153.5" y="-74.5" font-family="Helvetica,sans-Serif" font-size="10.00">d/d_eye_hl.h</text>
</a>
</g>
</g>
<!-- Node1&#45;&gt;Node4 -->
<g id="edge3" class="edge">
<title>Node1&#45;&gt;Node4</title>
<path fill="none" stroke="midnightblue" d="M329.91,-134.49C294.9,-126.51 242.67,-113.51 198.5,-98 192.61,-95.93 186.42,-93.41 180.58,-90.87"/>
<polygon fill="midnightblue" stroke="midnightblue" points="181.74,-87.56 171.19,-86.65 178.87,-93.95 181.74,-87.56"/>
</g>
<!-- Node5 -->
<g id="node5" class="node">
<title>Node5</title>
<g id="a_node5"><a xlink:title=" ">
<polygon fill="white" stroke="#bfbfbf" points="207.5,-56.5 207.5,-97.5 371.5,-97.5 371.5,-56.5 207.5,-56.5"/>
<text text-anchor="start" x="215.5" y="-85.5" font-family="Helvetica,sans-Serif" font-size="10.00">asm/d/d_eye_hl/entry</text>
<text text-anchor="start" x="215.5" y="-74.5" font-family="Helvetica,sans-Serif" font-size="10.00">__8dEyeHL_cFP12J3DModelData</text>
<text text-anchor="middle" x="289.5" y="-63.5" font-family="Helvetica,sans-Serif" font-size="10.00">PCc.s</text>
</a>
</g>
</g>
<!-- Node1&#45;&gt;Node5 -->
<g id="edge5" class="edge">
<title>Node1&#45;&gt;Node5</title>
<path fill="none" stroke="midnightblue" d="M358.71,-134.23C349.17,-126.49 334.77,-114.78 321.56,-104.05"/>
<polygon fill="midnightblue" stroke="midnightblue" points="323.52,-101.13 313.55,-97.54 319.11,-106.56 323.52,-101.13"/>
</g>
<!-- Node6 -->
<g id="node6" class="node">
<title>Node6</title>
<g id="a_node6"><a xlink:title=" ">
<polygon fill="white" stroke="#bfbfbf" points="389.5,-62 389.5,-92 509.5,-92 509.5,-62 389.5,-62"/>
<text text-anchor="start" x="397.5" y="-80" font-family="Helvetica,sans-Serif" font-size="10.00">asm/d/d_eye_hl/remove</text>
<text text-anchor="middle" x="449.5" y="-69" font-family="Helvetica,sans-Serif" font-size="10.00">__8dEyeHL_cFv.s</text>
</a>
</g>
</g>
<!-- Node1&#45;&gt;Node6 -->
<g id="edge6" class="edge">
<title>Node1&#45;&gt;Node6</title>
<path fill="none" stroke="midnightblue" d="M380.29,-134.23C391.52,-125.11 409.5,-110.5 424.31,-98.46"/>
<polygon fill="midnightblue" stroke="midnightblue" points="426.61,-101.11 432.16,-92.09 422.19,-95.68 426.61,-101.11"/>
</g>
<!-- Node7 -->
<g id="node7" class="node">
<title>Node7</title>
<g id="a_node7"><a xlink:title=" ">
<polygon fill="white" stroke="#bfbfbf" points="528,-62 528,-92 653,-92 653,-62 528,-62"/>
<text text-anchor="start" x="536" y="-80" font-family="Helvetica,sans-Serif" font-size="10.00">asm/d/d_eye_hl/update</text>
<text text-anchor="middle" x="590.5" y="-69" font-family="Helvetica,sans-Serif" font-size="10.00">__12dEyeHL_mng_cFv.s</text>
</a>
</g>
</g>
<!-- Node1&#45;&gt;Node7 -->
<g id="edge7" class="edge">
<title>Node1&#45;&gt;Node7</title>
<path fill="none" stroke="midnightblue" d="M398.85,-134.37C432.94,-124.34 490.01,-107.56 533.03,-94.9"/>
<polygon fill="midnightblue" stroke="midnightblue" points="534.2,-98.21 542.8,-92.03 532.22,-91.49 534.2,-98.21"/>
</g>
<!-- Node8 -->
<g id="node8" class="node">
<title>Node8</title>
<g id="a_node8"><a xlink:title=" ">
<polygon fill="white" stroke="#bfbfbf" points="671,-62 671,-92 848,-92 848,-62 671,-62"/>
<text text-anchor="start" x="679" y="-80" font-family="Helvetica,sans-Serif" font-size="10.00">asm/d/d_eye_hl/entry</text>
<text text-anchor="middle" x="759.5" y="-69" font-family="Helvetica,sans-Serif" font-size="10.00">__12dEyeHL_mng_cFP8dEyeHL_c.s</text>
</a>
</g>
</g>
<!-- Node1&#45;&gt;Node8 -->
<g id="edge8" class="edge">
<title>Node1&#45;&gt;Node8</title>
<path fill="none" stroke="midnightblue" d="M418.62,-136.24C476.92,-128.03 577.02,-113.37 662.5,-98 669.48,-96.75 676.73,-95.38 683.98,-93.96"/>
<polygon fill="midnightblue" stroke="midnightblue" points="684.71,-97.38 693.84,-92.01 683.35,-90.52 684.71,-97.38"/>
</g>
<!-- Node9 -->
<g id="node9" class="node">
<title>Node9</title>
<g id="a_node9"><a xlink:title=" ">
<polygon fill="white" stroke="#bfbfbf" points="866,-62 866,-92 1043,-92 1043,-62 866,-62"/>
<text text-anchor="start" x="874" y="-80" font-family="Helvetica,sans-Serif" font-size="10.00">asm/d/d_eye_hl/remove</text>
<text text-anchor="middle" x="954.5" y="-69" font-family="Helvetica,sans-Serif" font-size="10.00">__12dEyeHL_mng_cFP8dEyeHL_c.s</text>
</a>
</g>
</g>
<!-- Node1&#45;&gt;Node9 -->
<g id="edge9" class="edge">
<title>Node1&#45;&gt;Node9</title>
<path fill="none" stroke="midnightblue" d="M418.55,-140.29C506.75,-135.01 697.81,-121.75 857.5,-98 865.36,-96.83 873.54,-95.43 881.67,-93.93"/>
<polygon fill="midnightblue" stroke="midnightblue" points="882.38,-97.35 891.55,-92.04 881.07,-90.48 882.38,-97.35"/>
</g>
<!-- Node4&#45;&gt;Node3 -->
<g id="edge4" class="edge">
<title>Node4&#45;&gt;Node3</title>
<path fill="none" stroke="midnightblue" d="M149.18,-67.23C144.34,-57.39 136.35,-41.16 130.19,-28.66"/>
<polygon fill="midnightblue" stroke="midnightblue" points="133.3,-27.05 125.75,-19.63 127.02,-30.14 133.3,-27.05"/>
</g>
</g>
</svg>
