<?xml version="1.0" encoding="UTF-8" standalone="no"?>
<!DOCTYPE svg PUBLIC "-//W3C//DTD SVG 1.1//EN"
 "http://www.w3.org/Graphics/SVG/1.1/DTD/svg11.dtd">
<!-- Generated by graphviz version 2.47.0 (20210316.2052)
 -->
<!-- Title: src/d/d_envse.cpp Pages: 1 -->
<svg width="1456pt" height="162pt"
 viewBox="0.00 0.00 1456.00 162.00" xmlns="http://www.w3.org/2000/svg" xmlns:xlink="http://www.w3.org/1999/xlink">
<g id="graph0" class="graph" transform="scale(1 1) rotate(0) translate(4 158)">
<title>src/d/d_envse.cpp</title>
<polygon fill="white" stroke="transparent" points="-4,4 -4,-158 1452,-158 1452,4 -4,4"/>
<!-- Node1 -->
<g id="node1" class="node">
<title>Node1</title>
<g id="a_node1"><a xlink:title=" ">
<polygon fill="#bfbfbf" stroke="black" points="565.5,-134.5 565.5,-153.5 661.5,-153.5 661.5,-134.5 565.5,-134.5"/>
<text text-anchor="middle" x="613.5" y="-141.5" font-family="Helvetica,sans-Serif" font-size="10.00">src/d/d_envse.cpp</text>
</a>
</g>
</g>
<!-- Node2 -->
<g id="node2" class="node">
<title>Node2</title>
<g id="a_node2"><a xlink:href="dol2asm_8h.html" target="_top" xlink:title=" ">
<polygon fill="white" stroke="black" points="0,-67.5 0,-86.5 61,-86.5 61,-67.5 0,-67.5"/>
<text text-anchor="middle" x="30.5" y="-74.5" font-family="Helvetica,sans-Serif" font-size="10.00">dol2asm.h</text>
</a>
</g>
</g>
<!-- Node1&#45;&gt;Node2 -->
<g id="edge1" class="edge">
<title>Node1&#45;&gt;Node2</title>
<path fill="none" stroke="midnightblue" d="M565.3,-141.03C451.25,-136.04 167.54,-121.58 75.5,-98 68.87,-96.3 61.98,-93.71 55.65,-90.95"/>
<polygon fill="midnightblue" stroke="midnightblue" points="56.82,-87.63 46.28,-86.57 53.86,-93.97 56.82,-87.63"/>
</g>
<!-- Node3 -->
<g id="node3" class="node">
<title>Node3</title>
<g id="a_node3"><a xlink:href="types_8h.html" target="_top" xlink:title=" ">
<polygon fill="white" stroke="black" points="80,-0.5 80,-19.5 161,-19.5 161,-0.5 80,-0.5"/>
<text text-anchor="middle" x="120.5" y="-7.5" font-family="Helvetica,sans-Serif" font-size="10.00">dolphin/types.h</text>
</a>
</g>
</g>
<!-- Node1&#45;&gt;Node3 -->
<g id="edge2" class="edge">
<title>Node1&#45;&gt;Node3</title>
<path fill="none" stroke="midnightblue" d="M565.08,-142.31C444.8,-140.09 139.89,-131.22 109.5,-98 92.44,-79.35 102.14,-48.29 111.06,-28.76"/>
<polygon fill="midnightblue" stroke="midnightblue" points="114.23,-30.25 115.51,-19.73 107.95,-27.16 114.23,-30.25"/>
</g>
<!-- Node4 -->
<g id="node4" class="node">
<title>Node4</title>
<g id="a_node4"><a xlink:href="d__envse_8h.html" target="_top" xlink:title=" ">
<polygon fill="white" stroke="black" points="118,-67.5 118,-86.5 187,-86.5 187,-67.5 118,-67.5"/>
<text text-anchor="middle" x="152.5" y="-74.5" font-family="Helvetica,sans-Serif" font-size="10.00">d/d_envse.h</text>
</a>
</g>
</g>
<!-- Node1&#45;&gt;Node4 -->
<g id="edge3" class="edge">
<title>Node1&#45;&gt;Node4</title>
<path fill="none" stroke="midnightblue" d="M565.37,-142.75C486.78,-141.24 326.61,-133.6 196.5,-98 190.13,-96.26 183.51,-93.69 177.4,-90.98"/>
<polygon fill="midnightblue" stroke="midnightblue" points="178.87,-87.8 168.34,-86.69 175.88,-94.13 178.87,-87.8"/>
</g>
<!-- Node5 -->
<g id="node5" class="node">
<title>Node5</title>
<g id="a_node5"><a xlink:title=" ">
<polygon fill="white" stroke="#bfbfbf" points="205,-62 205,-92 330,-92 330,-62 205,-62"/>
<text text-anchor="start" x="213" y="-80" font-family="Helvetica,sans-Serif" font-size="10.00">asm/d/d_envse/dEnvSe</text>
<text text-anchor="middle" x="267.5" y="-69" font-family="Helvetica,sans-Serif" font-size="10.00">_Draw__FP8dEnvSe_c.s</text>
</a>
</g>
</g>
<!-- Node1&#45;&gt;Node5 -->
<g id="edge5" class="edge">
<title>Node1&#45;&gt;Node5</title>
<path fill="none" stroke="midnightblue" d="M565.19,-136.68C510.21,-129.11 417.88,-115.27 339.5,-98 334.84,-96.97 330.02,-95.83 325.2,-94.62"/>
<polygon fill="midnightblue" stroke="midnightblue" points="325.9,-91.18 315.34,-92.07 324.15,-97.96 325.9,-91.18"/>
</g>
<!-- Node6 -->
<g id="node6" class="node">
<title>Node6</title>
<g id="a_node6"><a xlink:title=" ">
<polygon fill="white" stroke="#bfbfbf" points="348,-56.5 348,-97.5 509,-97.5 509,-56.5 348,-56.5"/>
<text text-anchor="start" x="356" y="-85.5" font-family="Helvetica,sans-Serif" font-size="10.00">asm/d/d_envse/dEnvSe</text>
<text text-anchor="start" x="356" y="-74.5" font-family="Helvetica,sans-Serif" font-size="10.00">_getNearPathPos__FP4cXyzP4c</text>
<text text-anchor="middle" x="428.5" y="-63.5" font-family="Helvetica,sans-Serif" font-size="10.00">XyzP5dPath.s</text>
</a>
</g>
</g>
<!-- Node1&#45;&gt;Node6 -->
<g id="edge6" class="edge">
<title>Node1&#45;&gt;Node6</title>
<path fill="none" stroke="midnightblue" d="M588.93,-134.37C564.78,-125.88 526.85,-112.56 493.94,-100.99"/>
<polygon fill="midnightblue" stroke="midnightblue" points="494.95,-97.64 484.36,-97.63 492.63,-104.24 494.95,-97.64"/>
</g>
<!-- Node7 -->
<g id="node7" class="node">
<title>Node7</title>
<g id="a_node7"><a xlink:title=" ">
<polygon fill="white" stroke="#bfbfbf" points="527,-56.5 527,-97.5 700,-97.5 700,-56.5 527,-56.5"/>
<text text-anchor="start" x="535" y="-85.5" font-family="Helvetica,sans-Serif" font-size="10.00">asm/d/d_envse/execute</text>
<text text-anchor="start" x="535" y="-74.5" font-family="Helvetica,sans-Serif" font-size="10.00">_common__8dEnvSe_cFP18dStage</text>
<text text-anchor="middle" x="613.5" y="-63.5" font-family="Helvetica,sans-Serif" font-size="10.00">_SoundInfo_cPScUc.s</text>
</a>
</g>
</g>
<!-- Node1&#45;&gt;Node7 -->
<g id="edge7" class="edge">
<title>Node1&#45;&gt;Node7</title>
<path fill="none" stroke="midnightblue" d="M613.5,-134.23C613.5,-127.36 613.5,-117.38 613.5,-107.73"/>
<polygon fill="midnightblue" stroke="midnightblue" points="617,-107.54 613.5,-97.54 610,-107.54 617,-107.54"/>
</g>
<!-- Node8 -->
<g id="node8" class="node">
<title>Node8</title>
<g id="a_node8"><a xlink:title=" ">
<polygon fill="white" stroke="#bfbfbf" points="718.5,-62 718.5,-92 838.5,-92 838.5,-62 718.5,-62"/>
<text text-anchor="start" x="726.5" y="-80" font-family="Helvetica,sans-Serif" font-size="10.00">asm/d/d_envse/execute</text>
<text text-anchor="middle" x="778.5" y="-69" font-family="Helvetica,sans-Serif" font-size="10.00">__8dEnvSe_cFv.s</text>
</a>
</g>
</g>
<!-- Node1&#45;&gt;Node8 -->
<g id="edge8" class="edge">
<title>Node1&#45;&gt;Node8</title>
<path fill="none" stroke="midnightblue" d="M635.41,-134.37C660.28,-124.57 701.51,-108.33 733.34,-95.79"/>
<polygon fill="midnightblue" stroke="midnightblue" points="734.87,-98.95 742.89,-92.03 732.3,-92.44 734.87,-98.95"/>
</g>
<!-- Node9 -->
<g id="node9" class="node">
<title>Node9</title>
<g id="a_node9"><a xlink:title=" ">
<polygon fill="white" stroke="#bfbfbf" points="857,-62 857,-92 994,-92 994,-62 857,-62"/>
<text text-anchor="start" x="865" y="-80" font-family="Helvetica,sans-Serif" font-size="10.00">asm/d/d_envse/dEnvSe</text>
<text text-anchor="middle" x="925.5" y="-69" font-family="Helvetica,sans-Serif" font-size="10.00">_Execute__FP8dEnvSe_c.s</text>
</a>
</g>
</g>
<!-- Node1&#45;&gt;Node9 -->
<g id="edge9" class="edge">
<title>Node1&#45;&gt;Node9</title>
<path fill="none" stroke="midnightblue" d="M661.63,-134.63C709.06,-126.17 783.52,-112.34 847.5,-98 852.4,-96.9 857.47,-95.72 862.55,-94.49"/>
<polygon fill="midnightblue" stroke="midnightblue" points="863.44,-97.88 872.32,-92.1 861.77,-91.08 863.44,-97.88"/>
</g>
<!-- Node10 -->
<g id="node10" class="node">
<title>Node10</title>
<g id="a_node10"><a xlink:title=" ">
<polygon fill="white" stroke="#bfbfbf" points="1012.5,-62 1012.5,-92 1150.5,-92 1150.5,-62 1012.5,-62"/>
<text text-anchor="start" x="1020.5" y="-80" font-family="Helvetica,sans-Serif" font-size="10.00">asm/d/d_envse/dEnvSe</text>
<text text-anchor="middle" x="1081.5" y="-69" font-family="Helvetica,sans-Serif" font-size="10.00">_IsDelete__FP8dEnvSe_c.s</text>
</a>
</g>
</g>
<!-- Node1&#45;&gt;Node10 -->
<g id="edge10" class="edge">
<title>Node1&#45;&gt;Node10</title>
<path fill="none" stroke="midnightblue" d="M661.54,-139.57C735.46,-133.83 881.36,-120.6 1003.5,-98 1009.22,-96.94 1015.15,-95.7 1021.06,-94.36"/>
<polygon fill="midnightblue" stroke="midnightblue" points="1022.02,-97.73 1030.95,-92.03 1020.42,-90.91 1022.02,-97.73"/>
</g>
<!-- Node11 -->
<g id="node11" class="node">
<title>Node11</title>
<g id="a_node11"><a xlink:title=" ">
<polygon fill="white" stroke="#bfbfbf" points="1168.5,-62 1168.5,-92 1298.5,-92 1298.5,-62 1168.5,-62"/>
<text text-anchor="start" x="1176.5" y="-80" font-family="Helvetica,sans-Serif" font-size="10.00">asm/d/d_envse/dEnvSe</text>
<text text-anchor="middle" x="1233.5" y="-69" font-family="Helvetica,sans-Serif" font-size="10.00">_Delete__FP8dEnvSe_c.s</text>
</a>
</g>
</g>
<!-- Node1&#45;&gt;Node11 -->
<g id="edge11" class="edge">
<title>Node1&#45;&gt;Node11</title>
<path fill="none" stroke="midnightblue" d="M661.71,-141.96C757.34,-139.26 977.5,-129.82 1159.5,-98 1164.99,-97.04 1170.66,-95.86 1176.31,-94.56"/>
<polygon fill="midnightblue" stroke="midnightblue" points="1177.53,-97.86 1186.42,-92.1 1175.87,-91.06 1177.53,-97.86"/>
</g>
<!-- Node12 -->
<g id="node12" class="node">
<title>Node12</title>
<g id="a_node12"><a xlink:title=" ">
<polygon fill="white" stroke="#bfbfbf" points="1317,-62 1317,-92 1448,-92 1448,-62 1317,-62"/>
<text text-anchor="start" x="1325" y="-80" font-family="Helvetica,sans-Serif" font-size="10.00">asm/d/d_envse/dEnvSe</text>
<text text-anchor="middle" x="1382.5" y="-69" font-family="Helvetica,sans-Serif" font-size="10.00">_Create__FP8dEnvSe_c.s</text>
</a>
</g>
</g>
<!-- Node1&#45;&gt;Node12 -->
<g id="edge12" class="edge">
<title>Node1&#45;&gt;Node12</title>
<path fill="none" stroke="midnightblue" d="M661.83,-143.11C775.32,-142.66 1067.42,-137.4 1307.5,-98 1313.38,-97.04 1319.46,-95.81 1325.51,-94.44"/>
<polygon fill="midnightblue" stroke="midnightblue" points="1326.69,-97.75 1335.6,-92.01 1325.06,-90.94 1326.69,-97.75"/>
</g>
<!-- Node4&#45;&gt;Node3 -->
<g id="edge4" class="edge">
<title>Node4&#45;&gt;Node3</title>
<path fill="none" stroke="midnightblue" d="M148.18,-67.23C143.34,-57.39 135.35,-41.16 129.19,-28.66"/>
<polygon fill="midnightblue" stroke="midnightblue" points="132.3,-27.05 124.75,-19.63 126.02,-30.14 132.3,-27.05"/>
</g>
</g>
</svg>
