<?xml version="1.0" encoding="UTF-8" standalone="no"?>
<!DOCTYPE svg PUBLIC "-//W3C//DTD SVG 1.1//EN"
 "http://www.w3.org/Graphics/SVG/1.1/DTD/svg11.dtd">
<!-- Generated by graphviz version 2.47.0 (20210316.2052)
 -->
<!-- Title: src/d/d_gameover.cpp Pages: 1 -->
<!--zoomable 162 -->
<svg id="main" version="1.1" xmlns="http://www.w3.org/2000/svg" xmlns:xlink="http://www.w3.org/1999/xlink" xml:space="preserve" onload="init(evt)">
<style type="text/css"><![CDATA[
.edge:hover path { stroke: red; }
.edge:hover polygon { stroke: red; fill: red; }
]]></style>
<script type="text/javascript"><![CDATA[
var edges = document.getElementsByTagName('g');
if (edges && edges.length) {
  for (var i=0;i<edges.length;i++) {
    if (edges[i].id.substr(0,4)=='edge') {
      edges[i].setAttribute('class','edge');
    }
  }
}
]]></script>
        <defs>
                <circle id="rim" cx="0" cy="0" r="7"/>
                <circle id="rim2" cx="0" cy="0" r="3.5"/>
                <g id="zoomPlus">
                        <use xlink:href="#rim" fill="#404040">
                                <set attributeName="fill" to="#808080" begin="zoomplus.mouseover" end="zoomplus.mouseout"/>
                        </use>
                        <path d="M-4,0h8M0,-4v8" fill="none" stroke="white" stroke-width="1.5" pointer-events="none"/>
                </g>
                <g id="zoomMin">
                        <use xlink:href="#rim" fill="#404040">
                                <set attributeName="fill" to="#808080" begin="zoomminus.mouseover" end="zoomminus.mouseout"/>
                        </use>
                        <path d="M-4,0h8" fill="none" stroke="white" stroke-width="1.5" pointer-events="none"/>
                </g>
                <g id="dirArrow">
                        <path fill="none" stroke="white" stroke-width="1.5" d="M0,-3.0v7 M-2.5,-0.5L0,-3.0L2.5,-0.5"/>
                </g>
               <g id="resetDef">
                       <use xlink:href="#rim2" fill="#404040">
                               <set attributeName="fill" to="#808080" begin="reset.mouseover" end="reset.mouseout"/>
                       </use>
               </g>
        </defs>

<script type="text/javascript">
var viewWidth = 5627;
var viewHeight = 162;
var sectionId = 'dynsection-0';
</script>
<script xlink:href="svgpan.js"/>
<svg id="graph" class="graph">
<g id="viewport">
<title>src/d/d_gameover.cpp</title>
<polygon fill="white" stroke="transparent" points="-4,4 -4,-158 5622.5,-158 5622.5,4 -4,4"/>
<!-- Node1 -->
<g id="node1" class="node">
<title>Node1</title>
<g id="a_node1"><a xlink:title=" ">
<polygon fill="#bfbfbf" stroke="black" points="2592,-134.5 2592,-153.5 2705,-153.5 2705,-134.5 2592,-134.5"/>
<text text-anchor="middle" x="2648.5" y="-141.5" font-family="Helvetica,sans-Serif" font-size="10.00">src/d/d_gameover.cpp</text>
</a>
</g>
</g>
<!-- Node2 -->
<g id="node2" class="node">
<title>Node2</title>
<g id="a_node2"><a xlink:href="dol2asm_8h.html" target="_top" xlink:title=" ">
<polygon fill="white" stroke="black" points="0,-67.5 0,-86.5 61,-86.5 61,-67.5 0,-67.5"/>
<text text-anchor="middle" x="30.5" y="-74.5" font-family="Helvetica,sans-Serif" font-size="10.00">dol2asm.h</text>
</a>
</g>
</g>
<!-- Node1&#45;&gt;Node2 -->
<g id="edge1" class="edge">
<title>Node1&#45;&gt;Node2</title>
<path fill="none" stroke="midnightblue" d="M2591.83,-142.65C2225.41,-140.3 202.41,-126.09 75.5,-98 68.71,-96.5 61.69,-93.93 55.27,-91.12"/>
<polygon fill="midnightblue" stroke="midnightblue" points="56.33,-87.76 45.8,-86.64 53.34,-94.08 56.33,-87.76"/>
</g>
<!-- Node3 -->
<g id="node3" class="node">
<title>Node3</title>
<g id="a_node3"><a xlink:href="types_8h.html" target="_top" xlink:title=" ">
<polygon fill="white" stroke="black" points="84,-0.5 84,-19.5 165,-19.5 165,-0.5 84,-0.5"/>
<text text-anchor="middle" x="124.5" y="-7.5" font-family="Helvetica,sans-Serif" font-size="10.00">dolphin/types.h</text>
</a>
</g>
</g>
<!-- Node1&#45;&gt;Node3 -->
<g id="edge2" class="edge">
<title>Node1&#45;&gt;Node3</title>
<path fill="none" stroke="midnightblue" d="M2591.77,-143.09C2220.68,-143.51 153.51,-143.82 108.5,-98 90.45,-79.63 102.91,-48 113.66,-28.36"/>
<polygon fill="midnightblue" stroke="midnightblue" points="116.78,-29.96 118.8,-19.56 110.73,-26.43 116.78,-29.96"/>
</g>
<!-- Node4 -->
<g id="node4" class="node">
<title>Node4</title>
<g id="a_node4"><a xlink:href="d__gameover_8h.html" target="_top" xlink:title=" ">
<polygon fill="white" stroke="black" points="117.5,-67.5 117.5,-86.5 203.5,-86.5 203.5,-67.5 117.5,-67.5"/>
<text text-anchor="middle" x="160.5" y="-74.5" font-family="Helvetica,sans-Serif" font-size="10.00">d/d_gameover.h</text>
</a>
</g>
</g>
<!-- Node1&#45;&gt;Node4 -->
<g id="edge3" class="edge">
<title>Node1&#45;&gt;Node4</title>
<path fill="none" stroke="midnightblue" d="M2591.91,-143.11C2248.79,-143.63 453.69,-144.11 213.5,-98 204.99,-96.37 196.05,-93.49 187.99,-90.41"/>
<polygon fill="midnightblue" stroke="midnightblue" points="189.27,-87.15 178.69,-86.63 186.64,-93.64 189.27,-87.15"/>
</g>
<!-- Node5 -->
<g id="node5" class="node">
<title>Node5</title>
<g id="a_node5"><a xlink:title=" ">
<polygon fill="white" stroke="#bfbfbf" points="222,-62 222,-92 413,-92 413,-62 222,-62"/>
<text text-anchor="start" x="230" y="-80" font-family="Helvetica,sans-Serif" font-size="10.00">asm/d/d_gameover/draw</text>
<text text-anchor="middle" x="317.5" y="-69" font-family="Helvetica,sans-Serif" font-size="10.00">__24dDlst_Gameover_CAPTURE_cFv.s</text>
</a>
</g>
</g>
<!-- Node1&#45;&gt;Node5 -->
<g id="edge5" class="edge">
<title>Node1&#45;&gt;Node5</title>
<path fill="none" stroke="midnightblue" d="M2591.67,-143.15C2288.75,-143.72 861.48,-143.92 422.5,-98 412.6,-96.96 402.24,-95.49 392.05,-93.79"/>
<polygon fill="midnightblue" stroke="midnightblue" points="392.39,-90.3 381.94,-92.04 391.2,-97.2 392.39,-90.3"/>
</g>
<!-- Node6 -->
<g id="node6" class="node">
<title>Node6</title>
<g id="a_node6"><a xlink:title=" ">
<polygon fill="white" stroke="#bfbfbf" points="431,-62 431,-92 558,-92 558,-62 431,-62"/>
<text text-anchor="start" x="439" y="-80" font-family="Helvetica,sans-Serif" font-size="10.00">asm/d/d_gameover/_</text>
<text text-anchor="middle" x="494.5" y="-69" font-family="Helvetica,sans-Serif" font-size="10.00">_ct__10dGov_HIO_cFv.s</text>
</a>
</g>
</g>
<!-- Node1&#45;&gt;Node6 -->
<g id="edge6" class="edge">
<title>Node1&#45;&gt;Node6</title>
<path fill="none" stroke="midnightblue" d="M2591.8,-142.61C2279.16,-140.32 772.45,-127.83 567.5,-98 561.36,-97.11 554.99,-95.86 548.7,-94.42"/>
<polygon fill="midnightblue" stroke="midnightblue" points="549.46,-91.01 538.91,-92.03 547.8,-97.81 549.46,-91.01"/>
</g>
<!-- Node7 -->
<g id="node7" class="node">
<title>Node7</title>
<g id="a_node7"><a xlink:title=" ">
<polygon fill="white" stroke="#bfbfbf" points="576,-62 576,-92 711,-92 711,-62 576,-62"/>
<text text-anchor="start" x="584" y="-80" font-family="Helvetica,sans-Serif" font-size="10.00">asm/d/d_gameover/_create</text>
<text text-anchor="middle" x="643.5" y="-69" font-family="Helvetica,sans-Serif" font-size="10.00">__11dGameover_cFv.s</text>
</a>
</g>
</g>
<!-- Node1&#45;&gt;Node7 -->
<g id="edge7" class="edge">
<title>Node1&#45;&gt;Node7</title>
<path fill="none" stroke="midnightblue" d="M2591.63,-142.45C2292.68,-139.48 909.61,-124.41 720.5,-98 713.88,-97.08 707.02,-95.79 700.23,-94.3"/>
<polygon fill="midnightblue" stroke="midnightblue" points="700.92,-90.87 690.39,-92.01 699.34,-97.69 700.92,-90.87"/>
</g>
<!-- Node8 -->
<g id="node8" class="node">
<title>Node8</title>
<g id="a_node8"><a xlink:title=" ">
<polygon fill="white" stroke="#bfbfbf" points="729.5,-62 729.5,-92 871.5,-92 871.5,-62 729.5,-62"/>
<text text-anchor="start" x="737.5" y="-80" font-family="Helvetica,sans-Serif" font-size="10.00">asm/d/d_gameover/_execute</text>
<text text-anchor="middle" x="800.5" y="-69" font-family="Helvetica,sans-Serif" font-size="10.00">__11dGameover_cFv.s</text>
</a>
</g>
</g>
<!-- Node1&#45;&gt;Node8 -->
<g id="edge8" class="edge">
<title>Node1&#45;&gt;Node8</title>
<path fill="none" stroke="midnightblue" d="M2591.66,-143.21C2328.1,-143.91 1223.45,-144.02 881.5,-98 874.65,-97.08 867.54,-95.81 860.51,-94.35"/>
<polygon fill="midnightblue" stroke="midnightblue" points="860.82,-90.83 850.3,-92.09 859.31,-97.66 860.82,-90.83"/>
</g>
<!-- Node9 -->
<g id="node9" class="node">
<title>Node9</title>
<g id="a_node9"><a xlink:title=" ">
<polygon fill="white" stroke="#bfbfbf" points="890,-62 890,-92 1051,-92 1051,-62 890,-62"/>
<text text-anchor="start" x="898" y="-80" font-family="Helvetica,sans-Serif" font-size="10.00">asm/d/d_gameover/playerAnm</text>
<text text-anchor="middle" x="970.5" y="-69" font-family="Helvetica,sans-Serif" font-size="10.00">Wait_proc__11dGameover_cFv.s</text>
</a>
</g>
</g>
<!-- Node1&#45;&gt;Node9 -->
<g id="edge9" class="edge">
<title>Node1&#45;&gt;Node9</title>
<path fill="none" stroke="midnightblue" d="M2591.77,-142.84C2345.26,-141.92 1365.85,-135.9 1060.5,-98 1052.48,-97 1044.13,-95.62 1035.88,-94.05"/>
<polygon fill="midnightblue" stroke="midnightblue" points="1036.4,-90.58 1025.9,-92.04 1035.02,-97.45 1036.4,-90.58"/>
</g>
<!-- Node10 -->
<g id="node10" class="node">
<title>Node10</title>
<g id="a_node10"><a xlink:title=" ">
<polygon fill="white" stroke="#bfbfbf" points="1069,-62 1069,-92 1220,-92 1220,-62 1069,-62"/>
<text text-anchor="start" x="1077" y="-80" font-family="Helvetica,sans-Serif" font-size="10.00">asm/d/d_gameover/dispFade</text>
<text text-anchor="middle" x="1144.5" y="-69" font-family="Helvetica,sans-Serif" font-size="10.00">Out_init__11dGameover_cFv.s</text>
</a>
</g>
</g>
<!-- Node1&#45;&gt;Node10 -->
<g id="edge10" class="edge">
<title>Node1&#45;&gt;Node10</title>
<path fill="none" stroke="midnightblue" d="M2591.71,-142.71C2361.82,-141.3 1499.66,-133.7 1229.5,-98 1222.08,-97.02 1214.36,-95.67 1206.73,-94.14"/>
<polygon fill="midnightblue" stroke="midnightblue" points="1207.3,-90.68 1196.79,-92.03 1205.85,-97.53 1207.3,-90.68"/>
</g>
<!-- Node11 -->
<g id="node11" class="node">
<title>Node11</title>
<g id="a_node11"><a xlink:title=" ">
<polygon fill="white" stroke="#bfbfbf" points="1238,-62 1238,-92 1395,-92 1395,-62 1238,-62"/>
<text text-anchor="start" x="1246" y="-80" font-family="Helvetica,sans-Serif" font-size="10.00">asm/d/d_gameover/dispFade</text>
<text text-anchor="middle" x="1316.5" y="-69" font-family="Helvetica,sans-Serif" font-size="10.00">Out_proc__11dGameover_cFv.s</text>
</a>
</g>
</g>
<!-- Node1&#45;&gt;Node11 -->
<g id="edge11" class="edge">
<title>Node1&#45;&gt;Node11</title>
<path fill="none" stroke="midnightblue" d="M2591.67,-142.36C2380.18,-139.75 1638.75,-128.58 1404.5,-98 1396.85,-97 1388.89,-95.65 1381.03,-94.11"/>
<polygon fill="midnightblue" stroke="midnightblue" points="1381.64,-90.67 1371.14,-92.08 1380.23,-97.52 1381.64,-90.67"/>
</g>
<!-- Node12 -->
<g id="node12" class="node">
<title>Node12</title>
<g id="a_node12"><a xlink:title=" ">
<polygon fill="white" stroke="#bfbfbf" points="1413.5,-62 1413.5,-92 1553.5,-92 1553.5,-62 1413.5,-62"/>
<text text-anchor="start" x="1421.5" y="-80" font-family="Helvetica,sans-Serif" font-size="10.00">asm/d/d_gameover/dispWait</text>
<text text-anchor="middle" x="1483.5" y="-69" font-family="Helvetica,sans-Serif" font-size="10.00">_init__11dGameover_cFv.s</text>
</a>
</g>
</g>
<!-- Node1&#45;&gt;Node12 -->
<g id="edge12" class="edge">
<title>Node1&#45;&gt;Node12</title>
<path fill="none" stroke="midnightblue" d="M2591.73,-142.17C2398.17,-139.1 1764.91,-127.04 1563.5,-98 1556.84,-97.04 1549.92,-95.76 1543.07,-94.3"/>
<polygon fill="midnightblue" stroke="midnightblue" points="1543.64,-90.84 1533.12,-92.07 1542.11,-97.67 1543.64,-90.84"/>
</g>
<!-- Node13 -->
<g id="node13" class="node">
<title>Node13</title>
<g id="a_node13"><a xlink:title=" ">
<polygon fill="white" stroke="#bfbfbf" points="1572,-62 1572,-92 1713,-92 1713,-62 1572,-62"/>
<text text-anchor="start" x="1580" y="-80" font-family="Helvetica,sans-Serif" font-size="10.00">asm/d/d_gameover/dispWait</text>
<text text-anchor="middle" x="1642.5" y="-69" font-family="Helvetica,sans-Serif" font-size="10.00">_proc__11dGameover_cFv.s</text>
</a>
</g>
</g>
<!-- Node1&#45;&gt;Node13 -->
<g id="edge13" class="edge">
<title>Node1&#45;&gt;Node13</title>
<path fill="none" stroke="midnightblue" d="M2591.72,-141.7C2417.42,-137.49 1891.58,-122.99 1722.5,-98 1715.84,-97.02 1708.93,-95.72 1702.08,-94.25"/>
<polygon fill="midnightblue" stroke="midnightblue" points="1702.65,-90.8 1692.13,-92.01 1701.11,-97.62 1702.65,-90.8"/>
</g>
<!-- Node14 -->
<g id="node14" class="node">
<title>Node14</title>
<g id="a_node14"><a xlink:title=" ">
<polygon fill="white" stroke="#bfbfbf" points="1731,-62 1731,-92 1880,-92 1880,-62 1731,-62"/>
<text text-anchor="start" x="1739" y="-80" font-family="Helvetica,sans-Serif" font-size="10.00">asm/d/d_gameover/demoFade</text>
<text text-anchor="middle" x="1805.5" y="-69" font-family="Helvetica,sans-Serif" font-size="10.00">In_init__11dGameover_cFv.s</text>
</a>
</g>
</g>
<!-- Node1&#45;&gt;Node14 -->
<g id="edge14" class="edge">
<title>Node1&#45;&gt;Node14</title>
<path fill="none" stroke="midnightblue" d="M2591.98,-143.01C2465.44,-142.3 2150.02,-136.44 1889.5,-98 1882.46,-96.96 1875.15,-95.62 1867.91,-94.13"/>
<polygon fill="midnightblue" stroke="midnightblue" points="1868.62,-90.7 1858.1,-92.01 1867.14,-97.54 1868.62,-90.7"/>
</g>
<!-- Node15 -->
<g id="node15" class="node">
<title>Node15</title>
<g id="a_node15"><a xlink:title=" ">
<polygon fill="white" stroke="#bfbfbf" points="1898,-62 1898,-92 2047,-92 2047,-62 1898,-62"/>
<text text-anchor="start" x="1906" y="-80" font-family="Helvetica,sans-Serif" font-size="10.00">asm/d/d_gameover/demoFade</text>
<text text-anchor="middle" x="1972.5" y="-69" font-family="Helvetica,sans-Serif" font-size="10.00">In_proc__11dGameover_cFv.s</text>
</a>
</g>
</g>
<!-- Node1&#45;&gt;Node15 -->
<g id="edge15" class="edge">
<title>Node1&#45;&gt;Node15</title>
<path fill="none" stroke="midnightblue" d="M2591.84,-141.67C2486.04,-138.52 2251.53,-128.43 2056.5,-98 2049.83,-96.96 2042.91,-95.67 2036.03,-94.24"/>
<polygon fill="midnightblue" stroke="midnightblue" points="2036.54,-90.77 2026.02,-92.07 2035.06,-97.61 2036.54,-90.77"/>
</g>
<!-- Node16 -->
<g id="node16" class="node">
<title>Node16</title>
<g id="a_node16"><a xlink:title=" ">
<polygon fill="white" stroke="#bfbfbf" points="2065,-62 2065,-92 2216,-92 2216,-62 2065,-62"/>
<text text-anchor="start" x="2073" y="-80" font-family="Helvetica,sans-Serif" font-size="10.00">asm/d/d_gameover/demoFade</text>
<text text-anchor="middle" x="2140.5" y="-69" font-family="Helvetica,sans-Serif" font-size="10.00">Out_init__11dGameover_cFv.s</text>
</a>
</g>
</g>
<!-- Node1&#45;&gt;Node16 -->
<g id="edge16" class="edge">
<title>Node1&#45;&gt;Node16</title>
<path fill="none" stroke="midnightblue" d="M2591.74,-139.23C2510.27,-133.3 2355.64,-120.14 2225.5,-98 2218.97,-96.89 2212.2,-95.58 2205.45,-94.16"/>
<polygon fill="midnightblue" stroke="midnightblue" points="2206.14,-90.73 2195.62,-92.03 2204.65,-97.57 2206.14,-90.73"/>
</g>
<!-- Node17 -->
<g id="node17" class="node">
<title>Node17</title>
<g id="a_node17"><a xlink:title=" ">
<polygon fill="white" stroke="#bfbfbf" points="2234,-62 2234,-92 2391,-92 2391,-62 2234,-62"/>
<text text-anchor="start" x="2242" y="-80" font-family="Helvetica,sans-Serif" font-size="10.00">asm/d/d_gameover/demoFade</text>
<text text-anchor="middle" x="2312.5" y="-69" font-family="Helvetica,sans-Serif" font-size="10.00">Out_proc__11dGameover_cFv.s</text>
</a>
</g>
</g>
<!-- Node1&#45;&gt;Node17 -->
<g id="edge17" class="edge">
<title>Node1&#45;&gt;Node17</title>
<path fill="none" stroke="midnightblue" d="M2597.55,-134.43C2547.33,-125.82 2468.45,-111.88 2400.5,-98 2394.7,-96.81 2388.69,-95.54 2382.67,-94.24"/>
<polygon fill="midnightblue" stroke="midnightblue" points="2383.06,-90.74 2372.54,-92.02 2381.56,-97.58 2383.06,-90.74"/>
</g>
<!-- Node18 -->
<g id="node18" class="node">
<title>Node18</title>
<g id="a_node18"><a xlink:title=" ">
<polygon fill="white" stroke="#bfbfbf" points="2409,-62 2409,-92 2556,-92 2556,-62 2409,-62"/>
<text text-anchor="start" x="2417" y="-80" font-family="Helvetica,sans-Serif" font-size="10.00">asm/d/d_gameover/saveOpen</text>
<text text-anchor="middle" x="2482.5" y="-69" font-family="Helvetica,sans-Serif" font-size="10.00">_proc__11dGameover_cFv.s</text>
</a>
</g>
</g>
<!-- Node1&#45;&gt;Node18 -->
<g id="edge18" class="edge">
<title>Node1&#45;&gt;Node18</title>
<path fill="none" stroke="midnightblue" d="M2626.46,-134.37C2601.44,-124.57 2559.96,-108.33 2527.93,-95.79"/>
<polygon fill="midnightblue" stroke="midnightblue" points="2528.91,-92.42 2518.33,-92.03 2526.36,-98.93 2528.91,-92.42"/>
</g>
<!-- Node19 -->
<g id="node19" class="node">
<title>Node19</title>
<g id="a_node19"><a xlink:title=" ">
<polygon fill="white" stroke="#bfbfbf" points="2574.5,-62 2574.5,-92 2722.5,-92 2722.5,-62 2574.5,-62"/>
<text text-anchor="start" x="2582.5" y="-80" font-family="Helvetica,sans-Serif" font-size="10.00">asm/d/d_gameover/saveMove</text>
<text text-anchor="middle" x="2648.5" y="-69" font-family="Helvetica,sans-Serif" font-size="10.00">_proc__11dGameover_cFv.s</text>
</a>
</g>
</g>
<!-- Node1&#45;&gt;Node19 -->
<g id="edge19" class="edge">
<title>Node1&#45;&gt;Node19</title>
<path fill="none" stroke="midnightblue" d="M2648.5,-134.23C2648.5,-126.04 2648.5,-113.42 2648.5,-102.21"/>
<polygon fill="midnightblue" stroke="midnightblue" points="2652,-102.09 2648.5,-92.09 2645,-102.09 2652,-102.09"/>
</g>
<!-- Node20 -->
<g id="node20" class="node">
<title>Node20</title>
<g id="a_node20"><a xlink:title=" ">
<polygon fill="white" stroke="#bfbfbf" points="2741,-62 2741,-92 2890,-92 2890,-62 2741,-62"/>
<text text-anchor="start" x="2749" y="-80" font-family="Helvetica,sans-Serif" font-size="10.00">asm/d/d_gameover/saveClose</text>
<text text-anchor="middle" x="2815.5" y="-69" font-family="Helvetica,sans-Serif" font-size="10.00">_proc__11dGameover_cFv.s</text>
</a>
</g>
</g>
<!-- Node1&#45;&gt;Node20 -->
<g id="edge20" class="edge">
<title>Node1&#45;&gt;Node20</title>
<path fill="none" stroke="midnightblue" d="M2670.68,-134.37C2695.84,-124.57 2737.58,-108.33 2769.79,-95.79"/>
<polygon fill="midnightblue" stroke="midnightblue" points="2771.41,-98.92 2779.46,-92.03 2768.87,-92.39 2771.41,-98.92"/>
</g>
<!-- Node21 -->
<g id="node21" class="node">
<title>Node21</title>
<g id="a_node21"><a xlink:title=" ">
<polygon fill="white" stroke="#bfbfbf" points="2908,-62 2908,-92 3037,-92 3037,-62 2908,-62"/>
<text text-anchor="start" x="2916" y="-80" font-family="Helvetica,sans-Serif" font-size="10.00">asm/d/d_gameover/_draw</text>
<text text-anchor="middle" x="2972.5" y="-69" font-family="Helvetica,sans-Serif" font-size="10.00">__11dGameover_cFv.s</text>
</a>
</g>
</g>
<!-- Node1&#45;&gt;Node21 -->
<g id="edge21" class="edge">
<title>Node1&#45;&gt;Node21</title>
<path fill="none" stroke="midnightblue" d="M2704.62,-134.42C2755.68,-126.27 2833,-113.04 2899.5,-98 2904.14,-96.95 2908.93,-95.8 2913.73,-94.59"/>
<polygon fill="midnightblue" stroke="midnightblue" points="2914.76,-97.94 2923.57,-92.06 2913.01,-91.16 2914.76,-97.94"/>
</g>
<!-- Node22 -->
<g id="node22" class="node">
<title>Node22</title>
<g id="a_node22"><a xlink:title=" ">
<polygon fill="white" stroke="#bfbfbf" points="3055.5,-62 3055.5,-92 3189.5,-92 3189.5,-62 3055.5,-62"/>
<text text-anchor="start" x="3063.5" y="-80" font-family="Helvetica,sans-Serif" font-size="10.00">asm/d/d_gameover/_delete</text>
<text text-anchor="middle" x="3122.5" y="-69" font-family="Helvetica,sans-Serif" font-size="10.00">__11dGameover_cFv.s</text>
</a>
</g>
</g>
<!-- Node1&#45;&gt;Node22 -->
<g id="edge22" class="edge">
<title>Node1&#45;&gt;Node22</title>
<path fill="none" stroke="midnightblue" d="M2705.24,-139.18C2782.79,-133.37 2926.03,-120.54 3046.5,-98 3051.95,-96.98 3057.58,-95.78 3063.2,-94.48"/>
<polygon fill="midnightblue" stroke="midnightblue" points="3064.36,-97.81 3073.27,-92.06 3062.73,-91 3064.36,-97.81"/>
</g>
<!-- Node23 -->
<g id="node23" class="node">
<title>Node23</title>
<g id="a_node23"><a xlink:title=" ">
<polygon fill="white" stroke="#bfbfbf" points="3208,-56.5 3208,-97.5 3377,-97.5 3377,-56.5 3208,-56.5"/>
<text text-anchor="start" x="3216" y="-85.5" font-family="Helvetica,sans-Serif" font-size="10.00">asm/d/d_gameover/_</text>
<text text-anchor="start" x="3216" y="-74.5" font-family="Helvetica,sans-Serif" font-size="10.00">_ct__24dDlst_GameOverScrnDraw</text>
<text text-anchor="middle" x="3292.5" y="-63.5" font-family="Helvetica,sans-Serif" font-size="10.00">_cFP10JKRArchive.s</text>
</a>
</g>
</g>
<!-- Node1&#45;&gt;Node23 -->
<g id="edge23" class="edge">
<title>Node1&#45;&gt;Node23</title>
<path fill="none" stroke="midnightblue" d="M2705.38,-140.75C2803.75,-136.33 3012.09,-124.66 3197.84,-97.99"/>
<polygon fill="midnightblue" stroke="midnightblue" points="3198.39,-101.45 3207.79,-96.55 3197.39,-94.52 3198.39,-101.45"/>
</g>
<!-- Node24 -->
<g id="node24" class="node">
<title>Node24</title>
<g id="a_node24"><a xlink:title=" ">
<polygon fill="white" stroke="#bfbfbf" points="3395.5,-62 3395.5,-92 3593.5,-92 3593.5,-62 3395.5,-62"/>
<text text-anchor="start" x="3403.5" y="-80" font-family="Helvetica,sans-Serif" font-size="10.00">asm/d/d_gameover/_</text>
<text text-anchor="middle" x="3494.5" y="-69" font-family="Helvetica,sans-Serif" font-size="10.00">_dt__24dDlst_GameOverScrnDraw_cFv.s</text>
</a>
</g>
</g>
<!-- Node1&#45;&gt;Node24 -->
<g id="edge24" class="edge">
<title>Node1&#45;&gt;Node24</title>
<path fill="none" stroke="midnightblue" d="M2705.19,-141.9C2829.18,-138.99 3133.59,-129.01 3386.5,-98 3395.98,-96.84 3405.89,-95.36 3415.69,-93.75"/>
<polygon fill="midnightblue" stroke="midnightblue" points="3416.58,-97.15 3425.85,-92.01 3415.4,-90.24 3416.58,-97.15"/>
</g>
<!-- Node25 -->
<g id="node25" class="node">
<title>Node25</title>
<g id="a_node25"><a xlink:title=" ">
<polygon fill="white" stroke="#bfbfbf" points="3612,-62 3612,-92 3819,-92 3819,-62 3612,-62"/>
<text text-anchor="start" x="3620" y="-80" font-family="Helvetica,sans-Serif" font-size="10.00">asm/d/d_gameover/setBack</text>
<text text-anchor="middle" x="3715.5" y="-69" font-family="Helvetica,sans-Serif" font-size="10.00">Alpha__24dDlst_GameOverScrnDraw_cFf.s</text>
</a>
</g>
</g>
<!-- Node1&#45;&gt;Node25 -->
<g id="edge25" class="edge">
<title>Node1&#45;&gt;Node25</title>
<path fill="none" stroke="midnightblue" d="M2705.15,-142.85C2853.16,-141.92 3263.45,-135.84 3602.5,-98 3612.78,-96.85 3623.53,-95.35 3634.15,-93.68"/>
<polygon fill="midnightblue" stroke="midnightblue" points="3634.96,-97.09 3644.27,-92.03 3633.84,-90.18 3634.96,-97.09"/>
</g>
<!-- Node26 -->
<g id="node26" class="node">
<title>Node26</title>
<g id="a_node26"><a xlink:title=" ">
<polygon fill="white" stroke="#bfbfbf" points="3837,-62 3837,-92 4022,-92 4022,-62 3837,-62"/>
<text text-anchor="start" x="3845" y="-80" font-family="Helvetica,sans-Serif" font-size="10.00">asm/d/d_gameover/draw</text>
<text text-anchor="middle" x="3929.5" y="-69" font-family="Helvetica,sans-Serif" font-size="10.00">__24dDlst_GameOverScrnDraw_cFv.s</text>
</a>
</g>
</g>
<!-- Node1&#45;&gt;Node26 -->
<g id="edge26" class="edge">
<title>Node1&#45;&gt;Node26</title>
<path fill="none" stroke="midnightblue" d="M2705.16,-142.02C2909.33,-138.31 3606.94,-124 3828.5,-98 3837.63,-96.93 3847.16,-95.48 3856.57,-93.85"/>
<polygon fill="midnightblue" stroke="midnightblue" points="3857.49,-97.24 3866.71,-92.02 3856.24,-90.35 3857.49,-97.24"/>
</g>
<!-- Node27 -->
<g id="node27" class="node">
<title>Node27</title>
<g id="a_node27"><a xlink:title=" ">
<polygon fill="white" stroke="#bfbfbf" points="4040,-62 4040,-92 4193,-92 4193,-62 4040,-62"/>
<text text-anchor="start" x="4048" y="-80" font-family="Helvetica,sans-Serif" font-size="10.00">asm/d/d_gameover/dGameover</text>
<text text-anchor="middle" x="4116.5" y="-69" font-family="Helvetica,sans-Serif" font-size="10.00">_Draw__FP11dGameover_c.s</text>
</a>
</g>
</g>
<!-- Node1&#45;&gt;Node27 -->
<g id="edge27" class="edge">
<title>Node1&#45;&gt;Node27</title>
<path fill="none" stroke="midnightblue" d="M2705.38,-142.65C2931.7,-141.05 3768.79,-132.83 4031.5,-98 4038.92,-97.02 4046.64,-95.67 4054.26,-94.13"/>
<polygon fill="midnightblue" stroke="midnightblue" points="4055.15,-97.52 4064.2,-92.02 4053.7,-90.68 4055.15,-97.52"/>
</g>
<!-- Node28 -->
<g id="node28" class="node">
<title>Node28</title>
<g id="a_node28"><a xlink:title=" ">
<polygon fill="white" stroke="#bfbfbf" points="4211.5,-62 4211.5,-92 4369.5,-92 4369.5,-62 4211.5,-62"/>
<text text-anchor="start" x="4219.5" y="-80" font-family="Helvetica,sans-Serif" font-size="10.00">asm/d/d_gameover/dGameover</text>
<text text-anchor="middle" x="4290.5" y="-69" font-family="Helvetica,sans-Serif" font-size="10.00">_Execute__FP11dGameover_c.s</text>
</a>
</g>
</g>
<!-- Node1&#45;&gt;Node28 -->
<g id="edge28" class="edge">
<title>Node1&#45;&gt;Node28</title>
<path fill="none" stroke="midnightblue" d="M2705.24,-142.83C2948.49,-141.9 3904.28,-135.84 4202.5,-98 4210.26,-97.02 4218.34,-95.65 4226.32,-94.1"/>
<polygon fill="midnightblue" stroke="midnightblue" points="4227.25,-97.48 4236.34,-92.04 4225.84,-90.63 4227.25,-97.48"/>
</g>
<!-- Node29 -->
<g id="node29" class="node">
<title>Node29</title>
<g id="a_node29"><a xlink:title=" ">
<polygon fill="white" stroke="#bfbfbf" points="4388,-62 4388,-92 4541,-92 4541,-62 4388,-62"/>
<text text-anchor="start" x="4396" y="-80" font-family="Helvetica,sans-Serif" font-size="10.00">asm/d/d_gameover/dGameover</text>
<text text-anchor="middle" x="4464.5" y="-69" font-family="Helvetica,sans-Serif" font-size="10.00">_Delete__FP11dGameover_c.s</text>
</a>
</g>
</g>
<!-- Node1&#45;&gt;Node29 -->
<g id="edge29" class="edge">
<title>Node1&#45;&gt;Node29</title>
<path fill="none" stroke="midnightblue" d="M2705,-143.07C2964.52,-143.14 4043.79,-140.82 4378.5,-98 4386.09,-97.03 4393.99,-95.68 4401.79,-94.13"/>
<polygon fill="midnightblue" stroke="midnightblue" points="4402.52,-97.55 4411.59,-92.07 4401.08,-90.7 4402.52,-97.55"/>
</g>
<!-- Node30 -->
<g id="node30" class="node">
<title>Node30</title>
<g id="a_node30"><a xlink:title=" ">
<polygon fill="white" stroke="#bfbfbf" points="4559,-62 4559,-92 4712,-92 4712,-62 4559,-62"/>
<text text-anchor="start" x="4567" y="-80" font-family="Helvetica,sans-Serif" font-size="10.00">asm/d/d_gameover/dGameover</text>
<text text-anchor="middle" x="4635.5" y="-69" font-family="Helvetica,sans-Serif" font-size="10.00">_Create__FP9msg_class.s</text>
</a>
</g>
</g>
<!-- Node1&#45;&gt;Node30 -->
<g id="edge30" class="edge">
<title>Node1&#45;&gt;Node30</title>
<path fill="none" stroke="midnightblue" d="M2705.03,-143.24C2980.07,-144.18 4180.08,-145.44 4550.5,-98 4557.92,-97.05 4565.64,-95.72 4573.27,-94.2"/>
<polygon fill="midnightblue" stroke="midnightblue" points="4574.15,-97.59 4583.21,-92.1 4572.71,-90.74 4574.15,-97.59"/>
</g>
<!-- Node31 -->
<g id="node31" class="node">
<title>Node31</title>
<g id="a_node31"><a xlink:title=" ">
<polygon fill="white" stroke="#bfbfbf" points="4730.5,-62 4730.5,-92 4870.5,-92 4870.5,-62 4730.5,-62"/>
<text text-anchor="start" x="4738.5" y="-80" font-family="Helvetica,sans-Serif" font-size="10.00">asm/d/d_gameover/d</text>
<text text-anchor="middle" x="4800.5" y="-69" font-family="Helvetica,sans-Serif" font-size="10.00">_GameOver_Create__FUc.s</text>
</a>
</g>
</g>
<!-- Node1&#45;&gt;Node31 -->
<g id="edge31" class="edge">
<title>Node1&#45;&gt;Node31</title>
<path fill="none" stroke="midnightblue" d="M2705.23,-142.53C3017.18,-139.88 4517.11,-125.73 4721.5,-98 4728.28,-97.08 4735.32,-95.79 4742.28,-94.31"/>
<polygon fill="midnightblue" stroke="midnightblue" points="4743.4,-97.65 4752.38,-92.02 4741.85,-90.82 4743.4,-97.65"/>
</g>
<!-- Node32 -->
<g id="node32" class="node">
<title>Node32</title>
<g id="a_node32"><a xlink:title=" ">
<polygon fill="white" stroke="#bfbfbf" points="4889,-62 4889,-92 5032,-92 5032,-62 4889,-62"/>
<text text-anchor="start" x="4897" y="-80" font-family="Helvetica,sans-Serif" font-size="10.00">asm/d/d_gameover/d</text>
<text text-anchor="middle" x="4960.5" y="-69" font-family="Helvetica,sans-Serif" font-size="10.00">_GameOver_Delete__FRUi.s</text>
</a>
</g>
</g>
<!-- Node1&#45;&gt;Node32 -->
<g id="edge32" class="edge">
<title>Node1&#45;&gt;Node32</title>
<path fill="none" stroke="midnightblue" d="M2705.23,-142.61C3031.15,-140.26 4658.47,-127.15 4879.5,-98 4886.61,-97.06 4894,-95.74 4901.29,-94.22"/>
<polygon fill="midnightblue" stroke="midnightblue" points="4902.14,-97.61 4911.14,-92.03 4900.62,-90.78 4902.14,-97.61"/>
</g>
<!-- Node33 -->
<g id="node33" class="node">
<title>Node33</title>
<g id="a_node33"><a xlink:title=" ">
<polygon fill="white" stroke="#bfbfbf" points="5050,-62 5050,-92 5177,-92 5177,-62 5050,-62"/>
<text text-anchor="start" x="5058" y="-80" font-family="Helvetica,sans-Serif" font-size="10.00">asm/d/d_gameover/_</text>
<text text-anchor="middle" x="5113.5" y="-69" font-family="Helvetica,sans-Serif" font-size="10.00">_dt__10dGov_HIO_cFv.s</text>
</a>
</g>
</g>
<!-- Node1&#45;&gt;Node33 -->
<g id="edge33" class="edge">
<title>Node1&#45;&gt;Node33</title>
<path fill="none" stroke="midnightblue" d="M2705.16,-142.79C3044.78,-141.42 4803.92,-132.66 5041.5,-98 5047.42,-97.14 5053.55,-95.93 5059.61,-94.54"/>
<polygon fill="midnightblue" stroke="midnightblue" points="5060.84,-97.85 5069.71,-92.05 5059.16,-91.05 5060.84,-97.85"/>
</g>
<!-- Node34 -->
<g id="node34" class="node">
<title>Node34</title>
<g id="a_node34"><a xlink:title=" ">
<polygon fill="white" stroke="#bfbfbf" points="5195,-62 5195,-92 5322,-92 5322,-62 5195,-62"/>
<text text-anchor="start" x="5203" y="-80" font-family="Helvetica,sans-Serif" font-size="10.00">asm/d/d_gameover/_</text>
<text text-anchor="middle" x="5258.5" y="-69" font-family="Helvetica,sans-Serif" font-size="10.00">_sinit_d_gameover_cpp.s</text>
</a>
</g>
</g>
<!-- Node1&#45;&gt;Node34 -->
<g id="edge34" class="edge">
<title>Node1&#45;&gt;Node34</title>
<path fill="none" stroke="midnightblue" d="M2705.14,-142.86C3056.67,-141.84 4933.69,-134.75 5186.5,-98 5192.42,-97.14 5198.55,-95.94 5204.61,-94.55"/>
<polygon fill="midnightblue" stroke="midnightblue" points="5205.84,-97.85 5214.71,-92.06 5204.16,-91.06 5205.84,-97.85"/>
</g>
<!-- Node35 -->
<g id="node35" class="node">
<title>Node35</title>
<g id="a_node35"><a xlink:title=" ">
<polygon fill="white" stroke="#bfbfbf" points="5340.5,-56.5 5340.5,-97.5 5464.5,-97.5 5464.5,-56.5 5340.5,-56.5"/>
<text text-anchor="start" x="5348.5" y="-85.5" font-family="Helvetica,sans-Serif" font-size="10.00">asm/d/d_gameover/_</text>
<text text-anchor="start" x="5348.5" y="-74.5" font-family="Helvetica,sans-Serif" font-size="10.00">_dt__24dDlst_Gameover</text>
<text text-anchor="middle" x="5402.5" y="-63.5" font-family="Helvetica,sans-Serif" font-size="10.00">_CAPTURE_cFv.s</text>
</a>
</g>
</g>
<!-- Node1&#45;&gt;Node35 -->
<g id="edge35" class="edge">
<title>Node1&#45;&gt;Node35</title>
<path fill="none" stroke="midnightblue" d="M2705.11,-142.93C3064.14,-142.34 5018.9,-137.43 5330.39,-97.84"/>
<polygon fill="midnightblue" stroke="midnightblue" points="5330.92,-101.3 5340.36,-96.48 5329.98,-94.37 5330.92,-101.3"/>
</g>
<!-- Node36 -->
<g id="node36" class="node">
<title>Node36</title>
<g id="a_node36"><a xlink:title=" ">
<polygon fill="white" stroke="#bfbfbf" points="5482.5,-62 5482.5,-92 5618.5,-92 5618.5,-62 5482.5,-62"/>
<text text-anchor="start" x="5490.5" y="-80" font-family="Helvetica,sans-Serif" font-size="10.00">asm/d/d_gameover/_</text>
<text text-anchor="middle" x="5550.5" y="-69" font-family="Helvetica,sans-Serif" font-size="10.00">_dt__12dMenu_save_cFv.s</text>
</a>
</g>
</g>
<!-- Node1&#45;&gt;Node36 -->
<g id="edge36" class="edge">
<title>Node1&#45;&gt;Node36</title>
<path fill="none" stroke="midnightblue" d="M2705.05,-142.91C3079.05,-142.2 5190.15,-136.49 5473.5,-98 5480.12,-97.1 5486.99,-95.83 5493.77,-94.35"/>
<polygon fill="midnightblue" stroke="midnightblue" points="5494.67,-97.74 5503.62,-92.07 5493.09,-90.92 5494.67,-97.74"/>
</g>
<!-- Node4&#45;&gt;Node3 -->
<g id="edge4" class="edge">
<title>Node4&#45;&gt;Node3</title>
<path fill="none" stroke="midnightblue" d="M155.64,-67.23C150.19,-57.39 141.2,-41.16 134.28,-28.66"/>
<polygon fill="midnightblue" stroke="midnightblue" points="137.19,-26.68 129.28,-19.63 131.06,-30.07 137.19,-26.68"/>
</g>
</g>
</svg>
        <g id="navigator" transform="translate(0 0)" fill="#404254">
                <rect fill="#f2f5e9" fill-opacity="0.5" stroke="#606060" stroke-width=".5" x="0" y="0" width="60" height="60"/>
                <use id="zoomplus" xlink:href="#zoomPlus" x="17" y="9" onmousedown="handleZoom(evt,'in')"/>
                <use id="zoomminus" xlink:href="#zoomMin" x="42" y="9" onmousedown="handleZoom(evt,'out')"/>
                <use id="reset" xlink:href="#resetDef" x="30" y="36" onmousedown="handleReset()"/>
                <g id="arrowUp" xlink:href="#dirArrow" transform="translate(30 24)" onmousedown="handlePan(0,-1)">
                  <use xlink:href="#rim" fill="#404040">
                        <set attributeName="fill" to="#808080" begin="arrowUp.mouseover" end="arrowUp.mouseout"/>
                  </use>
                  <path fill="none" stroke="white" stroke-width="1.5" d="M0,-3.0v7 M-2.5,-0.5L0,-3.0L2.5,-0.5"/>
                </g>
                <g id="arrowRight" xlink:href="#dirArrow" transform="rotate(90) translate(36 -43)" onmousedown="handlePan(1,0)">
                  <use xlink:href="#rim" fill="#404040">
                        <set attributeName="fill" to="#808080" begin="arrowRight.mouseover" end="arrowRight.mouseout"/>
                  </use>
                  <path fill="none" stroke="white" stroke-width="1.5" d="M0,-3.0v7 M-2.5,-0.5L0,-3.0L2.5,-0.5"/>
                </g>
                <g id="arrowDown" xlink:href="#dirArrow" transform="rotate(180) translate(-30 -48)" onmousedown="handlePan(0,1)">
                  <use xlink:href="#rim" fill="#404040">
                        <set attributeName="fill" to="#808080" begin="arrowDown.mouseover" end="arrowDown.mouseout"/>
                  </use>
                  <path fill="none" stroke="white" stroke-width="1.5" d="M0,-3.0v7 M-2.5,-0.5L0,-3.0L2.5,-0.5"/>
                </g>
                <g id="arrowLeft" xlink:href="#dirArrow" transform="rotate(270) translate(-36 17)" onmousedown="handlePan(-1,0)">
                  <use xlink:href="#rim" fill="#404040">
                        <set attributeName="fill" to="#808080" begin="arrowLeft.mouseover" end="arrowLeft.mouseout"/>
                  </use>
                  <path fill="none" stroke="white" stroke-width="1.5" d="M0,-3.0v7 M-2.5,-0.5L0,-3.0L2.5,-0.5"/>
                </g>
        </g>
        <svg viewBox="0 0 15 15" width="100%" height="30px" preserveAspectRatio="xMaxYMin meet">
         <g id="arrow_out" transform="scale(0.3 0.3)">
          <a xlink:href="d__gameover_8cpp__incl_org.svg" target="_base">
           <rect id="button" ry="5" rx="5" y="6" x="6" height="38" width="38"
                fill="#f2f5e9" fill-opacity="0.5" stroke="#606060" stroke-width="1.0"/>
           <path id="arrow"
             d="M 11.500037,31.436501 C 11.940474,20.09759 22.043105,11.32322 32.158766,21.979434 L 37.068811,17.246167 C 37.068811,17.246167 37.088388,32 37.088388,32 L 22.160133,31.978069 C 22.160133,31.978069 26.997745,27.140456 26.997745,27.140456 C 18.528582,18.264221 13.291696,25.230495 11.500037,31.436501 z"
             style="fill:#404040;"/>
          </a>
         </g>
        </svg>
</svg>
