<?xml version="1.0" encoding="UTF-8" standalone="no"?>
<!DOCTYPE svg PUBLIC "-//W3C//DTD SVG 1.1//EN"
 "http://www.w3.org/Graphics/SVG/1.1/DTD/svg11.dtd">
<!-- Generated by graphviz version 2.47.0 (20210316.2052)
 -->
<!-- Title: src/d/d_kyeff.cpp Pages: 1 -->
<svg width="1065pt" height="151pt"
 viewBox="0.00 0.00 1065.00 151.00" xmlns="http://www.w3.org/2000/svg" xmlns:xlink="http://www.w3.org/1999/xlink">
<g id="graph0" class="graph" transform="scale(1 1) rotate(0) translate(4 147)">
<title>src/d/d_kyeff.cpp</title>
<polygon fill="white" stroke="transparent" points="-4,4 -4,-147 1061,-147 1061,4 -4,4"/>
<!-- Node1 -->
<g id="node1" class="node">
<title>Node1</title>
<g id="a_node1"><a xlink:title=" ">
<polygon fill="#bfbfbf" stroke="black" points="347.5,-123.5 347.5,-142.5 437.5,-142.5 437.5,-123.5 347.5,-123.5"/>
<text text-anchor="middle" x="392.5" y="-130.5" font-family="Helvetica,sans-Serif" font-size="10.00">src/d/d_kyeff.cpp</text>
</a>
</g>
</g>
<!-- Node2 -->
<g id="node2" class="node">
<title>Node2</title>
<g id="a_node2"><a xlink:href="dol2asm_8h.html" target="_top" xlink:title=" ">
<polygon fill="white" stroke="black" points="0,-62 0,-81 61,-81 61,-62 0,-62"/>
<text text-anchor="middle" x="30.5" y="-69" font-family="Helvetica,sans-Serif" font-size="10.00">dol2asm.h</text>
</a>
</g>
</g>
<!-- Node1&#45;&gt;Node2 -->
<g id="edge1" class="edge">
<title>Node1&#45;&gt;Node2</title>
<path fill="none" stroke="midnightblue" d="M347.43,-128.05C285.57,-122.07 171.11,-109.02 75.5,-87 71.85,-86.16 68.06,-85.16 64.31,-84.08"/>
<polygon fill="midnightblue" stroke="midnightblue" points="65.16,-80.68 54.58,-81.09 63.11,-87.37 65.16,-80.68"/>
</g>
<!-- Node3 -->
<g id="node3" class="node">
<title>Node3</title>
<g id="a_node3"><a xlink:href="types_8h.html" target="_top" xlink:title=" ">
<polygon fill="white" stroke="black" points="79,-0.5 79,-19.5 160,-19.5 160,-0.5 79,-0.5"/>
<text text-anchor="middle" x="119.5" y="-7.5" font-family="Helvetica,sans-Serif" font-size="10.00">dolphin/types.h</text>
</a>
</g>
</g>
<!-- Node1&#45;&gt;Node3 -->
<g id="edge2" class="edge">
<title>Node1&#45;&gt;Node3</title>
<path fill="none" stroke="midnightblue" d="M347.33,-131.64C275.32,-130 139.54,-122.19 109.5,-87 95.91,-71.07 102.8,-46.01 110.13,-29.07"/>
<polygon fill="midnightblue" stroke="midnightblue" points="113.44,-30.25 114.58,-19.71 107.12,-27.25 113.44,-30.25"/>
</g>
<!-- Node4 -->
<g id="node4" class="node">
<title>Node4</title>
<g id="a_node4"><a xlink:href="d__kyeff_8h.html" target="_top" xlink:title=" ">
<polygon fill="white" stroke="black" points="118,-62 118,-81 181,-81 181,-62 118,-62"/>
<text text-anchor="middle" x="149.5" y="-69" font-family="Helvetica,sans-Serif" font-size="10.00">d/d_kyeff.h</text>
</a>
</g>
</g>
<!-- Node1&#45;&gt;Node4 -->
<g id="edge3" class="edge">
<title>Node1&#45;&gt;Node4</title>
<path fill="none" stroke="midnightblue" d="M347.18,-123.53C305.98,-115.45 243.68,-102.27 190.5,-87 187.71,-86.2 184.83,-85.31 181.96,-84.38"/>
<polygon fill="midnightblue" stroke="midnightblue" points="182.92,-81.01 172.33,-81.12 180.68,-87.64 182.92,-81.01"/>
</g>
<!-- Node5 -->
<g id="node5" class="node">
<title>Node5</title>
<g id="a_node5"><a xlink:title=" ">
<polygon fill="white" stroke="#bfbfbf" points="199.5,-56.5 199.5,-86.5 317.5,-86.5 317.5,-56.5 199.5,-56.5"/>
<text text-anchor="start" x="207.5" y="-74.5" font-family="Helvetica,sans-Serif" font-size="10.00">asm/d/d_kyeff/dKyeff</text>
<text text-anchor="middle" x="258.5" y="-63.5" font-family="Helvetica,sans-Serif" font-size="10.00">_Draw__FP8dKyeff_c.s</text>
</a>
</g>
</g>
<!-- Node1&#45;&gt;Node5 -->
<g id="edge5" class="edge">
<title>Node1&#45;&gt;Node5</title>
<path fill="none" stroke="midnightblue" d="M373.3,-123.48C354.13,-114.96 324.08,-101.62 299.53,-90.72"/>
<polygon fill="midnightblue" stroke="midnightblue" points="300.64,-87.38 290.08,-86.52 297.8,-93.78 300.64,-87.38"/>
</g>
<!-- Node6 -->
<g id="node6" class="node">
<title>Node6</title>
<g id="a_node6"><a xlink:title=" ">
<polygon fill="white" stroke="#bfbfbf" points="335.5,-56.5 335.5,-86.5 449.5,-86.5 449.5,-56.5 335.5,-56.5"/>
<text text-anchor="start" x="343.5" y="-74.5" font-family="Helvetica,sans-Serif" font-size="10.00">asm/d/d_kyeff/execute</text>
<text text-anchor="middle" x="392.5" y="-63.5" font-family="Helvetica,sans-Serif" font-size="10.00">__8dKyeff_cFv.s</text>
</a>
</g>
</g>
<!-- Node1&#45;&gt;Node6 -->
<g id="edge6" class="edge">
<title>Node1&#45;&gt;Node6</title>
<path fill="none" stroke="midnightblue" d="M392.5,-123.48C392.5,-116.47 392.5,-106.19 392.5,-96.7"/>
<polygon fill="midnightblue" stroke="midnightblue" points="396,-96.52 392.5,-86.52 389,-96.52 396,-96.52"/>
</g>
<!-- Node7 -->
<g id="node7" class="node">
<title>Node7</title>
<g id="a_node7"><a xlink:title=" ">
<polygon fill="white" stroke="#bfbfbf" points="467.5,-56.5 467.5,-86.5 597.5,-86.5 597.5,-56.5 467.5,-56.5"/>
<text text-anchor="start" x="475.5" y="-74.5" font-family="Helvetica,sans-Serif" font-size="10.00">asm/d/d_kyeff/dKyeff</text>
<text text-anchor="middle" x="532.5" y="-63.5" font-family="Helvetica,sans-Serif" font-size="10.00">_Execute__FP8dKyeff_c.s</text>
</a>
</g>
</g>
<!-- Node1&#45;&gt;Node7 -->
<g id="edge7" class="edge">
<title>Node1&#45;&gt;Node7</title>
<path fill="none" stroke="midnightblue" d="M412.56,-123.48C432.67,-114.93 464.26,-101.5 489.97,-90.57"/>
<polygon fill="midnightblue" stroke="midnightblue" points="491.67,-93.66 499.5,-86.52 488.93,-87.21 491.67,-93.66"/>
</g>
<!-- Node8 -->
<g id="node8" class="node">
<title>Node8</title>
<g id="a_node8"><a xlink:title=" ">
<polygon fill="white" stroke="#bfbfbf" points="616,-56.5 616,-86.5 747,-86.5 747,-56.5 616,-56.5"/>
<text text-anchor="start" x="624" y="-74.5" font-family="Helvetica,sans-Serif" font-size="10.00">asm/d/d_kyeff/dKyeff</text>
<text text-anchor="middle" x="681.5" y="-63.5" font-family="Helvetica,sans-Serif" font-size="10.00">_IsDelete__FP8dKyeff_c.s</text>
</a>
</g>
</g>
<!-- Node1&#45;&gt;Node8 -->
<g id="edge8" class="edge">
<title>Node1&#45;&gt;Node8</title>
<path fill="none" stroke="midnightblue" d="M433.91,-123.48C478.65,-114.26 550.9,-99.39 605.84,-88.08"/>
<polygon fill="midnightblue" stroke="midnightblue" points="606.79,-91.45 615.88,-86.01 605.38,-84.6 606.79,-91.45"/>
</g>
<!-- Node9 -->
<g id="node9" class="node">
<title>Node9</title>
<g id="a_node9"><a xlink:title=" ">
<polygon fill="white" stroke="#bfbfbf" points="765,-56.5 765,-86.5 888,-86.5 888,-56.5 765,-56.5"/>
<text text-anchor="start" x="773" y="-74.5" font-family="Helvetica,sans-Serif" font-size="10.00">asm/d/d_kyeff/dKyeff</text>
<text text-anchor="middle" x="826.5" y="-63.5" font-family="Helvetica,sans-Serif" font-size="10.00">_Delete__FP8dKyeff_c.s</text>
</a>
</g>
</g>
<!-- Node1&#45;&gt;Node9 -->
<g id="edge9" class="edge">
<title>Node1&#45;&gt;Node9</title>
<path fill="none" stroke="midnightblue" d="M437.78,-127.6C504.9,-120.81 634.95,-106.65 754.65,-87.23"/>
<polygon fill="midnightblue" stroke="midnightblue" points="755.41,-90.65 764.71,-85.58 754.28,-83.75 755.41,-90.65"/>
</g>
<!-- Node10 -->
<g id="node10" class="node">
<title>Node10</title>
<g id="a_node10"><a xlink:title=" ">
<polygon fill="white" stroke="#bfbfbf" points="906,-56.5 906,-86.5 1057,-86.5 1057,-56.5 906,-56.5"/>
<text text-anchor="start" x="914" y="-74.5" font-family="Helvetica,sans-Serif" font-size="10.00">asm/d/d_kyeff/dKyeff</text>
<text text-anchor="middle" x="981.5" y="-63.5" font-family="Helvetica,sans-Serif" font-size="10.00">_Create__FP12kankyo_class.s</text>
</a>
</g>
</g>
<!-- Node1&#45;&gt;Node10 -->
<g id="edge10" class="edge">
<title>Node1&#45;&gt;Node10</title>
<path fill="none" stroke="midnightblue" d="M437.56,-129.23C524.31,-123.63 720.73,-109.64 895.82,-87.15"/>
<polygon fill="midnightblue" stroke="midnightblue" points="896.52,-90.59 905.99,-85.84 895.62,-83.65 896.52,-90.59"/>
</g>
<!-- Node4&#45;&gt;Node3 -->
<g id="edge4" class="edge">
<title>Node4&#45;&gt;Node3</title>
<path fill="none" stroke="midnightblue" d="M145.2,-61.98C140.84,-53.32 133.94,-39.65 128.4,-28.65"/>
<polygon fill="midnightblue" stroke="midnightblue" points="131.42,-26.86 123.79,-19.51 125.17,-30.01 131.42,-26.86"/>
</g>
</g>
</svg>
