<?xml version="1.0" encoding="UTF-8" standalone="no"?>
<!DOCTYPE svg PUBLIC "-//W3C//DTD SVG 1.1//EN"
 "http://www.w3.org/Graphics/SVG/1.1/DTD/svg11.dtd">
<!-- Generated by graphviz version 2.47.0 (20210316.2052)
 -->
<!-- Title: src/d/d_ky_thunder.cpp Pages: 1 -->
<!--zoomable 162 -->
<svg id="main" version="1.1" xmlns="http://www.w3.org/2000/svg" xmlns:xlink="http://www.w3.org/1999/xlink" xml:space="preserve" onload="init(evt)">
<style type="text/css"><![CDATA[
.edge:hover path { stroke: red; }
.edge:hover polygon { stroke: red; fill: red; }
]]></style>
<script type="text/javascript"><![CDATA[
var edges = document.getElementsByTagName('g');
if (edges && edges.length) {
  for (var i=0;i<edges.length;i++) {
    if (edges[i].id.substr(0,4)=='edge') {
      edges[i].setAttribute('class','edge');
    }
  }
}
]]></script>
        <defs>
                <circle id="rim" cx="0" cy="0" r="7"/>
                <circle id="rim2" cx="0" cy="0" r="3.5"/>
                <g id="zoomPlus">
                        <use xlink:href="#rim" fill="#404040">
                                <set attributeName="fill" to="#808080" begin="zoomplus.mouseover" end="zoomplus.mouseout"/>
                        </use>
                        <path d="M-4,0h8M0,-4v8" fill="none" stroke="white" stroke-width="1.5" pointer-events="none"/>
                </g>
                <g id="zoomMin">
                        <use xlink:href="#rim" fill="#404040">
                                <set attributeName="fill" to="#808080" begin="zoomminus.mouseover" end="zoomminus.mouseout"/>
                        </use>
                        <path d="M-4,0h8" fill="none" stroke="white" stroke-width="1.5" pointer-events="none"/>
                </g>
                <g id="dirArrow">
                        <path fill="none" stroke="white" stroke-width="1.5" d="M0,-3.0v7 M-2.5,-0.5L0,-3.0L2.5,-0.5"/>
                </g>
               <g id="resetDef">
                       <use xlink:href="#rim2" fill="#404040">
                               <set attributeName="fill" to="#808080" begin="reset.mouseover" end="reset.mouseout"/>
                       </use>
               </g>
        </defs>

<script type="text/javascript">
var viewWidth = 1516;
var viewHeight = 162;
var sectionId = 'dynsection-0';
</script>
<script xlink:href="svgpan.js"/>
<svg id="graph" class="graph">
<g id="viewport">
<title>src/d/d_ky_thunder.cpp</title>
<polygon fill="white" stroke="transparent" points="-4,4 -4,-158 1512,-158 1512,4 -4,4"/>
<!-- Node1 -->
<g id="node1" class="node">
<title>Node1</title>
<g id="a_node1"><a xlink:title=" ">
<polygon fill="#bfbfbf" stroke="black" points="521,-134.5 521,-153.5 638,-153.5 638,-134.5 521,-134.5"/>
<text text-anchor="middle" x="579.5" y="-141.5" font-family="Helvetica,sans-Serif" font-size="10.00">src/d/d_ky_thunder.cpp</text>
</a>
</g>
</g>
<!-- Node2 -->
<g id="node2" class="node">
<title>Node2</title>
<g id="a_node2"><a xlink:href="dol2asm_8h.html" target="_top" xlink:title=" ">
<polygon fill="white" stroke="black" points="0,-67.5 0,-86.5 61,-86.5 61,-67.5 0,-67.5"/>
<text text-anchor="middle" x="30.5" y="-74.5" font-family="Helvetica,sans-Serif" font-size="10.00">dol2asm.h</text>
</a>
</g>
</g>
<!-- Node1&#45;&gt;Node2 -->
<g id="edge1" class="edge">
<title>Node1&#45;&gt;Node2</title>
<path fill="none" stroke="midnightblue" d="M520.62,-143.95C425.45,-144.11 232.61,-138.73 75.5,-98 68.87,-96.28 61.99,-93.68 55.66,-90.92"/>
<polygon fill="midnightblue" stroke="midnightblue" points="56.82,-87.6 46.28,-86.55 53.87,-93.95 56.82,-87.6"/>
</g>
<!-- Node3 -->
<g id="node3" class="node">
<title>Node3</title>
<g id="a_node3"><a xlink:href="types_8h.html" target="_top" xlink:title=" ">
<polygon fill="white" stroke="black" points="85,-0.5 85,-19.5 166,-19.5 166,-0.5 85,-0.5"/>
<text text-anchor="middle" x="125.5" y="-7.5" font-family="Helvetica,sans-Serif" font-size="10.00">dolphin/types.h</text>
</a>
</g>
</g>
<!-- Node1&#45;&gt;Node3 -->
<g id="edge2" class="edge">
<title>Node1&#45;&gt;Node3</title>
<path fill="none" stroke="midnightblue" d="M520.77,-141.71C400.63,-138.47 135.75,-127.97 108.5,-98 91.23,-79 103.69,-47.82 114.46,-28.4"/>
<polygon fill="midnightblue" stroke="midnightblue" points="117.54,-30.07 119.63,-19.68 111.52,-26.5 117.54,-30.07"/>
</g>
<!-- Node4 -->
<g id="node4" class="node">
<title>Node4</title>
<g id="a_node4"><a xlink:href="d__ky__thunder_8h.html" target="_top" xlink:title=" ">
<polygon fill="white" stroke="black" points="117.5,-67.5 117.5,-86.5 207.5,-86.5 207.5,-67.5 117.5,-67.5"/>
<text text-anchor="middle" x="162.5" y="-74.5" font-family="Helvetica,sans-Serif" font-size="10.00">d/d_ky_thunder.h</text>
</a>
</g>
</g>
<!-- Node1&#45;&gt;Node4 -->
<g id="edge3" class="edge">
<title>Node1&#45;&gt;Node4</title>
<path fill="none" stroke="midnightblue" d="M520.78,-139.77C448.57,-134.87 322.63,-123.31 217.5,-98 209.07,-95.97 200.15,-93.07 192.01,-90.11"/>
<polygon fill="midnightblue" stroke="midnightblue" points="193.13,-86.79 182.54,-86.52 190.65,-93.34 193.13,-86.79"/>
</g>
<!-- Node5 -->
<g id="node5" class="node">
<title>Node5</title>
<g id="a_node5"><a xlink:title=" ">
<polygon fill="white" stroke="#bfbfbf" points="226,-62 226,-92 387,-92 387,-62 226,-62"/>
<text text-anchor="start" x="234" y="-80" font-family="Helvetica,sans-Serif" font-size="10.00">asm/d/d_ky_thunder</text>
<text text-anchor="middle" x="306.5" y="-69" font-family="Helvetica,sans-Serif" font-size="10.00">/createHeap__10dThunder_cFv.s</text>
</a>
</g>
</g>
<!-- Node1&#45;&gt;Node5 -->
<g id="edge5" class="edge">
<title>Node1&#45;&gt;Node5</title>
<path fill="none" stroke="midnightblue" d="M543.53,-134.44C500.87,-124.28 428.8,-107.12 375.31,-94.38"/>
<polygon fill="midnightblue" stroke="midnightblue" points="376.09,-90.97 365.55,-92.06 374.47,-97.78 376.09,-90.97"/>
</g>
<!-- Node6 -->
<g id="node6" class="node">
<title>Node6</title>
<g id="a_node6"><a xlink:title=" ">
<polygon fill="white" stroke="#bfbfbf" points="405.5,-62 405.5,-92 565.5,-92 565.5,-62 405.5,-62"/>
<text text-anchor="start" x="413.5" y="-80" font-family="Helvetica,sans-Serif" font-size="10.00">asm/d/d_ky_thunder</text>
<text text-anchor="middle" x="485.5" y="-69" font-family="Helvetica,sans-Serif" font-size="10.00">/adjustHeap__10dThunder_cFv.s</text>
</a>
</g>
</g>
<!-- Node1&#45;&gt;Node6 -->
<g id="edge6" class="edge">
<title>Node1&#45;&gt;Node6</title>
<path fill="none" stroke="midnightblue" d="M566.82,-134.23C553.39,-124.94 531.72,-109.96 514.13,-97.8"/>
<polygon fill="midnightblue" stroke="midnightblue" points="516.09,-94.9 505.87,-92.09 512.11,-100.66 516.09,-94.9"/>
</g>
<!-- Node7 -->
<g id="node7" class="node">
<title>Node7</title>
<g id="a_node7"><a xlink:title=" ">
<polygon fill="white" stroke="#bfbfbf" points="583.5,-62 583.5,-92 763.5,-92 763.5,-62 583.5,-62"/>
<text text-anchor="start" x="591.5" y="-80" font-family="Helvetica,sans-Serif" font-size="10.00">asm/d/d_ky_thunder</text>
<text text-anchor="middle" x="673.5" y="-69" font-family="Helvetica,sans-Serif" font-size="10.00">/dThunder_Draw__FP10dThunder_c.s</text>
</a>
</g>
</g>
<!-- Node1&#45;&gt;Node7 -->
<g id="edge7" class="edge">
<title>Node1&#45;&gt;Node7</title>
<path fill="none" stroke="midnightblue" d="M592.18,-134.23C605.61,-124.94 627.28,-109.96 644.87,-97.8"/>
<polygon fill="midnightblue" stroke="midnightblue" points="646.89,-100.66 653.13,-92.09 642.91,-94.9 646.89,-100.66"/>
</g>
<!-- Node8 -->
<g id="node8" class="node">
<title>Node8</title>
<g id="a_node8"><a xlink:title=" ">
<polygon fill="white" stroke="#bfbfbf" points="781.5,-62 781.5,-92 973.5,-92 973.5,-62 781.5,-62"/>
<text text-anchor="start" x="789.5" y="-80" font-family="Helvetica,sans-Serif" font-size="10.00">asm/d/d_ky_thunder</text>
<text text-anchor="middle" x="877.5" y="-69" font-family="Helvetica,sans-Serif" font-size="10.00">/dThunder_Execute__FP10dThunder_c.s</text>
</a>
</g>
</g>
<!-- Node1&#45;&gt;Node8 -->
<g id="edge8" class="edge">
<title>Node1&#45;&gt;Node8</title>
<path fill="none" stroke="midnightblue" d="M618.76,-134.44C665.53,-124.24 744.65,-106.98 803.12,-94.22"/>
<polygon fill="midnightblue" stroke="midnightblue" points="804.02,-97.61 813.04,-92.06 802.53,-90.77 804.02,-97.61"/>
</g>
<!-- Node9 -->
<g id="node9" class="node">
<title>Node9</title>
<g id="a_node9"><a xlink:title=" ">
<polygon fill="white" stroke="#bfbfbf" points="992,-62 992,-92 1177,-92 1177,-62 992,-62"/>
<text text-anchor="start" x="1000" y="-80" font-family="Helvetica,sans-Serif" font-size="10.00">asm/d/d_ky_thunder</text>
<text text-anchor="middle" x="1084.5" y="-69" font-family="Helvetica,sans-Serif" font-size="10.00">/dThunder_Delete__FP10dThunder_c.s</text>
</a>
</g>
</g>
<!-- Node1&#45;&gt;Node9 -->
<g id="edge9" class="edge">
<title>Node1&#45;&gt;Node9</title>
<path fill="none" stroke="midnightblue" d="M638.1,-137.98C716.71,-130.91 860.55,-116.73 982.5,-98 990.49,-96.77 998.8,-95.36 1007.09,-93.87"/>
<polygon fill="midnightblue" stroke="midnightblue" points="1007.95,-97.27 1017.15,-92.02 1006.68,-90.39 1007.95,-97.27"/>
</g>
<!-- Node10 -->
<g id="node10" class="node">
<title>Node10</title>
<g id="a_node10"><a xlink:title=" ">
<polygon fill="white" stroke="#bfbfbf" points="1194.5,-56.5 1194.5,-97.5 1352.5,-97.5 1352.5,-56.5 1194.5,-56.5"/>
<text text-anchor="start" x="1202.5" y="-85.5" font-family="Helvetica,sans-Serif" font-size="10.00">asm/d/d_ky_thunder</text>
<text text-anchor="start" x="1202.5" y="-74.5" font-family="Helvetica,sans-Serif" font-size="10.00">/dThunder_Create__FP12kankyo</text>
<text text-anchor="middle" x="1273.5" y="-63.5" font-family="Helvetica,sans-Serif" font-size="10.00">_class.s</text>
</a>
</g>
</g>
<!-- Node1&#45;&gt;Node10 -->
<g id="edge10" class="edge">
<title>Node1&#45;&gt;Node10</title>
<path fill="none" stroke="midnightblue" d="M638,-141.62C744.89,-138.44 978.97,-128.52 1184.35,-98.22"/>
<polygon fill="midnightblue" stroke="midnightblue" points="1185.04,-101.66 1194.41,-96.72 1184,-94.74 1185.04,-101.66"/>
</g>
<!-- Node11 -->
<g id="node11" class="node">
<title>Node11</title>
<g id="a_node11"><a xlink:title=" ">
<polygon fill="white" stroke="#bfbfbf" points="1371,-62 1371,-92 1508,-92 1508,-62 1371,-62"/>
<text text-anchor="start" x="1379" y="-80" font-family="Helvetica,sans-Serif" font-size="10.00">asm/d/d_ky_thunder</text>
<text text-anchor="middle" x="1439.5" y="-69" font-family="Helvetica,sans-Serif" font-size="10.00">/create__10dThunder_cFv.s</text>
</a>
</g>
</g>
<!-- Node1&#45;&gt;Node11 -->
<g id="edge11" class="edge">
<title>Node1&#45;&gt;Node11</title>
<path fill="none" stroke="midnightblue" d="M638.28,-143.48C769.07,-143.72 1093.76,-139.63 1361.5,-98 1367.76,-97.03 1374.24,-95.77 1380.67,-94.37"/>
<polygon fill="midnightblue" stroke="midnightblue" points="1381.75,-97.71 1390.7,-92.05 1380.17,-90.89 1381.75,-97.71"/>
</g>
<!-- Node4&#45;&gt;Node3 -->
<g id="edge4" class="edge">
<title>Node4&#45;&gt;Node3</title>
<path fill="none" stroke="midnightblue" d="M157.51,-67.23C151.91,-57.39 142.67,-41.16 135.55,-28.66"/>
<polygon fill="midnightblue" stroke="midnightblue" points="138.4,-26.59 130.41,-19.63 132.32,-30.05 138.4,-26.59"/>
</g>
</g>
</svg>
        <g id="navigator" transform="translate(0 0)" fill="#404254">
                <rect fill="#f2f5e9" fill-opacity="0.5" stroke="#606060" stroke-width=".5" x="0" y="0" width="60" height="60"/>
                <use id="zoomplus" xlink:href="#zoomPlus" x="17" y="9" onmousedown="handleZoom(evt,'in')"/>
                <use id="zoomminus" xlink:href="#zoomMin" x="42" y="9" onmousedown="handleZoom(evt,'out')"/>
                <use id="reset" xlink:href="#resetDef" x="30" y="36" onmousedown="handleReset()"/>
                <g id="arrowUp" xlink:href="#dirArrow" transform="translate(30 24)" onmousedown="handlePan(0,-1)">
                  <use xlink:href="#rim" fill="#404040">
                        <set attributeName="fill" to="#808080" begin="arrowUp.mouseover" end="arrowUp.mouseout"/>
                  </use>
                  <path fill="none" stroke="white" stroke-width="1.5" d="M0,-3.0v7 M-2.5,-0.5L0,-3.0L2.5,-0.5"/>
                </g>
                <g id="arrowRight" xlink:href="#dirArrow" transform="rotate(90) translate(36 -43)" onmousedown="handlePan(1,0)">
                  <use xlink:href="#rim" fill="#404040">
                        <set attributeName="fill" to="#808080" begin="arrowRight.mouseover" end="arrowRight.mouseout"/>
                  </use>
                  <path fill="none" stroke="white" stroke-width="1.5" d="M0,-3.0v7 M-2.5,-0.5L0,-3.0L2.5,-0.5"/>
                </g>
                <g id="arrowDown" xlink:href="#dirArrow" transform="rotate(180) translate(-30 -48)" onmousedown="handlePan(0,1)">
                  <use xlink:href="#rim" fill="#404040">
                        <set attributeName="fill" to="#808080" begin="arrowDown.mouseover" end="arrowDown.mouseout"/>
                  </use>
                  <path fill="none" stroke="white" stroke-width="1.5" d="M0,-3.0v7 M-2.5,-0.5L0,-3.0L2.5,-0.5"/>
                </g>
                <g id="arrowLeft" xlink:href="#dirArrow" transform="rotate(270) translate(-36 17)" onmousedown="handlePan(-1,0)">
                  <use xlink:href="#rim" fill="#404040">
                        <set attributeName="fill" to="#808080" begin="arrowLeft.mouseover" end="arrowLeft.mouseout"/>
                  </use>
                  <path fill="none" stroke="white" stroke-width="1.5" d="M0,-3.0v7 M-2.5,-0.5L0,-3.0L2.5,-0.5"/>
                </g>
        </g>
        <svg viewBox="0 0 15 15" width="100%" height="30px" preserveAspectRatio="xMaxYMin meet">
         <g id="arrow_out" transform="scale(0.3 0.3)">
          <a xlink:href="d__ky__thunder_8cpp__incl_org.svg" target="_base">
           <rect id="button" ry="5" rx="5" y="6" x="6" height="38" width="38"
                fill="#f2f5e9" fill-opacity="0.5" stroke="#606060" stroke-width="1.0"/>
           <path id="arrow"
             d="M 11.500037,31.436501 C 11.940474,20.09759 22.043105,11.32322 32.158766,21.979434 L 37.068811,17.246167 C 37.068811,17.246167 37.088388,32 37.088388,32 L 22.160133,31.978069 C 22.160133,31.978069 26.997745,27.140456 26.997745,27.140456 C 18.528582,18.264221 13.291696,25.230495 11.500037,31.436501 z"
             style="fill:#404040;"/>
          </a>
         </g>
        </svg>
</svg>
