<?xml version="1.0" encoding="UTF-8" standalone="no"?>
<!DOCTYPE svg PUBLIC "-//W3C//DTD SVG 1.1//EN"
 "http://www.w3.org/Graphics/SVG/1.1/DTD/svg11.dtd">
<!-- Generated by graphviz version 2.47.0 (20210316.2052)
 -->
<!-- Title: src/d/kankyo/d_kankyo_data.cpp Pages: 1 -->
<!--zoomable 173 -->
<svg id="main" version="1.1" xmlns="http://www.w3.org/2000/svg" xmlns:xlink="http://www.w3.org/1999/xlink" xml:space="preserve" onload="init(evt)">
<style type="text/css"><![CDATA[
.edge:hover path { stroke: red; }
.edge:hover polygon { stroke: red; fill: red; }
]]></style>
<script type="text/javascript"><![CDATA[
var edges = document.getElementsByTagName('g');
if (edges && edges.length) {
  for (var i=0;i<edges.length;i++) {
    if (edges[i].id.substr(0,4)=='edge') {
      edges[i].setAttribute('class','edge');
    }
  }
}
]]></script>
        <defs>
                <circle id="rim" cx="0" cy="0" r="7"/>
                <circle id="rim2" cx="0" cy="0" r="3.5"/>
                <g id="zoomPlus">
                        <use xlink:href="#rim" fill="#404040">
                                <set attributeName="fill" to="#808080" begin="zoomplus.mouseover" end="zoomplus.mouseout"/>
                        </use>
                        <path d="M-4,0h8M0,-4v8" fill="none" stroke="white" stroke-width="1.5" pointer-events="none"/>
                </g>
                <g id="zoomMin">
                        <use xlink:href="#rim" fill="#404040">
                                <set attributeName="fill" to="#808080" begin="zoomminus.mouseover" end="zoomminus.mouseout"/>
                        </use>
                        <path d="M-4,0h8" fill="none" stroke="white" stroke-width="1.5" pointer-events="none"/>
                </g>
                <g id="dirArrow">
                        <path fill="none" stroke="white" stroke-width="1.5" d="M0,-3.0v7 M-2.5,-0.5L0,-3.0L2.5,-0.5"/>
                </g>
               <g id="resetDef">
                       <use xlink:href="#rim2" fill="#404040">
                               <set attributeName="fill" to="#808080" begin="reset.mouseover" end="reset.mouseout"/>
                       </use>
               </g>
        </defs>

<script type="text/javascript">
var viewWidth = 2106;
var viewHeight = 173;
var sectionId = 'dynsection-0';
</script>
<script xlink:href="svgpan.js"/>
<svg id="graph" class="graph">
<g id="viewport">
<title>src/d/kankyo/d_kankyo_data.cpp</title>
<polygon fill="white" stroke="transparent" points="-4,4 -4,-169 2102,-169 2102,4 -4,4"/>
<!-- Node1 -->
<g id="node1" class="node">
<title>Node1</title>
<g id="a_node1"><a xlink:title=" ">
<polygon fill="#bfbfbf" stroke="black" points="959.5,-134.5 959.5,-164.5 1075.5,-164.5 1075.5,-134.5 959.5,-134.5"/>
<text text-anchor="start" x="967.5" y="-152.5" font-family="Helvetica,sans-Serif" font-size="10.00">src/d/kankyo/d_kankyo</text>
<text text-anchor="middle" x="1017.5" y="-141.5" font-family="Helvetica,sans-Serif" font-size="10.00">_data.cpp</text>
</a>
</g>
</g>
<!-- Node2 -->
<g id="node2" class="node">
<title>Node2</title>
<g id="a_node2"><a xlink:href="dol2asm_8h.html" target="_top" xlink:title=" ">
<polygon fill="white" stroke="black" points="0,-67.5 0,-86.5 61,-86.5 61,-67.5 0,-67.5"/>
<text text-anchor="middle" x="30.5" y="-74.5" font-family="Helvetica,sans-Serif" font-size="10.00">dol2asm.h</text>
</a>
</g>
</g>
<!-- Node1&#45;&gt;Node2 -->
<g id="edge1" class="edge">
<title>Node1&#45;&gt;Node2</title>
<path fill="none" stroke="midnightblue" d="M959.49,-148.14C781.43,-146.61 244.59,-138.64 75.5,-98 68.84,-96.4 61.95,-93.85 55.62,-91.09"/>
<polygon fill="midnightblue" stroke="midnightblue" points="56.79,-87.77 46.25,-86.7 53.82,-94.11 56.79,-87.77"/>
</g>
<!-- Node3 -->
<g id="node3" class="node">
<title>Node3</title>
<g id="a_node3"><a xlink:href="types_8h.html" target="_top" xlink:title=" ">
<polygon fill="white" stroke="black" points="96,-0.5 96,-19.5 177,-19.5 177,-0.5 96,-0.5"/>
<text text-anchor="middle" x="136.5" y="-7.5" font-family="Helvetica,sans-Serif" font-size="10.00">dolphin/types.h</text>
</a>
</g>
</g>
<!-- Node1&#45;&gt;Node3 -->
<g id="edge2" class="edge">
<title>Node1&#45;&gt;Node3</title>
<path fill="none" stroke="midnightblue" d="M959.39,-147.44C763.62,-143.6 138.76,-128.93 109.5,-98 91.21,-78.66 108.65,-47.14 122.74,-27.81"/>
<polygon fill="midnightblue" stroke="midnightblue" points="125.69,-29.71 129.02,-19.65 120.15,-25.44 125.69,-29.71"/>
</g>
<!-- Node4 -->
<g id="node4" class="node">
<title>Node4</title>
<g id="a_node4"><a xlink:href="d__kankyo__data_8h.html" target="_top" xlink:title=" ">
<polygon fill="white" stroke="black" points="118,-67.5 118,-86.5 249,-86.5 249,-67.5 118,-67.5"/>
<text text-anchor="middle" x="183.5" y="-74.5" font-family="Helvetica,sans-Serif" font-size="10.00">d/kankyo/d_kankyo_data.h</text>
</a>
</g>
</g>
<!-- Node1&#45;&gt;Node4 -->
<g id="edge3" class="edge">
<title>Node1&#45;&gt;Node4</title>
<path fill="none" stroke="midnightblue" d="M959.46,-148.46C831.81,-147.55 517.47,-140.73 258.5,-98 245.83,-95.91 232.19,-92.6 220.07,-89.28"/>
<polygon fill="midnightblue" stroke="midnightblue" points="220.88,-85.87 210.3,-86.5 218.97,-92.6 220.88,-85.87"/>
</g>
<!-- Node5 -->
<g id="node5" class="node">
<title>Node5</title>
<g id="a_node5"><a xlink:title=" ">
<polygon fill="white" stroke="#bfbfbf" points="267.5,-62 267.5,-92 425.5,-92 425.5,-62 267.5,-62"/>
<text text-anchor="start" x="275.5" y="-80" font-family="Helvetica,sans-Serif" font-size="10.00">asm/d/kankyo/d_kankyo</text>
<text text-anchor="middle" x="346.5" y="-69" font-family="Helvetica,sans-Serif" font-size="10.00">_data/dKyd_dmpalet_getp__Fv.s</text>
</a>
</g>
</g>
<!-- Node1&#45;&gt;Node5 -->
<g id="edge5" class="edge">
<title>Node1&#45;&gt;Node5</title>
<path fill="none" stroke="midnightblue" d="M959.26,-146.1C853.98,-141.18 625.22,-127.79 434.5,-98 427.48,-96.9 420.18,-95.57 412.92,-94.11"/>
<polygon fill="midnightblue" stroke="midnightblue" points="413.59,-90.67 403.09,-92.06 412.16,-97.53 413.59,-90.67"/>
</g>
<!-- Node6 -->
<g id="node6" class="node">
<title>Node6</title>
<g id="a_node6"><a xlink:title=" ">
<polygon fill="white" stroke="#bfbfbf" points="443.5,-56.5 443.5,-97.5 565.5,-97.5 565.5,-56.5 443.5,-56.5"/>
<text text-anchor="start" x="451.5" y="-85.5" font-family="Helvetica,sans-Serif" font-size="10.00">asm/d/kankyo/d_kankyo</text>
<text text-anchor="start" x="451.5" y="-74.5" font-family="Helvetica,sans-Serif" font-size="10.00">_data/dKyd_dmpselect</text>
<text text-anchor="middle" x="504.5" y="-63.5" font-family="Helvetica,sans-Serif" font-size="10.00">_getp__Fv.s</text>
</a>
</g>
</g>
<!-- Node1&#45;&gt;Node6 -->
<g id="edge6" class="edge">
<title>Node1&#45;&gt;Node6</title>
<path fill="none" stroke="midnightblue" d="M959.33,-144.94C876.2,-139.17 718.59,-125.73 576.06,-98.15"/>
<polygon fill="midnightblue" stroke="midnightblue" points="576.31,-94.63 565.82,-96.14 574.96,-101.5 576.31,-94.63"/>
</g>
<!-- Node7 -->
<g id="node7" class="node">
<title>Node7</title>
<g id="a_node7"><a xlink:title=" ">
<polygon fill="white" stroke="#bfbfbf" points="583.5,-62 583.5,-92 739.5,-92 739.5,-62 583.5,-62"/>
<text text-anchor="start" x="591.5" y="-80" font-family="Helvetica,sans-Serif" font-size="10.00">asm/d/kankyo/d_kankyo</text>
<text text-anchor="middle" x="661.5" y="-69" font-family="Helvetica,sans-Serif" font-size="10.00">_data/dKyd_dmenvr_getp__Fv.s</text>
</a>
</g>
</g>
<!-- Node1&#45;&gt;Node7 -->
<g id="edge7" class="edge">
<title>Node1&#45;&gt;Node7</title>
<path fill="none" stroke="midnightblue" d="M959.35,-138.19C904.98,-128.39 821.58,-112.98 749.5,-98 743.8,-96.82 737.9,-95.55 731.98,-94.26"/>
<polygon fill="midnightblue" stroke="midnightblue" points="732.55,-90.8 722.03,-92.07 731.04,-97.64 732.55,-90.8"/>
</g>
<!-- Node8 -->
<g id="node8" class="node">
<title>Node8</title>
<g id="a_node8"><a xlink:title=" ">
<polygon fill="white" stroke="#bfbfbf" points="758,-62 758,-92 919,-92 919,-62 758,-62"/>
<text text-anchor="start" x="766" y="-80" font-family="Helvetica,sans-Serif" font-size="10.00">asm/d/kankyo/d_kankyo</text>
<text text-anchor="middle" x="838.5" y="-69" font-family="Helvetica,sans-Serif" font-size="10.00">_data/dKyd_dmvrbox_getp__Fv.s</text>
</a>
</g>
</g>
<!-- Node1&#45;&gt;Node8 -->
<g id="edge8" class="edge">
<title>Node1&#45;&gt;Node8</title>
<path fill="none" stroke="midnightblue" d="M981.71,-134.4C953.54,-123.31 914.1,-107.78 883.74,-95.82"/>
<polygon fill="midnightblue" stroke="midnightblue" points="884.82,-92.48 874.23,-92.07 882.25,-98.99 884.82,-92.48"/>
</g>
<!-- Node9 -->
<g id="node9" class="node">
<title>Node9</title>
<g id="a_node9"><a xlink:title=" ">
<polygon fill="white" stroke="#bfbfbf" points="937.5,-62 937.5,-92 1097.5,-92 1097.5,-62 937.5,-62"/>
<text text-anchor="start" x="945.5" y="-80" font-family="Helvetica,sans-Serif" font-size="10.00">asm/d/kankyo/d_kankyo</text>
<text text-anchor="middle" x="1017.5" y="-69" font-family="Helvetica,sans-Serif" font-size="10.00">_data/dKyd_schejule_getp__Fv.s</text>
</a>
</g>
</g>
<!-- Node1&#45;&gt;Node9 -->
<g id="edge9" class="edge">
<title>Node1&#45;&gt;Node9</title>
<path fill="none" stroke="midnightblue" d="M1017.5,-134.23C1017.5,-125.16 1017.5,-113.16 1017.5,-102.58"/>
<polygon fill="midnightblue" stroke="midnightblue" points="1021,-102.25 1017.5,-92.25 1014,-102.25 1021,-102.25"/>
</g>
<!-- Node10 -->
<g id="node10" class="node">
<title>Node10</title>
<g id="a_node10"><a xlink:title=" ">
<polygon fill="white" stroke="#bfbfbf" points="1116,-56.5 1116,-97.5 1249,-97.5 1249,-56.5 1116,-56.5"/>
<text text-anchor="start" x="1124" y="-85.5" font-family="Helvetica,sans-Serif" font-size="10.00">asm/d/kankyo/d_kankyo</text>
<text text-anchor="start" x="1124" y="-74.5" font-family="Helvetica,sans-Serif" font-size="10.00">_data/dKyd_schejule_boss</text>
<text text-anchor="middle" x="1182.5" y="-63.5" font-family="Helvetica,sans-Serif" font-size="10.00">_getp__Fv.s</text>
</a>
</g>
</g>
<!-- Node1&#45;&gt;Node10 -->
<g id="edge10" class="edge">
<title>Node1&#45;&gt;Node10</title>
<path fill="none" stroke="midnightblue" d="M1050.49,-134.4C1072.52,-124.99 1102.02,-112.39 1127.55,-101.48"/>
<polygon fill="midnightblue" stroke="midnightblue" points="1128.93,-104.69 1136.75,-97.55 1126.18,-98.26 1128.93,-104.69"/>
</g>
<!-- Node11 -->
<g id="node11" class="node">
<title>Node11</title>
<g id="a_node11"><a xlink:title=" ">
<polygon fill="white" stroke="#bfbfbf" points="1267.5,-56.5 1267.5,-97.5 1389.5,-97.5 1389.5,-56.5 1267.5,-56.5"/>
<text text-anchor="start" x="1275.5" y="-85.5" font-family="Helvetica,sans-Serif" font-size="10.00">asm/d/kankyo/d_kankyo</text>
<text text-anchor="start" x="1275.5" y="-74.5" font-family="Helvetica,sans-Serif" font-size="10.00">_data/dKyd_xfog_table</text>
<text text-anchor="middle" x="1328.5" y="-63.5" font-family="Helvetica,sans-Serif" font-size="10.00">_set__FUc.s</text>
</a>
</g>
</g>
<!-- Node1&#45;&gt;Node11 -->
<g id="edge11" class="edge">
<title>Node1&#45;&gt;Node11</title>
<path fill="none" stroke="midnightblue" d="M1075.71,-137.52C1122.39,-128.43 1189.78,-114.7 1257.5,-98.17"/>
<polygon fill="midnightblue" stroke="midnightblue" points="1258.61,-101.5 1267.49,-95.71 1256.94,-94.7 1258.61,-101.5"/>
</g>
<!-- Node12 -->
<g id="node12" class="node">
<title>Node12</title>
<g id="a_node12"><a xlink:title=" ">
<polygon fill="white" stroke="#bfbfbf" points="1407.5,-56.5 1407.5,-97.5 1529.5,-97.5 1529.5,-56.5 1407.5,-56.5"/>
<text text-anchor="start" x="1415.5" y="-85.5" font-family="Helvetica,sans-Serif" font-size="10.00">asm/d/kankyo/d_kankyo</text>
<text text-anchor="start" x="1415.5" y="-74.5" font-family="Helvetica,sans-Serif" font-size="10.00">_data/dKyd_maple_col</text>
<text text-anchor="middle" x="1468.5" y="-63.5" font-family="Helvetica,sans-Serif" font-size="10.00">_getp__Fv.s</text>
</a>
</g>
</g>
<!-- Node1&#45;&gt;Node12 -->
<g id="edge12" class="edge">
<title>Node1&#45;&gt;Node12</title>
<path fill="none" stroke="midnightblue" d="M1075.71,-143.46C1148.78,-136.54 1278.01,-122.34 1397.14,-98.14"/>
<polygon fill="midnightblue" stroke="midnightblue" points="1398.08,-101.52 1407.17,-96.07 1396.67,-94.66 1398.08,-101.52"/>
</g>
<!-- Node13 -->
<g id="node13" class="node">
<title>Node13</title>
<g id="a_node13"><a xlink:title=" ">
<polygon fill="white" stroke="#bfbfbf" points="1547.5,-56.5 1547.5,-97.5 1669.5,-97.5 1669.5,-56.5 1547.5,-56.5"/>
<text text-anchor="start" x="1555.5" y="-85.5" font-family="Helvetica,sans-Serif" font-size="10.00">asm/d/kankyo/d_kankyo</text>
<text text-anchor="start" x="1555.5" y="-74.5" font-family="Helvetica,sans-Serif" font-size="10.00">_data/dKyd_darkworld</text>
<text text-anchor="middle" x="1608.5" y="-63.5" font-family="Helvetica,sans-Serif" font-size="10.00">_tbl_getp__Fv.s</text>
</a>
</g>
</g>
<!-- Node1&#45;&gt;Node13 -->
<g id="edge13" class="edge">
<title>Node1&#45;&gt;Node13</title>
<path fill="none" stroke="midnightblue" d="M1075.81,-146.3C1170.81,-141.97 1364.86,-129.97 1537.18,-98.08"/>
<polygon fill="midnightblue" stroke="midnightblue" points="1538.01,-101.48 1547.19,-96.2 1536.72,-94.6 1538.01,-101.48"/>
</g>
<!-- Node14 -->
<g id="node14" class="node">
<title>Node14</title>
<g id="a_node14"><a xlink:title=" ">
<polygon fill="white" stroke="#bfbfbf" points="1687.5,-56.5 1687.5,-97.5 1809.5,-97.5 1809.5,-56.5 1687.5,-56.5"/>
<text text-anchor="start" x="1695.5" y="-85.5" font-family="Helvetica,sans-Serif" font-size="10.00">asm/d/kankyo/d_kankyo</text>
<text text-anchor="start" x="1695.5" y="-74.5" font-family="Helvetica,sans-Serif" font-size="10.00">_data/dKyd_light_size</text>
<text text-anchor="middle" x="1748.5" y="-63.5" font-family="Helvetica,sans-Serif" font-size="10.00">_tbl_getp__Fv.s</text>
</a>
</g>
</g>
<!-- Node1&#45;&gt;Node14 -->
<g id="edge14" class="edge">
<title>Node1&#45;&gt;Node14</title>
<path fill="none" stroke="midnightblue" d="M1075.91,-147.98C1190.06,-146.12 1450.66,-137.68 1677.13,-98.06"/>
<polygon fill="midnightblue" stroke="midnightblue" points="1677.97,-101.46 1687.2,-96.27 1676.75,-94.57 1677.97,-101.46"/>
</g>
<!-- Node15 -->
<g id="node15" class="node">
<title>Node15</title>
<g id="a_node15"><a xlink:title=" ">
<polygon fill="white" stroke="#bfbfbf" points="1828,-56.5 1828,-97.5 1955,-97.5 1955,-56.5 1828,-56.5"/>
<text text-anchor="start" x="1836" y="-85.5" font-family="Helvetica,sans-Serif" font-size="10.00">asm/d/kankyo/d_kankyo</text>
<text text-anchor="start" x="1836" y="-74.5" font-family="Helvetica,sans-Serif" font-size="10.00">_data/dKyd_light_tw_size</text>
<text text-anchor="middle" x="1891.5" y="-63.5" font-family="Helvetica,sans-Serif" font-size="10.00">_tbl_getp__Fv.s</text>
</a>
</g>
</g>
<!-- Node1&#45;&gt;Node15 -->
<g id="edge15" class="edge">
<title>Node1&#45;&gt;Node15</title>
<path fill="none" stroke="midnightblue" d="M1075.76,-148.89C1206.96,-148.88 1535.45,-144 1817.94,-97.89"/>
<polygon fill="midnightblue" stroke="midnightblue" points="1818.67,-101.31 1827.97,-96.23 1817.53,-94.41 1818.67,-101.31"/>
</g>
<!-- Node16 -->
<g id="node16" class="node">
<title>Node16</title>
<g id="a_node16"><a xlink:title=" ">
<polygon fill="white" stroke="#bfbfbf" points="1973,-56.5 1973,-97.5 2098,-97.5 2098,-56.5 1973,-56.5"/>
<text text-anchor="start" x="1981" y="-85.5" font-family="Helvetica,sans-Serif" font-size="10.00">asm/d/kankyo/d_kankyo</text>
<text text-anchor="start" x="1981" y="-74.5" font-family="Helvetica,sans-Serif" font-size="10.00">_data/dKyd_BloomInf_tbl</text>
<text text-anchor="middle" x="2035.5" y="-63.5" font-family="Helvetica,sans-Serif" font-size="10.00">_getp__Fi.s</text>
</a>
</g>
</g>
<!-- Node1&#45;&gt;Node16 -->
<g id="edge16" class="edge">
<title>Node1&#45;&gt;Node16</title>
<path fill="none" stroke="midnightblue" d="M1075.6,-147.09C1250.75,-142.56 1772.69,-127.1 1962.8,-98.05"/>
<polygon fill="midnightblue" stroke="midnightblue" points="1963.63,-101.46 1972.95,-96.43 1962.52,-94.55 1963.63,-101.46"/>
</g>
<!-- Node4&#45;&gt;Node3 -->
<g id="edge4" class="edge">
<title>Node4&#45;&gt;Node3</title>
<path fill="none" stroke="midnightblue" d="M177.16,-67.23C169.9,-57.2 157.84,-40.51 148.74,-27.92"/>
<polygon fill="midnightblue" stroke="midnightblue" points="151.43,-25.68 142.74,-19.63 145.76,-29.78 151.43,-25.68"/>
</g>
</g>
</svg>
        <g id="navigator" transform="translate(0 0)" fill="#404254">
                <rect fill="#f2f5e9" fill-opacity="0.5" stroke="#606060" stroke-width=".5" x="0" y="0" width="60" height="60"/>
                <use id="zoomplus" xlink:href="#zoomPlus" x="17" y="9" onmousedown="handleZoom(evt,'in')"/>
                <use id="zoomminus" xlink:href="#zoomMin" x="42" y="9" onmousedown="handleZoom(evt,'out')"/>
                <use id="reset" xlink:href="#resetDef" x="30" y="36" onmousedown="handleReset()"/>
                <g id="arrowUp" xlink:href="#dirArrow" transform="translate(30 24)" onmousedown="handlePan(0,-1)">
                  <use xlink:href="#rim" fill="#404040">
                        <set attributeName="fill" to="#808080" begin="arrowUp.mouseover" end="arrowUp.mouseout"/>
                  </use>
                  <path fill="none" stroke="white" stroke-width="1.5" d="M0,-3.0v7 M-2.5,-0.5L0,-3.0L2.5,-0.5"/>
                </g>
                <g id="arrowRight" xlink:href="#dirArrow" transform="rotate(90) translate(36 -43)" onmousedown="handlePan(1,0)">
                  <use xlink:href="#rim" fill="#404040">
                        <set attributeName="fill" to="#808080" begin="arrowRight.mouseover" end="arrowRight.mouseout"/>
                  </use>
                  <path fill="none" stroke="white" stroke-width="1.5" d="M0,-3.0v7 M-2.5,-0.5L0,-3.0L2.5,-0.5"/>
                </g>
                <g id="arrowDown" xlink:href="#dirArrow" transform="rotate(180) translate(-30 -48)" onmousedown="handlePan(0,1)">
                  <use xlink:href="#rim" fill="#404040">
                        <set attributeName="fill" to="#808080" begin="arrowDown.mouseover" end="arrowDown.mouseout"/>
                  </use>
                  <path fill="none" stroke="white" stroke-width="1.5" d="M0,-3.0v7 M-2.5,-0.5L0,-3.0L2.5,-0.5"/>
                </g>
                <g id="arrowLeft" xlink:href="#dirArrow" transform="rotate(270) translate(-36 17)" onmousedown="handlePan(-1,0)">
                  <use xlink:href="#rim" fill="#404040">
                        <set attributeName="fill" to="#808080" begin="arrowLeft.mouseover" end="arrowLeft.mouseout"/>
                  </use>
                  <path fill="none" stroke="white" stroke-width="1.5" d="M0,-3.0v7 M-2.5,-0.5L0,-3.0L2.5,-0.5"/>
                </g>
        </g>
        <svg viewBox="0 0 15 15" width="100%" height="30px" preserveAspectRatio="xMaxYMin meet">
         <g id="arrow_out" transform="scale(0.3 0.3)">
          <a xlink:href="d__kankyo__data_8cpp__incl_org.svg" target="_base">
           <rect id="button" ry="5" rx="5" y="6" x="6" height="38" width="38"
                fill="#f2f5e9" fill-opacity="0.5" stroke="#606060" stroke-width="1.0"/>
           <path id="arrow"
             d="M 11.500037,31.436501 C 11.940474,20.09759 22.043105,11.32322 32.158766,21.979434 L 37.068811,17.246167 C 37.068811,17.246167 37.088388,32 37.088388,32 L 22.160133,31.978069 C 22.160133,31.978069 26.997745,27.140456 26.997745,27.140456 C 18.528582,18.264221 13.291696,25.230495 11.500037,31.436501 z"
             style="fill:#404040;"/>
          </a>
         </g>
        </svg>
</svg>
