<?xml version="1.0" encoding="UTF-8" standalone="no"?>
<!DOCTYPE svg PUBLIC "-//W3C//DTD SVG 1.1//EN"
 "http://www.w3.org/Graphics/SVG/1.1/DTD/svg11.dtd">
<!-- Generated by graphviz version 2.47.0 (20210316.2052)
 -->
<!-- Title: src/d/menu/d_menu_calibration.cpp Pages: 1 -->
<svg width="4474pt" height="162pt"
 viewBox="0.00 0.00 4473.50 162.00" xmlns="http://www.w3.org/2000/svg" xmlns:xlink="http://www.w3.org/1999/xlink">
<g id="graph0" class="graph" transform="scale(1 1) rotate(0) translate(4 158)">
<title>src/d/menu/d_menu_calibration.cpp</title>
<polygon fill="white" stroke="transparent" points="-4,4 -4,-158 4469.5,-158 4469.5,4 -4,4"/>
<!-- Node1 -->
<g id="node1" class="node">
<title>Node1</title>
<g id="a_node1"><a xlink:title=" ">
<polygon fill="#bfbfbf" stroke="black" points="1995.5,-134.5 1995.5,-153.5 2165.5,-153.5 2165.5,-134.5 1995.5,-134.5"/>
<text text-anchor="middle" x="2080.5" y="-141.5" font-family="Helvetica,sans-Serif" font-size="10.00">src/d/menu/d_menu_calibration.cpp</text>
</a>
</g>
</g>
<!-- Node2 -->
<g id="node2" class="node">
<title>Node2</title>
<g id="a_node2"><a xlink:href="dol2asm_8h.html" target="_top" xlink:title=" ">
<polygon fill="white" stroke="black" points="0,-67.5 0,-86.5 61,-86.5 61,-67.5 0,-67.5"/>
<text text-anchor="middle" x="30.5" y="-74.5" font-family="Helvetica,sans-Serif" font-size="10.00">dol2asm.h</text>
</a>
</g>
</g>
<!-- Node1&#45;&gt;Node2 -->
<g id="edge1" class="edge">
<title>Node1&#45;&gt;Node2</title>
<path fill="none" stroke="midnightblue" d="M1995.29,-143.06C1637.23,-143.07 264.33,-140.29 75.5,-98 68.71,-96.48 61.69,-93.9 55.27,-91.1"/>
<polygon fill="midnightblue" stroke="midnightblue" points="56.34,-87.73 45.8,-86.62 53.35,-94.06 56.34,-87.73"/>
</g>
<!-- Node3 -->
<g id="node3" class="node">
<title>Node3</title>
<g id="a_node3"><a xlink:href="types_8h.html" target="_top" xlink:title=" ">
<polygon fill="white" stroke="black" points="99,-0.5 99,-19.5 180,-19.5 180,-0.5 99,-0.5"/>
<text text-anchor="middle" x="139.5" y="-7.5" font-family="Helvetica,sans-Serif" font-size="10.00">dolphin/types.h</text>
</a>
</g>
</g>
<!-- Node1&#45;&gt;Node3 -->
<g id="edge2" class="edge">
<title>Node1&#45;&gt;Node3</title>
<path fill="none" stroke="midnightblue" d="M1995.2,-142.66C1621.13,-140.99 142.93,-132.2 109.5,-98 90.62,-78.68 109.77,-46.92 124.95,-27.59"/>
<polygon fill="midnightblue" stroke="midnightblue" points="127.82,-29.61 131.49,-19.67 122.42,-25.15 127.82,-29.61"/>
</g>
<!-- Node4 -->
<g id="node4" class="node">
<title>Node4</title>
<g id="a_node4"><a xlink:href="d__menu__calibration_8h.html" target="_top" xlink:title=" ">
<polygon fill="white" stroke="black" points="118,-67.5 118,-86.5 261,-86.5 261,-67.5 118,-67.5"/>
<text text-anchor="middle" x="189.5" y="-74.5" font-family="Helvetica,sans-Serif" font-size="10.00">d/menu/d_menu_calibration.h</text>
</a>
</g>
</g>
<!-- Node1&#45;&gt;Node4 -->
<g id="edge3" class="edge">
<title>Node1&#45;&gt;Node4</title>
<path fill="none" stroke="midnightblue" d="M1995.41,-143.33C1684.46,-144.17 610.17,-143.61 270.5,-98 256.31,-96.1 241.01,-92.68 227.57,-89.21"/>
<polygon fill="midnightblue" stroke="midnightblue" points="228.26,-85.77 217.7,-86.56 226.45,-92.53 228.26,-85.77"/>
</g>
<!-- Node5 -->
<g id="node5" class="node">
<title>Node5</title>
<g id="a_node5"><a xlink:title=" ">
<polygon fill="white" stroke="#bfbfbf" points="279,-62 279,-92 448,-92 448,-62 279,-62"/>
<text text-anchor="start" x="287" y="-80" font-family="Helvetica,sans-Serif" font-size="10.00">asm/d/menu/d_menu_calibration</text>
<text text-anchor="middle" x="363.5" y="-69" font-family="Helvetica,sans-Serif" font-size="10.00">/__dt__19dMenu_Calibration_cFv.s</text>
</a>
</g>
</g>
<!-- Node1&#45;&gt;Node5 -->
<g id="edge5" class="edge">
<title>Node1&#45;&gt;Node5</title>
<path fill="none" stroke="midnightblue" d="M1995.4,-142.68C1705.76,-141.29 759.53,-134.01 457.5,-98 448.95,-96.98 440.03,-95.56 431.24,-93.94"/>
<polygon fill="midnightblue" stroke="midnightblue" points="431.87,-90.5 421.39,-92.04 430.55,-97.37 431.87,-90.5"/>
</g>
<!-- Node6 -->
<g id="node6" class="node">
<title>Node6</title>
<g id="a_node6"><a xlink:title=" ">
<polygon fill="white" stroke="#bfbfbf" points="466,-62 466,-92 645,-92 645,-62 466,-62"/>
<text text-anchor="start" x="474" y="-80" font-family="Helvetica,sans-Serif" font-size="10.00">asm/d/menu/d_menu_calibration</text>
<text text-anchor="middle" x="555.5" y="-69" font-family="Helvetica,sans-Serif" font-size="10.00">/_move__19dMenu_Calibration_cFv.s</text>
</a>
</g>
</g>
<!-- Node1&#45;&gt;Node6 -->
<g id="edge6" class="edge">
<title>Node1&#45;&gt;Node6</title>
<path fill="none" stroke="midnightblue" d="M1995.5,-142.19C1729.71,-139.36 916.54,-128.39 654.5,-98 645.48,-96.95 636.06,-95.51 626.77,-93.88"/>
<polygon fill="midnightblue" stroke="midnightblue" points="627.24,-90.41 616.77,-92.04 625.97,-97.29 627.24,-90.41"/>
</g>
<!-- Node7 -->
<g id="node7" class="node">
<title>Node7</title>
<g id="a_node7"><a xlink:title=" ">
<polygon fill="white" stroke="#bfbfbf" points="663.5,-62 663.5,-92 839.5,-92 839.5,-62 663.5,-62"/>
<text text-anchor="start" x="671.5" y="-80" font-family="Helvetica,sans-Serif" font-size="10.00">asm/d/menu/d_menu_calibration</text>
<text text-anchor="middle" x="751.5" y="-69" font-family="Helvetica,sans-Serif" font-size="10.00">/_draw__19dMenu_Calibration_cFv.s</text>
</a>
</g>
</g>
<!-- Node1&#45;&gt;Node7 -->
<g id="edge7" class="edge">
<title>Node1&#45;&gt;Node7</title>
<path fill="none" stroke="midnightblue" d="M1995.36,-141.74C1754.45,-137.88 1071.09,-124.82 848.5,-98 839.76,-96.95 830.63,-95.51 821.62,-93.9"/>
<polygon fill="midnightblue" stroke="midnightblue" points="822,-90.41 811.53,-92 820.71,-97.29 822,-90.41"/>
</g>
<!-- Node8 -->
<g id="node8" class="node">
<title>Node8</title>
<g id="a_node8"><a xlink:title=" ">
<polygon fill="white" stroke="#bfbfbf" points="857.5,-56.5 857.5,-97.5 1015.5,-97.5 1015.5,-56.5 857.5,-56.5"/>
<text text-anchor="start" x="865.5" y="-85.5" font-family="Helvetica,sans-Serif" font-size="10.00">asm/d/menu/d_menu_calibration</text>
<text text-anchor="start" x="865.5" y="-74.5" font-family="Helvetica,sans-Serif" font-size="10.00">/step1_wait_init__19dMenu</text>
<text text-anchor="middle" x="936.5" y="-63.5" font-family="Helvetica,sans-Serif" font-size="10.00">_Calibration_cFv.s</text>
</a>
</g>
</g>
<!-- Node1&#45;&gt;Node8 -->
<g id="edge8" class="edge">
<title>Node1&#45;&gt;Node8</title>
<path fill="none" stroke="midnightblue" d="M1995.25,-141.36C1782.29,-136.94 1230.12,-123.47 1025.59,-97.97"/>
<polygon fill="midnightblue" stroke="midnightblue" points="1025.9,-94.48 1015.53,-96.67 1025,-101.43 1025.9,-94.48"/>
</g>
<!-- Node9 -->
<g id="node9" class="node">
<title>Node9</title>
<g id="a_node9"><a xlink:title=" ">
<polygon fill="white" stroke="#bfbfbf" points="1033.5,-56.5 1033.5,-97.5 1191.5,-97.5 1191.5,-56.5 1033.5,-56.5"/>
<text text-anchor="start" x="1041.5" y="-85.5" font-family="Helvetica,sans-Serif" font-size="10.00">asm/d/menu/d_menu_calibration</text>
<text text-anchor="start" x="1041.5" y="-74.5" font-family="Helvetica,sans-Serif" font-size="10.00">/step1_wait_move__19dMenu</text>
<text text-anchor="middle" x="1112.5" y="-63.5" font-family="Helvetica,sans-Serif" font-size="10.00">_Calibration_cFv.s</text>
</a>
</g>
</g>
<!-- Node1&#45;&gt;Node9 -->
<g id="edge9" class="edge">
<title>Node1&#45;&gt;Node9</title>
<path fill="none" stroke="midnightblue" d="M1995.4,-143.5C1839.56,-143.36 1497.91,-138.13 1201.61,-98.02"/>
<polygon fill="midnightblue" stroke="midnightblue" points="1201.92,-94.53 1191.54,-96.64 1200.97,-101.46 1201.92,-94.53"/>
</g>
<!-- Node10 -->
<g id="node10" class="node">
<title>Node10</title>
<g id="a_node10"><a xlink:title=" ">
<polygon fill="white" stroke="#bfbfbf" points="1209.5,-56.5 1209.5,-97.5 1367.5,-97.5 1367.5,-56.5 1209.5,-56.5"/>
<text text-anchor="start" x="1217.5" y="-85.5" font-family="Helvetica,sans-Serif" font-size="10.00">asm/d/menu/d_menu_calibration</text>
<text text-anchor="start" x="1217.5" y="-74.5" font-family="Helvetica,sans-Serif" font-size="10.00">/step1_move_init__19dMenu</text>
<text text-anchor="middle" x="1288.5" y="-63.5" font-family="Helvetica,sans-Serif" font-size="10.00">_Calibration_cFv.s</text>
</a>
</g>
</g>
<!-- Node1&#45;&gt;Node10 -->
<g id="edge10" class="edge">
<title>Node1&#45;&gt;Node10</title>
<path fill="none" stroke="midnightblue" d="M1995.25,-141.93C1864.33,-139.32 1605.88,-130.33 1377.7,-98.05"/>
<polygon fill="midnightblue" stroke="midnightblue" points="1377.94,-94.54 1367.54,-96.59 1376.94,-101.47 1377.94,-94.54"/>
</g>
<!-- Node11 -->
<g id="node11" class="node">
<title>Node11</title>
<g id="a_node11"><a xlink:title=" ">
<polygon fill="white" stroke="#bfbfbf" points="1385.5,-56.5 1385.5,-97.5 1543.5,-97.5 1543.5,-56.5 1385.5,-56.5"/>
<text text-anchor="start" x="1393.5" y="-85.5" font-family="Helvetica,sans-Serif" font-size="10.00">asm/d/menu/d_menu_calibration</text>
<text text-anchor="start" x="1393.5" y="-74.5" font-family="Helvetica,sans-Serif" font-size="10.00">/step1_move_move__19dMenu</text>
<text text-anchor="middle" x="1464.5" y="-63.5" font-family="Helvetica,sans-Serif" font-size="10.00">_Calibration_cFv.s</text>
</a>
</g>
</g>
<!-- Node1&#45;&gt;Node11 -->
<g id="edge11" class="edge">
<title>Node1&#45;&gt;Node11</title>
<path fill="none" stroke="midnightblue" d="M1995.48,-139.38C1892.92,-134.2 1715.2,-122.62 1553.68,-98.07"/>
<polygon fill="midnightblue" stroke="midnightblue" points="1553.97,-94.57 1543.55,-96.51 1552.91,-101.49 1553.97,-94.57"/>
</g>
<!-- Node12 -->
<g id="node12" class="node">
<title>Node12</title>
<g id="a_node12"><a xlink:title=" ">
<polygon fill="white" stroke="#bfbfbf" points="1561.5,-56.5 1561.5,-97.5 1719.5,-97.5 1719.5,-56.5 1561.5,-56.5"/>
<text text-anchor="start" x="1569.5" y="-85.5" font-family="Helvetica,sans-Serif" font-size="10.00">asm/d/menu/d_menu_calibration</text>
<text text-anchor="start" x="1569.5" y="-74.5" font-family="Helvetica,sans-Serif" font-size="10.00">/step2_wait_init__19dMenu</text>
<text text-anchor="middle" x="1640.5" y="-63.5" font-family="Helvetica,sans-Serif" font-size="10.00">_Calibration_cFv.s</text>
</a>
</g>
</g>
<!-- Node1&#45;&gt;Node12 -->
<g id="edge12" class="edge">
<title>Node1&#45;&gt;Node12</title>
<path fill="none" stroke="midnightblue" d="M1995.87,-134.5C1926.73,-127.01 1826.28,-114.93 1729.53,-98.1"/>
<polygon fill="midnightblue" stroke="midnightblue" points="1730.04,-94.64 1719.58,-96.35 1728.82,-101.53 1730.04,-94.64"/>
</g>
<!-- Node13 -->
<g id="node13" class="node">
<title>Node13</title>
<g id="a_node13"><a xlink:title=" ">
<polygon fill="white" stroke="#bfbfbf" points="1737.5,-56.5 1737.5,-97.5 1895.5,-97.5 1895.5,-56.5 1737.5,-56.5"/>
<text text-anchor="start" x="1745.5" y="-85.5" font-family="Helvetica,sans-Serif" font-size="10.00">asm/d/menu/d_menu_calibration</text>
<text text-anchor="start" x="1745.5" y="-74.5" font-family="Helvetica,sans-Serif" font-size="10.00">/step2_wait_move__19dMenu</text>
<text text-anchor="middle" x="1816.5" y="-63.5" font-family="Helvetica,sans-Serif" font-size="10.00">_Calibration_cFv.s</text>
</a>
</g>
</g>
<!-- Node1&#45;&gt;Node13 -->
<g id="edge13" class="edge">
<title>Node1&#45;&gt;Node13</title>
<path fill="none" stroke="midnightblue" d="M2045.72,-134.44C2010.15,-125.68 1953.46,-111.72 1905.36,-99.88"/>
<polygon fill="midnightblue" stroke="midnightblue" points="1906.1,-96.46 1895.55,-97.46 1904.42,-103.25 1906.1,-96.46"/>
</g>
<!-- Node14 -->
<g id="node14" class="node">
<title>Node14</title>
<g id="a_node14"><a xlink:title=" ">
<polygon fill="white" stroke="#bfbfbf" points="1913.5,-56.5 1913.5,-97.5 2071.5,-97.5 2071.5,-56.5 1913.5,-56.5"/>
<text text-anchor="start" x="1921.5" y="-85.5" font-family="Helvetica,sans-Serif" font-size="10.00">asm/d/menu/d_menu_calibration</text>
<text text-anchor="start" x="1921.5" y="-74.5" font-family="Helvetica,sans-Serif" font-size="10.00">/step2_move_init__19dMenu</text>
<text text-anchor="middle" x="1992.5" y="-63.5" font-family="Helvetica,sans-Serif" font-size="10.00">_Calibration_cFv.s</text>
</a>
</g>
</g>
<!-- Node1&#45;&gt;Node14 -->
<g id="edge14" class="edge">
<title>Node1&#45;&gt;Node14</title>
<path fill="none" stroke="midnightblue" d="M2068.63,-134.23C2058.04,-126.41 2042,-114.56 2027.36,-103.75"/>
<polygon fill="midnightblue" stroke="midnightblue" points="2029.08,-100.67 2018.96,-97.54 2024.92,-106.3 2029.08,-100.67"/>
</g>
<!-- Node15 -->
<g id="node15" class="node">
<title>Node15</title>
<g id="a_node15"><a xlink:title=" ">
<polygon fill="white" stroke="#bfbfbf" points="2089.5,-56.5 2089.5,-97.5 2247.5,-97.5 2247.5,-56.5 2089.5,-56.5"/>
<text text-anchor="start" x="2097.5" y="-85.5" font-family="Helvetica,sans-Serif" font-size="10.00">asm/d/menu/d_menu_calibration</text>
<text text-anchor="start" x="2097.5" y="-74.5" font-family="Helvetica,sans-Serif" font-size="10.00">/step2_move_move__19dMenu</text>
<text text-anchor="middle" x="2168.5" y="-63.5" font-family="Helvetica,sans-Serif" font-size="10.00">_Calibration_cFv.s</text>
</a>
</g>
</g>
<!-- Node1&#45;&gt;Node15 -->
<g id="edge15" class="edge">
<title>Node1&#45;&gt;Node15</title>
<path fill="none" stroke="midnightblue" d="M2092.37,-134.23C2102.96,-126.41 2119,-114.56 2133.64,-103.75"/>
<polygon fill="midnightblue" stroke="midnightblue" points="2136.08,-106.3 2142.04,-97.54 2131.92,-100.67 2136.08,-106.3"/>
</g>
<!-- Node16 -->
<g id="node16" class="node">
<title>Node16</title>
<g id="a_node16"><a xlink:title=" ">
<polygon fill="white" stroke="#bfbfbf" points="2265.5,-56.5 2265.5,-97.5 2423.5,-97.5 2423.5,-56.5 2265.5,-56.5"/>
<text text-anchor="start" x="2273.5" y="-85.5" font-family="Helvetica,sans-Serif" font-size="10.00">asm/d/menu/d_menu_calibration</text>
<text text-anchor="start" x="2273.5" y="-74.5" font-family="Helvetica,sans-Serif" font-size="10.00">/step3_wait_init__19dMenu</text>
<text text-anchor="middle" x="2344.5" y="-63.5" font-family="Helvetica,sans-Serif" font-size="10.00">_Calibration_cFv.s</text>
</a>
</g>
</g>
<!-- Node1&#45;&gt;Node16 -->
<g id="edge16" class="edge">
<title>Node1&#45;&gt;Node16</title>
<path fill="none" stroke="midnightblue" d="M2115.28,-134.44C2150.85,-125.68 2207.54,-111.72 2255.64,-99.88"/>
<polygon fill="midnightblue" stroke="midnightblue" points="2256.58,-103.25 2265.45,-97.46 2254.9,-96.46 2256.58,-103.25"/>
</g>
<!-- Node17 -->
<g id="node17" class="node">
<title>Node17</title>
<g id="a_node17"><a xlink:title=" ">
<polygon fill="white" stroke="#bfbfbf" points="2441.5,-56.5 2441.5,-97.5 2599.5,-97.5 2599.5,-56.5 2441.5,-56.5"/>
<text text-anchor="start" x="2449.5" y="-85.5" font-family="Helvetica,sans-Serif" font-size="10.00">asm/d/menu/d_menu_calibration</text>
<text text-anchor="start" x="2449.5" y="-74.5" font-family="Helvetica,sans-Serif" font-size="10.00">/step3_wait_move__19dMenu</text>
<text text-anchor="middle" x="2520.5" y="-63.5" font-family="Helvetica,sans-Serif" font-size="10.00">_Calibration_cFv.s</text>
</a>
</g>
</g>
<!-- Node1&#45;&gt;Node17 -->
<g id="edge17" class="edge">
<title>Node1&#45;&gt;Node17</title>
<path fill="none" stroke="midnightblue" d="M2165.13,-134.5C2234.27,-127.01 2334.72,-114.93 2431.47,-98.1"/>
<polygon fill="midnightblue" stroke="midnightblue" points="2432.18,-101.53 2441.42,-96.35 2430.96,-94.64 2432.18,-101.53"/>
</g>
<!-- Node18 -->
<g id="node18" class="node">
<title>Node18</title>
<g id="a_node18"><a xlink:title=" ">
<polygon fill="white" stroke="#bfbfbf" points="2617.5,-56.5 2617.5,-97.5 2775.5,-97.5 2775.5,-56.5 2617.5,-56.5"/>
<text text-anchor="start" x="2625.5" y="-85.5" font-family="Helvetica,sans-Serif" font-size="10.00">asm/d/menu/d_menu_calibration</text>
<text text-anchor="start" x="2625.5" y="-74.5" font-family="Helvetica,sans-Serif" font-size="10.00">/step3_move_init__19dMenu</text>
<text text-anchor="middle" x="2696.5" y="-63.5" font-family="Helvetica,sans-Serif" font-size="10.00">_Calibration_cFv.s</text>
</a>
</g>
</g>
<!-- Node1&#45;&gt;Node18 -->
<g id="edge18" class="edge">
<title>Node1&#45;&gt;Node18</title>
<path fill="none" stroke="midnightblue" d="M2165.52,-139.38C2268.08,-134.2 2445.8,-122.62 2607.32,-98.07"/>
<polygon fill="midnightblue" stroke="midnightblue" points="2608.09,-101.49 2617.45,-96.51 2607.03,-94.57 2608.09,-101.49"/>
</g>
<!-- Node19 -->
<g id="node19" class="node">
<title>Node19</title>
<g id="a_node19"><a xlink:title=" ">
<polygon fill="white" stroke="#bfbfbf" points="2793.5,-56.5 2793.5,-97.5 2951.5,-97.5 2951.5,-56.5 2793.5,-56.5"/>
<text text-anchor="start" x="2801.5" y="-85.5" font-family="Helvetica,sans-Serif" font-size="10.00">asm/d/menu/d_menu_calibration</text>
<text text-anchor="start" x="2801.5" y="-74.5" font-family="Helvetica,sans-Serif" font-size="10.00">/step3_move_move__19dMenu</text>
<text text-anchor="middle" x="2872.5" y="-63.5" font-family="Helvetica,sans-Serif" font-size="10.00">_Calibration_cFv.s</text>
</a>
</g>
</g>
<!-- Node1&#45;&gt;Node19 -->
<g id="edge19" class="edge">
<title>Node1&#45;&gt;Node19</title>
<path fill="none" stroke="midnightblue" d="M2165.75,-141.93C2296.67,-139.32 2555.12,-130.33 2783.3,-98.05"/>
<polygon fill="midnightblue" stroke="midnightblue" points="2784.06,-101.47 2793.46,-96.59 2783.06,-94.54 2784.06,-101.47"/>
</g>
<!-- Node20 -->
<g id="node20" class="node">
<title>Node20</title>
<g id="a_node20"><a xlink:title=" ">
<polygon fill="white" stroke="#bfbfbf" points="2969.5,-56.5 2969.5,-97.5 3127.5,-97.5 3127.5,-56.5 2969.5,-56.5"/>
<text text-anchor="start" x="2977.5" y="-85.5" font-family="Helvetica,sans-Serif" font-size="10.00">asm/d/menu/d_menu_calibration</text>
<text text-anchor="start" x="2977.5" y="-74.5" font-family="Helvetica,sans-Serif" font-size="10.00">/setCalibrationValue__19dMenu</text>
<text text-anchor="middle" x="3048.5" y="-63.5" font-family="Helvetica,sans-Serif" font-size="10.00">_Calibration_cFv.s</text>
</a>
</g>
</g>
<!-- Node1&#45;&gt;Node20 -->
<g id="edge20" class="edge">
<title>Node1&#45;&gt;Node20</title>
<path fill="none" stroke="midnightblue" d="M2165.6,-143.5C2321.44,-143.36 2663.09,-138.13 2959.39,-98.02"/>
<polygon fill="midnightblue" stroke="midnightblue" points="2960.03,-101.46 2969.46,-96.64 2959.08,-94.53 2960.03,-101.46"/>
</g>
<!-- Node21 -->
<g id="node21" class="node">
<title>Node21</title>
<g id="a_node21"><a xlink:title=" ">
<polygon fill="white" stroke="#bfbfbf" points="3145.5,-56.5 3145.5,-97.5 3303.5,-97.5 3303.5,-56.5 3145.5,-56.5"/>
<text text-anchor="start" x="3153.5" y="-85.5" font-family="Helvetica,sans-Serif" font-size="10.00">asm/d/menu/d_menu_calibration</text>
<text text-anchor="start" x="3153.5" y="-74.5" font-family="Helvetica,sans-Serif" font-size="10.00">/setAButtonString__19dMenu</text>
<text text-anchor="middle" x="3224.5" y="-63.5" font-family="Helvetica,sans-Serif" font-size="10.00">_Calibration_cFUs.s</text>
</a>
</g>
</g>
<!-- Node1&#45;&gt;Node21 -->
<g id="edge21" class="edge">
<title>Node1&#45;&gt;Node21</title>
<path fill="none" stroke="midnightblue" d="M2165.75,-141.36C2378.71,-136.94 2930.88,-123.47 3135.41,-97.97"/>
<polygon fill="midnightblue" stroke="midnightblue" points="3136,-101.43 3145.47,-96.67 3135.1,-94.48 3136,-101.43"/>
</g>
<!-- Node22 -->
<g id="node22" class="node">
<title>Node22</title>
<g id="a_node22"><a xlink:title=" ">
<polygon fill="white" stroke="#bfbfbf" points="3321.5,-56.5 3321.5,-97.5 3479.5,-97.5 3479.5,-56.5 3321.5,-56.5"/>
<text text-anchor="start" x="3329.5" y="-85.5" font-family="Helvetica,sans-Serif" font-size="10.00">asm/d/menu/d_menu_calibration</text>
<text text-anchor="start" x="3329.5" y="-74.5" font-family="Helvetica,sans-Serif" font-size="10.00">/setBButtonString__19dMenu</text>
<text text-anchor="middle" x="3400.5" y="-63.5" font-family="Helvetica,sans-Serif" font-size="10.00">_Calibration_cFUs.s</text>
</a>
</g>
</g>
<!-- Node1&#45;&gt;Node22 -->
<g id="edge22" class="edge">
<title>Node1&#45;&gt;Node22</title>
<path fill="none" stroke="midnightblue" d="M2165.67,-141.96C2403.24,-138.74 3070.92,-127.39 3311.38,-97.97"/>
<polygon fill="midnightblue" stroke="midnightblue" points="3311.99,-101.42 3321.47,-96.69 3311.11,-94.48 3311.99,-101.42"/>
</g>
<!-- Node23 -->
<g id="node23" class="node">
<title>Node23</title>
<g id="a_node23"><a xlink:title=" ">
<polygon fill="white" stroke="#bfbfbf" points="3498,-62 3498,-92 3715,-92 3715,-62 3498,-62"/>
<text text-anchor="start" x="3506" y="-80" font-family="Helvetica,sans-Serif" font-size="10.00">asm/d/menu/d_menu_calibration</text>
<text text-anchor="middle" x="3606.5" y="-69" font-family="Helvetica,sans-Serif" font-size="10.00">/setStepString__19dMenu_Calibration_cFUs.s</text>
</a>
</g>
</g>
<!-- Node1&#45;&gt;Node23 -->
<g id="edge23" class="edge">
<title>Node1&#45;&gt;Node23</title>
<path fill="none" stroke="midnightblue" d="M2165.78,-141.8C2429.54,-137.83 3229.79,-123.94 3488.5,-98 3499.69,-96.88 3511.43,-95.34 3522.98,-93.6"/>
<polygon fill="midnightblue" stroke="midnightblue" points="3523.72,-97.03 3533.06,-92.03 3522.64,-90.11 3523.72,-97.03"/>
</g>
<!-- Node24 -->
<g id="node24" class="node">
<title>Node24</title>
<g id="a_node24"><a xlink:title=" ">
<polygon fill="white" stroke="#bfbfbf" points="3733.5,-56.5 3733.5,-97.5 3891.5,-97.5 3891.5,-56.5 3733.5,-56.5"/>
<text text-anchor="start" x="3741.5" y="-85.5" font-family="Helvetica,sans-Serif" font-size="10.00">asm/d/menu/d_menu_calibration</text>
<text text-anchor="start" x="3741.5" y="-74.5" font-family="Helvetica,sans-Serif" font-size="10.00">/setExplainString__19dMenu</text>
<text text-anchor="middle" x="3812.5" y="-63.5" font-family="Helvetica,sans-Serif" font-size="10.00">_Calibration_cFUs.s</text>
</a>
</g>
</g>
<!-- Node1&#45;&gt;Node24 -->
<g id="edge24" class="edge">
<title>Node1&#45;&gt;Node24</title>
<path fill="none" stroke="midnightblue" d="M2165.71,-142.87C2454.81,-142.1 3397.91,-136.7 3723.1,-98"/>
<polygon fill="midnightblue" stroke="midnightblue" points="3723.98,-101.42 3733.48,-96.73 3723.12,-94.47 3723.98,-101.42"/>
</g>
<!-- Node25 -->
<g id="node25" class="node">
<title>Node25</title>
<g id="a_node25"><a xlink:title=" ">
<polygon fill="white" stroke="#bfbfbf" points="3909.5,-62 3909.5,-92 4091.5,-92 4091.5,-62 3909.5,-62"/>
<text text-anchor="start" x="3917.5" y="-80" font-family="Helvetica,sans-Serif" font-size="10.00">asm/d/menu/d_menu_calibration</text>
<text text-anchor="middle" x="4000.5" y="-69" font-family="Helvetica,sans-Serif" font-size="10.00">/setHIO__19dMenu_Calibration_cFb.s</text>
</a>
</g>
</g>
<!-- Node1&#45;&gt;Node25 -->
<g id="edge25" class="edge">
<title>Node1&#45;&gt;Node25</title>
<path fill="none" stroke="midnightblue" d="M2165.73,-142.85C2477.83,-141.97 3557.91,-136.2 3900.5,-98 3909.84,-96.96 3919.6,-95.49 3929.21,-93.82"/>
<polygon fill="midnightblue" stroke="midnightblue" points="3929.94,-97.24 3939.15,-92 3928.68,-90.35 3929.94,-97.24"/>
</g>
<!-- Node26 -->
<g id="node26" class="node">
<title>Node26</title>
<g id="a_node26"><a xlink:title=" ">
<polygon fill="white" stroke="#bfbfbf" points="4110,-62 4110,-92 4281,-92 4281,-62 4110,-62"/>
<text text-anchor="start" x="4118" y="-80" font-family="Helvetica,sans-Serif" font-size="10.00">asm/d/menu/d_menu_calibration</text>
<text text-anchor="middle" x="4195.5" y="-69" font-family="Helvetica,sans-Serif" font-size="10.00">/draw__19dMenu_Calibration_cFv.s</text>
</a>
</g>
</g>
<!-- Node1&#45;&gt;Node26 -->
<g id="edge26" class="edge">
<title>Node1&#45;&gt;Node26</title>
<path fill="none" stroke="midnightblue" d="M2165.51,-143.2C2498.8,-143.68 3716.86,-142.27 4100.5,-98 4109.2,-97 4118.28,-95.58 4127.23,-93.95"/>
<polygon fill="midnightblue" stroke="midnightblue" points="4128.08,-97.35 4137.25,-92.04 4126.77,-90.47 4128.08,-97.35"/>
</g>
<!-- Node27 -->
<g id="node27" class="node">
<title>Node27</title>
<g id="a_node27"><a xlink:title=" ">
<polygon fill="white" stroke="#bfbfbf" points="4299.5,-62 4299.5,-92 4465.5,-92 4465.5,-62 4299.5,-62"/>
<text text-anchor="start" x="4307.5" y="-80" font-family="Helvetica,sans-Serif" font-size="10.00">asm/d/menu/d_menu_calibration</text>
<text text-anchor="middle" x="4382.5" y="-69" font-family="Helvetica,sans-Serif" font-size="10.00">/__sinit_d_menu_calibration_cpp.s</text>
</a>
</g>
</g>
<!-- Node1&#45;&gt;Node27 -->
<g id="edge27" class="edge">
<title>Node1&#45;&gt;Node27</title>
<path fill="none" stroke="midnightblue" d="M2165.77,-142.24C2545.97,-138.73 4077.13,-123.12 4290.5,-98 4298.9,-97.01 4307.66,-95.6 4316.3,-93.99"/>
<polygon fill="midnightblue" stroke="midnightblue" points="4317.22,-97.38 4326.35,-92.01 4315.86,-90.51 4317.22,-97.38"/>
</g>
<!-- Node4&#45;&gt;Node3 -->
<g id="edge4" class="edge">
<title>Node4&#45;&gt;Node3</title>
<path fill="none" stroke="midnightblue" d="M182.76,-67.23C174.96,-57.1 161.95,-40.19 152.24,-27.56"/>
<polygon fill="midnightblue" stroke="midnightblue" points="155.01,-25.42 146.14,-19.63 149.46,-29.69 155.01,-25.42"/>
</g>
</g>
</svg>
