<?xml version="1.0" encoding="UTF-8" standalone="no"?>
<!DOCTYPE svg PUBLIC "-//W3C//DTD SVG 1.1//EN"
 "http://www.w3.org/Graphics/SVG/1.1/DTD/svg11.dtd">
<!-- Generated by graphviz version 2.47.0 (20210316.2052)
 -->
<!-- Title: src/msg/scrn/d_msg_scrn_staff.cpp Pages: 1 -->
<!--zoomable 173 -->
<svg id="main" version="1.1" xmlns="http://www.w3.org/2000/svg" xmlns:xlink="http://www.w3.org/1999/xlink" xml:space="preserve" onload="init(evt)">
<style type="text/css"><![CDATA[
.edge:hover path { stroke: red; }
.edge:hover polygon { stroke: red; fill: red; }
]]></style>
<script type="text/javascript"><![CDATA[
var edges = document.getElementsByTagName('g');
if (edges && edges.length) {
  for (var i=0;i<edges.length;i++) {
    if (edges[i].id.substr(0,4)=='edge') {
      edges[i].setAttribute('class','edge');
    }
  }
}
]]></script>
        <defs>
                <circle id="rim" cx="0" cy="0" r="7"/>
                <circle id="rim2" cx="0" cy="0" r="3.5"/>
                <g id="zoomPlus">
                        <use xlink:href="#rim" fill="#404040">
                                <set attributeName="fill" to="#808080" begin="zoomplus.mouseover" end="zoomplus.mouseout"/>
                        </use>
                        <path d="M-4,0h8M0,-4v8" fill="none" stroke="white" stroke-width="1.5" pointer-events="none"/>
                </g>
                <g id="zoomMin">
                        <use xlink:href="#rim" fill="#404040">
                                <set attributeName="fill" to="#808080" begin="zoomminus.mouseover" end="zoomminus.mouseout"/>
                        </use>
                        <path d="M-4,0h8" fill="none" stroke="white" stroke-width="1.5" pointer-events="none"/>
                </g>
                <g id="dirArrow">
                        <path fill="none" stroke="white" stroke-width="1.5" d="M0,-3.0v7 M-2.5,-0.5L0,-3.0L2.5,-0.5"/>
                </g>
               <g id="resetDef">
                       <use xlink:href="#rim2" fill="#404040">
                               <set attributeName="fill" to="#808080" begin="reset.mouseover" end="reset.mouseout"/>
                       </use>
               </g>
        </defs>

<script type="text/javascript">
var viewWidth = 1490;
var viewHeight = 173;
var sectionId = 'dynsection-0';
</script>
<script xlink:href="svgpan.js"/>
<svg id="graph" class="graph">
<g id="viewport">
<title>src/msg/scrn/d_msg_scrn_staff.cpp</title>
<polygon fill="white" stroke="transparent" points="-4,4 -4,-169 1486,-169 1486,4 -4,4"/>
<!-- Node1 -->
<g id="node1" class="node">
<title>Node1</title>
<g id="a_node1"><a xlink:title=" ">
<polygon fill="#bfbfbf" stroke="black" points="613.5,-134.5 613.5,-164.5 719.5,-164.5 719.5,-134.5 613.5,-134.5"/>
<text text-anchor="start" x="621.5" y="-152.5" font-family="Helvetica,sans-Serif" font-size="10.00">src/msg/scrn/d_msg</text>
<text text-anchor="middle" x="666.5" y="-141.5" font-family="Helvetica,sans-Serif" font-size="10.00">_scrn_staff.cpp</text>
</a>
</g>
</g>
<!-- Node2 -->
<g id="node2" class="node">
<title>Node2</title>
<g id="a_node2"><a xlink:href="dol2asm_8h.html" target="_top" xlink:title=" ">
<polygon fill="white" stroke="black" points="0,-67.5 0,-86.5 61,-86.5 61,-67.5 0,-67.5"/>
<text text-anchor="middle" x="30.5" y="-74.5" font-family="Helvetica,sans-Serif" font-size="10.00">dol2asm.h</text>
</a>
</g>
</g>
<!-- Node1&#45;&gt;Node2 -->
<g id="edge1" class="edge">
<title>Node1&#45;&gt;Node2</title>
<path fill="none" stroke="midnightblue" d="M613.08,-146.21C487.5,-140.45 176.48,-123.97 75.5,-98 68.87,-96.3 61.99,-93.7 55.66,-90.94"/>
<polygon fill="midnightblue" stroke="midnightblue" points="56.82,-87.62 46.28,-86.57 53.86,-93.96 56.82,-87.62"/>
</g>
<!-- Node3 -->
<g id="node3" class="node">
<title>Node3</title>
<g id="a_node3"><a xlink:href="types_8h.html" target="_top" xlink:title=" ">
<polygon fill="white" stroke="black" points="91,-0.5 91,-19.5 172,-19.5 172,-0.5 91,-0.5"/>
<text text-anchor="middle" x="131.5" y="-7.5" font-family="Helvetica,sans-Serif" font-size="10.00">dolphin/types.h</text>
</a>
</g>
</g>
<!-- Node1&#45;&gt;Node3 -->
<g id="edge2" class="edge">
<title>Node1&#45;&gt;Node3</title>
<path fill="none" stroke="midnightblue" d="M613.47,-147.67C480.87,-145.05 143.1,-134.79 109.5,-98 91.89,-78.72 106.76,-47.4 119.14,-28.07"/>
<polygon fill="midnightblue" stroke="midnightblue" points="122.14,-29.88 124.86,-19.64 116.34,-25.95 122.14,-29.88"/>
</g>
<!-- Node4 -->
<g id="node4" class="node">
<title>Node4</title>
<g id="a_node4"><a xlink:href="d__msg__scrn__staff_8h.html" target="_top" xlink:title=" ">
<polygon fill="white" stroke="black" points="118,-62 118,-92 231,-92 231,-62 118,-62"/>
<text text-anchor="start" x="126" y="-80" font-family="Helvetica,sans-Serif" font-size="10.00">msg/scrn/d_msg_scrn</text>
<text text-anchor="middle" x="174.5" y="-69" font-family="Helvetica,sans-Serif" font-size="10.00">_staff.h</text>
</a>
</g>
</g>
<!-- Node1&#45;&gt;Node4 -->
<g id="edge3" class="edge">
<title>Node1&#45;&gt;Node4</title>
<path fill="none" stroke="midnightblue" d="M613.22,-145.21C532.08,-139.52 373,-125.7 240.5,-98 236.03,-97.07 231.42,-95.96 226.82,-94.77"/>
<polygon fill="midnightblue" stroke="midnightblue" points="227.39,-91.29 216.82,-92.02 225.54,-98.04 227.39,-91.29"/>
</g>
<!-- Node5 -->
<g id="node5" class="node">
<title>Node5</title>
<g id="a_node5"><a xlink:title=" ">
<polygon fill="white" stroke="#bfbfbf" points="249.5,-56.5 249.5,-97.5 401.5,-97.5 401.5,-56.5 249.5,-56.5"/>
<text text-anchor="start" x="257.5" y="-85.5" font-family="Helvetica,sans-Serif" font-size="10.00">asm/msg/scrn/d_msg</text>
<text text-anchor="start" x="257.5" y="-74.5" font-family="Helvetica,sans-Serif" font-size="10.00">_scrn_staff/__ct__15dMsgScrn</text>
<text text-anchor="middle" x="325.5" y="-63.5" font-family="Helvetica,sans-Serif" font-size="10.00">Staff_cFUc.s</text>
</a>
</g>
</g>
<!-- Node1&#45;&gt;Node5 -->
<g id="edge5" class="edge">
<title>Node1&#45;&gt;Node5</title>
<path fill="none" stroke="midnightblue" d="M613.43,-138.61C563.81,-129.24 487.38,-114.46 412.06,-98.31"/>
<polygon fill="midnightblue" stroke="midnightblue" points="412.44,-94.81 401.93,-96.12 410.96,-101.65 412.44,-94.81"/>
</g>
<!-- Node6 -->
<g id="node6" class="node">
<title>Node6</title>
<g id="a_node6"><a xlink:title=" ">
<polygon fill="white" stroke="#bfbfbf" points="419.5,-56.5 419.5,-97.5 571.5,-97.5 571.5,-56.5 419.5,-56.5"/>
<text text-anchor="start" x="427.5" y="-85.5" font-family="Helvetica,sans-Serif" font-size="10.00">asm/msg/scrn/d_msg</text>
<text text-anchor="start" x="427.5" y="-74.5" font-family="Helvetica,sans-Serif" font-size="10.00">_scrn_staff/__dt__15dMsgScrn</text>
<text text-anchor="middle" x="495.5" y="-63.5" font-family="Helvetica,sans-Serif" font-size="10.00">Staff_cFv.s</text>
</a>
</g>
</g>
<!-- Node1&#45;&gt;Node6 -->
<g id="edge6" class="edge">
<title>Node1&#45;&gt;Node6</title>
<path fill="none" stroke="midnightblue" d="M632.31,-134.4C609.48,-124.99 578.9,-112.39 552.45,-101.48"/>
<polygon fill="midnightblue" stroke="midnightblue" points="553.49,-98.12 542.91,-97.55 550.82,-104.59 553.49,-98.12"/>
</g>
<!-- Node7 -->
<g id="node7" class="node">
<title>Node7</title>
<g id="a_node7"><a xlink:title=" ">
<polygon fill="white" stroke="#bfbfbf" points="590,-56.5 590,-97.5 743,-97.5 743,-56.5 590,-56.5"/>
<text text-anchor="start" x="598" y="-85.5" font-family="Helvetica,sans-Serif" font-size="10.00">asm/msg/scrn/d_msg</text>
<text text-anchor="start" x="598" y="-74.5" font-family="Helvetica,sans-Serif" font-size="10.00">_scrn_staff/exec__15dMsgScrn</text>
<text text-anchor="middle" x="666.5" y="-63.5" font-family="Helvetica,sans-Serif" font-size="10.00">Staff_cFv.s</text>
</a>
</g>
</g>
<!-- Node1&#45;&gt;Node7 -->
<g id="edge7" class="edge">
<title>Node1&#45;&gt;Node7</title>
<path fill="none" stroke="midnightblue" d="M666.5,-134.23C666.5,-126.57 666.5,-116.84 666.5,-107.63"/>
<polygon fill="midnightblue" stroke="midnightblue" points="670,-107.59 666.5,-97.59 663,-107.59 670,-107.59"/>
</g>
<!-- Node8 -->
<g id="node8" class="node">
<title>Node8</title>
<g id="a_node8"><a xlink:title=" ">
<polygon fill="white" stroke="#bfbfbf" points="761,-56.5 761,-97.5 892,-97.5 892,-56.5 761,-56.5"/>
<text text-anchor="start" x="769" y="-85.5" font-family="Helvetica,sans-Serif" font-size="10.00">asm/msg/scrn/d_msg</text>
<text text-anchor="start" x="769" y="-74.5" font-family="Helvetica,sans-Serif" font-size="10.00">_scrn_staff/drawSelf</text>
<text text-anchor="middle" x="826.5" y="-63.5" font-family="Helvetica,sans-Serif" font-size="10.00">__15dMsgScrnStaff_cFv.s</text>
</a>
</g>
</g>
<!-- Node1&#45;&gt;Node8 -->
<g id="edge8" class="edge">
<title>Node1&#45;&gt;Node8</title>
<path fill="none" stroke="midnightblue" d="M698.49,-134.4C719.76,-125.03 748.21,-112.5 772.89,-101.62"/>
<polygon fill="midnightblue" stroke="midnightblue" points="774.4,-104.78 782.14,-97.55 771.58,-98.38 774.4,-104.78"/>
</g>
<!-- Node9 -->
<g id="node9" class="node">
<title>Node9</title>
<g id="a_node9"><a xlink:title=" ">
<polygon fill="white" stroke="#bfbfbf" points="910,-56.5 910,-97.5 1039,-97.5 1039,-56.5 910,-56.5"/>
<text text-anchor="start" x="918" y="-85.5" font-family="Helvetica,sans-Serif" font-size="10.00">asm/msg/scrn/d_msg</text>
<text text-anchor="start" x="918" y="-74.5" font-family="Helvetica,sans-Serif" font-size="10.00">_scrn_staff/fukiAlpha</text>
<text text-anchor="middle" x="974.5" y="-63.5" font-family="Helvetica,sans-Serif" font-size="10.00">__15dMsgScrnStaff_cFf.s</text>
</a>
</g>
</g>
<!-- Node1&#45;&gt;Node9 -->
<g id="edge9" class="edge">
<title>Node1&#45;&gt;Node9</title>
<path fill="none" stroke="midnightblue" d="M719.89,-137.91C765.41,-128.68 832.8,-114.55 899.79,-98.37"/>
<polygon fill="midnightblue" stroke="midnightblue" points="900.78,-101.73 909.67,-95.96 899.13,-94.93 900.78,-101.73"/>
</g>
<!-- Node10 -->
<g id="node10" class="node">
<title>Node10</title>
<g id="a_node10"><a xlink:title=" ">
<polygon fill="white" stroke="#bfbfbf" points="1057,-56.5 1057,-97.5 1186,-97.5 1186,-56.5 1057,-56.5"/>
<text text-anchor="start" x="1065" y="-85.5" font-family="Helvetica,sans-Serif" font-size="10.00">asm/msg/scrn/d_msg</text>
<text text-anchor="start" x="1065" y="-74.5" font-family="Helvetica,sans-Serif" font-size="10.00">_scrn_staff/fukiScale</text>
<text text-anchor="middle" x="1121.5" y="-63.5" font-family="Helvetica,sans-Serif" font-size="10.00">__15dMsgScrnStaff_cFf.s</text>
</a>
</g>
</g>
<!-- Node1&#45;&gt;Node10 -->
<g id="edge10" class="edge">
<title>Node1&#45;&gt;Node10</title>
<path fill="none" stroke="midnightblue" d="M719.71,-143.77C791.91,-136.85 925.02,-122.28 1046.86,-98.21"/>
<polygon fill="midnightblue" stroke="midnightblue" points="1047.61,-101.63 1056.73,-96.24 1046.24,-94.77 1047.61,-101.63"/>
</g>
<!-- Node11 -->
<g id="node11" class="node">
<title>Node11</title>
<g id="a_node11"><a xlink:title=" ">
<polygon fill="white" stroke="#bfbfbf" points="1204,-56.5 1204,-97.5 1335,-97.5 1335,-56.5 1204,-56.5"/>
<text text-anchor="start" x="1212" y="-85.5" font-family="Helvetica,sans-Serif" font-size="10.00">asm/msg/scrn/d_msg</text>
<text text-anchor="start" x="1212" y="-74.5" font-family="Helvetica,sans-Serif" font-size="10.00">_scrn_staff/fukiTrans</text>
<text text-anchor="middle" x="1269.5" y="-63.5" font-family="Helvetica,sans-Serif" font-size="10.00">__15dMsgScrnStaff_cFff.s</text>
</a>
</g>
</g>
<!-- Node1&#45;&gt;Node11 -->
<g id="edge11" class="edge">
<title>Node1&#45;&gt;Node11</title>
<path fill="none" stroke="midnightblue" d="M719.84,-146.39C813.94,-142.01 1015.59,-129.73 1193.78,-98.17"/>
<polygon fill="midnightblue" stroke="midnightblue" points="1194.64,-101.57 1203.86,-96.36 1193.4,-94.68 1194.64,-101.57"/>
</g>
<!-- Node12 -->
<g id="node12" class="node">
<title>Node12</title>
<g id="a_node12"><a xlink:title=" ">
<polygon fill="white" stroke="#bfbfbf" points="1353,-56.5 1353,-97.5 1482,-97.5 1482,-56.5 1353,-56.5"/>
<text text-anchor="start" x="1361" y="-85.5" font-family="Helvetica,sans-Serif" font-size="10.00">asm/msg/scrn/d_msg</text>
<text text-anchor="start" x="1361" y="-74.5" font-family="Helvetica,sans-Serif" font-size="10.00">_scrn_staff/fontAlpha</text>
<text text-anchor="middle" x="1417.5" y="-63.5" font-family="Helvetica,sans-Serif" font-size="10.00">__15dMsgScrnStaff_cFf.s</text>
</a>
</g>
</g>
<!-- Node1&#45;&gt;Node12 -->
<g id="edge12" class="edge">
<title>Node1&#45;&gt;Node12</title>
<path fill="none" stroke="midnightblue" d="M719.67,-148.02C832.93,-146.24 1106.31,-137.98 1342.61,-98.17"/>
<polygon fill="midnightblue" stroke="midnightblue" points="1343.5,-101.57 1352.77,-96.43 1342.32,-94.67 1343.5,-101.57"/>
</g>
<!-- Node4&#45;&gt;Node3 -->
<g id="edge4" class="edge">
<title>Node4&#45;&gt;Node3</title>
<path fill="none" stroke="midnightblue" d="M165.17,-61.9C158.6,-51.96 149.76,-38.61 142.79,-28.07"/>
<polygon fill="midnightblue" stroke="midnightblue" points="145.69,-26.1 137.25,-19.69 139.85,-29.97 145.69,-26.1"/>
</g>
</g>
</svg>
        <g id="navigator" transform="translate(0 0)" fill="#404254">
                <rect fill="#f2f5e9" fill-opacity="0.5" stroke="#606060" stroke-width=".5" x="0" y="0" width="60" height="60"/>
                <use id="zoomplus" xlink:href="#zoomPlus" x="17" y="9" onmousedown="handleZoom(evt,'in')"/>
                <use id="zoomminus" xlink:href="#zoomMin" x="42" y="9" onmousedown="handleZoom(evt,'out')"/>
                <use id="reset" xlink:href="#resetDef" x="30" y="36" onmousedown="handleReset()"/>
                <g id="arrowUp" xlink:href="#dirArrow" transform="translate(30 24)" onmousedown="handlePan(0,-1)">
                  <use xlink:href="#rim" fill="#404040">
                        <set attributeName="fill" to="#808080" begin="arrowUp.mouseover" end="arrowUp.mouseout"/>
                  </use>
                  <path fill="none" stroke="white" stroke-width="1.5" d="M0,-3.0v7 M-2.5,-0.5L0,-3.0L2.5,-0.5"/>
                </g>
                <g id="arrowRight" xlink:href="#dirArrow" transform="rotate(90) translate(36 -43)" onmousedown="handlePan(1,0)">
                  <use xlink:href="#rim" fill="#404040">
                        <set attributeName="fill" to="#808080" begin="arrowRight.mouseover" end="arrowRight.mouseout"/>
                  </use>
                  <path fill="none" stroke="white" stroke-width="1.5" d="M0,-3.0v7 M-2.5,-0.5L0,-3.0L2.5,-0.5"/>
                </g>
                <g id="arrowDown" xlink:href="#dirArrow" transform="rotate(180) translate(-30 -48)" onmousedown="handlePan(0,1)">
                  <use xlink:href="#rim" fill="#404040">
                        <set attributeName="fill" to="#808080" begin="arrowDown.mouseover" end="arrowDown.mouseout"/>
                  </use>
                  <path fill="none" stroke="white" stroke-width="1.5" d="M0,-3.0v7 M-2.5,-0.5L0,-3.0L2.5,-0.5"/>
                </g>
                <g id="arrowLeft" xlink:href="#dirArrow" transform="rotate(270) translate(-36 17)" onmousedown="handlePan(-1,0)">
                  <use xlink:href="#rim" fill="#404040">
                        <set attributeName="fill" to="#808080" begin="arrowLeft.mouseover" end="arrowLeft.mouseout"/>
                  </use>
                  <path fill="none" stroke="white" stroke-width="1.5" d="M0,-3.0v7 M-2.5,-0.5L0,-3.0L2.5,-0.5"/>
                </g>
        </g>
        <svg viewBox="0 0 15 15" width="100%" height="30px" preserveAspectRatio="xMaxYMin meet">
         <g id="arrow_out" transform="scale(0.3 0.3)">
          <a xlink:href="d__msg__scrn__staff_8cpp__incl_org.svg" target="_base">
           <rect id="button" ry="5" rx="5" y="6" x="6" height="38" width="38"
                fill="#f2f5e9" fill-opacity="0.5" stroke="#606060" stroke-width="1.0"/>
           <path id="arrow"
             d="M 11.500037,31.436501 C 11.940474,20.09759 22.043105,11.32322 32.158766,21.979434 L 37.068811,17.246167 C 37.068811,17.246167 37.088388,32 37.088388,32 L 22.160133,31.978069 C 22.160133,31.978069 26.997745,27.140456 26.997745,27.140456 C 18.528582,18.264221 13.291696,25.230495 11.500037,31.436501 z"
             style="fill:#404040;"/>
          </a>
         </g>
        </svg>
</svg>
