<?xml version="1.0" encoding="UTF-8" standalone="no"?>
<!DOCTYPE svg PUBLIC "-//W3C//DTD SVG 1.1//EN"
 "http://www.w3.org/Graphics/SVG/1.1/DTD/svg11.dtd">
<!-- Generated by graphviz version 2.47.0 (20210316.2052)
 -->
<!-- Title: src/d/menu/d_menu_fmap_map.cpp Pages: 1 -->
<svg width="7925pt" height="184pt"
 viewBox="0.00 0.00 7925.00 184.00" xmlns="http://www.w3.org/2000/svg" xmlns:xlink="http://www.w3.org/1999/xlink">
<g id="graph0" class="graph" transform="scale(1 1) rotate(0) translate(4 180)">
<title>src/d/menu/d_menu_fmap_map.cpp</title>
<polygon fill="white" stroke="transparent" points="-4,4 -4,-180 7921,-180 7921,4 -4,4"/>
<!-- Node1 -->
<g id="node1" class="node">
<title>Node1</title>
<g id="a_node1"><a xlink:title=" ">
<polygon fill="#bfbfbf" stroke="black" points="3751.5,-145.5 3751.5,-175.5 3881.5,-175.5 3881.5,-145.5 3751.5,-145.5"/>
<text text-anchor="start" x="3759.5" y="-163.5" font-family="Helvetica,sans-Serif" font-size="10.00">src/d/menu/d_menu_fmap</text>
<text text-anchor="middle" x="3816.5" y="-152.5" font-family="Helvetica,sans-Serif" font-size="10.00">_map.cpp</text>
</a>
</g>
</g>
<!-- Node2 -->
<g id="node2" class="node">
<title>Node2</title>
<g id="a_node2"><a xlink:href="dol2asm_8h.html" target="_top" xlink:title=" ">
<polygon fill="white" stroke="black" points="0,-73 0,-92 61,-92 61,-73 0,-73"/>
<text text-anchor="middle" x="30.5" y="-80" font-family="Helvetica,sans-Serif" font-size="10.00">dol2asm.h</text>
</a>
</g>
</g>
<!-- Node1&#45;&gt;Node2 -->
<g id="edge1" class="edge">
<title>Node1&#45;&gt;Node2</title>
<path fill="none" stroke="midnightblue" d="M3751.16,-159.54C3267.71,-159.74 259.96,-158.96 75.5,-109 66.85,-106.66 58.1,-102.26 50.64,-97.77"/>
<polygon fill="midnightblue" stroke="midnightblue" points="52.3,-94.67 42,-92.18 48.5,-100.55 52.3,-94.67"/>
</g>
<!-- Node3 -->
<g id="node3" class="node">
<title>Node3</title>
<g id="a_node3"><a xlink:href="types_8h.html" target="_top" xlink:title=" ">
<polygon fill="white" stroke="black" points="91,-0.5 91,-19.5 172,-19.5 172,-0.5 91,-0.5"/>
<text text-anchor="middle" x="131.5" y="-7.5" font-family="Helvetica,sans-Serif" font-size="10.00">dolphin/types.h</text>
</a>
</g>
</g>
<!-- Node1&#45;&gt;Node3 -->
<g id="edge2" class="edge">
<title>Node1&#45;&gt;Node3</title>
<path fill="none" stroke="midnightblue" d="M3751.21,-159.24C3258.5,-157.17 142.8,-142.76 109.5,-109 88.27,-87.48 105.88,-50.17 119.46,-28.32"/>
<polygon fill="midnightblue" stroke="midnightblue" points="122.53,-30.02 125.09,-19.74 116.68,-26.18 122.53,-30.02"/>
</g>
<!-- Node4 -->
<g id="node4" class="node">
<title>Node4</title>
<g id="a_node4"><a xlink:href="d__menu__fmap__map_8h.html" target="_top" xlink:title=" ">
<polygon fill="white" stroke="black" points="118,-67.5 118,-97.5 231,-97.5 231,-67.5 118,-67.5"/>
<text text-anchor="start" x="126" y="-85.5" font-family="Helvetica,sans-Serif" font-size="10.00">d/menu/d_menu_fmap</text>
<text text-anchor="middle" x="174.5" y="-74.5" font-family="Helvetica,sans-Serif" font-size="10.00">_map.h</text>
</a>
</g>
</g>
<!-- Node1&#45;&gt;Node4 -->
<g id="edge3" class="edge">
<title>Node1&#45;&gt;Node4</title>
<path fill="none" stroke="midnightblue" d="M3751.5,-159.24C3281.73,-157.24 419.51,-143.69 240.5,-109 231.65,-107.29 222.45,-104.46 213.83,-101.3"/>
<polygon fill="midnightblue" stroke="midnightblue" points="214.98,-97.99 204.39,-97.63 212.44,-104.51 214.98,-97.99"/>
</g>
<!-- Node5 -->
<g id="node5" class="node">
<title>Node5</title>
<g id="a_node5"><a xlink:title=" ">
<polygon fill="white" stroke="#bfbfbf" points="249.5,-62 249.5,-103 405.5,-103 405.5,-62 249.5,-62"/>
<text text-anchor="start" x="257.5" y="-91" font-family="Helvetica,sans-Serif" font-size="10.00">asm/d/menu/d_menu_fmap</text>
<text text-anchor="start" x="257.5" y="-80" font-family="Helvetica,sans-Serif" font-size="10.00">_map/twoValueLineInterpolation</text>
<text text-anchor="middle" x="327.5" y="-69" font-family="Helvetica,sans-Serif" font-size="10.00">__FUcUcf.s</text>
</a>
</g>
</g>
<!-- Node1&#45;&gt;Node5 -->
<g id="edge5" class="edge">
<title>Node1&#45;&gt;Node5</title>
<path fill="none" stroke="midnightblue" d="M3751.25,-159.59C3308.8,-160.07 755.72,-160.56 414.5,-109 408.62,-108.11 402.58,-106.93 396.55,-105.56"/>
<polygon fill="midnightblue" stroke="midnightblue" points="397,-102.07 386.45,-103.1 395.34,-108.87 397,-102.07"/>
</g>
<!-- Node6 -->
<g id="node6" class="node">
<title>Node6</title>
<g id="a_node6"><a xlink:title=" ">
<polygon fill="white" stroke="#bfbfbf" points="423.5,-56.5 423.5,-108.5 593.5,-108.5 593.5,-56.5 423.5,-56.5"/>
<text text-anchor="start" x="431.5" y="-96.5" font-family="Helvetica,sans-Serif" font-size="10.00">asm/d/menu/d_menu_fmap</text>
<text text-anchor="start" x="431.5" y="-85.5" font-family="Helvetica,sans-Serif" font-size="10.00">_map/twoColorLineInterporation</text>
<text text-anchor="start" x="431.5" y="-74.5" font-family="Helvetica,sans-Serif" font-size="10.00">__FRC8_GXColorRC8_GXColorfR8</text>
<text text-anchor="middle" x="508.5" y="-63.5" font-family="Helvetica,sans-Serif" font-size="10.00">_GXColor.s</text>
</a>
</g>
</g>
<!-- Node1&#45;&gt;Node6 -->
<g id="edge6" class="edge">
<title>Node1&#45;&gt;Node6</title>
<path fill="none" stroke="midnightblue" d="M3751.47,-159.45C3328.12,-159.01 969.98,-154.56 603.62,-108.91"/>
<polygon fill="midnightblue" stroke="midnightblue" points="603.99,-105.43 593.61,-107.58 603.07,-112.37 603.99,-105.43"/>
</g>
<!-- Node7 -->
<g id="node7" class="node">
<title>Node7</title>
<g id="a_node7"><a xlink:title=" ">
<polygon fill="white" stroke="#bfbfbf" points="611.5,-62 611.5,-103 753.5,-103 753.5,-62 611.5,-62"/>
<text text-anchor="start" x="619.5" y="-91" font-family="Helvetica,sans-Serif" font-size="10.00">asm/d/menu/d_menu_fmap</text>
<text text-anchor="start" x="619.5" y="-80" font-family="Helvetica,sans-Serif" font-size="10.00">_map/init__15renderingFmap</text>
<text text-anchor="middle" x="682.5" y="-69" font-family="Helvetica,sans-Serif" font-size="10.00">_cFPUcUsUsUsUs.s</text>
</a>
</g>
</g>
<!-- Node1&#45;&gt;Node7 -->
<g id="edge7" class="edge">
<title>Node1&#45;&gt;Node7</title>
<path fill="none" stroke="midnightblue" d="M3751.4,-159.55C3336.33,-159.71 1067.57,-158.31 763.5,-109 758.13,-108.13 752.63,-106.98 747.15,-105.65"/>
<polygon fill="midnightblue" stroke="midnightblue" points="747.88,-102.23 737.32,-103.09 746.11,-109 747.88,-102.23"/>
</g>
<!-- Node8 -->
<g id="node8" class="node">
<title>Node8</title>
<g id="a_node8"><a xlink:title=" ">
<polygon fill="white" stroke="#bfbfbf" points="772,-62 772,-103 963,-103 963,-62 772,-62"/>
<text text-anchor="start" x="780" y="-91" font-family="Helvetica,sans-Serif" font-size="10.00">asm/d/menu/d_menu_fmap</text>
<text text-anchor="start" x="780" y="-80" font-family="Helvetica,sans-Serif" font-size="10.00">_map/entry__15renderingFmap</text>
<text text-anchor="middle" x="867.5" y="-69" font-family="Helvetica,sans-Serif" font-size="10.00">_cFP23dMenu_Fmap_world_data_cifff.s</text>
</a>
</g>
</g>
<!-- Node1&#45;&gt;Node8 -->
<g id="edge8" class="edge">
<title>Node1&#45;&gt;Node8</title>
<path fill="none" stroke="midnightblue" d="M3751.45,-159.2C3353.58,-157.29 1256.04,-145.49 972.5,-109 964.78,-108.01 956.81,-106.67 948.86,-105.12"/>
<polygon fill="midnightblue" stroke="midnightblue" points="949.34,-101.64 938.84,-103.05 947.93,-108.5 949.34,-101.64"/>
</g>
<!-- Node9 -->
<g id="node9" class="node">
<title>Node9</title>
<g id="a_node9"><a xlink:title=" ">
<polygon fill="white" stroke="#bfbfbf" points="981,-62 981,-103 1116,-103 1116,-62 981,-62"/>
<text text-anchor="start" x="989" y="-91" font-family="Helvetica,sans-Serif" font-size="10.00">asm/d/menu/d_menu_fmap</text>
<text text-anchor="start" x="989" y="-80" font-family="Helvetica,sans-Serif" font-size="10.00">_map/isSwitchSpecialOff</text>
<text text-anchor="middle" x="1048.5" y="-69" font-family="Helvetica,sans-Serif" font-size="10.00">__15renderingFmap_cFi.s</text>
</a>
</g>
</g>
<!-- Node1&#45;&gt;Node9 -->
<g id="edge9" class="edge">
<title>Node1&#45;&gt;Node9</title>
<path fill="none" stroke="midnightblue" d="M3751.2,-159.45C3365.32,-158.99 1391.28,-154.43 1125.5,-109 1120.51,-108.15 1115.4,-107.03 1110.31,-105.74"/>
<polygon fill="midnightblue" stroke="midnightblue" points="1111.14,-102.34 1100.57,-103.07 1109.29,-109.09 1111.14,-102.34"/>
</g>
<!-- Node10 -->
<g id="node10" class="node">
<title>Node10</title>
<g id="a_node10"><a xlink:title=" ">
<polygon fill="white" stroke="#bfbfbf" points="1134,-62 1134,-103 1333,-103 1333,-62 1134,-62"/>
<text text-anchor="start" x="1142" y="-91" font-family="Helvetica,sans-Serif" font-size="10.00">asm/d/menu/d_menu_fmap</text>
<text text-anchor="start" x="1142" y="-80" font-family="Helvetica,sans-Serif" font-size="10.00">_map/isSwitch__15renderingFmap</text>
<text text-anchor="middle" x="1233.5" y="-69" font-family="Helvetica,sans-Serif" font-size="10.00">_cFPCQ211dDrawPath_c11group_class.s</text>
</a>
</g>
</g>
<!-- Node1&#45;&gt;Node10 -->
<g id="edge10" class="edge">
<title>Node1&#45;&gt;Node10</title>
<path fill="none" stroke="midnightblue" d="M3751.22,-158.98C3384.38,-155.98 1587.26,-139.78 1342.5,-109 1334.32,-107.97 1325.86,-106.58 1317.44,-104.98"/>
<polygon fill="midnightblue" stroke="midnightblue" points="1318.08,-101.54 1307.59,-103.02 1316.71,-108.41 1318.08,-101.54"/>
</g>
<!-- Node11 -->
<g id="node11" class="node">
<title>Node11</title>
<g id="a_node11"><a xlink:title=" ">
<polygon fill="white" stroke="#bfbfbf" points="1351,-56.5 1351,-108.5 1516,-108.5 1516,-56.5 1351,-56.5"/>
<text text-anchor="start" x="1359" y="-96.5" font-family="Helvetica,sans-Serif" font-size="10.00">asm/d/menu/d_menu_fmap</text>
<text text-anchor="start" x="1359" y="-85.5" font-family="Helvetica,sans-Serif" font-size="10.00">_map/getPointStagePathInnerNo</text>
<text text-anchor="start" x="1359" y="-74.5" font-family="Helvetica,sans-Serif" font-size="10.00">__15renderingFmap_cFP24dMenu</text>
<text text-anchor="middle" x="1433.5" y="-63.5" font-family="Helvetica,sans-Serif" font-size="10.00">_Fmap_region_data_cffiPiPi.s</text>
</a>
</g>
</g>
<!-- Node1&#45;&gt;Node11 -->
<g id="edge11" class="edge">
<title>Node1&#45;&gt;Node11</title>
<path fill="none" stroke="midnightblue" d="M3751.23,-159.03C3405.46,-156.4 1793.75,-142.5 1526.05,-108.78"/>
<polygon fill="midnightblue" stroke="midnightblue" points="1526.43,-105.3 1516.04,-107.42 1525.48,-112.24 1526.43,-105.3"/>
</g>
<!-- Node12 -->
<g id="node12" class="node">
<title>Node12</title>
<g id="a_node12"><a xlink:title=" ">
<polygon fill="white" stroke="#bfbfbf" points="1534,-62 1534,-103 1695,-103 1695,-62 1534,-62"/>
<text text-anchor="start" x="1542" y="-91" font-family="Helvetica,sans-Serif" font-size="10.00">asm/d/menu/d_menu_fmap</text>
<text text-anchor="start" x="1542" y="-80" font-family="Helvetica,sans-Serif" font-size="10.00">_map/preDrawPath__15rendering</text>
<text text-anchor="middle" x="1614.5" y="-69" font-family="Helvetica,sans-Serif" font-size="10.00">Fmap_cFv.s</text>
</a>
</g>
</g>
<!-- Node1&#45;&gt;Node12 -->
<g id="edge12" class="edge">
<title>Node1&#45;&gt;Node12</title>
<path fill="none" stroke="midnightblue" d="M3751.47,-158.92C3418.35,-155.82 1910.76,-140.17 1704.5,-109 1698.28,-108.06 1691.89,-106.82 1685.51,-105.4"/>
<polygon fill="midnightblue" stroke="midnightblue" points="1686.07,-101.93 1675.53,-103.02 1684.45,-108.74 1686.07,-101.93"/>
</g>
<!-- Node13 -->
<g id="node13" class="node">
<title>Node13</title>
<g id="a_node13"><a xlink:title=" ">
<polygon fill="white" stroke="#bfbfbf" points="1713,-62 1713,-103 1868,-103 1868,-62 1713,-62"/>
<text text-anchor="start" x="1721" y="-91" font-family="Helvetica,sans-Serif" font-size="10.00">asm/d/menu/d_menu_fmap</text>
<text text-anchor="start" x="1721" y="-80" font-family="Helvetica,sans-Serif" font-size="10.00">_map/isDrawPath__15rendering</text>
<text text-anchor="middle" x="1790.5" y="-69" font-family="Helvetica,sans-Serif" font-size="10.00">Fmap_cFv.s</text>
</a>
</g>
</g>
<!-- Node1&#45;&gt;Node13 -->
<g id="edge13" class="edge">
<title>Node1&#45;&gt;Node13</title>
<path fill="none" stroke="midnightblue" d="M3751.39,-158.81C3435,-155.3 2065.62,-138.51 1877.5,-109 1871.62,-108.08 1865.58,-106.87 1859.56,-105.49"/>
<polygon fill="midnightblue" stroke="midnightblue" points="1860.02,-101.99 1849.47,-103 1858.34,-108.79 1860.02,-101.99"/>
</g>
<!-- Node14 -->
<g id="node14" class="node">
<title>Node14</title>
<g id="a_node14"><a xlink:title=" ">
<polygon fill="white" stroke="#bfbfbf" points="1886.5,-62 1886.5,-103 2046.5,-103 2046.5,-62 1886.5,-62"/>
<text text-anchor="start" x="1894.5" y="-91" font-family="Helvetica,sans-Serif" font-size="10.00">asm/d/menu/d_menu_fmap</text>
<text text-anchor="start" x="1894.5" y="-80" font-family="Helvetica,sans-Serif" font-size="10.00">_map/isDrawRoom__15rendering</text>
<text text-anchor="middle" x="1966.5" y="-69" font-family="Helvetica,sans-Serif" font-size="10.00">Fmap_cFv.s</text>
</a>
</g>
</g>
<!-- Node1&#45;&gt;Node14 -->
<g id="edge14" class="edge">
<title>Node1&#45;&gt;Node14</title>
<path fill="none" stroke="midnightblue" d="M3751.2,-159.81C3473.77,-160.8 2391.74,-161.15 2055.5,-109 2049.6,-108.08 2043.54,-106.9 2037.48,-105.54"/>
<polygon fill="midnightblue" stroke="midnightblue" points="2037.87,-102.03 2027.33,-103.1 2036.24,-108.84 2037.87,-102.03"/>
</g>
<!-- Node15 -->
<g id="node15" class="node">
<title>Node15</title>
<g id="a_node15"><a xlink:title=" ">
<polygon fill="white" stroke="#bfbfbf" points="2064.5,-62 2064.5,-103 2230.5,-103 2230.5,-62 2064.5,-62"/>
<text text-anchor="start" x="2072.5" y="-91" font-family="Helvetica,sans-Serif" font-size="10.00">asm/d/menu/d_menu_fmap</text>
<text text-anchor="start" x="2072.5" y="-80" font-family="Helvetica,sans-Serif" font-size="10.00">_map/postDrawPath__15rendering</text>
<text text-anchor="middle" x="2147.5" y="-69" font-family="Helvetica,sans-Serif" font-size="10.00">Fmap_cFv.s</text>
</a>
</g>
</g>
<!-- Node1&#45;&gt;Node15 -->
<g id="edge15" class="edge">
<title>Node1&#45;&gt;Node15</title>
<path fill="none" stroke="midnightblue" d="M3751.2,-159.45C3492.48,-158.96 2538.93,-154.05 2240.5,-109 2233.99,-108.02 2227.29,-106.74 2220.61,-105.27"/>
<polygon fill="midnightblue" stroke="midnightblue" points="2221.39,-101.86 2210.86,-103 2219.81,-108.68 2221.39,-101.86"/>
</g>
<!-- Node16 -->
<g id="node16" class="node">
<title>Node16</title>
<g id="a_node16"><a xlink:title=" ">
<polygon fill="white" stroke="#bfbfbf" points="2249,-62 2249,-103 2384,-103 2384,-62 2249,-62"/>
<text text-anchor="start" x="2257" y="-91" font-family="Helvetica,sans-Serif" font-size="10.00">asm/d/menu/d_menu_fmap</text>
<text text-anchor="start" x="2257" y="-80" font-family="Helvetica,sans-Serif" font-size="10.00">_map/postRenderingMap</text>
<text text-anchor="middle" x="2316.5" y="-69" font-family="Helvetica,sans-Serif" font-size="10.00">__15renderingFmap_cFv.s</text>
</a>
</g>
</g>
<!-- Node1&#45;&gt;Node16 -->
<g id="edge16" class="edge">
<title>Node1&#45;&gt;Node16</title>
<path fill="none" stroke="midnightblue" d="M3751.37,-159.64C3508.99,-159.77 2659.47,-156.75 2393.5,-109 2388.73,-108.14 2383.84,-107.06 2378.97,-105.81"/>
<polygon fill="midnightblue" stroke="midnightblue" points="2379.58,-102.35 2369.01,-103.08 2377.72,-109.1 2379.58,-102.35"/>
</g>
<!-- Node17 -->
<g id="node17" class="node">
<title>Node17</title>
<g id="a_node17"><a xlink:title=" ">
<polygon fill="white" stroke="#bfbfbf" points="2402.5,-62 2402.5,-103 2564.5,-103 2564.5,-62 2402.5,-62"/>
<text text-anchor="start" x="2410.5" y="-91" font-family="Helvetica,sans-Serif" font-size="10.00">asm/d/menu/d_menu_fmap</text>
<text text-anchor="start" x="2410.5" y="-80" font-family="Helvetica,sans-Serif" font-size="10.00">_map/roomSetteing__15rendering</text>
<text text-anchor="middle" x="2483.5" y="-69" font-family="Helvetica,sans-Serif" font-size="10.00">Fmap_cFv.s</text>
</a>
</g>
</g>
<!-- Node1&#45;&gt;Node17 -->
<g id="edge17" class="edge">
<title>Node1&#45;&gt;Node17</title>
<path fill="none" stroke="midnightblue" d="M3751.48,-158.85C3529.8,-156.32 2804.57,-145.4 2574.5,-109 2568.44,-108.04 2562.2,-106.82 2555.98,-105.43"/>
<polygon fill="midnightblue" stroke="midnightblue" points="2556.77,-102.02 2546.23,-103.12 2555.16,-108.83 2556.77,-102.02"/>
</g>
<!-- Node18 -->
<g id="node18" class="node">
<title>Node18</title>
<g id="a_node18"><a xlink:title=" ">
<polygon fill="white" stroke="#bfbfbf" points="2583,-62 2583,-103 2718,-103 2718,-62 2583,-62"/>
<text text-anchor="start" x="2591" y="-91" font-family="Helvetica,sans-Serif" font-size="10.00">asm/d/menu/d_menu_fmap</text>
<text text-anchor="start" x="2591" y="-80" font-family="Helvetica,sans-Serif" font-size="10.00">_map/getFirstRoomPointer</text>
<text text-anchor="middle" x="2650.5" y="-69" font-family="Helvetica,sans-Serif" font-size="10.00">__15renderingFmap_cFv.s</text>
</a>
</g>
</g>
<!-- Node1&#45;&gt;Node18 -->
<g id="edge18" class="edge">
<title>Node1&#45;&gt;Node18</title>
<path fill="none" stroke="midnightblue" d="M3751.42,-158.81C3547.97,-156.29 2925.7,-145.7 2727.5,-109 2722.81,-108.13 2718.02,-107.05 2713.23,-105.82"/>
<polygon fill="midnightblue" stroke="midnightblue" points="2714.01,-102.41 2703.44,-103.12 2712.15,-109.15 2714.01,-102.41"/>
</g>
<!-- Node19 -->
<g id="node19" class="node">
<title>Node19</title>
<g id="a_node19"><a xlink:title=" ">
<polygon fill="white" stroke="#bfbfbf" points="2736,-62 2736,-103 2903,-103 2903,-62 2736,-62"/>
<text text-anchor="start" x="2744" y="-91" font-family="Helvetica,sans-Serif" font-size="10.00">asm/d/menu/d_menu_fmap</text>
<text text-anchor="start" x="2744" y="-80" font-family="Helvetica,sans-Serif" font-size="10.00">_map/getFirstRegion__15rendering</text>
<text text-anchor="middle" x="2819.5" y="-69" font-family="Helvetica,sans-Serif" font-size="10.00">Fmap_cFv.s</text>
</a>
</g>
</g>
<!-- Node1&#45;&gt;Node19 -->
<g id="edge19" class="edge">
<title>Node1&#45;&gt;Node19</title>
<path fill="none" stroke="midnightblue" d="M3751.39,-157.65C3572.17,-152.29 3074.23,-135.38 2912.5,-109 2906.37,-108 2900.07,-106.76 2893.77,-105.36"/>
<polygon fill="midnightblue" stroke="midnightblue" points="2894.44,-101.92 2883.9,-103.05 2892.84,-108.73 2894.44,-101.92"/>
</g>
<!-- Node20 -->
<g id="node20" class="node">
<title>Node20</title>
<g id="a_node20"><a xlink:title=" ">
<polygon fill="white" stroke="#bfbfbf" points="2921,-62 2921,-103 3084,-103 3084,-62 2921,-62"/>
<text text-anchor="start" x="2929" y="-91" font-family="Helvetica,sans-Serif" font-size="10.00">asm/d/menu/d_menu_fmap</text>
<text text-anchor="start" x="2929" y="-80" font-family="Helvetica,sans-Serif" font-size="10.00">_map/getFirstStage__15rendering</text>
<text text-anchor="middle" x="3002.5" y="-69" font-family="Helvetica,sans-Serif" font-size="10.00">Fmap_cFv.s</text>
</a>
</g>
</g>
<!-- Node1&#45;&gt;Node20 -->
<g id="edge20" class="edge">
<title>Node1&#45;&gt;Node20</title>
<path fill="none" stroke="midnightblue" d="M3751.16,-159.37C3623.71,-158.14 3333.4,-150.55 3093.5,-109 3087.7,-108 3081.74,-106.77 3075.78,-105.41"/>
<polygon fill="midnightblue" stroke="midnightblue" points="3076.31,-101.94 3065.76,-103 3074.67,-108.74 3076.31,-101.94"/>
</g>
<!-- Node21 -->
<g id="node21" class="node">
<title>Node21</title>
<g id="a_node21"><a xlink:title=" ">
<polygon fill="white" stroke="#bfbfbf" points="3102,-62 3102,-103 3265,-103 3265,-62 3102,-62"/>
<text text-anchor="start" x="3110" y="-91" font-family="Helvetica,sans-Serif" font-size="10.00">asm/d/menu/d_menu_fmap</text>
<text text-anchor="start" x="3110" y="-80" font-family="Helvetica,sans-Serif" font-size="10.00">_map/getFirstRoom__15rendering</text>
<text text-anchor="middle" x="3183.5" y="-69" font-family="Helvetica,sans-Serif" font-size="10.00">Fmap_cFv.s</text>
</a>
</g>
</g>
<!-- Node1&#45;&gt;Node21 -->
<g id="edge21" class="edge">
<title>Node1&#45;&gt;Node21</title>
<path fill="none" stroke="midnightblue" d="M3751.32,-157.22C3649,-152.79 3444.79,-140.53 3274.5,-109 3269.06,-107.99 3263.46,-106.81 3257.86,-105.51"/>
<polygon fill="midnightblue" stroke="midnightblue" points="3258.33,-102.02 3247.79,-103.06 3256.68,-108.82 3258.33,-102.02"/>
</g>
<!-- Node22 -->
<g id="node22" class="node">
<title>Node22</title>
<g id="a_node22"><a xlink:title=" ">
<polygon fill="white" stroke="#bfbfbf" points="3283.5,-62 3283.5,-103 3447.5,-103 3447.5,-62 3283.5,-62"/>
<text text-anchor="start" x="3291.5" y="-91" font-family="Helvetica,sans-Serif" font-size="10.00">asm/d/menu/d_menu_fmap</text>
<text text-anchor="start" x="3291.5" y="-80" font-family="Helvetica,sans-Serif" font-size="10.00">_map/getNextRoom__15rendering</text>
<text text-anchor="middle" x="3365.5" y="-69" font-family="Helvetica,sans-Serif" font-size="10.00">Fmap_cFv.s</text>
</a>
</g>
</g>
<!-- Node1&#45;&gt;Node22 -->
<g id="edge22" class="edge">
<title>Node1&#45;&gt;Node22</title>
<path fill="none" stroke="midnightblue" d="M3751.34,-153.01C3678.88,-145.19 3558.58,-130.36 3456.5,-109 3451.51,-107.96 3446.39,-106.79 3441.24,-105.55"/>
<polygon fill="midnightblue" stroke="midnightblue" points="3441.9,-102.1 3431.35,-103.07 3440.2,-108.89 3441.9,-102.1"/>
</g>
<!-- Node23 -->
<g id="node23" class="node">
<title>Node23</title>
<g id="a_node23"><a xlink:title=" ">
<polygon fill="white" stroke="#bfbfbf" points="3465.5,-62 3465.5,-103 3629.5,-103 3629.5,-62 3465.5,-62"/>
<text text-anchor="start" x="3473.5" y="-91" font-family="Helvetica,sans-Serif" font-size="10.00">asm/d/menu/d_menu_fmap</text>
<text text-anchor="start" x="3473.5" y="-80" font-family="Helvetica,sans-Serif" font-size="10.00">_map/getNextStage__15rendering</text>
<text text-anchor="middle" x="3547.5" y="-69" font-family="Helvetica,sans-Serif" font-size="10.00">Fmap_cFv.s</text>
</a>
</g>
</g>
<!-- Node1&#45;&gt;Node23 -->
<g id="edge23" class="edge">
<title>Node1&#45;&gt;Node23</title>
<path fill="none" stroke="midnightblue" d="M3766.85,-145.47C3727.53,-134.36 3671.86,-118.64 3626.45,-105.8"/>
<polygon fill="midnightblue" stroke="midnightblue" points="3627.2,-102.38 3616.63,-103.03 3625.3,-109.12 3627.2,-102.38"/>
</g>
<!-- Node24 -->
<g id="node24" class="node">
<title>Node24</title>
<g id="a_node24"><a xlink:title=" ">
<polygon fill="white" stroke="#bfbfbf" points="3647.5,-62 3647.5,-103 3815.5,-103 3815.5,-62 3647.5,-62"/>
<text text-anchor="start" x="3655.5" y="-91" font-family="Helvetica,sans-Serif" font-size="10.00">asm/d/menu/d_menu_fmap</text>
<text text-anchor="start" x="3655.5" y="-80" font-family="Helvetica,sans-Serif" font-size="10.00">_map/getNextRegion__15rendering</text>
<text text-anchor="middle" x="3731.5" y="-69" font-family="Helvetica,sans-Serif" font-size="10.00">Fmap_cFv.s</text>
</a>
</g>
</g>
<!-- Node1&#45;&gt;Node24 -->
<g id="edge24" class="edge">
<title>Node1&#45;&gt;Node24</title>
<path fill="none" stroke="midnightblue" d="M3800.51,-145.2C3789.42,-135.28 3774.31,-121.77 3761.05,-109.93"/>
<polygon fill="midnightblue" stroke="midnightblue" points="3763.3,-107.24 3753.51,-103.18 3758.63,-112.45 3763.3,-107.24"/>
</g>
<!-- Node25 -->
<g id="node25" class="node">
<title>Node25</title>
<g id="a_node25"><a xlink:title=" ">
<polygon fill="white" stroke="#bfbfbf" points="3834,-62 3834,-103 3969,-103 3969,-62 3834,-62"/>
<text text-anchor="start" x="3842" y="-91" font-family="Helvetica,sans-Serif" font-size="10.00">asm/d/menu/d_menu_fmap</text>
<text text-anchor="start" x="3842" y="-80" font-family="Helvetica,sans-Serif" font-size="10.00">_map/getNextRoomPointer</text>
<text text-anchor="middle" x="3901.5" y="-69" font-family="Helvetica,sans-Serif" font-size="10.00">__15renderingFmap_cFv.s</text>
</a>
</g>
</g>
<!-- Node1&#45;&gt;Node25 -->
<g id="edge25" class="edge">
<title>Node1&#45;&gt;Node25</title>
<path fill="none" stroke="midnightblue" d="M3832.49,-145.2C3843.58,-135.28 3858.69,-121.77 3871.95,-109.93"/>
<polygon fill="midnightblue" stroke="midnightblue" points="3874.37,-112.45 3879.49,-103.18 3869.7,-107.24 3874.37,-112.45"/>
</g>
<!-- Node26 -->
<g id="node26" class="node">
<title>Node26</title>
<g id="a_node26"><a xlink:title=" ">
<polygon fill="white" stroke="#bfbfbf" points="3987,-56.5 3987,-108.5 4182,-108.5 4182,-56.5 3987,-56.5"/>
<text text-anchor="start" x="3995" y="-96.5" font-family="Helvetica,sans-Serif" font-size="10.00">asm/d/menu/d_menu_fmap</text>
<text text-anchor="start" x="3995" y="-85.5" font-family="Helvetica,sans-Serif" font-size="10.00">_map/setFmapPaletteColor</text>
<text text-anchor="start" x="3995" y="-74.5" font-family="Helvetica,sans-Serif" font-size="10.00">__15dMenu_FmapMap_cFQ215rendering</text>
<text text-anchor="middle" x="4084.5" y="-63.5" font-family="Helvetica,sans-Serif" font-size="10.00">Fmap_c9palette_eUcUcUcUc.s</text>
</a>
</g>
</g>
<!-- Node1&#45;&gt;Node26 -->
<g id="edge26" class="edge">
<title>Node1&#45;&gt;Node26</title>
<path fill="none" stroke="midnightblue" d="M3865.97,-145.47C3899.71,-135.9 3945.55,-122.91 3986.52,-111.28"/>
<polygon fill="midnightblue" stroke="midnightblue" points="3987.61,-114.61 3996.28,-108.52 3985.7,-107.88 3987.61,-114.61"/>
</g>
<!-- Node27 -->
<g id="node27" class="node">
<title>Node27</title>
<g id="a_node27"><a xlink:title=" ">
<polygon fill="white" stroke="#bfbfbf" points="4200,-56.5 4200,-108.5 4395,-108.5 4395,-56.5 4200,-56.5"/>
<text text-anchor="start" x="4208" y="-96.5" font-family="Helvetica,sans-Serif" font-size="10.00">asm/d/menu/d_menu_fmap</text>
<text text-anchor="start" x="4208" y="-85.5" font-family="Helvetica,sans-Serif" font-size="10.00">_map/setFmapPaletteColor</text>
<text text-anchor="start" x="4208" y="-74.5" font-family="Helvetica,sans-Serif" font-size="10.00">__15dMenu_FmapMap_cFQ215rendering</text>
<text text-anchor="middle" x="4297.5" y="-63.5" font-family="Helvetica,sans-Serif" font-size="10.00">Fmap_c9palette_eRC8_GXColor.s</text>
</a>
</g>
</g>
<!-- Node1&#45;&gt;Node27 -->
<g id="edge27" class="edge">
<title>Node1&#45;&gt;Node27</title>
<path fill="none" stroke="midnightblue" d="M3881.52,-152.79C3954.43,-144.8 4076.36,-130.07 4190.05,-109.2"/>
<polygon fill="midnightblue" stroke="midnightblue" points="4190.78,-112.63 4199.97,-107.36 4189.5,-105.74 4190.78,-112.63"/>
</g>
<!-- Node28 -->
<g id="node28" class="node">
<title>Node28</title>
<g id="a_node28"><a xlink:title=" ">
<polygon fill="white" stroke="#bfbfbf" points="4413,-62 4413,-103 4562,-103 4562,-62 4413,-62"/>
<text text-anchor="start" x="4421" y="-91" font-family="Helvetica,sans-Serif" font-size="10.00">asm/d/menu/d_menu_fmap</text>
<text text-anchor="start" x="4421" y="-80" font-family="Helvetica,sans-Serif" font-size="10.00">_map/isFlashRoomNoCheck</text>
<text text-anchor="middle" x="4487.5" y="-69" font-family="Helvetica,sans-Serif" font-size="10.00">__15dMenu_FmapMap_cCFi.s</text>
</a>
</g>
</g>
<!-- Node1&#45;&gt;Node28 -->
<g id="edge28" class="edge">
<title>Node1&#45;&gt;Node28</title>
<path fill="none" stroke="midnightblue" d="M3881.51,-158.41C3990.58,-155.59 4216.92,-145.44 4404.5,-109 4409.46,-108.04 4414.54,-106.89 4419.63,-105.62"/>
<polygon fill="midnightblue" stroke="midnightblue" points="4420.62,-108.98 4429.4,-103.05 4418.84,-102.21 4420.62,-108.98"/>
</g>
<!-- Node29 -->
<g id="node29" class="node">
<title>Node29</title>
<g id="a_node29"><a xlink:title=" ">
<polygon fill="white" stroke="#bfbfbf" points="4580.5,-62 4580.5,-103 4732.5,-103 4732.5,-62 4580.5,-62"/>
<text text-anchor="start" x="4588.5" y="-91" font-family="Helvetica,sans-Serif" font-size="10.00">asm/d/menu/d_menu_fmap</text>
<text text-anchor="start" x="4588.5" y="-80" font-family="Helvetica,sans-Serif" font-size="10.00">_map/setPointColor__15dMenu</text>
<text text-anchor="middle" x="4656.5" y="-69" font-family="Helvetica,sans-Serif" font-size="10.00">_FmapMap_cFf.s</text>
</a>
</g>
</g>
<!-- Node1&#45;&gt;Node29 -->
<g id="edge29" class="edge">
<title>Node1&#45;&gt;Node29</title>
<path fill="none" stroke="midnightblue" d="M3881.74,-160.04C4013.31,-160.05 4319.43,-154.64 4571.5,-109 4576.81,-108.04 4582.25,-106.86 4587.7,-105.55"/>
<polygon fill="midnightblue" stroke="midnightblue" points="4588.64,-108.92 4597.47,-103.06 4586.91,-102.14 4588.64,-108.92"/>
</g>
<!-- Node30 -->
<g id="node30" class="node">
<title>Node30</title>
<g id="a_node30"><a xlink:title=" ">
<polygon fill="white" stroke="#bfbfbf" points="4751,-67.5 4751,-97.5 4942,-97.5 4942,-67.5 4751,-67.5"/>
<text text-anchor="start" x="4759" y="-85.5" font-family="Helvetica,sans-Serif" font-size="10.00">asm/d/menu/d_menu_fmap</text>
<text text-anchor="middle" x="4846.5" y="-74.5" font-family="Helvetica,sans-Serif" font-size="10.00">_map/__ct__15dMenu_FmapMap_cFv.s</text>
</a>
</g>
</g>
<!-- Node1&#45;&gt;Node30 -->
<g id="edge30" class="edge">
<title>Node1&#45;&gt;Node30</title>
<path fill="none" stroke="midnightblue" d="M3881.67,-160.04C4033.36,-160.4 4421.49,-156.18 4741.5,-109 4756.35,-106.81 4772.18,-103.5 4786.92,-99.98"/>
<polygon fill="midnightblue" stroke="midnightblue" points="4788.05,-103.3 4796.93,-97.52 4786.38,-96.51 4788.05,-103.3"/>
</g>
<!-- Node31 -->
<g id="node31" class="node">
<title>Node31</title>
<g id="a_node31"><a xlink:title=" ">
<polygon fill="white" stroke="#bfbfbf" points="4960,-67.5 4960,-97.5 5151,-97.5 5151,-67.5 4960,-67.5"/>
<text text-anchor="start" x="4968" y="-85.5" font-family="Helvetica,sans-Serif" font-size="10.00">asm/d/menu/d_menu_fmap</text>
<text text-anchor="middle" x="5055.5" y="-74.5" font-family="Helvetica,sans-Serif" font-size="10.00">_map/__dt__15dMenu_FmapMap_cFv.s</text>
</a>
</g>
</g>
<!-- Node1&#45;&gt;Node31 -->
<g id="edge31" class="edge">
<title>Node1&#45;&gt;Node31</title>
<path fill="none" stroke="midnightblue" d="M3881.62,-158.28C4090.58,-154.1 4742.71,-138.95 4951.5,-109 4966.3,-106.88 4982.07,-103.57 4996.74,-100.03"/>
<polygon fill="midnightblue" stroke="midnightblue" points="4997.83,-103.37 5006.69,-97.56 4996.14,-96.58 4997.83,-103.37"/>
</g>
<!-- Node32 -->
<g id="node32" class="node">
<title>Node32</title>
<g id="a_node32"><a xlink:title=" ">
<polygon fill="white" stroke="#bfbfbf" points="5169.5,-62 5169.5,-103 5321.5,-103 5321.5,-62 5169.5,-62"/>
<text text-anchor="start" x="5177.5" y="-91" font-family="Helvetica,sans-Serif" font-size="10.00">asm/d/menu/d_menu_fmap</text>
<text text-anchor="start" x="5177.5" y="-80" font-family="Helvetica,sans-Serif" font-size="10.00">_map/_create__15dMenu</text>
<text text-anchor="middle" x="5245.5" y="-69" font-family="Helvetica,sans-Serif" font-size="10.00">_FmapMap_cFUsUsUsUsPv.s</text>
</a>
</g>
</g>
<!-- Node1&#45;&gt;Node32 -->
<g id="edge32" class="edge">
<title>Node1&#45;&gt;Node32</title>
<path fill="none" stroke="midnightblue" d="M3881.55,-159.24C4115.01,-157.96 4910,-150.58 5160.5,-109 5166.15,-108.06 5171.95,-106.86 5177.73,-105.49"/>
<polygon fill="midnightblue" stroke="midnightblue" points="5178.59,-108.88 5187.43,-103.04 5176.88,-102.09 5178.59,-108.88"/>
</g>
<!-- Node33 -->
<g id="node33" class="node">
<title>Node33</title>
<g id="a_node33"><a xlink:title=" ">
<polygon fill="white" stroke="#bfbfbf" points="5340,-62 5340,-103 5475,-103 5475,-62 5340,-62"/>
<text text-anchor="start" x="5348" y="-91" font-family="Helvetica,sans-Serif" font-size="10.00">asm/d/menu/d_menu_fmap</text>
<text text-anchor="start" x="5348" y="-80" font-family="Helvetica,sans-Serif" font-size="10.00">_map/_delete__15dMenu</text>
<text text-anchor="middle" x="5407.5" y="-69" font-family="Helvetica,sans-Serif" font-size="10.00">_FmapMap_cFv.s</text>
</a>
</g>
</g>
<!-- Node1&#45;&gt;Node33 -->
<g id="edge33" class="edge">
<title>Node1&#45;&gt;Node33</title>
<path fill="none" stroke="midnightblue" d="M3881.86,-159.8C4134.35,-160.59 5046.03,-159.76 5330.5,-109 5335.27,-108.15 5340.16,-107.06 5345.03,-105.83"/>
<polygon fill="midnightblue" stroke="midnightblue" points="5346.28,-109.11 5355,-103.09 5344.43,-102.36 5346.28,-109.11"/>
</g>
<!-- Node34 -->
<g id="node34" class="node">
<title>Node34</title>
<g id="a_node34"><a xlink:title=" ">
<polygon fill="white" stroke="#bfbfbf" points="5493,-67.5 5493,-97.5 5686,-97.5 5686,-67.5 5493,-67.5"/>
<text text-anchor="start" x="5501" y="-85.5" font-family="Helvetica,sans-Serif" font-size="10.00">asm/d/menu/d_menu_fmap</text>
<text text-anchor="middle" x="5589.5" y="-74.5" font-family="Helvetica,sans-Serif" font-size="10.00">_map/draw__15dMenu_FmapMap_cFv.s</text>
</a>
</g>
</g>
<!-- Node1&#45;&gt;Node34 -->
<g id="edge34" class="edge">
<title>Node1&#45;&gt;Node34</title>
<path fill="none" stroke="midnightblue" d="M3881.89,-159.34C4150.08,-158.38 5166.53,-151.95 5484.5,-109 5499.83,-106.93 5516.17,-103.55 5531.29,-99.92"/>
<polygon fill="midnightblue" stroke="midnightblue" points="5532.16,-103.31 5541.02,-97.5 5530.47,-96.51 5532.16,-103.31"/>
</g>
<!-- Node35 -->
<g id="node35" class="node">
<title>Node35</title>
<g id="a_node35"><a xlink:title=" ">
<polygon fill="white" stroke="#bfbfbf" points="5704,-56.5 5704,-108.5 5871,-108.5 5871,-56.5 5704,-56.5"/>
<text text-anchor="start" x="5712" y="-96.5" font-family="Helvetica,sans-Serif" font-size="10.00">asm/d/menu/d_menu_fmap</text>
<text text-anchor="start" x="5712" y="-85.5" font-family="Helvetica,sans-Serif" font-size="10.00">_map/rendering__15dMenu</text>
<text text-anchor="start" x="5712" y="-74.5" font-family="Helvetica,sans-Serif" font-size="10.00">_FmapMap_cFPCQ211dDrawPath</text>
<text text-anchor="middle" x="5787.5" y="-63.5" font-family="Helvetica,sans-Serif" font-size="10.00">_c10line_class.s</text>
</a>
</g>
</g>
<!-- Node1&#45;&gt;Node35 -->
<g id="edge35" class="edge">
<title>Node1&#45;&gt;Node35</title>
<path fill="none" stroke="midnightblue" d="M3881.74,-159.87C4167.89,-161.19 5314.24,-163 5694.03,-109.04"/>
<polygon fill="midnightblue" stroke="midnightblue" points="5694.56,-112.49 5703.95,-107.59 5693.55,-105.57 5694.56,-112.49"/>
</g>
<!-- Node36 -->
<g id="node36" class="node">
<title>Node36</title>
<g id="a_node36"><a xlink:title=" ">
<polygon fill="white" stroke="#bfbfbf" points="5889,-62 5889,-103 6040,-103 6040,-62 5889,-62"/>
<text text-anchor="start" x="5897" y="-91" font-family="Helvetica,sans-Serif" font-size="10.00">asm/d/menu/d_menu_fmap</text>
<text text-anchor="start" x="5897" y="-80" font-family="Helvetica,sans-Serif" font-size="10.00">_map/getLineWidth__15dMenu</text>
<text text-anchor="middle" x="5964.5" y="-69" font-family="Helvetica,sans-Serif" font-size="10.00">_FmapMap_cFi.s</text>
</a>
</g>
</g>
<!-- Node1&#45;&gt;Node36 -->
<g id="edge36" class="edge">
<title>Node1&#45;&gt;Node36</title>
<path fill="none" stroke="midnightblue" d="M3881.68,-158.95C4210.52,-156.05 5679.56,-141.34 5880.5,-109 5886.19,-108.08 5892.03,-106.88 5897.85,-105.5"/>
<polygon fill="midnightblue" stroke="midnightblue" points="5898.77,-108.88 5907.6,-103.02 5897.05,-102.09 5898.77,-108.88"/>
</g>
<!-- Node37 -->
<g id="node37" class="node">
<title>Node37</title>
<g id="a_node37"><a xlink:title=" ">
<polygon fill="white" stroke="#bfbfbf" points="6058,-62 6058,-103 6203,-103 6203,-62 6058,-62"/>
<text text-anchor="start" x="6066" y="-91" font-family="Helvetica,sans-Serif" font-size="10.00">asm/d/menu/d_menu_fmap</text>
<text text-anchor="start" x="6066" y="-80" font-family="Helvetica,sans-Serif" font-size="10.00">_map/isDrawType__15dMenu</text>
<text text-anchor="middle" x="6130.5" y="-69" font-family="Helvetica,sans-Serif" font-size="10.00">_FmapMap_cFi.s</text>
</a>
</g>
</g>
<!-- Node1&#45;&gt;Node37 -->
<g id="edge37" class="edge">
<title>Node1&#45;&gt;Node37</title>
<path fill="none" stroke="midnightblue" d="M3881.55,-159.12C4226.16,-156.97 5831.13,-145.09 6049.5,-109 6054.86,-108.11 6060.36,-106.95 6065.85,-105.62"/>
<polygon fill="midnightblue" stroke="midnightblue" points="6066.88,-108.96 6075.67,-103.04 6065.11,-102.19 6066.88,-108.96"/>
</g>
<!-- Node38 -->
<g id="node38" class="node">
<title>Node38</title>
<g id="a_node38"><a xlink:title=" ">
<polygon fill="white" stroke="#bfbfbf" points="6221.5,-62 6221.5,-103 6365.5,-103 6365.5,-62 6221.5,-62"/>
<text text-anchor="start" x="6229.5" y="-91" font-family="Helvetica,sans-Serif" font-size="10.00">asm/d/menu/d_menu_fmap</text>
<text text-anchor="start" x="6229.5" y="-80" font-family="Helvetica,sans-Serif" font-size="10.00">_map/setFlashOn__15dMenu</text>
<text text-anchor="middle" x="6293.5" y="-69" font-family="Helvetica,sans-Serif" font-size="10.00">_FmapMap_cFiiPUci.s</text>
</a>
</g>
</g>
<!-- Node1&#45;&gt;Node38 -->
<g id="edge38" class="edge">
<title>Node1&#45;&gt;Node38</title>
<path fill="none" stroke="midnightblue" d="M3881.51,-159.23C4240.95,-157.59 5977.14,-147.71 6212.5,-109 6217.86,-108.12 6223.36,-106.96 6228.85,-105.63"/>
<polygon fill="midnightblue" stroke="midnightblue" points="6229.89,-108.97 6238.67,-103.05 6228.11,-102.2 6229.89,-108.97"/>
</g>
<!-- Node39 -->
<g id="node39" class="node">
<title>Node39</title>
<g id="a_node39"><a xlink:title=" ">
<polygon fill="white" stroke="#bfbfbf" points="6384,-62 6384,-103 6533,-103 6533,-62 6384,-62"/>
<text text-anchor="start" x="6392" y="-91" font-family="Helvetica,sans-Serif" font-size="10.00">asm/d/menu/d_menu_fmap</text>
<text text-anchor="start" x="6392" y="-80" font-family="Helvetica,sans-Serif" font-size="10.00">_map/getLineColor__15dMenu</text>
<text text-anchor="middle" x="6458.5" y="-69" font-family="Helvetica,sans-Serif" font-size="10.00">_FmapMap_cFii.s</text>
</a>
</g>
</g>
<!-- Node1&#45;&gt;Node39 -->
<g id="edge39" class="edge">
<title>Node1&#45;&gt;Node39</title>
<path fill="none" stroke="midnightblue" d="M3881.57,-159.28C4255.43,-157.9 6122.04,-149.03 6374.5,-109 6380.19,-108.1 6386.03,-106.91 6391.85,-105.53"/>
<polygon fill="midnightblue" stroke="midnightblue" points="6392.77,-108.91 6401.61,-103.06 6391.05,-102.12 6392.77,-108.91"/>
</g>
<!-- Node40 -->
<g id="node40" class="node">
<title>Node40</title>
<g id="a_node40"><a xlink:title=" ">
<polygon fill="white" stroke="#bfbfbf" points="6551.5,-62 6551.5,-103 6703.5,-103 6703.5,-62 6551.5,-62"/>
<text text-anchor="start" x="6559.5" y="-91" font-family="Helvetica,sans-Serif" font-size="10.00">asm/d/menu/d_menu_fmap</text>
<text text-anchor="start" x="6559.5" y="-80" font-family="Helvetica,sans-Serif" font-size="10.00">_map/getBackColor__15dMenu</text>
<text text-anchor="middle" x="6627.5" y="-69" font-family="Helvetica,sans-Serif" font-size="10.00">_FmapMap_cCFv.s</text>
</a>
</g>
</g>
<!-- Node1&#45;&gt;Node40 -->
<g id="edge40" class="edge">
<title>Node1&#45;&gt;Node40</title>
<path fill="none" stroke="midnightblue" d="M3881.69,-159.36C4270.17,-158.36 6272.42,-151.2 6542.5,-109 6548.25,-108.1 6554.16,-106.91 6560.05,-105.54"/>
<polygon fill="midnightblue" stroke="midnightblue" points="6561.07,-108.89 6569.92,-103.07 6559.37,-102.1 6561.07,-108.89"/>
</g>
<!-- Node41 -->
<g id="node41" class="node">
<title>Node41</title>
<g id="a_node41"><a xlink:title=" ">
<polygon fill="white" stroke="#bfbfbf" points="6722,-62 6722,-103 6857,-103 6857,-62 6722,-62"/>
<text text-anchor="start" x="6730" y="-91" font-family="Helvetica,sans-Serif" font-size="10.00">asm/d/menu/d_menu_fmap</text>
<text text-anchor="start" x="6730" y="-80" font-family="Helvetica,sans-Serif" font-size="10.00">_map/getColor__15dMenu</text>
<text text-anchor="middle" x="6789.5" y="-69" font-family="Helvetica,sans-Serif" font-size="10.00">_FmapMap_cFi.s</text>
</a>
</g>
</g>
<!-- Node1&#45;&gt;Node41 -->
<g id="edge41" class="edge">
<title>Node1&#45;&gt;Node41</title>
<path fill="none" stroke="midnightblue" d="M3881.8,-159.54C4284.76,-159.65 6425.29,-157.89 6712.5,-109 6717.49,-108.15 6722.6,-107.04 6727.69,-105.75"/>
<polygon fill="midnightblue" stroke="midnightblue" points="6728.71,-109.1 6737.44,-103.08 6726.87,-102.35 6728.71,-109.1"/>
</g>
<!-- Node42 -->
<g id="node42" class="node">
<title>Node42</title>
<g id="a_node42"><a xlink:title=" ">
<polygon fill="white" stroke="#bfbfbf" points="6875.5,-62 6875.5,-103 7015.5,-103 7015.5,-62 6875.5,-62"/>
<text text-anchor="start" x="6883.5" y="-91" font-family="Helvetica,sans-Serif" font-size="10.00">asm/d/menu/d_menu_fmap</text>
<text text-anchor="start" x="6883.5" y="-80" font-family="Helvetica,sans-Serif" font-size="10.00">_map/setTexture__15dMenu</text>
<text text-anchor="middle" x="6945.5" y="-69" font-family="Helvetica,sans-Serif" font-size="10.00">_FmapMap_cFUsUsUsUs.s</text>
</a>
</g>
</g>
<!-- Node1&#45;&gt;Node42 -->
<g id="edge42" class="edge">
<title>Node1&#45;&gt;Node42</title>
<path fill="none" stroke="midnightblue" d="M3881.54,-159.58C4296.23,-159.9 6562.91,-159.36 6866.5,-109 6871.61,-108.15 6876.85,-107.04 6882.07,-105.75"/>
<polygon fill="midnightblue" stroke="midnightblue" points="6883.3,-109.05 6892.06,-103.09 6881.49,-102.28 6883.3,-109.05"/>
</g>
<!-- Node43 -->
<g id="node43" class="node">
<title>Node43</title>
<g id="a_node43"><a xlink:title=" ">
<polygon fill="white" stroke="#bfbfbf" points="7033.5,-56.5 7033.5,-108.5 7191.5,-108.5 7191.5,-56.5 7033.5,-56.5"/>
<text text-anchor="start" x="7041.5" y="-96.5" font-family="Helvetica,sans-Serif" font-size="10.00">asm/d/menu/d_menu_fmap</text>
<text text-anchor="start" x="7041.5" y="-85.5" font-family="Helvetica,sans-Serif" font-size="10.00">_map/setRendering__15dMenu</text>
<text text-anchor="start" x="7041.5" y="-74.5" font-family="Helvetica,sans-Serif" font-size="10.00">_FmapMap_cFP23dMenu_Fmap</text>
<text text-anchor="middle" x="7112.5" y="-63.5" font-family="Helvetica,sans-Serif" font-size="10.00">_world_data_ciffff.s</text>
</a>
</g>
</g>
<!-- Node1&#45;&gt;Node43 -->
<g id="edge43" class="edge">
<title>Node1&#45;&gt;Node43</title>
<path fill="none" stroke="midnightblue" d="M3881.76,-159.52C4305.31,-159.48 6658.21,-157.18 7023.12,-108.94"/>
<polygon fill="midnightblue" stroke="midnightblue" points="7023.67,-112.4 7033.09,-107.54 7022.7,-105.47 7023.67,-112.4"/>
</g>
<!-- Node44 -->
<g id="node44" class="node">
<title>Node44</title>
<g id="a_node44"><a xlink:title=" ">
<polygon fill="white" stroke="#bfbfbf" points="7209,-67.5 7209,-97.5 7386,-97.5 7386,-67.5 7209,-67.5"/>
<text text-anchor="start" x="7217" y="-85.5" font-family="Helvetica,sans-Serif" font-size="10.00">asm/d/menu/d_menu_fmap</text>
<text text-anchor="middle" x="7297.5" y="-74.5" font-family="Helvetica,sans-Serif" font-size="10.00">_map/__dt__15renderingFmap_cFv.s</text>
</a>
</g>
</g>
<!-- Node1&#45;&gt;Node44 -->
<g id="edge44" class="edge">
<title>Node1&#45;&gt;Node44</title>
<path fill="none" stroke="midnightblue" d="M3881.74,-159.48C4322.75,-159.19 6860.49,-155.53 7200.5,-109 7214.52,-107.08 7229.42,-103.81 7243.22,-100.24"/>
<polygon fill="midnightblue" stroke="midnightblue" points="7244.29,-103.58 7253.04,-97.6 7242.48,-96.81 7244.29,-103.58"/>
</g>
<!-- Node45 -->
<g id="node45" class="node">
<title>Node45</title>
<g id="a_node45"><a xlink:title=" ">
<polygon fill="white" stroke="#bfbfbf" points="7404,-62 7404,-103 7539,-103 7539,-62 7404,-62"/>
<text text-anchor="start" x="7412" y="-91" font-family="Helvetica,sans-Serif" font-size="10.00">asm/d/menu/d_menu_fmap</text>
<text text-anchor="start" x="7412" y="-80" font-family="Helvetica,sans-Serif" font-size="10.00">_map/isRenderingFloor</text>
<text text-anchor="middle" x="7471.5" y="-69" font-family="Helvetica,sans-Serif" font-size="10.00">__15renderingFmap_cFi.s</text>
</a>
</g>
</g>
<!-- Node1&#45;&gt;Node45 -->
<g id="edge45" class="edge">
<title>Node1&#45;&gt;Node45</title>
<path fill="none" stroke="midnightblue" d="M3881.54,-159.15C4351.6,-156.58 7215.6,-139.68 7395.5,-109 7400.31,-108.18 7405.22,-107.11 7410.12,-105.87"/>
<polygon fill="midnightblue" stroke="midnightblue" points="7411.42,-109.14 7420.13,-103.11 7409.56,-102.39 7411.42,-109.14"/>
</g>
<!-- Node46 -->
<g id="node46" class="node">
<title>Node46</title>
<g id="a_node46"><a xlink:title=" ">
<polygon fill="white" stroke="#bfbfbf" points="7557.5,-62 7557.5,-103 7731.5,-103 7731.5,-62 7557.5,-62"/>
<text text-anchor="start" x="7565.5" y="-91" font-family="Helvetica,sans-Serif" font-size="10.00">asm/d/menu/d_menu_fmap</text>
<text text-anchor="start" x="7565.5" y="-80" font-family="Helvetica,sans-Serif" font-size="10.00">_map/beforeDrawPath__15rendering</text>
<text text-anchor="middle" x="7644.5" y="-69" font-family="Helvetica,sans-Serif" font-size="10.00">Fmap_cFv.s</text>
</a>
</g>
</g>
<!-- Node1&#45;&gt;Node46 -->
<g id="edge46" class="edge">
<title>Node1&#45;&gt;Node46</title>
<path fill="none" stroke="midnightblue" d="M3881.59,-159.58C4347.81,-160.06 7171.76,-160.78 7548.5,-109 7555.33,-108.06 7562.37,-106.79 7569.38,-105.32"/>
<polygon fill="midnightblue" stroke="midnightblue" points="7570.62,-108.63 7579.61,-103.04 7569.09,-101.8 7570.62,-108.63"/>
</g>
<!-- Node47 -->
<g id="node47" class="node">
<title>Node47</title>
<g id="a_node47"><a xlink:title=" ">
<polygon fill="white" stroke="#bfbfbf" points="7750,-62 7750,-103 7917,-103 7917,-62 7750,-62"/>
<text text-anchor="start" x="7758" y="-91" font-family="Helvetica,sans-Serif" font-size="10.00">asm/d/menu/d_menu_fmap</text>
<text text-anchor="start" x="7758" y="-80" font-family="Helvetica,sans-Serif" font-size="10.00">_map/afterDrawPath__15rendering</text>
<text text-anchor="middle" x="7833.5" y="-69" font-family="Helvetica,sans-Serif" font-size="10.00">Fmap_cFv.s</text>
</a>
</g>
</g>
<!-- Node1&#45;&gt;Node47 -->
<g id="edge47" class="edge">
<title>Node1&#45;&gt;Node47</title>
<path fill="none" stroke="midnightblue" d="M3881.84,-159.66C4362.52,-160.73 7343.74,-165.01 7740.5,-109 7747.13,-108.06 7753.95,-106.8 7760.75,-105.33"/>
<polygon fill="midnightblue" stroke="midnightblue" points="7761.71,-108.7 7770.67,-103.05 7760.14,-101.88 7761.71,-108.7"/>
</g>
<!-- Node4&#45;&gt;Node3 -->
<g id="edge4" class="edge">
<title>Node4&#45;&gt;Node3</title>
<path fill="none" stroke="midnightblue" d="M165.8,-67.23C158.98,-56.06 149.47,-40.46 142.19,-28.52"/>
<polygon fill="midnightblue" stroke="midnightblue" points="145.12,-26.61 136.92,-19.89 139.14,-30.25 145.12,-26.61"/>
</g>
</g>
</svg>
