<?xml version="1.0" encoding="UTF-8" standalone="no"?>
<!DOCTYPE svg PUBLIC "-//W3C//DTD SVG 1.1//EN"
 "http://www.w3.org/Graphics/SVG/1.1/DTD/svg11.dtd">
<!-- Generated by graphviz version 2.47.0 (20210316.2052)
 -->
<!-- Title: src/d/menu/d_menu_item_explain.cpp Pages: 1 -->
<!--zoomable 184 -->
<svg id="main" version="1.1" xmlns="http://www.w3.org/2000/svg" xmlns:xlink="http://www.w3.org/1999/xlink" xml:space="preserve" onload="init(evt)">
<style type="text/css"><![CDATA[
.edge:hover path { stroke: red; }
.edge:hover polygon { stroke: red; fill: red; }
]]></style>
<script type="text/javascript"><![CDATA[
var edges = document.getElementsByTagName('g');
if (edges && edges.length) {
  for (var i=0;i<edges.length;i++) {
    if (edges[i].id.substr(0,4)=='edge') {
      edges[i].setAttribute('class','edge');
    }
  }
}
]]></script>
        <defs>
                <circle id="rim" cx="0" cy="0" r="7"/>
                <circle id="rim2" cx="0" cy="0" r="3.5"/>
                <g id="zoomPlus">
                        <use xlink:href="#rim" fill="#404040">
                                <set attributeName="fill" to="#808080" begin="zoomplus.mouseover" end="zoomplus.mouseout"/>
                        </use>
                        <path d="M-4,0h8M0,-4v8" fill="none" stroke="white" stroke-width="1.5" pointer-events="none"/>
                </g>
                <g id="zoomMin">
                        <use xlink:href="#rim" fill="#404040">
                                <set attributeName="fill" to="#808080" begin="zoomminus.mouseover" end="zoomminus.mouseout"/>
                        </use>
                        <path d="M-4,0h8" fill="none" stroke="white" stroke-width="1.5" pointer-events="none"/>
                </g>
                <g id="dirArrow">
                        <path fill="none" stroke="white" stroke-width="1.5" d="M0,-3.0v7 M-2.5,-0.5L0,-3.0L2.5,-0.5"/>
                </g>
               <g id="resetDef">
                       <use xlink:href="#rim2" fill="#404040">
                               <set attributeName="fill" to="#808080" begin="reset.mouseover" end="reset.mouseout"/>
                       </use>
               </g>
        </defs>

<script type="text/javascript">
var viewWidth = 4539;
var viewHeight = 184;
var sectionId = 'dynsection-0';
</script>
<script xlink:href="svgpan.js"/>
<svg id="graph" class="graph">
<g id="viewport">
<title>src/d/menu/d_menu_item_explain.cpp</title>
<polygon fill="white" stroke="transparent" points="-4,4 -4,-180 4534.5,-180 4534.5,4 -4,4"/>
<!-- Node1 -->
<g id="node1" class="node">
<title>Node1</title>
<g id="a_node1"><a xlink:title=" ">
<polygon fill="#bfbfbf" stroke="black" points="2028,-145.5 2028,-175.5 2155,-175.5 2155,-145.5 2028,-145.5"/>
<text text-anchor="start" x="2036" y="-163.5" font-family="Helvetica,sans-Serif" font-size="10.00">src/d/menu/d_menu_item</text>
<text text-anchor="middle" x="2091.5" y="-152.5" font-family="Helvetica,sans-Serif" font-size="10.00">_explain.cpp</text>
</a>
</g>
</g>
<!-- Node2 -->
<g id="node2" class="node">
<title>Node2</title>
<g id="a_node2"><a xlink:href="dol2asm_8h.html" target="_top" xlink:title=" ">
<polygon fill="white" stroke="black" points="0,-73 0,-92 61,-92 61,-73 0,-73"/>
<text text-anchor="middle" x="30.5" y="-80" font-family="Helvetica,sans-Serif" font-size="10.00">dol2asm.h</text>
</a>
</g>
</g>
<!-- Node1&#45;&gt;Node2 -->
<g id="edge1" class="edge">
<title>Node1&#45;&gt;Node2</title>
<path fill="none" stroke="midnightblue" d="M2027.92,-159.74C1706.38,-160.72 267.13,-162.1 75.5,-109 66.86,-106.61 58.11,-102.2 50.66,-97.72"/>
<polygon fill="midnightblue" stroke="midnightblue" points="52.31,-94.62 42.01,-92.14 48.52,-100.5 52.31,-94.62"/>
</g>
<!-- Node3 -->
<g id="node3" class="node">
<title>Node3</title>
<g id="a_node3"><a xlink:href="types_8h.html" target="_top" xlink:title=" ">
<polygon fill="white" stroke="black" points="90,-0.5 90,-19.5 171,-19.5 171,-0.5 90,-0.5"/>
<text text-anchor="middle" x="130.5" y="-7.5" font-family="Helvetica,sans-Serif" font-size="10.00">dolphin/types.h</text>
</a>
</g>
</g>
<!-- Node1&#45;&gt;Node3 -->
<g id="edge2" class="edge">
<title>Node1&#45;&gt;Node3</title>
<path fill="none" stroke="midnightblue" d="M2027.86,-159.09C1692.33,-156.77 142.79,-144.18 108.5,-109 87.4,-87.36 104.96,-50.09 118.5,-28.28"/>
<polygon fill="midnightblue" stroke="midnightblue" points="121.56,-30 124.11,-19.72 115.7,-26.17 121.56,-30"/>
</g>
<!-- Node4 -->
<g id="node4" class="node">
<title>Node4</title>
<g id="a_node4"><a xlink:href="d__menu__item__explain_8h.html" target="_top" xlink:title=" ">
<polygon fill="white" stroke="black" points="117.5,-67.5 117.5,-97.5 227.5,-97.5 227.5,-67.5 117.5,-67.5"/>
<text text-anchor="start" x="125.5" y="-85.5" font-family="Helvetica,sans-Serif" font-size="10.00">d/menu/d_menu_item</text>
<text text-anchor="middle" x="172.5" y="-74.5" font-family="Helvetica,sans-Serif" font-size="10.00">_explain.h</text>
</a>
</g>
</g>
<!-- Node1&#45;&gt;Node4 -->
<g id="edge3" class="edge">
<title>Node1&#45;&gt;Node4</title>
<path fill="none" stroke="midnightblue" d="M2027.92,-159.07C1722.77,-156.84 415.68,-145.22 237.5,-109 228.88,-107.25 219.92,-104.44 211.51,-101.31"/>
<polygon fill="midnightblue" stroke="midnightblue" points="212.52,-97.95 201.94,-97.54 209.96,-104.46 212.52,-97.95"/>
</g>
<!-- Node5 -->
<g id="node5" class="node">
<title>Node5</title>
<g id="a_node5"><a xlink:title=" ">
<polygon fill="white" stroke="#bfbfbf" points="246,-56.5 246,-108.5 427,-108.5 427,-56.5 246,-56.5"/>
<text text-anchor="start" x="254" y="-96.5" font-family="Helvetica,sans-Serif" font-size="10.00">asm/d/menu/d_menu_item</text>
<text text-anchor="start" x="254" y="-85.5" font-family="Helvetica,sans-Serif" font-size="10.00">_explain/__ct__19dMenu</text>
<text text-anchor="start" x="254" y="-74.5" font-family="Helvetica,sans-Serif" font-size="10.00">_ItemExplain_cFP10JKRExpHeapP10</text>
<text text-anchor="middle" x="336.5" y="-63.5" font-family="Helvetica,sans-Serif" font-size="10.00">JKRArchiveP9STControlb.s</text>
</a>
</g>
</g>
<!-- Node1&#45;&gt;Node5 -->
<g id="edge5" class="edge">
<title>Node1&#45;&gt;Node5</title>
<path fill="none" stroke="midnightblue" d="M2027.95,-159.42C1766.58,-158.81 772.94,-153.64 437.3,-108.92"/>
<polygon fill="midnightblue" stroke="midnightblue" points="437.46,-105.41 427.08,-107.52 436.51,-112.35 437.46,-105.41"/>
</g>
<!-- Node6 -->
<g id="node6" class="node">
<title>Node6</title>
<g id="a_node6"><a xlink:title=" ">
<polygon fill="white" stroke="#bfbfbf" points="445.5,-62 445.5,-103 577.5,-103 577.5,-62 445.5,-62"/>
<text text-anchor="start" x="453.5" y="-91" font-family="Helvetica,sans-Serif" font-size="10.00">asm/d/menu/d_menu_item</text>
<text text-anchor="start" x="453.5" y="-80" font-family="Helvetica,sans-Serif" font-size="10.00">_explain/__dt__19dMenu</text>
<text text-anchor="middle" x="511.5" y="-69" font-family="Helvetica,sans-Serif" font-size="10.00">_ItemExplain_cFv.s</text>
</a>
</g>
</g>
<!-- Node1&#45;&gt;Node6 -->
<g id="edge6" class="edge">
<title>Node1&#45;&gt;Node6</title>
<path fill="none" stroke="midnightblue" d="M2027.79,-159.85C1778.58,-160.83 869.56,-160.69 586.5,-109 581.84,-108.15 577.08,-107.07 572.32,-105.83"/>
<polygon fill="midnightblue" stroke="midnightblue" points="573.19,-102.43 562.61,-103.09 571.29,-109.17 573.19,-102.43"/>
</g>
<!-- Node7 -->
<g id="node7" class="node">
<title>Node7</title>
<g id="a_node7"><a xlink:title=" ">
<polygon fill="white" stroke="#bfbfbf" points="595.5,-62 595.5,-103 727.5,-103 727.5,-62 595.5,-62"/>
<text text-anchor="start" x="603.5" y="-91" font-family="Helvetica,sans-Serif" font-size="10.00">asm/d/menu/d_menu_item</text>
<text text-anchor="start" x="603.5" y="-80" font-family="Helvetica,sans-Serif" font-size="10.00">_explain/move__19dMenu</text>
<text text-anchor="middle" x="661.5" y="-69" font-family="Helvetica,sans-Serif" font-size="10.00">_ItemExplain_cFv.s</text>
</a>
</g>
</g>
<!-- Node1&#45;&gt;Node7 -->
<g id="edge7" class="edge">
<title>Node1&#45;&gt;Node7</title>
<path fill="none" stroke="midnightblue" d="M2027.93,-159.54C1795.17,-159.29 989.88,-155.06 737.5,-109 732.79,-108.14 727.96,-107.05 723.15,-105.81"/>
<polygon fill="midnightblue" stroke="midnightblue" points="723.89,-102.38 713.31,-103.07 722.01,-109.12 723.89,-102.38"/>
</g>
<!-- Node8 -->
<g id="node8" class="node">
<title>Node8</title>
<g id="a_node8"><a xlink:title=" ">
<polygon fill="white" stroke="#bfbfbf" points="746,-62 746,-103 927,-103 927,-62 746,-62"/>
<text text-anchor="start" x="754" y="-91" font-family="Helvetica,sans-Serif" font-size="10.00">asm/d/menu/d_menu_item</text>
<text text-anchor="start" x="754" y="-80" font-family="Helvetica,sans-Serif" font-size="10.00">_explain/draw__19dMenu</text>
<text text-anchor="middle" x="836.5" y="-69" font-family="Helvetica,sans-Serif" font-size="10.00">_ItemExplain_cFP13J2DOrthoGraph.s</text>
</a>
</g>
</g>
<!-- Node1&#45;&gt;Node8 -->
<g id="edge8" class="edge">
<title>Node1&#45;&gt;Node8</title>
<path fill="none" stroke="midnightblue" d="M2027.81,-158.44C1817.98,-154.69 1149.7,-140.5 936.5,-109 929.49,-107.96 922.27,-106.64 915.05,-105.14"/>
<polygon fill="midnightblue" stroke="midnightblue" points="915.77,-101.72 905.25,-103 914.27,-108.56 915.77,-101.72"/>
</g>
<!-- Node9 -->
<g id="node9" class="node">
<title>Node9</title>
<g id="a_node9"><a xlink:title=" ">
<polygon fill="white" stroke="#bfbfbf" points="945.5,-62 945.5,-103 1091.5,-103 1091.5,-62 945.5,-62"/>
<text text-anchor="start" x="953.5" y="-91" font-family="Helvetica,sans-Serif" font-size="10.00">asm/d/menu/d_menu_item</text>
<text text-anchor="start" x="953.5" y="-80" font-family="Helvetica,sans-Serif" font-size="10.00">_explain/drawKantera_</text>
<text text-anchor="middle" x="1018.5" y="-69" font-family="Helvetica,sans-Serif" font-size="10.00">_19dMenu_ItemExplain_cFv.s</text>
</a>
</g>
</g>
<!-- Node1&#45;&gt;Node9 -->
<g id="edge9" class="edge">
<title>Node1&#45;&gt;Node9</title>
<path fill="none" stroke="midnightblue" d="M2027.73,-158.3C1838.22,-154.42 1280.52,-140.56 1101.5,-109 1096.21,-108.07 1090.79,-106.9 1085.37,-105.58"/>
<polygon fill="midnightblue" stroke="midnightblue" points="1086.21,-102.18 1075.65,-103.07 1084.45,-108.96 1086.21,-102.18"/>
</g>
<!-- Node10 -->
<g id="node10" class="node">
<title>Node10</title>
<g id="a_node10"><a xlink:title=" ">
<polygon fill="white" stroke="#bfbfbf" points="1110,-62 1110,-103 1251,-103 1251,-62 1110,-62"/>
<text text-anchor="start" x="1118" y="-91" font-family="Helvetica,sans-Serif" font-size="10.00">asm/d/menu/d_menu_item</text>
<text text-anchor="start" x="1118" y="-80" font-family="Helvetica,sans-Serif" font-size="10.00">_explain/wait_init__19dMenu</text>
<text text-anchor="middle" x="1180.5" y="-69" font-family="Helvetica,sans-Serif" font-size="10.00">_ItemExplain_cFv.s</text>
</a>
</g>
</g>
<!-- Node1&#45;&gt;Node10 -->
<g id="edge10" class="edge">
<title>Node1&#45;&gt;Node10</title>
<path fill="none" stroke="midnightblue" d="M2027.98,-157.68C1860.12,-152.53 1407.55,-136.46 1260.5,-109 1255.52,-108.07 1250.42,-106.92 1245.33,-105.64"/>
<polygon fill="midnightblue" stroke="midnightblue" points="1246.13,-102.23 1235.56,-103.01 1244.31,-108.99 1246.13,-102.23"/>
</g>
<!-- Node11 -->
<g id="node11" class="node">
<title>Node11</title>
<g id="a_node11"><a xlink:title=" ">
<polygon fill="white" stroke="#bfbfbf" points="1269,-62 1269,-103 1416,-103 1416,-62 1269,-62"/>
<text text-anchor="start" x="1277" y="-91" font-family="Helvetica,sans-Serif" font-size="10.00">asm/d/menu/d_menu_item</text>
<text text-anchor="start" x="1277" y="-80" font-family="Helvetica,sans-Serif" font-size="10.00">_explain/wait_proc__19dMenu</text>
<text text-anchor="middle" x="1342.5" y="-69" font-family="Helvetica,sans-Serif" font-size="10.00">_ItemExplain_cFv.s</text>
</a>
</g>
</g>
<!-- Node1&#45;&gt;Node11 -->
<g id="edge11" class="edge">
<title>Node1&#45;&gt;Node11</title>
<path fill="none" stroke="midnightblue" d="M2027.99,-159.36C1908.81,-158.07 1643.98,-150.31 1425.5,-109 1420.45,-108.04 1415.26,-106.89 1410.08,-105.61"/>
<polygon fill="midnightblue" stroke="midnightblue" points="1410.7,-102.15 1400.13,-103 1408.92,-108.92 1410.7,-102.15"/>
</g>
<!-- Node12 -->
<g id="node12" class="node">
<title>Node12</title>
<g id="a_node12"><a xlink:title=" ">
<polygon fill="white" stroke="#bfbfbf" points="1434.5,-62 1434.5,-103 1578.5,-103 1578.5,-62 1434.5,-62"/>
<text text-anchor="start" x="1442.5" y="-91" font-family="Helvetica,sans-Serif" font-size="10.00">asm/d/menu/d_menu_item</text>
<text text-anchor="start" x="1442.5" y="-80" font-family="Helvetica,sans-Serif" font-size="10.00">_explain/open_init__19dMenu</text>
<text text-anchor="middle" x="1506.5" y="-69" font-family="Helvetica,sans-Serif" font-size="10.00">_ItemExplain_cFv.s</text>
</a>
</g>
</g>
<!-- Node1&#45;&gt;Node12 -->
<g id="edge12" class="edge">
<title>Node1&#45;&gt;Node12</title>
<path fill="none" stroke="midnightblue" d="M2027.62,-157.29C1931.32,-153.03 1743.63,-141.04 1587.5,-109 1582.87,-108.05 1578.13,-106.94 1573.38,-105.72"/>
<polygon fill="midnightblue" stroke="midnightblue" points="1574.21,-102.32 1563.64,-103.09 1572.38,-109.07 1574.21,-102.32"/>
</g>
<!-- Node13 -->
<g id="node13" class="node">
<title>Node13</title>
<g id="a_node13"><a xlink:title=" ">
<polygon fill="white" stroke="#bfbfbf" points="1596.5,-62 1596.5,-103 1746.5,-103 1746.5,-62 1596.5,-62"/>
<text text-anchor="start" x="1604.5" y="-91" font-family="Helvetica,sans-Serif" font-size="10.00">asm/d/menu/d_menu_item</text>
<text text-anchor="start" x="1604.5" y="-80" font-family="Helvetica,sans-Serif" font-size="10.00">_explain/open_proc__19dMenu</text>
<text text-anchor="middle" x="1671.5" y="-69" font-family="Helvetica,sans-Serif" font-size="10.00">_ItemExplain_cFv.s</text>
</a>
</g>
</g>
<!-- Node1&#45;&gt;Node13 -->
<g id="edge13" class="edge">
<title>Node1&#45;&gt;Node13</title>
<path fill="none" stroke="midnightblue" d="M2027.72,-152.62C1959.94,-144.67 1849.91,-129.94 1756.5,-109 1752.07,-108.01 1747.53,-106.9 1742.97,-105.73"/>
<polygon fill="midnightblue" stroke="midnightblue" points="1743.54,-102.26 1732.97,-103.06 1741.73,-109.02 1743.54,-102.26"/>
</g>
<!-- Node14 -->
<g id="node14" class="node">
<title>Node14</title>
<g id="a_node14"><a xlink:title=" ">
<polygon fill="white" stroke="#bfbfbf" points="1765,-62 1765,-103 1912,-103 1912,-62 1765,-62"/>
<text text-anchor="start" x="1773" y="-91" font-family="Helvetica,sans-Serif" font-size="10.00">asm/d/menu/d_menu_item</text>
<text text-anchor="start" x="1773" y="-80" font-family="Helvetica,sans-Serif" font-size="10.00">_explain/move_init__19dMenu</text>
<text text-anchor="middle" x="1838.5" y="-69" font-family="Helvetica,sans-Serif" font-size="10.00">_ItemExplain_cFv.s</text>
</a>
</g>
</g>
<!-- Node1&#45;&gt;Node14 -->
<g id="edge14" class="edge">
<title>Node1&#45;&gt;Node14</title>
<path fill="none" stroke="midnightblue" d="M2043.83,-145.47C2009.74,-135.4 1962.76,-121.47 1921.5,-109 1918.23,-108.01 1914.88,-107 1911.5,-105.97"/>
<polygon fill="midnightblue" stroke="midnightblue" points="1912.51,-102.62 1901.92,-103.05 1910.47,-109.31 1912.51,-102.62"/>
</g>
<!-- Node15 -->
<g id="node15" class="node">
<title>Node15</title>
<g id="a_node15"><a xlink:title=" ">
<polygon fill="white" stroke="#bfbfbf" points="1930,-62 1930,-103 2083,-103 2083,-62 1930,-62"/>
<text text-anchor="start" x="1938" y="-91" font-family="Helvetica,sans-Serif" font-size="10.00">asm/d/menu/d_menu_item</text>
<text text-anchor="start" x="1938" y="-80" font-family="Helvetica,sans-Serif" font-size="10.00">_explain/move_proc__19dMenu</text>
<text text-anchor="middle" x="2006.5" y="-69" font-family="Helvetica,sans-Serif" font-size="10.00">_ItemExplain_cFv.s</text>
</a>
</g>
</g>
<!-- Node1&#45;&gt;Node15 -->
<g id="edge15" class="edge">
<title>Node1&#45;&gt;Node15</title>
<path fill="none" stroke="midnightblue" d="M2075.51,-145.2C2064.42,-135.28 2049.31,-121.77 2036.05,-109.93"/>
<polygon fill="midnightblue" stroke="midnightblue" points="2038.3,-107.24 2028.51,-103.18 2033.63,-112.45 2038.3,-107.24"/>
</g>
<!-- Node16 -->
<g id="node16" class="node">
<title>Node16</title>
<g id="a_node16"><a xlink:title=" ">
<polygon fill="white" stroke="#bfbfbf" points="2101.5,-62 2101.5,-103 2253.5,-103 2253.5,-62 2101.5,-62"/>
<text text-anchor="start" x="2109.5" y="-91" font-family="Helvetica,sans-Serif" font-size="10.00">asm/d/menu/d_menu_item</text>
<text text-anchor="start" x="2109.5" y="-80" font-family="Helvetica,sans-Serif" font-size="10.00">_explain/move_select_init</text>
<text text-anchor="middle" x="2177.5" y="-69" font-family="Helvetica,sans-Serif" font-size="10.00">__19dMenu_ItemExplain_cFv.s</text>
</a>
</g>
</g>
<!-- Node1&#45;&gt;Node16 -->
<g id="edge16" class="edge">
<title>Node1&#45;&gt;Node16</title>
<path fill="none" stroke="midnightblue" d="M2107.68,-145.2C2118.9,-135.28 2134.19,-121.77 2147.6,-109.93"/>
<polygon fill="midnightblue" stroke="midnightblue" points="2150.05,-112.42 2155.23,-103.18 2145.42,-107.18 2150.05,-112.42"/>
</g>
<!-- Node17 -->
<g id="node17" class="node">
<title>Node17</title>
<g id="a_node17"><a xlink:title=" ">
<polygon fill="white" stroke="#bfbfbf" points="2271.5,-62 2271.5,-103 2423.5,-103 2423.5,-62 2271.5,-62"/>
<text text-anchor="start" x="2279.5" y="-91" font-family="Helvetica,sans-Serif" font-size="10.00">asm/d/menu/d_menu_item</text>
<text text-anchor="start" x="2279.5" y="-80" font-family="Helvetica,sans-Serif" font-size="10.00">_explain/move_select_proc</text>
<text text-anchor="middle" x="2347.5" y="-69" font-family="Helvetica,sans-Serif" font-size="10.00">__19dMenu_ItemExplain_cFv.s</text>
</a>
</g>
</g>
<!-- Node1&#45;&gt;Node17 -->
<g id="edge17" class="edge">
<title>Node1&#45;&gt;Node17</title>
<path fill="none" stroke="midnightblue" d="M2139.43,-145.41C2173.72,-135.31 2220.96,-121.36 2262.5,-109 2265.85,-108 2269.27,-106.98 2272.73,-105.95"/>
<polygon fill="midnightblue" stroke="midnightblue" points="2273.96,-109.24 2282.54,-103.02 2271.95,-102.53 2273.96,-109.24"/>
</g>
<!-- Node18 -->
<g id="node18" class="node">
<title>Node18</title>
<g id="a_node18"><a xlink:title=" ">
<polygon fill="white" stroke="#bfbfbf" points="2441.5,-62 2441.5,-103 2593.5,-103 2593.5,-62 2441.5,-62"/>
<text text-anchor="start" x="2449.5" y="-91" font-family="Helvetica,sans-Serif" font-size="10.00">asm/d/menu/d_menu_item</text>
<text text-anchor="start" x="2449.5" y="-80" font-family="Helvetica,sans-Serif" font-size="10.00">_explain/move_next_init</text>
<text text-anchor="middle" x="2517.5" y="-69" font-family="Helvetica,sans-Serif" font-size="10.00">__19dMenu_ItemExplain_cFv.s</text>
</a>
</g>
</g>
<!-- Node1&#45;&gt;Node18 -->
<g id="edge18" class="edge">
<title>Node1&#45;&gt;Node18</title>
<path fill="none" stroke="midnightblue" d="M2155.16,-152.86C2224.04,-145.02 2336.85,-130.31 2432.5,-109 2436.93,-108.01 2441.47,-106.91 2446.04,-105.74"/>
<polygon fill="midnightblue" stroke="midnightblue" points="2447.27,-109.04 2456.03,-103.08 2445.47,-102.27 2447.27,-109.04"/>
</g>
<!-- Node19 -->
<g id="node19" class="node">
<title>Node19</title>
<g id="a_node19"><a xlink:title=" ">
<polygon fill="white" stroke="#bfbfbf" points="2611.5,-62 2611.5,-103 2763.5,-103 2763.5,-62 2611.5,-62"/>
<text text-anchor="start" x="2619.5" y="-91" font-family="Helvetica,sans-Serif" font-size="10.00">asm/d/menu/d_menu_item</text>
<text text-anchor="start" x="2619.5" y="-80" font-family="Helvetica,sans-Serif" font-size="10.00">_explain/move_next_proc</text>
<text text-anchor="middle" x="2687.5" y="-69" font-family="Helvetica,sans-Serif" font-size="10.00">__19dMenu_ItemExplain_cFv.s</text>
</a>
</g>
</g>
<!-- Node1&#45;&gt;Node19 -->
<g id="edge19" class="edge">
<title>Node1&#45;&gt;Node19</title>
<path fill="none" stroke="midnightblue" d="M2155.01,-157.16C2252.2,-152.7 2443.33,-140.44 2602.5,-109 2607.47,-108.02 2612.57,-106.87 2617.68,-105.61"/>
<polygon fill="midnightblue" stroke="midnightblue" points="2618.69,-108.96 2627.5,-103.06 2616.94,-102.18 2618.69,-108.96"/>
</g>
<!-- Node20 -->
<g id="node20" class="node">
<title>Node20</title>
<g id="a_node20"><a xlink:title=" ">
<polygon fill="white" stroke="#bfbfbf" points="2781.5,-62 2781.5,-103 2927.5,-103 2927.5,-62 2781.5,-62"/>
<text text-anchor="start" x="2789.5" y="-91" font-family="Helvetica,sans-Serif" font-size="10.00">asm/d/menu/d_menu_item</text>
<text text-anchor="start" x="2789.5" y="-80" font-family="Helvetica,sans-Serif" font-size="10.00">_explain/close_init__19dMenu</text>
<text text-anchor="middle" x="2854.5" y="-69" font-family="Helvetica,sans-Serif" font-size="10.00">_ItemExplain_cFv.s</text>
</a>
</g>
</g>
<!-- Node1&#45;&gt;Node20 -->
<g id="edge20" class="edge">
<title>Node1&#45;&gt;Node20</title>
<path fill="none" stroke="midnightblue" d="M2155.03,-159.58C2276.21,-158.69 2548.29,-151.6 2772.5,-109 2777.5,-108.05 2782.62,-106.9 2787.75,-105.62"/>
<polygon fill="midnightblue" stroke="midnightblue" points="2788.8,-108.96 2797.57,-103.02 2787.01,-102.2 2788.8,-108.96"/>
</g>
<!-- Node21 -->
<g id="node21" class="node">
<title>Node21</title>
<g id="a_node21"><a xlink:title=" ">
<polygon fill="white" stroke="#bfbfbf" points="2945.5,-62 2945.5,-103 3097.5,-103 3097.5,-62 2945.5,-62"/>
<text text-anchor="start" x="2953.5" y="-91" font-family="Helvetica,sans-Serif" font-size="10.00">asm/d/menu/d_menu_item</text>
<text text-anchor="start" x="2953.5" y="-80" font-family="Helvetica,sans-Serif" font-size="10.00">_explain/close_proc__19dMenu</text>
<text text-anchor="middle" x="3021.5" y="-69" font-family="Helvetica,sans-Serif" font-size="10.00">_ItemExplain_cFv.s</text>
</a>
</g>
</g>
<!-- Node1&#45;&gt;Node21 -->
<g id="edge21" class="edge">
<title>Node1&#45;&gt;Node21</title>
<path fill="none" stroke="midnightblue" d="M2155.14,-157.61C2325.02,-152.25 2786.46,-135.62 2936.5,-109 2941.81,-108.06 2947.26,-106.9 2952.7,-105.59"/>
<polygon fill="midnightblue" stroke="midnightblue" points="2953.65,-108.97 2962.48,-103.11 2951.92,-102.18 2953.65,-108.97"/>
</g>
<!-- Node22 -->
<g id="node22" class="node">
<title>Node22</title>
<g id="a_node22"><a xlink:title=" ">
<polygon fill="white" stroke="#bfbfbf" points="3116,-62 3116,-103 3301,-103 3301,-62 3116,-62"/>
<text text-anchor="start" x="3124" y="-91" font-family="Helvetica,sans-Serif" font-size="10.00">asm/d/menu/d_menu_item</text>
<text text-anchor="start" x="3124" y="-80" font-family="Helvetica,sans-Serif" font-size="10.00">_explain/openExplain_</text>
<text text-anchor="middle" x="3208.5" y="-69" font-family="Helvetica,sans-Serif" font-size="10.00">_19dMenu_ItemExplain_cFUcUcUcb.s</text>
</a>
</g>
</g>
<!-- Node1&#45;&gt;Node22 -->
<g id="edge22" class="edge">
<title>Node1&#45;&gt;Node22</title>
<path fill="none" stroke="midnightblue" d="M2155.09,-157.96C2347.51,-153.05 2921.62,-136.44 3106.5,-109 3113.58,-107.95 3120.87,-106.62 3128.16,-105.13"/>
<polygon fill="midnightblue" stroke="midnightblue" points="3129.03,-108.52 3138.07,-103 3127.56,-101.68 3129.03,-108.52"/>
</g>
<!-- Node23 -->
<g id="node23" class="node">
<title>Node23</title>
<g id="a_node23"><a xlink:title=" ">
<polygon fill="white" stroke="#bfbfbf" points="3319,-62 3319,-103 3522,-103 3522,-62 3319,-62"/>
<text text-anchor="start" x="3327" y="-91" font-family="Helvetica,sans-Serif" font-size="10.00">asm/d/menu/d_menu_item</text>
<text text-anchor="start" x="3327" y="-80" font-family="Helvetica,sans-Serif" font-size="10.00">_explain/openExplainDmap</text>
<text text-anchor="middle" x="3420.5" y="-69" font-family="Helvetica,sans-Serif" font-size="10.00">__19dMenu_ItemExplain_cFUcUcUcbUc.s</text>
</a>
</g>
</g>
<!-- Node1&#45;&gt;Node23 -->
<g id="edge23" class="edge">
<title>Node1&#45;&gt;Node23</title>
<path fill="none" stroke="midnightblue" d="M2155.26,-158.43C2372.66,-154.53 3083.94,-139.68 3310.5,-109 3318.37,-107.93 3326.51,-106.57 3334.63,-105.02"/>
<polygon fill="midnightblue" stroke="midnightblue" points="3335.38,-108.44 3344.5,-103.05 3334.01,-101.57 3335.38,-108.44"/>
</g>
<!-- Node24 -->
<g id="node24" class="node">
<title>Node24</title>
<g id="a_node24"><a xlink:title=" ">
<polygon fill="white" stroke="#bfbfbf" points="3540.5,-62 3540.5,-103 3706.5,-103 3706.5,-62 3540.5,-62"/>
<text text-anchor="start" x="3548.5" y="-91" font-family="Helvetica,sans-Serif" font-size="10.00">asm/d/menu/d_menu_item</text>
<text text-anchor="start" x="3548.5" y="-80" font-family="Helvetica,sans-Serif" font-size="10.00">_explain/openExplainTx</text>
<text text-anchor="middle" x="3623.5" y="-69" font-family="Helvetica,sans-Serif" font-size="10.00">__19dMenu_ItemExplain_cFUlUl.s</text>
</a>
</g>
</g>
<!-- Node1&#45;&gt;Node24 -->
<g id="edge24" class="edge">
<title>Node1&#45;&gt;Node24</title>
<path fill="none" stroke="midnightblue" d="M2155.25,-159.26C2397.44,-158.02 3260.46,-150.72 3531.5,-109 3537.74,-108.04 3544.15,-106.8 3550.55,-105.39"/>
<polygon fill="midnightblue" stroke="midnightblue" points="3551.64,-108.73 3560.58,-103.04 3550.04,-101.91 3551.64,-108.73"/>
</g>
<!-- Node25 -->
<g id="node25" class="node">
<title>Node25</title>
<g id="a_node25"><a xlink:title=" ">
<polygon fill="white" stroke="#bfbfbf" points="3724.5,-62 3724.5,-103 3876.5,-103 3876.5,-62 3724.5,-62"/>
<text text-anchor="start" x="3732.5" y="-91" font-family="Helvetica,sans-Serif" font-size="10.00">asm/d/menu/d_menu_item</text>
<text text-anchor="start" x="3732.5" y="-80" font-family="Helvetica,sans-Serif" font-size="10.00">_explain/getAlphaRatio</text>
<text text-anchor="middle" x="3800.5" y="-69" font-family="Helvetica,sans-Serif" font-size="10.00">__19dMenu_ItemExplain_cFv.s</text>
</a>
</g>
</g>
<!-- Node1&#45;&gt;Node25 -->
<g id="edge25" class="edge">
<title>Node1&#45;&gt;Node25</title>
<path fill="none" stroke="midnightblue" d="M2155.23,-159.73C2416.61,-160.33 3407.15,-159.16 3715.5,-109 3721.15,-108.08 3726.95,-106.89 3732.74,-105.53"/>
<polygon fill="midnightblue" stroke="midnightblue" points="3733.6,-108.92 3742.44,-103.09 3731.89,-102.13 3733.6,-108.92"/>
</g>
<!-- Node26 -->
<g id="node26" class="node">
<title>Node26</title>
<g id="a_node26"><a xlink:title=" ">
<polygon fill="white" stroke="#bfbfbf" points="3895,-62 3895,-103 4048,-103 4048,-62 3895,-62"/>
<text text-anchor="start" x="3903" y="-91" font-family="Helvetica,sans-Serif" font-size="10.00">asm/d/menu/d_menu_item</text>
<text text-anchor="start" x="3903" y="-80" font-family="Helvetica,sans-Serif" font-size="10.00">_explain/setNumber__19dMenu</text>
<text text-anchor="middle" x="3971.5" y="-69" font-family="Helvetica,sans-Serif" font-size="10.00">_ItemExplain_cFv.s</text>
</a>
</g>
</g>
<!-- Node1&#45;&gt;Node26 -->
<g id="edge26" class="edge">
<title>Node1&#45;&gt;Node26</title>
<path fill="none" stroke="midnightblue" d="M2155.21,-159.92C2433.27,-161.42 3542.04,-163.79 3885.5,-109 3891.21,-108.09 3897.08,-106.9 3902.94,-105.55"/>
<polygon fill="midnightblue" stroke="midnightblue" points="3903.89,-108.92 3912.75,-103.11 3902.2,-102.12 3903.89,-108.92"/>
</g>
<!-- Node27 -->
<g id="node27" class="node">
<title>Node27</title>
<g id="a_node27"><a xlink:title=" ">
<polygon fill="white" stroke="#bfbfbf" points="4066.5,-62 4066.5,-103 4218.5,-103 4218.5,-62 4066.5,-62"/>
<text text-anchor="start" x="4074.5" y="-91" font-family="Helvetica,sans-Serif" font-size="10.00">asm/d/menu/d_menu_item</text>
<text text-anchor="start" x="4074.5" y="-80" font-family="Helvetica,sans-Serif" font-size="10.00">_explain/getWarpMarkFlag</text>
<text text-anchor="middle" x="4142.5" y="-69" font-family="Helvetica,sans-Serif" font-size="10.00">__19dMenu_ItemExplain_cFv.s</text>
</a>
</g>
</g>
<!-- Node1&#45;&gt;Node27 -->
<g id="edge27" class="edge">
<title>Node1&#45;&gt;Node27</title>
<path fill="none" stroke="midnightblue" d="M2155.15,-158.87C2471.42,-155.6 3866.38,-139.56 4057.5,-109 4063.25,-108.08 4069.16,-106.88 4075.04,-105.49"/>
<polygon fill="midnightblue" stroke="midnightblue" points="4076.07,-108.84 4084.91,-103.01 4074.36,-102.06 4076.07,-108.84"/>
</g>
<!-- Node28 -->
<g id="node28" class="node">
<title>Node28</title>
<g id="a_node28"><a xlink:title=" ">
<polygon fill="white" stroke="#bfbfbf" points="4237,-62 4237,-103 4380,-103 4380,-62 4237,-62"/>
<text text-anchor="start" x="4245" y="-91" font-family="Helvetica,sans-Serif" font-size="10.00">asm/d/menu/d_menu_item</text>
<text text-anchor="start" x="4245" y="-80" font-family="Helvetica,sans-Serif" font-size="10.00">_explain/setScale__19dMenu</text>
<text text-anchor="middle" x="4308.5" y="-69" font-family="Helvetica,sans-Serif" font-size="10.00">_ItemExplain_cFv.s</text>
</a>
</g>
</g>
<!-- Node1&#45;&gt;Node28 -->
<g id="edge28" class="edge">
<title>Node1&#45;&gt;Node28</title>
<path fill="none" stroke="midnightblue" d="M2155.08,-159.06C2487.57,-156.62 4018.91,-143.59 4227.5,-109 4232.86,-108.11 4238.36,-106.95 4243.85,-105.61"/>
<polygon fill="midnightblue" stroke="midnightblue" points="4244.88,-108.96 4253.67,-103.03 4243.11,-102.19 4244.88,-108.96"/>
</g>
<!-- Node29 -->
<g id="node29" class="node">
<title>Node29</title>
<g id="a_node29"><a xlink:title=" ">
<polygon fill="white" stroke="#bfbfbf" points="4398.5,-62 4398.5,-103 4530.5,-103 4530.5,-62 4398.5,-62"/>
<text text-anchor="start" x="4406.5" y="-91" font-family="Helvetica,sans-Serif" font-size="10.00">asm/d/menu/d_menu_item</text>
<text text-anchor="start" x="4406.5" y="-80" font-family="Helvetica,sans-Serif" font-size="10.00">_explain/__sinit_d_menu</text>
<text text-anchor="middle" x="4464.5" y="-69" font-family="Helvetica,sans-Serif" font-size="10.00">_item_explain_cpp.s</text>
</a>
</g>
</g>
<!-- Node1&#45;&gt;Node29 -->
<g id="edge29" class="edge">
<title>Node1&#45;&gt;Node29</title>
<path fill="none" stroke="midnightblue" d="M2155,-159.26C2502.31,-157.8 4164.46,-148.75 4389.5,-109 4394.24,-108.16 4399.09,-107.08 4403.93,-105.82"/>
<polygon fill="midnightblue" stroke="midnightblue" points="4405.13,-109.12 4413.81,-103.05 4403.24,-102.39 4405.13,-109.12"/>
</g>
<!-- Node4&#45;&gt;Node3 -->
<g id="edge4" class="edge">
<title>Node4&#45;&gt;Node3</title>
<path fill="none" stroke="midnightblue" d="M164,-67.23C157.34,-56.06 148.05,-40.46 140.94,-28.52"/>
<polygon fill="midnightblue" stroke="midnightblue" points="143.92,-26.69 135.8,-19.89 137.91,-30.28 143.92,-26.69"/>
</g>
</g>
</svg>
        <g id="navigator" transform="translate(0 0)" fill="#404254">
                <rect fill="#f2f5e9" fill-opacity="0.5" stroke="#606060" stroke-width=".5" x="0" y="0" width="60" height="60"/>
                <use id="zoomplus" xlink:href="#zoomPlus" x="17" y="9" onmousedown="handleZoom(evt,'in')"/>
                <use id="zoomminus" xlink:href="#zoomMin" x="42" y="9" onmousedown="handleZoom(evt,'out')"/>
                <use id="reset" xlink:href="#resetDef" x="30" y="36" onmousedown="handleReset()"/>
                <g id="arrowUp" xlink:href="#dirArrow" transform="translate(30 24)" onmousedown="handlePan(0,-1)">
                  <use xlink:href="#rim" fill="#404040">
                        <set attributeName="fill" to="#808080" begin="arrowUp.mouseover" end="arrowUp.mouseout"/>
                  </use>
                  <path fill="none" stroke="white" stroke-width="1.5" d="M0,-3.0v7 M-2.5,-0.5L0,-3.0L2.5,-0.5"/>
                </g>
                <g id="arrowRight" xlink:href="#dirArrow" transform="rotate(90) translate(36 -43)" onmousedown="handlePan(1,0)">
                  <use xlink:href="#rim" fill="#404040">
                        <set attributeName="fill" to="#808080" begin="arrowRight.mouseover" end="arrowRight.mouseout"/>
                  </use>
                  <path fill="none" stroke="white" stroke-width="1.5" d="M0,-3.0v7 M-2.5,-0.5L0,-3.0L2.5,-0.5"/>
                </g>
                <g id="arrowDown" xlink:href="#dirArrow" transform="rotate(180) translate(-30 -48)" onmousedown="handlePan(0,1)">
                  <use xlink:href="#rim" fill="#404040">
                        <set attributeName="fill" to="#808080" begin="arrowDown.mouseover" end="arrowDown.mouseout"/>
                  </use>
                  <path fill="none" stroke="white" stroke-width="1.5" d="M0,-3.0v7 M-2.5,-0.5L0,-3.0L2.5,-0.5"/>
                </g>
                <g id="arrowLeft" xlink:href="#dirArrow" transform="rotate(270) translate(-36 17)" onmousedown="handlePan(-1,0)">
                  <use xlink:href="#rim" fill="#404040">
                        <set attributeName="fill" to="#808080" begin="arrowLeft.mouseover" end="arrowLeft.mouseout"/>
                  </use>
                  <path fill="none" stroke="white" stroke-width="1.5" d="M0,-3.0v7 M-2.5,-0.5L0,-3.0L2.5,-0.5"/>
                </g>
        </g>
        <svg viewBox="0 0 15 15" width="100%" height="30px" preserveAspectRatio="xMaxYMin meet">
         <g id="arrow_out" transform="scale(0.3 0.3)">
          <a xlink:href="d__menu__item__explain_8cpp__incl_org.svg" target="_base">
           <rect id="button" ry="5" rx="5" y="6" x="6" height="38" width="38"
                fill="#f2f5e9" fill-opacity="0.5" stroke="#606060" stroke-width="1.0"/>
           <path id="arrow"
             d="M 11.500037,31.436501 C 11.940474,20.09759 22.043105,11.32322 32.158766,21.979434 L 37.068811,17.246167 C 37.068811,17.246167 37.088388,32 37.088388,32 L 22.160133,31.978069 C 22.160133,31.978069 26.997745,27.140456 26.997745,27.140456 C 18.528582,18.264221 13.291696,25.230495 11.500037,31.436501 z"
             style="fill:#404040;"/>
          </a>
         </g>
        </svg>
</svg>
