<?xml version="1.0" encoding="UTF-8" standalone="no"?>
<!DOCTYPE svg PUBLIC "-//W3C//DTD SVG 1.1//EN"
 "http://www.w3.org/Graphics/SVG/1.1/DTD/svg11.dtd">
<!-- Generated by graphviz version 2.47.0 (20210316.2052)
 -->
<!-- Title: src/d/d_model.cpp Pages: 1 -->
<svg width="1864pt" height="162pt"
 viewBox="0.00 0.00 1864.00 162.00" xmlns="http://www.w3.org/2000/svg" xmlns:xlink="http://www.w3.org/1999/xlink">
<g id="graph0" class="graph" transform="scale(1 1) rotate(0) translate(4 158)">
<title>src/d/d_model.cpp</title>
<polygon fill="white" stroke="transparent" points="-4,4 -4,-158 1860,-158 1860,4 -4,4"/>
<!-- Node1 -->
<g id="node1" class="node">
<title>Node1</title>
<g id="a_node1"><a xlink:title=" ">
<polygon fill="#bfbfbf" stroke="black" points="810.5,-134.5 810.5,-153.5 906.5,-153.5 906.5,-134.5 810.5,-134.5"/>
<text text-anchor="middle" x="858.5" y="-141.5" font-family="Helvetica,sans-Serif" font-size="10.00">src/d/d_model.cpp</text>
</a>
</g>
</g>
<!-- Node2 -->
<g id="node2" class="node">
<title>Node2</title>
<g id="a_node2"><a xlink:href="dol2asm_8h.html" target="_top" xlink:title=" ">
<polygon fill="white" stroke="black" points="0,-67.5 0,-86.5 61,-86.5 61,-67.5 0,-67.5"/>
<text text-anchor="middle" x="30.5" y="-74.5" font-family="Helvetica,sans-Serif" font-size="10.00">dol2asm.h</text>
</a>
</g>
</g>
<!-- Node1&#45;&gt;Node2 -->
<g id="edge1" class="edge">
<title>Node1&#45;&gt;Node2</title>
<path fill="none" stroke="midnightblue" d="M810.28,-142.49C662.27,-140.58 216.02,-132.06 75.5,-98 68.85,-96.39 61.96,-93.83 55.62,-91.07"/>
<polygon fill="midnightblue" stroke="midnightblue" points="56.79,-87.75 46.25,-86.68 53.82,-94.09 56.79,-87.75"/>
</g>
<!-- Node3 -->
<g id="node3" class="node">
<title>Node3</title>
<g id="a_node3"><a xlink:href="types_8h.html" target="_top" xlink:title=" ">
<polygon fill="white" stroke="black" points="80,-0.5 80,-19.5 161,-19.5 161,-0.5 80,-0.5"/>
<text text-anchor="middle" x="120.5" y="-7.5" font-family="Helvetica,sans-Serif" font-size="10.00">dolphin/types.h</text>
</a>
</g>
</g>
<!-- Node1&#45;&gt;Node3 -->
<g id="edge2" class="edge">
<title>Node1&#45;&gt;Node3</title>
<path fill="none" stroke="midnightblue" d="M810.28,-141.9C648.47,-137.99 133.57,-123.56 109.5,-98 92.08,-79.5 102.05,-48.14 111.1,-28.56"/>
<polygon fill="midnightblue" stroke="midnightblue" points="114.28,-30.03 115.6,-19.52 108.01,-26.91 114.28,-30.03"/>
</g>
<!-- Node4 -->
<g id="node4" class="node">
<title>Node4</title>
<g id="a_node4"><a xlink:href="d__model_8h.html" target="_top" xlink:title=" ">
<polygon fill="white" stroke="black" points="118,-67.5 118,-86.5 187,-86.5 187,-67.5 118,-67.5"/>
<text text-anchor="middle" x="152.5" y="-74.5" font-family="Helvetica,sans-Serif" font-size="10.00">d/d_model.h</text>
</a>
</g>
</g>
<!-- Node1&#45;&gt;Node4 -->
<g id="edge3" class="edge">
<title>Node1&#45;&gt;Node4</title>
<path fill="none" stroke="midnightblue" d="M810.14,-141.95C677.96,-138.73 312.8,-127.36 196.5,-98 189.99,-96.36 183.24,-93.78 177.05,-91.03"/>
<polygon fill="midnightblue" stroke="midnightblue" points="178.42,-87.8 167.89,-86.64 175.4,-94.11 178.42,-87.8"/>
</g>
<!-- Node5 -->
<g id="node5" class="node">
<title>Node5</title>
<g id="a_node5"><a xlink:title=" ">
<polygon fill="white" stroke="#bfbfbf" points="205,-62 205,-92 312,-92 312,-62 205,-62"/>
<text text-anchor="start" x="213" y="-80" font-family="Helvetica,sans-Serif" font-size="10.00">asm/d/d_model/draw</text>
<text text-anchor="middle" x="258.5" y="-69" font-family="Helvetica,sans-Serif" font-size="10.00">__6dMdl_cFv.s</text>
</a>
</g>
</g>
<!-- Node1&#45;&gt;Node5 -->
<g id="edge5" class="edge">
<title>Node1&#45;&gt;Node5</title>
<path fill="none" stroke="midnightblue" d="M810.23,-142.56C715.57,-140.9 499.31,-133.21 321.5,-98 317.07,-97.12 312.52,-96.04 307.99,-94.85"/>
<polygon fill="midnightblue" stroke="midnightblue" points="308.72,-91.42 298.14,-92.06 306.81,-98.15 308.72,-91.42"/>
</g>
<!-- Node6 -->
<g id="node6" class="node">
<title>Node6</title>
<g id="a_node6"><a xlink:title=" ">
<polygon fill="white" stroke="#bfbfbf" points="330.5,-56.5 330.5,-97.5 494.5,-97.5 494.5,-56.5 330.5,-56.5"/>
<text text-anchor="start" x="338.5" y="-85.5" font-family="Helvetica,sans-Serif" font-size="10.00">asm/d/d_model/create</text>
<text text-anchor="start" x="338.5" y="-74.5" font-family="Helvetica,sans-Serif" font-size="10.00">__6dMdl_cFP12J3DModelDataUs</text>
<text text-anchor="middle" x="412.5" y="-63.5" font-family="Helvetica,sans-Serif" font-size="10.00">P12dKy_tevstr_c.s</text>
</a>
</g>
</g>
<!-- Node1&#45;&gt;Node6 -->
<g id="edge6" class="edge">
<title>Node1&#45;&gt;Node6</title>
<path fill="none" stroke="midnightblue" d="M810.35,-138.29C743.83,-131.48 619.89,-117.68 504.81,-98.15"/>
<polygon fill="midnightblue" stroke="midnightblue" points="505.22,-94.67 494.77,-96.43 504.04,-101.57 505.22,-94.67"/>
</g>
<!-- Node7 -->
<g id="node7" class="node">
<title>Node7</title>
<g id="a_node7"><a xlink:title=" ">
<polygon fill="white" stroke="#bfbfbf" points="512.5,-62 512.5,-92 656.5,-92 656.5,-62 512.5,-62"/>
<text text-anchor="start" x="520.5" y="-80" font-family="Helvetica,sans-Serif" font-size="10.00">asm/d/d_model/entryObj</text>
<text text-anchor="middle" x="584.5" y="-69" font-family="Helvetica,sans-Serif" font-size="10.00">__6dMdl_cFP10dMdl_obj_c.s</text>
</a>
</g>
</g>
<!-- Node1&#45;&gt;Node7 -->
<g id="edge7" class="edge">
<title>Node1&#45;&gt;Node7</title>
<path fill="none" stroke="midnightblue" d="M821.11,-134.43C782.2,-125.48 719.53,-110.97 665.5,-98 660.82,-96.88 655.98,-95.71 651.12,-94.52"/>
<polygon fill="midnightblue" stroke="midnightblue" points="651.67,-91.05 641.13,-92.08 650.01,-97.85 651.67,-91.05"/>
</g>
<!-- Node8 -->
<g id="node8" class="node">
<title>Node8</title>
<g id="a_node8"><a xlink:title=" ">
<polygon fill="white" stroke="#bfbfbf" points="674.5,-56.5 674.5,-97.5 854.5,-97.5 854.5,-56.5 674.5,-56.5"/>
<text text-anchor="start" x="682.5" y="-85.5" font-family="Helvetica,sans-Serif" font-size="10.00">asm/d/d_model/search</text>
<text text-anchor="start" x="682.5" y="-74.5" font-family="Helvetica,sans-Serif" font-size="10.00">__10dMdl_mng_cFP12J3DModelData</text>
<text text-anchor="middle" x="764.5" y="-63.5" font-family="Helvetica,sans-Serif" font-size="10.00">UsP12dKy_tevstr_c.s</text>
</a>
</g>
</g>
<!-- Node1&#45;&gt;Node8 -->
<g id="edge8" class="edge">
<title>Node1&#45;&gt;Node8</title>
<path fill="none" stroke="midnightblue" d="M845.82,-134.23C834.41,-126.34 817.05,-114.34 801.3,-103.45"/>
<polygon fill="midnightblue" stroke="midnightblue" points="802.98,-100.35 792.76,-97.54 799,-106.11 802.98,-100.35"/>
</g>
<!-- Node9 -->
<g id="node9" class="node">
<title>Node9</title>
<g id="a_node9"><a xlink:title=" ">
<polygon fill="white" stroke="#bfbfbf" points="872.5,-56.5 872.5,-97.5 1032.5,-97.5 1032.5,-56.5 872.5,-56.5"/>
<text text-anchor="start" x="880.5" y="-85.5" font-family="Helvetica,sans-Serif" font-size="10.00">asm/d/d_model/entry</text>
<text text-anchor="start" x="880.5" y="-74.5" font-family="Helvetica,sans-Serif" font-size="10.00">__10dMdl_mng_cFP12J3DModel</text>
<text text-anchor="middle" x="952.5" y="-63.5" font-family="Helvetica,sans-Serif" font-size="10.00">DataUsP12dKy_tevstr_c.s</text>
</a>
</g>
</g>
<!-- Node1&#45;&gt;Node9 -->
<g id="edge9" class="edge">
<title>Node1&#45;&gt;Node9</title>
<path fill="none" stroke="midnightblue" d="M871.18,-134.23C882.59,-126.34 899.95,-114.34 915.7,-103.45"/>
<polygon fill="midnightblue" stroke="midnightblue" points="918,-106.11 924.24,-97.54 914.02,-100.35 918,-106.11"/>
</g>
<!-- Node10 -->
<g id="node10" class="node">
<title>Node10</title>
<g id="a_node10"><a xlink:title=" ">
<polygon fill="white" stroke="#bfbfbf" points="1051,-62 1051,-92 1164,-92 1164,-62 1051,-62"/>
<text text-anchor="start" x="1059" y="-80" font-family="Helvetica,sans-Serif" font-size="10.00">asm/d/d_model/create</text>
<text text-anchor="middle" x="1107.5" y="-69" font-family="Helvetica,sans-Serif" font-size="10.00">__10dMdl_mng_cFv.s</text>
</a>
</g>
</g>
<!-- Node1&#45;&gt;Node10 -->
<g id="edge10" class="edge">
<title>Node1&#45;&gt;Node10</title>
<path fill="none" stroke="midnightblue" d="M895.8,-134.44C932.89,-125.79 991.33,-111.76 1041.5,-98 1045.06,-97.02 1048.72,-95.99 1052.4,-94.94"/>
<polygon fill="midnightblue" stroke="midnightblue" points="1053.53,-98.25 1062.15,-92.09 1051.57,-91.53 1053.53,-98.25"/>
</g>
<!-- Node11 -->
<g id="node11" class="node">
<title>Node11</title>
<g id="a_node11"><a xlink:title=" ">
<polygon fill="white" stroke="#bfbfbf" points="1182,-62 1182,-92 1287,-92 1287,-62 1182,-62"/>
<text text-anchor="start" x="1190" y="-80" font-family="Helvetica,sans-Serif" font-size="10.00">asm/d/d_model/__dt</text>
<text text-anchor="middle" x="1234.5" y="-69" font-family="Helvetica,sans-Serif" font-size="10.00">__6dMdl_cFv.s</text>
</a>
</g>
</g>
<!-- Node1&#45;&gt;Node11 -->
<g id="edge11" class="edge">
<title>Node1&#45;&gt;Node11</title>
<path fill="none" stroke="midnightblue" d="M906.75,-138.75C968.98,-132.68 1080.3,-119.76 1173.5,-98 1177.36,-97.1 1181.32,-96.06 1185.28,-94.95"/>
<polygon fill="midnightblue" stroke="midnightblue" points="1186.49,-98.24 1195.08,-92.04 1184.5,-91.53 1186.49,-98.24"/>
</g>
<!-- Node12 -->
<g id="node12" class="node">
<title>Node12</title>
<g id="a_node12"><a xlink:title=" ">
<polygon fill="white" stroke="#bfbfbf" points="1305,-62 1305,-92 1424,-92 1424,-62 1305,-62"/>
<text text-anchor="start" x="1313" y="-80" font-family="Helvetica,sans-Serif" font-size="10.00">asm/d/d_model/remove</text>
<text text-anchor="middle" x="1364.5" y="-69" font-family="Helvetica,sans-Serif" font-size="10.00">__10dMdl_mng_cFv.s</text>
</a>
</g>
</g>
<!-- Node1&#45;&gt;Node12 -->
<g id="edge12" class="edge">
<title>Node1&#45;&gt;Node12</title>
<path fill="none" stroke="midnightblue" d="M906.56,-140.95C987.63,-136.85 1156.43,-125.55 1296.5,-98 1301.43,-97.03 1306.52,-95.86 1311.59,-94.58"/>
<polygon fill="midnightblue" stroke="midnightblue" points="1312.5,-97.96 1321.26,-92.01 1310.7,-91.19 1312.5,-97.96"/>
</g>
<!-- Node13 -->
<g id="node13" class="node">
<title>Node13</title>
<g id="a_node13"><a xlink:title=" ">
<polygon fill="white" stroke="#bfbfbf" points="1442.5,-62 1442.5,-92 1554.5,-92 1554.5,-62 1442.5,-62"/>
<text text-anchor="start" x="1450.5" y="-80" font-family="Helvetica,sans-Serif" font-size="10.00">asm/d/d_model/reset</text>
<text text-anchor="middle" x="1498.5" y="-69" font-family="Helvetica,sans-Serif" font-size="10.00">__10dMdl_mng_cFv.s</text>
</a>
</g>
</g>
<!-- Node1&#45;&gt;Node13 -->
<g id="edge13" class="edge">
<title>Node1&#45;&gt;Node13</title>
<path fill="none" stroke="midnightblue" d="M906.68,-142.8C1006.08,-141.6 1240.71,-134.74 1433.5,-98 1438.18,-97.11 1443.01,-96 1447.81,-94.77"/>
<polygon fill="midnightblue" stroke="midnightblue" points="1448.86,-98.1 1457.58,-92.08 1447.01,-91.35 1448.86,-98.1"/>
</g>
<!-- Node14 -->
<g id="node14" class="node">
<title>Node14</title>
<g id="a_node14"><a xlink:title=" ">
<polygon fill="white" stroke="#bfbfbf" points="1572.5,-56.5 1572.5,-97.5 1732.5,-97.5 1732.5,-56.5 1572.5,-56.5"/>
<text text-anchor="start" x="1580.5" y="-85.5" font-family="Helvetica,sans-Serif" font-size="10.00">asm/d/d_model/entry</text>
<text text-anchor="start" x="1580.5" y="-74.5" font-family="Helvetica,sans-Serif" font-size="10.00">__10dMdl_mng_cFP12J3DModel</text>
<text text-anchor="middle" x="1652.5" y="-63.5" font-family="Helvetica,sans-Serif" font-size="10.00">DataUsi.s</text>
</a>
</g>
</g>
<!-- Node1&#45;&gt;Node14 -->
<g id="edge14" class="edge">
<title>Node1&#45;&gt;Node14</title>
<path fill="none" stroke="midnightblue" d="M906.64,-142.53C1019.59,-140.87 1310.46,-133.36 1562.01,-98.1"/>
<polygon fill="midnightblue" stroke="midnightblue" points="1562.67,-101.54 1572.07,-96.67 1561.68,-94.61 1562.67,-101.54"/>
</g>
<!-- Node15 -->
<g id="node15" class="node">
<title>Node15</title>
<g id="a_node15"><a xlink:title=" ">
<polygon fill="white" stroke="#bfbfbf" points="1751,-62 1751,-92 1856,-92 1856,-62 1751,-62"/>
<text text-anchor="start" x="1759" y="-80" font-family="Helvetica,sans-Serif" font-size="10.00">asm/d/d_model/__ct</text>
<text text-anchor="middle" x="1803.5" y="-69" font-family="Helvetica,sans-Serif" font-size="10.00">__6dMdl_cFv.s</text>
</a>
</g>
</g>
<!-- Node1&#45;&gt;Node15 -->
<g id="edge15" class="edge">
<title>Node1&#45;&gt;Node15</title>
<path fill="none" stroke="midnightblue" d="M906.7,-142.2C1066.7,-139.28 1579.2,-127.78 1741.5,-98 1746,-97.17 1750.63,-96.11 1755.23,-94.9"/>
<polygon fill="midnightblue" stroke="midnightblue" points="1756.54,-98.17 1765.2,-92.07 1754.63,-91.43 1756.54,-98.17"/>
</g>
<!-- Node4&#45;&gt;Node3 -->
<g id="edge4" class="edge">
<title>Node4&#45;&gt;Node3</title>
<path fill="none" stroke="midnightblue" d="M148.18,-67.23C143.34,-57.39 135.35,-41.16 129.19,-28.66"/>
<polygon fill="midnightblue" stroke="midnightblue" points="132.3,-27.05 124.75,-19.63 126.02,-30.14 132.3,-27.05"/>
</g>
</g>
</svg>
