<?xml version="1.0" encoding="UTF-8" standalone="no"?>
<!DOCTYPE svg PUBLIC "-//W3C//DTD SVG 1.1//EN"
 "http://www.w3.org/Graphics/SVG/1.1/DTD/svg11.dtd">
<!-- Generated by graphviz version 2.47.0 (20210316.2052)
 -->
<!-- Title: src/d/menu/d_menu_window_HIO.cpp Pages: 1 -->
<svg width="1781pt" height="173pt"
 viewBox="0.00 0.00 1781.00 173.00" xmlns="http://www.w3.org/2000/svg" xmlns:xlink="http://www.w3.org/1999/xlink">
<g id="graph0" class="graph" transform="scale(1 1) rotate(0) translate(4 169)">
<title>src/d/menu/d_menu_window_HIO.cpp</title>
<polygon fill="white" stroke="transparent" points="-4,4 -4,-169 1777,-169 1777,4 -4,4"/>
<!-- Node1 -->
<g id="node1" class="node">
<title>Node1</title>
<g id="a_node1"><a xlink:title=" ">
<polygon fill="#bfbfbf" stroke="black" points="679,-134.5 679,-164.5 820,-164.5 820,-134.5 679,-134.5"/>
<text text-anchor="start" x="687" y="-152.5" font-family="Helvetica,sans-Serif" font-size="10.00">src/d/menu/d_menu_window</text>
<text text-anchor="middle" x="749.5" y="-141.5" font-family="Helvetica,sans-Serif" font-size="10.00">_HIO.cpp</text>
</a>
</g>
</g>
<!-- Node2 -->
<g id="node2" class="node">
<title>Node2</title>
<g id="a_node2"><a xlink:href="dol2asm_8h.html" target="_top" xlink:title=" ">
<polygon fill="white" stroke="black" points="0,-67.5 0,-86.5 61,-86.5 61,-67.5 0,-67.5"/>
<text text-anchor="middle" x="30.5" y="-74.5" font-family="Helvetica,sans-Serif" font-size="10.00">dol2asm.h</text>
</a>
</g>
</g>
<!-- Node1&#45;&gt;Node2 -->
<g id="edge1" class="edge">
<title>Node1&#45;&gt;Node2</title>
<path fill="none" stroke="midnightblue" d="M678.73,-146.26C529.74,-141.05 188.16,-126.35 75.5,-98 68.86,-96.33 61.97,-93.75 55.64,-90.99"/>
<polygon fill="midnightblue" stroke="midnightblue" points="56.81,-87.67 46.27,-86.61 53.85,-94.01 56.81,-87.67"/>
</g>
<!-- Node3 -->
<g id="node3" class="node">
<title>Node3</title>
<g id="a_node3"><a xlink:href="types_8h.html" target="_top" xlink:title=" ">
<polygon fill="white" stroke="black" points="94,-0.5 94,-19.5 175,-19.5 175,-0.5 94,-0.5"/>
<text text-anchor="middle" x="134.5" y="-7.5" font-family="Helvetica,sans-Serif" font-size="10.00">dolphin/types.h</text>
</a>
</g>
</g>
<!-- Node1&#45;&gt;Node3 -->
<g id="edge2" class="edge">
<title>Node1&#45;&gt;Node3</title>
<path fill="none" stroke="midnightblue" d="M678.83,-148.2C520.37,-146.81 147.51,-139.13 109.5,-98 91.54,-78.57 108.01,-47.07 121.4,-27.78"/>
<polygon fill="midnightblue" stroke="midnightblue" points="124.28,-29.77 127.38,-19.63 118.64,-25.63 124.28,-29.77"/>
</g>
<!-- Node4 -->
<g id="node4" class="node">
<title>Node4</title>
<g id="a_node4"><a xlink:href="d__menu__window__HIO_8h.html" target="_top" xlink:title=" ">
<polygon fill="white" stroke="black" points="118,-62 118,-92 243,-92 243,-62 118,-62"/>
<text text-anchor="start" x="126" y="-80" font-family="Helvetica,sans-Serif" font-size="10.00">d/menu/d_menu_window</text>
<text text-anchor="middle" x="180.5" y="-69" font-family="Helvetica,sans-Serif" font-size="10.00">_HIO.h</text>
</a>
</g>
</g>
<!-- Node1&#45;&gt;Node4 -->
<g id="edge3" class="edge">
<title>Node1&#45;&gt;Node4</title>
<path fill="none" stroke="midnightblue" d="M678.59,-145.09C581.67,-139.56 402.72,-126.28 252.5,-98 247.37,-97.03 242.08,-95.88 236.8,-94.62"/>
<polygon fill="midnightblue" stroke="midnightblue" points="237.26,-91.12 226.71,-92.08 235.55,-97.91 237.26,-91.12"/>
</g>
<!-- Node5 -->
<g id="node5" class="node">
<title>Node5</title>
<g id="a_node5"><a xlink:title=" ">
<polygon fill="white" stroke="#bfbfbf" points="261,-62 261,-92 412,-92 412,-62 261,-62"/>
<text text-anchor="start" x="269" y="-80" font-family="Helvetica,sans-Serif" font-size="10.00">asm/d/menu/d_menu_window</text>
<text text-anchor="middle" x="336.5" y="-69" font-family="Helvetica,sans-Serif" font-size="10.00">_HIO/__ct__9dMw_HIO_cFv.s</text>
</a>
</g>
</g>
<!-- Node1&#45;&gt;Node5 -->
<g id="edge5" class="edge">
<title>Node1&#45;&gt;Node5</title>
<path fill="none" stroke="midnightblue" d="M678.84,-139.25C612.23,-130.15 509.73,-115.14 421.5,-98 415.68,-96.87 409.66,-95.62 403.64,-94.31"/>
<polygon fill="midnightblue" stroke="midnightblue" points="404.04,-90.81 393.52,-92.06 402.52,-97.65 404.04,-90.81"/>
</g>
<!-- Node6 -->
<g id="node6" class="node">
<title>Node6</title>
<g id="a_node6"><a xlink:title=" ">
<polygon fill="white" stroke="#bfbfbf" points="430.5,-62 430.5,-92 576.5,-92 576.5,-62 430.5,-62"/>
<text text-anchor="start" x="438.5" y="-80" font-family="Helvetica,sans-Serif" font-size="10.00">asm/d/menu/d_menu_window</text>
<text text-anchor="middle" x="503.5" y="-69" font-family="Helvetica,sans-Serif" font-size="10.00">_HIO/init__9dMw_HIO_cFv.s</text>
</a>
</g>
</g>
<!-- Node1&#45;&gt;Node6 -->
<g id="edge6" class="edge">
<title>Node1&#45;&gt;Node6</title>
<path fill="none" stroke="midnightblue" d="M700.6,-134.49C660.91,-123.11 604.8,-107.03 562.59,-94.93"/>
<polygon fill="midnightblue" stroke="midnightblue" points="563.3,-91.5 552.72,-92.11 561.37,-98.23 563.3,-91.5"/>
</g>
<!-- Node7 -->
<g id="node7" class="node">
<title>Node7</title>
<g id="a_node7"><a xlink:title=" ">
<polygon fill="white" stroke="#bfbfbf" points="594.5,-56.5 594.5,-97.5 740.5,-97.5 740.5,-56.5 594.5,-56.5"/>
<text text-anchor="start" x="602.5" y="-85.5" font-family="Helvetica,sans-Serif" font-size="10.00">asm/d/menu/d_menu_window</text>
<text text-anchor="start" x="602.5" y="-74.5" font-family="Helvetica,sans-Serif" font-size="10.00">_HIO/getBombFlag__9dMw</text>
<text text-anchor="middle" x="667.5" y="-63.5" font-family="Helvetica,sans-Serif" font-size="10.00">_HIO_cFv.s</text>
</a>
</g>
</g>
<!-- Node1&#45;&gt;Node7 -->
<g id="edge7" class="edge">
<title>Node1&#45;&gt;Node7</title>
<path fill="none" stroke="midnightblue" d="M732.91,-134.23C722.94,-125.67 709.96,-114.5 698.19,-104.38"/>
<polygon fill="midnightblue" stroke="midnightblue" points="700.15,-101.45 690.28,-97.59 695.58,-106.76 700.15,-101.45"/>
</g>
<!-- Node8 -->
<g id="node8" class="node">
<title>Node8</title>
<g id="a_node8"><a xlink:title=" ">
<polygon fill="white" stroke="#bfbfbf" points="758.5,-56.5 758.5,-97.5 904.5,-97.5 904.5,-56.5 758.5,-56.5"/>
<text text-anchor="start" x="766.5" y="-85.5" font-family="Helvetica,sans-Serif" font-size="10.00">asm/d/menu/d_menu_window</text>
<text text-anchor="start" x="766.5" y="-74.5" font-family="Helvetica,sans-Serif" font-size="10.00">_HIO/getArrowFlag__9dMw</text>
<text text-anchor="middle" x="831.5" y="-63.5" font-family="Helvetica,sans-Serif" font-size="10.00">_HIO_cFv.s</text>
</a>
</g>
</g>
<!-- Node1&#45;&gt;Node8 -->
<g id="edge8" class="edge">
<title>Node1&#45;&gt;Node8</title>
<path fill="none" stroke="midnightblue" d="M766.09,-134.23C776.06,-125.67 789.04,-114.5 800.81,-104.38"/>
<polygon fill="midnightblue" stroke="midnightblue" points="803.42,-106.76 808.72,-97.59 798.85,-101.45 803.42,-106.76"/>
</g>
<!-- Node9 -->
<g id="node9" class="node">
<title>Node9</title>
<g id="a_node9"><a xlink:title=" ">
<polygon fill="white" stroke="#bfbfbf" points="922.5,-56.5 922.5,-97.5 1074.5,-97.5 1074.5,-56.5 922.5,-56.5"/>
<text text-anchor="start" x="930.5" y="-85.5" font-family="Helvetica,sans-Serif" font-size="10.00">asm/d/menu/d_menu_window</text>
<text text-anchor="start" x="930.5" y="-74.5" font-family="Helvetica,sans-Serif" font-size="10.00">_HIO/getPachinkoFlag__9dMw</text>
<text text-anchor="middle" x="998.5" y="-63.5" font-family="Helvetica,sans-Serif" font-size="10.00">_HIO_cFv.s</text>
</a>
</g>
</g>
<!-- Node1&#45;&gt;Node9 -->
<g id="edge9" class="edge">
<title>Node1&#45;&gt;Node9</title>
<path fill="none" stroke="midnightblue" d="M798.99,-134.49C833.45,-124.73 880.13,-111.51 919.68,-100.32"/>
<polygon fill="midnightblue" stroke="midnightblue" points="920.63,-103.68 929.3,-97.59 918.73,-96.95 920.63,-103.68"/>
</g>
<!-- Node10 -->
<g id="node10" class="node">
<title>Node10</title>
<g id="a_node10"><a xlink:title=" ">
<polygon fill="white" stroke="#bfbfbf" points="1093,-62 1093,-92 1256,-92 1256,-62 1093,-62"/>
<text text-anchor="start" x="1101" y="-80" font-family="Helvetica,sans-Serif" font-size="10.00">asm/d/menu/d_menu_window</text>
<text text-anchor="middle" x="1174.5" y="-69" font-family="Helvetica,sans-Serif" font-size="10.00">_HIO/__ct__10dMw_DHIO_cFv.s</text>
</a>
</g>
</g>
<!-- Node1&#45;&gt;Node10 -->
<g id="edge10" class="edge">
<title>Node1&#45;&gt;Node10</title>
<path fill="none" stroke="midnightblue" d="M820.1,-139.21C887.86,-129.97 992.97,-114.77 1083.5,-98 1090.02,-96.79 1096.78,-95.46 1103.55,-94.07"/>
<polygon fill="midnightblue" stroke="midnightblue" points="1104.35,-97.48 1113.43,-92.01 1102.92,-90.63 1104.35,-97.48"/>
</g>
<!-- Node11 -->
<g id="node11" class="node">
<title>Node11</title>
<g id="a_node11"><a xlink:title=" ">
<polygon fill="white" stroke="#bfbfbf" points="1274,-62 1274,-92 1437,-92 1437,-62 1274,-62"/>
<text text-anchor="start" x="1282" y="-80" font-family="Helvetica,sans-Serif" font-size="10.00">asm/d/menu/d_menu_window</text>
<text text-anchor="middle" x="1355.5" y="-69" font-family="Helvetica,sans-Serif" font-size="10.00">_HIO/__dt__10dMw_DHIO_cFv.s</text>
</a>
</g>
</g>
<!-- Node1&#45;&gt;Node11 -->
<g id="edge11" class="edge">
<title>Node1&#45;&gt;Node11</title>
<path fill="none" stroke="midnightblue" d="M820.37,-144.29C920.15,-137.75 1107.5,-123.19 1265.5,-98 1272.56,-96.87 1279.9,-95.53 1287.21,-94.08"/>
<polygon fill="midnightblue" stroke="midnightblue" points="1288.02,-97.49 1297.12,-92.05 1286.62,-90.63 1288.02,-97.49"/>
</g>
<!-- Node12 -->
<g id="node12" class="node">
<title>Node12</title>
<g id="a_node12"><a xlink:title=" ">
<polygon fill="white" stroke="#bfbfbf" points="1455,-62 1455,-92 1606,-92 1606,-62 1455,-62"/>
<text text-anchor="start" x="1463" y="-80" font-family="Helvetica,sans-Serif" font-size="10.00">asm/d/menu/d_menu_window</text>
<text text-anchor="middle" x="1530.5" y="-69" font-family="Helvetica,sans-Serif" font-size="10.00">_HIO/__dt__9dMw_HIO_cFv.s</text>
</a>
</g>
</g>
<!-- Node1&#45;&gt;Node12 -->
<g id="edge12" class="edge">
<title>Node1&#45;&gt;Node12</title>
<path fill="none" stroke="midnightblue" d="M820.16,-147.14C946.53,-143.88 1219.28,-133.05 1446.5,-98 1453.27,-96.96 1460.3,-95.65 1467.28,-94.2"/>
<polygon fill="midnightblue" stroke="midnightblue" points="1468.4,-97.54 1477.43,-92 1466.92,-90.7 1468.4,-97.54"/>
</g>
<!-- Node13 -->
<g id="node13" class="node">
<title>Node13</title>
<g id="a_node13"><a xlink:title=" ">
<polygon fill="white" stroke="#bfbfbf" points="1624,-56.5 1624,-97.5 1773,-97.5 1773,-56.5 1624,-56.5"/>
<text text-anchor="start" x="1632" y="-85.5" font-family="Helvetica,sans-Serif" font-size="10.00">asm/d/menu/d_menu_window</text>
<text text-anchor="start" x="1632" y="-74.5" font-family="Helvetica,sans-Serif" font-size="10.00">_HIO/__sinit_d_menu_window</text>
<text text-anchor="middle" x="1698.5" y="-63.5" font-family="Helvetica,sans-Serif" font-size="10.00">_HIO_cpp.s</text>
</a>
</g>
</g>
<!-- Node1&#45;&gt;Node13 -->
<g id="edge13" class="edge">
<title>Node1&#45;&gt;Node13</title>
<path fill="none" stroke="midnightblue" d="M820.09,-148.63C966.64,-147.97 1314.47,-141.65 1613.79,-98.12"/>
<polygon fill="midnightblue" stroke="midnightblue" points="1614.58,-101.54 1623.97,-96.62 1613.56,-94.62 1614.58,-101.54"/>
</g>
<!-- Node4&#45;&gt;Node3 -->
<g id="edge4" class="edge">
<title>Node4&#45;&gt;Node3</title>
<path fill="none" stroke="midnightblue" d="M170.52,-61.9C163.49,-51.96 154.04,-38.61 146.58,-28.07"/>
<polygon fill="midnightblue" stroke="midnightblue" points="149.29,-25.84 140.65,-19.69 143.57,-29.88 149.29,-25.84"/>
</g>
</g>
</svg>
