<?xml version="1.0" encoding="UTF-8" standalone="no"?>
<!DOCTYPE svg PUBLIC "-//W3C//DTD SVG 1.1//EN"
 "http://www.w3.org/Graphics/SVG/1.1/DTD/svg11.dtd">
<!-- Generated by graphviz version 2.47.0 (20210316.2052)
 -->
<!-- Title: src/msg/scrn/d_msg_scrn_arrow.cpp Pages: 1 -->
<!--zoomable 173 -->
<svg id="main" version="1.1" xmlns="http://www.w3.org/2000/svg" xmlns:xlink="http://www.w3.org/1999/xlink" xml:space="preserve" onload="init(evt)">
<style type="text/css"><![CDATA[
.edge:hover path { stroke: red; }
.edge:hover polygon { stroke: red; fill: red; }
]]></style>
<script type="text/javascript"><![CDATA[
var edges = document.getElementsByTagName('g');
if (edges && edges.length) {
  for (var i=0;i<edges.length;i++) {
    if (edges[i].id.substr(0,4)=='edge') {
      edges[i].setAttribute('class','edge');
    }
  }
}
]]></script>
        <defs>
                <circle id="rim" cx="0" cy="0" r="7"/>
                <circle id="rim2" cx="0" cy="0" r="3.5"/>
                <g id="zoomPlus">
                        <use xlink:href="#rim" fill="#404040">
                                <set attributeName="fill" to="#808080" begin="zoomplus.mouseover" end="zoomplus.mouseout"/>
                        </use>
                        <path d="M-4,0h8M0,-4v8" fill="none" stroke="white" stroke-width="1.5" pointer-events="none"/>
                </g>
                <g id="zoomMin">
                        <use xlink:href="#rim" fill="#404040">
                                <set attributeName="fill" to="#808080" begin="zoomminus.mouseover" end="zoomminus.mouseout"/>
                        </use>
                        <path d="M-4,0h8" fill="none" stroke="white" stroke-width="1.5" pointer-events="none"/>
                </g>
                <g id="dirArrow">
                        <path fill="none" stroke="white" stroke-width="1.5" d="M0,-3.0v7 M-2.5,-0.5L0,-3.0L2.5,-0.5"/>
                </g>
               <g id="resetDef">
                       <use xlink:href="#rim2" fill="#404040">
                               <set attributeName="fill" to="#808080" begin="reset.mouseover" end="reset.mouseout"/>
                       </use>
               </g>
        </defs>

<script type="text/javascript">
var viewWidth = 1541;
var viewHeight = 173;
var sectionId = 'dynsection-0';
</script>
<script xlink:href="svgpan.js"/>
<svg id="graph" class="graph">
<g id="viewport">
<title>src/msg/scrn/d_msg_scrn_arrow.cpp</title>
<polygon fill="white" stroke="transparent" points="-4,4 -4,-169 1536.5,-169 1536.5,4 -4,4"/>
<!-- Node1 -->
<g id="node1" class="node">
<title>Node1</title>
<g id="a_node1"><a xlink:title=" ">
<polygon fill="#bfbfbf" stroke="black" points="625.5,-134.5 625.5,-164.5 731.5,-164.5 731.5,-134.5 625.5,-134.5"/>
<text text-anchor="start" x="633.5" y="-152.5" font-family="Helvetica,sans-Serif" font-size="10.00">src/msg/scrn/d_msg</text>
<text text-anchor="middle" x="678.5" y="-141.5" font-family="Helvetica,sans-Serif" font-size="10.00">_scrn_arrow.cpp</text>
</a>
</g>
</g>
<!-- Node2 -->
<g id="node2" class="node">
<title>Node2</title>
<g id="a_node2"><a xlink:href="dol2asm_8h.html" target="_top" xlink:title=" ">
<polygon fill="white" stroke="black" points="0,-67.5 0,-86.5 61,-86.5 61,-67.5 0,-67.5"/>
<text text-anchor="middle" x="30.5" y="-74.5" font-family="Helvetica,sans-Serif" font-size="10.00">dol2asm.h</text>
</a>
</g>
</g>
<!-- Node1&#45;&gt;Node2 -->
<g id="edge1" class="edge">
<title>Node1&#45;&gt;Node2</title>
<path fill="none" stroke="midnightblue" d="M625.42,-146.33C498.22,-140.76 178.92,-124.51 75.5,-98 68.87,-96.3 61.98,-93.71 55.65,-90.95"/>
<polygon fill="midnightblue" stroke="midnightblue" points="56.82,-87.63 46.28,-86.57 53.86,-93.97 56.82,-87.63"/>
</g>
<!-- Node3 -->
<g id="node3" class="node">
<title>Node3</title>
<g id="a_node3"><a xlink:href="types_8h.html" target="_top" xlink:title=" ">
<polygon fill="white" stroke="black" points="91,-0.5 91,-19.5 172,-19.5 172,-0.5 91,-0.5"/>
<text text-anchor="middle" x="131.5" y="-7.5" font-family="Helvetica,sans-Serif" font-size="10.00">dolphin/types.h</text>
</a>
</g>
</g>
<!-- Node1&#45;&gt;Node3 -->
<g id="edge2" class="edge">
<title>Node1&#45;&gt;Node3</title>
<path fill="none" stroke="midnightblue" d="M625.32,-147.78C490.57,-145.39 143.94,-135.63 109.5,-98 91.87,-78.74 106.75,-47.42 119.13,-28.07"/>
<polygon fill="midnightblue" stroke="midnightblue" points="122.13,-29.89 124.85,-19.65 116.34,-25.95 122.13,-29.89"/>
</g>
<!-- Node4 -->
<g id="node4" class="node">
<title>Node4</title>
<g id="a_node4"><a xlink:href="d__msg__scrn__arrow_8h.html" target="_top" xlink:title=" ">
<polygon fill="white" stroke="black" points="118,-62 118,-92 231,-92 231,-62 118,-62"/>
<text text-anchor="start" x="126" y="-80" font-family="Helvetica,sans-Serif" font-size="10.00">msg/scrn/d_msg_scrn</text>
<text text-anchor="middle" x="174.5" y="-69" font-family="Helvetica,sans-Serif" font-size="10.00">_arrow.h</text>
</a>
</g>
</g>
<!-- Node1&#45;&gt;Node4 -->
<g id="edge3" class="edge">
<title>Node1&#45;&gt;Node4</title>
<path fill="none" stroke="midnightblue" d="M625.42,-145.46C542.54,-140.03 377.66,-126.45 240.5,-98 236.03,-97.07 231.42,-95.98 226.82,-94.78"/>
<polygon fill="midnightblue" stroke="midnightblue" points="227.38,-91.31 216.82,-92.05 225.54,-98.06 227.38,-91.31"/>
</g>
<!-- Node5 -->
<g id="node5" class="node">
<title>Node5</title>
<g id="a_node5"><a xlink:title=" ">
<polygon fill="white" stroke="#bfbfbf" points="249,-56.5 249,-97.5 406,-97.5 406,-56.5 249,-56.5"/>
<text text-anchor="start" x="257" y="-85.5" font-family="Helvetica,sans-Serif" font-size="10.00">asm/msg/scrn/d_msg</text>
<text text-anchor="start" x="257" y="-74.5" font-family="Helvetica,sans-Serif" font-size="10.00">_scrn_arrow/__ct__15dMsgScrn</text>
<text text-anchor="middle" x="327.5" y="-63.5" font-family="Helvetica,sans-Serif" font-size="10.00">Arrow_cFv.s</text>
</a>
</g>
</g>
<!-- Node1&#45;&gt;Node5 -->
<g id="edge5" class="edge">
<title>Node1&#45;&gt;Node5</title>
<path fill="none" stroke="midnightblue" d="M625.25,-138.82C574.23,-129.42 494.81,-114.48 416.23,-98.12"/>
<polygon fill="midnightblue" stroke="midnightblue" points="416.66,-94.63 406.15,-96.01 415.23,-101.49 416.66,-94.63"/>
</g>
<!-- Node6 -->
<g id="node6" class="node">
<title>Node6</title>
<g id="a_node6"><a xlink:title=" ">
<polygon fill="white" stroke="#bfbfbf" points="424,-56.5 424,-97.5 581,-97.5 581,-56.5 424,-56.5"/>
<text text-anchor="start" x="432" y="-85.5" font-family="Helvetica,sans-Serif" font-size="10.00">asm/msg/scrn/d_msg</text>
<text text-anchor="start" x="432" y="-74.5" font-family="Helvetica,sans-Serif" font-size="10.00">_scrn_arrow/__dt__15dMsgScrn</text>
<text text-anchor="middle" x="502.5" y="-63.5" font-family="Helvetica,sans-Serif" font-size="10.00">Arrow_cFv.s</text>
</a>
</g>
</g>
<!-- Node1&#45;&gt;Node6 -->
<g id="edge6" class="edge">
<title>Node1&#45;&gt;Node6</title>
<path fill="none" stroke="midnightblue" d="M643.31,-134.4C619.71,-124.95 588.07,-112.27 560.76,-101.34"/>
<polygon fill="midnightblue" stroke="midnightblue" points="561.88,-98.02 551.3,-97.55 559.28,-104.51 561.88,-98.02"/>
</g>
<!-- Node7 -->
<g id="node7" class="node">
<title>Node7</title>
<g id="a_node7"><a xlink:title=" ">
<polygon fill="white" stroke="#bfbfbf" points="599,-56.5 599,-97.5 758,-97.5 758,-56.5 599,-56.5"/>
<text text-anchor="start" x="607" y="-85.5" font-family="Helvetica,sans-Serif" font-size="10.00">asm/msg/scrn/d_msg</text>
<text text-anchor="start" x="607" y="-74.5" font-family="Helvetica,sans-Serif" font-size="10.00">_scrn_arrow/draw__15dMsgScrn</text>
<text text-anchor="middle" x="678.5" y="-63.5" font-family="Helvetica,sans-Serif" font-size="10.00">Arrow_cFv.s</text>
</a>
</g>
</g>
<!-- Node1&#45;&gt;Node7 -->
<g id="edge7" class="edge">
<title>Node1&#45;&gt;Node7</title>
<path fill="none" stroke="midnightblue" d="M678.5,-134.23C678.5,-126.57 678.5,-116.84 678.5,-107.63"/>
<polygon fill="midnightblue" stroke="midnightblue" points="682,-107.59 678.5,-97.59 675,-107.59 682,-107.59"/>
</g>
<!-- Node8 -->
<g id="node8" class="node">
<title>Node8</title>
<g id="a_node8"><a xlink:title=" ">
<polygon fill="white" stroke="#bfbfbf" points="776,-56.5 776,-97.5 907,-97.5 907,-56.5 776,-56.5"/>
<text text-anchor="start" x="784" y="-85.5" font-family="Helvetica,sans-Serif" font-size="10.00">asm/msg/scrn/d_msg</text>
<text text-anchor="start" x="784" y="-74.5" font-family="Helvetica,sans-Serif" font-size="10.00">_scrn_arrow/setPos_</text>
<text text-anchor="middle" x="841.5" y="-63.5" font-family="Helvetica,sans-Serif" font-size="10.00">_15dMsgScrnArrow_cFff.s</text>
</a>
</g>
</g>
<!-- Node1&#45;&gt;Node8 -->
<g id="edge8" class="edge">
<title>Node1&#45;&gt;Node8</title>
<path fill="none" stroke="midnightblue" d="M711.09,-134.4C732.76,-125.03 761.74,-112.5 786.88,-101.62"/>
<polygon fill="midnightblue" stroke="midnightblue" points="788.52,-104.73 796.31,-97.55 785.74,-98.3 788.52,-104.73"/>
</g>
<!-- Node9 -->
<g id="node9" class="node">
<title>Node9</title>
<g id="a_node9"><a xlink:title=" ">
<polygon fill="white" stroke="#bfbfbf" points="925,-56.5 925,-97.5 1062,-97.5 1062,-56.5 925,-56.5"/>
<text text-anchor="start" x="933" y="-85.5" font-family="Helvetica,sans-Serif" font-size="10.00">asm/msg/scrn/d_msg</text>
<text text-anchor="start" x="933" y="-74.5" font-family="Helvetica,sans-Serif" font-size="10.00">_scrn_arrow/arwAnimeInit</text>
<text text-anchor="middle" x="993.5" y="-63.5" font-family="Helvetica,sans-Serif" font-size="10.00">__15dMsgScrnArrow_cFv.s</text>
</a>
</g>
</g>
<!-- Node1&#45;&gt;Node9 -->
<g id="edge9" class="edge">
<title>Node1&#45;&gt;Node9</title>
<path fill="none" stroke="midnightblue" d="M731.59,-137.95C777.66,-128.63 846.37,-114.35 914.63,-98.4"/>
<polygon fill="midnightblue" stroke="midnightblue" points="915.76,-101.73 924.69,-96.04 914.16,-94.92 915.76,-101.73"/>
</g>
<!-- Node10 -->
<g id="node10" class="node">
<title>Node10</title>
<g id="a_node10"><a xlink:title=" ">
<polygon fill="white" stroke="#bfbfbf" points="1080.5,-56.5 1080.5,-97.5 1220.5,-97.5 1220.5,-56.5 1080.5,-56.5"/>
<text text-anchor="start" x="1088.5" y="-85.5" font-family="Helvetica,sans-Serif" font-size="10.00">asm/msg/scrn/d_msg</text>
<text text-anchor="start" x="1088.5" y="-74.5" font-family="Helvetica,sans-Serif" font-size="10.00">_scrn_arrow/arwAnimeMove</text>
<text text-anchor="middle" x="1150.5" y="-63.5" font-family="Helvetica,sans-Serif" font-size="10.00">__15dMsgScrnArrow_cFv.s</text>
</a>
</g>
</g>
<!-- Node1&#45;&gt;Node10 -->
<g id="edge10" class="edge">
<title>Node1&#45;&gt;Node10</title>
<path fill="none" stroke="midnightblue" d="M731.58,-143.72C805.47,-136.62 943.63,-121.72 1070.5,-98.08"/>
<polygon fill="midnightblue" stroke="midnightblue" points="1071.21,-101.51 1080.39,-96.22 1069.91,-94.63 1071.21,-101.51"/>
</g>
<!-- Node11 -->
<g id="node11" class="node">
<title>Node11</title>
<g id="a_node11"><a xlink:title=" ">
<polygon fill="white" stroke="#bfbfbf" points="1239,-56.5 1239,-97.5 1376,-97.5 1376,-56.5 1239,-56.5"/>
<text text-anchor="start" x="1247" y="-85.5" font-family="Helvetica,sans-Serif" font-size="10.00">asm/msg/scrn/d_msg</text>
<text text-anchor="start" x="1247" y="-74.5" font-family="Helvetica,sans-Serif" font-size="10.00">_scrn_arrow/dotAnimeInit</text>
<text text-anchor="middle" x="1307.5" y="-63.5" font-family="Helvetica,sans-Serif" font-size="10.00">__15dMsgScrnArrow_cFv.s</text>
</a>
</g>
</g>
<!-- Node1&#45;&gt;Node11 -->
<g id="edge11" class="edge">
<title>Node1&#45;&gt;Node11</title>
<path fill="none" stroke="midnightblue" d="M731.67,-146.45C828.67,-142.1 1040.84,-129.74 1228.67,-97.99"/>
<polygon fill="midnightblue" stroke="midnightblue" points="1229.46,-101.41 1238.73,-96.27 1228.28,-94.51 1229.46,-101.41"/>
</g>
<!-- Node12 -->
<g id="node12" class="node">
<title>Node12</title>
<g id="a_node12"><a xlink:title=" ">
<polygon fill="white" stroke="#bfbfbf" points="1394.5,-56.5 1394.5,-97.5 1532.5,-97.5 1532.5,-56.5 1394.5,-56.5"/>
<text text-anchor="start" x="1402.5" y="-85.5" font-family="Helvetica,sans-Serif" font-size="10.00">asm/msg/scrn/d_msg</text>
<text text-anchor="start" x="1402.5" y="-74.5" font-family="Helvetica,sans-Serif" font-size="10.00">_scrn_arrow/dotAnimeMove</text>
<text text-anchor="middle" x="1463.5" y="-63.5" font-family="Helvetica,sans-Serif" font-size="10.00">__15dMsgScrnArrow_cFv.s</text>
</a>
</g>
</g>
<!-- Node1&#45;&gt;Node12 -->
<g id="edge12" class="edge">
<title>Node1&#45;&gt;Node12</title>
<path fill="none" stroke="midnightblue" d="M731.65,-147.96C848.35,-146.06 1135.78,-137.57 1384.37,-98.03"/>
<polygon fill="midnightblue" stroke="midnightblue" points="1385,-101.47 1394.31,-96.43 1383.88,-94.56 1385,-101.47"/>
</g>
<!-- Node4&#45;&gt;Node3 -->
<g id="edge4" class="edge">
<title>Node4&#45;&gt;Node3</title>
<path fill="none" stroke="midnightblue" d="M165.17,-61.9C158.6,-51.96 149.76,-38.61 142.79,-28.07"/>
<polygon fill="midnightblue" stroke="midnightblue" points="145.69,-26.1 137.25,-19.69 139.85,-29.97 145.69,-26.1"/>
</g>
</g>
</svg>
        <g id="navigator" transform="translate(0 0)" fill="#404254">
                <rect fill="#f2f5e9" fill-opacity="0.5" stroke="#606060" stroke-width=".5" x="0" y="0" width="60" height="60"/>
                <use id="zoomplus" xlink:href="#zoomPlus" x="17" y="9" onmousedown="handleZoom(evt,'in')"/>
                <use id="zoomminus" xlink:href="#zoomMin" x="42" y="9" onmousedown="handleZoom(evt,'out')"/>
                <use id="reset" xlink:href="#resetDef" x="30" y="36" onmousedown="handleReset()"/>
                <g id="arrowUp" xlink:href="#dirArrow" transform="translate(30 24)" onmousedown="handlePan(0,-1)">
                  <use xlink:href="#rim" fill="#404040">
                        <set attributeName="fill" to="#808080" begin="arrowUp.mouseover" end="arrowUp.mouseout"/>
                  </use>
                  <path fill="none" stroke="white" stroke-width="1.5" d="M0,-3.0v7 M-2.5,-0.5L0,-3.0L2.5,-0.5"/>
                </g>
                <g id="arrowRight" xlink:href="#dirArrow" transform="rotate(90) translate(36 -43)" onmousedown="handlePan(1,0)">
                  <use xlink:href="#rim" fill="#404040">
                        <set attributeName="fill" to="#808080" begin="arrowRight.mouseover" end="arrowRight.mouseout"/>
                  </use>
                  <path fill="none" stroke="white" stroke-width="1.5" d="M0,-3.0v7 M-2.5,-0.5L0,-3.0L2.5,-0.5"/>
                </g>
                <g id="arrowDown" xlink:href="#dirArrow" transform="rotate(180) translate(-30 -48)" onmousedown="handlePan(0,1)">
                  <use xlink:href="#rim" fill="#404040">
                        <set attributeName="fill" to="#808080" begin="arrowDown.mouseover" end="arrowDown.mouseout"/>
                  </use>
                  <path fill="none" stroke="white" stroke-width="1.5" d="M0,-3.0v7 M-2.5,-0.5L0,-3.0L2.5,-0.5"/>
                </g>
                <g id="arrowLeft" xlink:href="#dirArrow" transform="rotate(270) translate(-36 17)" onmousedown="handlePan(-1,0)">
                  <use xlink:href="#rim" fill="#404040">
                        <set attributeName="fill" to="#808080" begin="arrowLeft.mouseover" end="arrowLeft.mouseout"/>
                  </use>
                  <path fill="none" stroke="white" stroke-width="1.5" d="M0,-3.0v7 M-2.5,-0.5L0,-3.0L2.5,-0.5"/>
                </g>
        </g>
        <svg viewBox="0 0 15 15" width="100%" height="30px" preserveAspectRatio="xMaxYMin meet">
         <g id="arrow_out" transform="scale(0.3 0.3)">
          <a xlink:href="d__msg__scrn__arrow_8cpp__incl_org.svg" target="_base">
           <rect id="button" ry="5" rx="5" y="6" x="6" height="38" width="38"
                fill="#f2f5e9" fill-opacity="0.5" stroke="#606060" stroke-width="1.0"/>
           <path id="arrow"
             d="M 11.500037,31.436501 C 11.940474,20.09759 22.043105,11.32322 32.158766,21.979434 L 37.068811,17.246167 C 37.068811,17.246167 37.088388,32 37.088388,32 L 22.160133,31.978069 C 22.160133,31.978069 26.997745,27.140456 26.997745,27.140456 C 18.528582,18.264221 13.291696,25.230495 11.500037,31.436501 z"
             style="fill:#404040;"/>
          </a>
         </g>
        </svg>
</svg>
