<?xml version="1.0" encoding="UTF-8" standalone="no"?>
<!DOCTYPE svg PUBLIC "-//W3C//DTD SVG 1.1//EN"
 "http://www.w3.org/Graphics/SVG/1.1/DTD/svg11.dtd">
<!-- Generated by graphviz version 2.47.0 (20210316.2052)
 -->
<!-- Title: src/d/menu/d_menu_skill.cpp Pages: 1 -->
<!--zoomable 162 -->
<svg id="main" version="1.1" xmlns="http://www.w3.org/2000/svg" xmlns:xlink="http://www.w3.org/1999/xlink" xml:space="preserve" onload="init(evt)">
<style type="text/css"><![CDATA[
.edge:hover path { stroke: red; }
.edge:hover polygon { stroke: red; fill: red; }
]]></style>
<script type="text/javascript"><![CDATA[
var edges = document.getElementsByTagName('g');
if (edges && edges.length) {
  for (var i=0;i<edges.length;i++) {
    if (edges[i].id.substr(0,4)=='edge') {
      edges[i].setAttribute('class','edge');
    }
  }
}
]]></script>
        <defs>
                <circle id="rim" cx="0" cy="0" r="7"/>
                <circle id="rim2" cx="0" cy="0" r="3.5"/>
                <g id="zoomPlus">
                        <use xlink:href="#rim" fill="#404040">
                                <set attributeName="fill" to="#808080" begin="zoomplus.mouseover" end="zoomplus.mouseout"/>
                        </use>
                        <path d="M-4,0h8M0,-4v8" fill="none" stroke="white" stroke-width="1.5" pointer-events="none"/>
                </g>
                <g id="zoomMin">
                        <use xlink:href="#rim" fill="#404040">
                                <set attributeName="fill" to="#808080" begin="zoomminus.mouseover" end="zoomminus.mouseout"/>
                        </use>
                        <path d="M-4,0h8" fill="none" stroke="white" stroke-width="1.5" pointer-events="none"/>
                </g>
                <g id="dirArrow">
                        <path fill="none" stroke="white" stroke-width="1.5" d="M0,-3.0v7 M-2.5,-0.5L0,-3.0L2.5,-0.5"/>
                </g>
               <g id="resetDef">
                       <use xlink:href="#rim2" fill="#404040">
                               <set attributeName="fill" to="#808080" begin="reset.mouseover" end="reset.mouseout"/>
                       </use>
               </g>
        </defs>

<script type="text/javascript">
var viewWidth = 5309;
var viewHeight = 162;
var sectionId = 'dynsection-0';
</script>
<script xlink:href="svgpan.js"/>
<svg id="graph" class="graph">
<g id="viewport">
<title>src/d/menu/d_menu_skill.cpp</title>
<polygon fill="white" stroke="transparent" points="-4,4 -4,-158 5305,-158 5305,4 -4,4"/>
<!-- Node1 -->
<g id="node1" class="node">
<title>Node1</title>
<g id="a_node1"><a xlink:title=" ">
<polygon fill="#bfbfbf" stroke="black" points="2533,-134.5 2533,-153.5 2676,-153.5 2676,-134.5 2533,-134.5"/>
<text text-anchor="middle" x="2604.5" y="-141.5" font-family="Helvetica,sans-Serif" font-size="10.00">src/d/menu/d_menu_skill.cpp</text>
</a>
</g>
</g>
<!-- Node2 -->
<g id="node2" class="node">
<title>Node2</title>
<g id="a_node2"><a xlink:href="dol2asm_8h.html" target="_top" xlink:title=" ">
<polygon fill="white" stroke="black" points="0,-67.5 0,-86.5 61,-86.5 61,-67.5 0,-67.5"/>
<text text-anchor="middle" x="30.5" y="-74.5" font-family="Helvetica,sans-Serif" font-size="10.00">dol2asm.h</text>
</a>
</g>
</g>
<!-- Node1&#45;&gt;Node2 -->
<g id="edge1" class="edge">
<title>Node1&#45;&gt;Node2</title>
<path fill="none" stroke="midnightblue" d="M2532.77,-142.53C2133.48,-139.81 198.49,-125.25 75.5,-98 68.71,-96.5 61.69,-93.93 55.27,-91.12"/>
<polygon fill="midnightblue" stroke="midnightblue" points="56.33,-87.75 45.8,-86.64 53.34,-94.08 56.33,-87.75"/>
</g>
<!-- Node3 -->
<g id="node3" class="node">
<title>Node3</title>
<g id="a_node3"><a xlink:href="types_8h.html" target="_top" xlink:title=" ">
<polygon fill="white" stroke="black" points="92,-0.5 92,-19.5 173,-19.5 173,-0.5 92,-0.5"/>
<text text-anchor="middle" x="132.5" y="-7.5" font-family="Helvetica,sans-Serif" font-size="10.00">dolphin/types.h</text>
</a>
</g>
</g>
<!-- Node1&#45;&gt;Node3 -->
<g id="edge2" class="edge">
<title>Node1&#45;&gt;Node3</title>
<path fill="none" stroke="midnightblue" d="M2532.86,-143.08C2128.89,-143.35 152.12,-142.41 108.5,-98 90.02,-79.18 106.22,-47.49 119.48,-28"/>
<polygon fill="midnightblue" stroke="midnightblue" points="122.42,-29.91 125.41,-19.75 116.73,-25.83 122.42,-29.91"/>
</g>
<!-- Node4 -->
<g id="node4" class="node">
<title>Node4</title>
<g id="a_node4"><a xlink:href="d__menu__skill_8h.html" target="_top" xlink:title=" ">
<polygon fill="white" stroke="black" points="117.5,-67.5 117.5,-86.5 233.5,-86.5 233.5,-67.5 117.5,-67.5"/>
<text text-anchor="middle" x="175.5" y="-74.5" font-family="Helvetica,sans-Serif" font-size="10.00">d/menu/d_menu_skill.h</text>
</a>
</g>
</g>
<!-- Node1&#45;&gt;Node4 -->
<g id="edge3" class="edge">
<title>Node1&#45;&gt;Node4</title>
<path fill="none" stroke="midnightblue" d="M2532.72,-142.77C2162.16,-141.44 474.15,-133.46 243.5,-98 231.86,-96.21 219.42,-92.96 208.4,-89.6"/>
<polygon fill="midnightblue" stroke="midnightblue" points="209.34,-86.23 198.75,-86.52 207.21,-92.89 209.34,-86.23"/>
</g>
<!-- Node5 -->
<g id="node5" class="node">
<title>Node5</title>
<g id="a_node5"><a xlink:title=" ">
<polygon fill="white" stroke="#bfbfbf" points="252,-56.5 252,-97.5 433,-97.5 433,-56.5 252,-56.5"/>
<text text-anchor="start" x="260" y="-85.5" font-family="Helvetica,sans-Serif" font-size="10.00">asm/d/menu/d_menu_skill</text>
<text text-anchor="start" x="260" y="-74.5" font-family="Helvetica,sans-Serif" font-size="10.00">/__ct__13dMenu_Skill_cFP10JKRExp</text>
<text text-anchor="middle" x="342.5" y="-63.5" font-family="Helvetica,sans-Serif" font-size="10.00">HeapP9STControlP10CSTControl.s</text>
</a>
</g>
</g>
<!-- Node1&#45;&gt;Node5 -->
<g id="edge5" class="edge">
<title>Node1&#45;&gt;Node5</title>
<path fill="none" stroke="midnightblue" d="M2532.84,-143.21C2209.32,-143.89 882.14,-143.86 443.34,-97.95"/>
<polygon fill="midnightblue" stroke="midnightblue" points="443.46,-94.44 433.14,-96.85 442.71,-101.4 443.46,-94.44"/>
</g>
<!-- Node6 -->
<g id="node6" class="node">
<title>Node6</title>
<g id="a_node6"><a xlink:title=" ">
<polygon fill="white" stroke="#bfbfbf" points="451.5,-62 451.5,-92 593.5,-92 593.5,-62 451.5,-62"/>
<text text-anchor="start" x="459.5" y="-80" font-family="Helvetica,sans-Serif" font-size="10.00">asm/d/menu/d_menu_skill</text>
<text text-anchor="middle" x="522.5" y="-69" font-family="Helvetica,sans-Serif" font-size="10.00">/__dt__13dMenu_Skill_cFv.s</text>
</a>
</g>
</g>
<!-- Node1&#45;&gt;Node6 -->
<g id="edge6" class="edge">
<title>Node1&#45;&gt;Node6</title>
<path fill="none" stroke="midnightblue" d="M2532.94,-142.32C2198.48,-139.03 797.41,-123.8 603.5,-98 596.39,-97.05 589.01,-95.73 581.71,-94.2"/>
<polygon fill="midnightblue" stroke="midnightblue" points="582.38,-90.76 571.86,-92.01 580.86,-97.6 582.38,-90.76"/>
</g>
<!-- Node7 -->
<g id="node7" class="node">
<title>Node7</title>
<g id="a_node7"><a xlink:title=" ">
<polygon fill="white" stroke="#bfbfbf" points="612,-62 612,-92 767,-92 767,-62 612,-62"/>
<text text-anchor="start" x="620" y="-80" font-family="Helvetica,sans-Serif" font-size="10.00">asm/d/menu/d_menu_skill</text>
<text text-anchor="middle" x="689.5" y="-69" font-family="Helvetica,sans-Serif" font-size="10.00">/_create__13dMenu_Skill_cFv.s</text>
</a>
</g>
</g>
<!-- Node1&#45;&gt;Node7 -->
<g id="edge7" class="edge">
<title>Node1&#45;&gt;Node7</title>
<path fill="none" stroke="midnightblue" d="M2532.86,-143.16C2239.02,-143.53 1125.33,-141.93 776.5,-98 768.82,-97.03 760.83,-95.68 752.94,-94.14"/>
<polygon fill="midnightblue" stroke="midnightblue" points="753.53,-90.68 743.03,-92.08 752.11,-97.54 753.53,-90.68"/>
</g>
<!-- Node8 -->
<g id="node8" class="node">
<title>Node8</title>
<g id="a_node8"><a xlink:title=" ">
<polygon fill="white" stroke="#bfbfbf" points="785.5,-62 785.5,-92 937.5,-92 937.5,-62 785.5,-62"/>
<text text-anchor="start" x="793.5" y="-80" font-family="Helvetica,sans-Serif" font-size="10.00">asm/d/menu/d_menu_skill</text>
<text text-anchor="middle" x="861.5" y="-69" font-family="Helvetica,sans-Serif" font-size="10.00">/_move__13dMenu_Skill_cFv.s</text>
</a>
</g>
</g>
<!-- Node1&#45;&gt;Node8 -->
<g id="edge8" class="edge">
<title>Node1&#45;&gt;Node8</title>
<path fill="none" stroke="midnightblue" d="M2532.63,-142.97C2256.14,-142.57 1260.94,-138.28 947.5,-98 939.91,-97.02 932.01,-95.67 924.21,-94.12"/>
<polygon fill="midnightblue" stroke="midnightblue" points="924.92,-90.69 914.41,-92.06 923.48,-97.54 924.92,-90.69"/>
</g>
<!-- Node9 -->
<g id="node9" class="node">
<title>Node9</title>
<g id="a_node9"><a xlink:title=" ">
<polygon fill="white" stroke="#bfbfbf" points="956,-62 956,-92 1105,-92 1105,-62 956,-62"/>
<text text-anchor="start" x="964" y="-80" font-family="Helvetica,sans-Serif" font-size="10.00">asm/d/menu/d_menu_skill</text>
<text text-anchor="middle" x="1030.5" y="-69" font-family="Helvetica,sans-Serif" font-size="10.00">/_draw__13dMenu_Skill_cFv.s</text>
</a>
</g>
</g>
<!-- Node1&#45;&gt;Node9 -->
<g id="edge9" class="edge">
<title>Node1&#45;&gt;Node9</title>
<path fill="none" stroke="midnightblue" d="M2532.91,-142.77C2274.96,-141.63 1393.66,-135.05 1114.5,-98 1107.16,-97.03 1099.53,-95.68 1091.99,-94.15"/>
<polygon fill="midnightblue" stroke="midnightblue" points="1092.68,-90.72 1082.17,-92.04 1091.21,-97.56 1092.68,-90.72"/>
</g>
<!-- Node10 -->
<g id="node10" class="node">
<title>Node10</title>
<g id="a_node10"><a xlink:title=" ">
<polygon fill="white" stroke="#bfbfbf" points="1123.5,-62 1123.5,-92 1275.5,-92 1275.5,-62 1123.5,-62"/>
<text text-anchor="start" x="1131.5" y="-80" font-family="Helvetica,sans-Serif" font-size="10.00">asm/d/menu/d_menu_skill</text>
<text text-anchor="middle" x="1199.5" y="-69" font-family="Helvetica,sans-Serif" font-size="10.00">/isSync__13dMenu_Skill_cFv.s</text>
</a>
</g>
</g>
<!-- Node1&#45;&gt;Node10 -->
<g id="edge10" class="edge">
<title>Node1&#45;&gt;Node10</title>
<path fill="none" stroke="midnightblue" d="M2532.63,-142.39C2294.06,-140.07 1529.69,-130.25 1285.5,-98 1277.91,-97 1270.02,-95.63 1262.22,-94.07"/>
<polygon fill="midnightblue" stroke="midnightblue" points="1262.93,-90.64 1252.42,-92.01 1261.48,-97.49 1262.93,-90.64"/>
</g>
<!-- Node11 -->
<g id="node11" class="node">
<title>Node11</title>
<g id="a_node11"><a xlink:title=" ">
<polygon fill="white" stroke="#bfbfbf" points="1294,-56.5 1294,-97.5 1425,-97.5 1425,-56.5 1294,-56.5"/>
<text text-anchor="start" x="1302" y="-85.5" font-family="Helvetica,sans-Serif" font-size="10.00">asm/d/menu/d_menu_skill</text>
<text text-anchor="start" x="1302" y="-74.5" font-family="Helvetica,sans-Serif" font-size="10.00">/skill_init_calc__13dMenu</text>
<text text-anchor="middle" x="1359.5" y="-63.5" font-family="Helvetica,sans-Serif" font-size="10.00">_Skill_cFv.s</text>
</a>
</g>
</g>
<!-- Node1&#45;&gt;Node11 -->
<g id="edge11" class="edge">
<title>Node1&#45;&gt;Node11</title>
<path fill="none" stroke="midnightblue" d="M2532.75,-142.33C2315.69,-139.96 1667.32,-130.44 1435.25,-97.87"/>
<polygon fill="midnightblue" stroke="midnightblue" points="1435.58,-94.38 1425.18,-96.4 1434.57,-101.3 1435.58,-94.38"/>
</g>
<!-- Node12 -->
<g id="node12" class="node">
<title>Node12</title>
<g id="a_node12"><a xlink:title=" ">
<polygon fill="white" stroke="#bfbfbf" points="1443.5,-62 1443.5,-92 1579.5,-92 1579.5,-62 1443.5,-62"/>
<text text-anchor="start" x="1451.5" y="-80" font-family="Helvetica,sans-Serif" font-size="10.00">asm/d/menu/d_menu_skill</text>
<text text-anchor="middle" x="1511.5" y="-69" font-family="Helvetica,sans-Serif" font-size="10.00">/init__13dMenu_Skill_cFv.s</text>
</a>
</g>
</g>
<!-- Node1&#45;&gt;Node12 -->
<g id="edge12" class="edge">
<title>Node1&#45;&gt;Node12</title>
<path fill="none" stroke="midnightblue" d="M2532.86,-141.75C2332.96,-137.95 1771.82,-125.12 1589.5,-98 1583.15,-97.06 1576.56,-95.81 1570.04,-94.39"/>
<polygon fill="midnightblue" stroke="midnightblue" points="1570.39,-90.88 1559.86,-92.05 1568.83,-97.7 1570.39,-90.88"/>
</g>
<!-- Node13 -->
<g id="node13" class="node">
<title>Node13</title>
<g id="a_node13"><a xlink:title=" ">
<polygon fill="white" stroke="#bfbfbf" points="1598,-62 1598,-92 1747,-92 1747,-62 1598,-62"/>
<text text-anchor="start" x="1606" y="-80" font-family="Helvetica,sans-Serif" font-size="10.00">asm/d/menu/d_menu_skill</text>
<text text-anchor="middle" x="1672.5" y="-69" font-family="Helvetica,sans-Serif" font-size="10.00">/_open__13dMenu_Skill_cFv.s</text>
</a>
</g>
</g>
<!-- Node1&#45;&gt;Node13 -->
<g id="edge13" class="edge">
<title>Node1&#45;&gt;Node13</title>
<path fill="none" stroke="midnightblue" d="M2532.88,-143.55C2386.32,-143.72 2041.95,-139.21 1756.5,-98 1749.46,-96.98 1742.15,-95.66 1734.9,-94.17"/>
<polygon fill="midnightblue" stroke="midnightblue" points="1735.61,-90.74 1725.09,-92.06 1734.13,-97.59 1735.61,-90.74"/>
</g>
<!-- Node14 -->
<g id="node14" class="node">
<title>Node14</title>
<g id="a_node14"><a xlink:title=" ">
<polygon fill="white" stroke="#bfbfbf" points="1765.5,-62 1765.5,-92 1917.5,-92 1917.5,-62 1765.5,-62"/>
<text text-anchor="start" x="1773.5" y="-80" font-family="Helvetica,sans-Serif" font-size="10.00">asm/d/menu/d_menu_skill</text>
<text text-anchor="middle" x="1841.5" y="-69" font-family="Helvetica,sans-Serif" font-size="10.00">/_close__13dMenu_Skill_cFv.s</text>
</a>
</g>
</g>
<!-- Node1&#45;&gt;Node14 -->
<g id="edge14" class="edge">
<title>Node1&#45;&gt;Node14</title>
<path fill="none" stroke="midnightblue" d="M2532.94,-142.05C2408.98,-139.55 2146.55,-130.53 1927.5,-98 1920.41,-96.95 1913.04,-95.61 1905.74,-94.13"/>
<polygon fill="midnightblue" stroke="midnightblue" points="1906.35,-90.68 1895.84,-92.04 1904.9,-97.53 1906.35,-90.68"/>
</g>
<!-- Node15 -->
<g id="node15" class="node">
<title>Node15</title>
<g id="a_node15"><a xlink:title=" ">
<polygon fill="white" stroke="#bfbfbf" points="1936,-62 1936,-92 2095,-92 2095,-62 1936,-62"/>
<text text-anchor="start" x="1944" y="-80" font-family="Helvetica,sans-Serif" font-size="10.00">asm/d/menu/d_menu_skill</text>
<text text-anchor="middle" x="2015.5" y="-69" font-family="Helvetica,sans-Serif" font-size="10.00">/wait_init__13dMenu_Skill_cFv.s</text>
</a>
</g>
</g>
<!-- Node1&#45;&gt;Node15 -->
<g id="edge15" class="edge">
<title>Node1&#45;&gt;Node15</title>
<path fill="none" stroke="midnightblue" d="M2532.93,-139.52C2435.54,-134.11 2256.05,-121.74 2104.5,-98 2097.4,-96.89 2090.02,-95.54 2082.69,-94.08"/>
<polygon fill="midnightblue" stroke="midnightblue" points="2083.24,-90.62 2072.74,-92.02 2081.82,-97.48 2083.24,-90.62"/>
</g>
<!-- Node16 -->
<g id="node16" class="node">
<title>Node16</title>
<g id="a_node16"><a xlink:title=" ">
<polygon fill="white" stroke="#bfbfbf" points="2113.5,-62 2113.5,-92 2283.5,-92 2283.5,-62 2113.5,-62"/>
<text text-anchor="start" x="2121.5" y="-80" font-family="Helvetica,sans-Serif" font-size="10.00">asm/d/menu/d_menu_skill</text>
<text text-anchor="middle" x="2198.5" y="-69" font-family="Helvetica,sans-Serif" font-size="10.00">/wait_move__13dMenu_Skill_cFv.s</text>
</a>
</g>
</g>
<!-- Node1&#45;&gt;Node16 -->
<g id="edge16" class="edge">
<title>Node1&#45;&gt;Node16</title>
<path fill="none" stroke="midnightblue" d="M2536.96,-134.49C2473.83,-126.24 2377.03,-112.82 2293.5,-98 2286.54,-96.77 2279.31,-95.4 2272.09,-93.98"/>
<polygon fill="midnightblue" stroke="midnightblue" points="2272.76,-90.54 2262.27,-92.01 2271.39,-97.4 2272.76,-90.54"/>
</g>
<!-- Node17 -->
<g id="node17" class="node">
<title>Node17</title>
<g id="a_node17"><a xlink:title=" ">
<polygon fill="white" stroke="#bfbfbf" points="2302,-56.5 2302,-97.5 2435,-97.5 2435,-56.5 2302,-56.5"/>
<text text-anchor="start" x="2310" y="-85.5" font-family="Helvetica,sans-Serif" font-size="10.00">asm/d/menu/d_menu_skill</text>
<text text-anchor="start" x="2310" y="-74.5" font-family="Helvetica,sans-Serif" font-size="10.00">/read_open_init__13dMenu</text>
<text text-anchor="middle" x="2368.5" y="-63.5" font-family="Helvetica,sans-Serif" font-size="10.00">_Skill_cFv.s</text>
</a>
</g>
</g>
<!-- Node1&#45;&gt;Node17 -->
<g id="edge17" class="edge">
<title>Node1&#45;&gt;Node17</title>
<path fill="none" stroke="midnightblue" d="M2573.16,-134.37C2540.64,-125.41 2488.54,-111.06 2445.05,-99.08"/>
<polygon fill="midnightblue" stroke="midnightblue" points="2445.91,-95.69 2435.34,-96.41 2444.05,-102.44 2445.91,-95.69"/>
</g>
<!-- Node18 -->
<g id="node18" class="node">
<title>Node18</title>
<g id="a_node18"><a xlink:title=" ">
<polygon fill="white" stroke="#bfbfbf" points="2453.5,-56.5 2453.5,-97.5 2597.5,-97.5 2597.5,-56.5 2453.5,-56.5"/>
<text text-anchor="start" x="2461.5" y="-85.5" font-family="Helvetica,sans-Serif" font-size="10.00">asm/d/menu/d_menu_skill</text>
<text text-anchor="start" x="2461.5" y="-74.5" font-family="Helvetica,sans-Serif" font-size="10.00">/read_open_move__13dMenu</text>
<text text-anchor="middle" x="2525.5" y="-63.5" font-family="Helvetica,sans-Serif" font-size="10.00">_Skill_cFv.s</text>
</a>
</g>
</g>
<!-- Node1&#45;&gt;Node18 -->
<g id="edge18" class="edge">
<title>Node1&#45;&gt;Node18</title>
<path fill="none" stroke="midnightblue" d="M2593.85,-134.23C2584.43,-126.49 2570.2,-114.78 2557.16,-104.05"/>
<polygon fill="midnightblue" stroke="midnightblue" points="2559.2,-101.19 2549.25,-97.54 2554.75,-106.6 2559.2,-101.19"/>
</g>
<!-- Node19 -->
<g id="node19" class="node">
<title>Node19</title>
<g id="a_node19"><a xlink:title=" ">
<polygon fill="white" stroke="#bfbfbf" points="2615.5,-56.5 2615.5,-97.5 2751.5,-97.5 2751.5,-56.5 2615.5,-56.5"/>
<text text-anchor="start" x="2623.5" y="-85.5" font-family="Helvetica,sans-Serif" font-size="10.00">asm/d/menu/d_menu_skill</text>
<text text-anchor="start" x="2623.5" y="-74.5" font-family="Helvetica,sans-Serif" font-size="10.00">/read_move_init__13dMenu</text>
<text text-anchor="middle" x="2683.5" y="-63.5" font-family="Helvetica,sans-Serif" font-size="10.00">_Skill_cFv.s</text>
</a>
</g>
</g>
<!-- Node1&#45;&gt;Node19 -->
<g id="edge19" class="edge">
<title>Node1&#45;&gt;Node19</title>
<path fill="none" stroke="midnightblue" d="M2615.15,-134.23C2624.57,-126.49 2638.8,-114.78 2651.84,-104.05"/>
<polygon fill="midnightblue" stroke="midnightblue" points="2654.25,-106.6 2659.75,-97.54 2649.8,-101.19 2654.25,-106.6"/>
</g>
<!-- Node20 -->
<g id="node20" class="node">
<title>Node20</title>
<g id="a_node20"><a xlink:title=" ">
<polygon fill="white" stroke="#bfbfbf" points="2770,-56.5 2770,-97.5 2917,-97.5 2917,-56.5 2770,-56.5"/>
<text text-anchor="start" x="2778" y="-85.5" font-family="Helvetica,sans-Serif" font-size="10.00">asm/d/menu/d_menu_skill</text>
<text text-anchor="start" x="2778" y="-74.5" font-family="Helvetica,sans-Serif" font-size="10.00">/read_move_move__13dMenu</text>
<text text-anchor="middle" x="2843.5" y="-63.5" font-family="Helvetica,sans-Serif" font-size="10.00">_Skill_cFv.s</text>
</a>
</g>
</g>
<!-- Node1&#45;&gt;Node20 -->
<g id="edge20" class="edge">
<title>Node1&#45;&gt;Node20</title>
<path fill="none" stroke="midnightblue" d="M2636.24,-134.37C2668.17,-125.68 2718.74,-111.93 2761.93,-100.19"/>
<polygon fill="midnightblue" stroke="midnightblue" points="2762.86,-103.56 2771.59,-97.56 2761.02,-96.8 2762.86,-103.56"/>
</g>
<!-- Node21 -->
<g id="node21" class="node">
<title>Node21</title>
<g id="a_node21"><a xlink:title=" ">
<polygon fill="white" stroke="#bfbfbf" points="2935,-56.5 2935,-97.5 3070,-97.5 3070,-56.5 2935,-56.5"/>
<text text-anchor="start" x="2943" y="-85.5" font-family="Helvetica,sans-Serif" font-size="10.00">asm/d/menu/d_menu_skill</text>
<text text-anchor="start" x="2943" y="-74.5" font-family="Helvetica,sans-Serif" font-size="10.00">/read_close_init__13dMenu</text>
<text text-anchor="middle" x="3002.5" y="-63.5" font-family="Helvetica,sans-Serif" font-size="10.00">_Skill_cFv.s</text>
</a>
</g>
</g>
<!-- Node1&#45;&gt;Node21 -->
<g id="edge21" class="edge">
<title>Node1&#45;&gt;Node21</title>
<path fill="none" stroke="midnightblue" d="M2676.21,-135.44C2739.43,-128.22 2834.19,-116.03 2924.76,-98.25"/>
<polygon fill="midnightblue" stroke="midnightblue" points="2925.52,-101.67 2934.64,-96.28 2924.15,-94.8 2925.52,-101.67"/>
</g>
<!-- Node22 -->
<g id="node22" class="node">
<title>Node22</title>
<g id="a_node22"><a xlink:title=" ">
<polygon fill="white" stroke="#bfbfbf" points="3088.5,-56.5 3088.5,-97.5 3234.5,-97.5 3234.5,-56.5 3088.5,-56.5"/>
<text text-anchor="start" x="3096.5" y="-85.5" font-family="Helvetica,sans-Serif" font-size="10.00">asm/d/menu/d_menu_skill</text>
<text text-anchor="start" x="3096.5" y="-74.5" font-family="Helvetica,sans-Serif" font-size="10.00">/read_close_move__13dMenu</text>
<text text-anchor="middle" x="3161.5" y="-63.5" font-family="Helvetica,sans-Serif" font-size="10.00">_Skill_cFv.s</text>
</a>
</g>
</g>
<!-- Node1&#45;&gt;Node22 -->
<g id="edge22" class="edge">
<title>Node1&#45;&gt;Node22</title>
<path fill="none" stroke="midnightblue" d="M2676.14,-139.45C2767.4,-134.21 2930.06,-122.45 3078.11,-98.11"/>
<polygon fill="midnightblue" stroke="midnightblue" points="3079,-101.51 3088.29,-96.41 3077.85,-94.6 3079,-101.51"/>
</g>
<!-- Node23 -->
<g id="node23" class="node">
<title>Node23</title>
<g id="a_node23"><a xlink:title=" ">
<polygon fill="white" stroke="#bfbfbf" points="3252.5,-56.5 3252.5,-97.5 3390.5,-97.5 3390.5,-56.5 3252.5,-56.5"/>
<text text-anchor="start" x="3260.5" y="-85.5" font-family="Helvetica,sans-Serif" font-size="10.00">asm/d/menu/d_menu_skill</text>
<text text-anchor="start" x="3260.5" y="-74.5" font-family="Helvetica,sans-Serif" font-size="10.00">/screenSetMenu__13dMenu</text>
<text text-anchor="middle" x="3321.5" y="-63.5" font-family="Helvetica,sans-Serif" font-size="10.00">_Skill_cFv.s</text>
</a>
</g>
</g>
<!-- Node1&#45;&gt;Node23 -->
<g id="edge23" class="edge">
<title>Node1&#45;&gt;Node23</title>
<path fill="none" stroke="midnightblue" d="M2676.38,-142.16C2793.31,-139.86 3031.98,-131.32 3242.32,-98.03"/>
<polygon fill="midnightblue" stroke="midnightblue" points="3243,-101.47 3252.31,-96.43 3241.89,-94.56 3243,-101.47"/>
</g>
<!-- Node24 -->
<g id="node24" class="node">
<title>Node24</title>
<g id="a_node24"><a xlink:title=" ">
<polygon fill="white" stroke="#bfbfbf" points="3408.5,-56.5 3408.5,-97.5 3548.5,-97.5 3548.5,-56.5 3408.5,-56.5"/>
<text text-anchor="start" x="3416.5" y="-85.5" font-family="Helvetica,sans-Serif" font-size="10.00">asm/d/menu/d_menu_skill</text>
<text text-anchor="start" x="3416.5" y="-74.5" font-family="Helvetica,sans-Serif" font-size="10.00">/screenSetLetter__13dMenu</text>
<text text-anchor="middle" x="3478.5" y="-63.5" font-family="Helvetica,sans-Serif" font-size="10.00">_Skill_cFv.s</text>
</a>
</g>
</g>
<!-- Node1&#45;&gt;Node24 -->
<g id="edge24" class="edge">
<title>Node1&#45;&gt;Node24</title>
<path fill="none" stroke="midnightblue" d="M2676.24,-143.52C2814.49,-143.52 3127.34,-138.69 3398.4,-98"/>
<polygon fill="midnightblue" stroke="midnightblue" points="3399.07,-101.44 3408.43,-96.48 3398.02,-94.52 3399.07,-101.44"/>
</g>
<!-- Node25 -->
<g id="node25" class="node">
<title>Node25</title>
<g id="a_node25"><a xlink:title=" ">
<polygon fill="white" stroke="#bfbfbf" points="3567,-56.5 3567,-97.5 3712,-97.5 3712,-56.5 3567,-56.5"/>
<text text-anchor="start" x="3575" y="-85.5" font-family="Helvetica,sans-Serif" font-size="10.00">asm/d/menu/d_menu_skill</text>
<text text-anchor="start" x="3575" y="-74.5" font-family="Helvetica,sans-Serif" font-size="10.00">/screenSetDoIcon__13dMenu</text>
<text text-anchor="middle" x="3639.5" y="-63.5" font-family="Helvetica,sans-Serif" font-size="10.00">_Skill_cFv.s</text>
</a>
</g>
</g>
<!-- Node1&#45;&gt;Node25 -->
<g id="edge25" class="edge">
<title>Node1&#45;&gt;Node25</title>
<path fill="none" stroke="midnightblue" d="M2676.19,-141.4C2864.11,-136.92 3368.83,-123.03 3556.72,-97.91"/>
<polygon fill="midnightblue" stroke="midnightblue" points="3557.34,-101.35 3566.76,-96.51 3556.38,-94.42 3557.34,-101.35"/>
</g>
<!-- Node26 -->
<g id="node26" class="node">
<title>Node26</title>
<g id="a_node26"><a xlink:title=" ">
<polygon fill="white" stroke="#bfbfbf" points="3730,-56.5 3730,-97.5 3861,-97.5 3861,-56.5 3730,-56.5"/>
<text text-anchor="start" x="3738" y="-85.5" font-family="Helvetica,sans-Serif" font-size="10.00">asm/d/menu/d_menu_skill</text>
<text text-anchor="start" x="3738" y="-74.5" font-family="Helvetica,sans-Serif" font-size="10.00">/setCursorPos__13dMenu</text>
<text text-anchor="middle" x="3795.5" y="-63.5" font-family="Helvetica,sans-Serif" font-size="10.00">_Skill_cFv.s</text>
</a>
</g>
</g>
<!-- Node1&#45;&gt;Node26 -->
<g id="edge26" class="edge">
<title>Node1&#45;&gt;Node26</title>
<path fill="none" stroke="midnightblue" d="M2676.01,-142.21C2885.96,-139.56 3499.18,-129.41 3719.69,-98.06"/>
<polygon fill="midnightblue" stroke="midnightblue" points="3720.52,-101.47 3729.9,-96.55 3719.49,-94.55 3720.52,-101.47"/>
</g>
<!-- Node27 -->
<g id="node27" class="node">
<title>Node27</title>
<g id="a_node27"><a xlink:title=" ">
<polygon fill="white" stroke="#bfbfbf" points="3879.5,-56.5 3879.5,-97.5 4031.5,-97.5 4031.5,-56.5 3879.5,-56.5"/>
<text text-anchor="start" x="3887.5" y="-85.5" font-family="Helvetica,sans-Serif" font-size="10.00">asm/d/menu/d_menu_skill</text>
<text text-anchor="start" x="3887.5" y="-74.5" font-family="Helvetica,sans-Serif" font-size="10.00">/changeActiveColor__13dMenu</text>
<text text-anchor="middle" x="3955.5" y="-63.5" font-family="Helvetica,sans-Serif" font-size="10.00">_Skill_cFv.s</text>
</a>
</g>
</g>
<!-- Node1&#45;&gt;Node27 -->
<g id="edge27" class="edge">
<title>Node1&#45;&gt;Node27</title>
<path fill="none" stroke="midnightblue" d="M2676.31,-142.29C2905.27,-139.76 3617.29,-129.58 3868.98,-98.03"/>
<polygon fill="midnightblue" stroke="midnightblue" points="3869.71,-101.46 3879.18,-96.7 3868.81,-94.52 3869.71,-101.46"/>
</g>
<!-- Node28 -->
<g id="node28" class="node">
<title>Node28</title>
<g id="a_node28"><a xlink:title=" ">
<polygon fill="white" stroke="#bfbfbf" points="4050,-56.5 4050,-97.5 4181,-97.5 4181,-56.5 4050,-56.5"/>
<text text-anchor="start" x="4058" y="-85.5" font-family="Helvetica,sans-Serif" font-size="10.00">asm/d/menu/d_menu_skill</text>
<text text-anchor="start" x="4058" y="-74.5" font-family="Helvetica,sans-Serif" font-size="10.00">/setPageText__13dMenu</text>
<text text-anchor="middle" x="4115.5" y="-63.5" font-family="Helvetica,sans-Serif" font-size="10.00">_Skill_cFv.s</text>
</a>
</g>
</g>
<!-- Node1&#45;&gt;Node28 -->
<g id="edge28" class="edge">
<title>Node1&#45;&gt;Node28</title>
<path fill="none" stroke="midnightblue" d="M2676.12,-142.92C2925.14,-142.33 3753.18,-137.46 4039.86,-97.85"/>
<polygon fill="midnightblue" stroke="midnightblue" points="4040.42,-101.3 4049.83,-96.42 4039.43,-94.37 4040.42,-101.3"/>
</g>
<!-- Node29 -->
<g id="node29" class="node">
<title>Node29</title>
<g id="a_node29"><a xlink:title=" ">
<polygon fill="white" stroke="#bfbfbf" points="4199.5,-56.5 4199.5,-97.5 4343.5,-97.5 4343.5,-56.5 4199.5,-56.5"/>
<text text-anchor="start" x="4207.5" y="-85.5" font-family="Helvetica,sans-Serif" font-size="10.00">asm/d/menu/d_menu_skill</text>
<text text-anchor="start" x="4207.5" y="-74.5" font-family="Helvetica,sans-Serif" font-size="10.00">/setAButtonString__13dMenu</text>
<text text-anchor="middle" x="4271.5" y="-63.5" font-family="Helvetica,sans-Serif" font-size="10.00">_Skill_cFUs.s</text>
</a>
</g>
</g>
<!-- Node1&#45;&gt;Node29 -->
<g id="edge29" class="edge">
<title>Node1&#45;&gt;Node29</title>
<path fill="none" stroke="midnightblue" d="M2676.04,-143C2941.63,-142.68 3871.52,-138.72 4189.1,-98"/>
<polygon fill="midnightblue" stroke="midnightblue" points="4189.77,-101.44 4199.22,-96.66 4188.85,-94.5 4189.77,-101.44"/>
</g>
<!-- Node30 -->
<g id="node30" class="node">
<title>Node30</title>
<g id="a_node30"><a xlink:title=" ">
<polygon fill="white" stroke="#bfbfbf" points="4361.5,-56.5 4361.5,-97.5 4505.5,-97.5 4505.5,-56.5 4361.5,-56.5"/>
<text text-anchor="start" x="4369.5" y="-85.5" font-family="Helvetica,sans-Serif" font-size="10.00">asm/d/menu/d_menu_skill</text>
<text text-anchor="start" x="4369.5" y="-74.5" font-family="Helvetica,sans-Serif" font-size="10.00">/setBButtonString__13dMenu</text>
<text text-anchor="middle" x="4433.5" y="-63.5" font-family="Helvetica,sans-Serif" font-size="10.00">_Skill_cFUs.s</text>
</a>
</g>
</g>
<!-- Node1&#45;&gt;Node30 -->
<g id="edge30" class="edge">
<title>Node1&#45;&gt;Node30</title>
<path fill="none" stroke="midnightblue" d="M2676.4,-143.22C2959.77,-143.77 4000.54,-142.73 4351.3,-97.97"/>
<polygon fill="midnightblue" stroke="midnightblue" points="4351.77,-101.44 4361.23,-96.67 4350.86,-94.5 4351.77,-101.44"/>
</g>
<!-- Node31 -->
<g id="node31" class="node">
<title>Node31</title>
<g id="a_node31"><a xlink:title=" ">
<polygon fill="white" stroke="#bfbfbf" points="4524,-56.5 4524,-97.5 4659,-97.5 4659,-56.5 4524,-56.5"/>
<text text-anchor="start" x="4532" y="-85.5" font-family="Helvetica,sans-Serif" font-size="10.00">asm/d/menu/d_menu_skill</text>
<text text-anchor="start" x="4532" y="-74.5" font-family="Helvetica,sans-Serif" font-size="10.00">/setNameString__13dMenu</text>
<text text-anchor="middle" x="4591.5" y="-63.5" font-family="Helvetica,sans-Serif" font-size="10.00">_Skill_cFUs.s</text>
</a>
</g>
</g>
<!-- Node1&#45;&gt;Node31 -->
<g id="edge31" class="edge">
<title>Node1&#45;&gt;Node31</title>
<path fill="none" stroke="midnightblue" d="M2676.04,-142.29C2995.75,-138.99 4287.61,-124.24 4513.42,-97.84"/>
<polygon fill="midnightblue" stroke="midnightblue" points="4514.18,-101.27 4523.65,-96.53 4513.29,-94.32 4514.18,-101.27"/>
</g>
<!-- Node32 -->
<g id="node32" class="node">
<title>Node32</title>
<g id="a_node32"><a xlink:title=" ">
<polygon fill="white" stroke="#bfbfbf" points="4677,-56.5 4677,-97.5 4808,-97.5 4808,-56.5 4677,-56.5"/>
<text text-anchor="start" x="4685" y="-85.5" font-family="Helvetica,sans-Serif" font-size="10.00">asm/d/menu/d_menu_skill</text>
<text text-anchor="start" x="4685" y="-74.5" font-family="Helvetica,sans-Serif" font-size="10.00">/getSkillNum__13dMenu</text>
<text text-anchor="middle" x="4742.5" y="-63.5" font-family="Helvetica,sans-Serif" font-size="10.00">_Skill_cFv.s</text>
</a>
</g>
</g>
<!-- Node1&#45;&gt;Node32 -->
<g id="edge32" class="edge">
<title>Node1&#45;&gt;Node32</title>
<path fill="none" stroke="midnightblue" d="M2676.04,-142.47C3011.95,-139.83 4426.05,-127.17 4666.95,-97.93"/>
<polygon fill="midnightblue" stroke="midnightblue" points="4667.45,-101.39 4676.91,-96.61 4666.53,-94.45 4667.45,-101.39"/>
</g>
<!-- Node33 -->
<g id="node33" class="node">
<title>Node33</title>
<g id="a_node33"><a xlink:title=" ">
<polygon fill="white" stroke="#bfbfbf" points="4826,-62 4826,-92 4981,-92 4981,-62 4826,-62"/>
<text text-anchor="start" x="4834" y="-80" font-family="Helvetica,sans-Serif" font-size="10.00">asm/d/menu/d_menu_skill</text>
<text text-anchor="middle" x="4903.5" y="-69" font-family="Helvetica,sans-Serif" font-size="10.00">/setHIO__13dMenu_Skill_cFb.s</text>
</a>
</g>
</g>
<!-- Node1&#45;&gt;Node33 -->
<g id="edge33" class="edge">
<title>Node1&#45;&gt;Node33</title>
<path fill="none" stroke="midnightblue" d="M2676.1,-142.43C3031.92,-139.48 4601.34,-125.03 4817.5,-98 4825.2,-97.04 4833.22,-95.67 4841.13,-94.1"/>
<polygon fill="midnightblue" stroke="midnightblue" points="4841.99,-97.5 4851.05,-92.02 4840.55,-90.65 4841.99,-97.5"/>
</g>
<!-- Node34 -->
<g id="node34" class="node">
<title>Node34</title>
<g id="a_node34"><a xlink:title=" ">
<polygon fill="white" stroke="#bfbfbf" points="4999.5,-62 4999.5,-92 5143.5,-92 5143.5,-62 4999.5,-62"/>
<text text-anchor="start" x="5007.5" y="-80" font-family="Helvetica,sans-Serif" font-size="10.00">asm/d/menu/d_menu_skill</text>
<text text-anchor="middle" x="5071.5" y="-69" font-family="Helvetica,sans-Serif" font-size="10.00">/draw__13dMenu_Skill_cFv.s</text>
</a>
</g>
</g>
<!-- Node1&#45;&gt;Node34 -->
<g id="edge34" class="edge">
<title>Node1&#45;&gt;Node34</title>
<path fill="none" stroke="midnightblue" d="M2676.09,-142.6C3048.55,-140.4 4756.48,-128.71 4990.5,-98 4997.61,-97.07 5005,-95.75 5012.29,-94.23"/>
<polygon fill="midnightblue" stroke="midnightblue" points="5013.14,-97.62 5022.14,-92.04 5011.62,-90.79 5013.14,-97.62"/>
</g>
<!-- Node35 -->
<g id="node35" class="node">
<title>Node35</title>
<g id="a_node35"><a xlink:title=" ">
<polygon fill="white" stroke="#bfbfbf" points="5162,-62 5162,-92 5301,-92 5301,-62 5162,-62"/>
<text text-anchor="start" x="5170" y="-80" font-family="Helvetica,sans-Serif" font-size="10.00">asm/d/menu/d_menu_skill</text>
<text text-anchor="middle" x="5231.5" y="-69" font-family="Helvetica,sans-Serif" font-size="10.00">/__sinit_d_menu_skill_cpp.s</text>
</a>
</g>
</g>
<!-- Node1&#45;&gt;Node35 -->
<g id="edge35" class="edge">
<title>Node1&#45;&gt;Node35</title>
<path fill="none" stroke="midnightblue" d="M2676.12,-142.72C3063.68,-141.07 4901.64,-131.51 5152.5,-98 5159.28,-97.09 5166.32,-95.82 5173.28,-94.34"/>
<polygon fill="midnightblue" stroke="midnightblue" points="5174.4,-97.67 5183.38,-92.05 5172.85,-90.85 5174.4,-97.67"/>
</g>
<!-- Node4&#45;&gt;Node3 -->
<g id="edge4" class="edge">
<title>Node4&#45;&gt;Node3</title>
<path fill="none" stroke="midnightblue" d="M169.7,-67.23C163.12,-57.29 152.24,-40.84 143.94,-28.29"/>
<polygon fill="midnightblue" stroke="midnightblue" points="146.64,-26.04 138.21,-19.63 140.81,-29.9 146.64,-26.04"/>
</g>
</g>
</svg>
        <g id="navigator" transform="translate(0 0)" fill="#404254">
                <rect fill="#f2f5e9" fill-opacity="0.5" stroke="#606060" stroke-width=".5" x="0" y="0" width="60" height="60"/>
                <use id="zoomplus" xlink:href="#zoomPlus" x="17" y="9" onmousedown="handleZoom(evt,'in')"/>
                <use id="zoomminus" xlink:href="#zoomMin" x="42" y="9" onmousedown="handleZoom(evt,'out')"/>
                <use id="reset" xlink:href="#resetDef" x="30" y="36" onmousedown="handleReset()"/>
                <g id="arrowUp" xlink:href="#dirArrow" transform="translate(30 24)" onmousedown="handlePan(0,-1)">
                  <use xlink:href="#rim" fill="#404040">
                        <set attributeName="fill" to="#808080" begin="arrowUp.mouseover" end="arrowUp.mouseout"/>
                  </use>
                  <path fill="none" stroke="white" stroke-width="1.5" d="M0,-3.0v7 M-2.5,-0.5L0,-3.0L2.5,-0.5"/>
                </g>
                <g id="arrowRight" xlink:href="#dirArrow" transform="rotate(90) translate(36 -43)" onmousedown="handlePan(1,0)">
                  <use xlink:href="#rim" fill="#404040">
                        <set attributeName="fill" to="#808080" begin="arrowRight.mouseover" end="arrowRight.mouseout"/>
                  </use>
                  <path fill="none" stroke="white" stroke-width="1.5" d="M0,-3.0v7 M-2.5,-0.5L0,-3.0L2.5,-0.5"/>
                </g>
                <g id="arrowDown" xlink:href="#dirArrow" transform="rotate(180) translate(-30 -48)" onmousedown="handlePan(0,1)">
                  <use xlink:href="#rim" fill="#404040">
                        <set attributeName="fill" to="#808080" begin="arrowDown.mouseover" end="arrowDown.mouseout"/>
                  </use>
                  <path fill="none" stroke="white" stroke-width="1.5" d="M0,-3.0v7 M-2.5,-0.5L0,-3.0L2.5,-0.5"/>
                </g>
                <g id="arrowLeft" xlink:href="#dirArrow" transform="rotate(270) translate(-36 17)" onmousedown="handlePan(-1,0)">
                  <use xlink:href="#rim" fill="#404040">
                        <set attributeName="fill" to="#808080" begin="arrowLeft.mouseover" end="arrowLeft.mouseout"/>
                  </use>
                  <path fill="none" stroke="white" stroke-width="1.5" d="M0,-3.0v7 M-2.5,-0.5L0,-3.0L2.5,-0.5"/>
                </g>
        </g>
        <svg viewBox="0 0 15 15" width="100%" height="30px" preserveAspectRatio="xMaxYMin meet">
         <g id="arrow_out" transform="scale(0.3 0.3)">
          <a xlink:href="d__menu__skill_8cpp__incl_org.svg" target="_base">
           <rect id="button" ry="5" rx="5" y="6" x="6" height="38" width="38"
                fill="#f2f5e9" fill-opacity="0.5" stroke="#606060" stroke-width="1.0"/>
           <path id="arrow"
             d="M 11.500037,31.436501 C 11.940474,20.09759 22.043105,11.32322 32.158766,21.979434 L 37.068811,17.246167 C 37.068811,17.246167 37.088388,32 37.088388,32 L 22.160133,31.978069 C 22.160133,31.978069 26.997745,27.140456 26.997745,27.140456 C 18.528582,18.264221 13.291696,25.230495 11.500037,31.436501 z"
             style="fill:#404040;"/>
          </a>
         </g>
        </svg>
</svg>
