<?xml version="1.0" encoding="UTF-8" standalone="no"?>
<!DOCTYPE svg PUBLIC "-//W3C//DTD SVG 1.1//EN"
 "http://www.w3.org/Graphics/SVG/1.1/DTD/svg11.dtd">
<!-- Generated by graphviz version 2.47.0 (20210316.2052)
 -->
<!-- Title: src/d/d_npc_lib.cpp Pages: 1 -->
<!--zoomable 162 -->
<svg id="main" version="1.1" xmlns="http://www.w3.org/2000/svg" xmlns:xlink="http://www.w3.org/1999/xlink" xml:space="preserve" onload="init(evt)">
<style type="text/css"><![CDATA[
.edge:hover path { stroke: red; }
.edge:hover polygon { stroke: red; fill: red; }
]]></style>
<script type="text/javascript"><![CDATA[
var edges = document.getElementsByTagName('g');
if (edges && edges.length) {
  for (var i=0;i<edges.length;i++) {
    if (edges[i].id.substr(0,4)=='edge') {
      edges[i].setAttribute('class','edge');
    }
  }
}
]]></script>
        <defs>
                <circle id="rim" cx="0" cy="0" r="7"/>
                <circle id="rim2" cx="0" cy="0" r="3.5"/>
                <g id="zoomPlus">
                        <use xlink:href="#rim" fill="#404040">
                                <set attributeName="fill" to="#808080" begin="zoomplus.mouseover" end="zoomplus.mouseout"/>
                        </use>
                        <path d="M-4,0h8M0,-4v8" fill="none" stroke="white" stroke-width="1.5" pointer-events="none"/>
                </g>
                <g id="zoomMin">
                        <use xlink:href="#rim" fill="#404040">
                                <set attributeName="fill" to="#808080" begin="zoomminus.mouseover" end="zoomminus.mouseout"/>
                        </use>
                        <path d="M-4,0h8" fill="none" stroke="white" stroke-width="1.5" pointer-events="none"/>
                </g>
                <g id="dirArrow">
                        <path fill="none" stroke="white" stroke-width="1.5" d="M0,-3.0v7 M-2.5,-0.5L0,-3.0L2.5,-0.5"/>
                </g>
               <g id="resetDef">
                       <use xlink:href="#rim2" fill="#404040">
                               <set attributeName="fill" to="#808080" begin="reset.mouseover" end="reset.mouseout"/>
                       </use>
               </g>
        </defs>

<script type="text/javascript">
var viewWidth = 1362;
var viewHeight = 162;
var sectionId = 'dynsection-0';
</script>
<script xlink:href="svgpan.js"/>
<svg id="graph" class="graph">
<g id="viewport">
<title>src/d/d_npc_lib.cpp</title>
<polygon fill="white" stroke="transparent" points="-4,4 -4,-158 1358,-158 1358,4 -4,4"/>
<!-- Node1 -->
<g id="node1" class="node">
<title>Node1</title>
<g id="a_node1"><a xlink:title=" ">
<polygon fill="#bfbfbf" stroke="black" points="495,-134.5 495,-153.5 596,-153.5 596,-134.5 495,-134.5"/>
<text text-anchor="middle" x="545.5" y="-141.5" font-family="Helvetica,sans-Serif" font-size="10.00">src/d/d_npc_lib.cpp</text>
</a>
</g>
</g>
<!-- Node2 -->
<g id="node2" class="node">
<title>Node2</title>
<g id="a_node2"><a xlink:href="dol2asm_8h.html" target="_top" xlink:title=" ">
<polygon fill="white" stroke="black" points="0,-67.5 0,-86.5 61,-86.5 61,-67.5 0,-67.5"/>
<text text-anchor="middle" x="30.5" y="-74.5" font-family="Helvetica,sans-Serif" font-size="10.00">dol2asm.h</text>
</a>
</g>
</g>
<!-- Node1&#45;&gt;Node2 -->
<g id="edge1" class="edge">
<title>Node1&#45;&gt;Node2</title>
<path fill="none" stroke="midnightblue" d="M494.83,-143.45C407.67,-143.05 224.35,-137.09 75.5,-98 68.88,-96.26 62,-93.65 55.67,-90.89"/>
<polygon fill="midnightblue" stroke="midnightblue" points="56.83,-87.57 46.29,-86.52 53.88,-93.92 56.83,-87.57"/>
</g>
<!-- Node3 -->
<g id="node3" class="node">
<title>Node3</title>
<g id="a_node3"><a xlink:href="types_8h.html" target="_top" xlink:title=" ">
<polygon fill="white" stroke="black" points="81,-0.5 81,-19.5 162,-19.5 162,-0.5 81,-0.5"/>
<text text-anchor="middle" x="121.5" y="-7.5" font-family="Helvetica,sans-Serif" font-size="10.00">dolphin/types.h</text>
</a>
</g>
</g>
<!-- Node1&#45;&gt;Node3 -->
<g id="edge2" class="edge">
<title>Node1&#45;&gt;Node3</title>
<path fill="none" stroke="midnightblue" d="M494.76,-141.52C385.14,-137.79 133.98,-126.24 108.5,-98 91.51,-79.17 102.03,-48.16 111.52,-28.7"/>
<polygon fill="midnightblue" stroke="midnightblue" points="114.7,-30.18 116.24,-19.7 108.5,-26.93 114.7,-30.18"/>
</g>
<!-- Node4 -->
<g id="node4" class="node">
<title>Node4</title>
<g id="a_node4"><a xlink:href="d__npc__lib_8h.html" target="_top" xlink:title=" ">
<polygon fill="white" stroke="black" points="117.5,-67.5 117.5,-86.5 191.5,-86.5 191.5,-67.5 117.5,-67.5"/>
<text text-anchor="middle" x="154.5" y="-74.5" font-family="Helvetica,sans-Serif" font-size="10.00">d/d_npc_lib.h</text>
</a>
</g>
</g>
<!-- Node1&#45;&gt;Node4 -->
<g id="edge3" class="edge">
<title>Node1&#45;&gt;Node4</title>
<path fill="none" stroke="midnightblue" d="M494.81,-140.68C426.96,-136.61 303.34,-125.77 201.5,-98 194.6,-96.12 187.39,-93.44 180.74,-90.65"/>
<polygon fill="midnightblue" stroke="midnightblue" points="182.07,-87.41 171.51,-86.57 179.24,-93.81 182.07,-87.41"/>
</g>
<!-- Node5 -->
<g id="node5" class="node">
<title>Node5</title>
<g id="a_node5"><a xlink:title=" ">
<polygon fill="white" stroke="#bfbfbf" points="210,-62 210,-92 345,-92 345,-62 210,-62"/>
<text text-anchor="start" x="218" y="-80" font-family="Helvetica,sans-Serif" font-size="10.00">asm/d/d_npc_lib/__ct</text>
<text text-anchor="middle" x="277.5" y="-69" font-family="Helvetica,sans-Serif" font-size="10.00">__16dNpcLib_lookat_cFv.s</text>
</a>
</g>
</g>
<!-- Node1&#45;&gt;Node5 -->
<g id="edge5" class="edge">
<title>Node1&#45;&gt;Node5</title>
<path fill="none" stroke="midnightblue" d="M508.11,-134.46C469.56,-125.58 407.74,-111.18 354.5,-98 350.08,-96.91 345.53,-95.76 340.94,-94.6"/>
<polygon fill="midnightblue" stroke="midnightblue" points="341.45,-91.12 330.89,-92.04 339.72,-97.9 341.45,-91.12"/>
</g>
<!-- Node6 -->
<g id="node6" class="node">
<title>Node6</title>
<g id="a_node6"><a xlink:title=" ">
<polygon fill="white" stroke="#bfbfbf" points="363.5,-56.5 363.5,-97.5 541.5,-97.5 541.5,-56.5 363.5,-56.5"/>
<text text-anchor="start" x="371.5" y="-85.5" font-family="Helvetica,sans-Serif" font-size="10.00">asm/d/d_npc_lib/init</text>
<text text-anchor="start" x="371.5" y="-74.5" font-family="Helvetica,sans-Serif" font-size="10.00">__16dNpcLib_lookat_cFP8J3DModel</text>
<text text-anchor="middle" x="452.5" y="-63.5" font-family="Helvetica,sans-Serif" font-size="10.00">PiP5csXyzP5csXyz.s</text>
</a>
</g>
</g>
<!-- Node1&#45;&gt;Node6 -->
<g id="edge6" class="edge">
<title>Node1&#45;&gt;Node6</title>
<path fill="none" stroke="midnightblue" d="M532.96,-134.23C521.66,-126.34 504.49,-114.34 488.91,-103.45"/>
<polygon fill="midnightblue" stroke="midnightblue" points="490.66,-100.4 480.46,-97.54 486.65,-106.14 490.66,-100.4"/>
</g>
<!-- Node7 -->
<g id="node7" class="node">
<title>Node7</title>
<g id="a_node7"><a xlink:title=" ">
<polygon fill="white" stroke="#bfbfbf" points="559,-56.5 559,-97.5 718,-97.5 718,-56.5 559,-56.5"/>
<text text-anchor="start" x="567" y="-85.5" font-family="Helvetica,sans-Serif" font-size="10.00">asm/d/d_npc_lib/action</text>
<text text-anchor="start" x="567" y="-74.5" font-family="Helvetica,sans-Serif" font-size="10.00">__16dNpcLib_lookat_cF4cXyz4c</text>
<text text-anchor="middle" x="638.5" y="-63.5" font-family="Helvetica,sans-Serif" font-size="10.00">XyzP10fopAc_ac_cPA4_fi.s</text>
</a>
</g>
</g>
<!-- Node1&#45;&gt;Node7 -->
<g id="edge7" class="edge">
<title>Node1&#45;&gt;Node7</title>
<path fill="none" stroke="midnightblue" d="M558.04,-134.23C569.34,-126.34 586.51,-114.34 602.09,-103.45"/>
<polygon fill="midnightblue" stroke="midnightblue" points="604.35,-106.14 610.54,-97.54 600.34,-100.4 604.35,-106.14"/>
</g>
<!-- Node8 -->
<g id="node8" class="node">
<title>Node8</title>
<g id="a_node8"><a xlink:title=" ">
<polygon fill="white" stroke="#bfbfbf" points="736,-62 736,-92 871,-92 871,-62 736,-62"/>
<text text-anchor="start" x="744" y="-80" font-family="Helvetica,sans-Serif" font-size="10.00">asm/d/d_npc_lib/setPrm</text>
<text text-anchor="middle" x="803.5" y="-69" font-family="Helvetica,sans-Serif" font-size="10.00">__16dNpcLib_lookat_cFv.s</text>
</a>
</g>
</g>
<!-- Node1&#45;&gt;Node8 -->
<g id="edge8" class="edge">
<title>Node1&#45;&gt;Node8</title>
<path fill="none" stroke="midnightblue" d="M580.77,-134.44C617.46,-125.51 676.57,-111 727.5,-98 731.78,-96.91 736.19,-95.77 740.64,-94.62"/>
<polygon fill="midnightblue" stroke="midnightblue" points="741.58,-97.99 750.37,-92.09 739.82,-91.22 741.58,-97.99"/>
</g>
<!-- Node9 -->
<g id="node9" class="node">
<title>Node9</title>
<g id="a_node9"><a xlink:title=" ">
<polygon fill="white" stroke="#bfbfbf" points="889,-62 889,-92 1024,-92 1024,-62 889,-62"/>
<text text-anchor="start" x="897" y="-80" font-family="Helvetica,sans-Serif" font-size="10.00">asm/d/d_npc_lib/update</text>
<text text-anchor="middle" x="956.5" y="-69" font-family="Helvetica,sans-Serif" font-size="10.00">__16dNpcLib_lookat_cFv.s</text>
</a>
</g>
</g>
<!-- Node1&#45;&gt;Node9 -->
<g id="edge9" class="edge">
<title>Node1&#45;&gt;Node9</title>
<path fill="none" stroke="midnightblue" d="M596.05,-138.18C661.91,-131.45 780.48,-117.8 880.5,-98 885.85,-96.94 891.39,-95.72 896.92,-94.42"/>
<polygon fill="midnightblue" stroke="midnightblue" points="897.94,-97.78 906.83,-92.01 896.29,-90.98 897.94,-97.78"/>
</g>
<!-- Node10 -->
<g id="node10" class="node">
<title>Node10</title>
<g id="a_node10"><a xlink:title=" ">
<polygon fill="white" stroke="#bfbfbf" points="1042.5,-62 1042.5,-92 1200.5,-92 1200.5,-62 1042.5,-62"/>
<text text-anchor="start" x="1050.5" y="-80" font-family="Helvetica,sans-Serif" font-size="10.00">asm/d/d_npc_lib/limitter</text>
<text text-anchor="middle" x="1121.5" y="-69" font-family="Helvetica,sans-Serif" font-size="10.00">__16dNpcLib_lookat_cFPssss.s</text>
</a>
</g>
</g>
<!-- Node1&#45;&gt;Node10 -->
<g id="edge10" class="edge">
<title>Node1&#45;&gt;Node10</title>
<path fill="none" stroke="midnightblue" d="M596,-140.54C684.89,-135.71 874.9,-123.22 1033.5,-98 1040.52,-96.88 1047.82,-95.53 1055.07,-94.07"/>
<polygon fill="midnightblue" stroke="midnightblue" points="1055.84,-97.49 1064.91,-92.01 1054.4,-90.63 1055.84,-97.49"/>
</g>
<!-- Node11 -->
<g id="node11" class="node">
<title>Node11</title>
<g id="a_node11"><a xlink:title=" ">
<polygon fill="white" stroke="#bfbfbf" points="1219,-62 1219,-92 1354,-92 1354,-62 1219,-62"/>
<text text-anchor="start" x="1227" y="-80" font-family="Helvetica,sans-Serif" font-size="10.00">asm/d/d_npc_lib/__dt</text>
<text text-anchor="middle" x="1286.5" y="-69" font-family="Helvetica,sans-Serif" font-size="10.00">__16dNpcLib_lookat_cFv.s</text>
</a>
</g>
</g>
<!-- Node1&#45;&gt;Node11 -->
<g id="edge11" class="edge">
<title>Node1&#45;&gt;Node11</title>
<path fill="none" stroke="midnightblue" d="M596.26,-142.77C707.89,-141.58 982.83,-134.79 1209.5,-98 1215.58,-97.01 1221.89,-95.76 1228.15,-94.37"/>
<polygon fill="midnightblue" stroke="midnightblue" points="1228.97,-97.77 1237.91,-92.08 1227.38,-90.95 1228.97,-97.77"/>
</g>
<!-- Node4&#45;&gt;Node3 -->
<g id="edge4" class="edge">
<title>Node4&#45;&gt;Node3</title>
<path fill="none" stroke="midnightblue" d="M150.05,-67.23C145.05,-57.39 136.81,-41.16 130.47,-28.66"/>
<polygon fill="midnightblue" stroke="midnightblue" points="133.53,-26.96 125.88,-19.63 127.29,-30.13 133.53,-26.96"/>
</g>
</g>
</svg>
        <g id="navigator" transform="translate(0 0)" fill="#404254">
                <rect fill="#f2f5e9" fill-opacity="0.5" stroke="#606060" stroke-width=".5" x="0" y="0" width="60" height="60"/>
                <use id="zoomplus" xlink:href="#zoomPlus" x="17" y="9" onmousedown="handleZoom(evt,'in')"/>
                <use id="zoomminus" xlink:href="#zoomMin" x="42" y="9" onmousedown="handleZoom(evt,'out')"/>
                <use id="reset" xlink:href="#resetDef" x="30" y="36" onmousedown="handleReset()"/>
                <g id="arrowUp" xlink:href="#dirArrow" transform="translate(30 24)" onmousedown="handlePan(0,-1)">
                  <use xlink:href="#rim" fill="#404040">
                        <set attributeName="fill" to="#808080" begin="arrowUp.mouseover" end="arrowUp.mouseout"/>
                  </use>
                  <path fill="none" stroke="white" stroke-width="1.5" d="M0,-3.0v7 M-2.5,-0.5L0,-3.0L2.5,-0.5"/>
                </g>
                <g id="arrowRight" xlink:href="#dirArrow" transform="rotate(90) translate(36 -43)" onmousedown="handlePan(1,0)">
                  <use xlink:href="#rim" fill="#404040">
                        <set attributeName="fill" to="#808080" begin="arrowRight.mouseover" end="arrowRight.mouseout"/>
                  </use>
                  <path fill="none" stroke="white" stroke-width="1.5" d="M0,-3.0v7 M-2.5,-0.5L0,-3.0L2.5,-0.5"/>
                </g>
                <g id="arrowDown" xlink:href="#dirArrow" transform="rotate(180) translate(-30 -48)" onmousedown="handlePan(0,1)">
                  <use xlink:href="#rim" fill="#404040">
                        <set attributeName="fill" to="#808080" begin="arrowDown.mouseover" end="arrowDown.mouseout"/>
                  </use>
                  <path fill="none" stroke="white" stroke-width="1.5" d="M0,-3.0v7 M-2.5,-0.5L0,-3.0L2.5,-0.5"/>
                </g>
                <g id="arrowLeft" xlink:href="#dirArrow" transform="rotate(270) translate(-36 17)" onmousedown="handlePan(-1,0)">
                  <use xlink:href="#rim" fill="#404040">
                        <set attributeName="fill" to="#808080" begin="arrowLeft.mouseover" end="arrowLeft.mouseout"/>
                  </use>
                  <path fill="none" stroke="white" stroke-width="1.5" d="M0,-3.0v7 M-2.5,-0.5L0,-3.0L2.5,-0.5"/>
                </g>
        </g>
        <svg viewBox="0 0 15 15" width="100%" height="30px" preserveAspectRatio="xMaxYMin meet">
         <g id="arrow_out" transform="scale(0.3 0.3)">
          <a xlink:href="d__npc__lib_8cpp__incl_org.svg" target="_base">
           <rect id="button" ry="5" rx="5" y="6" x="6" height="38" width="38"
                fill="#f2f5e9" fill-opacity="0.5" stroke="#606060" stroke-width="1.0"/>
           <path id="arrow"
             d="M 11.500037,31.436501 C 11.940474,20.09759 22.043105,11.32322 32.158766,21.979434 L 37.068811,17.246167 C 37.068811,17.246167 37.088388,32 37.088388,32 L 22.160133,31.978069 C 22.160133,31.978069 26.997745,27.140456 26.997745,27.140456 C 18.528582,18.264221 13.291696,25.230495 11.500037,31.436501 z"
             style="fill:#404040;"/>
          </a>
         </g>
        </svg>
</svg>
