<?xml version="1.0" encoding="UTF-8" standalone="no"?>
<!DOCTYPE svg PUBLIC "-//W3C//DTD SVG 1.1//EN"
 "http://www.w3.org/Graphics/SVG/1.1/DTD/svg11.dtd">
<!-- Generated by graphviz version 2.47.0 (20210316.2052)
 -->
<!-- Title: src/d/d_npc_lib.cpp Pages: 1 -->
<!--zoomable 162 -->
<svg id="main" version="1.1" xmlns="http://www.w3.org/2000/svg" xmlns:xlink="http://www.w3.org/1999/xlink" xml:space="preserve" onload="init(evt)">
<style type="text/css"><![CDATA[
.edge:hover path { stroke: red; }
.edge:hover polygon { stroke: red; fill: red; }
]]></style>
<script type="text/javascript"><![CDATA[
var edges = document.getElementsByTagName('g');
if (edges && edges.length) {
  for (var i=0;i<edges.length;i++) {
    if (edges[i].id.substr(0,4)=='edge') {
      edges[i].setAttribute('class','edge');
    }
  }
}
]]></script>
        <defs>
                <circle id="rim" cx="0" cy="0" r="7"/>
                <circle id="rim2" cx="0" cy="0" r="3.5"/>
                <g id="zoomPlus">
                        <use xlink:href="#rim" fill="#404040">
                                <set attributeName="fill" to="#808080" begin="zoomplus.mouseover" end="zoomplus.mouseout"/>
                        </use>
                        <path d="M-4,0h8M0,-4v8" fill="none" stroke="white" stroke-width="1.5" pointer-events="none"/>
                </g>
                <g id="zoomMin">
                        <use xlink:href="#rim" fill="#404040">
                                <set attributeName="fill" to="#808080" begin="zoomminus.mouseover" end="zoomminus.mouseout"/>
                        </use>
                        <path d="M-4,0h8" fill="none" stroke="white" stroke-width="1.5" pointer-events="none"/>
                </g>
                <g id="dirArrow">
                        <path fill="none" stroke="white" stroke-width="1.5" d="M0,-3.0v7 M-2.5,-0.5L0,-3.0L2.5,-0.5"/>
                </g>
               <g id="resetDef">
                       <use xlink:href="#rim2" fill="#404040">
                               <set attributeName="fill" to="#808080" begin="reset.mouseover" end="reset.mouseout"/>
                       </use>
               </g>
        </defs>

<script type="text/javascript">
var viewWidth = 1515;
var viewHeight = 162;
var sectionId = 'dynsection-0';
</script>
<script xlink:href="svgpan.js"/>
<svg id="graph" class="graph">
<g id="viewport">
<title>src/d/d_npc_lib.cpp</title>
<polygon fill="white" stroke="transparent" points="-4,4 -4,-158 1511,-158 1511,4 -4,4"/>
<!-- Node1 -->
<g id="node1" class="node">
<title>Node1</title>
<g id="a_node1"><a xlink:title=" ">
<polygon fill="#bfbfbf" stroke="black" points="588,-134.5 588,-153.5 689,-153.5 689,-134.5 588,-134.5"/>
<text text-anchor="middle" x="638.5" y="-141.5" font-family="Helvetica,sans-Serif" font-size="10.00">src/d/d_npc_lib.cpp</text>
</a>
</g>
</g>
<!-- Node2 -->
<g id="node2" class="node">
<title>Node2</title>
<g id="a_node2"><a xlink:href="dol2asm_8h.html" target="_top" xlink:title=" ">
<polygon fill="white" stroke="black" points="0,-67.5 0,-86.5 61,-86.5 61,-67.5 0,-67.5"/>
<text text-anchor="middle" x="30.5" y="-74.5" font-family="Helvetica,sans-Serif" font-size="10.00">dol2asm.h</text>
</a>
</g>
</g>
<!-- Node1&#45;&gt;Node2 -->
<g id="edge1" class="edge">
<title>Node1&#45;&gt;Node2</title>
<path fill="none" stroke="midnightblue" d="M587.62,-141.13C467.99,-136.38 171.72,-122.47 75.5,-98 68.87,-96.31 61.98,-93.73 55.65,-90.96"/>
<polygon fill="midnightblue" stroke="midnightblue" points="56.81,-87.65 46.27,-86.59 53.85,-93.99 56.81,-87.65"/>
</g>
<!-- Node3 -->
<g id="node3" class="node">
<title>Node3</title>
<g id="a_node3"><a xlink:href="types_8h.html" target="_top" xlink:title=" ">
<polygon fill="white" stroke="black" points="81,-0.5 81,-19.5 162,-19.5 162,-0.5 81,-0.5"/>
<text text-anchor="middle" x="121.5" y="-7.5" font-family="Helvetica,sans-Serif" font-size="10.00">dolphin/types.h</text>
</a>
</g>
</g>
<!-- Node1&#45;&gt;Node3 -->
<g id="edge2" class="edge">
<title>Node1&#45;&gt;Node3</title>
<path fill="none" stroke="midnightblue" d="M587.59,-142.5C461.12,-140.74 140.52,-132.85 108.5,-98 91.34,-79.32 101.91,-48.27 111.46,-28.76"/>
<polygon fill="midnightblue" stroke="midnightblue" points="114.65,-30.21 116.21,-19.73 108.45,-26.95 114.65,-30.21"/>
</g>
<!-- Node4 -->
<g id="node4" class="node">
<title>Node4</title>
<g id="a_node4"><a xlink:href="d__npc__lib_8h.html" target="_top" xlink:title=" ">
<polygon fill="white" stroke="black" points="117.5,-67.5 117.5,-86.5 191.5,-86.5 191.5,-67.5 117.5,-67.5"/>
<text text-anchor="middle" x="154.5" y="-74.5" font-family="Helvetica,sans-Serif" font-size="10.00">d/d_npc_lib.h</text>
</a>
</g>
</g>
<!-- Node1&#45;&gt;Node4 -->
<g id="edge3" class="edge">
<title>Node1&#45;&gt;Node4</title>
<path fill="none" stroke="midnightblue" d="M587.83,-142.67C505.5,-141.05 338.13,-133.25 201.5,-98 194.58,-96.21 187.35,-93.57 180.7,-90.78"/>
<polygon fill="midnightblue" stroke="midnightblue" points="182.04,-87.55 171.48,-86.69 179.19,-93.94 182.04,-87.55"/>
</g>
<!-- Node5 -->
<g id="node5" class="node">
<title>Node5</title>
<g id="a_node5"><a xlink:title=" ">
<polygon fill="white" stroke="#bfbfbf" points="210,-62 210,-92 345,-92 345,-62 210,-62"/>
<text text-anchor="start" x="218" y="-80" font-family="Helvetica,sans-Serif" font-size="10.00">asm/d/d_npc_lib/__ct</text>
<text text-anchor="middle" x="277.5" y="-69" font-family="Helvetica,sans-Serif" font-size="10.00">__16dNpcLib_lookat_cFv.s</text>
</a>
</g>
</g>
<!-- Node1&#45;&gt;Node5 -->
<g id="edge5" class="edge">
<title>Node1&#45;&gt;Node5</title>
<path fill="none" stroke="midnightblue" d="M587.96,-136.5C530.95,-128.82 435.62,-114.92 354.5,-98 349.26,-96.91 343.84,-95.69 338.42,-94.4"/>
<polygon fill="midnightblue" stroke="midnightblue" points="339.24,-91 328.7,-92.04 337.59,-97.8 339.24,-91"/>
</g>
<!-- Node6 -->
<g id="node6" class="node">
<title>Node6</title>
<g id="a_node6"><a xlink:title=" ">
<polygon fill="white" stroke="#bfbfbf" points="363.5,-56.5 363.5,-97.5 541.5,-97.5 541.5,-56.5 363.5,-56.5"/>
<text text-anchor="start" x="371.5" y="-85.5" font-family="Helvetica,sans-Serif" font-size="10.00">asm/d/d_npc_lib/init</text>
<text text-anchor="start" x="371.5" y="-74.5" font-family="Helvetica,sans-Serif" font-size="10.00">__16dNpcLib_lookat_cFP8J3DModel</text>
<text text-anchor="middle" x="452.5" y="-63.5" font-family="Helvetica,sans-Serif" font-size="10.00">PiP5csXyzP5csXyz.s</text>
</a>
</g>
</g>
<!-- Node1&#45;&gt;Node6 -->
<g id="edge6" class="edge">
<title>Node1&#45;&gt;Node6</title>
<path fill="none" stroke="midnightblue" d="M613.8,-134.37C589.52,-125.88 551.39,-112.56 518.29,-100.99"/>
<polygon fill="midnightblue" stroke="midnightblue" points="519.25,-97.62 508.66,-97.63 516.94,-104.23 519.25,-97.62"/>
</g>
<!-- Node7 -->
<g id="node7" class="node">
<title>Node7</title>
<g id="a_node7"><a xlink:title=" ">
<polygon fill="white" stroke="#bfbfbf" points="559,-56.5 559,-97.5 718,-97.5 718,-56.5 559,-56.5"/>
<text text-anchor="start" x="567" y="-85.5" font-family="Helvetica,sans-Serif" font-size="10.00">asm/d/d_npc_lib/action</text>
<text text-anchor="start" x="567" y="-74.5" font-family="Helvetica,sans-Serif" font-size="10.00">__16dNpcLib_lookat_cF4cXyz4c</text>
<text text-anchor="middle" x="638.5" y="-63.5" font-family="Helvetica,sans-Serif" font-size="10.00">XyzP10fopAc_ac_cPA4_fi.s</text>
</a>
</g>
</g>
<!-- Node1&#45;&gt;Node7 -->
<g id="edge7" class="edge">
<title>Node1&#45;&gt;Node7</title>
<path fill="none" stroke="midnightblue" d="M638.5,-134.23C638.5,-127.36 638.5,-117.38 638.5,-107.73"/>
<polygon fill="midnightblue" stroke="midnightblue" points="642,-107.54 638.5,-97.54 635,-107.54 642,-107.54"/>
</g>
<!-- Node8 -->
<g id="node8" class="node">
<title>Node8</title>
<g id="a_node8"><a xlink:title=" ">
<polygon fill="white" stroke="#bfbfbf" points="736,-62 736,-92 871,-92 871,-62 736,-62"/>
<text text-anchor="start" x="744" y="-80" font-family="Helvetica,sans-Serif" font-size="10.00">asm/d/d_npc_lib/dbView</text>
<text text-anchor="middle" x="803.5" y="-69" font-family="Helvetica,sans-Serif" font-size="10.00">__16dNpcLib_lookat_cFv.s</text>
</a>
</g>
</g>
<!-- Node1&#45;&gt;Node8 -->
<g id="edge8" class="edge">
<title>Node1&#45;&gt;Node8</title>
<path fill="none" stroke="midnightblue" d="M660.41,-134.37C685.28,-124.57 726.51,-108.33 758.34,-95.79"/>
<polygon fill="midnightblue" stroke="midnightblue" points="759.87,-98.95 767.89,-92.03 757.3,-92.44 759.87,-98.95"/>
</g>
<!-- Node9 -->
<g id="node9" class="node">
<title>Node9</title>
<g id="a_node9"><a xlink:title=" ">
<polygon fill="white" stroke="#bfbfbf" points="889,-62 889,-92 1024,-92 1024,-62 889,-62"/>
<text text-anchor="start" x="897" y="-80" font-family="Helvetica,sans-Serif" font-size="10.00">asm/d/d_npc_lib/setPrm</text>
<text text-anchor="middle" x="956.5" y="-69" font-family="Helvetica,sans-Serif" font-size="10.00">__16dNpcLib_lookat_cFv.s</text>
</a>
</g>
</g>
<!-- Node1&#45;&gt;Node9 -->
<g id="edge9" class="edge">
<title>Node1&#45;&gt;Node9</title>
<path fill="none" stroke="midnightblue" d="M689.24,-134.68C738.36,-126.37 814.82,-112.73 880.5,-98 885.24,-96.94 890.14,-95.78 895.05,-94.58"/>
<polygon fill="midnightblue" stroke="midnightblue" points="896.26,-97.89 905.11,-92.07 894.56,-91.1 896.26,-97.89"/>
</g>
<!-- Node10 -->
<g id="node10" class="node">
<title>Node10</title>
<g id="a_node10"><a xlink:title=" ">
<polygon fill="white" stroke="#bfbfbf" points="1042,-62 1042,-92 1177,-92 1177,-62 1042,-62"/>
<text text-anchor="start" x="1050" y="-80" font-family="Helvetica,sans-Serif" font-size="10.00">asm/d/d_npc_lib/update</text>
<text text-anchor="middle" x="1109.5" y="-69" font-family="Helvetica,sans-Serif" font-size="10.00">__16dNpcLib_lookat_cFv.s</text>
</a>
</g>
</g>
<!-- Node1&#45;&gt;Node10 -->
<g id="edge10" class="edge">
<title>Node1&#45;&gt;Node10</title>
<path fill="none" stroke="midnightblue" d="M689.04,-139.58C764.5,-133.95 910.88,-120.99 1033.5,-98 1038.95,-96.98 1044.58,-95.78 1050.2,-94.48"/>
<polygon fill="midnightblue" stroke="midnightblue" points="1051.36,-97.8 1060.27,-92.06 1049.73,-90.99 1051.36,-97.8"/>
</g>
<!-- Node11 -->
<g id="node11" class="node">
<title>Node11</title>
<g id="a_node11"><a xlink:title=" ">
<polygon fill="white" stroke="#bfbfbf" points="1195.5,-62 1195.5,-92 1353.5,-92 1353.5,-62 1195.5,-62"/>
<text text-anchor="start" x="1203.5" y="-80" font-family="Helvetica,sans-Serif" font-size="10.00">asm/d/d_npc_lib/limitter</text>
<text text-anchor="middle" x="1274.5" y="-69" font-family="Helvetica,sans-Serif" font-size="10.00">__16dNpcLib_lookat_cFPssss.s</text>
</a>
</g>
</g>
<!-- Node1&#45;&gt;Node11 -->
<g id="edge11" class="edge">
<title>Node1&#45;&gt;Node11</title>
<path fill="none" stroke="midnightblue" d="M689.02,-141.24C785.97,-137.34 1004.64,-125.99 1186.5,-98 1193.53,-96.92 1200.83,-95.59 1208.08,-94.14"/>
<polygon fill="midnightblue" stroke="midnightblue" points="1208.84,-97.56 1217.92,-92.1 1207.42,-90.71 1208.84,-97.56"/>
</g>
<!-- Node12 -->
<g id="node12" class="node">
<title>Node12</title>
<g id="a_node12"><a xlink:title=" ">
<polygon fill="white" stroke="#bfbfbf" points="1372,-62 1372,-92 1507,-92 1507,-62 1372,-62"/>
<text text-anchor="start" x="1380" y="-80" font-family="Helvetica,sans-Serif" font-size="10.00">asm/d/d_npc_lib/__dt</text>
<text text-anchor="middle" x="1439.5" y="-69" font-family="Helvetica,sans-Serif" font-size="10.00">__16dNpcLib_lookat_cFv.s</text>
</a>
</g>
</g>
<!-- Node1&#45;&gt;Node12 -->
<g id="edge12" class="edge">
<title>Node1&#45;&gt;Node12</title>
<path fill="none" stroke="midnightblue" d="M689.34,-143.18C808.01,-142.88 1112.21,-137.9 1362.5,-98 1368.68,-97.02 1375.08,-95.75 1381.43,-94.34"/>
<polygon fill="midnightblue" stroke="midnightblue" points="1382.39,-97.71 1391.33,-92.02 1380.8,-90.9 1382.39,-97.71"/>
</g>
<!-- Node4&#45;&gt;Node3 -->
<g id="edge4" class="edge">
<title>Node4&#45;&gt;Node3</title>
<path fill="none" stroke="midnightblue" d="M150.05,-67.23C145.05,-57.39 136.81,-41.16 130.47,-28.66"/>
<polygon fill="midnightblue" stroke="midnightblue" points="133.53,-26.96 125.88,-19.63 127.29,-30.13 133.53,-26.96"/>
</g>
</g>
</svg>
        <g id="navigator" transform="translate(0 0)" fill="#404254">
                <rect fill="#f2f5e9" fill-opacity="0.5" stroke="#606060" stroke-width=".5" x="0" y="0" width="60" height="60"/>
                <use id="zoomplus" xlink:href="#zoomPlus" x="17" y="9" onmousedown="handleZoom(evt,'in')"/>
                <use id="zoomminus" xlink:href="#zoomMin" x="42" y="9" onmousedown="handleZoom(evt,'out')"/>
                <use id="reset" xlink:href="#resetDef" x="30" y="36" onmousedown="handleReset()"/>
                <g id="arrowUp" xlink:href="#dirArrow" transform="translate(30 24)" onmousedown="handlePan(0,-1)">
                  <use xlink:href="#rim" fill="#404040">
                        <set attributeName="fill" to="#808080" begin="arrowUp.mouseover" end="arrowUp.mouseout"/>
                  </use>
                  <path fill="none" stroke="white" stroke-width="1.5" d="M0,-3.0v7 M-2.5,-0.5L0,-3.0L2.5,-0.5"/>
                </g>
                <g id="arrowRight" xlink:href="#dirArrow" transform="rotate(90) translate(36 -43)" onmousedown="handlePan(1,0)">
                  <use xlink:href="#rim" fill="#404040">
                        <set attributeName="fill" to="#808080" begin="arrowRight.mouseover" end="arrowRight.mouseout"/>
                  </use>
                  <path fill="none" stroke="white" stroke-width="1.5" d="M0,-3.0v7 M-2.5,-0.5L0,-3.0L2.5,-0.5"/>
                </g>
                <g id="arrowDown" xlink:href="#dirArrow" transform="rotate(180) translate(-30 -48)" onmousedown="handlePan(0,1)">
                  <use xlink:href="#rim" fill="#404040">
                        <set attributeName="fill" to="#808080" begin="arrowDown.mouseover" end="arrowDown.mouseout"/>
                  </use>
                  <path fill="none" stroke="white" stroke-width="1.5" d="M0,-3.0v7 M-2.5,-0.5L0,-3.0L2.5,-0.5"/>
                </g>
                <g id="arrowLeft" xlink:href="#dirArrow" transform="rotate(270) translate(-36 17)" onmousedown="handlePan(-1,0)">
                  <use xlink:href="#rim" fill="#404040">
                        <set attributeName="fill" to="#808080" begin="arrowLeft.mouseover" end="arrowLeft.mouseout"/>
                  </use>
                  <path fill="none" stroke="white" stroke-width="1.5" d="M0,-3.0v7 M-2.5,-0.5L0,-3.0L2.5,-0.5"/>
                </g>
        </g>
        <svg viewBox="0 0 15 15" width="100%" height="30px" preserveAspectRatio="xMaxYMin meet">
         <g id="arrow_out" transform="scale(0.3 0.3)">
          <a xlink:href="d__npc__lib_8cpp__incl_org.svg" target="_base">
           <rect id="button" ry="5" rx="5" y="6" x="6" height="38" width="38"
                fill="#f2f5e9" fill-opacity="0.5" stroke="#606060" stroke-width="1.0"/>
           <path id="arrow"
             d="M 11.500037,31.436501 C 11.940474,20.09759 22.043105,11.32322 32.158766,21.979434 L 37.068811,17.246167 C 37.068811,17.246167 37.088388,32 37.088388,32 L 22.160133,31.978069 C 22.160133,31.978069 26.997745,27.140456 26.997745,27.140456 C 18.528582,18.264221 13.291696,25.230495 11.500037,31.436501 z"
             style="fill:#404040;"/>
          </a>
         </g>
        </svg>
</svg>
