<?xml version="1.0" encoding="UTF-8" standalone="no"?>
<!DOCTYPE svg PUBLIC "-//W3C//DTD SVG 1.1//EN"
 "http://www.w3.org/Graphics/SVG/1.1/DTD/svg11.dtd">
<!-- Generated by graphviz version 2.47.0 (20210316.2052)
 -->
<!-- Title: src/d/ovlp/d_ovlp_fade3.cpp Pages: 1 -->
<!--zoomable 162 -->
<svg id="main" version="1.1" xmlns="http://www.w3.org/2000/svg" xmlns:xlink="http://www.w3.org/1999/xlink" xml:space="preserve" onload="init(evt)">
<style type="text/css"><![CDATA[
.edge:hover path { stroke: red; }
.edge:hover polygon { stroke: red; fill: red; }
]]></style>
<script type="text/javascript"><![CDATA[
var edges = document.getElementsByTagName('g');
if (edges && edges.length) {
  for (var i=0;i<edges.length;i++) {
    if (edges[i].id.substr(0,4)=='edge') {
      edges[i].setAttribute('class','edge');
    }
  }
}
]]></script>
        <defs>
                <circle id="rim" cx="0" cy="0" r="7"/>
                <circle id="rim2" cx="0" cy="0" r="3.5"/>
                <g id="zoomPlus">
                        <use xlink:href="#rim" fill="#404040">
                                <set attributeName="fill" to="#808080" begin="zoomplus.mouseover" end="zoomplus.mouseout"/>
                        </use>
                        <path d="M-4,0h8M0,-4v8" fill="none" stroke="white" stroke-width="1.5" pointer-events="none"/>
                </g>
                <g id="zoomMin">
                        <use xlink:href="#rim" fill="#404040">
                                <set attributeName="fill" to="#808080" begin="zoomminus.mouseover" end="zoomminus.mouseout"/>
                        </use>
                        <path d="M-4,0h8" fill="none" stroke="white" stroke-width="1.5" pointer-events="none"/>
                </g>
                <g id="dirArrow">
                        <path fill="none" stroke="white" stroke-width="1.5" d="M0,-3.0v7 M-2.5,-0.5L0,-3.0L2.5,-0.5"/>
                </g>
               <g id="resetDef">
                       <use xlink:href="#rim2" fill="#404040">
                               <set attributeName="fill" to="#808080" begin="reset.mouseover" end="reset.mouseout"/>
                       </use>
               </g>
        </defs>

<script type="text/javascript">
var viewWidth = 2579;
var viewHeight = 162;
var sectionId = 'dynsection-0';
</script>
<script xlink:href="svgpan.js"/>
<svg id="graph" class="graph">
<g id="viewport">
<title>src/d/ovlp/d_ovlp_fade3.cpp</title>
<polygon fill="white" stroke="transparent" points="-4,4 -4,-158 2574.5,-158 2574.5,4 -4,4"/>
<!-- Node1 -->
<g id="node1" class="node">
<title>Node1</title>
<g id="a_node1"><a xlink:title=" ">
<polygon fill="#bfbfbf" stroke="black" points="1050.5,-134.5 1050.5,-153.5 1188.5,-153.5 1188.5,-134.5 1050.5,-134.5"/>
<text text-anchor="middle" x="1119.5" y="-141.5" font-family="Helvetica,sans-Serif" font-size="10.00">src/d/ovlp/d_ovlp_fade3.cpp</text>
</a>
</g>
</g>
<!-- Node2 -->
<g id="node2" class="node">
<title>Node2</title>
<g id="a_node2"><a xlink:href="dol2asm_8h.html" target="_top" xlink:title=" ">
<polygon fill="white" stroke="black" points="0,-67.5 0,-86.5 61,-86.5 61,-67.5 0,-67.5"/>
<text text-anchor="middle" x="30.5" y="-74.5" font-family="Helvetica,sans-Serif" font-size="10.00">dol2asm.h</text>
</a>
</g>
</g>
<!-- Node1&#45;&gt;Node2 -->
<g id="edge1" class="edge">
<title>Node1&#45;&gt;Node2</title>
<path fill="none" stroke="midnightblue" d="M1050.26,-143.38C848.14,-143.94 261.5,-141.68 75.5,-98 68.73,-96.41 61.71,-93.81 55.3,-91"/>
<polygon fill="midnightblue" stroke="midnightblue" points="56.36,-87.63 45.82,-86.54 53.38,-93.97 56.36,-87.63"/>
</g>
<!-- Node3 -->
<g id="node3" class="node">
<title>Node3</title>
<g id="a_node3"><a xlink:href="types_8h.html" target="_top" xlink:title=" ">
<polygon fill="white" stroke="black" points="91,-0.5 91,-19.5 172,-19.5 172,-0.5 91,-0.5"/>
<text text-anchor="middle" x="131.5" y="-7.5" font-family="Helvetica,sans-Serif" font-size="10.00">dolphin/types.h</text>
</a>
</g>
</g>
<!-- Node1&#45;&gt;Node3 -->
<g id="edge2" class="edge">
<title>Node1&#45;&gt;Node3</title>
<path fill="none" stroke="midnightblue" d="M1050.27,-142.51C827.53,-140.6 141.99,-131.97 109.5,-98 91.45,-79.13 106.46,-47.69 118.98,-28.21"/>
<polygon fill="midnightblue" stroke="midnightblue" points="122.03,-29.96 124.77,-19.73 116.24,-26.01 122.03,-29.96"/>
</g>
<!-- Node4 -->
<g id="node4" class="node">
<title>Node4</title>
<g id="a_node4"><a xlink:href="d__ovlp__fade3_8h.html" target="_top" xlink:title=" ">
<polygon fill="white" stroke="black" points="118,-67.5 118,-86.5 229,-86.5 229,-67.5 118,-67.5"/>
<text text-anchor="middle" x="173.5" y="-74.5" font-family="Helvetica,sans-Serif" font-size="10.00">d/ovlp/d_ovlp_fade3.h</text>
</a>
</g>
</g>
<!-- Node1&#45;&gt;Node4 -->
<g id="edge3" class="edge">
<title>Node1&#45;&gt;Node4</title>
<path fill="none" stroke="midnightblue" d="M1050.24,-141.67C870.8,-137.88 394.03,-125.46 238.5,-98 227.77,-96.11 216.34,-92.98 206.1,-89.76"/>
<polygon fill="midnightblue" stroke="midnightblue" points="206.92,-86.34 196.32,-86.54 204.73,-92.99 206.92,-86.34"/>
</g>
<!-- Node5 -->
<g id="node5" class="node">
<title>Node5</title>
<g id="a_node5"><a xlink:title=" ">
<polygon fill="white" stroke="#bfbfbf" points="247.5,-62 247.5,-92 407.5,-92 407.5,-62 247.5,-62"/>
<text text-anchor="start" x="255.5" y="-80" font-family="Helvetica,sans-Serif" font-size="10.00">asm/d/ovlp/d_ovlp_fade3</text>
<text text-anchor="middle" x="327.5" y="-69" font-family="Helvetica,sans-Serif" font-size="10.00">/draw__16dDlst_snapShot_cFv.s</text>
</a>
</g>
</g>
<!-- Node1&#45;&gt;Node5 -->
<g id="edge5" class="edge">
<title>Node1&#45;&gt;Node5</title>
<path fill="none" stroke="midnightblue" d="M1050.28,-142.17C923.79,-139.85 647.12,-131.08 416.5,-98 409.09,-96.94 401.38,-95.58 393.73,-94.08"/>
<polygon fill="midnightblue" stroke="midnightblue" points="394.25,-90.62 383.75,-92.04 392.85,-97.48 394.25,-90.62"/>
</g>
<!-- Node6 -->
<g id="node6" class="node">
<title>Node6</title>
<g id="a_node6"><a xlink:title=" ">
<polygon fill="white" stroke="#bfbfbf" points="425.5,-62 425.5,-92 579.5,-92 579.5,-62 425.5,-62"/>
<text text-anchor="start" x="433.5" y="-80" font-family="Helvetica,sans-Serif" font-size="10.00">asm/d/ovlp/d_ovlp_fade3</text>
<text text-anchor="middle" x="502.5" y="-69" font-family="Helvetica,sans-Serif" font-size="10.00">/draw__15dOvlpFd3_dlst_cFv.s</text>
</a>
</g>
</g>
<!-- Node1&#45;&gt;Node6 -->
<g id="edge6" class="edge">
<title>Node1&#45;&gt;Node6</title>
<path fill="none" stroke="midnightblue" d="M1050.1,-140.24C948.49,-135.48 753.49,-123.68 589.5,-98 582.71,-96.94 575.66,-95.64 568.65,-94.23"/>
<polygon fill="midnightblue" stroke="midnightblue" points="568.94,-90.71 558.43,-92.08 567.5,-97.56 568.94,-90.71"/>
</g>
<!-- Node7 -->
<g id="node7" class="node">
<title>Node7</title>
<g id="a_node7"><a xlink:title=" ">
<polygon fill="white" stroke="#bfbfbf" points="598,-62 598,-92 729,-92 729,-62 598,-62"/>
<text text-anchor="start" x="606" y="-80" font-family="Helvetica,sans-Serif" font-size="10.00">asm/d/ovlp/d_ovlp_fade3</text>
<text text-anchor="middle" x="663.5" y="-69" font-family="Helvetica,sans-Serif" font-size="10.00">/__ct__10dOvlpFd3_cFv.s</text>
</a>
</g>
</g>
<!-- Node1&#45;&gt;Node7 -->
<g id="edge7" class="edge">
<title>Node1&#45;&gt;Node7</title>
<path fill="none" stroke="midnightblue" d="M1050.22,-137.81C973.51,-131.38 846.44,-118.66 738.5,-98 733.12,-96.97 727.56,-95.76 722.02,-94.46"/>
<polygon fill="midnightblue" stroke="midnightblue" points="722.63,-91.01 712.08,-92.04 720.97,-97.81 722.63,-91.01"/>
</g>
<!-- Node8 -->
<g id="node8" class="node">
<title>Node8</title>
<g id="a_node8"><a xlink:title=" ">
<polygon fill="white" stroke="#bfbfbf" points="747.5,-62 747.5,-92 921.5,-92 921.5,-62 747.5,-62"/>
<text text-anchor="start" x="755.5" y="-80" font-family="Helvetica,sans-Serif" font-size="10.00">asm/d/ovlp/d_ovlp_fade3</text>
<text text-anchor="middle" x="834.5" y="-69" font-family="Helvetica,sans-Serif" font-size="10.00">/execFirstSnap__10dOvlpFd3_cFv.s</text>
</a>
</g>
</g>
<!-- Node1&#45;&gt;Node8 -->
<g id="edge8" class="edge">
<title>Node1&#45;&gt;Node8</title>
<path fill="none" stroke="midnightblue" d="M1081.95,-134.44C1037.32,-124.26 961.87,-107.05 905.99,-94.3"/>
<polygon fill="midnightblue" stroke="midnightblue" points="906.67,-90.87 896.14,-92.06 905.12,-97.7 906.67,-90.87"/>
</g>
<!-- Node9 -->
<g id="node9" class="node">
<title>Node9</title>
<g id="a_node9"><a xlink:title=" ">
<polygon fill="white" stroke="#bfbfbf" points="939.5,-62 939.5,-92 1109.5,-92 1109.5,-62 939.5,-62"/>
<text text-anchor="start" x="947.5" y="-80" font-family="Helvetica,sans-Serif" font-size="10.00">asm/d/ovlp/d_ovlp_fade3</text>
<text text-anchor="middle" x="1024.5" y="-69" font-family="Helvetica,sans-Serif" font-size="10.00">/execFadeOut__10dOvlpFd3_cFv.s</text>
</a>
</g>
</g>
<!-- Node1&#45;&gt;Node9 -->
<g id="edge9" class="edge">
<title>Node1&#45;&gt;Node9</title>
<path fill="none" stroke="midnightblue" d="M1106.69,-134.23C1093.11,-124.94 1071.21,-109.96 1053.43,-97.8"/>
<polygon fill="midnightblue" stroke="midnightblue" points="1055.32,-94.85 1045.09,-92.09 1051.37,-100.62 1055.32,-94.85"/>
</g>
<!-- Node10 -->
<g id="node10" class="node">
<title>Node10</title>
<g id="a_node10"><a xlink:title=" ">
<polygon fill="white" stroke="#bfbfbf" points="1128,-62 1128,-92 1303,-92 1303,-62 1128,-62"/>
<text text-anchor="start" x="1136" y="-80" font-family="Helvetica,sans-Serif" font-size="10.00">asm/d/ovlp/d_ovlp_fade3</text>
<text text-anchor="middle" x="1215.5" y="-69" font-family="Helvetica,sans-Serif" font-size="10.00">/execNextSnap__10dOvlpFd3_cFv.s</text>
</a>
</g>
</g>
<!-- Node1&#45;&gt;Node10 -->
<g id="edge10" class="edge">
<title>Node1&#45;&gt;Node10</title>
<path fill="none" stroke="midnightblue" d="M1132.45,-134.23C1146.17,-124.94 1168.3,-109.96 1186.26,-97.8"/>
<polygon fill="midnightblue" stroke="midnightblue" points="1188.37,-100.59 1194.69,-92.09 1184.45,-94.8 1188.37,-100.59"/>
</g>
<!-- Node11 -->
<g id="node11" class="node">
<title>Node11</title>
<g id="a_node11"><a xlink:title=" ">
<polygon fill="white" stroke="#bfbfbf" points="1321.5,-62 1321.5,-92 1483.5,-92 1483.5,-62 1321.5,-62"/>
<text text-anchor="start" x="1329.5" y="-80" font-family="Helvetica,sans-Serif" font-size="10.00">asm/d/ovlp/d_ovlp_fade3</text>
<text text-anchor="middle" x="1402.5" y="-69" font-family="Helvetica,sans-Serif" font-size="10.00">/execFadeIn__10dOvlpFd3_cFv.s</text>
</a>
</g>
</g>
<!-- Node1&#45;&gt;Node11 -->
<g id="edge11" class="edge">
<title>Node1&#45;&gt;Node11</title>
<path fill="none" stroke="midnightblue" d="M1156.79,-134.44C1201.11,-124.26 1276.03,-107.05 1331.51,-94.3"/>
<polygon fill="midnightblue" stroke="midnightblue" points="1332.33,-97.71 1341.29,-92.06 1330.76,-90.89 1332.33,-97.71"/>
</g>
<!-- Node12 -->
<g id="node12" class="node">
<title>Node12</title>
<g id="a_node12"><a xlink:title=" ">
<polygon fill="white" stroke="#bfbfbf" points="1502,-62 1502,-92 1685,-92 1685,-62 1502,-62"/>
<text text-anchor="start" x="1510" y="-80" font-family="Helvetica,sans-Serif" font-size="10.00">asm/d/ovlp/d_ovlp_fade3</text>
<text text-anchor="middle" x="1593.5" y="-69" font-family="Helvetica,sans-Serif" font-size="10.00">/dOvlpFd3_Draw__FP10dOvlpFd3_c.s</text>
</a>
</g>
</g>
<!-- Node1&#45;&gt;Node12 -->
<g id="edge12" class="edge">
<title>Node1&#45;&gt;Node12</title>
<path fill="none" stroke="midnightblue" d="M1188.81,-136.22C1263.87,-128.51 1387.02,-114.78 1492.5,-98 1500.2,-96.78 1508.2,-95.39 1516.18,-93.93"/>
<polygon fill="midnightblue" stroke="midnightblue" points="1517.07,-97.32 1526.26,-92.05 1515.79,-90.44 1517.07,-97.32"/>
</g>
<!-- Node13 -->
<g id="node13" class="node">
<title>Node13</title>
<g id="a_node13"><a xlink:title=" ">
<polygon fill="white" stroke="#bfbfbf" points="1703,-56.5 1703,-97.5 1864,-97.5 1864,-56.5 1703,-56.5"/>
<text text-anchor="start" x="1711" y="-85.5" font-family="Helvetica,sans-Serif" font-size="10.00">asm/d/ovlp/d_ovlp_fade3</text>
<text text-anchor="start" x="1711" y="-74.5" font-family="Helvetica,sans-Serif" font-size="10.00">/dOvlpFd3_Execute__FP10dOvlp</text>
<text text-anchor="middle" x="1783.5" y="-63.5" font-family="Helvetica,sans-Serif" font-size="10.00">Fd3_c.s</text>
</a>
</g>
</g>
<!-- Node1&#45;&gt;Node13 -->
<g id="edge13" class="edge">
<title>Node1&#45;&gt;Node13</title>
<path fill="none" stroke="midnightblue" d="M1188.9,-140.77C1295.43,-136.64 1505.75,-125.7 1692.58,-98.19"/>
<polygon fill="midnightblue" stroke="midnightblue" points="1693.21,-101.64 1702.59,-96.7 1692.18,-94.71 1693.21,-101.64"/>
</g>
<!-- Node14 -->
<g id="node14" class="node">
<title>Node14</title>
<g id="a_node14"><a xlink:title=" ">
<polygon fill="white" stroke="#bfbfbf" points="1882.5,-56.5 1882.5,-97.5 2044.5,-97.5 2044.5,-56.5 1882.5,-56.5"/>
<text text-anchor="start" x="1890.5" y="-85.5" font-family="Helvetica,sans-Serif" font-size="10.00">asm/d/ovlp/d_ovlp_fade3</text>
<text text-anchor="start" x="1890.5" y="-74.5" font-family="Helvetica,sans-Serif" font-size="10.00">/dOvlpFd3_IsDelete__FP10dOvlp</text>
<text text-anchor="middle" x="1963.5" y="-63.5" font-family="Helvetica,sans-Serif" font-size="10.00">Fd3_c.s</text>
</a>
</g>
</g>
<!-- Node1&#45;&gt;Node14 -->
<g id="edge14" class="edge">
<title>Node1&#45;&gt;Node14</title>
<path fill="none" stroke="midnightblue" d="M1188.74,-142.54C1320.21,-140.87 1615.11,-133.28 1871.9,-98.11"/>
<polygon fill="midnightblue" stroke="midnightblue" points="1872.75,-101.52 1882.17,-96.68 1871.78,-94.59 1872.75,-101.52"/>
</g>
<!-- Node15 -->
<g id="node15" class="node">
<title>Node15</title>
<g id="a_node15"><a xlink:title=" ">
<polygon fill="white" stroke="#bfbfbf" points="2062.5,-62 2062.5,-92 2250.5,-92 2250.5,-62 2062.5,-62"/>
<text text-anchor="start" x="2070.5" y="-80" font-family="Helvetica,sans-Serif" font-size="10.00">asm/d/ovlp/d_ovlp_fade3</text>
<text text-anchor="middle" x="2156.5" y="-69" font-family="Helvetica,sans-Serif" font-size="10.00">/dOvlpFd3_Delete__FP10dOvlpFd3_c.s</text>
</a>
</g>
</g>
<!-- Node1&#45;&gt;Node15 -->
<g id="edge15" class="edge">
<title>Node1&#45;&gt;Node15</title>
<path fill="none" stroke="midnightblue" d="M1188.62,-143.06C1343.86,-142.44 1731.76,-136.78 2053.5,-98 2062.76,-96.88 2072.44,-95.41 2082,-93.78"/>
<polygon fill="midnightblue" stroke="midnightblue" points="2082.66,-97.21 2091.89,-92.02 2081.43,-90.32 2082.66,-97.21"/>
</g>
<!-- Node16 -->
<g id="node16" class="node">
<title>Node16</title>
<g id="a_node16"><a xlink:title=" ">
<polygon fill="white" stroke="#bfbfbf" points="2269,-62 2269,-92 2400,-92 2400,-62 2269,-62"/>
<text text-anchor="start" x="2277" y="-80" font-family="Helvetica,sans-Serif" font-size="10.00">asm/d/ovlp/d_ovlp_fade3</text>
<text text-anchor="middle" x="2334.5" y="-69" font-family="Helvetica,sans-Serif" font-size="10.00">/dOvlpFd3_Create__FPv.s</text>
</a>
</g>
</g>
<!-- Node1&#45;&gt;Node16 -->
<g id="edge16" class="edge">
<title>Node1&#45;&gt;Node16</title>
<path fill="none" stroke="midnightblue" d="M1188.66,-142.27C1402.53,-139.71 2051.29,-129.47 2259.5,-98 2265.62,-97.07 2271.96,-95.84 2278.24,-94.43"/>
<polygon fill="midnightblue" stroke="midnightblue" points="2279.11,-97.82 2288.03,-92.1 2277.49,-91.01 2279.11,-97.82"/>
</g>
<!-- Node17 -->
<g id="node17" class="node">
<title>Node17</title>
<g id="a_node17"><a xlink:title=" ">
<polygon fill="white" stroke="#bfbfbf" points="2418.5,-62 2418.5,-92 2570.5,-92 2570.5,-62 2418.5,-62"/>
<text text-anchor="start" x="2426.5" y="-80" font-family="Helvetica,sans-Serif" font-size="10.00">asm/d/ovlp/d_ovlp_fade3</text>
<text text-anchor="middle" x="2494.5" y="-69" font-family="Helvetica,sans-Serif" font-size="10.00">/__dt__15dOvlpFd3_dlst_cFv.s</text>
</a>
</g>
</g>
<!-- Node1&#45;&gt;Node17 -->
<g id="edge17" class="edge">
<title>Node1&#45;&gt;Node17</title>
<path fill="none" stroke="midnightblue" d="M1188.58,-142.38C1420.52,-140.01 2170.31,-130 2409.5,-98 2416.92,-97.01 2424.64,-95.65 2432.26,-94.12"/>
<polygon fill="midnightblue" stroke="midnightblue" points="2433.15,-97.51 2442.2,-92 2431.69,-90.66 2433.15,-97.51"/>
</g>
<!-- Node4&#45;&gt;Node3 -->
<g id="edge4" class="edge">
<title>Node4&#45;&gt;Node3</title>
<path fill="none" stroke="midnightblue" d="M167.84,-67.23C161.41,-57.29 150.78,-40.84 142.67,-28.29"/>
<polygon fill="midnightblue" stroke="midnightblue" points="145.44,-26.13 137.07,-19.63 139.56,-29.93 145.44,-26.13"/>
</g>
</g>
</svg>
        <g id="navigator" transform="translate(0 0)" fill="#404254">
                <rect fill="#f2f5e9" fill-opacity="0.5" stroke="#606060" stroke-width=".5" x="0" y="0" width="60" height="60"/>
                <use id="zoomplus" xlink:href="#zoomPlus" x="17" y="9" onmousedown="handleZoom(evt,'in')"/>
                <use id="zoomminus" xlink:href="#zoomMin" x="42" y="9" onmousedown="handleZoom(evt,'out')"/>
                <use id="reset" xlink:href="#resetDef" x="30" y="36" onmousedown="handleReset()"/>
                <g id="arrowUp" xlink:href="#dirArrow" transform="translate(30 24)" onmousedown="handlePan(0,-1)">
                  <use xlink:href="#rim" fill="#404040">
                        <set attributeName="fill" to="#808080" begin="arrowUp.mouseover" end="arrowUp.mouseout"/>
                  </use>
                  <path fill="none" stroke="white" stroke-width="1.5" d="M0,-3.0v7 M-2.5,-0.5L0,-3.0L2.5,-0.5"/>
                </g>
                <g id="arrowRight" xlink:href="#dirArrow" transform="rotate(90) translate(36 -43)" onmousedown="handlePan(1,0)">
                  <use xlink:href="#rim" fill="#404040">
                        <set attributeName="fill" to="#808080" begin="arrowRight.mouseover" end="arrowRight.mouseout"/>
                  </use>
                  <path fill="none" stroke="white" stroke-width="1.5" d="M0,-3.0v7 M-2.5,-0.5L0,-3.0L2.5,-0.5"/>
                </g>
                <g id="arrowDown" xlink:href="#dirArrow" transform="rotate(180) translate(-30 -48)" onmousedown="handlePan(0,1)">
                  <use xlink:href="#rim" fill="#404040">
                        <set attributeName="fill" to="#808080" begin="arrowDown.mouseover" end="arrowDown.mouseout"/>
                  </use>
                  <path fill="none" stroke="white" stroke-width="1.5" d="M0,-3.0v7 M-2.5,-0.5L0,-3.0L2.5,-0.5"/>
                </g>
                <g id="arrowLeft" xlink:href="#dirArrow" transform="rotate(270) translate(-36 17)" onmousedown="handlePan(-1,0)">
                  <use xlink:href="#rim" fill="#404040">
                        <set attributeName="fill" to="#808080" begin="arrowLeft.mouseover" end="arrowLeft.mouseout"/>
                  </use>
                  <path fill="none" stroke="white" stroke-width="1.5" d="M0,-3.0v7 M-2.5,-0.5L0,-3.0L2.5,-0.5"/>
                </g>
        </g>
        <svg viewBox="0 0 15 15" width="100%" height="30px" preserveAspectRatio="xMaxYMin meet">
         <g id="arrow_out" transform="scale(0.3 0.3)">
          <a xlink:href="d__ovlp__fade3_8cpp__incl_org.svg" target="_base">
           <rect id="button" ry="5" rx="5" y="6" x="6" height="38" width="38"
                fill="#f2f5e9" fill-opacity="0.5" stroke="#606060" stroke-width="1.0"/>
           <path id="arrow"
             d="M 11.500037,31.436501 C 11.940474,20.09759 22.043105,11.32322 32.158766,21.979434 L 37.068811,17.246167 C 37.068811,17.246167 37.088388,32 37.088388,32 L 22.160133,31.978069 C 22.160133,31.978069 26.997745,27.140456 26.997745,27.140456 C 18.528582,18.264221 13.291696,25.230495 11.500037,31.436501 z"
             style="fill:#404040;"/>
          </a>
         </g>
        </svg>
</svg>
