<?xml version="1.0" encoding="UTF-8" standalone="no"?>
<!DOCTYPE svg PUBLIC "-//W3C//DTD SVG 1.1//EN"
 "http://www.w3.org/Graphics/SVG/1.1/DTD/svg11.dtd">
<!-- Generated by graphviz version 2.47.0 (20210316.2052)
 -->
<!-- Title: src/d/particle/d_particle_copoly.cpp Pages: 1 -->
<svg width="3408pt" height="184pt"
 viewBox="0.00 0.00 3407.50 184.00" xmlns="http://www.w3.org/2000/svg" xmlns:xlink="http://www.w3.org/1999/xlink">
<g id="graph0" class="graph" transform="scale(1 1) rotate(0) translate(4 180)">
<title>src/d/particle/d_particle_copoly.cpp</title>
<polygon fill="white" stroke="transparent" points="-4,4 -4,-180 3403.5,-180 3403.5,4 -4,4"/>
<!-- Node1 -->
<g id="node1" class="node">
<title>Node1</title>
<g id="a_node1"><a xlink:title=" ">
<polygon fill="#bfbfbf" stroke="black" points="1647.5,-145.5 1647.5,-175.5 1765.5,-175.5 1765.5,-145.5 1647.5,-145.5"/>
<text text-anchor="start" x="1655.5" y="-163.5" font-family="Helvetica,sans-Serif" font-size="10.00">src/d/particle/d_particle</text>
<text text-anchor="middle" x="1706.5" y="-152.5" font-family="Helvetica,sans-Serif" font-size="10.00">_copoly.cpp</text>
</a>
</g>
</g>
<!-- Node2 -->
<g id="node2" class="node">
<title>Node2</title>
<g id="a_node2"><a xlink:href="dol2asm_8h.html" target="_top" xlink:title=" ">
<polygon fill="white" stroke="black" points="0,-73 0,-92 61,-92 61,-73 0,-73"/>
<text text-anchor="middle" x="30.5" y="-80" font-family="Helvetica,sans-Serif" font-size="10.00">dol2asm.h</text>
</a>
</g>
</g>
<!-- Node1&#45;&gt;Node2 -->
<g id="edge1" class="edge">
<title>Node1&#45;&gt;Node2</title>
<path fill="none" stroke="midnightblue" d="M1647.29,-159.35C1372.57,-158.43 228.94,-152 75.5,-109 66.87,-106.58 58.12,-102.17 50.67,-97.69"/>
<polygon fill="midnightblue" stroke="midnightblue" points="52.32,-94.59 42.02,-92.12 48.53,-100.48 52.32,-94.59"/>
</g>
<!-- Node3 -->
<g id="node3" class="node">
<title>Node3</title>
<g id="a_node3"><a xlink:href="types_8h.html" target="_top" xlink:title=" ">
<polygon fill="white" stroke="black" points="88,-0.5 88,-19.5 169,-19.5 169,-0.5 88,-0.5"/>
<text text-anchor="middle" x="128.5" y="-7.5" font-family="Helvetica,sans-Serif" font-size="10.00">dolphin/types.h</text>
</a>
</g>
</g>
<!-- Node1&#45;&gt;Node3 -->
<g id="edge2" class="edge">
<title>Node1&#45;&gt;Node3</title>
<path fill="none" stroke="midnightblue" d="M1647.44,-158.75C1361.88,-154.97 136.78,-137.16 109.5,-109 88.6,-87.42 104.71,-50.13 117.3,-28.3"/>
<polygon fill="midnightblue" stroke="midnightblue" points="120.31,-30.09 122.52,-19.73 114.33,-26.45 120.31,-30.09"/>
</g>
<!-- Node4 -->
<g id="node4" class="node">
<title>Node4</title>
<g id="a_node4"><a xlink:href="d__particle__copoly_8h.html" target="_top" xlink:title=" ">
<polygon fill="white" stroke="black" points="118,-67.5 118,-97.5 219,-97.5 219,-67.5 118,-67.5"/>
<text text-anchor="start" x="126" y="-85.5" font-family="Helvetica,sans-Serif" font-size="10.00">d/particle/d_particle</text>
<text text-anchor="middle" x="168.5" y="-74.5" font-family="Helvetica,sans-Serif" font-size="10.00">_copoly.h</text>
</a>
</g>
</g>
<!-- Node1&#45;&gt;Node4 -->
<g id="edge3" class="edge">
<title>Node1&#45;&gt;Node4</title>
<path fill="none" stroke="midnightblue" d="M1647.42,-158.76C1389.47,-155.35 368.48,-140.01 228.5,-109 220.65,-107.26 212.54,-104.53 204.92,-101.48"/>
<polygon fill="midnightblue" stroke="midnightblue" points="206.15,-98.2 195.58,-97.51 203.41,-104.64 206.15,-98.2"/>
</g>
<!-- Node5 -->
<g id="node5" class="node">
<title>Node5</title>
<g id="a_node5"><a xlink:title=" ">
<polygon fill="white" stroke="#bfbfbf" points="237,-62 237,-103 400,-103 400,-62 237,-62"/>
<text text-anchor="start" x="245" y="-91" font-family="Helvetica,sans-Serif" font-size="10.00">asm/d/particle/d_particle</text>
<text text-anchor="start" x="245" y="-80" font-family="Helvetica,sans-Serif" font-size="10.00">_copoly/init__7dPaPo_cFP9dBgS</text>
<text text-anchor="middle" x="318.5" y="-69" font-family="Helvetica,sans-Serif" font-size="10.00">_Acchff.s</text>
</a>
</g>
</g>
<!-- Node1&#45;&gt;Node5 -->
<g id="edge5" class="edge">
<title>Node1&#45;&gt;Node5</title>
<path fill="none" stroke="midnightblue" d="M1647.2,-159.03C1426.48,-157.01 652.84,-147.29 409.5,-109 403.33,-108.03 396.98,-106.78 390.65,-105.37"/>
<polygon fill="midnightblue" stroke="midnightblue" points="391.27,-101.92 380.73,-103.01 389.65,-108.73 391.27,-101.92"/>
</g>
<!-- Node6 -->
<g id="node6" class="node">
<title>Node6</title>
<g id="a_node6"><a xlink:title=" ">
<polygon fill="white" stroke="#bfbfbf" points="418.5,-56.5 418.5,-108.5 594.5,-108.5 594.5,-56.5 418.5,-56.5"/>
<text text-anchor="start" x="426.5" y="-96.5" font-family="Helvetica,sans-Serif" font-size="10.00">asm/d/particle/d_particle</text>
<text text-anchor="start" x="426.5" y="-85.5" font-family="Helvetica,sans-Serif" font-size="10.00">_copoly/checkWaterIn__7dPaPo</text>
<text text-anchor="start" x="426.5" y="-74.5" font-family="Helvetica,sans-Serif" font-size="10.00">_cFP4cXyzPC4cXyzPC12dKy_tevstr</text>
<text text-anchor="middle" x="506.5" y="-63.5" font-family="Helvetica,sans-Serif" font-size="10.00">_cUlScff.s</text>
</a>
</g>
</g>
<!-- Node1&#45;&gt;Node6 -->
<g id="edge6" class="edge">
<title>Node1&#45;&gt;Node6</title>
<path fill="none" stroke="midnightblue" d="M1647.4,-158.44C1451.97,-154.68 826.88,-140.57 604.58,-108.98"/>
<polygon fill="midnightblue" stroke="midnightblue" points="605.03,-105.51 594.62,-107.51 604,-112.43 605.03,-105.51"/>
</g>
<!-- Node7 -->
<g id="node7" class="node">
<title>Node7</title>
<g id="a_node7"><a xlink:title=" ">
<polygon fill="white" stroke="#bfbfbf" points="612.5,-56.5 612.5,-108.5 794.5,-108.5 794.5,-56.5 612.5,-56.5"/>
<text text-anchor="start" x="620.5" y="-96.5" font-family="Helvetica,sans-Serif" font-size="10.00">asm/d/particle/d_particle</text>
<text text-anchor="start" x="620.5" y="-85.5" font-family="Helvetica,sans-Serif" font-size="10.00">_copoly/setEffect__7dPaPo</text>
<text text-anchor="start" x="620.5" y="-74.5" font-family="Helvetica,sans-Serif" font-size="10.00">_cFPUliPC12dKy_tevstr_cPC4cXyzUl</text>
<text text-anchor="middle" x="703.5" y="-63.5" font-family="Helvetica,sans-Serif" font-size="10.00">UlPC4cXyzPC5csXyzScPUcPUc.s</text>
</a>
</g>
</g>
<!-- Node1&#45;&gt;Node7 -->
<g id="edge7" class="edge">
<title>Node1&#45;&gt;Node7</title>
<path fill="none" stroke="midnightblue" d="M1647.46,-160.14C1504.18,-160.84 1126.76,-157.63 804.63,-109.04"/>
<polygon fill="midnightblue" stroke="midnightblue" points="805.05,-105.56 794.64,-107.51 803.99,-112.48 805.05,-105.56"/>
</g>
<!-- Node8 -->
<g id="node8" class="node">
<title>Node8</title>
<g id="a_node8"><a xlink:title=" ">
<polygon fill="white" stroke="#bfbfbf" points="812.5,-56.5 812.5,-108.5 1048.5,-108.5 1048.5,-56.5 812.5,-56.5"/>
<text text-anchor="start" x="820.5" y="-96.5" font-family="Helvetica,sans-Serif" font-size="10.00">asm/d/particle/d_particle</text>
<text text-anchor="start" x="820.5" y="-85.5" font-family="Helvetica,sans-Serif" font-size="10.00">_copoly/setEffectCenter</text>
<text text-anchor="start" x="820.5" y="-74.5" font-family="Helvetica,sans-Serif" font-size="10.00">__7dPaPo_cFPC12dKy_tevstr</text>
<text text-anchor="middle" x="930.5" y="-63.5" font-family="Helvetica,sans-Serif" font-size="10.00">_cPC4cXyzUlUlPC4cXyzPC5csXyzPC4cXyzScff.s</text>
</a>
</g>
</g>
<!-- Node1&#45;&gt;Node8 -->
<g id="edge8" class="edge">
<title>Node1&#45;&gt;Node8</title>
<path fill="none" stroke="midnightblue" d="M1647.18,-157.28C1534.44,-152.53 1281.36,-139.39 1058.96,-109.13"/>
<polygon fill="midnightblue" stroke="midnightblue" points="1059.11,-105.62 1048.72,-107.72 1058.15,-112.55 1059.11,-105.62"/>
</g>
<!-- Node9 -->
<g id="node9" class="node">
<title>Node9</title>
<g id="a_node9"><a xlink:title=" ">
<polygon fill="white" stroke="#bfbfbf" points="1066.5,-62 1066.5,-103 1194.5,-103 1194.5,-62 1066.5,-62"/>
<text text-anchor="start" x="1074.5" y="-91" font-family="Helvetica,sans-Serif" font-size="10.00">asm/d/particle/d_particle</text>
<text text-anchor="start" x="1074.5" y="-80" font-family="Helvetica,sans-Serif" font-size="10.00">_copoly/clearID__7dPaPo</text>
<text text-anchor="middle" x="1130.5" y="-69" font-family="Helvetica,sans-Serif" font-size="10.00">_cFPUlPUc.s</text>
</a>
</g>
</g>
<!-- Node1&#45;&gt;Node9 -->
<g id="edge9" class="edge">
<title>Node1&#45;&gt;Node9</title>
<path fill="none" stroke="midnightblue" d="M1647.32,-158.07C1552.56,-154.77 1361.38,-143.98 1203.5,-109 1199.45,-108.1 1195.3,-107.05 1191.16,-105.89"/>
<polygon fill="midnightblue" stroke="midnightblue" points="1192.09,-102.52 1181.51,-103.02 1190.1,-109.23 1192.09,-102.52"/>
</g>
<!-- Node10 -->
<g id="node10" class="node">
<title>Node10</title>
<g id="a_node10"><a xlink:title=" ">
<polygon fill="white" stroke="#bfbfbf" points="1212.5,-67.5 1212.5,-97.5 1340.5,-97.5 1340.5,-67.5 1212.5,-67.5"/>
<text text-anchor="start" x="1220.5" y="-85.5" font-family="Helvetica,sans-Serif" font-size="10.00">asm/d/particle/d_particle</text>
<text text-anchor="middle" x="1276.5" y="-74.5" font-family="Helvetica,sans-Serif" font-size="10.00">_copoly/func_8005115C.s</text>
</a>
</g>
</g>
<!-- Node1&#45;&gt;Node10 -->
<g id="edge10" class="edge">
<title>Node1&#45;&gt;Node10</title>
<path fill="none" stroke="midnightblue" d="M1647.27,-154.59C1576.08,-147.88 1453.37,-133.78 1350.5,-109 1341.38,-106.8 1331.8,-103.94 1322.67,-100.92"/>
<polygon fill="midnightblue" stroke="midnightblue" points="1323.57,-97.53 1312.98,-97.62 1321.31,-104.16 1323.57,-97.53"/>
</g>
<!-- Node11 -->
<g id="node11" class="node">
<title>Node11</title>
<g id="a_node11"><a xlink:title=" ">
<polygon fill="white" stroke="#bfbfbf" points="1359,-62 1359,-103 1482,-103 1482,-62 1359,-62"/>
<text text-anchor="start" x="1367" y="-91" font-family="Helvetica,sans-Serif" font-size="10.00">asm/d/particle/d_particle</text>
<text text-anchor="start" x="1367" y="-80" font-family="Helvetica,sans-Serif" font-size="10.00">_copoly/clearTwoAllID_</text>
<text text-anchor="middle" x="1420.5" y="-69" font-family="Helvetica,sans-Serif" font-size="10.00">_8dPaPoT_cFv.s</text>
</a>
</g>
</g>
<!-- Node1&#45;&gt;Node11 -->
<g id="edge11" class="edge">
<title>Node1&#45;&gt;Node11</title>
<path fill="none" stroke="midnightblue" d="M1647.17,-147.47C1603.72,-138.2 1543.52,-124.4 1491.5,-109 1488.58,-108.14 1485.6,-107.22 1482.61,-106.26"/>
<polygon fill="midnightblue" stroke="midnightblue" points="1483.6,-102.91 1473.01,-103.11 1481.42,-109.56 1483.6,-102.91"/>
</g>
<!-- Node12 -->
<g id="node12" class="node">
<title>Node12</title>
<g id="a_node12"><a xlink:title=" ">
<polygon fill="white" stroke="#bfbfbf" points="1500,-67.5 1500,-97.5 1627,-97.5 1627,-67.5 1500,-67.5"/>
<text text-anchor="start" x="1508" y="-85.5" font-family="Helvetica,sans-Serif" font-size="10.00">asm/d/particle/d_particle</text>
<text text-anchor="middle" x="1563.5" y="-74.5" font-family="Helvetica,sans-Serif" font-size="10.00">_copoly/func_800512E8.s</text>
</a>
</g>
</g>
<!-- Node1&#45;&gt;Node12 -->
<g id="edge12" class="edge">
<title>Node1&#45;&gt;Node12</title>
<path fill="none" stroke="midnightblue" d="M1679.94,-145.38C1657.06,-133.23 1623.87,-115.58 1598.77,-102.24"/>
<polygon fill="midnightblue" stroke="midnightblue" points="1600.39,-99.14 1589.92,-97.54 1597.11,-105.33 1600.39,-99.14"/>
</g>
<!-- Node13 -->
<g id="node13" class="node">
<title>Node13</title>
<g id="a_node13"><a xlink:title=" ">
<polygon fill="white" stroke="#bfbfbf" points="1645,-62 1645,-103 1768,-103 1768,-62 1645,-62"/>
<text text-anchor="start" x="1653" y="-91" font-family="Helvetica,sans-Serif" font-size="10.00">asm/d/particle/d_particle</text>
<text text-anchor="start" x="1653" y="-80" font-family="Helvetica,sans-Serif" font-size="10.00">_copoly/clearFourAllID</text>
<text text-anchor="middle" x="1706.5" y="-69" font-family="Helvetica,sans-Serif" font-size="10.00">__8dPaPoF_cFv.s</text>
</a>
</g>
</g>
<!-- Node1&#45;&gt;Node13 -->
<g id="edge13" class="edge">
<title>Node1&#45;&gt;Node13</title>
<path fill="none" stroke="midnightblue" d="M1706.5,-145.2C1706.5,-136.21 1706.5,-124.27 1706.5,-113.29"/>
<polygon fill="midnightblue" stroke="midnightblue" points="1710,-113.18 1706.5,-103.18 1703,-113.18 1710,-113.18"/>
</g>
<!-- Node14 -->
<g id="node14" class="node">
<title>Node14</title>
<g id="a_node14"><a xlink:title=" ">
<polygon fill="white" stroke="#bfbfbf" points="1786,-62 1786,-103 1909,-103 1909,-62 1786,-62"/>
<text text-anchor="start" x="1794" y="-91" font-family="Helvetica,sans-Serif" font-size="10.00">asm/d/particle/d_particle</text>
<text text-anchor="start" x="1794" y="-80" font-family="Helvetica,sans-Serif" font-size="10.00">_copoly/getRightEffType</text>
<text text-anchor="middle" x="1847.5" y="-69" font-family="Helvetica,sans-Serif" font-size="10.00">__8dPaPoT_cCFi.s</text>
</a>
</g>
</g>
<!-- Node1&#45;&gt;Node14 -->
<g id="edge14" class="edge">
<title>Node1&#45;&gt;Node14</title>
<path fill="none" stroke="midnightblue" d="M1732.69,-145.38C1752.17,-134.89 1779.23,-120.3 1802.19,-107.92"/>
<polygon fill="midnightblue" stroke="midnightblue" points="1803.94,-110.95 1811.09,-103.13 1800.62,-104.79 1803.94,-110.95"/>
</g>
<!-- Node15 -->
<g id="node15" class="node">
<title>Node15</title>
<g id="a_node15"><a xlink:title=" ">
<polygon fill="white" stroke="#bfbfbf" points="1927,-62 1927,-103 2050,-103 2050,-62 1927,-62"/>
<text text-anchor="start" x="1935" y="-91" font-family="Helvetica,sans-Serif" font-size="10.00">asm/d/particle/d_particle</text>
<text text-anchor="start" x="1935" y="-80" font-family="Helvetica,sans-Serif" font-size="10.00">_copoly/getLeftEffType</text>
<text text-anchor="middle" x="1988.5" y="-69" font-family="Helvetica,sans-Serif" font-size="10.00">__8dPaPoT_cCFi.s</text>
</a>
</g>
</g>
<!-- Node1&#45;&gt;Node15 -->
<g id="edge15" class="edge">
<title>Node1&#45;&gt;Node15</title>
<path fill="none" stroke="midnightblue" d="M1765.93,-147.27C1808.7,-138 1867.59,-124.28 1918.5,-109 1921.29,-108.16 1924.13,-107.28 1926.98,-106.36"/>
<polygon fill="midnightblue" stroke="midnightblue" points="1928.35,-109.59 1936.74,-103.11 1926.14,-102.95 1928.35,-109.59"/>
</g>
<!-- Node16 -->
<g id="node16" class="node">
<title>Node16</title>
<g id="a_node16"><a xlink:title=" ">
<polygon fill="white" stroke="#bfbfbf" points="2068,-62 2068,-103 2195,-103 2195,-62 2068,-62"/>
<text text-anchor="start" x="2076" y="-91" font-family="Helvetica,sans-Serif" font-size="10.00">asm/d/particle/d_particle</text>
<text text-anchor="start" x="2076" y="-80" font-family="Helvetica,sans-Serif" font-size="10.00">_copoly/getCenterEffType</text>
<text text-anchor="middle" x="2131.5" y="-69" font-family="Helvetica,sans-Serif" font-size="10.00">__7dPaPo_cCFi.s</text>
</a>
</g>
</g>
<!-- Node1&#45;&gt;Node16 -->
<g id="edge16" class="edge">
<title>Node1&#45;&gt;Node16</title>
<path fill="none" stroke="midnightblue" d="M1765.58,-154.66C1836.25,-148.04 1957.75,-134.03 2059.5,-109 2063.13,-108.11 2066.82,-107.1 2070.54,-106.02"/>
<polygon fill="midnightblue" stroke="midnightblue" points="2071.82,-109.29 2080.35,-103.01 2069.77,-102.6 2071.82,-109.29"/>
</g>
<!-- Node17 -->
<g id="node17" class="node">
<title>Node17</title>
<g id="a_node17"><a xlink:title=" ">
<polygon fill="white" stroke="#bfbfbf" points="2213,-62 2213,-103 2336,-103 2336,-62 2213,-62"/>
<text text-anchor="start" x="2221" y="-91" font-family="Helvetica,sans-Serif" font-size="10.00">asm/d/particle/d_particle</text>
<text text-anchor="start" x="2221" y="-80" font-family="Helvetica,sans-Serif" font-size="10.00">_copoly/getRightEmitter</text>
<text text-anchor="middle" x="2274.5" y="-69" font-family="Helvetica,sans-Serif" font-size="10.00">__8dPaPoT_cFii.s</text>
</a>
</g>
</g>
<!-- Node1&#45;&gt;Node17 -->
<g id="edge17" class="edge">
<title>Node1&#45;&gt;Node17</title>
<path fill="none" stroke="midnightblue" d="M1765.53,-158.24C1859.56,-155.17 2048.64,-144.71 2204.5,-109 2208.29,-108.13 2212.16,-107.11 2216.03,-106"/>
<polygon fill="midnightblue" stroke="midnightblue" points="2217.1,-109.33 2225.63,-103.04 2215.04,-102.64 2217.1,-109.33"/>
</g>
<!-- Node18 -->
<g id="node18" class="node">
<title>Node18</title>
<g id="a_node18"><a xlink:title=" ">
<polygon fill="white" stroke="#bfbfbf" points="2354,-62 2354,-103 2477,-103 2477,-62 2354,-62"/>
<text text-anchor="start" x="2362" y="-91" font-family="Helvetica,sans-Serif" font-size="10.00">asm/d/particle/d_particle</text>
<text text-anchor="start" x="2362" y="-80" font-family="Helvetica,sans-Serif" font-size="10.00">_copoly/getLeftEmitter</text>
<text text-anchor="middle" x="2415.5" y="-69" font-family="Helvetica,sans-Serif" font-size="10.00">__8dPaPoT_cFii.s</text>
</a>
</g>
</g>
<!-- Node1&#45;&gt;Node18 -->
<g id="edge18" class="edge">
<title>Node1&#45;&gt;Node18</title>
<path fill="none" stroke="midnightblue" d="M1765.86,-160.12C1879.68,-160.15 2135.9,-154.58 2345.5,-109 2349.37,-108.16 2353.32,-107.15 2357.27,-106.04"/>
<polygon fill="midnightblue" stroke="midnightblue" points="2358.5,-109.32 2367.04,-103.06 2356.46,-102.62 2358.5,-109.32"/>
</g>
<!-- Node19 -->
<g id="node19" class="node">
<title>Node19</title>
<g id="a_node19"><a xlink:title=" ">
<polygon fill="white" stroke="#bfbfbf" points="2495,-62 2495,-103 2620,-103 2620,-62 2495,-62"/>
<text text-anchor="start" x="2503" y="-91" font-family="Helvetica,sans-Serif" font-size="10.00">asm/d/particle/d_particle</text>
<text text-anchor="start" x="2503" y="-80" font-family="Helvetica,sans-Serif" font-size="10.00">_copoly/getCenterEmitter</text>
<text text-anchor="middle" x="2557.5" y="-69" font-family="Helvetica,sans-Serif" font-size="10.00">__7dPaPo_cFii.s</text>
</a>
</g>
</g>
<!-- Node1&#45;&gt;Node19 -->
<g id="edge19" class="edge">
<title>Node1&#45;&gt;Node19</title>
<path fill="none" stroke="midnightblue" d="M1765.61,-157.81C1922.85,-152.99 2348.82,-137.59 2486.5,-109 2490.61,-108.15 2494.81,-107.11 2499,-105.94"/>
<polygon fill="midnightblue" stroke="midnightblue" points="2500.17,-109.24 2508.74,-103.02 2498.16,-102.54 2500.17,-109.24"/>
</g>
<!-- Node20 -->
<g id="node20" class="node">
<title>Node20</title>
<g id="a_node20"><a xlink:title=" ">
<polygon fill="white" stroke="#bfbfbf" points="2638,-62 2638,-103 2781,-103 2781,-62 2638,-62"/>
<text text-anchor="start" x="2646" y="-91" font-family="Helvetica,sans-Serif" font-size="10.00">asm/d/particle/d_particle</text>
<text text-anchor="start" x="2646" y="-80" font-family="Helvetica,sans-Serif" font-size="10.00">_copoly/getBackRightEffType</text>
<text text-anchor="middle" x="2709.5" y="-69" font-family="Helvetica,sans-Serif" font-size="10.00">__8dPaPoF_cCFi.s</text>
</a>
</g>
</g>
<!-- Node1&#45;&gt;Node20 -->
<g id="edge20" class="edge">
<title>Node1&#45;&gt;Node20</title>
<path fill="none" stroke="midnightblue" d="M1765.65,-158.22C1942.08,-154.11 2462.68,-139.63 2629.5,-109 2634.48,-108.09 2639.58,-106.95 2644.68,-105.67"/>
<polygon fill="midnightblue" stroke="midnightblue" points="2645.7,-109.02 2654.45,-103.05 2643.88,-102.26 2645.7,-109.02"/>
</g>
<!-- Node21 -->
<g id="node21" class="node">
<title>Node21</title>
<g id="a_node21"><a xlink:title=" ">
<polygon fill="white" stroke="#bfbfbf" points="2799.5,-62 2799.5,-103 2937.5,-103 2937.5,-62 2799.5,-62"/>
<text text-anchor="start" x="2807.5" y="-91" font-family="Helvetica,sans-Serif" font-size="10.00">asm/d/particle/d_particle</text>
<text text-anchor="start" x="2807.5" y="-80" font-family="Helvetica,sans-Serif" font-size="10.00">_copoly/getBackLeftEffType</text>
<text text-anchor="middle" x="2868.5" y="-69" font-family="Helvetica,sans-Serif" font-size="10.00">__8dPaPoF_cCFi.s</text>
</a>
</g>
</g>
<!-- Node1&#45;&gt;Node21 -->
<g id="edge21" class="edge">
<title>Node1&#45;&gt;Node21</title>
<path fill="none" stroke="midnightblue" d="M1765.68,-158.84C1962.1,-156.31 2591.29,-145.51 2790.5,-109 2795.24,-108.13 2800.09,-107.05 2804.94,-105.82"/>
<polygon fill="midnightblue" stroke="midnightblue" points="2806.13,-109.12 2814.86,-103.12 2804.29,-102.37 2806.13,-109.12"/>
</g>
<!-- Node22 -->
<g id="node22" class="node">
<title>Node22</title>
<g id="a_node22"><a xlink:title=" ">
<polygon fill="white" stroke="#bfbfbf" points="2955.5,-62 2955.5,-103 3097.5,-103 3097.5,-62 2955.5,-62"/>
<text text-anchor="start" x="2963.5" y="-91" font-family="Helvetica,sans-Serif" font-size="10.00">asm/d/particle/d_particle</text>
<text text-anchor="start" x="2963.5" y="-80" font-family="Helvetica,sans-Serif" font-size="10.00">_copoly/getBackRightEmitter</text>
<text text-anchor="middle" x="3026.5" y="-69" font-family="Helvetica,sans-Serif" font-size="10.00">__8dPaPoF_cFii.s</text>
</a>
</g>
</g>
<!-- Node1&#45;&gt;Node22 -->
<g id="edge22" class="edge">
<title>Node1&#45;&gt;Node22</title>
<path fill="none" stroke="midnightblue" d="M1765.8,-159.18C1980.33,-157.72 2715.49,-149.76 2946.5,-109 2951.57,-108.1 2956.77,-106.97 2961.96,-105.68"/>
<polygon fill="midnightblue" stroke="midnightblue" points="2963.14,-108.99 2971.9,-103.03 2961.34,-102.23 2963.14,-108.99"/>
</g>
<!-- Node23 -->
<g id="node23" class="node">
<title>Node23</title>
<g id="a_node23"><a xlink:title=" ">
<polygon fill="white" stroke="#bfbfbf" points="3116,-62 3116,-103 3253,-103 3253,-62 3116,-62"/>
<text text-anchor="start" x="3124" y="-91" font-family="Helvetica,sans-Serif" font-size="10.00">asm/d/particle/d_particle</text>
<text text-anchor="start" x="3124" y="-80" font-family="Helvetica,sans-Serif" font-size="10.00">_copoly/getBackLeftEmitter</text>
<text text-anchor="middle" x="3184.5" y="-69" font-family="Helvetica,sans-Serif" font-size="10.00">__8dPaPoF_cFii.s</text>
</a>
</g>
</g>
<!-- Node1&#45;&gt;Node23 -->
<g id="edge23" class="edge">
<title>Node1&#45;&gt;Node23</title>
<path fill="none" stroke="midnightblue" d="M1765.75,-159.56C1997.52,-159.48 2842.95,-155.87 3106.5,-109 3111.46,-108.12 3116.53,-106.99 3121.6,-105.71"/>
<polygon fill="midnightblue" stroke="midnightblue" points="3122.57,-109.07 3131.3,-103.07 3120.73,-102.32 3122.57,-109.07"/>
</g>
<!-- Node24 -->
<g id="node24" class="node">
<title>Node24</title>
<g id="a_node24"><a xlink:title=" ">
<polygon fill="white" stroke="#bfbfbf" points="3271.5,-62 3271.5,-103 3399.5,-103 3399.5,-62 3271.5,-62"/>
<text text-anchor="start" x="3279.5" y="-91" font-family="Helvetica,sans-Serif" font-size="10.00">asm/d/particle/d_particle</text>
<text text-anchor="start" x="3279.5" y="-80" font-family="Helvetica,sans-Serif" font-size="10.00">_copoly/__sinit_d_particle</text>
<text text-anchor="middle" x="3335.5" y="-69" font-family="Helvetica,sans-Serif" font-size="10.00">_copoly_cpp.s</text>
</a>
</g>
</g>
<!-- Node1&#45;&gt;Node24 -->
<g id="edge24" class="edge">
<title>Node1&#45;&gt;Node24</title>
<path fill="none" stroke="midnightblue" d="M1765.94,-158.64C2032.78,-154.62 3113.62,-136.75 3262.5,-109 3266.93,-108.18 3271.44,-107.13 3275.95,-105.93"/>
<polygon fill="midnightblue" stroke="midnightblue" points="3277.14,-109.24 3285.78,-103.11 3275.2,-102.51 3277.14,-109.24"/>
</g>
<!-- Node4&#45;&gt;Node3 -->
<g id="edge4" class="edge">
<title>Node4&#45;&gt;Node3</title>
<path fill="none" stroke="midnightblue" d="M160.41,-67.23C154.13,-56.17 145.39,-40.77 138.64,-28.88"/>
<polygon fill="midnightblue" stroke="midnightblue" points="141.52,-26.86 133.55,-19.89 135.44,-30.32 141.52,-26.86"/>
</g>
</g>
</svg>
