<?xml version="1.0" encoding="UTF-8" standalone="no"?>
<!DOCTYPE svg PUBLIC "-//W3C//DTD SVG 1.1//EN"
 "http://www.w3.org/Graphics/SVG/1.1/DTD/svg11.dtd">
<!-- Generated by graphviz version 2.47.0 (20210316.2052)
 -->
<!-- Title: src/d/pane/d_pane_class.cpp Pages: 1 -->
<svg width="5767pt" height="173pt"
 viewBox="0.00 0.00 5766.50 173.00" xmlns="http://www.w3.org/2000/svg" xmlns:xlink="http://www.w3.org/1999/xlink">
<g id="graph0" class="graph" transform="scale(1 1) rotate(0) translate(4 169)">
<title>src/d/pane/d_pane_class.cpp</title>
<polygon fill="white" stroke="transparent" points="-4,4 -4,-169 5762.5,-169 5762.5,4 -4,4"/>
<!-- Node1 -->
<g id="node1" class="node">
<title>Node1</title>
<g id="a_node1"><a xlink:title=" ">
<polygon fill="#bfbfbf" stroke="black" points="2621,-145.5 2621,-164.5 2764,-164.5 2764,-145.5 2621,-145.5"/>
<text text-anchor="middle" x="2692.5" y="-152.5" font-family="Helvetica,sans-Serif" font-size="10.00">src/d/pane/d_pane_class.cpp</text>
</a>
</g>
</g>
<!-- Node2 -->
<g id="node2" class="node">
<title>Node2</title>
<g id="a_node2"><a xlink:href="dol2asm_8h.html" target="_top" xlink:title=" ">
<polygon fill="white" stroke="black" points="0,-73 0,-92 61,-92 61,-73 0,-73"/>
<text text-anchor="middle" x="30.5" y="-80" font-family="Helvetica,sans-Serif" font-size="10.00">dol2asm.h</text>
</a>
</g>
</g>
<!-- Node1&#45;&gt;Node2 -->
<g id="edge1" class="edge">
<title>Node1&#45;&gt;Node2</title>
<path fill="none" stroke="midnightblue" d="M2620.9,-153.77C2213.52,-152.31 201.53,-143.39 75.5,-109 66.85,-106.64 58.1,-102.24 50.65,-97.75"/>
<polygon fill="midnightblue" stroke="midnightblue" points="52.3,-94.66 42.01,-92.17 48.51,-100.54 52.3,-94.66"/>
</g>
<!-- Node3 -->
<g id="node3" class="node">
<title>Node3</title>
<g id="a_node3"><a xlink:href="types_8h.html" target="_top" xlink:title=" ">
<polygon fill="white" stroke="black" points="92,-0.5 92,-19.5 173,-19.5 173,-0.5 92,-0.5"/>
<text text-anchor="middle" x="132.5" y="-7.5" font-family="Helvetica,sans-Serif" font-size="10.00">dolphin/types.h</text>
</a>
</g>
</g>
<!-- Node1&#45;&gt;Node3 -->
<g id="edge2" class="edge">
<title>Node1&#45;&gt;Node3</title>
<path fill="none" stroke="midnightblue" d="M2620.7,-154.12C2207.92,-154.67 153.76,-155.05 108.5,-109 87.12,-87.25 105.93,-49.75 120.15,-27.98"/>
<polygon fill="midnightblue" stroke="midnightblue" points="123.05,-29.94 125.83,-19.71 117.28,-25.98 123.05,-29.94"/>
</g>
<!-- Node4 -->
<g id="node4" class="node">
<title>Node4</title>
<g id="a_node4"><a xlink:href="d__pane__class_8h.html" target="_top" xlink:title=" ">
<polygon fill="white" stroke="black" points="117.5,-73 117.5,-92 233.5,-92 233.5,-73 117.5,-73"/>
<text text-anchor="middle" x="175.5" y="-80" font-family="Helvetica,sans-Serif" font-size="10.00">d/pane/d_pane_class.h</text>
</a>
</g>
</g>
<!-- Node1&#45;&gt;Node4 -->
<g id="edge3" class="edge">
<title>Node1&#45;&gt;Node4</title>
<path fill="none" stroke="midnightblue" d="M2620.81,-154.13C2242.02,-154.63 481.85,-154.49 243.5,-109 229.53,-106.33 214.66,-101.06 202.4,-96"/>
<polygon fill="midnightblue" stroke="midnightblue" points="203.77,-92.78 193.2,-92.04 201,-99.21 203.77,-92.78"/>
</g>
<!-- Node5 -->
<g id="node5" class="node">
<title>Node5</title>
<g id="a_node5"><a xlink:title=" ">
<polygon fill="white" stroke="#bfbfbf" points="252,-67.5 252,-97.5 383,-97.5 383,-67.5 252,-67.5"/>
<text text-anchor="start" x="260" y="-85.5" font-family="Helvetica,sans-Serif" font-size="10.00">asm/d/pane/d_pane_class</text>
<text text-anchor="middle" x="317.5" y="-74.5" font-family="Helvetica,sans-Serif" font-size="10.00">/__ct__8CPaneMgrFv.s</text>
</a>
</g>
</g>
<!-- Node1&#45;&gt;Node5 -->
<g id="edge5" class="edge">
<title>Node1&#45;&gt;Node5</title>
<path fill="none" stroke="midnightblue" d="M2620.75,-153.91C2256.01,-153.27 616.05,-148.21 392.5,-109 382.13,-107.18 371.26,-104.17 361.11,-100.84"/>
<polygon fill="midnightblue" stroke="midnightblue" points="362.24,-97.53 351.64,-97.58 359.96,-104.15 362.24,-97.53"/>
</g>
<!-- Node6 -->
<g id="node6" class="node">
<title>Node6</title>
<g id="a_node6"><a xlink:title=" ">
<polygon fill="white" stroke="#bfbfbf" points="401.5,-62 401.5,-103 567.5,-103 567.5,-62 401.5,-62"/>
<text text-anchor="start" x="409.5" y="-91" font-family="Helvetica,sans-Serif" font-size="10.00">asm/d/pane/d_pane_class</text>
<text text-anchor="start" x="409.5" y="-80" font-family="Helvetica,sans-Serif" font-size="10.00">/__ct__8CPaneMgrFP9J2DScreen</text>
<text text-anchor="middle" x="484.5" y="-69" font-family="Helvetica,sans-Serif" font-size="10.00">UxUcP10JKRExpHeap.s</text>
</a>
</g>
</g>
<!-- Node1&#45;&gt;Node6 -->
<g id="edge6" class="edge">
<title>Node1&#45;&gt;Node6</title>
<path fill="none" stroke="midnightblue" d="M2620.92,-153.52C2274.79,-151.08 782.9,-138.88 577.5,-109 570.93,-108.04 564.17,-106.77 557.43,-105.31"/>
<polygon fill="midnightblue" stroke="midnightblue" points="558.12,-101.88 547.59,-103.04 556.55,-108.7 558.12,-101.88"/>
</g>
<!-- Node7 -->
<g id="node7" class="node">
<title>Node7</title>
<g id="a_node7"><a xlink:title=" ">
<polygon fill="white" stroke="#bfbfbf" points="586,-67.5 586,-97.5 717,-97.5 717,-67.5 586,-67.5"/>
<text text-anchor="start" x="594" y="-85.5" font-family="Helvetica,sans-Serif" font-size="10.00">asm/d/pane/d_pane_class</text>
<text text-anchor="middle" x="651.5" y="-74.5" font-family="Helvetica,sans-Serif" font-size="10.00">/__dt__8CPaneMgrFv.s</text>
</a>
</g>
</g>
<!-- Node1&#45;&gt;Node7 -->
<g id="edge7" class="edge">
<title>Node1&#45;&gt;Node7</title>
<path fill="none" stroke="midnightblue" d="M2620.76,-153.65C2289.46,-151.86 915.49,-142.48 726.5,-109 716.14,-107.16 705.26,-104.15 695.12,-100.82"/>
<polygon fill="midnightblue" stroke="midnightblue" points="696.24,-97.5 685.65,-97.56 693.96,-104.12 696.24,-97.5"/>
</g>
<!-- Node8 -->
<g id="node8" class="node">
<title>Node8</title>
<g id="a_node8"><a xlink:title=" ">
<polygon fill="white" stroke="#bfbfbf" points="735.5,-67.5 735.5,-97.5 881.5,-97.5 881.5,-67.5 735.5,-67.5"/>
<text text-anchor="start" x="743.5" y="-85.5" font-family="Helvetica,sans-Serif" font-size="10.00">asm/d/pane/d_pane_class</text>
<text text-anchor="middle" x="808.5" y="-74.5" font-family="Helvetica,sans-Serif" font-size="10.00">/setAlpha__8CPaneMgrFUc.s</text>
</a>
</g>
</g>
<!-- Node1&#45;&gt;Node8 -->
<g id="edge8" class="edge">
<title>Node1&#45;&gt;Node8</title>
<path fill="none" stroke="midnightblue" d="M2620.87,-153.36C2307.34,-150.43 1063.94,-137.1 891.5,-109 879.88,-107.11 867.62,-103.99 856.2,-100.58"/>
<polygon fill="midnightblue" stroke="midnightblue" points="857,-97.17 846.41,-97.53 854.91,-103.85 857,-97.17"/>
</g>
<!-- Node9 -->
<g id="node9" class="node">
<title>Node9</title>
<g id="a_node9"><a xlink:title=" ">
<polygon fill="white" stroke="#bfbfbf" points="900,-67.5 900,-97.5 1031,-97.5 1031,-67.5 900,-67.5"/>
<text text-anchor="start" x="908" y="-85.5" font-family="Helvetica,sans-Serif" font-size="10.00">asm/d/pane/d_pane_class</text>
<text text-anchor="middle" x="965.5" y="-74.5" font-family="Helvetica,sans-Serif" font-size="10.00">/reinit__8CPaneMgrFv.s</text>
</a>
</g>
</g>
<!-- Node1&#45;&gt;Node9 -->
<g id="edge9" class="edge">
<title>Node1&#45;&gt;Node9</title>
<path fill="none" stroke="midnightblue" d="M2620.86,-153.31C2323.83,-150.3 1197.19,-137.11 1040.5,-109 1030.14,-107.14 1019.27,-104.11 1009.12,-100.78"/>
<polygon fill="midnightblue" stroke="midnightblue" points="1010.25,-97.47 999.65,-97.53 1007.97,-104.09 1010.25,-97.47"/>
</g>
<!-- Node10 -->
<g id="node10" class="node">
<title>Node10</title>
<g id="a_node10"><a xlink:title=" ">
<polygon fill="white" stroke="#bfbfbf" points="1049,-62 1049,-103 1216,-103 1216,-62 1049,-62"/>
<text text-anchor="start" x="1057" y="-91" font-family="Helvetica,sans-Serif" font-size="10.00">asm/d/pane/d_pane_class</text>
<text text-anchor="start" x="1057" y="-80" font-family="Helvetica,sans-Serif" font-size="10.00">/initiate__8CPaneMgrFP7J2DPane</text>
<text text-anchor="middle" x="1132.5" y="-69" font-family="Helvetica,sans-Serif" font-size="10.00">P10JKRExpHeap.s</text>
</a>
</g>
</g>
<!-- Node1&#45;&gt;Node10 -->
<g id="edge10" class="edge">
<title>Node1&#45;&gt;Node10</title>
<path fill="none" stroke="midnightblue" d="M2620.65,-154.05C2364.86,-153.86 1499.21,-150.13 1225.5,-109 1218.99,-108.02 1212.29,-106.74 1205.61,-105.28"/>
<polygon fill="midnightblue" stroke="midnightblue" points="1206.39,-101.87 1195.86,-103.02 1204.81,-108.69 1206.39,-101.87"/>
</g>
<!-- Node11 -->
<g id="node11" class="node">
<title>Node11</title>
<g id="a_node11"><a xlink:title=" ">
<polygon fill="white" stroke="#bfbfbf" points="1234,-67.5 1234,-97.5 1385,-97.5 1385,-67.5 1234,-67.5"/>
<text text-anchor="start" x="1242" y="-85.5" font-family="Helvetica,sans-Serif" font-size="10.00">asm/d/pane/d_pane_class</text>
<text text-anchor="middle" x="1309.5" y="-74.5" font-family="Helvetica,sans-Serif" font-size="10.00">/getBlack__9J2DWindowCFv.s</text>
</a>
</g>
</g>
<!-- Node1&#45;&gt;Node11 -->
<g id="edge11" class="edge">
<title>Node1&#45;&gt;Node11</title>
<path fill="none" stroke="midnightblue" d="M2620.87,-153.93C2384.89,-153.33 1633.4,-148.3 1394.5,-109 1382.62,-107.05 1370.08,-103.91 1358.38,-100.49"/>
<polygon fill="midnightblue" stroke="midnightblue" points="1359.37,-97.14 1348.79,-97.58 1357.34,-103.84 1359.37,-97.14"/>
</g>
<!-- Node12 -->
<g id="node12" class="node">
<title>Node12</title>
<g id="a_node12"><a xlink:title=" ">
<polygon fill="white" stroke="#bfbfbf" points="1403,-67.5 1403,-97.5 1554,-97.5 1554,-67.5 1403,-67.5"/>
<text text-anchor="start" x="1411" y="-85.5" font-family="Helvetica,sans-Serif" font-size="10.00">asm/d/pane/d_pane_class</text>
<text text-anchor="middle" x="1478.5" y="-74.5" font-family="Helvetica,sans-Serif" font-size="10.00">/getWhite__9J2DWindowCFv.s</text>
</a>
</g>
</g>
<!-- Node1&#45;&gt;Node12 -->
<g id="edge12" class="edge">
<title>Node1&#45;&gt;Node12</title>
<path fill="none" stroke="midnightblue" d="M2620.95,-153.5C2405.99,-151.62 1768.22,-143.23 1563.5,-109 1551.63,-107.02 1539.09,-103.87 1527.39,-100.45"/>
<polygon fill="midnightblue" stroke="midnightblue" points="1528.38,-97.09 1517.79,-97.54 1526.35,-103.79 1528.38,-97.09"/>
</g>
<!-- Node13 -->
<g id="node13" class="node">
<title>Node13</title>
<g id="a_node13"><a xlink:title=" ">
<polygon fill="white" stroke="#bfbfbf" points="1572.5,-62 1572.5,-103 1730.5,-103 1730.5,-62 1572.5,-62"/>
<text text-anchor="start" x="1580.5" y="-91" font-family="Helvetica,sans-Serif" font-size="10.00">asm/d/pane/d_pane_class</text>
<text text-anchor="start" x="1580.5" y="-80" font-family="Helvetica,sans-Serif" font-size="10.00">/childPaneGetSize__8CPaneMgr</text>
<text text-anchor="middle" x="1651.5" y="-69" font-family="Helvetica,sans-Serif" font-size="10.00">FP7J2DPane.s</text>
</a>
</g>
</g>
<!-- Node1&#45;&gt;Node13 -->
<g id="edge13" class="edge">
<title>Node1&#45;&gt;Node13</title>
<path fill="none" stroke="midnightblue" d="M2620.75,-152.79C2429.21,-149.22 1908.92,-137.14 1739.5,-109 1733.77,-108.05 1727.88,-106.85 1722,-105.49"/>
<polygon fill="midnightblue" stroke="midnightblue" points="1722.69,-102.06 1712.14,-103.08 1721.02,-108.86 1722.69,-102.06"/>
</g>
<!-- Node14 -->
<g id="node14" class="node">
<title>Node14</title>
<g id="a_node14"><a xlink:title=" ">
<polygon fill="white" stroke="#bfbfbf" points="1748.5,-62 1748.5,-103 1906.5,-103 1906.5,-62 1748.5,-62"/>
<text text-anchor="start" x="1756.5" y="-91" font-family="Helvetica,sans-Serif" font-size="10.00">asm/d/pane/d_pane_class</text>
<text text-anchor="start" x="1756.5" y="-80" font-family="Helvetica,sans-Serif" font-size="10.00">/childPaneSetSize__8CPaneMgr</text>
<text text-anchor="middle" x="1827.5" y="-69" font-family="Helvetica,sans-Serif" font-size="10.00">FP7J2DPaneff.s</text>
</a>
</g>
</g>
<!-- Node1&#45;&gt;Node14 -->
<g id="edge14" class="edge">
<title>Node1&#45;&gt;Node14</title>
<path fill="none" stroke="midnightblue" d="M2620.8,-151.87C2455.34,-146.62 2050.7,-131.83 1916.5,-109 1910.82,-108.03 1904.98,-106.84 1899.14,-105.49"/>
<polygon fill="midnightblue" stroke="midnightblue" points="1899.88,-102.07 1889.34,-103.11 1898.23,-108.87 1899.88,-102.07"/>
</g>
<!-- Node15 -->
<g id="node15" class="node">
<title>Node15</title>
<g id="a_node15"><a xlink:title=" ">
<polygon fill="white" stroke="#bfbfbf" points="1925,-67.5 1925,-97.5 2090,-97.5 2090,-67.5 1925,-67.5"/>
<text text-anchor="start" x="1933" y="-85.5" font-family="Helvetica,sans-Serif" font-size="10.00">asm/d/pane/d_pane_class</text>
<text text-anchor="middle" x="2007.5" y="-74.5" font-family="Helvetica,sans-Serif" font-size="10.00">/getGlobalPosX__8CPaneMgrFv.s</text>
</a>
</g>
</g>
<!-- Node1&#45;&gt;Node15 -->
<g id="edge15" class="edge">
<title>Node1&#45;&gt;Node15</title>
<path fill="none" stroke="midnightblue" d="M2620.74,-153.05C2508.67,-150.55 2285.62,-141.54 2099.5,-109 2087,-106.82 2073.76,-103.66 2061.32,-100.3"/>
<polygon fill="midnightblue" stroke="midnightblue" points="2062.13,-96.9 2051.56,-97.59 2060.25,-103.64 2062.13,-96.9"/>
</g>
<!-- Node16 -->
<g id="node16" class="node">
<title>Node16</title>
<g id="a_node16"><a xlink:title=" ">
<polygon fill="white" stroke="#bfbfbf" points="2108,-67.5 2108,-97.5 2273,-97.5 2273,-67.5 2108,-67.5"/>
<text text-anchor="start" x="2116" y="-85.5" font-family="Helvetica,sans-Serif" font-size="10.00">asm/d/pane/d_pane_class</text>
<text text-anchor="middle" x="2190.5" y="-74.5" font-family="Helvetica,sans-Serif" font-size="10.00">/getGlobalPosY__8CPaneMgrFv.s</text>
</a>
</g>
</g>
<!-- Node1&#45;&gt;Node16 -->
<g id="edge16" class="edge">
<title>Node1&#45;&gt;Node16</title>
<path fill="none" stroke="midnightblue" d="M2620.87,-149.65C2538.63,-143.84 2399.94,-131.57 2282.5,-109 2270.42,-106.68 2257.61,-103.56 2245.51,-100.3"/>
<polygon fill="midnightblue" stroke="midnightblue" points="2246.12,-96.84 2235.55,-97.55 2244.25,-103.58 2246.12,-96.84"/>
</g>
<!-- Node17 -->
<g id="node17" class="node">
<title>Node17</title>
<g id="a_node17"><a xlink:title=" ">
<polygon fill="white" stroke="#bfbfbf" points="2291,-62 2291,-103 2476,-103 2476,-62 2291,-62"/>
<text text-anchor="start" x="2299" y="-91" font-family="Helvetica,sans-Serif" font-size="10.00">asm/d/pane/d_pane_class</text>
<text text-anchor="start" x="2299" y="-80" font-family="Helvetica,sans-Serif" font-size="10.00">/setWhite__9J2DWindowFQ28JUtility6</text>
<text text-anchor="middle" x="2383.5" y="-69" font-family="Helvetica,sans-Serif" font-size="10.00">TColor.s</text>
</a>
</g>
</g>
<!-- Node1&#45;&gt;Node17 -->
<g id="edge17" class="edge">
<title>Node1&#45;&gt;Node17</title>
<path fill="none" stroke="midnightblue" d="M2651.57,-145.49C2609.75,-136.71 2542.98,-122.43 2485.5,-109 2480.57,-107.85 2475.51,-106.65 2470.41,-105.42"/>
<polygon fill="midnightblue" stroke="midnightblue" points="2471.12,-101.99 2460.57,-103.04 2469.47,-108.79 2471.12,-101.99"/>
</g>
<!-- Node18 -->
<g id="node18" class="node">
<title>Node18</title>
<g id="a_node18"><a xlink:title=" ">
<polygon fill="white" stroke="#bfbfbf" points="2494,-62 2494,-103 2685,-103 2685,-62 2494,-62"/>
<text text-anchor="start" x="2502" y="-91" font-family="Helvetica,sans-Serif" font-size="10.00">asm/d/pane/d_pane_class</text>
<text text-anchor="start" x="2502" y="-80" font-family="Helvetica,sans-Serif" font-size="10.00">/setBlack__10J2DTextBoxFQ28JUtility6</text>
<text text-anchor="middle" x="2589.5" y="-69" font-family="Helvetica,sans-Serif" font-size="10.00">TColor.s</text>
</a>
</g>
</g>
<!-- Node1&#45;&gt;Node18 -->
<g id="edge18" class="edge">
<title>Node1&#45;&gt;Node18</title>
<path fill="none" stroke="midnightblue" d="M2679.87,-145.36C2666.64,-136.3 2645.23,-121.64 2626.57,-108.87"/>
<polygon fill="midnightblue" stroke="midnightblue" points="2628.45,-105.92 2618.23,-103.16 2624.5,-111.7 2628.45,-105.92"/>
</g>
<!-- Node19 -->
<g id="node19" class="node">
<title>Node19</title>
<g id="a_node19"><a xlink:title=" ">
<polygon fill="white" stroke="#bfbfbf" points="2703,-62 2703,-103 2888,-103 2888,-62 2703,-62"/>
<text text-anchor="start" x="2711" y="-91" font-family="Helvetica,sans-Serif" font-size="10.00">asm/d/pane/d_pane_class</text>
<text text-anchor="start" x="2711" y="-80" font-family="Helvetica,sans-Serif" font-size="10.00">/setBlack__9J2DWindowFQ28JUtility6</text>
<text text-anchor="middle" x="2795.5" y="-69" font-family="Helvetica,sans-Serif" font-size="10.00">TColor.s</text>
</a>
</g>
</g>
<!-- Node1&#45;&gt;Node19 -->
<g id="edge19" class="edge">
<title>Node1&#45;&gt;Node19</title>
<path fill="none" stroke="midnightblue" d="M2705.13,-145.36C2718.36,-136.3 2739.77,-121.64 2758.43,-108.87"/>
<polygon fill="midnightblue" stroke="midnightblue" points="2760.5,-111.7 2766.77,-103.16 2756.55,-105.92 2760.5,-111.7"/>
</g>
<!-- Node20 -->
<g id="node20" class="node">
<title>Node20</title>
<g id="a_node20"><a xlink:title=" ">
<polygon fill="white" stroke="#bfbfbf" points="2906.5,-62 2906.5,-103 3076.5,-103 3076.5,-62 2906.5,-62"/>
<text text-anchor="start" x="2914.5" y="-91" font-family="Helvetica,sans-Serif" font-size="10.00">asm/d/pane/d_pane_class</text>
<text text-anchor="start" x="2914.5" y="-80" font-family="Helvetica,sans-Serif" font-size="10.00">/setBlackWhite__8CPaneMgrFQ28</text>
<text text-anchor="middle" x="2991.5" y="-69" font-family="Helvetica,sans-Serif" font-size="10.00">JUtility6TColorQ28JUtility6TColor.s</text>
</a>
</g>
</g>
<!-- Node1&#45;&gt;Node20 -->
<g id="edge20" class="edge">
<title>Node1&#45;&gt;Node20</title>
<path fill="none" stroke="midnightblue" d="M2734.26,-145.46C2775.78,-136.82 2841.23,-122.8 2897.5,-109 2901.91,-107.92 2906.44,-106.78 2911,-105.61"/>
<polygon fill="midnightblue" stroke="midnightblue" points="2912.22,-108.91 2921.02,-103.02 2910.46,-102.14 2912.22,-108.91"/>
</g>
<!-- Node21 -->
<g id="node21" class="node">
<title>Node21</title>
<g id="a_node21"><a xlink:title=" ">
<polygon fill="white" stroke="#bfbfbf" points="3094.5,-62 3094.5,-103 3268.5,-103 3268.5,-62 3094.5,-62"/>
<text text-anchor="start" x="3102.5" y="-91" font-family="Helvetica,sans-Serif" font-size="10.00">asm/d/pane/d_pane_class</text>
<text text-anchor="start" x="3102.5" y="-80" font-family="Helvetica,sans-Serif" font-size="10.00">/setBlackWhite__9J2DWindowFQ28</text>
<text text-anchor="middle" x="3181.5" y="-69" font-family="Helvetica,sans-Serif" font-size="10.00">JUtility6TColorQ28JUtility6TColor.s</text>
</a>
</g>
</g>
<!-- Node1&#45;&gt;Node21 -->
<g id="edge21" class="edge">
<title>Node1&#45;&gt;Node21</title>
<path fill="none" stroke="midnightblue" d="M2764.32,-148.93C2843.48,-142.62 2974.33,-130.01 3085.5,-109 3091.2,-107.92 3097.06,-106.69 3102.94,-105.36"/>
<polygon fill="midnightblue" stroke="midnightblue" points="3103.89,-108.73 3112.82,-103.03 3102.28,-101.91 3103.89,-108.73"/>
</g>
<!-- Node22 -->
<g id="node22" class="node">
<title>Node22</title>
<g id="a_node22"><a xlink:title=" ">
<polygon fill="white" stroke="#bfbfbf" points="3286.5,-67.5 3286.5,-97.5 3432.5,-97.5 3432.5,-67.5 3286.5,-67.5"/>
<text text-anchor="start" x="3294.5" y="-85.5" font-family="Helvetica,sans-Serif" font-size="10.00">asm/d/pane/d_pane_class</text>
<text text-anchor="middle" x="3359.5" y="-74.5" font-family="Helvetica,sans-Serif" font-size="10.00">/paneTrans__8CPaneMgrFff.s</text>
</a>
</g>
</g>
<!-- Node1&#45;&gt;Node22 -->
<g id="edge22" class="edge">
<title>Node1&#45;&gt;Node22</title>
<path fill="none" stroke="midnightblue" d="M2764.33,-153.64C2875.35,-151.94 3094.92,-143.95 3277.5,-109 3288.49,-106.9 3300.08,-103.84 3310.97,-100.56"/>
<polygon fill="midnightblue" stroke="midnightblue" points="3312.24,-103.83 3320.75,-97.51 3310.16,-97.15 3312.24,-103.83"/>
</g>
<!-- Node23 -->
<g id="node23" class="node">
<title>Node23</title>
<g id="a_node23"><a xlink:title=" ">
<polygon fill="white" stroke="#bfbfbf" points="3450.5,-67.5 3450.5,-97.5 3596.5,-97.5 3596.5,-67.5 3450.5,-67.5"/>
<text text-anchor="start" x="3458.5" y="-85.5" font-family="Helvetica,sans-Serif" font-size="10.00">asm/d/pane/d_pane_class</text>
<text text-anchor="middle" x="3523.5" y="-74.5" font-family="Helvetica,sans-Serif" font-size="10.00">/paneScale__8CPaneMgrFff.s</text>
</a>
</g>
</g>
<!-- Node1&#45;&gt;Node23 -->
<g id="edge23" class="edge">
<title>Node1&#45;&gt;Node23</title>
<path fill="none" stroke="midnightblue" d="M2764.13,-151.9C2925.39,-146.82 3312.87,-132.51 3441.5,-109 3452.62,-106.97 3464.34,-103.9 3475.33,-100.6"/>
<polygon fill="midnightblue" stroke="midnightblue" points="3476.69,-103.84 3485.19,-97.52 3474.6,-97.16 3476.69,-103.84"/>
</g>
<!-- Node24 -->
<g id="node24" class="node">
<title>Node24</title>
<g id="a_node24"><a xlink:title=" ">
<polygon fill="white" stroke="#bfbfbf" points="3615,-67.5 3615,-97.5 3784,-97.5 3784,-67.5 3615,-67.5"/>
<text text-anchor="start" x="3623" y="-85.5" font-family="Helvetica,sans-Serif" font-size="10.00">asm/d/pane/d_pane_class</text>
<text text-anchor="middle" x="3699.5" y="-74.5" font-family="Helvetica,sans-Serif" font-size="10.00">/scaleAnime__8CPaneMgrFsffUc.s</text>
</a>
</g>
</g>
<!-- Node1&#45;&gt;Node24 -->
<g id="edge24" class="edge">
<title>Node1&#45;&gt;Node24</title>
<path fill="none" stroke="midnightblue" d="M2764.23,-152.46C2950.05,-148.16 3443.86,-134.6 3605.5,-109 3618.68,-106.91 3632.66,-103.69 3645.7,-100.23"/>
<polygon fill="midnightblue" stroke="midnightblue" points="3646.74,-103.57 3655.46,-97.55 3644.89,-96.82 3646.74,-103.57"/>
</g>
<!-- Node25 -->
<g id="node25" class="node">
<title>Node25</title>
<g id="a_node25"><a xlink:title=" ">
<polygon fill="white" stroke="#bfbfbf" points="3802,-67.5 3802,-97.5 3933,-97.5 3933,-67.5 3802,-67.5"/>
<text text-anchor="start" x="3810" y="-85.5" font-family="Helvetica,sans-Serif" font-size="10.00">asm/d/pane/d_pane_class</text>
<text text-anchor="middle" x="3867.5" y="-74.5" font-family="Helvetica,sans-Serif" font-size="10.00">/func_802548BC.s</text>
</a>
</g>
</g>
<!-- Node1&#45;&gt;Node25 -->
<g id="edge25" class="edge">
<title>Node1&#45;&gt;Node25</title>
<path fill="none" stroke="midnightblue" d="M2764.21,-153.78C2975.82,-152.72 3595.17,-146.39 3793.5,-109 3803.52,-107.11 3814.01,-104.14 3823.85,-100.88"/>
<polygon fill="midnightblue" stroke="midnightblue" points="3825.13,-104.15 3833.43,-97.56 3822.83,-97.53 3825.13,-104.15"/>
</g>
<!-- Node26 -->
<g id="node26" class="node">
<title>Node26</title>
<g id="a_node26"><a xlink:title=" ">
<polygon fill="white" stroke="#bfbfbf" points="3951,-62 3951,-103 4116,-103 4116,-62 3951,-62"/>
<text text-anchor="start" x="3959" y="-91" font-family="Helvetica,sans-Serif" font-size="10.00">asm/d/pane/d_pane_class</text>
<text text-anchor="start" x="3959" y="-80" font-family="Helvetica,sans-Serif" font-size="10.00">/getGlobalVtx__8CPaneMgrFP7J2</text>
<text text-anchor="middle" x="4033.5" y="-69" font-family="Helvetica,sans-Serif" font-size="10.00">DPanePA3_A4_fUcbs.s</text>
</a>
</g>
</g>
<!-- Node1&#45;&gt;Node26 -->
<g id="edge26" class="edge">
<title>Node1&#45;&gt;Node26</title>
<path fill="none" stroke="midnightblue" d="M2764.26,-153.65C2994.52,-152.18 3713.05,-144.76 3942.5,-109 3948.67,-108.04 3955.02,-106.8 3961.35,-105.39"/>
<polygon fill="midnightblue" stroke="midnightblue" points="3962.35,-108.75 3971.27,-103.04 3960.73,-101.94 3962.35,-108.75"/>
</g>
<!-- Node27 -->
<g id="node27" class="node">
<title>Node27</title>
<g id="a_node27"><a xlink:title=" ">
<polygon fill="white" stroke="#bfbfbf" points="4134,-62 4134,-103 4299,-103 4299,-62 4134,-62"/>
<text text-anchor="start" x="4142" y="-91" font-family="Helvetica,sans-Serif" font-size="10.00">asm/d/pane/d_pane_class</text>
<text text-anchor="start" x="4142" y="-80" font-family="Helvetica,sans-Serif" font-size="10.00">/getGlobalVtxCenter__8CPaneMgr</text>
<text text-anchor="middle" x="4216.5" y="-69" font-family="Helvetica,sans-Serif" font-size="10.00">FP7J2DPanebs.s</text>
</a>
</g>
</g>
<!-- Node1&#45;&gt;Node27 -->
<g id="edge27" class="edge">
<title>Node1&#45;&gt;Node27</title>
<path fill="none" stroke="midnightblue" d="M2764.42,-154.04C3016.47,-153.81 3858.87,-149.93 4125.5,-109 4131.67,-108.05 4138.02,-106.82 4144.36,-105.42"/>
<polygon fill="midnightblue" stroke="midnightblue" points="4145.35,-108.78 4154.28,-103.08 4143.74,-101.97 4145.35,-108.78"/>
</g>
<!-- Node28 -->
<g id="node28" class="node">
<title>Node28</title>
<g id="a_node28"><a xlink:title=" ">
<polygon fill="white" stroke="#bfbfbf" points="4317,-67.5 4317,-97.5 4510,-97.5 4510,-67.5 4317,-67.5"/>
<text text-anchor="start" x="4325" y="-85.5" font-family="Helvetica,sans-Serif" font-size="10.00">asm/d/pane/d_pane_class</text>
<text text-anchor="middle" x="4413.5" y="-74.5" font-family="Helvetica,sans-Serif" font-size="10.00">/getBounds__8CPaneMgrFP7J2DPane.s</text>
</a>
</g>
</g>
<!-- Node1&#45;&gt;Node28 -->
<g id="edge28" class="edge">
<title>Node1&#45;&gt;Node28</title>
<path fill="none" stroke="midnightblue" d="M2764.46,-154.01C3036.71,-153.72 4003.71,-149.79 4308.5,-109 4323.83,-106.95 4340.17,-103.57 4355.29,-99.94"/>
<polygon fill="midnightblue" stroke="midnightblue" points="4356.16,-103.33 4365.02,-97.53 4354.48,-96.54 4356.16,-103.33"/>
</g>
<!-- Node29 -->
<g id="node29" class="node">
<title>Node29</title>
<g id="a_node29"><a xlink:title=" ">
<polygon fill="white" stroke="#bfbfbf" points="4528.5,-62 4528.5,-103 4668.5,-103 4668.5,-62 4528.5,-62"/>
<text text-anchor="start" x="4536.5" y="-91" font-family="Helvetica,sans-Serif" font-size="10.00">asm/d/pane/d_pane_class</text>
<text text-anchor="start" x="4536.5" y="-80" font-family="Helvetica,sans-Serif" font-size="10.00">/dPaneClass_showNullPane</text>
<text text-anchor="middle" x="4598.5" y="-69" font-family="Helvetica,sans-Serif" font-size="10.00">__FP9J2DScreen.s</text>
</a>
</g>
</g>
<!-- Node1&#45;&gt;Node29 -->
<g id="edge29" class="edge">
<title>Node1&#45;&gt;Node29</title>
<path fill="none" stroke="midnightblue" d="M2764.11,-153.45C3080.45,-150.87 4344.58,-138.74 4519.5,-109 4524.61,-108.13 4529.84,-107 4535.06,-105.71"/>
<polygon fill="midnightblue" stroke="midnightblue" points="4536.29,-109 4545.05,-103.03 4534.48,-102.24 4536.29,-109"/>
</g>
<!-- Node30 -->
<g id="node30" class="node">
<title>Node30</title>
<g id="a_node30"><a xlink:title=" ">
<polygon fill="white" stroke="#bfbfbf" points="4686.5,-62 4686.5,-103 4826.5,-103 4826.5,-62 4686.5,-62"/>
<text text-anchor="start" x="4694.5" y="-91" font-family="Helvetica,sans-Serif" font-size="10.00">asm/d/pane/d_pane_class</text>
<text text-anchor="start" x="4694.5" y="-80" font-family="Helvetica,sans-Serif" font-size="10.00">/dPaneClass_showNullPane</text>
<text text-anchor="middle" x="4756.5" y="-69" font-family="Helvetica,sans-Serif" font-size="10.00">__FP7J2DPane.s</text>
</a>
</g>
</g>
<!-- Node1&#45;&gt;Node30 -->
<g id="edge30" class="edge">
<title>Node1&#45;&gt;Node30</title>
<path fill="none" stroke="midnightblue" d="M2764.08,-153.6C3097.06,-151.59 4486.26,-141.32 4677.5,-109 4682.61,-108.14 4687.84,-107.01 4693.06,-105.72"/>
<polygon fill="midnightblue" stroke="midnightblue" points="4694.3,-109.01 4703.05,-103.04 4692.48,-102.25 4694.3,-109.01"/>
</g>
<!-- Node31 -->
<g id="node31" class="node">
<title>Node31</title>
<g id="a_node31"><a xlink:title=" ">
<polygon fill="white" stroke="#bfbfbf" points="4844.5,-56.5 4844.5,-108.5 5038.5,-108.5 5038.5,-56.5 4844.5,-56.5"/>
<text text-anchor="start" x="4852.5" y="-96.5" font-family="Helvetica,sans-Serif" font-size="10.00">asm/d/pane/d_pane_class</text>
<text text-anchor="start" x="4852.5" y="-85.5" font-family="Helvetica,sans-Serif" font-size="10.00">/dPaneClass_setPriority</text>
<text text-anchor="start" x="4852.5" y="-74.5" font-family="Helvetica,sans-Serif" font-size="10.00">__FPPvP7JKRHeapP9J2DScreenPCcUl</text>
<text text-anchor="middle" x="4941.5" y="-63.5" font-family="Helvetica,sans-Serif" font-size="10.00">P10JKRArchive.s</text>
</a>
</g>
</g>
<!-- Node1&#45;&gt;Node31 -->
<g id="edge31" class="edge">
<title>Node1&#45;&gt;Node31</title>
<path fill="none" stroke="midnightblue" d="M2764.14,-153.41C3108.18,-150.46 4584.12,-136.39 4834.31,-108.93"/>
<polygon fill="midnightblue" stroke="midnightblue" points="4834.81,-112.39 4844.32,-107.74 4833.98,-105.44 4834.81,-112.39"/>
</g>
<!-- Node32 -->
<g id="node32" class="node">
<title>Node32</title>
<g id="a_node32"><a xlink:title=" ">
<polygon fill="white" stroke="#bfbfbf" points="5056,-67.5 5056,-97.5 5241,-97.5 5241,-67.5 5056,-67.5"/>
<text text-anchor="start" x="5064" y="-85.5" font-family="Helvetica,sans-Serif" font-size="10.00">asm/d/pane/d_pane_class</text>
<text text-anchor="middle" x="5148.5" y="-74.5" font-family="Helvetica,sans-Serif" font-size="10.00">/__dt__20JSUMemoryInputStreamFv.s</text>
</a>
</g>
</g>
<!-- Node1&#45;&gt;Node32 -->
<g id="edge32" class="edge">
<title>Node1&#45;&gt;Node32</title>
<path fill="none" stroke="midnightblue" d="M2764.08,-153.6C3133.57,-151.43 4816.79,-139.91 5047.5,-109 5062.21,-107.03 5077.87,-103.7 5092.35,-100.09"/>
<polygon fill="midnightblue" stroke="midnightblue" points="5093.36,-103.44 5102.17,-97.56 5091.61,-96.67 5093.36,-103.44"/>
</g>
<!-- Node33 -->
<g id="node33" class="node">
<title>Node33</title>
<g id="a_node33"><a xlink:title=" ">
<polygon fill="white" stroke="#bfbfbf" points="5259,-67.5 5259,-97.5 5446,-97.5 5446,-67.5 5259,-67.5"/>
<text text-anchor="start" x="5267" y="-85.5" font-family="Helvetica,sans-Serif" font-size="10.00">asm/d/pane/d_pane_class</text>
<text text-anchor="middle" x="5352.5" y="-74.5" font-family="Helvetica,sans-Serif" font-size="10.00">/__dt__20JSURandomInputStreamFv.s</text>
</a>
</g>
</g>
<!-- Node1&#45;&gt;Node33 -->
<g id="edge33" class="edge">
<title>Node1&#45;&gt;Node33</title>
<path fill="none" stroke="midnightblue" d="M2764.08,-153.71C3152.46,-152.02 4998.54,-142.27 5250.5,-109 5265.42,-107.03 5281.32,-103.68 5296.01,-100.05"/>
<polygon fill="midnightblue" stroke="midnightblue" points="5297.14,-103.37 5305.96,-97.5 5295.4,-96.59 5297.14,-103.37"/>
</g>
<!-- Node34 -->
<g id="node34" class="node">
<title>Node34</title>
<g id="a_node34"><a xlink:title=" ">
<polygon fill="white" stroke="#bfbfbf" points="5464.5,-67.5 5464.5,-97.5 5598.5,-97.5 5598.5,-67.5 5464.5,-67.5"/>
<text text-anchor="start" x="5472.5" y="-85.5" font-family="Helvetica,sans-Serif" font-size="10.00">asm/d/pane/d_pane_class</text>
<text text-anchor="middle" x="5531.5" y="-74.5" font-family="Helvetica,sans-Serif" font-size="10.00">/__dt__10JSUIosBaseFv.s</text>
</a>
</g>
</g>
<!-- Node1&#45;&gt;Node34 -->
<g id="edge34" class="edge">
<title>Node1&#45;&gt;Node34</title>
<path fill="none" stroke="midnightblue" d="M2764.13,-154.15C3171.1,-154.8 5183.69,-155.66 5455.5,-109 5466,-107.2 5477.01,-104.19 5487.3,-100.87"/>
<polygon fill="midnightblue" stroke="midnightblue" points="5488.55,-104.14 5496.89,-97.61 5486.3,-97.51 5488.55,-104.14"/>
</g>
<!-- Node35 -->
<g id="node35" class="node">
<title>Node35</title>
<g id="a_node35"><a xlink:title=" ">
<polygon fill="white" stroke="#bfbfbf" points="5616.5,-67.5 5616.5,-97.5 5758.5,-97.5 5758.5,-67.5 5616.5,-67.5"/>
<text text-anchor="start" x="5624.5" y="-85.5" font-family="Helvetica,sans-Serif" font-size="10.00">asm/d/pane/d_pane_class</text>
<text text-anchor="middle" x="5687.5" y="-74.5" font-family="Helvetica,sans-Serif" font-size="10.00">/__sinit_d_pane_class_cpp.s</text>
</a>
</g>
</g>
<!-- Node1&#45;&gt;Node35 -->
<g id="edge35" class="edge">
<title>Node1&#45;&gt;Node35</title>
<path fill="none" stroke="midnightblue" d="M2764.25,-154.15C3184.64,-154.85 5319.5,-156.07 5607.5,-109 5618.62,-107.18 5630.33,-104.14 5641.25,-100.77"/>
<polygon fill="midnightblue" stroke="midnightblue" points="5642.57,-104.02 5651.01,-97.61 5640.42,-97.36 5642.57,-104.02"/>
</g>
<!-- Node4&#45;&gt;Node3 -->
<g id="edge4" class="edge">
<title>Node4&#45;&gt;Node3</title>
<path fill="none" stroke="midnightblue" d="M170.23,-72.86C163.52,-61.86 151.78,-42.61 143.17,-28.5"/>
<polygon fill="midnightblue" stroke="midnightblue" points="146.01,-26.43 137.82,-19.72 140.03,-30.08 146.01,-26.43"/>
</g>
</g>
</svg>
