<?xml version="1.0" encoding="UTF-8" standalone="no"?>
<!DOCTYPE svg PUBLIC "-//W3C//DTD SVG 1.1//EN"
 "http://www.w3.org/Graphics/SVG/1.1/DTD/svg11.dtd">
<!-- Generated by graphviz version 2.47.0 (20210316.2052)
 -->
<!-- Title: src/d/d_spline_path.cpp Pages: 1 -->
<!--zoomable 162 -->
<svg id="main" version="1.1" xmlns="http://www.w3.org/2000/svg" xmlns:xlink="http://www.w3.org/1999/xlink" xml:space="preserve" onload="init(evt)">
<style type="text/css"><![CDATA[
.edge:hover path { stroke: red; }
.edge:hover polygon { stroke: red; fill: red; }
]]></style>
<script type="text/javascript"><![CDATA[
var edges = document.getElementsByTagName('g');
if (edges && edges.length) {
  for (var i=0;i<edges.length;i++) {
    if (edges[i].id.substr(0,4)=='edge') {
      edges[i].setAttribute('class','edge');
    }
  }
}
]]></script>
        <defs>
                <circle id="rim" cx="0" cy="0" r="7"/>
                <circle id="rim2" cx="0" cy="0" r="3.5"/>
                <g id="zoomPlus">
                        <use xlink:href="#rim" fill="#404040">
                                <set attributeName="fill" to="#808080" begin="zoomplus.mouseover" end="zoomplus.mouseout"/>
                        </use>
                        <path d="M-4,0h8M0,-4v8" fill="none" stroke="white" stroke-width="1.5" pointer-events="none"/>
                </g>
                <g id="zoomMin">
                        <use xlink:href="#rim" fill="#404040">
                                <set attributeName="fill" to="#808080" begin="zoomminus.mouseover" end="zoomminus.mouseout"/>
                        </use>
                        <path d="M-4,0h8" fill="none" stroke="white" stroke-width="1.5" pointer-events="none"/>
                </g>
                <g id="dirArrow">
                        <path fill="none" stroke="white" stroke-width="1.5" d="M0,-3.0v7 M-2.5,-0.5L0,-3.0L2.5,-0.5"/>
                </g>
               <g id="resetDef">
                       <use xlink:href="#rim2" fill="#404040">
                               <set attributeName="fill" to="#808080" begin="reset.mouseover" end="reset.mouseout"/>
                       </use>
               </g>
        </defs>

<script type="text/javascript">
var viewWidth = 1409;
var viewHeight = 162;
var sectionId = 'dynsection-0';
</script>
<script xlink:href="svgpan.js"/>
<svg id="graph" class="graph">
<g id="viewport">
<title>src/d/d_spline_path.cpp</title>
<polygon fill="white" stroke="transparent" points="-4,4 -4,-158 1404.5,-158 1404.5,4 -4,4"/>
<!-- Node1 -->
<g id="node1" class="node">
<title>Node1</title>
<g id="a_node1"><a xlink:title=" ">
<polygon fill="#bfbfbf" stroke="black" points="490,-134.5 490,-153.5 609,-153.5 609,-134.5 490,-134.5"/>
<text text-anchor="middle" x="549.5" y="-141.5" font-family="Helvetica,sans-Serif" font-size="10.00">src/d/d_spline_path.cpp</text>
</a>
</g>
</g>
<!-- Node2 -->
<g id="node2" class="node">
<title>Node2</title>
<g id="a_node2"><a xlink:href="dol2asm_8h.html" target="_top" xlink:title=" ">
<polygon fill="white" stroke="black" points="0,-67.5 0,-86.5 61,-86.5 61,-67.5 0,-67.5"/>
<text text-anchor="middle" x="30.5" y="-74.5" font-family="Helvetica,sans-Serif" font-size="10.00">dol2asm.h</text>
</a>
</g>
</g>
<!-- Node1&#45;&gt;Node2 -->
<g id="edge1" class="edge">
<title>Node1&#45;&gt;Node2</title>
<path fill="none" stroke="midnightblue" d="M489.68,-143.46C398.72,-142.79 220.82,-136.11 75.5,-98 68.88,-96.26 62,-93.66 55.67,-90.9"/>
<polygon fill="midnightblue" stroke="midnightblue" points="56.83,-87.58 46.29,-86.53 53.88,-93.92 56.83,-87.58"/>
</g>
<!-- Node3 -->
<g id="node3" class="node">
<title>Node3</title>
<g id="a_node3"><a xlink:href="types_8h.html" target="_top" xlink:title=" ">
<polygon fill="white" stroke="black" points="86,-0.5 86,-19.5 167,-19.5 167,-0.5 86,-0.5"/>
<text text-anchor="middle" x="126.5" y="-7.5" font-family="Helvetica,sans-Serif" font-size="10.00">dolphin/types.h</text>
</a>
</g>
</g>
<!-- Node1&#45;&gt;Node3 -->
<g id="edge2" class="edge">
<title>Node1&#45;&gt;Node3</title>
<path fill="none" stroke="midnightblue" d="M489.72,-141.26C375.12,-137.32 133.58,-125.77 108.5,-98 91.25,-78.91 104.13,-47.75 115.19,-28.37"/>
<polygon fill="midnightblue" stroke="midnightblue" points="118.28,-30.02 120.49,-19.66 112.3,-26.39 118.28,-30.02"/>
</g>
<!-- Node4 -->
<g id="node4" class="node">
<title>Node4</title>
<g id="a_node4"><a xlink:href="d__spline__path_8h.html" target="_top" xlink:title=" ">
<polygon fill="white" stroke="black" points="117.5,-67.5 117.5,-86.5 209.5,-86.5 209.5,-67.5 117.5,-67.5"/>
<text text-anchor="middle" x="163.5" y="-74.5" font-family="Helvetica,sans-Serif" font-size="10.00">d/d_spline_path.h</text>
</a>
</g>
</g>
<!-- Node1&#45;&gt;Node4 -->
<g id="edge3" class="edge">
<title>Node1&#45;&gt;Node4</title>
<path fill="none" stroke="midnightblue" d="M489.79,-138.61C423.15,-132.84 312.47,-120.68 219.5,-98 211.01,-95.93 202.02,-93.04 193.78,-90.11"/>
<polygon fill="midnightblue" stroke="midnightblue" points="194.79,-86.75 184.19,-86.55 192.35,-93.31 194.79,-86.75"/>
</g>
<!-- Node5 -->
<g id="node5" class="node">
<title>Node5</title>
<g id="a_node5"><a xlink:title=" ">
<polygon fill="white" stroke="#bfbfbf" points="228,-62 228,-92 371,-92 371,-62 228,-62"/>
<text text-anchor="start" x="236" y="-80" font-family="Helvetica,sans-Serif" font-size="10.00">asm/d/d_spline_path</text>
<text text-anchor="middle" x="299.5" y="-69" font-family="Helvetica,sans-Serif" font-size="10.00">/Init__14d2DBSplinePathFll.s</text>
</a>
</g>
</g>
<!-- Node1&#45;&gt;Node5 -->
<g id="edge5" class="edge">
<title>Node1&#45;&gt;Node5</title>
<path fill="none" stroke="midnightblue" d="M516.56,-134.44C477.73,-124.34 412.32,-107.33 363.43,-94.62"/>
<polygon fill="midnightblue" stroke="midnightblue" points="364.13,-91.19 353.57,-92.06 362.37,-97.96 364.13,-91.19"/>
</g>
<!-- Node6 -->
<g id="node6" class="node">
<title>Node6</title>
<g id="a_node6"><a xlink:title=" ">
<polygon fill="white" stroke="#bfbfbf" points="389,-62 389,-92 540,-92 540,-62 389,-62"/>
<text text-anchor="start" x="397" y="-80" font-family="Helvetica,sans-Serif" font-size="10.00">asm/d/d_spline_path</text>
<text text-anchor="middle" x="464.5" y="-69" font-family="Helvetica,sans-Serif" font-size="10.00">/Step__14d2DBSplinePathFv.s</text>
</a>
</g>
</g>
<!-- Node1&#45;&gt;Node6 -->
<g id="edge6" class="edge">
<title>Node1&#45;&gt;Node6</title>
<path fill="none" stroke="midnightblue" d="M538.04,-134.23C526.11,-125.11 507,-110.5 491.26,-98.46"/>
<polygon fill="midnightblue" stroke="midnightblue" points="492.99,-95.38 482.92,-92.09 488.74,-100.94 492.99,-95.38"/>
</g>
<!-- Node7 -->
<g id="node7" class="node">
<title>Node7</title>
<g id="a_node7"><a xlink:title=" ">
<polygon fill="white" stroke="#bfbfbf" points="558,-56.5 558,-97.5 713,-97.5 713,-56.5 558,-56.5"/>
<text text-anchor="start" x="566" y="-85.5" font-family="Helvetica,sans-Serif" font-size="10.00">asm/d/d_spline_path</text>
<text text-anchor="start" x="566" y="-74.5" font-family="Helvetica,sans-Serif" font-size="10.00">/Calc__14d2DBSplinePathFP4c</text>
<text text-anchor="middle" x="635.5" y="-63.5" font-family="Helvetica,sans-Serif" font-size="10.00">Xyz.s</text>
</a>
</g>
</g>
<!-- Node1&#45;&gt;Node7 -->
<g id="edge7" class="edge">
<title>Node1&#45;&gt;Node7</title>
<path fill="none" stroke="midnightblue" d="M561.1,-134.23C571.45,-126.41 587.13,-114.56 601.43,-103.75"/>
<polygon fill="midnightblue" stroke="midnightblue" points="603.78,-106.36 609.64,-97.54 599.56,-100.78 603.78,-106.36"/>
</g>
<!-- Node8 -->
<g id="node8" class="node">
<title>Node8</title>
<g id="a_node8"><a xlink:title=" ">
<polygon fill="white" stroke="#bfbfbf" points="731,-62 731,-92 886,-92 886,-62 731,-62"/>
<text text-anchor="start" x="739" y="-80" font-family="Helvetica,sans-Serif" font-size="10.00">asm/d/d_spline_path</text>
<text text-anchor="middle" x="808.5" y="-69" font-family="Helvetica,sans-Serif" font-size="10.00">/Calc__14d2DBSplinePathFPf.s</text>
</a>
</g>
</g>
<!-- Node1&#45;&gt;Node8 -->
<g id="edge8" class="edge">
<title>Node1&#45;&gt;Node8</title>
<path fill="none" stroke="midnightblue" d="M583.63,-134.44C623.93,-124.32 691.9,-107.26 742.59,-94.54"/>
<polygon fill="midnightblue" stroke="midnightblue" points="743.63,-97.89 752.48,-92.06 741.93,-91.1 743.63,-97.89"/>
</g>
<!-- Node9 -->
<g id="node9" class="node">
<title>Node9</title>
<g id="a_node9"><a xlink:title=" ">
<polygon fill="white" stroke="#bfbfbf" points="904.5,-62 904.5,-92 1062.5,-92 1062.5,-62 904.5,-62"/>
<text text-anchor="start" x="912.5" y="-80" font-family="Helvetica,sans-Serif" font-size="10.00">asm/d/d_spline_path</text>
<text text-anchor="middle" x="983.5" y="-69" font-family="Helvetica,sans-Serif" font-size="10.00">/Spot__14d2DBSplinePathFPff.s</text>
</a>
</g>
</g>
<!-- Node1&#45;&gt;Node9 -->
<g id="edge9" class="edge">
<title>Node1&#45;&gt;Node9</title>
<path fill="none" stroke="midnightblue" d="M609.15,-136.97C678.31,-129.58 795.61,-115.81 895.5,-98 902.03,-96.84 908.8,-95.51 915.57,-94.11"/>
<polygon fill="midnightblue" stroke="midnightblue" points="916.38,-97.51 925.43,-92.01 914.93,-90.67 916.38,-97.51"/>
</g>
<!-- Node10 -->
<g id="node10" class="node">
<title>Node10</title>
<g id="a_node10"><a xlink:title=" ">
<polygon fill="white" stroke="#bfbfbf" points="1080.5,-62 1080.5,-92 1236.5,-92 1236.5,-62 1080.5,-62"/>
<text text-anchor="start" x="1088.5" y="-80" font-family="Helvetica,sans-Serif" font-size="10.00">asm/d/d_spline_path</text>
<text text-anchor="middle" x="1158.5" y="-69" font-family="Helvetica,sans-Serif" font-size="10.00">/Init__10dPathCurveFP5dPath.s</text>
</a>
</g>
</g>
<!-- Node1&#45;&gt;Node10 -->
<g id="edge10" class="edge">
<title>Node1&#45;&gt;Node10</title>
<path fill="none" stroke="midnightblue" d="M609.32,-140.57C706.69,-136 905.26,-124.14 1071.5,-98 1078.29,-96.93 1085.34,-95.63 1092.35,-94.22"/>
<polygon fill="midnightblue" stroke="midnightblue" points="1093.5,-97.55 1102.56,-92.07 1092.06,-90.7 1093.5,-97.55"/>
</g>
<!-- Node11 -->
<g id="node11" class="node">
<title>Node11</title>
<g id="a_node11"><a xlink:title=" ">
<polygon fill="white" stroke="#bfbfbf" points="1254.5,-62 1254.5,-92 1400.5,-92 1400.5,-62 1254.5,-62"/>
<text text-anchor="start" x="1262.5" y="-80" font-family="Helvetica,sans-Serif" font-size="10.00">asm/d/d_spline_path</text>
<text text-anchor="middle" x="1327.5" y="-69" font-family="Helvetica,sans-Serif" font-size="10.00">/bSpline2__10dPathCurveFf.s</text>
</a>
</g>
</g>
<!-- Node1&#45;&gt;Node11 -->
<g id="edge11" class="edge">
<title>Node1&#45;&gt;Node11</title>
<path fill="none" stroke="midnightblue" d="M609.46,-142.64C730.44,-141.14 1012.1,-133.73 1245.5,-98 1252.12,-96.99 1258.99,-95.7 1265.8,-94.27"/>
<polygon fill="midnightblue" stroke="midnightblue" points="1266.71,-97.65 1275.72,-92.08 1265.2,-90.81 1266.71,-97.65"/>
</g>
<!-- Node4&#45;&gt;Node3 -->
<g id="edge4" class="edge">
<title>Node4&#45;&gt;Node3</title>
<path fill="none" stroke="midnightblue" d="M158.51,-67.23C152.91,-57.39 143.67,-41.16 136.55,-28.66"/>
<polygon fill="midnightblue" stroke="midnightblue" points="139.4,-26.59 131.41,-19.63 133.32,-30.05 139.4,-26.59"/>
</g>
</g>
</svg>
        <g id="navigator" transform="translate(0 0)" fill="#404254">
                <rect fill="#f2f5e9" fill-opacity="0.5" stroke="#606060" stroke-width=".5" x="0" y="0" width="60" height="60"/>
                <use id="zoomplus" xlink:href="#zoomPlus" x="17" y="9" onmousedown="handleZoom(evt,'in')"/>
                <use id="zoomminus" xlink:href="#zoomMin" x="42" y="9" onmousedown="handleZoom(evt,'out')"/>
                <use id="reset" xlink:href="#resetDef" x="30" y="36" onmousedown="handleReset()"/>
                <g id="arrowUp" xlink:href="#dirArrow" transform="translate(30 24)" onmousedown="handlePan(0,-1)">
                  <use xlink:href="#rim" fill="#404040">
                        <set attributeName="fill" to="#808080" begin="arrowUp.mouseover" end="arrowUp.mouseout"/>
                  </use>
                  <path fill="none" stroke="white" stroke-width="1.5" d="M0,-3.0v7 M-2.5,-0.5L0,-3.0L2.5,-0.5"/>
                </g>
                <g id="arrowRight" xlink:href="#dirArrow" transform="rotate(90) translate(36 -43)" onmousedown="handlePan(1,0)">
                  <use xlink:href="#rim" fill="#404040">
                        <set attributeName="fill" to="#808080" begin="arrowRight.mouseover" end="arrowRight.mouseout"/>
                  </use>
                  <path fill="none" stroke="white" stroke-width="1.5" d="M0,-3.0v7 M-2.5,-0.5L0,-3.0L2.5,-0.5"/>
                </g>
                <g id="arrowDown" xlink:href="#dirArrow" transform="rotate(180) translate(-30 -48)" onmousedown="handlePan(0,1)">
                  <use xlink:href="#rim" fill="#404040">
                        <set attributeName="fill" to="#808080" begin="arrowDown.mouseover" end="arrowDown.mouseout"/>
                  </use>
                  <path fill="none" stroke="white" stroke-width="1.5" d="M0,-3.0v7 M-2.5,-0.5L0,-3.0L2.5,-0.5"/>
                </g>
                <g id="arrowLeft" xlink:href="#dirArrow" transform="rotate(270) translate(-36 17)" onmousedown="handlePan(-1,0)">
                  <use xlink:href="#rim" fill="#404040">
                        <set attributeName="fill" to="#808080" begin="arrowLeft.mouseover" end="arrowLeft.mouseout"/>
                  </use>
                  <path fill="none" stroke="white" stroke-width="1.5" d="M0,-3.0v7 M-2.5,-0.5L0,-3.0L2.5,-0.5"/>
                </g>
        </g>
        <svg viewBox="0 0 15 15" width="100%" height="30px" preserveAspectRatio="xMaxYMin meet">
         <g id="arrow_out" transform="scale(0.3 0.3)">
          <a xlink:href="d__spline__path_8cpp__incl_org.svg" target="_base">
           <rect id="button" ry="5" rx="5" y="6" x="6" height="38" width="38"
                fill="#f2f5e9" fill-opacity="0.5" stroke="#606060" stroke-width="1.0"/>
           <path id="arrow"
             d="M 11.500037,31.436501 C 11.940474,20.09759 22.043105,11.32322 32.158766,21.979434 L 37.068811,17.246167 C 37.068811,17.246167 37.088388,32 37.088388,32 L 22.160133,31.978069 C 22.160133,31.978069 26.997745,27.140456 26.997745,27.140456 C 18.528582,18.264221 13.291696,25.230495 11.500037,31.436501 z"
             style="fill:#404040;"/>
          </a>
         </g>
        </svg>
</svg>
