<?xml version="1.0" encoding="UTF-8" standalone="no"?>
<!DOCTYPE svg PUBLIC "-//W3C//DTD SVG 1.1//EN"
 "http://www.w3.org/Graphics/SVG/1.1/DTD/svg11.dtd">
<!-- Generated by graphviz version 2.47.0 (20210316.2052)
 -->
<!-- Title: src/d/d_scope.cpp Pages: 1 -->
<!--zoomable 151 -->
<svg id="main" version="1.1" xmlns="http://www.w3.org/2000/svg" xmlns:xlink="http://www.w3.org/1999/xlink" xml:space="preserve" onload="init(evt)">
<style type="text/css"><![CDATA[
.edge:hover path { stroke: red; }
.edge:hover polygon { stroke: red; fill: red; }
]]></style>
<script type="text/javascript"><![CDATA[
var edges = document.getElementsByTagName('g');
if (edges && edges.length) {
  for (var i=0;i<edges.length;i++) {
    if (edges[i].id.substr(0,4)=='edge') {
      edges[i].setAttribute('class','edge');
    }
  }
}
]]></script>
        <defs>
                <circle id="rim" cx="0" cy="0" r="7"/>
                <circle id="rim2" cx="0" cy="0" r="3.5"/>
                <g id="zoomPlus">
                        <use xlink:href="#rim" fill="#404040">
                                <set attributeName="fill" to="#808080" begin="zoomplus.mouseover" end="zoomplus.mouseout"/>
                        </use>
                        <path d="M-4,0h8M0,-4v8" fill="none" stroke="white" stroke-width="1.5" pointer-events="none"/>
                </g>
                <g id="zoomMin">
                        <use xlink:href="#rim" fill="#404040">
                                <set attributeName="fill" to="#808080" begin="zoomminus.mouseover" end="zoomminus.mouseout"/>
                        </use>
                        <path d="M-4,0h8" fill="none" stroke="white" stroke-width="1.5" pointer-events="none"/>
                </g>
                <g id="dirArrow">
                        <path fill="none" stroke="white" stroke-width="1.5" d="M0,-3.0v7 M-2.5,-0.5L0,-3.0L2.5,-0.5"/>
                </g>
               <g id="resetDef">
                       <use xlink:href="#rim2" fill="#404040">
                               <set attributeName="fill" to="#808080" begin="reset.mouseover" end="reset.mouseout"/>
                       </use>
               </g>
        </defs>

<script type="text/javascript">
var viewWidth = 1662;
var viewHeight = 151;
var sectionId = 'dynsection-0';
</script>
<script xlink:href="svgpan.js"/>
<svg id="graph" class="graph">
<g id="viewport">
<title>src/d/d_scope.cpp</title>
<polygon fill="white" stroke="transparent" points="-4,4 -4,-147 1658,-147 1658,4 -4,4"/>
<!-- Node1 -->
<g id="node1" class="node">
<title>Node1</title>
<g id="a_node1"><a xlink:title=" ">
<polygon fill="#bfbfbf" stroke="black" points="679.5,-123.5 679.5,-142.5 775.5,-142.5 775.5,-123.5 679.5,-123.5"/>
<text text-anchor="middle" x="727.5" y="-130.5" font-family="Helvetica,sans-Serif" font-size="10.00">src/d/d_scope.cpp</text>
</a>
</g>
</g>
<!-- Node2 -->
<g id="node2" class="node">
<title>Node2</title>
<g id="a_node2"><a xlink:href="dol2asm_8h.html" target="_top" xlink:title=" ">
<polygon fill="white" stroke="black" points="0,-62 0,-81 61,-81 61,-62 0,-62"/>
<text text-anchor="middle" x="30.5" y="-69" font-family="Helvetica,sans-Serif" font-size="10.00">dol2asm.h</text>
</a>
</g>
</g>
<!-- Node1&#45;&gt;Node2 -->
<g id="edge1" class="edge">
<title>Node1&#45;&gt;Node2</title>
<path fill="none" stroke="midnightblue" d="M679.13,-132.65C570.26,-133.24 298.05,-129.87 75.5,-87 71.53,-86.24 67.43,-85.23 63.38,-84.1"/>
<polygon fill="midnightblue" stroke="midnightblue" points="64.16,-80.68 53.58,-81.12 62.13,-87.38 64.16,-80.68"/>
</g>
<!-- Node3 -->
<g id="node3" class="node">
<title>Node3</title>
<g id="a_node3"><a xlink:href="types_8h.html" target="_top" xlink:title=" ">
<polygon fill="white" stroke="black" points="80,-0.5 80,-19.5 161,-19.5 161,-0.5 80,-0.5"/>
<text text-anchor="middle" x="120.5" y="-7.5" font-family="Helvetica,sans-Serif" font-size="10.00">dolphin/types.h</text>
</a>
</g>
</g>
<!-- Node1&#45;&gt;Node3 -->
<g id="edge2" class="edge">
<title>Node1&#45;&gt;Node3</title>
<path fill="none" stroke="midnightblue" d="M679.03,-132.17C540.11,-132.15 148,-128.41 109.5,-87 95.01,-71.41 102.87,-45.7 110.84,-28.56"/>
<polygon fill="midnightblue" stroke="midnightblue" points="113.98,-30.11 115.38,-19.6 107.74,-26.94 113.98,-30.11"/>
</g>
<!-- Node4 -->
<g id="node4" class="node">
<title>Node4</title>
<g id="a_node4"><a xlink:href="d__scope_8h.html" target="_top" xlink:title=" ">
<polygon fill="white" stroke="black" points="118,-62 118,-81 187,-81 187,-62 118,-62"/>
<text text-anchor="middle" x="152.5" y="-69" font-family="Helvetica,sans-Serif" font-size="10.00">d/d_scope.h</text>
</a>
</g>
</g>
<!-- Node1&#45;&gt;Node4 -->
<g id="edge3" class="edge">
<title>Node1&#45;&gt;Node4</title>
<path fill="none" stroke="midnightblue" d="M679.37,-131.67C585.52,-130.2 371.9,-122.82 196.5,-87 192.62,-86.21 188.61,-85.18 184.65,-84.05"/>
<polygon fill="midnightblue" stroke="midnightblue" points="185.65,-80.69 175.06,-81.06 183.57,-87.38 185.65,-80.69"/>
</g>
<!-- Node5 -->
<g id="node5" class="node">
<title>Node5</title>
<g id="a_node5"><a xlink:title=" ">
<polygon fill="white" stroke="#bfbfbf" points="205,-56.5 205,-86.5 310,-86.5 310,-56.5 205,-56.5"/>
<text text-anchor="start" x="213" y="-74.5" font-family="Helvetica,sans-Serif" font-size="10.00">asm/d/d_scope/__ct</text>
<text text-anchor="middle" x="257.5" y="-63.5" font-family="Helvetica,sans-Serif" font-size="10.00">__8dScope_cFUc.s</text>
</a>
</g>
</g>
<!-- Node1&#45;&gt;Node5 -->
<g id="edge5" class="edge">
<title>Node1&#45;&gt;Node5</title>
<path fill="none" stroke="midnightblue" d="M679.19,-128.56C604.42,-122.82 456.04,-109.78 320.34,-87"/>
<polygon fill="midnightblue" stroke="midnightblue" points="320.62,-83.5 310.18,-85.27 319.45,-90.4 320.62,-83.5"/>
</g>
<!-- Node6 -->
<g id="node6" class="node">
<title>Node6</title>
<g id="a_node6"><a xlink:title=" ">
<polygon fill="white" stroke="#bfbfbf" points="328.5,-56.5 328.5,-86.5 456.5,-86.5 456.5,-56.5 328.5,-56.5"/>
<text text-anchor="start" x="336.5" y="-74.5" font-family="Helvetica,sans-Serif" font-size="10.00">asm/d/d_scope/__ct</text>
<text text-anchor="middle" x="392.5" y="-63.5" font-family="Helvetica,sans-Serif" font-size="10.00">__Q28JUtility6TColorFv.s</text>
</a>
</g>
</g>
<!-- Node1&#45;&gt;Node6 -->
<g id="edge6" class="edge">
<title>Node1&#45;&gt;Node6</title>
<path fill="none" stroke="midnightblue" d="M679.34,-124.03C626.92,-115.28 540.66,-100.66 466.5,-87 466.4,-86.98 466.3,-86.96 466.2,-86.94"/>
<polygon fill="midnightblue" stroke="midnightblue" points="467.13,-83.56 456.66,-85.16 465.85,-90.44 467.13,-83.56"/>
</g>
<!-- Node7 -->
<g id="node7" class="node">
<title>Node7</title>
<g id="a_node7"><a xlink:title=" ">
<polygon fill="white" stroke="#bfbfbf" points="475,-56.5 475,-86.5 580,-86.5 580,-56.5 475,-56.5"/>
<text text-anchor="start" x="483" y="-74.5" font-family="Helvetica,sans-Serif" font-size="10.00">asm/d/d_scope/__dt</text>
<text text-anchor="middle" x="527.5" y="-63.5" font-family="Helvetica,sans-Serif" font-size="10.00">__8dScope_cFv.s</text>
</a>
</g>
</g>
<!-- Node1&#45;&gt;Node7 -->
<g id="edge7" class="edge">
<title>Node1&#45;&gt;Node7</title>
<path fill="none" stroke="midnightblue" d="M698.84,-123.48C669.1,-114.63 621.78,-100.55 584.4,-89.43"/>
<polygon fill="midnightblue" stroke="midnightblue" points="585.22,-86.02 574.64,-86.52 583.22,-92.73 585.22,-86.02"/>
</g>
<!-- Node8 -->
<g id="node8" class="node">
<title>Node8</title>
<g id="a_node8"><a xlink:title=" ">
<polygon fill="white" stroke="#bfbfbf" points="598,-56.5 598,-86.5 723,-86.5 723,-56.5 598,-56.5"/>
<text text-anchor="start" x="606" y="-74.5" font-family="Helvetica,sans-Serif" font-size="10.00">asm/d/d_scope/_execute</text>
<text text-anchor="middle" x="660.5" y="-63.5" font-family="Helvetica,sans-Serif" font-size="10.00">__8dScope_cFUl.s</text>
</a>
</g>
</g>
<!-- Node1&#45;&gt;Node8 -->
<g id="edge8" class="edge">
<title>Node1&#45;&gt;Node8</title>
<path fill="none" stroke="midnightblue" d="M717.9,-123.48C709.08,-115.64 695.65,-103.71 684,-93.37"/>
<polygon fill="midnightblue" stroke="midnightblue" points="686.09,-90.55 676.29,-86.52 681.44,-95.78 686.09,-90.55"/>
</g>
<!-- Node9 -->
<g id="node9" class="node">
<title>Node9</title>
<g id="a_node9"><a xlink:title=" ">
<polygon fill="white" stroke="#bfbfbf" points="741,-56.5 741,-86.5 848,-86.5 848,-56.5 741,-56.5"/>
<text text-anchor="start" x="749" y="-74.5" font-family="Helvetica,sans-Serif" font-size="10.00">asm/d/d_scope/draw</text>
<text text-anchor="middle" x="794.5" y="-63.5" font-family="Helvetica,sans-Serif" font-size="10.00">__8dScope_cFv.s</text>
</a>
</g>
</g>
<!-- Node1&#45;&gt;Node9 -->
<g id="edge9" class="edge">
<title>Node1&#45;&gt;Node9</title>
<path fill="none" stroke="midnightblue" d="M737.1,-123.48C745.92,-115.64 759.35,-103.71 771,-93.37"/>
<polygon fill="midnightblue" stroke="midnightblue" points="773.56,-95.78 778.71,-86.52 768.91,-90.55 773.56,-95.78"/>
</g>
<!-- Node10 -->
<g id="node10" class="node">
<title>Node10</title>
<g id="a_node10"><a xlink:title=" ">
<polygon fill="white" stroke="#bfbfbf" points="866.5,-56.5 866.5,-86.5 982.5,-86.5 982.5,-56.5 866.5,-56.5"/>
<text text-anchor="start" x="874.5" y="-74.5" font-family="Helvetica,sans-Serif" font-size="10.00">asm/d/d_scope/isDead</text>
<text text-anchor="middle" x="924.5" y="-63.5" font-family="Helvetica,sans-Serif" font-size="10.00">__8dScope_cFv.s</text>
</a>
</g>
</g>
<!-- Node1&#45;&gt;Node10 -->
<g id="edge10" class="edge">
<title>Node1&#45;&gt;Node10</title>
<path fill="none" stroke="midnightblue" d="M755.73,-123.48C785.02,-114.63 831.63,-100.55 868.45,-89.43"/>
<polygon fill="midnightblue" stroke="midnightblue" points="869.51,-92.76 878.07,-86.52 867.49,-86.06 869.51,-92.76"/>
</g>
<!-- Node11 -->
<g id="node11" class="node">
<title>Node11</title>
<g id="a_node11"><a xlink:title=" ">
<polygon fill="white" stroke="#bfbfbf" points="1001,-56.5 1001,-86.5 1114,-86.5 1114,-56.5 1001,-56.5"/>
<text text-anchor="start" x="1009" y="-74.5" font-family="Helvetica,sans-Serif" font-size="10.00">asm/d/d_scope/open</text>
<text text-anchor="middle" x="1057.5" y="-63.5" font-family="Helvetica,sans-Serif" font-size="10.00">_init__8dScope_cFv.s</text>
</a>
</g>
</g>
<!-- Node1&#45;&gt;Node11 -->
<g id="edge11" class="edge">
<title>Node1&#45;&gt;Node11</title>
<path fill="none" stroke="midnightblue" d="M775.8,-124.47C826.76,-116.37 909.64,-102.75 990.77,-87.09"/>
<polygon fill="midnightblue" stroke="midnightblue" points="991.5,-90.51 1000.65,-85.17 990.17,-83.64 991.5,-90.51"/>
</g>
<!-- Node12 -->
<g id="node12" class="node">
<title>Node12</title>
<g id="a_node12"><a xlink:title=" ">
<polygon fill="white" stroke="#bfbfbf" points="1132,-56.5 1132,-86.5 1251,-86.5 1251,-56.5 1132,-56.5"/>
<text text-anchor="start" x="1140" y="-74.5" font-family="Helvetica,sans-Serif" font-size="10.00">asm/d/d_scope/open</text>
<text text-anchor="middle" x="1191.5" y="-63.5" font-family="Helvetica,sans-Serif" font-size="10.00">_proc__8dScope_cFv.s</text>
</a>
</g>
</g>
<!-- Node1&#45;&gt;Node12 -->
<g id="edge12" class="edge">
<title>Node1&#45;&gt;Node12</title>
<path fill="none" stroke="midnightblue" d="M775.56,-128.05C848.38,-121.74 991.21,-108.07 1121.69,-87.2"/>
<polygon fill="midnightblue" stroke="midnightblue" points="1122.54,-90.61 1131.86,-85.56 1121.43,-83.7 1122.54,-90.61"/>
</g>
<!-- Node13 -->
<g id="node13" class="node">
<title>Node13</title>
<g id="a_node13"><a xlink:title=" ">
<polygon fill="white" stroke="#bfbfbf" points="1269,-56.5 1269,-86.5 1388,-86.5 1388,-56.5 1269,-56.5"/>
<text text-anchor="start" x="1277" y="-74.5" font-family="Helvetica,sans-Serif" font-size="10.00">asm/d/d_scope/close</text>
<text text-anchor="middle" x="1328.5" y="-63.5" font-family="Helvetica,sans-Serif" font-size="10.00">_proc__8dScope_cFv.s</text>
</a>
</g>
</g>
<!-- Node1&#45;&gt;Node13 -->
<g id="edge13" class="edge">
<title>Node1&#45;&gt;Node13</title>
<path fill="none" stroke="midnightblue" d="M775.51,-129.97C867.5,-125.65 1075.07,-113.79 1258.76,-87.14"/>
<polygon fill="midnightblue" stroke="midnightblue" points="1259.49,-90.57 1268.87,-85.66 1258.47,-83.65 1259.49,-90.57"/>
</g>
<!-- Node14 -->
<g id="node14" class="node">
<title>Node14</title>
<g id="a_node14"><a xlink:title=" ">
<polygon fill="white" stroke="#bfbfbf" points="1406.5,-56.5 1406.5,-86.5 1520.5,-86.5 1520.5,-56.5 1406.5,-56.5"/>
<text text-anchor="start" x="1414.5" y="-74.5" font-family="Helvetica,sans-Serif" font-size="10.00">asm/d/d_scope/__dt</text>
<text text-anchor="middle" x="1463.5" y="-63.5" font-family="Helvetica,sans-Serif" font-size="10.00">__11dMeterSub_cFv.s</text>
</a>
</g>
</g>
<!-- Node1&#45;&gt;Node14 -->
<g id="edge14" class="edge">
<title>Node1&#45;&gt;Node14</title>
<path fill="none" stroke="midnightblue" d="M775.69,-131.23C884.62,-128.95 1158.2,-120.25 1396.13,-87.05"/>
<polygon fill="midnightblue" stroke="midnightblue" points="1396.95,-90.47 1406.36,-85.6 1395.97,-83.53 1396.95,-90.47"/>
</g>
<!-- Node15 -->
<g id="node15" class="node">
<title>Node15</title>
<g id="a_node15"><a xlink:title=" ">
<polygon fill="white" stroke="#bfbfbf" points="1539,-56.5 1539,-86.5 1654,-86.5 1654,-56.5 1539,-56.5"/>
<text text-anchor="start" x="1547" y="-74.5" font-family="Helvetica,sans-Serif" font-size="10.00">asm/d/d_scope/__sinit</text>
<text text-anchor="middle" x="1596.5" y="-63.5" font-family="Helvetica,sans-Serif" font-size="10.00">_d_scope_cpp.s</text>
</a>
</g>
</g>
<!-- Node1&#45;&gt;Node15 -->
<g id="edge15" class="edge">
<title>Node1&#45;&gt;Node15</title>
<path fill="none" stroke="midnightblue" d="M775.66,-131.93C899.2,-131.18 1237.46,-125.59 1528.52,-86.96"/>
<polygon fill="midnightblue" stroke="midnightblue" points="1529.41,-90.38 1538.86,-85.58 1528.48,-83.44 1529.41,-90.38"/>
</g>
<!-- Node4&#45;&gt;Node3 -->
<g id="edge4" class="edge">
<title>Node4&#45;&gt;Node3</title>
<path fill="none" stroke="midnightblue" d="M147.92,-61.98C143.26,-53.32 135.91,-39.65 129.99,-28.65"/>
<polygon fill="midnightblue" stroke="midnightblue" points="132.9,-26.66 125.08,-19.51 126.73,-29.97 132.9,-26.66"/>
</g>
</g>
</svg>
        <g id="navigator" transform="translate(0 0)" fill="#404254">
                <rect fill="#f2f5e9" fill-opacity="0.5" stroke="#606060" stroke-width=".5" x="0" y="0" width="60" height="60"/>
                <use id="zoomplus" xlink:href="#zoomPlus" x="17" y="9" onmousedown="handleZoom(evt,'in')"/>
                <use id="zoomminus" xlink:href="#zoomMin" x="42" y="9" onmousedown="handleZoom(evt,'out')"/>
                <use id="reset" xlink:href="#resetDef" x="30" y="36" onmousedown="handleReset()"/>
                <g id="arrowUp" xlink:href="#dirArrow" transform="translate(30 24)" onmousedown="handlePan(0,-1)">
                  <use xlink:href="#rim" fill="#404040">
                        <set attributeName="fill" to="#808080" begin="arrowUp.mouseover" end="arrowUp.mouseout"/>
                  </use>
                  <path fill="none" stroke="white" stroke-width="1.5" d="M0,-3.0v7 M-2.5,-0.5L0,-3.0L2.5,-0.5"/>
                </g>
                <g id="arrowRight" xlink:href="#dirArrow" transform="rotate(90) translate(36 -43)" onmousedown="handlePan(1,0)">
                  <use xlink:href="#rim" fill="#404040">
                        <set attributeName="fill" to="#808080" begin="arrowRight.mouseover" end="arrowRight.mouseout"/>
                  </use>
                  <path fill="none" stroke="white" stroke-width="1.5" d="M0,-3.0v7 M-2.5,-0.5L0,-3.0L2.5,-0.5"/>
                </g>
                <g id="arrowDown" xlink:href="#dirArrow" transform="rotate(180) translate(-30 -48)" onmousedown="handlePan(0,1)">
                  <use xlink:href="#rim" fill="#404040">
                        <set attributeName="fill" to="#808080" begin="arrowDown.mouseover" end="arrowDown.mouseout"/>
                  </use>
                  <path fill="none" stroke="white" stroke-width="1.5" d="M0,-3.0v7 M-2.5,-0.5L0,-3.0L2.5,-0.5"/>
                </g>
                <g id="arrowLeft" xlink:href="#dirArrow" transform="rotate(270) translate(-36 17)" onmousedown="handlePan(-1,0)">
                  <use xlink:href="#rim" fill="#404040">
                        <set attributeName="fill" to="#808080" begin="arrowLeft.mouseover" end="arrowLeft.mouseout"/>
                  </use>
                  <path fill="none" stroke="white" stroke-width="1.5" d="M0,-3.0v7 M-2.5,-0.5L0,-3.0L2.5,-0.5"/>
                </g>
        </g>
        <svg viewBox="0 0 15 15" width="100%" height="30px" preserveAspectRatio="xMaxYMin meet">
         <g id="arrow_out" transform="scale(0.3 0.3)">
          <a xlink:href="d__scope_8cpp__incl_org.svg" target="_base">
           <rect id="button" ry="5" rx="5" y="6" x="6" height="38" width="38"
                fill="#f2f5e9" fill-opacity="0.5" stroke="#606060" stroke-width="1.0"/>
           <path id="arrow"
             d="M 11.500037,31.436501 C 11.940474,20.09759 22.043105,11.32322 32.158766,21.979434 L 37.068811,17.246167 C 37.068811,17.246167 37.088388,32 37.088388,32 L 22.160133,31.978069 C 22.160133,31.978069 26.997745,27.140456 26.997745,27.140456 C 18.528582,18.264221 13.291696,25.230495 11.500037,31.436501 z"
             style="fill:#404040;"/>
          </a>
         </g>
        </svg>
</svg>
