<?xml version="1.0" encoding="UTF-8" standalone="no"?>
<!DOCTYPE svg PUBLIC "-//W3C//DTD SVG 1.1//EN"
 "http://www.w3.org/Graphics/SVG/1.1/DTD/svg11.dtd">
<!-- Generated by graphviz version 2.47.0 (20210316.2052)
 -->
<!-- Title: src/d/save/d_save_init.cpp Pages: 1 -->
<svg width="370pt" height="151pt"
 viewBox="0.00 0.00 369.50 151.00" xmlns="http://www.w3.org/2000/svg" xmlns:xlink="http://www.w3.org/1999/xlink">
<g id="graph0" class="graph" transform="scale(1 1) rotate(0) translate(4 147)">
<title>src/d/save/d_save_init.cpp</title>
<polygon fill="white" stroke="transparent" points="-4,4 -4,-147 365.5,-147 365.5,4 -4,4"/>
<!-- Node1 -->
<g id="node1" class="node">
<title>Node1</title>
<g id="a_node1"><a xlink:title=" ">
<polygon fill="#bfbfbf" stroke="black" points="63,-123.5 63,-142.5 196,-142.5 196,-123.5 63,-123.5"/>
<text text-anchor="middle" x="129.5" y="-130.5" font-family="Helvetica,sans-Serif" font-size="10.00">src/d/save/d_save_init.cpp</text>
</a>
</g>
</g>
<!-- Node2 -->
<g id="node2" class="node">
<title>Node2</title>
<g id="a_node2"><a xlink:href="dol2asm_8h.html" target="_top" xlink:title=" ">
<polygon fill="white" stroke="black" points="0,-62 0,-81 61,-81 61,-62 0,-62"/>
<text text-anchor="middle" x="30.5" y="-69" font-family="Helvetica,sans-Serif" font-size="10.00">dol2asm.h</text>
</a>
</g>
</g>
<!-- Node1&#45;&gt;Node2 -->
<g id="edge1" class="edge">
<title>Node1&#45;&gt;Node2</title>
<path fill="none" stroke="midnightblue" d="M115.32,-123.48C99.14,-113.75 72.47,-97.73 53.36,-86.24"/>
<polygon fill="midnightblue" stroke="midnightblue" points="55.03,-83.16 44.66,-81.01 51.43,-89.16 55.03,-83.16"/>
</g>
<!-- Node3 -->
<g id="node3" class="node">
<title>Node3</title>
<g id="a_node3"><a xlink:href="types_8h.html" target="_top" xlink:title=" ">
<polygon fill="white" stroke="black" points="89,-0.5 89,-19.5 170,-19.5 170,-0.5 89,-0.5"/>
<text text-anchor="middle" x="129.5" y="-7.5" font-family="Helvetica,sans-Serif" font-size="10.00">dolphin/types.h</text>
</a>
</g>
</g>
<!-- Node1&#45;&gt;Node3 -->
<g id="edge2" class="edge">
<title>Node1&#45;&gt;Node3</title>
<path fill="none" stroke="midnightblue" d="M124.12,-123.44C118.94,-114.68 111.49,-100.47 108.5,-87 105.52,-73.55 105.52,-69.45 108.5,-56 110.62,-46.43 115.01,-36.48 119.22,-28.37"/>
<polygon fill="midnightblue" stroke="midnightblue" points="122.32,-30 124.12,-19.56 116.2,-26.6 122.32,-30"/>
</g>
<!-- Node4 -->
<g id="node4" class="node">
<title>Node4</title>
<g id="a_node4"><a xlink:href="d__save__init_8h.html" target="_top" xlink:title=" ">
<polygon fill="white" stroke="black" points="117.5,-62 117.5,-81 223.5,-81 223.5,-62 117.5,-62"/>
<text text-anchor="middle" x="170.5" y="-69" font-family="Helvetica,sans-Serif" font-size="10.00">d/save/d_save_init.h</text>
</a>
</g>
</g>
<!-- Node1&#45;&gt;Node4 -->
<g id="edge3" class="edge">
<title>Node1&#45;&gt;Node4</title>
<path fill="none" stroke="midnightblue" d="M135.37,-123.48C141.46,-114.64 151.14,-100.59 158.8,-89.48"/>
<polygon fill="midnightblue" stroke="midnightblue" points="161.84,-91.23 164.64,-81.01 156.08,-87.26 161.84,-91.23"/>
</g>
<!-- Node5 -->
<g id="node5" class="node">
<title>Node5</title>
<g id="a_node5"><a xlink:title=" ">
<polygon fill="white" stroke="#bfbfbf" points="241.5,-56.5 241.5,-86.5 361.5,-86.5 361.5,-56.5 241.5,-56.5"/>
<text text-anchor="start" x="249.5" y="-74.5" font-family="Helvetica,sans-Serif" font-size="10.00">asm/d/save/d_save_init</text>
<text text-anchor="middle" x="301.5" y="-63.5" font-family="Helvetica,sans-Serif" font-size="10.00">/setInitEventBit__Fv.s</text>
</a>
</g>
</g>
<!-- Node1&#45;&gt;Node5 -->
<g id="edge5" class="edge">
<title>Node1&#45;&gt;Node5</title>
<path fill="none" stroke="midnightblue" d="M154.14,-123.48C179.4,-114.74 219.38,-100.91 251.33,-89.86"/>
<polygon fill="midnightblue" stroke="midnightblue" points="252.66,-93.1 260.96,-86.52 250.37,-86.48 252.66,-93.1"/>
</g>
<!-- Node4&#45;&gt;Node3 -->
<g id="edge4" class="edge">
<title>Node4&#45;&gt;Node3</title>
<path fill="none" stroke="midnightblue" d="M164.63,-61.98C158.54,-53.14 148.86,-39.09 141.2,-27.98"/>
<polygon fill="midnightblue" stroke="midnightblue" points="143.92,-25.76 135.36,-19.51 138.16,-29.73 143.92,-25.76"/>
</g>
</g>
</svg>
