<?xml version="1.0" encoding="UTF-8" standalone="no"?>
<!DOCTYPE svg PUBLIC "-//W3C//DTD SVG 1.1//EN"
 "http://www.w3.org/Graphics/SVG/1.1/DTD/svg11.dtd">
<!-- Generated by graphviz version 2.47.0 (20210316.2052)
 -->
<!-- Title: src/d/s/d_s_name.cpp Pages: 1 -->
<!--zoomable 162 -->
<svg id="main" version="1.1" xmlns="http://www.w3.org/2000/svg" xmlns:xlink="http://www.w3.org/1999/xlink" xml:space="preserve" onload="init(evt)">
<style type="text/css"><![CDATA[
.edge:hover path { stroke: red; }
.edge:hover polygon { stroke: red; fill: red; }
]]></style>
<script type="text/javascript"><![CDATA[
var edges = document.getElementsByTagName('g');
if (edges && edges.length) {
  for (var i=0;i<edges.length;i++) {
    if (edges[i].id.substr(0,4)=='edge') {
      edges[i].setAttribute('class','edge');
    }
  }
}
]]></script>
        <defs>
                <circle id="rim" cx="0" cy="0" r="7"/>
                <circle id="rim2" cx="0" cy="0" r="3.5"/>
                <g id="zoomPlus">
                        <use xlink:href="#rim" fill="#404040">
                                <set attributeName="fill" to="#808080" begin="zoomplus.mouseover" end="zoomplus.mouseout"/>
                        </use>
                        <path d="M-4,0h8M0,-4v8" fill="none" stroke="white" stroke-width="1.5" pointer-events="none"/>
                </g>
                <g id="zoomMin">
                        <use xlink:href="#rim" fill="#404040">
                                <set attributeName="fill" to="#808080" begin="zoomminus.mouseover" end="zoomminus.mouseout"/>
                        </use>
                        <path d="M-4,0h8" fill="none" stroke="white" stroke-width="1.5" pointer-events="none"/>
                </g>
                <g id="dirArrow">
                        <path fill="none" stroke="white" stroke-width="1.5" d="M0,-3.0v7 M-2.5,-0.5L0,-3.0L2.5,-0.5"/>
                </g>
               <g id="resetDef">
                       <use xlink:href="#rim2" fill="#404040">
                               <set attributeName="fill" to="#808080" begin="reset.mouseover" end="reset.mouseout"/>
                       </use>
               </g>
        </defs>

<script type="text/javascript">
var viewWidth = 4061;
var viewHeight = 162;
var sectionId = 'dynsection-0';
</script>
<script xlink:href="svgpan.js"/>
<svg id="graph" class="graph">
<g id="viewport">
<title>src/d/s/d_s_name.cpp</title>
<polygon fill="white" stroke="transparent" points="-4,4 -4,-158 4057,-158 4057,4 -4,4"/>
<!-- Node1 -->
<g id="node1" class="node">
<title>Node1</title>
<g id="a_node1"><a xlink:title=" ">
<polygon fill="#bfbfbf" stroke="black" points="1729,-134.5 1729,-153.5 1842,-153.5 1842,-134.5 1729,-134.5"/>
<text text-anchor="middle" x="1785.5" y="-141.5" font-family="Helvetica,sans-Serif" font-size="10.00">src/d/s/d_s_name.cpp</text>
</a>
</g>
</g>
<!-- Node2 -->
<g id="node2" class="node">
<title>Node2</title>
<g id="a_node2"><a xlink:href="dol2asm_8h.html" target="_top" xlink:title=" ">
<polygon fill="white" stroke="black" points="0,-67.5 0,-86.5 61,-86.5 61,-67.5 0,-67.5"/>
<text text-anchor="middle" x="30.5" y="-74.5" font-family="Helvetica,sans-Serif" font-size="10.00">dol2asm.h</text>
</a>
</g>
</g>
<!-- Node1&#45;&gt;Node2 -->
<g id="edge1" class="edge">
<title>Node1&#45;&gt;Node2</title>
<path fill="none" stroke="midnightblue" d="M1728.69,-142.82C1450.57,-141.76 239.44,-135.05 75.5,-98 68.71,-96.47 61.7,-93.89 55.28,-91.08"/>
<polygon fill="midnightblue" stroke="midnightblue" points="56.34,-87.71 45.81,-86.6 53.35,-94.04 56.34,-87.71"/>
</g>
<!-- Node3 -->
<g id="node3" class="node">
<title>Node3</title>
<g id="a_node3"><a xlink:href="types_8h.html" target="_top" xlink:title=" ">
<polygon fill="white" stroke="black" points="84,-0.5 84,-19.5 165,-19.5 165,-0.5 84,-0.5"/>
<text text-anchor="middle" x="124.5" y="-7.5" font-family="Helvetica,sans-Serif" font-size="10.00">dolphin/types.h</text>
</a>
</g>
</g>
<!-- Node1&#45;&gt;Node3 -->
<g id="edge2" class="edge">
<title>Node1&#45;&gt;Node3</title>
<path fill="none" stroke="midnightblue" d="M1728.85,-142.55C1439.32,-140.15 137.39,-127.67 108.5,-98 90.54,-79.55 102.97,-47.95 113.69,-28.33"/>
<polygon fill="midnightblue" stroke="midnightblue" points="116.8,-29.94 118.82,-19.54 110.75,-26.42 116.8,-29.94"/>
</g>
<!-- Node4 -->
<g id="node4" class="node">
<title>Node4</title>
<g id="a_node4"><a xlink:href="d__s__name_8h.html" target="_top" xlink:title=" ">
<polygon fill="white" stroke="black" points="117.5,-67.5 117.5,-86.5 203.5,-86.5 203.5,-67.5 117.5,-67.5"/>
<text text-anchor="middle" x="160.5" y="-74.5" font-family="Helvetica,sans-Serif" font-size="10.00">d/s/d_s_name.h</text>
</a>
</g>
</g>
<!-- Node1&#45;&gt;Node4 -->
<g id="edge3" class="edge">
<title>Node1&#45;&gt;Node4</title>
<path fill="none" stroke="midnightblue" d="M1728.96,-142.51C1465.32,-140.09 363.26,-128.23 212.5,-98 204.23,-96.34 195.56,-93.49 187.73,-90.46"/>
<polygon fill="midnightblue" stroke="midnightblue" points="188.92,-87.16 178.34,-86.59 186.25,-93.63 188.92,-87.16"/>
</g>
<!-- Node5 -->
<g id="node5" class="node">
<title>Node5</title>
<g id="a_node5"><a xlink:title=" ">
<polygon fill="white" stroke="#bfbfbf" points="221.5,-62 221.5,-92 337.5,-92 337.5,-62 221.5,-62"/>
<text text-anchor="start" x="229.5" y="-80" font-family="Helvetica,sans-Serif" font-size="10.00">asm/d/s/d_s_name/_</text>
<text text-anchor="middle" x="279.5" y="-69" font-family="Helvetica,sans-Serif" font-size="10.00">_ct__9dSn_HIO_cFv.s</text>
</a>
</g>
</g>
<!-- Node1&#45;&gt;Node5 -->
<g id="edge5" class="edge">
<title>Node1&#45;&gt;Node5</title>
<path fill="none" stroke="midnightblue" d="M1728.68,-143.15C1496.66,-143.47 620.5,-141.68 347.5,-98 342.11,-97.14 336.54,-95.97 331.02,-94.64"/>
<polygon fill="midnightblue" stroke="midnightblue" points="331.75,-91.21 321.19,-92.08 329.99,-97.98 331.75,-91.21"/>
</g>
<!-- Node6 -->
<g id="node6" class="node">
<title>Node6</title>
<g id="a_node6"><a xlink:title=" ">
<polygon fill="white" stroke="#bfbfbf" points="356,-56.5 356,-97.5 481,-97.5 481,-56.5 356,-56.5"/>
<text text-anchor="start" x="364" y="-85.5" font-family="Helvetica,sans-Serif" font-size="10.00">asm/d/s/d_s_name/d</text>
<text text-anchor="start" x="364" y="-74.5" font-family="Helvetica,sans-Serif" font-size="10.00">_s_d_s_name__phase_1</text>
<text text-anchor="middle" x="418.5" y="-63.5" font-family="Helvetica,sans-Serif" font-size="10.00">__FPc.s</text>
</a>
</g>
</g>
<!-- Node1&#45;&gt;Node6 -->
<g id="edge6" class="edge">
<title>Node1&#45;&gt;Node6</title>
<path fill="none" stroke="midnightblue" d="M1728.91,-142.81C1514.88,-141.81 754.17,-135.75 491.04,-97.82"/>
<polygon fill="midnightblue" stroke="midnightblue" points="491.55,-94.35 481.14,-96.34 490.51,-101.28 491.55,-94.35"/>
</g>
<!-- Node7 -->
<g id="node7" class="node">
<title>Node7</title>
<g id="a_node7"><a xlink:title=" ">
<polygon fill="white" stroke="#bfbfbf" points="499,-56.5 499,-97.5 624,-97.5 624,-56.5 499,-56.5"/>
<text text-anchor="start" x="507" y="-85.5" font-family="Helvetica,sans-Serif" font-size="10.00">asm/d/s/d_s_name/d</text>
<text text-anchor="start" x="507" y="-74.5" font-family="Helvetica,sans-Serif" font-size="10.00">_s_d_s_name__phase_2</text>
<text text-anchor="middle" x="561.5" y="-63.5" font-family="Helvetica,sans-Serif" font-size="10.00">__FPc.s</text>
</a>
</g>
</g>
<!-- Node1&#45;&gt;Node7 -->
<g id="edge7" class="edge">
<title>Node1&#45;&gt;Node7</title>
<path fill="none" stroke="midnightblue" d="M1728.72,-142.52C1530.34,-140.59 867.98,-131.81 634.28,-97.85"/>
<polygon fill="midnightblue" stroke="midnightblue" points="634.55,-94.35 624.14,-96.32 633.51,-101.28 634.55,-94.35"/>
</g>
<!-- Node8 -->
<g id="node8" class="node">
<title>Node8</title>
<g id="a_node8"><a xlink:title=" ">
<polygon fill="white" stroke="#bfbfbf" points="642.5,-56.5 642.5,-97.5 780.5,-97.5 780.5,-56.5 642.5,-56.5"/>
<text text-anchor="start" x="650.5" y="-85.5" font-family="Helvetica,sans-Serif" font-size="10.00">asm/d/s/d_s_name/resLoad</text>
<text text-anchor="start" x="650.5" y="-74.5" font-family="Helvetica,sans-Serif" font-size="10.00">__FP30request_of_phase</text>
<text text-anchor="middle" x="711.5" y="-63.5" font-family="Helvetica,sans-Serif" font-size="10.00">_process_classPc.s</text>
</a>
</g>
</g>
<!-- Node1&#45;&gt;Node8 -->
<g id="edge8" class="edge">
<title>Node1&#45;&gt;Node8</title>
<path fill="none" stroke="midnightblue" d="M1728.98,-141.98C1549.4,-138.49 992.28,-125.79 790.85,-97.99"/>
<polygon fill="midnightblue" stroke="midnightblue" points="791.07,-94.48 780.67,-96.52 790.07,-101.41 791.07,-94.48"/>
</g>
<!-- Node9 -->
<g id="node9" class="node">
<title>Node9</title>
<g id="a_node9"><a xlink:title=" ">
<polygon fill="white" stroke="#bfbfbf" points="798.5,-62 798.5,-92 928.5,-92 928.5,-62 798.5,-62"/>
<text text-anchor="start" x="806.5" y="-80" font-family="Helvetica,sans-Serif" font-size="10.00">asm/d/s/d_s_name/create</text>
<text text-anchor="middle" x="863.5" y="-69" font-family="Helvetica,sans-Serif" font-size="10.00">__10dScnName_cFv.s</text>
</a>
</g>
</g>
<!-- Node1&#45;&gt;Node9 -->
<g id="edge9" class="edge">
<title>Node1&#45;&gt;Node9</title>
<path fill="none" stroke="midnightblue" d="M1728.89,-141.55C1564.75,-137.11 1090.63,-122.48 937.5,-98 931.61,-97.06 925.51,-95.83 919.46,-94.45"/>
<polygon fill="midnightblue" stroke="midnightblue" points="919.9,-90.96 909.36,-92 918.25,-97.76 919.9,-90.96"/>
</g>
<!-- Node10 -->
<g id="node10" class="node">
<title>Node10</title>
<g id="a_node10"><a xlink:title=" ">
<polygon fill="white" stroke="#bfbfbf" points="946.5,-62 946.5,-92 1084.5,-92 1084.5,-62 946.5,-62"/>
<text text-anchor="start" x="954.5" y="-80" font-family="Helvetica,sans-Serif" font-size="10.00">asm/d/s/d_s_name/setView</text>
<text text-anchor="middle" x="1015.5" y="-69" font-family="Helvetica,sans-Serif" font-size="10.00">__10dScnName_cFv.s</text>
</a>
</g>
</g>
<!-- Node1&#45;&gt;Node10 -->
<g id="edge10" class="edge">
<title>Node1&#45;&gt;Node10</title>
<path fill="none" stroke="midnightblue" d="M1728.68,-142.8C1610.09,-141.63 1327.84,-134.82 1094.5,-98 1088.26,-97.02 1081.8,-95.77 1075.38,-94.38"/>
<polygon fill="midnightblue" stroke="midnightblue" points="1075.89,-90.9 1065.36,-92.09 1074.33,-97.73 1075.89,-90.9"/>
</g>
<!-- Node11 -->
<g id="node11" class="node">
<title>Node11</title>
<g id="a_node11"><a xlink:title=" ">
<polygon fill="white" stroke="#bfbfbf" points="1103,-62 1103,-92 1240,-92 1240,-62 1103,-62"/>
<text text-anchor="start" x="1111" y="-80" font-family="Helvetica,sans-Serif" font-size="10.00">asm/d/s/d_s_name/execute</text>
<text text-anchor="middle" x="1171.5" y="-69" font-family="Helvetica,sans-Serif" font-size="10.00">__10dScnName_cFv.s</text>
</a>
</g>
</g>
<!-- Node1&#45;&gt;Node11 -->
<g id="edge11" class="edge">
<title>Node1&#45;&gt;Node11</title>
<path fill="none" stroke="midnightblue" d="M1728.78,-141.35C1630.53,-137.81 1422.61,-127.25 1249.5,-98 1243.44,-96.98 1237.16,-95.71 1230.91,-94.33"/>
<polygon fill="midnightblue" stroke="midnightblue" points="1231.7,-90.91 1221.17,-92.06 1230.11,-97.73 1231.7,-90.91"/>
</g>
<!-- Node12 -->
<g id="node12" class="node">
<title>Node12</title>
<g id="a_node12"><a xlink:title=" ">
<polygon fill="white" stroke="#bfbfbf" points="1258.5,-62 1258.5,-92 1382.5,-92 1382.5,-62 1258.5,-62"/>
<text text-anchor="start" x="1266.5" y="-80" font-family="Helvetica,sans-Serif" font-size="10.00">asm/d/s/d_s_name/draw</text>
<text text-anchor="middle" x="1320.5" y="-69" font-family="Helvetica,sans-Serif" font-size="10.00">__10dScnName_cFv.s</text>
</a>
</g>
</g>
<!-- Node1&#45;&gt;Node12 -->
<g id="edge12" class="edge">
<title>Node1&#45;&gt;Node12</title>
<path fill="none" stroke="midnightblue" d="M1728.78,-139.31C1652,-133.68 1510.97,-121.09 1392.5,-98 1387.46,-97.02 1382.25,-95.86 1377.05,-94.6"/>
<polygon fill="midnightblue" stroke="midnightblue" points="1377.66,-91.15 1367.11,-92.09 1375.95,-97.94 1377.66,-91.15"/>
</g>
<!-- Node13 -->
<g id="node13" class="node">
<title>Node13</title>
<g id="a_node13"><a xlink:title=" ">
<polygon fill="white" stroke="#bfbfbf" points="1401,-62 1401,-92 1530,-92 1530,-62 1401,-62"/>
<text text-anchor="start" x="1409" y="-80" font-family="Helvetica,sans-Serif" font-size="10.00">asm/d/s/d_s_name/_</text>
<text text-anchor="middle" x="1465.5" y="-69" font-family="Helvetica,sans-Serif" font-size="10.00">_dt__10dScnName_cFv.s</text>
</a>
</g>
</g>
<!-- Node1&#45;&gt;Node13 -->
<g id="edge13" class="edge">
<title>Node1&#45;&gt;Node13</title>
<path fill="none" stroke="midnightblue" d="M1731.49,-134.45C1681.47,-126.21 1605.14,-112.85 1539.5,-98 1534.8,-96.94 1529.95,-95.77 1525.08,-94.56"/>
<polygon fill="midnightblue" stroke="midnightblue" points="1525.67,-91.1 1515.12,-92.02 1523.94,-97.88 1525.67,-91.1"/>
</g>
<!-- Node14 -->
<g id="node14" class="node">
<title>Node14</title>
<g id="a_node14"><a xlink:title=" ">
<polygon fill="white" stroke="#bfbfbf" points="1548.5,-62 1548.5,-92 1694.5,-92 1694.5,-62 1548.5,-62"/>
<text text-anchor="start" x="1556.5" y="-80" font-family="Helvetica,sans-Serif" font-size="10.00">asm/d/s/d_s_name/FileSelect</text>
<text text-anchor="middle" x="1621.5" y="-69" font-family="Helvetica,sans-Serif" font-size="10.00">Open__10dScnName_cFv.s</text>
</a>
</g>
</g>
<!-- Node1&#45;&gt;Node14 -->
<g id="edge14" class="edge">
<title>Node1&#45;&gt;Node14</title>
<path fill="none" stroke="midnightblue" d="M1763.72,-134.37C1739.01,-124.57 1698.02,-108.33 1666.38,-95.79"/>
<polygon fill="midnightblue" stroke="midnightblue" points="1667.48,-92.46 1656.89,-92.03 1664.9,-98.97 1667.48,-92.46"/>
</g>
<!-- Node15 -->
<g id="node15" class="node">
<title>Node15</title>
<g id="a_node15"><a xlink:title=" ">
<polygon fill="white" stroke="#bfbfbf" points="1712.5,-62 1712.5,-92 1858.5,-92 1858.5,-62 1712.5,-62"/>
<text text-anchor="start" x="1720.5" y="-80" font-family="Helvetica,sans-Serif" font-size="10.00">asm/d/s/d_s_name/FileSelect</text>
<text text-anchor="middle" x="1785.5" y="-69" font-family="Helvetica,sans-Serif" font-size="10.00">Main__10dScnName_cFv.s</text>
</a>
</g>
</g>
<!-- Node1&#45;&gt;Node15 -->
<g id="edge15" class="edge">
<title>Node1&#45;&gt;Node15</title>
<path fill="none" stroke="midnightblue" d="M1785.5,-134.23C1785.5,-126.04 1785.5,-113.42 1785.5,-102.21"/>
<polygon fill="midnightblue" stroke="midnightblue" points="1789,-102.09 1785.5,-92.09 1782,-102.09 1789,-102.09"/>
</g>
<!-- Node16 -->
<g id="node16" class="node">
<title>Node16</title>
<g id="a_node16"><a xlink:title=" ">
<polygon fill="white" stroke="#bfbfbf" points="1876.5,-62 1876.5,-92 2044.5,-92 2044.5,-62 1876.5,-62"/>
<text text-anchor="start" x="1884.5" y="-80" font-family="Helvetica,sans-Serif" font-size="10.00">asm/d/s/d_s_name/FileSelect</text>
<text text-anchor="middle" x="1960.5" y="-69" font-family="Helvetica,sans-Serif" font-size="10.00">MainNormal__10dScnName_cFv.s</text>
</a>
</g>
</g>
<!-- Node1&#45;&gt;Node16 -->
<g id="edge16" class="edge">
<title>Node1&#45;&gt;Node16</title>
<path fill="none" stroke="midnightblue" d="M1808.74,-134.37C1835.23,-124.53 1879.22,-108.19 1913.04,-95.63"/>
<polygon fill="midnightblue" stroke="midnightblue" points="1914.58,-98.79 1922.73,-92.03 1912.14,-92.23 1914.58,-98.79"/>
</g>
<!-- Node17 -->
<g id="node17" class="node">
<title>Node17</title>
<g id="a_node17"><a xlink:title=" ">
<polygon fill="white" stroke="#bfbfbf" points="2062.5,-62 2062.5,-92 2208.5,-92 2208.5,-62 2062.5,-62"/>
<text text-anchor="start" x="2070.5" y="-80" font-family="Helvetica,sans-Serif" font-size="10.00">asm/d/s/d_s_name/FileSelect</text>
<text text-anchor="middle" x="2135.5" y="-69" font-family="Helvetica,sans-Serif" font-size="10.00">Close__10dScnName_cFv.s</text>
</a>
</g>
</g>
<!-- Node1&#45;&gt;Node17 -->
<g id="edge17" class="edge">
<title>Node1&#45;&gt;Node17</title>
<path fill="none" stroke="midnightblue" d="M1842.19,-134.71C1896.59,-126.46 1980.95,-112.92 2053.5,-98 2059.11,-96.85 2064.92,-95.58 2070.73,-94.26"/>
<polygon fill="midnightblue" stroke="midnightblue" points="2071.54,-97.67 2080.49,-92 2069.96,-90.85 2071.54,-97.67"/>
</g>
<!-- Node18 -->
<g id="node18" class="node">
<title>Node18</title>
<g id="a_node18"><a xlink:title=" ">
<polygon fill="white" stroke="#bfbfbf" points="2227,-62 2227,-92 2382,-92 2382,-62 2227,-62"/>
<text text-anchor="start" x="2235" y="-80" font-family="Helvetica,sans-Serif" font-size="10.00">asm/d/s/d_s_name/brightCheck</text>
<text text-anchor="middle" x="2304.5" y="-69" font-family="Helvetica,sans-Serif" font-size="10.00">Open__10dScnName_cFv.s</text>
</a>
</g>
</g>
<!-- Node1&#45;&gt;Node18 -->
<g id="edge18" class="edge">
<title>Node1&#45;&gt;Node18</title>
<path fill="none" stroke="midnightblue" d="M1842.06,-139.32C1924.87,-133.44 2083.8,-120.25 2217.5,-98 2224.18,-96.89 2231.11,-95.58 2238.01,-94.16"/>
<polygon fill="midnightblue" stroke="midnightblue" points="2239.02,-97.52 2248.07,-92.03 2237.56,-90.68 2239.02,-97.52"/>
</g>
<!-- Node19 -->
<g id="node19" class="node">
<title>Node19</title>
<g id="a_node19"><a xlink:title=" ">
<polygon fill="white" stroke="#bfbfbf" points="2400,-62 2400,-92 2555,-92 2555,-62 2400,-62"/>
<text text-anchor="start" x="2408" y="-80" font-family="Helvetica,sans-Serif" font-size="10.00">asm/d/s/d_s_name/brightCheck</text>
<text text-anchor="middle" x="2477.5" y="-69" font-family="Helvetica,sans-Serif" font-size="10.00">__10dScnName_cFv.s</text>
</a>
</g>
</g>
<!-- Node1&#45;&gt;Node19 -->
<g id="edge19" class="edge">
<title>Node1&#45;&gt;Node19</title>
<path fill="none" stroke="midnightblue" d="M1842.22,-141.71C1949.88,-138.6 2191,-128.57 2391.5,-98 2398.32,-96.96 2405.4,-95.67 2412.44,-94.24"/>
<polygon fill="midnightblue" stroke="midnightblue" points="2413.63,-97.57 2422.69,-92.08 2412.18,-90.72 2413.63,-97.57"/>
</g>
<!-- Node20 -->
<g id="node20" class="node">
<title>Node20</title>
<g id="a_node20"><a xlink:title=" ">
<polygon fill="white" stroke="#bfbfbf" points="2573,-62 2573,-92 2734,-92 2734,-62 2573,-62"/>
<text text-anchor="start" x="2581" y="-80" font-family="Helvetica,sans-Serif" font-size="10.00">asm/d/s/d_s_name/changeGame</text>
<text text-anchor="middle" x="2653.5" y="-69" font-family="Helvetica,sans-Serif" font-size="10.00">Scene__10dScnName_cFv.s</text>
</a>
</g>
</g>
<!-- Node1&#45;&gt;Node20 -->
<g id="edge20" class="edge">
<title>Node1&#45;&gt;Node20</title>
<path fill="none" stroke="midnightblue" d="M1842.02,-142.89C1970.84,-141.95 2295.85,-135.69 2564.5,-98 2571.92,-96.96 2579.63,-95.62 2587.27,-94.13"/>
<polygon fill="midnightblue" stroke="midnightblue" points="2588.16,-97.52 2597.26,-92.1 2586.76,-90.66 2588.16,-97.52"/>
</g>
<!-- Node21 -->
<g id="node21" class="node">
<title>Node21</title>
<g id="a_node21"><a xlink:title=" ">
<polygon fill="white" stroke="#bfbfbf" points="2752.5,-62 2752.5,-92 2904.5,-92 2904.5,-62 2752.5,-62"/>
<text text-anchor="start" x="2760.5" y="-80" font-family="Helvetica,sans-Serif" font-size="10.00">asm/d/s/d_s_name/dScnName</text>
<text text-anchor="middle" x="2828.5" y="-69" font-family="Helvetica,sans-Serif" font-size="10.00">_Draw__FP10dScnName_c.s</text>
</a>
</g>
</g>
<!-- Node1&#45;&gt;Node21 -->
<g id="edge21" class="edge">
<title>Node1&#45;&gt;Node21</title>
<path fill="none" stroke="midnightblue" d="M1842.01,-141.71C2020.02,-137.44 2567.68,-122.6 2743.5,-98 2750.81,-96.98 2758.41,-95.62 2765.93,-94.09"/>
<polygon fill="midnightblue" stroke="midnightblue" points="2766.68,-97.51 2775.73,-92 2765.22,-90.67 2766.68,-97.51"/>
</g>
<!-- Node22 -->
<g id="node22" class="node">
<title>Node22</title>
<g id="a_node22"><a xlink:title=" ">
<polygon fill="white" stroke="#bfbfbf" points="2923,-62 2923,-92 3080,-92 3080,-62 2923,-62"/>
<text text-anchor="start" x="2931" y="-80" font-family="Helvetica,sans-Serif" font-size="10.00">asm/d/s/d_s_name/dScnName</text>
<text text-anchor="middle" x="3001.5" y="-69" font-family="Helvetica,sans-Serif" font-size="10.00">_Execute__FP10dScnName_c.s</text>
</a>
</g>
</g>
<!-- Node1&#45;&gt;Node22 -->
<g id="edge22" class="edge">
<title>Node1&#45;&gt;Node22</title>
<path fill="none" stroke="midnightblue" d="M1842.07,-142.12C2040.31,-138.81 2702.94,-125.89 2913.5,-98 2921.14,-96.99 2929.1,-95.63 2936.97,-94.08"/>
<polygon fill="midnightblue" stroke="midnightblue" points="2937.77,-97.49 2946.86,-92.05 2936.36,-90.64 2937.77,-97.49"/>
</g>
<!-- Node23 -->
<g id="node23" class="node">
<title>Node23</title>
<g id="a_node23"><a xlink:title=" ">
<polygon fill="white" stroke="#bfbfbf" points="3098.5,-62 3098.5,-92 3256.5,-92 3256.5,-62 3098.5,-62"/>
<text text-anchor="start" x="3106.5" y="-80" font-family="Helvetica,sans-Serif" font-size="10.00">asm/d/s/d_s_name/dScnName</text>
<text text-anchor="middle" x="3177.5" y="-69" font-family="Helvetica,sans-Serif" font-size="10.00">_IsDelete__FP10dScnName_c.s</text>
</a>
</g>
</g>
<!-- Node1&#45;&gt;Node23 -->
<g id="edge23" class="edge">
<title>Node1&#45;&gt;Node23</title>
<path fill="none" stroke="midnightblue" d="M1842.06,-142.47C2059.64,-140.21 2842.82,-130 3089.5,-98 3097.15,-97.01 3105.11,-95.66 3112.98,-94.12"/>
<polygon fill="midnightblue" stroke="midnightblue" points="3113.77,-97.53 3122.86,-92.1 3112.37,-90.68 3113.77,-97.53"/>
</g>
<!-- Node24 -->
<g id="node24" class="node">
<title>Node24</title>
<g id="a_node24"><a xlink:title=" ">
<polygon fill="white" stroke="#bfbfbf" points="3274.5,-62 3274.5,-92 3426.5,-92 3426.5,-62 3274.5,-62"/>
<text text-anchor="start" x="3282.5" y="-80" font-family="Helvetica,sans-Serif" font-size="10.00">asm/d/s/d_s_name/dScnName</text>
<text text-anchor="middle" x="3350.5" y="-69" font-family="Helvetica,sans-Serif" font-size="10.00">_Delete__FP10dScnName_c.s</text>
</a>
</g>
</g>
<!-- Node1&#45;&gt;Node24 -->
<g id="edge24" class="edge">
<title>Node1&#45;&gt;Node24</title>
<path fill="none" stroke="midnightblue" d="M1842.31,-142.8C2078.39,-141.71 2982.75,-135.18 3265.5,-98 3272.92,-97.02 3280.64,-95.68 3288.27,-94.15"/>
<polygon fill="midnightblue" stroke="midnightblue" points="3289.15,-97.54 3298.21,-92.04 3287.7,-90.69 3289.15,-97.54"/>
</g>
<!-- Node25 -->
<g id="node25" class="node">
<title>Node25</title>
<g id="a_node25"><a xlink:title=" ">
<polygon fill="white" stroke="#bfbfbf" points="3444.5,-62 3444.5,-92 3596.5,-92 3596.5,-62 3444.5,-62"/>
<text text-anchor="start" x="3452.5" y="-80" font-family="Helvetica,sans-Serif" font-size="10.00">asm/d/s/d_s_name/dScnName</text>
<text text-anchor="middle" x="3520.5" y="-69" font-family="Helvetica,sans-Serif" font-size="10.00">_Create__FP11scene_class.s</text>
</a>
</g>
</g>
<!-- Node1&#45;&gt;Node25 -->
<g id="edge25" class="edge">
<title>Node1&#45;&gt;Node25</title>
<path fill="none" stroke="midnightblue" d="M1842.32,-143C2094.94,-142.78 3117.58,-139.3 3435.5,-98 3442.92,-97.04 3450.64,-95.7 3458.27,-94.17"/>
<polygon fill="midnightblue" stroke="midnightblue" points="3459.15,-97.56 3468.21,-92.07 3457.7,-90.71 3459.15,-97.56"/>
</g>
<!-- Node26 -->
<g id="node26" class="node">
<title>Node26</title>
<g id="a_node26"><a xlink:title=" ">
<polygon fill="white" stroke="#bfbfbf" points="3615,-62 3615,-92 3782,-92 3782,-62 3615,-62"/>
<text text-anchor="start" x="3623" y="-80" font-family="Helvetica,sans-Serif" font-size="10.00">asm/d/s/d_s_name/_</text>
<text text-anchor="middle" x="3698.5" y="-69" font-family="Helvetica,sans-Serif" font-size="10.00">_dt__17dScnName_camera_cFv.s</text>
</a>
</g>
</g>
<!-- Node1&#45;&gt;Node26 -->
<g id="edge26" class="edge">
<title>Node1&#45;&gt;Node26</title>
<path fill="none" stroke="midnightblue" d="M1842.22,-143.03C2110.28,-142.93 3251.82,-140.03 3605.5,-98 3613.87,-97.01 3622.6,-95.61 3631.21,-94.02"/>
<polygon fill="midnightblue" stroke="midnightblue" points="3632.09,-97.41 3641.23,-92.07 3630.75,-90.54 3632.09,-97.41"/>
</g>
<!-- Node27 -->
<g id="node27" class="node">
<title>Node27</title>
<g id="a_node27"><a xlink:title=" ">
<polygon fill="white" stroke="#bfbfbf" points="3799.5,-62 3799.5,-92 3915.5,-92 3915.5,-62 3799.5,-62"/>
<text text-anchor="start" x="3807.5" y="-80" font-family="Helvetica,sans-Serif" font-size="10.00">asm/d/s/d_s_name/_</text>
<text text-anchor="middle" x="3857.5" y="-69" font-family="Helvetica,sans-Serif" font-size="10.00">_dt__9dSn_HIO_cFv.s</text>
</a>
</g>
</g>
<!-- Node1&#45;&gt;Node27 -->
<g id="edge27" class="edge">
<title>Node1&#45;&gt;Node27</title>
<path fill="none" stroke="midnightblue" d="M1842.16,-142.65C2147.95,-140.62 3594.78,-129.41 3791.5,-98 3796.82,-97.15 3802.31,-95.98 3807.74,-94.63"/>
<polygon fill="midnightblue" stroke="midnightblue" points="3808.67,-98.01 3817.42,-92.04 3806.85,-91.25 3808.67,-98.01"/>
</g>
<!-- Node28 -->
<g id="node28" class="node">
<title>Node28</title>
<g id="a_node28"><a xlink:title=" ">
<polygon fill="white" stroke="#bfbfbf" points="3934,-62 3934,-92 4053,-92 4053,-62 3934,-62"/>
<text text-anchor="start" x="3942" y="-80" font-family="Helvetica,sans-Serif" font-size="10.00">asm/d/s/d_s_name/_</text>
<text text-anchor="middle" x="3993.5" y="-69" font-family="Helvetica,sans-Serif" font-size="10.00">_sinit_d_s_name_cpp.s</text>
</a>
</g>
</g>
<!-- Node1&#45;&gt;Node28 -->
<g id="edge28" class="edge">
<title>Node1&#45;&gt;Node28</title>
<path fill="none" stroke="midnightblue" d="M1842.22,-142.69C2160.11,-140.84 3713.72,-130.2 3924.5,-98 3930.05,-97.15 3935.78,-95.98 3941.45,-94.64"/>
<polygon fill="midnightblue" stroke="midnightblue" points="3942.75,-97.92 3951.56,-92.04 3941.01,-91.14 3942.75,-97.92"/>
</g>
<!-- Node4&#45;&gt;Node3 -->
<g id="edge4" class="edge">
<title>Node4&#45;&gt;Node3</title>
<path fill="none" stroke="midnightblue" d="M155.64,-67.23C150.19,-57.39 141.2,-41.16 134.28,-28.66"/>
<polygon fill="midnightblue" stroke="midnightblue" points="137.19,-26.68 129.28,-19.63 131.06,-30.07 137.19,-26.68"/>
</g>
</g>
</svg>
        <g id="navigator" transform="translate(0 0)" fill="#404254">
                <rect fill="#f2f5e9" fill-opacity="0.5" stroke="#606060" stroke-width=".5" x="0" y="0" width="60" height="60"/>
                <use id="zoomplus" xlink:href="#zoomPlus" x="17" y="9" onmousedown="handleZoom(evt,'in')"/>
                <use id="zoomminus" xlink:href="#zoomMin" x="42" y="9" onmousedown="handleZoom(evt,'out')"/>
                <use id="reset" xlink:href="#resetDef" x="30" y="36" onmousedown="handleReset()"/>
                <g id="arrowUp" xlink:href="#dirArrow" transform="translate(30 24)" onmousedown="handlePan(0,-1)">
                  <use xlink:href="#rim" fill="#404040">
                        <set attributeName="fill" to="#808080" begin="arrowUp.mouseover" end="arrowUp.mouseout"/>
                  </use>
                  <path fill="none" stroke="white" stroke-width="1.5" d="M0,-3.0v7 M-2.5,-0.5L0,-3.0L2.5,-0.5"/>
                </g>
                <g id="arrowRight" xlink:href="#dirArrow" transform="rotate(90) translate(36 -43)" onmousedown="handlePan(1,0)">
                  <use xlink:href="#rim" fill="#404040">
                        <set attributeName="fill" to="#808080" begin="arrowRight.mouseover" end="arrowRight.mouseout"/>
                  </use>
                  <path fill="none" stroke="white" stroke-width="1.5" d="M0,-3.0v7 M-2.5,-0.5L0,-3.0L2.5,-0.5"/>
                </g>
                <g id="arrowDown" xlink:href="#dirArrow" transform="rotate(180) translate(-30 -48)" onmousedown="handlePan(0,1)">
                  <use xlink:href="#rim" fill="#404040">
                        <set attributeName="fill" to="#808080" begin="arrowDown.mouseover" end="arrowDown.mouseout"/>
                  </use>
                  <path fill="none" stroke="white" stroke-width="1.5" d="M0,-3.0v7 M-2.5,-0.5L0,-3.0L2.5,-0.5"/>
                </g>
                <g id="arrowLeft" xlink:href="#dirArrow" transform="rotate(270) translate(-36 17)" onmousedown="handlePan(-1,0)">
                  <use xlink:href="#rim" fill="#404040">
                        <set attributeName="fill" to="#808080" begin="arrowLeft.mouseover" end="arrowLeft.mouseout"/>
                  </use>
                  <path fill="none" stroke="white" stroke-width="1.5" d="M0,-3.0v7 M-2.5,-0.5L0,-3.0L2.5,-0.5"/>
                </g>
        </g>
        <svg viewBox="0 0 15 15" width="100%" height="30px" preserveAspectRatio="xMaxYMin meet">
         <g id="arrow_out" transform="scale(0.3 0.3)">
          <a xlink:href="d__s__name_8cpp__incl_org.svg" target="_base">
           <rect id="button" ry="5" rx="5" y="6" x="6" height="38" width="38"
                fill="#f2f5e9" fill-opacity="0.5" stroke="#606060" stroke-width="1.0"/>
           <path id="arrow"
             d="M 11.500037,31.436501 C 11.940474,20.09759 22.043105,11.32322 32.158766,21.979434 L 37.068811,17.246167 C 37.068811,17.246167 37.088388,32 37.088388,32 L 22.160133,31.978069 C 22.160133,31.978069 26.997745,27.140456 26.997745,27.140456 C 18.528582,18.264221 13.291696,25.230495 11.500037,31.436501 z"
             style="fill:#404040;"/>
          </a>
         </g>
        </svg>
</svg>
