<?xml version="1.0" encoding="UTF-8" standalone="no"?>
<!DOCTYPE svg PUBLIC "-//W3C//DTD SVG 1.1//EN"
 "http://www.w3.org/Graphics/SVG/1.1/DTD/svg11.dtd">
<!-- Generated by graphviz version 2.47.0 (20210316.2052)
 -->
<!-- Title: src/d/d_vib_pattern.cpp Pages: 1 -->
<svg width="217pt" height="140pt"
 viewBox="0.00 0.00 217.00 140.00" xmlns="http://www.w3.org/2000/svg" xmlns:xlink="http://www.w3.org/1999/xlink">
<g id="graph0" class="graph" transform="scale(1 1) rotate(0) translate(4 136)">
<title>src/d/d_vib_pattern.cpp</title>
<polygon fill="white" stroke="transparent" points="-4,4 -4,-136 213,-136 213,4 -4,4"/>
<!-- Node1 -->
<g id="node1" class="node">
<title>Node1</title>
<g id="a_node1"><a xlink:title=" ">
<polygon fill="#bfbfbf" stroke="black" points="30.5,-112.5 30.5,-131.5 148.5,-131.5 148.5,-112.5 30.5,-112.5"/>
<text text-anchor="middle" x="89.5" y="-119.5" font-family="Helvetica,sans-Serif" font-size="10.00">src/d/d_vib_pattern.cpp</text>
</a>
</g>
</g>
<!-- Node2 -->
<g id="node2" class="node">
<title>Node2</title>
<g id="a_node2"><a xlink:href="dol2asm_8h.html" target="_top" xlink:title=" ">
<polygon fill="white" stroke="black" points="0,-56.5 0,-75.5 61,-75.5 61,-56.5 0,-56.5"/>
<text text-anchor="middle" x="30.5" y="-63.5" font-family="Helvetica,sans-Serif" font-size="10.00">dol2asm.h</text>
</a>
</g>
</g>
<!-- Node1&#45;&gt;Node2 -->
<g id="edge1" class="edge">
<title>Node1&#45;&gt;Node2</title>
<path fill="none" stroke="midnightblue" d="M80.02,-112.32C71.3,-104.34 58.16,-92.31 47.6,-82.65"/>
<polygon fill="midnightblue" stroke="midnightblue" points="49.89,-80 40.15,-75.83 45.17,-85.17 49.89,-80"/>
</g>
<!-- Node3 -->
<g id="node3" class="node">
<title>Node3</title>
<g id="a_node3"><a xlink:href="types_8h.html" target="_top" xlink:title=" ">
<polygon fill="white" stroke="black" points="86,-0.5 86,-19.5 167,-19.5 167,-0.5 86,-0.5"/>
<text text-anchor="middle" x="126.5" y="-7.5" font-family="Helvetica,sans-Serif" font-size="10.00">dolphin/types.h</text>
</a>
</g>
</g>
<!-- Node1&#45;&gt;Node3 -->
<g id="edge2" class="edge">
<title>Node1&#45;&gt;Node3</title>
<path fill="none" stroke="midnightblue" d="M92.04,-112.11C95.68,-99.54 102.69,-75.88 109.5,-56 112.55,-47.1 116.2,-37.32 119.34,-29.16"/>
<polygon fill="midnightblue" stroke="midnightblue" points="122.71,-30.16 123.08,-19.57 116.19,-27.62 122.71,-30.16"/>
</g>
<!-- Node4 -->
<g id="node4" class="node">
<title>Node4</title>
<g id="a_node4"><a xlink:href="d__vib__pattern_8h.html" target="_top" xlink:title=" ">
<polygon fill="white" stroke="black" points="118,-56.5 118,-75.5 209,-75.5 209,-56.5 118,-56.5"/>
<text text-anchor="middle" x="163.5" y="-63.5" font-family="Helvetica,sans-Serif" font-size="10.00">d/d_vib_pattern.h</text>
</a>
</g>
</g>
<!-- Node1&#45;&gt;Node4 -->
<g id="edge3" class="edge">
<title>Node1&#45;&gt;Node4</title>
<path fill="none" stroke="midnightblue" d="M101.39,-112.32C112.65,-104.11 129.79,-91.6 143.21,-81.81"/>
<polygon fill="midnightblue" stroke="midnightblue" points="145.38,-84.56 151.39,-75.83 141.25,-78.9 145.38,-84.56"/>
</g>
<!-- Node4&#45;&gt;Node3 -->
<g id="edge4" class="edge">
<title>Node4&#45;&gt;Node3</title>
<path fill="none" stroke="midnightblue" d="M157.39,-56.08C152.22,-48.53 144.65,-37.49 138.31,-28.23"/>
<polygon fill="midnightblue" stroke="midnightblue" points="141.04,-26.02 132.5,-19.75 135.26,-29.98 141.04,-26.02"/>
</g>
</g>
</svg>
