<?xml version="1.0" encoding="UTF-8" standalone="no"?>
<!DOCTYPE svg PUBLIC "-//W3C//DTD SVG 1.1//EN"
 "http://www.w3.org/Graphics/SVG/1.1/DTD/svg11.dtd">
<!-- Generated by graphviz version 2.47.0 (20210316.2052)
 -->
<!-- Title: include Pages: 1 -->
<svg width="1709pt" height="148pt"
 viewBox="0.00 0.00 1709.00 148.00" xmlns="http://www.w3.org/2000/svg" xmlns:xlink="http://www.w3.org/1999/xlink">
<g id="graph0" class="graph" transform="scale(1 1) rotate(0) translate(4 144)">
<title>include</title>
<polygon fill="white" stroke="transparent" points="-4,4 -4,-144 1705,-144 1705,4 -4,4"/>
<g id="clust1" class="cluster">
<title>clusterdir_d44c64559bbebec7f509842c48db8b23</title>
<g id="a_clust1"><a xlink:href="dir_d44c64559bbebec7f509842c48db8b23.html" target="_top">
<polygon fill="#eeeeff" stroke="black" points="8,-8 8,-132 1693,-132 1693,-8 8,-8"/>
</a>
</g>
</g>
<!-- dir_d44c64559bbebec7f509842c48db8b23 -->
<g id="node1" class="node">
<title>dir_d44c64559bbebec7f509842c48db8b23</title>
<text text-anchor="middle" x="1658" y="-103.5" font-family="Helvetica,sans-Serif" font-size="10.00">include</text>
</g>
<!-- dir_755f0d2039dcbad844014f016ea14e59 -->
<g id="node2" class="node">
<title>dir_755f0d2039dcbad844014f016ea14e59</title>
<g id="a_node2"><a xlink:href="dir_755f0d2039dcbad844014f016ea14e59.html" target="_top" xlink:title="a">
<polygon fill="white" stroke="red" points="1613,-124 1559,-124 1559,-88 1613,-88 1613,-124"/>
<text text-anchor="middle" x="1586" y="-103.5" font-family="Helvetica,sans-Serif" font-size="10.00">a</text>
</a>
</g>
</g>
<!-- dir_b778c3f297ab88300258a2935792c8cc -->
<g id="node6" class="node">
<title>dir_b778c3f297ab88300258a2935792c8cc</title>
<g id="a_node6"><a xlink:href="dir_b778c3f297ab88300258a2935792c8cc.html" target="_top" xlink:title="dolphin">
<polygon fill="white" stroke="red" points="957,-52 903,-52 903,-16 957,-16 957,-52"/>
<text text-anchor="middle" x="930" y="-31.5" font-family="Helvetica,sans-Serif" font-size="10.00">dolphin</text>
</a>
</g>
</g>
<!-- dir_755f0d2039dcbad844014f016ea14e59&#45;&gt;dir_b778c3f297ab88300258a2935792c8cc -->
<g id="edge5" class="edge">
<title>dir_755f0d2039dcbad844014f016ea14e59&#45;&gt;dir_b778c3f297ab88300258a2935792c8cc</title>
<path fill="none" stroke="black" d="M1558.87,-90.96C1555.93,-89.81 1552.94,-88.79 1550,-88 1438.99,-58.08 1083.95,-41.28 967.44,-36.46"/>
<polygon fill="black" stroke="black" points="967.37,-32.95 957.24,-36.04 967.08,-39.95 967.37,-32.95"/>
<g id="a_edge5&#45;headlabel"><a xlink:href="dir_000002_000025.html" target="_top" xlink:title="4">
<text text-anchor="middle" x="971.08" y="-27.76" font-family="Helvetica,sans-Serif" font-size="10.00">4</text>
</a>
</g>
</g>
<!-- dir_69c21e3fe128ba7f70ba19e6abc39168 -->
<g id="node3" class="node">
<title>dir_69c21e3fe128ba7f70ba19e6abc39168</title>
<g id="a_node3"><a xlink:href="dir_69c21e3fe128ba7f70ba19e6abc39168.html" target="_top" xlink:title="amcstubs">
<polygon fill="white" stroke="black" points="1540.5,-124 1481.5,-124 1481.5,-88 1540.5,-88 1540.5,-124"/>
<text text-anchor="middle" x="1511" y="-103.5" font-family="Helvetica,sans-Serif" font-size="10.00">amcstubs</text>
</a>
</g>
</g>
<!-- dir_69c21e3fe128ba7f70ba19e6abc39168&#45;&gt;dir_b778c3f297ab88300258a2935792c8cc -->
<g id="edge3" class="edge">
<title>dir_69c21e3fe128ba7f70ba19e6abc39168&#45;&gt;dir_b778c3f297ab88300258a2935792c8cc</title>
<path fill="none" stroke="black" d="M1481.1,-90.86C1478.07,-89.76 1475,-88.78 1472,-88 1286.9,-39.89 1055.93,-34.72 967.13,-34.67"/>
<polygon fill="black" stroke="black" points="967.02,-31.17 957.02,-34.68 967.03,-38.17 967.02,-31.17"/>
<g id="a_edge3&#45;headlabel"><a xlink:href="dir_000005_000025.html" target="_top" xlink:title="1">
<text text-anchor="middle" x="970.61" y="-25.82" font-family="Helvetica,sans-Serif" font-size="10.00">1</text>
</a>
</g>
</g>
<!-- dir_f0bbaeb96b1b216779501c980a5af6c6 -->
<g id="node4" class="node">
<title>dir_f0bbaeb96b1b216779501c980a5af6c6</title>
<g id="a_node4"><a xlink:href="dir_f0bbaeb96b1b216779501c980a5af6c6.html" target="_top" xlink:title="c">
<polygon fill="white" stroke="black" points="1463,-124 1409,-124 1409,-88 1463,-88 1463,-124"/>
<text text-anchor="middle" x="1436" y="-103.5" font-family="Helvetica,sans-Serif" font-size="10.00">c</text>
</a>
</g>
</g>
<!-- dir_f0bbaeb96b1b216779501c980a5af6c6&#45;&gt;dir_b778c3f297ab88300258a2935792c8cc -->
<g id="edge4" class="edge">
<title>dir_f0bbaeb96b1b216779501c980a5af6c6&#45;&gt;dir_b778c3f297ab88300258a2935792c8cc</title>
<path fill="none" stroke="black" d="M1408.84,-91.04C1405.91,-89.88 1402.93,-88.83 1400,-88 1243.52,-43.55 1047.77,-36.16 967.23,-35.09"/>
<polygon fill="black" stroke="black" points="967.13,-31.59 957.09,-34.98 967.06,-38.59 967.13,-31.59"/>
<g id="a_edge4&#45;headlabel"><a xlink:href="dir_000006_000025.html" target="_top" xlink:title="2">
<text text-anchor="middle" x="970.76" y="-26.28" font-family="Helvetica,sans-Serif" font-size="10.00">2</text>
</a>
</g>
</g>
<!-- dir_cc3ad1aed4be3f446fdd7af78322f5bf -->
<g id="node5" class="node">
<title>dir_cc3ad1aed4be3f446fdd7af78322f5bf</title>
<g id="a_node5"><a xlink:href="dir_cc3ad1aed4be3f446fdd7af78322f5bf.html" target="_top" xlink:title="d">
<polygon fill="white" stroke="red" points="1391,-124 1337,-124 1337,-88 1391,-88 1391,-124"/>
<text text-anchor="middle" x="1364" y="-103.5" font-family="Helvetica,sans-Serif" font-size="10.00">d</text>
</a>
</g>
</g>
<!-- dir_cc3ad1aed4be3f446fdd7af78322f5bf&#45;&gt;dir_b778c3f297ab88300258a2935792c8cc -->
<g id="edge17" class="edge">
<title>dir_cc3ad1aed4be3f446fdd7af78322f5bf&#45;&gt;dir_b778c3f297ab88300258a2935792c8cc</title>
<path fill="none" stroke="black" d="M1336.83,-91.1C1333.89,-89.93 1330.92,-88.86 1328,-88 1199.22,-50.02 1038.92,-39.19 967.43,-36.15"/>
<polygon fill="black" stroke="black" points="967.27,-32.64 957.14,-35.75 967,-39.64 967.27,-32.64"/>
<g id="a_edge17&#45;headlabel"><a xlink:href="dir_000007_000025.html" target="_top" xlink:title="145">
<text text-anchor="middle" x="970.98" y="-27.45" font-family="Helvetica,sans-Serif" font-size="10.00">145</text>
</a>
</g>
</g>
<!-- dir_bd30b2f27e7c332535a4051e395ad81c -->
<g id="node7" class="node">
<title>dir_bd30b2f27e7c332535a4051e395ad81c</title>
<g id="a_node7"><a xlink:href="dir_bd30b2f27e7c332535a4051e395ad81c.html" target="_top" xlink:title="exi">
<polygon fill="white" stroke="black" points="1319,-124 1265,-124 1265,-88 1319,-88 1319,-124"/>
<text text-anchor="middle" x="1292" y="-103.5" font-family="Helvetica,sans-Serif" font-size="10.00">exi</text>
</a>
</g>
</g>
<!-- dir_bd30b2f27e7c332535a4051e395ad81c&#45;&gt;dir_b778c3f297ab88300258a2935792c8cc -->
<g id="edge10" class="edge">
<title>dir_bd30b2f27e7c332535a4051e395ad81c&#45;&gt;dir_b778c3f297ab88300258a2935792c8cc</title>
<path fill="none" stroke="black" d="M1264.8,-91.19C1261.87,-90 1258.9,-88.9 1256,-88 1154.28,-56.4 1028.54,-42.76 967.19,-37.64"/>
<polygon fill="black" stroke="black" points="967.46,-34.15 957.21,-36.84 966.89,-41.13 967.46,-34.15"/>
<g id="a_edge10&#45;headlabel"><a xlink:href="dir_000041_000025.html" target="_top" xlink:title="2">
<text text-anchor="middle" x="971.27" y="-29.11" font-family="Helvetica,sans-Serif" font-size="10.00">2</text>
</a>
</g>
</g>
<!-- dir_842110f85f767812b47b9e09c1085d00 -->
<g id="node8" class="node">
<title>dir_842110f85f767812b47b9e09c1085d00</title>
<g id="a_node8"><a xlink:href="dir_842110f85f767812b47b9e09c1085d00.html" target="_top" xlink:title="f_ap">
<polygon fill="white" stroke="black" points="1247,-124 1193,-124 1193,-88 1247,-88 1247,-124"/>
<text text-anchor="middle" x="1220" y="-103.5" font-family="Helvetica,sans-Serif" font-size="10.00">f_ap</text>
</a>
</g>
</g>
<!-- dir_842110f85f767812b47b9e09c1085d00&#45;&gt;dir_b778c3f297ab88300258a2935792c8cc -->
<g id="edge1" class="edge">
<title>dir_842110f85f767812b47b9e09c1085d00&#45;&gt;dir_b778c3f297ab88300258a2935792c8cc</title>
<path fill="none" stroke="black" d="M1192.76,-91.32C1189.84,-90.1 1186.88,-88.97 1184,-88 1109.04,-62.87 1017.47,-47.29 967.3,-39.97"/>
<polygon fill="black" stroke="black" points="967.64,-36.48 957.25,-38.53 966.65,-43.41 967.64,-36.48"/>
<g id="a_edge1&#45;headlabel"><a xlink:href="dir_000042_000025.html" target="_top" xlink:title="1">
<text text-anchor="middle" x="971.6" y="-31.68" font-family="Helvetica,sans-Serif" font-size="10.00">1</text>
</a>
</g>
</g>
<!-- dir_fbb29e8cafd745cbb7106b56de6b5377 -->
<g id="node9" class="node">
<title>dir_fbb29e8cafd745cbb7106b56de6b5377</title>
<g id="a_node9"><a xlink:href="dir_fbb29e8cafd745cbb7106b56de6b5377.html" target="_top" xlink:title="f_op">
<polygon fill="white" stroke="black" points="1175,-124 1121,-124 1121,-88 1175,-88 1175,-124"/>
<text text-anchor="middle" x="1148" y="-103.5" font-family="Helvetica,sans-Serif" font-size="10.00">f_op</text>
</a>
</g>
</g>
<!-- dir_fbb29e8cafd745cbb7106b56de6b5377&#45;&gt;dir_b778c3f297ab88300258a2935792c8cc -->
<g id="edge13" class="edge">
<title>dir_fbb29e8cafd745cbb7106b56de6b5377&#45;&gt;dir_b778c3f297ab88300258a2935792c8cc</title>
<path fill="none" stroke="black" d="M1120.68,-91.55C1117.77,-90.29 1114.84,-89.08 1112,-88 1062.91,-69.4 1004.34,-53.4 967.16,-43.98"/>
<polygon fill="black" stroke="black" points="967.82,-40.54 957.27,-41.51 966.12,-47.33 967.82,-40.54"/>
<g id="a_edge13&#45;headlabel"><a xlink:href="dir_000043_000025.html" target="_top" xlink:title="22">
<text text-anchor="middle" x="971.99" y="-36.16" font-family="Helvetica,sans-Serif" font-size="10.00">22</text>
</a>
</g>
</g>
<!-- dir_14c28d3bb977da9b21a3aa2d366ba228 -->
<g id="node10" class="node">
<title>dir_14c28d3bb977da9b21a3aa2d366ba228</title>
<g id="a_node10"><a xlink:href="dir_14c28d3bb977da9b21a3aa2d366ba228.html" target="_top" xlink:title="f_pc">
<polygon fill="white" stroke="black" points="1103,-124 1049,-124 1049,-88 1103,-88 1103,-124"/>
<text text-anchor="middle" x="1076" y="-103.5" font-family="Helvetica,sans-Serif" font-size="10.00">f_pc</text>
</a>
</g>
</g>
<!-- dir_14c28d3bb977da9b21a3aa2d366ba228&#45;&gt;dir_b778c3f297ab88300258a2935792c8cc -->
<g id="edge9" class="edge">
<title>dir_14c28d3bb977da9b21a3aa2d366ba228&#45;&gt;dir_b778c3f297ab88300258a2935792c8cc</title>
<path fill="none" stroke="black" d="M1048.88,-92C1025.67,-80.87 992.06,-64.75 966.49,-52.5"/>
<polygon fill="black" stroke="black" points="968,-49.34 957.47,-48.17 964.97,-55.65 968,-49.34"/>
<g id="a_edge9&#45;headlabel"><a xlink:href="dir_000044_000025.html" target="_top" xlink:title="30">
<text text-anchor="middle" x="972.47" y="-45.83" font-family="Helvetica,sans-Serif" font-size="10.00">30</text>
</a>
</g>
</g>
<!-- dir_4f0979a7f5e3194619cde56505e372d8 -->
<g id="node11" class="node">
<title>dir_4f0979a7f5e3194619cde56505e372d8</title>
<g id="a_node11"><a xlink:href="dir_4f0979a7f5e3194619cde56505e372d8.html" target="_top" xlink:title="JSystem">
<polygon fill="white" stroke="red" points="1030.5,-124 975.5,-124 975.5,-88 1030.5,-88 1030.5,-124"/>
<text text-anchor="middle" x="1003" y="-103.5" font-family="Helvetica,sans-Serif" font-size="10.00">JSystem</text>
</a>
</g>
</g>
<!-- dir_4f0979a7f5e3194619cde56505e372d8&#45;&gt;dir_b778c3f297ab88300258a2935792c8cc -->
<g id="edge19" class="edge">
<title>dir_4f0979a7f5e3194619cde56505e372d8&#45;&gt;dir_b778c3f297ab88300258a2935792c8cc</title>
<path fill="none" stroke="black" d="M984.96,-87.7C975.94,-79.05 964.88,-68.45 955.06,-59.03"/>
<polygon fill="black" stroke="black" points="957.48,-56.5 947.84,-52.1 952.63,-61.55 957.48,-56.5"/>
<g id="a_edge19&#45;headlabel"><a xlink:href="dir_000045_000025.html" target="_top" xlink:title="230">
<text text-anchor="middle" x="962.04" y="-54.44" font-family="Helvetica,sans-Serif" font-size="10.00">230</text>
</a>
</g>
</g>
<!-- dir_6bdfff2c28f90f381b6da5bee088878b -->
<g id="node12" class="node">
<title>dir_6bdfff2c28f90f381b6da5bee088878b</title>
<g id="a_node12"><a xlink:href="dir_6bdfff2c28f90f381b6da5bee088878b.html" target="_top" xlink:title="m_Do">
<polygon fill="white" stroke="black" points="957,-124 903,-124 903,-88 957,-88 957,-124"/>
<text text-anchor="middle" x="930" y="-103.5" font-family="Helvetica,sans-Serif" font-size="10.00">m_Do</text>
</a>
</g>
</g>
<!-- dir_6bdfff2c28f90f381b6da5bee088878b&#45;&gt;dir_b778c3f297ab88300258a2935792c8cc -->
<g id="edge14" class="edge">
<title>dir_6bdfff2c28f90f381b6da5bee088878b&#45;&gt;dir_b778c3f297ab88300258a2935792c8cc</title>
<path fill="none" stroke="black" d="M930,-87.7C930,-79.98 930,-70.71 930,-62.11"/>
<polygon fill="black" stroke="black" points="933.5,-62.1 930,-52.1 926.5,-62.1 933.5,-62.1"/>
<g id="a_edge14&#45;headlabel"><a xlink:href="dir_000066_000025.html" target="_top" xlink:title="15">
<text text-anchor="middle" x="936.34" y="-63.2" font-family="Helvetica,sans-Serif" font-size="10.00">15</text>
</a>
</g>
</g>
<!-- dir_f4a0ada2a696f9fa1f0722f1cc886f9d -->
<g id="node13" class="node">
<title>dir_f4a0ada2a696f9fa1f0722f1cc886f9d</title>
<g id="a_node13"><a xlink:href="dir_f4a0ada2a696f9fa1f0722f1cc886f9d.html" target="_top" xlink:title="msg">
<polygon fill="white" stroke="red" points="885,-124 831,-124 831,-88 885,-88 885,-124"/>
<text text-anchor="middle" x="858" y="-103.5" font-family="Helvetica,sans-Serif" font-size="10.00">msg</text>
</a>
</g>
</g>
<!-- dir_f4a0ada2a696f9fa1f0722f1cc886f9d&#45;&gt;dir_b778c3f297ab88300258a2935792c8cc -->
<g id="edge11" class="edge">
<title>dir_f4a0ada2a696f9fa1f0722f1cc886f9d&#45;&gt;dir_b778c3f297ab88300258a2935792c8cc</title>
<path fill="none" stroke="black" d="M875.8,-87.7C884.6,-79.14 895.38,-68.66 905,-59.3"/>
<polygon fill="black" stroke="black" points="907.68,-61.58 912.41,-52.1 902.8,-56.57 907.68,-61.58"/>
<g id="a_edge11&#45;headlabel"><a xlink:href="dir_000067_000025.html" target="_top" xlink:title="14">
<text text-anchor="middle" x="907.08" y="-63.63" font-family="Helvetica,sans-Serif" font-size="10.00">14</text>
</a>
</g>
</g>
<!-- dir_f04ab26cc3a9b32efb726132a22d6a75 -->
<g id="node14" class="node">
<title>dir_f04ab26cc3a9b32efb726132a22d6a75</title>
<g id="a_node14"><a xlink:href="dir_f04ab26cc3a9b32efb726132a22d6a75.html" target="_top" xlink:title="MSL_C.PPCEABI.bare.H">
<polygon fill="white" stroke="red" points="812.5,-124 687.5,-124 687.5,-88 812.5,-88 812.5,-124"/>
<text text-anchor="middle" x="750" y="-103.5" font-family="Helvetica,sans-Serif" font-size="10.00">MSL_C.PPCEABI.bare.H</text>
</a>
</g>
</g>
<!-- dir_f04ab26cc3a9b32efb726132a22d6a75&#45;&gt;dir_b778c3f297ab88300258a2935792c8cc -->
<g id="edge2" class="edge">
<title>dir_f04ab26cc3a9b32efb726132a22d6a75&#45;&gt;dir_b778c3f297ab88300258a2935792c8cc</title>
<path fill="none" stroke="black" d="M794.03,-87.88C824.48,-76.04 864.51,-60.47 893.25,-49.29"/>
<polygon fill="black" stroke="black" points="894.85,-52.42 902.9,-45.54 892.32,-45.9 894.85,-52.42"/>
<g id="a_edge2&#45;headlabel"><a xlink:href="dir_000069_000025.html" target="_top" xlink:title="56">
<text text-anchor="middle" x="892.53" y="-53.87" font-family="Helvetica,sans-Serif" font-size="10.00">56</text>
</a>
</g>
</g>
<!-- dir_87ef4356690393f98a03cd010822f8d3 -->
<g id="node15" class="node">
<title>dir_87ef4356690393f98a03cd010822f8d3</title>
<g id="a_node15"><a xlink:href="dir_87ef4356690393f98a03cd010822f8d3.html" target="_top" xlink:title="odemuexi2">
<polygon fill="white" stroke="red" points="669.5,-124 606.5,-124 606.5,-88 669.5,-88 669.5,-124"/>
<text text-anchor="middle" x="638" y="-103.5" font-family="Helvetica,sans-Serif" font-size="10.00">odemuexi2</text>
</a>
</g>
</g>
<!-- dir_87ef4356690393f98a03cd010822f8d3&#45;&gt;dir_b778c3f297ab88300258a2935792c8cc -->
<g id="edge12" class="edge">
<title>dir_87ef4356690393f98a03cd010822f8d3&#45;&gt;dir_b778c3f297ab88300258a2935792c8cc</title>
<path fill="none" stroke="black" d="M669.57,-91.23C672.73,-90.06 675.91,-88.96 679,-88 753.47,-64.92 843.45,-48.62 892.92,-40.62"/>
<polygon fill="black" stroke="black" points="893.51,-44.07 902.84,-39.04 892.41,-37.16 893.51,-44.07"/>
<g id="a_edge12&#45;headlabel"><a xlink:href="dir_000078_000025.html" target="_top" xlink:title="1">
<text text-anchor="middle" x="890.41" y="-44.94" font-family="Helvetica,sans-Serif" font-size="10.00">1</text>
</a>
</g>
</g>
<!-- dir_70bf4e9311ed1821b28462b50265373f -->
<g id="node16" class="node">
<title>dir_70bf4e9311ed1821b28462b50265373f</title>
<g id="a_node16"><a xlink:href="dir_70bf4e9311ed1821b28462b50265373f.html" target="_top" xlink:title="odenotstub">
<polygon fill="white" stroke="black" points="588.5,-124 523.5,-124 523.5,-88 588.5,-88 588.5,-124"/>
<text text-anchor="middle" x="556" y="-103.5" font-family="Helvetica,sans-Serif" font-size="10.00">odenotstub</text>
</a>
</g>
</g>
<!-- dir_70bf4e9311ed1821b28462b50265373f&#45;&gt;dir_b778c3f297ab88300258a2935792c8cc -->
<g id="edge8" class="edge">
<title>dir_70bf4e9311ed1821b28462b50265373f&#45;&gt;dir_b778c3f297ab88300258a2935792c8cc</title>
<path fill="none" stroke="black" d="M588.77,-90.92C591.86,-89.84 594.97,-88.84 598,-88 702.72,-58.85 830.77,-44.07 892.79,-38.17"/>
<polygon fill="black" stroke="black" points="893.24,-41.64 902.88,-37.23 892.6,-34.67 893.24,-41.64"/>
<g id="a_edge8&#45;headlabel"><a xlink:href="dir_000081_000025.html" target="_top" xlink:title="1">
<text text-anchor="middle" x="889.93" y="-42.3" font-family="Helvetica,sans-Serif" font-size="10.00">1</text>
</a>
</g>
</g>
<!-- dir_d1e95842203b094e4f127fa85baf24b5 -->
<g id="node17" class="node">
<title>dir_d1e95842203b094e4f127fa85baf24b5</title>
<g id="a_node17"><a xlink:href="dir_d1e95842203b094e4f127fa85baf24b5.html" target="_top" xlink:title="rel">
<polygon fill="white" stroke="red" points="505,-124 451,-124 451,-88 505,-88 505,-124"/>
<text text-anchor="middle" x="478" y="-103.5" font-family="Helvetica,sans-Serif" font-size="10.00">rel</text>
</a>
</g>
</g>
<!-- dir_d1e95842203b094e4f127fa85baf24b5&#45;&gt;dir_b778c3f297ab88300258a2935792c8cc -->
<g id="edge15" class="edge">
<title>dir_d1e95842203b094e4f127fa85baf24b5&#45;&gt;dir_b778c3f297ab88300258a2935792c8cc</title>
<path fill="none" stroke="black" d="M505.12,-91.42C508.4,-90.12 511.74,-88.93 515,-88 650.44,-49.22 818.87,-38.78 892.56,-36"/>
<polygon fill="black" stroke="black" points="892.86,-39.49 902.73,-35.64 892.61,-32.49 892.86,-39.49"/>
<g id="a_edge15&#45;headlabel"><a xlink:href="dir_000082_000025.html" target="_top" xlink:title="3094">
<text text-anchor="middle" x="889.36" y="-39.95" font-family="Helvetica,sans-Serif" font-size="10.00">3094</text>
</a>
</g>
</g>
<!-- dir_6141ad2e1396b1970c524b101e645d67 -->
<g id="node18" class="node">
<title>dir_6141ad2e1396b1970c524b101e645d67</title>
<g id="a_node18"><a xlink:href="dir_6141ad2e1396b1970c524b101e645d67.html" target="_top" xlink:title="Runtime.PPCEABI.H">
<polygon fill="white" stroke="black" points="432.5,-124 325.5,-124 325.5,-88 432.5,-88 432.5,-124"/>
<text text-anchor="middle" x="379" y="-103.5" font-family="Helvetica,sans-Serif" font-size="10.00">Runtime.PPCEABI.H</text>
</a>
</g>
</g>
<!-- dir_6141ad2e1396b1970c524b101e645d67&#45;&gt;dir_b778c3f297ab88300258a2935792c8cc -->
<g id="edge18" class="edge">
<title>dir_6141ad2e1396b1970c524b101e645d67&#45;&gt;dir_b778c3f297ab88300258a2935792c8cc</title>
<path fill="none" stroke="black" d="M432.83,-89.88C435.92,-89.2 438.99,-88.57 442,-88 608.49,-56.69 810.67,-42.05 892.72,-37.07"/>
<polygon fill="black" stroke="black" points="893.03,-40.56 902.8,-36.47 892.61,-33.57 893.03,-40.56"/>
<g id="a_edge18&#45;headlabel"><a xlink:href="dir_001621_000025.html" target="_top" xlink:title="9">
<text text-anchor="middle" x="889.61" y="-41.1" font-family="Helvetica,sans-Serif" font-size="10.00">9</text>
</a>
</g>
</g>
<!-- dir_54283da8a0cf1311a88c964d76512876 -->
<g id="node19" class="node">
<title>dir_54283da8a0cf1311a88c964d76512876</title>
<g id="a_node19"><a xlink:href="dir_54283da8a0cf1311a88c964d76512876.html" target="_top" xlink:title="SSystem">
<polygon fill="white" stroke="red" points="308,-124 252,-124 252,-88 308,-88 308,-124"/>
<text text-anchor="middle" x="280" y="-103.5" font-family="Helvetica,sans-Serif" font-size="10.00">SSystem</text>
</a>
</g>
</g>
<!-- dir_54283da8a0cf1311a88c964d76512876&#45;&gt;dir_b778c3f297ab88300258a2935792c8cc -->
<g id="edge16" class="edge">
<title>dir_54283da8a0cf1311a88c964d76512876&#45;&gt;dir_b778c3f297ab88300258a2935792c8cc</title>
<path fill="none" stroke="black" d="M308.32,-90.81C311.21,-89.73 314.13,-88.76 317,-88 426.78,-58.97 777.04,-41.6 892.61,-36.55"/>
<polygon fill="black" stroke="black" points="892.89,-40.04 902.73,-36.11 892.59,-33.05 892.89,-40.04"/>
<g id="a_edge16&#45;headlabel"><a xlink:href="dir_001622_000025.html" target="_top" xlink:title="39">
<text text-anchor="middle" x="889.42" y="-40.53" font-family="Helvetica,sans-Serif" font-size="10.00">39</text>
</a>
</g>
</g>
<!-- dir_1cf8c5ae6c227b033e49e3be60b350ef -->
<g id="node20" class="node">
<title>dir_1cf8c5ae6c227b033e49e3be60b350ef</title>
<g id="a_node20"><a xlink:href="dir_1cf8c5ae6c227b033e49e3be60b350ef.html" target="_top" xlink:title="TRK_MINNOW_DOLPHIN">
<polygon fill="white" stroke="red" points="234,-124 100,-124 100,-88 234,-88 234,-124"/>
<text text-anchor="middle" x="167" y="-103.5" font-family="Helvetica,sans-Serif" font-size="10.00">TRK_MINNOW_DOLPHIN</text>
</a>
</g>
</g>
<!-- dir_1cf8c5ae6c227b033e49e3be60b350ef&#45;&gt;dir_b778c3f297ab88300258a2935792c8cc -->
<g id="edge6" class="edge">
<title>dir_1cf8c5ae6c227b033e49e3be60b350ef&#45;&gt;dir_b778c3f297ab88300258a2935792c8cc</title>
<path fill="none" stroke="black" d="M234.04,-89.46C237.06,-88.93 240.06,-88.44 243,-88 488.95,-51.2 788.5,-39.22 892.39,-36.01"/>
<polygon fill="black" stroke="black" points="892.79,-39.5 902.68,-35.7 892.58,-32.51 892.79,-39.5"/>
<g id="a_edge6&#45;headlabel"><a xlink:href="dir_001625_000025.html" target="_top" xlink:title="29">
<text text-anchor="middle" x="889.28" y="-39.95" font-family="Helvetica,sans-Serif" font-size="10.00">29</text>
</a>
</g>
</g>
<!-- dir_81939fb769658ab66ba54ec390580a1a -->
<g id="node21" class="node">
<title>dir_81939fb769658ab66ba54ec390580a1a</title>
<g id="a_node21"><a xlink:href="dir_81939fb769658ab66ba54ec390580a1a.html" target="_top" xlink:title="Z2AudioLib">
<polygon fill="white" stroke="black" points="82,-124 16,-124 16,-88 82,-88 82,-124"/>
<text text-anchor="middle" x="49" y="-103.5" font-family="Helvetica,sans-Serif" font-size="10.00">Z2AudioLib</text>
</a>
</g>
</g>
<!-- dir_81939fb769658ab66ba54ec390580a1a&#45;&gt;dir_b778c3f297ab88300258a2935792c8cc -->
<g id="edge7" class="edge">
<title>dir_81939fb769658ab66ba54ec390580a1a&#45;&gt;dir_b778c3f297ab88300258a2935792c8cc</title>
<path fill="none" stroke="black" d="M82.16,-90.46C85.11,-89.5 88.09,-88.66 91,-88 246.86,-52.52 750.25,-38.95 892.34,-35.78"/>
<polygon fill="black" stroke="black" points="892.77,-39.27 902.69,-35.55 892.62,-32.27 892.77,-39.27"/>
<g id="a_edge7&#45;headlabel"><a xlink:href="dir_001640_000025.html" target="_top" xlink:title="21">
<text text-anchor="middle" x="889.24" y="-39.69" font-family="Helvetica,sans-Serif" font-size="10.00">21</text>
</a>
</g>
</g>
</g>
</svg>
