<?xml version="1.0" encoding="UTF-8" standalone="no"?>
<!DOCTYPE svg PUBLIC "-//W3C//DTD SVG 1.1//EN"
 "http://www.w3.org/Graphics/SVG/1.1/DTD/svg11.dtd">
<!-- Generated by graphviz version 2.47.0 (20210316.2052)
 -->
<!-- Title: include/SSystem Pages: 1 -->
<svg width="284pt" height="175pt"
 viewBox="0.00 0.00 284.00 175.00" xmlns="http://www.w3.org/2000/svg" xmlns:xlink="http://www.w3.org/1999/xlink">
<g id="graph0" class="graph" transform="scale(1 1) rotate(0) translate(4 171)">
<title>include/SSystem</title>
<polygon fill="white" stroke="transparent" points="-4,4 -4,-171 280,-171 280,4 -4,4"/>
<g id="clust1" class="cluster">
<title>clusterdir_d44c64559bbebec7f509842c48db8b23</title>
<g id="a_clust1"><a xlink:href="dir_d44c64559bbebec7f509842c48db8b23.html" target="_top" xlink:title="include">
<polygon fill="#ddddee" stroke="black" points="8,-8 8,-159 268,-159 268,-8 8,-8"/>
<text text-anchor="middle" x="138" y="-147" font-family="Helvetica,sans-Serif" font-size="10.00">include</text>
</a>
</g>
</g>
<g id="clust2" class="cluster">
<title>clusterdir_54283da8a0cf1311a88c964d76512876</title>
<g id="a_clust2"><a xlink:href="dir_54283da8a0cf1311a88c964d76512876.html" target="_top">
<polygon fill="#eeeeff" stroke="black" points="16,-80 16,-132 260,-132 260,-80 16,-80"/>
</a>
</g>
</g>
<!-- dir_b778c3f297ab88300258a2935792c8cc -->
<g id="node1" class="node">
<title>dir_b778c3f297ab88300258a2935792c8cc</title>
<g id="a_node1"><a xlink:href="dir_b778c3f297ab88300258a2935792c8cc.html" target="_top" xlink:title="dolphin">
<polygon fill="white" stroke="red" points="125,-52 71,-52 71,-16 125,-16 125,-52"/>
<text text-anchor="middle" x="98" y="-31.5" font-family="Helvetica,sans-Serif" font-size="10.00">dolphin</text>
</a>
</g>
</g>
<!-- dir_54283da8a0cf1311a88c964d76512876 -->
<g id="node2" class="node">
<title>dir_54283da8a0cf1311a88c964d76512876</title>
<text text-anchor="middle" x="224" y="-103.5" font-family="Helvetica,sans-Serif" font-size="10.00">SSystem</text>
</g>
<!-- dir_3827de488e3dc5670df2ba05bd5c1e8a -->
<g id="node3" class="node">
<title>dir_3827de488e3dc5670df2ba05bd5c1e8a</title>
<g id="a_node3"><a xlink:href="dir_3827de488e3dc5670df2ba05bd5c1e8a.html" target="_top" xlink:title="SComponent">
<polygon fill="white" stroke="black" points="177.5,-124 104.5,-124 104.5,-88 177.5,-88 177.5,-124"/>
<text text-anchor="middle" x="141" y="-103.5" font-family="Helvetica,sans-Serif" font-size="10.00">SComponent</text>
</a>
</g>
</g>
<!-- dir_3827de488e3dc5670df2ba05bd5c1e8a&#45;&gt;dir_b778c3f297ab88300258a2935792c8cc -->
<g id="edge2" class="edge">
<title>dir_3827de488e3dc5670df2ba05bd5c1e8a&#45;&gt;dir_b778c3f297ab88300258a2935792c8cc</title>
<path fill="none" stroke="black" d="M130.37,-87.7C125.37,-79.56 119.31,-69.69 113.79,-60.7"/>
<polygon fill="black" stroke="black" points="116.72,-58.79 108.51,-52.1 110.76,-62.46 116.72,-58.79"/>
<g id="a_edge2&#45;headlabel"><a xlink:href="dir_001623_000025.html" target="_top" xlink:title="38">
<text text-anchor="middle" x="121.02" y="-57.87" font-family="Helvetica,sans-Serif" font-size="10.00">38</text>
</a>
</g>
</g>
<!-- dir_4d2a7d0218cfa98d3d5747df20f43946 -->
<g id="node4" class="node">
<title>dir_4d2a7d0218cfa98d3d5747df20f43946</title>
<g id="a_node4"><a xlink:href="dir_4d2a7d0218cfa98d3d5747df20f43946.html" target="_top" xlink:title="SStandard">
<polygon fill="white" stroke="black" points="86,-124 24,-124 24,-88 86,-88 86,-124"/>
<text text-anchor="middle" x="55" y="-103.5" font-family="Helvetica,sans-Serif" font-size="10.00">SStandard</text>
</a>
</g>
</g>
<!-- dir_4d2a7d0218cfa98d3d5747df20f43946&#45;&gt;dir_b778c3f297ab88300258a2935792c8cc -->
<g id="edge1" class="edge">
<title>dir_4d2a7d0218cfa98d3d5747df20f43946&#45;&gt;dir_b778c3f297ab88300258a2935792c8cc</title>
<path fill="none" stroke="black" d="M65.63,-87.7C70.63,-79.56 76.69,-69.69 82.21,-60.7"/>
<polygon fill="black" stroke="black" points="85.24,-62.46 87.49,-52.1 79.28,-58.79 85.24,-62.46"/>
<g id="a_edge1&#45;headlabel"><a xlink:href="dir_001624_000025.html" target="_top" xlink:title="1">
<text text-anchor="middle" x="85.78" y="-64.51" font-family="Helvetica,sans-Serif" font-size="10.00">1</text>
</a>
</g>
</g>
</g>
</svg>
