<?xml version="1.0" encoding="UTF-8" standalone="no"?>
<!DOCTYPE svg PUBLIC "-//W3C//DTD SVG 1.1//EN"
 "http://www.w3.org/Graphics/SVG/1.1/DTD/svg11.dtd">
<!-- Generated by graphviz version 2.47.0 (20210316.2052)
 -->
<!-- Title: libs/TRK_MINNOW_DOLPHIN/Os/dolphin/dolphin_trk_glue.cpp Pages: 1 -->
<!--zoomable 184 -->
<svg id="main" version="1.1" xmlns="http://www.w3.org/2000/svg" xmlns:xlink="http://www.w3.org/1999/xlink" xml:space="preserve" onload="init(evt)">
<style type="text/css"><![CDATA[
.edge:hover path { stroke: red; }
.edge:hover polygon { stroke: red; fill: red; }
]]></style>
<script type="text/javascript"><![CDATA[
var edges = document.getElementsByTagName('g');
if (edges && edges.length) {
  for (var i=0;i<edges.length;i++) {
    if (edges[i].id.substr(0,4)=='edge') {
      edges[i].setAttribute('class','edge');
    }
  }
}
]]></script>
        <defs>
                <circle id="rim" cx="0" cy="0" r="7"/>
                <circle id="rim2" cx="0" cy="0" r="3.5"/>
                <g id="zoomPlus">
                        <use xlink:href="#rim" fill="#404040">
                                <set attributeName="fill" to="#808080" begin="zoomplus.mouseover" end="zoomplus.mouseout"/>
                        </use>
                        <path d="M-4,0h8M0,-4v8" fill="none" stroke="white" stroke-width="1.5" pointer-events="none"/>
                </g>
                <g id="zoomMin">
                        <use xlink:href="#rim" fill="#404040">
                                <set attributeName="fill" to="#808080" begin="zoomminus.mouseover" end="zoomminus.mouseout"/>
                        </use>
                        <path d="M-4,0h8" fill="none" stroke="white" stroke-width="1.5" pointer-events="none"/>
                </g>
                <g id="dirArrow">
                        <path fill="none" stroke="white" stroke-width="1.5" d="M0,-3.0v7 M-2.5,-0.5L0,-3.0L2.5,-0.5"/>
                </g>
               <g id="resetDef">
                       <use xlink:href="#rim2" fill="#404040">
                               <set attributeName="fill" to="#808080" begin="reset.mouseover" end="reset.mouseout"/>
                       </use>
               </g>
        </defs>

<script type="text/javascript">
var viewWidth = 2371;
var viewHeight = 184;
var sectionId = 'dynsection-0';
</script>
<script xlink:href="svgpan.js"/>
<svg id="graph" class="graph">
<g id="viewport">
<title>libs/TRK_MINNOW_DOLPHIN/Os/dolphin/dolphin_trk_glue.cpp</title>
<polygon fill="white" stroke="transparent" points="-4,4 -4,-180 2366.5,-180 2366.5,4 -4,4"/>
<!-- Node1 -->
<g id="node1" class="node">
<title>Node1</title>
<g id="a_node1"><a xlink:title=" ">
<polygon fill="#bfbfbf" stroke="black" points="969.5,-134.5 969.5,-175.5 1121.5,-175.5 1121.5,-134.5 969.5,-134.5"/>
<text text-anchor="start" x="977.5" y="-163.5" font-family="Helvetica,sans-Serif" font-size="10.00">libs/TRK_MINNOW_DOLPHIN</text>
<text text-anchor="start" x="977.5" y="-152.5" font-family="Helvetica,sans-Serif" font-size="10.00">/Os/dolphin/dolphin_trk</text>
<text text-anchor="middle" x="1045.5" y="-141.5" font-family="Helvetica,sans-Serif" font-size="10.00">_glue.cpp</text>
</a>
</g>
</g>
<!-- Node2 -->
<g id="node2" class="node">
<title>Node2</title>
<g id="a_node2"><a xlink:href="dol2asm_8h.html" target="_top" xlink:title=" ">
<polygon fill="white" stroke="black" points="0,-67.5 0,-86.5 61,-86.5 61,-67.5 0,-67.5"/>
<text text-anchor="middle" x="30.5" y="-74.5" font-family="Helvetica,sans-Serif" font-size="10.00">dol2asm.h</text>
</a>
</g>
</g>
<!-- Node1&#45;&gt;Node2 -->
<g id="edge1" class="edge">
<title>Node1&#45;&gt;Node2</title>
<path fill="none" stroke="midnightblue" d="M969.35,-153.13C771.47,-150.3 244.66,-139.03 75.5,-98 68.85,-96.39 61.96,-93.83 55.62,-91.07"/>
<polygon fill="midnightblue" stroke="midnightblue" points="56.79,-87.75 46.25,-86.68 53.82,-94.09 56.79,-87.75"/>
</g>
<!-- Node3 -->
<g id="node3" class="node">
<title>Node3</title>
<g id="a_node3"><a xlink:href="types_8h.html" target="_top" xlink:title=" ">
<polygon fill="white" stroke="black" points="96,-0.5 96,-19.5 177,-19.5 177,-0.5 96,-0.5"/>
<text text-anchor="middle" x="136.5" y="-7.5" font-family="Helvetica,sans-Serif" font-size="10.00">dolphin/types.h</text>
</a>
</g>
</g>
<!-- Node1&#45;&gt;Node3 -->
<g id="edge2" class="edge">
<title>Node1&#45;&gt;Node3</title>
<path fill="none" stroke="midnightblue" d="M969.23,-152.26C751.02,-146.92 137.87,-129.17 108.5,-98 90.1,-78.47 108.23,-46.78 122.65,-27.52"/>
<polygon fill="midnightblue" stroke="midnightblue" points="125.43,-29.65 128.87,-19.63 119.93,-25.31 125.43,-29.65"/>
</g>
<!-- Node4 -->
<g id="node4" class="node">
<title>Node4</title>
<g id="a_node4"><a xlink:href="dolphin__trk__glue_8h.html" target="_top" xlink:title=" ">
<polygon fill="white" stroke="black" points="117.5,-56.5 117.5,-97.5 251.5,-97.5 251.5,-56.5 117.5,-56.5"/>
<text text-anchor="start" x="125.5" y="-85.5" font-family="Helvetica,sans-Serif" font-size="10.00">TRK_MINNOW_DOLPHIN</text>
<text text-anchor="start" x="125.5" y="-74.5" font-family="Helvetica,sans-Serif" font-size="10.00">/Os/dolphin/dolphin</text>
<text text-anchor="middle" x="184.5" y="-63.5" font-family="Helvetica,sans-Serif" font-size="10.00">_trk_glue.h</text>
</a>
</g>
</g>
<!-- Node1&#45;&gt;Node4 -->
<g id="edge3" class="edge">
<title>Node1&#45;&gt;Node4</title>
<path fill="none" stroke="midnightblue" d="M969.45,-153.26C830.41,-150.89 525.98,-140.96 262.06,-98.1"/>
<polygon fill="midnightblue" stroke="midnightblue" points="262.34,-94.6 251.9,-96.43 261.2,-101.51 262.34,-94.6"/>
</g>
<!-- Node5 -->
<g id="node5" class="node">
<title>Node5</title>
<g id="a_node5"><a xlink:title=" ">
<polygon fill="white" stroke="#bfbfbf" points="269.5,-56.5 269.5,-97.5 425.5,-97.5 425.5,-56.5 269.5,-56.5"/>
<text text-anchor="start" x="277.5" y="-85.5" font-family="Helvetica,sans-Serif" font-size="10.00">asm/TRK_MINNOW_DOLPHIN</text>
<text text-anchor="start" x="277.5" y="-74.5" font-family="Helvetica,sans-Serif" font-size="10.00">/Os/dolphin/dolphin_trk</text>
<text text-anchor="middle" x="347.5" y="-63.5" font-family="Helvetica,sans-Serif" font-size="10.00">_glue/TRKLoadContext.s</text>
</a>
</g>
</g>
<!-- Node1&#45;&gt;Node5 -->
<g id="edge5" class="edge">
<title>Node1&#45;&gt;Node5</title>
<path fill="none" stroke="midnightblue" d="M969.36,-150.32C855.29,-144.08 633.2,-129.1 435.64,-98.07"/>
<polygon fill="midnightblue" stroke="midnightblue" points="436.08,-94.6 425.66,-96.49 434.98,-101.51 436.08,-94.6"/>
</g>
<!-- Node6 -->
<g id="node6" class="node">
<title>Node6</title>
<g id="a_node6"><a xlink:title=" ">
<polygon fill="white" stroke="#bfbfbf" points="443.5,-56.5 443.5,-97.5 601.5,-97.5 601.5,-56.5 443.5,-56.5"/>
<text text-anchor="start" x="451.5" y="-85.5" font-family="Helvetica,sans-Serif" font-size="10.00">asm/TRK_MINNOW_DOLPHIN</text>
<text text-anchor="start" x="451.5" y="-74.5" font-family="Helvetica,sans-Serif" font-size="10.00">/Os/dolphin/dolphin_trk</text>
<text text-anchor="middle" x="522.5" y="-63.5" font-family="Helvetica,sans-Serif" font-size="10.00">_glue/InitializeProgramEndTrap.s</text>
</a>
</g>
</g>
<!-- Node1&#45;&gt;Node6 -->
<g id="edge6" class="edge">
<title>Node1&#45;&gt;Node6</title>
<path fill="none" stroke="midnightblue" d="M969.33,-146.42C884.44,-137.47 742.93,-121.06 611.81,-98.15"/>
<polygon fill="midnightblue" stroke="midnightblue" points="612.04,-94.64 601.58,-96.35 610.82,-101.53 612.04,-94.64"/>
</g>
<!-- Node7 -->
<g id="node7" class="node">
<title>Node7</title>
<g id="a_node7"><a xlink:title=" ">
<polygon fill="white" stroke="#bfbfbf" points="619.5,-56.5 619.5,-97.5 775.5,-97.5 775.5,-56.5 619.5,-56.5"/>
<text text-anchor="start" x="627.5" y="-85.5" font-family="Helvetica,sans-Serif" font-size="10.00">asm/TRK_MINNOW_DOLPHIN</text>
<text text-anchor="start" x="627.5" y="-74.5" font-family="Helvetica,sans-Serif" font-size="10.00">/Os/dolphin/dolphin_trk</text>
<text text-anchor="middle" x="697.5" y="-63.5" font-family="Helvetica,sans-Serif" font-size="10.00">_glue/TRK_board_display.s</text>
</a>
</g>
</g>
<!-- Node1&#45;&gt;Node7 -->
<g id="edge7" class="edge">
<title>Node1&#45;&gt;Node7</title>
<path fill="none" stroke="midnightblue" d="M969.49,-138C919.83,-127.47 853.29,-113.23 785.72,-98.26"/>
<polygon fill="midnightblue" stroke="midnightblue" points="786.26,-94.79 775.74,-96.04 784.75,-101.63 786.26,-94.79"/>
</g>
<!-- Node8 -->
<g id="node8" class="node">
<title>Node8</title>
<g id="a_node8"><a xlink:title=" ">
<polygon fill="white" stroke="#bfbfbf" points="793.5,-56.5 793.5,-97.5 949.5,-97.5 949.5,-56.5 793.5,-56.5"/>
<text text-anchor="start" x="801.5" y="-85.5" font-family="Helvetica,sans-Serif" font-size="10.00">asm/TRK_MINNOW_DOLPHIN</text>
<text text-anchor="start" x="801.5" y="-74.5" font-family="Helvetica,sans-Serif" font-size="10.00">/Os/dolphin/dolphin_trk</text>
<text text-anchor="middle" x="871.5" y="-63.5" font-family="Helvetica,sans-Serif" font-size="10.00">_glue/UnreserveEXI2Port.s</text>
</a>
</g>
</g>
<!-- Node1&#45;&gt;Node8 -->
<g id="edge8" class="edge">
<title>Node1&#45;&gt;Node8</title>
<path fill="none" stroke="midnightblue" d="M1000.69,-134.43C977.76,-124.41 949.66,-112.14 925.53,-101.6"/>
<polygon fill="midnightblue" stroke="midnightblue" points="926.72,-98.3 916.16,-97.51 923.92,-104.72 926.72,-98.3"/>
</g>
<!-- Node9 -->
<g id="node9" class="node">
<title>Node9</title>
<g id="a_node9"><a xlink:title=" ">
<polygon fill="white" stroke="#bfbfbf" points="967.5,-56.5 967.5,-97.5 1123.5,-97.5 1123.5,-56.5 967.5,-56.5"/>
<text text-anchor="start" x="975.5" y="-85.5" font-family="Helvetica,sans-Serif" font-size="10.00">asm/TRK_MINNOW_DOLPHIN</text>
<text text-anchor="start" x="975.5" y="-74.5" font-family="Helvetica,sans-Serif" font-size="10.00">/Os/dolphin/dolphin_trk</text>
<text text-anchor="middle" x="1045.5" y="-63.5" font-family="Helvetica,sans-Serif" font-size="10.00">_glue/ReserveEXI2Port.s</text>
</a>
</g>
</g>
<!-- Node1&#45;&gt;Node9 -->
<g id="edge9" class="edge">
<title>Node1&#45;&gt;Node9</title>
<path fill="none" stroke="midnightblue" d="M1045.5,-134.43C1045.5,-126.27 1045.5,-116.62 1045.5,-107.63"/>
<polygon fill="midnightblue" stroke="midnightblue" points="1049,-107.51 1045.5,-97.51 1042,-107.51 1049,-107.51"/>
</g>
<!-- Node10 -->
<g id="node10" class="node">
<title>Node10</title>
<g id="a_node10"><a xlink:title=" ">
<polygon fill="white" stroke="#bfbfbf" points="1141.5,-56.5 1141.5,-97.5 1297.5,-97.5 1297.5,-56.5 1141.5,-56.5"/>
<text text-anchor="start" x="1149.5" y="-85.5" font-family="Helvetica,sans-Serif" font-size="10.00">asm/TRK_MINNOW_DOLPHIN</text>
<text text-anchor="start" x="1149.5" y="-74.5" font-family="Helvetica,sans-Serif" font-size="10.00">/Os/dolphin/dolphin_trk</text>
<text text-anchor="middle" x="1219.5" y="-63.5" font-family="Helvetica,sans-Serif" font-size="10.00">_glue/TRKWriteUARTN.s</text>
</a>
</g>
</g>
<!-- Node1&#45;&gt;Node10 -->
<g id="edge10" class="edge">
<title>Node1&#45;&gt;Node10</title>
<path fill="none" stroke="midnightblue" d="M1090.31,-134.43C1113.24,-124.41 1141.34,-112.14 1165.47,-101.6"/>
<polygon fill="midnightblue" stroke="midnightblue" points="1167.08,-104.72 1174.84,-97.51 1164.28,-98.3 1167.08,-104.72"/>
</g>
<!-- Node11 -->
<g id="node11" class="node">
<title>Node11</title>
<g id="a_node11"><a xlink:title=" ">
<polygon fill="white" stroke="#bfbfbf" points="1315.5,-56.5 1315.5,-97.5 1471.5,-97.5 1471.5,-56.5 1315.5,-56.5"/>
<text text-anchor="start" x="1323.5" y="-85.5" font-family="Helvetica,sans-Serif" font-size="10.00">asm/TRK_MINNOW_DOLPHIN</text>
<text text-anchor="start" x="1323.5" y="-74.5" font-family="Helvetica,sans-Serif" font-size="10.00">/Os/dolphin/dolphin_trk</text>
<text text-anchor="middle" x="1393.5" y="-63.5" font-family="Helvetica,sans-Serif" font-size="10.00">_glue/TRKReadUARTN.s</text>
</a>
</g>
</g>
<!-- Node1&#45;&gt;Node11 -->
<g id="edge11" class="edge">
<title>Node1&#45;&gt;Node11</title>
<path fill="none" stroke="midnightblue" d="M1121.51,-138C1171.17,-127.47 1237.71,-113.23 1305.28,-98.26"/>
<polygon fill="midnightblue" stroke="midnightblue" points="1306.25,-101.63 1315.26,-96.04 1304.74,-94.79 1306.25,-101.63"/>
</g>
<!-- Node12 -->
<g id="node12" class="node">
<title>Node12</title>
<g id="a_node12"><a xlink:title=" ">
<polygon fill="white" stroke="#bfbfbf" points="1489.5,-56.5 1489.5,-97.5 1645.5,-97.5 1645.5,-56.5 1489.5,-56.5"/>
<text text-anchor="start" x="1497.5" y="-85.5" font-family="Helvetica,sans-Serif" font-size="10.00">asm/TRK_MINNOW_DOLPHIN</text>
<text text-anchor="start" x="1497.5" y="-74.5" font-family="Helvetica,sans-Serif" font-size="10.00">/Os/dolphin/dolphin_trk</text>
<text text-anchor="middle" x="1567.5" y="-63.5" font-family="Helvetica,sans-Serif" font-size="10.00">_glue/TRKPollUART.s</text>
</a>
</g>
</g>
<!-- Node1&#45;&gt;Node12 -->
<g id="edge12" class="edge">
<title>Node1&#45;&gt;Node12</title>
<path fill="none" stroke="midnightblue" d="M1121.68,-146.48C1206.58,-137.58 1348.1,-121.21 1479.1,-98.17"/>
<polygon fill="midnightblue" stroke="midnightblue" points="1480.09,-101.55 1489.32,-96.35 1478.86,-94.66 1480.09,-101.55"/>
</g>
<!-- Node13 -->
<g id="node13" class="node">
<title>Node13</title>
<g id="a_node13"><a xlink:title=" ">
<polygon fill="white" stroke="#bfbfbf" points="1663.5,-56.5 1663.5,-97.5 1819.5,-97.5 1819.5,-56.5 1663.5,-56.5"/>
<text text-anchor="start" x="1671.5" y="-85.5" font-family="Helvetica,sans-Serif" font-size="10.00">asm/TRK_MINNOW_DOLPHIN</text>
<text text-anchor="start" x="1671.5" y="-74.5" font-family="Helvetica,sans-Serif" font-size="10.00">/Os/dolphin/dolphin_trk</text>
<text text-anchor="middle" x="1741.5" y="-63.5" font-family="Helvetica,sans-Serif" font-size="10.00">_glue/EnableEXI2Interrupts.s</text>
</a>
</g>
</g>
<!-- Node1&#45;&gt;Node13 -->
<g id="edge13" class="edge">
<title>Node1&#45;&gt;Node13</title>
<path fill="none" stroke="midnightblue" d="M1121.86,-150.28C1235.71,-143.99 1456.72,-128.99 1653.4,-98.07"/>
<polygon fill="midnightblue" stroke="midnightblue" points="1654.02,-101.51 1663.34,-96.49 1652.92,-94.6 1654.02,-101.51"/>
</g>
<!-- Node14 -->
<g id="node14" class="node">
<title>Node14</title>
<g id="a_node14"><a xlink:title=" ">
<polygon fill="white" stroke="#bfbfbf" points="1838,-56.5 1838,-97.5 2009,-97.5 2009,-56.5 1838,-56.5"/>
<text text-anchor="start" x="1846" y="-85.5" font-family="Helvetica,sans-Serif" font-size="10.00">asm/TRK_MINNOW_DOLPHIN</text>
<text text-anchor="start" x="1846" y="-74.5" font-family="Helvetica,sans-Serif" font-size="10.00">/Os/dolphin/dolphin_trk</text>
<text text-anchor="middle" x="1923.5" y="-63.5" font-family="Helvetica,sans-Serif" font-size="10.00">_glue/TRKInitializeIntDrivenUART.s</text>
</a>
</g>
</g>
<!-- Node1&#45;&gt;Node14 -->
<g id="edge14" class="edge">
<title>Node1&#45;&gt;Node14</title>
<path fill="none" stroke="midnightblue" d="M1121.72,-151.99C1260.36,-147.59 1563.08,-134.5 1827.7,-98"/>
<polygon fill="midnightblue" stroke="midnightblue" points="1828.47,-101.43 1837.89,-96.58 1827.5,-94.5 1828.47,-101.43"/>
</g>
<!-- Node15 -->
<g id="node15" class="node">
<title>Node15</title>
<g id="a_node15"><a xlink:title=" ">
<polygon fill="white" stroke="#bfbfbf" points="2027,-56.5 2027,-97.5 2188,-97.5 2188,-56.5 2027,-56.5"/>
<text text-anchor="start" x="2035" y="-85.5" font-family="Helvetica,sans-Serif" font-size="10.00">asm/TRK_MINNOW_DOLPHIN</text>
<text text-anchor="start" x="2035" y="-74.5" font-family="Helvetica,sans-Serif" font-size="10.00">/Os/dolphin/dolphin_trk</text>
<text text-anchor="middle" x="2107.5" y="-63.5" font-family="Helvetica,sans-Serif" font-size="10.00">_glue/InitMetroTRKCommTable.s</text>
</a>
</g>
</g>
<!-- Node1&#45;&gt;Node15 -->
<g id="edge15" class="edge">
<title>Node1&#45;&gt;Node15</title>
<path fill="none" stroke="midnightblue" d="M1121.61,-153.84C1284.5,-152.59 1678.92,-144.66 2016.62,-98.16"/>
<polygon fill="midnightblue" stroke="midnightblue" points="2017.17,-101.61 2026.6,-96.77 2016.21,-94.68 2017.17,-101.61"/>
</g>
<!-- Node16 -->
<g id="node16" class="node">
<title>Node16</title>
<g id="a_node16"><a xlink:title=" ">
<polygon fill="white" stroke="#bfbfbf" points="2206.5,-56.5 2206.5,-97.5 2362.5,-97.5 2362.5,-56.5 2206.5,-56.5"/>
<text text-anchor="start" x="2214.5" y="-85.5" font-family="Helvetica,sans-Serif" font-size="10.00">asm/TRK_MINNOW_DOLPHIN</text>
<text text-anchor="start" x="2214.5" y="-74.5" font-family="Helvetica,sans-Serif" font-size="10.00">/Os/dolphin/dolphin_trk</text>
<text text-anchor="middle" x="2284.5" y="-63.5" font-family="Helvetica,sans-Serif" font-size="10.00">_glue/TRKEXICallBack.s</text>
</a>
</g>
</g>
<!-- Node1&#45;&gt;Node16 -->
<g id="edge16" class="edge">
<title>Node1&#45;&gt;Node16</title>
<path fill="none" stroke="midnightblue" d="M1121.56,-152.07C1340.27,-146.23 1969.18,-127.44 2196.19,-98.01"/>
<polygon fill="midnightblue" stroke="midnightblue" points="2196.92,-101.45 2206.37,-96.65 2195.99,-94.51 2196.92,-101.45"/>
</g>
<!-- Node4&#45;&gt;Node3 -->
<g id="edge4" class="edge">
<title>Node4&#45;&gt;Node3</title>
<path fill="none" stroke="midnightblue" d="M170.1,-56.5C163.38,-47.39 155.45,-36.66 148.99,-27.91"/>
<polygon fill="midnightblue" stroke="midnightblue" points="151.65,-25.62 142.89,-19.65 146.01,-29.78 151.65,-25.62"/>
</g>
</g>
</svg>
        <g id="navigator" transform="translate(0 0)" fill="#404254">
                <rect fill="#f2f5e9" fill-opacity="0.5" stroke="#606060" stroke-width=".5" x="0" y="0" width="60" height="60"/>
                <use id="zoomplus" xlink:href="#zoomPlus" x="17" y="9" onmousedown="handleZoom(evt,'in')"/>
                <use id="zoomminus" xlink:href="#zoomMin" x="42" y="9" onmousedown="handleZoom(evt,'out')"/>
                <use id="reset" xlink:href="#resetDef" x="30" y="36" onmousedown="handleReset()"/>
                <g id="arrowUp" xlink:href="#dirArrow" transform="translate(30 24)" onmousedown="handlePan(0,-1)">
                  <use xlink:href="#rim" fill="#404040">
                        <set attributeName="fill" to="#808080" begin="arrowUp.mouseover" end="arrowUp.mouseout"/>
                  </use>
                  <path fill="none" stroke="white" stroke-width="1.5" d="M0,-3.0v7 M-2.5,-0.5L0,-3.0L2.5,-0.5"/>
                </g>
                <g id="arrowRight" xlink:href="#dirArrow" transform="rotate(90) translate(36 -43)" onmousedown="handlePan(1,0)">
                  <use xlink:href="#rim" fill="#404040">
                        <set attributeName="fill" to="#808080" begin="arrowRight.mouseover" end="arrowRight.mouseout"/>
                  </use>
                  <path fill="none" stroke="white" stroke-width="1.5" d="M0,-3.0v7 M-2.5,-0.5L0,-3.0L2.5,-0.5"/>
                </g>
                <g id="arrowDown" xlink:href="#dirArrow" transform="rotate(180) translate(-30 -48)" onmousedown="handlePan(0,1)">
                  <use xlink:href="#rim" fill="#404040">
                        <set attributeName="fill" to="#808080" begin="arrowDown.mouseover" end="arrowDown.mouseout"/>
                  </use>
                  <path fill="none" stroke="white" stroke-width="1.5" d="M0,-3.0v7 M-2.5,-0.5L0,-3.0L2.5,-0.5"/>
                </g>
                <g id="arrowLeft" xlink:href="#dirArrow" transform="rotate(270) translate(-36 17)" onmousedown="handlePan(-1,0)">
                  <use xlink:href="#rim" fill="#404040">
                        <set attributeName="fill" to="#808080" begin="arrowLeft.mouseover" end="arrowLeft.mouseout"/>
                  </use>
                  <path fill="none" stroke="white" stroke-width="1.5" d="M0,-3.0v7 M-2.5,-0.5L0,-3.0L2.5,-0.5"/>
                </g>
        </g>
        <svg viewBox="0 0 15 15" width="100%" height="30px" preserveAspectRatio="xMaxYMin meet">
         <g id="arrow_out" transform="scale(0.3 0.3)">
          <a xlink:href="dolphin__trk__glue_8cpp__incl_org.svg" target="_base">
           <rect id="button" ry="5" rx="5" y="6" x="6" height="38" width="38"
                fill="#f2f5e9" fill-opacity="0.5" stroke="#606060" stroke-width="1.0"/>
           <path id="arrow"
             d="M 11.500037,31.436501 C 11.940474,20.09759 22.043105,11.32322 32.158766,21.979434 L 37.068811,17.246167 C 37.068811,17.246167 37.088388,32 37.088388,32 L 22.160133,31.978069 C 22.160133,31.978069 26.997745,27.140456 26.997745,27.140456 C 18.528582,18.264221 13.291696,25.230495 11.500037,31.436501 z"
             style="fill:#404040;"/>
          </a>
         </g>
        </svg>
</svg>
