<?xml version="1.0" encoding="UTF-8" standalone="no"?>
<!DOCTYPE svg PUBLIC "-//W3C//DTD SVG 1.1//EN"
 "http://www.w3.org/Graphics/SVG/1.1/DTD/svg11.dtd">
<!-- Generated by graphviz version 2.47.0 (20210316.2052)
 -->
<!-- Title: libs/dolphin/dsp/dsp.cpp Pages: 1 -->
<svg width="1052pt" height="151pt"
 viewBox="0.00 0.00 1052.00 151.00" xmlns="http://www.w3.org/2000/svg" xmlns:xlink="http://www.w3.org/1999/xlink">
<g id="graph0" class="graph" transform="scale(1 1) rotate(0) translate(4 147)">
<title>libs/dolphin/dsp/dsp.cpp</title>
<polygon fill="white" stroke="transparent" points="-4,4 -4,-147 1048,-147 1048,4 -4,4"/>
<!-- Node1 -->
<g id="node1" class="node">
<title>Node1</title>
<g id="a_node1"><a xlink:title=" ">
<polygon fill="#bfbfbf" stroke="black" points="379,-123.5 379,-142.5 500,-142.5 500,-123.5 379,-123.5"/>
<text text-anchor="middle" x="439.5" y="-130.5" font-family="Helvetica,sans-Serif" font-size="10.00">libs/dolphin/dsp/dsp.cpp</text>
</a>
</g>
</g>
<!-- Node2 -->
<g id="node2" class="node">
<title>Node2</title>
<g id="a_node2"><a xlink:href="dol2asm_8h.html" target="_top" xlink:title=" ">
<polygon fill="white" stroke="black" points="0,-62 0,-81 61,-81 61,-62 0,-62"/>
<text text-anchor="middle" x="30.5" y="-69" font-family="Helvetica,sans-Serif" font-size="10.00">dol2asm.h</text>
</a>
</g>
</g>
<!-- Node1&#45;&gt;Node2 -->
<g id="edge1" class="edge">
<title>Node1&#45;&gt;Node2</title>
<path fill="none" stroke="midnightblue" d="M378.69,-128.01C305.92,-122.42 180.74,-110.24 75.5,-87 71.64,-86.15 67.65,-85.1 63.7,-83.97"/>
<polygon fill="midnightblue" stroke="midnightblue" points="64.68,-80.61 54.09,-81.03 62.63,-87.3 64.68,-80.61"/>
</g>
<!-- Node3 -->
<g id="node3" class="node">
<title>Node3</title>
<g id="a_node3"><a xlink:href="types_8h.html" target="_top" xlink:title=" ">
<polygon fill="white" stroke="black" points="86,-0.5 86,-19.5 167,-19.5 167,-0.5 86,-0.5"/>
<text text-anchor="middle" x="126.5" y="-7.5" font-family="Helvetica,sans-Serif" font-size="10.00">dolphin/types.h</text>
</a>
</g>
</g>
<!-- Node1&#45;&gt;Node3 -->
<g id="edge2" class="edge">
<title>Node1&#45;&gt;Node3</title>
<path fill="none" stroke="midnightblue" d="M378.74,-132.85C292.94,-132.61 142.88,-126.37 108.5,-87 94.33,-70.78 104.67,-45.43 114.57,-28.53"/>
<polygon fill="midnightblue" stroke="midnightblue" points="117.77,-30 120.15,-19.68 111.85,-26.27 117.77,-30"/>
</g>
<!-- Node4 -->
<g id="node4" class="node">
<title>Node4</title>
<g id="a_node4"><a xlink:href="dsp_8h.html" target="_top" xlink:title=" ">
<polygon fill="white" stroke="black" points="117.5,-62 117.5,-81 209.5,-81 209.5,-62 117.5,-62"/>
<text text-anchor="middle" x="163.5" y="-69" font-family="Helvetica,sans-Serif" font-size="10.00">dolphin/dsp/dsp.h</text>
</a>
</g>
</g>
<!-- Node1&#45;&gt;Node4 -->
<g id="edge3" class="edge">
<title>Node1&#45;&gt;Node4</title>
<path fill="none" stroke="midnightblue" d="M394.27,-123.46C349.69,-114.87 279.7,-100.94 219.5,-87 214.85,-85.92 210,-84.75 205.18,-83.55"/>
<polygon fill="midnightblue" stroke="midnightblue" points="205.97,-80.13 195.41,-81.07 204.25,-86.92 205.97,-80.13"/>
</g>
<!-- Node5 -->
<g id="node5" class="node">
<title>Node5</title>
<g id="a_node5"><a xlink:title=" ">
<polygon fill="white" stroke="#bfbfbf" points="228,-56.5 228,-86.5 353,-86.5 353,-56.5 228,-56.5"/>
<text text-anchor="start" x="236" y="-74.5" font-family="Helvetica,sans-Serif" font-size="10.00">asm/dolphin/dsp/dsp</text>
<text text-anchor="middle" x="290.5" y="-63.5" font-family="Helvetica,sans-Serif" font-size="10.00">/DSPCheckMailToDSP.s</text>
</a>
</g>
</g>
<!-- Node1&#45;&gt;Node5 -->
<g id="edge5" class="edge">
<title>Node1&#45;&gt;Node5</title>
<path fill="none" stroke="midnightblue" d="M418.15,-123.48C396.56,-114.85 362.53,-101.26 335.04,-90.29"/>
<polygon fill="midnightblue" stroke="midnightblue" points="336.2,-86.98 325.62,-86.52 333.61,-93.48 336.2,-86.98"/>
</g>
<!-- Node6 -->
<g id="node6" class="node">
<title>Node6</title>
<g id="a_node6"><a xlink:title=" ">
<polygon fill="white" stroke="#bfbfbf" points="371.5,-56.5 371.5,-86.5 507.5,-86.5 507.5,-56.5 371.5,-56.5"/>
<text text-anchor="start" x="379.5" y="-74.5" font-family="Helvetica,sans-Serif" font-size="10.00">asm/dolphin/dsp/dsp</text>
<text text-anchor="middle" x="439.5" y="-63.5" font-family="Helvetica,sans-Serif" font-size="10.00">/DSPCheckMailFromDSP.s</text>
</a>
</g>
</g>
<!-- Node1&#45;&gt;Node6 -->
<g id="edge6" class="edge">
<title>Node1&#45;&gt;Node6</title>
<path fill="none" stroke="midnightblue" d="M439.5,-123.48C439.5,-116.47 439.5,-106.19 439.5,-96.7"/>
<polygon fill="midnightblue" stroke="midnightblue" points="443,-96.52 439.5,-86.52 436,-96.52 443,-96.52"/>
</g>
<!-- Node7 -->
<g id="node7" class="node">
<title>Node7</title>
<g id="a_node7"><a xlink:title=" ">
<polygon fill="white" stroke="#bfbfbf" points="526,-56.5 526,-86.5 657,-86.5 657,-56.5 526,-56.5"/>
<text text-anchor="start" x="534" y="-74.5" font-family="Helvetica,sans-Serif" font-size="10.00">asm/dolphin/dsp/dsp</text>
<text text-anchor="middle" x="591.5" y="-63.5" font-family="Helvetica,sans-Serif" font-size="10.00">/DSPReadMailFromDSP.s</text>
</a>
</g>
</g>
<!-- Node1&#45;&gt;Node7 -->
<g id="edge7" class="edge">
<title>Node1&#45;&gt;Node7</title>
<path fill="none" stroke="midnightblue" d="M461.28,-123.48C483.31,-114.85 518.02,-101.26 546.07,-90.29"/>
<polygon fill="midnightblue" stroke="midnightblue" points="547.64,-93.43 555.68,-86.52 545.09,-86.91 547.64,-93.43"/>
</g>
<!-- Node8 -->
<g id="node8" class="node">
<title>Node8</title>
<g id="a_node8"><a xlink:title=" ">
<polygon fill="white" stroke="#bfbfbf" points="675,-56.5 675,-86.5 794,-86.5 794,-56.5 675,-56.5"/>
<text text-anchor="start" x="683" y="-74.5" font-family="Helvetica,sans-Serif" font-size="10.00">asm/dolphin/dsp/dsp</text>
<text text-anchor="middle" x="734.5" y="-63.5" font-family="Helvetica,sans-Serif" font-size="10.00">/DSPSendMailToDSP.s</text>
</a>
</g>
</g>
<!-- Node1&#45;&gt;Node8 -->
<g id="edge8" class="edge">
<title>Node1&#45;&gt;Node8</title>
<path fill="none" stroke="midnightblue" d="M483.48,-123.48C527.09,-114.98 596.1,-101.42 664.69,-87.36"/>
<polygon fill="midnightblue" stroke="midnightblue" points="665.72,-90.72 674.81,-85.28 664.31,-83.86 665.72,-90.72"/>
</g>
<!-- Node9 -->
<g id="node9" class="node">
<title>Node9</title>
<g id="a_node9"><a xlink:title=" ">
<polygon fill="white" stroke="#bfbfbf" points="812,-56.5 812,-86.5 919,-86.5 919,-56.5 812,-56.5"/>
<text text-anchor="start" x="820" y="-74.5" font-family="Helvetica,sans-Serif" font-size="10.00">asm/dolphin/dsp/dsp</text>
<text text-anchor="middle" x="865.5" y="-63.5" font-family="Helvetica,sans-Serif" font-size="10.00">/DSPAssertInt.s</text>
</a>
</g>
</g>
<!-- Node1&#45;&gt;Node9 -->
<g id="edge9" class="edge">
<title>Node1&#45;&gt;Node9</title>
<path fill="none" stroke="midnightblue" d="M500.02,-126.51C570.37,-119.69 690.13,-106.7 801.72,-87.21"/>
<polygon fill="midnightblue" stroke="midnightblue" points="802.57,-90.62 811.8,-85.43 801.35,-83.72 802.57,-90.62"/>
</g>
<!-- Node10 -->
<g id="node10" class="node">
<title>Node10</title>
<g id="a_node10"><a xlink:title=" ">
<polygon fill="white" stroke="#bfbfbf" points="937,-56.5 937,-86.5 1044,-86.5 1044,-56.5 937,-56.5"/>
<text text-anchor="start" x="945" y="-74.5" font-family="Helvetica,sans-Serif" font-size="10.00">asm/dolphin/dsp/dsp</text>
<text text-anchor="middle" x="990.5" y="-63.5" font-family="Helvetica,sans-Serif" font-size="10.00">/DSPInit.s</text>
</a>
</g>
</g>
<!-- Node1&#45;&gt;Node10 -->
<g id="edge10" class="edge">
<title>Node1&#45;&gt;Node10</title>
<path fill="none" stroke="midnightblue" d="M500.06,-129.12C590.89,-124.21 767.89,-112.34 926.86,-87.13"/>
<polygon fill="midnightblue" stroke="midnightblue" points="927.5,-90.57 936.82,-85.53 926.39,-83.66 927.5,-90.57"/>
</g>
<!-- Node4&#45;&gt;Node3 -->
<g id="edge4" class="edge">
<title>Node4&#45;&gt;Node3</title>
<path fill="none" stroke="midnightblue" d="M158.2,-61.98C152.76,-53.23 144.14,-39.37 137.26,-28.31"/>
<polygon fill="midnightblue" stroke="midnightblue" points="140.04,-26.15 131.79,-19.51 134.1,-29.85 140.04,-26.15"/>
</g>
</g>
</svg>
