<?xml version="1.0" encoding="UTF-8" standalone="no"?>
<!DOCTYPE svg PUBLIC "-//W3C//DTD SVG 1.1//EN"
 "http://www.w3.org/Graphics/SVG/1.1/DTD/svg11.dtd">
<!-- Generated by graphviz version 2.47.0 (20210316.2052)
 -->
<!-- Title: src/DynamicLink.cpp Pages: 1 -->
<!--zoomable 162 -->
<svg id="main" version="1.1" xmlns="http://www.w3.org/2000/svg" xmlns:xlink="http://www.w3.org/1999/xlink" xml:space="preserve" onload="init(evt)">
<style type="text/css"><![CDATA[
.edge:hover path { stroke: red; }
.edge:hover polygon { stroke: red; fill: red; }
]]></style>
<script type="text/javascript"><![CDATA[
var edges = document.getElementsByTagName('g');
if (edges && edges.length) {
  for (var i=0;i<edges.length;i++) {
    if (edges[i].id.substr(0,4)=='edge') {
      edges[i].setAttribute('class','edge');
    }
  }
}
]]></script>
        <defs>
                <circle id="rim" cx="0" cy="0" r="7"/>
                <circle id="rim2" cx="0" cy="0" r="3.5"/>
                <g id="zoomPlus">
                        <use xlink:href="#rim" fill="#404040">
                                <set attributeName="fill" to="#808080" begin="zoomplus.mouseover" end="zoomplus.mouseout"/>
                        </use>
                        <path d="M-4,0h8M0,-4v8" fill="none" stroke="white" stroke-width="1.5" pointer-events="none"/>
                </g>
                <g id="zoomMin">
                        <use xlink:href="#rim" fill="#404040">
                                <set attributeName="fill" to="#808080" begin="zoomminus.mouseover" end="zoomminus.mouseout"/>
                        </use>
                        <path d="M-4,0h8" fill="none" stroke="white" stroke-width="1.5" pointer-events="none"/>
                </g>
                <g id="dirArrow">
                        <path fill="none" stroke="white" stroke-width="1.5" d="M0,-3.0v7 M-2.5,-0.5L0,-3.0L2.5,-0.5"/>
                </g>
               <g id="resetDef">
                       <use xlink:href="#rim2" fill="#404040">
                               <set attributeName="fill" to="#808080" begin="reset.mouseover" end="reset.mouseout"/>
                       </use>
               </g>
        </defs>

<script type="text/javascript">
var viewWidth = 6772;
var viewHeight = 162;
var sectionId = 'dynsection-0';
</script>
<script xlink:href="svgpan.js"/>
<svg id="graph" class="graph">
<g id="viewport">
<title>src/DynamicLink.cpp</title>
<polygon fill="white" stroke="transparent" points="-4,4 -4,-158 6768,-158 6768,4 -4,4"/>
<!-- Node1 -->
<g id="node1" class="node">
<title>Node1</title>
<g id="a_node1"><a xlink:title=" ">
<polygon fill="#bfbfbf" stroke="black" points="3068,-134.5 3068,-153.5 3175,-153.5 3175,-134.5 3068,-134.5"/>
<text text-anchor="middle" x="3121.5" y="-141.5" font-family="Helvetica,sans-Serif" font-size="10.00">src/DynamicLink.cpp</text>
</a>
</g>
</g>
<!-- Node2 -->
<g id="node2" class="node">
<title>Node2</title>
<g id="a_node2"><a xlink:href="dol2asm_8h.html" target="_top" xlink:title=" ">
<polygon fill="white" stroke="black" points="0,-67.5 0,-86.5 61,-86.5 61,-67.5 0,-67.5"/>
<text text-anchor="middle" x="30.5" y="-74.5" font-family="Helvetica,sans-Serif" font-size="10.00">dol2asm.h</text>
</a>
</g>
</g>
<!-- Node1&#45;&gt;Node2 -->
<g id="edge1" class="edge">
<title>Node1&#45;&gt;Node2</title>
<path fill="none" stroke="midnightblue" d="M3067.7,-142.82C2672.35,-141.42 227.39,-131.41 75.5,-98 68.71,-96.51 61.68,-93.94 55.27,-91.14"/>
<polygon fill="midnightblue" stroke="midnightblue" points="56.33,-87.77 45.8,-86.65 53.34,-94.1 56.33,-87.77"/>
</g>
<!-- Node3 -->
<g id="node3" class="node">
<title>Node3</title>
<g id="a_node3"><a xlink:href="types_8h.html" target="_top" xlink:title=" ">
<polygon fill="white" stroke="black" points="83,-0.5 83,-19.5 164,-19.5 164,-0.5 83,-0.5"/>
<text text-anchor="middle" x="123.5" y="-7.5" font-family="Helvetica,sans-Serif" font-size="10.00">dolphin/types.h</text>
</a>
</g>
</g>
<!-- Node1&#45;&gt;Node3 -->
<g id="edge2" class="edge">
<title>Node1&#45;&gt;Node3</title>
<path fill="none" stroke="midnightblue" d="M3067.79,-142.71C2665.28,-140.49 135.53,-125.44 108.5,-98 90.46,-79.69 102.49,-48.05 112.93,-28.39"/>
<polygon fill="midnightblue" stroke="midnightblue" points="116.05,-29.99 117.94,-19.57 109.96,-26.54 116.05,-29.99"/>
</g>
<!-- Node4 -->
<g id="node4" class="node">
<title>Node4</title>
<g id="a_node4"><a xlink:href="DynamicLink_8h.html" target="_top" xlink:title=" ">
<polygon fill="white" stroke="black" points="117.5,-67.5 117.5,-86.5 197.5,-86.5 197.5,-67.5 117.5,-67.5"/>
<text text-anchor="middle" x="157.5" y="-74.5" font-family="Helvetica,sans-Serif" font-size="10.00">DynamicLink.h</text>
</a>
</g>
</g>
<!-- Node1&#45;&gt;Node4 -->
<g id="edge3" class="edge">
<title>Node1&#45;&gt;Node4</title>
<path fill="none" stroke="midnightblue" d="M3067.91,-142.73C2683.22,-140.69 353.11,-127.21 207.5,-98 199.6,-96.41 191.35,-93.63 183.88,-90.63"/>
<polygon fill="midnightblue" stroke="midnightblue" points="185.18,-87.38 174.61,-86.65 182.41,-93.81 185.18,-87.38"/>
</g>
<!-- Node5 -->
<g id="node5" class="node">
<title>Node5</title>
<g id="a_node5"><a xlink:title=" ">
<polygon fill="white" stroke="#bfbfbf" points="216,-62 216,-92 395,-92 395,-62 216,-62"/>
<text text-anchor="start" x="224" y="-80" font-family="Helvetica,sans-Serif" font-size="10.00">asm/DynamicLink/__dt</text>
<text text-anchor="middle" x="305.5" y="-69" font-family="Helvetica,sans-Serif" font-size="10.00">__24DynamicModuleControlBaseFv.s</text>
</a>
</g>
</g>
<!-- Node1&#45;&gt;Node5 -->
<g id="edge5" class="edge">
<title>Node1&#45;&gt;Node5</title>
<path fill="none" stroke="midnightblue" d="M3068,-142.7C2710.84,-140.64 678.14,-127.65 404.5,-98 395.18,-96.99 385.44,-95.53 375.86,-93.85"/>
<polygon fill="midnightblue" stroke="midnightblue" points="376.43,-90.4 365.96,-92.04 375.16,-97.28 376.43,-90.4"/>
</g>
<!-- Node6 -->
<g id="node6" class="node">
<title>Node6</title>
<g id="a_node6"><a xlink:title=" ">
<polygon fill="white" stroke="#bfbfbf" points="413,-62 413,-92 592,-92 592,-62 413,-62"/>
<text text-anchor="start" x="421" y="-80" font-family="Helvetica,sans-Serif" font-size="10.00">asm/DynamicLink/__ct</text>
<text text-anchor="middle" x="502.5" y="-69" font-family="Helvetica,sans-Serif" font-size="10.00">__24DynamicModuleControlBaseFv.s</text>
</a>
</g>
</g>
<!-- Node1&#45;&gt;Node6 -->
<g id="edge6" class="edge">
<title>Node1&#45;&gt;Node6</title>
<path fill="none" stroke="midnightblue" d="M3067.81,-142.63C2725.49,-140.17 854.27,-125.56 601.5,-98 592.19,-96.98 582.45,-95.52 572.86,-93.84"/>
<polygon fill="midnightblue" stroke="midnightblue" points="573.43,-90.39 562.96,-92.02 572.16,-97.27 573.43,-90.39"/>
</g>
<!-- Node7 -->
<g id="node7" class="node">
<title>Node7</title>
<g id="a_node7"><a xlink:title=" ">
<polygon fill="white" stroke="#bfbfbf" points="610,-62 610,-92 789,-92 789,-62 610,-62"/>
<text text-anchor="start" x="618" y="-80" font-family="Helvetica,sans-Serif" font-size="10.00">asm/DynamicLink/link</text>
<text text-anchor="middle" x="699.5" y="-69" font-family="Helvetica,sans-Serif" font-size="10.00">__24DynamicModuleControlBaseFv.s</text>
</a>
</g>
</g>
<!-- Node1&#45;&gt;Node7 -->
<g id="edge7" class="edge">
<title>Node1&#45;&gt;Node7</title>
<path fill="none" stroke="midnightblue" d="M3067.76,-143.27C2763.99,-144.62 1259.11,-148.57 798.5,-98 789.19,-96.98 779.45,-95.51 769.87,-93.83"/>
<polygon fill="midnightblue" stroke="midnightblue" points="770.43,-90.37 759.96,-92.01 769.16,-97.26 770.43,-90.37"/>
</g>
<!-- Node8 -->
<g id="node8" class="node">
<title>Node8</title>
<g id="a_node8"><a xlink:title=" ">
<polygon fill="white" stroke="#bfbfbf" points="807,-62 807,-92 986,-92 986,-62 807,-62"/>
<text text-anchor="start" x="815" y="-80" font-family="Helvetica,sans-Serif" font-size="10.00">asm/DynamicLink/unlink</text>
<text text-anchor="middle" x="896.5" y="-69" font-family="Helvetica,sans-Serif" font-size="10.00">__24DynamicModuleControlBaseFv.s</text>
</a>
</g>
</g>
<!-- Node1&#45;&gt;Node8 -->
<g id="edge8" class="edge">
<title>Node1&#45;&gt;Node8</title>
<path fill="none" stroke="midnightblue" d="M3067.69,-143.16C2779.34,-143.82 1414.73,-144.41 995.5,-98 986.25,-96.98 976.58,-95.52 967.07,-93.85"/>
<polygon fill="midnightblue" stroke="midnightblue" points="967.7,-90.41 957.23,-92.04 966.43,-97.29 967.7,-90.41"/>
</g>
<!-- Node9 -->
<g id="node9" class="node">
<title>Node9</title>
<g id="a_node9"><a xlink:title=" ">
<polygon fill="white" stroke="#bfbfbf" points="1004.5,-56.5 1004.5,-97.5 1172.5,-97.5 1172.5,-56.5 1004.5,-56.5"/>
<text text-anchor="start" x="1012.5" y="-85.5" font-family="Helvetica,sans-Serif" font-size="10.00">asm/DynamicLink/load</text>
<text text-anchor="start" x="1012.5" y="-74.5" font-family="Helvetica,sans-Serif" font-size="10.00">_async__24DynamicModuleControl</text>
<text text-anchor="middle" x="1088.5" y="-63.5" font-family="Helvetica,sans-Serif" font-size="10.00">BaseFv.s</text>
</a>
</g>
</g>
<!-- Node1&#45;&gt;Node9 -->
<g id="edge9" class="edge">
<title>Node1&#45;&gt;Node9</title>
<path fill="none" stroke="midnightblue" d="M3067.98,-143.12C2797.94,-143.54 1582.68,-142.89 1182.69,-97.98"/>
<polygon fill="midnightblue" stroke="midnightblue" points="1182.87,-94.48 1172.53,-96.81 1182.06,-101.44 1182.87,-94.48"/>
</g>
<!-- Node10 -->
<g id="node10" class="node">
<title>Node10</title>
<g id="a_node10"><a xlink:title=" ">
<polygon fill="white" stroke="#bfbfbf" points="1190.5,-56.5 1190.5,-97.5 1358.5,-97.5 1358.5,-56.5 1190.5,-56.5"/>
<text text-anchor="start" x="1198.5" y="-85.5" font-family="Helvetica,sans-Serif" font-size="10.00">asm/DynamicLink/force</text>
<text text-anchor="start" x="1198.5" y="-74.5" font-family="Helvetica,sans-Serif" font-size="10.00">_unlink__24DynamicModuleControl</text>
<text text-anchor="middle" x="1274.5" y="-63.5" font-family="Helvetica,sans-Serif" font-size="10.00">BaseFv.s</text>
</a>
</g>
</g>
<!-- Node1&#45;&gt;Node10 -->
<g id="edge10" class="edge">
<title>Node1&#45;&gt;Node10</title>
<path fill="none" stroke="midnightblue" d="M3067.72,-142.95C2813.5,-142.53 1729.94,-138.39 1368.63,-97.84"/>
<polygon fill="midnightblue" stroke="midnightblue" points="1369.01,-94.36 1358.67,-96.69 1368.21,-101.31 1369.01,-94.36"/>
</g>
<!-- Node11 -->
<g id="node11" class="node">
<title>Node11</title>
<g id="a_node11"><a xlink:title=" ">
<polygon fill="white" stroke="#bfbfbf" points="1377,-62 1377,-92 1556,-92 1556,-62 1377,-62"/>
<text text-anchor="start" x="1385" y="-80" font-family="Helvetica,sans-Serif" font-size="10.00">asm/DynamicLink/dump</text>
<text text-anchor="middle" x="1466.5" y="-69" font-family="Helvetica,sans-Serif" font-size="10.00">__24DynamicModuleControlBaseFv.s</text>
</a>
</g>
</g>
<!-- Node1&#45;&gt;Node11 -->
<g id="edge11" class="edge">
<title>Node1&#45;&gt;Node11</title>
<path fill="none" stroke="midnightblue" d="M3067.94,-142.68C2829.84,-141.05 1865.88,-132.43 1565.5,-98 1556.42,-96.96 1546.93,-95.51 1537.57,-93.87"/>
<polygon fill="midnightblue" stroke="midnightblue" points="1537.97,-90.38 1527.5,-92.02 1536.7,-97.27 1537.97,-90.38"/>
</g>
<!-- Node12 -->
<g id="node12" class="node">
<title>Node12</title>
<g id="a_node12"><a xlink:title=" ">
<polygon fill="white" stroke="#bfbfbf" points="1574.5,-62 1574.5,-92 1744.5,-92 1744.5,-62 1574.5,-62"/>
<text text-anchor="start" x="1582.5" y="-80" font-family="Helvetica,sans-Serif" font-size="10.00">asm/DynamicLink/__ct</text>
<text text-anchor="middle" x="1659.5" y="-69" font-family="Helvetica,sans-Serif" font-size="10.00">__20DynamicModuleControlFPCc.s</text>
</a>
</g>
</g>
<!-- Node1&#45;&gt;Node12 -->
<g id="edge12" class="edge">
<title>Node1&#45;&gt;Node12</title>
<path fill="none" stroke="midnightblue" d="M3067.94,-142.49C2848.25,-140.19 2015.58,-129.53 1754.5,-98 1745.93,-96.96 1736.98,-95.54 1728.16,-93.93"/>
<polygon fill="midnightblue" stroke="midnightblue" points="1728.75,-90.48 1718.27,-92.04 1727.44,-97.36 1728.75,-90.48"/>
</g>
<!-- Node13 -->
<g id="node13" class="node">
<title>Node13</title>
<g id="a_node13"><a xlink:title=" ">
<polygon fill="white" stroke="#bfbfbf" points="1763,-62 1763,-92 1926,-92 1926,-62 1763,-62"/>
<text text-anchor="start" x="1771" y="-80" font-family="Helvetica,sans-Serif" font-size="10.00">asm/DynamicLink/mountCallback</text>
<text text-anchor="middle" x="1844.5" y="-69" font-family="Helvetica,sans-Serif" font-size="10.00">__20DynamicModuleControlFPv.s</text>
</a>
</g>
</g>
<!-- Node1&#45;&gt;Node13 -->
<g id="edge13" class="edge">
<title>Node1&#45;&gt;Node13</title>
<path fill="none" stroke="midnightblue" d="M3067.68,-142.23C2866.52,-139.17 2159.05,-126.57 1935.5,-98 1927.52,-96.98 1919.2,-95.6 1910.97,-94.04"/>
<polygon fill="midnightblue" stroke="midnightblue" points="1911.51,-90.58 1901.02,-92.06 1910.15,-97.44 1911.51,-90.58"/>
</g>
<!-- Node14 -->
<g id="node14" class="node">
<title>Node14</title>
<g id="a_node14"><a xlink:title=" ">
<polygon fill="white" stroke="#bfbfbf" points="1944.5,-62 1944.5,-92 2100.5,-92 2100.5,-62 1944.5,-62"/>
<text text-anchor="start" x="1952.5" y="-80" font-family="Helvetica,sans-Serif" font-size="10.00">asm/DynamicLink/initialize</text>
<text text-anchor="middle" x="2022.5" y="-69" font-family="Helvetica,sans-Serif" font-size="10.00">__20DynamicModuleControlFv.s</text>
</a>
</g>
</g>
<!-- Node1&#45;&gt;Node14 -->
<g id="edge14" class="edge">
<title>Node1&#45;&gt;Node14</title>
<path fill="none" stroke="midnightblue" d="M3068,-141.88C2886.96,-137.91 2298.22,-123.3 2110.5,-98 2102.86,-96.97 2094.9,-95.6 2087.03,-94.05"/>
<polygon fill="midnightblue" stroke="midnightblue" points="2087.65,-90.6 2077.15,-92.01 2086.23,-97.46 2087.65,-90.6"/>
</g>
<!-- Node15 -->
<g id="node15" class="node">
<title>Node15</title>
<g id="a_node15"><a xlink:title=" ">
<polygon fill="white" stroke="#bfbfbf" points="2119,-62 2119,-92 2282,-92 2282,-62 2119,-62"/>
<text text-anchor="start" x="2127" y="-80" font-family="Helvetica,sans-Serif" font-size="10.00">asm/DynamicLink/callback</text>
<text text-anchor="middle" x="2200.5" y="-69" font-family="Helvetica,sans-Serif" font-size="10.00">__20DynamicModuleControlFPv.s</text>
</a>
</g>
</g>
<!-- Node1&#45;&gt;Node15 -->
<g id="edge15" class="edge">
<title>Node1&#45;&gt;Node15</title>
<path fill="none" stroke="midnightblue" d="M3067.81,-143.09C2935.33,-142.68 2582.49,-137.6 2291.5,-98 2283.64,-96.93 2275.45,-95.54 2267.34,-93.98"/>
<polygon fill="midnightblue" stroke="midnightblue" points="2268.02,-90.55 2257.53,-92.02 2266.65,-97.41 2268.02,-90.55"/>
</g>
<!-- Node16 -->
<g id="node16" class="node">
<title>Node16</title>
<g id="a_node16"><a xlink:title=" ">
<polygon fill="white" stroke="#bfbfbf" points="2300,-62 2300,-92 2441,-92 2441,-62 2300,-62"/>
<text text-anchor="start" x="2308" y="-80" font-family="Helvetica,sans-Serif" font-size="10.00">asm/DynamicLink/calcSum2</text>
<text text-anchor="middle" x="2370.5" y="-69" font-family="Helvetica,sans-Serif" font-size="10.00">__FPCUsUl.s</text>
</a>
</g>
</g>
<!-- Node1&#45;&gt;Node16 -->
<g id="edge16" class="edge">
<title>Node1&#45;&gt;Node16</title>
<path fill="none" stroke="midnightblue" d="M3067.65,-142.63C2953.28,-141.14 2678,-133.77 2450.5,-98 2444.19,-97.01 2437.65,-95.75 2431.15,-94.36"/>
<polygon fill="midnightblue" stroke="midnightblue" points="2431.53,-90.86 2421.01,-92.07 2429.99,-97.69 2431.53,-90.86"/>
</g>
<!-- Node17 -->
<g id="node17" class="node">
<title>Node17</title>
<g id="a_node17"><a xlink:title=" ">
<polygon fill="white" stroke="#bfbfbf" points="2459,-62 2459,-92 2638,-92 2638,-62 2459,-62"/>
<text text-anchor="start" x="2467" y="-80" font-family="Helvetica,sans-Serif" font-size="10.00">asm/DynamicLink/do</text>
<text text-anchor="middle" x="2548.5" y="-69" font-family="Helvetica,sans-Serif" font-size="10.00">_load__20DynamicModuleControlFv.s</text>
</a>
</g>
</g>
<!-- Node1&#45;&gt;Node17 -->
<g id="edge17" class="edge">
<title>Node1&#45;&gt;Node17</title>
<path fill="none" stroke="midnightblue" d="M3067.97,-139.75C2979.92,-134 2799.18,-120.46 2647.5,-98 2639.55,-96.82 2631.27,-95.42 2623.03,-93.92"/>
<polygon fill="midnightblue" stroke="midnightblue" points="2623.51,-90.45 2613.03,-92.05 2622.22,-97.33 2623.51,-90.45"/>
</g>
<!-- Node18 -->
<g id="node18" class="node">
<title>Node18</title>
<g id="a_node18"><a xlink:title=" ">
<polygon fill="white" stroke="#bfbfbf" points="2656,-56.5 2656,-97.5 2817,-97.5 2817,-56.5 2656,-56.5"/>
<text text-anchor="start" x="2664" y="-85.5" font-family="Helvetica,sans-Serif" font-size="10.00">asm/DynamicLink/do</text>
<text text-anchor="start" x="2664" y="-74.5" font-family="Helvetica,sans-Serif" font-size="10.00">_load_async__20DynamicModule</text>
<text text-anchor="middle" x="2736.5" y="-63.5" font-family="Helvetica,sans-Serif" font-size="10.00">ControlFv.s</text>
</a>
</g>
</g>
<!-- Node1&#45;&gt;Node18 -->
<g id="edge18" class="edge">
<title>Node1&#45;&gt;Node18</title>
<path fill="none" stroke="midnightblue" d="M3067.76,-135.91C3010.63,-128.12 2917.43,-114.72 2827.5,-98.13"/>
<polygon fill="midnightblue" stroke="midnightblue" points="2827.87,-94.64 2817.4,-96.25 2826.59,-101.52 2827.87,-94.64"/>
</g>
<!-- Node19 -->
<g id="node19" class="node">
<title>Node19</title>
<g id="a_node19"><a xlink:title=" ">
<polygon fill="white" stroke="#bfbfbf" points="2835.5,-62 2835.5,-92 3025.5,-92 3025.5,-62 2835.5,-62"/>
<text text-anchor="start" x="2843.5" y="-80" font-family="Helvetica,sans-Serif" font-size="10.00">asm/DynamicLink/do</text>
<text text-anchor="middle" x="2930.5" y="-69" font-family="Helvetica,sans-Serif" font-size="10.00">_unload__20DynamicModuleControlFv.s</text>
</a>
</g>
</g>
<!-- Node1&#45;&gt;Node19 -->
<g id="edge19" class="edge">
<title>Node1&#45;&gt;Node19</title>
<path fill="none" stroke="midnightblue" d="M3096.14,-134.37C3066.98,-124.45 3018.38,-107.91 2981.35,-95.31"/>
<polygon fill="midnightblue" stroke="midnightblue" points="2982.32,-91.94 2971.72,-92.03 2980.06,-98.56 2982.32,-91.94"/>
</g>
<!-- Node20 -->
<g id="node20" class="node">
<title>Node20</title>
<g id="a_node20"><a xlink:title=" ">
<polygon fill="white" stroke="#bfbfbf" points="3043.5,-62 3043.5,-92 3199.5,-92 3199.5,-62 3043.5,-62"/>
<text text-anchor="start" x="3051.5" y="-80" font-family="Helvetica,sans-Serif" font-size="10.00">asm/DynamicLink/dump2</text>
<text text-anchor="middle" x="3121.5" y="-69" font-family="Helvetica,sans-Serif" font-size="10.00">__20DynamicModuleControlFv.s</text>
</a>
</g>
</g>
<!-- Node1&#45;&gt;Node20 -->
<g id="edge20" class="edge">
<title>Node1&#45;&gt;Node20</title>
<path fill="none" stroke="midnightblue" d="M3121.5,-134.23C3121.5,-126.04 3121.5,-113.42 3121.5,-102.21"/>
<polygon fill="midnightblue" stroke="midnightblue" points="3125,-102.09 3121.5,-92.09 3118,-102.09 3125,-102.09"/>
</g>
<!-- Node21 -->
<g id="node21" class="node">
<title>Node21</title>
<g id="a_node21"><a xlink:title=" ">
<polygon fill="white" stroke="#bfbfbf" points="3217.5,-62 3217.5,-92 3393.5,-92 3393.5,-62 3217.5,-62"/>
<text text-anchor="start" x="3225.5" y="-80" font-family="Helvetica,sans-Serif" font-size="10.00">asm/DynamicLink/do</text>
<text text-anchor="middle" x="3305.5" y="-69" font-family="Helvetica,sans-Serif" font-size="10.00">_link__20DynamicModuleControlFv.s</text>
</a>
</g>
</g>
<!-- Node1&#45;&gt;Node21 -->
<g id="edge21" class="edge">
<title>Node1&#45;&gt;Node21</title>
<path fill="none" stroke="midnightblue" d="M3145.93,-134.37C3173.9,-124.49 3220.44,-108.05 3256.06,-95.47"/>
<polygon fill="midnightblue" stroke="midnightblue" points="3257.53,-98.66 3265.79,-92.03 3255.19,-92.06 3257.53,-98.66"/>
</g>
<!-- Node22 -->
<g id="node22" class="node">
<title>Node22</title>
<g id="a_node22"><a xlink:title=" ">
<polygon fill="white" stroke="#bfbfbf" points="3411,-62 3411,-92 3598,-92 3598,-62 3411,-62"/>
<text text-anchor="start" x="3419" y="-80" font-family="Helvetica,sans-Serif" font-size="10.00">asm/DynamicLink/do</text>
<text text-anchor="middle" x="3504.5" y="-69" font-family="Helvetica,sans-Serif" font-size="10.00">_unlink__20DynamicModuleControlFv.s</text>
</a>
</g>
</g>
<!-- Node1&#45;&gt;Node22 -->
<g id="edge22" class="edge">
<title>Node1&#45;&gt;Node22</title>
<path fill="none" stroke="midnightblue" d="M3175.2,-134.97C3231.82,-126.37 3323.58,-112.05 3402.5,-98 3409.73,-96.71 3417.23,-95.33 3424.74,-93.91"/>
<polygon fill="midnightblue" stroke="midnightblue" points="3425.43,-97.35 3434.6,-92.04 3424.12,-90.47 3425.43,-97.35"/>
</g>
<!-- Node23 -->
<g id="node23" class="node">
<title>Node23</title>
<g id="a_node23"><a xlink:title=" ">
<polygon fill="white" stroke="#bfbfbf" points="3616.5,-62 3616.5,-92 3798.5,-92 3798.5,-62 3616.5,-62"/>
<text text-anchor="start" x="3624.5" y="-80" font-family="Helvetica,sans-Serif" font-size="10.00">asm/DynamicLink/getModule</text>
<text text-anchor="middle" x="3707.5" y="-69" font-family="Helvetica,sans-Serif" font-size="10.00">Size__20DynamicModuleControlCFv.s</text>
</a>
</g>
</g>
<!-- Node1&#45;&gt;Node23 -->
<g id="edge23" class="edge">
<title>Node1&#45;&gt;Node23</title>
<path fill="none" stroke="midnightblue" d="M3175.3,-139.87C3265.15,-134.23 3451.33,-120.78 3607.5,-98 3615.68,-96.81 3624.21,-95.38 3632.69,-93.85"/>
<polygon fill="midnightblue" stroke="midnightblue" points="3633.39,-97.28 3642.58,-92.01 3632.11,-90.4 3633.39,-97.28"/>
</g>
<!-- Node24 -->
<g id="node24" class="node">
<title>Node24</title>
<g id="a_node24"><a xlink:title=" ">
<polygon fill="white" stroke="#bfbfbf" points="3817,-62 3817,-92 4026,-92 4026,-62 3817,-62"/>
<text text-anchor="start" x="3825" y="-80" font-family="Helvetica,sans-Serif" font-size="10.00">asm/DynamicLink/getModule</text>
<text text-anchor="middle" x="3921.5" y="-69" font-family="Helvetica,sans-Serif" font-size="10.00">TypeString__20DynamicModuleControlCFv.s</text>
</a>
</g>
</g>
<!-- Node1&#45;&gt;Node24 -->
<g id="edge24" class="edge">
<title>Node1&#45;&gt;Node24</title>
<path fill="none" stroke="midnightblue" d="M3175.05,-141.46C3290.81,-137.69 3572.87,-126.19 3807.5,-98 3817.55,-96.79 3828.07,-95.28 3838.47,-93.64"/>
<polygon fill="midnightblue" stroke="midnightblue" points="3839.08,-97.09 3848.39,-92.03 3837.96,-90.18 3839.08,-97.09"/>
</g>
<!-- Node25 -->
<g id="node25" class="node">
<title>Node25</title>
<g id="a_node25"><a xlink:title=" ">
<polygon fill="white" stroke="#bfbfbf" points="4044.5,-67.5 4044.5,-86.5 4208.5,-86.5 4208.5,-67.5 4044.5,-67.5"/>
<text text-anchor="middle" x="4126.5" y="-74.5" font-family="Helvetica,sans-Serif" font-size="10.00">asm/DynamicLink/ModuleProlog.s</text>
</a>
</g>
</g>
<!-- Node1&#45;&gt;Node25 -->
<g id="edge25" class="edge">
<title>Node1&#45;&gt;Node25</title>
<path fill="none" stroke="midnightblue" d="M3175.1,-143.48C3316.47,-144.07 3710.91,-141.35 4035.5,-98 4051.39,-95.88 4068.62,-92.4 4083.77,-88.94"/>
<polygon fill="midnightblue" stroke="midnightblue" points="4084.95,-92.25 4093.88,-86.56 4083.35,-85.44 4084.95,-92.25"/>
</g>
<!-- Node26 -->
<g id="node26" class="node">
<title>Node26</title>
<g id="a_node26"><a xlink:title=" ">
<polygon fill="white" stroke="#bfbfbf" points="4227,-67.5 4227,-86.5 4390,-86.5 4390,-67.5 4227,-67.5"/>
<text text-anchor="middle" x="4308.5" y="-74.5" font-family="Helvetica,sans-Serif" font-size="10.00">asm/DynamicLink/ModuleEpilog.s</text>
</a>
</g>
</g>
<!-- Node1&#45;&gt;Node26 -->
<g id="edge26" class="edge">
<title>Node1&#45;&gt;Node26</title>
<path fill="none" stroke="midnightblue" d="M3175.13,-142.04C3366.08,-138.44 4012.35,-124.55 4217.5,-98 4233.53,-95.93 4250.91,-92.42 4266.15,-88.92"/>
<polygon fill="midnightblue" stroke="midnightblue" points="4267.39,-92.23 4276.31,-86.52 4265.78,-85.42 4267.39,-92.23"/>
</g>
<!-- Node27 -->
<g id="node27" class="node">
<title>Node27</title>
<g id="a_node27"><a xlink:title=" ">
<polygon fill="white" stroke="#bfbfbf" points="4408.5,-67.5 4408.5,-86.5 4594.5,-86.5 4594.5,-67.5 4408.5,-67.5"/>
<text text-anchor="middle" x="4501.5" y="-74.5" font-family="Helvetica,sans-Serif" font-size="10.00">asm/DynamicLink/ModuleUnresolved.s</text>
</a>
</g>
</g>
<!-- Node1&#45;&gt;Node27 -->
<g id="edge27" class="edge">
<title>Node1&#45;&gt;Node27</title>
<path fill="none" stroke="midnightblue" d="M3175.1,-142.25C3385.68,-139.1 4156.61,-125.91 4399.5,-98 4417.93,-95.88 4438.01,-92.24 4455.44,-88.64"/>
<polygon fill="midnightblue" stroke="midnightblue" points="4456.31,-92.03 4465.37,-86.53 4454.86,-85.18 4456.31,-92.03"/>
</g>
<!-- Node28 -->
<g id="node28" class="node">
<title>Node28</title>
<g id="a_node28"><a xlink:title=" ">
<polygon fill="white" stroke="#bfbfbf" points="4613,-67.5 4613,-86.5 4812,-86.5 4812,-67.5 4613,-67.5"/>
<text text-anchor="middle" x="4712.5" y="-74.5" font-family="Helvetica,sans-Serif" font-size="10.00">asm/DynamicLink/ModuleConstructorsX.s</text>
</a>
</g>
</g>
<!-- Node1&#45;&gt;Node28 -->
<g id="edge28" class="edge">
<title>Node1&#45;&gt;Node28</title>
<path fill="none" stroke="midnightblue" d="M3175.19,-142.46C3406.39,-139.96 4318.26,-128.32 4603.5,-98 4623.53,-95.87 4645.4,-92.14 4664.27,-88.47"/>
<polygon fill="midnightblue" stroke="midnightblue" points="4664.99,-91.89 4674.12,-86.51 4663.62,-85.03 4664.99,-91.89"/>
</g>
<!-- Node29 -->
<g id="node29" class="node">
<title>Node29</title>
<g id="a_node29"><a xlink:title=" ">
<polygon fill="white" stroke="#bfbfbf" points="4830.5,-67.5 4830.5,-86.5 5024.5,-86.5 5024.5,-67.5 4830.5,-67.5"/>
<text text-anchor="middle" x="4927.5" y="-74.5" font-family="Helvetica,sans-Serif" font-size="10.00">asm/DynamicLink/ModuleDestructorsX.s</text>
</a>
</g>
</g>
<!-- Node1&#45;&gt;Node29 -->
<g id="edge29" class="edge">
<title>Node1&#45;&gt;Node29</title>
<path fill="none" stroke="midnightblue" d="M3175.3,-142.74C3427.12,-141.32 4491.05,-133.32 4821.5,-98 4840.98,-95.92 4862.25,-92.2 4880.58,-88.52"/>
<polygon fill="midnightblue" stroke="midnightblue" points="4881.34,-91.94 4890.43,-86.5 4879.93,-85.08 4881.34,-91.94"/>
</g>
<!-- Node30 -->
<g id="node30" class="node">
<title>Node30</title>
<g id="a_node30"><a xlink:title=" ">
<polygon fill="white" stroke="#bfbfbf" points="5042.5,-56.5 5042.5,-97.5 5200.5,-97.5 5200.5,-56.5 5042.5,-56.5"/>
<text text-anchor="start" x="5050.5" y="-85.5" font-family="Helvetica,sans-Serif" font-size="10.00">asm/DynamicLink/do</text>
<text text-anchor="start" x="5050.5" y="-74.5" font-family="Helvetica,sans-Serif" font-size="10.00">_link__24DynamicModuleControl</text>
<text text-anchor="middle" x="5121.5" y="-63.5" font-family="Helvetica,sans-Serif" font-size="10.00">BaseFv.s</text>
</a>
</g>
</g>
<!-- Node1&#45;&gt;Node30 -->
<g id="edge30" class="edge">
<title>Node1&#45;&gt;Node30</title>
<path fill="none" stroke="midnightblue" d="M3175.15,-143.19C3443.11,-143.89 4638.83,-144.42 5032.48,-97.95"/>
<polygon fill="midnightblue" stroke="midnightblue" points="5032.97,-101.42 5042.48,-96.74 5032.13,-94.47 5032.97,-101.42"/>
</g>
<!-- Node31 -->
<g id="node31" class="node">
<title>Node31</title>
<g id="a_node31"><a xlink:title=" ">
<polygon fill="white" stroke="#bfbfbf" points="5219,-56.5 5219,-97.5 5380,-97.5 5380,-56.5 5219,-56.5"/>
<text text-anchor="start" x="5227" y="-85.5" font-family="Helvetica,sans-Serif" font-size="10.00">asm/DynamicLink/do</text>
<text text-anchor="start" x="5227" y="-74.5" font-family="Helvetica,sans-Serif" font-size="10.00">_load__24DynamicModuleControl</text>
<text text-anchor="middle" x="5299.5" y="-63.5" font-family="Helvetica,sans-Serif" font-size="10.00">BaseFv.s</text>
</a>
</g>
</g>
<!-- Node1&#45;&gt;Node31 -->
<g id="edge31" class="edge">
<title>Node1&#45;&gt;Node31</title>
<path fill="none" stroke="midnightblue" d="M3175.3,-143.28C3458.34,-144.51 4777.84,-147.53 5208.67,-97.93"/>
<polygon fill="midnightblue" stroke="midnightblue" points="5209.16,-101.4 5218.68,-96.75 5208.34,-94.45 5209.16,-101.4"/>
</g>
<!-- Node32 -->
<g id="node32" class="node">
<title>Node32</title>
<g id="a_node32"><a xlink:title=" ">
<polygon fill="white" stroke="#bfbfbf" points="5398,-56.5 5398,-97.5 5569,-97.5 5569,-56.5 5398,-56.5"/>
<text text-anchor="start" x="5406" y="-85.5" font-family="Helvetica,sans-Serif" font-size="10.00">asm/DynamicLink/do</text>
<text text-anchor="start" x="5406" y="-74.5" font-family="Helvetica,sans-Serif" font-size="10.00">_unload__24DynamicModuleControl</text>
<text text-anchor="middle" x="5483.5" y="-63.5" font-family="Helvetica,sans-Serif" font-size="10.00">BaseFv.s</text>
</a>
</g>
</g>
<!-- Node1&#45;&gt;Node32 -->
<g id="edge32" class="edge">
<title>Node1&#45;&gt;Node32</title>
<path fill="none" stroke="midnightblue" d="M3175.18,-142.55C3492.67,-139.78 5119.73,-124.46 5387.79,-98"/>
<polygon fill="midnightblue" stroke="midnightblue" points="5388.23,-101.47 5397.8,-96.93 5387.49,-94.51 5388.23,-101.47"/>
</g>
<!-- Node33 -->
<g id="node33" class="node">
<title>Node33</title>
<g id="a_node33"><a xlink:title=" ">
<polygon fill="white" stroke="#bfbfbf" points="5587.5,-56.5 5587.5,-97.5 5755.5,-97.5 5755.5,-56.5 5587.5,-56.5"/>
<text text-anchor="start" x="5595.5" y="-85.5" font-family="Helvetica,sans-Serif" font-size="10.00">asm/DynamicLink/do</text>
<text text-anchor="start" x="5595.5" y="-74.5" font-family="Helvetica,sans-Serif" font-size="10.00">_unlink__24DynamicModuleControl</text>
<text text-anchor="middle" x="5671.5" y="-63.5" font-family="Helvetica,sans-Serif" font-size="10.00">BaseFv.s</text>
</a>
</g>
</g>
<!-- Node1&#45;&gt;Node33 -->
<g id="edge33" class="edge">
<title>Node1&#45;&gt;Node33</title>
<path fill="none" stroke="midnightblue" d="M3175.21,-142.64C3508.43,-140.33 5288.34,-126.76 5577.44,-97.91"/>
<polygon fill="midnightblue" stroke="midnightblue" points="5577.9,-101.38 5587.47,-96.83 5577.16,-94.42 5577.9,-101.38"/>
</g>
<!-- Node34 -->
<g id="node34" class="node">
<title>Node34</title>
<g id="a_node34"><a xlink:title=" ">
<polygon fill="white" stroke="#bfbfbf" points="5774,-56.5 5774,-97.5 5935,-97.5 5935,-56.5 5774,-56.5"/>
<text text-anchor="start" x="5782" y="-85.5" font-family="Helvetica,sans-Serif" font-size="10.00">asm/DynamicLink/do</text>
<text text-anchor="start" x="5782" y="-74.5" font-family="Helvetica,sans-Serif" font-size="10.00">_load_async__24DynamicModule</text>
<text text-anchor="middle" x="5854.5" y="-63.5" font-family="Helvetica,sans-Serif" font-size="10.00">ControlBaseFv.s</text>
</a>
</g>
</g>
<!-- Node1&#45;&gt;Node34 -->
<g id="edge34" class="edge">
<title>Node1&#45;&gt;Node34</title>
<path fill="none" stroke="midnightblue" d="M3175.24,-142.74C3523.25,-140.95 5453.04,-129.7 5763.33,-97.91"/>
<polygon fill="midnightblue" stroke="midnightblue" points="5764.12,-101.34 5773.68,-96.77 5763.36,-94.38 5764.12,-101.34"/>
</g>
<!-- Node35 -->
<g id="node35" class="node">
<title>Node35</title>
<g id="a_node35"><a xlink:title=" ">
<polygon fill="white" stroke="#bfbfbf" points="5953,-62 5953,-92 6132,-92 6132,-62 5953,-62"/>
<text text-anchor="start" x="5961" y="-80" font-family="Helvetica,sans-Serif" font-size="10.00">asm/DynamicLink/dump2</text>
<text text-anchor="middle" x="6042.5" y="-69" font-family="Helvetica,sans-Serif" font-size="10.00">__24DynamicModuleControlBaseFv.s</text>
</a>
</g>
</g>
<!-- Node1&#45;&gt;Node35 -->
<g id="edge35" class="edge">
<title>Node1&#45;&gt;Node35</title>
<path fill="none" stroke="midnightblue" d="M3175.02,-142.74C3540.26,-140.92 5659.67,-129.06 5944.5,-98 5953.63,-97 5963.17,-95.57 5972.55,-93.91"/>
<polygon fill="midnightblue" stroke="midnightblue" points="5973.46,-97.3 5982.66,-92.04 5972.19,-90.42 5973.46,-97.3"/>
</g>
<!-- Node36 -->
<g id="node36" class="node">
<title>Node36</title>
<g id="a_node36"><a xlink:title=" ">
<polygon fill="white" stroke="#bfbfbf" points="6150.5,-56.5 6150.5,-97.5 6334.5,-97.5 6334.5,-56.5 6150.5,-56.5"/>
<text text-anchor="start" x="6158.5" y="-85.5" font-family="Helvetica,sans-Serif" font-size="10.00">asm/DynamicLink/getModule</text>
<text text-anchor="start" x="6158.5" y="-74.5" font-family="Helvetica,sans-Serif" font-size="10.00">TypeString__24DynamicModuleControl</text>
<text text-anchor="middle" x="6242.5" y="-63.5" font-family="Helvetica,sans-Serif" font-size="10.00">BaseCFv.s</text>
</a>
</g>
</g>
<!-- Node1&#45;&gt;Node36 -->
<g id="edge36" class="edge">
<title>Node1&#45;&gt;Node36</title>
<path fill="none" stroke="midnightblue" d="M3175.05,-142.79C3551.1,-141.2 5790.24,-130.5 6140.37,-97.94"/>
<polygon fill="midnightblue" stroke="midnightblue" points="6140.8,-101.42 6150.41,-96.95 6140.11,-94.45 6140.8,-101.42"/>
</g>
<!-- Node37 -->
<g id="node37" class="node">
<title>Node37</title>
<g id="a_node37"><a xlink:title=" ">
<polygon fill="white" stroke="#bfbfbf" points="6352.5,-62 6352.5,-92 6556.5,-92 6556.5,-62 6352.5,-62"/>
<text text-anchor="start" x="6360.5" y="-80" font-family="Helvetica,sans-Serif" font-size="10.00">asm/DynamicLink/getModule</text>
<text text-anchor="middle" x="6454.5" y="-69" font-family="Helvetica,sans-Serif" font-size="10.00">Size__24DynamicModuleControlBaseCFv.s</text>
</a>
</g>
</g>
<!-- Node1&#45;&gt;Node37 -->
<g id="edge37" class="edge">
<title>Node1&#45;&gt;Node37</title>
<path fill="none" stroke="midnightblue" d="M3175.12,-142.78C3569.56,-141.12 6016,-129.58 6343.5,-98 6354.24,-96.96 6365.51,-95.45 6376.57,-93.7"/>
<polygon fill="midnightblue" stroke="midnightblue" points="6377.35,-97.12 6386.65,-92.05 6376.22,-90.22 6377.35,-97.12"/>
</g>
<!-- Node38 -->
<g id="node38" class="node">
<title>Node38</title>
<g id="a_node38"><a xlink:title=" ">
<polygon fill="white" stroke="#bfbfbf" points="6575,-62 6575,-92 6764,-92 6764,-62 6575,-62"/>
<text text-anchor="start" x="6583" y="-80" font-family="Helvetica,sans-Serif" font-size="10.00">asm/DynamicLink/getModule</text>
<text text-anchor="middle" x="6669.5" y="-69" font-family="Helvetica,sans-Serif" font-size="10.00">Name__20DynamicModuleControlCFv.s</text>
</a>
</g>
</g>
<!-- Node1&#45;&gt;Node38 -->
<g id="edge38" class="edge">
<title>Node1&#45;&gt;Node38</title>
<path fill="none" stroke="midnightblue" d="M3175.18,-142.87C3585.16,-141.83 6214.61,-133.75 6565.5,-98 6575.45,-96.99 6585.86,-95.5 6596.09,-93.79"/>
<polygon fill="midnightblue" stroke="midnightblue" points="6596.99,-97.19 6606.24,-92.01 6595.79,-90.29 6596.99,-97.19"/>
</g>
<!-- Node4&#45;&gt;Node3 -->
<g id="edge4" class="edge">
<title>Node4&#45;&gt;Node3</title>
<path fill="none" stroke="midnightblue" d="M152.91,-67.23C147.77,-57.39 139.28,-41.16 132.74,-28.66"/>
<polygon fill="midnightblue" stroke="midnightblue" points="135.75,-26.87 128.01,-19.63 129.55,-30.11 135.75,-26.87"/>
</g>
</g>
</svg>
        <g id="navigator" transform="translate(0 0)" fill="#404254">
                <rect fill="#f2f5e9" fill-opacity="0.5" stroke="#606060" stroke-width=".5" x="0" y="0" width="60" height="60"/>
                <use id="zoomplus" xlink:href="#zoomPlus" x="17" y="9" onmousedown="handleZoom(evt,'in')"/>
                <use id="zoomminus" xlink:href="#zoomMin" x="42" y="9" onmousedown="handleZoom(evt,'out')"/>
                <use id="reset" xlink:href="#resetDef" x="30" y="36" onmousedown="handleReset()"/>
                <g id="arrowUp" xlink:href="#dirArrow" transform="translate(30 24)" onmousedown="handlePan(0,-1)">
                  <use xlink:href="#rim" fill="#404040">
                        <set attributeName="fill" to="#808080" begin="arrowUp.mouseover" end="arrowUp.mouseout"/>
                  </use>
                  <path fill="none" stroke="white" stroke-width="1.5" d="M0,-3.0v7 M-2.5,-0.5L0,-3.0L2.5,-0.5"/>
                </g>
                <g id="arrowRight" xlink:href="#dirArrow" transform="rotate(90) translate(36 -43)" onmousedown="handlePan(1,0)">
                  <use xlink:href="#rim" fill="#404040">
                        <set attributeName="fill" to="#808080" begin="arrowRight.mouseover" end="arrowRight.mouseout"/>
                  </use>
                  <path fill="none" stroke="white" stroke-width="1.5" d="M0,-3.0v7 M-2.5,-0.5L0,-3.0L2.5,-0.5"/>
                </g>
                <g id="arrowDown" xlink:href="#dirArrow" transform="rotate(180) translate(-30 -48)" onmousedown="handlePan(0,1)">
                  <use xlink:href="#rim" fill="#404040">
                        <set attributeName="fill" to="#808080" begin="arrowDown.mouseover" end="arrowDown.mouseout"/>
                  </use>
                  <path fill="none" stroke="white" stroke-width="1.5" d="M0,-3.0v7 M-2.5,-0.5L0,-3.0L2.5,-0.5"/>
                </g>
                <g id="arrowLeft" xlink:href="#dirArrow" transform="rotate(270) translate(-36 17)" onmousedown="handlePan(-1,0)">
                  <use xlink:href="#rim" fill="#404040">
                        <set attributeName="fill" to="#808080" begin="arrowLeft.mouseover" end="arrowLeft.mouseout"/>
                  </use>
                  <path fill="none" stroke="white" stroke-width="1.5" d="M0,-3.0v7 M-2.5,-0.5L0,-3.0L2.5,-0.5"/>
                </g>
        </g>
        <svg viewBox="0 0 15 15" width="100%" height="30px" preserveAspectRatio="xMaxYMin meet">
         <g id="arrow_out" transform="scale(0.3 0.3)">
          <a xlink:href="DynamicLink_8cpp__incl_org.svg" target="_base">
           <rect id="button" ry="5" rx="5" y="6" x="6" height="38" width="38"
                fill="#f2f5e9" fill-opacity="0.5" stroke="#606060" stroke-width="1.0"/>
           <path id="arrow"
             d="M 11.500037,31.436501 C 11.940474,20.09759 22.043105,11.32322 32.158766,21.979434 L 37.068811,17.246167 C 37.068811,17.246167 37.088388,32 37.088388,32 L 22.160133,31.978069 C 22.160133,31.978069 26.997745,27.140456 26.997745,27.140456 C 18.528582,18.264221 13.291696,25.230495 11.500037,31.436501 z"
             style="fill:#404040;"/>
          </a>
         </g>
        </svg>
</svg>
