<?xml version="1.0" encoding="UTF-8" standalone="no"?>
<!DOCTYPE svg PUBLIC "-//W3C//DTD SVG 1.1//EN"
 "http://www.w3.org/Graphics/SVG/1.1/DTD/svg11.dtd">
<!-- Generated by graphviz version 2.47.0 (20210316.2052)
 -->
<!-- Title: libs/TRK_MINNOW_DOLPHIN/GCN/EXI2_DDH_GCN/main.cpp Pages: 1 -->
<svg width="1668pt" height="173pt"
 viewBox="0.00 0.00 1667.50 173.00" xmlns="http://www.w3.org/2000/svg" xmlns:xlink="http://www.w3.org/1999/xlink">
<g id="graph0" class="graph" transform="scale(1 1) rotate(0) translate(4 169)">
<title>libs/TRK_MINNOW_DOLPHIN/GCN/EXI2_DDH_GCN/main.cpp</title>
<polygon fill="white" stroke="transparent" points="-4,4 -4,-169 1663.5,-169 1663.5,4 -4,4"/>
<!-- Node1 -->
<g id="node1" class="node">
<title>Node1</title>
<g id="a_node1"><a xlink:title=" ">
<polygon fill="#bfbfbf" stroke="black" points="631,-134.5 631,-164.5 792,-164.5 792,-134.5 631,-134.5"/>
<text text-anchor="start" x="639" y="-152.5" font-family="Helvetica,sans-Serif" font-size="10.00">libs/TRK_MINNOW_DOLPHIN</text>
<text text-anchor="middle" x="711.5" y="-141.5" font-family="Helvetica,sans-Serif" font-size="10.00">/GCN/EXI2_DDH_GCN/main.cpp</text>
</a>
</g>
</g>
<!-- Node2 -->
<g id="node2" class="node">
<title>Node2</title>
<g id="a_node2"><a xlink:href="dol2asm_8h.html" target="_top" xlink:title=" ">
<polygon fill="white" stroke="black" points="0,-67.5 0,-86.5 61,-86.5 61,-67.5 0,-67.5"/>
<text text-anchor="middle" x="30.5" y="-74.5" font-family="Helvetica,sans-Serif" font-size="10.00">dol2asm.h</text>
</a>
</g>
</g>
<!-- Node1&#45;&gt;Node2 -->
<g id="edge1" class="edge">
<title>Node1&#45;&gt;Node2</title>
<path fill="none" stroke="midnightblue" d="M630.88,-145.49C483.98,-139.45 178.43,-124.14 75.5,-98 68.87,-96.31 61.98,-93.73 55.65,-90.97"/>
<polygon fill="midnightblue" stroke="midnightblue" points="56.81,-87.65 46.27,-86.59 53.85,-93.99 56.81,-87.65"/>
</g>
<!-- Node3 -->
<g id="node3" class="node">
<title>Node3</title>
<g id="a_node3"><a xlink:href="types_8h.html" target="_top" xlink:title=" ">
<polygon fill="white" stroke="black" points="100,-0.5 100,-19.5 181,-19.5 181,-0.5 100,-0.5"/>
<text text-anchor="middle" x="140.5" y="-7.5" font-family="Helvetica,sans-Serif" font-size="10.00">dolphin/types.h</text>
</a>
</g>
</g>
<!-- Node1&#45;&gt;Node3 -->
<g id="edge2" class="edge">
<title>Node1&#45;&gt;Node3</title>
<path fill="none" stroke="midnightblue" d="M630.71,-147.68C474.47,-145.25 143.15,-135.67 108.5,-98 90.08,-77.97 109.96,-46.44 125.57,-27.34"/>
<polygon fill="midnightblue" stroke="midnightblue" points="128.43,-29.39 132.3,-19.53 123.12,-24.83 128.43,-29.39"/>
</g>
<!-- Node4 -->
<g id="node4" class="node">
<title>Node4</title>
<g id="a_node4"><a xlink:href="EXI2__DDH__GCN_2main_8h.html" target="_top" xlink:title=" ">
<polygon fill="white" stroke="black" points="117.5,-62 117.5,-92 267.5,-92 267.5,-62 117.5,-62"/>
<text text-anchor="start" x="125.5" y="-80" font-family="Helvetica,sans-Serif" font-size="10.00">TRK_MINNOW_DOLPHIN</text>
<text text-anchor="middle" x="192.5" y="-69" font-family="Helvetica,sans-Serif" font-size="10.00">/GCN/EXI2_DDH_GCN/main.h</text>
</a>
</g>
</g>
<!-- Node1&#45;&gt;Node4 -->
<g id="edge3" class="edge">
<title>Node1&#45;&gt;Node4</title>
<path fill="none" stroke="midnightblue" d="M630.91,-142.02C543.28,-134.3 399.29,-119.67 276.5,-98 270.3,-96.91 263.87,-95.63 257.46,-94.27"/>
<polygon fill="midnightblue" stroke="midnightblue" points="257.95,-90.79 247.43,-92.06 256.45,-97.63 257.95,-90.79"/>
</g>
<!-- Node5 -->
<g id="node5" class="node">
<title>Node5</title>
<g id="a_node5"><a xlink:title=" ">
<polygon fill="white" stroke="#bfbfbf" points="285.5,-56.5 285.5,-97.5 441.5,-97.5 441.5,-56.5 285.5,-56.5"/>
<text text-anchor="start" x="293.5" y="-85.5" font-family="Helvetica,sans-Serif" font-size="10.00">asm/TRK_MINNOW_DOLPHIN</text>
<text text-anchor="start" x="293.5" y="-74.5" font-family="Helvetica,sans-Serif" font-size="10.00">/GCN/EXI2_DDH_GCN/main</text>
<text text-anchor="middle" x="363.5" y="-63.5" font-family="Helvetica,sans-Serif" font-size="10.00">/ddh_cc_initinterrupts.s</text>
</a>
</g>
</g>
<!-- Node1&#45;&gt;Node5 -->
<g id="edge5" class="edge">
<title>Node1&#45;&gt;Node5</title>
<path fill="none" stroke="midnightblue" d="M635.13,-134.45C585.46,-125.14 519.05,-112.38 451.67,-98.22"/>
<polygon fill="midnightblue" stroke="midnightblue" points="452.23,-94.76 441.73,-96.12 450.79,-101.61 452.23,-94.76"/>
</g>
<!-- Node6 -->
<g id="node6" class="node">
<title>Node6</title>
<g id="a_node6"><a xlink:title=" ">
<polygon fill="white" stroke="#bfbfbf" points="459.5,-56.5 459.5,-97.5 615.5,-97.5 615.5,-56.5 459.5,-56.5"/>
<text text-anchor="start" x="467.5" y="-85.5" font-family="Helvetica,sans-Serif" font-size="10.00">asm/TRK_MINNOW_DOLPHIN</text>
<text text-anchor="start" x="467.5" y="-74.5" font-family="Helvetica,sans-Serif" font-size="10.00">/GCN/EXI2_DDH_GCN/main</text>
<text text-anchor="middle" x="537.5" y="-63.5" font-family="Helvetica,sans-Serif" font-size="10.00">/ddh_cc_peek.s</text>
</a>
</g>
</g>
<!-- Node1&#45;&gt;Node6 -->
<g id="edge6" class="edge">
<title>Node1&#45;&gt;Node6</title>
<path fill="none" stroke="midnightblue" d="M676.71,-134.4C653.37,-124.95 622.09,-112.27 595.09,-101.34"/>
<polygon fill="midnightblue" stroke="midnightblue" points="596.32,-98.06 585.74,-97.55 593.7,-104.55 596.32,-98.06"/>
</g>
<!-- Node7 -->
<g id="node7" class="node">
<title>Node7</title>
<g id="a_node7"><a xlink:title=" ">
<polygon fill="white" stroke="#bfbfbf" points="633.5,-56.5 633.5,-97.5 789.5,-97.5 789.5,-56.5 633.5,-56.5"/>
<text text-anchor="start" x="641.5" y="-85.5" font-family="Helvetica,sans-Serif" font-size="10.00">asm/TRK_MINNOW_DOLPHIN</text>
<text text-anchor="start" x="641.5" y="-74.5" font-family="Helvetica,sans-Serif" font-size="10.00">/GCN/EXI2_DDH_GCN/main</text>
<text text-anchor="middle" x="711.5" y="-63.5" font-family="Helvetica,sans-Serif" font-size="10.00">/ddh_cc_post_stop.s</text>
</a>
</g>
</g>
<!-- Node1&#45;&gt;Node7 -->
<g id="edge7" class="edge">
<title>Node1&#45;&gt;Node7</title>
<path fill="none" stroke="midnightblue" d="M711.5,-134.23C711.5,-126.57 711.5,-116.84 711.5,-107.63"/>
<polygon fill="midnightblue" stroke="midnightblue" points="715,-107.59 711.5,-97.59 708,-107.59 715,-107.59"/>
</g>
<!-- Node8 -->
<g id="node8" class="node">
<title>Node8</title>
<g id="a_node8"><a xlink:title=" ">
<polygon fill="white" stroke="#bfbfbf" points="807.5,-56.5 807.5,-97.5 963.5,-97.5 963.5,-56.5 807.5,-56.5"/>
<text text-anchor="start" x="815.5" y="-85.5" font-family="Helvetica,sans-Serif" font-size="10.00">asm/TRK_MINNOW_DOLPHIN</text>
<text text-anchor="start" x="815.5" y="-74.5" font-family="Helvetica,sans-Serif" font-size="10.00">/GCN/EXI2_DDH_GCN/main</text>
<text text-anchor="middle" x="885.5" y="-63.5" font-family="Helvetica,sans-Serif" font-size="10.00">/ddh_cc_pre_continue.s</text>
</a>
</g>
</g>
<!-- Node1&#45;&gt;Node8 -->
<g id="edge8" class="edge">
<title>Node1&#45;&gt;Node8</title>
<path fill="none" stroke="midnightblue" d="M746.29,-134.4C769.63,-124.95 800.91,-112.27 827.91,-101.34"/>
<polygon fill="midnightblue" stroke="midnightblue" points="829.3,-104.55 837.26,-97.55 826.68,-98.06 829.3,-104.55"/>
</g>
<!-- Node9 -->
<g id="node9" class="node">
<title>Node9</title>
<g id="a_node9"><a xlink:title=" ">
<polygon fill="white" stroke="#bfbfbf" points="981.5,-56.5 981.5,-97.5 1137.5,-97.5 1137.5,-56.5 981.5,-56.5"/>
<text text-anchor="start" x="989.5" y="-85.5" font-family="Helvetica,sans-Serif" font-size="10.00">asm/TRK_MINNOW_DOLPHIN</text>
<text text-anchor="start" x="989.5" y="-74.5" font-family="Helvetica,sans-Serif" font-size="10.00">/GCN/EXI2_DDH_GCN/main</text>
<text text-anchor="middle" x="1059.5" y="-63.5" font-family="Helvetica,sans-Serif" font-size="10.00">/ddh_cc_write.s</text>
</a>
</g>
</g>
<!-- Node1&#45;&gt;Node9 -->
<g id="edge9" class="edge">
<title>Node1&#45;&gt;Node9</title>
<path fill="none" stroke="midnightblue" d="M787.87,-134.45C837.54,-125.14 903.95,-112.38 971.33,-98.22"/>
<polygon fill="midnightblue" stroke="midnightblue" points="972.21,-101.61 981.27,-96.12 970.77,-94.76 972.21,-101.61"/>
</g>
<!-- Node10 -->
<g id="node10" class="node">
<title>Node10</title>
<g id="a_node10"><a xlink:title=" ">
<polygon fill="white" stroke="#bfbfbf" points="1155.5,-56.5 1155.5,-97.5 1311.5,-97.5 1311.5,-56.5 1155.5,-56.5"/>
<text text-anchor="start" x="1163.5" y="-85.5" font-family="Helvetica,sans-Serif" font-size="10.00">asm/TRK_MINNOW_DOLPHIN</text>
<text text-anchor="start" x="1163.5" y="-74.5" font-family="Helvetica,sans-Serif" font-size="10.00">/GCN/EXI2_DDH_GCN/main</text>
<text text-anchor="middle" x="1233.5" y="-63.5" font-family="Helvetica,sans-Serif" font-size="10.00">/ddh_cc_read.s</text>
</a>
</g>
</g>
<!-- Node1&#45;&gt;Node10 -->
<g id="edge10" class="edge">
<title>Node1&#45;&gt;Node10</title>
<path fill="none" stroke="midnightblue" d="M792.05,-141.83C877.44,-134.15 1016.35,-119.93 1145.27,-98.12"/>
<polygon fill="midnightblue" stroke="midnightblue" points="1146.06,-101.54 1155.33,-96.4 1144.88,-94.64 1146.06,-101.54"/>
</g>
<!-- Node11 -->
<g id="node11" class="node">
<title>Node11</title>
<g id="a_node11"><a xlink:title=" ">
<polygon fill="white" stroke="#bfbfbf" points="1329.5,-56.5 1329.5,-97.5 1485.5,-97.5 1485.5,-56.5 1329.5,-56.5"/>
<text text-anchor="start" x="1337.5" y="-85.5" font-family="Helvetica,sans-Serif" font-size="10.00">asm/TRK_MINNOW_DOLPHIN</text>
<text text-anchor="start" x="1337.5" y="-74.5" font-family="Helvetica,sans-Serif" font-size="10.00">/GCN/EXI2_DDH_GCN/main</text>
<text text-anchor="middle" x="1407.5" y="-63.5" font-family="Helvetica,sans-Serif" font-size="10.00">/ddh_cc_open.s</text>
</a>
</g>
</g>
<!-- Node1&#45;&gt;Node11 -->
<g id="edge11" class="edge">
<title>Node1&#45;&gt;Node11</title>
<path fill="none" stroke="midnightblue" d="M792.22,-145.49C907.25,-140.38 1124.99,-127.68 1319.24,-98.08"/>
<polygon fill="midnightblue" stroke="midnightblue" points="1320,-101.51 1329.35,-96.52 1318.93,-94.59 1320,-101.51"/>
</g>
<!-- Node12 -->
<g id="node12" class="node">
<title>Node12</title>
<g id="a_node12"><a xlink:title=" ">
<polygon fill="white" stroke="#bfbfbf" points="1503.5,-56.5 1503.5,-97.5 1659.5,-97.5 1659.5,-56.5 1503.5,-56.5"/>
<text text-anchor="start" x="1511.5" y="-85.5" font-family="Helvetica,sans-Serif" font-size="10.00">asm/TRK_MINNOW_DOLPHIN</text>
<text text-anchor="start" x="1511.5" y="-74.5" font-family="Helvetica,sans-Serif" font-size="10.00">/GCN/EXI2_DDH_GCN/main</text>
<text text-anchor="middle" x="1581.5" y="-63.5" font-family="Helvetica,sans-Serif" font-size="10.00">/ddh_cc_initialize.s</text>
</a>
</g>
</g>
<!-- Node1&#45;&gt;Node12 -->
<g id="edge12" class="edge">
<title>Node1&#45;&gt;Node12</title>
<path fill="none" stroke="midnightblue" d="M792.26,-147.58C932.97,-145.04 1232.2,-135.47 1493.31,-98.05"/>
<polygon fill="midnightblue" stroke="midnightblue" points="1493.96,-101.49 1503.36,-96.59 1492.96,-94.56 1493.96,-101.49"/>
</g>
<!-- Node4&#45;&gt;Node3 -->
<g id="edge4" class="edge">
<title>Node4&#45;&gt;Node3</title>
<path fill="none" stroke="midnightblue" d="M181.22,-61.9C173.19,-51.86 162.37,-38.34 153.9,-27.75"/>
<polygon fill="midnightblue" stroke="midnightblue" points="156.44,-25.32 147.46,-19.69 150.97,-29.69 156.44,-25.32"/>
</g>
</g>
</svg>
