<?xml version="1.0" encoding="UTF-8" standalone="no"?>
<!DOCTYPE svg PUBLIC "-//W3C//DTD SVG 1.1//EN"
 "http://www.w3.org/Graphics/SVG/1.1/DTD/svg11.dtd">
<!-- Generated by graphviz version 2.47.0 (20210316.2052)
 -->
<!-- Title: src/f_op/f_op_overlap_mng.cpp Pages: 1 -->
<svg width="2383pt" height="173pt"
 viewBox="0.00 0.00 2382.50 173.00" xmlns="http://www.w3.org/2000/svg" xmlns:xlink="http://www.w3.org/1999/xlink">
<g id="graph0" class="graph" transform="scale(1 1) rotate(0) translate(4 169)">
<title>src/f_op/f_op_overlap_mng.cpp</title>
<polygon fill="white" stroke="transparent" points="-4,4 -4,-169 2378.5,-169 2378.5,4 -4,4"/>
<!-- Node1 -->
<g id="node1" class="node">
<title>Node1</title>
<g id="a_node1"><a xlink:title=" ">
<polygon fill="#bfbfbf" stroke="black" points="1024.5,-134.5 1024.5,-164.5 1134.5,-164.5 1134.5,-134.5 1024.5,-134.5"/>
<text text-anchor="start" x="1032.5" y="-152.5" font-family="Helvetica,sans-Serif" font-size="10.00">src/f_op/f_op_overlap</text>
<text text-anchor="middle" x="1079.5" y="-141.5" font-family="Helvetica,sans-Serif" font-size="10.00">_mng.cpp</text>
</a>
</g>
</g>
<!-- Node2 -->
<g id="node2" class="node">
<title>Node2</title>
<g id="a_node2"><a xlink:href="dol2asm_8h.html" target="_top" xlink:title=" ">
<polygon fill="white" stroke="black" points="0,-67.5 0,-86.5 61,-86.5 61,-67.5 0,-67.5"/>
<text text-anchor="middle" x="30.5" y="-74.5" font-family="Helvetica,sans-Serif" font-size="10.00">dol2asm.h</text>
</a>
</g>
</g>
<!-- Node1&#45;&gt;Node2 -->
<g id="edge1" class="edge">
<title>Node1&#45;&gt;Node2</title>
<path fill="none" stroke="midnightblue" d="M1024.22,-148.38C841.43,-147.56 257.89,-141.52 75.5,-98 68.73,-96.39 61.72,-93.78 55.3,-90.97"/>
<polygon fill="midnightblue" stroke="midnightblue" points="56.37,-87.6 45.83,-86.51 53.39,-93.93 56.37,-87.6"/>
</g>
<!-- Node3 -->
<g id="node3" class="node">
<title>Node3</title>
<g id="a_node3"><a xlink:href="types_8h.html" target="_top" xlink:title=" ">
<polygon fill="white" stroke="black" points="94,-0.5 94,-19.5 175,-19.5 175,-0.5 94,-0.5"/>
<text text-anchor="middle" x="134.5" y="-7.5" font-family="Helvetica,sans-Serif" font-size="10.00">dolphin/types.h</text>
</a>
</g>
</g>
<!-- Node1&#45;&gt;Node3 -->
<g id="edge2" class="edge">
<title>Node1&#45;&gt;Node3</title>
<path fill="none" stroke="midnightblue" d="M1024.16,-147.7C823.08,-144.53 141.16,-131.35 109.5,-98 91.29,-78.81 107.84,-47.24 121.31,-27.87"/>
<polygon fill="midnightblue" stroke="midnightblue" points="124.22,-29.81 127.32,-19.68 118.58,-25.66 124.22,-29.81"/>
</g>
<!-- Node4 -->
<g id="node4" class="node">
<title>Node4</title>
<g id="a_node4"><a xlink:href="f__op__overlap__mng_8h.html" target="_top" xlink:title=" ">
<polygon fill="white" stroke="black" points="118,-67.5 118,-86.5 243,-86.5 243,-67.5 118,-67.5"/>
<text text-anchor="middle" x="180.5" y="-74.5" font-family="Helvetica,sans-Serif" font-size="10.00">f_op/f_op_overlap_mng.h</text>
</a>
</g>
</g>
<!-- Node1&#45;&gt;Node4 -->
<g id="edge3" class="edge">
<title>Node1&#45;&gt;Node4</title>
<path fill="none" stroke="midnightblue" d="M1024.3,-149.18C890.63,-149.96 539.4,-146.75 251.5,-98 239.59,-95.98 226.81,-92.74 215.42,-89.44"/>
<polygon fill="midnightblue" stroke="midnightblue" points="216.42,-86.08 205.83,-86.56 214.4,-92.79 216.42,-86.08"/>
</g>
<!-- Node5 -->
<g id="node5" class="node">
<title>Node5</title>
<g id="a_node5"><a xlink:title=" ">
<polygon fill="white" stroke="#bfbfbf" points="260.5,-62 260.5,-92 436.5,-92 436.5,-62 260.5,-62"/>
<text text-anchor="start" x="268.5" y="-80" font-family="Helvetica,sans-Serif" font-size="10.00">asm/f_op/f_op_overlap</text>
<text text-anchor="middle" x="348.5" y="-69" font-family="Helvetica,sans-Serif" font-size="10.00">_mng/fopOvlpM_SceneIsStop__Fv.s</text>
</a>
</g>
</g>
<!-- Node1&#45;&gt;Node5 -->
<g id="edge5" class="edge">
<title>Node1&#45;&gt;Node5</title>
<path fill="none" stroke="midnightblue" d="M1024.12,-146.4C913.63,-141.69 658.12,-128.27 445.5,-98 437.45,-96.85 429.07,-95.45 420.75,-93.92"/>
<polygon fill="midnightblue" stroke="midnightblue" points="421.13,-90.43 410.66,-92 419.83,-97.31 421.13,-90.43"/>
</g>
<!-- Node6 -->
<g id="node6" class="node">
<title>Node6</title>
<g id="a_node6"><a xlink:title=" ">
<polygon fill="white" stroke="#bfbfbf" points="454,-62 454,-92 631,-92 631,-62 454,-62"/>
<text text-anchor="start" x="462" y="-80" font-family="Helvetica,sans-Serif" font-size="10.00">asm/f_op/f_op_overlap</text>
<text text-anchor="middle" x="542.5" y="-69" font-family="Helvetica,sans-Serif" font-size="10.00">_mng/fopOvlpM_SceneIsStart__Fv.s</text>
</a>
</g>
</g>
<!-- Node1&#45;&gt;Node6 -->
<g id="edge6" class="edge">
<title>Node1&#45;&gt;Node6</title>
<path fill="none" stroke="midnightblue" d="M1024.19,-143.69C940.75,-136.09 777.82,-119.87 640.5,-98 632.9,-96.79 625,-95.4 617.13,-93.93"/>
<polygon fill="midnightblue" stroke="midnightblue" points="617.67,-90.47 607.19,-92.03 616.36,-97.35 617.67,-90.47"/>
</g>
<!-- Node7 -->
<g id="node7" class="node">
<title>Node7</title>
<g id="a_node7"><a xlink:title=" ">
<polygon fill="white" stroke="#bfbfbf" points="649.5,-56.5 649.5,-97.5 791.5,-97.5 791.5,-56.5 649.5,-56.5"/>
<text text-anchor="start" x="657.5" y="-85.5" font-family="Helvetica,sans-Serif" font-size="10.00">asm/f_op/f_op_overlap</text>
<text text-anchor="start" x="657.5" y="-74.5" font-family="Helvetica,sans-Serif" font-size="10.00">_mng/fopOvlpM_IsOutReq</text>
<text text-anchor="middle" x="720.5" y="-63.5" font-family="Helvetica,sans-Serif" font-size="10.00">__FP18overlap_task_class.s</text>
</a>
</g>
</g>
<!-- Node1&#45;&gt;Node7 -->
<g id="edge7" class="edge">
<title>Node1&#45;&gt;Node7</title>
<path fill="none" stroke="midnightblue" d="M1024.44,-139.54C968.21,-130.15 878.49,-114.48 801.5,-98 801.4,-97.98 801.3,-97.96 801.19,-97.93"/>
<polygon fill="midnightblue" stroke="midnightblue" points="802.08,-94.55 791.56,-95.81 800.57,-101.38 802.08,-94.55"/>
</g>
<!-- Node8 -->
<g id="node8" class="node">
<title>Node8</title>
<g id="a_node8"><a xlink:title=" ">
<polygon fill="white" stroke="#bfbfbf" points="810,-56.5 810,-97.5 989,-97.5 989,-56.5 810,-56.5"/>
<text text-anchor="start" x="818" y="-85.5" font-family="Helvetica,sans-Serif" font-size="10.00">asm/f_op/f_op_overlap</text>
<text text-anchor="start" x="818" y="-74.5" font-family="Helvetica,sans-Serif" font-size="10.00">_mng/fopOvlpM_Done__FP18overlap</text>
<text text-anchor="middle" x="899.5" y="-63.5" font-family="Helvetica,sans-Serif" font-size="10.00">_task_class.s</text>
</a>
</g>
</g>
<!-- Node1&#45;&gt;Node8 -->
<g id="edge8" class="edge">
<title>Node1&#45;&gt;Node8</title>
<path fill="none" stroke="midnightblue" d="M1043.51,-134.4C1019.37,-124.95 987.01,-112.27 959.08,-101.34"/>
<polygon fill="midnightblue" stroke="midnightblue" points="959.99,-97.93 949.41,-97.55 957.44,-104.45 959.99,-97.93"/>
</g>
<!-- Node9 -->
<g id="node9" class="node">
<title>Node9</title>
<g id="a_node9"><a xlink:title=" ">
<polygon fill="white" stroke="#bfbfbf" points="1007,-56.5 1007,-97.5 1152,-97.5 1152,-56.5 1007,-56.5"/>
<text text-anchor="start" x="1015" y="-85.5" font-family="Helvetica,sans-Serif" font-size="10.00">asm/f_op/f_op_overlap</text>
<text text-anchor="start" x="1015" y="-74.5" font-family="Helvetica,sans-Serif" font-size="10.00">_mng/fopOvlpM_ToldAboutID</text>
<text text-anchor="middle" x="1079.5" y="-63.5" font-family="Helvetica,sans-Serif" font-size="10.00">__FUi.s</text>
</a>
</g>
</g>
<!-- Node1&#45;&gt;Node9 -->
<g id="edge9" class="edge">
<title>Node1&#45;&gt;Node9</title>
<path fill="none" stroke="midnightblue" d="M1079.5,-134.23C1079.5,-126.57 1079.5,-116.84 1079.5,-107.63"/>
<polygon fill="midnightblue" stroke="midnightblue" points="1083,-107.59 1079.5,-97.59 1076,-107.59 1083,-107.59"/>
</g>
<!-- Node10 -->
<g id="node10" class="node">
<title>Node10</title>
<g id="a_node10"><a xlink:title=" ">
<polygon fill="white" stroke="#bfbfbf" points="1170,-62 1170,-92 1321,-92 1321,-62 1170,-62"/>
<text text-anchor="start" x="1178" y="-80" font-family="Helvetica,sans-Serif" font-size="10.00">asm/f_op/f_op_overlap</text>
<text text-anchor="middle" x="1245.5" y="-69" font-family="Helvetica,sans-Serif" font-size="10.00">_mng/fopOvlpM_IsPeek__Fv.s</text>
</a>
</g>
</g>
<!-- Node1&#45;&gt;Node10 -->
<g id="edge10" class="edge">
<title>Node1&#45;&gt;Node10</title>
<path fill="none" stroke="midnightblue" d="M1112.69,-134.4C1138.59,-123.4 1174.76,-108.04 1202.81,-96.13"/>
<polygon fill="midnightblue" stroke="midnightblue" points="1204.53,-99.2 1212.36,-92.07 1201.79,-92.76 1204.53,-99.2"/>
</g>
<!-- Node11 -->
<g id="node11" class="node">
<title>Node11</title>
<g id="a_node11"><a xlink:title=" ">
<polygon fill="white" stroke="#bfbfbf" points="1339,-62 1339,-92 1490,-92 1490,-62 1339,-62"/>
<text text-anchor="start" x="1347" y="-80" font-family="Helvetica,sans-Serif" font-size="10.00">asm/f_op/f_op_overlap</text>
<text text-anchor="middle" x="1414.5" y="-69" font-family="Helvetica,sans-Serif" font-size="10.00">_mng/fopOvlpM_IsDone__Fv.s</text>
</a>
</g>
</g>
<!-- Node1&#45;&gt;Node11 -->
<g id="edge11" class="edge">
<title>Node1&#45;&gt;Node11</title>
<path fill="none" stroke="midnightblue" d="M1134.95,-137.93C1185.89,-128.07 1263.42,-112.73 1330.5,-98 1335.81,-96.83 1341.3,-95.6 1346.81,-94.33"/>
<polygon fill="midnightblue" stroke="midnightblue" points="1347.77,-97.7 1356.72,-92.04 1346.19,-90.88 1347.77,-97.7"/>
</g>
<!-- Node12 -->
<g id="node12" class="node">
<title>Node12</title>
<g id="a_node12"><a xlink:title=" ">
<polygon fill="white" stroke="#bfbfbf" points="1508.5,-62 1508.5,-92 1678.5,-92 1678.5,-62 1508.5,-62"/>
<text text-anchor="start" x="1516.5" y="-80" font-family="Helvetica,sans-Serif" font-size="10.00">asm/f_op/f_op_overlap</text>
<text text-anchor="middle" x="1593.5" y="-69" font-family="Helvetica,sans-Serif" font-size="10.00">_mng/fopOvlpM_IsDoingReq__Fv.s</text>
</a>
</g>
</g>
<!-- Node1&#45;&gt;Node12 -->
<g id="edge12" class="edge">
<title>Node1&#45;&gt;Node12</title>
<path fill="none" stroke="midnightblue" d="M1134.76,-143.46C1215.29,-135.74 1369.45,-119.61 1499.5,-98 1506.63,-96.82 1514.04,-95.46 1521.42,-94.02"/>
<polygon fill="midnightblue" stroke="midnightblue" points="1522.33,-97.41 1531.46,-92.02 1520.97,-90.55 1522.33,-97.41"/>
</g>
<!-- Node13 -->
<g id="node13" class="node">
<title>Node13</title>
<g id="a_node13"><a xlink:title=" ">
<polygon fill="white" stroke="#bfbfbf" points="1696.5,-62 1696.5,-92 1866.5,-92 1866.5,-62 1696.5,-62"/>
<text text-anchor="start" x="1704.5" y="-80" font-family="Helvetica,sans-Serif" font-size="10.00">asm/f_op/f_op_overlap</text>
<text text-anchor="middle" x="1781.5" y="-69" font-family="Helvetica,sans-Serif" font-size="10.00">_mng/fopOvlpM_ClearOfReq__Fv.s</text>
</a>
</g>
</g>
<!-- Node1&#45;&gt;Node13 -->
<g id="edge13" class="edge">
<title>Node1&#45;&gt;Node13</title>
<path fill="none" stroke="midnightblue" d="M1134.68,-146.26C1241.76,-141.4 1485,-127.83 1687.5,-98 1695.16,-96.87 1703.13,-95.5 1711.05,-94"/>
<polygon fill="midnightblue" stroke="midnightblue" points="1711.88,-97.4 1721.03,-92.05 1710.54,-90.53 1711.88,-97.4"/>
</g>
<!-- Node14 -->
<g id="node14" class="node">
<title>Node14</title>
<g id="a_node14"><a xlink:title=" ">
<polygon fill="white" stroke="#bfbfbf" points="1885,-56.5 1885,-97.5 2012,-97.5 2012,-56.5 1885,-56.5"/>
<text text-anchor="start" x="1893" y="-85.5" font-family="Helvetica,sans-Serif" font-size="10.00">asm/f_op/f_op_overlap</text>
<text text-anchor="start" x="1893" y="-74.5" font-family="Helvetica,sans-Serif" font-size="10.00">_mng/fopOvlpM_Request</text>
<text text-anchor="middle" x="1948.5" y="-63.5" font-family="Helvetica,sans-Serif" font-size="10.00">__FsUs.s</text>
</a>
</g>
</g>
<!-- Node1&#45;&gt;Node14 -->
<g id="edge14" class="edge">
<title>Node1&#45;&gt;Node14</title>
<path fill="none" stroke="midnightblue" d="M1134.95,-148.85C1263.64,-148.85 1592.46,-144.05 1874.94,-97.89"/>
<polygon fill="midnightblue" stroke="midnightblue" points="1875.67,-101.31 1884.97,-96.23 1874.53,-94.41 1875.67,-101.31"/>
</g>
<!-- Node15 -->
<g id="node15" class="node">
<title>Node15</title>
<g id="a_node15"><a xlink:title=" ">
<polygon fill="white" stroke="#bfbfbf" points="2030.5,-62 2030.5,-92 2206.5,-92 2206.5,-62 2030.5,-62"/>
<text text-anchor="start" x="2038.5" y="-80" font-family="Helvetica,sans-Serif" font-size="10.00">asm/f_op/f_op_overlap</text>
<text text-anchor="middle" x="2118.5" y="-69" font-family="Helvetica,sans-Serif" font-size="10.00">_mng/fopOvlpM_Management__Fv.s</text>
</a>
</g>
</g>
<!-- Node1&#45;&gt;Node15 -->
<g id="edge15" class="edge">
<title>Node1&#45;&gt;Node15</title>
<path fill="none" stroke="midnightblue" d="M1134.71,-148.42C1280.34,-147.59 1686.7,-141.24 2021.5,-98 2029.9,-96.92 2038.65,-95.51 2047.31,-93.94"/>
<polygon fill="midnightblue" stroke="midnightblue" points="2048.24,-97.33 2057.42,-92.04 2046.94,-90.45 2048.24,-97.33"/>
</g>
<!-- Node16 -->
<g id="node16" class="node">
<title>Node16</title>
<g id="a_node16"><a xlink:title=" ">
<polygon fill="white" stroke="#bfbfbf" points="2224.5,-62 2224.5,-92 2374.5,-92 2374.5,-62 2224.5,-62"/>
<text text-anchor="start" x="2232.5" y="-80" font-family="Helvetica,sans-Serif" font-size="10.00">asm/f_op/f_op_overlap</text>
<text text-anchor="middle" x="2299.5" y="-69" font-family="Helvetica,sans-Serif" font-size="10.00">_mng/fopOvlpM_Cancel__Fv.s</text>
</a>
</g>
</g>
<!-- Node1&#45;&gt;Node16 -->
<g id="edge16" class="edge">
<title>Node1&#45;&gt;Node16</title>
<path fill="none" stroke="midnightblue" d="M1134.77,-147.43C1332.31,-143.39 2003,-127.75 2215.5,-98 2222.64,-97 2230.07,-95.67 2237.42,-94.17"/>
<polygon fill="midnightblue" stroke="midnightblue" points="2238.32,-97.55 2247.37,-92.03 2236.85,-90.71 2238.32,-97.55"/>
</g>
<!-- Node4&#45;&gt;Node3 -->
<g id="edge4" class="edge">
<title>Node4&#45;&gt;Node3</title>
<path fill="none" stroke="midnightblue" d="M174.3,-67.23C167.19,-57.2 155.39,-40.51 146.48,-27.92"/>
<polygon fill="midnightblue" stroke="midnightblue" points="149.24,-25.77 140.61,-19.63 143.53,-29.81 149.24,-25.77"/>
</g>
</g>
</svg>
