<?xml version="1.0" encoding="UTF-8" standalone="no"?>
<!DOCTYPE svg PUBLIC "-//W3C//DTD SVG 1.1//EN"
 "http://www.w3.org/Graphics/SVG/1.1/DTD/svg11.dtd">
<!-- Generated by graphviz version 2.47.0 (20210316.2052)
 -->
<!-- Title: src/f_op/f_op_scene.cpp Pages: 1 -->
<svg width="968pt" height="162pt"
 viewBox="0.00 0.00 968.00 162.00" xmlns="http://www.w3.org/2000/svg" xmlns:xlink="http://www.w3.org/1999/xlink">
<g id="graph0" class="graph" transform="scale(1 1) rotate(0) translate(4 158)">
<title>src/f_op/f_op_scene.cpp</title>
<polygon fill="white" stroke="transparent" points="-4,4 -4,-158 964,-158 964,4 -4,4"/>
<!-- Node1 -->
<g id="node1" class="node">
<title>Node1</title>
<g id="a_node1"><a xlink:title=" ">
<polygon fill="#bfbfbf" stroke="black" points="320.5,-134.5 320.5,-153.5 443.5,-153.5 443.5,-134.5 320.5,-134.5"/>
<text text-anchor="middle" x="382" y="-141.5" font-family="Helvetica,sans-Serif" font-size="10.00">src/f_op/f_op_scene.cpp</text>
</a>
</g>
</g>
<!-- Node2 -->
<g id="node2" class="node">
<title>Node2</title>
<g id="a_node2"><a xlink:href="f__op__scene_8h.html" target="_top" xlink:title=" ">
<polygon fill="white" stroke="black" points="0,-67.5 0,-86.5 96,-86.5 96,-67.5 0,-67.5"/>
<text text-anchor="middle" x="48" y="-74.5" font-family="Helvetica,sans-Serif" font-size="10.00">f_op/f_op_scene.h</text>
</a>
</g>
</g>
<!-- Node1&#45;&gt;Node2 -->
<g id="edge1" class="edge">
<title>Node1&#45;&gt;Node2</title>
<path fill="none" stroke="midnightblue" d="M320.44,-135.47C264.97,-128.05 181.4,-115.32 110,-98 100.56,-95.71 90.47,-92.7 81.23,-89.72"/>
<polygon fill="midnightblue" stroke="midnightblue" points="82.21,-86.36 71.61,-86.53 80,-93 82.21,-86.36"/>
</g>
<!-- Node3 -->
<g id="node3" class="node">
<title>Node3</title>
<g id="a_node3"><a xlink:href="types_8h.html" target="_top" xlink:title=" ">
<polygon fill="white" stroke="black" points="45.5,-0.5 45.5,-19.5 126.5,-19.5 126.5,-0.5 45.5,-0.5"/>
<text text-anchor="middle" x="86" y="-7.5" font-family="Helvetica,sans-Serif" font-size="10.00">dolphin/types.h</text>
</a>
</g>
</g>
<!-- Node1&#45;&gt;Node3 -->
<g id="edge4" class="edge">
<title>Node1&#45;&gt;Node3</title>
<path fill="none" stroke="midnightblue" d="M320.22,-136.79C259.62,-129.75 172.31,-116.75 144,-98 118.61,-81.19 101.59,-49.05 92.87,-28.89"/>
<polygon fill="midnightblue" stroke="midnightblue" points="96.09,-27.52 89.07,-19.59 89.61,-30.17 96.09,-27.52"/>
</g>
<!-- Node4 -->
<g id="node4" class="node">
<title>Node4</title>
<g id="a_node4"><a xlink:href="dol2asm_8h.html" target="_top" xlink:title=" ">
<polygon fill="white" stroke="black" points="152.5,-67.5 152.5,-86.5 213.5,-86.5 213.5,-67.5 152.5,-67.5"/>
<text text-anchor="middle" x="183" y="-74.5" font-family="Helvetica,sans-Serif" font-size="10.00">dol2asm.h</text>
</a>
</g>
</g>
<!-- Node1&#45;&gt;Node4 -->
<g id="edge3" class="edge">
<title>Node1&#45;&gt;Node4</title>
<path fill="none" stroke="midnightblue" d="M344.41,-134.48C311.77,-126.58 263.53,-113.71 223,-98 217.97,-96.05 212.73,-93.69 207.75,-91.28"/>
<polygon fill="midnightblue" stroke="midnightblue" points="209.15,-88.06 198.65,-86.68 206,-94.31 209.15,-88.06"/>
</g>
<!-- Node5 -->
<g id="node5" class="node">
<title>Node5</title>
<g id="a_node5"><a xlink:title=" ">
<polygon fill="white" stroke="#bfbfbf" points="232,-56.5 232,-97.5 370,-97.5 370,-56.5 232,-56.5"/>
<text text-anchor="start" x="240" y="-85.5" font-family="Helvetica,sans-Serif" font-size="10.00">asm/f_op/f_op_scene</text>
<text text-anchor="start" x="240" y="-74.5" font-family="Helvetica,sans-Serif" font-size="10.00">/fopScn_Draw__FP11scene</text>
<text text-anchor="middle" x="301" y="-63.5" font-family="Helvetica,sans-Serif" font-size="10.00">_class.s</text>
</a>
</g>
</g>
<!-- Node1&#45;&gt;Node5 -->
<g id="edge5" class="edge">
<title>Node1&#45;&gt;Node5</title>
<path fill="none" stroke="midnightblue" d="M371.08,-134.23C361.42,-126.49 346.83,-114.78 333.46,-104.05"/>
<polygon fill="midnightblue" stroke="midnightblue" points="335.34,-101.07 325.35,-97.54 330.96,-106.53 335.34,-101.07"/>
</g>
<!-- Node6 -->
<g id="node6" class="node">
<title>Node6</title>
<g id="a_node6"><a xlink:title=" ">
<polygon fill="white" stroke="#bfbfbf" points="388,-56.5 388,-97.5 538,-97.5 538,-56.5 388,-56.5"/>
<text text-anchor="start" x="396" y="-85.5" font-family="Helvetica,sans-Serif" font-size="10.00">asm/f_op/f_op_scene</text>
<text text-anchor="start" x="396" y="-74.5" font-family="Helvetica,sans-Serif" font-size="10.00">/fopScn_Execute__FP11scene</text>
<text text-anchor="middle" x="463" y="-63.5" font-family="Helvetica,sans-Serif" font-size="10.00">_class.s</text>
</a>
</g>
</g>
<!-- Node1&#45;&gt;Node6 -->
<g id="edge6" class="edge">
<title>Node1&#45;&gt;Node6</title>
<path fill="none" stroke="midnightblue" d="M392.92,-134.23C402.58,-126.49 417.17,-114.78 430.54,-104.05"/>
<polygon fill="midnightblue" stroke="midnightblue" points="433.04,-106.53 438.65,-97.54 428.66,-101.07 433.04,-106.53"/>
</g>
<!-- Node7 -->
<g id="node7" class="node">
<title>Node7</title>
<g id="a_node7"><a xlink:title=" ">
<polygon fill="white" stroke="#bfbfbf" points="556,-62 556,-92 684,-92 684,-62 556,-62"/>
<text text-anchor="start" x="564" y="-80" font-family="Helvetica,sans-Serif" font-size="10.00">asm/f_op/f_op_scene</text>
<text text-anchor="middle" x="620" y="-69" font-family="Helvetica,sans-Serif" font-size="10.00">/fopScn_IsDelete__FPv.s</text>
</a>
</g>
</g>
<!-- Node1&#45;&gt;Node7 -->
<g id="edge7" class="edge">
<title>Node1&#45;&gt;Node7</title>
<path fill="none" stroke="midnightblue" d="M413.33,-134.47C446.52,-125.42 500.46,-110.72 547,-98 550.81,-96.96 554.74,-95.88 558.69,-94.8"/>
<polygon fill="midnightblue" stroke="midnightblue" points="559.83,-98.12 568.55,-92.1 557.98,-91.37 559.83,-98.12"/>
</g>
<!-- Node8 -->
<g id="node8" class="node">
<title>Node8</title>
<g id="a_node8"><a xlink:title=" ">
<polygon fill="white" stroke="#bfbfbf" points="702.5,-62 702.5,-92 821.5,-92 821.5,-62 702.5,-62"/>
<text text-anchor="start" x="710.5" y="-80" font-family="Helvetica,sans-Serif" font-size="10.00">asm/f_op/f_op_scene</text>
<text text-anchor="middle" x="762" y="-69" font-family="Helvetica,sans-Serif" font-size="10.00">/fopScn_Delete__FPv.s</text>
</a>
</g>
</g>
<!-- Node1&#45;&gt;Node8 -->
<g id="edge8" class="edge">
<title>Node1&#45;&gt;Node8</title>
<path fill="none" stroke="midnightblue" d="M443.52,-136.64C506.59,-129.53 607.28,-116.53 693,-98 697.63,-97 702.41,-95.85 707.19,-94.63"/>
<polygon fill="midnightblue" stroke="midnightblue" points="708.19,-97.99 716.95,-92.03 706.38,-91.22 708.19,-97.99"/>
</g>
<!-- Node9 -->
<g id="node9" class="node">
<title>Node9</title>
<g id="a_node9"><a xlink:title=" ">
<polygon fill="white" stroke="#bfbfbf" points="840,-62 840,-92 960,-92 960,-62 840,-62"/>
<text text-anchor="start" x="848" y="-80" font-family="Helvetica,sans-Serif" font-size="10.00">asm/f_op/f_op_scene</text>
<text text-anchor="middle" x="900" y="-69" font-family="Helvetica,sans-Serif" font-size="10.00">/fopScn_Create__FPv.s</text>
</a>
</g>
</g>
<!-- Node1&#45;&gt;Node9 -->
<g id="edge9" class="edge">
<title>Node1&#45;&gt;Node9</title>
<path fill="none" stroke="midnightblue" d="M443.52,-140.39C530.5,-135.89 694.09,-124.47 831,-98 836,-97.03 841.16,-95.87 846.3,-94.59"/>
<polygon fill="midnightblue" stroke="midnightblue" points="847.34,-97.93 856.12,-92.01 845.56,-91.16 847.34,-97.93"/>
</g>
<!-- Node2&#45;&gt;Node3 -->
<g id="edge2" class="edge">
<title>Node2&#45;&gt;Node3</title>
<path fill="none" stroke="midnightblue" d="M53.12,-67.23C58.94,-57.29 68.56,-40.84 75.89,-28.29"/>
<polygon fill="midnightblue" stroke="midnightblue" points="78.93,-30.03 80.96,-19.63 72.89,-26.49 78.93,-30.03"/>
</g>
</g>
</svg>
