<?xml version="1.0" encoding="UTF-8" standalone="no"?>
<!DOCTYPE svg PUBLIC "-//W3C//DTD SVG 1.1//EN"
 "http://www.w3.org/Graphics/SVG/1.1/DTD/svg11.dtd">
<!-- Generated by graphviz version 2.47.0 (20210316.2052)
 -->
<!-- Title: src/f_op/f_op_kankyo.cpp Pages: 1 -->
<svg width="905pt" height="151pt"
 viewBox="0.00 0.00 905.00 151.00" xmlns="http://www.w3.org/2000/svg" xmlns:xlink="http://www.w3.org/1999/xlink">
<g id="graph0" class="graph" transform="scale(1 1) rotate(0) translate(4 147)">
<title>src/f_op/f_op_kankyo.cpp</title>
<polygon fill="white" stroke="transparent" points="-4,4 -4,-147 901,-147 901,4 -4,4"/>
<!-- Node1 -->
<g id="node1" class="node">
<title>Node1</title>
<g id="a_node1"><a xlink:title=" ">
<polygon fill="#bfbfbf" stroke="black" points="298.5,-123.5 298.5,-142.5 426.5,-142.5 426.5,-123.5 298.5,-123.5"/>
<text text-anchor="middle" x="362.5" y="-130.5" font-family="Helvetica,sans-Serif" font-size="10.00">src/f_op/f_op_kankyo.cpp</text>
</a>
</g>
</g>
<!-- Node2 -->
<g id="node2" class="node">
<title>Node2</title>
<g id="a_node2"><a xlink:href="dol2asm_8h.html" target="_top" xlink:title=" ">
<polygon fill="white" stroke="black" points="0,-62 0,-81 61,-81 61,-62 0,-62"/>
<text text-anchor="middle" x="30.5" y="-69" font-family="Helvetica,sans-Serif" font-size="10.00">dol2asm.h</text>
</a>
</g>
</g>
<!-- Node1&#45;&gt;Node2 -->
<g id="edge1" class="edge">
<title>Node1&#45;&gt;Node2</title>
<path fill="none" stroke="midnightblue" d="M298.39,-124.86C239.86,-117.65 151.18,-105.01 75.5,-87 71.85,-86.13 68.07,-85.11 64.33,-84.02"/>
<polygon fill="midnightblue" stroke="midnightblue" points="65.18,-80.62 54.59,-81.03 63.12,-87.31 65.18,-80.62"/>
</g>
<!-- Node3 -->
<g id="node3" class="node">
<title>Node3</title>
<g id="a_node3"><a xlink:href="types_8h.html" target="_top" xlink:title=" ">
<polygon fill="white" stroke="black" points="88,-0.5 88,-19.5 169,-19.5 169,-0.5 88,-0.5"/>
<text text-anchor="middle" x="128.5" y="-7.5" font-family="Helvetica,sans-Serif" font-size="10.00">dolphin/types.h</text>
</a>
</g>
</g>
<!-- Node1&#45;&gt;Node3 -->
<g id="edge2" class="edge">
<title>Node1&#45;&gt;Node3</title>
<path fill="none" stroke="midnightblue" d="M298.28,-129.68C231.41,-125.75 133.14,-115.21 109.5,-87 95.63,-70.44 106.28,-45.18 116.37,-28.38"/>
<polygon fill="midnightblue" stroke="midnightblue" points="119.56,-29.9 122.05,-19.6 113.68,-26.09 119.56,-29.9"/>
</g>
<!-- Node4 -->
<g id="node4" class="node">
<title>Node4</title>
<g id="a_node4"><a xlink:href="f__op__kankyo_8h.html" target="_top" xlink:title=" ">
<polygon fill="white" stroke="black" points="118,-62 118,-81 219,-81 219,-62 118,-62"/>
<text text-anchor="middle" x="168.5" y="-69" font-family="Helvetica,sans-Serif" font-size="10.00">f_op/f_op_kankyo.h</text>
</a>
</g>
</g>
<!-- Node1&#45;&gt;Node4 -->
<g id="edge3" class="edge">
<title>Node1&#45;&gt;Node4</title>
<path fill="none" stroke="midnightblue" d="M334.7,-123.48C300.85,-113.09 243.53,-95.51 205.85,-83.95"/>
<polygon fill="midnightblue" stroke="midnightblue" points="206.83,-80.6 196.24,-81.01 204.78,-87.29 206.83,-80.6"/>
</g>
<!-- Node5 -->
<g id="node5" class="node">
<title>Node5</title>
<g id="a_node5"><a xlink:title=" ">
<polygon fill="white" stroke="#bfbfbf" points="237,-56.5 237,-86.5 352,-86.5 352,-56.5 237,-56.5"/>
<text text-anchor="start" x="245" y="-74.5" font-family="Helvetica,sans-Serif" font-size="10.00">asm/f_op/f_op_kankyo</text>
<text text-anchor="middle" x="294.5" y="-63.5" font-family="Helvetica,sans-Serif" font-size="10.00">/fopKy_Draw__FPv.s</text>
</a>
</g>
</g>
<!-- Node1&#45;&gt;Node5 -->
<g id="edge5" class="edge">
<title>Node1&#45;&gt;Node5</title>
<path fill="none" stroke="midnightblue" d="M352.76,-123.48C343.81,-115.64 330.17,-103.71 318.35,-93.37"/>
<polygon fill="midnightblue" stroke="midnightblue" points="320.36,-90.47 310.53,-86.52 315.75,-95.74 320.36,-90.47"/>
</g>
<!-- Node6 -->
<g id="node6" class="node">
<title>Node6</title>
<g id="a_node6"><a xlink:title=" ">
<polygon fill="white" stroke="#bfbfbf" points="370.5,-56.5 370.5,-86.5 490.5,-86.5 490.5,-56.5 370.5,-56.5"/>
<text text-anchor="start" x="378.5" y="-74.5" font-family="Helvetica,sans-Serif" font-size="10.00">asm/f_op/f_op_kankyo</text>
<text text-anchor="middle" x="430.5" y="-63.5" font-family="Helvetica,sans-Serif" font-size="10.00">/fopKy_Execute__FPv.s</text>
</a>
</g>
</g>
<!-- Node1&#45;&gt;Node6 -->
<g id="edge6" class="edge">
<title>Node1&#45;&gt;Node6</title>
<path fill="none" stroke="midnightblue" d="M372.24,-123.48C381.19,-115.64 394.83,-103.71 406.65,-93.37"/>
<polygon fill="midnightblue" stroke="midnightblue" points="409.25,-95.74 414.47,-86.52 404.64,-90.47 409.25,-95.74"/>
</g>
<!-- Node7 -->
<g id="node7" class="node">
<title>Node7</title>
<g id="a_node7"><a xlink:title=" ">
<polygon fill="white" stroke="#bfbfbf" points="508.5,-56.5 508.5,-86.5 630.5,-86.5 630.5,-56.5 508.5,-56.5"/>
<text text-anchor="start" x="516.5" y="-74.5" font-family="Helvetica,sans-Serif" font-size="10.00">asm/f_op/f_op_kankyo</text>
<text text-anchor="middle" x="569.5" y="-63.5" font-family="Helvetica,sans-Serif" font-size="10.00">/fopKy_IsDelete__FPv.s</text>
</a>
</g>
</g>
<!-- Node1&#45;&gt;Node7 -->
<g id="edge7" class="edge">
<title>Node1&#45;&gt;Node7</title>
<path fill="none" stroke="midnightblue" d="M392.16,-123.48C423.08,-114.59 472.34,-100.43 511.1,-89.29"/>
<polygon fill="midnightblue" stroke="midnightblue" points="512.07,-92.65 520.71,-86.52 510.14,-85.92 512.07,-92.65"/>
</g>
<!-- Node8 -->
<g id="node8" class="node">
<title>Node8</title>
<g id="a_node8"><a xlink:title=" ">
<polygon fill="white" stroke="#bfbfbf" points="649,-56.5 649,-86.5 764,-86.5 764,-56.5 649,-56.5"/>
<text text-anchor="start" x="657" y="-74.5" font-family="Helvetica,sans-Serif" font-size="10.00">asm/f_op/f_op_kankyo</text>
<text text-anchor="middle" x="706.5" y="-63.5" font-family="Helvetica,sans-Serif" font-size="10.00">/fopKy_Delete__FPv.s</text>
</a>
</g>
</g>
<!-- Node1&#45;&gt;Node8 -->
<g id="edge8" class="edge">
<title>Node1&#45;&gt;Node8</title>
<path fill="none" stroke="midnightblue" d="M420.48,-123.48C474.44,-115.35 557.32,-102.34 638.86,-87.06"/>
<polygon fill="midnightblue" stroke="midnightblue" points="639.62,-90.48 648.8,-85.19 638.32,-83.6 639.62,-90.48"/>
</g>
<!-- Node9 -->
<g id="node9" class="node">
<title>Node9</title>
<g id="a_node9"><a xlink:title=" ">
<polygon fill="white" stroke="#bfbfbf" points="782,-56.5 782,-86.5 897,-86.5 897,-56.5 782,-56.5"/>
<text text-anchor="start" x="790" y="-74.5" font-family="Helvetica,sans-Serif" font-size="10.00">asm/f_op/f_op_kankyo</text>
<text text-anchor="middle" x="839.5" y="-63.5" font-family="Helvetica,sans-Serif" font-size="10.00">/fopKy_Create__FPv.s</text>
</a>
</g>
</g>
<!-- Node1&#45;&gt;Node9 -->
<g id="edge9" class="edge">
<title>Node1&#45;&gt;Node9</title>
<path fill="none" stroke="midnightblue" d="M426.51,-127.13C505.54,-120.64 644.22,-107.7 772.01,-87.14"/>
<polygon fill="midnightblue" stroke="midnightblue" points="772.67,-90.58 781.98,-85.52 771.54,-83.67 772.67,-90.58"/>
</g>
<!-- Node4&#45;&gt;Node3 -->
<g id="edge4" class="edge">
<title>Node4&#45;&gt;Node3</title>
<path fill="none" stroke="midnightblue" d="M162.77,-61.98C156.83,-53.14 147.38,-39.09 139.91,-27.98"/>
<polygon fill="midnightblue" stroke="midnightblue" points="142.7,-25.86 134.22,-19.51 136.89,-29.76 142.7,-25.86"/>
</g>
</g>
</svg>
