<?xml version="1.0" encoding="UTF-8" standalone="no"?>
<!DOCTYPE svg PUBLIC "-//W3C//DTD SVG 1.1//EN"
 "http://www.w3.org/Graphics/SVG/1.1/DTD/svg11.dtd">
<!-- Generated by graphviz version 2.47.0 (20210316.2052)
 -->
<!-- Title: src/f_op/f_op_kankyo_mng.cpp Pages: 1 -->
<svg width="1641pt" height="173pt"
 viewBox="0.00 0.00 1641.00 173.00" xmlns="http://www.w3.org/2000/svg" xmlns:xlink="http://www.w3.org/1999/xlink">
<g id="graph0" class="graph" transform="scale(1 1) rotate(0) translate(4 169)">
<title>src/f_op/f_op_kankyo_mng.cpp</title>
<polygon fill="white" stroke="transparent" points="-4,4 -4,-169 1637,-169 1637,4 -4,4"/>
<!-- Node1 -->
<g id="node1" class="node">
<title>Node1</title>
<g id="a_node1"><a xlink:title=" ">
<polygon fill="#bfbfbf" stroke="black" points="643.5,-134.5 643.5,-164.5 753.5,-164.5 753.5,-134.5 643.5,-134.5"/>
<text text-anchor="start" x="651.5" y="-152.5" font-family="Helvetica,sans-Serif" font-size="10.00">src/f_op/f_op_kankyo</text>
<text text-anchor="middle" x="698.5" y="-141.5" font-family="Helvetica,sans-Serif" font-size="10.00">_mng.cpp</text>
</a>
</g>
</g>
<!-- Node2 -->
<g id="node2" class="node">
<title>Node2</title>
<g id="a_node2"><a xlink:href="f__op__kankyo__mng_8h.html" target="_top" xlink:title=" ">
<polygon fill="white" stroke="black" points="0,-67.5 0,-86.5 125,-86.5 125,-67.5 0,-67.5"/>
<text text-anchor="middle" x="62.5" y="-74.5" font-family="Helvetica,sans-Serif" font-size="10.00">f_op/f_op_kankyo_mng.h</text>
</a>
</g>
</g>
<!-- Node1&#45;&gt;Node2 -->
<g id="edge1" class="edge">
<title>Node1&#45;&gt;Node2</title>
<path fill="none" stroke="midnightblue" d="M643.36,-146.52C542.63,-142.23 322.39,-129.79 139.5,-98 126.74,-95.78 113,-92.51 100.71,-89.25"/>
<polygon fill="midnightblue" stroke="midnightblue" points="101.35,-85.79 90.78,-86.53 99.5,-92.54 101.35,-85.79"/>
</g>
<!-- Node3 -->
<g id="node3" class="node">
<title>Node3</title>
<g id="a_node3"><a xlink:href="types_8h.html" target="_top" xlink:title=" ">
<polygon fill="white" stroke="black" points="67,-0.5 67,-19.5 148,-19.5 148,-0.5 67,-0.5"/>
<text text-anchor="middle" x="107.5" y="-7.5" font-family="Helvetica,sans-Serif" font-size="10.00">dolphin/types.h</text>
</a>
</g>
</g>
<!-- Node1&#45;&gt;Node3 -->
<g id="edge4" class="edge">
<title>Node1&#45;&gt;Node3</title>
<path fill="none" stroke="midnightblue" d="M643.4,-148.7C525.48,-148.27 252.97,-142.33 173.5,-98 158.87,-89.84 132.98,-51.47 118.35,-28.5"/>
<polygon fill="midnightblue" stroke="midnightblue" points="121.12,-26.34 112.84,-19.73 115.2,-30.06 121.12,-26.34"/>
</g>
<!-- Node4 -->
<g id="node4" class="node">
<title>Node4</title>
<g id="a_node4"><a xlink:href="dol2asm_8h.html" target="_top" xlink:title=" ">
<polygon fill="white" stroke="black" points="182,-67.5 182,-86.5 243,-86.5 243,-67.5 182,-67.5"/>
<text text-anchor="middle" x="212.5" y="-74.5" font-family="Helvetica,sans-Serif" font-size="10.00">dol2asm.h</text>
</a>
</g>
</g>
<!-- Node1&#45;&gt;Node4 -->
<g id="edge3" class="edge">
<title>Node1&#45;&gt;Node4</title>
<path fill="none" stroke="midnightblue" d="M643.39,-148.4C557.92,-146.9 389.04,-138.48 252.5,-98 246.92,-96.34 241.17,-93.94 235.84,-91.37"/>
<polygon fill="midnightblue" stroke="midnightblue" points="237.3,-88.19 226.81,-86.69 234.08,-94.4 237.3,-88.19"/>
</g>
<!-- Node5 -->
<g id="node5" class="node">
<title>Node5</title>
<g id="a_node5"><a xlink:title=" ">
<polygon fill="white" stroke="#bfbfbf" points="261,-62 261,-92 434,-92 434,-62 261,-62"/>
<text text-anchor="start" x="269" y="-80" font-family="Helvetica,sans-Serif" font-size="10.00">asm/f_op/f_op_kankyo</text>
<text text-anchor="middle" x="347.5" y="-69" font-family="Helvetica,sans-Serif" font-size="10.00">_mng/fopKyM_CreateAppend__Fv.s</text>
</a>
</g>
</g>
<!-- Node1&#45;&gt;Node5 -->
<g id="edge5" class="edge">
<title>Node1&#45;&gt;Node5</title>
<path fill="none" stroke="midnightblue" d="M643.25,-137.72C591.58,-127.6 512.27,-111.97 443.5,-98 437.31,-96.74 430.91,-95.43 424.47,-94.11"/>
<polygon fill="midnightblue" stroke="midnightblue" points="424.86,-90.61 414.36,-92.02 423.45,-97.47 424.86,-90.61"/>
</g>
<!-- Node6 -->
<g id="node6" class="node">
<title>Node6</title>
<g id="a_node6"><a xlink:title=" ">
<polygon fill="white" stroke="#bfbfbf" points="452,-56.5 452,-97.5 607,-97.5 607,-56.5 452,-56.5"/>
<text text-anchor="start" x="460" y="-85.5" font-family="Helvetica,sans-Serif" font-size="10.00">asm/f_op/f_op_kankyo</text>
<text text-anchor="start" x="460" y="-74.5" font-family="Helvetica,sans-Serif" font-size="10.00">_mng/createAppend__FiP4cXyz</text>
<text text-anchor="middle" x="529.5" y="-63.5" font-family="Helvetica,sans-Serif" font-size="10.00">P4cXyz.s</text>
</a>
</g>
</g>
<!-- Node1&#45;&gt;Node6 -->
<g id="edge6" class="edge">
<title>Node1&#45;&gt;Node6</title>
<path fill="none" stroke="midnightblue" d="M664.71,-134.4C642.14,-124.99 611.93,-112.39 585.78,-101.48"/>
<polygon fill="midnightblue" stroke="midnightblue" points="586.93,-98.17 576.36,-97.55 584.24,-104.63 586.93,-98.17"/>
</g>
<!-- Node7 -->
<g id="node7" class="node">
<title>Node7</title>
<g id="a_node7"><a xlink:title=" ">
<polygon fill="white" stroke="#bfbfbf" points="625.5,-62 625.5,-92 771.5,-92 771.5,-62 625.5,-62"/>
<text text-anchor="start" x="633.5" y="-80" font-family="Helvetica,sans-Serif" font-size="10.00">asm/f_op/f_op_kankyo</text>
<text text-anchor="middle" x="698.5" y="-69" font-family="Helvetica,sans-Serif" font-size="10.00">_mng/fopKyM_Delete__FPv.s</text>
</a>
</g>
</g>
<!-- Node1&#45;&gt;Node7 -->
<g id="edge7" class="edge">
<title>Node1&#45;&gt;Node7</title>
<path fill="none" stroke="midnightblue" d="M698.5,-134.23C698.5,-125.16 698.5,-113.16 698.5,-102.58"/>
<polygon fill="midnightblue" stroke="midnightblue" points="702,-102.25 698.5,-92.25 695,-102.25 702,-102.25"/>
</g>
<!-- Node8 -->
<g id="node8" class="node">
<title>Node8</title>
<g id="a_node8"><a xlink:title=" ">
<polygon fill="white" stroke="#bfbfbf" points="789.5,-62 789.5,-92 973.5,-92 973.5,-62 789.5,-62"/>
<text text-anchor="start" x="797.5" y="-80" font-family="Helvetica,sans-Serif" font-size="10.00">asm/f_op/f_op_kankyo</text>
<text text-anchor="middle" x="881.5" y="-69" font-family="Helvetica,sans-Serif" font-size="10.00">_mng/fopKyM_Create__FsPFPv_iPv.s</text>
</a>
</g>
</g>
<!-- Node1&#45;&gt;Node8 -->
<g id="edge8" class="edge">
<title>Node1&#45;&gt;Node8</title>
<path fill="none" stroke="midnightblue" d="M735.09,-134.4C763.89,-123.31 804.21,-107.78 835.25,-95.82"/>
<polygon fill="midnightblue" stroke="midnightblue" points="836.9,-98.93 844.97,-92.07 834.38,-92.4 836.9,-98.93"/>
</g>
<!-- Node9 -->
<g id="node9" class="node">
<title>Node9</title>
<g id="a_node9"><a xlink:title=" ">
<polygon fill="white" stroke="#bfbfbf" points="991.5,-56.5 991.5,-97.5 1157.5,-97.5 1157.5,-56.5 991.5,-56.5"/>
<text text-anchor="start" x="999.5" y="-85.5" font-family="Helvetica,sans-Serif" font-size="10.00">asm/f_op/f_op_kankyo</text>
<text text-anchor="start" x="999.5" y="-74.5" font-family="Helvetica,sans-Serif" font-size="10.00">_mng/fopKyM_create__FsiP4cXyz</text>
<text text-anchor="middle" x="1074.5" y="-63.5" font-family="Helvetica,sans-Serif" font-size="10.00">P4cXyzPFPv_i.s</text>
</a>
</g>
</g>
<!-- Node1&#45;&gt;Node9 -->
<g id="edge9" class="edge">
<title>Node1&#45;&gt;Node9</title>
<path fill="none" stroke="midnightblue" d="M753.59,-139.34C808.77,-130.03 896.36,-114.85 981.46,-98.17"/>
<polygon fill="midnightblue" stroke="midnightblue" points="982.15,-101.6 991.28,-96.24 980.8,-94.74 982.15,-101.6"/>
</g>
<!-- Node10 -->
<g id="node10" class="node">
<title>Node10</title>
<g id="a_node10"><a xlink:title=" ">
<polygon fill="white" stroke="#bfbfbf" points="1175.5,-56.5 1175.5,-97.5 1321.5,-97.5 1321.5,-56.5 1175.5,-56.5"/>
<text text-anchor="start" x="1183.5" y="-85.5" font-family="Helvetica,sans-Serif" font-size="10.00">asm/f_op/f_op_kankyo</text>
<text text-anchor="start" x="1183.5" y="-74.5" font-family="Helvetica,sans-Serif" font-size="10.00">_mng/fopKyM_fastCreate</text>
<text text-anchor="middle" x="1248.5" y="-63.5" font-family="Helvetica,sans-Serif" font-size="10.00">__FsiP4cXyzP4cXyzPFPv_i.s</text>
</a>
</g>
</g>
<!-- Node1&#45;&gt;Node10 -->
<g id="edge10" class="edge">
<title>Node1&#45;&gt;Node10</title>
<path fill="none" stroke="midnightblue" d="M753.59,-144.92C839.53,-138.81 1010.82,-124.57 1165.14,-98.12"/>
<polygon fill="midnightblue" stroke="midnightblue" points="1166.03,-101.52 1175.28,-96.36 1164.83,-94.63 1166.03,-101.52"/>
</g>
<!-- Node11 -->
<g id="node11" class="node">
<title>Node11</title>
<g id="a_node11"><a xlink:title=" ">
<polygon fill="white" stroke="#bfbfbf" points="1339.5,-56.5 1339.5,-97.5 1477.5,-97.5 1477.5,-56.5 1339.5,-56.5"/>
<text text-anchor="start" x="1347.5" y="-85.5" font-family="Helvetica,sans-Serif" font-size="10.00">asm/f_op/f_op_kankyo</text>
<text text-anchor="start" x="1347.5" y="-74.5" font-family="Helvetica,sans-Serif" font-size="10.00">_mng/fopKyM_createWpillar</text>
<text text-anchor="middle" x="1408.5" y="-63.5" font-family="Helvetica,sans-Serif" font-size="10.00">__FPC4cXyzfi.s</text>
</a>
</g>
</g>
<!-- Node1&#45;&gt;Node11 -->
<g id="edge11" class="edge">
<title>Node1&#45;&gt;Node11</title>
<path fill="none" stroke="midnightblue" d="M753.84,-147.26C862.55,-144.13 1111.64,-133.57 1329.3,-98.05"/>
<polygon fill="midnightblue" stroke="midnightblue" points="1330.01,-101.48 1339.31,-96.4 1328.87,-94.57 1330.01,-101.48"/>
</g>
<!-- Node12 -->
<g id="node12" class="node">
<title>Node12</title>
<g id="a_node12"><a xlink:title=" ">
<polygon fill="white" stroke="#bfbfbf" points="1496,-56.5 1496,-97.5 1633,-97.5 1633,-56.5 1496,-56.5"/>
<text text-anchor="start" x="1504" y="-85.5" font-family="Helvetica,sans-Serif" font-size="10.00">asm/f_op/f_op_kankyo</text>
<text text-anchor="start" x="1504" y="-74.5" font-family="Helvetica,sans-Serif" font-size="10.00">_mng/fopKyM_createMpillar</text>
<text text-anchor="middle" x="1564.5" y="-63.5" font-family="Helvetica,sans-Serif" font-size="10.00">__FPC4cXyzf.s</text>
</a>
</g>
</g>
<!-- Node1&#45;&gt;Node12 -->
<g id="edge12" class="edge">
<title>Node1&#45;&gt;Node12</title>
<path fill="none" stroke="midnightblue" d="M753.82,-148.5C881.45,-147.73 1206.3,-141.42 1485.82,-97.94"/>
<polygon fill="midnightblue" stroke="midnightblue" points="1486.41,-101.39 1495.74,-96.37 1485.32,-94.47 1486.41,-101.39"/>
</g>
<!-- Node2&#45;&gt;Node3 -->
<g id="edge2" class="edge">
<title>Node2&#45;&gt;Node3</title>
<path fill="none" stroke="midnightblue" d="M68.57,-67.23C75.52,-57.2 87.07,-40.51 95.79,-27.92"/>
<polygon fill="midnightblue" stroke="midnightblue" points="98.71,-29.84 101.53,-19.63 92.96,-25.86 98.71,-29.84"/>
</g>
</g>
</svg>
