<?xml version="1.0" encoding="UTF-8" standalone="no"?>
<!DOCTYPE svg PUBLIC "-//W3C//DTD SVG 1.1//EN"
 "http://www.w3.org/Graphics/SVG/1.1/DTD/svg11.dtd">
<!-- Generated by graphviz version 2.47.0 (20210316.2052)
 -->
<!-- Title: src/f_op/f_op_scene_tag.cpp Pages: 1 -->
<svg width="696pt" height="173pt"
 viewBox="0.00 0.00 695.50 173.00" xmlns="http://www.w3.org/2000/svg" xmlns:xlink="http://www.w3.org/1999/xlink">
<g id="graph0" class="graph" transform="scale(1 1) rotate(0) translate(4 169)">
<title>src/f_op/f_op_scene_tag.cpp</title>
<polygon fill="white" stroke="transparent" points="-4,4 -4,-169 691.5,-169 691.5,4 -4,4"/>
<!-- Node1 -->
<g id="node1" class="node">
<title>Node1</title>
<g id="a_node1"><a xlink:title=" ">
<polygon fill="#bfbfbf" stroke="black" points="207,-134.5 207,-164.5 312,-164.5 312,-134.5 207,-134.5"/>
<text text-anchor="start" x="215" y="-152.5" font-family="Helvetica,sans-Serif" font-size="10.00">src/f_op/f_op_scene</text>
<text text-anchor="middle" x="259.5" y="-141.5" font-family="Helvetica,sans-Serif" font-size="10.00">_tag.cpp</text>
</a>
</g>
</g>
<!-- Node2 -->
<g id="node2" class="node">
<title>Node2</title>
<g id="a_node2"><a xlink:href="f__op__scene__tag_8h.html" target="_top" xlink:title=" ">
<polygon fill="white" stroke="black" points="0,-67.5 0,-86.5 115,-86.5 115,-67.5 0,-67.5"/>
<text text-anchor="middle" x="57.5" y="-74.5" font-family="Helvetica,sans-Serif" font-size="10.00">f_op/f_op_scene_tag.h</text>
</a>
</g>
</g>
<!-- Node1&#45;&gt;Node2 -->
<g id="edge1" class="edge">
<title>Node1&#45;&gt;Node2</title>
<path fill="none" stroke="midnightblue" d="M219.11,-134.4C181.8,-121.38 126.99,-102.25 91.77,-89.96"/>
<polygon fill="midnightblue" stroke="midnightblue" points="92.55,-86.52 81.95,-86.53 90.24,-93.13 92.55,-86.52"/>
</g>
<!-- Node3 -->
<g id="node3" class="node">
<title>Node3</title>
<g id="a_node3"><a xlink:href="types_8h.html" target="_top" xlink:title=" ">
<polygon fill="white" stroke="black" points="60,-0.5 60,-19.5 141,-19.5 141,-0.5 60,-0.5"/>
<text text-anchor="middle" x="100.5" y="-7.5" font-family="Helvetica,sans-Serif" font-size="10.00">dolphin/types.h</text>
</a>
</g>
</g>
<!-- Node1&#45;&gt;Node3 -->
<g id="edge4" class="edge">
<title>Node1&#45;&gt;Node3</title>
<path fill="none" stroke="midnightblue" d="M223.79,-134.47C204.59,-125.82 181.29,-113.42 163.5,-98 140.22,-77.82 120.75,-47.46 109.87,-28.45"/>
<polygon fill="midnightblue" stroke="midnightblue" points="112.9,-26.71 104.99,-19.67 106.78,-30.11 112.9,-26.71"/>
</g>
<!-- Node4 -->
<g id="node4" class="node">
<title>Node4</title>
<g id="a_node4"><a xlink:href="dol2asm_8h.html" target="_top" xlink:title=" ">
<polygon fill="white" stroke="black" points="172,-67.5 172,-86.5 233,-86.5 233,-67.5 172,-67.5"/>
<text text-anchor="middle" x="202.5" y="-74.5" font-family="Helvetica,sans-Serif" font-size="10.00">dol2asm.h</text>
</a>
</g>
</g>
<!-- Node1&#45;&gt;Node4 -->
<g id="edge3" class="edge">
<title>Node1&#45;&gt;Node4</title>
<path fill="none" stroke="midnightblue" d="M247.97,-134.23C238.75,-122.84 225.82,-106.84 216.1,-94.82"/>
<polygon fill="midnightblue" stroke="midnightblue" points="218.7,-92.47 209.69,-86.89 213.26,-96.87 218.7,-92.47"/>
</g>
<!-- Node5 -->
<g id="node5" class="node">
<title>Node5</title>
<g id="a_node5"><a xlink:title=" ">
<polygon fill="white" stroke="#bfbfbf" points="251,-56.5 251,-97.5 382,-97.5 382,-56.5 251,-56.5"/>
<text text-anchor="start" x="259" y="-85.5" font-family="Helvetica,sans-Serif" font-size="10.00">asm/f_op/f_op_scene</text>
<text text-anchor="start" x="259" y="-74.5" font-family="Helvetica,sans-Serif" font-size="10.00">_tag/fopScnTg_QueueTo</text>
<text text-anchor="middle" x="316.5" y="-63.5" font-family="Helvetica,sans-Serif" font-size="10.00">__FP15scene_tag_class.s</text>
</a>
</g>
</g>
<!-- Node1&#45;&gt;Node5 -->
<g id="edge5" class="edge">
<title>Node1&#45;&gt;Node5</title>
<path fill="none" stroke="midnightblue" d="M271.03,-134.23C277.69,-126 286.29,-115.36 294.22,-105.56"/>
<polygon fill="midnightblue" stroke="midnightblue" points="297.1,-107.57 300.66,-97.59 291.65,-103.16 297.1,-107.57"/>
</g>
<!-- Node6 -->
<g id="node6" class="node">
<title>Node6</title>
<g id="a_node6"><a xlink:title=" ">
<polygon fill="white" stroke="#bfbfbf" points="400,-56.5 400,-97.5 531,-97.5 531,-56.5 400,-56.5"/>
<text text-anchor="start" x="408" y="-85.5" font-family="Helvetica,sans-Serif" font-size="10.00">asm/f_op/f_op_scene</text>
<text text-anchor="start" x="408" y="-74.5" font-family="Helvetica,sans-Serif" font-size="10.00">_tag/fopScnTg_ToQueue</text>
<text text-anchor="middle" x="465.5" y="-63.5" font-family="Helvetica,sans-Serif" font-size="10.00">__FP15scene_tag_class.s</text>
</a>
</g>
</g>
<!-- Node1&#45;&gt;Node6 -->
<g id="edge6" class="edge">
<title>Node1&#45;&gt;Node6</title>
<path fill="none" stroke="midnightblue" d="M300.69,-134.4C328.68,-124.83 366.32,-111.94 398.57,-100.91"/>
<polygon fill="midnightblue" stroke="midnightblue" points="400.06,-104.1 408.39,-97.55 397.79,-97.47 400.06,-104.1"/>
</g>
<!-- Node7 -->
<g id="node7" class="node">
<title>Node7</title>
<g id="a_node7"><a xlink:title=" ">
<polygon fill="white" stroke="#bfbfbf" points="549.5,-56.5 549.5,-97.5 687.5,-97.5 687.5,-56.5 549.5,-56.5"/>
<text text-anchor="start" x="557.5" y="-85.5" font-family="Helvetica,sans-Serif" font-size="10.00">asm/f_op/f_op_scene</text>
<text text-anchor="start" x="557.5" y="-74.5" font-family="Helvetica,sans-Serif" font-size="10.00">_tag/fopScnTg_Init_</text>
<text text-anchor="middle" x="618.5" y="-63.5" font-family="Helvetica,sans-Serif" font-size="10.00">_FP15scene_tag_classPv.s</text>
</a>
</g>
</g>
<!-- Node1&#45;&gt;Node7 -->
<g id="edge7" class="edge">
<title>Node1&#45;&gt;Node7</title>
<path fill="none" stroke="midnightblue" d="M312.03,-140.24C366.55,-131.4 454.49,-116.41 539.43,-98.16"/>
<polygon fill="midnightblue" stroke="midnightblue" points="540.21,-101.58 549.24,-96.04 538.73,-94.74 540.21,-101.58"/>
</g>
<!-- Node2&#45;&gt;Node3 -->
<g id="edge2" class="edge">
<title>Node2&#45;&gt;Node3</title>
<path fill="none" stroke="midnightblue" d="M63.3,-67.23C69.88,-57.29 80.76,-40.84 89.06,-28.29"/>
<polygon fill="midnightblue" stroke="midnightblue" points="92.19,-29.9 94.79,-19.63 86.36,-26.04 92.19,-29.9"/>
</g>
</g>
</svg>
