<?xml version="1.0" encoding="UTF-8" standalone="no"?>
<!DOCTYPE svg PUBLIC "-//W3C//DTD SVG 1.1//EN"
 "http://www.w3.org/Graphics/SVG/1.1/DTD/svg11.dtd">
<!-- Generated by graphviz version 2.47.0 (20210316.2052)
 -->
<!-- Title: src/f_op/f_op_draw_tag.cpp Pages: 1 -->
<svg width="900pt" height="173pt"
 viewBox="0.00 0.00 900.00 173.00" xmlns="http://www.w3.org/2000/svg" xmlns:xlink="http://www.w3.org/1999/xlink">
<g id="graph0" class="graph" transform="scale(1 1) rotate(0) translate(4 169)">
<title>src/f_op/f_op_draw_tag.cpp</title>
<polygon fill="white" stroke="transparent" points="-4,4 -4,-169 896,-169 896,4 -4,4"/>
<!-- Node1 -->
<g id="node1" class="node">
<title>Node1</title>
<g id="a_node1"><a xlink:title=" ">
<polygon fill="#bfbfbf" stroke="black" points="262.5,-134.5 262.5,-164.5 362.5,-164.5 362.5,-134.5 262.5,-134.5"/>
<text text-anchor="start" x="270.5" y="-152.5" font-family="Helvetica,sans-Serif" font-size="10.00">src/f_op/f_op_draw</text>
<text text-anchor="middle" x="312.5" y="-141.5" font-family="Helvetica,sans-Serif" font-size="10.00">_tag.cpp</text>
</a>
</g>
</g>
<!-- Node2 -->
<g id="node2" class="node">
<title>Node2</title>
<g id="a_node2"><a xlink:href="dol2asm_8h.html" target="_top" xlink:title=" ">
<polygon fill="white" stroke="black" points="0,-67.5 0,-86.5 61,-86.5 61,-67.5 0,-67.5"/>
<text text-anchor="middle" x="30.5" y="-74.5" font-family="Helvetica,sans-Serif" font-size="10.00">dol2asm.h</text>
</a>
</g>
</g>
<!-- Node1&#45;&gt;Node2 -->
<g id="edge1" class="edge">
<title>Node1&#45;&gt;Node2</title>
<path fill="none" stroke="midnightblue" d="M262.23,-140.92C213.7,-132.87 138.52,-118.47 75.5,-98 69.46,-96.04 63.13,-93.53 57.2,-90.96"/>
<polygon fill="midnightblue" stroke="midnightblue" points="58.25,-87.59 47.69,-86.65 55.36,-93.97 58.25,-87.59"/>
</g>
<!-- Node3 -->
<g id="node3" class="node">
<title>Node3</title>
<g id="a_node3"><a xlink:href="types_8h.html" target="_top" xlink:title=" ">
<polygon fill="white" stroke="black" points="90,-0.5 90,-19.5 171,-19.5 171,-0.5 90,-0.5"/>
<text text-anchor="middle" x="130.5" y="-7.5" font-family="Helvetica,sans-Serif" font-size="10.00">dolphin/types.h</text>
</a>
</g>
</g>
<!-- Node1&#45;&gt;Node3 -->
<g id="edge2" class="edge">
<title>Node1&#45;&gt;Node3</title>
<path fill="none" stroke="midnightblue" d="M262.48,-143.13C208.37,-136.17 127.28,-121.99 108.5,-98 92.56,-77.64 106.54,-47.11 118.34,-28.16"/>
<polygon fill="midnightblue" stroke="midnightblue" points="121.37,-29.92 123.98,-19.65 115.53,-26.05 121.37,-29.92"/>
</g>
<!-- Node4 -->
<g id="node4" class="node">
<title>Node4</title>
<g id="a_node4"><a xlink:href="f__op__draw__tag_8h.html" target="_top" xlink:title=" ">
<polygon fill="white" stroke="black" points="117.5,-67.5 117.5,-86.5 227.5,-86.5 227.5,-67.5 117.5,-67.5"/>
<text text-anchor="middle" x="172.5" y="-74.5" font-family="Helvetica,sans-Serif" font-size="10.00">f_op/f_op_draw_tag.h</text>
</a>
</g>
</g>
<!-- Node1&#45;&gt;Node4 -->
<g id="edge3" class="edge">
<title>Node1&#45;&gt;Node4</title>
<path fill="none" stroke="midnightblue" d="M284.51,-134.4C259.43,-121.77 222.93,-103.4 198.49,-91.09"/>
<polygon fill="midnightblue" stroke="midnightblue" points="199.95,-87.91 189.45,-86.53 196.8,-94.16 199.95,-87.91"/>
</g>
<!-- Node5 -->
<g id="node5" class="node">
<title>Node5</title>
<g id="a_node5"><a xlink:title=" ">
<polygon fill="white" stroke="#bfbfbf" points="245.5,-56.5 245.5,-97.5 379.5,-97.5 379.5,-56.5 245.5,-56.5"/>
<text text-anchor="start" x="253.5" y="-85.5" font-family="Helvetica,sans-Serif" font-size="10.00">asm/f_op/f_op_draw</text>
<text text-anchor="start" x="253.5" y="-74.5" font-family="Helvetica,sans-Serif" font-size="10.00">_tag/fopDwTg_ToDrawQ</text>
<text text-anchor="middle" x="312.5" y="-63.5" font-family="Helvetica,sans-Serif" font-size="10.00">__FP16create_tag_classi.s</text>
</a>
</g>
</g>
<!-- Node1&#45;&gt;Node5 -->
<g id="edge5" class="edge">
<title>Node1&#45;&gt;Node5</title>
<path fill="none" stroke="midnightblue" d="M312.5,-134.23C312.5,-126.57 312.5,-116.84 312.5,-107.63"/>
<polygon fill="midnightblue" stroke="midnightblue" points="316,-107.59 312.5,-97.59 309,-107.59 316,-107.59"/>
</g>
<!-- Node6 -->
<g id="node6" class="node">
<title>Node6</title>
<g id="a_node6"><a xlink:title=" ">
<polygon fill="white" stroke="#bfbfbf" points="397.5,-56.5 397.5,-97.5 529.5,-97.5 529.5,-56.5 397.5,-56.5"/>
<text text-anchor="start" x="405.5" y="-85.5" font-family="Helvetica,sans-Serif" font-size="10.00">asm/f_op/f_op_draw</text>
<text text-anchor="start" x="405.5" y="-74.5" font-family="Helvetica,sans-Serif" font-size="10.00">_tag/fopDwTg_DrawQTo</text>
<text text-anchor="middle" x="463.5" y="-63.5" font-family="Helvetica,sans-Serif" font-size="10.00">__FP16create_tag_class.s</text>
</a>
</g>
</g>
<!-- Node1&#45;&gt;Node6 -->
<g id="edge6" class="edge">
<title>Node1&#45;&gt;Node6</title>
<path fill="none" stroke="midnightblue" d="M342.69,-134.4C362.59,-125.11 389.14,-112.72 412.29,-101.91"/>
<polygon fill="midnightblue" stroke="midnightblue" points="414.05,-104.95 421.63,-97.55 411.09,-98.61 414.05,-104.95"/>
</g>
<!-- Node7 -->
<g id="node7" class="node">
<title>Node7</title>
<g id="a_node7"><a xlink:title=" ">
<polygon fill="white" stroke="#bfbfbf" points="548,-56.5 548,-97.5 705,-97.5 705,-56.5 548,-56.5"/>
<text text-anchor="start" x="556" y="-85.5" font-family="Helvetica,sans-Serif" font-size="10.00">asm/f_op/f_op_draw</text>
<text text-anchor="start" x="556" y="-74.5" font-family="Helvetica,sans-Serif" font-size="10.00">_tag/fopDwTg_Init__FP16create</text>
<text text-anchor="middle" x="626.5" y="-63.5" font-family="Helvetica,sans-Serif" font-size="10.00">_tag_classPv.s</text>
</a>
</g>
</g>
<!-- Node1&#45;&gt;Node7 -->
<g id="edge7" class="edge">
<title>Node1&#45;&gt;Node7</title>
<path fill="none" stroke="midnightblue" d="M362.78,-137.32C406.44,-127.6 471.64,-113.05 538.02,-98.1"/>
<polygon fill="midnightblue" stroke="midnightblue" points="538.83,-101.51 547.82,-95.9 537.3,-94.68 538.83,-101.51"/>
</g>
<!-- Node8 -->
<g id="node8" class="node">
<title>Node8</title>
<g id="a_node8"><a xlink:title=" ">
<polygon fill="white" stroke="#bfbfbf" points="723,-62 723,-92 892,-92 892,-62 723,-62"/>
<text text-anchor="start" x="731" y="-80" font-family="Helvetica,sans-Serif" font-size="10.00">asm/f_op/f_op_draw</text>
<text text-anchor="middle" x="807.5" y="-69" font-family="Helvetica,sans-Serif" font-size="10.00">_tag/fopDwTg_CreateQueue__Fv.s</text>
</a>
</g>
</g>
<!-- Node1&#45;&gt;Node8 -->
<g id="edge8" class="edge">
<title>Node1&#45;&gt;Node8</title>
<path fill="none" stroke="midnightblue" d="M362.53,-143.63C438.76,-135.88 588.47,-119.43 714.5,-98 721.5,-96.81 728.76,-95.46 736.01,-94.03"/>
<polygon fill="midnightblue" stroke="midnightblue" points="736.75,-97.45 745.86,-92.04 735.37,-90.59 736.75,-97.45"/>
</g>
<!-- Node4&#45;&gt;Node3 -->
<g id="edge4" class="edge">
<title>Node4&#45;&gt;Node3</title>
<path fill="none" stroke="midnightblue" d="M166.84,-67.23C160.41,-57.29 149.78,-40.84 141.67,-28.29"/>
<polygon fill="midnightblue" stroke="midnightblue" points="144.44,-26.13 136.07,-19.63 138.56,-29.93 144.44,-26.13"/>
</g>
</g>
</svg>
