<?xml version="1.0" encoding="UTF-8" standalone="no"?>
<!DOCTYPE svg PUBLIC "-//W3C//DTD SVG 1.1//EN"
 "http://www.w3.org/Graphics/SVG/1.1/DTD/svg11.dtd">
<!-- Generated by graphviz version 2.47.0 (20210316.2052)
 -->
<!-- Title: src/f_op/f_op_actor.cpp Pages: 1 -->
<!--zoomable 173 -->
<svg id="main" version="1.1" xmlns="http://www.w3.org/2000/svg" xmlns:xlink="http://www.w3.org/1999/xlink" xml:space="preserve" onload="init(evt)">
<style type="text/css"><![CDATA[
.edge:hover path { stroke: red; }
.edge:hover polygon { stroke: red; fill: red; }
]]></style>
<script type="text/javascript"><![CDATA[
var edges = document.getElementsByTagName('g');
if (edges && edges.length) {
  for (var i=0;i<edges.length;i++) {
    if (edges[i].id.substr(0,4)=='edge') {
      edges[i].setAttribute('class','edge');
    }
  }
}
]]></script>
        <defs>
                <circle id="rim" cx="0" cy="0" r="7"/>
                <circle id="rim2" cx="0" cy="0" r="3.5"/>
                <g id="zoomPlus">
                        <use xlink:href="#rim" fill="#404040">
                                <set attributeName="fill" to="#808080" begin="zoomplus.mouseover" end="zoomplus.mouseout"/>
                        </use>
                        <path d="M-4,0h8M0,-4v8" fill="none" stroke="white" stroke-width="1.5" pointer-events="none"/>
                </g>
                <g id="zoomMin">
                        <use xlink:href="#rim" fill="#404040">
                                <set attributeName="fill" to="#808080" begin="zoomminus.mouseover" end="zoomminus.mouseout"/>
                        </use>
                        <path d="M-4,0h8" fill="none" stroke="white" stroke-width="1.5" pointer-events="none"/>
                </g>
                <g id="dirArrow">
                        <path fill="none" stroke="white" stroke-width="1.5" d="M0,-3.0v7 M-2.5,-0.5L0,-3.0L2.5,-0.5"/>
                </g>
               <g id="resetDef">
                       <use xlink:href="#rim2" fill="#404040">
                               <set attributeName="fill" to="#808080" begin="reset.mouseover" end="reset.mouseout"/>
                       </use>
               </g>
        </defs>

<script type="text/javascript">
var viewWidth = 2511;
var viewHeight = 173;
var sectionId = 'dynsection-0';
</script>
<script xlink:href="svgpan.js"/>
<svg id="graph" class="graph">
<g id="viewport">
<title>src/f_op/f_op_actor.cpp</title>
<polygon fill="white" stroke="transparent" points="-4,4 -4,-169 2507,-169 2507,4 -4,4"/>
<!-- Node1 -->
<g id="node1" class="node">
<title>Node1</title>
<g id="a_node1"><a xlink:title=" ">
<polygon fill="#bfbfbf" stroke="black" points="1077,-145.5 1077,-164.5 1196,-164.5 1196,-145.5 1077,-145.5"/>
<text text-anchor="middle" x="1136.5" y="-152.5" font-family="Helvetica,sans-Serif" font-size="10.00">src/f_op/f_op_actor.cpp</text>
</a>
</g>
</g>
<!-- Node2 -->
<g id="node2" class="node">
<title>Node2</title>
<g id="a_node2"><a xlink:href="dol2asm_8h.html" target="_top" xlink:title=" ">
<polygon fill="white" stroke="black" points="0,-73 0,-92 61,-92 61,-73 0,-73"/>
<text text-anchor="middle" x="30.5" y="-80" font-family="Helvetica,sans-Serif" font-size="10.00">dol2asm.h</text>
</a>
</g>
</g>
<!-- Node1&#45;&gt;Node2 -->
<g id="edge1" class="edge">
<title>Node1&#45;&gt;Node2</title>
<path fill="none" stroke="midnightblue" d="M1076.82,-153.1C867.15,-149.73 171.65,-136.54 75.5,-109 66.88,-106.53 58.14,-102.11 50.68,-97.63"/>
<polygon fill="midnightblue" stroke="midnightblue" points="52.34,-94.54 42.03,-92.08 48.55,-100.43 52.34,-94.54"/>
</g>
<!-- Node3 -->
<g id="node3" class="node">
<title>Node3</title>
<g id="a_node3"><a xlink:href="types_8h.html" target="_top" xlink:title=" ">
<polygon fill="white" stroke="black" points="86,-0.5 86,-19.5 167,-19.5 167,-0.5 86,-0.5"/>
<text text-anchor="middle" x="126.5" y="-7.5" font-family="Helvetica,sans-Serif" font-size="10.00">dolphin/types.h</text>
</a>
</g>
</g>
<!-- Node1&#45;&gt;Node3 -->
<g id="edge2" class="edge">
<title>Node1&#45;&gt;Node3</title>
<path fill="none" stroke="midnightblue" d="M1076.76,-153.64C862.3,-152.05 142.12,-144.13 108.5,-109 87.86,-87.43 103.23,-50.41 115.43,-28.57"/>
<polygon fill="midnightblue" stroke="midnightblue" points="118.59,-30.1 120.68,-19.71 112.57,-26.53 118.59,-30.1"/>
</g>
<!-- Node4 -->
<g id="node4" class="node">
<title>Node4</title>
<g id="a_node4"><a xlink:href="f__op__actor_8h.html" target="_top" xlink:title=" ">
<polygon fill="white" stroke="black" points="117.5,-73 117.5,-92 209.5,-92 209.5,-73 117.5,-73"/>
<text text-anchor="middle" x="163.5" y="-80" font-family="Helvetica,sans-Serif" font-size="10.00">f_op/f_op_actor.h</text>
</a>
</g>
</g>
<!-- Node1&#45;&gt;Node4 -->
<g id="edge3" class="edge">
<title>Node1&#45;&gt;Node4</title>
<path fill="none" stroke="midnightblue" d="M1076.84,-154.05C900.21,-153.73 382.05,-149.29 218.5,-109 207.62,-106.32 196.27,-101.45 186.73,-96.69"/>
<polygon fill="midnightblue" stroke="midnightblue" points="188.35,-93.59 177.87,-92.04 185.1,-99.79 188.35,-93.59"/>
</g>
<!-- Node5 -->
<g id="node5" class="node">
<title>Node5</title>
<g id="a_node5"><a xlink:title=" ">
<polygon fill="white" stroke="#bfbfbf" points="227.5,-67.5 227.5,-97.5 357.5,-97.5 357.5,-67.5 227.5,-67.5"/>
<text text-anchor="start" x="235.5" y="-85.5" font-family="Helvetica,sans-Serif" font-size="10.00">asm/f_op/f_op_actor</text>
<text text-anchor="middle" x="292.5" y="-74.5" font-family="Helvetica,sans-Serif" font-size="10.00">/__ct__10fopAc_ac_cFv.s</text>
</a>
</g>
</g>
<!-- Node1&#45;&gt;Node5 -->
<g id="edge5" class="edge">
<title>Node1&#45;&gt;Node5</title>
<path fill="none" stroke="midnightblue" d="M1076.76,-152.62C920.47,-148.66 502.22,-135.82 366.5,-109 356.6,-107.04 346.22,-104.08 336.47,-100.85"/>
<polygon fill="midnightblue" stroke="midnightblue" points="337.56,-97.53 326.97,-97.57 335.28,-104.14 337.56,-97.53"/>
</g>
<!-- Node6 -->
<g id="node6" class="node">
<title>Node6</title>
<g id="a_node6"><a xlink:title=" ">
<polygon fill="white" stroke="#bfbfbf" points="375.5,-67.5 375.5,-97.5 481.5,-97.5 481.5,-67.5 375.5,-67.5"/>
<text text-anchor="start" x="383.5" y="-85.5" font-family="Helvetica,sans-Serif" font-size="10.00">asm/f_op/f_op_actor</text>
<text text-anchor="middle" x="428.5" y="-74.5" font-family="Helvetica,sans-Serif" font-size="10.00">/__dt__5csXyzFv.s</text>
</a>
</g>
</g>
<!-- Node1&#45;&gt;Node6 -->
<g id="edge6" class="edge">
<title>Node1&#45;&gt;Node6</title>
<path fill="none" stroke="midnightblue" d="M1076.9,-152.28C938.94,-147.92 600.99,-134.86 490.5,-109 482.61,-107.15 474.43,-104.43 466.7,-101.43"/>
<polygon fill="midnightblue" stroke="midnightblue" points="467.78,-98.09 457.2,-97.55 465.13,-104.57 467.78,-98.09"/>
</g>
<!-- Node7 -->
<g id="node7" class="node">
<title>Node7</title>
<g id="a_node7"><a xlink:title=" ">
<polygon fill="white" stroke="#bfbfbf" points="499.5,-67.5 499.5,-97.5 631.5,-97.5 631.5,-67.5 499.5,-67.5"/>
<text text-anchor="start" x="507.5" y="-85.5" font-family="Helvetica,sans-Serif" font-size="10.00">asm/f_op/f_op_actor</text>
<text text-anchor="middle" x="565.5" y="-74.5" font-family="Helvetica,sans-Serif" font-size="10.00">/__ct__11J3DLightObjFv.s</text>
</a>
</g>
</g>
<!-- Node1&#45;&gt;Node7 -->
<g id="edge7" class="edge">
<title>Node1&#45;&gt;Node7</title>
<path fill="none" stroke="midnightblue" d="M1076.79,-153.04C983.09,-150.55 796.25,-141.53 641.5,-109 631.59,-106.92 621.18,-103.96 611.34,-100.79"/>
<polygon fill="midnightblue" stroke="midnightblue" points="612.34,-97.43 601.75,-97.58 610.12,-104.07 612.34,-97.43"/>
</g>
<!-- Node8 -->
<g id="node8" class="node">
<title>Node8</title>
<g id="a_node8"><a xlink:title=" ">
<polygon fill="white" stroke="#bfbfbf" points="650,-67.5 650,-97.5 779,-97.5 779,-67.5 650,-67.5"/>
<text text-anchor="start" x="658" y="-85.5" font-family="Helvetica,sans-Serif" font-size="10.00">asm/f_op/f_op_actor</text>
<text text-anchor="middle" x="714.5" y="-74.5" font-family="Helvetica,sans-Serif" font-size="10.00">/__dt__11dEvt_info_cFv.s</text>
</a>
</g>
</g>
<!-- Node1&#45;&gt;Node8 -->
<g id="edge8" class="edge">
<title>Node1&#45;&gt;Node8</title>
<path fill="none" stroke="midnightblue" d="M1076.73,-149.98C1006.88,-144.44 888.14,-132.35 788.5,-109 779.17,-106.81 769.37,-103.9 760.06,-100.82"/>
<polygon fill="midnightblue" stroke="midnightblue" points="761.17,-97.5 750.58,-97.58 758.91,-104.12 761.17,-97.5"/>
</g>
<!-- Node9 -->
<g id="node9" class="node">
<title>Node9</title>
<g id="a_node9"><a xlink:title=" ">
<polygon fill="white" stroke="#bfbfbf" points="797.5,-67.5 797.5,-97.5 927.5,-97.5 927.5,-67.5 797.5,-67.5"/>
<text text-anchor="start" x="805.5" y="-85.5" font-family="Helvetica,sans-Serif" font-size="10.00">asm/f_op/f_op_actor</text>
<text text-anchor="middle" x="862.5" y="-74.5" font-family="Helvetica,sans-Serif" font-size="10.00">/__dt__10fopAc_ac_cFv.s</text>
</a>
</g>
</g>
<!-- Node1&#45;&gt;Node9 -->
<g id="edge9" class="edge">
<title>Node1&#45;&gt;Node9</title>
<path fill="none" stroke="midnightblue" d="M1092.06,-145.47C1051.29,-137.3 989.4,-124.02 936.5,-109 927.95,-106.57 918.94,-103.72 910.27,-100.82"/>
<polygon fill="midnightblue" stroke="midnightblue" points="911.25,-97.46 900.65,-97.55 908.99,-104.09 911.25,-97.46"/>
</g>
<!-- Node10 -->
<g id="node10" class="node">
<title>Node10</title>
<g id="a_node10"><a xlink:title=" ">
<polygon fill="white" stroke="#bfbfbf" points="945.5,-67.5 945.5,-97.5 1063.5,-97.5 1063.5,-67.5 945.5,-67.5"/>
<text text-anchor="start" x="953.5" y="-85.5" font-family="Helvetica,sans-Serif" font-size="10.00">asm/f_op/f_op_actor</text>
<text text-anchor="middle" x="1004.5" y="-74.5" font-family="Helvetica,sans-Serif" font-size="10.00">/fopAc_IsActor__FPv.s</text>
</a>
</g>
</g>
<!-- Node1&#45;&gt;Node10 -->
<g id="edge10" class="edge">
<title>Node1&#45;&gt;Node10</title>
<path fill="none" stroke="midnightblue" d="M1120.58,-145.5C1100.7,-134.88 1066.13,-116.42 1039.88,-102.39"/>
<polygon fill="midnightblue" stroke="midnightblue" points="1041.44,-99.26 1030.97,-97.64 1038.14,-105.44 1041.44,-99.26"/>
</g>
<!-- Node11 -->
<g id="node11" class="node">
<title>Node11</title>
<g id="a_node11"><a xlink:title=" ">
<polygon fill="white" stroke="#bfbfbf" points="1082,-67.5 1082,-97.5 1191,-97.5 1191,-67.5 1082,-67.5"/>
<text text-anchor="start" x="1090" y="-85.5" font-family="Helvetica,sans-Serif" font-size="10.00">asm/f_op/f_op_actor</text>
<text text-anchor="middle" x="1136.5" y="-74.5" font-family="Helvetica,sans-Serif" font-size="10.00">/fopAc_Draw__FPv.s</text>
</a>
</g>
</g>
<!-- Node1&#45;&gt;Node11 -->
<g id="edge11" class="edge">
<title>Node1&#45;&gt;Node11</title>
<path fill="none" stroke="midnightblue" d="M1136.5,-145.36C1136.5,-136.05 1136.5,-120.83 1136.5,-107.81"/>
<polygon fill="midnightblue" stroke="midnightblue" points="1140,-107.58 1136.5,-97.58 1133,-107.58 1140,-107.58"/>
</g>
<!-- Node12 -->
<g id="node12" class="node">
<title>Node12</title>
<g id="a_node12"><a xlink:title=" ">
<polygon fill="white" stroke="#bfbfbf" points="1209,-67.5 1209,-97.5 1330,-97.5 1330,-67.5 1209,-67.5"/>
<text text-anchor="start" x="1217" y="-85.5" font-family="Helvetica,sans-Serif" font-size="10.00">asm/f_op/f_op_actor</text>
<text text-anchor="middle" x="1269.5" y="-74.5" font-family="Helvetica,sans-Serif" font-size="10.00">/fopAc_Execute__FPv.s</text>
</a>
</g>
</g>
<!-- Node1&#45;&gt;Node12 -->
<g id="edge12" class="edge">
<title>Node1&#45;&gt;Node12</title>
<path fill="none" stroke="midnightblue" d="M1152.54,-145.5C1172.57,-134.88 1207.4,-116.42 1233.86,-102.39"/>
<polygon fill="midnightblue" stroke="midnightblue" points="1235.63,-105.41 1242.83,-97.64 1232.35,-99.23 1235.63,-105.41"/>
</g>
<!-- Node13 -->
<g id="node13" class="node">
<title>Node13</title>
<g id="a_node13"><a xlink:title=" ">
<polygon fill="white" stroke="#bfbfbf" points="1348.5,-67.5 1348.5,-97.5 1470.5,-97.5 1470.5,-67.5 1348.5,-67.5"/>
<text text-anchor="start" x="1356.5" y="-85.5" font-family="Helvetica,sans-Serif" font-size="10.00">asm/f_op/f_op_actor</text>
<text text-anchor="middle" x="1409.5" y="-74.5" font-family="Helvetica,sans-Serif" font-size="10.00">/fopAc_IsDelete__FPv.s</text>
</a>
</g>
</g>
<!-- Node1&#45;&gt;Node13 -->
<g id="edge13" class="edge">
<title>Node1&#45;&gt;Node13</title>
<path fill="none" stroke="midnightblue" d="M1183.3,-145.44C1224.73,-137.43 1286.65,-124.41 1339.5,-109 1347.62,-106.63 1356.16,-103.81 1364.38,-100.92"/>
<polygon fill="midnightblue" stroke="midnightblue" points="1365.6,-104.2 1373.83,-97.52 1363.23,-97.61 1365.6,-104.2"/>
</g>
<!-- Node14 -->
<g id="node14" class="node">
<title>Node14</title>
<g id="a_node14"><a xlink:title=" ">
<polygon fill="white" stroke="#bfbfbf" points="1488.5,-67.5 1488.5,-97.5 1602.5,-97.5 1602.5,-67.5 1488.5,-67.5"/>
<text text-anchor="start" x="1496.5" y="-85.5" font-family="Helvetica,sans-Serif" font-size="10.00">asm/f_op/f_op_actor</text>
<text text-anchor="middle" x="1545.5" y="-74.5" font-family="Helvetica,sans-Serif" font-size="10.00">/fopAc_Delete__FPv.s</text>
</a>
</g>
</g>
<!-- Node1&#45;&gt;Node14 -->
<g id="edge14" class="edge">
<title>Node1&#45;&gt;Node14</title>
<path fill="none" stroke="midnightblue" d="M1196.18,-150.49C1265.26,-145.44 1382.02,-133.85 1479.5,-109 1487.62,-106.93 1496.11,-104.15 1504.18,-101.19"/>
<polygon fill="midnightblue" stroke="midnightblue" points="1505.68,-104.36 1513.77,-97.52 1503.18,-97.82 1505.68,-104.36"/>
</g>
<!-- Node15 -->
<g id="node15" class="node">
<title>Node15</title>
<g id="a_node15"><a xlink:title=" ">
<polygon fill="white" stroke="#bfbfbf" points="1621,-67.5 1621,-97.5 1736,-97.5 1736,-67.5 1621,-67.5"/>
<text text-anchor="start" x="1629" y="-85.5" font-family="Helvetica,sans-Serif" font-size="10.00">asm/f_op/f_op_actor</text>
<text text-anchor="middle" x="1678.5" y="-74.5" font-family="Helvetica,sans-Serif" font-size="10.00">/fopAc_Create__FPv.s</text>
</a>
</g>
</g>
<!-- Node1&#45;&gt;Node15 -->
<g id="edge15" class="edge">
<title>Node1&#45;&gt;Node15</title>
<path fill="none" stroke="midnightblue" d="M1196.19,-153.47C1287.03,-151.51 1464.88,-143.18 1611.5,-109 1619.95,-107.03 1628.77,-104.24 1637.12,-101.23"/>
<polygon fill="midnightblue" stroke="midnightblue" points="1638.56,-104.43 1646.67,-97.62 1636.08,-97.88 1638.56,-104.43"/>
</g>
<!-- Node16 -->
<g id="node16" class="node">
<title>Node16</title>
<g id="a_node16"><a xlink:title=" ">
<polygon fill="white" stroke="#bfbfbf" points="1754.5,-62 1754.5,-103 1888.5,-103 1888.5,-62 1754.5,-62"/>
<text text-anchor="start" x="1762.5" y="-91" font-family="Helvetica,sans-Serif" font-size="10.00">asm/f_op/f_op_actor</text>
<text text-anchor="start" x="1762.5" y="-80" font-family="Helvetica,sans-Serif" font-size="10.00">/getFileListInfo__15dStage</text>
<text text-anchor="middle" x="1821.5" y="-69" font-family="Helvetica,sans-Serif" font-size="10.00">_roomDt_cCFv.s</text>
</a>
</g>
</g>
<!-- Node1&#45;&gt;Node16 -->
<g id="edge16" class="edge">
<title>Node1&#45;&gt;Node16</title>
<path fill="none" stroke="midnightblue" d="M1196.39,-154.5C1306.32,-154.34 1547.25,-148.93 1745.5,-109 1749.92,-108.11 1754.43,-107.04 1758.95,-105.84"/>
<polygon fill="midnightblue" stroke="midnightblue" points="1760.14,-109.14 1768.81,-103.06 1758.23,-102.41 1760.14,-109.14"/>
</g>
<!-- Node17 -->
<g id="node17" class="node">
<title>Node17</title>
<g id="a_node17"><a xlink:title=" ">
<polygon fill="white" stroke="#bfbfbf" points="1907,-62 1907,-103 2028,-103 2028,-62 1907,-62"/>
<text text-anchor="start" x="1915" y="-91" font-family="Helvetica,sans-Serif" font-size="10.00">asm/f_op/f_op_actor</text>
<text text-anchor="start" x="1915" y="-80" font-family="Helvetica,sans-Serif" font-size="10.00">/initBallModel__13fopEn</text>
<text text-anchor="middle" x="1967.5" y="-69" font-family="Helvetica,sans-Serif" font-size="10.00">_enemy_cFv.s</text>
</a>
</g>
</g>
<!-- Node1&#45;&gt;Node17 -->
<g id="edge17" class="edge">
<title>Node1&#45;&gt;Node17</title>
<path fill="none" stroke="midnightblue" d="M1196.13,-152.7C1351.09,-148.98 1763.77,-136.69 1897.5,-109 1901.56,-108.16 1905.7,-107.13 1909.84,-105.97"/>
<polygon fill="midnightblue" stroke="midnightblue" points="1910.9,-109.31 1919.45,-103.06 1908.87,-102.61 1910.9,-109.31"/>
</g>
<!-- Node18 -->
<g id="node18" class="node">
<title>Node18</title>
<g id="a_node18"><a xlink:title=" ">
<polygon fill="white" stroke="#bfbfbf" points="2046,-62 2046,-103 2171,-103 2171,-62 2046,-62"/>
<text text-anchor="start" x="2054" y="-91" font-family="Helvetica,sans-Serif" font-size="10.00">asm/f_op/f_op_actor</text>
<text text-anchor="start" x="2054" y="-80" font-family="Helvetica,sans-Serif" font-size="10.00">/checkBallModelDraw</text>
<text text-anchor="middle" x="2108.5" y="-69" font-family="Helvetica,sans-Serif" font-size="10.00">__13fopEn_enemy_cFv.s</text>
</a>
</g>
</g>
<!-- Node1&#45;&gt;Node18 -->
<g id="edge18" class="edge">
<title>Node1&#45;&gt;Node18</title>
<path fill="none" stroke="midnightblue" d="M1196.14,-153.31C1370.26,-150.93 1875.76,-141.34 2037.5,-109 2041.62,-108.18 2045.82,-107.16 2050.01,-106.01"/>
<polygon fill="midnightblue" stroke="midnightblue" points="2051.17,-109.32 2059.76,-103.12 2049.18,-102.61 2051.17,-109.32"/>
</g>
<!-- Node19 -->
<g id="node19" class="node">
<title>Node19</title>
<g id="a_node19"><a xlink:title=" ">
<polygon fill="white" stroke="#bfbfbf" points="2189.5,-56.5 2189.5,-108.5 2335.5,-108.5 2335.5,-56.5 2189.5,-56.5"/>
<text text-anchor="start" x="2197.5" y="-96.5" font-family="Helvetica,sans-Serif" font-size="10.00">asm/f_op/f_op_actor</text>
<text text-anchor="start" x="2197.5" y="-85.5" font-family="Helvetica,sans-Serif" font-size="10.00">/setBallModelEffect</text>
<text text-anchor="start" x="2197.5" y="-74.5" font-family="Helvetica,sans-Serif" font-size="10.00">__13fopEn_enemy_cFP12dKy</text>
<text text-anchor="middle" x="2262.5" y="-63.5" font-family="Helvetica,sans-Serif" font-size="10.00">_tevstr_c.s</text>
</a>
</g>
</g>
<!-- Node1&#45;&gt;Node19 -->
<g id="edge19" class="edge">
<title>Node1&#45;&gt;Node19</title>
<path fill="none" stroke="midnightblue" d="M1196.14,-153.45C1385.11,-151.4 1969.99,-142.57 2179.43,-108.93"/>
<polygon fill="midnightblue" stroke="midnightblue" points="2180.13,-112.36 2189.41,-107.25 2178.97,-105.45 2180.13,-112.36"/>
</g>
<!-- Node20 -->
<g id="node20" class="node">
<title>Node20</title>
<g id="a_node20"><a xlink:title=" ">
<polygon fill="white" stroke="#bfbfbf" points="2354,-62 2354,-103 2503,-103 2503,-62 2354,-62"/>
<text text-anchor="start" x="2362" y="-91" font-family="Helvetica,sans-Serif" font-size="10.00">asm/f_op/f_op_actor</text>
<text text-anchor="start" x="2362" y="-80" font-family="Helvetica,sans-Serif" font-size="10.00">/drawBallModel__13fopEn</text>
<text text-anchor="middle" x="2428.5" y="-69" font-family="Helvetica,sans-Serif" font-size="10.00">_enemy_cFP12dKy_tevstr_c.s</text>
</a>
</g>
</g>
<!-- Node1&#45;&gt;Node20 -->
<g id="edge20" class="edge">
<title>Node1&#45;&gt;Node20</title>
<path fill="none" stroke="midnightblue" d="M1196.06,-153.81C1407.28,-152.8 2119.79,-146.64 2344.5,-109 2349.95,-108.09 2355.54,-106.92 2361.12,-105.59"/>
<polygon fill="midnightblue" stroke="midnightblue" points="2362.3,-108.9 2371.13,-103.05 2360.57,-102.12 2362.3,-108.9"/>
</g>
<!-- Node4&#45;&gt;Node3 -->
<g id="edge4" class="edge">
<title>Node4&#45;&gt;Node3</title>
<path fill="none" stroke="midnightblue" d="M158.96,-72.86C153.25,-61.97 143.29,-42.98 135.9,-28.91"/>
<polygon fill="midnightblue" stroke="midnightblue" points="138.82,-26.94 131.07,-19.72 132.62,-30.2 138.82,-26.94"/>
</g>
</g>
</svg>
        <g id="navigator" transform="translate(0 0)" fill="#404254">
                <rect fill="#f2f5e9" fill-opacity="0.5" stroke="#606060" stroke-width=".5" x="0" y="0" width="60" height="60"/>
                <use id="zoomplus" xlink:href="#zoomPlus" x="17" y="9" onmousedown="handleZoom(evt,'in')"/>
                <use id="zoomminus" xlink:href="#zoomMin" x="42" y="9" onmousedown="handleZoom(evt,'out')"/>
                <use id="reset" xlink:href="#resetDef" x="30" y="36" onmousedown="handleReset()"/>
                <g id="arrowUp" xlink:href="#dirArrow" transform="translate(30 24)" onmousedown="handlePan(0,-1)">
                  <use xlink:href="#rim" fill="#404040">
                        <set attributeName="fill" to="#808080" begin="arrowUp.mouseover" end="arrowUp.mouseout"/>
                  </use>
                  <path fill="none" stroke="white" stroke-width="1.5" d="M0,-3.0v7 M-2.5,-0.5L0,-3.0L2.5,-0.5"/>
                </g>
                <g id="arrowRight" xlink:href="#dirArrow" transform="rotate(90) translate(36 -43)" onmousedown="handlePan(1,0)">
                  <use xlink:href="#rim" fill="#404040">
                        <set attributeName="fill" to="#808080" begin="arrowRight.mouseover" end="arrowRight.mouseout"/>
                  </use>
                  <path fill="none" stroke="white" stroke-width="1.5" d="M0,-3.0v7 M-2.5,-0.5L0,-3.0L2.5,-0.5"/>
                </g>
                <g id="arrowDown" xlink:href="#dirArrow" transform="rotate(180) translate(-30 -48)" onmousedown="handlePan(0,1)">
                  <use xlink:href="#rim" fill="#404040">
                        <set attributeName="fill" to="#808080" begin="arrowDown.mouseover" end="arrowDown.mouseout"/>
                  </use>
                  <path fill="none" stroke="white" stroke-width="1.5" d="M0,-3.0v7 M-2.5,-0.5L0,-3.0L2.5,-0.5"/>
                </g>
                <g id="arrowLeft" xlink:href="#dirArrow" transform="rotate(270) translate(-36 17)" onmousedown="handlePan(-1,0)">
                  <use xlink:href="#rim" fill="#404040">
                        <set attributeName="fill" to="#808080" begin="arrowLeft.mouseover" end="arrowLeft.mouseout"/>
                  </use>
                  <path fill="none" stroke="white" stroke-width="1.5" d="M0,-3.0v7 M-2.5,-0.5L0,-3.0L2.5,-0.5"/>
                </g>
        </g>
        <svg viewBox="0 0 15 15" width="100%" height="30px" preserveAspectRatio="xMaxYMin meet">
         <g id="arrow_out" transform="scale(0.3 0.3)">
          <a xlink:href="f__op__actor_8cpp__incl_org.svg" target="_base">
           <rect id="button" ry="5" rx="5" y="6" x="6" height="38" width="38"
                fill="#f2f5e9" fill-opacity="0.5" stroke="#606060" stroke-width="1.0"/>
           <path id="arrow"
             d="M 11.500037,31.436501 C 11.940474,20.09759 22.043105,11.32322 32.158766,21.979434 L 37.068811,17.246167 C 37.068811,17.246167 37.088388,32 37.088388,32 L 22.160133,31.978069 C 22.160133,31.978069 26.997745,27.140456 26.997745,27.140456 C 18.528582,18.264221 13.291696,25.230495 11.500037,31.436501 z"
             style="fill:#404040;"/>
          </a>
         </g>
        </svg>
</svg>
