<?xml version="1.0" encoding="UTF-8" standalone="no"?>
<!DOCTYPE svg PUBLIC "-//W3C//DTD SVG 1.1//EN"
 "http://www.w3.org/Graphics/SVG/1.1/DTD/svg11.dtd">
<!-- Generated by graphviz version 2.47.0 (20210316.2052)
 -->
<!-- Title: src/f_op/f_op_msg.cpp Pages: 1 -->
<svg width="996pt" height="151pt"
 viewBox="0.00 0.00 995.50 151.00" xmlns="http://www.w3.org/2000/svg" xmlns:xlink="http://www.w3.org/1999/xlink">
<g id="graph0" class="graph" transform="scale(1 1) rotate(0) translate(4 147)">
<title>src/f_op/f_op_msg.cpp</title>
<polygon fill="white" stroke="transparent" points="-4,4 -4,-147 991.5,-147 991.5,4 -4,4"/>
<!-- Node1 -->
<g id="node1" class="node">
<title>Node1</title>
<g id="a_node1"><a xlink:title=" ">
<polygon fill="#bfbfbf" stroke="black" points="314.5,-123.5 314.5,-142.5 430.5,-142.5 430.5,-123.5 314.5,-123.5"/>
<text text-anchor="middle" x="372.5" y="-130.5" font-family="Helvetica,sans-Serif" font-size="10.00">src/f_op/f_op_msg.cpp</text>
</a>
</g>
</g>
<!-- Node2 -->
<g id="node2" class="node">
<title>Node2</title>
<g id="a_node2"><a xlink:href="dol2asm_8h.html" target="_top" xlink:title=" ">
<polygon fill="white" stroke="black" points="0,-62 0,-81 61,-81 61,-62 0,-62"/>
<text text-anchor="middle" x="30.5" y="-69" font-family="Helvetica,sans-Serif" font-size="10.00">dol2asm.h</text>
</a>
</g>
</g>
<!-- Node1&#45;&gt;Node2 -->
<g id="edge1" class="edge">
<title>Node1&#45;&gt;Node2</title>
<path fill="none" stroke="midnightblue" d="M314.48,-126.02C254.23,-119.15 157.49,-106.29 75.5,-87 71.85,-86.14 68.07,-85.13 64.32,-84.04"/>
<polygon fill="midnightblue" stroke="midnightblue" points="65.17,-80.64 54.59,-81.05 63.12,-87.33 65.17,-80.64"/>
</g>
<!-- Node3 -->
<g id="node3" class="node">
<title>Node3</title>
<g id="a_node3"><a xlink:href="types_8h.html" target="_top" xlink:title=" ">
<polygon fill="white" stroke="black" points="85,-0.5 85,-19.5 166,-19.5 166,-0.5 85,-0.5"/>
<text text-anchor="middle" x="125.5" y="-7.5" font-family="Helvetica,sans-Serif" font-size="10.00">dolphin/types.h</text>
</a>
</g>
</g>
<!-- Node1&#45;&gt;Node3 -->
<g id="edge2" class="edge">
<title>Node1&#45;&gt;Node3</title>
<path fill="none" stroke="midnightblue" d="M314.43,-130.48C245.08,-127.3 135.18,-117.45 109.5,-87 95.69,-70.63 105.18,-45.32 114.37,-28.46"/>
<polygon fill="midnightblue" stroke="midnightblue" points="117.5,-30.04 119.56,-19.64 111.47,-26.48 117.5,-30.04"/>
</g>
<!-- Node4 -->
<g id="node4" class="node">
<title>Node4</title>
<g id="a_node4"><a xlink:href="f__op__msg_8h.html" target="_top" xlink:title=" ">
<polygon fill="white" stroke="black" points="118,-62 118,-81 207,-81 207,-62 118,-62"/>
<text text-anchor="middle" x="162.5" y="-69" font-family="Helvetica,sans-Serif" font-size="10.00">f_op/f_op_msg.h</text>
</a>
</g>
</g>
<!-- Node1&#45;&gt;Node4 -->
<g id="edge3" class="edge">
<title>Node1&#45;&gt;Node4</title>
<path fill="none" stroke="midnightblue" d="M342.41,-123.48C305.61,-113.05 243.19,-95.36 202.41,-83.81"/>
<polygon fill="midnightblue" stroke="midnightblue" points="203.11,-80.37 192.53,-81.01 201.2,-87.1 203.11,-80.37"/>
</g>
<!-- Node5 -->
<g id="node5" class="node">
<title>Node5</title>
<g id="a_node5"><a xlink:title=" ">
<polygon fill="white" stroke="#bfbfbf" points="225.5,-56.5 225.5,-86.5 363.5,-86.5 363.5,-56.5 225.5,-56.5"/>
<text text-anchor="start" x="233.5" y="-74.5" font-family="Helvetica,sans-Serif" font-size="10.00">asm/f_op/f_op_msg/fopMsg</text>
<text text-anchor="middle" x="294.5" y="-63.5" font-family="Helvetica,sans-Serif" font-size="10.00">_Draw__FPv.s</text>
</a>
</g>
</g>
<!-- Node1&#45;&gt;Node5 -->
<g id="edge5" class="edge">
<title>Node1&#45;&gt;Node5</title>
<path fill="none" stroke="midnightblue" d="M361.32,-123.48C350.86,-115.49 334.82,-103.25 321.07,-92.77"/>
<polygon fill="midnightblue" stroke="midnightblue" points="322.96,-89.81 312.88,-86.52 318.71,-95.37 322.96,-89.81"/>
</g>
<!-- Node6 -->
<g id="node6" class="node">
<title>Node6</title>
<g id="a_node6"><a xlink:title=" ">
<polygon fill="white" stroke="#bfbfbf" points="381.5,-56.5 381.5,-86.5 519.5,-86.5 519.5,-56.5 381.5,-56.5"/>
<text text-anchor="start" x="389.5" y="-74.5" font-family="Helvetica,sans-Serif" font-size="10.00">asm/f_op/f_op_msg/fopMsg</text>
<text text-anchor="middle" x="450.5" y="-63.5" font-family="Helvetica,sans-Serif" font-size="10.00">_Execute__FPv.s</text>
</a>
</g>
</g>
<!-- Node1&#45;&gt;Node6 -->
<g id="edge6" class="edge">
<title>Node1&#45;&gt;Node6</title>
<path fill="none" stroke="midnightblue" d="M383.68,-123.48C394.14,-115.49 410.18,-103.25 423.93,-92.77"/>
<polygon fill="midnightblue" stroke="midnightblue" points="426.29,-95.37 432.12,-86.52 422.04,-89.81 426.29,-95.37"/>
</g>
<!-- Node7 -->
<g id="node7" class="node">
<title>Node7</title>
<g id="a_node7"><a xlink:title=" ">
<polygon fill="white" stroke="#bfbfbf" points="537.5,-56.5 537.5,-86.5 675.5,-86.5 675.5,-56.5 537.5,-56.5"/>
<text text-anchor="start" x="545.5" y="-74.5" font-family="Helvetica,sans-Serif" font-size="10.00">asm/f_op/f_op_msg/fopMsg</text>
<text text-anchor="middle" x="606.5" y="-63.5" font-family="Helvetica,sans-Serif" font-size="10.00">_IsDelete__FPv.s</text>
</a>
</g>
</g>
<!-- Node1&#45;&gt;Node7 -->
<g id="edge7" class="edge">
<title>Node1&#45;&gt;Node7</title>
<path fill="none" stroke="midnightblue" d="M406.03,-123.48C441.27,-114.51 497.61,-100.19 541.6,-89"/>
<polygon fill="midnightblue" stroke="midnightblue" points="542.52,-92.38 551.35,-86.52 540.8,-85.6 542.52,-92.38"/>
</g>
<!-- Node8 -->
<g id="node8" class="node">
<title>Node8</title>
<g id="a_node8"><a xlink:title=" ">
<polygon fill="white" stroke="#bfbfbf" points="693.5,-56.5 693.5,-86.5 831.5,-86.5 831.5,-56.5 693.5,-56.5"/>
<text text-anchor="start" x="701.5" y="-74.5" font-family="Helvetica,sans-Serif" font-size="10.00">asm/f_op/f_op_msg/fopMsg</text>
<text text-anchor="middle" x="762.5" y="-63.5" font-family="Helvetica,sans-Serif" font-size="10.00">_Delete__FPv.s</text>
</a>
</g>
</g>
<!-- Node1&#45;&gt;Node8 -->
<g id="edge8" class="edge">
<title>Node1&#45;&gt;Node8</title>
<path fill="none" stroke="midnightblue" d="M430.69,-124.33C491.29,-116.17 589.24,-102.54 683.24,-87.17"/>
<polygon fill="midnightblue" stroke="midnightblue" points="683.9,-90.61 693.2,-85.53 682.77,-83.7 683.9,-90.61"/>
</g>
<!-- Node9 -->
<g id="node9" class="node">
<title>Node9</title>
<g id="a_node9"><a xlink:title=" ">
<polygon fill="white" stroke="#bfbfbf" points="849.5,-56.5 849.5,-86.5 987.5,-86.5 987.5,-56.5 849.5,-56.5"/>
<text text-anchor="start" x="857.5" y="-74.5" font-family="Helvetica,sans-Serif" font-size="10.00">asm/f_op/f_op_msg/fopMsg</text>
<text text-anchor="middle" x="918.5" y="-63.5" font-family="Helvetica,sans-Serif" font-size="10.00">_Create__FPv.s</text>
</a>
</g>
</g>
<!-- Node1&#45;&gt;Node9 -->
<g id="edge9" class="edge">
<title>Node1&#45;&gt;Node9</title>
<path fill="none" stroke="midnightblue" d="M430.7,-128.06C517.49,-121.81 686.15,-108.27 839.17,-87.11"/>
<polygon fill="midnightblue" stroke="midnightblue" points="839.81,-90.55 849.23,-85.7 838.84,-83.62 839.81,-90.55"/>
</g>
<!-- Node4&#45;&gt;Node3 -->
<g id="edge4" class="edge">
<title>Node4&#45;&gt;Node3</title>
<path fill="none" stroke="midnightblue" d="M157.2,-61.98C151.76,-53.23 143.14,-39.37 136.26,-28.31"/>
<polygon fill="midnightblue" stroke="midnightblue" points="139.04,-26.15 130.79,-19.51 133.1,-29.85 139.04,-26.15"/>
</g>
</g>
</svg>
