<?xml version="1.0" encoding="UTF-8" standalone="no"?>
<!DOCTYPE svg PUBLIC "-//W3C//DTD SVG 1.1//EN"
 "http://www.w3.org/Graphics/SVG/1.1/DTD/svg11.dtd">
<!-- Generated by graphviz version 2.47.0 (20210316.2052)
 -->
<!-- Title: src/f_op/f_op_draw_iter.cpp Pages: 1 -->
<svg width="687pt" height="173pt"
 viewBox="0.00 0.00 686.50 173.00" xmlns="http://www.w3.org/2000/svg" xmlns:xlink="http://www.w3.org/1999/xlink">
<g id="graph0" class="graph" transform="scale(1 1) rotate(0) translate(4 169)">
<title>src/f_op/f_op_draw_iter.cpp</title>
<polygon fill="white" stroke="transparent" points="-4,4 -4,-169 682.5,-169 682.5,4 -4,4"/>
<!-- Node1 -->
<g id="node1" class="node">
<title>Node1</title>
<g id="a_node1"><a xlink:title=" ">
<polygon fill="#bfbfbf" stroke="black" points="206,-134.5 206,-164.5 306,-164.5 306,-134.5 206,-134.5"/>
<text text-anchor="start" x="214" y="-152.5" font-family="Helvetica,sans-Serif" font-size="10.00">src/f_op/f_op_draw</text>
<text text-anchor="middle" x="256" y="-141.5" font-family="Helvetica,sans-Serif" font-size="10.00">_iter.cpp</text>
</a>
</g>
</g>
<!-- Node2 -->
<g id="node2" class="node">
<title>Node2</title>
<g id="a_node2"><a xlink:href="f__op__draw__iter_8h.html" target="_top" xlink:title=" ">
<polygon fill="white" stroke="black" points="0,-67.5 0,-86.5 110,-86.5 110,-67.5 0,-67.5"/>
<text text-anchor="middle" x="55" y="-74.5" font-family="Helvetica,sans-Serif" font-size="10.00">f_op/f_op_draw_iter.h</text>
</a>
</g>
</g>
<!-- Node1&#45;&gt;Node2 -->
<g id="edge1" class="edge">
<title>Node1&#45;&gt;Node2</title>
<path fill="none" stroke="midnightblue" d="M215.81,-134.4C178.69,-121.38 124.15,-102.25 89.1,-89.96"/>
<polygon fill="midnightblue" stroke="midnightblue" points="89.92,-86.54 79.33,-86.53 87.61,-93.15 89.92,-86.54"/>
</g>
<!-- Node3 -->
<g id="node3" class="node">
<title>Node3</title>
<g id="a_node3"><a xlink:href="types_8h.html" target="_top" xlink:title=" ">
<polygon fill="white" stroke="black" points="55.5,-0.5 55.5,-19.5 136.5,-19.5 136.5,-0.5 55.5,-0.5"/>
<text text-anchor="middle" x="96" y="-7.5" font-family="Helvetica,sans-Serif" font-size="10.00">dolphin/types.h</text>
</a>
</g>
</g>
<!-- Node1&#45;&gt;Node3 -->
<g id="edge4" class="edge">
<title>Node1&#45;&gt;Node3</title>
<path fill="none" stroke="midnightblue" d="M219.01,-134.46C199.49,-125.87 175.94,-113.54 158,-98 134.84,-77.94 115.75,-47.54 105.12,-28.5"/>
<polygon fill="midnightblue" stroke="midnightblue" points="108.2,-26.82 100.36,-19.69 102.04,-30.15 108.2,-26.82"/>
</g>
<!-- Node4 -->
<g id="node4" class="node">
<title>Node4</title>
<g id="a_node4"><a xlink:href="dol2asm_8h.html" target="_top" xlink:title=" ">
<polygon fill="white" stroke="black" points="166.5,-67.5 166.5,-86.5 227.5,-86.5 227.5,-67.5 166.5,-67.5"/>
<text text-anchor="middle" x="197" y="-74.5" font-family="Helvetica,sans-Serif" font-size="10.00">dol2asm.h</text>
</a>
</g>
</g>
<!-- Node1&#45;&gt;Node4 -->
<g id="edge3" class="edge">
<title>Node1&#45;&gt;Node4</title>
<path fill="none" stroke="midnightblue" d="M244.06,-134.23C234.52,-122.84 221.14,-106.84 211.08,-94.82"/>
<polygon fill="midnightblue" stroke="midnightblue" points="213.54,-92.32 204.44,-86.89 208.18,-96.81 213.54,-92.32"/>
</g>
<!-- Node5 -->
<g id="node5" class="node">
<title>Node5</title>
<g id="a_node5"><a xlink:title=" ">
<polygon fill="white" stroke="#bfbfbf" points="245.5,-62 245.5,-92 384.5,-92 384.5,-62 245.5,-62"/>
<text text-anchor="start" x="253.5" y="-80" font-family="Helvetica,sans-Serif" font-size="10.00">asm/f_op/f_op_draw</text>
<text text-anchor="middle" x="315" y="-69" font-family="Helvetica,sans-Serif" font-size="10.00">_iter/fopDwIt_GetTag__Fv.s</text>
</a>
</g>
</g>
<!-- Node1&#45;&gt;Node5 -->
<g id="edge5" class="edge">
<title>Node1&#45;&gt;Node5</title>
<path fill="none" stroke="midnightblue" d="M267.94,-134.23C276.18,-124.39 287.29,-111.12 296.64,-99.94"/>
<polygon fill="midnightblue" stroke="midnightblue" points="299.34,-102.16 303.08,-92.25 293.98,-97.67 299.34,-102.16"/>
</g>
<!-- Node6 -->
<g id="node6" class="node">
<title>Node6</title>
<g id="a_node6"><a xlink:title=" ">
<polygon fill="white" stroke="#bfbfbf" points="402.5,-62 402.5,-92 533.5,-92 533.5,-62 402.5,-62"/>
<text text-anchor="start" x="410.5" y="-80" font-family="Helvetica,sans-Serif" font-size="10.00">asm/f_op/f_op_draw</text>
<text text-anchor="middle" x="468" y="-69" font-family="Helvetica,sans-Serif" font-size="10.00">_iter/fopDwIt_Begin__Fv.s</text>
</a>
</g>
</g>
<!-- Node1&#45;&gt;Node6 -->
<g id="edge6" class="edge">
<title>Node1&#45;&gt;Node6</title>
<path fill="none" stroke="midnightblue" d="M298.14,-134.49C331.91,-123.26 379.48,-107.44 415.69,-95.4"/>
<polygon fill="midnightblue" stroke="midnightblue" points="417.19,-98.58 425.58,-92.11 414.99,-91.94 417.19,-98.58"/>
</g>
<!-- Node7 -->
<g id="node7" class="node">
<title>Node7</title>
<g id="a_node7"><a xlink:title=" ">
<polygon fill="white" stroke="#bfbfbf" points="551.5,-56.5 551.5,-97.5 678.5,-97.5 678.5,-56.5 551.5,-56.5"/>
<text text-anchor="start" x="559.5" y="-85.5" font-family="Helvetica,sans-Serif" font-size="10.00">asm/f_op/f_op_draw</text>
<text text-anchor="start" x="559.5" y="-74.5" font-family="Helvetica,sans-Serif" font-size="10.00">_iter/fopDwIt_Next_</text>
<text text-anchor="middle" x="615" y="-63.5" font-family="Helvetica,sans-Serif" font-size="10.00">_FP16create_tag_class.s</text>
</a>
</g>
</g>
<!-- Node1&#45;&gt;Node7 -->
<g id="edge7" class="edge">
<title>Node1&#45;&gt;Node7</title>
<path fill="none" stroke="midnightblue" d="M306.07,-141.19C361.49,-132.77 453.64,-117.78 541.61,-98.22"/>
<polygon fill="midnightblue" stroke="midnightblue" points="542.49,-101.61 551.48,-96 540.96,-94.78 542.49,-101.61"/>
</g>
<!-- Node2&#45;&gt;Node3 -->
<g id="edge2" class="edge">
<title>Node2&#45;&gt;Node3</title>
<path fill="none" stroke="midnightblue" d="M60.53,-67.23C66.8,-57.29 77.18,-40.84 85.09,-28.29"/>
<polygon fill="midnightblue" stroke="midnightblue" points="88.18,-29.95 90.56,-19.63 82.26,-26.22 88.18,-29.95"/>
</g>
</g>
</svg>
