<?xml version="1.0" encoding="UTF-8" standalone="no"?>
<!DOCTYPE svg PUBLIC "-//W3C//DTD SVG 1.1//EN"
 "http://www.w3.org/Graphics/SVG/1.1/DTD/svg11.dtd">
<!-- Generated by graphviz version 2.47.0 (20210316.2052)
 -->
<!-- Title: src/f_pc/f_pc_deletor.cpp Pages: 1 -->
<svg width="1121pt" height="162pt"
 viewBox="0.00 0.00 1121.00 162.00" xmlns="http://www.w3.org/2000/svg" xmlns:xlink="http://www.w3.org/1999/xlink">
<g id="graph0" class="graph" transform="scale(1 1) rotate(0) translate(4 158)">
<title>src/f_pc/f_pc_deletor.cpp</title>
<polygon fill="white" stroke="transparent" points="-4,4 -4,-158 1117,-158 1117,4 -4,4"/>
<!-- Node1 -->
<g id="node1" class="node">
<title>Node1</title>
<g id="a_node1"><a xlink:title=" ">
<polygon fill="#bfbfbf" stroke="black" points="388.5,-134.5 388.5,-153.5 514.5,-153.5 514.5,-134.5 388.5,-134.5"/>
<text text-anchor="middle" x="451.5" y="-141.5" font-family="Helvetica,sans-Serif" font-size="10.00">src/f_pc/f_pc_deletor.cpp</text>
</a>
</g>
</g>
<!-- Node2 -->
<g id="node2" class="node">
<title>Node2</title>
<g id="a_node2"><a xlink:href="dol2asm_8h.html" target="_top" xlink:title=" ">
<polygon fill="white" stroke="black" points="0,-67.5 0,-86.5 61,-86.5 61,-67.5 0,-67.5"/>
<text text-anchor="middle" x="30.5" y="-74.5" font-family="Helvetica,sans-Serif" font-size="10.00">dol2asm.h</text>
</a>
</g>
</g>
<!-- Node1&#45;&gt;Node2 -->
<g id="edge1" class="edge">
<title>Node1&#45;&gt;Node2</title>
<path fill="none" stroke="midnightblue" d="M388.19,-141.18C312.56,-137.69 182.78,-127.54 75.5,-98 69.01,-96.21 62.25,-93.63 56.01,-90.92"/>
<polygon fill="midnightblue" stroke="midnightblue" points="57.28,-87.65 46.73,-86.63 54.34,-94 57.28,-87.65"/>
</g>
<!-- Node3 -->
<g id="node3" class="node">
<title>Node3</title>
<g id="a_node3"><a xlink:href="types_8h.html" target="_top" xlink:title=" ">
<polygon fill="white" stroke="black" points="88,-0.5 88,-19.5 169,-19.5 169,-0.5 88,-0.5"/>
<text text-anchor="middle" x="128.5" y="-7.5" font-family="Helvetica,sans-Serif" font-size="10.00">dolphin/types.h</text>
</a>
</g>
</g>
<!-- Node1&#45;&gt;Node3 -->
<g id="edge2" class="edge">
<title>Node1&#45;&gt;Node3</title>
<path fill="none" stroke="midnightblue" d="M388.34,-139.13C294.57,-132.74 127.57,-118.6 109.5,-98 92.49,-78.61 105.72,-47.55 117,-28.26"/>
<polygon fill="midnightblue" stroke="midnightblue" points="120.07,-29.94 122.39,-19.6 114.13,-26.24 120.07,-29.94"/>
</g>
<!-- Node4 -->
<g id="node4" class="node">
<title>Node4</title>
<g id="a_node4"><a xlink:href="f__pc__deletor_8h.html" target="_top" xlink:title=" ">
<polygon fill="white" stroke="black" points="118,-67.5 118,-86.5 217,-86.5 217,-67.5 118,-67.5"/>
<text text-anchor="middle" x="167.5" y="-74.5" font-family="Helvetica,sans-Serif" font-size="10.00">f_pc/f_pc_deletor.h</text>
</a>
</g>
</g>
<!-- Node1&#45;&gt;Node4 -->
<g id="edge3" class="edge">
<title>Node1&#45;&gt;Node4</title>
<path fill="none" stroke="midnightblue" d="M398.77,-134.44C352.89,-126.53 284.79,-113.64 226.5,-98 217.87,-95.68 208.66,-92.78 200.14,-89.91"/>
<polygon fill="midnightblue" stroke="midnightblue" points="201.14,-86.55 190.55,-86.59 198.85,-93.16 201.14,-86.55"/>
</g>
<!-- Node5 -->
<g id="node5" class="node">
<title>Node5</title>
<g id="a_node5"><a xlink:title=" ">
<polygon fill="white" stroke="#bfbfbf" points="235,-62 235,-92 362,-92 362,-62 235,-62"/>
<text text-anchor="start" x="243" y="-80" font-family="Helvetica,sans-Serif" font-size="10.00">asm/f_pc/f_pc_deletor</text>
<text text-anchor="middle" x="298.5" y="-69" font-family="Helvetica,sans-Serif" font-size="10.00">/fpcDt_IsComplete__Fv.s</text>
</a>
</g>
</g>
<!-- Node1&#45;&gt;Node5 -->
<g id="edge5" class="edge">
<title>Node1&#45;&gt;Node5</title>
<path fill="none" stroke="midnightblue" d="M431.18,-134.37C408.22,-124.62 370.22,-108.47 340.76,-95.95"/>
<polygon fill="midnightblue" stroke="midnightblue" points="342.09,-92.72 331.52,-92.03 339.36,-99.16 342.09,-92.72"/>
</g>
<!-- Node6 -->
<g id="node6" class="node">
<title>Node6</title>
<g id="a_node6"><a xlink:title=" ">
<polygon fill="white" stroke="#bfbfbf" points="380.5,-56.5 380.5,-97.5 522.5,-97.5 522.5,-56.5 380.5,-56.5"/>
<text text-anchor="start" x="388.5" y="-85.5" font-family="Helvetica,sans-Serif" font-size="10.00">asm/f_pc/f_pc_deletor</text>
<text text-anchor="start" x="388.5" y="-74.5" font-family="Helvetica,sans-Serif" font-size="10.00">/fpcDt_deleteMethod_</text>
<text text-anchor="middle" x="451.5" y="-63.5" font-family="Helvetica,sans-Serif" font-size="10.00">_FP18base_process_class.s</text>
</a>
</g>
</g>
<!-- Node1&#45;&gt;Node6 -->
<g id="edge6" class="edge">
<title>Node1&#45;&gt;Node6</title>
<path fill="none" stroke="midnightblue" d="M451.5,-134.23C451.5,-127.36 451.5,-117.38 451.5,-107.73"/>
<polygon fill="midnightblue" stroke="midnightblue" points="455,-107.54 451.5,-97.54 448,-107.54 455,-107.54"/>
</g>
<!-- Node7 -->
<g id="node7" class="node">
<title>Node7</title>
<g id="a_node7"><a xlink:title=" ">
<polygon fill="white" stroke="#bfbfbf" points="541,-62 541,-92 654,-92 654,-62 541,-62"/>
<text text-anchor="start" x="549" y="-80" font-family="Helvetica,sans-Serif" font-size="10.00">asm/f_pc/f_pc_deletor</text>
<text text-anchor="middle" x="597.5" y="-69" font-family="Helvetica,sans-Serif" font-size="10.00">/fpcDt_Handler__Fv.s</text>
</a>
</g>
</g>
<!-- Node1&#45;&gt;Node7 -->
<g id="edge7" class="edge">
<title>Node1&#45;&gt;Node7</title>
<path fill="none" stroke="midnightblue" d="M470.89,-134.37C492.7,-124.66 528.75,-108.61 556.81,-96.11"/>
<polygon fill="midnightblue" stroke="midnightblue" points="558.28,-99.29 565.99,-92.03 555.43,-92.9 558.28,-99.29"/>
</g>
<!-- Node8 -->
<g id="node8" class="node">
<title>Node8</title>
<g id="a_node8"><a xlink:title=" ">
<polygon fill="white" stroke="#bfbfbf" points="672,-56.5 672,-97.5 815,-97.5 815,-56.5 672,-56.5"/>
<text text-anchor="start" x="680" y="-85.5" font-family="Helvetica,sans-Serif" font-size="10.00">asm/f_pc/f_pc_deletor</text>
<text text-anchor="start" x="680" y="-74.5" font-family="Helvetica,sans-Serif" font-size="10.00">/fpcDt_ToQueue__FP18base</text>
<text text-anchor="middle" x="743.5" y="-63.5" font-family="Helvetica,sans-Serif" font-size="10.00">_process_class.s</text>
</a>
</g>
</g>
<!-- Node1&#45;&gt;Node8 -->
<g id="edge8" class="edge">
<title>Node1&#45;&gt;Node8</title>
<path fill="none" stroke="midnightblue" d="M493.83,-134.48C534.6,-126.17 598.25,-112.93 661.79,-98.36"/>
<polygon fill="midnightblue" stroke="midnightblue" points="662.61,-101.77 671.57,-96.11 661.04,-94.94 662.61,-101.77"/>
</g>
<!-- Node9 -->
<g id="node9" class="node">
<title>Node9</title>
<g id="a_node9"><a xlink:title=" ">
<polygon fill="white" stroke="#bfbfbf" points="833,-56.5 833,-97.5 982,-97.5 982,-56.5 833,-56.5"/>
<text text-anchor="start" x="841" y="-85.5" font-family="Helvetica,sans-Serif" font-size="10.00">asm/f_pc/f_pc_deletor</text>
<text text-anchor="start" x="841" y="-74.5" font-family="Helvetica,sans-Serif" font-size="10.00">/fpcDt_ToDeleteQ__FP18base</text>
<text text-anchor="middle" x="907.5" y="-63.5" font-family="Helvetica,sans-Serif" font-size="10.00">_process_class.s</text>
</a>
</g>
</g>
<!-- Node1&#45;&gt;Node9 -->
<g id="edge9" class="edge">
<title>Node1&#45;&gt;Node9</title>
<path fill="none" stroke="midnightblue" d="M514.53,-137.65C586.86,-131.01 709.16,-118.24 823,-98.17"/>
<polygon fill="midnightblue" stroke="midnightblue" points="823.7,-101.6 832.93,-96.4 822.47,-94.71 823.7,-101.6"/>
</g>
<!-- Node10 -->
<g id="node10" class="node">
<title>Node10</title>
<g id="a_node10"><a xlink:title=" ">
<polygon fill="white" stroke="#bfbfbf" points="1000,-62 1000,-92 1113,-92 1113,-62 1000,-62"/>
<text text-anchor="start" x="1008" y="-80" font-family="Helvetica,sans-Serif" font-size="10.00">asm/f_pc/f_pc_deletor</text>
<text text-anchor="middle" x="1056.5" y="-69" font-family="Helvetica,sans-Serif" font-size="10.00">/fpcDt_Delete__FPv.s</text>
</a>
</g>
</g>
<!-- Node1&#45;&gt;Node10 -->
<g id="edge10" class="edge">
<title>Node1&#45;&gt;Node10</title>
<path fill="none" stroke="midnightblue" d="M514.87,-142.12C616.38,-139.74 821.31,-130.88 991.5,-98 996.18,-97.1 1001,-95.98 1005.8,-94.74"/>
<polygon fill="midnightblue" stroke="midnightblue" points="1006.86,-98.08 1015.58,-92.05 1005.01,-91.33 1006.86,-98.08"/>
</g>
<!-- Node4&#45;&gt;Node3 -->
<g id="edge4" class="edge">
<title>Node4&#45;&gt;Node3</title>
<path fill="none" stroke="midnightblue" d="M162.24,-67.23C156.28,-57.29 146.4,-40.84 138.87,-28.29"/>
<polygon fill="midnightblue" stroke="midnightblue" points="141.82,-26.4 133.68,-19.63 135.82,-30 141.82,-26.4"/>
</g>
</g>
</svg>
