<?xml version="1.0" encoding="UTF-8" standalone="no"?>
<!DOCTYPE svg PUBLIC "-//W3C//DTD SVG 1.1//EN"
 "http://www.w3.org/Graphics/SVG/1.1/DTD/svg11.dtd">
<!-- Generated by graphviz version 2.47.0 (20210316.2052)
 -->
<!-- Title: src/f_pc/f_pc_node_req.cpp Pages: 1 -->
<!--zoomable 195 -->
<svg id="main" version="1.1" xmlns="http://www.w3.org/2000/svg" xmlns:xlink="http://www.w3.org/1999/xlink" xml:space="preserve" onload="init(evt)">
<style type="text/css"><![CDATA[
.edge:hover path { stroke: red; }
.edge:hover polygon { stroke: red; fill: red; }
]]></style>
<script type="text/javascript"><![CDATA[
var edges = document.getElementsByTagName('g');
if (edges && edges.length) {
  for (var i=0;i<edges.length;i++) {
    if (edges[i].id.substr(0,4)=='edge') {
      edges[i].setAttribute('class','edge');
    }
  }
}
]]></script>
        <defs>
                <circle id="rim" cx="0" cy="0" r="7"/>
                <circle id="rim2" cx="0" cy="0" r="3.5"/>
                <g id="zoomPlus">
                        <use xlink:href="#rim" fill="#404040">
                                <set attributeName="fill" to="#808080" begin="zoomplus.mouseover" end="zoomplus.mouseout"/>
                        </use>
                        <path d="M-4,0h8M0,-4v8" fill="none" stroke="white" stroke-width="1.5" pointer-events="none"/>
                </g>
                <g id="zoomMin">
                        <use xlink:href="#rim" fill="#404040">
                                <set attributeName="fill" to="#808080" begin="zoomminus.mouseover" end="zoomminus.mouseout"/>
                        </use>
                        <path d="M-4,0h8" fill="none" stroke="white" stroke-width="1.5" pointer-events="none"/>
                </g>
                <g id="dirArrow">
                        <path fill="none" stroke="white" stroke-width="1.5" d="M0,-3.0v7 M-2.5,-0.5L0,-3.0L2.5,-0.5"/>
                </g>
               <g id="resetDef">
                       <use xlink:href="#rim2" fill="#404040">
                               <set attributeName="fill" to="#808080" begin="reset.mouseover" end="reset.mouseout"/>
                       </use>
               </g>
        </defs>

<script type="text/javascript">
var viewWidth = 3530;
var viewHeight = 195;
var sectionId = 'dynsection-0';
</script>
<script xlink:href="svgpan.js"/>
<svg id="graph" class="graph">
<g id="viewport">
<title>src/f_pc/f_pc_node_req.cpp</title>
<polygon fill="white" stroke="transparent" points="-4,4 -4,-191 3526,-191 3526,4 -4,4"/>
<!-- Node1 -->
<g id="node1" class="node">
<title>Node1</title>
<g id="a_node1"><a xlink:title=" ">
<polygon fill="#bfbfbf" stroke="black" points="1618,-156.5 1618,-186.5 1718,-186.5 1718,-156.5 1618,-156.5"/>
<text text-anchor="start" x="1626" y="-174.5" font-family="Helvetica,sans-Serif" font-size="10.00">src/f_pc/f_pc_node</text>
<text text-anchor="middle" x="1668" y="-163.5" font-family="Helvetica,sans-Serif" font-size="10.00">_req.cpp</text>
</a>
</g>
</g>
<!-- Node2 -->
<g id="node2" class="node">
<title>Node2</title>
<g id="a_node2"><a xlink:href="f__pc__node__req_8h.html" target="_top" xlink:title=" ">
<polygon fill="white" stroke="black" points="0,-78.5 0,-97.5 110,-97.5 110,-78.5 0,-78.5"/>
<text text-anchor="middle" x="55" y="-85.5" font-family="Helvetica,sans-Serif" font-size="10.00">f_pc/f_pc_node_req.h</text>
</a>
</g>
</g>
<!-- Node1&#45;&gt;Node2 -->
<g id="edge1" class="edge">
<title>Node1&#45;&gt;Node2</title>
<path fill="none" stroke="midnightblue" d="M1617.94,-170.02C1369.18,-167.45 272.12,-154.29 124,-120 108.2,-116.34 91.58,-109 78.62,-102.38"/>
<polygon fill="midnightblue" stroke="midnightblue" points="79.96,-99.13 69.49,-97.52 76.67,-105.31 79.96,-99.13"/>
</g>
<!-- Node3 -->
<g id="node3" class="node">
<title>Node3</title>
<g id="a_node3"><a xlink:href="types_8h.html" target="_top" xlink:title=" ">
<polygon fill="white" stroke="black" points="55.5,-0.5 55.5,-19.5 136.5,-19.5 136.5,-0.5 55.5,-0.5"/>
<text text-anchor="middle" x="96" y="-7.5" font-family="Helvetica,sans-Serif" font-size="10.00">dolphin/types.h</text>
</a>
</g>
</g>
<!-- Node1&#45;&gt;Node3 -->
<g id="edge4" class="edge">
<title>Node1&#45;&gt;Node3</title>
<path fill="none" stroke="midnightblue" d="M1617.98,-170.19C1363.46,-168.46 221.81,-158.55 158,-120 153.58,-117.33 121.71,-58.84 105.47,-28.67"/>
<polygon fill="midnightblue" stroke="midnightblue" points="108.43,-26.8 100.62,-19.64 102.27,-30.11 108.43,-26.8"/>
</g>
<!-- Node4 -->
<g id="node4" class="node">
<title>Node4</title>
<g id="a_node4"><a xlink:href="dol2asm_8h.html" target="_top" xlink:title=" ">
<polygon fill="white" stroke="black" points="166.5,-78.5 166.5,-97.5 227.5,-97.5 227.5,-78.5 166.5,-78.5"/>
<text text-anchor="middle" x="197" y="-85.5" font-family="Helvetica,sans-Serif" font-size="10.00">dol2asm.h</text>
</a>
</g>
</g>
<!-- Node1&#45;&gt;Node4 -->
<g id="edge3" class="edge">
<title>Node1&#45;&gt;Node4</title>
<path fill="none" stroke="midnightblue" d="M1617.91,-170.55C1379.85,-170.55 368.85,-167.72 237,-120 228.05,-116.76 219.52,-110.72 212.65,-104.82"/>
<polygon fill="midnightblue" stroke="midnightblue" points="214.64,-101.89 204.93,-97.65 209.88,-107.02 214.64,-101.89"/>
</g>
<!-- Node5 -->
<g id="node5" class="node">
<title>Node5</title>
<g id="a_node5"><a xlink:title=" ">
<polygon fill="white" stroke="#bfbfbf" points="245.5,-67.5 245.5,-108.5 394.5,-108.5 394.5,-67.5 245.5,-67.5"/>
<text text-anchor="start" x="253.5" y="-96.5" font-family="Helvetica,sans-Serif" font-size="10.00">asm/f_pc/f_pc_node</text>
<text text-anchor="start" x="253.5" y="-85.5" font-family="Helvetica,sans-Serif" font-size="10.00">_req/fpcNdRq_RequestQTo</text>
<text text-anchor="middle" x="320" y="-74.5" font-family="Helvetica,sans-Serif" font-size="10.00">__FP19node_create_request.s</text>
</a>
</g>
</g>
<!-- Node1&#45;&gt;Node5 -->
<g id="edge5" class="edge">
<title>Node1&#45;&gt;Node5</title>
<path fill="none" stroke="midnightblue" d="M1617.97,-170.59C1413.69,-170.62 642.4,-167.52 404,-120 394.28,-118.06 384.19,-115.17 374.52,-111.91"/>
<polygon fill="midnightblue" stroke="midnightblue" points="375.62,-108.59 365.02,-108.56 373.29,-115.19 375.62,-108.59"/>
</g>
<!-- Node6 -->
<g id="node6" class="node">
<title>Node6</title>
<g id="a_node6"><a xlink:title=" ">
<polygon fill="white" stroke="#bfbfbf" points="412.5,-67.5 412.5,-108.5 561.5,-108.5 561.5,-67.5 412.5,-67.5"/>
<text text-anchor="start" x="420.5" y="-96.5" font-family="Helvetica,sans-Serif" font-size="10.00">asm/f_pc/f_pc_node</text>
<text text-anchor="start" x="420.5" y="-85.5" font-family="Helvetica,sans-Serif" font-size="10.00">_req/fpcNdRq_ToRequestQ</text>
<text text-anchor="middle" x="487" y="-74.5" font-family="Helvetica,sans-Serif" font-size="10.00">__FP19node_create_request.s</text>
</a>
</g>
</g>
<!-- Node1&#45;&gt;Node6 -->
<g id="edge6" class="edge">
<title>Node1&#45;&gt;Node6</title>
<path fill="none" stroke="midnightblue" d="M1617.74,-170.23C1430.71,-168.91 775.26,-161.36 571,-120 561.29,-118.03 551.2,-115.12 541.53,-111.86"/>
<polygon fill="midnightblue" stroke="midnightblue" points="542.63,-108.54 532.03,-108.51 540.3,-115.14 542.63,-108.54"/>
</g>
<!-- Node7 -->
<g id="node7" class="node">
<title>Node7</title>
<g id="a_node7"><a xlink:title=" ">
<polygon fill="white" stroke="#bfbfbf" points="579.5,-67.5 579.5,-108.5 734.5,-108.5 734.5,-67.5 579.5,-67.5"/>
<text text-anchor="start" x="587.5" y="-96.5" font-family="Helvetica,sans-Serif" font-size="10.00">asm/f_pc/f_pc_node</text>
<text text-anchor="start" x="587.5" y="-85.5" font-family="Helvetica,sans-Serif" font-size="10.00">_req/fpcNdRq_phase_IsCreated</text>
<text text-anchor="middle" x="657" y="-74.5" font-family="Helvetica,sans-Serif" font-size="10.00">__FP19node_create_request.s</text>
</a>
</g>
</g>
<!-- Node1&#45;&gt;Node7 -->
<g id="edge7" class="edge">
<title>Node1&#45;&gt;Node7</title>
<path fill="none" stroke="midnightblue" d="M1617.81,-169.65C1450.59,-166.54 913.41,-154.07 744,-120 734.1,-118.01 723.8,-115.12 713.9,-111.9"/>
<polygon fill="midnightblue" stroke="midnightblue" points="714.76,-108.49 704.16,-108.58 712.5,-115.12 714.76,-108.49"/>
</g>
<!-- Node8 -->
<g id="node8" class="node">
<title>Node8</title>
<g id="a_node8"><a xlink:title=" ">
<polygon fill="white" stroke="#bfbfbf" points="752.5,-67.5 752.5,-108.5 901.5,-108.5 901.5,-67.5 752.5,-67.5"/>
<text text-anchor="start" x="760.5" y="-96.5" font-family="Helvetica,sans-Serif" font-size="10.00">asm/f_pc/f_pc_node</text>
<text text-anchor="start" x="760.5" y="-85.5" font-family="Helvetica,sans-Serif" font-size="10.00">_req/fpcNdRq_phase_Create</text>
<text text-anchor="middle" x="827" y="-74.5" font-family="Helvetica,sans-Serif" font-size="10.00">__FP19node_create_request.s</text>
</a>
</g>
</g>
<!-- Node1&#45;&gt;Node8 -->
<g id="edge8" class="edge">
<title>Node1&#45;&gt;Node8</title>
<path fill="none" stroke="midnightblue" d="M1617.87,-169.03C1471.52,-164.44 1046.66,-148.93 911,-120 901.63,-118 891.91,-115.17 882.55,-112.02"/>
<polygon fill="midnightblue" stroke="midnightblue" points="883.54,-108.66 872.95,-108.65 881.22,-115.27 883.54,-108.66"/>
</g>
<!-- Node9 -->
<g id="node9" class="node">
<title>Node9</title>
<g id="a_node9"><a xlink:title=" ">
<polygon fill="white" stroke="#bfbfbf" points="919.5,-67.5 919.5,-108.5 1074.5,-108.5 1074.5,-67.5 919.5,-67.5"/>
<text text-anchor="start" x="927.5" y="-96.5" font-family="Helvetica,sans-Serif" font-size="10.00">asm/f_pc/f_pc_node</text>
<text text-anchor="start" x="927.5" y="-85.5" font-family="Helvetica,sans-Serif" font-size="10.00">_req/fpcNdRq_phase_IsDeleted</text>
<text text-anchor="middle" x="997" y="-74.5" font-family="Helvetica,sans-Serif" font-size="10.00">__FP19node_create_request.s</text>
</a>
</g>
</g>
<!-- Node1&#45;&gt;Node9 -->
<g id="edge9" class="edge">
<title>Node1&#45;&gt;Node9</title>
<path fill="none" stroke="midnightblue" d="M1617.75,-170.46C1515.86,-169.43 1278.16,-162.25 1084,-120 1074.36,-117.9 1064.34,-115.02 1054.66,-111.86"/>
<polygon fill="midnightblue" stroke="midnightblue" points="1055.73,-108.53 1045.13,-108.62 1053.47,-115.15 1055.73,-108.53"/>
</g>
<!-- Node10 -->
<g id="node10" class="node">
<title>Node10</title>
<g id="a_node10"><a xlink:title=" ">
<polygon fill="white" stroke="#bfbfbf" points="1092.5,-67.5 1092.5,-108.5 1241.5,-108.5 1241.5,-67.5 1092.5,-67.5"/>
<text text-anchor="start" x="1100.5" y="-96.5" font-family="Helvetica,sans-Serif" font-size="10.00">asm/f_pc/f_pc_node</text>
<text text-anchor="start" x="1100.5" y="-85.5" font-family="Helvetica,sans-Serif" font-size="10.00">_req/fpcNdRq_phase_Delete</text>
<text text-anchor="middle" x="1167" y="-74.5" font-family="Helvetica,sans-Serif" font-size="10.00">__FP19node_create_request.s</text>
</a>
</g>
</g>
<!-- Node1&#45;&gt;Node10 -->
<g id="edge10" class="edge">
<title>Node1&#45;&gt;Node10</title>
<path fill="none" stroke="midnightblue" d="M1617.91,-168.2C1538.93,-163.74 1381.08,-151.42 1251,-120 1242.01,-117.83 1232.67,-114.99 1223.61,-111.92"/>
<polygon fill="midnightblue" stroke="midnightblue" points="1224.53,-108.53 1213.94,-108.51 1222.2,-115.13 1224.53,-108.53"/>
</g>
<!-- Node11 -->
<g id="node11" class="node">
<title>Node11</title>
<g id="a_node11"><a xlink:title=" ">
<polygon fill="white" stroke="#bfbfbf" points="1259.5,-67.5 1259.5,-108.5 1408.5,-108.5 1408.5,-67.5 1259.5,-67.5"/>
<text text-anchor="start" x="1267.5" y="-96.5" font-family="Helvetica,sans-Serif" font-size="10.00">asm/f_pc/f_pc_node</text>
<text text-anchor="start" x="1267.5" y="-85.5" font-family="Helvetica,sans-Serif" font-size="10.00">_req/fpcNdRq_DoPhase</text>
<text text-anchor="middle" x="1334" y="-74.5" font-family="Helvetica,sans-Serif" font-size="10.00">__FP19node_create_request.s</text>
</a>
</g>
</g>
<!-- Node1&#45;&gt;Node11 -->
<g id="edge11" class="edge">
<title>Node1&#45;&gt;Node11</title>
<path fill="none" stroke="midnightblue" d="M1617.65,-162.68C1566.77,-154.23 1486.16,-139.34 1418,-120 1409.83,-117.68 1401.32,-114.94 1392.99,-112.07"/>
<polygon fill="midnightblue" stroke="midnightblue" points="1393.92,-108.68 1383.33,-108.64 1391.59,-115.28 1393.92,-108.68"/>
</g>
<!-- Node12 -->
<g id="node12" class="node">
<title>Node12</title>
<g id="a_node12"><a xlink:title=" ">
<polygon fill="white" stroke="#bfbfbf" points="1426.5,-67.5 1426.5,-108.5 1575.5,-108.5 1575.5,-67.5 1426.5,-67.5"/>
<text text-anchor="start" x="1434.5" y="-96.5" font-family="Helvetica,sans-Serif" font-size="10.00">asm/f_pc/f_pc_node</text>
<text text-anchor="start" x="1434.5" y="-85.5" font-family="Helvetica,sans-Serif" font-size="10.00">_req/fpcNdRq_Execute</text>
<text text-anchor="middle" x="1501" y="-74.5" font-family="Helvetica,sans-Serif" font-size="10.00">__FP19node_create_request.s</text>
</a>
</g>
</g>
<!-- Node1&#45;&gt;Node12 -->
<g id="edge12" class="edge">
<title>Node1&#45;&gt;Node12</title>
<path fill="none" stroke="midnightblue" d="M1639.29,-156.49C1614.89,-144.58 1579.31,-127.21 1550.35,-113.08"/>
<polygon fill="midnightblue" stroke="midnightblue" points="1551.72,-109.86 1541.2,-108.62 1548.65,-116.15 1551.72,-109.86"/>
</g>
<!-- Node13 -->
<g id="node13" class="node">
<title>Node13</title>
<g id="a_node13"><a xlink:title=" ">
<polygon fill="white" stroke="#bfbfbf" points="1593.5,-67.5 1593.5,-108.5 1742.5,-108.5 1742.5,-67.5 1593.5,-67.5"/>
<text text-anchor="start" x="1601.5" y="-96.5" font-family="Helvetica,sans-Serif" font-size="10.00">asm/f_pc/f_pc_node</text>
<text text-anchor="start" x="1601.5" y="-85.5" font-family="Helvetica,sans-Serif" font-size="10.00">_req/fpcNdRq_Delete</text>
<text text-anchor="middle" x="1668" y="-74.5" font-family="Helvetica,sans-Serif" font-size="10.00">__FP19node_create_request.s</text>
</a>
</g>
</g>
<!-- Node1&#45;&gt;Node13 -->
<g id="edge13" class="edge">
<title>Node1&#45;&gt;Node13</title>
<path fill="none" stroke="midnightblue" d="M1668,-156.3C1668,-145.97 1668,-131.6 1668,-118.8"/>
<polygon fill="midnightblue" stroke="midnightblue" points="1671.5,-118.53 1668,-108.53 1664.5,-118.53 1671.5,-118.53"/>
</g>
<!-- Node14 -->
<g id="node14" class="node">
<title>Node14</title>
<g id="a_node14"><a xlink:title=" ">
<polygon fill="white" stroke="#bfbfbf" points="1760.5,-67.5 1760.5,-108.5 1909.5,-108.5 1909.5,-67.5 1760.5,-67.5"/>
<text text-anchor="start" x="1768.5" y="-96.5" font-family="Helvetica,sans-Serif" font-size="10.00">asm/f_pc/f_pc_node</text>
<text text-anchor="start" x="1768.5" y="-85.5" font-family="Helvetica,sans-Serif" font-size="10.00">_req/fpcNdRq_Cancel</text>
<text text-anchor="middle" x="1835" y="-74.5" font-family="Helvetica,sans-Serif" font-size="10.00">__FP19node_create_request.s</text>
</a>
</g>
</g>
<!-- Node1&#45;&gt;Node14 -->
<g id="edge14" class="edge">
<title>Node1&#45;&gt;Node14</title>
<path fill="none" stroke="midnightblue" d="M1696.71,-156.49C1721.11,-144.58 1756.69,-127.21 1785.65,-113.08"/>
<polygon fill="midnightblue" stroke="midnightblue" points="1787.35,-116.15 1794.8,-108.62 1784.28,-109.86 1787.35,-116.15"/>
</g>
<!-- Node15 -->
<g id="node15" class="node">
<title>Node15</title>
<g id="a_node15"><a xlink:title=" ">
<polygon fill="white" stroke="#bfbfbf" points="1927.5,-73 1927.5,-103 2072.5,-103 2072.5,-73 1927.5,-73"/>
<text text-anchor="start" x="1935.5" y="-91" font-family="Helvetica,sans-Serif" font-size="10.00">asm/f_pc/f_pc_node</text>
<text text-anchor="middle" x="2000" y="-80" font-family="Helvetica,sans-Serif" font-size="10.00">_req/fpcNdRq_Handler__Fv.s</text>
</a>
</g>
</g>
<!-- Node1&#45;&gt;Node15 -->
<g id="edge15" class="edge">
<title>Node1&#45;&gt;Node15</title>
<path fill="none" stroke="midnightblue" d="M1718.12,-162.95C1769.21,-154.66 1850.48,-139.85 1919,-120 1931.67,-116.33 1945.15,-111.54 1957.4,-106.83"/>
<polygon fill="midnightblue" stroke="midnightblue" points="1958.9,-110 1966.93,-103.09 1956.34,-103.49 1958.9,-110"/>
</g>
<!-- Node16 -->
<g id="node16" class="node">
<title>Node16</title>
<g id="a_node16"><a xlink:title=" ">
<polygon fill="white" stroke="#bfbfbf" points="2090.5,-67.5 2090.5,-108.5 2245.5,-108.5 2245.5,-67.5 2090.5,-67.5"/>
<text text-anchor="start" x="2098.5" y="-96.5" font-family="Helvetica,sans-Serif" font-size="10.00">asm/f_pc/f_pc_node</text>
<text text-anchor="start" x="2098.5" y="-85.5" font-family="Helvetica,sans-Serif" font-size="10.00">_req/fpcNdRq_IsPossibleTarget</text>
<text text-anchor="middle" x="2168" y="-74.5" font-family="Helvetica,sans-Serif" font-size="10.00">__FP18process_node_class.s</text>
</a>
</g>
</g>
<!-- Node1&#45;&gt;Node16 -->
<g id="edge16" class="edge">
<title>Node1&#45;&gt;Node16</title>
<path fill="none" stroke="midnightblue" d="M1718.03,-168.03C1796.5,-163.34 1952.92,-150.72 2082,-120 2091.17,-117.82 2100.71,-114.98 2109.96,-111.91"/>
<polygon fill="midnightblue" stroke="midnightblue" points="2111.14,-115.2 2119.46,-108.64 2108.87,-108.58 2111.14,-115.2"/>
</g>
<!-- Node17 -->
<g id="node17" class="node">
<title>Node17</title>
<g id="a_node17"><a xlink:title=" ">
<polygon fill="white" stroke="#bfbfbf" points="2264,-67.5 2264,-108.5 2406,-108.5 2406,-67.5 2264,-67.5"/>
<text text-anchor="start" x="2272" y="-96.5" font-family="Helvetica,sans-Serif" font-size="10.00">asm/f_pc/f_pc_node</text>
<text text-anchor="start" x="2272" y="-85.5" font-family="Helvetica,sans-Serif" font-size="10.00">_req/fpcNdRq_IsIng_</text>
<text text-anchor="middle" x="2335" y="-74.5" font-family="Helvetica,sans-Serif" font-size="10.00">_FP18process_node_class.s</text>
</a>
</g>
</g>
<!-- Node1&#45;&gt;Node17 -->
<g id="edge17" class="edge">
<title>Node1&#45;&gt;Node17</title>
<path fill="none" stroke="midnightblue" d="M1718.22,-170.94C1820.59,-170.79 2060.19,-165.15 2255,-120 2263.84,-117.95 2273.01,-115.12 2281.85,-111.99"/>
<polygon fill="midnightblue" stroke="midnightblue" points="2283.11,-115.26 2291.28,-108.51 2280.68,-108.69 2283.11,-115.26"/>
</g>
<!-- Node18 -->
<g id="node18" class="node">
<title>Node18</title>
<g id="a_node18"><a xlink:title=" ">
<polygon fill="white" stroke="#bfbfbf" points="2424,-67.5 2424,-108.5 2534,-108.5 2534,-67.5 2424,-67.5"/>
<text text-anchor="start" x="2432" y="-96.5" font-family="Helvetica,sans-Serif" font-size="10.00">asm/f_pc/f_pc_node</text>
<text text-anchor="start" x="2432" y="-85.5" font-family="Helvetica,sans-Serif" font-size="10.00">_req/fpcNdRq_Create</text>
<text text-anchor="middle" x="2479" y="-74.5" font-family="Helvetica,sans-Serif" font-size="10.00">__FUl.s</text>
</a>
</g>
</g>
<!-- Node1&#45;&gt;Node18 -->
<g id="edge18" class="edge">
<title>Node1&#45;&gt;Node18</title>
<path fill="none" stroke="midnightblue" d="M1718.13,-169.6C1863.43,-166.6 2282.84,-155.06 2415,-120 2421.73,-118.21 2428.61,-115.71 2435.24,-112.89"/>
<polygon fill="midnightblue" stroke="midnightblue" points="2437.07,-115.9 2444.72,-108.58 2434.17,-109.53 2437.07,-115.9"/>
</g>
<!-- Node19 -->
<g id="node19" class="node">
<title>Node19</title>
<g id="a_node19"><a xlink:title=" ">
<polygon fill="white" stroke="#bfbfbf" points="2552,-67.5 2552,-108.5 2726,-108.5 2726,-67.5 2552,-67.5"/>
<text text-anchor="start" x="2560" y="-96.5" font-family="Helvetica,sans-Serif" font-size="10.00">asm/f_pc/f_pc_node</text>
<text text-anchor="start" x="2560" y="-85.5" font-family="Helvetica,sans-Serif" font-size="10.00">_req/fpcNdRq_ChangeNode</text>
<text text-anchor="middle" x="2639" y="-74.5" font-family="Helvetica,sans-Serif" font-size="10.00">__FUlP18process_node_classsPv.s</text>
</a>
</g>
</g>
<!-- Node1&#45;&gt;Node19 -->
<g id="edge19" class="edge">
<title>Node1&#45;&gt;Node19</title>
<path fill="none" stroke="midnightblue" d="M1718.01,-169.29C1879.05,-165.12 2382.96,-149.95 2543,-120 2554.18,-117.91 2565.88,-114.88 2577.09,-111.53"/>
<polygon fill="midnightblue" stroke="midnightblue" points="2578.3,-114.82 2586.81,-108.51 2576.22,-108.13 2578.3,-114.82"/>
</g>
<!-- Node20 -->
<g id="node20" class="node">
<title>Node20</title>
<g id="a_node20"><a xlink:title=" ">
<polygon fill="white" stroke="#bfbfbf" points="2744.5,-67.5 2744.5,-108.5 2901.5,-108.5 2901.5,-67.5 2744.5,-67.5"/>
<text text-anchor="start" x="2752.5" y="-96.5" font-family="Helvetica,sans-Serif" font-size="10.00">asm/f_pc/f_pc_node</text>
<text text-anchor="start" x="2752.5" y="-85.5" font-family="Helvetica,sans-Serif" font-size="10.00">_req/fpcNdRq_DeleteNode</text>
<text text-anchor="middle" x="2823" y="-74.5" font-family="Helvetica,sans-Serif" font-size="10.00">__FUlP18process_node_class.s</text>
</a>
</g>
</g>
<!-- Node1&#45;&gt;Node20 -->
<g id="edge20" class="edge">
<title>Node1&#45;&gt;Node20</title>
<path fill="none" stroke="midnightblue" d="M1718.12,-170.06C1901.63,-168.14 2536.5,-158.79 2735,-120 2745.12,-118.02 2755.65,-115.11 2765.76,-111.85"/>
<polygon fill="midnightblue" stroke="midnightblue" points="2766.93,-115.15 2775.29,-108.64 2764.7,-108.52 2766.93,-115.15"/>
</g>
<!-- Node21 -->
<g id="node21" class="node">
<title>Node21</title>
<g id="a_node21"><a xlink:title=" ">
<polygon fill="white" stroke="#bfbfbf" points="2920,-67.5 2920,-108.5 3054,-108.5 3054,-67.5 2920,-67.5"/>
<text text-anchor="start" x="2928" y="-96.5" font-family="Helvetica,sans-Serif" font-size="10.00">asm/f_pc/f_pc_node</text>
<text text-anchor="start" x="2928" y="-85.5" font-family="Helvetica,sans-Serif" font-size="10.00">_req/fpcNdRq_CreateNode</text>
<text text-anchor="middle" x="2987" y="-74.5" font-family="Helvetica,sans-Serif" font-size="10.00">__FUlsPv.s</text>
</a>
</g>
</g>
<!-- Node1&#45;&gt;Node21 -->
<g id="edge21" class="edge">
<title>Node1&#45;&gt;Node21</title>
<path fill="none" stroke="midnightblue" d="M1718.27,-170.77C1920.88,-171.49 2677.79,-170.67 2911,-120 2919.6,-118.13 2928.47,-115.36 2936.99,-112.23"/>
<polygon fill="midnightblue" stroke="midnightblue" points="2938.36,-115.45 2946.42,-108.57 2935.83,-108.93 2938.36,-115.45"/>
</g>
<!-- Node22 -->
<g id="node22" class="node">
<title>Node22</title>
<g id="a_node22"><a xlink:title=" ">
<polygon fill="white" stroke="#bfbfbf" points="3072.5,-56.5 3072.5,-119.5 3205.5,-119.5 3205.5,-56.5 3072.5,-56.5"/>
<text text-anchor="start" x="3080.5" y="-107.5" font-family="Helvetica,sans-Serif" font-size="10.00">asm/f_pc/f_pc_node</text>
<text text-anchor="start" x="3080.5" y="-96.5" font-family="Helvetica,sans-Serif" font-size="10.00">_req/fpcNdRq_Request</text>
<text text-anchor="start" x="3080.5" y="-85.5" font-family="Helvetica,sans-Serif" font-size="10.00">__FUliP18process_node</text>
<text text-anchor="start" x="3080.5" y="-74.5" font-family="Helvetica,sans-Serif" font-size="10.00">_classsPvP32node_create</text>
<text text-anchor="middle" x="3139" y="-63.5" font-family="Helvetica,sans-Serif" font-size="10.00">_request_method_class.s</text>
</a>
</g>
</g>
<!-- Node1&#45;&gt;Node22 -->
<g id="edge22" class="edge">
<title>Node1&#45;&gt;Node22</title>
<path fill="none" stroke="midnightblue" d="M1718.16,-169.72C1947.12,-166.05 2888.93,-149.39 3062.2,-119.63"/>
<polygon fill="midnightblue" stroke="midnightblue" points="3063.11,-123.02 3072.27,-117.7 3061.79,-116.15 3063.11,-123.02"/>
</g>
<!-- Node23 -->
<g id="node23" class="node">
<title>Node23</title>
<g id="a_node23"><a xlink:title=" ">
<polygon fill="white" stroke="#bfbfbf" points="3224,-67.5 3224,-108.5 3374,-108.5 3374,-67.5 3224,-67.5"/>
<text text-anchor="start" x="3232" y="-96.5" font-family="Helvetica,sans-Serif" font-size="10.00">asm/f_pc/f_pc_node</text>
<text text-anchor="start" x="3232" y="-85.5" font-family="Helvetica,sans-Serif" font-size="10.00">_req/fpcNdRq_ReChangeNode</text>
<text text-anchor="middle" x="3299" y="-74.5" font-family="Helvetica,sans-Serif" font-size="10.00">__FUisPv.s</text>
</a>
</g>
</g>
<!-- Node1&#45;&gt;Node23 -->
<g id="edge23" class="edge">
<title>Node1&#45;&gt;Node23</title>
<path fill="none" stroke="midnightblue" d="M1718.12,-169.82C1967.15,-166.3 3065.5,-149.23 3215,-120 3224.73,-118.1 3234.82,-115.22 3244.49,-111.97"/>
<polygon fill="midnightblue" stroke="midnightblue" points="3245.72,-115.25 3253.99,-108.62 3243.39,-108.65 3245.72,-115.25"/>
</g>
<!-- Node24 -->
<g id="node24" class="node">
<title>Node24</title>
<g id="a_node24"><a xlink:title=" ">
<polygon fill="white" stroke="#bfbfbf" points="3392,-67.5 3392,-108.5 3522,-108.5 3522,-67.5 3392,-67.5"/>
<text text-anchor="start" x="3400" y="-96.5" font-family="Helvetica,sans-Serif" font-size="10.00">asm/f_pc/f_pc_node</text>
<text text-anchor="start" x="3400" y="-85.5" font-family="Helvetica,sans-Serif" font-size="10.00">_req/fpcNdRq_ReRequest</text>
<text text-anchor="middle" x="3457" y="-74.5" font-family="Helvetica,sans-Serif" font-size="10.00">__FUisPv.s</text>
</a>
</g>
</g>
<!-- Node1&#45;&gt;Node24 -->
<g id="edge24" class="edge">
<title>Node1&#45;&gt;Node24</title>
<path fill="none" stroke="midnightblue" d="M1718.23,-170.12C1983.64,-167.94 3216.87,-155.94 3383,-120 3391.42,-118.18 3400.08,-115.43 3408.39,-112.31"/>
<polygon fill="midnightblue" stroke="midnightblue" points="3409.94,-115.46 3417.93,-108.5 3407.35,-108.95 3409.94,-115.46"/>
</g>
<!-- Node2&#45;&gt;Node3 -->
<g id="edge2" class="edge">
<title>Node2&#45;&gt;Node3</title>
<path fill="none" stroke="midnightblue" d="M59.7,-78.28C66.19,-66.26 78.03,-44.3 86.43,-28.75"/>
<polygon fill="midnightblue" stroke="midnightblue" points="89.68,-30.08 91.35,-19.62 83.52,-26.76 89.68,-30.08"/>
</g>
</g>
</svg>
        <g id="navigator" transform="translate(0 0)" fill="#404254">
                <rect fill="#f2f5e9" fill-opacity="0.5" stroke="#606060" stroke-width=".5" x="0" y="0" width="60" height="60"/>
                <use id="zoomplus" xlink:href="#zoomPlus" x="17" y="9" onmousedown="handleZoom(evt,'in')"/>
                <use id="zoomminus" xlink:href="#zoomMin" x="42" y="9" onmousedown="handleZoom(evt,'out')"/>
                <use id="reset" xlink:href="#resetDef" x="30" y="36" onmousedown="handleReset()"/>
                <g id="arrowUp" xlink:href="#dirArrow" transform="translate(30 24)" onmousedown="handlePan(0,-1)">
                  <use xlink:href="#rim" fill="#404040">
                        <set attributeName="fill" to="#808080" begin="arrowUp.mouseover" end="arrowUp.mouseout"/>
                  </use>
                  <path fill="none" stroke="white" stroke-width="1.5" d="M0,-3.0v7 M-2.5,-0.5L0,-3.0L2.5,-0.5"/>
                </g>
                <g id="arrowRight" xlink:href="#dirArrow" transform="rotate(90) translate(36 -43)" onmousedown="handlePan(1,0)">
                  <use xlink:href="#rim" fill="#404040">
                        <set attributeName="fill" to="#808080" begin="arrowRight.mouseover" end="arrowRight.mouseout"/>
                  </use>
                  <path fill="none" stroke="white" stroke-width="1.5" d="M0,-3.0v7 M-2.5,-0.5L0,-3.0L2.5,-0.5"/>
                </g>
                <g id="arrowDown" xlink:href="#dirArrow" transform="rotate(180) translate(-30 -48)" onmousedown="handlePan(0,1)">
                  <use xlink:href="#rim" fill="#404040">
                        <set attributeName="fill" to="#808080" begin="arrowDown.mouseover" end="arrowDown.mouseout"/>
                  </use>
                  <path fill="none" stroke="white" stroke-width="1.5" d="M0,-3.0v7 M-2.5,-0.5L0,-3.0L2.5,-0.5"/>
                </g>
                <g id="arrowLeft" xlink:href="#dirArrow" transform="rotate(270) translate(-36 17)" onmousedown="handlePan(-1,0)">
                  <use xlink:href="#rim" fill="#404040">
                        <set attributeName="fill" to="#808080" begin="arrowLeft.mouseover" end="arrowLeft.mouseout"/>
                  </use>
                  <path fill="none" stroke="white" stroke-width="1.5" d="M0,-3.0v7 M-2.5,-0.5L0,-3.0L2.5,-0.5"/>
                </g>
        </g>
        <svg viewBox="0 0 15 15" width="100%" height="30px" preserveAspectRatio="xMaxYMin meet">
         <g id="arrow_out" transform="scale(0.3 0.3)">
          <a xlink:href="f__pc__node__req_8cpp__incl_org.svg" target="_base">
           <rect id="button" ry="5" rx="5" y="6" x="6" height="38" width="38"
                fill="#f2f5e9" fill-opacity="0.5" stroke="#606060" stroke-width="1.0"/>
           <path id="arrow"
             d="M 11.500037,31.436501 C 11.940474,20.09759 22.043105,11.32322 32.158766,21.979434 L 37.068811,17.246167 C 37.068811,17.246167 37.088388,32 37.088388,32 L 22.160133,31.978069 C 22.160133,31.978069 26.997745,27.140456 26.997745,27.140456 C 18.528582,18.264221 13.291696,25.230495 11.500037,31.436501 z"
             style="fill:#404040;"/>
          </a>
         </g>
        </svg>
</svg>
