<?xml version="1.0" encoding="UTF-8" standalone="no"?>
<!DOCTYPE svg PUBLIC "-//W3C//DTD SVG 1.1//EN"
 "http://www.w3.org/Graphics/SVG/1.1/DTD/svg11.dtd">
<!-- Generated by graphviz version 2.47.0 (20210316.2052)
 -->
<!-- Title: src/f_pc/f_pc_create_req.cpp Pages: 1 -->
<svg width="1760pt" height="184pt"
 viewBox="0.00 0.00 1760.00 184.00" xmlns="http://www.w3.org/2000/svg" xmlns:xlink="http://www.w3.org/1999/xlink">
<g id="graph0" class="graph" transform="scale(1 1) rotate(0) translate(4 180)">
<title>src/f_pc/f_pc_create_req.cpp</title>
<polygon fill="white" stroke="transparent" points="-4,4 -4,-180 1756,-180 1756,4 -4,4"/>
<!-- Node1 -->
<g id="node1" class="node">
<title>Node1</title>
<g id="a_node1"><a xlink:title=" ">
<polygon fill="#bfbfbf" stroke="black" points="729,-145.5 729,-175.5 835,-175.5 835,-145.5 729,-145.5"/>
<text text-anchor="start" x="737" y="-163.5" font-family="Helvetica,sans-Serif" font-size="10.00">src/f_pc/f_pc_create</text>
<text text-anchor="middle" x="782" y="-152.5" font-family="Helvetica,sans-Serif" font-size="10.00">_req.cpp</text>
</a>
</g>
</g>
<!-- Node2 -->
<g id="node2" class="node">
<title>Node2</title>
<g id="a_node2"><a xlink:href="f__pc__create__req_8h.html" target="_top" xlink:title=" ">
<polygon fill="white" stroke="black" points="0,-73 0,-92 116,-92 116,-73 0,-73"/>
<text text-anchor="middle" x="58" y="-80" font-family="Helvetica,sans-Serif" font-size="10.00">f_pc/f_pc_create_req.h</text>
</a>
</g>
</g>
<!-- Node1&#45;&gt;Node2 -->
<g id="edge1" class="edge">
<title>Node1&#45;&gt;Node2</title>
<path fill="none" stroke="midnightblue" d="M728.93,-160.08C616.95,-160.28 348.8,-155.37 130,-109 115.53,-105.93 100,-100.7 87.08,-95.76"/>
<polygon fill="midnightblue" stroke="midnightblue" points="88.35,-92.5 77.77,-92.09 85.78,-99.02 88.35,-92.5"/>
</g>
<!-- Node3 -->
<g id="node3" class="node">
<title>Node3</title>
<g id="a_node3"><a xlink:href="types_8h.html" target="_top" xlink:title=" ">
<polygon fill="white" stroke="black" points="60.5,-0.5 60.5,-19.5 141.5,-19.5 141.5,-0.5 60.5,-0.5"/>
<text text-anchor="middle" x="101" y="-7.5" font-family="Helvetica,sans-Serif" font-size="10.00">dolphin/types.h</text>
</a>
</g>
</g>
<!-- Node1&#45;&gt;Node3 -->
<g id="edge4" class="edge">
<title>Node1&#45;&gt;Node3</title>
<path fill="none" stroke="midnightblue" d="M728.76,-157.83C587.71,-153.05 211.85,-137.72 164,-109 156.01,-104.2 126.85,-55.49 111.16,-28.6"/>
<polygon fill="midnightblue" stroke="midnightblue" points="114.1,-26.7 106.05,-19.8 108.05,-30.21 114.1,-26.7"/>
</g>
<!-- Node4 -->
<g id="node4" class="node">
<title>Node4</title>
<g id="a_node4"><a xlink:href="dol2asm_8h.html" target="_top" xlink:title=" ">
<polygon fill="white" stroke="black" points="172.5,-73 172.5,-92 233.5,-92 233.5,-73 172.5,-73"/>
<text text-anchor="middle" x="203" y="-80" font-family="Helvetica,sans-Serif" font-size="10.00">dol2asm.h</text>
</a>
</g>
</g>
<!-- Node1&#45;&gt;Node4 -->
<g id="edge3" class="edge">
<title>Node1&#45;&gt;Node4</title>
<path fill="none" stroke="midnightblue" d="M728.67,-157.69C610.87,-153.17 331.9,-139.5 243,-109 235.67,-106.49 228.33,-102.38 221.97,-98.18"/>
<polygon fill="midnightblue" stroke="midnightblue" points="223.66,-95.09 213.48,-92.16 219.61,-100.8 223.66,-95.09"/>
</g>
<!-- Node5 -->
<g id="node5" class="node">
<title>Node5</title>
<g id="a_node5"><a xlink:title=" ">
<polygon fill="white" stroke="#bfbfbf" points="251.5,-62 251.5,-103 394.5,-103 394.5,-62 251.5,-62"/>
<text text-anchor="start" x="259.5" y="-91" font-family="Helvetica,sans-Serif" font-size="10.00">asm/f_pc/f_pc_create</text>
<text text-anchor="start" x="259.5" y="-80" font-family="Helvetica,sans-Serif" font-size="10.00">_req/fpcCtRq_isCreatingByID</text>
<text text-anchor="middle" x="323" y="-69" font-family="Helvetica,sans-Serif" font-size="10.00">__FP10create_tagPUi.s</text>
</a>
</g>
</g>
<!-- Node1&#45;&gt;Node5 -->
<g id="edge5" class="edge">
<title>Node1&#45;&gt;Node5</title>
<path fill="none" stroke="midnightblue" d="M728.91,-155.31C655.3,-148.85 518.39,-134.45 404,-109 399.67,-108.04 395.25,-106.95 390.8,-105.78"/>
<polygon fill="midnightblue" stroke="midnightblue" points="391.65,-102.38 381.08,-103.1 389.79,-109.13 391.65,-102.38"/>
</g>
<!-- Node6 -->
<g id="node6" class="node">
<title>Node6</title>
<g id="a_node6"><a xlink:title=" ">
<polygon fill="white" stroke="#bfbfbf" points="413,-62 413,-103 557,-103 557,-62 413,-62"/>
<text text-anchor="start" x="421" y="-91" font-family="Helvetica,sans-Serif" font-size="10.00">asm/f_pc/f_pc_create</text>
<text text-anchor="start" x="421" y="-80" font-family="Helvetica,sans-Serif" font-size="10.00">_req/fpcCtRq_IsCreatingByID</text>
<text text-anchor="middle" x="485" y="-69" font-family="Helvetica,sans-Serif" font-size="10.00">__FUi.s</text>
</a>
</g>
</g>
<!-- Node1&#45;&gt;Node6 -->
<g id="edge6" class="edge">
<title>Node1&#45;&gt;Node6</title>
<path fill="none" stroke="midnightblue" d="M728.9,-148.26C685.01,-138.68 621.16,-124.11 566,-109 562.45,-108.03 558.82,-107 555.16,-105.94"/>
<polygon fill="midnightblue" stroke="midnightblue" points="556.03,-102.55 545.45,-103.08 554.05,-109.26 556.03,-102.55"/>
</g>
<!-- Node7 -->
<g id="node7" class="node">
<title>Node7</title>
<g id="a_node7"><a xlink:title=" ">
<polygon fill="white" stroke="#bfbfbf" points="575,-62 575,-103 701,-103 701,-62 575,-62"/>
<text text-anchor="start" x="583" y="-91" font-family="Helvetica,sans-Serif" font-size="10.00">asm/f_pc/f_pc_create</text>
<text text-anchor="start" x="583" y="-80" font-family="Helvetica,sans-Serif" font-size="10.00">_req/fpcCtRq_CreateQTo</text>
<text text-anchor="middle" x="638" y="-69" font-family="Helvetica,sans-Serif" font-size="10.00">__FP14create_request.s</text>
</a>
</g>
</g>
<!-- Node1&#45;&gt;Node7 -->
<g id="edge7" class="edge">
<title>Node1&#45;&gt;Node7</title>
<path fill="none" stroke="midnightblue" d="M755.25,-145.38C735.36,-134.89 707.72,-120.3 684.28,-107.92"/>
<polygon fill="midnightblue" stroke="midnightblue" points="685.67,-104.7 675.19,-103.13 682.4,-110.89 685.67,-104.7"/>
</g>
<!-- Node8 -->
<g id="node8" class="node">
<title>Node8</title>
<g id="a_node8"><a xlink:title=" ">
<polygon fill="white" stroke="#bfbfbf" points="719,-62 719,-103 845,-103 845,-62 719,-62"/>
<text text-anchor="start" x="727" y="-91" font-family="Helvetica,sans-Serif" font-size="10.00">asm/f_pc/f_pc_create</text>
<text text-anchor="start" x="727" y="-80" font-family="Helvetica,sans-Serif" font-size="10.00">_req/fpcCtRq_ToCreateQ</text>
<text text-anchor="middle" x="782" y="-69" font-family="Helvetica,sans-Serif" font-size="10.00">__FP14create_request.s</text>
</a>
</g>
</g>
<!-- Node1&#45;&gt;Node8 -->
<g id="edge8" class="edge">
<title>Node1&#45;&gt;Node8</title>
<path fill="none" stroke="midnightblue" d="M782,-145.2C782,-136.21 782,-124.27 782,-113.29"/>
<polygon fill="midnightblue" stroke="midnightblue" points="785.5,-113.18 782,-103.18 778.5,-113.18 785.5,-113.18"/>
</g>
<!-- Node9 -->
<g id="node9" class="node">
<title>Node9</title>
<g id="a_node9"><a xlink:title=" ">
<polygon fill="white" stroke="#bfbfbf" points="863.5,-62 863.5,-103 980.5,-103 980.5,-62 863.5,-62"/>
<text text-anchor="start" x="871.5" y="-91" font-family="Helvetica,sans-Serif" font-size="10.00">asm/f_pc/f_pc_create</text>
<text text-anchor="start" x="871.5" y="-80" font-family="Helvetica,sans-Serif" font-size="10.00">_req/fpcCtRq_Delete_</text>
<text text-anchor="middle" x="922" y="-69" font-family="Helvetica,sans-Serif" font-size="10.00">_FP14create_request.s</text>
</a>
</g>
</g>
<!-- Node1&#45;&gt;Node9 -->
<g id="edge9" class="edge">
<title>Node1&#45;&gt;Node9</title>
<path fill="none" stroke="midnightblue" d="M808,-145.38C827.34,-134.89 854.21,-120.3 877.01,-107.92"/>
<polygon fill="midnightblue" stroke="midnightblue" points="878.72,-110.97 885.84,-103.13 875.39,-104.82 878.72,-110.97"/>
</g>
<!-- Node10 -->
<g id="node10" class="node">
<title>Node10</title>
<g id="a_node10"><a xlink:title=" ">
<polygon fill="white" stroke="#bfbfbf" points="998.5,-62 998.5,-103 1115.5,-103 1115.5,-62 998.5,-62"/>
<text text-anchor="start" x="1006.5" y="-91" font-family="Helvetica,sans-Serif" font-size="10.00">asm/f_pc/f_pc_create</text>
<text text-anchor="start" x="1006.5" y="-80" font-family="Helvetica,sans-Serif" font-size="10.00">_req/fpcCtRq_Cancel_</text>
<text text-anchor="middle" x="1057" y="-69" font-family="Helvetica,sans-Serif" font-size="10.00">_FP14create_request.s</text>
</a>
</g>
</g>
<!-- Node1&#45;&gt;Node10 -->
<g id="edge10" class="edge">
<title>Node1&#45;&gt;Node10</title>
<path fill="none" stroke="midnightblue" d="M835.07,-148.54C877.4,-139.34 938.01,-125.14 990,-109 992.73,-108.15 995.51,-107.25 998.31,-106.31"/>
<polygon fill="midnightblue" stroke="midnightblue" points="999.55,-109.59 1007.85,-103.01 997.25,-102.98 999.55,-109.59"/>
</g>
<!-- Node11 -->
<g id="node11" class="node">
<title>Node11</title>
<g id="a_node11"><a xlink:title=" ">
<polygon fill="white" stroke="#bfbfbf" points="1134,-62 1134,-103 1256,-103 1256,-62 1134,-62"/>
<text text-anchor="start" x="1142" y="-91" font-family="Helvetica,sans-Serif" font-size="10.00">asm/f_pc/f_pc_create</text>
<text text-anchor="start" x="1142" y="-80" font-family="Helvetica,sans-Serif" font-size="10.00">_req/fpcCtRq_IsDoing</text>
<text text-anchor="middle" x="1195" y="-69" font-family="Helvetica,sans-Serif" font-size="10.00">__FP14create_request.s</text>
</a>
</g>
</g>
<!-- Node1&#45;&gt;Node11 -->
<g id="edge11" class="edge">
<title>Node1&#45;&gt;Node11</title>
<path fill="none" stroke="midnightblue" d="M835.25,-155.04C903.25,-148.58 1024.2,-134.5 1125,-109 1128.53,-108.11 1132.13,-107.1 1135.74,-106.02"/>
<polygon fill="midnightblue" stroke="midnightblue" points="1136.81,-109.35 1145.3,-103 1134.71,-102.68 1136.81,-109.35"/>
</g>
<!-- Node12 -->
<g id="node12" class="node">
<title>Node12</title>
<g id="a_node12"><a xlink:title=" ">
<polygon fill="white" stroke="#bfbfbf" points="1274,-62 1274,-103 1426,-103 1426,-62 1274,-62"/>
<text text-anchor="start" x="1282" y="-91" font-family="Helvetica,sans-Serif" font-size="10.00">asm/f_pc/f_pc_create</text>
<text text-anchor="start" x="1282" y="-80" font-family="Helvetica,sans-Serif" font-size="10.00">_req/fpcCtRq_Do__FP14create</text>
<text text-anchor="middle" x="1350" y="-69" font-family="Helvetica,sans-Serif" font-size="10.00">_request.s</text>
</a>
</g>
</g>
<!-- Node1&#45;&gt;Node12 -->
<g id="edge12" class="edge">
<title>Node1&#45;&gt;Node12</title>
<path fill="none" stroke="midnightblue" d="M835.02,-157.21C924.44,-152.62 1110.62,-139.94 1265,-109 1269.97,-108 1275.07,-106.84 1280.18,-105.57"/>
<polygon fill="midnightblue" stroke="midnightblue" points="1281.19,-108.93 1289.99,-103.02 1279.43,-102.15 1281.19,-108.93"/>
</g>
<!-- Node13 -->
<g id="node13" class="node">
<title>Node13</title>
<g id="a_node13"><a xlink:title=" ">
<polygon fill="white" stroke="#bfbfbf" points="1444,-67.5 1444,-97.5 1586,-97.5 1586,-67.5 1444,-67.5"/>
<text text-anchor="start" x="1452" y="-85.5" font-family="Helvetica,sans-Serif" font-size="10.00">asm/f_pc/f_pc_create</text>
<text text-anchor="middle" x="1515" y="-74.5" font-family="Helvetica,sans-Serif" font-size="10.00">_req/fpcCtRq_Handler__Fv.s</text>
</a>
</g>
</g>
<!-- Node1&#45;&gt;Node13 -->
<g id="edge13" class="edge">
<title>Node1&#45;&gt;Node13</title>
<path fill="none" stroke="midnightblue" d="M835.03,-159.53C946.97,-158.7 1215.15,-151.94 1435,-109 1445.73,-106.9 1457.05,-103.85 1467.68,-100.57"/>
<polygon fill="midnightblue" stroke="midnightblue" points="1468.76,-103.9 1477.22,-97.52 1466.63,-97.23 1468.76,-103.9"/>
</g>
<!-- Node14 -->
<g id="node14" class="node">
<title>Node14</title>
<g id="a_node14"><a xlink:title=" ">
<polygon fill="white" stroke="#bfbfbf" points="1604,-56.5 1604,-108.5 1752,-108.5 1752,-56.5 1604,-56.5"/>
<text text-anchor="start" x="1612" y="-96.5" font-family="Helvetica,sans-Serif" font-size="10.00">asm/f_pc/f_pc_create</text>
<text text-anchor="start" x="1612" y="-85.5" font-family="Helvetica,sans-Serif" font-size="10.00">_req/fpcCtRq_Create_</text>
<text text-anchor="start" x="1612" y="-74.5" font-family="Helvetica,sans-Serif" font-size="10.00">_FP11layer_classUlP27create</text>
<text text-anchor="middle" x="1678" y="-63.5" font-family="Helvetica,sans-Serif" font-size="10.00">_request_method_class.s</text>
</a>
</g>
</g>
<!-- Node1&#45;&gt;Node14 -->
<g id="edge14" class="edge">
<title>Node1&#45;&gt;Node14</title>
<path fill="none" stroke="midnightblue" d="M835.2,-157.83C988.43,-152.79 1429.7,-136.39 1593.62,-109.01"/>
<polygon fill="midnightblue" stroke="midnightblue" points="1594.3,-112.45 1603.55,-107.28 1593.1,-105.55 1594.3,-112.45"/>
</g>
<!-- Node2&#45;&gt;Node3 -->
<g id="edge2" class="edge">
<title>Node2&#45;&gt;Node3</title>
<path fill="none" stroke="midnightblue" d="M63.27,-72.86C69.98,-61.86 81.72,-42.61 90.33,-28.5"/>
<polygon fill="midnightblue" stroke="midnightblue" points="93.47,-30.08 95.68,-19.72 87.49,-26.43 93.47,-30.08"/>
</g>
</g>
</svg>
