<?xml version="1.0" encoding="UTF-8" standalone="no"?>
<!DOCTYPE svg PUBLIC "-//W3C//DTD SVG 1.1//EN"
 "http://www.w3.org/Graphics/SVG/1.1/DTD/svg11.dtd">
<!-- Generated by graphviz version 2.47.0 (20210316.2052)
 -->
<!-- Title: src/f_pc/f_pc_load.cpp Pages: 1 -->
<svg width="712pt" height="151pt"
 viewBox="0.00 0.00 711.50 151.00" xmlns="http://www.w3.org/2000/svg" xmlns:xlink="http://www.w3.org/1999/xlink">
<g id="graph0" class="graph" transform="scale(1 1) rotate(0) translate(4 147)">
<title>src/f_pc/f_pc_load.cpp</title>
<polygon fill="white" stroke="transparent" points="-4,4 -4,-147 707.5,-147 707.5,4 -4,4"/>
<!-- Node1 -->
<g id="node1" class="node">
<title>Node1</title>
<g id="a_node1"><a xlink:title=" ">
<polygon fill="#bfbfbf" stroke="black" points="217,-123.5 217,-142.5 332,-142.5 332,-123.5 217,-123.5"/>
<text text-anchor="middle" x="274.5" y="-130.5" font-family="Helvetica,sans-Serif" font-size="10.00">src/f_pc/f_pc_load.cpp</text>
</a>
</g>
</g>
<!-- Node2 -->
<g id="node2" class="node">
<title>Node2</title>
<g id="a_node2"><a xlink:href="dol2asm_8h.html" target="_top" xlink:title=" ">
<polygon fill="white" stroke="black" points="0,-62 0,-81 61,-81 61,-62 0,-62"/>
<text text-anchor="middle" x="30.5" y="-69" font-family="Helvetica,sans-Serif" font-size="10.00">dol2asm.h</text>
</a>
</g>
</g>
<!-- Node1&#45;&gt;Node2 -->
<g id="edge1" class="edge">
<title>Node1&#45;&gt;Node2</title>
<path fill="none" stroke="midnightblue" d="M231.53,-123.44C191.04,-115.1 128.8,-101.58 75.5,-87 72.15,-86.08 68.68,-85.08 65.22,-84.03"/>
<polygon fill="midnightblue" stroke="midnightblue" points="66.2,-80.67 55.61,-81.03 64.11,-87.35 66.2,-80.67"/>
</g>
<!-- Node3 -->
<g id="node3" class="node">
<title>Node3</title>
<g id="a_node3"><a xlink:href="types_8h.html" target="_top" xlink:title=" ">
<polygon fill="white" stroke="black" points="85,-0.5 85,-19.5 166,-19.5 166,-0.5 85,-0.5"/>
<text text-anchor="middle" x="125.5" y="-7.5" font-family="Helvetica,sans-Serif" font-size="10.00">dolphin/types.h</text>
</a>
</g>
</g>
<!-- Node1&#45;&gt;Node3 -->
<g id="edge2" class="edge">
<title>Node1&#45;&gt;Node3</title>
<path fill="none" stroke="midnightblue" d="M216.66,-123.88C174.23,-116.6 121.79,-104.37 108.5,-87 95.59,-70.12 104.94,-45.33 114.08,-28.69"/>
<polygon fill="midnightblue" stroke="midnightblue" points="117.17,-30.35 119.27,-19.96 111.15,-26.77 117.17,-30.35"/>
</g>
<!-- Node4 -->
<g id="node4" class="node">
<title>Node4</title>
<g id="a_node4"><a xlink:href="f__pc__load_8h.html" target="_top" xlink:title=" ">
<polygon fill="white" stroke="black" points="117.5,-62 117.5,-81 205.5,-81 205.5,-62 117.5,-62"/>
<text text-anchor="middle" x="161.5" y="-69" font-family="Helvetica,sans-Serif" font-size="10.00">f_pc/f_pc_load.h</text>
</a>
</g>
</g>
<!-- Node1&#45;&gt;Node4 -->
<g id="edge3" class="edge">
<title>Node1&#45;&gt;Node4</title>
<path fill="none" stroke="midnightblue" d="M258.31,-123.48C239.6,-113.62 208.58,-97.29 186.7,-85.77"/>
<polygon fill="midnightblue" stroke="midnightblue" points="188.14,-82.57 177.66,-81.01 184.88,-88.77 188.14,-82.57"/>
</g>
<!-- Node5 -->
<g id="node5" class="node">
<title>Node5</title>
<g id="a_node5"><a xlink:title=" ">
<polygon fill="white" stroke="#bfbfbf" points="223.5,-56.5 223.5,-86.5 325.5,-86.5 325.5,-56.5 223.5,-56.5"/>
<text text-anchor="start" x="231.5" y="-74.5" font-family="Helvetica,sans-Serif" font-size="10.00">asm/f_pc/f_pc_load</text>
<text text-anchor="middle" x="274.5" y="-63.5" font-family="Helvetica,sans-Serif" font-size="10.00">/fpcLd_Use__Fs.s</text>
</a>
</g>
</g>
<!-- Node1&#45;&gt;Node5 -->
<g id="edge5" class="edge">
<title>Node1&#45;&gt;Node5</title>
<path fill="none" stroke="midnightblue" d="M274.5,-123.48C274.5,-116.47 274.5,-106.19 274.5,-96.7"/>
<polygon fill="midnightblue" stroke="midnightblue" points="278,-96.52 274.5,-86.52 271,-96.52 278,-96.52"/>
</g>
<!-- Node6 -->
<g id="node6" class="node">
<title>Node6</title>
<g id="a_node6"><a xlink:title=" ">
<polygon fill="white" stroke="#bfbfbf" points="344,-56.5 344,-86.5 463,-86.5 463,-56.5 344,-56.5"/>
<text text-anchor="start" x="352" y="-74.5" font-family="Helvetica,sans-Serif" font-size="10.00">asm/f_pc/f_pc_load</text>
<text text-anchor="middle" x="403.5" y="-63.5" font-family="Helvetica,sans-Serif" font-size="10.00">/fpcLd_IsLoaded__Fs.s</text>
</a>
</g>
</g>
<!-- Node1&#45;&gt;Node6 -->
<g id="edge6" class="edge">
<title>Node1&#45;&gt;Node6</title>
<path fill="none" stroke="midnightblue" d="M292.98,-123.48C311.43,-114.96 340.37,-101.62 364,-90.72"/>
<polygon fill="midnightblue" stroke="midnightblue" points="365.48,-93.89 373.1,-86.52 362.55,-87.53 365.48,-93.89"/>
</g>
<!-- Node7 -->
<g id="node7" class="node">
<title>Node7</title>
<g id="a_node7"><a xlink:title=" ">
<polygon fill="white" stroke="#bfbfbf" points="481.5,-56.5 481.5,-86.5 583.5,-86.5 583.5,-56.5 481.5,-56.5"/>
<text text-anchor="start" x="489.5" y="-74.5" font-family="Helvetica,sans-Serif" font-size="10.00">asm/f_pc/f_pc_load</text>
<text text-anchor="middle" x="532.5" y="-63.5" font-family="Helvetica,sans-Serif" font-size="10.00">/fpcLd_Free__Fs.s</text>
</a>
</g>
</g>
<!-- Node1&#45;&gt;Node7 -->
<g id="edge7" class="edge">
<title>Node1&#45;&gt;Node7</title>
<path fill="none" stroke="midnightblue" d="M312.86,-123.44C350.75,-114.96 410.6,-101.45 471.64,-87.18"/>
<polygon fill="midnightblue" stroke="midnightblue" points="472.51,-90.58 481.45,-84.89 470.91,-83.76 472.51,-90.58"/>
</g>
<!-- Node8 -->
<g id="node8" class="node">
<title>Node8</title>
<g id="a_node8"><a xlink:title=" ">
<polygon fill="white" stroke="#bfbfbf" points="601.5,-56.5 601.5,-86.5 703.5,-86.5 703.5,-56.5 601.5,-56.5"/>
<text text-anchor="start" x="609.5" y="-74.5" font-family="Helvetica,sans-Serif" font-size="10.00">asm/f_pc/f_pc_load</text>
<text text-anchor="middle" x="652.5" y="-63.5" font-family="Helvetica,sans-Serif" font-size="10.00">/fpcLd_Load__Fs.s</text>
</a>
</g>
</g>
<!-- Node1&#45;&gt;Node8 -->
<g id="edge8" class="edge">
<title>Node1&#45;&gt;Node8</title>
<path fill="none" stroke="midnightblue" d="M332.22,-125.53C394.03,-118.22 495.14,-105.17 591.3,-87.12"/>
<polygon fill="midnightblue" stroke="midnightblue" points="592.01,-90.55 601.18,-85.25 590.71,-83.67 592.01,-90.55"/>
</g>
<!-- Node4&#45;&gt;Node3 -->
<g id="edge4" class="edge">
<title>Node4&#45;&gt;Node3</title>
<path fill="none" stroke="midnightblue" d="M156.34,-61.98C151.05,-53.23 142.66,-39.37 135.97,-28.31"/>
<polygon fill="midnightblue" stroke="midnightblue" points="138.82,-26.25 130.65,-19.51 132.83,-29.88 138.82,-26.25"/>
</g>
</g>
</svg>
