<?xml version="1.0" encoding="UTF-8" standalone="no"?>
<!DOCTYPE svg PUBLIC "-//W3C//DTD SVG 1.1//EN"
 "http://www.w3.org/Graphics/SVG/1.1/DTD/svg11.dtd">
<!-- Generated by graphviz version 2.47.0 (20210316.2052)
 -->
<!-- Title: src/f_pc/f_pc_method_iter.cpp Pages: 1 -->
<svg width="423pt" height="173pt"
 viewBox="0.00 0.00 422.50 173.00" xmlns="http://www.w3.org/2000/svg" xmlns:xlink="http://www.w3.org/1999/xlink">
<g id="graph0" class="graph" transform="scale(1 1) rotate(0) translate(4 169)">
<title>src/f_pc/f_pc_method_iter.cpp</title>
<polygon fill="white" stroke="transparent" points="-4,4 -4,-169 418.5,-169 418.5,4 -4,4"/>
<!-- Node1 -->
<g id="node1" class="node">
<title>Node1</title>
<g id="a_node1"><a xlink:title=" ">
<polygon fill="#bfbfbf" stroke="black" points="123,-134.5 123,-164.5 234,-164.5 234,-134.5 123,-134.5"/>
<text text-anchor="start" x="131" y="-152.5" font-family="Helvetica,sans-Serif" font-size="10.00">src/f_pc/f_pc_method</text>
<text text-anchor="middle" x="178.5" y="-141.5" font-family="Helvetica,sans-Serif" font-size="10.00">_iter.cpp</text>
</a>
</g>
</g>
<!-- Node2 -->
<g id="node2" class="node">
<title>Node2</title>
<g id="a_node2"><a xlink:href="f__pc__method__iter_8h.html" target="_top" xlink:title=" ">
<polygon fill="white" stroke="black" points="0,-67.5 0,-86.5 121,-86.5 121,-67.5 0,-67.5"/>
<text text-anchor="middle" x="60.5" y="-74.5" font-family="Helvetica,sans-Serif" font-size="10.00">f_pc/f_pc_method_iter.h</text>
</a>
</g>
</g>
<!-- Node1&#45;&gt;Node2 -->
<g id="edge1" class="edge">
<title>Node1&#45;&gt;Node2</title>
<path fill="none" stroke="midnightblue" d="M154.9,-134.4C134.14,-122 104.09,-104.05 83.51,-91.75"/>
<polygon fill="midnightblue" stroke="midnightblue" points="85.16,-88.66 74.78,-86.53 81.57,-94.67 85.16,-88.66"/>
</g>
<!-- Node3 -->
<g id="node3" class="node">
<title>Node3</title>
<g id="a_node3"><a xlink:href="types_8h.html" target="_top" xlink:title=" ">
<polygon fill="white" stroke="black" points="64,-0.5 64,-19.5 145,-19.5 145,-0.5 64,-0.5"/>
<text text-anchor="middle" x="104.5" y="-7.5" font-family="Helvetica,sans-Serif" font-size="10.00">dolphin/types.h</text>
</a>
</g>
</g>
<!-- Node1&#45;&gt;Node3 -->
<g id="edge4" class="edge">
<title>Node1&#45;&gt;Node3</title>
<path fill="none" stroke="midnightblue" d="M171.12,-134.35C161.6,-116.16 144.49,-83.63 129.5,-56 124.54,-46.85 118.92,-36.72 114.26,-28.39"/>
<polygon fill="midnightblue" stroke="midnightblue" points="117.28,-26.61 109.34,-19.6 111.18,-30.03 117.28,-26.61"/>
</g>
<!-- Node4 -->
<g id="node4" class="node">
<title>Node4</title>
<g id="a_node4"><a xlink:href="dol2asm_8h.html" target="_top" xlink:title=" ">
<polygon fill="white" stroke="black" points="178,-67.5 178,-86.5 239,-86.5 239,-67.5 178,-67.5"/>
<text text-anchor="middle" x="208.5" y="-74.5" font-family="Helvetica,sans-Serif" font-size="10.00">dol2asm.h</text>
</a>
</g>
</g>
<!-- Node1&#45;&gt;Node4 -->
<g id="edge3" class="edge">
<title>Node1&#45;&gt;Node4</title>
<path fill="none" stroke="midnightblue" d="M184.57,-134.23C189.23,-123.28 195.7,-108.07 200.74,-96.24"/>
<polygon fill="midnightblue" stroke="midnightblue" points="204.02,-97.47 204.72,-86.89 197.58,-94.72 204.02,-97.47"/>
</g>
<!-- Node5 -->
<g id="node5" class="node">
<title>Node5</title>
<g id="a_node5"><a xlink:title=" ">
<polygon fill="white" stroke="#bfbfbf" points="256.5,-56.5 256.5,-97.5 414.5,-97.5 414.5,-56.5 256.5,-56.5"/>
<text text-anchor="start" x="264.5" y="-85.5" font-family="Helvetica,sans-Serif" font-size="10.00">asm/f_pc/f_pc_method</text>
<text text-anchor="start" x="264.5" y="-74.5" font-family="Helvetica,sans-Serif" font-size="10.00">_iter/fpcMtdIt_Method</text>
<text text-anchor="middle" x="335.5" y="-63.5" font-family="Helvetica,sans-Serif" font-size="10.00">__FP15node_list_classPFPv_i.s</text>
</a>
</g>
</g>
<!-- Node1&#45;&gt;Node5 -->
<g id="edge5" class="edge">
<title>Node1&#45;&gt;Node5</title>
<path fill="none" stroke="midnightblue" d="M209.89,-134.4C230.67,-125.07 258.43,-112.61 282.57,-101.77"/>
<polygon fill="midnightblue" stroke="midnightblue" points="284.28,-104.84 291.97,-97.55 281.41,-98.45 284.28,-104.84"/>
</g>
<!-- Node2&#45;&gt;Node3 -->
<g id="edge2" class="edge">
<title>Node2&#45;&gt;Node3</title>
<path fill="none" stroke="midnightblue" d="M66.43,-67.23C73.23,-57.2 84.52,-40.51 93.05,-27.92"/>
<polygon fill="midnightblue" stroke="midnightblue" points="95.95,-29.87 98.66,-19.63 90.16,-25.95 95.95,-29.87"/>
</g>
</g>
</svg>
