<?xml version="1.0" encoding="UTF-8" standalone="no"?>
<!DOCTYPE svg PUBLIC "-//W3C//DTD SVG 1.1//EN"
 "http://www.w3.org/Graphics/SVG/1.1/DTD/svg11.dtd">
<!-- Generated by graphviz version 2.47.0 (20210316.2052)
 -->
<!-- Title: src/f_pc/f_pc_create_req.cpp Pages: 1 -->
<svg width="1761pt" height="184pt"
 viewBox="0.00 0.00 1760.50 184.00" xmlns="http://www.w3.org/2000/svg" xmlns:xlink="http://www.w3.org/1999/xlink">
<g id="graph0" class="graph" transform="scale(1 1) rotate(0) translate(4 180)">
<title>src/f_pc/f_pc_create_req.cpp</title>
<polygon fill="white" stroke="transparent" points="-4,4 -4,-180 1756.5,-180 1756.5,4 -4,4"/>
<!-- Node1 -->
<g id="node1" class="node">
<title>Node1</title>
<g id="a_node1"><a xlink:title=" ">
<polygon fill="#bfbfbf" stroke="black" points="729.5,-145.5 729.5,-175.5 835.5,-175.5 835.5,-145.5 729.5,-145.5"/>
<text text-anchor="start" x="737.5" y="-163.5" font-family="Helvetica,sans-Serif" font-size="10.00">src/f_pc/f_pc_create</text>
<text text-anchor="middle" x="782.5" y="-152.5" font-family="Helvetica,sans-Serif" font-size="10.00">_req.cpp</text>
</a>
</g>
</g>
<!-- Node2 -->
<g id="node2" class="node">
<title>Node2</title>
<g id="a_node2"><a xlink:href="dol2asm_8h.html" target="_top" xlink:title=" ">
<polygon fill="white" stroke="black" points="0,-73 0,-92 61,-92 61,-73 0,-73"/>
<text text-anchor="middle" x="30.5" y="-80" font-family="Helvetica,sans-Serif" font-size="10.00">dol2asm.h</text>
</a>
</g>
</g>
<!-- Node1&#45;&gt;Node2 -->
<g id="edge1" class="edge">
<title>Node1&#45;&gt;Node2</title>
<path fill="none" stroke="midnightblue" d="M729.4,-158.73C586.76,-156.18 197.79,-145.95 75.5,-109 67.04,-106.44 58.43,-102.08 51.04,-97.68"/>
<polygon fill="midnightblue" stroke="midnightblue" points="52.75,-94.62 42.43,-92.22 49,-100.53 52.75,-94.62"/>
</g>
<!-- Node3 -->
<g id="node3" class="node">
<title>Node3</title>
<g id="a_node3"><a xlink:href="types_8h.html" target="_top" xlink:title=" ">
<polygon fill="white" stroke="black" points="92,-0.5 92,-19.5 173,-19.5 173,-0.5 92,-0.5"/>
<text text-anchor="middle" x="132.5" y="-7.5" font-family="Helvetica,sans-Serif" font-size="10.00">dolphin/types.h</text>
</a>
</g>
</g>
<!-- Node1&#45;&gt;Node3 -->
<g id="edge2" class="edge">
<title>Node1&#45;&gt;Node3</title>
<path fill="none" stroke="midnightblue" d="M729.37,-159.57C577.61,-159.22 150.43,-154.19 108.5,-109 87.85,-86.74 106.17,-49.69 120.15,-28.09"/>
<polygon fill="midnightblue" stroke="midnightblue" points="123.19,-29.84 125.93,-19.61 117.41,-25.9 123.19,-29.84"/>
</g>
<!-- Node4 -->
<g id="node4" class="node">
<title>Node4</title>
<g id="a_node4"><a xlink:href="f__pc__create__req_8h.html" target="_top" xlink:title=" ">
<polygon fill="white" stroke="black" points="117.5,-73 117.5,-92 233.5,-92 233.5,-73 117.5,-73"/>
<text text-anchor="middle" x="175.5" y="-80" font-family="Helvetica,sans-Serif" font-size="10.00">f_pc/f_pc_create_req.h</text>
</a>
</g>
</g>
<!-- Node1&#45;&gt;Node4 -->
<g id="edge3" class="edge">
<title>Node1&#45;&gt;Node4</title>
<path fill="none" stroke="midnightblue" d="M729.35,-159.16C631.82,-157.52 418.22,-149.19 243.5,-109 230.06,-105.91 215.69,-100.8 203.64,-95.97"/>
<polygon fill="midnightblue" stroke="midnightblue" points="204.71,-92.63 194.14,-92.02 202.03,-99.09 204.71,-92.63"/>
</g>
<!-- Node5 -->
<g id="node5" class="node">
<title>Node5</title>
<g id="a_node5"><a xlink:title=" ">
<polygon fill="white" stroke="#bfbfbf" points="252,-62 252,-103 395,-103 395,-62 252,-62"/>
<text text-anchor="start" x="260" y="-91" font-family="Helvetica,sans-Serif" font-size="10.00">asm/f_pc/f_pc_create</text>
<text text-anchor="start" x="260" y="-80" font-family="Helvetica,sans-Serif" font-size="10.00">_req/fpcCtRq_isCreatingByID</text>
<text text-anchor="middle" x="323.5" y="-69" font-family="Helvetica,sans-Serif" font-size="10.00">__FP10create_tagPUi.s</text>
</a>
</g>
</g>
<!-- Node1&#45;&gt;Node5 -->
<g id="edge5" class="edge">
<title>Node1&#45;&gt;Node5</title>
<path fill="none" stroke="midnightblue" d="M729.41,-155.31C655.8,-148.85 518.89,-134.45 404.5,-109 400.17,-108.04 395.75,-106.95 391.3,-105.78"/>
<polygon fill="midnightblue" stroke="midnightblue" points="392.15,-102.38 381.58,-103.1 390.29,-109.13 392.15,-102.38"/>
</g>
<!-- Node6 -->
<g id="node6" class="node">
<title>Node6</title>
<g id="a_node6"><a xlink:title=" ">
<polygon fill="white" stroke="#bfbfbf" points="413.5,-62 413.5,-103 557.5,-103 557.5,-62 413.5,-62"/>
<text text-anchor="start" x="421.5" y="-91" font-family="Helvetica,sans-Serif" font-size="10.00">asm/f_pc/f_pc_create</text>
<text text-anchor="start" x="421.5" y="-80" font-family="Helvetica,sans-Serif" font-size="10.00">_req/fpcCtRq_IsCreatingByID</text>
<text text-anchor="middle" x="485.5" y="-69" font-family="Helvetica,sans-Serif" font-size="10.00">__FUi.s</text>
</a>
</g>
</g>
<!-- Node1&#45;&gt;Node6 -->
<g id="edge6" class="edge">
<title>Node1&#45;&gt;Node6</title>
<path fill="none" stroke="midnightblue" d="M729.4,-148.26C685.51,-138.68 621.66,-124.11 566.5,-109 562.95,-108.03 559.32,-107 555.66,-105.94"/>
<polygon fill="midnightblue" stroke="midnightblue" points="556.53,-102.55 545.95,-103.08 554.55,-109.26 556.53,-102.55"/>
</g>
<!-- Node7 -->
<g id="node7" class="node">
<title>Node7</title>
<g id="a_node7"><a xlink:title=" ">
<polygon fill="white" stroke="#bfbfbf" points="575.5,-62 575.5,-103 701.5,-103 701.5,-62 575.5,-62"/>
<text text-anchor="start" x="583.5" y="-91" font-family="Helvetica,sans-Serif" font-size="10.00">asm/f_pc/f_pc_create</text>
<text text-anchor="start" x="583.5" y="-80" font-family="Helvetica,sans-Serif" font-size="10.00">_req/fpcCtRq_CreateQTo</text>
<text text-anchor="middle" x="638.5" y="-69" font-family="Helvetica,sans-Serif" font-size="10.00">__FP14create_request.s</text>
</a>
</g>
</g>
<!-- Node1&#45;&gt;Node7 -->
<g id="edge7" class="edge">
<title>Node1&#45;&gt;Node7</title>
<path fill="none" stroke="midnightblue" d="M755.75,-145.38C735.86,-134.89 708.22,-120.3 684.78,-107.92"/>
<polygon fill="midnightblue" stroke="midnightblue" points="686.17,-104.7 675.69,-103.13 682.9,-110.89 686.17,-104.7"/>
</g>
<!-- Node8 -->
<g id="node8" class="node">
<title>Node8</title>
<g id="a_node8"><a xlink:title=" ">
<polygon fill="white" stroke="#bfbfbf" points="719.5,-62 719.5,-103 845.5,-103 845.5,-62 719.5,-62"/>
<text text-anchor="start" x="727.5" y="-91" font-family="Helvetica,sans-Serif" font-size="10.00">asm/f_pc/f_pc_create</text>
<text text-anchor="start" x="727.5" y="-80" font-family="Helvetica,sans-Serif" font-size="10.00">_req/fpcCtRq_ToCreateQ</text>
<text text-anchor="middle" x="782.5" y="-69" font-family="Helvetica,sans-Serif" font-size="10.00">__FP14create_request.s</text>
</a>
</g>
</g>
<!-- Node1&#45;&gt;Node8 -->
<g id="edge8" class="edge">
<title>Node1&#45;&gt;Node8</title>
<path fill="none" stroke="midnightblue" d="M782.5,-145.2C782.5,-136.21 782.5,-124.27 782.5,-113.29"/>
<polygon fill="midnightblue" stroke="midnightblue" points="786,-113.18 782.5,-103.18 779,-113.18 786,-113.18"/>
</g>
<!-- Node9 -->
<g id="node9" class="node">
<title>Node9</title>
<g id="a_node9"><a xlink:title=" ">
<polygon fill="white" stroke="#bfbfbf" points="864,-62 864,-103 981,-103 981,-62 864,-62"/>
<text text-anchor="start" x="872" y="-91" font-family="Helvetica,sans-Serif" font-size="10.00">asm/f_pc/f_pc_create</text>
<text text-anchor="start" x="872" y="-80" font-family="Helvetica,sans-Serif" font-size="10.00">_req/fpcCtRq_Delete_</text>
<text text-anchor="middle" x="922.5" y="-69" font-family="Helvetica,sans-Serif" font-size="10.00">_FP14create_request.s</text>
</a>
</g>
</g>
<!-- Node1&#45;&gt;Node9 -->
<g id="edge9" class="edge">
<title>Node1&#45;&gt;Node9</title>
<path fill="none" stroke="midnightblue" d="M808.5,-145.38C827.84,-134.89 854.71,-120.3 877.51,-107.92"/>
<polygon fill="midnightblue" stroke="midnightblue" points="879.22,-110.97 886.34,-103.13 875.89,-104.82 879.22,-110.97"/>
</g>
<!-- Node10 -->
<g id="node10" class="node">
<title>Node10</title>
<g id="a_node10"><a xlink:title=" ">
<polygon fill="white" stroke="#bfbfbf" points="999,-62 999,-103 1116,-103 1116,-62 999,-62"/>
<text text-anchor="start" x="1007" y="-91" font-family="Helvetica,sans-Serif" font-size="10.00">asm/f_pc/f_pc_create</text>
<text text-anchor="start" x="1007" y="-80" font-family="Helvetica,sans-Serif" font-size="10.00">_req/fpcCtRq_Cancel_</text>
<text text-anchor="middle" x="1057.5" y="-69" font-family="Helvetica,sans-Serif" font-size="10.00">_FP14create_request.s</text>
</a>
</g>
</g>
<!-- Node1&#45;&gt;Node10 -->
<g id="edge10" class="edge">
<title>Node1&#45;&gt;Node10</title>
<path fill="none" stroke="midnightblue" d="M835.57,-148.54C877.9,-139.34 938.51,-125.14 990.5,-109 993.23,-108.15 996.01,-107.25 998.81,-106.31"/>
<polygon fill="midnightblue" stroke="midnightblue" points="1000.05,-109.59 1008.35,-103.01 997.75,-102.98 1000.05,-109.59"/>
</g>
<!-- Node11 -->
<g id="node11" class="node">
<title>Node11</title>
<g id="a_node11"><a xlink:title=" ">
<polygon fill="white" stroke="#bfbfbf" points="1134.5,-62 1134.5,-103 1256.5,-103 1256.5,-62 1134.5,-62"/>
<text text-anchor="start" x="1142.5" y="-91" font-family="Helvetica,sans-Serif" font-size="10.00">asm/f_pc/f_pc_create</text>
<text text-anchor="start" x="1142.5" y="-80" font-family="Helvetica,sans-Serif" font-size="10.00">_req/fpcCtRq_IsDoing</text>
<text text-anchor="middle" x="1195.5" y="-69" font-family="Helvetica,sans-Serif" font-size="10.00">__FP14create_request.s</text>
</a>
</g>
</g>
<!-- Node1&#45;&gt;Node11 -->
<g id="edge11" class="edge">
<title>Node1&#45;&gt;Node11</title>
<path fill="none" stroke="midnightblue" d="M835.75,-155.04C903.75,-148.58 1024.7,-134.5 1125.5,-109 1129.03,-108.11 1132.63,-107.1 1136.24,-106.02"/>
<polygon fill="midnightblue" stroke="midnightblue" points="1137.31,-109.35 1145.8,-103 1135.21,-102.68 1137.31,-109.35"/>
</g>
<!-- Node12 -->
<g id="node12" class="node">
<title>Node12</title>
<g id="a_node12"><a xlink:title=" ">
<polygon fill="white" stroke="#bfbfbf" points="1274.5,-62 1274.5,-103 1426.5,-103 1426.5,-62 1274.5,-62"/>
<text text-anchor="start" x="1282.5" y="-91" font-family="Helvetica,sans-Serif" font-size="10.00">asm/f_pc/f_pc_create</text>
<text text-anchor="start" x="1282.5" y="-80" font-family="Helvetica,sans-Serif" font-size="10.00">_req/fpcCtRq_Do__FP14create</text>
<text text-anchor="middle" x="1350.5" y="-69" font-family="Helvetica,sans-Serif" font-size="10.00">_request.s</text>
</a>
</g>
</g>
<!-- Node1&#45;&gt;Node12 -->
<g id="edge12" class="edge">
<title>Node1&#45;&gt;Node12</title>
<path fill="none" stroke="midnightblue" d="M835.52,-157.21C924.94,-152.62 1111.12,-139.94 1265.5,-109 1270.47,-108 1275.57,-106.84 1280.68,-105.57"/>
<polygon fill="midnightblue" stroke="midnightblue" points="1281.69,-108.93 1290.49,-103.02 1279.93,-102.15 1281.69,-108.93"/>
</g>
<!-- Node13 -->
<g id="node13" class="node">
<title>Node13</title>
<g id="a_node13"><a xlink:title=" ">
<polygon fill="white" stroke="#bfbfbf" points="1444.5,-67.5 1444.5,-97.5 1586.5,-97.5 1586.5,-67.5 1444.5,-67.5"/>
<text text-anchor="start" x="1452.5" y="-85.5" font-family="Helvetica,sans-Serif" font-size="10.00">asm/f_pc/f_pc_create</text>
<text text-anchor="middle" x="1515.5" y="-74.5" font-family="Helvetica,sans-Serif" font-size="10.00">_req/fpcCtRq_Handler__Fv.s</text>
</a>
</g>
</g>
<!-- Node1&#45;&gt;Node13 -->
<g id="edge13" class="edge">
<title>Node1&#45;&gt;Node13</title>
<path fill="none" stroke="midnightblue" d="M835.53,-159.53C947.47,-158.7 1215.65,-151.94 1435.5,-109 1446.23,-106.9 1457.55,-103.85 1468.18,-100.57"/>
<polygon fill="midnightblue" stroke="midnightblue" points="1469.26,-103.9 1477.72,-97.52 1467.13,-97.23 1469.26,-103.9"/>
</g>
<!-- Node14 -->
<g id="node14" class="node">
<title>Node14</title>
<g id="a_node14"><a xlink:title=" ">
<polygon fill="white" stroke="#bfbfbf" points="1604.5,-56.5 1604.5,-108.5 1752.5,-108.5 1752.5,-56.5 1604.5,-56.5"/>
<text text-anchor="start" x="1612.5" y="-96.5" font-family="Helvetica,sans-Serif" font-size="10.00">asm/f_pc/f_pc_create</text>
<text text-anchor="start" x="1612.5" y="-85.5" font-family="Helvetica,sans-Serif" font-size="10.00">_req/fpcCtRq_Create_</text>
<text text-anchor="start" x="1612.5" y="-74.5" font-family="Helvetica,sans-Serif" font-size="10.00">_FP11layer_classUlP27create</text>
<text text-anchor="middle" x="1678.5" y="-63.5" font-family="Helvetica,sans-Serif" font-size="10.00">_request_method_class.s</text>
</a>
</g>
</g>
<!-- Node1&#45;&gt;Node14 -->
<g id="edge14" class="edge">
<title>Node1&#45;&gt;Node14</title>
<path fill="none" stroke="midnightblue" d="M835.7,-157.83C988.93,-152.79 1430.2,-136.39 1594.12,-109.01"/>
<polygon fill="midnightblue" stroke="midnightblue" points="1594.8,-112.45 1604.05,-107.28 1593.6,-105.55 1594.8,-112.45"/>
</g>
<!-- Node4&#45;&gt;Node3 -->
<g id="edge4" class="edge">
<title>Node4&#45;&gt;Node3</title>
<path fill="none" stroke="midnightblue" d="M170.23,-72.86C163.52,-61.86 151.78,-42.61 143.17,-28.5"/>
<polygon fill="midnightblue" stroke="midnightblue" points="146.01,-26.43 137.82,-19.72 140.03,-30.08 146.01,-26.43"/>
</g>
</g>
</svg>
