<?xml version="1.0" encoding="UTF-8" standalone="no"?>
<!DOCTYPE svg PUBLIC "-//W3C//DTD SVG 1.1//EN"
 "http://www.w3.org/Graphics/SVG/1.1/DTD/svg11.dtd">
<!-- Generated by graphviz version 2.47.0 (20210316.2052)
 -->
<!-- Title: src/f_pc/f_pc_create_tag.cpp Pages: 1 -->
<svg width="699pt" height="173pt"
 viewBox="0.00 0.00 698.50 173.00" xmlns="http://www.w3.org/2000/svg" xmlns:xlink="http://www.w3.org/1999/xlink">
<g id="graph0" class="graph" transform="scale(1 1) rotate(0) translate(4 169)">
<title>src/f_pc/f_pc_create_tag.cpp</title>
<polygon fill="white" stroke="transparent" points="-4,4 -4,-169 694.5,-169 694.5,4 -4,4"/>
<!-- Node1 -->
<g id="node1" class="node">
<title>Node1</title>
<g id="a_node1"><a xlink:title=" ">
<polygon fill="#bfbfbf" stroke="black" points="191.5,-134.5 191.5,-164.5 297.5,-164.5 297.5,-134.5 191.5,-134.5"/>
<text text-anchor="start" x="199.5" y="-152.5" font-family="Helvetica,sans-Serif" font-size="10.00">src/f_pc/f_pc_create</text>
<text text-anchor="middle" x="244.5" y="-141.5" font-family="Helvetica,sans-Serif" font-size="10.00">_tag.cpp</text>
</a>
</g>
</g>
<!-- Node2 -->
<g id="node2" class="node">
<title>Node2</title>
<g id="a_node2"><a xlink:href="dol2asm_8h.html" target="_top" xlink:title=" ">
<polygon fill="white" stroke="black" points="0,-67.5 0,-86.5 61,-86.5 61,-67.5 0,-67.5"/>
<text text-anchor="middle" x="30.5" y="-74.5" font-family="Helvetica,sans-Serif" font-size="10.00">dol2asm.h</text>
</a>
</g>
</g>
<!-- Node1&#45;&gt;Node2 -->
<g id="edge1" class="edge">
<title>Node1&#45;&gt;Node2</title>
<path fill="none" stroke="midnightblue" d="M191.4,-134.51C157.82,-125.21 113.7,-112.13 75.5,-98 69.64,-95.83 63.47,-93.28 57.63,-90.73"/>
<polygon fill="midnightblue" stroke="midnightblue" points="58.8,-87.41 48.24,-86.51 55.93,-93.8 58.8,-87.41"/>
</g>
<!-- Node3 -->
<g id="node3" class="node">
<title>Node3</title>
<g id="a_node3"><a xlink:href="types_8h.html" target="_top" xlink:title=" ">
<polygon fill="white" stroke="black" points="92,-0.5 92,-19.5 173,-19.5 173,-0.5 92,-0.5"/>
<text text-anchor="middle" x="132.5" y="-7.5" font-family="Helvetica,sans-Serif" font-size="10.00">dolphin/types.h</text>
</a>
</g>
</g>
<!-- Node1&#45;&gt;Node3 -->
<g id="edge2" class="edge">
<title>Node1&#45;&gt;Node3</title>
<path fill="none" stroke="midnightblue" d="M191.34,-143.31C161.7,-137.39 127.12,-124.78 108.5,-98 93.73,-76.76 107.99,-46.73 119.99,-28.08"/>
<polygon fill="midnightblue" stroke="midnightblue" points="122.96,-29.93 125.72,-19.7 117.18,-25.98 122.96,-29.93"/>
</g>
<!-- Node4 -->
<g id="node4" class="node">
<title>Node4</title>
<g id="a_node4"><a xlink:href="f__pc__create__tag_8h.html" target="_top" xlink:title=" ">
<polygon fill="white" stroke="black" points="117.5,-67.5 117.5,-86.5 233.5,-86.5 233.5,-67.5 117.5,-67.5"/>
<text text-anchor="middle" x="175.5" y="-74.5" font-family="Helvetica,sans-Serif" font-size="10.00">f_pc/f_pc_create_tag.h</text>
</a>
</g>
</g>
<!-- Node1&#45;&gt;Node4 -->
<g id="edge3" class="edge">
<title>Node1&#45;&gt;Node4</title>
<path fill="none" stroke="midnightblue" d="M230.54,-134.23C219.17,-122.62 203.12,-106.22 191.28,-94.12"/>
<polygon fill="midnightblue" stroke="midnightblue" points="193.7,-91.59 184.2,-86.89 188.7,-96.49 193.7,-91.59"/>
</g>
<!-- Node5 -->
<g id="node5" class="node">
<title>Node5</title>
<g id="a_node5"><a xlink:title=" ">
<polygon fill="white" stroke="#bfbfbf" points="252,-56.5 252,-97.5 377,-97.5 377,-56.5 252,-56.5"/>
<text text-anchor="start" x="260" y="-85.5" font-family="Helvetica,sans-Serif" font-size="10.00">asm/f_pc/f_pc_create</text>
<text text-anchor="start" x="260" y="-74.5" font-family="Helvetica,sans-Serif" font-size="10.00">_tag/fpcCtTg_ToCreateQ</text>
<text text-anchor="middle" x="314.5" y="-63.5" font-family="Helvetica,sans-Serif" font-size="10.00">__FP10create_tag.s</text>
</a>
</g>
</g>
<!-- Node1&#45;&gt;Node5 -->
<g id="edge5" class="edge">
<title>Node1&#45;&gt;Node5</title>
<path fill="none" stroke="midnightblue" d="M258.67,-134.23C267.01,-125.83 277.83,-114.93 287.72,-104.97"/>
<polygon fill="midnightblue" stroke="midnightblue" points="290.49,-107.15 295.05,-97.59 285.52,-102.22 290.49,-107.15"/>
</g>
<!-- Node6 -->
<g id="node6" class="node">
<title>Node6</title>
<g id="a_node6"><a xlink:title=" ">
<polygon fill="white" stroke="#bfbfbf" points="395,-56.5 395,-97.5 520,-97.5 520,-56.5 395,-56.5"/>
<text text-anchor="start" x="403" y="-85.5" font-family="Helvetica,sans-Serif" font-size="10.00">asm/f_pc/f_pc_create</text>
<text text-anchor="start" x="403" y="-74.5" font-family="Helvetica,sans-Serif" font-size="10.00">_tag/fpcCtTg_CreateQTo</text>
<text text-anchor="middle" x="457.5" y="-63.5" font-family="Helvetica,sans-Serif" font-size="10.00">__FP10create_tag.s</text>
</a>
</g>
</g>
<!-- Node1&#45;&gt;Node6 -->
<g id="edge6" class="edge">
<title>Node1&#45;&gt;Node6</title>
<path fill="none" stroke="midnightblue" d="M286.84,-134.49C315.88,-124.87 355.07,-111.9 388.57,-100.82"/>
<polygon fill="midnightblue" stroke="midnightblue" points="389.91,-104.06 398.31,-97.59 387.71,-97.41 389.91,-104.06"/>
</g>
<!-- Node7 -->
<g id="node7" class="node">
<title>Node7</title>
<g id="a_node7"><a xlink:title=" ">
<polygon fill="white" stroke="#bfbfbf" points="538.5,-56.5 538.5,-97.5 690.5,-97.5 690.5,-56.5 538.5,-56.5"/>
<text text-anchor="start" x="546.5" y="-85.5" font-family="Helvetica,sans-Serif" font-size="10.00">asm/f_pc/f_pc_create</text>
<text text-anchor="start" x="546.5" y="-74.5" font-family="Helvetica,sans-Serif" font-size="10.00">_tag/fpcCtTg_Init__FP10create</text>
<text text-anchor="middle" x="614.5" y="-63.5" font-family="Helvetica,sans-Serif" font-size="10.00">_tagPv.s</text>
</a>
</g>
</g>
<!-- Node1&#45;&gt;Node7 -->
<g id="edge7" class="edge">
<title>Node1&#45;&gt;Node7</title>
<path fill="none" stroke="midnightblue" d="M297.72,-139.98C352.97,-130.93 442.11,-115.76 528.16,-98.23"/>
<polygon fill="midnightblue" stroke="midnightblue" points="529,-101.63 538.09,-96.19 527.59,-94.77 529,-101.63"/>
</g>
<!-- Node4&#45;&gt;Node3 -->
<g id="edge4" class="edge">
<title>Node4&#45;&gt;Node3</title>
<path fill="none" stroke="midnightblue" d="M169.7,-67.23C163.12,-57.29 152.24,-40.84 143.94,-28.29"/>
<polygon fill="midnightblue" stroke="midnightblue" points="146.64,-26.04 138.21,-19.63 140.81,-29.9 146.64,-26.04"/>
</g>
</g>
</svg>
