<?xml version="1.0" encoding="UTF-8" standalone="no"?>
<!DOCTYPE svg PUBLIC "-//W3C//DTD SVG 1.1//EN"
 "http://www.w3.org/Graphics/SVG/1.1/DTD/svg11.dtd">
<!-- Generated by graphviz version 2.47.0 (20210316.2052)
 -->
<!-- Title: src/f_pc/f_pc_delete_tag.cpp Pages: 1 -->
<!--zoomable 173 -->
<svg id="main" version="1.1" xmlns="http://www.w3.org/2000/svg" xmlns:xlink="http://www.w3.org/1999/xlink" xml:space="preserve" onload="init(evt)">
<style type="text/css"><![CDATA[
.edge:hover path { stroke: red; }
.edge:hover polygon { stroke: red; fill: red; }
]]></style>
<script type="text/javascript"><![CDATA[
var edges = document.getElementsByTagName('g');
if (edges && edges.length) {
  for (var i=0;i<edges.length;i++) {
    if (edges[i].id.substr(0,4)=='edge') {
      edges[i].setAttribute('class','edge');
    }
  }
}
]]></script>
        <defs>
                <circle id="rim" cx="0" cy="0" r="7"/>
                <circle id="rim2" cx="0" cy="0" r="3.5"/>
                <g id="zoomPlus">
                        <use xlink:href="#rim" fill="#404040">
                                <set attributeName="fill" to="#808080" begin="zoomplus.mouseover" end="zoomplus.mouseout"/>
                        </use>
                        <path d="M-4,0h8M0,-4v8" fill="none" stroke="white" stroke-width="1.5" pointer-events="none"/>
                </g>
                <g id="zoomMin">
                        <use xlink:href="#rim" fill="#404040">
                                <set attributeName="fill" to="#808080" begin="zoomminus.mouseover" end="zoomminus.mouseout"/>
                        </use>
                        <path d="M-4,0h8" fill="none" stroke="white" stroke-width="1.5" pointer-events="none"/>
                </g>
                <g id="dirArrow">
                        <path fill="none" stroke="white" stroke-width="1.5" d="M0,-3.0v7 M-2.5,-0.5L0,-3.0L2.5,-0.5"/>
                </g>
               <g id="resetDef">
                       <use xlink:href="#rim2" fill="#404040">
                               <set attributeName="fill" to="#808080" begin="reset.mouseover" end="reset.mouseout"/>
                       </use>
               </g>
        </defs>

<script type="text/javascript">
var viewWidth = 1039;
var viewHeight = 173;
var sectionId = 'dynsection-0';
</script>
<script xlink:href="svgpan.js"/>
<svg id="graph" class="graph">
<g id="viewport">
<title>src/f_pc/f_pc_delete_tag.cpp</title>
<polygon fill="white" stroke="transparent" points="-4,4 -4,-169 1034.5,-169 1034.5,4 -4,4"/>
<!-- Node1 -->
<g id="node1" class="node">
<title>Node1</title>
<g id="a_node1"><a xlink:title=" ">
<polygon fill="#bfbfbf" stroke="black" points="347,-134.5 347,-164.5 452,-164.5 452,-134.5 347,-134.5"/>
<text text-anchor="start" x="355" y="-152.5" font-family="Helvetica,sans-Serif" font-size="10.00">src/f_pc/f_pc_delete</text>
<text text-anchor="middle" x="399.5" y="-141.5" font-family="Helvetica,sans-Serif" font-size="10.00">_tag.cpp</text>
</a>
</g>
</g>
<!-- Node2 -->
<g id="node2" class="node">
<title>Node2</title>
<g id="a_node2"><a xlink:href="dol2asm_8h.html" target="_top" xlink:title=" ">
<polygon fill="white" stroke="black" points="0,-67.5 0,-86.5 61,-86.5 61,-67.5 0,-67.5"/>
<text text-anchor="middle" x="30.5" y="-74.5" font-family="Helvetica,sans-Serif" font-size="10.00">dol2asm.h</text>
</a>
</g>
</g>
<!-- Node1&#45;&gt;Node2 -->
<g id="edge1" class="edge">
<title>Node1&#45;&gt;Node2</title>
<path fill="none" stroke="midnightblue" d="M346.95,-144.59C282.08,-138.8 168.88,-125.5 75.5,-98 69.15,-96.13 62.52,-93.56 56.37,-90.89"/>
<polygon fill="midnightblue" stroke="midnightblue" points="57.74,-87.67 47.2,-86.68 54.83,-94.03 57.74,-87.67"/>
</g>
<!-- Node3 -->
<g id="node3" class="node">
<title>Node3</title>
<g id="a_node3"><a xlink:href="types_8h.html" target="_top" xlink:title=" ">
<polygon fill="white" stroke="black" points="92,-0.5 92,-19.5 173,-19.5 173,-0.5 92,-0.5"/>
<text text-anchor="middle" x="132.5" y="-7.5" font-family="Helvetica,sans-Serif" font-size="10.00">dolphin/types.h</text>
</a>
</g>
</g>
<!-- Node1&#45;&gt;Node3 -->
<g id="edge2" class="edge">
<title>Node1&#45;&gt;Node3</title>
<path fill="none" stroke="midnightblue" d="M346.76,-147.14C271.54,-143.96 139.23,-133.35 109.5,-98 92.74,-78.06 107.56,-47.2 119.94,-28.09"/>
<polygon fill="midnightblue" stroke="midnightblue" points="122.89,-29.98 125.67,-19.76 117.12,-26.01 122.89,-29.98"/>
</g>
<!-- Node4 -->
<g id="node4" class="node">
<title>Node4</title>
<g id="a_node4"><a xlink:href="f__pc__delete__tag_8h.html" target="_top" xlink:title=" ">
<polygon fill="white" stroke="black" points="118,-67.5 118,-86.5 233,-86.5 233,-67.5 118,-67.5"/>
<text text-anchor="middle" x="175.5" y="-74.5" font-family="Helvetica,sans-Serif" font-size="10.00">f_pc/f_pc_delete_tag.h</text>
</a>
</g>
</g>
<!-- Node1&#45;&gt;Node4 -->
<g id="edge3" class="edge">
<title>Node1&#45;&gt;Node4</title>
<path fill="none" stroke="midnightblue" d="M354.98,-134.49C313.19,-121.34 251.43,-101.9 212.35,-89.6"/>
<polygon fill="midnightblue" stroke="midnightblue" points="213.27,-86.22 202.68,-86.55 211.17,-92.9 213.27,-86.22"/>
</g>
<!-- Node5 -->
<g id="node5" class="node">
<title>Node5</title>
<g id="a_node5"><a xlink:title=" ">
<polygon fill="white" stroke="#bfbfbf" points="251,-62 251,-92 394,-92 394,-62 251,-62"/>
<text text-anchor="start" x="259" y="-80" font-family="Helvetica,sans-Serif" font-size="10.00">asm/f_pc/f_pc_delete</text>
<text text-anchor="middle" x="322.5" y="-69" font-family="Helvetica,sans-Serif" font-size="10.00">_tag/fpcDtTg_IsEmpty__Fv.s</text>
</a>
</g>
</g>
<!-- Node1&#45;&gt;Node5 -->
<g id="edge5" class="edge">
<title>Node1&#45;&gt;Node5</title>
<path fill="none" stroke="midnightblue" d="M383.92,-134.23C372.89,-124.13 357.91,-110.42 345.51,-99.07"/>
<polygon fill="midnightblue" stroke="midnightblue" points="347.54,-96.18 337.8,-92 342.81,-101.34 347.54,-96.18"/>
</g>
<!-- Node6 -->
<g id="node6" class="node">
<title>Node6</title>
<g id="a_node6"><a xlink:title=" ">
<polygon fill="white" stroke="#bfbfbf" points="412,-56.5 412,-97.5 543,-97.5 543,-56.5 412,-56.5"/>
<text text-anchor="start" x="420" y="-85.5" font-family="Helvetica,sans-Serif" font-size="10.00">asm/f_pc/f_pc_delete</text>
<text text-anchor="start" x="420" y="-74.5" font-family="Helvetica,sans-Serif" font-size="10.00">_tag/fpcDtTg_ToDeleteQ</text>
<text text-anchor="middle" x="477.5" y="-63.5" font-family="Helvetica,sans-Serif" font-size="10.00">__FP16delete_tag_class.s</text>
</a>
</g>
</g>
<!-- Node1&#45;&gt;Node6 -->
<g id="edge6" class="edge">
<title>Node1&#45;&gt;Node6</title>
<path fill="none" stroke="midnightblue" d="M415.28,-134.23C424.76,-125.67 437.11,-114.5 448.31,-104.38"/>
<polygon fill="midnightblue" stroke="midnightblue" points="450.76,-106.89 455.83,-97.59 446.06,-101.7 450.76,-106.89"/>
</g>
<!-- Node7 -->
<g id="node7" class="node">
<title>Node7</title>
<g id="a_node7"><a xlink:title=" ">
<polygon fill="white" stroke="#bfbfbf" points="561,-56.5 561,-97.5 692,-97.5 692,-56.5 561,-56.5"/>
<text text-anchor="start" x="569" y="-85.5" font-family="Helvetica,sans-Serif" font-size="10.00">asm/f_pc/f_pc_delete</text>
<text text-anchor="start" x="569" y="-74.5" font-family="Helvetica,sans-Serif" font-size="10.00">_tag/fpcDtTg_DeleteQTo</text>
<text text-anchor="middle" x="626.5" y="-63.5" font-family="Helvetica,sans-Serif" font-size="10.00">__FP16delete_tag_class.s</text>
</a>
</g>
</g>
<!-- Node1&#45;&gt;Node7 -->
<g id="edge7" class="edge">
<title>Node1&#45;&gt;Node7</title>
<path fill="none" stroke="midnightblue" d="M444.62,-134.49C475.7,-124.83 517.69,-111.79 553.5,-100.67"/>
<polygon fill="midnightblue" stroke="midnightblue" points="554.9,-103.9 563.42,-97.59 552.83,-97.22 554.9,-103.9"/>
</g>
<!-- Node8 -->
<g id="node8" class="node">
<title>Node8</title>
<g id="a_node8"><a xlink:title=" ">
<polygon fill="white" stroke="#bfbfbf" points="710.5,-56.5 710.5,-97.5 860.5,-97.5 860.5,-56.5 710.5,-56.5"/>
<text text-anchor="start" x="718.5" y="-85.5" font-family="Helvetica,sans-Serif" font-size="10.00">asm/f_pc/f_pc_delete</text>
<text text-anchor="start" x="718.5" y="-74.5" font-family="Helvetica,sans-Serif" font-size="10.00">_tag/fpcDtTg_Do__FP16delete</text>
<text text-anchor="middle" x="785.5" y="-63.5" font-family="Helvetica,sans-Serif" font-size="10.00">_tag_classPFPv_i.s</text>
</a>
</g>
</g>
<!-- Node1&#45;&gt;Node8 -->
<g id="edge8" class="edge">
<title>Node1&#45;&gt;Node8</title>
<path fill="none" stroke="midnightblue" d="M452.07,-140.82C510.42,-132.05 607.57,-116.71 700.59,-98.12"/>
<polygon fill="midnightblue" stroke="midnightblue" points="701.34,-101.54 710.45,-96.14 699.96,-94.68 701.34,-101.54"/>
</g>
<!-- Node9 -->
<g id="node9" class="node">
<title>Node9</title>
<g id="a_node9"><a xlink:title=" ">
<polygon fill="white" stroke="#bfbfbf" points="878.5,-56.5 878.5,-97.5 1030.5,-97.5 1030.5,-56.5 878.5,-56.5"/>
<text text-anchor="start" x="886.5" y="-85.5" font-family="Helvetica,sans-Serif" font-size="10.00">asm/f_pc/f_pc_delete</text>
<text text-anchor="start" x="886.5" y="-74.5" font-family="Helvetica,sans-Serif" font-size="10.00">_tag/fpcDtTg_Init__FP16delete</text>
<text text-anchor="middle" x="954.5" y="-63.5" font-family="Helvetica,sans-Serif" font-size="10.00">_tag_classPv.s</text>
</a>
</g>
</g>
<!-- Node1&#45;&gt;Node9 -->
<g id="edge9" class="edge">
<title>Node1&#45;&gt;Node9</title>
<path fill="none" stroke="midnightblue" d="M452.31,-144.97C537.71,-138.8 711.56,-124.29 867.87,-98.18"/>
<polygon fill="midnightblue" stroke="midnightblue" points="868.86,-101.56 878.14,-96.44 867.69,-94.66 868.86,-101.56"/>
</g>
<!-- Node4&#45;&gt;Node3 -->
<g id="edge4" class="edge">
<title>Node4&#45;&gt;Node3</title>
<path fill="none" stroke="midnightblue" d="M169.7,-67.23C163.12,-57.29 152.24,-40.84 143.94,-28.29"/>
<polygon fill="midnightblue" stroke="midnightblue" points="146.64,-26.04 138.21,-19.63 140.81,-29.9 146.64,-26.04"/>
</g>
</g>
</svg>
        <g id="navigator" transform="translate(0 0)" fill="#404254">
                <rect fill="#f2f5e9" fill-opacity="0.5" stroke="#606060" stroke-width=".5" x="0" y="0" width="60" height="60"/>
                <use id="zoomplus" xlink:href="#zoomPlus" x="17" y="9" onmousedown="handleZoom(evt,'in')"/>
                <use id="zoomminus" xlink:href="#zoomMin" x="42" y="9" onmousedown="handleZoom(evt,'out')"/>
                <use id="reset" xlink:href="#resetDef" x="30" y="36" onmousedown="handleReset()"/>
                <g id="arrowUp" xlink:href="#dirArrow" transform="translate(30 24)" onmousedown="handlePan(0,-1)">
                  <use xlink:href="#rim" fill="#404040">
                        <set attributeName="fill" to="#808080" begin="arrowUp.mouseover" end="arrowUp.mouseout"/>
                  </use>
                  <path fill="none" stroke="white" stroke-width="1.5" d="M0,-3.0v7 M-2.5,-0.5L0,-3.0L2.5,-0.5"/>
                </g>
                <g id="arrowRight" xlink:href="#dirArrow" transform="rotate(90) translate(36 -43)" onmousedown="handlePan(1,0)">
                  <use xlink:href="#rim" fill="#404040">
                        <set attributeName="fill" to="#808080" begin="arrowRight.mouseover" end="arrowRight.mouseout"/>
                  </use>
                  <path fill="none" stroke="white" stroke-width="1.5" d="M0,-3.0v7 M-2.5,-0.5L0,-3.0L2.5,-0.5"/>
                </g>
                <g id="arrowDown" xlink:href="#dirArrow" transform="rotate(180) translate(-30 -48)" onmousedown="handlePan(0,1)">
                  <use xlink:href="#rim" fill="#404040">
                        <set attributeName="fill" to="#808080" begin="arrowDown.mouseover" end="arrowDown.mouseout"/>
                  </use>
                  <path fill="none" stroke="white" stroke-width="1.5" d="M0,-3.0v7 M-2.5,-0.5L0,-3.0L2.5,-0.5"/>
                </g>
                <g id="arrowLeft" xlink:href="#dirArrow" transform="rotate(270) translate(-36 17)" onmousedown="handlePan(-1,0)">
                  <use xlink:href="#rim" fill="#404040">
                        <set attributeName="fill" to="#808080" begin="arrowLeft.mouseover" end="arrowLeft.mouseout"/>
                  </use>
                  <path fill="none" stroke="white" stroke-width="1.5" d="M0,-3.0v7 M-2.5,-0.5L0,-3.0L2.5,-0.5"/>
                </g>
        </g>
        <svg viewBox="0 0 15 15" width="100%" height="30px" preserveAspectRatio="xMaxYMin meet">
         <g id="arrow_out" transform="scale(0.3 0.3)">
          <a xlink:href="f__pc__delete__tag_8cpp__incl_org.svg" target="_base">
           <rect id="button" ry="5" rx="5" y="6" x="6" height="38" width="38"
                fill="#f2f5e9" fill-opacity="0.5" stroke="#606060" stroke-width="1.0"/>
           <path id="arrow"
             d="M 11.500037,31.436501 C 11.940474,20.09759 22.043105,11.32322 32.158766,21.979434 L 37.068811,17.246167 C 37.068811,17.246167 37.088388,32 37.088388,32 L 22.160133,31.978069 C 22.160133,31.978069 26.997745,27.140456 26.997745,27.140456 C 18.528582,18.264221 13.291696,25.230495 11.500037,31.436501 z"
             style="fill:#404040;"/>
          </a>
         </g>
        </svg>
</svg>
