<?xml version="1.0" encoding="UTF-8" standalone="no"?>
<!DOCTYPE svg PUBLIC "-//W3C//DTD SVG 1.1//EN"
 "http://www.w3.org/Graphics/SVG/1.1/DTD/svg11.dtd">
<!-- Generated by graphviz version 2.47.0 (20210316.2052)
 -->
<!-- Title: src/f_pc/f_pc_line_tag.cpp Pages: 1 -->
<svg width="824pt" height="173pt"
 viewBox="0.00 0.00 824.00 173.00" xmlns="http://www.w3.org/2000/svg" xmlns:xlink="http://www.w3.org/1999/xlink">
<g id="graph0" class="graph" transform="scale(1 1) rotate(0) translate(4 169)">
<title>src/f_pc/f_pc_line_tag.cpp</title>
<polygon fill="white" stroke="transparent" points="-4,4 -4,-169 820,-169 820,4 -4,4"/>
<!-- Node1 -->
<g id="node1" class="node">
<title>Node1</title>
<g id="a_node1"><a xlink:title=" ">
<polygon fill="#bfbfbf" stroke="black" points="266.5,-134.5 266.5,-164.5 360.5,-164.5 360.5,-134.5 266.5,-134.5"/>
<text text-anchor="start" x="274.5" y="-152.5" font-family="Helvetica,sans-Serif" font-size="10.00">src/f_pc/f_pc_line</text>
<text text-anchor="middle" x="313.5" y="-141.5" font-family="Helvetica,sans-Serif" font-size="10.00">_tag.cpp</text>
</a>
</g>
</g>
<!-- Node2 -->
<g id="node2" class="node">
<title>Node2</title>
<g id="a_node2"><a xlink:href="dol2asm_8h.html" target="_top" xlink:title=" ">
<polygon fill="white" stroke="black" points="0,-67.5 0,-86.5 61,-86.5 61,-67.5 0,-67.5"/>
<text text-anchor="middle" x="30.5" y="-74.5" font-family="Helvetica,sans-Serif" font-size="10.00">dol2asm.h</text>
</a>
</g>
</g>
<!-- Node1&#45;&gt;Node2 -->
<g id="edge1" class="edge">
<title>Node1&#45;&gt;Node2</title>
<path fill="none" stroke="midnightblue" d="M266.22,-141.47C217.64,-133.55 140.19,-118.98 75.5,-98 69.46,-96.04 63.13,-93.53 57.19,-90.96"/>
<polygon fill="midnightblue" stroke="midnightblue" points="58.24,-87.59 47.69,-86.66 55.36,-93.97 58.24,-87.59"/>
</g>
<!-- Node3 -->
<g id="node3" class="node">
<title>Node3</title>
<g id="a_node3"><a xlink:href="types_8h.html" target="_top" xlink:title=" ">
<polygon fill="white" stroke="black" points="89,-0.5 89,-19.5 170,-19.5 170,-0.5 89,-0.5"/>
<text text-anchor="middle" x="129.5" y="-7.5" font-family="Helvetica,sans-Serif" font-size="10.00">dolphin/types.h</text>
</a>
</g>
</g>
<!-- Node1&#45;&gt;Node3 -->
<g id="edge2" class="edge">
<title>Node1&#45;&gt;Node3</title>
<path fill="none" stroke="midnightblue" d="M266.14,-143.53C211.81,-136.75 127.72,-122.52 108.5,-98 92.6,-77.7 106.14,-47.16 117.63,-28.18"/>
<polygon fill="midnightblue" stroke="midnightblue" points="120.65,-29.96 123.13,-19.66 114.77,-26.17 120.65,-29.96"/>
</g>
<!-- Node4 -->
<g id="node4" class="node">
<title>Node4</title>
<g id="a_node4"><a xlink:href="f__pc__line__tag_8h.html" target="_top" xlink:title=" ">
<polygon fill="white" stroke="black" points="117.5,-67.5 117.5,-86.5 221.5,-86.5 221.5,-67.5 117.5,-67.5"/>
<text text-anchor="middle" x="169.5" y="-74.5" font-family="Helvetica,sans-Serif" font-size="10.00">f_pc/f_pc_line_tag.h</text>
</a>
</g>
</g>
<!-- Node1&#45;&gt;Node4 -->
<g id="edge3" class="edge">
<title>Node1&#45;&gt;Node4</title>
<path fill="none" stroke="midnightblue" d="M284.71,-134.4C258.91,-121.77 221.38,-103.4 196.23,-91.09"/>
<polygon fill="midnightblue" stroke="midnightblue" points="197.45,-87.79 186.93,-86.53 194.37,-94.07 197.45,-87.79"/>
</g>
<!-- Node5 -->
<g id="node5" class="node">
<title>Node5</title>
<g id="a_node5"><a xlink:title=" ">
<polygon fill="white" stroke="#bfbfbf" points="240,-56.5 240,-97.5 387,-97.5 387,-56.5 240,-56.5"/>
<text text-anchor="start" x="248" y="-85.5" font-family="Helvetica,sans-Serif" font-size="10.00">asm/f_pc/f_pc_line</text>
<text text-anchor="start" x="248" y="-74.5" font-family="Helvetica,sans-Serif" font-size="10.00">_tag/fpcLnTg_Move__FP8line</text>
<text text-anchor="middle" x="313.5" y="-63.5" font-family="Helvetica,sans-Serif" font-size="10.00">_tagi.s</text>
</a>
</g>
</g>
<!-- Node1&#45;&gt;Node5 -->
<g id="edge5" class="edge">
<title>Node1&#45;&gt;Node5</title>
<path fill="none" stroke="midnightblue" d="M313.5,-134.23C313.5,-126.57 313.5,-116.84 313.5,-107.63"/>
<polygon fill="midnightblue" stroke="midnightblue" points="317,-107.59 313.5,-97.59 310,-107.59 317,-107.59"/>
</g>
<!-- Node6 -->
<g id="node6" class="node">
<title>Node6</title>
<g id="a_node6"><a xlink:title=" ">
<polygon fill="white" stroke="#bfbfbf" points="405,-56.5 405,-97.5 524,-97.5 524,-56.5 405,-56.5"/>
<text text-anchor="start" x="413" y="-85.5" font-family="Helvetica,sans-Serif" font-size="10.00">asm/f_pc/f_pc_line</text>
<text text-anchor="start" x="413" y="-74.5" font-family="Helvetica,sans-Serif" font-size="10.00">_tag/fpcLnTg_QueueTo</text>
<text text-anchor="middle" x="464.5" y="-63.5" font-family="Helvetica,sans-Serif" font-size="10.00">__FP8line_tag.s</text>
</a>
</g>
</g>
<!-- Node1&#45;&gt;Node6 -->
<g id="edge6" class="edge">
<title>Node1&#45;&gt;Node6</title>
<path fill="none" stroke="midnightblue" d="M343.69,-134.4C363.59,-125.11 390.14,-112.72 413.29,-101.91"/>
<polygon fill="midnightblue" stroke="midnightblue" points="415.05,-104.95 422.63,-97.55 412.09,-98.61 415.05,-104.95"/>
</g>
<!-- Node7 -->
<g id="node7" class="node">
<title>Node7</title>
<g id="a_node7"><a xlink:title=" ">
<polygon fill="white" stroke="#bfbfbf" points="542,-56.5 542,-97.5 661,-97.5 661,-56.5 542,-56.5"/>
<text text-anchor="start" x="550" y="-85.5" font-family="Helvetica,sans-Serif" font-size="10.00">asm/f_pc/f_pc_line</text>
<text text-anchor="start" x="550" y="-74.5" font-family="Helvetica,sans-Serif" font-size="10.00">_tag/fpcLnTg_ToQueue</text>
<text text-anchor="middle" x="601.5" y="-63.5" font-family="Helvetica,sans-Serif" font-size="10.00">__FP8line_tagi.s</text>
</a>
</g>
</g>
<!-- Node1&#45;&gt;Node7 -->
<g id="edge7" class="edge">
<title>Node1&#45;&gt;Node7</title>
<path fill="none" stroke="midnightblue" d="M360.91,-138.48C403.42,-129.31 467.7,-114.96 531.96,-98.34"/>
<polygon fill="midnightblue" stroke="midnightblue" points="533.06,-101.67 541.85,-95.76 531.29,-94.9 533.06,-101.67"/>
</g>
<!-- Node8 -->
<g id="node8" class="node">
<title>Node8</title>
<g id="a_node8"><a xlink:title=" ">
<polygon fill="white" stroke="#bfbfbf" points="679,-56.5 679,-97.5 816,-97.5 816,-56.5 679,-56.5"/>
<text text-anchor="start" x="687" y="-85.5" font-family="Helvetica,sans-Serif" font-size="10.00">asm/f_pc/f_pc_line</text>
<text text-anchor="start" x="687" y="-74.5" font-family="Helvetica,sans-Serif" font-size="10.00">_tag/fpcLnTg_Init__FP8line</text>
<text text-anchor="middle" x="747.5" y="-63.5" font-family="Helvetica,sans-Serif" font-size="10.00">_tagPv.s</text>
</a>
</g>
</g>
<!-- Node1&#45;&gt;Node8 -->
<g id="edge8" class="edge">
<title>Node1&#45;&gt;Node8</title>
<path fill="none" stroke="midnightblue" d="M360.57,-143.57C427.19,-136.21 552.94,-120.93 668.65,-98.27"/>
<polygon fill="midnightblue" stroke="midnightblue" points="669.61,-101.65 678.74,-96.27 668.25,-94.78 669.61,-101.65"/>
</g>
<!-- Node4&#45;&gt;Node3 -->
<g id="edge4" class="edge">
<title>Node4&#45;&gt;Node3</title>
<path fill="none" stroke="midnightblue" d="M164.11,-67.23C157.99,-57.29 147.86,-40.84 140.14,-28.29"/>
<polygon fill="midnightblue" stroke="midnightblue" points="143.03,-26.31 134.81,-19.63 137.07,-29.98 143.03,-26.31"/>
</g>
</g>
</svg>
