<?xml version="1.0" encoding="UTF-8" standalone="no"?>
<!DOCTYPE svg PUBLIC "-//W3C//DTD SVG 1.1//EN"
 "http://www.w3.org/Graphics/SVG/1.1/DTD/svg11.dtd">
<!-- Generated by graphviz version 2.47.0 (20210316.2052)
 -->
<!-- Title: src/f_pc/f_pc_leaf.cpp Pages: 1 -->
<svg width="1374pt" height="162pt"
 viewBox="0.00 0.00 1374.00 162.00" xmlns="http://www.w3.org/2000/svg" xmlns:xlink="http://www.w3.org/1999/xlink">
<g id="graph0" class="graph" transform="scale(1 1) rotate(0) translate(4 158)">
<title>src/f_pc/f_pc_leaf.cpp</title>
<polygon fill="white" stroke="transparent" points="-4,4 -4,-158 1370,-158 1370,4 -4,4"/>
<!-- Node1 -->
<g id="node1" class="node">
<title>Node1</title>
<g id="a_node1"><a xlink:title=" ">
<polygon fill="#bfbfbf" stroke="black" points="481.5,-134.5 481.5,-153.5 594.5,-153.5 594.5,-134.5 481.5,-134.5"/>
<text text-anchor="middle" x="538" y="-141.5" font-family="Helvetica,sans-Serif" font-size="10.00">src/f_pc/f_pc_leaf.cpp</text>
</a>
</g>
</g>
<!-- Node2 -->
<g id="node2" class="node">
<title>Node2</title>
<g id="a_node2"><a xlink:href="f__pc__leaf_8h.html" target="_top" xlink:title=" ">
<polygon fill="white" stroke="black" points="0,-67.5 0,-86.5 86,-86.5 86,-67.5 0,-67.5"/>
<text text-anchor="middle" x="43" y="-74.5" font-family="Helvetica,sans-Serif" font-size="10.00">f_pc/f_pc_leaf.h</text>
</a>
</g>
</g>
<!-- Node1&#45;&gt;Node2 -->
<g id="edge1" class="edge">
<title>Node1&#45;&gt;Node2</title>
<path fill="none" stroke="midnightblue" d="M481.32,-141.42C397.17,-138.13 234.65,-128.1 100,-98 91.1,-96.01 81.67,-93.06 73.09,-90.04"/>
<polygon fill="midnightblue" stroke="midnightblue" points="74.1,-86.68 63.5,-86.51 71.68,-93.25 74.1,-86.68"/>
</g>
<!-- Node3 -->
<g id="node3" class="node">
<title>Node3</title>
<g id="a_node3"><a xlink:href="types_8h.html" target="_top" xlink:title=" ">
<polygon fill="white" stroke="black" points="37.5,-0.5 37.5,-19.5 118.5,-19.5 118.5,-0.5 37.5,-0.5"/>
<text text-anchor="middle" x="78" y="-7.5" font-family="Helvetica,sans-Serif" font-size="10.00">dolphin/types.h</text>
</a>
</g>
</g>
<!-- Node1&#45;&gt;Node3 -->
<g id="edge4" class="edge">
<title>Node1&#45;&gt;Node3</title>
<path fill="none" stroke="midnightblue" d="M481.11,-142.59C383.87,-140.92 190.68,-133.14 134,-98 108.39,-82.12 92.3,-49.7 84.24,-29.23"/>
<polygon fill="midnightblue" stroke="midnightblue" points="87.5,-27.94 80.76,-19.76 80.93,-30.36 87.5,-27.94"/>
</g>
<!-- Node4 -->
<g id="node4" class="node">
<title>Node4</title>
<g id="a_node4"><a xlink:href="dol2asm_8h.html" target="_top" xlink:title=" ">
<polygon fill="white" stroke="black" points="142.5,-67.5 142.5,-86.5 203.5,-86.5 203.5,-67.5 142.5,-67.5"/>
<text text-anchor="middle" x="173" y="-74.5" font-family="Helvetica,sans-Serif" font-size="10.00">dol2asm.h</text>
</a>
</g>
</g>
<!-- Node1&#45;&gt;Node4 -->
<g id="edge3" class="edge">
<title>Node1&#45;&gt;Node4</title>
<path fill="none" stroke="midnightblue" d="M481.3,-140.73C415.47,-136.83 304.27,-126.29 213,-98 207.44,-96.28 201.7,-93.85 196.37,-91.27"/>
<polygon fill="midnightblue" stroke="midnightblue" points="197.83,-88.08 187.34,-86.6 194.61,-94.3 197.83,-88.08"/>
</g>
<!-- Node5 -->
<g id="node5" class="node">
<title>Node5</title>
<g id="a_node5"><a xlink:title=" ">
<polygon fill="white" stroke="#bfbfbf" points="221.5,-56.5 221.5,-97.5 346.5,-97.5 346.5,-56.5 221.5,-56.5"/>
<text text-anchor="start" x="229.5" y="-85.5" font-family="Helvetica,sans-Serif" font-size="10.00">asm/f_pc/f_pc_leaf</text>
<text text-anchor="start" x="229.5" y="-74.5" font-family="Helvetica,sans-Serif" font-size="10.00">/fpcLf_GetPriority_</text>
<text text-anchor="middle" x="284" y="-63.5" font-family="Helvetica,sans-Serif" font-size="10.00">_FPC14leafdraw_class.s</text>
</a>
</g>
</g>
<!-- Node1&#45;&gt;Node5 -->
<g id="edge5" class="edge">
<title>Node1&#45;&gt;Node5</title>
<path fill="none" stroke="midnightblue" d="M502.01,-134.42C467.25,-126.07 412.89,-112.81 356.59,-98.12"/>
<polygon fill="midnightblue" stroke="midnightblue" points="357.36,-94.71 346.8,-95.56 355.59,-101.48 357.36,-94.71"/>
</g>
<!-- Node6 -->
<g id="node6" class="node">
<title>Node6</title>
<g id="a_node6"><a xlink:title=" ">
<polygon fill="white" stroke="#bfbfbf" points="364.5,-56.5 364.5,-97.5 537.5,-97.5 537.5,-56.5 364.5,-56.5"/>
<text text-anchor="start" x="372.5" y="-85.5" font-family="Helvetica,sans-Serif" font-size="10.00">asm/f_pc/f_pc_leaf</text>
<text text-anchor="start" x="372.5" y="-74.5" font-family="Helvetica,sans-Serif" font-size="10.00">/fpcLf_DrawMethod__FP21leafdraw</text>
<text text-anchor="middle" x="451" y="-63.5" font-family="Helvetica,sans-Serif" font-size="10.00">_method_classPv.s</text>
</a>
</g>
</g>
<!-- Node1&#45;&gt;Node6 -->
<g id="edge6" class="edge">
<title>Node1&#45;&gt;Node6</title>
<path fill="none" stroke="midnightblue" d="M526.27,-134.23C515.8,-126.41 499.93,-114.56 485.46,-103.75"/>
<polygon fill="midnightblue" stroke="midnightblue" points="487.26,-100.72 477.16,-97.54 483.07,-106.33 487.26,-100.72"/>
</g>
<!-- Node7 -->
<g id="node7" class="node">
<title>Node7</title>
<g id="a_node7"><a xlink:title=" ">
<polygon fill="white" stroke="#bfbfbf" points="556,-56.5 556,-97.5 696,-97.5 696,-56.5 556,-56.5"/>
<text text-anchor="start" x="564" y="-85.5" font-family="Helvetica,sans-Serif" font-size="10.00">asm/f_pc/f_pc_leaf</text>
<text text-anchor="start" x="564" y="-74.5" font-family="Helvetica,sans-Serif" font-size="10.00">/fpcLf_Draw__FP14leafdraw</text>
<text text-anchor="middle" x="626" y="-63.5" font-family="Helvetica,sans-Serif" font-size="10.00">_class.s</text>
</a>
</g>
</g>
<!-- Node1&#45;&gt;Node7 -->
<g id="edge7" class="edge">
<title>Node1&#45;&gt;Node7</title>
<path fill="none" stroke="midnightblue" d="M549.87,-134.23C560.46,-126.41 576.5,-114.56 591.14,-103.75"/>
<polygon fill="midnightblue" stroke="midnightblue" points="593.58,-106.3 599.54,-97.54 589.42,-100.67 593.58,-106.3"/>
</g>
<!-- Node8 -->
<g id="node8" class="node">
<title>Node8</title>
<g id="a_node8"><a xlink:title=" ">
<polygon fill="white" stroke="#bfbfbf" points="714,-56.5 714,-97.5 866,-97.5 866,-56.5 714,-56.5"/>
<text text-anchor="start" x="722" y="-85.5" font-family="Helvetica,sans-Serif" font-size="10.00">asm/f_pc/f_pc_leaf</text>
<text text-anchor="start" x="722" y="-74.5" font-family="Helvetica,sans-Serif" font-size="10.00">/fpcLf_Execute__FP14leafdraw</text>
<text text-anchor="middle" x="790" y="-63.5" font-family="Helvetica,sans-Serif" font-size="10.00">_class.s</text>
</a>
</g>
</g>
<!-- Node1&#45;&gt;Node8 -->
<g id="edge8" class="edge">
<title>Node1&#45;&gt;Node8</title>
<path fill="none" stroke="midnightblue" d="M571.2,-134.44C604.95,-125.73 658.61,-111.89 704.35,-100.09"/>
<polygon fill="midnightblue" stroke="midnightblue" points="705.47,-103.42 714.28,-97.53 703.72,-96.64 705.47,-103.42"/>
</g>
<!-- Node9 -->
<g id="node9" class="node">
<title>Node9</title>
<g id="a_node9"><a xlink:title=" ">
<polygon fill="white" stroke="#bfbfbf" points="884,-56.5 884,-97.5 1038,-97.5 1038,-56.5 884,-56.5"/>
<text text-anchor="start" x="892" y="-85.5" font-family="Helvetica,sans-Serif" font-size="10.00">asm/f_pc/f_pc_leaf</text>
<text text-anchor="start" x="892" y="-74.5" font-family="Helvetica,sans-Serif" font-size="10.00">/fpcLf_IsDelete__FP14leafdraw</text>
<text text-anchor="middle" x="961" y="-63.5" font-family="Helvetica,sans-Serif" font-size="10.00">_class.s</text>
</a>
</g>
</g>
<!-- Node1&#45;&gt;Node9 -->
<g id="edge9" class="edge">
<title>Node1&#45;&gt;Node9</title>
<path fill="none" stroke="midnightblue" d="M594.61,-137.12C659.68,-129.98 769.86,-116.75 873.69,-98.16"/>
<polygon fill="midnightblue" stroke="midnightblue" points="874.5,-101.57 883.72,-96.34 873.25,-94.68 874.5,-101.57"/>
</g>
<!-- Node10 -->
<g id="node10" class="node">
<title>Node10</title>
<g id="a_node10"><a xlink:title=" ">
<polygon fill="white" stroke="#bfbfbf" points="1056,-56.5 1056,-97.5 1202,-97.5 1202,-56.5 1056,-56.5"/>
<text text-anchor="start" x="1064" y="-85.5" font-family="Helvetica,sans-Serif" font-size="10.00">asm/f_pc/f_pc_leaf</text>
<text text-anchor="start" x="1064" y="-74.5" font-family="Helvetica,sans-Serif" font-size="10.00">/fpcLf_Delete__FP14leafdraw</text>
<text text-anchor="middle" x="1129" y="-63.5" font-family="Helvetica,sans-Serif" font-size="10.00">_class.s</text>
</a>
</g>
</g>
<!-- Node1&#45;&gt;Node10 -->
<g id="edge10" class="edge">
<title>Node1&#45;&gt;Node10</title>
<path fill="none" stroke="midnightblue" d="M594.84,-140.78C687.43,-136.55 876.62,-125.34 1045.72,-98.08"/>
<polygon fill="midnightblue" stroke="midnightblue" points="1046.49,-101.5 1055.8,-96.44 1045.36,-94.59 1046.49,-101.5"/>
</g>
<!-- Node11 -->
<g id="node11" class="node">
<title>Node11</title>
<g id="a_node11"><a xlink:title=" ">
<polygon fill="white" stroke="#bfbfbf" points="1220,-56.5 1220,-97.5 1366,-97.5 1366,-56.5 1220,-56.5"/>
<text text-anchor="start" x="1228" y="-85.5" font-family="Helvetica,sans-Serif" font-size="10.00">asm/f_pc/f_pc_leaf</text>
<text text-anchor="start" x="1228" y="-74.5" font-family="Helvetica,sans-Serif" font-size="10.00">/fpcLf_Create__FP14leafdraw</text>
<text text-anchor="middle" x="1293" y="-63.5" font-family="Helvetica,sans-Serif" font-size="10.00">_class.s</text>
</a>
</g>
</g>
<!-- Node1&#45;&gt;Node11 -->
<g id="edge11" class="edge">
<title>Node1&#45;&gt;Node11</title>
<path fill="none" stroke="midnightblue" d="M594.64,-142.5C709.22,-140.78 976.74,-133.15 1209.79,-98.04"/>
<polygon fill="midnightblue" stroke="midnightblue" points="1210.45,-101.48 1219.81,-96.51 1209.39,-94.56 1210.45,-101.48"/>
</g>
<!-- Node2&#45;&gt;Node3 -->
<g id="edge2" class="edge">
<title>Node2&#45;&gt;Node3</title>
<path fill="none" stroke="midnightblue" d="M47.72,-67.23C53.02,-57.39 61.76,-41.16 68.49,-28.66"/>
<polygon fill="midnightblue" stroke="midnightblue" points="71.7,-30.09 73.35,-19.63 65.53,-26.77 71.7,-30.09"/>
</g>
</g>
</svg>
