<?xml version="1.0" encoding="UTF-8" standalone="no"?>
<!DOCTYPE svg PUBLIC "-//W3C//DTD SVG 1.1//EN"
 "http://www.w3.org/Graphics/SVG/1.1/DTD/svg11.dtd">
<!-- Generated by graphviz version 2.47.0 (20210316.2052)
 -->
<!-- Title: src/f_pc/f_pc_leaf.cpp Pages: 1 -->
<svg width="1375pt" height="162pt"
 viewBox="0.00 0.00 1374.50 162.00" xmlns="http://www.w3.org/2000/svg" xmlns:xlink="http://www.w3.org/1999/xlink">
<g id="graph0" class="graph" transform="scale(1 1) rotate(0) translate(4 158)">
<title>src/f_pc/f_pc_leaf.cpp</title>
<polygon fill="white" stroke="transparent" points="-4,4 -4,-158 1370.5,-158 1370.5,4 -4,4"/>
<!-- Node1 -->
<g id="node1" class="node">
<title>Node1</title>
<g id="a_node1"><a xlink:title=" ">
<polygon fill="#bfbfbf" stroke="black" points="482,-134.5 482,-153.5 595,-153.5 595,-134.5 482,-134.5"/>
<text text-anchor="middle" x="538.5" y="-141.5" font-family="Helvetica,sans-Serif" font-size="10.00">src/f_pc/f_pc_leaf.cpp</text>
</a>
</g>
</g>
<!-- Node2 -->
<g id="node2" class="node">
<title>Node2</title>
<g id="a_node2"><a xlink:href="dol2asm_8h.html" target="_top" xlink:title=" ">
<polygon fill="white" stroke="black" points="0,-67.5 0,-86.5 61,-86.5 61,-67.5 0,-67.5"/>
<text text-anchor="middle" x="30.5" y="-74.5" font-family="Helvetica,sans-Serif" font-size="10.00">dol2asm.h</text>
</a>
</g>
</g>
<!-- Node1&#45;&gt;Node2 -->
<g id="edge1" class="edge">
<title>Node1&#45;&gt;Node2</title>
<path fill="none" stroke="midnightblue" d="M481.89,-143.29C393.6,-142.46 218.42,-135.65 75.5,-98 68.88,-96.26 62,-93.65 55.67,-90.88"/>
<polygon fill="midnightblue" stroke="midnightblue" points="56.83,-87.57 46.29,-86.52 53.88,-93.91 56.83,-87.57"/>
</g>
<!-- Node3 -->
<g id="node3" class="node">
<title>Node3</title>
<g id="a_node3"><a xlink:href="types_8h.html" target="_top" xlink:title=" ">
<polygon fill="white" stroke="black" points="84,-0.5 84,-19.5 165,-19.5 165,-0.5 84,-0.5"/>
<text text-anchor="middle" x="124.5" y="-7.5" font-family="Helvetica,sans-Serif" font-size="10.00">dolphin/types.h</text>
</a>
</g>
</g>
<!-- Node1&#45;&gt;Node3 -->
<g id="edge2" class="edge">
<title>Node1&#45;&gt;Node3</title>
<path fill="none" stroke="midnightblue" d="M481.92,-141.22C370.88,-137.13 133.05,-125.26 108.5,-98 91.35,-78.97 103.35,-47.8 113.78,-28.39"/>
<polygon fill="midnightblue" stroke="midnightblue" points="116.84,-30.09 118.79,-19.67 110.78,-26.6 116.84,-30.09"/>
</g>
<!-- Node4 -->
<g id="node4" class="node">
<title>Node4</title>
<g id="a_node4"><a xlink:href="f__pc__leaf_8h.html" target="_top" xlink:title=" ">
<polygon fill="white" stroke="black" points="117.5,-67.5 117.5,-86.5 203.5,-86.5 203.5,-67.5 117.5,-67.5"/>
<text text-anchor="middle" x="160.5" y="-74.5" font-family="Helvetica,sans-Serif" font-size="10.00">f_pc/f_pc_leaf.h</text>
</a>
</g>
</g>
<!-- Node1&#45;&gt;Node4 -->
<g id="edge3" class="edge">
<title>Node1&#45;&gt;Node4</title>
<path fill="none" stroke="midnightblue" d="M481.98,-139.02C416.56,-133.54 305.96,-121.53 213.5,-98 205.53,-95.97 197.1,-93.13 189.37,-90.23"/>
<polygon fill="midnightblue" stroke="midnightblue" points="190.63,-86.96 180.05,-86.57 188.08,-93.48 190.63,-86.96"/>
</g>
<!-- Node5 -->
<g id="node5" class="node">
<title>Node5</title>
<g id="a_node5"><a xlink:title=" ">
<polygon fill="white" stroke="#bfbfbf" points="222,-56.5 222,-97.5 347,-97.5 347,-56.5 222,-56.5"/>
<text text-anchor="start" x="230" y="-85.5" font-family="Helvetica,sans-Serif" font-size="10.00">asm/f_pc/f_pc_leaf</text>
<text text-anchor="start" x="230" y="-74.5" font-family="Helvetica,sans-Serif" font-size="10.00">/fpcLf_GetPriority_</text>
<text text-anchor="middle" x="284.5" y="-63.5" font-family="Helvetica,sans-Serif" font-size="10.00">_FPC14leafdraw_class.s</text>
</a>
</g>
</g>
<!-- Node1&#45;&gt;Node5 -->
<g id="edge5" class="edge">
<title>Node1&#45;&gt;Node5</title>
<path fill="none" stroke="midnightblue" d="M502.51,-134.42C467.75,-126.07 413.39,-112.81 357.09,-98.12"/>
<polygon fill="midnightblue" stroke="midnightblue" points="357.86,-94.71 347.3,-95.56 356.09,-101.48 357.86,-94.71"/>
</g>
<!-- Node6 -->
<g id="node6" class="node">
<title>Node6</title>
<g id="a_node6"><a xlink:title=" ">
<polygon fill="white" stroke="#bfbfbf" points="365,-56.5 365,-97.5 538,-97.5 538,-56.5 365,-56.5"/>
<text text-anchor="start" x="373" y="-85.5" font-family="Helvetica,sans-Serif" font-size="10.00">asm/f_pc/f_pc_leaf</text>
<text text-anchor="start" x="373" y="-74.5" font-family="Helvetica,sans-Serif" font-size="10.00">/fpcLf_DrawMethod__FP21leafdraw</text>
<text text-anchor="middle" x="451.5" y="-63.5" font-family="Helvetica,sans-Serif" font-size="10.00">_method_classPv.s</text>
</a>
</g>
</g>
<!-- Node1&#45;&gt;Node6 -->
<g id="edge6" class="edge">
<title>Node1&#45;&gt;Node6</title>
<path fill="none" stroke="midnightblue" d="M526.77,-134.23C516.3,-126.41 500.43,-114.56 485.96,-103.75"/>
<polygon fill="midnightblue" stroke="midnightblue" points="487.76,-100.72 477.66,-97.54 483.57,-106.33 487.76,-100.72"/>
</g>
<!-- Node7 -->
<g id="node7" class="node">
<title>Node7</title>
<g id="a_node7"><a xlink:title=" ">
<polygon fill="white" stroke="#bfbfbf" points="556.5,-56.5 556.5,-97.5 696.5,-97.5 696.5,-56.5 556.5,-56.5"/>
<text text-anchor="start" x="564.5" y="-85.5" font-family="Helvetica,sans-Serif" font-size="10.00">asm/f_pc/f_pc_leaf</text>
<text text-anchor="start" x="564.5" y="-74.5" font-family="Helvetica,sans-Serif" font-size="10.00">/fpcLf_Draw__FP14leafdraw</text>
<text text-anchor="middle" x="626.5" y="-63.5" font-family="Helvetica,sans-Serif" font-size="10.00">_class.s</text>
</a>
</g>
</g>
<!-- Node1&#45;&gt;Node7 -->
<g id="edge7" class="edge">
<title>Node1&#45;&gt;Node7</title>
<path fill="none" stroke="midnightblue" d="M550.37,-134.23C560.96,-126.41 577,-114.56 591.64,-103.75"/>
<polygon fill="midnightblue" stroke="midnightblue" points="594.08,-106.3 600.04,-97.54 589.92,-100.67 594.08,-106.3"/>
</g>
<!-- Node8 -->
<g id="node8" class="node">
<title>Node8</title>
<g id="a_node8"><a xlink:title=" ">
<polygon fill="white" stroke="#bfbfbf" points="714.5,-56.5 714.5,-97.5 866.5,-97.5 866.5,-56.5 714.5,-56.5"/>
<text text-anchor="start" x="722.5" y="-85.5" font-family="Helvetica,sans-Serif" font-size="10.00">asm/f_pc/f_pc_leaf</text>
<text text-anchor="start" x="722.5" y="-74.5" font-family="Helvetica,sans-Serif" font-size="10.00">/fpcLf_Execute__FP14leafdraw</text>
<text text-anchor="middle" x="790.5" y="-63.5" font-family="Helvetica,sans-Serif" font-size="10.00">_class.s</text>
</a>
</g>
</g>
<!-- Node1&#45;&gt;Node8 -->
<g id="edge8" class="edge">
<title>Node1&#45;&gt;Node8</title>
<path fill="none" stroke="midnightblue" d="M571.7,-134.44C605.45,-125.73 659.11,-111.89 704.85,-100.09"/>
<polygon fill="midnightblue" stroke="midnightblue" points="705.97,-103.42 714.78,-97.53 704.22,-96.64 705.97,-103.42"/>
</g>
<!-- Node9 -->
<g id="node9" class="node">
<title>Node9</title>
<g id="a_node9"><a xlink:title=" ">
<polygon fill="white" stroke="#bfbfbf" points="884.5,-56.5 884.5,-97.5 1038.5,-97.5 1038.5,-56.5 884.5,-56.5"/>
<text text-anchor="start" x="892.5" y="-85.5" font-family="Helvetica,sans-Serif" font-size="10.00">asm/f_pc/f_pc_leaf</text>
<text text-anchor="start" x="892.5" y="-74.5" font-family="Helvetica,sans-Serif" font-size="10.00">/fpcLf_IsDelete__FP14leafdraw</text>
<text text-anchor="middle" x="961.5" y="-63.5" font-family="Helvetica,sans-Serif" font-size="10.00">_class.s</text>
</a>
</g>
</g>
<!-- Node1&#45;&gt;Node9 -->
<g id="edge9" class="edge">
<title>Node1&#45;&gt;Node9</title>
<path fill="none" stroke="midnightblue" d="M595.11,-137.12C660.18,-129.98 770.36,-116.75 874.19,-98.16"/>
<polygon fill="midnightblue" stroke="midnightblue" points="875,-101.57 884.22,-96.34 873.75,-94.68 875,-101.57"/>
</g>
<!-- Node10 -->
<g id="node10" class="node">
<title>Node10</title>
<g id="a_node10"><a xlink:title=" ">
<polygon fill="white" stroke="#bfbfbf" points="1056.5,-56.5 1056.5,-97.5 1202.5,-97.5 1202.5,-56.5 1056.5,-56.5"/>
<text text-anchor="start" x="1064.5" y="-85.5" font-family="Helvetica,sans-Serif" font-size="10.00">asm/f_pc/f_pc_leaf</text>
<text text-anchor="start" x="1064.5" y="-74.5" font-family="Helvetica,sans-Serif" font-size="10.00">/fpcLf_Delete__FP14leafdraw</text>
<text text-anchor="middle" x="1129.5" y="-63.5" font-family="Helvetica,sans-Serif" font-size="10.00">_class.s</text>
</a>
</g>
</g>
<!-- Node1&#45;&gt;Node10 -->
<g id="edge10" class="edge">
<title>Node1&#45;&gt;Node10</title>
<path fill="none" stroke="midnightblue" d="M595.34,-140.78C687.93,-136.55 877.12,-125.34 1046.22,-98.08"/>
<polygon fill="midnightblue" stroke="midnightblue" points="1046.99,-101.5 1056.3,-96.44 1045.86,-94.59 1046.99,-101.5"/>
</g>
<!-- Node11 -->
<g id="node11" class="node">
<title>Node11</title>
<g id="a_node11"><a xlink:title=" ">
<polygon fill="white" stroke="#bfbfbf" points="1220.5,-56.5 1220.5,-97.5 1366.5,-97.5 1366.5,-56.5 1220.5,-56.5"/>
<text text-anchor="start" x="1228.5" y="-85.5" font-family="Helvetica,sans-Serif" font-size="10.00">asm/f_pc/f_pc_leaf</text>
<text text-anchor="start" x="1228.5" y="-74.5" font-family="Helvetica,sans-Serif" font-size="10.00">/fpcLf_Create__FP14leafdraw</text>
<text text-anchor="middle" x="1293.5" y="-63.5" font-family="Helvetica,sans-Serif" font-size="10.00">_class.s</text>
</a>
</g>
</g>
<!-- Node1&#45;&gt;Node11 -->
<g id="edge11" class="edge">
<title>Node1&#45;&gt;Node11</title>
<path fill="none" stroke="midnightblue" d="M595.14,-142.5C709.72,-140.78 977.24,-133.15 1210.29,-98.04"/>
<polygon fill="midnightblue" stroke="midnightblue" points="1210.95,-101.48 1220.31,-96.51 1209.89,-94.56 1210.95,-101.48"/>
</g>
<!-- Node4&#45;&gt;Node3 -->
<g id="edge4" class="edge">
<title>Node4&#45;&gt;Node3</title>
<path fill="none" stroke="midnightblue" d="M155.64,-67.23C150.19,-57.39 141.2,-41.16 134.28,-28.66"/>
<polygon fill="midnightblue" stroke="midnightblue" points="137.19,-26.68 129.28,-19.63 131.06,-30.07 137.19,-26.68"/>
</g>
</g>
</svg>
