<?xml version="1.0" encoding="UTF-8" standalone="no"?>
<!DOCTYPE svg PUBLIC "-//W3C//DTD SVG 1.1//EN"
 "http://www.w3.org/Graphics/SVG/1.1/DTD/svg11.dtd">
<!-- Generated by graphviz version 2.47.0 (20210316.2052)
 -->
<!-- Title: src/f_pc/f_pc_manager.cpp Pages: 1 -->
<svg width="2106pt" height="162pt"
 viewBox="0.00 0.00 2105.50 162.00" xmlns="http://www.w3.org/2000/svg" xmlns:xlink="http://www.w3.org/1999/xlink">
<g id="graph0" class="graph" transform="scale(1 1) rotate(0) translate(4 158)">
<title>src/f_pc/f_pc_manager.cpp</title>
<polygon fill="white" stroke="transparent" points="-4,4 -4,-158 2101.5,-158 2101.5,4 -4,4"/>
<!-- Node1 -->
<g id="node1" class="node">
<title>Node1</title>
<g id="a_node1"><a xlink:title=" ">
<polygon fill="#bfbfbf" stroke="black" points="845.5,-134.5 845.5,-153.5 979.5,-153.5 979.5,-134.5 845.5,-134.5"/>
<text text-anchor="middle" x="912.5" y="-141.5" font-family="Helvetica,sans-Serif" font-size="10.00">src/f_pc/f_pc_manager.cpp</text>
</a>
</g>
</g>
<!-- Node2 -->
<g id="node2" class="node">
<title>Node2</title>
<g id="a_node2"><a xlink:href="f__pc__manager_8h.html" target="_top" xlink:title=" ">
<polygon fill="white" stroke="black" points="0,-67.5 0,-86.5 107,-86.5 107,-67.5 0,-67.5"/>
<text text-anchor="middle" x="53.5" y="-74.5" font-family="Helvetica,sans-Serif" font-size="10.00">f_pc/f_pc_manager.h</text>
</a>
</g>
</g>
<!-- Node1&#45;&gt;Node2 -->
<g id="edge1" class="edge">
<title>Node1&#45;&gt;Node2</title>
<path fill="none" stroke="midnightblue" d="M845.26,-141.16C680.47,-136.32 259.83,-121.95 121.5,-98 110.29,-96.06 98.31,-92.91 87.57,-89.68"/>
<polygon fill="midnightblue" stroke="midnightblue" points="88.32,-86.25 77.73,-86.6 86.23,-92.93 88.32,-86.25"/>
</g>
<!-- Node3 -->
<g id="node3" class="node">
<title>Node3</title>
<g id="a_node3"><a xlink:href="types_8h.html" target="_top" xlink:title=" ">
<polygon fill="white" stroke="black" points="54,-0.5 54,-19.5 135,-19.5 135,-0.5 54,-0.5"/>
<text text-anchor="middle" x="94.5" y="-7.5" font-family="Helvetica,sans-Serif" font-size="10.00">dolphin/types.h</text>
</a>
</g>
</g>
<!-- Node1&#45;&gt;Node3 -->
<g id="edge4" class="edge">
<title>Node1&#45;&gt;Node3</title>
<path fill="none" stroke="midnightblue" d="M845.19,-142.32C671,-140.1 214.84,-131.14 155.5,-98 141.27,-90.05 117.61,-51.61 104.33,-28.57"/>
<polygon fill="midnightblue" stroke="midnightblue" points="107.31,-26.73 99.33,-19.77 101.22,-30.19 107.31,-26.73"/>
</g>
<!-- Node4 -->
<g id="node4" class="node">
<title>Node4</title>
<g id="a_node4"><a xlink:href="dol2asm_8h.html" target="_top" xlink:title=" ">
<polygon fill="white" stroke="black" points="164,-67.5 164,-86.5 225,-86.5 225,-67.5 164,-67.5"/>
<text text-anchor="middle" x="194.5" y="-74.5" font-family="Helvetica,sans-Serif" font-size="10.00">dol2asm.h</text>
</a>
</g>
</g>
<!-- Node1&#45;&gt;Node4 -->
<g id="edge3" class="edge">
<title>Node1&#45;&gt;Node4</title>
<path fill="none" stroke="midnightblue" d="M845.43,-141.91C697.69,-138.97 348.28,-128.87 234.5,-98 228.79,-96.45 222.93,-94.05 217.52,-91.44"/>
<polygon fill="midnightblue" stroke="midnightblue" points="218.87,-88.2 208.39,-86.66 215.63,-94.4 218.87,-88.2"/>
</g>
<!-- Node5 -->
<g id="node5" class="node">
<title>Node5</title>
<g id="a_node5"><a xlink:title=" ">
<polygon fill="white" stroke="#bfbfbf" points="243.5,-62 243.5,-92 365.5,-92 365.5,-62 243.5,-62"/>
<text text-anchor="start" x="251.5" y="-80" font-family="Helvetica,sans-Serif" font-size="10.00">asm/f_pc/f_pc_manager</text>
<text text-anchor="middle" x="304.5" y="-69" font-family="Helvetica,sans-Serif" font-size="10.00">/fpcM_Draw__FPv.s</text>
</a>
</g>
</g>
<!-- Node1&#45;&gt;Node5 -->
<g id="edge5" class="edge">
<title>Node1&#45;&gt;Node5</title>
<path fill="none" stroke="midnightblue" d="M845.27,-141.57C742.88,-138.46 542.07,-128.64 374.5,-98 369.22,-97.03 363.76,-95.84 358.33,-94.51"/>
<polygon fill="midnightblue" stroke="midnightblue" points="359.19,-91.12 348.63,-92.01 357.44,-97.9 359.19,-91.12"/>
</g>
<!-- Node6 -->
<g id="node6" class="node">
<title>Node6</title>
<g id="a_node6"><a xlink:title=" ">
<polygon fill="white" stroke="#bfbfbf" points="383.5,-62 383.5,-92 551.5,-92 551.5,-62 383.5,-62"/>
<text text-anchor="start" x="391.5" y="-80" font-family="Helvetica,sans-Serif" font-size="10.00">asm/f_pc/f_pc_manager</text>
<text text-anchor="middle" x="467.5" y="-69" font-family="Helvetica,sans-Serif" font-size="10.00">/fpcM_DrawIterater__FPFPvPv_i.s</text>
</a>
</g>
</g>
<!-- Node1&#45;&gt;Node6 -->
<g id="edge6" class="edge">
<title>Node1&#45;&gt;Node6</title>
<path fill="none" stroke="midnightblue" d="M845.42,-136.13C774.41,-128.47 659.18,-114.89 560.5,-98 553.51,-96.8 546.24,-95.44 538.99,-94.01"/>
<polygon fill="midnightblue" stroke="midnightblue" points="539.63,-90.57 529.14,-92.02 538.25,-97.43 539.63,-90.57"/>
</g>
<!-- Node7 -->
<g id="node7" class="node">
<title>Node7</title>
<g id="a_node7"><a xlink:title=" ">
<polygon fill="white" stroke="#bfbfbf" points="569.5,-62 569.5,-92 691.5,-92 691.5,-62 569.5,-62"/>
<text text-anchor="start" x="577.5" y="-80" font-family="Helvetica,sans-Serif" font-size="10.00">asm/f_pc/f_pc_manager</text>
<text text-anchor="middle" x="630.5" y="-69" font-family="Helvetica,sans-Serif" font-size="10.00">/fpcM_Execute__FPv.s</text>
</a>
</g>
</g>
<!-- Node1&#45;&gt;Node7 -->
<g id="edge7" class="edge">
<title>Node1&#45;&gt;Node7</title>
<path fill="none" stroke="midnightblue" d="M868.04,-134.49C825,-126.04 758.01,-112.3 700.5,-98 696.36,-96.97 692.1,-95.86 687.81,-94.72"/>
<polygon fill="midnightblue" stroke="midnightblue" points="688.39,-91.25 677.83,-92 686.55,-98.01 688.39,-91.25"/>
</g>
<!-- Node8 -->
<g id="node8" class="node">
<title>Node8</title>
<g id="a_node8"><a xlink:title=" ">
<polygon fill="white" stroke="#bfbfbf" points="709.5,-62 709.5,-92 831.5,-92 831.5,-62 709.5,-62"/>
<text text-anchor="start" x="717.5" y="-80" font-family="Helvetica,sans-Serif" font-size="10.00">asm/f_pc/f_pc_manager</text>
<text text-anchor="middle" x="770.5" y="-69" font-family="Helvetica,sans-Serif" font-size="10.00">/fpcM_Delete__FPv.s</text>
</a>
</g>
</g>
<!-- Node1&#45;&gt;Node8 -->
<g id="edge8" class="edge">
<title>Node1&#45;&gt;Node8</title>
<path fill="none" stroke="midnightblue" d="M893.64,-134.37C872.52,-124.7 837.67,-108.75 810.43,-96.28"/>
<polygon fill="midnightblue" stroke="midnightblue" points="811.7,-93.01 801.15,-92.03 808.78,-99.37 811.7,-93.01"/>
</g>
<!-- Node9 -->
<g id="node9" class="node">
<title>Node9</title>
<g id="a_node9"><a xlink:title=" ">
<polygon fill="white" stroke="#bfbfbf" points="850,-62 850,-92 975,-92 975,-62 850,-62"/>
<text text-anchor="start" x="858" y="-80" font-family="Helvetica,sans-Serif" font-size="10.00">asm/f_pc/f_pc_manager</text>
<text text-anchor="middle" x="912.5" y="-69" font-family="Helvetica,sans-Serif" font-size="10.00">/fpcM_IsCreating__FUi.s</text>
</a>
</g>
</g>
<!-- Node1&#45;&gt;Node9 -->
<g id="edge9" class="edge">
<title>Node1&#45;&gt;Node9</title>
<path fill="none" stroke="midnightblue" d="M912.5,-134.23C912.5,-126.04 912.5,-113.42 912.5,-102.21"/>
<polygon fill="midnightblue" stroke="midnightblue" points="916,-102.09 912.5,-92.09 909,-102.09 916,-102.09"/>
</g>
<!-- Node10 -->
<g id="node10" class="node">
<title>Node10</title>
<g id="a_node10"><a xlink:title=" ">
<polygon fill="white" stroke="#bfbfbf" points="993,-56.5 993,-97.5 1130,-97.5 1130,-56.5 993,-56.5"/>
<text text-anchor="start" x="1001" y="-85.5" font-family="Helvetica,sans-Serif" font-size="10.00">asm/f_pc/f_pc_manager</text>
<text text-anchor="start" x="1001" y="-74.5" font-family="Helvetica,sans-Serif" font-size="10.00">/fpcM_Management__FPFv</text>
<text text-anchor="middle" x="1061.5" y="-63.5" font-family="Helvetica,sans-Serif" font-size="10.00">_vPFv_v.s</text>
</a>
</g>
</g>
<!-- Node1&#45;&gt;Node10 -->
<g id="edge10" class="edge">
<title>Node1&#45;&gt;Node10</title>
<path fill="none" stroke="midnightblue" d="M932.29,-134.37C951.32,-126.06 980.98,-113.13 1007.08,-101.74"/>
<polygon fill="midnightblue" stroke="midnightblue" points="1008.75,-104.83 1016.51,-97.63 1005.95,-98.42 1008.75,-104.83"/>
</g>
<!-- Node11 -->
<g id="node11" class="node">
<title>Node11</title>
<g id="a_node11"><a xlink:title=" ">
<polygon fill="white" stroke="#bfbfbf" points="1148.5,-62 1148.5,-92 1270.5,-92 1270.5,-62 1148.5,-62"/>
<text text-anchor="start" x="1156.5" y="-80" font-family="Helvetica,sans-Serif" font-size="10.00">asm/f_pc/f_pc_manager</text>
<text text-anchor="middle" x="1209.5" y="-69" font-family="Helvetica,sans-Serif" font-size="10.00">/fpcM_Init__Fv.s</text>
</a>
</g>
</g>
<!-- Node1&#45;&gt;Node11 -->
<g id="edge11" class="edge">
<title>Node1&#45;&gt;Node11</title>
<path fill="none" stroke="midnightblue" d="M961.91,-134.42C1008.06,-126.12 1078.77,-112.67 1139.5,-98 1143.65,-97 1147.92,-95.91 1152.2,-94.78"/>
<polygon fill="midnightblue" stroke="midnightblue" points="1153.45,-98.07 1162.2,-92.09 1151.63,-91.31 1153.45,-98.07"/>
</g>
<!-- Node12 -->
<g id="node12" class="node">
<title>Node12</title>
<g id="a_node12"><a xlink:title=" ">
<polygon fill="white" stroke="#bfbfbf" points="1289,-56.5 1289,-97.5 1430,-97.5 1430,-56.5 1289,-56.5"/>
<text text-anchor="start" x="1297" y="-85.5" font-family="Helvetica,sans-Serif" font-size="10.00">asm/f_pc/f_pc_manager</text>
<text text-anchor="start" x="1297" y="-74.5" font-family="Helvetica,sans-Serif" font-size="10.00">/fpcM_FastCreate__FsPFPv</text>
<text text-anchor="middle" x="1359.5" y="-63.5" font-family="Helvetica,sans-Serif" font-size="10.00">_iPvPv.s</text>
</a>
</g>
</g>
<!-- Node1&#45;&gt;Node12 -->
<g id="edge12" class="edge">
<title>Node1&#45;&gt;Node12</title>
<path fill="none" stroke="midnightblue" d="M979.51,-137.28C1051.21,-130.6 1168.4,-118.06 1278.94,-97.98"/>
<polygon fill="midnightblue" stroke="midnightblue" points="1279.73,-101.39 1288.93,-96.14 1278.46,-94.51 1279.73,-101.39"/>
</g>
<!-- Node13 -->
<g id="node13" class="node">
<title>Node13</title>
<g id="a_node13"><a xlink:title=" ">
<polygon fill="white" stroke="#bfbfbf" points="1448,-62 1448,-92 1579,-92 1579,-62 1448,-62"/>
<text text-anchor="start" x="1456" y="-80" font-family="Helvetica,sans-Serif" font-size="10.00">asm/f_pc/f_pc_manager</text>
<text text-anchor="middle" x="1513.5" y="-69" font-family="Helvetica,sans-Serif" font-size="10.00">/fpcM_IsPause__FPvUc.s</text>
</a>
</g>
</g>
<!-- Node1&#45;&gt;Node13 -->
<g id="edge13" class="edge">
<title>Node1&#45;&gt;Node13</title>
<path fill="none" stroke="midnightblue" d="M979.55,-141.11C1080.15,-137.41 1275.82,-126.87 1439.5,-98 1444.99,-97.03 1450.66,-95.85 1456.31,-94.54"/>
<polygon fill="midnightblue" stroke="midnightblue" points="1457.53,-97.84 1466.41,-92.07 1455.87,-91.04 1457.53,-97.84"/>
</g>
<!-- Node14 -->
<g id="node14" class="node">
<title>Node14</title>
<g id="a_node14"><a xlink:title=" ">
<polygon fill="white" stroke="#bfbfbf" points="1597.5,-62 1597.5,-92 1749.5,-92 1749.5,-62 1597.5,-62"/>
<text text-anchor="start" x="1605.5" y="-80" font-family="Helvetica,sans-Serif" font-size="10.00">asm/f_pc/f_pc_manager</text>
<text text-anchor="middle" x="1673.5" y="-69" font-family="Helvetica,sans-Serif" font-size="10.00">/fpcM_PauseEnable__FPvUc.s</text>
</a>
</g>
</g>
<!-- Node1&#45;&gt;Node14 -->
<g id="edge14" class="edge">
<title>Node1&#45;&gt;Node14</title>
<path fill="none" stroke="midnightblue" d="M979.58,-142.18C1101.47,-139.89 1367.2,-131.17 1588.5,-98 1595.51,-96.95 1602.79,-95.62 1610.02,-94.14"/>
<polygon fill="midnightblue" stroke="midnightblue" points="1610.75,-97.56 1619.8,-92.04 1609.29,-90.71 1610.75,-97.56"/>
</g>
<!-- Node15 -->
<g id="node15" class="node">
<title>Node15</title>
<g id="a_node15"><a xlink:title=" ">
<polygon fill="white" stroke="#bfbfbf" points="1768,-62 1768,-92 1923,-92 1923,-62 1768,-62"/>
<text text-anchor="start" x="1776" y="-80" font-family="Helvetica,sans-Serif" font-size="10.00">asm/f_pc/f_pc_manager</text>
<text text-anchor="middle" x="1845.5" y="-69" font-family="Helvetica,sans-Serif" font-size="10.00">/fpcM_PauseDisable__FPvUc.s</text>
</a>
</g>
</g>
<!-- Node1&#45;&gt;Node15 -->
<g id="edge15" class="edge">
<title>Node1&#45;&gt;Node15</title>
<path fill="none" stroke="midnightblue" d="M979.5,-143.35C1123.06,-143.26 1470.65,-138.43 1758.5,-98 1765.86,-96.97 1773.52,-95.62 1781.11,-94.11"/>
<polygon fill="midnightblue" stroke="midnightblue" points="1781.93,-97.51 1791.01,-92.04 1780.5,-90.66 1781.93,-97.51"/>
</g>
<!-- Node16 -->
<g id="node16" class="node">
<title>Node16</title>
<g id="a_node16"><a xlink:title=" ">
<polygon fill="white" stroke="#bfbfbf" points="1941.5,-56.5 1941.5,-97.5 2097.5,-97.5 2097.5,-56.5 1941.5,-56.5"/>
<text text-anchor="start" x="1949.5" y="-85.5" font-family="Helvetica,sans-Serif" font-size="10.00">asm/f_pc/f_pc_manager</text>
<text text-anchor="start" x="1949.5" y="-74.5" font-family="Helvetica,sans-Serif" font-size="10.00">/fpcM_JudgeInLayer__FUiPFPv</text>
<text text-anchor="middle" x="2019.5" y="-63.5" font-family="Helvetica,sans-Serif" font-size="10.00">Pv_PvPv.s</text>
</a>
</g>
</g>
<!-- Node1&#45;&gt;Node16 -->
<g id="edge16" class="edge">
<title>Node1&#45;&gt;Node16</title>
<path fill="none" stroke="midnightblue" d="M979.84,-141.63C1173.2,-137.44 1728.67,-123.6 1931.41,-97.97"/>
<polygon fill="midnightblue" stroke="midnightblue" points="1931.91,-101.44 1941.37,-96.67 1931,-94.5 1931.91,-101.44"/>
</g>
<!-- Node2&#45;&gt;Node3 -->
<g id="edge2" class="edge">
<title>Node2&#45;&gt;Node3</title>
<path fill="none" stroke="midnightblue" d="M59.03,-67.23C65.3,-57.29 75.68,-40.84 83.59,-28.29"/>
<polygon fill="midnightblue" stroke="midnightblue" points="86.68,-29.95 89.06,-19.63 80.76,-26.22 86.68,-29.95"/>
</g>
</g>
</svg>
