<?xml version="1.0" encoding="UTF-8" standalone="no"?>
<!DOCTYPE svg PUBLIC "-//W3C//DTD SVG 1.1//EN"
 "http://www.w3.org/Graphics/SVG/1.1/DTD/svg11.dtd">
<!-- Generated by graphviz version 2.47.0 (20210316.2052)
 -->
<!-- Title: src/f_pc/f_pc_layer_iter.cpp Pages: 1 -->
<svg width="881pt" height="184pt"
 viewBox="0.00 0.00 881.00 184.00" xmlns="http://www.w3.org/2000/svg" xmlns:xlink="http://www.w3.org/1999/xlink">
<g id="graph0" class="graph" transform="scale(1 1) rotate(0) translate(4 180)">
<title>src/f_pc/f_pc_layer_iter.cpp</title>
<polygon fill="white" stroke="transparent" points="-4,4 -4,-180 877,-180 877,4 -4,4"/>
<!-- Node1 -->
<g id="node1" class="node">
<title>Node1</title>
<g id="a_node1"><a xlink:title=" ">
<polygon fill="#bfbfbf" stroke="black" points="277,-145.5 277,-175.5 376,-175.5 376,-145.5 277,-145.5"/>
<text text-anchor="start" x="285" y="-163.5" font-family="Helvetica,sans-Serif" font-size="10.00">src/f_pc/f_pc_layer</text>
<text text-anchor="middle" x="326.5" y="-152.5" font-family="Helvetica,sans-Serif" font-size="10.00">_iter.cpp</text>
</a>
</g>
</g>
<!-- Node2 -->
<g id="node2" class="node">
<title>Node2</title>
<g id="a_node2"><a xlink:href="f__pc__layer__iter_8h.html" target="_top" xlink:title=" ">
<polygon fill="white" stroke="black" points="0,-73 0,-92 109,-92 109,-73 0,-73"/>
<text text-anchor="middle" x="54.5" y="-80" font-family="Helvetica,sans-Serif" font-size="10.00">f_pc/f_pc_layer_iter.h</text>
</a>
</g>
</g>
<!-- Node1&#45;&gt;Node2 -->
<g id="edge1" class="edge">
<title>Node1&#45;&gt;Node2</title>
<path fill="none" stroke="midnightblue" d="M276.86,-148.76C235.5,-139.43 175.21,-124.93 123.5,-109 110.82,-105.09 97.06,-100.16 85.2,-95.67"/>
<polygon fill="midnightblue" stroke="midnightblue" points="86.33,-92.35 75.74,-92.04 83.82,-98.89 86.33,-92.35"/>
</g>
<!-- Node3 -->
<g id="node3" class="node">
<title>Node3</title>
<g id="a_node3"><a xlink:href="types_8h.html" target="_top" xlink:title=" ">
<polygon fill="white" stroke="black" points="55,-0.5 55,-19.5 136,-19.5 136,-0.5 55,-0.5"/>
<text text-anchor="middle" x="95.5" y="-7.5" font-family="Helvetica,sans-Serif" font-size="10.00">dolphin/types.h</text>
</a>
</g>
</g>
<!-- Node1&#45;&gt;Node3 -->
<g id="edge4" class="edge">
<title>Node1&#45;&gt;Node3</title>
<path fill="none" stroke="midnightblue" d="M276.8,-154.07C240.7,-148.02 192.28,-135.36 157.5,-109 142.98,-98 118,-53.57 104.61,-28.48"/>
<polygon fill="midnightblue" stroke="midnightblue" points="107.71,-26.84 99.94,-19.63 101.52,-30.11 107.71,-26.84"/>
</g>
<!-- Node4 -->
<g id="node4" class="node">
<title>Node4</title>
<g id="a_node4"><a xlink:href="dol2asm_8h.html" target="_top" xlink:title=" ">
<polygon fill="white" stroke="black" points="166,-73 166,-92 227,-92 227,-73 166,-73"/>
<text text-anchor="middle" x="196.5" y="-80" font-family="Helvetica,sans-Serif" font-size="10.00">dol2asm.h</text>
</a>
</g>
</g>
<!-- Node1&#45;&gt;Node4 -->
<g id="edge3" class="edge">
<title>Node1&#45;&gt;Node4</title>
<path fill="none" stroke="midnightblue" d="M300.28,-145.3C282.21,-135.38 257.71,-121.7 236.5,-109 230.56,-105.45 224.22,-101.48 218.37,-97.75"/>
<polygon fill="midnightblue" stroke="midnightblue" points="220.02,-94.65 209.72,-92.19 216.23,-100.54 220.02,-94.65"/>
</g>
<!-- Node5 -->
<g id="node5" class="node">
<title>Node5</title>
<g id="a_node5"><a xlink:title=" ">
<polygon fill="white" stroke="#bfbfbf" points="245,-62 245,-103 408,-103 408,-62 245,-62"/>
<text text-anchor="start" x="253" y="-91" font-family="Helvetica,sans-Serif" font-size="10.00">asm/f_pc/f_pc_layer</text>
<text text-anchor="start" x="253" y="-80" font-family="Helvetica,sans-Serif" font-size="10.00">_iter/fpcLyIt_OnlyHere</text>
<text text-anchor="middle" x="326.5" y="-69" font-family="Helvetica,sans-Serif" font-size="10.00">__FP11layer_classPFPvPv_iPv.s</text>
</a>
</g>
</g>
<!-- Node1&#45;&gt;Node5 -->
<g id="edge5" class="edge">
<title>Node1&#45;&gt;Node5</title>
<path fill="none" stroke="midnightblue" d="M326.5,-145.2C326.5,-136.21 326.5,-124.27 326.5,-113.29"/>
<polygon fill="midnightblue" stroke="midnightblue" points="330,-113.18 326.5,-103.18 323,-113.18 330,-113.18"/>
</g>
<!-- Node6 -->
<g id="node6" class="node">
<title>Node6</title>
<g id="a_node6"><a xlink:title=" ">
<polygon fill="white" stroke="#bfbfbf" points="426,-62 426,-103 589,-103 589,-62 426,-62"/>
<text text-anchor="start" x="434" y="-91" font-family="Helvetica,sans-Serif" font-size="10.00">asm/f_pc/f_pc_layer</text>
<text text-anchor="start" x="434" y="-80" font-family="Helvetica,sans-Serif" font-size="10.00">_iter/fpcLyIt_OnlyHereLY</text>
<text text-anchor="middle" x="507.5" y="-69" font-family="Helvetica,sans-Serif" font-size="10.00">__FP11layer_classPFPvPv_iPv.s</text>
</a>
</g>
</g>
<!-- Node1&#45;&gt;Node6 -->
<g id="edge6" class="edge">
<title>Node1&#45;&gt;Node6</title>
<path fill="none" stroke="midnightblue" d="M360.12,-145.38C385.67,-134.65 421.4,-119.65 451.28,-107.11"/>
<polygon fill="midnightblue" stroke="midnightblue" points="452.89,-110.23 460.75,-103.13 450.18,-103.77 452.89,-110.23"/>
</g>
<!-- Node7 -->
<g id="node7" class="node">
<title>Node7</title>
<g id="a_node7"><a xlink:title=" ">
<polygon fill="white" stroke="#bfbfbf" points="607.5,-56.5 607.5,-108.5 743.5,-108.5 743.5,-56.5 607.5,-56.5"/>
<text text-anchor="start" x="615.5" y="-96.5" font-family="Helvetica,sans-Serif" font-size="10.00">asm/f_pc/f_pc_layer</text>
<text text-anchor="start" x="615.5" y="-85.5" font-family="Helvetica,sans-Serif" font-size="10.00">_iter/fpcLyIt_Judge</text>
<text text-anchor="start" x="615.5" y="-74.5" font-family="Helvetica,sans-Serif" font-size="10.00">__FP11layer_classPFPvPv</text>
<text text-anchor="middle" x="675.5" y="-63.5" font-family="Helvetica,sans-Serif" font-size="10.00">_PvPv.s</text>
</a>
</g>
</g>
<!-- Node1&#45;&gt;Node7 -->
<g id="edge7" class="edge">
<title>Node1&#45;&gt;Node7</title>
<path fill="none" stroke="midnightblue" d="M376.08,-152.37C428.85,-144.33 514.88,-129.89 597.42,-109.15"/>
<polygon fill="midnightblue" stroke="midnightblue" points="598.38,-112.51 607.21,-106.65 596.66,-105.73 598.38,-112.51"/>
</g>
<!-- Node8 -->
<g id="node8" class="node">
<title>Node8</title>
<g id="a_node8"><a xlink:title=" ">
<polygon fill="white" stroke="#bfbfbf" points="762,-62 762,-103 873,-103 873,-62 762,-62"/>
<text text-anchor="start" x="770" y="-91" font-family="Helvetica,sans-Serif" font-size="10.00">asm/f_pc/f_pc_layer</text>
<text text-anchor="start" x="770" y="-80" font-family="Helvetica,sans-Serif" font-size="10.00">_iter/fpcLyIt_AllJudge</text>
<text text-anchor="middle" x="817.5" y="-69" font-family="Helvetica,sans-Serif" font-size="10.00">__FPFPvPv_PvPv.s</text>
</a>
</g>
</g>
<!-- Node1&#45;&gt;Node8 -->
<g id="edge8" class="edge">
<title>Node1&#45;&gt;Node8</title>
<path fill="none" stroke="midnightblue" d="M376.12,-157.73C456.34,-153.95 619.05,-142.5 752.5,-109 755.67,-108.2 758.9,-107.29 762.14,-106.3"/>
<polygon fill="midnightblue" stroke="midnightblue" points="763.42,-109.56 771.82,-103.1 761.22,-102.91 763.42,-109.56"/>
</g>
<!-- Node2&#45;&gt;Node3 -->
<g id="edge2" class="edge">
<title>Node2&#45;&gt;Node3</title>
<path fill="none" stroke="midnightblue" d="M59.53,-72.86C65.92,-61.86 77.12,-42.61 85.32,-28.5"/>
<polygon fill="midnightblue" stroke="midnightblue" points="88.43,-30.12 90.43,-19.72 82.38,-26.6 88.43,-30.12"/>
</g>
</g>
</svg>
