<?xml version="1.0" encoding="UTF-8" standalone="no"?>
<!DOCTYPE svg PUBLIC "-//W3C//DTD SVG 1.1//EN"
 "http://www.w3.org/Graphics/SVG/1.1/DTD/svg11.dtd">
<!-- Generated by graphviz version 2.47.0 (20210316.2052)
 -->
<!-- Title: src/f_pc/f_pc_stdcreate_req.cpp Pages: 1 -->
<svg width="1559pt" height="184pt"
 viewBox="0.00 0.00 1559.00 184.00" xmlns="http://www.w3.org/2000/svg" xmlns:xlink="http://www.w3.org/1999/xlink">
<g id="graph0" class="graph" transform="scale(1 1) rotate(0) translate(4 180)">
<title>src/f_pc/f_pc_stdcreate_req.cpp</title>
<polygon fill="white" stroke="transparent" points="-4,4 -4,-180 1555,-180 1555,4 -4,4"/>
<!-- Node1 -->
<g id="node1" class="node">
<title>Node1</title>
<g id="a_node1"><a xlink:title=" ">
<polygon fill="#bfbfbf" stroke="black" points="551,-145.5 551,-175.5 670,-175.5 670,-145.5 551,-145.5"/>
<text text-anchor="start" x="559" y="-163.5" font-family="Helvetica,sans-Serif" font-size="10.00">src/f_pc/f_pc_stdcreate</text>
<text text-anchor="middle" x="610.5" y="-152.5" font-family="Helvetica,sans-Serif" font-size="10.00">_req.cpp</text>
</a>
</g>
</g>
<!-- Node2 -->
<g id="node2" class="node">
<title>Node2</title>
<g id="a_node2"><a xlink:href="dol2asm_8h.html" target="_top" xlink:title=" ">
<polygon fill="white" stroke="black" points="0,-73 0,-92 61,-92 61,-73 0,-73"/>
<text text-anchor="middle" x="30.5" y="-80" font-family="Helvetica,sans-Serif" font-size="10.00">dol2asm.h</text>
</a>
</g>
</g>
<!-- Node1&#45;&gt;Node2 -->
<g id="edge1" class="edge">
<title>Node1&#45;&gt;Node2</title>
<path fill="none" stroke="midnightblue" d="M550.94,-157.02C430.67,-151.5 162.83,-136.48 75.5,-109 67.07,-106.35 58.47,-101.96 51.07,-97.57"/>
<polygon fill="midnightblue" stroke="midnightblue" points="52.78,-94.51 42.46,-92.14 49.05,-100.43 52.78,-94.51"/>
</g>
<!-- Node3 -->
<g id="node3" class="node">
<title>Node3</title>
<g id="a_node3"><a xlink:href="types_8h.html" target="_top" xlink:title=" ">
<polygon fill="white" stroke="black" points="89,-0.5 89,-19.5 170,-19.5 170,-0.5 89,-0.5"/>
<text text-anchor="middle" x="129.5" y="-7.5" font-family="Helvetica,sans-Serif" font-size="10.00">dolphin/types.h</text>
</a>
</g>
</g>
<!-- Node1&#45;&gt;Node3 -->
<g id="edge2" class="edge">
<title>Node1&#45;&gt;Node3</title>
<path fill="none" stroke="midnightblue" d="M550.91,-157.89C424.51,-153.85 138.63,-141.22 109.5,-109 89.4,-86.77 105.49,-49.98 118.11,-28.36"/>
<polygon fill="midnightblue" stroke="midnightblue" points="121.24,-29.95 123.52,-19.6 115.29,-26.27 121.24,-29.95"/>
</g>
<!-- Node4 -->
<g id="node4" class="node">
<title>Node4</title>
<g id="a_node4"><a xlink:href="f__pc__stdcreate__req_8h.html" target="_top" xlink:title=" ">
<polygon fill="white" stroke="black" points="118,-67.5 118,-97.5 221,-97.5 221,-67.5 118,-67.5"/>
<text text-anchor="start" x="126" y="-85.5" font-family="Helvetica,sans-Serif" font-size="10.00">f_pc/f_pc_stdcreate</text>
<text text-anchor="middle" x="169.5" y="-74.5" font-family="Helvetica,sans-Serif" font-size="10.00">_req.h</text>
</a>
</g>
</g>
<!-- Node1&#45;&gt;Node4 -->
<g id="edge3" class="edge">
<title>Node1&#45;&gt;Node4</title>
<path fill="none" stroke="midnightblue" d="M550.96,-156.45C475.33,-151.47 341.32,-138.96 230.5,-109 223.19,-107.02 215.59,-104.37 208.34,-101.52"/>
<polygon fill="midnightblue" stroke="midnightblue" points="209.31,-98.14 198.73,-97.56 206.65,-104.61 209.31,-98.14"/>
</g>
<!-- Node5 -->
<g id="node5" class="node">
<title>Node5</title>
<g id="a_node5"><a xlink:title=" ">
<polygon fill="white" stroke="#bfbfbf" points="239.5,-56.5 239.5,-108.5 397.5,-108.5 397.5,-56.5 239.5,-56.5"/>
<text text-anchor="start" x="247.5" y="-96.5" font-family="Helvetica,sans-Serif" font-size="10.00">asm/f_pc/f_pc_stdcreate</text>
<text text-anchor="start" x="247.5" y="-85.5" font-family="Helvetica,sans-Serif" font-size="10.00">_req/fpcSCtRq_phase_Load</text>
<text text-anchor="start" x="247.5" y="-74.5" font-family="Helvetica,sans-Serif" font-size="10.00">__FP29standard_create_request</text>
<text text-anchor="middle" x="318.5" y="-63.5" font-family="Helvetica,sans-Serif" font-size="10.00">_class.s</text>
</a>
</g>
</g>
<!-- Node1&#45;&gt;Node5 -->
<g id="edge5" class="edge">
<title>Node1&#45;&gt;Node5</title>
<path fill="none" stroke="midnightblue" d="M550.98,-145.42C512.52,-136.17 461.16,-123.54 407.33,-109.19"/>
<polygon fill="midnightblue" stroke="midnightblue" points="408.18,-105.79 397.61,-106.58 406.37,-112.55 408.18,-105.79"/>
</g>
<!-- Node6 -->
<g id="node6" class="node">
<title>Node6</title>
<g id="a_node6"><a xlink:title=" ">
<polygon fill="white" stroke="#bfbfbf" points="415.5,-62 415.5,-103 609.5,-103 609.5,-62 415.5,-62"/>
<text text-anchor="start" x="423.5" y="-91" font-family="Helvetica,sans-Serif" font-size="10.00">asm/f_pc/f_pc_stdcreate</text>
<text text-anchor="start" x="423.5" y="-80" font-family="Helvetica,sans-Serif" font-size="10.00">_req/fpcSCtRq_phase_CreateProcess</text>
<text text-anchor="middle" x="512.5" y="-69" font-family="Helvetica,sans-Serif" font-size="10.00">__FP29standard_create_request_class.s</text>
</a>
</g>
</g>
<!-- Node1&#45;&gt;Node6 -->
<g id="edge6" class="edge">
<title>Node1&#45;&gt;Node6</title>
<path fill="none" stroke="midnightblue" d="M592.07,-145.2C579.16,-135.19 561.53,-121.52 546.15,-109.59"/>
<polygon fill="midnightblue" stroke="midnightblue" points="547.92,-106.54 537.88,-103.18 543.63,-112.07 547.92,-106.54"/>
</g>
<!-- Node7 -->
<g id="node7" class="node">
<title>Node7</title>
<g id="a_node7"><a xlink:title=" ">
<polygon fill="white" stroke="#bfbfbf" points="628,-56.5 628,-108.5 791,-108.5 791,-56.5 628,-56.5"/>
<text text-anchor="start" x="636" y="-96.5" font-family="Helvetica,sans-Serif" font-size="10.00">asm/f_pc/f_pc_stdcreate</text>
<text text-anchor="start" x="636" y="-85.5" font-family="Helvetica,sans-Serif" font-size="10.00">_req/fpcSCtRq_phase_SubCreate</text>
<text text-anchor="start" x="636" y="-74.5" font-family="Helvetica,sans-Serif" font-size="10.00">Process__FP29standard_create</text>
<text text-anchor="middle" x="709.5" y="-63.5" font-family="Helvetica,sans-Serif" font-size="10.00">_request_class.s</text>
</a>
</g>
</g>
<!-- Node1&#45;&gt;Node7 -->
<g id="edge7" class="edge">
<title>Node1&#45;&gt;Node7</title>
<path fill="none" stroke="midnightblue" d="M629.12,-145.2C640.36,-136.58 655.13,-125.24 668.94,-114.64"/>
<polygon fill="midnightblue" stroke="midnightblue" points="671.13,-117.37 676.93,-108.5 666.87,-111.82 671.13,-117.37"/>
</g>
<!-- Node8 -->
<g id="node8" class="node">
<title>Node8</title>
<g id="a_node8"><a xlink:title=" ">
<polygon fill="white" stroke="#bfbfbf" points="809.5,-62 809.5,-103 1003.5,-103 1003.5,-62 809.5,-62"/>
<text text-anchor="start" x="817.5" y="-91" font-family="Helvetica,sans-Serif" font-size="10.00">asm/f_pc/f_pc_stdcreate</text>
<text text-anchor="start" x="817.5" y="-80" font-family="Helvetica,sans-Serif" font-size="10.00">_req/fpcSCtRq_phase_IsComplete</text>
<text text-anchor="middle" x="906.5" y="-69" font-family="Helvetica,sans-Serif" font-size="10.00">__FP29standard_create_request_class.s</text>
</a>
</g>
</g>
<!-- Node1&#45;&gt;Node8 -->
<g id="edge8" class="edge">
<title>Node1&#45;&gt;Node8</title>
<path fill="none" stroke="midnightblue" d="M665.14,-145.47C708.67,-134.29 770.43,-118.44 820.57,-105.56"/>
<polygon fill="midnightblue" stroke="midnightblue" points="821.62,-108.91 830.44,-103.03 819.88,-102.13 821.62,-108.91"/>
</g>
<!-- Node9 -->
<g id="node9" class="node">
<title>Node9</title>
<g id="a_node9"><a xlink:title=" ">
<polygon fill="white" stroke="#bfbfbf" points="1021.5,-62 1021.5,-103 1215.5,-103 1215.5,-62 1021.5,-62"/>
<text text-anchor="start" x="1029.5" y="-91" font-family="Helvetica,sans-Serif" font-size="10.00">asm/f_pc/f_pc_stdcreate</text>
<text text-anchor="start" x="1029.5" y="-80" font-family="Helvetica,sans-Serif" font-size="10.00">_req/fpcSCtRq_phase_PostMethod</text>
<text text-anchor="middle" x="1118.5" y="-69" font-family="Helvetica,sans-Serif" font-size="10.00">__FP29standard_create_request_class.s</text>
</a>
</g>
</g>
<!-- Node1&#45;&gt;Node9 -->
<g id="edge9" class="edge">
<title>Node1&#45;&gt;Node9</title>
<path fill="none" stroke="midnightblue" d="M670.07,-154.1C748.83,-146.5 891.75,-131.04 1012.5,-109 1018.73,-107.86 1025.15,-106.59 1031.59,-105.23"/>
<polygon fill="midnightblue" stroke="midnightblue" points="1032.68,-108.57 1041.71,-103.03 1031.2,-101.73 1032.68,-108.57"/>
</g>
<!-- Node10 -->
<g id="node10" class="node">
<title>Node10</title>
<g id="a_node10"><a xlink:title=" ">
<polygon fill="white" stroke="#bfbfbf" points="1233.5,-56.5 1233.5,-108.5 1391.5,-108.5 1391.5,-56.5 1233.5,-56.5"/>
<text text-anchor="start" x="1241.5" y="-96.5" font-family="Helvetica,sans-Serif" font-size="10.00">asm/f_pc/f_pc_stdcreate</text>
<text text-anchor="start" x="1241.5" y="-85.5" font-family="Helvetica,sans-Serif" font-size="10.00">_req/fpcSCtRq_Handler</text>
<text text-anchor="start" x="1241.5" y="-74.5" font-family="Helvetica,sans-Serif" font-size="10.00">__FP29standard_create_request</text>
<text text-anchor="middle" x="1312.5" y="-63.5" font-family="Helvetica,sans-Serif" font-size="10.00">_class.s</text>
</a>
</g>
</g>
<!-- Node1&#45;&gt;Node10 -->
<g id="edge10" class="edge">
<title>Node1&#45;&gt;Node10</title>
<path fill="none" stroke="midnightblue" d="M670.29,-158.54C778.96,-155.93 1016.03,-146.29 1223.2,-109.09"/>
<polygon fill="midnightblue" stroke="midnightblue" points="1223.83,-112.53 1233.05,-107.3 1222.58,-105.64 1223.83,-112.53"/>
</g>
<!-- Node11 -->
<g id="node11" class="node">
<title>Node11</title>
<g id="a_node11"><a xlink:title=" ">
<polygon fill="white" stroke="#bfbfbf" points="1410,-56.5 1410,-108.5 1551,-108.5 1551,-56.5 1410,-56.5"/>
<text text-anchor="start" x="1418" y="-96.5" font-family="Helvetica,sans-Serif" font-size="10.00">asm/f_pc/f_pc_stdcreate</text>
<text text-anchor="start" x="1418" y="-85.5" font-family="Helvetica,sans-Serif" font-size="10.00">_req/fpcSCtRq_Request</text>
<text text-anchor="start" x="1418" y="-74.5" font-family="Helvetica,sans-Serif" font-size="10.00">__FP11layer_classsPFPvPv</text>
<text text-anchor="middle" x="1480.5" y="-63.5" font-family="Helvetica,sans-Serif" font-size="10.00">_iPvPv.s</text>
</a>
</g>
</g>
<!-- Node1&#45;&gt;Node11 -->
<g id="edge11" class="edge">
<title>Node1&#45;&gt;Node11</title>
<path fill="none" stroke="midnightblue" d="M670.02,-157.58C825.49,-152.28 1242.05,-136.1 1399.63,-108.89"/>
<polygon fill="midnightblue" stroke="midnightblue" points="1400.41,-112.3 1409.63,-107.08 1399.17,-105.42 1400.41,-112.3"/>
</g>
<!-- Node4&#45;&gt;Node3 -->
<g id="edge4" class="edge">
<title>Node4&#45;&gt;Node3</title>
<path fill="none" stroke="midnightblue" d="M161.41,-67.23C155.13,-56.17 146.39,-40.77 139.64,-28.88"/>
<polygon fill="midnightblue" stroke="midnightblue" points="142.52,-26.86 134.55,-19.89 136.44,-30.32 142.52,-26.86"/>
</g>
</g>
</svg>
