<?xml version="1.0" encoding="UTF-8" standalone="no"?>
<!DOCTYPE svg PUBLIC "-//W3C//DTD SVG 1.1//EN"
 "http://www.w3.org/Graphics/SVG/1.1/DTD/svg11.dtd">
<!-- Generated by graphviz version 2.47.0 (20210316.2052)
 -->
<!-- Title: src/f_pc/f_pc_profile.cpp Pages: 1 -->
<svg width="350pt" height="151pt"
 viewBox="0.00 0.00 349.50 151.00" xmlns="http://www.w3.org/2000/svg" xmlns:xlink="http://www.w3.org/1999/xlink">
<g id="graph0" class="graph" transform="scale(1 1) rotate(0) translate(4 147)">
<title>src/f_pc/f_pc_profile.cpp</title>
<polygon fill="white" stroke="transparent" points="-4,4 -4,-147 345.5,-147 345.5,4 -4,4"/>
<!-- Node1 -->
<g id="node1" class="node">
<title>Node1</title>
<g id="a_node1"><a xlink:title=" ">
<polygon fill="#bfbfbf" stroke="black" points="66.5,-123.5 66.5,-142.5 188.5,-142.5 188.5,-123.5 66.5,-123.5"/>
<text text-anchor="middle" x="127.5" y="-130.5" font-family="Helvetica,sans-Serif" font-size="10.00">src/f_pc/f_pc_profile.cpp</text>
</a>
</g>
</g>
<!-- Node2 -->
<g id="node2" class="node">
<title>Node2</title>
<g id="a_node2"><a xlink:href="dol2asm_8h.html" target="_top" xlink:title=" ">
<polygon fill="white" stroke="black" points="0,-62 0,-81 61,-81 61,-62 0,-62"/>
<text text-anchor="middle" x="30.5" y="-69" font-family="Helvetica,sans-Serif" font-size="10.00">dol2asm.h</text>
</a>
</g>
</g>
<!-- Node1&#45;&gt;Node2 -->
<g id="edge1" class="edge">
<title>Node1&#45;&gt;Node2</title>
<path fill="none" stroke="midnightblue" d="M113.6,-123.48C97.83,-113.8 71.86,-97.87 53.15,-86.39"/>
<polygon fill="midnightblue" stroke="midnightblue" points="54.73,-83.25 44.37,-81.01 51.07,-89.22 54.73,-83.25"/>
</g>
<!-- Node3 -->
<g id="node3" class="node">
<title>Node3</title>
<g id="a_node3"><a xlink:href="types_8h.html" target="_top" xlink:title=" ">
<polygon fill="white" stroke="black" points="87,-0.5 87,-19.5 168,-19.5 168,-0.5 87,-0.5"/>
<text text-anchor="middle" x="127.5" y="-7.5" font-family="Helvetica,sans-Serif" font-size="10.00">dolphin/types.h</text>
</a>
</g>
</g>
<!-- Node1&#45;&gt;Node3 -->
<g id="edge2" class="edge">
<title>Node1&#45;&gt;Node3</title>
<path fill="none" stroke="midnightblue" d="M122.88,-123.34C118.44,-114.49 112.05,-100.22 109.5,-87 106.89,-73.47 106.89,-69.53 109.5,-56 111.29,-46.7 114.98,-36.89 118.56,-28.8"/>
<polygon fill="midnightblue" stroke="midnightblue" points="121.77,-30.2 122.88,-19.66 115.44,-27.21 121.77,-30.2"/>
</g>
<!-- Node4 -->
<g id="node4" class="node">
<title>Node4</title>
<g id="a_node4"><a xlink:href="f__pc__profile_8h.html" target="_top" xlink:title=" ">
<polygon fill="white" stroke="black" points="118,-62 118,-81 213,-81 213,-62 118,-62"/>
<text text-anchor="middle" x="165.5" y="-69" font-family="Helvetica,sans-Serif" font-size="10.00">f_pc/f_pc_profile.h</text>
</a>
</g>
</g>
<!-- Node1&#45;&gt;Node4 -->
<g id="edge3" class="edge">
<title>Node1&#45;&gt;Node4</title>
<path fill="none" stroke="midnightblue" d="M132.94,-123.48C138.59,-114.64 147.56,-100.59 154.66,-89.48"/>
<polygon fill="midnightblue" stroke="midnightblue" points="157.63,-91.32 160.07,-81.01 151.73,-87.55 157.63,-91.32"/>
</g>
<!-- Node5 -->
<g id="node5" class="node">
<title>Node5</title>
<g id="a_node5"><a xlink:title=" ">
<polygon fill="white" stroke="#bfbfbf" points="231.5,-56.5 231.5,-86.5 341.5,-86.5 341.5,-56.5 231.5,-56.5"/>
<text text-anchor="start" x="239.5" y="-74.5" font-family="Helvetica,sans-Serif" font-size="10.00">asm/f_pc/f_pc_profile</text>
<text text-anchor="middle" x="286.5" y="-63.5" font-family="Helvetica,sans-Serif" font-size="10.00">/fpcPf_Get__Fs.s</text>
</a>
</g>
</g>
<!-- Node1&#45;&gt;Node5 -->
<g id="edge5" class="edge">
<title>Node1&#45;&gt;Node5</title>
<path fill="none" stroke="midnightblue" d="M150.28,-123.48C173.43,-114.81 209.95,-101.15 239.36,-90.14"/>
<polygon fill="midnightblue" stroke="midnightblue" points="240.89,-93.31 249.03,-86.52 238.43,-86.75 240.89,-93.31"/>
</g>
<!-- Node4&#45;&gt;Node3 -->
<g id="edge4" class="edge">
<title>Node4&#45;&gt;Node3</title>
<path fill="none" stroke="midnightblue" d="M160.06,-61.98C154.41,-53.14 145.44,-39.09 138.34,-27.98"/>
<polygon fill="midnightblue" stroke="midnightblue" points="141.27,-26.05 132.93,-19.51 135.37,-29.82 141.27,-26.05"/>
</g>
</g>
</svg>
