<?xml version="1.0" encoding="UTF-8" standalone="no"?>
<!DOCTYPE svg PUBLIC "-//W3C//DTD SVG 1.1//EN"
 "http://www.w3.org/Graphics/SVG/1.1/DTD/svg11.dtd">
<!-- Generated by graphviz version 2.47.0 (20210316.2052)
 -->
<!-- Title: src/f_pc/f_pc_searcher.cpp Pages: 1 -->
<svg width="549pt" height="162pt"
 viewBox="0.00 0.00 549.00 162.00" xmlns="http://www.w3.org/2000/svg" xmlns:xlink="http://www.w3.org/1999/xlink">
<g id="graph0" class="graph" transform="scale(1 1) rotate(0) translate(4 158)">
<title>src/f_pc/f_pc_searcher.cpp</title>
<polygon fill="white" stroke="transparent" points="-4,4 -4,-158 545,-158 545,4 -4,4"/>
<!-- Node1 -->
<g id="node1" class="node">
<title>Node1</title>
<g id="a_node1"><a xlink:title=" ">
<polygon fill="#bfbfbf" stroke="black" points="127.5,-134.5 127.5,-153.5 261.5,-153.5 261.5,-134.5 127.5,-134.5"/>
<text text-anchor="middle" x="194.5" y="-141.5" font-family="Helvetica,sans-Serif" font-size="10.00">src/f_pc/f_pc_searcher.cpp</text>
</a>
</g>
</g>
<!-- Node2 -->
<g id="node2" class="node">
<title>Node2</title>
<g id="a_node2"><a xlink:href="f__pc__searcher_8h.html" target="_top" xlink:title=" ">
<polygon fill="white" stroke="black" points="0,-67.5 0,-86.5 107,-86.5 107,-67.5 0,-67.5"/>
<text text-anchor="middle" x="53.5" y="-74.5" font-family="Helvetica,sans-Serif" font-size="10.00">f_pc/f_pc_searcher.h</text>
</a>
</g>
</g>
<!-- Node1&#45;&gt;Node2 -->
<g id="edge1" class="edge">
<title>Node1&#45;&gt;Node2</title>
<path fill="none" stroke="midnightblue" d="M175.78,-134.37C151.65,-123.25 109.5,-103.82 81.55,-90.93"/>
<polygon fill="midnightblue" stroke="midnightblue" points="82.85,-87.68 72.3,-86.67 79.92,-94.03 82.85,-87.68"/>
</g>
<!-- Node3 -->
<g id="node3" class="node">
<title>Node3</title>
<g id="a_node3"><a xlink:href="types_8h.html" target="_top" xlink:title=" ">
<polygon fill="white" stroke="black" points="54,-0.5 54,-19.5 135,-19.5 135,-0.5 54,-0.5"/>
<text text-anchor="middle" x="94.5" y="-7.5" font-family="Helvetica,sans-Serif" font-size="10.00">dolphin/types.h</text>
</a>
</g>
</g>
<!-- Node1&#45;&gt;Node3 -->
<g id="edge4" class="edge">
<title>Node1&#45;&gt;Node3</title>
<path fill="none" stroke="midnightblue" d="M186.45,-134.26C178.37,-125.36 165.68,-111.04 155.5,-98 137.21,-74.57 117.77,-46.16 105.88,-28.33"/>
<polygon fill="midnightblue" stroke="midnightblue" points="108.55,-26.01 100.11,-19.61 102.71,-29.88 108.55,-26.01"/>
</g>
<!-- Node4 -->
<g id="node4" class="node">
<title>Node4</title>
<g id="a_node4"><a xlink:href="dol2asm_8h.html" target="_top" xlink:title=" ">
<polygon fill="white" stroke="black" points="164,-67.5 164,-86.5 225,-86.5 225,-67.5 164,-67.5"/>
<text text-anchor="middle" x="194.5" y="-74.5" font-family="Helvetica,sans-Serif" font-size="10.00">dol2asm.h</text>
</a>
</g>
</g>
<!-- Node1&#45;&gt;Node4 -->
<g id="edge3" class="edge">
<title>Node1&#45;&gt;Node4</title>
<path fill="none" stroke="midnightblue" d="M194.5,-134.23C194.5,-124.68 194.5,-109.12 194.5,-96.78"/>
<polygon fill="midnightblue" stroke="midnightblue" points="198,-96.63 194.5,-86.63 191,-96.63 198,-96.63"/>
</g>
<!-- Node5 -->
<g id="node5" class="node">
<title>Node5</title>
<g id="a_node5"><a xlink:title=" ">
<polygon fill="white" stroke="#bfbfbf" points="243,-56.5 243,-97.5 372,-97.5 372,-56.5 243,-56.5"/>
<text text-anchor="start" x="251" y="-85.5" font-family="Helvetica,sans-Serif" font-size="10.00">asm/f_pc/f_pc_searcher</text>
<text text-anchor="start" x="251" y="-74.5" font-family="Helvetica,sans-Serif" font-size="10.00">/fpcSch_JudgeForPName</text>
<text text-anchor="middle" x="307.5" y="-63.5" font-family="Helvetica,sans-Serif" font-size="10.00">__FPvPv.s</text>
</a>
</g>
</g>
<!-- Node1&#45;&gt;Node5 -->
<g id="edge5" class="edge">
<title>Node1&#45;&gt;Node5</title>
<path fill="none" stroke="midnightblue" d="M209.74,-134.23C223.84,-126.12 245.49,-113.67 264.84,-102.54"/>
<polygon fill="midnightblue" stroke="midnightblue" points="266.6,-105.56 273.53,-97.54 263.11,-99.49 266.6,-105.56"/>
</g>
<!-- Node6 -->
<g id="node6" class="node">
<title>Node6</title>
<g id="a_node6"><a xlink:title=" ">
<polygon fill="white" stroke="#bfbfbf" points="390,-62 390,-92 541,-92 541,-62 390,-62"/>
<text text-anchor="start" x="398" y="-80" font-family="Helvetica,sans-Serif" font-size="10.00">asm/f_pc/f_pc_searcher</text>
<text text-anchor="middle" x="465.5" y="-69" font-family="Helvetica,sans-Serif" font-size="10.00">/fpcSch_JudgeByID__FPvPv.s</text>
</a>
</g>
</g>
<!-- Node1&#45;&gt;Node6 -->
<g id="edge6" class="edge">
<title>Node1&#45;&gt;Node6</title>
<path fill="none" stroke="midnightblue" d="M230.21,-134.44C272.47,-124.3 343.8,-107.19 396.86,-94.46"/>
<polygon fill="midnightblue" stroke="midnightblue" points="397.98,-97.8 406.88,-92.06 396.34,-90.99 397.98,-97.8"/>
</g>
<!-- Node2&#45;&gt;Node3 -->
<g id="edge2" class="edge">
<title>Node2&#45;&gt;Node3</title>
<path fill="none" stroke="midnightblue" d="M59.03,-67.23C65.3,-57.29 75.68,-40.84 83.59,-28.29"/>
<polygon fill="midnightblue" stroke="midnightblue" points="86.68,-29.95 89.06,-19.63 80.76,-26.22 86.68,-29.95"/>
</g>
</g>
</svg>
