<?xml version="1.0" encoding="UTF-8" standalone="no"?>
<!DOCTYPE svg PUBLIC "-//W3C//DTD SVG 1.1//EN"
 "http://www.w3.org/Graphics/SVG/1.1/DTD/svg11.dtd">
<!-- Generated by graphviz version 2.47.0 (20210316.2052)
 -->
<!-- Title: src/f_pc/f_pc_node.cpp Pages: 1 -->
<!--zoomable 162 -->
<svg id="main" version="1.1" xmlns="http://www.w3.org/2000/svg" xmlns:xlink="http://www.w3.org/1999/xlink" xml:space="preserve" onload="init(evt)">
<style type="text/css"><![CDATA[
.edge:hover path { stroke: red; }
.edge:hover polygon { stroke: red; fill: red; }
]]></style>
<script type="text/javascript"><![CDATA[
var edges = document.getElementsByTagName('g');
if (edges && edges.length) {
  for (var i=0;i<edges.length;i++) {
    if (edges[i].id.substr(0,4)=='edge') {
      edges[i].setAttribute('class','edge');
    }
  }
}
]]></script>
        <defs>
                <circle id="rim" cx="0" cy="0" r="7"/>
                <circle id="rim2" cx="0" cy="0" r="3.5"/>
                <g id="zoomPlus">
                        <use xlink:href="#rim" fill="#404040">
                                <set attributeName="fill" to="#808080" begin="zoomplus.mouseover" end="zoomplus.mouseout"/>
                        </use>
                        <path d="M-4,0h8M0,-4v8" fill="none" stroke="white" stroke-width="1.5" pointer-events="none"/>
                </g>
                <g id="zoomMin">
                        <use xlink:href="#rim" fill="#404040">
                                <set attributeName="fill" to="#808080" begin="zoomminus.mouseover" end="zoomminus.mouseout"/>
                        </use>
                        <path d="M-4,0h8" fill="none" stroke="white" stroke-width="1.5" pointer-events="none"/>
                </g>
                <g id="dirArrow">
                        <path fill="none" stroke="white" stroke-width="1.5" d="M0,-3.0v7 M-2.5,-0.5L0,-3.0L2.5,-0.5"/>
                </g>
               <g id="resetDef">
                       <use xlink:href="#rim2" fill="#404040">
                               <set attributeName="fill" to="#808080" begin="reset.mouseover" end="reset.mouseout"/>
                       </use>
               </g>
        </defs>

<script type="text/javascript">
var viewWidth = 1582;
var viewHeight = 162;
var sectionId = 'dynsection-0';
</script>
<script xlink:href="svgpan.js"/>
<svg id="graph" class="graph">
<g id="viewport">
<title>src/f_pc/f_pc_node.cpp</title>
<polygon fill="white" stroke="transparent" points="-4,4 -4,-158 1577.5,-158 1577.5,4 -4,4"/>
<!-- Node1 -->
<g id="node1" class="node">
<title>Node1</title>
<g id="a_node1"><a xlink:title=" ">
<polygon fill="#bfbfbf" stroke="black" points="605.5,-134.5 605.5,-153.5 723.5,-153.5 723.5,-134.5 605.5,-134.5"/>
<text text-anchor="middle" x="664.5" y="-141.5" font-family="Helvetica,sans-Serif" font-size="10.00">src/f_pc/f_pc_node.cpp</text>
</a>
</g>
</g>
<!-- Node2 -->
<g id="node2" class="node">
<title>Node2</title>
<g id="a_node2"><a xlink:href="dol2asm_8h.html" target="_top" xlink:title=" ">
<polygon fill="white" stroke="black" points="0,-67.5 0,-86.5 61,-86.5 61,-67.5 0,-67.5"/>
<text text-anchor="middle" x="30.5" y="-74.5" font-family="Helvetica,sans-Serif" font-size="10.00">dol2asm.h</text>
</a>
</g>
</g>
<!-- Node1&#45;&gt;Node2 -->
<g id="edge1" class="edge">
<title>Node1&#45;&gt;Node2</title>
<path fill="none" stroke="midnightblue" d="M605.1,-141.03C476.23,-136.35 174.56,-123 75.5,-98 68.86,-96.32 61.98,-93.74 55.64,-90.98"/>
<polygon fill="midnightblue" stroke="midnightblue" points="56.81,-87.66 46.27,-86.6 53.85,-94.01 56.81,-87.66"/>
</g>
<!-- Node3 -->
<g id="node3" class="node">
<title>Node3</title>
<g id="a_node3"><a xlink:href="types_8h.html" target="_top" xlink:title=" ">
<polygon fill="white" stroke="black" points="86,-0.5 86,-19.5 167,-19.5 167,-0.5 86,-0.5"/>
<text text-anchor="middle" x="126.5" y="-7.5" font-family="Helvetica,sans-Serif" font-size="10.00">dolphin/types.h</text>
</a>
</g>
</g>
<!-- Node1&#45;&gt;Node3 -->
<g id="edge2" class="edge">
<title>Node1&#45;&gt;Node3</title>
<path fill="none" stroke="midnightblue" d="M605.25,-142.63C469.02,-141.16 142.6,-133.89 109.5,-98 92.1,-79.13 104.59,-47.91 115.41,-28.45"/>
<polygon fill="midnightblue" stroke="midnightblue" points="118.5,-30.09 120.6,-19.71 112.49,-26.52 118.5,-30.09"/>
</g>
<!-- Node4 -->
<g id="node4" class="node">
<title>Node4</title>
<g id="a_node4"><a xlink:href="f__pc__node_8h.html" target="_top" xlink:title=" ">
<polygon fill="white" stroke="black" points="118,-67.5 118,-86.5 209,-86.5 209,-67.5 118,-67.5"/>
<text text-anchor="middle" x="163.5" y="-74.5" font-family="Helvetica,sans-Serif" font-size="10.00">f_pc/f_pc_node.h</text>
</a>
</g>
</g>
<!-- Node1&#45;&gt;Node4 -->
<g id="edge3" class="edge">
<title>Node1&#45;&gt;Node4</title>
<path fill="none" stroke="midnightblue" d="M605.3,-141.68C519.16,-138.72 354.68,-129.12 218.5,-98 209.98,-96.05 200.97,-93.16 192.77,-90.17"/>
<polygon fill="midnightblue" stroke="midnightblue" points="193.85,-86.83 183.25,-86.53 191.35,-93.37 193.85,-86.83"/>
</g>
<!-- Node5 -->
<g id="node5" class="node">
<title>Node5</title>
<g id="a_node5"><a xlink:title=" ">
<polygon fill="white" stroke="#bfbfbf" points="227.5,-56.5 227.5,-97.5 409.5,-97.5 409.5,-56.5 227.5,-56.5"/>
<text text-anchor="start" x="235.5" y="-85.5" font-family="Helvetica,sans-Serif" font-size="10.00">asm/f_pc/f_pc_node</text>
<text text-anchor="start" x="235.5" y="-74.5" font-family="Helvetica,sans-Serif" font-size="10.00">/fpcNd_DrawMethod__FP21nodedraw</text>
<text text-anchor="middle" x="318.5" y="-63.5" font-family="Helvetica,sans-Serif" font-size="10.00">_method_classPv.s</text>
</a>
</g>
</g>
<!-- Node1&#45;&gt;Node5 -->
<g id="edge5" class="edge">
<title>Node1&#45;&gt;Node5</title>
<path fill="none" stroke="midnightblue" d="M616.38,-134.44C568.89,-125.94 493.94,-112.37 419.52,-98.18"/>
<polygon fill="midnightblue" stroke="midnightblue" points="419.99,-94.71 409.51,-96.27 418.67,-101.58 419.99,-94.71"/>
</g>
<!-- Node6 -->
<g id="node6" class="node">
<title>Node6</title>
<g id="a_node6"><a xlink:title=" ">
<polygon fill="white" stroke="#bfbfbf" points="427.5,-56.5 427.5,-97.5 569.5,-97.5 569.5,-56.5 427.5,-56.5"/>
<text text-anchor="start" x="435.5" y="-85.5" font-family="Helvetica,sans-Serif" font-size="10.00">asm/f_pc/f_pc_node</text>
<text text-anchor="start" x="435.5" y="-74.5" font-family="Helvetica,sans-Serif" font-size="10.00">/fpcNd_Draw__FP18process</text>
<text text-anchor="middle" x="498.5" y="-63.5" font-family="Helvetica,sans-Serif" font-size="10.00">_node_class.s</text>
</a>
</g>
</g>
<!-- Node1&#45;&gt;Node6 -->
<g id="edge6" class="edge">
<title>Node1&#45;&gt;Node6</title>
<path fill="none" stroke="midnightblue" d="M642.46,-134.37C620.97,-125.95 587.34,-112.79 557.98,-101.29"/>
<polygon fill="midnightblue" stroke="midnightblue" points="559.21,-98.01 548.62,-97.63 556.66,-104.53 559.21,-98.01"/>
</g>
<!-- Node7 -->
<g id="node7" class="node">
<title>Node7</title>
<g id="a_node7"><a xlink:title=" ">
<polygon fill="white" stroke="#bfbfbf" points="587.5,-56.5 587.5,-97.5 741.5,-97.5 741.5,-56.5 587.5,-56.5"/>
<text text-anchor="start" x="595.5" y="-85.5" font-family="Helvetica,sans-Serif" font-size="10.00">asm/f_pc/f_pc_node</text>
<text text-anchor="start" x="595.5" y="-74.5" font-family="Helvetica,sans-Serif" font-size="10.00">/fpcNd_Execute__FP18process</text>
<text text-anchor="middle" x="664.5" y="-63.5" font-family="Helvetica,sans-Serif" font-size="10.00">_node_class.s</text>
</a>
</g>
</g>
<!-- Node1&#45;&gt;Node7 -->
<g id="edge7" class="edge">
<title>Node1&#45;&gt;Node7</title>
<path fill="none" stroke="midnightblue" d="M664.5,-134.23C664.5,-127.36 664.5,-117.38 664.5,-107.73"/>
<polygon fill="midnightblue" stroke="midnightblue" points="668,-107.54 664.5,-97.54 661,-107.54 668,-107.54"/>
</g>
<!-- Node8 -->
<g id="node8" class="node">
<title>Node8</title>
<g id="a_node8"><a xlink:title=" ">
<polygon fill="white" stroke="#bfbfbf" points="759.5,-56.5 759.5,-97.5 903.5,-97.5 903.5,-56.5 759.5,-56.5"/>
<text text-anchor="start" x="767.5" y="-85.5" font-family="Helvetica,sans-Serif" font-size="10.00">asm/f_pc/f_pc_node</text>
<text text-anchor="start" x="767.5" y="-74.5" font-family="Helvetica,sans-Serif" font-size="10.00">/fpcNd_IsCreatingFromUnder</text>
<text text-anchor="middle" x="831.5" y="-63.5" font-family="Helvetica,sans-Serif" font-size="10.00">__FPv.s</text>
</a>
</g>
</g>
<!-- Node1&#45;&gt;Node8 -->
<g id="edge8" class="edge">
<title>Node1&#45;&gt;Node8</title>
<path fill="none" stroke="midnightblue" d="M686.68,-134.37C708.29,-125.95 742.13,-112.79 771.66,-101.29"/>
<polygon fill="midnightblue" stroke="midnightblue" points="773.03,-104.51 781.08,-97.63 770.49,-97.99 773.03,-104.51"/>
</g>
<!-- Node9 -->
<g id="node9" class="node">
<title>Node9</title>
<g id="a_node9"><a xlink:title=" ">
<polygon fill="white" stroke="#bfbfbf" points="922,-56.5 922,-97.5 1069,-97.5 1069,-56.5 922,-56.5"/>
<text text-anchor="start" x="930" y="-85.5" font-family="Helvetica,sans-Serif" font-size="10.00">asm/f_pc/f_pc_node</text>
<text text-anchor="start" x="930" y="-74.5" font-family="Helvetica,sans-Serif" font-size="10.00">/fpcNd_IsDeleteTiming</text>
<text text-anchor="middle" x="995.5" y="-63.5" font-family="Helvetica,sans-Serif" font-size="10.00">__FP18process_node_class.s</text>
</a>
</g>
</g>
<!-- Node1&#45;&gt;Node9 -->
<g id="edge9" class="edge">
<title>Node1&#45;&gt;Node9</title>
<path fill="none" stroke="midnightblue" d="M716.44,-134.46C764.57,-126.35 838.39,-113.4 911.89,-98.07"/>
<polygon fill="midnightblue" stroke="midnightblue" points="912.72,-101.47 921.78,-95.99 911.28,-94.62 912.72,-101.47"/>
</g>
<!-- Node10 -->
<g id="node10" class="node">
<title>Node10</title>
<g id="a_node10"><a xlink:title=" ">
<polygon fill="white" stroke="#bfbfbf" points="1087,-56.5 1087,-97.5 1242,-97.5 1242,-56.5 1087,-56.5"/>
<text text-anchor="start" x="1095" y="-85.5" font-family="Helvetica,sans-Serif" font-size="10.00">asm/f_pc/f_pc_node</text>
<text text-anchor="start" x="1095" y="-74.5" font-family="Helvetica,sans-Serif" font-size="10.00">/fpcNd_IsDelete__FP18process</text>
<text text-anchor="middle" x="1164.5" y="-63.5" font-family="Helvetica,sans-Serif" font-size="10.00">_node_class.s</text>
</a>
</g>
</g>
<!-- Node1&#45;&gt;Node10 -->
<g id="edge10" class="edge">
<title>Node1&#45;&gt;Node10</title>
<path fill="none" stroke="midnightblue" d="M723.77,-138.81C802.37,-132.76 945.55,-119.99 1076.56,-98.24"/>
<polygon fill="midnightblue" stroke="midnightblue" points="1077.49,-101.63 1086.77,-96.52 1076.33,-94.73 1077.49,-101.63"/>
</g>
<!-- Node11 -->
<g id="node11" class="node">
<title>Node11</title>
<g id="a_node11"><a xlink:title=" ">
<polygon fill="white" stroke="#bfbfbf" points="1260,-56.5 1260,-97.5 1407,-97.5 1407,-56.5 1260,-56.5"/>
<text text-anchor="start" x="1268" y="-85.5" font-family="Helvetica,sans-Serif" font-size="10.00">asm/f_pc/f_pc_node</text>
<text text-anchor="start" x="1268" y="-74.5" font-family="Helvetica,sans-Serif" font-size="10.00">/fpcNd_Delete__FP18process</text>
<text text-anchor="middle" x="1333.5" y="-63.5" font-family="Helvetica,sans-Serif" font-size="10.00">_node_class.s</text>
</a>
</g>
</g>
<!-- Node1&#45;&gt;Node11 -->
<g id="edge11" class="edge">
<title>Node1&#45;&gt;Node11</title>
<path fill="none" stroke="midnightblue" d="M723.61,-141.64C828.11,-138.56 1052.36,-128.82 1249.88,-98.13"/>
<polygon fill="midnightblue" stroke="midnightblue" points="1250.52,-101.57 1259.86,-96.56 1249.43,-94.66 1250.52,-101.57"/>
</g>
<!-- Node12 -->
<g id="node12" class="node">
<title>Node12</title>
<g id="a_node12"><a xlink:title=" ">
<polygon fill="white" stroke="#bfbfbf" points="1425.5,-56.5 1425.5,-97.5 1573.5,-97.5 1573.5,-56.5 1425.5,-56.5"/>
<text text-anchor="start" x="1433.5" y="-85.5" font-family="Helvetica,sans-Serif" font-size="10.00">asm/f_pc/f_pc_node</text>
<text text-anchor="start" x="1433.5" y="-74.5" font-family="Helvetica,sans-Serif" font-size="10.00">/fpcNd_Create__FP18process</text>
<text text-anchor="middle" x="1499.5" y="-63.5" font-family="Helvetica,sans-Serif" font-size="10.00">_node_class.s</text>
</a>
</g>
</g>
<!-- Node1&#45;&gt;Node12 -->
<g id="edge12" class="edge">
<title>Node1&#45;&gt;Node12</title>
<path fill="none" stroke="midnightblue" d="M723.85,-143C849.76,-142.23 1152.87,-136.32 1415.31,-98.03"/>
<polygon fill="midnightblue" stroke="midnightblue" points="1416.04,-101.46 1425.42,-96.54 1415.01,-94.54 1416.04,-101.46"/>
</g>
<!-- Node4&#45;&gt;Node3 -->
<g id="edge4" class="edge">
<title>Node4&#45;&gt;Node3</title>
<path fill="none" stroke="midnightblue" d="M158.51,-67.23C152.91,-57.39 143.67,-41.16 136.55,-28.66"/>
<polygon fill="midnightblue" stroke="midnightblue" points="139.4,-26.59 131.41,-19.63 133.32,-30.05 139.4,-26.59"/>
</g>
</g>
</svg>
        <g id="navigator" transform="translate(0 0)" fill="#404254">
                <rect fill="#f2f5e9" fill-opacity="0.5" stroke="#606060" stroke-width=".5" x="0" y="0" width="60" height="60"/>
                <use id="zoomplus" xlink:href="#zoomPlus" x="17" y="9" onmousedown="handleZoom(evt,'in')"/>
                <use id="zoomminus" xlink:href="#zoomMin" x="42" y="9" onmousedown="handleZoom(evt,'out')"/>
                <use id="reset" xlink:href="#resetDef" x="30" y="36" onmousedown="handleReset()"/>
                <g id="arrowUp" xlink:href="#dirArrow" transform="translate(30 24)" onmousedown="handlePan(0,-1)">
                  <use xlink:href="#rim" fill="#404040">
                        <set attributeName="fill" to="#808080" begin="arrowUp.mouseover" end="arrowUp.mouseout"/>
                  </use>
                  <path fill="none" stroke="white" stroke-width="1.5" d="M0,-3.0v7 M-2.5,-0.5L0,-3.0L2.5,-0.5"/>
                </g>
                <g id="arrowRight" xlink:href="#dirArrow" transform="rotate(90) translate(36 -43)" onmousedown="handlePan(1,0)">
                  <use xlink:href="#rim" fill="#404040">
                        <set attributeName="fill" to="#808080" begin="arrowRight.mouseover" end="arrowRight.mouseout"/>
                  </use>
                  <path fill="none" stroke="white" stroke-width="1.5" d="M0,-3.0v7 M-2.5,-0.5L0,-3.0L2.5,-0.5"/>
                </g>
                <g id="arrowDown" xlink:href="#dirArrow" transform="rotate(180) translate(-30 -48)" onmousedown="handlePan(0,1)">
                  <use xlink:href="#rim" fill="#404040">
                        <set attributeName="fill" to="#808080" begin="arrowDown.mouseover" end="arrowDown.mouseout"/>
                  </use>
                  <path fill="none" stroke="white" stroke-width="1.5" d="M0,-3.0v7 M-2.5,-0.5L0,-3.0L2.5,-0.5"/>
                </g>
                <g id="arrowLeft" xlink:href="#dirArrow" transform="rotate(270) translate(-36 17)" onmousedown="handlePan(-1,0)">
                  <use xlink:href="#rim" fill="#404040">
                        <set attributeName="fill" to="#808080" begin="arrowLeft.mouseover" end="arrowLeft.mouseout"/>
                  </use>
                  <path fill="none" stroke="white" stroke-width="1.5" d="M0,-3.0v7 M-2.5,-0.5L0,-3.0L2.5,-0.5"/>
                </g>
        </g>
        <svg viewBox="0 0 15 15" width="100%" height="30px" preserveAspectRatio="xMaxYMin meet">
         <g id="arrow_out" transform="scale(0.3 0.3)">
          <a xlink:href="f__pc__node_8cpp__incl_org.svg" target="_base">
           <rect id="button" ry="5" rx="5" y="6" x="6" height="38" width="38"
                fill="#f2f5e9" fill-opacity="0.5" stroke="#606060" stroke-width="1.0"/>
           <path id="arrow"
             d="M 11.500037,31.436501 C 11.940474,20.09759 22.043105,11.32322 32.158766,21.979434 L 37.068811,17.246167 C 37.068811,17.246167 37.088388,32 37.088388,32 L 22.160133,31.978069 C 22.160133,31.978069 26.997745,27.140456 26.997745,27.140456 C 18.528582,18.264221 13.291696,25.230495 11.500037,31.436501 z"
             style="fill:#404040;"/>
          </a>
         </g>
        </svg>
</svg>
