<?xml version="1.0" encoding="UTF-8" standalone="no"?>
<!DOCTYPE svg PUBLIC "-//W3C//DTD SVG 1.1//EN"
 "http://www.w3.org/Graphics/SVG/1.1/DTD/svg11.dtd">
<!-- Generated by graphviz version 2.47.0 (20210316.2052)
 -->
<!-- Title: src/f_pc/f_pc_draw_priority.cpp Pages: 1 -->
<svg width="746pt" height="173pt"
 viewBox="0.00 0.00 745.50 173.00" xmlns="http://www.w3.org/2000/svg" xmlns:xlink="http://www.w3.org/1999/xlink">
<g id="graph0" class="graph" transform="scale(1 1) rotate(0) translate(4 169)">
<title>src/f_pc/f_pc_draw_priority.cpp</title>
<polygon fill="white" stroke="transparent" points="-4,4 -4,-169 741.5,-169 741.5,4 -4,4"/>
<!-- Node1 -->
<g id="node1" class="node">
<title>Node1</title>
<g id="a_node1"><a xlink:title=" ">
<polygon fill="#bfbfbf" stroke="black" points="223.5,-134.5 223.5,-164.5 323.5,-164.5 323.5,-134.5 223.5,-134.5"/>
<text text-anchor="start" x="231.5" y="-152.5" font-family="Helvetica,sans-Serif" font-size="10.00">src/f_pc/f_pc_draw</text>
<text text-anchor="middle" x="273.5" y="-141.5" font-family="Helvetica,sans-Serif" font-size="10.00">_priority.cpp</text>
</a>
</g>
</g>
<!-- Node2 -->
<g id="node2" class="node">
<title>Node2</title>
<g id="a_node2"><a xlink:href="f__pc__draw__priority_8h.html" target="_top" xlink:title=" ">
<polygon fill="white" stroke="black" points="0,-67.5 0,-86.5 125,-86.5 125,-67.5 0,-67.5"/>
<text text-anchor="middle" x="62.5" y="-74.5" font-family="Helvetica,sans-Serif" font-size="10.00">f_pc/f_pc_draw_priority.h</text>
</a>
</g>
</g>
<!-- Node1&#45;&gt;Node2 -->
<g id="edge1" class="edge">
<title>Node1&#45;&gt;Node2</title>
<path fill="none" stroke="midnightblue" d="M231.56,-134.49C192.45,-121.42 134.77,-102.15 97.91,-89.83"/>
<polygon fill="midnightblue" stroke="midnightblue" points="98.7,-86.4 88.1,-86.55 96.48,-93.04 98.7,-86.4"/>
</g>
<!-- Node3 -->
<g id="node3" class="node">
<title>Node3</title>
<g id="a_node3"><a xlink:href="types_8h.html" target="_top" xlink:title=" ">
<polygon fill="white" stroke="black" points="67,-0.5 67,-19.5 148,-19.5 148,-0.5 67,-0.5"/>
<text text-anchor="middle" x="107.5" y="-7.5" font-family="Helvetica,sans-Serif" font-size="10.00">dolphin/types.h</text>
</a>
</g>
</g>
<!-- Node1&#45;&gt;Node3 -->
<g id="edge4" class="edge">
<title>Node1&#45;&gt;Node3</title>
<path fill="none" stroke="midnightblue" d="M235.93,-134.38C216.07,-125.77 192.03,-113.44 173.5,-98 149.44,-77.95 128.95,-47.55 117.44,-28.5"/>
<polygon fill="midnightblue" stroke="midnightblue" points="120.35,-26.55 112.27,-19.69 114.31,-30.09 120.35,-26.55"/>
</g>
<!-- Node4 -->
<g id="node4" class="node">
<title>Node4</title>
<g id="a_node4"><a xlink:href="dol2asm_8h.html" target="_top" xlink:title=" ">
<polygon fill="white" stroke="black" points="182,-67.5 182,-86.5 243,-86.5 243,-67.5 182,-67.5"/>
<text text-anchor="middle" x="212.5" y="-74.5" font-family="Helvetica,sans-Serif" font-size="10.00">dol2asm.h</text>
</a>
</g>
</g>
<!-- Node1&#45;&gt;Node4 -->
<g id="edge3" class="edge">
<title>Node1&#45;&gt;Node4</title>
<path fill="none" stroke="midnightblue" d="M261.16,-134.23C251.2,-122.73 237.18,-106.53 226.75,-94.47"/>
<polygon fill="midnightblue" stroke="midnightblue" points="229.38,-92.17 220.19,-86.89 224.09,-96.75 229.38,-92.17"/>
</g>
<!-- Node5 -->
<g id="node5" class="node">
<title>Node5</title>
<g id="a_node5"><a xlink:title=" ">
<polygon fill="white" stroke="#bfbfbf" points="261.5,-56.5 261.5,-97.5 409.5,-97.5 409.5,-56.5 261.5,-56.5"/>
<text text-anchor="start" x="269.5" y="-85.5" font-family="Helvetica,sans-Serif" font-size="10.00">asm/f_pc/f_pc_draw</text>
<text text-anchor="start" x="269.5" y="-74.5" font-family="Helvetica,sans-Serif" font-size="10.00">_priority/fpcDwPi_Get</text>
<text text-anchor="middle" x="335.5" y="-63.5" font-family="Helvetica,sans-Serif" font-size="10.00">__FPC19draw_priority_class.s</text>
</a>
</g>
</g>
<!-- Node1&#45;&gt;Node5 -->
<g id="edge5" class="edge">
<title>Node1&#45;&gt;Node5</title>
<path fill="none" stroke="midnightblue" d="M286.05,-134.23C293.36,-125.92 302.83,-115.15 311.52,-105.26"/>
<polygon fill="midnightblue" stroke="midnightblue" points="314.3,-107.41 318.27,-97.59 309.04,-102.79 314.3,-107.41"/>
</g>
<!-- Node6 -->
<g id="node6" class="node">
<title>Node6</title>
<g id="a_node6"><a xlink:title=" ">
<polygon fill="white" stroke="#bfbfbf" points="427.5,-56.5 427.5,-97.5 573.5,-97.5 573.5,-56.5 427.5,-56.5"/>
<text text-anchor="start" x="435.5" y="-85.5" font-family="Helvetica,sans-Serif" font-size="10.00">asm/f_pc/f_pc_draw</text>
<text text-anchor="start" x="435.5" y="-74.5" font-family="Helvetica,sans-Serif" font-size="10.00">_priority/fpcDwPi_Set</text>
<text text-anchor="middle" x="500.5" y="-63.5" font-family="Helvetica,sans-Serif" font-size="10.00">__FP19draw_priority_classs.s</text>
</a>
</g>
</g>
<!-- Node1&#45;&gt;Node6 -->
<g id="edge6" class="edge">
<title>Node1&#45;&gt;Node6</title>
<path fill="none" stroke="midnightblue" d="M318.62,-134.49C349.7,-124.83 391.69,-111.79 427.5,-100.67"/>
<polygon fill="midnightblue" stroke="midnightblue" points="428.9,-103.9 437.42,-97.59 426.83,-97.22 428.9,-103.9"/>
</g>
<!-- Node7 -->
<g id="node7" class="node">
<title>Node7</title>
<g id="a_node7"><a xlink:title=" ">
<polygon fill="white" stroke="#bfbfbf" points="591.5,-56.5 591.5,-97.5 737.5,-97.5 737.5,-56.5 591.5,-56.5"/>
<text text-anchor="start" x="599.5" y="-85.5" font-family="Helvetica,sans-Serif" font-size="10.00">asm/f_pc/f_pc_draw</text>
<text text-anchor="start" x="599.5" y="-74.5" font-family="Helvetica,sans-Serif" font-size="10.00">_priority/fpcDwPi_Init</text>
<text text-anchor="middle" x="664.5" y="-63.5" font-family="Helvetica,sans-Serif" font-size="10.00">__FP19draw_priority_classs.s</text>
</a>
</g>
</g>
<!-- Node1&#45;&gt;Node7 -->
<g id="edge7" class="edge">
<title>Node1&#45;&gt;Node7</title>
<path fill="none" stroke="midnightblue" d="M323.76,-141.5C383.05,-132.98 484.77,-117.51 581.32,-98.17"/>
<polygon fill="midnightblue" stroke="midnightblue" points="582.14,-101.58 591.25,-96.16 580.75,-94.71 582.14,-101.58"/>
</g>
<!-- Node2&#45;&gt;Node3 -->
<g id="edge2" class="edge">
<title>Node2&#45;&gt;Node3</title>
<path fill="none" stroke="midnightblue" d="M68.57,-67.23C75.52,-57.2 87.07,-40.51 95.79,-27.92"/>
<polygon fill="midnightblue" stroke="midnightblue" points="98.71,-29.84 101.53,-19.63 92.96,-25.86 98.71,-29.84"/>
</g>
</g>
</svg>
