<?xml version="1.0" encoding="UTF-8" standalone="no"?>
<!DOCTYPE svg PUBLIC "-//W3C//DTD SVG 1.1//EN"
 "http://www.w3.org/Graphics/SVG/1.1/DTD/svg11.dtd">
<!-- Generated by graphviz version 2.47.0 (20210316.2052)
 -->
<!-- Title: src/f_pc/f_pc_load.cpp Pages: 1 -->
<svg width="712pt" height="151pt"
 viewBox="0.00 0.00 712.00 151.00" xmlns="http://www.w3.org/2000/svg" xmlns:xlink="http://www.w3.org/1999/xlink">
<g id="graph0" class="graph" transform="scale(1 1) rotate(0) translate(4 147)">
<title>src/f_pc/f_pc_load.cpp</title>
<polygon fill="white" stroke="transparent" points="-4,4 -4,-147 708,-147 708,4 -4,4"/>
<!-- Node1 -->
<g id="node1" class="node">
<title>Node1</title>
<g id="a_node1"><a xlink:title=" ">
<polygon fill="#bfbfbf" stroke="black" points="217.5,-123.5 217.5,-142.5 332.5,-142.5 332.5,-123.5 217.5,-123.5"/>
<text text-anchor="middle" x="275" y="-130.5" font-family="Helvetica,sans-Serif" font-size="10.00">src/f_pc/f_pc_load.cpp</text>
</a>
</g>
</g>
<!-- Node2 -->
<g id="node2" class="node">
<title>Node2</title>
<g id="a_node2"><a xlink:href="f__pc__load_8h.html" target="_top" xlink:title=" ">
<polygon fill="white" stroke="black" points="0,-62 0,-81 88,-81 88,-62 0,-62"/>
<text text-anchor="middle" x="44" y="-69" font-family="Helvetica,sans-Serif" font-size="10.00">f_pc/f_pc_load.h</text>
</a>
</g>
</g>
<!-- Node1&#45;&gt;Node2 -->
<g id="edge1" class="edge">
<title>Node1&#45;&gt;Node2</title>
<path fill="none" stroke="midnightblue" d="M241.9,-123.48C201.08,-112.96 131.59,-95.06 86.76,-83.51"/>
<polygon fill="midnightblue" stroke="midnightblue" points="87.59,-80.11 77.04,-81.01 85.85,-86.89 87.59,-80.11"/>
</g>
<!-- Node3 -->
<g id="node3" class="node">
<title>Node3</title>
<g id="a_node3"><a xlink:href="types_8h.html" target="_top" xlink:title=" ">
<polygon fill="white" stroke="black" points="39.5,-0.5 39.5,-19.5 120.5,-19.5 120.5,-0.5 39.5,-0.5"/>
<text text-anchor="middle" x="80" y="-7.5" font-family="Helvetica,sans-Serif" font-size="10.00">dolphin/types.h</text>
</a>
</g>
</g>
<!-- Node1&#45;&gt;Node3 -->
<g id="edge4" class="edge">
<title>Node1&#45;&gt;Node3</title>
<path fill="none" stroke="midnightblue" d="M223.93,-123.43C196.01,-116.88 161.93,-105.68 136,-87 114.77,-71.7 98.24,-45.92 88.8,-28.69"/>
<polygon fill="midnightblue" stroke="midnightblue" points="91.82,-26.91 84.09,-19.67 85.62,-30.15 91.82,-26.91"/>
</g>
<!-- Node4 -->
<g id="node4" class="node">
<title>Node4</title>
<g id="a_node4"><a xlink:href="dol2asm_8h.html" target="_top" xlink:title=" ">
<polygon fill="white" stroke="black" points="144.5,-62 144.5,-81 205.5,-81 205.5,-62 144.5,-62"/>
<text text-anchor="middle" x="175" y="-69" font-family="Helvetica,sans-Serif" font-size="10.00">dol2asm.h</text>
</a>
</g>
</g>
<!-- Node1&#45;&gt;Node4 -->
<g id="edge3" class="edge">
<title>Node1&#45;&gt;Node4</title>
<path fill="none" stroke="midnightblue" d="M260.67,-123.48C244.34,-113.75 217.4,-97.73 198.09,-86.24"/>
<polygon fill="midnightblue" stroke="midnightblue" points="199.68,-83.11 189.3,-81.01 196.11,-89.13 199.68,-83.11"/>
</g>
<!-- Node5 -->
<g id="node5" class="node">
<title>Node5</title>
<g id="a_node5"><a xlink:title=" ">
<polygon fill="white" stroke="#bfbfbf" points="224,-56.5 224,-86.5 326,-86.5 326,-56.5 224,-56.5"/>
<text text-anchor="start" x="232" y="-74.5" font-family="Helvetica,sans-Serif" font-size="10.00">asm/f_pc/f_pc_load</text>
<text text-anchor="middle" x="275" y="-63.5" font-family="Helvetica,sans-Serif" font-size="10.00">/fpcLd_Use__Fs.s</text>
</a>
</g>
</g>
<!-- Node1&#45;&gt;Node5 -->
<g id="edge5" class="edge">
<title>Node1&#45;&gt;Node5</title>
<path fill="none" stroke="midnightblue" d="M275,-123.48C275,-116.47 275,-106.19 275,-96.7"/>
<polygon fill="midnightblue" stroke="midnightblue" points="278.5,-96.52 275,-86.52 271.5,-96.52 278.5,-96.52"/>
</g>
<!-- Node6 -->
<g id="node6" class="node">
<title>Node6</title>
<g id="a_node6"><a xlink:title=" ">
<polygon fill="white" stroke="#bfbfbf" points="344.5,-56.5 344.5,-86.5 463.5,-86.5 463.5,-56.5 344.5,-56.5"/>
<text text-anchor="start" x="352.5" y="-74.5" font-family="Helvetica,sans-Serif" font-size="10.00">asm/f_pc/f_pc_load</text>
<text text-anchor="middle" x="404" y="-63.5" font-family="Helvetica,sans-Serif" font-size="10.00">/fpcLd_IsLoaded__Fs.s</text>
</a>
</g>
</g>
<!-- Node1&#45;&gt;Node6 -->
<g id="edge6" class="edge">
<title>Node1&#45;&gt;Node6</title>
<path fill="none" stroke="midnightblue" d="M293.48,-123.48C311.93,-114.96 340.87,-101.62 364.5,-90.72"/>
<polygon fill="midnightblue" stroke="midnightblue" points="365.98,-93.89 373.6,-86.52 363.05,-87.53 365.98,-93.89"/>
</g>
<!-- Node7 -->
<g id="node7" class="node">
<title>Node7</title>
<g id="a_node7"><a xlink:title=" ">
<polygon fill="white" stroke="#bfbfbf" points="482,-56.5 482,-86.5 584,-86.5 584,-56.5 482,-56.5"/>
<text text-anchor="start" x="490" y="-74.5" font-family="Helvetica,sans-Serif" font-size="10.00">asm/f_pc/f_pc_load</text>
<text text-anchor="middle" x="533" y="-63.5" font-family="Helvetica,sans-Serif" font-size="10.00">/fpcLd_Free__Fs.s</text>
</a>
</g>
</g>
<!-- Node1&#45;&gt;Node7 -->
<g id="edge7" class="edge">
<title>Node1&#45;&gt;Node7</title>
<path fill="none" stroke="midnightblue" d="M313.36,-123.44C351.25,-114.96 411.1,-101.45 472.14,-87.18"/>
<polygon fill="midnightblue" stroke="midnightblue" points="473.01,-90.58 481.95,-84.89 471.41,-83.76 473.01,-90.58"/>
</g>
<!-- Node8 -->
<g id="node8" class="node">
<title>Node8</title>
<g id="a_node8"><a xlink:title=" ">
<polygon fill="white" stroke="#bfbfbf" points="602,-56.5 602,-86.5 704,-86.5 704,-56.5 602,-56.5"/>
<text text-anchor="start" x="610" y="-74.5" font-family="Helvetica,sans-Serif" font-size="10.00">asm/f_pc/f_pc_load</text>
<text text-anchor="middle" x="653" y="-63.5" font-family="Helvetica,sans-Serif" font-size="10.00">/fpcLd_Load__Fs.s</text>
</a>
</g>
</g>
<!-- Node1&#45;&gt;Node8 -->
<g id="edge8" class="edge">
<title>Node1&#45;&gt;Node8</title>
<path fill="none" stroke="midnightblue" d="M332.72,-125.53C394.53,-118.22 495.64,-105.17 591.8,-87.12"/>
<polygon fill="midnightblue" stroke="midnightblue" points="592.51,-90.55 601.68,-85.25 591.21,-83.67 592.51,-90.55"/>
</g>
<!-- Node2&#45;&gt;Node3 -->
<g id="edge2" class="edge">
<title>Node2&#45;&gt;Node3</title>
<path fill="none" stroke="midnightblue" d="M49.16,-61.98C54.45,-53.23 62.84,-39.37 69.53,-28.31"/>
<polygon fill="midnightblue" stroke="midnightblue" points="72.67,-29.88 74.85,-19.51 66.68,-26.25 72.67,-29.88"/>
</g>
</g>
</svg>
