<?xml version="1.0" encoding="UTF-8" standalone="no"?>
<!DOCTYPE svg PUBLIC "-//W3C//DTD SVG 1.1//EN"
 "http://www.w3.org/Graphics/SVG/1.1/DTD/svg11.dtd">
<!-- Generated by graphviz version 2.47.0 (20210316.2052)
 -->
<!-- Title: src/f_pc/f_pc_create_iter.cpp Pages: 1 -->
<svg width="808pt" height="184pt"
 viewBox="0.00 0.00 808.00 184.00" xmlns="http://www.w3.org/2000/svg" xmlns:xlink="http://www.w3.org/1999/xlink">
<g id="graph0" class="graph" transform="scale(1 1) rotate(0) translate(4 180)">
<title>src/f_pc/f_pc_create_iter.cpp</title>
<polygon fill="white" stroke="transparent" points="-4,4 -4,-180 804,-180 804,4 -4,4"/>
<!-- Node1 -->
<g id="node1" class="node">
<title>Node1</title>
<g id="a_node1"><a xlink:title=" ">
<polygon fill="#bfbfbf" stroke="black" points="254.5,-145.5 254.5,-175.5 360.5,-175.5 360.5,-145.5 254.5,-145.5"/>
<text text-anchor="start" x="262.5" y="-163.5" font-family="Helvetica,sans-Serif" font-size="10.00">src/f_pc/f_pc_create</text>
<text text-anchor="middle" x="307.5" y="-152.5" font-family="Helvetica,sans-Serif" font-size="10.00">_iter.cpp</text>
</a>
</g>
</g>
<!-- Node2 -->
<g id="node2" class="node">
<title>Node2</title>
<g id="a_node2"><a xlink:href="dol2asm_8h.html" target="_top" xlink:title=" ">
<polygon fill="white" stroke="black" points="0,-73 0,-92 61,-92 61,-73 0,-73"/>
<text text-anchor="middle" x="30.5" y="-80" font-family="Helvetica,sans-Serif" font-size="10.00">dol2asm.h</text>
</a>
</g>
</g>
<!-- Node1&#45;&gt;Node2 -->
<g id="edge1" class="edge">
<title>Node1&#45;&gt;Node2</title>
<path fill="none" stroke="midnightblue" d="M254.13,-152.56C206.24,-145.24 134.61,-131.58 75.5,-109 67.66,-106 59.54,-101.79 52.4,-97.66"/>
<polygon fill="midnightblue" stroke="midnightblue" points="53.74,-94.38 43.37,-92.18 50.11,-100.36 53.74,-94.38"/>
</g>
<!-- Node3 -->
<g id="node3" class="node">
<title>Node3</title>
<g id="a_node3"><a xlink:href="types_8h.html" target="_top" xlink:title=" ">
<polygon fill="white" stroke="black" points="92,-0.5 92,-19.5 173,-19.5 173,-0.5 92,-0.5"/>
<text text-anchor="middle" x="132.5" y="-7.5" font-family="Helvetica,sans-Serif" font-size="10.00">dolphin/types.h</text>
</a>
</g>
</g>
<!-- Node1&#45;&gt;Node3 -->
<g id="edge2" class="edge">
<title>Node1&#45;&gt;Node3</title>
<path fill="none" stroke="midnightblue" d="M254.37,-153.36C201.67,-146.05 126.28,-131.86 108.5,-109 90.03,-85.26 107.13,-49.28 120.4,-28.16"/>
<polygon fill="midnightblue" stroke="midnightblue" points="123.47,-29.86 126.08,-19.6 117.64,-25.99 123.47,-29.86"/>
</g>
<!-- Node4 -->
<g id="node4" class="node">
<title>Node4</title>
<g id="a_node4"><a xlink:href="f__pc__create__iter_8h.html" target="_top" xlink:title=" ">
<polygon fill="white" stroke="black" points="117.5,-73 117.5,-92 233.5,-92 233.5,-73 117.5,-73"/>
<text text-anchor="middle" x="175.5" y="-80" font-family="Helvetica,sans-Serif" font-size="10.00">f_pc/f_pc_create_iter.h</text>
</a>
</g>
</g>
<!-- Node1&#45;&gt;Node4 -->
<g id="edge3" class="edge">
<title>Node1&#45;&gt;Node4</title>
<path fill="none" stroke="midnightblue" d="M282.98,-145.38C259.02,-131.59 222.8,-110.73 199.15,-97.11"/>
<polygon fill="midnightblue" stroke="midnightblue" points="200.86,-94.06 190.45,-92.11 197.37,-100.13 200.86,-94.06"/>
</g>
<!-- Node5 -->
<g id="node5" class="node">
<title>Node5</title>
<g id="a_node5"><a xlink:title=" ">
<polygon fill="white" stroke="#bfbfbf" points="252,-62 252,-103 363,-103 363,-62 252,-62"/>
<text text-anchor="start" x="260" y="-91" font-family="Helvetica,sans-Serif" font-size="10.00">asm/f_pc/f_pc_create</text>
<text text-anchor="start" x="260" y="-80" font-family="Helvetica,sans-Serif" font-size="10.00">_iter/fpcCtIt_Method</text>
<text text-anchor="middle" x="307.5" y="-69" font-family="Helvetica,sans-Serif" font-size="10.00">__FPFPvPv_iPv.s</text>
</a>
</g>
</g>
<!-- Node1&#45;&gt;Node5 -->
<g id="edge5" class="edge">
<title>Node1&#45;&gt;Node5</title>
<path fill="none" stroke="midnightblue" d="M307.5,-145.2C307.5,-136.21 307.5,-124.27 307.5,-113.29"/>
<polygon fill="midnightblue" stroke="midnightblue" points="311,-113.18 307.5,-103.18 304,-113.18 311,-113.18"/>
</g>
<!-- Node6 -->
<g id="node6" class="node">
<title>Node6</title>
<g id="a_node6"><a xlink:title=" ">
<polygon fill="white" stroke="#bfbfbf" points="381,-62 381,-103 492,-103 492,-62 381,-62"/>
<text text-anchor="start" x="389" y="-91" font-family="Helvetica,sans-Serif" font-size="10.00">asm/f_pc/f_pc_create</text>
<text text-anchor="start" x="389" y="-80" font-family="Helvetica,sans-Serif" font-size="10.00">_iter/fpcCtIt_Judge_</text>
<text text-anchor="middle" x="436.5" y="-69" font-family="Helvetica,sans-Serif" font-size="10.00">_FPFPvPv_PvPv.s</text>
</a>
</g>
</g>
<!-- Node1&#45;&gt;Node6 -->
<g id="edge6" class="edge">
<title>Node1&#45;&gt;Node6</title>
<path fill="none" stroke="midnightblue" d="M331.46,-145.38C349.06,-135.02 373.42,-120.66 394.26,-108.39"/>
<polygon fill="midnightblue" stroke="midnightblue" points="396.1,-111.36 402.94,-103.27 392.55,-105.33 396.1,-111.36"/>
</g>
<!-- Node7 -->
<g id="node7" class="node">
<title>Node7</title>
<g id="a_node7"><a xlink:title=" ">
<polygon fill="white" stroke="#bfbfbf" points="510,-56.5 510,-108.5 651,-108.5 651,-56.5 510,-56.5"/>
<text text-anchor="start" x="518" y="-96.5" font-family="Helvetica,sans-Serif" font-size="10.00">asm/f_pc/f_pc_create</text>
<text text-anchor="start" x="518" y="-85.5" font-family="Helvetica,sans-Serif" font-size="10.00">_iter/fpcCtIt_filter</text>
<text text-anchor="start" x="518" y="-74.5" font-family="Helvetica,sans-Serif" font-size="10.00">_JudgeInLayer__FP10create</text>
<text text-anchor="middle" x="580.5" y="-63.5" font-family="Helvetica,sans-Serif" font-size="10.00">_tagP16fpcCtIt_jilprm_c.s</text>
</a>
</g>
</g>
<!-- Node1&#45;&gt;Node7 -->
<g id="edge7" class="edge">
<title>Node1&#45;&gt;Node7</title>
<path fill="none" stroke="midnightblue" d="M360.84,-146.5C397.64,-137.32 447.91,-124.4 500.15,-109.34"/>
<polygon fill="midnightblue" stroke="midnightblue" points="501.3,-112.65 509.93,-106.5 499.35,-105.93 501.3,-112.65"/>
</g>
<!-- Node8 -->
<g id="node8" class="node">
<title>Node8</title>
<g id="a_node8"><a xlink:title=" ">
<polygon fill="white" stroke="#bfbfbf" points="669,-62 669,-103 800,-103 800,-62 669,-62"/>
<text text-anchor="start" x="677" y="-91" font-family="Helvetica,sans-Serif" font-size="10.00">asm/f_pc/f_pc_create</text>
<text text-anchor="start" x="677" y="-80" font-family="Helvetica,sans-Serif" font-size="10.00">_iter/fpcCtIt_JudgeInLayer</text>
<text text-anchor="middle" x="734.5" y="-69" font-family="Helvetica,sans-Serif" font-size="10.00">__FUiPFPvPv_PvPv.s</text>
</a>
</g>
</g>
<!-- Node1&#45;&gt;Node8 -->
<g id="edge8" class="edge">
<title>Node1&#45;&gt;Node8</title>
<path fill="none" stroke="midnightblue" d="M360.72,-155.06C430.34,-148.53 555.79,-134.29 660.5,-109 664.15,-108.12 667.87,-107.13 671.61,-106.07"/>
<polygon fill="midnightblue" stroke="midnightblue" points="672.93,-109.33 681.5,-103.11 670.92,-102.62 672.93,-109.33"/>
</g>
<!-- Node4&#45;&gt;Node3 -->
<g id="edge4" class="edge">
<title>Node4&#45;&gt;Node3</title>
<path fill="none" stroke="midnightblue" d="M170.23,-72.86C163.52,-61.86 151.78,-42.61 143.17,-28.5"/>
<polygon fill="midnightblue" stroke="midnightblue" points="146.01,-26.43 137.82,-19.72 140.03,-30.08 146.01,-26.43"/>
</g>
</g>
</svg>
