<?xml version="1.0" encoding="UTF-8" standalone="no"?>
<!DOCTYPE svg PUBLIC "-//W3C//DTD SVG 1.1//EN"
 "http://www.w3.org/Graphics/SVG/1.1/DTD/svg11.dtd">
<!-- Generated by graphviz version 2.47.0 (20210316.2052)
 -->
<!-- Title: src/f_pc/f_pc_deletor.cpp Pages: 1 -->
<!--zoomable 162 -->
<svg id="main" version="1.1" xmlns="http://www.w3.org/2000/svg" xmlns:xlink="http://www.w3.org/1999/xlink" xml:space="preserve" onload="init(evt)">
<style type="text/css"><![CDATA[
.edge:hover path { stroke: red; }
.edge:hover polygon { stroke: red; fill: red; }
]]></style>
<script type="text/javascript"><![CDATA[
var edges = document.getElementsByTagName('g');
if (edges && edges.length) {
  for (var i=0;i<edges.length;i++) {
    if (edges[i].id.substr(0,4)=='edge') {
      edges[i].setAttribute('class','edge');
    }
  }
}
]]></script>
        <defs>
                <circle id="rim" cx="0" cy="0" r="7"/>
                <circle id="rim2" cx="0" cy="0" r="3.5"/>
                <g id="zoomPlus">
                        <use xlink:href="#rim" fill="#404040">
                                <set attributeName="fill" to="#808080" begin="zoomplus.mouseover" end="zoomplus.mouseout"/>
                        </use>
                        <path d="M-4,0h8M0,-4v8" fill="none" stroke="white" stroke-width="1.5" pointer-events="none"/>
                </g>
                <g id="zoomMin">
                        <use xlink:href="#rim" fill="#404040">
                                <set attributeName="fill" to="#808080" begin="zoomminus.mouseover" end="zoomminus.mouseout"/>
                        </use>
                        <path d="M-4,0h8" fill="none" stroke="white" stroke-width="1.5" pointer-events="none"/>
                </g>
                <g id="dirArrow">
                        <path fill="none" stroke="white" stroke-width="1.5" d="M0,-3.0v7 M-2.5,-0.5L0,-3.0L2.5,-0.5"/>
                </g>
               <g id="resetDef">
                       <use xlink:href="#rim2" fill="#404040">
                               <set attributeName="fill" to="#808080" begin="reset.mouseover" end="reset.mouseout"/>
                       </use>
               </g>
        </defs>

<script type="text/javascript">
var viewWidth = 1121;
var viewHeight = 162;
var sectionId = 'dynsection-0';
</script>
<script xlink:href="svgpan.js"/>
<svg id="graph" class="graph">
<g id="viewport">
<title>src/f_pc/f_pc_deletor.cpp</title>
<polygon fill="white" stroke="transparent" points="-4,4 -4,-158 1117,-158 1117,4 -4,4"/>
<!-- Node1 -->
<g id="node1" class="node">
<title>Node1</title>
<g id="a_node1"><a xlink:title=" ">
<polygon fill="#bfbfbf" stroke="black" points="388.5,-134.5 388.5,-153.5 514.5,-153.5 514.5,-134.5 388.5,-134.5"/>
<text text-anchor="middle" x="451.5" y="-141.5" font-family="Helvetica,sans-Serif" font-size="10.00">src/f_pc/f_pc_deletor.cpp</text>
</a>
</g>
</g>
<!-- Node2 -->
<g id="node2" class="node">
<title>Node2</title>
<g id="a_node2"><a xlink:href="f__pc__deletor_8h.html" target="_top" xlink:title=" ">
<polygon fill="white" stroke="black" points="0,-67.5 0,-86.5 99,-86.5 99,-67.5 0,-67.5"/>
<text text-anchor="middle" x="49.5" y="-74.5" font-family="Helvetica,sans-Serif" font-size="10.00">f_pc/f_pc_deletor.h</text>
</a>
</g>
</g>
<!-- Node1&#45;&gt;Node2 -->
<g id="edge1" class="edge">
<title>Node1&#45;&gt;Node2</title>
<path fill="none" stroke="midnightblue" d="M388.33,-137.83C320.01,-131.5 208.15,-118.93 113.5,-98 103.55,-95.8 92.91,-92.76 83.23,-89.72"/>
<polygon fill="midnightblue" stroke="midnightblue" points="84.14,-86.34 73.55,-86.58 81.98,-93 84.14,-86.34"/>
</g>
<!-- Node3 -->
<g id="node3" class="node">
<title>Node3</title>
<g id="a_node3"><a xlink:href="types_8h.html" target="_top" xlink:title=" ">
<polygon fill="white" stroke="black" points="48,-0.5 48,-19.5 129,-19.5 129,-0.5 48,-0.5"/>
<text text-anchor="middle" x="88.5" y="-7.5" font-family="Helvetica,sans-Serif" font-size="10.00">dolphin/types.h</text>
</a>
</g>
</g>
<!-- Node1&#45;&gt;Node3 -->
<g id="edge4" class="edge">
<title>Node1&#45;&gt;Node3</title>
<path fill="none" stroke="midnightblue" d="M388.34,-139.6C311.31,-134.44 186.52,-122.51 147.5,-98 121.58,-81.71 104.29,-49.41 95.46,-29.08"/>
<polygon fill="midnightblue" stroke="midnightblue" points="98.64,-27.61 91.61,-19.69 92.16,-30.27 98.64,-27.61"/>
</g>
<!-- Node4 -->
<g id="node4" class="node">
<title>Node4</title>
<g id="a_node4"><a xlink:href="dol2asm_8h.html" target="_top" xlink:title=" ">
<polygon fill="white" stroke="black" points="156,-67.5 156,-86.5 217,-86.5 217,-67.5 156,-67.5"/>
<text text-anchor="middle" x="186.5" y="-74.5" font-family="Helvetica,sans-Serif" font-size="10.00">dol2asm.h</text>
</a>
</g>
</g>
<!-- Node1&#45;&gt;Node4 -->
<g id="edge3" class="edge">
<title>Node1&#45;&gt;Node4</title>
<path fill="none" stroke="midnightblue" d="M388.24,-134.95C342.49,-128.03 279.63,-116.23 226.5,-98 221.08,-96.14 215.47,-93.69 210.22,-91.15"/>
<polygon fill="midnightblue" stroke="midnightblue" points="211.78,-88.02 201.28,-86.58 208.59,-94.25 211.78,-88.02"/>
</g>
<!-- Node5 -->
<g id="node5" class="node">
<title>Node5</title>
<g id="a_node5"><a xlink:title=" ">
<polygon fill="white" stroke="#bfbfbf" points="235,-62 235,-92 362,-92 362,-62 235,-62"/>
<text text-anchor="start" x="243" y="-80" font-family="Helvetica,sans-Serif" font-size="10.00">asm/f_pc/f_pc_deletor</text>
<text text-anchor="middle" x="298.5" y="-69" font-family="Helvetica,sans-Serif" font-size="10.00">/fpcDt_IsComplete__Fv.s</text>
</a>
</g>
</g>
<!-- Node1&#45;&gt;Node5 -->
<g id="edge5" class="edge">
<title>Node1&#45;&gt;Node5</title>
<path fill="none" stroke="midnightblue" d="M431.18,-134.37C408.22,-124.62 370.22,-108.47 340.76,-95.95"/>
<polygon fill="midnightblue" stroke="midnightblue" points="342.09,-92.72 331.52,-92.03 339.36,-99.16 342.09,-92.72"/>
</g>
<!-- Node6 -->
<g id="node6" class="node">
<title>Node6</title>
<g id="a_node6"><a xlink:title=" ">
<polygon fill="white" stroke="#bfbfbf" points="380.5,-56.5 380.5,-97.5 522.5,-97.5 522.5,-56.5 380.5,-56.5"/>
<text text-anchor="start" x="388.5" y="-85.5" font-family="Helvetica,sans-Serif" font-size="10.00">asm/f_pc/f_pc_deletor</text>
<text text-anchor="start" x="388.5" y="-74.5" font-family="Helvetica,sans-Serif" font-size="10.00">/fpcDt_deleteMethod_</text>
<text text-anchor="middle" x="451.5" y="-63.5" font-family="Helvetica,sans-Serif" font-size="10.00">_FP18base_process_class.s</text>
</a>
</g>
</g>
<!-- Node1&#45;&gt;Node6 -->
<g id="edge6" class="edge">
<title>Node1&#45;&gt;Node6</title>
<path fill="none" stroke="midnightblue" d="M451.5,-134.23C451.5,-127.36 451.5,-117.38 451.5,-107.73"/>
<polygon fill="midnightblue" stroke="midnightblue" points="455,-107.54 451.5,-97.54 448,-107.54 455,-107.54"/>
</g>
<!-- Node7 -->
<g id="node7" class="node">
<title>Node7</title>
<g id="a_node7"><a xlink:title=" ">
<polygon fill="white" stroke="#bfbfbf" points="541,-62 541,-92 654,-92 654,-62 541,-62"/>
<text text-anchor="start" x="549" y="-80" font-family="Helvetica,sans-Serif" font-size="10.00">asm/f_pc/f_pc_deletor</text>
<text text-anchor="middle" x="597.5" y="-69" font-family="Helvetica,sans-Serif" font-size="10.00">/fpcDt_Handler__Fv.s</text>
</a>
</g>
</g>
<!-- Node1&#45;&gt;Node7 -->
<g id="edge7" class="edge">
<title>Node1&#45;&gt;Node7</title>
<path fill="none" stroke="midnightblue" d="M470.89,-134.37C492.7,-124.66 528.75,-108.61 556.81,-96.11"/>
<polygon fill="midnightblue" stroke="midnightblue" points="558.28,-99.29 565.99,-92.03 555.43,-92.9 558.28,-99.29"/>
</g>
<!-- Node8 -->
<g id="node8" class="node">
<title>Node8</title>
<g id="a_node8"><a xlink:title=" ">
<polygon fill="white" stroke="#bfbfbf" points="672,-56.5 672,-97.5 815,-97.5 815,-56.5 672,-56.5"/>
<text text-anchor="start" x="680" y="-85.5" font-family="Helvetica,sans-Serif" font-size="10.00">asm/f_pc/f_pc_deletor</text>
<text text-anchor="start" x="680" y="-74.5" font-family="Helvetica,sans-Serif" font-size="10.00">/fpcDt_ToQueue__FP18base</text>
<text text-anchor="middle" x="743.5" y="-63.5" font-family="Helvetica,sans-Serif" font-size="10.00">_process_class.s</text>
</a>
</g>
</g>
<!-- Node1&#45;&gt;Node8 -->
<g id="edge8" class="edge">
<title>Node1&#45;&gt;Node8</title>
<path fill="none" stroke="midnightblue" d="M493.83,-134.48C534.6,-126.17 598.25,-112.93 661.79,-98.36"/>
<polygon fill="midnightblue" stroke="midnightblue" points="662.61,-101.77 671.57,-96.11 661.04,-94.94 662.61,-101.77"/>
</g>
<!-- Node9 -->
<g id="node9" class="node">
<title>Node9</title>
<g id="a_node9"><a xlink:title=" ">
<polygon fill="white" stroke="#bfbfbf" points="833,-56.5 833,-97.5 982,-97.5 982,-56.5 833,-56.5"/>
<text text-anchor="start" x="841" y="-85.5" font-family="Helvetica,sans-Serif" font-size="10.00">asm/f_pc/f_pc_deletor</text>
<text text-anchor="start" x="841" y="-74.5" font-family="Helvetica,sans-Serif" font-size="10.00">/fpcDt_ToDeleteQ__FP18base</text>
<text text-anchor="middle" x="907.5" y="-63.5" font-family="Helvetica,sans-Serif" font-size="10.00">_process_class.s</text>
</a>
</g>
</g>
<!-- Node1&#45;&gt;Node9 -->
<g id="edge9" class="edge">
<title>Node1&#45;&gt;Node9</title>
<path fill="none" stroke="midnightblue" d="M514.53,-137.65C586.86,-131.01 709.16,-118.24 823,-98.17"/>
<polygon fill="midnightblue" stroke="midnightblue" points="823.7,-101.6 832.93,-96.4 822.47,-94.71 823.7,-101.6"/>
</g>
<!-- Node10 -->
<g id="node10" class="node">
<title>Node10</title>
<g id="a_node10"><a xlink:title=" ">
<polygon fill="white" stroke="#bfbfbf" points="1000,-62 1000,-92 1113,-92 1113,-62 1000,-62"/>
<text text-anchor="start" x="1008" y="-80" font-family="Helvetica,sans-Serif" font-size="10.00">asm/f_pc/f_pc_deletor</text>
<text text-anchor="middle" x="1056.5" y="-69" font-family="Helvetica,sans-Serif" font-size="10.00">/fpcDt_Delete__FPv.s</text>
</a>
</g>
</g>
<!-- Node1&#45;&gt;Node10 -->
<g id="edge10" class="edge">
<title>Node1&#45;&gt;Node10</title>
<path fill="none" stroke="midnightblue" d="M514.87,-142.12C616.38,-139.74 821.31,-130.88 991.5,-98 996.18,-97.1 1001,-95.98 1005.8,-94.74"/>
<polygon fill="midnightblue" stroke="midnightblue" points="1006.86,-98.08 1015.58,-92.05 1005.01,-91.33 1006.86,-98.08"/>
</g>
<!-- Node2&#45;&gt;Node3 -->
<g id="edge2" class="edge">
<title>Node2&#45;&gt;Node3</title>
<path fill="none" stroke="midnightblue" d="M54.76,-67.23C60.72,-57.29 70.6,-40.84 78.13,-28.29"/>
<polygon fill="midnightblue" stroke="midnightblue" points="81.18,-30 83.32,-19.63 75.18,-26.4 81.18,-30"/>
</g>
</g>
</svg>
        <g id="navigator" transform="translate(0 0)" fill="#404254">
                <rect fill="#f2f5e9" fill-opacity="0.5" stroke="#606060" stroke-width=".5" x="0" y="0" width="60" height="60"/>
                <use id="zoomplus" xlink:href="#zoomPlus" x="17" y="9" onmousedown="handleZoom(evt,'in')"/>
                <use id="zoomminus" xlink:href="#zoomMin" x="42" y="9" onmousedown="handleZoom(evt,'out')"/>
                <use id="reset" xlink:href="#resetDef" x="30" y="36" onmousedown="handleReset()"/>
                <g id="arrowUp" xlink:href="#dirArrow" transform="translate(30 24)" onmousedown="handlePan(0,-1)">
                  <use xlink:href="#rim" fill="#404040">
                        <set attributeName="fill" to="#808080" begin="arrowUp.mouseover" end="arrowUp.mouseout"/>
                  </use>
                  <path fill="none" stroke="white" stroke-width="1.5" d="M0,-3.0v7 M-2.5,-0.5L0,-3.0L2.5,-0.5"/>
                </g>
                <g id="arrowRight" xlink:href="#dirArrow" transform="rotate(90) translate(36 -43)" onmousedown="handlePan(1,0)">
                  <use xlink:href="#rim" fill="#404040">
                        <set attributeName="fill" to="#808080" begin="arrowRight.mouseover" end="arrowRight.mouseout"/>
                  </use>
                  <path fill="none" stroke="white" stroke-width="1.5" d="M0,-3.0v7 M-2.5,-0.5L0,-3.0L2.5,-0.5"/>
                </g>
                <g id="arrowDown" xlink:href="#dirArrow" transform="rotate(180) translate(-30 -48)" onmousedown="handlePan(0,1)">
                  <use xlink:href="#rim" fill="#404040">
                        <set attributeName="fill" to="#808080" begin="arrowDown.mouseover" end="arrowDown.mouseout"/>
                  </use>
                  <path fill="none" stroke="white" stroke-width="1.5" d="M0,-3.0v7 M-2.5,-0.5L0,-3.0L2.5,-0.5"/>
                </g>
                <g id="arrowLeft" xlink:href="#dirArrow" transform="rotate(270) translate(-36 17)" onmousedown="handlePan(-1,0)">
                  <use xlink:href="#rim" fill="#404040">
                        <set attributeName="fill" to="#808080" begin="arrowLeft.mouseover" end="arrowLeft.mouseout"/>
                  </use>
                  <path fill="none" stroke="white" stroke-width="1.5" d="M0,-3.0v7 M-2.5,-0.5L0,-3.0L2.5,-0.5"/>
                </g>
        </g>
        <svg viewBox="0 0 15 15" width="100%" height="30px" preserveAspectRatio="xMaxYMin meet">
         <g id="arrow_out" transform="scale(0.3 0.3)">
          <a xlink:href="f__pc__deletor_8cpp__incl_org.svg" target="_base">
           <rect id="button" ry="5" rx="5" y="6" x="6" height="38" width="38"
                fill="#f2f5e9" fill-opacity="0.5" stroke="#606060" stroke-width="1.0"/>
           <path id="arrow"
             d="M 11.500037,31.436501 C 11.940474,20.09759 22.043105,11.32322 32.158766,21.979434 L 37.068811,17.246167 C 37.068811,17.246167 37.088388,32 37.088388,32 L 22.160133,31.978069 C 22.160133,31.978069 26.997745,27.140456 26.997745,27.140456 C 18.528582,18.264221 13.291696,25.230495 11.500037,31.436501 z"
             style="fill:#404040;"/>
          </a>
         </g>
        </svg>
</svg>
