<?xml version="1.0" encoding="UTF-8" standalone="no"?>
<!DOCTYPE svg PUBLIC "-//W3C//DTD SVG 1.1//EN"
 "http://www.w3.org/Graphics/SVG/1.1/DTD/svg11.dtd">
<!-- Generated by graphviz version 2.47.0 (20210316.2052)
 -->
<!-- Title: src/f_pc/f_pc_fstcreate_req.cpp Pages: 1 -->
<svg width="708pt" height="184pt"
 viewBox="0.00 0.00 708.00 184.00" xmlns="http://www.w3.org/2000/svg" xmlns:xlink="http://www.w3.org/1999/xlink">
<g id="graph0" class="graph" transform="scale(1 1) rotate(0) translate(4 180)">
<title>src/f_pc/f_pc_fstcreate_req.cpp</title>
<polygon fill="white" stroke="transparent" points="-4,4 -4,-180 704,-180 704,4 -4,4"/>
<!-- Node1 -->
<g id="node1" class="node">
<title>Node1</title>
<g id="a_node1"><a xlink:title=" ">
<polygon fill="#bfbfbf" stroke="black" points="181,-145.5 181,-175.5 298,-175.5 298,-145.5 181,-145.5"/>
<text text-anchor="start" x="189" y="-163.5" font-family="Helvetica,sans-Serif" font-size="10.00">src/f_pc/f_pc_fstcreate</text>
<text text-anchor="middle" x="239.5" y="-152.5" font-family="Helvetica,sans-Serif" font-size="10.00">_req.cpp</text>
</a>
</g>
</g>
<!-- Node2 -->
<g id="node2" class="node">
<title>Node2</title>
<g id="a_node2"><a xlink:href="dol2asm_8h.html" target="_top" xlink:title=" ">
<polygon fill="white" stroke="black" points="0,-73 0,-92 61,-92 61,-73 0,-73"/>
<text text-anchor="middle" x="30.5" y="-80" font-family="Helvetica,sans-Serif" font-size="10.00">dol2asm.h</text>
</a>
</g>
</g>
<!-- Node1&#45;&gt;Node2 -->
<g id="edge1" class="edge">
<title>Node1&#45;&gt;Node2</title>
<path fill="none" stroke="midnightblue" d="M183.38,-145.47C151.2,-136.63 110.38,-124.04 75.5,-109 67.9,-105.72 59.95,-101.5 52.87,-97.44"/>
<polygon fill="midnightblue" stroke="midnightblue" points="54.28,-94.21 43.89,-92.11 50.7,-100.22 54.28,-94.21"/>
</g>
<!-- Node3 -->
<g id="node3" class="node">
<title>Node3</title>
<g id="a_node3"><a xlink:href="types_8h.html" target="_top" xlink:title=" ">
<polygon fill="white" stroke="black" points="88,-0.5 88,-19.5 169,-19.5 169,-0.5 88,-0.5"/>
<text text-anchor="middle" x="128.5" y="-7.5" font-family="Helvetica,sans-Serif" font-size="10.00">dolphin/types.h</text>
</a>
</g>
</g>
<!-- Node1&#45;&gt;Node3 -->
<g id="edge2" class="edge">
<title>Node1&#45;&gt;Node3</title>
<path fill="none" stroke="midnightblue" d="M180.96,-151.85C154.52,-145.15 125.64,-132.58 109.5,-109 92.85,-84.68 106.71,-49.42 117.89,-28.49"/>
<polygon fill="midnightblue" stroke="midnightblue" points="120.97,-30.15 122.87,-19.73 114.88,-26.69 120.97,-30.15"/>
</g>
<!-- Node4 -->
<g id="node4" class="node">
<title>Node4</title>
<g id="a_node4"><a xlink:href="f__pc__fstcreate__req_8h.html" target="_top" xlink:title=" ">
<polygon fill="white" stroke="black" points="118,-67.5 118,-97.5 219,-97.5 219,-67.5 118,-67.5"/>
<text text-anchor="start" x="126" y="-85.5" font-family="Helvetica,sans-Serif" font-size="10.00">f_pc/f_pc_fstcreate</text>
<text text-anchor="middle" x="168.5" y="-74.5" font-family="Helvetica,sans-Serif" font-size="10.00">_req.h</text>
</a>
</g>
</g>
<!-- Node1&#45;&gt;Node4 -->
<g id="edge3" class="edge">
<title>Node1&#45;&gt;Node4</title>
<path fill="none" stroke="midnightblue" d="M226.15,-145.2C215.63,-133.95 200.81,-118.08 188.82,-105.26"/>
<polygon fill="midnightblue" stroke="midnightblue" points="191.18,-102.65 181.79,-97.73 186.06,-107.43 191.18,-102.65"/>
</g>
<!-- Node5 -->
<g id="node5" class="node">
<title>Node5</title>
<g id="a_node5"><a xlink:title=" ">
<polygon fill="white" stroke="#bfbfbf" points="237,-62 237,-103 384,-103 384,-62 237,-62"/>
<text text-anchor="start" x="245" y="-91" font-family="Helvetica,sans-Serif" font-size="10.00">asm/f_pc/f_pc_fstcreate</text>
<text text-anchor="start" x="245" y="-80" font-family="Helvetica,sans-Serif" font-size="10.00">_req/fpcFCtRq_Do__FP19fast</text>
<text text-anchor="middle" x="310.5" y="-69" font-family="Helvetica,sans-Serif" font-size="10.00">_create_request.s</text>
</a>
</g>
</g>
<!-- Node1&#45;&gt;Node5 -->
<g id="edge5" class="edge">
<title>Node1&#45;&gt;Node5</title>
<path fill="none" stroke="midnightblue" d="M252.85,-145.2C261.95,-135.47 274.27,-122.28 285.19,-110.59"/>
<polygon fill="midnightblue" stroke="midnightblue" points="287.85,-112.88 292.11,-103.18 282.73,-108.1 287.85,-112.88"/>
</g>
<!-- Node6 -->
<g id="node6" class="node">
<title>Node6</title>
<g id="a_node6"><a xlink:title=" ">
<polygon fill="white" stroke="#bfbfbf" points="402,-62 402,-103 541,-103 541,-62 402,-62"/>
<text text-anchor="start" x="410" y="-91" font-family="Helvetica,sans-Serif" font-size="10.00">asm/f_pc/f_pc_fstcreate</text>
<text text-anchor="start" x="410" y="-80" font-family="Helvetica,sans-Serif" font-size="10.00">_req/fpcFCtRq_Delete_</text>
<text text-anchor="middle" x="471.5" y="-69" font-family="Helvetica,sans-Serif" font-size="10.00">_FP19fast_create_request.s</text>
</a>
</g>
</g>
<!-- Node1&#45;&gt;Node6 -->
<g id="edge6" class="edge">
<title>Node1&#45;&gt;Node6</title>
<path fill="none" stroke="midnightblue" d="M282.32,-145.47C315.88,-134.48 363.24,-118.96 402.18,-106.21"/>
<polygon fill="midnightblue" stroke="midnightblue" points="403.47,-109.47 411.88,-103.03 401.29,-102.82 403.47,-109.47"/>
</g>
<!-- Node7 -->
<g id="node7" class="node">
<title>Node7</title>
<g id="a_node7"><a xlink:title=" ">
<polygon fill="white" stroke="#bfbfbf" points="559,-56.5 559,-108.5 700,-108.5 700,-56.5 559,-56.5"/>
<text text-anchor="start" x="567" y="-96.5" font-family="Helvetica,sans-Serif" font-size="10.00">asm/f_pc/f_pc_fstcreate</text>
<text text-anchor="start" x="567" y="-85.5" font-family="Helvetica,sans-Serif" font-size="10.00">_req/fpcFCtRq_Request</text>
<text text-anchor="start" x="567" y="-74.5" font-family="Helvetica,sans-Serif" font-size="10.00">__FP11layer_classsPFPvPv</text>
<text text-anchor="middle" x="629.5" y="-63.5" font-family="Helvetica,sans-Serif" font-size="10.00">_iPvPv.s</text>
</a>
</g>
</g>
<!-- Node1&#45;&gt;Node7 -->
<g id="edge7" class="edge">
<title>Node1&#45;&gt;Node7</title>
<path fill="none" stroke="midnightblue" d="M298.2,-152.66C358.98,-144.98 456.72,-130.93 548.83,-109.28"/>
<polygon fill="midnightblue" stroke="midnightblue" points="549.67,-112.67 558.59,-106.95 548.05,-105.87 549.67,-112.67"/>
</g>
<!-- Node4&#45;&gt;Node3 -->
<g id="edge4" class="edge">
<title>Node4&#45;&gt;Node3</title>
<path fill="none" stroke="midnightblue" d="M160.41,-67.23C154.13,-56.17 145.39,-40.77 138.64,-28.88"/>
<polygon fill="midnightblue" stroke="midnightblue" points="141.52,-26.86 133.55,-19.89 135.44,-30.32 141.52,-26.86"/>
</g>
</g>
</svg>
