<?xml version="1.0" encoding="UTF-8" standalone="no"?>
<!DOCTYPE svg PUBLIC "-//W3C//DTD SVG 1.1//EN"
 "http://www.w3.org/Graphics/SVG/1.1/DTD/svg11.dtd">
<!-- Generated by graphviz version 2.47.0 (20210316.2052)
 -->
<!-- Title: libs/MSL_C.PPCEABI.bare.H/MSL_Common/Src/file_io.cpp Pages: 1 -->
<svg width="759pt" height="184pt"
 viewBox="0.00 0.00 759.00 184.00" xmlns="http://www.w3.org/2000/svg" xmlns:xlink="http://www.w3.org/1999/xlink">
<g id="graph0" class="graph" transform="scale(1 1) rotate(0) translate(4 180)">
<title>libs/MSL_C.PPCEABI.bare.H/MSL_Common/Src/file_io.cpp</title>
<polygon fill="white" stroke="transparent" points="-4,4 -4,-180 755,-180 755,4 -4,4"/>
<!-- Node1 -->
<g id="node1" class="node">
<title>Node1</title>
<g id="a_node1"><a xlink:title=" ">
<polygon fill="#bfbfbf" stroke="black" points="198.5,-134.5 198.5,-175.5 334.5,-175.5 334.5,-134.5 198.5,-134.5"/>
<text text-anchor="start" x="206.5" y="-163.5" font-family="Helvetica,sans-Serif" font-size="10.00">libs/MSL_C.PPCEABI.bare.</text>
<text text-anchor="start" x="206.5" y="-152.5" font-family="Helvetica,sans-Serif" font-size="10.00">H/MSL_Common/Src/file</text>
<text text-anchor="middle" x="266.5" y="-141.5" font-family="Helvetica,sans-Serif" font-size="10.00">_io.cpp</text>
</a>
</g>
</g>
<!-- Node2 -->
<g id="node2" class="node">
<title>Node2</title>
<g id="a_node2"><a xlink:href="dol2asm_8h.html" target="_top" xlink:title=" ">
<polygon fill="white" stroke="black" points="0,-67.5 0,-86.5 61,-86.5 61,-67.5 0,-67.5"/>
<text text-anchor="middle" x="30.5" y="-74.5" font-family="Helvetica,sans-Serif" font-size="10.00">dol2asm.h</text>
</a>
</g>
</g>
<!-- Node1&#45;&gt;Node2 -->
<g id="edge1" class="edge">
<title>Node1&#45;&gt;Node2</title>
<path fill="none" stroke="midnightblue" d="M198.16,-136.34C161.42,-126.25 115.56,-112.7 75.5,-98 69.64,-95.85 63.46,-93.3 57.62,-90.75"/>
<polygon fill="midnightblue" stroke="midnightblue" points="58.79,-87.44 48.23,-86.53 55.92,-93.82 58.79,-87.44"/>
</g>
<!-- Node3 -->
<g id="node3" class="node">
<title>Node3</title>
<g id="a_node3"><a xlink:href="types_8h.html" target="_top" xlink:title=" ">
<polygon fill="white" stroke="black" points="97,-0.5 97,-19.5 178,-19.5 178,-0.5 97,-0.5"/>
<text text-anchor="middle" x="137.5" y="-7.5" font-family="Helvetica,sans-Serif" font-size="10.00">dolphin/types.h</text>
</a>
</g>
</g>
<!-- Node1&#45;&gt;Node3 -->
<g id="edge2" class="edge">
<title>Node1&#45;&gt;Node3</title>
<path fill="none" stroke="midnightblue" d="M198.38,-147.78C165.53,-140.96 128.9,-126.88 108.5,-98 93.26,-76.43 109.94,-46.29 123.58,-27.74"/>
<polygon fill="midnightblue" stroke="midnightblue" points="126.49,-29.69 129.87,-19.65 120.97,-25.39 126.49,-29.69"/>
</g>
<!-- Node4 -->
<g id="node4" class="node">
<title>Node4</title>
<g id="a_node4"><a xlink:href="file__io_8h.html" target="_top" xlink:title=" ">
<polygon fill="white" stroke="black" points="117.5,-62 117.5,-92 255.5,-92 255.5,-62 117.5,-62"/>
<text text-anchor="start" x="125.5" y="-80" font-family="Helvetica,sans-Serif" font-size="10.00">MSL_C.PPCEABI.bare.H</text>
<text text-anchor="middle" x="186.5" y="-69" font-family="Helvetica,sans-Serif" font-size="10.00">/MSL_Common/Src/file_io.h</text>
</a>
</g>
</g>
<!-- Node1&#45;&gt;Node4 -->
<g id="edge3" class="edge">
<title>Node1&#45;&gt;Node4</title>
<path fill="none" stroke="midnightblue" d="M245.9,-134.43C234.61,-123.71 220.61,-110.41 209.04,-99.41"/>
<polygon fill="midnightblue" stroke="midnightblue" points="211.13,-96.58 201.47,-92.23 206.31,-101.65 211.13,-96.58"/>
</g>
<!-- Node5 -->
<g id="node5" class="node">
<title>Node5</title>
<g id="a_node5"><a xlink:title=" ">
<polygon fill="white" stroke="#bfbfbf" points="274,-56.5 274,-97.5 421,-97.5 421,-56.5 274,-56.5"/>
<text text-anchor="start" x="282" y="-85.5" font-family="Helvetica,sans-Serif" font-size="10.00">asm/MSL_C.PPCEABI.bare.H</text>
<text text-anchor="start" x="282" y="-74.5" font-family="Helvetica,sans-Serif" font-size="10.00">/MSL_Common/Src/file_io</text>
<text text-anchor="middle" x="347.5" y="-63.5" font-family="Helvetica,sans-Serif" font-size="10.00">/__msl_strnicmp.s</text>
</a>
</g>
</g>
<!-- Node1&#45;&gt;Node5 -->
<g id="edge5" class="edge">
<title>Node1&#45;&gt;Node5</title>
<path fill="none" stroke="midnightblue" d="M287.36,-134.43C297.09,-125.3 308.82,-114.29 319.32,-104.44"/>
<polygon fill="midnightblue" stroke="midnightblue" points="321.81,-106.9 326.71,-97.51 317.02,-101.8 321.81,-106.9"/>
</g>
<!-- Node6 -->
<g id="node6" class="node">
<title>Node6</title>
<g id="a_node6"><a xlink:title=" ">
<polygon fill="white" stroke="#bfbfbf" points="439,-56.5 439,-97.5 586,-97.5 586,-56.5 439,-56.5"/>
<text text-anchor="start" x="447" y="-85.5" font-family="Helvetica,sans-Serif" font-size="10.00">asm/MSL_C.PPCEABI.bare.H</text>
<text text-anchor="start" x="447" y="-74.5" font-family="Helvetica,sans-Serif" font-size="10.00">/MSL_Common/Src/file_io</text>
<text text-anchor="middle" x="512.5" y="-63.5" font-family="Helvetica,sans-Serif" font-size="10.00">/fflush.s</text>
</a>
</g>
</g>
<!-- Node1&#45;&gt;Node6 -->
<g id="edge6" class="edge">
<title>Node1&#45;&gt;Node6</title>
<path fill="none" stroke="midnightblue" d="M329.85,-134.43C363.42,-124.06 404.82,-111.27 439.71,-100.49"/>
<polygon fill="midnightblue" stroke="midnightblue" points="440.84,-103.8 449.36,-97.51 438.78,-97.11 440.84,-103.8"/>
</g>
<!-- Node7 -->
<g id="node7" class="node">
<title>Node7</title>
<g id="a_node7"><a xlink:title=" ">
<polygon fill="white" stroke="#bfbfbf" points="604,-56.5 604,-97.5 751,-97.5 751,-56.5 604,-56.5"/>
<text text-anchor="start" x="612" y="-85.5" font-family="Helvetica,sans-Serif" font-size="10.00">asm/MSL_C.PPCEABI.bare.H</text>
<text text-anchor="start" x="612" y="-74.5" font-family="Helvetica,sans-Serif" font-size="10.00">/MSL_Common/Src/file_io</text>
<text text-anchor="middle" x="677.5" y="-63.5" font-family="Helvetica,sans-Serif" font-size="10.00">/fclose.s</text>
</a>
</g>
</g>
<!-- Node1&#45;&gt;Node7 -->
<g id="edge7" class="edge">
<title>Node1&#45;&gt;Node7</title>
<path fill="none" stroke="midnightblue" d="M334.81,-143.81C399.26,-133.88 498.77,-117.69 593.73,-98.31"/>
<polygon fill="midnightblue" stroke="midnightblue" points="594.71,-101.68 603.8,-96.24 593.3,-94.82 594.71,-101.68"/>
</g>
<!-- Node4&#45;&gt;Node3 -->
<g id="edge4" class="edge">
<title>Node4&#45;&gt;Node3</title>
<path fill="none" stroke="midnightblue" d="M175.87,-61.9C168.3,-51.86 158.11,-38.34 150.13,-27.75"/>
<polygon fill="midnightblue" stroke="midnightblue" points="152.87,-25.57 144.05,-19.69 147.28,-29.79 152.87,-25.57"/>
</g>
</g>
</svg>
