<?xml version="1.0" encoding="UTF-8" standalone="no"?>
<!DOCTYPE svg PUBLIC "-//W3C//DTD SVG 1.1//EN"
 "http://www.w3.org/Graphics/SVG/1.1/DTD/svg11.dtd">
<!-- Generated by graphviz version 2.47.0 (20210316.2052)
 -->
<!-- Title: libs/dolphin/gx/GXBump.cpp Pages: 1 -->
<svg width="1398pt" height="151pt"
 viewBox="0.00 0.00 1398.00 151.00" xmlns="http://www.w3.org/2000/svg" xmlns:xlink="http://www.w3.org/1999/xlink">
<g id="graph0" class="graph" transform="scale(1 1) rotate(0) translate(4 147)">
<title>libs/dolphin/gx/GXBump.cpp</title>
<polygon fill="white" stroke="transparent" points="-4,4 -4,-147 1394,-147 1394,4 -4,4"/>
<!-- Node1 -->
<g id="node1" class="node">
<title>Node1</title>
<g id="a_node1"><a xlink:title=" ">
<polygon fill="#bfbfbf" stroke="black" points="531,-123.5 531,-142.5 670,-142.5 670,-123.5 531,-123.5"/>
<text text-anchor="middle" x="600.5" y="-130.5" font-family="Helvetica,sans-Serif" font-size="10.00">libs/dolphin/gx/GXBump.cpp</text>
</a>
</g>
</g>
<!-- Node2 -->
<g id="node2" class="node">
<title>Node2</title>
<g id="a_node2"><a xlink:href="dol2asm_8h.html" target="_top" xlink:title=" ">
<polygon fill="white" stroke="black" points="0,-62 0,-81 61,-81 61,-62 0,-62"/>
<text text-anchor="middle" x="30.5" y="-69" font-family="Helvetica,sans-Serif" font-size="10.00">dol2asm.h</text>
</a>
</g>
</g>
<!-- Node1&#45;&gt;Node2 -->
<g id="edge1" class="edge">
<title>Node1&#45;&gt;Node2</title>
<path fill="none" stroke="midnightblue" d="M531,-131.03C429.82,-128.49 236.48,-119.4 75.5,-87 71.54,-86.2 67.44,-85.18 63.4,-84.04"/>
<polygon fill="midnightblue" stroke="midnightblue" points="64.18,-80.62 53.59,-81.05 62.13,-87.31 64.18,-80.62"/>
</g>
<!-- Node3 -->
<g id="node3" class="node">
<title>Node3</title>
<g id="a_node3"><a xlink:href="types_8h.html" target="_top" xlink:title=" ">
<polygon fill="white" stroke="black" points="90,-0.5 90,-19.5 171,-19.5 171,-0.5 90,-0.5"/>
<text text-anchor="middle" x="130.5" y="-7.5" font-family="Helvetica,sans-Serif" font-size="10.00">dolphin/types.h</text>
</a>
</g>
</g>
<!-- Node1&#45;&gt;Node3 -->
<g id="edge2" class="edge">
<title>Node1&#45;&gt;Node3</title>
<path fill="none" stroke="midnightblue" d="M530.84,-130.72C401.87,-127.62 136.4,-117.57 108.5,-87 93.66,-70.74 106.03,-45.04 117.35,-28.1"/>
<polygon fill="midnightblue" stroke="midnightblue" points="120.39,-29.88 123.36,-19.71 114.69,-25.8 120.39,-29.88"/>
</g>
<!-- Node4 -->
<g id="node4" class="node">
<title>Node4</title>
<g id="a_node4"><a xlink:href="GXBump_8h.html" target="_top" xlink:title=" ">
<polygon fill="white" stroke="black" points="117.5,-62 117.5,-81 227.5,-81 227.5,-62 117.5,-62"/>
<text text-anchor="middle" x="172.5" y="-69" font-family="Helvetica,sans-Serif" font-size="10.00">dolphin/gx/GXBump.h</text>
</a>
</g>
</g>
<!-- Node1&#45;&gt;Node4 -->
<g id="edge3" class="edge">
<title>Node1&#45;&gt;Node4</title>
<path fill="none" stroke="midnightblue" d="M530.96,-125.39C457.67,-117.95 339.02,-104.57 237.5,-87 231.15,-85.9 224.47,-84.59 217.92,-83.22"/>
<polygon fill="midnightblue" stroke="midnightblue" points="218.31,-79.72 207.8,-81.02 216.83,-86.56 218.31,-79.72"/>
</g>
<!-- Node5 -->
<g id="node5" class="node">
<title>Node5</title>
<g id="a_node5"><a xlink:title=" ">
<polygon fill="white" stroke="#bfbfbf" points="246,-56.5 246,-86.5 371,-86.5 371,-56.5 246,-56.5"/>
<text text-anchor="start" x="254" y="-74.5" font-family="Helvetica,sans-Serif" font-size="10.00">asm/dolphin/gx/GXBump</text>
<text text-anchor="middle" x="308.5" y="-63.5" font-family="Helvetica,sans-Serif" font-size="10.00">/GXSetTevIndirect.s</text>
</a>
</g>
</g>
<!-- Node1&#45;&gt;Node5 -->
<g id="edge5" class="edge">
<title>Node1&#45;&gt;Node5</title>
<path fill="none" stroke="midnightblue" d="M558.66,-123.48C512.4,-114.05 437.01,-98.69 381.07,-87.29"/>
<polygon fill="midnightblue" stroke="midnightblue" points="381.71,-83.85 371.22,-85.28 380.32,-90.71 381.71,-83.85"/>
</g>
<!-- Node6 -->
<g id="node6" class="node">
<title>Node6</title>
<g id="a_node6"><a xlink:title=" ">
<polygon fill="white" stroke="#bfbfbf" points="389,-56.5 389,-86.5 514,-86.5 514,-56.5 389,-56.5"/>
<text text-anchor="start" x="397" y="-74.5" font-family="Helvetica,sans-Serif" font-size="10.00">asm/dolphin/gx/GXBump</text>
<text text-anchor="middle" x="451.5" y="-63.5" font-family="Helvetica,sans-Serif" font-size="10.00">/GXSetIndTexMtx.s</text>
</a>
</g>
</g>
<!-- Node1&#45;&gt;Node6 -->
<g id="edge6" class="edge">
<title>Node1&#45;&gt;Node6</title>
<path fill="none" stroke="midnightblue" d="M579.15,-123.48C557.56,-114.85 523.53,-101.26 496.04,-90.29"/>
<polygon fill="midnightblue" stroke="midnightblue" points="497.2,-86.98 486.62,-86.52 494.61,-93.48 497.2,-86.98"/>
</g>
<!-- Node7 -->
<g id="node7" class="node">
<title>Node7</title>
<g id="a_node7"><a xlink:title=" ">
<polygon fill="white" stroke="#bfbfbf" points="532.5,-56.5 532.5,-86.5 668.5,-86.5 668.5,-56.5 532.5,-56.5"/>
<text text-anchor="start" x="540.5" y="-74.5" font-family="Helvetica,sans-Serif" font-size="10.00">asm/dolphin/gx/GXBump</text>
<text text-anchor="middle" x="600.5" y="-63.5" font-family="Helvetica,sans-Serif" font-size="10.00">/GXSetIndTexCoordScale.s</text>
</a>
</g>
</g>
<!-- Node1&#45;&gt;Node7 -->
<g id="edge7" class="edge">
<title>Node1&#45;&gt;Node7</title>
<path fill="none" stroke="midnightblue" d="M600.5,-123.48C600.5,-116.47 600.5,-106.19 600.5,-96.7"/>
<polygon fill="midnightblue" stroke="midnightblue" points="604,-96.52 600.5,-86.52 597,-96.52 604,-96.52"/>
</g>
<!-- Node8 -->
<g id="node8" class="node">
<title>Node8</title>
<g id="a_node8"><a xlink:title=" ">
<polygon fill="white" stroke="#bfbfbf" points="687,-56.5 687,-86.5 812,-86.5 812,-56.5 687,-56.5"/>
<text text-anchor="start" x="695" y="-74.5" font-family="Helvetica,sans-Serif" font-size="10.00">asm/dolphin/gx/GXBump</text>
<text text-anchor="middle" x="749.5" y="-63.5" font-family="Helvetica,sans-Serif" font-size="10.00">/GXSetIndTexOrder.s</text>
</a>
</g>
</g>
<!-- Node1&#45;&gt;Node8 -->
<g id="edge8" class="edge">
<title>Node1&#45;&gt;Node8</title>
<path fill="none" stroke="midnightblue" d="M621.85,-123.48C643.44,-114.85 677.47,-101.26 704.96,-90.29"/>
<polygon fill="midnightblue" stroke="midnightblue" points="706.39,-93.48 714.38,-86.52 703.8,-86.98 706.39,-93.48"/>
</g>
<!-- Node9 -->
<g id="node9" class="node">
<title>Node9</title>
<g id="a_node9"><a xlink:title=" ">
<polygon fill="white" stroke="#bfbfbf" points="830,-56.5 830,-86.5 955,-86.5 955,-56.5 830,-56.5"/>
<text text-anchor="start" x="838" y="-74.5" font-family="Helvetica,sans-Serif" font-size="10.00">asm/dolphin/gx/GXBump</text>
<text text-anchor="middle" x="892.5" y="-63.5" font-family="Helvetica,sans-Serif" font-size="10.00">/GXSetNumIndStages.s</text>
</a>
</g>
</g>
<!-- Node1&#45;&gt;Node9 -->
<g id="edge9" class="edge">
<title>Node1&#45;&gt;Node9</title>
<path fill="none" stroke="midnightblue" d="M642.46,-123.46C684.83,-114.84 752.44,-101.08 819.84,-87.34"/>
<polygon fill="midnightblue" stroke="midnightblue" points="820.68,-90.74 829.78,-85.31 819.28,-83.88 820.68,-90.74"/>
</g>
<!-- Node10 -->
<g id="node10" class="node">
<title>Node10</title>
<g id="a_node10"><a xlink:title=" ">
<polygon fill="white" stroke="#bfbfbf" points="973,-56.5 973,-86.5 1098,-86.5 1098,-56.5 973,-56.5"/>
<text text-anchor="start" x="981" y="-74.5" font-family="Helvetica,sans-Serif" font-size="10.00">asm/dolphin/gx/GXBump</text>
<text text-anchor="middle" x="1035.5" y="-63.5" font-family="Helvetica,sans-Serif" font-size="10.00">/GXSetTevDirect.s</text>
</a>
</g>
</g>
<!-- Node1&#45;&gt;Node10 -->
<g id="edge10" class="edge">
<title>Node1&#45;&gt;Node10</title>
<path fill="none" stroke="midnightblue" d="M670.17,-125.03C741.39,-117.53 855.38,-104.51 962.79,-87.21"/>
<polygon fill="midnightblue" stroke="midnightblue" points="963.52,-90.64 972.83,-85.58 962.4,-83.73 963.52,-90.64"/>
</g>
<!-- Node11 -->
<g id="node11" class="node">
<title>Node11</title>
<g id="a_node11"><a xlink:title=" ">
<polygon fill="white" stroke="#bfbfbf" points="1116,-56.5 1116,-86.5 1241,-86.5 1241,-56.5 1116,-56.5"/>
<text text-anchor="start" x="1124" y="-74.5" font-family="Helvetica,sans-Serif" font-size="10.00">asm/dolphin/gx/GXBump</text>
<text text-anchor="middle" x="1178.5" y="-63.5" font-family="Helvetica,sans-Serif" font-size="10.00">/__GXSetIndirectMask.s</text>
</a>
</g>
</g>
<!-- Node1&#45;&gt;Node11 -->
<g id="edge11" class="edge">
<title>Node1&#45;&gt;Node11</title>
<path fill="none" stroke="midnightblue" d="M670.09,-128.32C766.05,-122.69 944.56,-110.22 1105.75,-87.16"/>
<polygon fill="midnightblue" stroke="midnightblue" points="1106.45,-90.59 1115.85,-85.69 1105.45,-83.66 1106.45,-90.59"/>
</g>
<!-- Node12 -->
<g id="node12" class="node">
<title>Node12</title>
<g id="a_node12"><a xlink:title=" ">
<polygon fill="white" stroke="#bfbfbf" points="1259,-56.5 1259,-86.5 1390,-86.5 1390,-56.5 1259,-56.5"/>
<text text-anchor="start" x="1267" y="-74.5" font-family="Helvetica,sans-Serif" font-size="10.00">asm/dolphin/gx/GXBump</text>
<text text-anchor="middle" x="1324.5" y="-63.5" font-family="Helvetica,sans-Serif" font-size="10.00">/__GXFlushTextureState.s</text>
</a>
</g>
</g>
<!-- Node1&#45;&gt;Node12 -->
<g id="edge12" class="edge">
<title>Node1&#45;&gt;Node12</title>
<path fill="none" stroke="midnightblue" d="M670.05,-130.02C787.48,-126.06 1032.66,-115.11 1248.86,-87.12"/>
<polygon fill="midnightblue" stroke="midnightblue" points="1249.34,-90.58 1258.8,-85.81 1248.43,-83.64 1249.34,-90.58"/>
</g>
<!-- Node4&#45;&gt;Node3 -->
<g id="edge4" class="edge">
<title>Node4&#45;&gt;Node3</title>
<path fill="none" stroke="midnightblue" d="M166.48,-61.98C160.24,-53.14 150.33,-39.09 142.48,-27.98"/>
<polygon fill="midnightblue" stroke="midnightblue" points="145.13,-25.66 136.51,-19.51 139.41,-29.7 145.13,-25.66"/>
</g>
</g>
</svg>
