<?xml version="1.0" encoding="UTF-8" standalone="no"?>
<!DOCTYPE svg PUBLIC "-//W3C//DTD SVG 1.1//EN"
 "http://www.w3.org/Graphics/SVG/1.1/DTD/svg11.dtd">
<!-- Generated by graphviz version 2.47.0 (20210316.2052)
 -->
<!-- Title: libs/dolphin/gx/GXFrameBuf.cpp Pages: 1 -->
<!--zoomable 151 -->
<svg id="main" version="1.1" xmlns="http://www.w3.org/2000/svg" xmlns:xlink="http://www.w3.org/1999/xlink" xml:space="preserve" onload="init(evt)">
<style type="text/css"><![CDATA[
.edge:hover path { stroke: red; }
.edge:hover polygon { stroke: red; fill: red; }
]]></style>
<script type="text/javascript"><![CDATA[
var edges = document.getElementsByTagName('g');
if (edges && edges.length) {
  for (var i=0;i<edges.length;i++) {
    if (edges[i].id.substr(0,4)=='edge') {
      edges[i].setAttribute('class','edge');
    }
  }
}
]]></script>
        <defs>
                <circle id="rim" cx="0" cy="0" r="7"/>
                <circle id="rim2" cx="0" cy="0" r="3.5"/>
                <g id="zoomPlus">
                        <use xlink:href="#rim" fill="#404040">
                                <set attributeName="fill" to="#808080" begin="zoomplus.mouseover" end="zoomplus.mouseout"/>
                        </use>
                        <path d="M-4,0h8M0,-4v8" fill="none" stroke="white" stroke-width="1.5" pointer-events="none"/>
                </g>
                <g id="zoomMin">
                        <use xlink:href="#rim" fill="#404040">
                                <set attributeName="fill" to="#808080" begin="zoomminus.mouseover" end="zoomminus.mouseout"/>
                        </use>
                        <path d="M-4,0h8" fill="none" stroke="white" stroke-width="1.5" pointer-events="none"/>
                </g>
                <g id="dirArrow">
                        <path fill="none" stroke="white" stroke-width="1.5" d="M0,-3.0v7 M-2.5,-0.5L0,-3.0L2.5,-0.5"/>
                </g>
               <g id="resetDef">
                       <use xlink:href="#rim2" fill="#404040">
                               <set attributeName="fill" to="#808080" begin="reset.mouseover" end="reset.mouseout"/>
                       </use>
               </g>
        </defs>

<script type="text/javascript">
var viewWidth = 2664;
var viewHeight = 151;
var sectionId = 'dynsection-0';
</script>
<script xlink:href="svgpan.js"/>
<svg id="graph" class="graph">
<g id="viewport">
<title>libs/dolphin/gx/GXFrameBuf.cpp</title>
<polygon fill="white" stroke="transparent" points="-4,4 -4,-147 2659.5,-147 2659.5,4 -4,4"/>
<!-- Node1 -->
<g id="node1" class="node">
<title>Node1</title>
<g id="a_node1"><a xlink:title=" ">
<polygon fill="#bfbfbf" stroke="black" points="1146.5,-123.5 1146.5,-142.5 1302.5,-142.5 1302.5,-123.5 1146.5,-123.5"/>
<text text-anchor="middle" x="1224.5" y="-130.5" font-family="Helvetica,sans-Serif" font-size="10.00">libs/dolphin/gx/GXFrameBuf.cpp</text>
</a>
</g>
</g>
<!-- Node2 -->
<g id="node2" class="node">
<title>Node2</title>
<g id="a_node2"><a xlink:href="dol2asm_8h.html" target="_top" xlink:title=" ">
<polygon fill="white" stroke="black" points="0,-62 0,-81 61,-81 61,-62 0,-62"/>
<text text-anchor="middle" x="30.5" y="-69" font-family="Helvetica,sans-Serif" font-size="10.00">dol2asm.h</text>
</a>
</g>
</g>
<!-- Node1&#45;&gt;Node2 -->
<g id="edge1" class="edge">
<title>Node1&#45;&gt;Node2</title>
<path fill="none" stroke="midnightblue" d="M1146.13,-131.7C922.09,-130.42 281.77,-123.56 75.5,-87 71.32,-86.26 66.99,-85.22 62.74,-84.05"/>
<polygon fill="midnightblue" stroke="midnightblue" points="63.67,-80.67 53.09,-81.11 61.63,-87.37 63.67,-80.67"/>
</g>
<!-- Node3 -->
<g id="node3" class="node">
<title>Node3</title>
<g id="a_node3"><a xlink:href="types_8h.html" target="_top" xlink:title=" ">
<polygon fill="white" stroke="black" points="95,-0.5 95,-19.5 176,-19.5 176,-0.5 95,-0.5"/>
<text text-anchor="middle" x="135.5" y="-7.5" font-family="Helvetica,sans-Serif" font-size="10.00">dolphin/types.h</text>
</a>
</g>
</g>
<!-- Node1&#45;&gt;Node3 -->
<g id="edge2" class="edge">
<title>Node1&#45;&gt;Node3</title>
<path fill="none" stroke="midnightblue" d="M1146.27,-131.78C898.38,-130.71 144.39,-124.37 108.5,-87 92.81,-70.66 107.74,-44.62 120.85,-27.66"/>
<polygon fill="midnightblue" stroke="midnightblue" points="123.72,-29.67 127.37,-19.72 118.32,-25.23 123.72,-29.67"/>
</g>
<!-- Node4 -->
<g id="node4" class="node">
<title>Node4</title>
<g id="a_node4"><a xlink:href="GXFrameBuf_8h.html" target="_top" xlink:title=" ">
<polygon fill="white" stroke="black" points="117.5,-62 117.5,-81 245.5,-81 245.5,-62 117.5,-62"/>
<text text-anchor="middle" x="181.5" y="-69" font-family="Helvetica,sans-Serif" font-size="10.00">dolphin/gx/GXFrameBuf.h</text>
</a>
</g>
</g>
<!-- Node1&#45;&gt;Node4 -->
<g id="edge3" class="edge">
<title>Node1&#45;&gt;Node4</title>
<path fill="none" stroke="midnightblue" d="M1146.21,-132.33C980.87,-132.16 584.17,-127.16 254.5,-87 246.11,-85.98 237.24,-84.53 228.69,-82.94"/>
<polygon fill="midnightblue" stroke="midnightblue" points="229.32,-79.5 218.84,-81.03 227.99,-86.37 229.32,-79.5"/>
</g>
<!-- Node5 -->
<g id="node5" class="node">
<title>Node5</title>
<g id="a_node5"><a xlink:title=" ">
<polygon fill="white" stroke="#bfbfbf" points="263.5,-56.5 263.5,-86.5 405.5,-86.5 405.5,-56.5 263.5,-56.5"/>
<text text-anchor="start" x="271.5" y="-74.5" font-family="Helvetica,sans-Serif" font-size="10.00">asm/dolphin/gx/GXFrameBuf</text>
<text text-anchor="middle" x="334.5" y="-63.5" font-family="Helvetica,sans-Serif" font-size="10.00">/GXSetDispCopySrc.s</text>
</a>
</g>
</g>
<!-- Node1&#45;&gt;Node5 -->
<g id="edge5" class="edge">
<title>Node1&#45;&gt;Node5</title>
<path fill="none" stroke="midnightblue" d="M1146.31,-130.87C1003.24,-128.1 689.61,-118.76 415.67,-87.03"/>
<polygon fill="midnightblue" stroke="midnightblue" points="415.87,-83.53 405.53,-85.85 415.06,-90.48 415.87,-83.53"/>
</g>
<!-- Node6 -->
<g id="node6" class="node">
<title>Node6</title>
<g id="a_node6"><a xlink:title=" ">
<polygon fill="white" stroke="#bfbfbf" points="423.5,-56.5 423.5,-86.5 565.5,-86.5 565.5,-56.5 423.5,-56.5"/>
<text text-anchor="start" x="431.5" y="-74.5" font-family="Helvetica,sans-Serif" font-size="10.00">asm/dolphin/gx/GXFrameBuf</text>
<text text-anchor="middle" x="494.5" y="-63.5" font-family="Helvetica,sans-Serif" font-size="10.00">/GXSetTexCopySrc.s</text>
</a>
</g>
</g>
<!-- Node1&#45;&gt;Node6 -->
<g id="edge6" class="edge">
<title>Node1&#45;&gt;Node6</title>
<path fill="none" stroke="midnightblue" d="M1146.19,-129.37C1025.71,-124.7 787.5,-113.02 575.61,-87.04"/>
<polygon fill="midnightblue" stroke="midnightblue" points="575.89,-83.55 565.54,-85.79 575.03,-90.5 575.89,-83.55"/>
</g>
<!-- Node7 -->
<g id="node7" class="node">
<title>Node7</title>
<g id="a_node7"><a xlink:title=" ">
<polygon fill="white" stroke="#bfbfbf" points="583.5,-56.5 583.5,-86.5 725.5,-86.5 725.5,-56.5 583.5,-56.5"/>
<text text-anchor="start" x="591.5" y="-74.5" font-family="Helvetica,sans-Serif" font-size="10.00">asm/dolphin/gx/GXFrameBuf</text>
<text text-anchor="middle" x="654.5" y="-63.5" font-family="Helvetica,sans-Serif" font-size="10.00">/GXSetDispCopyDst.s</text>
</a>
</g>
</g>
<!-- Node1&#45;&gt;Node7 -->
<g id="edge7" class="edge">
<title>Node1&#45;&gt;Node7</title>
<path fill="none" stroke="midnightblue" d="M1146.18,-126.94C1051.33,-120.32 886.51,-107.3 735.48,-87.06"/>
<polygon fill="midnightblue" stroke="midnightblue" points="735.93,-83.58 725.55,-85.71 734.99,-90.52 735.93,-83.58"/>
</g>
<!-- Node8 -->
<g id="node8" class="node">
<title>Node8</title>
<g id="a_node8"><a xlink:title=" ">
<polygon fill="white" stroke="#bfbfbf" points="743.5,-56.5 743.5,-86.5 885.5,-86.5 885.5,-56.5 743.5,-56.5"/>
<text text-anchor="start" x="751.5" y="-74.5" font-family="Helvetica,sans-Serif" font-size="10.00">asm/dolphin/gx/GXFrameBuf</text>
<text text-anchor="middle" x="814.5" y="-63.5" font-family="Helvetica,sans-Serif" font-size="10.00">/GXSetTexCopyDst.s</text>
</a>
</g>
</g>
<!-- Node1&#45;&gt;Node8 -->
<g id="edge8" class="edge">
<title>Node1&#45;&gt;Node8</title>
<path fill="none" stroke="midnightblue" d="M1155.48,-123.48C1090.91,-115.31 991.52,-102.21 895.73,-87.15"/>
<polygon fill="midnightblue" stroke="midnightblue" points="896,-83.65 885.57,-85.55 894.9,-90.57 896,-83.65"/>
</g>
<!-- Node9 -->
<g id="node9" class="node">
<title>Node9</title>
<g id="a_node9"><a xlink:title=" ">
<polygon fill="white" stroke="#bfbfbf" points="903.5,-56.5 903.5,-86.5 1055.5,-86.5 1055.5,-56.5 903.5,-56.5"/>
<text text-anchor="start" x="911.5" y="-74.5" font-family="Helvetica,sans-Serif" font-size="10.00">asm/dolphin/gx/GXFrameBuf</text>
<text text-anchor="middle" x="979.5" y="-63.5" font-family="Helvetica,sans-Serif" font-size="10.00">/GXSetDispCopyFrame2Field.s</text>
</a>
</g>
</g>
<!-- Node1&#45;&gt;Node9 -->
<g id="edge9" class="edge">
<title>Node1&#45;&gt;Node9</title>
<path fill="none" stroke="midnightblue" d="M1189.4,-123.48C1152.42,-114.49 1093.26,-100.13 1047.16,-88.93"/>
<polygon fill="midnightblue" stroke="midnightblue" points="1047.79,-85.48 1037.24,-86.52 1046.13,-92.28 1047.79,-85.48"/>
</g>
<!-- Node10 -->
<g id="node10" class="node">
<title>Node10</title>
<g id="a_node10"><a xlink:title=" ">
<polygon fill="white" stroke="#bfbfbf" points="1073.5,-56.5 1073.5,-86.5 1215.5,-86.5 1215.5,-56.5 1073.5,-56.5"/>
<text text-anchor="start" x="1081.5" y="-74.5" font-family="Helvetica,sans-Serif" font-size="10.00">asm/dolphin/gx/GXFrameBuf</text>
<text text-anchor="middle" x="1144.5" y="-63.5" font-family="Helvetica,sans-Serif" font-size="10.00">/GXSetCopyClamp.s</text>
</a>
</g>
</g>
<!-- Node1&#45;&gt;Node10 -->
<g id="edge10" class="edge">
<title>Node1&#45;&gt;Node10</title>
<path fill="none" stroke="midnightblue" d="M1213.04,-123.48C1202.3,-115.49 1185.85,-103.25 1171.75,-92.77"/>
<polygon fill="midnightblue" stroke="midnightblue" points="1173.47,-89.68 1163.35,-86.52 1169.29,-95.3 1173.47,-89.68"/>
</g>
<!-- Node11 -->
<g id="node11" class="node">
<title>Node11</title>
<g id="a_node11"><a xlink:title=" ">
<polygon fill="white" stroke="#bfbfbf" points="1233.5,-56.5 1233.5,-86.5 1375.5,-86.5 1375.5,-56.5 1233.5,-56.5"/>
<text text-anchor="start" x="1241.5" y="-74.5" font-family="Helvetica,sans-Serif" font-size="10.00">asm/dolphin/gx/GXFrameBuf</text>
<text text-anchor="middle" x="1304.5" y="-63.5" font-family="Helvetica,sans-Serif" font-size="10.00">/GXGetNumXfbLines.s</text>
</a>
</g>
</g>
<!-- Node1&#45;&gt;Node11 -->
<g id="edge11" class="edge">
<title>Node1&#45;&gt;Node11</title>
<path fill="none" stroke="midnightblue" d="M1235.96,-123.48C1246.7,-115.49 1263.15,-103.25 1277.25,-92.77"/>
<polygon fill="midnightblue" stroke="midnightblue" points="1279.71,-95.3 1285.65,-86.52 1275.53,-89.68 1279.71,-95.3"/>
</g>
<!-- Node12 -->
<g id="node12" class="node">
<title>Node12</title>
<g id="a_node12"><a xlink:title=" ">
<polygon fill="white" stroke="#bfbfbf" points="1393.5,-56.5 1393.5,-86.5 1535.5,-86.5 1535.5,-56.5 1393.5,-56.5"/>
<text text-anchor="start" x="1401.5" y="-74.5" font-family="Helvetica,sans-Serif" font-size="10.00">asm/dolphin/gx/GXFrameBuf</text>
<text text-anchor="middle" x="1464.5" y="-63.5" font-family="Helvetica,sans-Serif" font-size="10.00">/GXGetYScaleFactor.s</text>
</a>
</g>
</g>
<!-- Node1&#45;&gt;Node12 -->
<g id="edge12" class="edge">
<title>Node1&#45;&gt;Node12</title>
<path fill="none" stroke="midnightblue" d="M1258.89,-123.48C1295.11,-114.49 1353.06,-100.13 1398.22,-88.93"/>
<polygon fill="midnightblue" stroke="midnightblue" points="1399.07,-92.33 1407.94,-86.52 1397.39,-85.53 1399.07,-92.33"/>
</g>
<!-- Node13 -->
<g id="node13" class="node">
<title>Node13</title>
<g id="a_node13"><a xlink:title=" ">
<polygon fill="white" stroke="#bfbfbf" points="1553.5,-56.5 1553.5,-86.5 1695.5,-86.5 1695.5,-56.5 1553.5,-56.5"/>
<text text-anchor="start" x="1561.5" y="-74.5" font-family="Helvetica,sans-Serif" font-size="10.00">asm/dolphin/gx/GXFrameBuf</text>
<text text-anchor="middle" x="1624.5" y="-63.5" font-family="Helvetica,sans-Serif" font-size="10.00">/GXSetDispCopyYScale.s</text>
</a>
</g>
</g>
<!-- Node1&#45;&gt;Node13 -->
<g id="edge13" class="edge">
<title>Node1&#45;&gt;Node13</title>
<path fill="none" stroke="midnightblue" d="M1290.5,-123.5C1353.07,-115.26 1449.95,-102.04 1543.51,-87.12"/>
<polygon fill="midnightblue" stroke="midnightblue" points="1544.11,-90.57 1553.43,-85.53 1543,-83.66 1544.11,-90.57"/>
</g>
<!-- Node14 -->
<g id="node14" class="node">
<title>Node14</title>
<g id="a_node14"><a xlink:title=" ">
<polygon fill="white" stroke="#bfbfbf" points="1713.5,-56.5 1713.5,-86.5 1855.5,-86.5 1855.5,-56.5 1713.5,-56.5"/>
<text text-anchor="start" x="1721.5" y="-74.5" font-family="Helvetica,sans-Serif" font-size="10.00">asm/dolphin/gx/GXFrameBuf</text>
<text text-anchor="middle" x="1784.5" y="-63.5" font-family="Helvetica,sans-Serif" font-size="10.00">/GXSetCopyClear.s</text>
</a>
</g>
</g>
<!-- Node1&#45;&gt;Node14 -->
<g id="edge14" class="edge">
<title>Node1&#45;&gt;Node14</title>
<path fill="none" stroke="midnightblue" d="M1302.89,-126.73C1395.98,-120 1556.14,-106.95 1703.33,-87.08"/>
<polygon fill="midnightblue" stroke="midnightblue" points="1704.01,-90.52 1713.45,-85.7 1703.07,-83.59 1704.01,-90.52"/>
</g>
<!-- Node15 -->
<g id="node15" class="node">
<title>Node15</title>
<g id="a_node15"><a xlink:title=" ">
<polygon fill="white" stroke="#bfbfbf" points="1873.5,-56.5 1873.5,-86.5 2015.5,-86.5 2015.5,-56.5 1873.5,-56.5"/>
<text text-anchor="start" x="1881.5" y="-74.5" font-family="Helvetica,sans-Serif" font-size="10.00">asm/dolphin/gx/GXFrameBuf</text>
<text text-anchor="middle" x="1944.5" y="-63.5" font-family="Helvetica,sans-Serif" font-size="10.00">/GXSetCopyFilter.s</text>
</a>
</g>
</g>
<!-- Node1&#45;&gt;Node15 -->
<g id="edge15" class="edge">
<title>Node1&#45;&gt;Node15</title>
<path fill="none" stroke="midnightblue" d="M1302.6,-129.26C1421.48,-124.47 1655.12,-112.68 1863.26,-87.06"/>
<polygon fill="midnightblue" stroke="midnightblue" points="1863.97,-90.5 1873.46,-85.79 1863.11,-83.55 1863.97,-90.5"/>
</g>
<!-- Node16 -->
<g id="node16" class="node">
<title>Node16</title>
<g id="a_node16"><a xlink:title=" ">
<polygon fill="white" stroke="#bfbfbf" points="2033.5,-56.5 2033.5,-86.5 2175.5,-86.5 2175.5,-56.5 2033.5,-56.5"/>
<text text-anchor="start" x="2041.5" y="-74.5" font-family="Helvetica,sans-Serif" font-size="10.00">asm/dolphin/gx/GXFrameBuf</text>
<text text-anchor="middle" x="2104.5" y="-63.5" font-family="Helvetica,sans-Serif" font-size="10.00">/GXSetDispCopyGamma.s</text>
</a>
</g>
</g>
<!-- Node1&#45;&gt;Node16 -->
<g id="edge16" class="edge">
<title>Node1&#45;&gt;Node16</title>
<path fill="none" stroke="midnightblue" d="M1302.57,-130.8C1444.26,-127.91 1753.32,-118.41 2023.47,-87.02"/>
<polygon fill="midnightblue" stroke="midnightblue" points="2023.94,-90.49 2033.47,-85.84 2023.13,-83.53 2023.94,-90.49"/>
</g>
<!-- Node17 -->
<g id="node17" class="node">
<title>Node17</title>
<g id="a_node17"><a xlink:title=" ">
<polygon fill="white" stroke="#bfbfbf" points="2193.5,-56.5 2193.5,-86.5 2335.5,-86.5 2335.5,-56.5 2193.5,-56.5"/>
<text text-anchor="start" x="2201.5" y="-74.5" font-family="Helvetica,sans-Serif" font-size="10.00">asm/dolphin/gx/GXFrameBuf</text>
<text text-anchor="middle" x="2264.5" y="-63.5" font-family="Helvetica,sans-Serif" font-size="10.00">/GXCopyDisp.s</text>
</a>
</g>
</g>
<!-- Node1&#45;&gt;Node17 -->
<g id="edge17" class="edge">
<title>Node1&#45;&gt;Node17</title>
<path fill="none" stroke="midnightblue" d="M1302.55,-131.84C1464.78,-130.74 1850.31,-124.18 2183.14,-87.04"/>
<polygon fill="midnightblue" stroke="midnightblue" points="2183.93,-90.48 2193.47,-85.88 2183.14,-83.52 2183.93,-90.48"/>
</g>
<!-- Node18 -->
<g id="node18" class="node">
<title>Node18</title>
<g id="a_node18"><a xlink:title=" ">
<polygon fill="white" stroke="#bfbfbf" points="2353.5,-56.5 2353.5,-86.5 2495.5,-86.5 2495.5,-56.5 2353.5,-56.5"/>
<text text-anchor="start" x="2361.5" y="-74.5" font-family="Helvetica,sans-Serif" font-size="10.00">asm/dolphin/gx/GXFrameBuf</text>
<text text-anchor="middle" x="2424.5" y="-63.5" font-family="Helvetica,sans-Serif" font-size="10.00">/GXCopyTex.s</text>
</a>
</g>
</g>
<!-- Node1&#45;&gt;Node18 -->
<g id="edge18" class="edge">
<title>Node1&#45;&gt;Node18</title>
<path fill="none" stroke="midnightblue" d="M1302.52,-132.59C1483.68,-133.15 1946.97,-129.97 2343.24,-87.02"/>
<polygon fill="midnightblue" stroke="midnightblue" points="2343.92,-90.47 2353.48,-85.9 2343.15,-83.51 2343.92,-90.47"/>
</g>
<!-- Node19 -->
<g id="node19" class="node">
<title>Node19</title>
<g id="a_node19"><a xlink:title=" ">
<polygon fill="white" stroke="#bfbfbf" points="2513.5,-56.5 2513.5,-86.5 2655.5,-86.5 2655.5,-56.5 2513.5,-56.5"/>
<text text-anchor="start" x="2521.5" y="-74.5" font-family="Helvetica,sans-Serif" font-size="10.00">asm/dolphin/gx/GXFrameBuf</text>
<text text-anchor="middle" x="2584.5" y="-63.5" font-family="Helvetica,sans-Serif" font-size="10.00">/GXClearBoundingBox.s</text>
</a>
</g>
</g>
<!-- Node1&#45;&gt;Node19 -->
<g id="edge19" class="edge">
<title>Node1&#45;&gt;Node19</title>
<path fill="none" stroke="midnightblue" d="M1302.89,-130.73C1540.28,-126.64 2249.97,-112.66 2503.21,-87"/>
<polygon fill="midnightblue" stroke="midnightblue" points="2503.9,-90.44 2513.48,-85.92 2503.17,-83.48 2503.9,-90.44"/>
</g>
<!-- Node4&#45;&gt;Node3 -->
<g id="edge4" class="edge">
<title>Node4&#45;&gt;Node3</title>
<path fill="none" stroke="midnightblue" d="M174.91,-61.98C168.01,-53.05 157,-38.81 148.37,-27.64"/>
<polygon fill="midnightblue" stroke="midnightblue" points="150.96,-25.28 142.08,-19.51 145.43,-29.56 150.96,-25.28"/>
</g>
</g>
</svg>
        <g id="navigator" transform="translate(0 0)" fill="#404254">
                <rect fill="#f2f5e9" fill-opacity="0.5" stroke="#606060" stroke-width=".5" x="0" y="0" width="60" height="60"/>
                <use id="zoomplus" xlink:href="#zoomPlus" x="17" y="9" onmousedown="handleZoom(evt,'in')"/>
                <use id="zoomminus" xlink:href="#zoomMin" x="42" y="9" onmousedown="handleZoom(evt,'out')"/>
                <use id="reset" xlink:href="#resetDef" x="30" y="36" onmousedown="handleReset()"/>
                <g id="arrowUp" xlink:href="#dirArrow" transform="translate(30 24)" onmousedown="handlePan(0,-1)">
                  <use xlink:href="#rim" fill="#404040">
                        <set attributeName="fill" to="#808080" begin="arrowUp.mouseover" end="arrowUp.mouseout"/>
                  </use>
                  <path fill="none" stroke="white" stroke-width="1.5" d="M0,-3.0v7 M-2.5,-0.5L0,-3.0L2.5,-0.5"/>
                </g>
                <g id="arrowRight" xlink:href="#dirArrow" transform="rotate(90) translate(36 -43)" onmousedown="handlePan(1,0)">
                  <use xlink:href="#rim" fill="#404040">
                        <set attributeName="fill" to="#808080" begin="arrowRight.mouseover" end="arrowRight.mouseout"/>
                  </use>
                  <path fill="none" stroke="white" stroke-width="1.5" d="M0,-3.0v7 M-2.5,-0.5L0,-3.0L2.5,-0.5"/>
                </g>
                <g id="arrowDown" xlink:href="#dirArrow" transform="rotate(180) translate(-30 -48)" onmousedown="handlePan(0,1)">
                  <use xlink:href="#rim" fill="#404040">
                        <set attributeName="fill" to="#808080" begin="arrowDown.mouseover" end="arrowDown.mouseout"/>
                  </use>
                  <path fill="none" stroke="white" stroke-width="1.5" d="M0,-3.0v7 M-2.5,-0.5L0,-3.0L2.5,-0.5"/>
                </g>
                <g id="arrowLeft" xlink:href="#dirArrow" transform="rotate(270) translate(-36 17)" onmousedown="handlePan(-1,0)">
                  <use xlink:href="#rim" fill="#404040">
                        <set attributeName="fill" to="#808080" begin="arrowLeft.mouseover" end="arrowLeft.mouseout"/>
                  </use>
                  <path fill="none" stroke="white" stroke-width="1.5" d="M0,-3.0v7 M-2.5,-0.5L0,-3.0L2.5,-0.5"/>
                </g>
        </g>
        <svg viewBox="0 0 15 15" width="100%" height="30px" preserveAspectRatio="xMaxYMin meet">
         <g id="arrow_out" transform="scale(0.3 0.3)">
          <a xlink:href="GXFrameBuf_8cpp__incl_org.svg" target="_base">
           <rect id="button" ry="5" rx="5" y="6" x="6" height="38" width="38"
                fill="#f2f5e9" fill-opacity="0.5" stroke="#606060" stroke-width="1.0"/>
           <path id="arrow"
             d="M 11.500037,31.436501 C 11.940474,20.09759 22.043105,11.32322 32.158766,21.979434 L 37.068811,17.246167 C 37.068811,17.246167 37.088388,32 37.088388,32 L 22.160133,31.978069 C 22.160133,31.978069 26.997745,27.140456 26.997745,27.140456 C 18.528582,18.264221 13.291696,25.230495 11.500037,31.436501 z"
             style="fill:#404040;"/>
          </a>
         </g>
        </svg>
</svg>
