<?xml version="1.0" encoding="UTF-8" standalone="no"?>
<!DOCTYPE svg PUBLIC "-//W3C//DTD SVG 1.1//EN"
 "http://www.w3.org/Graphics/SVG/1.1/DTD/svg11.dtd">
<!-- Generated by graphviz version 2.47.0 (20210316.2052)
 -->
<!-- Title: libs/dolphin/gx/GXGeometry.cpp Pages: 1 -->
<!--zoomable 151 -->
<svg id="main" version="1.1" xmlns="http://www.w3.org/2000/svg" xmlns:xlink="http://www.w3.org/1999/xlink" xml:space="preserve" onload="init(evt)">
<style type="text/css"><![CDATA[
.edge:hover path { stroke: red; }
.edge:hover polygon { stroke: red; fill: red; }
]]></style>
<script type="text/javascript"><![CDATA[
var edges = document.getElementsByTagName('g');
if (edges && edges.length) {
  for (var i=0;i<edges.length;i++) {
    if (edges[i].id.substr(0,4)=='edge') {
      edges[i].setAttribute('class','edge');
    }
  }
}
]]></script>
        <defs>
                <circle id="rim" cx="0" cy="0" r="7"/>
                <circle id="rim2" cx="0" cy="0" r="3.5"/>
                <g id="zoomPlus">
                        <use xlink:href="#rim" fill="#404040">
                                <set attributeName="fill" to="#808080" begin="zoomplus.mouseover" end="zoomplus.mouseout"/>
                        </use>
                        <path d="M-4,0h8M0,-4v8" fill="none" stroke="white" stroke-width="1.5" pointer-events="none"/>
                </g>
                <g id="zoomMin">
                        <use xlink:href="#rim" fill="#404040">
                                <set attributeName="fill" to="#808080" begin="zoomminus.mouseover" end="zoomminus.mouseout"/>
                        </use>
                        <path d="M-4,0h8" fill="none" stroke="white" stroke-width="1.5" pointer-events="none"/>
                </g>
                <g id="dirArrow">
                        <path fill="none" stroke="white" stroke-width="1.5" d="M0,-3.0v7 M-2.5,-0.5L0,-3.0L2.5,-0.5"/>
                </g>
               <g id="resetDef">
                       <use xlink:href="#rim2" fill="#404040">
                               <set attributeName="fill" to="#808080" begin="reset.mouseover" end="reset.mouseout"/>
                       </use>
               </g>
        </defs>

<script type="text/javascript">
var viewWidth = 1684;
var viewHeight = 151;
var sectionId = 'dynsection-0';
</script>
<script xlink:href="svgpan.js"/>
<svg id="graph" class="graph">
<g id="viewport">
<title>libs/dolphin/gx/GXGeometry.cpp</title>
<polygon fill="white" stroke="transparent" points="-4,4 -4,-147 1680,-147 1680,4 -4,4"/>
<!-- Node1 -->
<g id="node1" class="node">
<title>Node1</title>
<g id="a_node1"><a xlink:title=" ">
<polygon fill="#bfbfbf" stroke="black" points="653,-123.5 653,-142.5 808,-142.5 808,-123.5 653,-123.5"/>
<text text-anchor="middle" x="730.5" y="-130.5" font-family="Helvetica,sans-Serif" font-size="10.00">libs/dolphin/gx/GXGeometry.cpp</text>
</a>
</g>
</g>
<!-- Node2 -->
<g id="node2" class="node">
<title>Node2</title>
<g id="a_node2"><a xlink:href="dol2asm_8h.html" target="_top" xlink:title=" ">
<polygon fill="white" stroke="black" points="0,-62 0,-81 61,-81 61,-62 0,-62"/>
<text text-anchor="middle" x="30.5" y="-69" font-family="Helvetica,sans-Serif" font-size="10.00">dol2asm.h</text>
</a>
</g>
</g>
<!-- Node1&#45;&gt;Node2 -->
<g id="edge1" class="edge">
<title>Node1&#45;&gt;Node2</title>
<path fill="none" stroke="midnightblue" d="M652.83,-132.73C529.38,-132.54 281.31,-126.61 75.5,-87 71.53,-86.24 67.43,-85.23 63.38,-84.1"/>
<polygon fill="midnightblue" stroke="midnightblue" points="64.16,-80.68 53.57,-81.12 62.12,-87.38 64.16,-80.68"/>
</g>
<!-- Node3 -->
<g id="node3" class="node">
<title>Node3</title>
<g id="a_node3"><a xlink:href="types_8h.html" target="_top" xlink:title=" ">
<polygon fill="white" stroke="black" points="95,-0.5 95,-19.5 176,-19.5 176,-0.5 95,-0.5"/>
<text text-anchor="middle" x="135.5" y="-7.5" font-family="Helvetica,sans-Serif" font-size="10.00">dolphin/types.h</text>
</a>
</g>
</g>
<!-- Node1&#45;&gt;Node3 -->
<g id="edge2" class="edge">
<title>Node1&#45;&gt;Node3</title>
<path fill="none" stroke="midnightblue" d="M652.83,-132.14C494.4,-131.62 145.78,-126.01 109.5,-87 94.13,-70.48 108.58,-44.48 121.29,-27.59"/>
<polygon fill="midnightblue" stroke="midnightblue" points="124.1,-29.68 127.61,-19.68 118.63,-25.31 124.1,-29.68"/>
</g>
<!-- Node4 -->
<g id="node4" class="node">
<title>Node4</title>
<g id="a_node4"><a xlink:href="GXGeometry_8h.html" target="_top" xlink:title=" ">
<polygon fill="white" stroke="black" points="118,-62 118,-81 245,-81 245,-62 118,-62"/>
<text text-anchor="middle" x="181.5" y="-69" font-family="Helvetica,sans-Serif" font-size="10.00">dolphin/gx/GXGeometry.h</text>
</a>
</g>
</g>
<!-- Node1&#45;&gt;Node4 -->
<g id="edge3" class="edge">
<title>Node1&#45;&gt;Node4</title>
<path fill="none" stroke="midnightblue" d="M652.71,-127.09C558.22,-120.56 394.13,-107.41 254.5,-87 246.77,-85.87 238.62,-84.46 230.67,-82.98"/>
<polygon fill="midnightblue" stroke="midnightblue" points="231.26,-79.52 220.77,-81.06 229.93,-86.4 231.26,-79.52"/>
</g>
<!-- Node5 -->
<g id="node5" class="node">
<title>Node5</title>
<g id="a_node5"><a xlink:title=" ">
<polygon fill="white" stroke="#bfbfbf" points="263,-56.5 263,-86.5 404,-86.5 404,-56.5 263,-56.5"/>
<text text-anchor="start" x="271" y="-74.5" font-family="Helvetica,sans-Serif" font-size="10.00">asm/dolphin/gx/GXGeometry</text>
<text text-anchor="middle" x="333.5" y="-63.5" font-family="Helvetica,sans-Serif" font-size="10.00">/__GXSetDirtyState.s</text>
</a>
</g>
</g>
<!-- Node1&#45;&gt;Node5 -->
<g id="edge5" class="edge">
<title>Node1&#45;&gt;Node5</title>
<path fill="none" stroke="midnightblue" d="M665.12,-123.46C603.14,-115.2 507.17,-101.97 414.02,-87.05"/>
<polygon fill="midnightblue" stroke="midnightblue" points="414.57,-83.59 404.15,-85.46 413.46,-90.5 414.57,-83.59"/>
</g>
<!-- Node6 -->
<g id="node6" class="node">
<title>Node6</title>
<g id="a_node6"><a xlink:title=" ">
<polygon fill="white" stroke="#bfbfbf" points="422,-56.5 422,-86.5 563,-86.5 563,-56.5 422,-56.5"/>
<text text-anchor="start" x="430" y="-74.5" font-family="Helvetica,sans-Serif" font-size="10.00">asm/dolphin/gx/GXGeometry</text>
<text text-anchor="middle" x="492.5" y="-63.5" font-family="Helvetica,sans-Serif" font-size="10.00">/GXBegin.s</text>
</a>
</g>
</g>
<!-- Node1&#45;&gt;Node6 -->
<g id="edge6" class="edge">
<title>Node1&#45;&gt;Node6</title>
<path fill="none" stroke="midnightblue" d="M696.4,-123.48C660.55,-114.51 603.25,-100.19 558.51,-89"/>
<polygon fill="midnightblue" stroke="midnightblue" points="559.14,-85.55 548.59,-86.52 557.44,-92.34 559.14,-85.55"/>
</g>
<!-- Node7 -->
<g id="node7" class="node">
<title>Node7</title>
<g id="a_node7"><a xlink:title=" ">
<polygon fill="white" stroke="#bfbfbf" points="581,-56.5 581,-86.5 722,-86.5 722,-56.5 581,-56.5"/>
<text text-anchor="start" x="589" y="-74.5" font-family="Helvetica,sans-Serif" font-size="10.00">asm/dolphin/gx/GXGeometry</text>
<text text-anchor="middle" x="651.5" y="-63.5" font-family="Helvetica,sans-Serif" font-size="10.00">/__GXSendFlushPrim.s</text>
</a>
</g>
</g>
<!-- Node1&#45;&gt;Node7 -->
<g id="edge7" class="edge">
<title>Node1&#45;&gt;Node7</title>
<path fill="none" stroke="midnightblue" d="M719.18,-123.48C708.58,-115.49 692.33,-103.25 678.41,-92.77"/>
<polygon fill="midnightblue" stroke="midnightblue" points="680.21,-89.74 670.12,-86.52 676,-95.33 680.21,-89.74"/>
</g>
<!-- Node8 -->
<g id="node8" class="node">
<title>Node8</title>
<g id="a_node8"><a xlink:title=" ">
<polygon fill="white" stroke="#bfbfbf" points="740,-56.5 740,-86.5 881,-86.5 881,-56.5 740,-56.5"/>
<text text-anchor="start" x="748" y="-74.5" font-family="Helvetica,sans-Serif" font-size="10.00">asm/dolphin/gx/GXGeometry</text>
<text text-anchor="middle" x="810.5" y="-63.5" font-family="Helvetica,sans-Serif" font-size="10.00">/GXSetLineWidth.s</text>
</a>
</g>
</g>
<!-- Node1&#45;&gt;Node8 -->
<g id="edge8" class="edge">
<title>Node1&#45;&gt;Node8</title>
<path fill="none" stroke="midnightblue" d="M741.96,-123.48C752.7,-115.49 769.15,-103.25 783.25,-92.77"/>
<polygon fill="midnightblue" stroke="midnightblue" points="785.71,-95.3 791.65,-86.52 781.53,-89.68 785.71,-95.3"/>
</g>
<!-- Node9 -->
<g id="node9" class="node">
<title>Node9</title>
<g id="a_node9"><a xlink:title=" ">
<polygon fill="white" stroke="#bfbfbf" points="899,-56.5 899,-86.5 1040,-86.5 1040,-56.5 899,-56.5"/>
<text text-anchor="start" x="907" y="-74.5" font-family="Helvetica,sans-Serif" font-size="10.00">asm/dolphin/gx/GXGeometry</text>
<text text-anchor="middle" x="969.5" y="-63.5" font-family="Helvetica,sans-Serif" font-size="10.00">/GXSetPointSize.s</text>
</a>
</g>
</g>
<!-- Node1&#45;&gt;Node9 -->
<g id="edge9" class="edge">
<title>Node1&#45;&gt;Node9</title>
<path fill="none" stroke="midnightblue" d="M764.74,-123.48C800.74,-114.51 858.28,-100.19 903.21,-89"/>
<polygon fill="midnightblue" stroke="midnightblue" points="904.31,-92.34 913.17,-86.52 902.62,-85.54 904.31,-92.34"/>
</g>
<!-- Node10 -->
<g id="node10" class="node">
<title>Node10</title>
<g id="a_node10"><a xlink:title=" ">
<polygon fill="white" stroke="#bfbfbf" points="1058,-56.5 1058,-86.5 1199,-86.5 1199,-56.5 1058,-56.5"/>
<text text-anchor="start" x="1066" y="-74.5" font-family="Helvetica,sans-Serif" font-size="10.00">asm/dolphin/gx/GXGeometry</text>
<text text-anchor="middle" x="1128.5" y="-63.5" font-family="Helvetica,sans-Serif" font-size="10.00">/GXEnableTexOffsets.s</text>
</a>
</g>
</g>
<!-- Node1&#45;&gt;Node10 -->
<g id="edge10" class="edge">
<title>Node1&#45;&gt;Node10</title>
<path fill="none" stroke="midnightblue" d="M796.6,-123.49C858.93,-115.28 955.21,-102.12 1047.79,-87.24"/>
<polygon fill="midnightblue" stroke="midnightblue" points="1048.58,-90.66 1057.89,-85.61 1047.46,-83.75 1048.58,-90.66"/>
</g>
<!-- Node11 -->
<g id="node11" class="node">
<title>Node11</title>
<g id="a_node11"><a xlink:title=" ">
<polygon fill="white" stroke="#bfbfbf" points="1217,-56.5 1217,-86.5 1358,-86.5 1358,-56.5 1217,-56.5"/>
<text text-anchor="start" x="1225" y="-74.5" font-family="Helvetica,sans-Serif" font-size="10.00">asm/dolphin/gx/GXGeometry</text>
<text text-anchor="middle" x="1287.5" y="-63.5" font-family="Helvetica,sans-Serif" font-size="10.00">/GXSetCullMode.s</text>
</a>
</g>
</g>
<!-- Node1&#45;&gt;Node11 -->
<g id="edge11" class="edge">
<title>Node1&#45;&gt;Node11</title>
<path fill="none" stroke="midnightblue" d="M808.15,-126.79C900.8,-120.11 1060.56,-107.08 1206.85,-87.16"/>
<polygon fill="midnightblue" stroke="midnightblue" points="1207.48,-90.6 1216.91,-85.77 1206.53,-83.67 1207.48,-90.6"/>
</g>
<!-- Node12 -->
<g id="node12" class="node">
<title>Node12</title>
<g id="a_node12"><a xlink:title=" ">
<polygon fill="white" stroke="#bfbfbf" points="1376,-56.5 1376,-86.5 1517,-86.5 1517,-56.5 1376,-56.5"/>
<text text-anchor="start" x="1384" y="-74.5" font-family="Helvetica,sans-Serif" font-size="10.00">asm/dolphin/gx/GXGeometry</text>
<text text-anchor="middle" x="1446.5" y="-63.5" font-family="Helvetica,sans-Serif" font-size="10.00">/GXSetCoPlanar.s</text>
</a>
</g>
</g>
<!-- Node1&#45;&gt;Node12 -->
<g id="edge12" class="edge">
<title>Node1&#45;&gt;Node12</title>
<path fill="none" stroke="midnightblue" d="M808.24,-129.29C926.57,-124.55 1159.13,-112.82 1365.79,-87.13"/>
<polygon fill="midnightblue" stroke="midnightblue" points="1366.44,-90.57 1375.93,-85.85 1365.57,-83.63 1366.44,-90.57"/>
</g>
<!-- Node13 -->
<g id="node13" class="node">
<title>Node13</title>
<g id="a_node13"><a xlink:title=" ">
<polygon fill="white" stroke="#bfbfbf" points="1535,-56.5 1535,-86.5 1676,-86.5 1676,-56.5 1535,-56.5"/>
<text text-anchor="start" x="1543" y="-74.5" font-family="Helvetica,sans-Serif" font-size="10.00">asm/dolphin/gx/GXGeometry</text>
<text text-anchor="middle" x="1605.5" y="-63.5" font-family="Helvetica,sans-Serif" font-size="10.00">/__GXSetGenMode.s</text>
</a>
</g>
</g>
<!-- Node1&#45;&gt;Node13 -->
<g id="edge13" class="edge">
<title>Node1&#45;&gt;Node13</title>
<path fill="none" stroke="midnightblue" d="M808.18,-130.83C949.11,-128 1256.41,-118.59 1524.61,-87.13"/>
<polygon fill="midnightblue" stroke="midnightblue" points="1525.41,-90.56 1534.93,-85.9 1524.59,-83.61 1525.41,-90.56"/>
</g>
<!-- Node4&#45;&gt;Node3 -->
<g id="edge4" class="edge">
<title>Node4&#45;&gt;Node3</title>
<path fill="none" stroke="midnightblue" d="M174.91,-61.98C168.01,-53.05 157,-38.81 148.37,-27.64"/>
<polygon fill="midnightblue" stroke="midnightblue" points="150.96,-25.28 142.08,-19.51 145.43,-29.56 150.96,-25.28"/>
</g>
</g>
</svg>
        <g id="navigator" transform="translate(0 0)" fill="#404254">
                <rect fill="#f2f5e9" fill-opacity="0.5" stroke="#606060" stroke-width=".5" x="0" y="0" width="60" height="60"/>
                <use id="zoomplus" xlink:href="#zoomPlus" x="17" y="9" onmousedown="handleZoom(evt,'in')"/>
                <use id="zoomminus" xlink:href="#zoomMin" x="42" y="9" onmousedown="handleZoom(evt,'out')"/>
                <use id="reset" xlink:href="#resetDef" x="30" y="36" onmousedown="handleReset()"/>
                <g id="arrowUp" xlink:href="#dirArrow" transform="translate(30 24)" onmousedown="handlePan(0,-1)">
                  <use xlink:href="#rim" fill="#404040">
                        <set attributeName="fill" to="#808080" begin="arrowUp.mouseover" end="arrowUp.mouseout"/>
                  </use>
                  <path fill="none" stroke="white" stroke-width="1.5" d="M0,-3.0v7 M-2.5,-0.5L0,-3.0L2.5,-0.5"/>
                </g>
                <g id="arrowRight" xlink:href="#dirArrow" transform="rotate(90) translate(36 -43)" onmousedown="handlePan(1,0)">
                  <use xlink:href="#rim" fill="#404040">
                        <set attributeName="fill" to="#808080" begin="arrowRight.mouseover" end="arrowRight.mouseout"/>
                  </use>
                  <path fill="none" stroke="white" stroke-width="1.5" d="M0,-3.0v7 M-2.5,-0.5L0,-3.0L2.5,-0.5"/>
                </g>
                <g id="arrowDown" xlink:href="#dirArrow" transform="rotate(180) translate(-30 -48)" onmousedown="handlePan(0,1)">
                  <use xlink:href="#rim" fill="#404040">
                        <set attributeName="fill" to="#808080" begin="arrowDown.mouseover" end="arrowDown.mouseout"/>
                  </use>
                  <path fill="none" stroke="white" stroke-width="1.5" d="M0,-3.0v7 M-2.5,-0.5L0,-3.0L2.5,-0.5"/>
                </g>
                <g id="arrowLeft" xlink:href="#dirArrow" transform="rotate(270) translate(-36 17)" onmousedown="handlePan(-1,0)">
                  <use xlink:href="#rim" fill="#404040">
                        <set attributeName="fill" to="#808080" begin="arrowLeft.mouseover" end="arrowLeft.mouseout"/>
                  </use>
                  <path fill="none" stroke="white" stroke-width="1.5" d="M0,-3.0v7 M-2.5,-0.5L0,-3.0L2.5,-0.5"/>
                </g>
        </g>
        <svg viewBox="0 0 15 15" width="100%" height="30px" preserveAspectRatio="xMaxYMin meet">
         <g id="arrow_out" transform="scale(0.3 0.3)">
          <a xlink:href="GXGeometry_8cpp__incl_org.svg" target="_base">
           <rect id="button" ry="5" rx="5" y="6" x="6" height="38" width="38"
                fill="#f2f5e9" fill-opacity="0.5" stroke="#606060" stroke-width="1.0"/>
           <path id="arrow"
             d="M 11.500037,31.436501 C 11.940474,20.09759 22.043105,11.32322 32.158766,21.979434 L 37.068811,17.246167 C 37.068811,17.246167 37.088388,32 37.088388,32 L 22.160133,31.978069 C 22.160133,31.978069 26.997745,27.140456 26.997745,27.140456 C 18.528582,18.264221 13.291696,25.230495 11.500037,31.436501 z"
             style="fill:#404040;"/>
          </a>
         </g>
        </svg>
</svg>
