<?xml version="1.0" encoding="UTF-8" standalone="no"?>
<!DOCTYPE svg PUBLIC "-//W3C//DTD SVG 1.1//EN"
 "http://www.w3.org/Graphics/SVG/1.1/DTD/svg11.dtd">
<!-- Generated by graphviz version 2.47.0 (20210316.2052)
 -->
<!-- Title: libs/dolphin/gx/GXPixel.cpp Pages: 1 -->
<svg width="1888pt" height="151pt"
 viewBox="0.00 0.00 1887.50 151.00" xmlns="http://www.w3.org/2000/svg" xmlns:xlink="http://www.w3.org/1999/xlink">
<g id="graph0" class="graph" transform="scale(1 1) rotate(0) translate(4 147)">
<title>libs/dolphin/gx/GXPixel.cpp</title>
<polygon fill="white" stroke="transparent" points="-4,4 -4,-147 1883.5,-147 1883.5,4 -4,4"/>
<!-- Node1 -->
<g id="node1" class="node">
<title>Node1</title>
<g id="a_node1"><a xlink:title=" ">
<polygon fill="#bfbfbf" stroke="black" points="786.5,-123.5 786.5,-142.5 920.5,-142.5 920.5,-123.5 786.5,-123.5"/>
<text text-anchor="middle" x="853.5" y="-130.5" font-family="Helvetica,sans-Serif" font-size="10.00">libs/dolphin/gx/GXPixel.cpp</text>
</a>
</g>
</g>
<!-- Node2 -->
<g id="node2" class="node">
<title>Node2</title>
<g id="a_node2"><a xlink:href="dol2asm_8h.html" target="_top" xlink:title=" ">
<polygon fill="white" stroke="black" points="0,-62 0,-81 61,-81 61,-62 0,-62"/>
<text text-anchor="middle" x="30.5" y="-69" font-family="Helvetica,sans-Serif" font-size="10.00">dol2asm.h</text>
</a>
</g>
</g>
<!-- Node1&#45;&gt;Node2 -->
<g id="edge1" class="edge">
<title>Node1&#45;&gt;Node2</title>
<path fill="none" stroke="midnightblue" d="M786.43,-130.31C623.63,-125.84 210.99,-112.32 75.5,-87 71.32,-86.22 67,-85.16 62.75,-83.97"/>
<polygon fill="midnightblue" stroke="midnightblue" points="63.69,-80.6 53.1,-81.02 61.64,-87.29 63.69,-80.6"/>
</g>
<!-- Node3 -->
<g id="node3" class="node">
<title>Node3</title>
<g id="a_node3"><a xlink:href="types_8h.html" target="_top" xlink:title=" ">
<polygon fill="white" stroke="black" points="89,-0.5 89,-19.5 170,-19.5 170,-0.5 89,-0.5"/>
<text text-anchor="middle" x="129.5" y="-7.5" font-family="Helvetica,sans-Serif" font-size="10.00">dolphin/types.h</text>
</a>
</g>
</g>
<!-- Node1&#45;&gt;Node3 -->
<g id="edge2" class="edge">
<title>Node1&#45;&gt;Node3</title>
<path fill="none" stroke="midnightblue" d="M786.22,-130.41C607.26,-125.85 131.55,-111.49 108.5,-87 93.46,-71.02 105.49,-45.25 116.59,-28.22"/>
<polygon fill="midnightblue" stroke="midnightblue" points="119.63,-29.98 122.48,-19.77 113.89,-25.97 119.63,-29.98"/>
</g>
<!-- Node4 -->
<g id="node4" class="node">
<title>Node4</title>
<g id="a_node4"><a xlink:href="GXPixel_8h.html" target="_top" xlink:title=" ">
<polygon fill="white" stroke="black" points="117.5,-62 117.5,-81 223.5,-81 223.5,-62 117.5,-62"/>
<text text-anchor="middle" x="170.5" y="-69" font-family="Helvetica,sans-Serif" font-size="10.00">dolphin/gx/GXPixel.h</text>
</a>
</g>
</g>
<!-- Node1&#45;&gt;Node4 -->
<g id="edge3" class="edge">
<title>Node1&#45;&gt;Node4</title>
<path fill="none" stroke="midnightblue" d="M786.49,-130.6C672.22,-127.43 432.6,-117.46 232.5,-87 226.12,-86.03 219.42,-84.75 212.88,-83.34"/>
<polygon fill="midnightblue" stroke="midnightblue" points="213.34,-79.86 202.81,-81.07 211.8,-86.69 213.34,-79.86"/>
</g>
<!-- Node5 -->
<g id="node5" class="node">
<title>Node5</title>
<g id="a_node5"><a xlink:title=" ">
<polygon fill="white" stroke="#bfbfbf" points="241.5,-56.5 241.5,-86.5 361.5,-86.5 361.5,-56.5 241.5,-56.5"/>
<text text-anchor="start" x="249.5" y="-74.5" font-family="Helvetica,sans-Serif" font-size="10.00">asm/dolphin/gx/GXPixel</text>
<text text-anchor="middle" x="301.5" y="-63.5" font-family="Helvetica,sans-Serif" font-size="10.00">/GXSetFog.s</text>
</a>
</g>
</g>
<!-- Node1&#45;&gt;Node5 -->
<g id="edge5" class="edge">
<title>Node1&#45;&gt;Node5</title>
<path fill="none" stroke="midnightblue" d="M786.4,-128.18C694.86,-122.42 525.57,-109.86 371.75,-87.08"/>
<polygon fill="midnightblue" stroke="midnightblue" points="372.05,-83.58 361.64,-85.56 371.01,-90.5 372.05,-83.58"/>
</g>
<!-- Node6 -->
<g id="node6" class="node">
<title>Node6</title>
<g id="a_node6"><a xlink:title=" ">
<polygon fill="white" stroke="#bfbfbf" points="379.5,-56.5 379.5,-86.5 499.5,-86.5 499.5,-56.5 379.5,-56.5"/>
<text text-anchor="start" x="387.5" y="-74.5" font-family="Helvetica,sans-Serif" font-size="10.00">asm/dolphin/gx/GXPixel</text>
<text text-anchor="middle" x="439.5" y="-63.5" font-family="Helvetica,sans-Serif" font-size="10.00">/GXSetFogRangeAdj.s</text>
</a>
</g>
</g>
<!-- Node1&#45;&gt;Node6 -->
<g id="edge6" class="edge">
<title>Node1&#45;&gt;Node6</title>
<path fill="none" stroke="midnightblue" d="M786.49,-124.82C718.98,-117.23 611.64,-104.2 509.52,-87.1"/>
<polygon fill="midnightblue" stroke="midnightblue" points="510.1,-83.64 499.66,-85.43 508.94,-90.55 510.1,-83.64"/>
</g>
<!-- Node7 -->
<g id="node7" class="node">
<title>Node7</title>
<g id="a_node7"><a xlink:title=" ">
<polygon fill="white" stroke="#bfbfbf" points="517.5,-56.5 517.5,-86.5 637.5,-86.5 637.5,-56.5 517.5,-56.5"/>
<text text-anchor="start" x="525.5" y="-74.5" font-family="Helvetica,sans-Serif" font-size="10.00">asm/dolphin/gx/GXPixel</text>
<text text-anchor="middle" x="577.5" y="-63.5" font-family="Helvetica,sans-Serif" font-size="10.00">/GXSetBlendMode.s</text>
</a>
</g>
</g>
<!-- Node1&#45;&gt;Node7 -->
<g id="edge7" class="edge">
<title>Node1&#45;&gt;Node7</title>
<path fill="none" stroke="midnightblue" d="M813.96,-123.48C770.62,-114.13 700.24,-98.96 647.52,-87.59"/>
<polygon fill="midnightblue" stroke="midnightblue" points="648.07,-84.13 637.56,-85.45 646.59,-90.98 648.07,-84.13"/>
</g>
<!-- Node8 -->
<g id="node8" class="node">
<title>Node8</title>
<g id="a_node8"><a xlink:title=" ">
<polygon fill="white" stroke="#bfbfbf" points="655.5,-56.5 655.5,-86.5 775.5,-86.5 775.5,-56.5 655.5,-56.5"/>
<text text-anchor="start" x="663.5" y="-74.5" font-family="Helvetica,sans-Serif" font-size="10.00">asm/dolphin/gx/GXPixel</text>
<text text-anchor="middle" x="715.5" y="-63.5" font-family="Helvetica,sans-Serif" font-size="10.00">/GXSetColorUpdate.s</text>
</a>
</g>
</g>
<!-- Node1&#45;&gt;Node8 -->
<g id="edge8" class="edge">
<title>Node1&#45;&gt;Node8</title>
<path fill="none" stroke="midnightblue" d="M833.73,-123.48C813.9,-114.93 782.76,-101.5 757.42,-90.57"/>
<polygon fill="midnightblue" stroke="midnightblue" points="758.59,-87.27 748.02,-86.52 755.82,-93.7 758.59,-87.27"/>
</g>
<!-- Node9 -->
<g id="node9" class="node">
<title>Node9</title>
<g id="a_node9"><a xlink:title=" ">
<polygon fill="white" stroke="#bfbfbf" points="793.5,-56.5 793.5,-86.5 913.5,-86.5 913.5,-56.5 793.5,-56.5"/>
<text text-anchor="start" x="801.5" y="-74.5" font-family="Helvetica,sans-Serif" font-size="10.00">asm/dolphin/gx/GXPixel</text>
<text text-anchor="middle" x="853.5" y="-63.5" font-family="Helvetica,sans-Serif" font-size="10.00">/GXSetAlphaUpdate.s</text>
</a>
</g>
</g>
<!-- Node1&#45;&gt;Node9 -->
<g id="edge9" class="edge">
<title>Node1&#45;&gt;Node9</title>
<path fill="none" stroke="midnightblue" d="M853.5,-123.48C853.5,-116.47 853.5,-106.19 853.5,-96.7"/>
<polygon fill="midnightblue" stroke="midnightblue" points="857,-96.52 853.5,-86.52 850,-96.52 857,-96.52"/>
</g>
<!-- Node10 -->
<g id="node10" class="node">
<title>Node10</title>
<g id="a_node10"><a xlink:title=" ">
<polygon fill="white" stroke="#bfbfbf" points="931.5,-56.5 931.5,-86.5 1051.5,-86.5 1051.5,-56.5 931.5,-56.5"/>
<text text-anchor="start" x="939.5" y="-74.5" font-family="Helvetica,sans-Serif" font-size="10.00">asm/dolphin/gx/GXPixel</text>
<text text-anchor="middle" x="991.5" y="-63.5" font-family="Helvetica,sans-Serif" font-size="10.00">/GXSetZMode.s</text>
</a>
</g>
</g>
<!-- Node1&#45;&gt;Node10 -->
<g id="edge10" class="edge">
<title>Node1&#45;&gt;Node10</title>
<path fill="none" stroke="midnightblue" d="M873.27,-123.48C893.1,-114.93 924.24,-101.5 949.58,-90.57"/>
<polygon fill="midnightblue" stroke="midnightblue" points="951.18,-93.7 958.98,-86.52 948.41,-87.27 951.18,-93.7"/>
</g>
<!-- Node11 -->
<g id="node11" class="node">
<title>Node11</title>
<g id="a_node11"><a xlink:title=" ">
<polygon fill="white" stroke="#bfbfbf" points="1069.5,-56.5 1069.5,-86.5 1189.5,-86.5 1189.5,-56.5 1069.5,-56.5"/>
<text text-anchor="start" x="1077.5" y="-74.5" font-family="Helvetica,sans-Serif" font-size="10.00">asm/dolphin/gx/GXPixel</text>
<text text-anchor="middle" x="1129.5" y="-63.5" font-family="Helvetica,sans-Serif" font-size="10.00">/GXSetZCompLoc.s</text>
</a>
</g>
</g>
<!-- Node1&#45;&gt;Node11 -->
<g id="edge11" class="edge">
<title>Node1&#45;&gt;Node11</title>
<path fill="none" stroke="midnightblue" d="M893.04,-123.48C936.38,-114.13 1006.76,-98.96 1059.48,-87.59"/>
<polygon fill="midnightblue" stroke="midnightblue" points="1060.41,-90.98 1069.44,-85.45 1058.93,-84.13 1060.41,-90.98"/>
</g>
<!-- Node12 -->
<g id="node12" class="node">
<title>Node12</title>
<g id="a_node12"><a xlink:title=" ">
<polygon fill="white" stroke="#bfbfbf" points="1207.5,-56.5 1207.5,-86.5 1327.5,-86.5 1327.5,-56.5 1207.5,-56.5"/>
<text text-anchor="start" x="1215.5" y="-74.5" font-family="Helvetica,sans-Serif" font-size="10.00">asm/dolphin/gx/GXPixel</text>
<text text-anchor="middle" x="1267.5" y="-63.5" font-family="Helvetica,sans-Serif" font-size="10.00">/GXSetPixelFmt.s</text>
</a>
</g>
</g>
<!-- Node1&#45;&gt;Node12 -->
<g id="edge12" class="edge">
<title>Node1&#45;&gt;Node12</title>
<path fill="none" stroke="midnightblue" d="M920.51,-124.82C988.02,-117.23 1095.36,-104.2 1197.48,-87.1"/>
<polygon fill="midnightblue" stroke="midnightblue" points="1198.06,-90.55 1207.34,-85.43 1196.9,-83.64 1198.06,-90.55"/>
</g>
<!-- Node13 -->
<g id="node13" class="node">
<title>Node13</title>
<g id="a_node13"><a xlink:title=" ">
<polygon fill="white" stroke="#bfbfbf" points="1345.5,-56.5 1345.5,-86.5 1465.5,-86.5 1465.5,-56.5 1345.5,-56.5"/>
<text text-anchor="start" x="1353.5" y="-74.5" font-family="Helvetica,sans-Serif" font-size="10.00">asm/dolphin/gx/GXPixel</text>
<text text-anchor="middle" x="1405.5" y="-63.5" font-family="Helvetica,sans-Serif" font-size="10.00">/GXSetDither.s</text>
</a>
</g>
</g>
<!-- Node1&#45;&gt;Node13 -->
<g id="edge13" class="edge">
<title>Node1&#45;&gt;Node13</title>
<path fill="none" stroke="midnightblue" d="M920.6,-128.18C1012.14,-122.42 1181.43,-109.86 1335.25,-87.08"/>
<polygon fill="midnightblue" stroke="midnightblue" points="1335.99,-90.5 1345.36,-85.56 1334.95,-83.58 1335.99,-90.5"/>
</g>
<!-- Node14 -->
<g id="node14" class="node">
<title>Node14</title>
<g id="a_node14"><a xlink:title=" ">
<polygon fill="white" stroke="#bfbfbf" points="1483.5,-56.5 1483.5,-86.5 1603.5,-86.5 1603.5,-56.5 1483.5,-56.5"/>
<text text-anchor="start" x="1491.5" y="-74.5" font-family="Helvetica,sans-Serif" font-size="10.00">asm/dolphin/gx/GXPixel</text>
<text text-anchor="middle" x="1543.5" y="-63.5" font-family="Helvetica,sans-Serif" font-size="10.00">/GXSetDstAlpha.s</text>
</a>
</g>
</g>
<!-- Node1&#45;&gt;Node14 -->
<g id="edge14" class="edge">
<title>Node1&#45;&gt;Node14</title>
<path fill="none" stroke="midnightblue" d="M920.9,-130.09C1033.4,-126.25 1266.66,-115.51 1473.25,-87.05"/>
<polygon fill="midnightblue" stroke="midnightblue" points="1473.95,-90.48 1483.37,-85.63 1472.99,-83.55 1473.95,-90.48"/>
</g>
<!-- Node15 -->
<g id="node15" class="node">
<title>Node15</title>
<g id="a_node15"><a xlink:title=" ">
<polygon fill="white" stroke="#bfbfbf" points="1621.5,-56.5 1621.5,-86.5 1741.5,-86.5 1741.5,-56.5 1621.5,-56.5"/>
<text text-anchor="start" x="1629.5" y="-74.5" font-family="Helvetica,sans-Serif" font-size="10.00">asm/dolphin/gx/GXPixel</text>
<text text-anchor="middle" x="1681.5" y="-63.5" font-family="Helvetica,sans-Serif" font-size="10.00">/GXSetFieldMask.s</text>
</a>
</g>
</g>
<!-- Node1&#45;&gt;Node15 -->
<g id="edge15" class="edge">
<title>Node1&#45;&gt;Node15</title>
<path fill="none" stroke="midnightblue" d="M920.57,-131.35C1051.6,-129.35 1350.8,-121.23 1611.35,-87.01"/>
<polygon fill="midnightblue" stroke="midnightblue" points="1611.93,-90.47 1621.38,-85.68 1611.01,-83.53 1611.93,-90.47"/>
</g>
<!-- Node16 -->
<g id="node16" class="node">
<title>Node16</title>
<g id="a_node16"><a xlink:title=" ">
<polygon fill="white" stroke="#bfbfbf" points="1759.5,-56.5 1759.5,-86.5 1879.5,-86.5 1879.5,-56.5 1759.5,-56.5"/>
<text text-anchor="start" x="1767.5" y="-74.5" font-family="Helvetica,sans-Serif" font-size="10.00">asm/dolphin/gx/GXPixel</text>
<text text-anchor="middle" x="1819.5" y="-63.5" font-family="Helvetica,sans-Serif" font-size="10.00">/GXSetFieldMode.s</text>
</a>
</g>
</g>
<!-- Node1&#45;&gt;Node16 -->
<g id="edge16" class="edge">
<title>Node1&#45;&gt;Node16</title>
<path fill="none" stroke="midnightblue" d="M920.77,-132.22C1068.9,-131.93 1434.42,-126.96 1749.15,-87.03"/>
<polygon fill="midnightblue" stroke="midnightblue" points="1749.91,-90.46 1759.38,-85.71 1749.02,-83.51 1749.91,-90.46"/>
</g>
<!-- Node4&#45;&gt;Node3 -->
<g id="edge4" class="edge">
<title>Node4&#45;&gt;Node3</title>
<path fill="none" stroke="midnightblue" d="M164.63,-61.98C158.54,-53.14 148.86,-39.09 141.2,-27.98"/>
<polygon fill="midnightblue" stroke="midnightblue" points="143.92,-25.76 135.36,-19.51 138.16,-29.73 143.92,-25.76"/>
</g>
</g>
</svg>
