<?xml version="1.0" encoding="UTF-8" standalone="no"?>
<!DOCTYPE svg PUBLIC "-//W3C//DTD SVG 1.1//EN"
 "http://www.w3.org/Graphics/SVG/1.1/DTD/svg11.dtd">
<!-- Generated by graphviz version 2.47.0 (20210316.2052)
 -->
<!-- Title: libs/JSystem/J2DGraph/J2DManage.cpp Pages: 1 -->
<svg width="1044pt" height="173pt"
 viewBox="0.00 0.00 1043.50 173.00" xmlns="http://www.w3.org/2000/svg" xmlns:xlink="http://www.w3.org/1999/xlink">
<g id="graph0" class="graph" transform="scale(1 1) rotate(0) translate(4 169)">
<title>libs/JSystem/J2DGraph/J2DManage.cpp</title>
<polygon fill="white" stroke="transparent" points="-4,4 -4,-169 1039.5,-169 1039.5,4 -4,4"/>
<!-- Node1 -->
<g id="node1" class="node">
<title>Node1</title>
<g id="a_node1"><a xlink:title=" ">
<polygon fill="#bfbfbf" stroke="black" points="331,-134.5 331,-164.5 450,-164.5 450,-134.5 331,-134.5"/>
<text text-anchor="start" x="339" y="-152.5" font-family="Helvetica,sans-Serif" font-size="10.00">libs/JSystem/J2DGraph</text>
<text text-anchor="middle" x="390.5" y="-141.5" font-family="Helvetica,sans-Serif" font-size="10.00">/J2DManage.cpp</text>
</a>
</g>
</g>
<!-- Node2 -->
<g id="node2" class="node">
<title>Node2</title>
<g id="a_node2"><a xlink:href="dol2asm_8h.html" target="_top" xlink:title=" ">
<polygon fill="white" stroke="black" points="0,-67.5 0,-86.5 61,-86.5 61,-67.5 0,-67.5"/>
<text text-anchor="middle" x="30.5" y="-74.5" font-family="Helvetica,sans-Serif" font-size="10.00">dol2asm.h</text>
</a>
</g>
</g>
<!-- Node1&#45;&gt;Node2 -->
<g id="edge1" class="edge">
<title>Node1&#45;&gt;Node2</title>
<path fill="none" stroke="midnightblue" d="M330.84,-143.58C266.72,-137.22 162.31,-123.77 75.5,-98 69.15,-96.12 62.53,-93.54 56.38,-90.87"/>
<polygon fill="midnightblue" stroke="midnightblue" points="57.75,-87.65 47.2,-86.67 54.84,-94.01 57.75,-87.65"/>
</g>
<!-- Node3 -->
<g id="node3" class="node">
<title>Node3</title>
<g id="a_node3"><a xlink:href="types_8h.html" target="_top" xlink:title=" ">
<polygon fill="white" stroke="black" points="104,-0.5 104,-19.5 185,-19.5 185,-0.5 104,-0.5"/>
<text text-anchor="middle" x="144.5" y="-7.5" font-family="Helvetica,sans-Serif" font-size="10.00">dolphin/types.h</text>
</a>
</g>
</g>
<!-- Node1&#45;&gt;Node3 -->
<g id="edge2" class="edge">
<title>Node1&#45;&gt;Node3</title>
<path fill="none" stroke="midnightblue" d="M330.78,-146.49C256.57,-142.59 136.27,-131.18 108.5,-98 90.77,-76.82 112.14,-45.69 128.71,-26.98"/>
<polygon fill="midnightblue" stroke="midnightblue" points="131.36,-29.26 135.61,-19.56 126.23,-24.5 131.36,-29.26"/>
</g>
<!-- Node4 -->
<g id="node4" class="node">
<title>Node4</title>
<g id="a_node4"><a xlink:href="J2DManage_8h.html" target="_top" xlink:title=" ">
<polygon fill="white" stroke="black" points="117.5,-67.5 117.5,-86.5 281.5,-86.5 281.5,-67.5 117.5,-67.5"/>
<text text-anchor="middle" x="199.5" y="-74.5" font-family="Helvetica,sans-Serif" font-size="10.00">JSystem/J2DGraph/J2DManage.h</text>
</a>
</g>
</g>
<!-- Node1&#45;&gt;Node4 -->
<g id="edge3" class="edge">
<title>Node1&#45;&gt;Node4</title>
<path fill="none" stroke="midnightblue" d="M352.31,-134.4C317.18,-121.44 265.65,-102.42 232.34,-90.12"/>
<polygon fill="midnightblue" stroke="midnightblue" points="233.21,-86.71 222.62,-86.53 230.79,-93.28 233.21,-86.71"/>
</g>
<!-- Node5 -->
<g id="node5" class="node">
<title>Node5</title>
<g id="a_node5"><a xlink:title=" ">
<polygon fill="white" stroke="#bfbfbf" points="300,-56.5 300,-97.5 481,-97.5 481,-56.5 300,-56.5"/>
<text text-anchor="start" x="308" y="-85.5" font-family="Helvetica,sans-Serif" font-size="10.00">asm/JSystem/J2DGraph</text>
<text text-anchor="start" x="308" y="-74.5" font-family="Helvetica,sans-Serif" font-size="10.00">/J2DManage/get__13J2DDataManage</text>
<text text-anchor="middle" x="390.5" y="-63.5" font-family="Helvetica,sans-Serif" font-size="10.00">FPCc.s</text>
</a>
</g>
</g>
<!-- Node1&#45;&gt;Node5 -->
<g id="edge5" class="edge">
<title>Node1&#45;&gt;Node5</title>
<path fill="none" stroke="midnightblue" d="M390.5,-134.23C390.5,-126.57 390.5,-116.84 390.5,-107.63"/>
<polygon fill="midnightblue" stroke="midnightblue" points="394,-107.59 390.5,-97.59 387,-107.59 394,-107.59"/>
</g>
<!-- Node6 -->
<g id="node6" class="node">
<title>Node6</title>
<g id="a_node6"><a xlink:title=" ">
<polygon fill="white" stroke="#bfbfbf" points="499,-56.5 499,-97.5 680,-97.5 680,-56.5 499,-56.5"/>
<text text-anchor="start" x="507" y="-85.5" font-family="Helvetica,sans-Serif" font-size="10.00">asm/JSystem/J2DGraph</text>
<text text-anchor="start" x="507" y="-74.5" font-family="Helvetica,sans-Serif" font-size="10.00">/J2DManage/get__13J2DDataManage</text>
<text text-anchor="middle" x="589.5" y="-63.5" font-family="Helvetica,sans-Serif" font-size="10.00">FP14JSUInputStream.s</text>
</a>
</g>
</g>
<!-- Node1&#45;&gt;Node6 -->
<g id="edge6" class="edge">
<title>Node1&#45;&gt;Node6</title>
<path fill="none" stroke="midnightblue" d="M430.29,-134.4C457.33,-124.83 493.69,-111.94 524.84,-100.91"/>
<polygon fill="midnightblue" stroke="midnightblue" points="526.07,-104.18 534.33,-97.55 523.73,-97.59 526.07,-104.18"/>
</g>
<!-- Node7 -->
<g id="node7" class="node">
<title>Node7</title>
<g id="a_node7"><a xlink:title=" ">
<polygon fill="white" stroke="#bfbfbf" points="698,-56.5 698,-97.5 847,-97.5 847,-56.5 698,-56.5"/>
<text text-anchor="start" x="706" y="-85.5" font-family="Helvetica,sans-Serif" font-size="10.00">asm/JSystem/J2DGraph</text>
<text text-anchor="start" x="706" y="-74.5" font-family="Helvetica,sans-Serif" font-size="10.00">/J2DManage/getResReference</text>
<text text-anchor="middle" x="772.5" y="-63.5" font-family="Helvetica,sans-Serif" font-size="10.00">__15J2DResReferenceCFUs.s</text>
</a>
</g>
</g>
<!-- Node1&#45;&gt;Node7 -->
<g id="edge7" class="edge">
<title>Node1&#45;&gt;Node7</title>
<path fill="none" stroke="midnightblue" d="M450.01,-139.69C508.33,-130.78 599.93,-116.03 688.01,-98.25"/>
<polygon fill="midnightblue" stroke="midnightblue" points="688.8,-101.66 697.9,-96.23 687.4,-94.8 688.8,-101.66"/>
</g>
<!-- Node8 -->
<g id="node8" class="node">
<title>Node8</title>
<g id="a_node8"><a xlink:title=" ">
<polygon fill="white" stroke="#bfbfbf" points="865.5,-56.5 865.5,-97.5 1035.5,-97.5 1035.5,-56.5 865.5,-56.5"/>
<text text-anchor="start" x="873.5" y="-85.5" font-family="Helvetica,sans-Serif" font-size="10.00">asm/JSystem/J2DGraph</text>
<text text-anchor="start" x="873.5" y="-74.5" font-family="Helvetica,sans-Serif" font-size="10.00">/J2DManage/getName__15J2DRes</text>
<text text-anchor="middle" x="950.5" y="-63.5" font-family="Helvetica,sans-Serif" font-size="10.00">ReferenceCFUs.s</text>
</a>
</g>
</g>
<!-- Node1&#45;&gt;Node8 -->
<g id="edge8" class="edge">
<title>Node1&#45;&gt;Node8</title>
<path fill="none" stroke="midnightblue" d="M450.34,-143.97C537.38,-136.96 704.1,-121.89 855.33,-98.11"/>
<polygon fill="midnightblue" stroke="midnightblue" points="855.94,-101.56 865.26,-96.53 854.84,-94.64 855.94,-101.56"/>
</g>
<!-- Node4&#45;&gt;Node3 -->
<g id="edge4" class="edge">
<title>Node4&#45;&gt;Node3</title>
<path fill="none" stroke="midnightblue" d="M192.08,-67.23C183.51,-57.1 169.2,-40.19 158.51,-27.56"/>
<polygon fill="midnightblue" stroke="midnightblue" points="160.93,-25 151.8,-19.63 155.59,-29.52 160.93,-25"/>
</g>
</g>
</svg>
