<?xml version="1.0" encoding="UTF-8" standalone="no"?>
<!DOCTYPE svg PUBLIC "-//W3C//DTD SVG 1.1//EN"
 "http://www.w3.org/Graphics/SVG/1.1/DTD/svg11.dtd">
<!-- Generated by graphviz version 2.47.0 (20210316.2052)
 -->
<!-- Title: libs/JSystem/J2DGraph/J2DMaterialFactory.cpp Pages: 1 -->
<svg width="7570pt" height="184pt"
 viewBox="0.00 0.00 7570.00 184.00" xmlns="http://www.w3.org/2000/svg" xmlns:xlink="http://www.w3.org/1999/xlink">
<g id="graph0" class="graph" transform="scale(1 1) rotate(0) translate(4 180)">
<title>libs/JSystem/J2DGraph/J2DMaterialFactory.cpp</title>
<polygon fill="white" stroke="transparent" points="-4,4 -4,-180 7566,-180 7566,4 -4,4"/>
<!-- Node1 -->
<g id="node1" class="node">
<title>Node1</title>
<g id="a_node1"><a xlink:title=" ">
<polygon fill="#bfbfbf" stroke="black" points="3913.5,-145.5 3913.5,-175.5 4035.5,-175.5 4035.5,-145.5 3913.5,-145.5"/>
<text text-anchor="start" x="3921.5" y="-163.5" font-family="Helvetica,sans-Serif" font-size="10.00">libs/JSystem/J2DGraph</text>
<text text-anchor="middle" x="3974.5" y="-152.5" font-family="Helvetica,sans-Serif" font-size="10.00">/J2DMaterialFactory.cpp</text>
</a>
</g>
</g>
<!-- Node2 -->
<g id="node2" class="node">
<title>Node2</title>
<g id="a_node2"><a xlink:href="dol2asm_8h.html" target="_top" xlink:title=" ">
<polygon fill="white" stroke="black" points="0,-73 0,-92 61,-92 61,-73 0,-73"/>
<text text-anchor="middle" x="30.5" y="-80" font-family="Helvetica,sans-Serif" font-size="10.00">dol2asm.h</text>
</a>
</g>
</g>
<!-- Node1&#45;&gt;Node2 -->
<g id="edge1" class="edge">
<title>Node1&#45;&gt;Node2</title>
<path fill="none" stroke="midnightblue" d="M3913.44,-159.58C3432.56,-160.06 268.68,-161.27 75.5,-109 66.85,-106.66 58.1,-102.26 50.64,-97.78"/>
<polygon fill="midnightblue" stroke="midnightblue" points="52.3,-94.68 42,-92.19 48.5,-100.55 52.3,-94.68"/>
</g>
<!-- Node3 -->
<g id="node3" class="node">
<title>Node3</title>
<g id="a_node3"><a xlink:href="types_8h.html" target="_top" xlink:title=" ">
<polygon fill="white" stroke="black" points="102,-0.5 102,-19.5 183,-19.5 183,-0.5 102,-0.5"/>
<text text-anchor="middle" x="142.5" y="-7.5" font-family="Helvetica,sans-Serif" font-size="10.00">dolphin/types.h</text>
</a>
</g>
</g>
<!-- Node1&#45;&gt;Node3 -->
<g id="edge2" class="edge">
<title>Node1&#45;&gt;Node3</title>
<path fill="none" stroke="midnightblue" d="M3913.19,-159.29C3421.93,-157.51 143.39,-144.35 108.5,-109 91.95,-92.24 101.01,-78.33 108.5,-56 112.1,-45.25 119.4,-35.02 126.32,-27.04"/>
<polygon fill="midnightblue" stroke="midnightblue" points="128.98,-29.32 133.21,-19.61 123.85,-24.56 128.98,-29.32"/>
</g>
<!-- Node4 -->
<g id="node4" class="node">
<title>Node4</title>
<g id="a_node4"><a xlink:href="J2DMaterialFactory_8h.html" target="_top" xlink:title=" ">
<polygon fill="white" stroke="black" points="117.5,-67.5 117.5,-97.5 273.5,-97.5 273.5,-67.5 117.5,-67.5"/>
<text text-anchor="start" x="125.5" y="-85.5" font-family="Helvetica,sans-Serif" font-size="10.00">JSystem/J2DGraph/J2DMaterial</text>
<text text-anchor="middle" x="195.5" y="-74.5" font-family="Helvetica,sans-Serif" font-size="10.00">Factory.h</text>
</a>
</g>
</g>
<!-- Node1&#45;&gt;Node4 -->
<g id="edge3" class="edge">
<title>Node1&#45;&gt;Node4</title>
<path fill="none" stroke="midnightblue" d="M3913.37,-159.66C3462.17,-160.74 655.41,-165.13 282.5,-109 270.22,-107.15 257.24,-104.02 245.17,-100.57"/>
<polygon fill="midnightblue" stroke="midnightblue" points="245.85,-97.12 235.27,-97.62 243.85,-103.83 245.85,-97.12"/>
</g>
<!-- Node5 -->
<g id="node5" class="node">
<title>Node5</title>
<g id="a_node5"><a xlink:title=" ">
<polygon fill="white" stroke="#bfbfbf" points="291.5,-56.5 291.5,-108.5 461.5,-108.5 461.5,-56.5 291.5,-56.5"/>
<text text-anchor="start" x="299.5" y="-96.5" font-family="Helvetica,sans-Serif" font-size="10.00">asm/JSystem/J2DGraph</text>
<text text-anchor="start" x="299.5" y="-85.5" font-family="Helvetica,sans-Serif" font-size="10.00">/J2DMaterialFactory/</text>
<text text-anchor="start" x="299.5" y="-74.5" font-family="Helvetica,sans-Serif" font-size="10.00">__ct__18J2DMaterialFactoryFRC16</text>
<text text-anchor="middle" x="376.5" y="-63.5" font-family="Helvetica,sans-Serif" font-size="10.00">J2DMaterialBlock.s</text>
</a>
</g>
</g>
<!-- Node1&#45;&gt;Node5 -->
<g id="edge5" class="edge">
<title>Node1&#45;&gt;Node5</title>
<path fill="none" stroke="midnightblue" d="M3913.4,-159.53C3479.62,-159.63 871.47,-158.24 471.85,-108.78"/>
<polygon fill="midnightblue" stroke="midnightblue" points="472.12,-105.28 461.74,-107.45 471.2,-112.22 472.12,-105.28"/>
</g>
<!-- Node6 -->
<g id="node6" class="node">
<title>Node6</title>
<g id="a_node6"><a xlink:title=" ">
<polygon fill="white" stroke="#bfbfbf" points="480,-62 480,-103 641,-103 641,-62 480,-62"/>
<text text-anchor="start" x="488" y="-91" font-family="Helvetica,sans-Serif" font-size="10.00">asm/JSystem/J2DGraph</text>
<text text-anchor="start" x="488" y="-80" font-family="Helvetica,sans-Serif" font-size="10.00">/J2DMaterialFactory/countStages</text>
<text text-anchor="middle" x="560.5" y="-69" font-family="Helvetica,sans-Serif" font-size="10.00">__18J2DMaterialFactoryCFi.s</text>
</a>
</g>
</g>
<!-- Node1&#45;&gt;Node6 -->
<g id="edge6" class="edge">
<title>Node1&#45;&gt;Node6</title>
<path fill="none" stroke="midnightblue" d="M3913.5,-159.53C3489.16,-159.62 984.83,-158.04 650.5,-109 644.28,-108.09 637.88,-106.87 631.5,-105.45"/>
<polygon fill="midnightblue" stroke="midnightblue" points="632.06,-101.99 621.52,-103.09 630.44,-108.8 632.06,-101.99"/>
</g>
<!-- Node7 -->
<g id="node7" class="node">
<title>Node7</title>
<g id="a_node7"><a xlink:title=" ">
<polygon fill="white" stroke="#bfbfbf" points="659,-62 659,-103 784,-103 784,-62 659,-62"/>
<text text-anchor="start" x="667" y="-91" font-family="Helvetica,sans-Serif" font-size="10.00">asm/JSystem/J2DGraph</text>
<text text-anchor="start" x="667" y="-80" font-family="Helvetica,sans-Serif" font-size="10.00">/J2DMaterialFactory/func</text>
<text text-anchor="middle" x="721.5" y="-69" font-family="Helvetica,sans-Serif" font-size="10.00">_802F2D1C.s</text>
</a>
</g>
</g>
<!-- Node1&#45;&gt;Node7 -->
<g id="edge7" class="edge">
<title>Node1&#45;&gt;Node7</title>
<path fill="none" stroke="midnightblue" d="M3913.46,-159.72C3499.52,-161.05 1111.07,-166.17 793.5,-109 789.05,-108.2 784.5,-107.16 779.97,-105.96"/>
<polygon fill="midnightblue" stroke="midnightblue" points="780.69,-102.52 770.11,-103.1 778.74,-109.24 780.69,-102.52"/>
</g>
<!-- Node8 -->
<g id="node8" class="node">
<title>Node8</title>
<g id="a_node8"><a xlink:title=" ">
<polygon fill="white" stroke="#bfbfbf" points="802.5,-62 802.5,-103 966.5,-103 966.5,-62 802.5,-62"/>
<text text-anchor="start" x="810.5" y="-91" font-family="Helvetica,sans-Serif" font-size="10.00">asm/JSystem/J2DGraph</text>
<text text-anchor="start" x="810.5" y="-80" font-family="Helvetica,sans-Serif" font-size="10.00">/J2DMaterialFactory/newMatColor</text>
<text text-anchor="middle" x="884.5" y="-69" font-family="Helvetica,sans-Serif" font-size="10.00">__18J2DMaterialFactoryCFii.s</text>
</a>
</g>
</g>
<!-- Node1&#45;&gt;Node8 -->
<g id="edge8" class="edge">
<title>Node1&#45;&gt;Node8</title>
<path fill="none" stroke="midnightblue" d="M3913.5,-159.41C3513.76,-158.71 1275.64,-152.84 975.5,-109 969.21,-108.08 962.75,-106.86 956.3,-105.44"/>
<polygon fill="midnightblue" stroke="midnightblue" points="956.75,-101.95 946.21,-103.08 955.15,-108.77 956.75,-101.95"/>
</g>
<!-- Node9 -->
<g id="node9" class="node">
<title>Node9</title>
<g id="a_node9"><a xlink:title=" ">
<polygon fill="white" stroke="#bfbfbf" points="984.5,-62 984.5,-103 1172.5,-103 1172.5,-62 984.5,-62"/>
<text text-anchor="start" x="992.5" y="-91" font-family="Helvetica,sans-Serif" font-size="10.00">asm/JSystem/J2DGraph</text>
<text text-anchor="start" x="992.5" y="-80" font-family="Helvetica,sans-Serif" font-size="10.00">/J2DMaterialFactory/newColor</text>
<text text-anchor="middle" x="1078.5" y="-69" font-family="Helvetica,sans-Serif" font-size="10.00">ChanNum__18J2DMaterialFactoryCFi.s</text>
</a>
</g>
</g>
<!-- Node1&#45;&gt;Node9 -->
<g id="edge9" class="edge">
<title>Node1&#45;&gt;Node9</title>
<path fill="none" stroke="midnightblue" d="M3913.46,-159.21C3530.05,-157.28 1461.49,-145.27 1182.5,-109 1174.85,-108.01 1166.95,-106.66 1159.08,-105.11"/>
<polygon fill="midnightblue" stroke="midnightblue" points="1159.65,-101.66 1149.15,-103.05 1158.23,-108.51 1159.65,-101.66"/>
</g>
<!-- Node10 -->
<g id="node10" class="node">
<title>Node10</title>
<g id="a_node10"><a xlink:title=" ">
<polygon fill="white" stroke="#bfbfbf" points="1191,-62 1191,-103 1360,-103 1360,-62 1191,-62"/>
<text text-anchor="start" x="1199" y="-91" font-family="Helvetica,sans-Serif" font-size="10.00">asm/JSystem/J2DGraph</text>
<text text-anchor="start" x="1199" y="-80" font-family="Helvetica,sans-Serif" font-size="10.00">/J2DMaterialFactory/newColor</text>
<text text-anchor="middle" x="1275.5" y="-69" font-family="Helvetica,sans-Serif" font-size="10.00">Chan__18J2DMaterialFactoryCFii.s</text>
</a>
</g>
</g>
<!-- Node1&#45;&gt;Node10 -->
<g id="edge10" class="edge">
<title>Node1&#45;&gt;Node10</title>
<path fill="none" stroke="midnightblue" d="M3913.42,-159.21C3545.2,-157.37 1628.37,-146.05 1369.5,-109 1362.86,-108.05 1356.03,-106.78 1349.22,-105.32"/>
<polygon fill="midnightblue" stroke="midnightblue" points="1349.81,-101.86 1339.28,-103.05 1348.25,-108.69 1349.81,-101.86"/>
</g>
<!-- Node11 -->
<g id="node11" class="node">
<title>Node11</title>
<g id="a_node11"><a xlink:title=" ">
<polygon fill="white" stroke="#bfbfbf" points="1378,-62 1378,-103 1543,-103 1543,-62 1378,-62"/>
<text text-anchor="start" x="1386" y="-91" font-family="Helvetica,sans-Serif" font-size="10.00">asm/JSystem/J2DGraph</text>
<text text-anchor="start" x="1386" y="-80" font-family="Helvetica,sans-Serif" font-size="10.00">/J2DMaterialFactory/newTexGen</text>
<text text-anchor="middle" x="1460.5" y="-69" font-family="Helvetica,sans-Serif" font-size="10.00">Num__18J2DMaterialFactoryCFi.s</text>
</a>
</g>
</g>
<!-- Node1&#45;&gt;Node11 -->
<g id="edge11" class="edge">
<title>Node1&#45;&gt;Node11</title>
<path fill="none" stroke="midnightblue" d="M3913.47,-159.14C3560.91,-156.93 1792.1,-144.14 1552.5,-109 1546.15,-108.07 1539.62,-106.84 1533.1,-105.41"/>
<polygon fill="midnightblue" stroke="midnightblue" points="1533.44,-101.9 1522.9,-103.04 1531.85,-108.72 1533.44,-101.9"/>
</g>
<!-- Node12 -->
<g id="node12" class="node">
<title>Node12</title>
<g id="a_node12"><a xlink:title=" ">
<polygon fill="white" stroke="#bfbfbf" points="1561.5,-62 1561.5,-103 1727.5,-103 1727.5,-62 1561.5,-62"/>
<text text-anchor="start" x="1569.5" y="-91" font-family="Helvetica,sans-Serif" font-size="10.00">asm/JSystem/J2DGraph</text>
<text text-anchor="start" x="1569.5" y="-80" font-family="Helvetica,sans-Serif" font-size="10.00">/J2DMaterialFactory/newTexCoord</text>
<text text-anchor="middle" x="1644.5" y="-69" font-family="Helvetica,sans-Serif" font-size="10.00">__18J2DMaterialFactoryCFii.s</text>
</a>
</g>
</g>
<!-- Node1&#45;&gt;Node12 -->
<g id="edge12" class="edge">
<title>Node1&#45;&gt;Node12</title>
<path fill="none" stroke="midnightblue" d="M3913.24,-159.02C3576.4,-156.28 1956.79,-141.5 1736.5,-109 1730.15,-108.06 1723.62,-106.83 1717.1,-105.4"/>
<polygon fill="midnightblue" stroke="midnightblue" points="1717.44,-101.89 1706.91,-103.03 1715.85,-108.7 1717.44,-101.89"/>
</g>
<!-- Node13 -->
<g id="node13" class="node">
<title>Node13</title>
<g id="a_node13"><a xlink:title=" ">
<polygon fill="white" stroke="#bfbfbf" points="1745.5,-62 1745.5,-103 1901.5,-103 1901.5,-62 1745.5,-62"/>
<text text-anchor="start" x="1753.5" y="-91" font-family="Helvetica,sans-Serif" font-size="10.00">asm/JSystem/J2DGraph</text>
<text text-anchor="start" x="1753.5" y="-80" font-family="Helvetica,sans-Serif" font-size="10.00">/J2DMaterialFactory/newTexMtx</text>
<text text-anchor="middle" x="1823.5" y="-69" font-family="Helvetica,sans-Serif" font-size="10.00">__18J2DMaterialFactoryCFii.s</text>
</a>
</g>
</g>
<!-- Node1&#45;&gt;Node13 -->
<g id="edge13" class="edge">
<title>Node1&#45;&gt;Node13</title>
<path fill="none" stroke="midnightblue" d="M3913.34,-158.95C3592.66,-155.96 2112.42,-140.51 1910.5,-109 1904.62,-108.08 1898.58,-106.88 1892.56,-105.5"/>
<polygon fill="midnightblue" stroke="midnightblue" points="1893.01,-102 1882.47,-103.02 1891.34,-108.8 1893.01,-102"/>
</g>
<!-- Node14 -->
<g id="node14" class="node">
<title>Node14</title>
<g id="a_node14"><a xlink:title=" ">
<polygon fill="white" stroke="#bfbfbf" points="1919.5,-62 1919.5,-103 2087.5,-103 2087.5,-62 1919.5,-62"/>
<text text-anchor="start" x="1927.5" y="-91" font-family="Helvetica,sans-Serif" font-size="10.00">asm/JSystem/J2DGraph</text>
<text text-anchor="start" x="1927.5" y="-80" font-family="Helvetica,sans-Serif" font-size="10.00">/J2DMaterialFactory/newCull</text>
<text text-anchor="middle" x="2003.5" y="-69" font-family="Helvetica,sans-Serif" font-size="10.00">Mode__18J2DMaterialFactoryCFi.s</text>
</a>
</g>
</g>
<!-- Node1&#45;&gt;Node14 -->
<g id="edge14" class="edge">
<title>Node1&#45;&gt;Node14</title>
<path fill="none" stroke="midnightblue" d="M3913.15,-159.81C3631.4,-160.93 2459.73,-162.23 2097.5,-109 2090.92,-108.03 2084.15,-106.76 2077.4,-105.3"/>
<polygon fill="midnightblue" stroke="midnightblue" points="2078.07,-101.87 2067.54,-103.05 2076.51,-108.69 2078.07,-101.87"/>
</g>
<!-- Node15 -->
<g id="node15" class="node">
<title>Node15</title>
<g id="a_node15"><a xlink:title=" ">
<polygon fill="white" stroke="#bfbfbf" points="2106,-62 2106,-103 2259,-103 2259,-62 2106,-62"/>
<text text-anchor="start" x="2114" y="-91" font-family="Helvetica,sans-Serif" font-size="10.00">asm/JSystem/J2DGraph</text>
<text text-anchor="start" x="2114" y="-80" font-family="Helvetica,sans-Serif" font-size="10.00">/J2DMaterialFactory/newTexNo</text>
<text text-anchor="middle" x="2182.5" y="-69" font-family="Helvetica,sans-Serif" font-size="10.00">__18J2DMaterialFactoryCFii.s</text>
</a>
</g>
</g>
<!-- Node1&#45;&gt;Node15 -->
<g id="edge15" class="edge">
<title>Node1&#45;&gt;Node15</title>
<path fill="none" stroke="midnightblue" d="M3913.47,-159.8C3648.3,-160.8 2594.91,-161.31 2268.5,-109 2262.79,-108.08 2256.92,-106.9 2251.06,-105.54"/>
<polygon fill="midnightblue" stroke="midnightblue" points="2251.8,-102.11 2241.25,-103.1 2250.11,-108.91 2251.8,-102.11"/>
</g>
<!-- Node16 -->
<g id="node16" class="node">
<title>Node16</title>
<g id="a_node16"><a xlink:title=" ">
<polygon fill="white" stroke="#bfbfbf" points="2277,-62 2277,-103 2434,-103 2434,-62 2277,-62"/>
<text text-anchor="start" x="2285" y="-91" font-family="Helvetica,sans-Serif" font-size="10.00">asm/JSystem/J2DGraph</text>
<text text-anchor="start" x="2285" y="-80" font-family="Helvetica,sans-Serif" font-size="10.00">/J2DMaterialFactory/newFont</text>
<text text-anchor="middle" x="2355.5" y="-69" font-family="Helvetica,sans-Serif" font-size="10.00">No__18J2DMaterialFactoryCFi.s</text>
</a>
</g>
</g>
<!-- Node1&#45;&gt;Node16 -->
<g id="edge16" class="edge">
<title>Node1&#45;&gt;Node16</title>
<path fill="none" stroke="midnightblue" d="M3913.17,-159.51C3664.9,-159.24 2733.89,-155.12 2443.5,-109 2437.66,-108.07 2431.67,-106.88 2425.68,-105.51"/>
<polygon fill="midnightblue" stroke="midnightblue" points="2426.19,-102.03 2415.64,-103.07 2424.53,-108.83 2426.19,-102.03"/>
</g>
<!-- Node17 -->
<g id="node17" class="node">
<title>Node17</title>
<g id="a_node17"><a xlink:title=" ">
<polygon fill="white" stroke="#bfbfbf" points="2452,-62 2452,-103 2617,-103 2617,-62 2452,-62"/>
<text text-anchor="start" x="2460" y="-91" font-family="Helvetica,sans-Serif" font-size="10.00">asm/JSystem/J2DGraph</text>
<text text-anchor="start" x="2460" y="-80" font-family="Helvetica,sans-Serif" font-size="10.00">/J2DMaterialFactory/newTevOrder</text>
<text text-anchor="middle" x="2534.5" y="-69" font-family="Helvetica,sans-Serif" font-size="10.00">__18J2DMaterialFactoryCFii.s</text>
</a>
</g>
</g>
<!-- Node1&#45;&gt;Node17 -->
<g id="edge17" class="edge">
<title>Node1&#45;&gt;Node17</title>
<path fill="none" stroke="midnightblue" d="M3913.26,-159.1C3684.41,-157.3 2879.62,-148.27 2626.5,-109 2620.27,-108.03 2613.85,-106.79 2607.45,-105.37"/>
<polygon fill="midnightblue" stroke="midnightblue" points="2607.96,-101.9 2597.42,-103.02 2606.36,-108.71 2607.96,-101.9"/>
</g>
<!-- Node18 -->
<g id="node18" class="node">
<title>Node18</title>
<g id="a_node18"><a xlink:title=" ">
<polygon fill="white" stroke="#bfbfbf" points="2635.5,-62 2635.5,-103 2799.5,-103 2799.5,-62 2635.5,-62"/>
<text text-anchor="start" x="2643.5" y="-91" font-family="Helvetica,sans-Serif" font-size="10.00">asm/JSystem/J2DGraph</text>
<text text-anchor="start" x="2643.5" y="-80" font-family="Helvetica,sans-Serif" font-size="10.00">/J2DMaterialFactory/newTevColor</text>
<text text-anchor="middle" x="2717.5" y="-69" font-family="Helvetica,sans-Serif" font-size="10.00">__18J2DMaterialFactoryCFii.s</text>
</a>
</g>
</g>
<!-- Node1&#45;&gt;Node18 -->
<g id="edge18" class="edge">
<title>Node1&#45;&gt;Node18</title>
<path fill="none" stroke="midnightblue" d="M3913.46,-158.71C3705.33,-155.71 3024.47,-143.47 2808.5,-109 2802.44,-108.03 2796.21,-106.8 2789.98,-105.41"/>
<polygon fill="midnightblue" stroke="midnightblue" points="2790.77,-102 2780.23,-103.1 2789.16,-108.81 2790.77,-102"/>
</g>
<!-- Node19 -->
<g id="node19" class="node">
<title>Node19</title>
<g id="a_node19"><a xlink:title=" ">
<polygon fill="white" stroke="#bfbfbf" points="2817.5,-62 2817.5,-103 2987.5,-103 2987.5,-62 2817.5,-62"/>
<text text-anchor="start" x="2825.5" y="-91" font-family="Helvetica,sans-Serif" font-size="10.00">asm/JSystem/J2DGraph</text>
<text text-anchor="start" x="2825.5" y="-80" font-family="Helvetica,sans-Serif" font-size="10.00">/J2DMaterialFactory/newTevKColor</text>
<text text-anchor="middle" x="2902.5" y="-69" font-family="Helvetica,sans-Serif" font-size="10.00">__18J2DMaterialFactoryCFii.s</text>
</a>
</g>
</g>
<!-- Node1&#45;&gt;Node19 -->
<g id="edge19" class="edge">
<title>Node1&#45;&gt;Node19</title>
<path fill="none" stroke="midnightblue" d="M3913.27,-158.02C3727.99,-153.29 3175.22,-137.12 2997.5,-109 2991.19,-108 2984.7,-106.75 2978.21,-105.34"/>
<polygon fill="midnightblue" stroke="midnightblue" points="2978.57,-101.83 2968.04,-103.01 2977.01,-108.66 2978.57,-101.83"/>
</g>
<!-- Node20 -->
<g id="node20" class="node">
<title>Node20</title>
<g id="a_node20"><a xlink:title=" ">
<polygon fill="white" stroke="#bfbfbf" points="3006,-62 3006,-103 3173,-103 3173,-62 3006,-62"/>
<text text-anchor="start" x="3014" y="-91" font-family="Helvetica,sans-Serif" font-size="10.00">asm/JSystem/J2DGraph</text>
<text text-anchor="start" x="3014" y="-80" font-family="Helvetica,sans-Serif" font-size="10.00">/J2DMaterialFactory/newTevStage</text>
<text text-anchor="middle" x="3089.5" y="-69" font-family="Helvetica,sans-Serif" font-size="10.00">Num__18J2DMaterialFactoryCFi.s</text>
</a>
</g>
</g>
<!-- Node1&#45;&gt;Node20 -->
<g id="edge20" class="edge">
<title>Node1&#45;&gt;Node20</title>
<path fill="none" stroke="midnightblue" d="M3913.41,-159.83C3779.85,-159.62 3452.25,-154.1 3182.5,-109 3176.43,-107.99 3170.19,-106.74 3163.95,-105.34"/>
<polygon fill="midnightblue" stroke="midnightblue" points="3164.7,-101.92 3154.16,-103.04 3163.1,-108.74 3164.7,-101.92"/>
</g>
<!-- Node21 -->
<g id="node21" class="node">
<title>Node21</title>
<g id="a_node21"><a xlink:title=" ">
<polygon fill="white" stroke="#bfbfbf" points="3191,-62 3191,-103 3358,-103 3358,-62 3191,-62"/>
<text text-anchor="start" x="3199" y="-91" font-family="Helvetica,sans-Serif" font-size="10.00">asm/JSystem/J2DGraph</text>
<text text-anchor="start" x="3199" y="-80" font-family="Helvetica,sans-Serif" font-size="10.00">/J2DMaterialFactory/newTevStage</text>
<text text-anchor="middle" x="3274.5" y="-69" font-family="Helvetica,sans-Serif" font-size="10.00">__18J2DMaterialFactoryCFii.s</text>
</a>
</g>
</g>
<!-- Node1&#45;&gt;Node21 -->
<g id="edge21" class="edge">
<title>Node1&#45;&gt;Node21</title>
<path fill="none" stroke="midnightblue" d="M3913.17,-158.2C3802.94,-155.02 3564.35,-144.31 3366.5,-109 3360.75,-107.97 3354.84,-106.75 3348.93,-105.39"/>
<polygon fill="midnightblue" stroke="midnightblue" points="3349.53,-101.94 3338.99,-103.01 3347.9,-108.75 3349.53,-101.94"/>
</g>
<!-- Node22 -->
<g id="node22" class="node">
<title>Node22</title>
<g id="a_node22"><a xlink:title=" ">
<polygon fill="white" stroke="#bfbfbf" points="3375.5,-62 3375.5,-103 3569.5,-103 3569.5,-62 3375.5,-62"/>
<text text-anchor="start" x="3383.5" y="-91" font-family="Helvetica,sans-Serif" font-size="10.00">asm/JSystem/J2DGraph</text>
<text text-anchor="start" x="3383.5" y="-80" font-family="Helvetica,sans-Serif" font-size="10.00">/J2DMaterialFactory/newTevSwap</text>
<text text-anchor="middle" x="3472.5" y="-69" font-family="Helvetica,sans-Serif" font-size="10.00">ModeTable__18J2DMaterialFactoryCFii.s</text>
</a>
</g>
</g>
<!-- Node1&#45;&gt;Node22 -->
<g id="edge22" class="edge">
<title>Node1&#45;&gt;Node22</title>
<path fill="none" stroke="midnightblue" d="M3913.29,-153.72C3835.38,-145.9 3696.82,-130.42 3579.5,-109 3573.21,-107.85 3566.74,-106.57 3560.24,-105.2"/>
<polygon fill="midnightblue" stroke="midnightblue" points="3560.53,-101.69 3550.02,-103 3559.06,-108.53 3560.53,-101.69"/>
</g>
<!-- Node23 -->
<g id="node23" class="node">
<title>Node23</title>
<g id="a_node23"><a xlink:title=" ">
<polygon fill="white" stroke="#bfbfbf" points="3588,-62 3588,-103 3779,-103 3779,-62 3588,-62"/>
<text text-anchor="start" x="3596" y="-91" font-family="Helvetica,sans-Serif" font-size="10.00">asm/JSystem/J2DGraph</text>
<text text-anchor="start" x="3596" y="-80" font-family="Helvetica,sans-Serif" font-size="10.00">/J2DMaterialFactory/newIndTex</text>
<text text-anchor="middle" x="3683.5" y="-69" font-family="Helvetica,sans-Serif" font-size="10.00">StageNum__18J2DMaterialFactoryCFi.s</text>
</a>
</g>
</g>
<!-- Node1&#45;&gt;Node23 -->
<g id="edge23" class="edge">
<title>Node1&#45;&gt;Node23</title>
<path fill="none" stroke="midnightblue" d="M3920.79,-145.47C3877.99,-134.29 3817.27,-118.44 3767.98,-105.56"/>
<polygon fill="midnightblue" stroke="midnightblue" points="3768.84,-102.17 3758.28,-103.03 3767.07,-108.94 3768.84,-102.17"/>
</g>
<!-- Node24 -->
<g id="node24" class="node">
<title>Node24</title>
<g id="a_node24"><a xlink:title=" ">
<polygon fill="white" stroke="#bfbfbf" points="3797.5,-62 3797.5,-103 3967.5,-103 3967.5,-62 3797.5,-62"/>
<text text-anchor="start" x="3805.5" y="-91" font-family="Helvetica,sans-Serif" font-size="10.00">asm/JSystem/J2DGraph</text>
<text text-anchor="start" x="3805.5" y="-80" font-family="Helvetica,sans-Serif" font-size="10.00">/J2DMaterialFactory/newIndTex</text>
<text text-anchor="middle" x="3882.5" y="-69" font-family="Helvetica,sans-Serif" font-size="10.00">Order__18J2DMaterialFactoryCFii.s</text>
</a>
</g>
</g>
<!-- Node1&#45;&gt;Node24 -->
<g id="edge24" class="edge">
<title>Node1&#45;&gt;Node24</title>
<path fill="none" stroke="midnightblue" d="M3957.2,-145.2C3945.07,-135.19 3928.53,-121.52 3914.09,-109.59"/>
<polygon fill="midnightblue" stroke="midnightblue" points="3916.26,-106.85 3906.32,-103.18 3911.8,-112.25 3916.26,-106.85"/>
</g>
<!-- Node25 -->
<g id="node25" class="node">
<title>Node25</title>
<g id="a_node25"><a xlink:title=" ">
<polygon fill="white" stroke="#bfbfbf" points="3985.5,-62 3985.5,-103 4147.5,-103 4147.5,-62 3985.5,-62"/>
<text text-anchor="start" x="3993.5" y="-91" font-family="Helvetica,sans-Serif" font-size="10.00">asm/JSystem/J2DGraph</text>
<text text-anchor="start" x="3993.5" y="-80" font-family="Helvetica,sans-Serif" font-size="10.00">/J2DMaterialFactory/newIndTex</text>
<text text-anchor="middle" x="4066.5" y="-69" font-family="Helvetica,sans-Serif" font-size="10.00">Mtx__18J2DMaterialFactoryCFii.s</text>
</a>
</g>
</g>
<!-- Node1&#45;&gt;Node25 -->
<g id="edge25" class="edge">
<title>Node1&#45;&gt;Node25</title>
<path fill="none" stroke="midnightblue" d="M3991.8,-145.2C4003.93,-135.19 4020.47,-121.52 4034.91,-109.59"/>
<polygon fill="midnightblue" stroke="midnightblue" points="4037.2,-112.25 4042.68,-103.18 4032.74,-106.85 4037.2,-112.25"/>
</g>
<!-- Node26 -->
<g id="node26" class="node">
<title>Node26</title>
<g id="a_node26"><a xlink:title=" ">
<polygon fill="white" stroke="#bfbfbf" points="4165.5,-62 4165.5,-103 4337.5,-103 4337.5,-62 4165.5,-62"/>
<text text-anchor="start" x="4173.5" y="-91" font-family="Helvetica,sans-Serif" font-size="10.00">asm/JSystem/J2DGraph</text>
<text text-anchor="start" x="4173.5" y="-80" font-family="Helvetica,sans-Serif" font-size="10.00">/J2DMaterialFactory/newIndTev</text>
<text text-anchor="middle" x="4251.5" y="-69" font-family="Helvetica,sans-Serif" font-size="10.00">Stage__18J2DMaterialFactoryCFii.s</text>
</a>
</g>
</g>
<!-- Node1&#45;&gt;Node26 -->
<g id="edge26" class="edge">
<title>Node1&#45;&gt;Node26</title>
<path fill="none" stroke="midnightblue" d="M4025.63,-145.47C4066.2,-134.34 4123.68,-118.57 4170.5,-105.72"/>
<polygon fill="midnightblue" stroke="midnightblue" points="4171.6,-109.05 4180.32,-103.03 4169.75,-102.3 4171.6,-109.05"/>
</g>
<!-- Node27 -->
<g id="node27" class="node">
<title>Node27</title>
<g id="a_node27"><a xlink:title=" ">
<polygon fill="white" stroke="#bfbfbf" points="4356,-62 4356,-103 4553,-103 4553,-62 4356,-62"/>
<text text-anchor="start" x="4364" y="-91" font-family="Helvetica,sans-Serif" font-size="10.00">asm/JSystem/J2DGraph</text>
<text text-anchor="start" x="4364" y="-80" font-family="Helvetica,sans-Serif" font-size="10.00">/J2DMaterialFactory/newIndTex</text>
<text text-anchor="middle" x="4454.5" y="-69" font-family="Helvetica,sans-Serif" font-size="10.00">CoordScale__18J2DMaterialFactoryCFii.s</text>
</a>
</g>
</g>
<!-- Node1&#45;&gt;Node27 -->
<g id="edge27" class="edge">
<title>Node1&#45;&gt;Node27</title>
<path fill="none" stroke="midnightblue" d="M4035.68,-153.04C4109.64,-144.8 4237.72,-129.18 4346.5,-109 4352.72,-107.85 4359.11,-106.57 4365.54,-105.22"/>
<polygon fill="midnightblue" stroke="midnightblue" points="4366.61,-108.57 4375.65,-103.05 4365.14,-101.73 4366.61,-108.57"/>
</g>
<!-- Node28 -->
<g id="node28" class="node">
<title>Node28</title>
<g id="a_node28"><a xlink:title=" ">
<polygon fill="white" stroke="#bfbfbf" points="4571.5,-62 4571.5,-103 4741.5,-103 4741.5,-62 4571.5,-62"/>
<text text-anchor="start" x="4579.5" y="-91" font-family="Helvetica,sans-Serif" font-size="10.00">asm/JSystem/J2DGraph</text>
<text text-anchor="start" x="4579.5" y="-80" font-family="Helvetica,sans-Serif" font-size="10.00">/J2DMaterialFactory/newAlpha</text>
<text text-anchor="middle" x="4656.5" y="-69" font-family="Helvetica,sans-Serif" font-size="10.00">Comp__18J2DMaterialFactoryCFi.s</text>
</a>
</g>
</g>
<!-- Node1&#45;&gt;Node28 -->
<g id="edge28" class="edge">
<title>Node1&#45;&gt;Node28</title>
<path fill="none" stroke="midnightblue" d="M4035.92,-157.84C4143.41,-154.14 4372.32,-142.68 4562.5,-109 4568.31,-107.97 4574.29,-106.75 4580.28,-105.4"/>
<polygon fill="midnightblue" stroke="midnightblue" points="4581.4,-108.73 4590.33,-103.04 4579.8,-101.92 4581.4,-108.73"/>
</g>
<!-- Node29 -->
<g id="node29" class="node">
<title>Node29</title>
<g id="a_node29"><a xlink:title=" ">
<polygon fill="white" stroke="#bfbfbf" points="4760,-62 4760,-103 4909,-103 4909,-62 4760,-62"/>
<text text-anchor="start" x="4768" y="-91" font-family="Helvetica,sans-Serif" font-size="10.00">asm/JSystem/J2DGraph</text>
<text text-anchor="start" x="4768" y="-80" font-family="Helvetica,sans-Serif" font-size="10.00">/J2DMaterialFactory/newBlend</text>
<text text-anchor="middle" x="4834.5" y="-69" font-family="Helvetica,sans-Serif" font-size="10.00">__18J2DMaterialFactoryCFi.s</text>
</a>
</g>
</g>
<!-- Node1&#45;&gt;Node29 -->
<g id="edge29" class="edge">
<title>Node1&#45;&gt;Node29</title>
<path fill="none" stroke="midnightblue" d="M4035.7,-160.26C4167.52,-160.87 4487.66,-156.79 4750.5,-109 4755.62,-108.07 4760.86,-106.93 4766.11,-105.66"/>
<polygon fill="midnightblue" stroke="midnightblue" points="4767.36,-108.96 4776.18,-103.08 4765.62,-102.18 4767.36,-108.96"/>
</g>
<!-- Node30 -->
<g id="node30" class="node">
<title>Node30</title>
<g id="a_node30"><a xlink:title=" ">
<polygon fill="white" stroke="#bfbfbf" points="4926.5,-62 4926.5,-103 5076.5,-103 5076.5,-62 4926.5,-62"/>
<text text-anchor="start" x="4934.5" y="-91" font-family="Helvetica,sans-Serif" font-size="10.00">asm/JSystem/J2DGraph</text>
<text text-anchor="start" x="4934.5" y="-80" font-family="Helvetica,sans-Serif" font-size="10.00">/J2DMaterialFactory/newDither</text>
<text text-anchor="middle" x="5001.5" y="-69" font-family="Helvetica,sans-Serif" font-size="10.00">__18J2DMaterialFactoryCFi.s</text>
</a>
</g>
</g>
<!-- Node1&#45;&gt;Node30 -->
<g id="edge30" class="edge">
<title>Node1&#45;&gt;Node30</title>
<path fill="none" stroke="midnightblue" d="M4035.63,-158.18C4216.64,-153.97 4747.92,-139.29 4918.5,-109 4923.79,-108.06 4929.21,-106.89 4934.63,-105.57"/>
<polygon fill="midnightblue" stroke="midnightblue" points="4935.55,-108.95 4944.35,-103.05 4933.79,-102.17 4935.55,-108.95"/>
</g>
<!-- Node31 -->
<g id="node31" class="node">
<title>Node31</title>
<g id="a_node31"><a xlink:title=" ">
<polygon fill="white" stroke="#bfbfbf" points="5095,-56.5 5095,-108.5 5274,-108.5 5274,-56.5 5095,-56.5"/>
<text text-anchor="start" x="5103" y="-96.5" font-family="Helvetica,sans-Serif" font-size="10.00">asm/JSystem/J2DGraph</text>
<text text-anchor="start" x="5103" y="-85.5" font-family="Helvetica,sans-Serif" font-size="10.00">/J2DMaterialFactory/</text>
<text text-anchor="start" x="5103" y="-74.5" font-family="Helvetica,sans-Serif" font-size="10.00">__ct__11J2DTevStageFRC15J2DTev</text>
<text text-anchor="middle" x="5184.5" y="-63.5" font-family="Helvetica,sans-Serif" font-size="10.00">StageInfo.s</text>
</a>
</g>
</g>
<!-- Node1&#45;&gt;Node31 -->
<g id="edge31" class="edge">
<title>Node1&#45;&gt;Node31</title>
<path fill="none" stroke="midnightblue" d="M4035.77,-158.38C4234.56,-154.5 4861.11,-140.17 5084.8,-108.91"/>
<polygon fill="midnightblue" stroke="midnightblue" points="5085.43,-112.36 5094.82,-107.46 5084.42,-105.43 5085.43,-112.36"/>
</g>
<!-- Node32 -->
<g id="node32" class="node">
<title>Node32</title>
<g id="a_node32"><a xlink:title=" ">
<polygon fill="white" stroke="#bfbfbf" points="5292,-62 5292,-103 5417,-103 5417,-62 5292,-62"/>
<text text-anchor="start" x="5300" y="-91" font-family="Helvetica,sans-Serif" font-size="10.00">asm/JSystem/J2DGraph</text>
<text text-anchor="start" x="5300" y="-80" font-family="Helvetica,sans-Serif" font-size="10.00">/J2DMaterialFactory/func</text>
<text text-anchor="middle" x="5354.5" y="-69" font-family="Helvetica,sans-Serif" font-size="10.00">_802F4170.s</text>
</a>
</g>
</g>
<!-- Node1&#45;&gt;Node32 -->
<g id="edge32" class="edge">
<title>Node1&#45;&gt;Node32</title>
<path fill="none" stroke="midnightblue" d="M4035.6,-159.61C4260.24,-159.65 5039.87,-156.28 5283.5,-109 5287.69,-108.19 5291.97,-107.17 5296.25,-106"/>
<polygon fill="midnightblue" stroke="midnightblue" points="5297.57,-109.26 5306.16,-103.07 5295.58,-102.55 5297.57,-109.26"/>
</g>
<!-- Node33 -->
<g id="node33" class="node">
<title>Node33</title>
<g id="a_node33"><a xlink:title=" ">
<polygon fill="white" stroke="#bfbfbf" points="5435,-62 5435,-103 5560,-103 5560,-62 5435,-62"/>
<text text-anchor="start" x="5443" y="-91" font-family="Helvetica,sans-Serif" font-size="10.00">asm/JSystem/J2DGraph</text>
<text text-anchor="start" x="5443" y="-80" font-family="Helvetica,sans-Serif" font-size="10.00">/J2DMaterialFactory/func</text>
<text text-anchor="middle" x="5497.5" y="-69" font-family="Helvetica,sans-Serif" font-size="10.00">_802F4188.s</text>
</a>
</g>
</g>
<!-- Node1&#45;&gt;Node33 -->
<g id="edge33" class="edge">
<title>Node1&#45;&gt;Node33</title>
<path fill="none" stroke="midnightblue" d="M4035.58,-159.89C4275.53,-161.02 5153.71,-161.4 5426.5,-109 5430.7,-108.19 5434.98,-107.18 5439.25,-106.02"/>
<polygon fill="midnightblue" stroke="midnightblue" points="5440.57,-109.28 5449.17,-103.09 5438.59,-102.57 5440.57,-109.28"/>
</g>
<!-- Node34 -->
<g id="node34" class="node">
<title>Node34</title>
<g id="a_node34"><a xlink:title=" ">
<polygon fill="white" stroke="#bfbfbf" points="5578,-62 5578,-103 5703,-103 5703,-62 5578,-62"/>
<text text-anchor="start" x="5586" y="-91" font-family="Helvetica,sans-Serif" font-size="10.00">asm/JSystem/J2DGraph</text>
<text text-anchor="start" x="5586" y="-80" font-family="Helvetica,sans-Serif" font-size="10.00">/J2DMaterialFactory/func</text>
<text text-anchor="middle" x="5640.5" y="-69" font-family="Helvetica,sans-Serif" font-size="10.00">_802F41A0.s</text>
</a>
</g>
</g>
<!-- Node1&#45;&gt;Node34 -->
<g id="edge34" class="edge">
<title>Node1&#45;&gt;Node34</title>
<path fill="none" stroke="midnightblue" d="M4035.89,-158.69C4310.23,-154.92 5417.09,-138.03 5569.5,-109 5573.7,-108.2 5577.98,-107.19 5582.25,-106.04"/>
<polygon fill="midnightblue" stroke="midnightblue" points="5583.57,-109.3 5592.17,-103.12 5581.59,-102.58 5583.57,-109.3"/>
</g>
<!-- Node35 -->
<g id="node35" class="node">
<title>Node35</title>
<g id="a_node35"><a xlink:title=" ">
<polygon fill="white" stroke="#bfbfbf" points="5721,-62 5721,-103 5846,-103 5846,-62 5721,-62"/>
<text text-anchor="start" x="5729" y="-91" font-family="Helvetica,sans-Serif" font-size="10.00">asm/JSystem/J2DGraph</text>
<text text-anchor="start" x="5729" y="-80" font-family="Helvetica,sans-Serif" font-size="10.00">/J2DMaterialFactory/func</text>
<text text-anchor="middle" x="5783.5" y="-69" font-family="Helvetica,sans-Serif" font-size="10.00">_802F41B8.s</text>
</a>
</g>
</g>
<!-- Node1&#45;&gt;Node35 -->
<g id="edge35" class="edge">
<title>Node1&#45;&gt;Node35</title>
<path fill="none" stroke="midnightblue" d="M4035.51,-158.87C4324.12,-155.72 5545.29,-140.63 5712.5,-109 5716.89,-108.17 5721.37,-107.11 5725.84,-105.89"/>
<polygon fill="midnightblue" stroke="midnightblue" points="5726.97,-109.21 5735.56,-103.01 5724.98,-102.49 5726.97,-109.21"/>
</g>
<!-- Node36 -->
<g id="node36" class="node">
<title>Node36</title>
<g id="a_node36"><a xlink:title=" ">
<polygon fill="white" stroke="#bfbfbf" points="5864,-62 5864,-103 5989,-103 5989,-62 5864,-62"/>
<text text-anchor="start" x="5872" y="-91" font-family="Helvetica,sans-Serif" font-size="10.00">asm/JSystem/J2DGraph</text>
<text text-anchor="start" x="5872" y="-80" font-family="Helvetica,sans-Serif" font-size="10.00">/J2DMaterialFactory/func</text>
<text text-anchor="middle" x="5926.5" y="-69" font-family="Helvetica,sans-Serif" font-size="10.00">_802F41D0.s</text>
</a>
</g>
</g>
<!-- Node1&#45;&gt;Node36 -->
<g id="edge36" class="edge">
<title>Node1&#45;&gt;Node36</title>
<path fill="none" stroke="midnightblue" d="M4035.68,-159.01C4338.93,-156.43 5673.55,-143.21 5855.5,-109 5859.89,-108.17 5864.37,-107.12 5868.84,-105.9"/>
<polygon fill="midnightblue" stroke="midnightblue" points="5869.97,-109.22 5878.57,-103.02 5867.98,-102.51 5869.97,-109.22"/>
</g>
<!-- Node37 -->
<g id="node37" class="node">
<title>Node37</title>
<g id="a_node37"><a xlink:title=" ">
<polygon fill="white" stroke="#bfbfbf" points="6007,-62 6007,-103 6132,-103 6132,-62 6007,-62"/>
<text text-anchor="start" x="6015" y="-91" font-family="Helvetica,sans-Serif" font-size="10.00">asm/JSystem/J2DGraph</text>
<text text-anchor="start" x="6015" y="-80" font-family="Helvetica,sans-Serif" font-size="10.00">/J2DMaterialFactory/func</text>
<text text-anchor="middle" x="6069.5" y="-69" font-family="Helvetica,sans-Serif" font-size="10.00">_802F41E8.s</text>
</a>
</g>
</g>
<!-- Node1&#45;&gt;Node37 -->
<g id="edge37" class="edge">
<title>Node1&#45;&gt;Node37</title>
<path fill="none" stroke="midnightblue" d="M4035.55,-159.14C4352.34,-157.1 5801.72,-145.8 5998.5,-109 6002.89,-108.18 6007.37,-107.12 6011.84,-105.91"/>
<polygon fill="midnightblue" stroke="midnightblue" points="6012.97,-109.23 6021.57,-103.04 6010.99,-102.51 6012.97,-109.23"/>
</g>
<!-- Node38 -->
<g id="node38" class="node">
<title>Node38</title>
<g id="a_node38"><a xlink:title=" ">
<polygon fill="white" stroke="#bfbfbf" points="6150,-62 6150,-103 6275,-103 6275,-62 6150,-62"/>
<text text-anchor="start" x="6158" y="-91" font-family="Helvetica,sans-Serif" font-size="10.00">asm/JSystem/J2DGraph</text>
<text text-anchor="start" x="6158" y="-80" font-family="Helvetica,sans-Serif" font-size="10.00">/J2DMaterialFactory/func</text>
<text text-anchor="middle" x="6212.5" y="-69" font-family="Helvetica,sans-Serif" font-size="10.00">_802F4200.s</text>
</a>
</g>
</g>
<!-- Node1&#45;&gt;Node38 -->
<g id="edge38" class="edge">
<title>Node1&#45;&gt;Node38</title>
<path fill="none" stroke="midnightblue" d="M4035.74,-159.24C4366.24,-157.71 5929.93,-148.39 6141.5,-109 6145.89,-108.18 6150.37,-107.13 6154.84,-105.92"/>
<polygon fill="midnightblue" stroke="midnightblue" points="6155.97,-109.24 6164.57,-103.05 6153.99,-102.52 6155.97,-109.24"/>
</g>
<!-- Node39 -->
<g id="node39" class="node">
<title>Node39</title>
<g id="a_node39"><a xlink:title=" ">
<polygon fill="white" stroke="#bfbfbf" points="6293,-62 6293,-103 6418,-103 6418,-62 6293,-62"/>
<text text-anchor="start" x="6301" y="-91" font-family="Helvetica,sans-Serif" font-size="10.00">asm/JSystem/J2DGraph</text>
<text text-anchor="start" x="6301" y="-80" font-family="Helvetica,sans-Serif" font-size="10.00">/J2DMaterialFactory/func</text>
<text text-anchor="middle" x="6355.5" y="-69" font-family="Helvetica,sans-Serif" font-size="10.00">_802F4218.s</text>
</a>
</g>
</g>
<!-- Node1&#45;&gt;Node39 -->
<g id="edge39" class="edge">
<title>Node1&#45;&gt;Node39</title>
<path fill="none" stroke="midnightblue" d="M4035.52,-159.34C4378.4,-158.28 6058.02,-150.99 6284.5,-109 6288.89,-108.19 6293.38,-107.14 6297.85,-105.93"/>
<polygon fill="midnightblue" stroke="midnightblue" points="6298.97,-109.24 6307.57,-103.06 6296.99,-102.53 6298.97,-109.24"/>
</g>
<!-- Node40 -->
<g id="node40" class="node">
<title>Node40</title>
<g id="a_node40"><a xlink:title=" ">
<polygon fill="white" stroke="#bfbfbf" points="6436,-62 6436,-103 6561,-103 6561,-62 6436,-62"/>
<text text-anchor="start" x="6444" y="-91" font-family="Helvetica,sans-Serif" font-size="10.00">asm/JSystem/J2DGraph</text>
<text text-anchor="start" x="6444" y="-80" font-family="Helvetica,sans-Serif" font-size="10.00">/J2DMaterialFactory/func</text>
<text text-anchor="middle" x="6498.5" y="-69" font-family="Helvetica,sans-Serif" font-size="10.00">_802F4230.s</text>
</a>
</g>
</g>
<!-- Node1&#45;&gt;Node40 -->
<g id="edge40" class="edge">
<title>Node1&#45;&gt;Node40</title>
<path fill="none" stroke="midnightblue" d="M4035.77,-159.42C4391.73,-158.82 6186.19,-153.58 6427.5,-109 6431.89,-108.19 6436.38,-107.14 6440.85,-105.93"/>
<polygon fill="midnightblue" stroke="midnightblue" points="6441.97,-109.25 6450.57,-103.07 6439.99,-102.54 6441.97,-109.25"/>
</g>
<!-- Node41 -->
<g id="node41" class="node">
<title>Node41</title>
<g id="a_node41"><a xlink:title=" ">
<polygon fill="white" stroke="#bfbfbf" points="6579,-62 6579,-103 6704,-103 6704,-62 6579,-62"/>
<text text-anchor="start" x="6587" y="-91" font-family="Helvetica,sans-Serif" font-size="10.00">asm/JSystem/J2DGraph</text>
<text text-anchor="start" x="6587" y="-80" font-family="Helvetica,sans-Serif" font-size="10.00">/J2DMaterialFactory/func</text>
<text text-anchor="middle" x="6641.5" y="-69" font-family="Helvetica,sans-Serif" font-size="10.00">_802F4248.s</text>
</a>
</g>
</g>
<!-- Node1&#45;&gt;Node41 -->
<g id="edge41" class="edge">
<title>Node1&#45;&gt;Node41</title>
<path fill="none" stroke="midnightblue" d="M4035.71,-159.5C4403.67,-159.33 6314.27,-156.19 6570.5,-109 6574.89,-108.19 6579.38,-107.14 6583.85,-105.94"/>
<polygon fill="midnightblue" stroke="midnightblue" points="6584.97,-109.26 6593.58,-103.07 6582.99,-102.54 6584.97,-109.26"/>
</g>
<!-- Node42 -->
<g id="node42" class="node">
<title>Node42</title>
<g id="a_node42"><a xlink:title=" ">
<polygon fill="white" stroke="#bfbfbf" points="6722,-62 6722,-103 6847,-103 6847,-62 6722,-62"/>
<text text-anchor="start" x="6730" y="-91" font-family="Helvetica,sans-Serif" font-size="10.00">asm/JSystem/J2DGraph</text>
<text text-anchor="start" x="6730" y="-80" font-family="Helvetica,sans-Serif" font-size="10.00">/J2DMaterialFactory/func</text>
<text text-anchor="middle" x="6784.5" y="-69" font-family="Helvetica,sans-Serif" font-size="10.00">_802F4260.s</text>
</a>
</g>
</g>
<!-- Node1&#45;&gt;Node42 -->
<g id="edge42" class="edge">
<title>Node1&#45;&gt;Node42</title>
<path fill="none" stroke="midnightblue" d="M4035.66,-159.57C4415.3,-159.82 6442.33,-158.8 6713.5,-109 6717.89,-108.19 6722.38,-107.15 6726.85,-105.94"/>
<polygon fill="midnightblue" stroke="midnightblue" points="6727.97,-109.26 6736.58,-103.08 6726,-102.55 6727.97,-109.26"/>
</g>
<!-- Node43 -->
<g id="node43" class="node">
<title>Node43</title>
<g id="a_node43"><a xlink:title=" ">
<polygon fill="white" stroke="#bfbfbf" points="6865,-62 6865,-103 6990,-103 6990,-62 6865,-62"/>
<text text-anchor="start" x="6873" y="-91" font-family="Helvetica,sans-Serif" font-size="10.00">asm/JSystem/J2DGraph</text>
<text text-anchor="start" x="6873" y="-80" font-family="Helvetica,sans-Serif" font-size="10.00">/J2DMaterialFactory/func</text>
<text text-anchor="middle" x="6927.5" y="-69" font-family="Helvetica,sans-Serif" font-size="10.00">_802F4278.s</text>
</a>
</g>
</g>
<!-- Node1&#45;&gt;Node43 -->
<g id="edge43" class="edge">
<title>Node1&#45;&gt;Node43</title>
<path fill="none" stroke="midnightblue" d="M4035.67,-159.63C4426.8,-160.28 6570.39,-161.41 6856.5,-109 6860.89,-108.2 6865.38,-107.15 6869.85,-105.95"/>
<polygon fill="midnightblue" stroke="midnightblue" points="6870.97,-109.27 6879.58,-103.09 6869,-102.55 6870.97,-109.27"/>
</g>
<!-- Node44 -->
<g id="node44" class="node">
<title>Node44</title>
<g id="a_node44"><a xlink:title=" ">
<polygon fill="white" stroke="#bfbfbf" points="7008,-62 7008,-103 7133,-103 7133,-62 7008,-62"/>
<text text-anchor="start" x="7016" y="-91" font-family="Helvetica,sans-Serif" font-size="10.00">asm/JSystem/J2DGraph</text>
<text text-anchor="start" x="7016" y="-80" font-family="Helvetica,sans-Serif" font-size="10.00">/J2DMaterialFactory/func</text>
<text text-anchor="middle" x="7070.5" y="-69" font-family="Helvetica,sans-Serif" font-size="10.00">_802F4290.s</text>
</a>
</g>
</g>
<!-- Node1&#45;&gt;Node44 -->
<g id="edge44" class="edge">
<title>Node1&#45;&gt;Node44</title>
<path fill="none" stroke="midnightblue" d="M4035.75,-159.68C4438.34,-160.71 6698.45,-164.02 6999.5,-109 7003.89,-108.2 7008.38,-107.16 7012.85,-105.95"/>
<polygon fill="midnightblue" stroke="midnightblue" points="7013.97,-109.27 7022.58,-103.09 7012,-102.55 7013.97,-109.27"/>
</g>
<!-- Node45 -->
<g id="node45" class="node">
<title>Node45</title>
<g id="a_node45"><a xlink:title=" ">
<polygon fill="white" stroke="#bfbfbf" points="7151,-62 7151,-103 7276,-103 7276,-62 7151,-62"/>
<text text-anchor="start" x="7159" y="-91" font-family="Helvetica,sans-Serif" font-size="10.00">asm/JSystem/J2DGraph</text>
<text text-anchor="start" x="7159" y="-80" font-family="Helvetica,sans-Serif" font-size="10.00">/J2DMaterialFactory/func</text>
<text text-anchor="middle" x="7213.5" y="-69" font-family="Helvetica,sans-Serif" font-size="10.00">_802F42A8.s</text>
</a>
</g>
</g>
<!-- Node1&#45;&gt;Node45 -->
<g id="edge45" class="edge">
<title>Node1&#45;&gt;Node45</title>
<path fill="none" stroke="midnightblue" d="M4035.79,-159.09C4463.02,-156.19 6984.05,-137.89 7142.5,-109 7146.89,-108.2 7151.38,-107.16 7155.85,-105.96"/>
<polygon fill="midnightblue" stroke="midnightblue" points="7156.97,-109.27 7165.58,-103.1 7155,-102.56 7156.97,-109.27"/>
</g>
<!-- Node46 -->
<g id="node46" class="node">
<title>Node46</title>
<g id="a_node46"><a xlink:title=" ">
<polygon fill="white" stroke="#bfbfbf" points="7294,-62 7294,-103 7419,-103 7419,-62 7294,-62"/>
<text text-anchor="start" x="7302" y="-91" font-family="Helvetica,sans-Serif" font-size="10.00">asm/JSystem/J2DGraph</text>
<text text-anchor="start" x="7302" y="-80" font-family="Helvetica,sans-Serif" font-size="10.00">/J2DMaterialFactory/func</text>
<text text-anchor="middle" x="7356.5" y="-69" font-family="Helvetica,sans-Serif" font-size="10.00">_802F42C0.s</text>
</a>
</g>
</g>
<!-- Node1&#45;&gt;Node46 -->
<g id="edge46" class="edge">
<title>Node1&#45;&gt;Node46</title>
<path fill="none" stroke="midnightblue" d="M4035.72,-159.14C4473.81,-156.48 7119.53,-139.21 7285.5,-109 7289.9,-108.2 7294.38,-107.16 7298.85,-105.96"/>
<polygon fill="midnightblue" stroke="midnightblue" points="7299.97,-109.28 7308.58,-103.1 7298,-102.56 7299.97,-109.28"/>
</g>
<!-- Node47 -->
<g id="node47" class="node">
<title>Node47</title>
<g id="a_node47"><a xlink:title=" ">
<polygon fill="white" stroke="#bfbfbf" points="7437,-62 7437,-103 7562,-103 7562,-62 7437,-62"/>
<text text-anchor="start" x="7445" y="-91" font-family="Helvetica,sans-Serif" font-size="10.00">asm/JSystem/J2DGraph</text>
<text text-anchor="start" x="7445" y="-80" font-family="Helvetica,sans-Serif" font-size="10.00">/J2DMaterialFactory/func</text>
<text text-anchor="middle" x="7499.5" y="-69" font-family="Helvetica,sans-Serif" font-size="10.00">_802F42D8.s</text>
</a>
</g>
</g>
<!-- Node1&#45;&gt;Node47 -->
<g id="edge47" class="edge">
<title>Node1&#45;&gt;Node47</title>
<path fill="none" stroke="midnightblue" d="M4035.84,-159.18C4485.08,-156.75 7255.03,-140.51 7428.5,-109 7432.9,-108.2 7437.38,-107.16 7441.85,-105.96"/>
<polygon fill="midnightblue" stroke="midnightblue" points="7442.97,-109.28 7451.58,-103.11 7441,-102.56 7442.97,-109.28"/>
</g>
<!-- Node4&#45;&gt;Node3 -->
<g id="edge4" class="edge">
<title>Node4&#45;&gt;Node3</title>
<path fill="none" stroke="midnightblue" d="M184.77,-67.23C176.29,-55.95 164.41,-40.15 155.41,-28.17"/>
<polygon fill="midnightblue" stroke="midnightblue" points="157.99,-25.78 149.19,-19.89 152.4,-29.99 157.99,-25.78"/>
</g>
</g>
</svg>
