<?xml version="1.0" encoding="UTF-8" standalone="no"?>
<!DOCTYPE svg PUBLIC "-//W3C//DTD SVG 1.1//EN"
 "http://www.w3.org/Graphics/SVG/1.1/DTD/svg11.dtd">
<!-- Generated by graphviz version 2.47.0 (20210316.2052)
 -->
<!-- Title: libs/JSystem/J2DGraph/J2DOrthoGraph.cpp Pages: 1 -->
<svg width="2251pt" height="173pt"
 viewBox="0.00 0.00 2251.00 173.00" xmlns="http://www.w3.org/2000/svg" xmlns:xlink="http://www.w3.org/1999/xlink">
<g id="graph0" class="graph" transform="scale(1 1) rotate(0) translate(4 169)">
<title>libs/JSystem/J2DGraph/J2DOrthoGraph.cpp</title>
<polygon fill="white" stroke="transparent" points="-4,4 -4,-169 2247,-169 2247,4 -4,4"/>
<!-- Node1 -->
<g id="node1" class="node">
<title>Node1</title>
<g id="a_node1"><a xlink:title=" ">
<polygon fill="#bfbfbf" stroke="black" points="904,-134.5 904,-164.5 1023,-164.5 1023,-134.5 904,-134.5"/>
<text text-anchor="start" x="912" y="-152.5" font-family="Helvetica,sans-Serif" font-size="10.00">libs/JSystem/J2DGraph</text>
<text text-anchor="middle" x="963.5" y="-141.5" font-family="Helvetica,sans-Serif" font-size="10.00">/J2DOrthoGraph.cpp</text>
</a>
</g>
</g>
<!-- Node2 -->
<g id="node2" class="node">
<title>Node2</title>
<g id="a_node2"><a xlink:href="dol2asm_8h.html" target="_top" xlink:title=" ">
<polygon fill="white" stroke="black" points="0,-67.5 0,-86.5 61,-86.5 61,-67.5 0,-67.5"/>
<text text-anchor="middle" x="30.5" y="-74.5" font-family="Helvetica,sans-Serif" font-size="10.00">dol2asm.h</text>
</a>
</g>
</g>
<!-- Node1&#45;&gt;Node2 -->
<g id="edge1" class="edge">
<title>Node1&#45;&gt;Node2</title>
<path fill="none" stroke="midnightblue" d="M903.98,-147.9C731.45,-145.73 233.37,-136.22 75.5,-98 68.85,-96.39 61.95,-93.83 55.62,-91.07"/>
<polygon fill="midnightblue" stroke="midnightblue" points="56.79,-87.75 46.25,-86.69 53.82,-94.09 56.79,-87.75"/>
</g>
<!-- Node3 -->
<g id="node3" class="node">
<title>Node3</title>
<g id="a_node3"><a xlink:href="types_8h.html" target="_top" xlink:title=" ">
<polygon fill="white" stroke="black" points="99,-0.5 99,-19.5 180,-19.5 180,-0.5 99,-0.5"/>
<text text-anchor="middle" x="139.5" y="-7.5" font-family="Helvetica,sans-Serif" font-size="10.00">dolphin/types.h</text>
</a>
</g>
</g>
<!-- Node1&#45;&gt;Node3 -->
<g id="edge2" class="edge">
<title>Node1&#45;&gt;Node3</title>
<path fill="none" stroke="midnightblue" d="M903.88,-147.2C714.24,-142.77 135.77,-126.93 108.5,-98 89.9,-78.27 109.4,-46.64 124.78,-27.45"/>
<polygon fill="midnightblue" stroke="midnightblue" points="127.64,-29.49 131.41,-19.59 122.28,-24.98 127.64,-29.49"/>
</g>
<!-- Node4 -->
<g id="node4" class="node">
<title>Node4</title>
<g id="a_node4"><a xlink:href="J2DOrthoGraph_8h.html" target="_top" xlink:title=" ">
<polygon fill="white" stroke="black" points="117.5,-62 117.5,-92 263.5,-92 263.5,-62 117.5,-62"/>
<text text-anchor="start" x="125.5" y="-80" font-family="Helvetica,sans-Serif" font-size="10.00">JSystem/J2DGraph/J2DOrtho</text>
<text text-anchor="middle" x="190.5" y="-69" font-family="Helvetica,sans-Serif" font-size="10.00">Graph.h</text>
</a>
</g>
</g>
<!-- Node1&#45;&gt;Node4 -->
<g id="edge3" class="edge">
<title>Node1&#45;&gt;Node4</title>
<path fill="none" stroke="midnightblue" d="M903.6,-147.4C783.42,-144.48 504.62,-134.06 273.5,-98 266.81,-96.96 259.86,-95.65 252.97,-94.2"/>
<polygon fill="midnightblue" stroke="midnightblue" points="253.45,-90.73 242.93,-92 251.95,-97.56 253.45,-90.73"/>
</g>
<!-- Node5 -->
<g id="node5" class="node">
<title>Node5</title>
<g id="a_node5"><a xlink:title=" ">
<polygon fill="white" stroke="#bfbfbf" points="282,-56.5 282,-97.5 405,-97.5 405,-56.5 282,-56.5"/>
<text text-anchor="start" x="290" y="-85.5" font-family="Helvetica,sans-Serif" font-size="10.00">asm/JSystem/J2DGraph</text>
<text text-anchor="start" x="290" y="-74.5" font-family="Helvetica,sans-Serif" font-size="10.00">/J2DOrthoGraph/__ct_</text>
<text text-anchor="middle" x="343.5" y="-63.5" font-family="Helvetica,sans-Serif" font-size="10.00">_13J2DOrthoGraphFv.s</text>
</a>
</g>
</g>
<!-- Node1&#45;&gt;Node5 -->
<g id="edge5" class="edge">
<title>Node1&#45;&gt;Node5</title>
<path fill="none" stroke="midnightblue" d="M903.71,-146.58C804.14,-142.59 598.11,-131.03 415.36,-97.97"/>
<polygon fill="midnightblue" stroke="midnightblue" points="415.77,-94.49 405.3,-96.13 414.5,-101.37 415.77,-94.49"/>
</g>
<!-- Node6 -->
<g id="node6" class="node">
<title>Node6</title>
<g id="a_node6"><a xlink:title=" ">
<polygon fill="white" stroke="#bfbfbf" points="423,-56.5 423,-97.5 552,-97.5 552,-56.5 423,-56.5"/>
<text text-anchor="start" x="431" y="-85.5" font-family="Helvetica,sans-Serif" font-size="10.00">asm/JSystem/J2DGraph</text>
<text text-anchor="start" x="431" y="-74.5" font-family="Helvetica,sans-Serif" font-size="10.00">/J2DOrthoGraph/__ct_</text>
<text text-anchor="middle" x="487.5" y="-63.5" font-family="Helvetica,sans-Serif" font-size="10.00">_13J2DOrthoGraphFffffff.s</text>
</a>
</g>
</g>
<!-- Node1&#45;&gt;Node6 -->
<g id="edge6" class="edge">
<title>Node1&#45;&gt;Node6</title>
<path fill="none" stroke="midnightblue" d="M903.83,-143.62C826.97,-136.75 689.15,-122.47 562.25,-98.01"/>
<polygon fill="midnightblue" stroke="midnightblue" points="562.84,-94.56 552.35,-96.07 561.5,-101.43 562.84,-94.56"/>
</g>
<!-- Node7 -->
<g id="node7" class="node">
<title>Node7</title>
<g id="a_node7"><a xlink:title=" ">
<polygon fill="white" stroke="#bfbfbf" points="570.5,-56.5 570.5,-97.5 694.5,-97.5 694.5,-56.5 570.5,-56.5"/>
<text text-anchor="start" x="578.5" y="-85.5" font-family="Helvetica,sans-Serif" font-size="10.00">asm/JSystem/J2DGraph</text>
<text text-anchor="start" x="578.5" y="-74.5" font-family="Helvetica,sans-Serif" font-size="10.00">/J2DOrthoGraph/setPort</text>
<text text-anchor="middle" x="632.5" y="-63.5" font-family="Helvetica,sans-Serif" font-size="10.00">__13J2DOrthoGraphFv.s</text>
</a>
</g>
</g>
<!-- Node1&#45;&gt;Node7 -->
<g id="edge7" class="edge">
<title>Node1&#45;&gt;Node7</title>
<path fill="none" stroke="midnightblue" d="M903.82,-138.36C853.2,-129.43 778.48,-115.47 704.69,-98.2"/>
<polygon fill="midnightblue" stroke="midnightblue" points="705.3,-94.75 694.76,-95.85 703.69,-101.56 705.3,-94.75"/>
</g>
<!-- Node8 -->
<g id="node8" class="node">
<title>Node8</title>
<g id="a_node8"><a xlink:title=" ">
<polygon fill="white" stroke="#bfbfbf" points="712.5,-62 712.5,-92 878.5,-92 878.5,-62 712.5,-62"/>
<text text-anchor="start" x="720.5" y="-80" font-family="Helvetica,sans-Serif" font-size="10.00">asm/JSystem/J2DGraph</text>
<text text-anchor="middle" x="795.5" y="-69" font-family="Helvetica,sans-Serif" font-size="10.00">/J2DOrthoGraph/func_802E980C.s</text>
</a>
</g>
</g>
<!-- Node1&#45;&gt;Node8 -->
<g id="edge8" class="edge">
<title>Node1&#45;&gt;Node8</title>
<path fill="none" stroke="midnightblue" d="M929.91,-134.4C903.58,-123.36 866.77,-107.91 838.33,-95.97"/>
<polygon fill="midnightblue" stroke="midnightblue" points="839.61,-92.72 829.04,-92.07 836.9,-99.17 839.61,-92.72"/>
</g>
<!-- Node9 -->
<g id="node9" class="node">
<title>Node9</title>
<g id="a_node9"><a xlink:title=" ">
<polygon fill="white" stroke="#bfbfbf" points="896.5,-56.5 896.5,-97.5 1030.5,-97.5 1030.5,-56.5 896.5,-56.5"/>
<text text-anchor="start" x="904.5" y="-85.5" font-family="Helvetica,sans-Serif" font-size="10.00">asm/JSystem/J2DGraph</text>
<text text-anchor="start" x="904.5" y="-74.5" font-family="Helvetica,sans-Serif" font-size="10.00">/J2DOrthoGraph/setLookat</text>
<text text-anchor="middle" x="963.5" y="-63.5" font-family="Helvetica,sans-Serif" font-size="10.00">__13J2DOrthoGraphFv.s</text>
</a>
</g>
</g>
<!-- Node1&#45;&gt;Node9 -->
<g id="edge9" class="edge">
<title>Node1&#45;&gt;Node9</title>
<path fill="none" stroke="midnightblue" d="M963.5,-134.23C963.5,-126.57 963.5,-116.84 963.5,-107.63"/>
<polygon fill="midnightblue" stroke="midnightblue" points="967,-107.59 963.5,-97.59 960,-107.59 967,-107.59"/>
</g>
<!-- Node10 -->
<g id="node10" class="node">
<title>Node10</title>
<g id="a_node10"><a xlink:title=" ">
<polygon fill="white" stroke="#bfbfbf" points="1048.5,-62 1048.5,-92 1214.5,-92 1214.5,-62 1048.5,-62"/>
<text text-anchor="start" x="1056.5" y="-80" font-family="Helvetica,sans-Serif" font-size="10.00">asm/JSystem/J2DGraph</text>
<text text-anchor="middle" x="1131.5" y="-69" font-family="Helvetica,sans-Serif" font-size="10.00">/J2DOrthoGraph/func_802E987C.s</text>
</a>
</g>
</g>
<!-- Node1&#45;&gt;Node10 -->
<g id="edge10" class="edge">
<title>Node1&#45;&gt;Node10</title>
<path fill="none" stroke="midnightblue" d="M997.09,-134.4C1023.42,-123.36 1060.23,-107.91 1088.67,-95.97"/>
<polygon fill="midnightblue" stroke="midnightblue" points="1090.1,-99.17 1097.96,-92.07 1087.39,-92.72 1090.1,-99.17"/>
</g>
<!-- Node11 -->
<g id="node11" class="node">
<title>Node11</title>
<g id="a_node11"><a xlink:title=" ">
<polygon fill="white" stroke="#bfbfbf" points="1233,-56.5 1233,-97.5 1382,-97.5 1382,-56.5 1233,-56.5"/>
<text text-anchor="start" x="1241" y="-85.5" font-family="Helvetica,sans-Serif" font-size="10.00">asm/JSystem/J2DGraph</text>
<text text-anchor="start" x="1241" y="-74.5" font-family="Helvetica,sans-Serif" font-size="10.00">/J2DOrthoGraph/J2DDrawLine</text>
<text text-anchor="middle" x="1307.5" y="-63.5" font-family="Helvetica,sans-Serif" font-size="10.00">__FffffQ28JUtility6TColori.s</text>
</a>
</g>
</g>
<!-- Node1&#45;&gt;Node11 -->
<g id="edge11" class="edge">
<title>Node1&#45;&gt;Node11</title>
<path fill="none" stroke="midnightblue" d="M1023.02,-137.67C1073.55,-128.32 1148.21,-114.1 1222.83,-98.1"/>
<polygon fill="midnightblue" stroke="midnightblue" points="1223.84,-101.46 1232.88,-95.94 1222.37,-94.62 1223.84,-101.46"/>
</g>
<!-- Node12 -->
<g id="node12" class="node">
<title>Node12</title>
<g id="a_node12"><a xlink:title=" ">
<polygon fill="white" stroke="#bfbfbf" points="1400,-56.5 1400,-97.5 1537,-97.5 1537,-56.5 1400,-56.5"/>
<text text-anchor="start" x="1408" y="-85.5" font-family="Helvetica,sans-Serif" font-size="10.00">asm/JSystem/J2DGraph</text>
<text text-anchor="start" x="1408" y="-74.5" font-family="Helvetica,sans-Serif" font-size="10.00">/J2DOrthoGraph/J2DFillBox</text>
<text text-anchor="middle" x="1468.5" y="-63.5" font-family="Helvetica,sans-Serif" font-size="10.00">__FffffQ28JUtility6TColor.s</text>
</a>
</g>
</g>
<!-- Node1&#45;&gt;Node12 -->
<g id="edge12" class="edge">
<title>Node1&#45;&gt;Node12</title>
<path fill="none" stroke="midnightblue" d="M1023.08,-144.06C1104.1,-137.45 1253.64,-123.21 1389.58,-98.25"/>
<polygon fill="midnightblue" stroke="midnightblue" points="1390.57,-101.62 1399.76,-96.35 1389.29,-94.74 1390.57,-101.62"/>
</g>
<!-- Node13 -->
<g id="node13" class="node">
<title>Node13</title>
<g id="a_node13"><a xlink:title=" ">
<polygon fill="white" stroke="#bfbfbf" points="1555,-62 1555,-92 1722,-92 1722,-62 1555,-62"/>
<text text-anchor="start" x="1563" y="-80" font-family="Helvetica,sans-Serif" font-size="10.00">asm/JSystem/J2DGraph</text>
<text text-anchor="middle" x="1638.5" y="-69" font-family="Helvetica,sans-Serif" font-size="10.00">/J2DOrthoGraph/func_802E9B0C.s</text>
</a>
</g>
</g>
<!-- Node1&#45;&gt;Node13 -->
<g id="edge13" class="edge">
<title>Node1&#45;&gt;Node13</title>
<path fill="none" stroke="midnightblue" d="M1023.39,-145.84C1129.36,-140.57 1356.65,-126.74 1546.5,-98 1553.92,-96.88 1561.63,-95.51 1569.3,-94.03"/>
<polygon fill="midnightblue" stroke="midnightblue" points="1570.2,-97.42 1579.32,-92.03 1568.83,-90.56 1570.2,-97.42"/>
</g>
<!-- Node14 -->
<g id="node14" class="node">
<title>Node14</title>
<g id="a_node14"><a xlink:title=" ">
<polygon fill="white" stroke="#bfbfbf" points="1739.5,-56.5 1739.5,-97.5 1897.5,-97.5 1897.5,-56.5 1739.5,-56.5"/>
<text text-anchor="start" x="1747.5" y="-85.5" font-family="Helvetica,sans-Serif" font-size="10.00">asm/JSystem/J2DGraph</text>
<text text-anchor="start" x="1747.5" y="-74.5" font-family="Helvetica,sans-Serif" font-size="10.00">/J2DOrthoGraph/J2DDrawFrame</text>
<text text-anchor="middle" x="1818.5" y="-63.5" font-family="Helvetica,sans-Serif" font-size="10.00">__FffffQ28JUtility6TColorUc.s</text>
</a>
</g>
</g>
<!-- Node1&#45;&gt;Node14 -->
<g id="edge14" class="edge">
<title>Node1&#45;&gt;Node14</title>
<path fill="none" stroke="midnightblue" d="M1023.1,-147.83C1151.09,-145.68 1461.7,-136.71 1729.51,-98.19"/>
<polygon fill="midnightblue" stroke="midnightblue" points="1730.02,-101.65 1739.42,-96.75 1729.02,-94.72 1730.02,-101.65"/>
</g>
<!-- Node15 -->
<g id="node15" class="node">
<title>Node15</title>
<g id="a_node15"><a xlink:title=" ">
<polygon fill="white" stroke="#bfbfbf" points="1915,-62 1915,-92 2082,-92 2082,-62 1915,-62"/>
<text text-anchor="start" x="1923" y="-80" font-family="Helvetica,sans-Serif" font-size="10.00">asm/JSystem/J2DGraph</text>
<text text-anchor="middle" x="1998.5" y="-69" font-family="Helvetica,sans-Serif" font-size="10.00">/J2DOrthoGraph/func_802E9BE8.s</text>
</a>
</g>
</g>
<!-- Node1&#45;&gt;Node15 -->
<g id="edge15" class="edge">
<title>Node1&#45;&gt;Node15</title>
<path fill="none" stroke="midnightblue" d="M1023.11,-148.62C1172.53,-148.2 1574.83,-142.64 1906.5,-98 1914.45,-96.93 1922.73,-95.54 1930.92,-93.98"/>
<polygon fill="midnightblue" stroke="midnightblue" points="1931.71,-97.39 1940.84,-92.02 1930.35,-90.53 1931.71,-97.39"/>
</g>
<!-- Node16 -->
<g id="node16" class="node">
<title>Node16</title>
<g id="a_node16"><a xlink:title=" ">
<polygon fill="white" stroke="#bfbfbf" points="2100,-56.5 2100,-97.5 2243,-97.5 2243,-56.5 2100,-56.5"/>
<text text-anchor="start" x="2108" y="-85.5" font-family="Helvetica,sans-Serif" font-size="10.00">asm/JSystem/J2DGraph</text>
<text text-anchor="start" x="2108" y="-74.5" font-family="Helvetica,sans-Serif" font-size="10.00">/J2DOrthoGraph/getGrafType</text>
<text text-anchor="middle" x="2171.5" y="-63.5" font-family="Helvetica,sans-Serif" font-size="10.00">__13J2DOrthoGraphCFv.s</text>
</a>
</g>
</g>
<!-- Node1&#45;&gt;Node16 -->
<g id="edge16" class="edge">
<title>Node1&#45;&gt;Node16</title>
<path fill="none" stroke="midnightblue" d="M1023.22,-147.4C1222.22,-143.51 1862.58,-128.96 2089.51,-98.11"/>
<polygon fill="midnightblue" stroke="midnightblue" points="2090.26,-101.54 2099.68,-96.68 2089.29,-94.61 2090.26,-101.54"/>
</g>
<!-- Node4&#45;&gt;Node3 -->
<g id="edge4" class="edge">
<title>Node4&#45;&gt;Node3</title>
<path fill="none" stroke="midnightblue" d="M179.43,-61.9C171.56,-51.86 160.95,-38.34 152.65,-27.75"/>
<polygon fill="midnightblue" stroke="midnightblue" points="155.25,-25.4 146.32,-19.69 149.74,-29.72 155.25,-25.4"/>
</g>
</g>
</svg>
