<?xml version="1.0" encoding="UTF-8" standalone="no"?>
<!DOCTYPE svg PUBLIC "-//W3C//DTD SVG 1.1//EN"
 "http://www.w3.org/Graphics/SVG/1.1/DTD/svg11.dtd">
<!-- Generated by graphviz version 2.47.0 (20210316.2052)
 -->
<!-- Title: libs/JSystem/J2DGraph/J2DScreen.cpp Pages: 1 -->
<!--zoomable 184 -->
<svg id="main" version="1.1" xmlns="http://www.w3.org/2000/svg" xmlns:xlink="http://www.w3.org/1999/xlink" xml:space="preserve" onload="init(evt)">
<style type="text/css"><![CDATA[
.edge:hover path { stroke: red; }
.edge:hover polygon { stroke: red; fill: red; }
]]></style>
<script type="text/javascript"><![CDATA[
var edges = document.getElementsByTagName('g');
if (edges && edges.length) {
  for (var i=0;i<edges.length;i++) {
    if (edges[i].id.substr(0,4)=='edge') {
      edges[i].setAttribute('class','edge');
    }
  }
}
]]></script>
        <defs>
                <circle id="rim" cx="0" cy="0" r="7"/>
                <circle id="rim2" cx="0" cy="0" r="3.5"/>
                <g id="zoomPlus">
                        <use xlink:href="#rim" fill="#404040">
                                <set attributeName="fill" to="#808080" begin="zoomplus.mouseover" end="zoomplus.mouseout"/>
                        </use>
                        <path d="M-4,0h8M0,-4v8" fill="none" stroke="white" stroke-width="1.5" pointer-events="none"/>
                </g>
                <g id="zoomMin">
                        <use xlink:href="#rim" fill="#404040">
                                <set attributeName="fill" to="#808080" begin="zoomminus.mouseover" end="zoomminus.mouseout"/>
                        </use>
                        <path d="M-4,0h8" fill="none" stroke="white" stroke-width="1.5" pointer-events="none"/>
                </g>
                <g id="dirArrow">
                        <path fill="none" stroke="white" stroke-width="1.5" d="M0,-3.0v7 M-2.5,-0.5L0,-3.0L2.5,-0.5"/>
                </g>
               <g id="resetDef">
                       <use xlink:href="#rim2" fill="#404040">
                               <set attributeName="fill" to="#808080" begin="reset.mouseover" end="reset.mouseout"/>
                       </use>
               </g>
        </defs>

<script type="text/javascript">
var viewWidth = 6610;
var viewHeight = 184;
var sectionId = 'dynsection-0';
</script>
<script xlink:href="svgpan.js"/>
<svg id="graph" class="graph">
<g id="viewport">
<title>libs/JSystem/J2DGraph/J2DScreen.cpp</title>
<polygon fill="white" stroke="transparent" points="-4,4 -4,-180 6606,-180 6606,4 -4,4"/>
<!-- Node1 -->
<g id="node1" class="node">
<title>Node1</title>
<g id="a_node1"><a xlink:title=" ">
<polygon fill="#bfbfbf" stroke="black" points="3071,-145.5 3071,-175.5 3190,-175.5 3190,-145.5 3071,-145.5"/>
<text text-anchor="start" x="3079" y="-163.5" font-family="Helvetica,sans-Serif" font-size="10.00">libs/JSystem/J2DGraph</text>
<text text-anchor="middle" x="3130.5" y="-152.5" font-family="Helvetica,sans-Serif" font-size="10.00">/J2DScreen.cpp</text>
</a>
</g>
</g>
<!-- Node2 -->
<g id="node2" class="node">
<title>Node2</title>
<g id="a_node2"><a xlink:href="dol2asm_8h.html" target="_top" xlink:title=" ">
<polygon fill="white" stroke="black" points="0,-73 0,-92 61,-92 61,-73 0,-73"/>
<text text-anchor="middle" x="30.5" y="-80" font-family="Helvetica,sans-Serif" font-size="10.00">dol2asm.h</text>
</a>
</g>
</g>
<!-- Node1&#45;&gt;Node2 -->
<g id="edge1" class="edge">
<title>Node1&#45;&gt;Node2</title>
<path fill="none" stroke="midnightblue" d="M3070.67,-159.35C2656.31,-158.21 225.28,-149.81 75.5,-109 66.85,-106.64 58.1,-102.25 50.65,-97.76"/>
<polygon fill="midnightblue" stroke="midnightblue" points="52.3,-94.66 42,-92.17 48.5,-100.54 52.3,-94.66"/>
</g>
<!-- Node3 -->
<g id="node3" class="node">
<title>Node3</title>
<g id="a_node3"><a xlink:href="types_8h.html" target="_top" xlink:title=" ">
<polygon fill="white" stroke="black" points="103,-0.5 103,-19.5 184,-19.5 184,-0.5 103,-0.5"/>
<text text-anchor="middle" x="143.5" y="-7.5" font-family="Helvetica,sans-Serif" font-size="10.00">dolphin/types.h</text>
</a>
</g>
</g>
<!-- Node1&#45;&gt;Node3 -->
<g id="edge2" class="edge">
<title>Node1&#45;&gt;Node3</title>
<path fill="none" stroke="midnightblue" d="M3070.94,-159.65C2651.94,-160.59 162.41,-163.82 108.5,-109 91.98,-92.21 100.86,-78.28 108.5,-56 112.22,-45.16 119.73,-34.92 126.85,-26.96"/>
<polygon fill="midnightblue" stroke="midnightblue" points="129.55,-29.19 133.94,-19.55 124.5,-24.35 129.55,-29.19"/>
</g>
<!-- Node4 -->
<g id="node4" class="node">
<title>Node4</title>
<g id="a_node4"><a xlink:href="J2DScreen_8h.html" target="_top" xlink:title=" ">
<polygon fill="white" stroke="black" points="117.5,-73 117.5,-92 277.5,-92 277.5,-73 117.5,-73"/>
<text text-anchor="middle" x="197.5" y="-80" font-family="Helvetica,sans-Serif" font-size="10.00">JSystem/J2DGraph/J2DScreen.h</text>
</a>
</g>
</g>
<!-- Node1&#45;&gt;Node4 -->
<g id="edge3" class="edge">
<title>Node1&#45;&gt;Node4</title>
<path fill="none" stroke="midnightblue" d="M3070.8,-159.38C2686.72,-158.45 570.54,-151.46 286.5,-109 267.68,-106.19 247.22,-100.52 230.67,-95.24"/>
<polygon fill="midnightblue" stroke="midnightblue" points="231.52,-91.83 220.93,-92.03 229.33,-98.48 231.52,-91.83"/>
</g>
<!-- Node5 -->
<g id="node5" class="node">
<title>Node5</title>
<g id="a_node5"><a xlink:title=" ">
<polygon fill="white" stroke="#bfbfbf" points="295.5,-67.5 295.5,-97.5 467.5,-97.5 467.5,-67.5 295.5,-67.5"/>
<text text-anchor="start" x="303.5" y="-85.5" font-family="Helvetica,sans-Serif" font-size="10.00">asm/JSystem/J2DGraph</text>
<text text-anchor="middle" x="381.5" y="-74.5" font-family="Helvetica,sans-Serif" font-size="10.00">/J2DScreen/__ct__9J2DScreenFv.s</text>
</a>
</g>
</g>
<!-- Node1&#45;&gt;Node5 -->
<g id="edge5" class="edge">
<title>Node1&#45;&gt;Node5</title>
<path fill="none" stroke="midnightblue" d="M3070.98,-159.24C2702.65,-157.48 740.94,-146.44 476.5,-109 462.89,-107.07 448.45,-103.84 435.04,-100.31"/>
<polygon fill="midnightblue" stroke="midnightblue" points="435.59,-96.83 425.03,-97.57 433.75,-103.58 435.59,-96.83"/>
</g>
<!-- Node6 -->
<g id="node6" class="node">
<title>Node6</title>
<g id="a_node6"><a xlink:title=" ">
<polygon fill="white" stroke="#bfbfbf" points="485.5,-67.5 485.5,-97.5 657.5,-97.5 657.5,-67.5 485.5,-67.5"/>
<text text-anchor="start" x="493.5" y="-85.5" font-family="Helvetica,sans-Serif" font-size="10.00">asm/JSystem/J2DGraph</text>
<text text-anchor="middle" x="571.5" y="-74.5" font-family="Helvetica,sans-Serif" font-size="10.00">/J2DScreen/__dt__9J2DScreenFv.s</text>
</a>
</g>
</g>
<!-- Node1&#45;&gt;Node6 -->
<g id="edge6" class="edge">
<title>Node1&#45;&gt;Node6</title>
<path fill="none" stroke="midnightblue" d="M3070.74,-159.14C2717.59,-156.9 910.93,-143.79 666.5,-109 652.89,-107.06 638.45,-103.82 625.05,-100.29"/>
<polygon fill="midnightblue" stroke="midnightblue" points="625.6,-96.81 615.03,-97.55 623.75,-103.57 625.6,-96.81"/>
</g>
<!-- Node7 -->
<g id="node7" class="node">
<title>Node7</title>
<g id="a_node7"><a xlink:title=" ">
<polygon fill="white" stroke="#bfbfbf" points="675.5,-67.5 675.5,-97.5 851.5,-97.5 851.5,-67.5 675.5,-67.5"/>
<text text-anchor="start" x="683.5" y="-85.5" font-family="Helvetica,sans-Serif" font-size="10.00">asm/JSystem/J2DGraph</text>
<text text-anchor="middle" x="763.5" y="-74.5" font-family="Helvetica,sans-Serif" font-size="10.00">/J2DScreen/clean__9J2DScreenFv.s</text>
</a>
</g>
</g>
<!-- Node1&#45;&gt;Node7 -->
<g id="edge7" class="edge">
<title>Node1&#45;&gt;Node7</title>
<path fill="none" stroke="midnightblue" d="M3070.89,-159C2735,-156.08 1085.65,-140.22 861.5,-109 847.35,-107.03 832.3,-103.74 818.36,-100.17"/>
<polygon fill="midnightblue" stroke="midnightblue" points="819,-96.71 808.43,-97.53 817.2,-103.48 819,-96.71"/>
</g>
<!-- Node8 -->
<g id="node8" class="node">
<title>Node8</title>
<g id="a_node8"><a xlink:title=" ">
<polygon fill="white" stroke="#bfbfbf" points="870,-62 870,-103 1061,-103 1061,-62 870,-62"/>
<text text-anchor="start" x="878" y="-91" font-family="Helvetica,sans-Serif" font-size="10.00">asm/JSystem/J2DGraph</text>
<text text-anchor="start" x="878" y="-80" font-family="Helvetica,sans-Serif" font-size="10.00">/J2DScreen/setPriority</text>
<text text-anchor="middle" x="965.5" y="-69" font-family="Helvetica,sans-Serif" font-size="10.00">__9J2DScreenFPCcUlP10JKRArchive.s</text>
</a>
</g>
</g>
<!-- Node1&#45;&gt;Node8 -->
<g id="edge8" class="edge">
<title>Node1&#45;&gt;Node8</title>
<path fill="none" stroke="midnightblue" d="M3070.74,-159.76C2775.66,-160.76 1472.16,-162.07 1070.5,-109 1062.85,-107.99 1054.95,-106.64 1047.07,-105.1"/>
<polygon fill="midnightblue" stroke="midnightblue" points="1047.63,-101.64 1037.13,-103.05 1046.22,-108.5 1047.63,-101.64"/>
</g>
<!-- Node9 -->
<g id="node9" class="node">
<title>Node9</title>
<g id="a_node9"><a xlink:title=" ">
<polygon fill="white" stroke="#bfbfbf" points="1079,-56.5 1079,-108.5 1260,-108.5 1260,-56.5 1079,-56.5"/>
<text text-anchor="start" x="1087" y="-96.5" font-family="Helvetica,sans-Serif" font-size="10.00">asm/JSystem/J2DGraph</text>
<text text-anchor="start" x="1087" y="-85.5" font-family="Helvetica,sans-Serif" font-size="10.00">/J2DScreen/setPriority</text>
<text text-anchor="start" x="1087" y="-74.5" font-family="Helvetica,sans-Serif" font-size="10.00">__9J2DScreenFP20JSURandomInput</text>
<text text-anchor="middle" x="1169.5" y="-63.5" font-family="Helvetica,sans-Serif" font-size="10.00">StreamUlP10JKRArchive.s</text>
</a>
</g>
</g>
<!-- Node1&#45;&gt;Node9 -->
<g id="edge9" class="edge">
<title>Node1&#45;&gt;Node9</title>
<path fill="none" stroke="midnightblue" d="M3070.62,-159.67C2795.44,-160.15 1649.82,-159.15 1270,-108.88"/>
<polygon fill="midnightblue" stroke="midnightblue" points="1270.46,-105.41 1260.08,-107.53 1269.51,-112.35 1270.46,-105.41"/>
</g>
<!-- Node10 -->
<g id="node10" class="node">
<title>Node10</title>
<g id="a_node10"><a xlink:title=" ">
<polygon fill="white" stroke="#bfbfbf" points="1278,-56.5 1278,-108.5 1459,-108.5 1459,-56.5 1278,-56.5"/>
<text text-anchor="start" x="1286" y="-96.5" font-family="Helvetica,sans-Serif" font-size="10.00">asm/JSystem/J2DGraph</text>
<text text-anchor="start" x="1286" y="-85.5" font-family="Helvetica,sans-Serif" font-size="10.00">/J2DScreen/private_set</text>
<text text-anchor="start" x="1286" y="-74.5" font-family="Helvetica,sans-Serif" font-size="10.00">__9J2DScreenFP20JSURandomInput</text>
<text text-anchor="middle" x="1368.5" y="-63.5" font-family="Helvetica,sans-Serif" font-size="10.00">StreamUlP10JKRArchive.s</text>
</a>
</g>
</g>
<!-- Node1&#45;&gt;Node10 -->
<g id="edge10" class="edge">
<title>Node1&#45;&gt;Node10</title>
<path fill="none" stroke="midnightblue" d="M3070.66,-159.44C2814.39,-158.91 1807.66,-154.02 1469.14,-108.9"/>
<polygon fill="midnightblue" stroke="midnightblue" points="1469.46,-105.41 1459.08,-107.52 1468.51,-112.35 1469.46,-105.41"/>
</g>
<!-- Node11 -->
<g id="node11" class="node">
<title>Node11</title>
<g id="a_node11"><a xlink:title=" ">
<polygon fill="white" stroke="#bfbfbf" points="1477.5,-62 1477.5,-103 1697.5,-103 1697.5,-62 1477.5,-62"/>
<text text-anchor="start" x="1485.5" y="-91" font-family="Helvetica,sans-Serif" font-size="10.00">asm/JSystem/J2DGraph</text>
<text text-anchor="start" x="1485.5" y="-80" font-family="Helvetica,sans-Serif" font-size="10.00">/J2DScreen/checkSignature</text>
<text text-anchor="middle" x="1587.5" y="-69" font-family="Helvetica,sans-Serif" font-size="10.00">__9J2DScreenFP20JSURandomInputStream.s</text>
</a>
</g>
</g>
<!-- Node1&#45;&gt;Node11 -->
<g id="edge11" class="edge">
<title>Node1&#45;&gt;Node11</title>
<path fill="none" stroke="midnightblue" d="M3070.76,-158.78C2836.06,-155.74 1976.86,-142.5 1706.5,-109 1697.65,-107.9 1688.47,-106.47 1679.33,-104.85"/>
<polygon fill="midnightblue" stroke="midnightblue" points="1679.91,-101.4 1669.44,-103.02 1678.64,-108.28 1679.91,-101.4"/>
</g>
<!-- Node12 -->
<g id="node12" class="node">
<title>Node12</title>
<g id="a_node12"><a xlink:title=" ">
<polygon fill="white" stroke="#bfbfbf" points="1715.5,-62 1715.5,-103 1935.5,-103 1935.5,-62 1715.5,-62"/>
<text text-anchor="start" x="1723.5" y="-91" font-family="Helvetica,sans-Serif" font-size="10.00">asm/JSystem/J2DGraph</text>
<text text-anchor="start" x="1723.5" y="-80" font-family="Helvetica,sans-Serif" font-size="10.00">/J2DScreen/getScreenInformation</text>
<text text-anchor="middle" x="1825.5" y="-69" font-family="Helvetica,sans-Serif" font-size="10.00">__9J2DScreenFP20JSURandomInputStream.s</text>
</a>
</g>
</g>
<!-- Node1&#45;&gt;Node12 -->
<g id="edge12" class="edge">
<title>Node1&#45;&gt;Node12</title>
<path fill="none" stroke="midnightblue" d="M3070.73,-158.27C2862.07,-153.78 2166.76,-137.03 1945.5,-109 1936.66,-107.88 1927.49,-106.44 1918.36,-104.83"/>
<polygon fill="midnightblue" stroke="midnightblue" points="1918.94,-101.37 1908.47,-103.01 1917.67,-108.26 1918.94,-101.37"/>
</g>
<!-- Node13 -->
<g id="node13" class="node">
<title>Node13</title>
<g id="a_node13"><a xlink:title=" ">
<polygon fill="white" stroke="#bfbfbf" points="1954,-56.5 1954,-108.5 2165,-108.5 2165,-56.5 1954,-56.5"/>
<text text-anchor="start" x="1962" y="-96.5" font-family="Helvetica,sans-Serif" font-size="10.00">asm/JSystem/J2DGraph</text>
<text text-anchor="start" x="1962" y="-85.5" font-family="Helvetica,sans-Serif" font-size="10.00">/J2DScreen/makeHierarchyPanes</text>
<text text-anchor="start" x="1962" y="-74.5" font-family="Helvetica,sans-Serif" font-size="10.00">__9J2DScreenFP7J2DPaneP20JSURandom</text>
<text text-anchor="middle" x="2059.5" y="-63.5" font-family="Helvetica,sans-Serif" font-size="10.00">InputStreamUlP10JKRArchive.s</text>
</a>
</g>
</g>
<!-- Node1&#45;&gt;Node13 -->
<g id="edge13" class="edge">
<title>Node1&#45;&gt;Node13</title>
<path fill="none" stroke="midnightblue" d="M3070.89,-159.77C2921.52,-159.7 2519.23,-155 2175.43,-109.02"/>
<polygon fill="midnightblue" stroke="midnightblue" points="2175.66,-105.52 2165.28,-107.65 2174.72,-112.45 2175.66,-105.52"/>
</g>
<!-- Node14 -->
<g id="node14" class="node">
<title>Node14</title>
<g id="a_node14"><a xlink:title=" ">
<polygon fill="white" stroke="#bfbfbf" points="2183.5,-67.5 2183.5,-97.5 2329.5,-97.5 2329.5,-67.5 2183.5,-67.5"/>
<text text-anchor="start" x="2191.5" y="-85.5" font-family="Helvetica,sans-Serif" font-size="10.00">asm/JSystem/J2DGraph</text>
<text text-anchor="middle" x="2256.5" y="-74.5" font-family="Helvetica,sans-Serif" font-size="10.00">/J2DScreen/func_802F8B98.s</text>
</a>
</g>
</g>
<!-- Node1&#45;&gt;Node14 -->
<g id="edge14" class="edge">
<title>Node1&#45;&gt;Node14</title>
<path fill="none" stroke="midnightblue" d="M3070.92,-157.5C2911.87,-151.89 2479.85,-134.67 2339.5,-109 2328.26,-106.94 2316.4,-103.87 2305.27,-100.56"/>
<polygon fill="midnightblue" stroke="midnightblue" points="2306.3,-97.22 2295.72,-97.61 2304.24,-103.91 2306.3,-97.22"/>
</g>
<!-- Node15 -->
<g id="node15" class="node">
<title>Node15</title>
<g id="a_node15"><a xlink:title=" ">
<polygon fill="white" stroke="#bfbfbf" points="2348,-62 2348,-103 2503,-103 2503,-62 2348,-62"/>
<text text-anchor="start" x="2356" y="-91" font-family="Helvetica,sans-Serif" font-size="10.00">asm/JSystem/J2DGraph</text>
<text text-anchor="start" x="2356" y="-80" font-family="Helvetica,sans-Serif" font-size="10.00">/J2DScreen/draw__9J2DScreen</text>
<text text-anchor="middle" x="2425.5" y="-69" font-family="Helvetica,sans-Serif" font-size="10.00">FffPC14J2DGrafContext.s</text>
</a>
</g>
</g>
<!-- Node1&#45;&gt;Node15 -->
<g id="edge15" class="edge">
<title>Node1&#45;&gt;Node15</title>
<path fill="none" stroke="midnightblue" d="M3070.74,-158.65C2959.82,-156.17 2714.93,-146.53 2512.5,-109 2507.18,-108.01 2501.72,-106.83 2496.25,-105.53"/>
<polygon fill="midnightblue" stroke="midnightblue" points="2496.99,-102.1 2486.44,-103.06 2495.28,-108.89 2496.99,-102.1"/>
</g>
<!-- Node16 -->
<g id="node16" class="node">
<title>Node16</title>
<g id="a_node16"><a xlink:title=" ">
<polygon fill="white" stroke="#bfbfbf" points="2521.5,-62 2521.5,-103 2685.5,-103 2685.5,-62 2521.5,-62"/>
<text text-anchor="start" x="2529.5" y="-91" font-family="Helvetica,sans-Serif" font-size="10.00">asm/JSystem/J2DGraph</text>
<text text-anchor="start" x="2529.5" y="-80" font-family="Helvetica,sans-Serif" font-size="10.00">/J2DScreen/search__9J2DScreen</text>
<text text-anchor="middle" x="2603.5" y="-69" font-family="Helvetica,sans-Serif" font-size="10.00">FUx.s</text>
</a>
</g>
</g>
<!-- Node1&#45;&gt;Node16 -->
<g id="edge16" class="edge">
<title>Node1&#45;&gt;Node16</title>
<path fill="none" stroke="midnightblue" d="M3070.95,-155.52C2986.74,-149.23 2828.32,-134.95 2695.5,-109 2690.16,-107.96 2684.68,-106.76 2679.18,-105.47"/>
<polygon fill="midnightblue" stroke="midnightblue" points="2679.83,-102.03 2669.29,-103.06 2678.18,-108.83 2679.83,-102.03"/>
</g>
<!-- Node17 -->
<g id="node17" class="node">
<title>Node17</title>
<g id="a_node17"><a xlink:title=" ">
<polygon fill="white" stroke="#bfbfbf" points="2704,-62 2704,-103 2841,-103 2841,-62 2704,-62"/>
<text text-anchor="start" x="2712" y="-91" font-family="Helvetica,sans-Serif" font-size="10.00">asm/JSystem/J2DGraph</text>
<text text-anchor="start" x="2712" y="-80" font-family="Helvetica,sans-Serif" font-size="10.00">/J2DScreen/searchUserInfo</text>
<text text-anchor="middle" x="2772.5" y="-69" font-family="Helvetica,sans-Serif" font-size="10.00">__9J2DScreenFUx.s</text>
</a>
</g>
</g>
<!-- Node1&#45;&gt;Node17 -->
<g id="edge17" class="edge">
<title>Node1&#45;&gt;Node17</title>
<path fill="none" stroke="midnightblue" d="M3071,-151.2C3013.97,-142.67 2925.69,-127.98 2850.5,-109 2846.72,-108.05 2842.86,-107.01 2838.98,-105.91"/>
<polygon fill="midnightblue" stroke="midnightblue" points="2839.9,-102.53 2829.32,-103.08 2837.93,-109.25 2839.9,-102.53"/>
</g>
<!-- Node18 -->
<g id="node18" class="node">
<title>Node18</title>
<g id="a_node18"><a xlink:title=" ">
<polygon fill="white" stroke="#bfbfbf" points="2859.5,-62 2859.5,-103 2997.5,-103 2997.5,-62 2859.5,-62"/>
<text text-anchor="start" x="2867.5" y="-91" font-family="Helvetica,sans-Serif" font-size="10.00">asm/JSystem/J2DGraph</text>
<text text-anchor="start" x="2867.5" y="-80" font-family="Helvetica,sans-Serif" font-size="10.00">/J2DScreen/drawSelf_</text>
<text text-anchor="middle" x="2928.5" y="-69" font-family="Helvetica,sans-Serif" font-size="10.00">_9J2DScreenFffPA3_A4_f.s</text>
</a>
</g>
</g>
<!-- Node1&#45;&gt;Node18 -->
<g id="edge18" class="edge">
<title>Node1&#45;&gt;Node18</title>
<path fill="none" stroke="midnightblue" d="M3092.98,-145.38C3064.21,-134.56 3023.9,-119.39 2990.38,-106.78"/>
<polygon fill="midnightblue" stroke="midnightblue" points="2991.26,-103.37 2980.67,-103.13 2988.8,-109.93 2991.26,-103.37"/>
</g>
<!-- Node19 -->
<g id="node19" class="node">
<title>Node19</title>
<g id="a_node19"><a xlink:title=" ">
<polygon fill="white" stroke="#bfbfbf" points="3015.5,-62 3015.5,-103 3245.5,-103 3245.5,-62 3015.5,-62"/>
<text text-anchor="start" x="3023.5" y="-91" font-family="Helvetica,sans-Serif" font-size="10.00">asm/JSystem/J2DGraph</text>
<text text-anchor="start" x="3023.5" y="-80" font-family="Helvetica,sans-Serif" font-size="10.00">/J2DScreen/getResReference</text>
<text text-anchor="middle" x="3130.5" y="-69" font-family="Helvetica,sans-Serif" font-size="10.00">__9J2DScreenFP20JSURandomInputStreamUl.s</text>
</a>
</g>
</g>
<!-- Node1&#45;&gt;Node19 -->
<g id="edge19" class="edge">
<title>Node1&#45;&gt;Node19</title>
<path fill="none" stroke="midnightblue" d="M3130.5,-145.2C3130.5,-136.21 3130.5,-124.27 3130.5,-113.29"/>
<polygon fill="midnightblue" stroke="midnightblue" points="3134,-113.18 3130.5,-103.18 3127,-113.18 3134,-113.18"/>
</g>
<!-- Node20 -->
<g id="node20" class="node">
<title>Node20</title>
<g id="a_node20"><a xlink:title=" ">
<polygon fill="white" stroke="#bfbfbf" points="3263.5,-56.5 3263.5,-108.5 3475.5,-108.5 3475.5,-56.5 3263.5,-56.5"/>
<text text-anchor="start" x="3271.5" y="-96.5" font-family="Helvetica,sans-Serif" font-size="10.00">asm/JSystem/J2DGraph</text>
<text text-anchor="start" x="3271.5" y="-85.5" font-family="Helvetica,sans-Serif" font-size="10.00">/J2DScreen/createMaterial</text>
<text text-anchor="start" x="3271.5" y="-74.5" font-family="Helvetica,sans-Serif" font-size="10.00">__9J2DScreenFP20JSURandomInputStream</text>
<text text-anchor="middle" x="3369.5" y="-63.5" font-family="Helvetica,sans-Serif" font-size="10.00">UlP10JKRArchive.s</text>
</a>
</g>
</g>
<!-- Node1&#45;&gt;Node20 -->
<g id="edge20" class="edge">
<title>Node1&#45;&gt;Node20</title>
<path fill="none" stroke="midnightblue" d="M3174.61,-145.47C3204.45,-135.98 3244.89,-123.12 3281.2,-111.58"/>
<polygon fill="midnightblue" stroke="midnightblue" points="3282.35,-114.88 3290.82,-108.52 3280.23,-108.21 3282.35,-114.88"/>
</g>
<!-- Node21 -->
<g id="node21" class="node">
<title>Node21</title>
<g id="a_node21"><a xlink:title=" ">
<polygon fill="white" stroke="#bfbfbf" points="3494,-62 3494,-103 3659,-103 3659,-62 3494,-62"/>
<text text-anchor="start" x="3502" y="-91" font-family="Helvetica,sans-Serif" font-size="10.00">asm/JSystem/J2DGraph</text>
<text text-anchor="start" x="3502" y="-80" font-family="Helvetica,sans-Serif" font-size="10.00">/J2DScreen/isUsed__9J2DScreen</text>
<text text-anchor="middle" x="3576.5" y="-69" font-family="Helvetica,sans-Serif" font-size="10.00">FPC7ResTIMG.s</text>
</a>
</g>
</g>
<!-- Node1&#45;&gt;Node21 -->
<g id="edge21" class="edge">
<title>Node1&#45;&gt;Node21</title>
<path fill="none" stroke="midnightblue" d="M3190.1,-153.37C3260.78,-145.55 3381.95,-130.43 3484.5,-109 3489.54,-107.95 3494.72,-106.77 3499.91,-105.52"/>
<polygon fill="midnightblue" stroke="midnightblue" points="3501.05,-108.85 3509.92,-103.04 3499.37,-102.05 3501.05,-108.85"/>
</g>
<!-- Node22 -->
<g id="node22" class="node">
<title>Node22</title>
<g id="a_node22"><a xlink:title=" ">
<polygon fill="white" stroke="#bfbfbf" points="3677,-62 3677,-103 3842,-103 3842,-62 3677,-62"/>
<text text-anchor="start" x="3685" y="-91" font-family="Helvetica,sans-Serif" font-size="10.00">asm/JSystem/J2DGraph</text>
<text text-anchor="start" x="3685" y="-80" font-family="Helvetica,sans-Serif" font-size="10.00">/J2DScreen/isUsed__9J2DScreen</text>
<text text-anchor="middle" x="3759.5" y="-69" font-family="Helvetica,sans-Serif" font-size="10.00">FPC7ResFONT.s</text>
</a>
</g>
</g>
<!-- Node1&#45;&gt;Node22 -->
<g id="edge22" class="edge">
<title>Node1&#45;&gt;Node22</title>
<path fill="none" stroke="midnightblue" d="M3190.29,-157.39C3290.11,-153.09 3496.7,-140.87 3668.5,-109 3673.94,-107.99 3679.54,-106.8 3685.14,-105.5"/>
<polygon fill="midnightblue" stroke="midnightblue" points="3686.32,-108.82 3695.21,-103.06 3684.67,-102.02 3686.32,-108.82"/>
</g>
<!-- Node23 -->
<g id="node23" class="node">
<title>Node23</title>
<g id="a_node23"><a xlink:title=" ">
<polygon fill="white" stroke="#bfbfbf" points="3860.5,-62 3860.5,-103 4012.5,-103 4012.5,-62 3860.5,-62"/>
<text text-anchor="start" x="3868.5" y="-91" font-family="Helvetica,sans-Serif" font-size="10.00">asm/JSystem/J2DGraph</text>
<text text-anchor="start" x="3868.5" y="-80" font-family="Helvetica,sans-Serif" font-size="10.00">/J2DScreen/getNameResource</text>
<text text-anchor="middle" x="3936.5" y="-69" font-family="Helvetica,sans-Serif" font-size="10.00">__9J2DScreenFPCc.s</text>
</a>
</g>
</g>
<!-- Node1&#45;&gt;Node23 -->
<g id="edge23" class="edge">
<title>Node1&#45;&gt;Node23</title>
<path fill="none" stroke="midnightblue" d="M3190.41,-159.76C3314.7,-159.34 3609.25,-153.25 3851.5,-109 3856.8,-108.03 3862.25,-106.85 3867.69,-105.53"/>
<polygon fill="midnightblue" stroke="midnightblue" points="3868.64,-108.9 3877.46,-103.03 3866.91,-102.12 3868.64,-108.9"/>
</g>
<!-- Node24 -->
<g id="node24" class="node">
<title>Node24</title>
<g id="a_node24"><a xlink:title=" ">
<polygon fill="white" stroke="#bfbfbf" points="4031,-62 4031,-103 4154,-103 4154,-62 4031,-62"/>
<text text-anchor="start" x="4039" y="-91" font-family="Helvetica,sans-Serif" font-size="10.00">asm/JSystem/J2DGraph</text>
<text text-anchor="start" x="4039" y="-80" font-family="Helvetica,sans-Serif" font-size="10.00">/J2DScreen/animation</text>
<text text-anchor="middle" x="4092.5" y="-69" font-family="Helvetica,sans-Serif" font-size="10.00">__9J2DScreenFv.s</text>
</a>
</g>
</g>
<!-- Node1&#45;&gt;Node24 -->
<g id="edge24" class="edge">
<title>Node1&#45;&gt;Node24</title>
<path fill="none" stroke="midnightblue" d="M3190.1,-158.36C3362.87,-154.69 3861.8,-141.49 4021.5,-109 4025.62,-108.16 4029.81,-107.14 4034.01,-105.98"/>
<polygon fill="midnightblue" stroke="midnightblue" points="4035.17,-109.28 4043.75,-103.07 4033.17,-102.58 4035.17,-109.28"/>
</g>
<!-- Node25 -->
<g id="node25" class="node">
<title>Node25</title>
<g id="a_node25"><a xlink:title=" ">
<polygon fill="white" stroke="#bfbfbf" points="4172,-62 4172,-103 4343,-103 4343,-62 4172,-62"/>
<text text-anchor="start" x="4180" y="-91" font-family="Helvetica,sans-Serif" font-size="10.00">asm/JSystem/J2DGraph</text>
<text text-anchor="start" x="4180" y="-80" font-family="Helvetica,sans-Serif" font-size="10.00">/J2DScreen/setAnimation</text>
<text text-anchor="middle" x="4257.5" y="-69" font-family="Helvetica,sans-Serif" font-size="10.00">__9J2DScreenFP11J2DAnmColor.s</text>
</a>
</g>
</g>
<!-- Node1&#45;&gt;Node25 -->
<g id="edge25" class="edge">
<title>Node1&#45;&gt;Node25</title>
<path fill="none" stroke="midnightblue" d="M3190.13,-158.28C3380.77,-154.1 3973.96,-138.98 4163.5,-109 4169.75,-108.01 4176.18,-106.77 4182.6,-105.36"/>
<polygon fill="midnightblue" stroke="midnightblue" points="4183.71,-108.7 4192.66,-103.04 4182.13,-101.88 4183.71,-108.7"/>
</g>
<!-- Node26 -->
<g id="node26" class="node">
<title>Node26</title>
<g id="a_node26"><a xlink:title=" ">
<polygon fill="white" stroke="#bfbfbf" points="4361,-62 4361,-103 4578,-103 4578,-62 4361,-62"/>
<text text-anchor="start" x="4369" y="-91" font-family="Helvetica,sans-Serif" font-size="10.00">asm/JSystem/J2DGraph</text>
<text text-anchor="start" x="4369" y="-80" font-family="Helvetica,sans-Serif" font-size="10.00">/J2DScreen/setAnimation</text>
<text text-anchor="middle" x="4469.5" y="-69" font-family="Helvetica,sans-Serif" font-size="10.00">__9J2DScreenFP19J2DAnmTextureSRTKey.s</text>
</a>
</g>
</g>
<!-- Node1&#45;&gt;Node26 -->
<g id="edge26" class="edge">
<title>Node1&#45;&gt;Node26</title>
<path fill="none" stroke="midnightblue" d="M3190.3,-158.4C3403.19,-154.28 4123.74,-138.43 4352.5,-109 4361.04,-107.9 4369.88,-106.49 4378.7,-104.9"/>
<polygon fill="midnightblue" stroke="midnightblue" points="4379.44,-108.32 4388.62,-103.03 4378.15,-101.44 4379.44,-108.32"/>
</g>
<!-- Node27 -->
<g id="node27" class="node">
<title>Node27</title>
<g id="a_node27"><a xlink:title=" ">
<polygon fill="white" stroke="#bfbfbf" points="4596.5,-62 4596.5,-103 4792.5,-103 4792.5,-62 4596.5,-62"/>
<text text-anchor="start" x="4604.5" y="-91" font-family="Helvetica,sans-Serif" font-size="10.00">asm/JSystem/J2DGraph</text>
<text text-anchor="start" x="4604.5" y="-80" font-family="Helvetica,sans-Serif" font-size="10.00">/J2DScreen/setAnimation</text>
<text text-anchor="middle" x="4694.5" y="-69" font-family="Helvetica,sans-Serif" font-size="10.00">__9J2DScreenFP16J2DAnmTexPattern.s</text>
</a>
</g>
</g>
<!-- Node1&#45;&gt;Node27 -->
<g id="edge27" class="edge">
<title>Node1&#45;&gt;Node27</title>
<path fill="none" stroke="midnightblue" d="M3190.02,-159.02C3427.88,-156.85 4310.65,-146.41 4587.5,-109 4595.22,-107.96 4603.19,-106.6 4611.14,-105.05"/>
<polygon fill="midnightblue" stroke="midnightblue" points="4612.09,-108.43 4621.19,-103 4610.69,-101.57 4612.09,-108.43"/>
</g>
<!-- Node28 -->
<g id="node28" class="node">
<title>Node28</title>
<g id="a_node28"><a xlink:title=" ">
<polygon fill="white" stroke="#bfbfbf" points="4811,-62 4811,-103 5010,-103 5010,-62 4811,-62"/>
<text text-anchor="start" x="4819" y="-91" font-family="Helvetica,sans-Serif" font-size="10.00">asm/JSystem/J2DGraph</text>
<text text-anchor="start" x="4819" y="-80" font-family="Helvetica,sans-Serif" font-size="10.00">/J2DScreen/setAnimation</text>
<text text-anchor="middle" x="4910.5" y="-69" font-family="Helvetica,sans-Serif" font-size="10.00">__9J2DScreenFP15J2DAnmTevRegKey.s</text>
</a>
</g>
</g>
<!-- Node1&#45;&gt;Node28 -->
<g id="edge28" class="edge">
<title>Node1&#45;&gt;Node28</title>
<path fill="none" stroke="midnightblue" d="M3190.21,-159.29C3449.66,-158.14 4480.44,-150.98 4801.5,-109 4809.45,-107.96 4817.66,-106.6 4825.85,-105.03"/>
<polygon fill="midnightblue" stroke="midnightblue" points="4826.69,-108.44 4835.81,-103.04 4825.32,-101.57 4826.69,-108.44"/>
</g>
<!-- Node29 -->
<g id="node29" class="node">
<title>Node29</title>
<g id="a_node29"><a xlink:title=" ">
<polygon fill="white" stroke="#bfbfbf" points="5028,-62 5028,-103 5213,-103 5213,-62 5028,-62"/>
<text text-anchor="start" x="5036" y="-91" font-family="Helvetica,sans-Serif" font-size="10.00">asm/JSystem/J2DGraph</text>
<text text-anchor="start" x="5036" y="-80" font-family="Helvetica,sans-Serif" font-size="10.00">/J2DScreen/setAnimation</text>
<text text-anchor="middle" x="5120.5" y="-69" font-family="Helvetica,sans-Serif" font-size="10.00">__9J2DScreenFP14J2DAnmVtxColor.s</text>
</a>
</g>
</g>
<!-- Node1&#45;&gt;Node29 -->
<g id="edge29" class="edge">
<title>Node1&#45;&gt;Node29</title>
<path fill="none" stroke="midnightblue" d="M3190.34,-159.67C3470.43,-160.22 4653.68,-159.44 5019.5,-109 5026.79,-108 5034.31,-106.67 5041.81,-105.14"/>
<polygon fill="midnightblue" stroke="midnightblue" points="5042.58,-108.55 5051.63,-103.03 5041.11,-101.71 5042.58,-108.55"/>
</g>
<!-- Node30 -->
<g id="node30" class="node">
<title>Node30</title>
<g id="a_node30"><a xlink:title=" ">
<polygon fill="white" stroke="#bfbfbf" points="5231,-56.5 5231,-108.5 5408,-108.5 5408,-56.5 5231,-56.5"/>
<text text-anchor="start" x="5239" y="-96.5" font-family="Helvetica,sans-Serif" font-size="10.00">asm/JSystem/J2DGraph</text>
<text text-anchor="start" x="5239" y="-85.5" font-family="Helvetica,sans-Serif" font-size="10.00">/J2DScreen/setAnimation</text>
<text text-anchor="start" x="5239" y="-74.5" font-family="Helvetica,sans-Serif" font-size="10.00">__9J2DScreenFP20J2DAnmVisibility</text>
<text text-anchor="middle" x="5319.5" y="-63.5" font-family="Helvetica,sans-Serif" font-size="10.00">Full.s</text>
</a>
</g>
</g>
<!-- Node1&#45;&gt;Node30 -->
<g id="edge30" class="edge">
<title>Node1&#45;&gt;Node30</title>
<path fill="none" stroke="midnightblue" d="M3190.1,-158.89C3505.33,-155.55 4973.01,-138.61 5220.64,-109.01"/>
<polygon fill="midnightblue" stroke="midnightblue" points="5221.4,-112.44 5230.86,-107.68 5220.5,-105.5 5221.4,-112.44"/>
</g>
<!-- Node31 -->
<g id="node31" class="node">
<title>Node31</title>
<g id="a_node31"><a xlink:title=" ">
<polygon fill="white" stroke="#bfbfbf" points="5426,-56.5 5426,-108.5 5669,-108.5 5669,-56.5 5426,-56.5"/>
<text text-anchor="start" x="5434" y="-96.5" font-family="Helvetica,sans-Serif" font-size="10.00">asm/JSystem/J2DGraph</text>
<text text-anchor="start" x="5434" y="-85.5" font-family="Helvetica,sans-Serif" font-size="10.00">/J2DScreen/createPane</text>
<text text-anchor="start" x="5434" y="-74.5" font-family="Helvetica,sans-Serif" font-size="10.00">__9J2DScreenFRC18J2DScrnBlock</text>
<text text-anchor="middle" x="5547.5" y="-63.5" font-family="Helvetica,sans-Serif" font-size="10.00">HeaderP20JSURandomInputStreamP7J2DPaneUl.s</text>
</a>
</g>
</g>
<!-- Node1&#45;&gt;Node31 -->
<g id="edge31" class="edge">
<title>Node1&#45;&gt;Node31</title>
<path fill="none" stroke="midnightblue" d="M3190.18,-159.57C3501.86,-159.72 4945.89,-157.79 5415.57,-109.11"/>
<polygon fill="midnightblue" stroke="midnightblue" points="5416.23,-112.56 5425.81,-108.03 5415.49,-105.6 5416.23,-112.56"/>
</g>
<!-- Node32 -->
<g id="node32" class="node">
<title>Node32</title>
<g id="a_node32"><a xlink:title=" ">
<polygon fill="white" stroke="#bfbfbf" points="5687,-62 5687,-103 5810,-103 5810,-62 5687,-62"/>
<text text-anchor="start" x="5695" y="-91" font-family="Helvetica,sans-Serif" font-size="10.00">asm/JSystem/J2DGraph</text>
<text text-anchor="start" x="5695" y="-80" font-family="Helvetica,sans-Serif" font-size="10.00">/J2DScreen/getTypeID</text>
<text text-anchor="middle" x="5748.5" y="-69" font-family="Helvetica,sans-Serif" font-size="10.00">__9J2DScreenCFv.s</text>
</a>
</g>
</g>
<!-- Node1&#45;&gt;Node32 -->
<g id="edge32" class="edge">
<title>Node1&#45;&gt;Node32</title>
<path fill="none" stroke="midnightblue" d="M3190,-159.49C3549.73,-159.29 5426.99,-155.96 5678.5,-109 5682.84,-108.19 5687.26,-107.14 5691.67,-105.94"/>
<polygon fill="midnightblue" stroke="midnightblue" points="5692.69,-109.29 5701.27,-103.07 5690.68,-102.58 5692.69,-109.29"/>
</g>
<!-- Node33 -->
<g id="node33" class="node">
<title>Node33</title>
<g id="a_node33"><a xlink:title=" ">
<polygon fill="white" stroke="#bfbfbf" points="5828,-67.5 5828,-97.5 6015,-97.5 6015,-67.5 5828,-67.5"/>
<text text-anchor="start" x="5836" y="-85.5" font-family="Helvetica,sans-Serif" font-size="10.00">asm/JSystem/J2DGraph</text>
<text text-anchor="middle" x="5921.5" y="-74.5" font-family="Helvetica,sans-Serif" font-size="10.00">/J2DScreen/calcMtx__9J2DScreenFv.s</text>
</a>
</g>
</g>
<!-- Node1&#45;&gt;Node33 -->
<g id="edge33" class="edge">
<title>Node1&#45;&gt;Node33</title>
<path fill="none" stroke="midnightblue" d="M3190.19,-159.19C3561.79,-157.15 5551.11,-144.6 5819.5,-109 5834.35,-107.03 5850.16,-103.7 5864.79,-100.09"/>
<polygon fill="midnightblue" stroke="midnightblue" points="5865.88,-103.42 5874.7,-97.56 5864.15,-96.64 5865.88,-103.42"/>
</g>
<!-- Node34 -->
<g id="node34" class="node">
<title>Node34</title>
<g id="a_node34"><a xlink:title=" ">
<polygon fill="white" stroke="#bfbfbf" points="6033,-62 6033,-103 6204,-103 6204,-62 6033,-62"/>
<text text-anchor="start" x="6041" y="-91" font-family="Helvetica,sans-Serif" font-size="10.00">asm/JSystem/J2DGraph</text>
<text text-anchor="start" x="6041" y="-80" font-family="Helvetica,sans-Serif" font-size="10.00">/J2DScreen/setAnimation</text>
<text text-anchor="middle" x="6118.5" y="-69" font-family="Helvetica,sans-Serif" font-size="10.00">__9J2DScreenFP10J2DAnmBase.s</text>
</a>
</g>
</g>
<!-- Node1&#45;&gt;Node34 -->
<g id="edge34" class="edge">
<title>Node1&#45;&gt;Node34</title>
<path fill="none" stroke="midnightblue" d="M3190.3,-159.35C3578.56,-158.22 5734.93,-150.15 6024.5,-109 6031.19,-108.05 6038.09,-106.77 6044.96,-105.3"/>
<polygon fill="midnightblue" stroke="midnightblue" points="6046.01,-108.65 6054.98,-103.01 6044.45,-101.82 6046.01,-108.65"/>
</g>
<!-- Node35 -->
<g id="node35" class="node">
<title>Node35</title>
<g id="a_node35"><a xlink:title=" ">
<polygon fill="white" stroke="#bfbfbf" points="6222,-56.5 6222,-108.5 6399,-108.5 6399,-56.5 6222,-56.5"/>
<text text-anchor="start" x="6230" y="-96.5" font-family="Helvetica,sans-Serif" font-size="10.00">asm/JSystem/J2DGraph</text>
<text text-anchor="start" x="6230" y="-85.5" font-family="Helvetica,sans-Serif" font-size="10.00">/J2DScreen/setAnimationVF</text>
<text text-anchor="start" x="6230" y="-74.5" font-family="Helvetica,sans-Serif" font-size="10.00">__9J2DScreenFP20J2DAnmVisibility</text>
<text text-anchor="middle" x="6310.5" y="-63.5" font-family="Helvetica,sans-Serif" font-size="10.00">Full.s</text>
</a>
</g>
</g>
<!-- Node1&#45;&gt;Node35 -->
<g id="edge35" class="edge">
<title>Node1&#45;&gt;Node35</title>
<path fill="none" stroke="midnightblue" d="M3190.26,-159.39C3588.93,-158.51 5857.77,-151.74 6211.72,-109.02"/>
<polygon fill="midnightblue" stroke="midnightblue" points="6212.4,-112.46 6221.87,-107.71 6211.5,-105.52 6212.4,-112.46"/>
</g>
<!-- Node36 -->
<g id="node36" class="node">
<title>Node36</title>
<g id="a_node36"><a xlink:title=" ">
<polygon fill="white" stroke="#bfbfbf" points="6417,-62 6417,-103 6602,-103 6602,-62 6417,-62"/>
<text text-anchor="start" x="6425" y="-91" font-family="Helvetica,sans-Serif" font-size="10.00">asm/JSystem/J2DGraph</text>
<text text-anchor="start" x="6425" y="-80" font-family="Helvetica,sans-Serif" font-size="10.00">/J2DScreen/setAnimationVC</text>
<text text-anchor="middle" x="6509.5" y="-69" font-family="Helvetica,sans-Serif" font-size="10.00">__9J2DScreenFP14J2DAnmVtxColor.s</text>
</a>
</g>
</g>
<!-- Node1&#45;&gt;Node36 -->
<g id="edge36" class="edge">
<title>Node1&#45;&gt;Node36</title>
<path fill="none" stroke="midnightblue" d="M3190.31,-159.41C3607.69,-158.7 6078.05,-152.66 6408.5,-109 6415.92,-108.02 6423.58,-106.69 6431.2,-105.15"/>
<polygon fill="midnightblue" stroke="midnightblue" points="6432.14,-108.53 6441.19,-103.02 6430.68,-101.68 6432.14,-108.53"/>
</g>
<!-- Node4&#45;&gt;Node3 -->
<g id="edge4" class="edge">
<title>Node4&#45;&gt;Node3</title>
<path fill="none" stroke="midnightblue" d="M190.88,-72.86C182.3,-61.65 167.14,-41.87 156.29,-27.69"/>
<polygon fill="midnightblue" stroke="midnightblue" points="159.04,-25.53 150.18,-19.72 153.48,-29.78 159.04,-25.53"/>
</g>
</g>
</svg>
        <g id="navigator" transform="translate(0 0)" fill="#404254">
                <rect fill="#f2f5e9" fill-opacity="0.5" stroke="#606060" stroke-width=".5" x="0" y="0" width="60" height="60"/>
                <use id="zoomplus" xlink:href="#zoomPlus" x="17" y="9" onmousedown="handleZoom(evt,'in')"/>
                <use id="zoomminus" xlink:href="#zoomMin" x="42" y="9" onmousedown="handleZoom(evt,'out')"/>
                <use id="reset" xlink:href="#resetDef" x="30" y="36" onmousedown="handleReset()"/>
                <g id="arrowUp" xlink:href="#dirArrow" transform="translate(30 24)" onmousedown="handlePan(0,-1)">
                  <use xlink:href="#rim" fill="#404040">
                        <set attributeName="fill" to="#808080" begin="arrowUp.mouseover" end="arrowUp.mouseout"/>
                  </use>
                  <path fill="none" stroke="white" stroke-width="1.5" d="M0,-3.0v7 M-2.5,-0.5L0,-3.0L2.5,-0.5"/>
                </g>
                <g id="arrowRight" xlink:href="#dirArrow" transform="rotate(90) translate(36 -43)" onmousedown="handlePan(1,0)">
                  <use xlink:href="#rim" fill="#404040">
                        <set attributeName="fill" to="#808080" begin="arrowRight.mouseover" end="arrowRight.mouseout"/>
                  </use>
                  <path fill="none" stroke="white" stroke-width="1.5" d="M0,-3.0v7 M-2.5,-0.5L0,-3.0L2.5,-0.5"/>
                </g>
                <g id="arrowDown" xlink:href="#dirArrow" transform="rotate(180) translate(-30 -48)" onmousedown="handlePan(0,1)">
                  <use xlink:href="#rim" fill="#404040">
                        <set attributeName="fill" to="#808080" begin="arrowDown.mouseover" end="arrowDown.mouseout"/>
                  </use>
                  <path fill="none" stroke="white" stroke-width="1.5" d="M0,-3.0v7 M-2.5,-0.5L0,-3.0L2.5,-0.5"/>
                </g>
                <g id="arrowLeft" xlink:href="#dirArrow" transform="rotate(270) translate(-36 17)" onmousedown="handlePan(-1,0)">
                  <use xlink:href="#rim" fill="#404040">
                        <set attributeName="fill" to="#808080" begin="arrowLeft.mouseover" end="arrowLeft.mouseout"/>
                  </use>
                  <path fill="none" stroke="white" stroke-width="1.5" d="M0,-3.0v7 M-2.5,-0.5L0,-3.0L2.5,-0.5"/>
                </g>
        </g>
        <svg viewBox="0 0 15 15" width="100%" height="30px" preserveAspectRatio="xMaxYMin meet">
         <g id="arrow_out" transform="scale(0.3 0.3)">
          <a xlink:href="J2DScreen_8cpp__incl_org.svg" target="_base">
           <rect id="button" ry="5" rx="5" y="6" x="6" height="38" width="38"
                fill="#f2f5e9" fill-opacity="0.5" stroke="#606060" stroke-width="1.0"/>
           <path id="arrow"
             d="M 11.500037,31.436501 C 11.940474,20.09759 22.043105,11.32322 32.158766,21.979434 L 37.068811,17.246167 C 37.068811,17.246167 37.088388,32 37.088388,32 L 22.160133,31.978069 C 22.160133,31.978069 26.997745,27.140456 26.997745,27.140456 C 18.528582,18.264221 13.291696,25.230495 11.500037,31.436501 z"
             style="fill:#404040;"/>
          </a>
         </g>
        </svg>
</svg>
