<?xml version="1.0" encoding="UTF-8" standalone="no"?>
<!DOCTYPE svg PUBLIC "-//W3C//DTD SVG 1.1//EN"
 "http://www.w3.org/Graphics/SVG/1.1/DTD/svg11.dtd">
<!-- Generated by graphviz version 2.47.0 (20210316.2052)
 -->
<!-- Title: libs/JSystem/J2DGraph/J2DScreen.cpp Pages: 1 -->
<!--zoomable 184 -->
<svg id="main" version="1.1" xmlns="http://www.w3.org/2000/svg" xmlns:xlink="http://www.w3.org/1999/xlink" xml:space="preserve" onload="init(evt)">
<style type="text/css"><![CDATA[
.edge:hover path { stroke: red; }
.edge:hover polygon { stroke: red; fill: red; }
]]></style>
<script type="text/javascript"><![CDATA[
var edges = document.getElementsByTagName('g');
if (edges && edges.length) {
  for (var i=0;i<edges.length;i++) {
    if (edges[i].id.substr(0,4)=='edge') {
      edges[i].setAttribute('class','edge');
    }
  }
}
]]></script>
        <defs>
                <circle id="rim" cx="0" cy="0" r="7"/>
                <circle id="rim2" cx="0" cy="0" r="3.5"/>
                <g id="zoomPlus">
                        <use xlink:href="#rim" fill="#404040">
                                <set attributeName="fill" to="#808080" begin="zoomplus.mouseover" end="zoomplus.mouseout"/>
                        </use>
                        <path d="M-4,0h8M0,-4v8" fill="none" stroke="white" stroke-width="1.5" pointer-events="none"/>
                </g>
                <g id="zoomMin">
                        <use xlink:href="#rim" fill="#404040">
                                <set attributeName="fill" to="#808080" begin="zoomminus.mouseover" end="zoomminus.mouseout"/>
                        </use>
                        <path d="M-4,0h8" fill="none" stroke="white" stroke-width="1.5" pointer-events="none"/>
                </g>
                <g id="dirArrow">
                        <path fill="none" stroke="white" stroke-width="1.5" d="M0,-3.0v7 M-2.5,-0.5L0,-3.0L2.5,-0.5"/>
                </g>
               <g id="resetDef">
                       <use xlink:href="#rim2" fill="#404040">
                               <set attributeName="fill" to="#808080" begin="reset.mouseover" end="reset.mouseout"/>
                       </use>
               </g>
        </defs>

<script type="text/javascript">
var viewWidth = 6071;
var viewHeight = 184;
var sectionId = 'dynsection-0';
</script>
<script xlink:href="svgpan.js"/>
<svg id="graph" class="graph">
<g id="viewport">
<title>libs/JSystem/J2DGraph/J2DScreen.cpp</title>
<polygon fill="white" stroke="transparent" points="-4,4 -4,-180 6067,-180 6067,4 -4,4"/>
<!-- Node1 -->
<g id="node1" class="node">
<title>Node1</title>
<g id="a_node1"><a xlink:title=" ">
<polygon fill="#bfbfbf" stroke="black" points="2791,-145.5 2791,-175.5 2910,-175.5 2910,-145.5 2791,-145.5"/>
<text text-anchor="start" x="2799" y="-163.5" font-family="Helvetica,sans-Serif" font-size="10.00">libs/JSystem/J2DGraph</text>
<text text-anchor="middle" x="2850.5" y="-152.5" font-family="Helvetica,sans-Serif" font-size="10.00">/J2DScreen.cpp</text>
</a>
</g>
</g>
<!-- Node2 -->
<g id="node2" class="node">
<title>Node2</title>
<g id="a_node2"><a xlink:href="dol2asm_8h.html" target="_top" xlink:title=" ">
<polygon fill="white" stroke="black" points="0,-73 0,-92 61,-92 61,-73 0,-73"/>
<text text-anchor="middle" x="30.5" y="-80" font-family="Helvetica,sans-Serif" font-size="10.00">dol2asm.h</text>
</a>
</g>
</g>
<!-- Node1&#45;&gt;Node2 -->
<g id="edge1" class="edge">
<title>Node1&#45;&gt;Node2</title>
<path fill="none" stroke="midnightblue" d="M2790.92,-159.25C2399.77,-157.49 210.91,-146.02 75.5,-109 66.85,-106.64 58.1,-102.24 50.65,-97.75"/>
<polygon fill="midnightblue" stroke="midnightblue" points="52.31,-94.65 42.01,-92.17 48.51,-100.53 52.31,-94.65"/>
</g>
<!-- Node3 -->
<g id="node3" class="node">
<title>Node3</title>
<g id="a_node3"><a xlink:href="types_8h.html" target="_top" xlink:title=" ">
<polygon fill="white" stroke="black" points="103,-0.5 103,-19.5 184,-19.5 184,-0.5 103,-0.5"/>
<text text-anchor="middle" x="143.5" y="-7.5" font-family="Helvetica,sans-Serif" font-size="10.00">dolphin/types.h</text>
</a>
</g>
</g>
<!-- Node1&#45;&gt;Node3 -->
<g id="edge2" class="edge">
<title>Node1&#45;&gt;Node3</title>
<path fill="none" stroke="midnightblue" d="M2790.86,-159.55C2394.65,-159.73 157.14,-158.54 108.5,-109 92,-92.19 100.86,-78.28 108.5,-56 112.22,-45.16 119.73,-34.92 126.85,-26.96"/>
<polygon fill="midnightblue" stroke="midnightblue" points="129.55,-29.19 133.94,-19.55 124.5,-24.35 129.55,-29.19"/>
</g>
<!-- Node4 -->
<g id="node4" class="node">
<title>Node4</title>
<g id="a_node4"><a xlink:href="J2DScreen_8h.html" target="_top" xlink:title=" ">
<polygon fill="white" stroke="black" points="117.5,-73 117.5,-92 277.5,-92 277.5,-73 117.5,-73"/>
<text text-anchor="middle" x="197.5" y="-80" font-family="Helvetica,sans-Serif" font-size="10.00">JSystem/J2DGraph/J2DScreen.h</text>
</a>
</g>
</g>
<!-- Node1&#45;&gt;Node4 -->
<g id="edge3" class="edge">
<title>Node1&#45;&gt;Node4</title>
<path fill="none" stroke="midnightblue" d="M2790.96,-159.25C2429.95,-157.62 541.17,-147.32 286.5,-109 267.68,-106.17 247.22,-100.5 230.68,-95.22"/>
<polygon fill="midnightblue" stroke="midnightblue" points="231.52,-91.82 220.93,-92.02 229.34,-98.47 231.52,-91.82"/>
</g>
<!-- Node5 -->
<g id="node5" class="node">
<title>Node5</title>
<g id="a_node5"><a xlink:title=" ">
<polygon fill="white" stroke="#bfbfbf" points="295.5,-67.5 295.5,-97.5 467.5,-97.5 467.5,-67.5 295.5,-67.5"/>
<text text-anchor="start" x="303.5" y="-85.5" font-family="Helvetica,sans-Serif" font-size="10.00">asm/JSystem/J2DGraph</text>
<text text-anchor="middle" x="381.5" y="-74.5" font-family="Helvetica,sans-Serif" font-size="10.00">/J2DScreen/__ct__9J2DScreenFv.s</text>
</a>
</g>
</g>
<!-- Node1&#45;&gt;Node5 -->
<g id="edge5" class="edge">
<title>Node1&#45;&gt;Node5</title>
<path fill="none" stroke="midnightblue" d="M2790.97,-159.09C2446.08,-156.61 711.55,-142.54 476.5,-109 462.89,-107.06 448.45,-103.82 435.05,-100.29"/>
<polygon fill="midnightblue" stroke="midnightblue" points="435.6,-96.81 425.03,-97.54 433.75,-103.56 435.6,-96.81"/>
</g>
<!-- Node6 -->
<g id="node6" class="node">
<title>Node6</title>
<g id="a_node6"><a xlink:title=" ">
<polygon fill="white" stroke="#bfbfbf" points="485.5,-67.5 485.5,-97.5 657.5,-97.5 657.5,-67.5 485.5,-67.5"/>
<text text-anchor="start" x="493.5" y="-85.5" font-family="Helvetica,sans-Serif" font-size="10.00">asm/JSystem/J2DGraph</text>
<text text-anchor="middle" x="571.5" y="-74.5" font-family="Helvetica,sans-Serif" font-size="10.00">/J2DScreen/__dt__9J2DScreenFv.s</text>
</a>
</g>
</g>
<!-- Node1&#45;&gt;Node6 -->
<g id="edge6" class="edge">
<title>Node1&#45;&gt;Node6</title>
<path fill="none" stroke="midnightblue" d="M2790.99,-158.97C2462.89,-155.96 881.66,-139.91 666.5,-109 652.9,-107.05 638.46,-103.8 625.05,-100.27"/>
<polygon fill="midnightblue" stroke="midnightblue" points="625.6,-96.79 615.03,-97.53 623.75,-103.54 625.6,-96.79"/>
</g>
<!-- Node7 -->
<g id="node7" class="node">
<title>Node7</title>
<g id="a_node7"><a xlink:title=" ">
<polygon fill="white" stroke="#bfbfbf" points="675.5,-67.5 675.5,-97.5 851.5,-97.5 851.5,-67.5 675.5,-67.5"/>
<text text-anchor="start" x="683.5" y="-85.5" font-family="Helvetica,sans-Serif" font-size="10.00">asm/JSystem/J2DGraph</text>
<text text-anchor="middle" x="763.5" y="-74.5" font-family="Helvetica,sans-Serif" font-size="10.00">/J2DScreen/clean__9J2DScreenFv.s</text>
</a>
</g>
</g>
<!-- Node1&#45;&gt;Node7 -->
<g id="edge7" class="edge">
<title>Node1&#45;&gt;Node7</title>
<path fill="none" stroke="midnightblue" d="M2790.88,-159.83C2502.23,-161.12 1248.01,-163.46 861.5,-109 847.49,-107.03 832.61,-103.77 818.78,-100.24"/>
<polygon fill="midnightblue" stroke="midnightblue" points="819.49,-96.81 808.93,-97.63 817.7,-103.58 819.49,-96.81"/>
</g>
<!-- Node8 -->
<g id="node8" class="node">
<title>Node8</title>
<g id="a_node8"><a xlink:title=" ">
<polygon fill="white" stroke="#bfbfbf" points="870,-62 870,-103 1061,-103 1061,-62 870,-62"/>
<text text-anchor="start" x="878" y="-91" font-family="Helvetica,sans-Serif" font-size="10.00">asm/JSystem/J2DGraph</text>
<text text-anchor="start" x="878" y="-80" font-family="Helvetica,sans-Serif" font-size="10.00">/J2DScreen/setPriority</text>
<text text-anchor="middle" x="965.5" y="-69" font-family="Helvetica,sans-Serif" font-size="10.00">__9J2DScreenFPCcUlP10JKRArchive.s</text>
</a>
</g>
</g>
<!-- Node1&#45;&gt;Node8 -->
<g id="edge8" class="edge">
<title>Node1&#45;&gt;Node8</title>
<path fill="none" stroke="midnightblue" d="M2790.56,-159.49C2520.34,-159.17 1413.87,-155.05 1070.5,-109 1062.85,-107.97 1054.95,-106.62 1047.08,-105.07"/>
<polygon fill="midnightblue" stroke="midnightblue" points="1047.64,-101.61 1037.14,-103.01 1046.22,-108.47 1047.64,-101.61"/>
</g>
<!-- Node9 -->
<g id="node9" class="node">
<title>Node9</title>
<g id="a_node9"><a xlink:title=" ">
<polygon fill="white" stroke="#bfbfbf" points="1079,-56.5 1079,-108.5 1260,-108.5 1260,-56.5 1079,-56.5"/>
<text text-anchor="start" x="1087" y="-96.5" font-family="Helvetica,sans-Serif" font-size="10.00">asm/JSystem/J2DGraph</text>
<text text-anchor="start" x="1087" y="-85.5" font-family="Helvetica,sans-Serif" font-size="10.00">/J2DScreen/setPriority</text>
<text text-anchor="start" x="1087" y="-74.5" font-family="Helvetica,sans-Serif" font-size="10.00">__9J2DScreenFP20JSURandomInput</text>
<text text-anchor="middle" x="1169.5" y="-63.5" font-family="Helvetica,sans-Serif" font-size="10.00">StreamUlP10JKRArchive.s</text>
</a>
</g>
</g>
<!-- Node1&#45;&gt;Node9 -->
<g id="edge9" class="edge">
<title>Node1&#45;&gt;Node9</title>
<path fill="none" stroke="midnightblue" d="M2790.64,-159.33C2542.39,-158.36 1592.2,-151.94 1270.34,-108.93"/>
<polygon fill="midnightblue" stroke="midnightblue" points="1270.46,-105.41 1260.08,-107.51 1269.51,-112.35 1270.46,-105.41"/>
</g>
<!-- Node10 -->
<g id="node10" class="node">
<title>Node10</title>
<g id="a_node10"><a xlink:title=" ">
<polygon fill="white" stroke="#bfbfbf" points="1278,-56.5 1278,-108.5 1459,-108.5 1459,-56.5 1278,-56.5"/>
<text text-anchor="start" x="1286" y="-96.5" font-family="Helvetica,sans-Serif" font-size="10.00">asm/JSystem/J2DGraph</text>
<text text-anchor="start" x="1286" y="-85.5" font-family="Helvetica,sans-Serif" font-size="10.00">/J2DScreen/private_set</text>
<text text-anchor="start" x="1286" y="-74.5" font-family="Helvetica,sans-Serif" font-size="10.00">__9J2DScreenFP20JSURandomInput</text>
<text text-anchor="middle" x="1368.5" y="-63.5" font-family="Helvetica,sans-Serif" font-size="10.00">StreamUlP10JKRArchive.s</text>
</a>
</g>
</g>
<!-- Node1&#45;&gt;Node10 -->
<g id="edge10" class="edge">
<title>Node1&#45;&gt;Node10</title>
<path fill="none" stroke="midnightblue" d="M2790.92,-159.01C2563.58,-156.89 1749.81,-146.87 1469.24,-108.91"/>
<polygon fill="midnightblue" stroke="midnightblue" points="1469.47,-105.41 1459.08,-107.49 1468.5,-112.35 1469.47,-105.41"/>
</g>
<!-- Node11 -->
<g id="node11" class="node">
<title>Node11</title>
<g id="a_node11"><a xlink:title=" ">
<polygon fill="white" stroke="#bfbfbf" points="1477.5,-62 1477.5,-103 1697.5,-103 1697.5,-62 1477.5,-62"/>
<text text-anchor="start" x="1485.5" y="-91" font-family="Helvetica,sans-Serif" font-size="10.00">asm/JSystem/J2DGraph</text>
<text text-anchor="start" x="1485.5" y="-80" font-family="Helvetica,sans-Serif" font-size="10.00">/J2DScreen/checkSignature</text>
<text text-anchor="middle" x="1587.5" y="-69" font-family="Helvetica,sans-Serif" font-size="10.00">__9J2DScreenFP20JSURandomInputStream.s</text>
</a>
</g>
</g>
<!-- Node1&#45;&gt;Node11 -->
<g id="edge11" class="edge">
<title>Node1&#45;&gt;Node11</title>
<path fill="none" stroke="midnightblue" d="M2790.68,-158.18C2586.71,-153.47 1919.34,-136.31 1706.5,-109 1697.9,-107.9 1688.99,-106.49 1680.11,-104.91"/>
<polygon fill="midnightblue" stroke="midnightblue" points="1680.57,-101.43 1670.1,-103.05 1679.29,-108.32 1680.57,-101.43"/>
</g>
<!-- Node12 -->
<g id="node12" class="node">
<title>Node12</title>
<g id="a_node12"><a xlink:title=" ">
<polygon fill="white" stroke="#bfbfbf" points="1715.5,-62 1715.5,-103 1935.5,-103 1935.5,-62 1715.5,-62"/>
<text text-anchor="start" x="1723.5" y="-91" font-family="Helvetica,sans-Serif" font-size="10.00">asm/JSystem/J2DGraph</text>
<text text-anchor="start" x="1723.5" y="-80" font-family="Helvetica,sans-Serif" font-size="10.00">/J2DScreen/getScreenInformation</text>
<text text-anchor="middle" x="1825.5" y="-69" font-family="Helvetica,sans-Serif" font-size="10.00">__9J2DScreenFP20JSURandomInputStream.s</text>
</a>
</g>
</g>
<!-- Node1&#45;&gt;Node12 -->
<g id="edge12" class="edge">
<title>Node1&#45;&gt;Node12</title>
<path fill="none" stroke="midnightblue" d="M2790.91,-159.33C2645.67,-158.24 2262.14,-151.22 1945.5,-109 1936.99,-107.86 1928.18,-106.45 1919.38,-104.88"/>
<polygon fill="midnightblue" stroke="midnightblue" points="1919.93,-101.43 1909.46,-103.05 1918.66,-108.31 1919.93,-101.43"/>
</g>
<!-- Node13 -->
<g id="node13" class="node">
<title>Node13</title>
<g id="a_node13"><a xlink:title=" ">
<polygon fill="white" stroke="#bfbfbf" points="1954,-56.5 1954,-108.5 2165,-108.5 2165,-56.5 1954,-56.5"/>
<text text-anchor="start" x="1962" y="-96.5" font-family="Helvetica,sans-Serif" font-size="10.00">asm/JSystem/J2DGraph</text>
<text text-anchor="start" x="1962" y="-85.5" font-family="Helvetica,sans-Serif" font-size="10.00">/J2DScreen/makeHierarchyPanes</text>
<text text-anchor="start" x="1962" y="-74.5" font-family="Helvetica,sans-Serif" font-size="10.00">__9J2DScreenFP7J2DPaneP20JSURandom</text>
<text text-anchor="middle" x="2059.5" y="-63.5" font-family="Helvetica,sans-Serif" font-size="10.00">InputStreamUlP10JKRArchive.s</text>
</a>
</g>
</g>
<!-- Node1&#45;&gt;Node13 -->
<g id="edge13" class="edge">
<title>Node1&#45;&gt;Node13</title>
<path fill="none" stroke="midnightblue" d="M2790.96,-157.92C2674.49,-154.22 2408.34,-142.68 2175.31,-109.02"/>
<polygon fill="midnightblue" stroke="midnightblue" points="2175.69,-105.54 2165.29,-107.56 2174.68,-112.47 2175.69,-105.54"/>
</g>
<!-- Node14 -->
<g id="node14" class="node">
<title>Node14</title>
<g id="a_node14"><a xlink:title=" ">
<polygon fill="white" stroke="#bfbfbf" points="2183.5,-67.5 2183.5,-97.5 2329.5,-97.5 2329.5,-67.5 2183.5,-67.5"/>
<text text-anchor="start" x="2191.5" y="-85.5" font-family="Helvetica,sans-Serif" font-size="10.00">asm/JSystem/J2DGraph</text>
<text text-anchor="middle" x="2256.5" y="-74.5" font-family="Helvetica,sans-Serif" font-size="10.00">/J2DScreen/func_802F8B98.s</text>
</a>
</g>
</g>
<!-- Node1&#45;&gt;Node14 -->
<g id="edge14" class="edge">
<title>Node1&#45;&gt;Node14</title>
<path fill="none" stroke="midnightblue" d="M2790.92,-157.46C2695,-153.33 2500.75,-141.4 2339.5,-109 2328.64,-106.82 2317.17,-103.79 2306.34,-100.57"/>
<polygon fill="midnightblue" stroke="midnightblue" points="2307.2,-97.18 2296.61,-97.59 2305.15,-103.87 2307.2,-97.18"/>
</g>
<!-- Node15 -->
<g id="node15" class="node">
<title>Node15</title>
<g id="a_node15"><a xlink:title=" ">
<polygon fill="white" stroke="#bfbfbf" points="2348,-62 2348,-103 2503,-103 2503,-62 2348,-62"/>
<text text-anchor="start" x="2356" y="-91" font-family="Helvetica,sans-Serif" font-size="10.00">asm/JSystem/J2DGraph</text>
<text text-anchor="start" x="2356" y="-80" font-family="Helvetica,sans-Serif" font-size="10.00">/J2DScreen/draw__9J2DScreen</text>
<text text-anchor="middle" x="2425.5" y="-69" font-family="Helvetica,sans-Serif" font-size="10.00">FffPC14J2DGrafContext.s</text>
</a>
</g>
</g>
<!-- Node1&#45;&gt;Node15 -->
<g id="edge15" class="edge">
<title>Node1&#45;&gt;Node15</title>
<path fill="none" stroke="midnightblue" d="M2790.82,-153.09C2722.94,-145.21 2608.98,-130.24 2512.5,-109 2507.85,-107.98 2503.07,-106.84 2498.28,-105.62"/>
<polygon fill="midnightblue" stroke="midnightblue" points="2499,-102.19 2488.44,-103.05 2497.22,-108.97 2499,-102.19"/>
</g>
<!-- Node16 -->
<g id="node16" class="node">
<title>Node16</title>
<g id="a_node16"><a xlink:title=" ">
<polygon fill="white" stroke="#bfbfbf" points="2521.5,-62 2521.5,-103 2685.5,-103 2685.5,-62 2521.5,-62"/>
<text text-anchor="start" x="2529.5" y="-91" font-family="Helvetica,sans-Serif" font-size="10.00">asm/JSystem/J2DGraph</text>
<text text-anchor="start" x="2529.5" y="-80" font-family="Helvetica,sans-Serif" font-size="10.00">/J2DScreen/search__9J2DScreen</text>
<text text-anchor="middle" x="2603.5" y="-69" font-family="Helvetica,sans-Serif" font-size="10.00">FUx.s</text>
</a>
</g>
</g>
<!-- Node1&#45;&gt;Node16 -->
<g id="edge16" class="edge">
<title>Node1&#45;&gt;Node16</title>
<path fill="none" stroke="midnightblue" d="M2804.91,-145.47C2769.03,-134.43 2718.33,-118.83 2676.78,-106.05"/>
<polygon fill="midnightblue" stroke="midnightblue" points="2677.56,-102.63 2666.97,-103.03 2675.5,-109.32 2677.56,-102.63"/>
</g>
<!-- Node17 -->
<g id="node17" class="node">
<title>Node17</title>
<g id="a_node17"><a xlink:title=" ">
<polygon fill="white" stroke="#bfbfbf" points="2704,-62 2704,-103 2841,-103 2841,-62 2704,-62"/>
<text text-anchor="start" x="2712" y="-91" font-family="Helvetica,sans-Serif" font-size="10.00">asm/JSystem/J2DGraph</text>
<text text-anchor="start" x="2712" y="-80" font-family="Helvetica,sans-Serif" font-size="10.00">/J2DScreen/searchUserInfo</text>
<text text-anchor="middle" x="2772.5" y="-69" font-family="Helvetica,sans-Serif" font-size="10.00">__9J2DScreenFUx.s</text>
</a>
</g>
</g>
<!-- Node1&#45;&gt;Node17 -->
<g id="edge17" class="edge">
<title>Node1&#45;&gt;Node17</title>
<path fill="none" stroke="midnightblue" d="M2835.83,-145.2C2825.74,-135.38 2812.04,-122.03 2799.96,-110.26"/>
<polygon fill="midnightblue" stroke="midnightblue" points="2802.3,-107.65 2792.7,-103.18 2797.42,-112.67 2802.3,-107.65"/>
</g>
<!-- Node18 -->
<g id="node18" class="node">
<title>Node18</title>
<g id="a_node18"><a xlink:title=" ">
<polygon fill="white" stroke="#bfbfbf" points="2859.5,-62 2859.5,-103 2997.5,-103 2997.5,-62 2859.5,-62"/>
<text text-anchor="start" x="2867.5" y="-91" font-family="Helvetica,sans-Serif" font-size="10.00">asm/JSystem/J2DGraph</text>
<text text-anchor="start" x="2867.5" y="-80" font-family="Helvetica,sans-Serif" font-size="10.00">/J2DScreen/drawSelf_</text>
<text text-anchor="middle" x="2928.5" y="-69" font-family="Helvetica,sans-Serif" font-size="10.00">_9J2DScreenFffPA3_A4_f.s</text>
</a>
</g>
</g>
<!-- Node1&#45;&gt;Node18 -->
<g id="edge18" class="edge">
<title>Node1&#45;&gt;Node18</title>
<path fill="none" stroke="midnightblue" d="M2865.17,-145.2C2875.26,-135.38 2888.96,-122.03 2901.04,-110.26"/>
<polygon fill="midnightblue" stroke="midnightblue" points="2903.58,-112.67 2908.3,-103.18 2898.7,-107.65 2903.58,-112.67"/>
</g>
<!-- Node19 -->
<g id="node19" class="node">
<title>Node19</title>
<g id="a_node19"><a xlink:title=" ">
<polygon fill="white" stroke="#bfbfbf" points="3015.5,-62 3015.5,-103 3245.5,-103 3245.5,-62 3015.5,-62"/>
<text text-anchor="start" x="3023.5" y="-91" font-family="Helvetica,sans-Serif" font-size="10.00">asm/JSystem/J2DGraph</text>
<text text-anchor="start" x="3023.5" y="-80" font-family="Helvetica,sans-Serif" font-size="10.00">/J2DScreen/getResReference</text>
<text text-anchor="middle" x="3130.5" y="-69" font-family="Helvetica,sans-Serif" font-size="10.00">__9J2DScreenFP20JSURandomInputStreamUl.s</text>
</a>
</g>
</g>
<!-- Node1&#45;&gt;Node19 -->
<g id="edge19" class="edge">
<title>Node1&#45;&gt;Node19</title>
<path fill="none" stroke="midnightblue" d="M2902.18,-145.47C2943.19,-134.34 3001.3,-118.57 3048.62,-105.72"/>
<polygon fill="midnightblue" stroke="midnightblue" points="3049.81,-109.03 3058.55,-103.03 3047.98,-102.27 3049.81,-109.03"/>
</g>
<!-- Node20 -->
<g id="node20" class="node">
<title>Node20</title>
<g id="a_node20"><a xlink:title=" ">
<polygon fill="white" stroke="#bfbfbf" points="3263.5,-56.5 3263.5,-108.5 3475.5,-108.5 3475.5,-56.5 3263.5,-56.5"/>
<text text-anchor="start" x="3271.5" y="-96.5" font-family="Helvetica,sans-Serif" font-size="10.00">asm/JSystem/J2DGraph</text>
<text text-anchor="start" x="3271.5" y="-85.5" font-family="Helvetica,sans-Serif" font-size="10.00">/J2DScreen/createMaterial</text>
<text text-anchor="start" x="3271.5" y="-74.5" font-family="Helvetica,sans-Serif" font-size="10.00">__9J2DScreenFP20JSURandomInputStream</text>
<text text-anchor="middle" x="3369.5" y="-63.5" font-family="Helvetica,sans-Serif" font-size="10.00">UlP10JKRArchive.s</text>
</a>
</g>
</g>
<!-- Node1&#45;&gt;Node20 -->
<g id="edge20" class="edge">
<title>Node1&#45;&gt;Node20</title>
<path fill="none" stroke="midnightblue" d="M2910.31,-153.8C2987.39,-146.05 3125.71,-130.82 3253.41,-109.12"/>
<polygon fill="midnightblue" stroke="midnightblue" points="3254.1,-112.56 3263.37,-107.41 3252.92,-105.66 3254.1,-112.56"/>
</g>
<!-- Node21 -->
<g id="node21" class="node">
<title>Node21</title>
<g id="a_node21"><a xlink:title=" ">
<polygon fill="white" stroke="#bfbfbf" points="3494,-62 3494,-103 3659,-103 3659,-62 3494,-62"/>
<text text-anchor="start" x="3502" y="-91" font-family="Helvetica,sans-Serif" font-size="10.00">asm/JSystem/J2DGraph</text>
<text text-anchor="start" x="3502" y="-80" font-family="Helvetica,sans-Serif" font-size="10.00">/J2DScreen/isUsed__9J2DScreen</text>
<text text-anchor="middle" x="3576.5" y="-69" font-family="Helvetica,sans-Serif" font-size="10.00">FPC7ResTIMG.s</text>
</a>
</g>
</g>
<!-- Node1&#45;&gt;Node21 -->
<g id="edge21" class="edge">
<title>Node1&#45;&gt;Node21</title>
<path fill="none" stroke="midnightblue" d="M2910.42,-158.53C3023.49,-155.86 3275.73,-145.9 3484.5,-109 3490.25,-107.98 3496.16,-106.76 3502.08,-105.42"/>
<polygon fill="midnightblue" stroke="midnightblue" points="3503.1,-108.77 3512.02,-103.04 3501.48,-101.96 3503.1,-108.77"/>
</g>
<!-- Node22 -->
<g id="node22" class="node">
<title>Node22</title>
<g id="a_node22"><a xlink:title=" ">
<polygon fill="white" stroke="#bfbfbf" points="3677,-62 3677,-103 3842,-103 3842,-62 3677,-62"/>
<text text-anchor="start" x="3685" y="-91" font-family="Helvetica,sans-Serif" font-size="10.00">asm/JSystem/J2DGraph</text>
<text text-anchor="start" x="3685" y="-80" font-family="Helvetica,sans-Serif" font-size="10.00">/J2DScreen/isUsed__9J2DScreen</text>
<text text-anchor="middle" x="3759.5" y="-69" font-family="Helvetica,sans-Serif" font-size="10.00">FPC7ResFONT.s</text>
</a>
</g>
</g>
<!-- Node1&#45;&gt;Node22 -->
<g id="edge22" class="edge">
<title>Node1&#45;&gt;Node22</title>
<path fill="none" stroke="midnightblue" d="M2910.01,-160.11C3045.62,-160.58 3387.56,-156.48 3668.5,-109 3674.3,-108.02 3680.27,-106.81 3686.23,-105.46"/>
<polygon fill="midnightblue" stroke="midnightblue" points="3687.33,-108.8 3696.25,-103.07 3685.71,-101.99 3687.33,-108.8"/>
</g>
<!-- Node23 -->
<g id="node23" class="node">
<title>Node23</title>
<g id="a_node23"><a xlink:title=" ">
<polygon fill="white" stroke="#bfbfbf" points="3860.5,-62 3860.5,-103 4012.5,-103 4012.5,-62 3860.5,-62"/>
<text text-anchor="start" x="3868.5" y="-91" font-family="Helvetica,sans-Serif" font-size="10.00">asm/JSystem/J2DGraph</text>
<text text-anchor="start" x="3868.5" y="-80" font-family="Helvetica,sans-Serif" font-size="10.00">/J2DScreen/getNameResource</text>
<text text-anchor="middle" x="3936.5" y="-69" font-family="Helvetica,sans-Serif" font-size="10.00">__9J2DScreenFPCc.s</text>
</a>
</g>
</g>
<!-- Node1&#45;&gt;Node23 -->
<g id="edge23" class="edge">
<title>Node1&#45;&gt;Node23</title>
<path fill="none" stroke="midnightblue" d="M2910.28,-158.37C3097.18,-154.55 3668.88,-140.52 3851.5,-109 3856.91,-108.07 3862.46,-106.9 3868,-105.58"/>
<polygon fill="midnightblue" stroke="midnightblue" points="3869.12,-108.91 3877.95,-103.06 3867.4,-102.12 3869.12,-108.91"/>
</g>
<!-- Node24 -->
<g id="node24" class="node">
<title>Node24</title>
<g id="a_node24"><a xlink:title=" ">
<polygon fill="white" stroke="#bfbfbf" points="4031,-62 4031,-103 4154,-103 4154,-62 4031,-62"/>
<text text-anchor="start" x="4039" y="-91" font-family="Helvetica,sans-Serif" font-size="10.00">asm/JSystem/J2DGraph</text>
<text text-anchor="start" x="4039" y="-80" font-family="Helvetica,sans-Serif" font-size="10.00">/J2DScreen/animation</text>
<text text-anchor="middle" x="4092.5" y="-69" font-family="Helvetica,sans-Serif" font-size="10.00">__9J2DScreenFv.s</text>
</a>
</g>
</g>
<!-- Node1&#45;&gt;Node24 -->
<g id="edge24" class="edge">
<title>Node1&#45;&gt;Node24</title>
<path fill="none" stroke="midnightblue" d="M2910.1,-159.3C3117.28,-158.22 3805.35,-151.46 4021.5,-109 4025.69,-108.18 4029.97,-107.15 4034.24,-105.98"/>
<polygon fill="midnightblue" stroke="midnightblue" points="4035.57,-109.24 4044.16,-103.04 4033.58,-102.53 4035.57,-109.24"/>
</g>
<!-- Node25 -->
<g id="node25" class="node">
<title>Node25</title>
<g id="a_node25"><a xlink:title=" ">
<polygon fill="white" stroke="#bfbfbf" points="4172,-62 4172,-103 4343,-103 4343,-62 4172,-62"/>
<text text-anchor="start" x="4180" y="-91" font-family="Helvetica,sans-Serif" font-size="10.00">asm/JSystem/J2DGraph</text>
<text text-anchor="start" x="4180" y="-80" font-family="Helvetica,sans-Serif" font-size="10.00">/J2DScreen/setAnimation</text>
<text text-anchor="middle" x="4257.5" y="-69" font-family="Helvetica,sans-Serif" font-size="10.00">__9J2DScreenFP11J2DAnmColor.s</text>
</a>
</g>
</g>
<!-- Node1&#45;&gt;Node25 -->
<g id="edge25" class="edge">
<title>Node1&#45;&gt;Node25</title>
<path fill="none" stroke="midnightblue" d="M2910.14,-159C3133.03,-156.84 3916.86,-146.7 4163.5,-109 4170.01,-108 4176.72,-106.72 4183.42,-105.26"/>
<polygon fill="midnightblue" stroke="midnightblue" points="4184.23,-108.66 4193.19,-103.01 4182.66,-101.84 4184.23,-108.66"/>
</g>
<!-- Node26 -->
<g id="node26" class="node">
<title>Node26</title>
<g id="a_node26"><a xlink:title=" ">
<polygon fill="white" stroke="#bfbfbf" points="4361,-62 4361,-103 4578,-103 4578,-62 4361,-62"/>
<text text-anchor="start" x="4369" y="-91" font-family="Helvetica,sans-Serif" font-size="10.00">asm/JSystem/J2DGraph</text>
<text text-anchor="start" x="4369" y="-80" font-family="Helvetica,sans-Serif" font-size="10.00">/J2DScreen/setAnimation</text>
<text text-anchor="middle" x="4469.5" y="-69" font-family="Helvetica,sans-Serif" font-size="10.00">__9J2DScreenFP19J2DAnmTextureSRTKey.s</text>
</a>
</g>
</g>
<!-- Node1&#45;&gt;Node26 -->
<g id="edge26" class="edge">
<title>Node1&#45;&gt;Node26</title>
<path fill="none" stroke="midnightblue" d="M2910.18,-158.94C3152.84,-156.42 4066.09,-144.73 4352.5,-109 4361.12,-107.92 4370.04,-106.52 4378.94,-104.93"/>
<polygon fill="midnightblue" stroke="midnightblue" points="4379.77,-108.33 4388.95,-103.05 4378.48,-101.45 4379.77,-108.33"/>
</g>
<!-- Node27 -->
<g id="node27" class="node">
<title>Node27</title>
<g id="a_node27"><a xlink:title=" ">
<polygon fill="white" stroke="#bfbfbf" points="4596.5,-62 4596.5,-103 4792.5,-103 4792.5,-62 4596.5,-62"/>
<text text-anchor="start" x="4604.5" y="-91" font-family="Helvetica,sans-Serif" font-size="10.00">asm/JSystem/J2DGraph</text>
<text text-anchor="start" x="4604.5" y="-80" font-family="Helvetica,sans-Serif" font-size="10.00">/J2DScreen/setAnimation</text>
<text text-anchor="middle" x="4694.5" y="-69" font-family="Helvetica,sans-Serif" font-size="10.00">__9J2DScreenFP16J2DAnmTexPattern.s</text>
</a>
</g>
</g>
<!-- Node1&#45;&gt;Node27 -->
<g id="edge27" class="edge">
<title>Node1&#45;&gt;Node27</title>
<path fill="none" stroke="midnightblue" d="M2910.32,-159.4C3176.27,-158.73 4252.9,-153.26 4587.5,-109 4595.22,-107.98 4603.2,-106.64 4611.15,-105.1"/>
<polygon fill="midnightblue" stroke="midnightblue" points="4612.09,-108.48 4621.19,-103.06 4610.7,-101.62 4612.09,-108.48"/>
</g>
<!-- Node28 -->
<g id="node28" class="node">
<title>Node28</title>
<g id="a_node28"><a xlink:title=" ">
<polygon fill="white" stroke="#bfbfbf" points="4811,-62 4811,-103 5010,-103 5010,-62 4811,-62"/>
<text text-anchor="start" x="4819" y="-91" font-family="Helvetica,sans-Serif" font-size="10.00">asm/JSystem/J2DGraph</text>
<text text-anchor="start" x="4819" y="-80" font-family="Helvetica,sans-Serif" font-size="10.00">/J2DScreen/setAnimation</text>
<text text-anchor="middle" x="4910.5" y="-69" font-family="Helvetica,sans-Serif" font-size="10.00">__9J2DScreenFP15J2DAnmTevRegKey.s</text>
</a>
</g>
</g>
<!-- Node1&#45;&gt;Node28 -->
<g id="edge28" class="edge">
<title>Node1&#45;&gt;Node28</title>
<path fill="none" stroke="midnightblue" d="M2910.37,-159.59C3196.05,-159.79 4422.38,-157.73 4801.5,-109 4809.52,-107.97 4817.81,-106.6 4826.07,-105.03"/>
<polygon fill="midnightblue" stroke="midnightblue" points="4826.99,-108.42 4836.11,-103.03 4825.62,-101.55 4826.99,-108.42"/>
</g>
<!-- Node29 -->
<g id="node29" class="node">
<title>Node29</title>
<g id="a_node29"><a xlink:title=" ">
<polygon fill="white" stroke="#bfbfbf" points="5028,-62 5028,-103 5213,-103 5213,-62 5028,-62"/>
<text text-anchor="start" x="5036" y="-91" font-family="Helvetica,sans-Serif" font-size="10.00">asm/JSystem/J2DGraph</text>
<text text-anchor="start" x="5036" y="-80" font-family="Helvetica,sans-Serif" font-size="10.00">/J2DScreen/setAnimation</text>
<text text-anchor="middle" x="5120.5" y="-69" font-family="Helvetica,sans-Serif" font-size="10.00">__9J2DScreenFP14J2DAnmVtxColor.s</text>
</a>
</g>
</g>
<!-- Node1&#45;&gt;Node29 -->
<g id="edge29" class="edge">
<title>Node1&#45;&gt;Node29</title>
<path fill="none" stroke="midnightblue" d="M2910.13,-158.91C3237.11,-155.56 4805.71,-138.1 5019.5,-109 5026.85,-108 5034.44,-106.66 5042,-105.13"/>
<polygon fill="midnightblue" stroke="midnightblue" points="5042.86,-108.52 5051.9,-103 5041.39,-101.68 5042.86,-108.52"/>
</g>
<!-- Node30 -->
<g id="node30" class="node">
<title>Node30</title>
<g id="a_node30"><a xlink:title=" ">
<polygon fill="white" stroke="#bfbfbf" points="5231,-56.5 5231,-108.5 5408,-108.5 5408,-56.5 5231,-56.5"/>
<text text-anchor="start" x="5239" y="-96.5" font-family="Helvetica,sans-Serif" font-size="10.00">asm/JSystem/J2DGraph</text>
<text text-anchor="start" x="5239" y="-85.5" font-family="Helvetica,sans-Serif" font-size="10.00">/J2DScreen/setAnimation</text>
<text text-anchor="start" x="5239" y="-74.5" font-family="Helvetica,sans-Serif" font-size="10.00">__9J2DScreenFP20J2DAnmVisibility</text>
<text text-anchor="middle" x="5319.5" y="-63.5" font-family="Helvetica,sans-Serif" font-size="10.00">Full.s</text>
</a>
</g>
</g>
<!-- Node1&#45;&gt;Node30 -->
<g id="edge30" class="edge">
<title>Node1&#45;&gt;Node30</title>
<path fill="none" stroke="midnightblue" d="M2910.26,-159.07C3251.12,-156.51 4943.87,-142.27 5220.89,-108.99"/>
<polygon fill="midnightblue" stroke="midnightblue" points="5221.4,-112.45 5230.86,-107.69 5220.5,-105.51 5221.4,-112.45"/>
</g>
<!-- Node31 -->
<g id="node31" class="node">
<title>Node31</title>
<g id="a_node31"><a xlink:title=" ">
<polygon fill="white" stroke="#bfbfbf" points="5426,-56.5 5426,-108.5 5669,-108.5 5669,-56.5 5426,-56.5"/>
<text text-anchor="start" x="5434" y="-96.5" font-family="Helvetica,sans-Serif" font-size="10.00">asm/JSystem/J2DGraph</text>
<text text-anchor="start" x="5434" y="-85.5" font-family="Helvetica,sans-Serif" font-size="10.00">/J2DScreen/createPane</text>
<text text-anchor="start" x="5434" y="-74.5" font-family="Helvetica,sans-Serif" font-size="10.00">__9J2DScreenFRC18J2DScrnBlock</text>
<text text-anchor="middle" x="5547.5" y="-63.5" font-family="Helvetica,sans-Serif" font-size="10.00">HeaderP20JSURandomInputStreamP7J2DPaneUl.s</text>
</a>
</g>
</g>
<!-- Node1&#45;&gt;Node31 -->
<g id="edge31" class="edge">
<title>Node1&#45;&gt;Node31</title>
<path fill="none" stroke="midnightblue" d="M2910.15,-159.74C3244.3,-160.85 4887.45,-163.47 5415.82,-109.09"/>
<polygon fill="midnightblue" stroke="midnightblue" points="5416.23,-112.56 5425.81,-108.04 5415.5,-105.6 5416.23,-112.56"/>
</g>
<!-- Node32 -->
<g id="node32" class="node">
<title>Node32</title>
<g id="a_node32"><a xlink:title=" ">
<polygon fill="white" stroke="#bfbfbf" points="5687,-67.5 5687,-97.5 5874,-97.5 5874,-67.5 5687,-67.5"/>
<text text-anchor="start" x="5695" y="-85.5" font-family="Helvetica,sans-Serif" font-size="10.00">asm/JSystem/J2DGraph</text>
<text text-anchor="middle" x="5780.5" y="-74.5" font-family="Helvetica,sans-Serif" font-size="10.00">/J2DScreen/calcMtx__9J2DScreenFv.s</text>
</a>
</g>
</g>
<!-- Node1&#45;&gt;Node32 -->
<g id="edge32" class="edge">
<title>Node1&#45;&gt;Node32</title>
<path fill="none" stroke="midnightblue" d="M2910.15,-159.25C3292.79,-157.53 5395.46,-146.41 5678.5,-109 5693.42,-107.03 5709.32,-103.68 5724.01,-100.05"/>
<polygon fill="midnightblue" stroke="midnightblue" points="5725.14,-103.37 5733.96,-97.5 5723.4,-96.59 5725.14,-103.37"/>
</g>
<!-- Node33 -->
<g id="node33" class="node">
<title>Node33</title>
<g id="a_node33"><a xlink:title=" ">
<polygon fill="white" stroke="#bfbfbf" points="5892,-62 5892,-103 6063,-103 6063,-62 5892,-62"/>
<text text-anchor="start" x="5900" y="-91" font-family="Helvetica,sans-Serif" font-size="10.00">asm/JSystem/J2DGraph</text>
<text text-anchor="start" x="5900" y="-80" font-family="Helvetica,sans-Serif" font-size="10.00">/J2DScreen/setAnimation</text>
<text text-anchor="middle" x="5977.5" y="-69" font-family="Helvetica,sans-Serif" font-size="10.00">__9J2DScreenFP10J2DAnmBase.s</text>
</a>
</g>
</g>
<!-- Node1&#45;&gt;Node33 -->
<g id="edge33" class="edge">
<title>Node1&#45;&gt;Node33</title>
<path fill="none" stroke="midnightblue" d="M2910.25,-159.4C3309.14,-158.59 5579.28,-152.11 5883.5,-109 5890.19,-108.05 5897.09,-106.78 5903.96,-105.3"/>
<polygon fill="midnightblue" stroke="midnightblue" points="5905.01,-108.65 5913.98,-103.01 5903.45,-101.83 5905.01,-108.65"/>
</g>
<!-- Node4&#45;&gt;Node3 -->
<g id="edge4" class="edge">
<title>Node4&#45;&gt;Node3</title>
<path fill="none" stroke="midnightblue" d="M190.88,-72.86C182.3,-61.65 167.14,-41.87 156.29,-27.69"/>
<polygon fill="midnightblue" stroke="midnightblue" points="159.04,-25.53 150.18,-19.72 153.48,-29.78 159.04,-25.53"/>
</g>
</g>
</svg>
        <g id="navigator" transform="translate(0 0)" fill="#404254">
                <rect fill="#f2f5e9" fill-opacity="0.5" stroke="#606060" stroke-width=".5" x="0" y="0" width="60" height="60"/>
                <use id="zoomplus" xlink:href="#zoomPlus" x="17" y="9" onmousedown="handleZoom(evt,'in')"/>
                <use id="zoomminus" xlink:href="#zoomMin" x="42" y="9" onmousedown="handleZoom(evt,'out')"/>
                <use id="reset" xlink:href="#resetDef" x="30" y="36" onmousedown="handleReset()"/>
                <g id="arrowUp" xlink:href="#dirArrow" transform="translate(30 24)" onmousedown="handlePan(0,-1)">
                  <use xlink:href="#rim" fill="#404040">
                        <set attributeName="fill" to="#808080" begin="arrowUp.mouseover" end="arrowUp.mouseout"/>
                  </use>
                  <path fill="none" stroke="white" stroke-width="1.5" d="M0,-3.0v7 M-2.5,-0.5L0,-3.0L2.5,-0.5"/>
                </g>
                <g id="arrowRight" xlink:href="#dirArrow" transform="rotate(90) translate(36 -43)" onmousedown="handlePan(1,0)">
                  <use xlink:href="#rim" fill="#404040">
                        <set attributeName="fill" to="#808080" begin="arrowRight.mouseover" end="arrowRight.mouseout"/>
                  </use>
                  <path fill="none" stroke="white" stroke-width="1.5" d="M0,-3.0v7 M-2.5,-0.5L0,-3.0L2.5,-0.5"/>
                </g>
                <g id="arrowDown" xlink:href="#dirArrow" transform="rotate(180) translate(-30 -48)" onmousedown="handlePan(0,1)">
                  <use xlink:href="#rim" fill="#404040">
                        <set attributeName="fill" to="#808080" begin="arrowDown.mouseover" end="arrowDown.mouseout"/>
                  </use>
                  <path fill="none" stroke="white" stroke-width="1.5" d="M0,-3.0v7 M-2.5,-0.5L0,-3.0L2.5,-0.5"/>
                </g>
                <g id="arrowLeft" xlink:href="#dirArrow" transform="rotate(270) translate(-36 17)" onmousedown="handlePan(-1,0)">
                  <use xlink:href="#rim" fill="#404040">
                        <set attributeName="fill" to="#808080" begin="arrowLeft.mouseover" end="arrowLeft.mouseout"/>
                  </use>
                  <path fill="none" stroke="white" stroke-width="1.5" d="M0,-3.0v7 M-2.5,-0.5L0,-3.0L2.5,-0.5"/>
                </g>
        </g>
        <svg viewBox="0 0 15 15" width="100%" height="30px" preserveAspectRatio="xMaxYMin meet">
         <g id="arrow_out" transform="scale(0.3 0.3)">
          <a xlink:href="J2DScreen_8cpp__incl_org.svg" target="_base">
           <rect id="button" ry="5" rx="5" y="6" x="6" height="38" width="38"
                fill="#f2f5e9" fill-opacity="0.5" stroke="#606060" stroke-width="1.0"/>
           <path id="arrow"
             d="M 11.500037,31.436501 C 11.940474,20.09759 22.043105,11.32322 32.158766,21.979434 L 37.068811,17.246167 C 37.068811,17.246167 37.088388,32 37.088388,32 L 22.160133,31.978069 C 22.160133,31.978069 26.997745,27.140456 26.997745,27.140456 C 18.528582,18.264221 13.291696,25.230495 11.500037,31.436501 z"
             style="fill:#404040;"/>
          </a>
         </g>
        </svg>
</svg>
