<?xml version="1.0" encoding="UTF-8" standalone="no"?>
<!DOCTYPE svg PUBLIC "-//W3C//DTD SVG 1.1//EN"
 "http://www.w3.org/Graphics/SVG/1.1/DTD/svg11.dtd">
<!-- Generated by graphviz version 2.47.0 (20210316.2052)
 -->
<!-- Title: libs/JSystem/J2DGraph/J2DTextBox.cpp Pages: 1 -->
<svg width="3701pt" height="184pt"
 viewBox="0.00 0.00 3701.00 184.00" xmlns="http://www.w3.org/2000/svg" xmlns:xlink="http://www.w3.org/1999/xlink">
<g id="graph0" class="graph" transform="scale(1 1) rotate(0) translate(4 180)">
<title>libs/JSystem/J2DGraph/J2DTextBox.cpp</title>
<polygon fill="white" stroke="transparent" points="-4,4 -4,-180 3697,-180 3697,4 -4,4"/>
<!-- Node1 -->
<g id="node1" class="node">
<title>Node1</title>
<g id="a_node1"><a xlink:title=" ">
<polygon fill="#bfbfbf" stroke="black" points="1830,-145.5 1830,-175.5 1949,-175.5 1949,-145.5 1830,-145.5"/>
<text text-anchor="start" x="1838" y="-163.5" font-family="Helvetica,sans-Serif" font-size="10.00">libs/JSystem/J2DGraph</text>
<text text-anchor="middle" x="1889.5" y="-152.5" font-family="Helvetica,sans-Serif" font-size="10.00">/J2DTextBox.cpp</text>
</a>
</g>
</g>
<!-- Node2 -->
<g id="node2" class="node">
<title>Node2</title>
<g id="a_node2"><a xlink:href="dol2asm_8h.html" target="_top" xlink:title=" ">
<polygon fill="white" stroke="black" points="0,-73 0,-92 61,-92 61,-73 0,-73"/>
<text text-anchor="middle" x="30.5" y="-80" font-family="Helvetica,sans-Serif" font-size="10.00">dol2asm.h</text>
</a>
</g>
</g>
<!-- Node1&#45;&gt;Node2 -->
<g id="edge1" class="edge">
<title>Node1&#45;&gt;Node2</title>
<path fill="none" stroke="midnightblue" d="M1829.63,-159.55C1535.12,-159.57 247.35,-156.88 75.5,-109 66.86,-106.59 58.12,-102.19 50.66,-97.7"/>
<polygon fill="midnightblue" stroke="midnightblue" points="52.32,-94.61 42.02,-92.13 48.53,-100.49 52.32,-94.61"/>
</g>
<!-- Node3 -->
<g id="node3" class="node">
<title>Node3</title>
<g id="a_node3"><a xlink:href="types_8h.html" target="_top" xlink:title=" ">
<polygon fill="white" stroke="black" points="98,-0.5 98,-19.5 179,-19.5 179,-0.5 98,-0.5"/>
<text text-anchor="middle" x="138.5" y="-7.5" font-family="Helvetica,sans-Serif" font-size="10.00">dolphin/types.h</text>
</a>
</g>
</g>
<!-- Node1&#45;&gt;Node3 -->
<g id="edge2" class="edge">
<title>Node1&#45;&gt;Node3</title>
<path fill="none" stroke="midnightblue" d="M1829.84,-158.94C1523.37,-155.92 139.17,-140.56 108.5,-109 86.81,-86.68 108.76,-49.12 124.85,-27.55"/>
<polygon fill="midnightblue" stroke="midnightblue" points="127.63,-29.67 131.03,-19.64 122.12,-25.36 127.63,-29.67"/>
</g>
<!-- Node4 -->
<g id="node4" class="node">
<title>Node4</title>
<g id="a_node4"><a xlink:href="J2DTextBox_8h.html" target="_top" xlink:title=" ">
<polygon fill="white" stroke="black" points="117.5,-67.5 117.5,-97.5 257.5,-97.5 257.5,-67.5 117.5,-67.5"/>
<text text-anchor="start" x="125.5" y="-85.5" font-family="Helvetica,sans-Serif" font-size="10.00">JSystem/J2DGraph/J2DText</text>
<text text-anchor="middle" x="187.5" y="-74.5" font-family="Helvetica,sans-Serif" font-size="10.00">Box.h</text>
</a>
</g>
</g>
<!-- Node1&#45;&gt;Node4 -->
<g id="edge3" class="edge">
<title>Node1&#45;&gt;Node4</title>
<path fill="none" stroke="midnightblue" d="M1829.74,-159.85C1574.74,-161.01 576.59,-162.01 267.5,-109 256.5,-107.11 244.92,-104.07 234.1,-100.74"/>
<polygon fill="midnightblue" stroke="midnightblue" points="235,-97.35 224.41,-97.62 232.86,-104.02 235,-97.35"/>
</g>
<!-- Node5 -->
<g id="node5" class="node">
<title>Node5</title>
<g id="a_node5"><a xlink:title=" ">
<polygon fill="white" stroke="#bfbfbf" points="276,-62 276,-103 427,-103 427,-62 276,-62"/>
<text text-anchor="start" x="284" y="-91" font-family="Helvetica,sans-Serif" font-size="10.00">asm/JSystem/J2DGraph</text>
<text text-anchor="start" x="284" y="-80" font-family="Helvetica,sans-Serif" font-size="10.00">/J2DTextBox/__ct__10J2DText</text>
<text text-anchor="middle" x="351.5" y="-69" font-family="Helvetica,sans-Serif" font-size="10.00">BoxFv.s</text>
</a>
</g>
</g>
<!-- Node1&#45;&gt;Node5 -->
<g id="edge5" class="edge">
<title>Node1&#45;&gt;Node5</title>
<path fill="none" stroke="midnightblue" d="M1829.67,-159.46C1591.61,-159 711.24,-154.21 436.5,-109 430.85,-108.07 425.05,-106.87 419.26,-105.51"/>
<polygon fill="midnightblue" stroke="midnightblue" points="420.12,-102.11 409.56,-103.06 418.41,-108.9 420.12,-102.11"/>
</g>
<!-- Node6 -->
<g id="node6" class="node">
<title>Node6</title>
<g id="a_node6"><a xlink:title=" ">
<polygon fill="white" stroke="#bfbfbf" points="445,-56.5 445,-108.5 662,-108.5 662,-56.5 445,-56.5"/>
<text text-anchor="start" x="453" y="-96.5" font-family="Helvetica,sans-Serif" font-size="10.00">asm/JSystem/J2DGraph</text>
<text text-anchor="start" x="453" y="-85.5" font-family="Helvetica,sans-Serif" font-size="10.00">/J2DTextBox/__ct__10J2DText</text>
<text text-anchor="start" x="453" y="-74.5" font-family="Helvetica,sans-Serif" font-size="10.00">BoxFP7J2DPaneP20JSURandomInputStream</text>
<text text-anchor="middle" x="553.5" y="-63.5" font-family="Helvetica,sans-Serif" font-size="10.00">P10JKRArchive.s</text>
</a>
</g>
</g>
<!-- Node1&#45;&gt;Node6 -->
<g id="edge6" class="edge">
<title>Node1&#45;&gt;Node6</title>
<path fill="none" stroke="midnightblue" d="M1829.9,-158.38C1620.61,-154.25 919.08,-138.59 672.05,-108.93"/>
<polygon fill="midnightblue" stroke="midnightblue" points="672.4,-105.45 662.04,-107.69 671.53,-112.39 672.4,-105.45"/>
</g>
<!-- Node7 -->
<g id="node7" class="node">
<title>Node7</title>
<g id="a_node7"><a xlink:title=" ">
<polygon fill="white" stroke="#bfbfbf" points="680,-56.5 680,-108.5 897,-108.5 897,-56.5 680,-56.5"/>
<text text-anchor="start" x="688" y="-96.5" font-family="Helvetica,sans-Serif" font-size="10.00">asm/JSystem/J2DGraph</text>
<text text-anchor="start" x="688" y="-85.5" font-family="Helvetica,sans-Serif" font-size="10.00">/J2DTextBox/__ct__10J2DText</text>
<text text-anchor="start" x="688" y="-74.5" font-family="Helvetica,sans-Serif" font-size="10.00">BoxFP7J2DPaneP20JSURandomInputStream</text>
<text text-anchor="middle" x="788.5" y="-63.5" font-family="Helvetica,sans-Serif" font-size="10.00">UlP11J2DMaterial.s</text>
</a>
</g>
</g>
<!-- Node1&#45;&gt;Node7 -->
<g id="edge7" class="edge">
<title>Node1&#45;&gt;Node7</title>
<path fill="none" stroke="midnightblue" d="M1829.91,-159.78C1677.67,-159.78 1261.99,-155.28 907,-108.96"/>
<polygon fill="midnightblue" stroke="midnightblue" points="907.42,-105.48 897.05,-107.65 906.5,-112.42 907.42,-105.48"/>
</g>
<!-- Node8 -->
<g id="node8" class="node">
<title>Node8</title>
<g id="a_node8"><a xlink:title=" ">
<polygon fill="white" stroke="#bfbfbf" points="915,-67.5 915,-97.5 1068,-97.5 1068,-67.5 915,-67.5"/>
<text text-anchor="start" x="923" y="-85.5" font-family="Helvetica,sans-Serif" font-size="10.00">asm/JSystem/J2DGraph</text>
<text text-anchor="middle" x="991.5" y="-74.5" font-family="Helvetica,sans-Serif" font-size="10.00">/J2DTextBox/func_802FFBC4.s</text>
</a>
</g>
</g>
<!-- Node1&#45;&gt;Node8 -->
<g id="edge8" class="edge">
<title>Node1&#45;&gt;Node8</title>
<path fill="none" stroke="midnightblue" d="M1829.82,-157.54C1667.79,-151.94 1222.15,-134.6 1077.5,-109 1065.88,-106.94 1053.6,-103.87 1042.07,-100.56"/>
<polygon fill="midnightblue" stroke="midnightblue" points="1042.75,-97.11 1032.17,-97.61 1040.75,-103.82 1042.75,-97.11"/>
</g>
<!-- Node9 -->
<g id="node9" class="node">
<title>Node9</title>
<g id="a_node9"><a xlink:title=" ">
<polygon fill="white" stroke="#bfbfbf" points="1086.5,-56.5 1086.5,-108.5 1304.5,-108.5 1304.5,-56.5 1086.5,-56.5"/>
<text text-anchor="start" x="1094.5" y="-96.5" font-family="Helvetica,sans-Serif" font-size="10.00">asm/JSystem/J2DGraph</text>
<text text-anchor="start" x="1094.5" y="-85.5" font-family="Helvetica,sans-Serif" font-size="10.00">/J2DTextBox/initiate</text>
<text text-anchor="start" x="1094.5" y="-74.5" font-family="Helvetica,sans-Serif" font-size="10.00">__10J2DTextBoxFPC7ResFONTPCcs18</text>
<text text-anchor="middle" x="1195.5" y="-63.5" font-family="Helvetica,sans-Serif" font-size="10.00">J2DTextBoxHBinding18J2DTextBoxVBinding.s</text>
</a>
</g>
</g>
<!-- Node1&#45;&gt;Node9 -->
<g id="edge9" class="edge">
<title>Node1&#45;&gt;Node9</title>
<path fill="none" stroke="midnightblue" d="M1829.61,-156.68C1726.55,-151.3 1508.9,-137.59 1314.77,-108.95"/>
<polygon fill="midnightblue" stroke="midnightblue" points="1315.08,-105.45 1304.67,-107.44 1314.04,-112.38 1315.08,-105.45"/>
</g>
<!-- Node10 -->
<g id="node10" class="node">
<title>Node10</title>
<g id="a_node10"><a xlink:title=" ">
<polygon fill="white" stroke="#bfbfbf" points="1323,-56.5 1323,-108.5 1544,-108.5 1544,-56.5 1323,-56.5"/>
<text text-anchor="start" x="1331" y="-96.5" font-family="Helvetica,sans-Serif" font-size="10.00">asm/JSystem/J2DGraph</text>
<text text-anchor="start" x="1331" y="-85.5" font-family="Helvetica,sans-Serif" font-size="10.00">/J2DTextBox/private_readStream</text>
<text text-anchor="start" x="1331" y="-74.5" font-family="Helvetica,sans-Serif" font-size="10.00">__10J2DTextBoxFP7J2DPaneP20JSURandom</text>
<text text-anchor="middle" x="1433.5" y="-63.5" font-family="Helvetica,sans-Serif" font-size="10.00">InputStreamP10JKRArchive.s</text>
</a>
</g>
</g>
<!-- Node1&#45;&gt;Node10 -->
<g id="edge10" class="edge">
<title>Node1&#45;&gt;Node10</title>
<path fill="none" stroke="midnightblue" d="M1829.84,-151.64C1764.63,-142.8 1656.85,-127.46 1554.19,-109.08"/>
<polygon fill="midnightblue" stroke="midnightblue" points="1554.74,-105.62 1544.28,-107.29 1553.5,-112.51 1554.74,-105.62"/>
</g>
<!-- Node11 -->
<g id="node11" class="node">
<title>Node11</title>
<g id="a_node11"><a xlink:title=" ">
<polygon fill="white" stroke="#bfbfbf" points="1562,-62 1562,-103 1713,-103 1713,-62 1562,-62"/>
<text text-anchor="start" x="1570" y="-91" font-family="Helvetica,sans-Serif" font-size="10.00">asm/JSystem/J2DGraph</text>
<text text-anchor="start" x="1570" y="-80" font-family="Helvetica,sans-Serif" font-size="10.00">/J2DTextBox/__dt__10J2DText</text>
<text text-anchor="middle" x="1637.5" y="-69" font-family="Helvetica,sans-Serif" font-size="10.00">BoxFv.s</text>
</a>
</g>
</g>
<!-- Node1&#45;&gt;Node11 -->
<g id="edge11" class="edge">
<title>Node1&#45;&gt;Node11</title>
<path fill="none" stroke="midnightblue" d="M1842.99,-145.47C1806.31,-134.41 1754.44,-118.77 1711.99,-105.97"/>
<polygon fill="midnightblue" stroke="midnightblue" points="1712.84,-102.57 1702.26,-103.03 1710.82,-109.27 1712.84,-102.57"/>
</g>
<!-- Node12 -->
<g id="node12" class="node">
<title>Node12</title>
<g id="a_node12"><a xlink:title=" ">
<polygon fill="white" stroke="#bfbfbf" points="1731,-62 1731,-103 1880,-103 1880,-62 1731,-62"/>
<text text-anchor="start" x="1739" y="-91" font-family="Helvetica,sans-Serif" font-size="10.00">asm/JSystem/J2DGraph</text>
<text text-anchor="start" x="1739" y="-80" font-family="Helvetica,sans-Serif" font-size="10.00">/J2DTextBox/setFont_</text>
<text text-anchor="middle" x="1805.5" y="-69" font-family="Helvetica,sans-Serif" font-size="10.00">_10J2DTextBoxFP7JUTFont.s</text>
</a>
</g>
</g>
<!-- Node1&#45;&gt;Node12 -->
<g id="edge12" class="edge">
<title>Node1&#45;&gt;Node12</title>
<path fill="none" stroke="midnightblue" d="M1873.7,-145.2C1862.74,-135.28 1847.8,-121.77 1834.71,-109.93"/>
<polygon fill="midnightblue" stroke="midnightblue" points="1837.02,-107.29 1827.25,-103.18 1832.32,-112.48 1837.02,-107.29"/>
</g>
<!-- Node13 -->
<g id="node13" class="node">
<title>Node13</title>
<g id="a_node13"><a xlink:title=" ">
<polygon fill="white" stroke="#bfbfbf" points="1898,-62 1898,-103 2051,-103 2051,-62 1898,-62"/>
<text text-anchor="start" x="1906" y="-91" font-family="Helvetica,sans-Serif" font-size="10.00">asm/JSystem/J2DGraph</text>
<text text-anchor="start" x="1906" y="-80" font-family="Helvetica,sans-Serif" font-size="10.00">/J2DTextBox/draw__10J2DText</text>
<text text-anchor="middle" x="1974.5" y="-69" font-family="Helvetica,sans-Serif" font-size="10.00">BoxFff.s</text>
</a>
</g>
</g>
<!-- Node1&#45;&gt;Node13 -->
<g id="edge13" class="edge">
<title>Node1&#45;&gt;Node13</title>
<path fill="none" stroke="midnightblue" d="M1905.49,-145.2C1916.58,-135.28 1931.69,-121.77 1944.95,-109.93"/>
<polygon fill="midnightblue" stroke="midnightblue" points="1947.37,-112.45 1952.49,-103.18 1942.7,-107.24 1947.37,-112.45"/>
</g>
<!-- Node14 -->
<g id="node14" class="node">
<title>Node14</title>
<g id="a_node14"><a xlink:title=" ">
<polygon fill="white" stroke="#bfbfbf" points="2069.5,-62 2069.5,-103 2227.5,-103 2227.5,-62 2069.5,-62"/>
<text text-anchor="start" x="2077.5" y="-91" font-family="Helvetica,sans-Serif" font-size="10.00">asm/JSystem/J2DGraph</text>
<text text-anchor="start" x="2077.5" y="-80" font-family="Helvetica,sans-Serif" font-size="10.00">/J2DTextBox/draw__10J2DText</text>
<text text-anchor="middle" x="2148.5" y="-69" font-family="Helvetica,sans-Serif" font-size="10.00">BoxFfff18J2DTextBoxHBinding.s</text>
</a>
</g>
</g>
<!-- Node1&#45;&gt;Node14 -->
<g id="edge14" class="edge">
<title>Node1&#45;&gt;Node14</title>
<path fill="none" stroke="midnightblue" d="M1937.31,-145.47C1975.08,-134.39 2028.54,-118.7 2072.21,-105.89"/>
<polygon fill="midnightblue" stroke="midnightblue" points="2073.33,-109.2 2081.94,-103.03 2071.36,-102.49 2073.33,-109.2"/>
</g>
<!-- Node15 -->
<g id="node15" class="node">
<title>Node15</title>
<g id="a_node15"><a xlink:title=" ">
<polygon fill="white" stroke="#bfbfbf" points="2246,-62 2246,-103 2373,-103 2373,-62 2246,-62"/>
<text text-anchor="start" x="2254" y="-91" font-family="Helvetica,sans-Serif" font-size="10.00">asm/JSystem/J2DGraph</text>
<text text-anchor="start" x="2254" y="-80" font-family="Helvetica,sans-Serif" font-size="10.00">/J2DTextBox/getStringPtr</text>
<text text-anchor="middle" x="2309.5" y="-69" font-family="Helvetica,sans-Serif" font-size="10.00">__10J2DTextBoxCFv.s</text>
</a>
</g>
</g>
<!-- Node1&#45;&gt;Node15 -->
<g id="edge15" class="edge">
<title>Node1&#45;&gt;Node15</title>
<path fill="none" stroke="midnightblue" d="M1949.11,-154.33C2018.77,-147.48 2137.16,-133.34 2236.5,-109 2240.1,-108.12 2243.78,-107.13 2247.47,-106.07"/>
<polygon fill="midnightblue" stroke="midnightblue" points="2248.67,-109.36 2257.23,-103.11 2246.64,-102.66 2248.67,-109.36"/>
</g>
<!-- Node16 -->
<g id="node16" class="node">
<title>Node16</title>
<g id="a_node16"><a xlink:title=" ">
<polygon fill="white" stroke="#bfbfbf" points="2391.5,-62 2391.5,-103 2519.5,-103 2519.5,-62 2391.5,-62"/>
<text text-anchor="start" x="2399.5" y="-91" font-family="Helvetica,sans-Serif" font-size="10.00">asm/JSystem/J2DGraph</text>
<text text-anchor="start" x="2399.5" y="-80" font-family="Helvetica,sans-Serif" font-size="10.00">/J2DTextBox/setString</text>
<text text-anchor="middle" x="2455.5" y="-69" font-family="Helvetica,sans-Serif" font-size="10.00">__10J2DTextBoxFPCce.s</text>
</a>
</g>
</g>
<!-- Node1&#45;&gt;Node16 -->
<g id="edge16" class="edge">
<title>Node1&#45;&gt;Node16</title>
<path fill="none" stroke="midnightblue" d="M1949.03,-157.88C2042.42,-154.35 2228.6,-143.26 2382.5,-109 2386.55,-108.1 2390.69,-107.04 2394.84,-105.88"/>
<polygon fill="midnightblue" stroke="midnightblue" points="2395.9,-109.22 2404.49,-103.01 2393.91,-102.51 2395.9,-109.22"/>
</g>
<!-- Node17 -->
<g id="node17" class="node">
<title>Node17</title>
<g id="a_node17"><a xlink:title=" ">
<polygon fill="white" stroke="#bfbfbf" points="2538,-62 2538,-103 2671,-103 2671,-62 2538,-62"/>
<text text-anchor="start" x="2546" y="-91" font-family="Helvetica,sans-Serif" font-size="10.00">asm/JSystem/J2DGraph</text>
<text text-anchor="start" x="2546" y="-80" font-family="Helvetica,sans-Serif" font-size="10.00">/J2DTextBox/setString</text>
<text text-anchor="middle" x="2604.5" y="-69" font-family="Helvetica,sans-Serif" font-size="10.00">__10J2DTextBoxFsPCce.s</text>
</a>
</g>
</g>
<!-- Node1&#45;&gt;Node17 -->
<g id="edge17" class="edge">
<title>Node1&#45;&gt;Node17</title>
<path fill="none" stroke="midnightblue" d="M1949.2,-159.63C2063.06,-158.8 2318.6,-151.83 2528.5,-109 2532.91,-108.1 2537.43,-107.02 2541.95,-105.82"/>
<polygon fill="midnightblue" stroke="midnightblue" points="2543.14,-109.12 2551.8,-103.02 2541.23,-102.38 2543.14,-109.12"/>
</g>
<!-- Node18 -->
<g id="node18" class="node">
<title>Node18</title>
<g id="a_node18"><a xlink:title=" ">
<polygon fill="white" stroke="#bfbfbf" points="2689,-62 2689,-103 2842,-103 2842,-62 2689,-62"/>
<text text-anchor="start" x="2697" y="-91" font-family="Helvetica,sans-Serif" font-size="10.00">asm/JSystem/J2DGraph</text>
<text text-anchor="start" x="2697" y="-80" font-family="Helvetica,sans-Serif" font-size="10.00">/J2DTextBox/setConnectParent</text>
<text text-anchor="middle" x="2765.5" y="-69" font-family="Helvetica,sans-Serif" font-size="10.00">__10J2DTextBoxFb.s</text>
</a>
</g>
</g>
<!-- Node1&#45;&gt;Node18 -->
<g id="edge18" class="edge">
<title>Node1&#45;&gt;Node18</title>
<path fill="none" stroke="midnightblue" d="M1949.09,-160.3C2081.68,-161.07 2410.63,-157.44 2680.5,-109 2685.81,-108.05 2691.25,-106.88 2696.7,-105.57"/>
<polygon fill="midnightblue" stroke="midnightblue" points="2697.64,-108.94 2706.47,-103.08 2695.92,-102.16 2697.64,-108.94"/>
</g>
<!-- Node19 -->
<g id="node19" class="node">
<title>Node19</title>
<g id="a_node19"><a xlink:title=" ">
<polygon fill="white" stroke="#bfbfbf" points="2860,-62 2860,-103 2983,-103 2983,-62 2860,-62"/>
<text text-anchor="start" x="2868" y="-91" font-family="Helvetica,sans-Serif" font-size="10.00">asm/JSystem/J2DGraph</text>
<text text-anchor="start" x="2868" y="-80" font-family="Helvetica,sans-Serif" font-size="10.00">/J2DTextBox/drawSelf</text>
<text text-anchor="middle" x="2921.5" y="-69" font-family="Helvetica,sans-Serif" font-size="10.00">__10J2DTextBoxFff.s</text>
</a>
</g>
</g>
<!-- Node1&#45;&gt;Node19 -->
<g id="edge19" class="edge">
<title>Node1&#45;&gt;Node19</title>
<path fill="none" stroke="midnightblue" d="M1949.27,-158.68C2131.41,-155.81 2677.68,-144.4 2851.5,-109 2855.56,-108.17 2859.71,-107.15 2863.85,-106"/>
<polygon fill="midnightblue" stroke="midnightblue" points="2864.9,-109.34 2873.46,-103.1 2862.88,-102.64 2864.9,-109.34"/>
</g>
<!-- Node20 -->
<g id="node20" class="node">
<title>Node20</title>
<g id="a_node20"><a xlink:title=" ">
<polygon fill="white" stroke="#bfbfbf" points="3001,-62 3001,-103 3154,-103 3154,-62 3001,-62"/>
<text text-anchor="start" x="3009" y="-91" font-family="Helvetica,sans-Serif" font-size="10.00">asm/JSystem/J2DGraph</text>
<text text-anchor="start" x="3009" y="-80" font-family="Helvetica,sans-Serif" font-size="10.00">/J2DTextBox/drawSelf</text>
<text text-anchor="middle" x="3077.5" y="-69" font-family="Helvetica,sans-Serif" font-size="10.00">__10J2DTextBoxFffPA3_A4_f.s</text>
</a>
</g>
</g>
<!-- Node1&#45;&gt;Node20 -->
<g id="edge20" class="edge">
<title>Node1&#45;&gt;Node20</title>
<path fill="none" stroke="midnightblue" d="M1949.33,-158.7C2148.7,-155.71 2789.23,-143.6 2992.5,-109 2997.91,-108.08 3003.46,-106.92 3009.01,-105.61"/>
<polygon fill="midnightblue" stroke="midnightblue" points="3010.12,-108.94 3018.96,-103.1 3008.41,-102.15 3010.12,-108.94"/>
</g>
<!-- Node21 -->
<g id="node21" class="node">
<title>Node21</title>
<g id="a_node21"><a xlink:title=" ">
<polygon fill="white" stroke="#bfbfbf" points="3172.5,-62 3172.5,-103 3330.5,-103 3330.5,-62 3172.5,-62"/>
<text text-anchor="start" x="3180.5" y="-91" font-family="Helvetica,sans-Serif" font-size="10.00">asm/JSystem/J2DGraph</text>
<text text-anchor="start" x="3180.5" y="-80" font-family="Helvetica,sans-Serif" font-size="10.00">/J2DTextBox/resize__10J2DText</text>
<text text-anchor="middle" x="3251.5" y="-69" font-family="Helvetica,sans-Serif" font-size="10.00">BoxFff.s</text>
</a>
</g>
</g>
<!-- Node1&#45;&gt;Node21 -->
<g id="edge21" class="edge">
<title>Node1&#45;&gt;Node21</title>
<path fill="none" stroke="midnightblue" d="M1949.26,-159.05C2168.08,-157.1 2925.2,-147.66 3163.5,-109 3169.33,-108.05 3175.33,-106.84 3181.31,-105.47"/>
<polygon fill="midnightblue" stroke="midnightblue" points="3182.47,-108.79 3191.35,-103.01 3180.8,-101.99 3182.47,-108.79"/>
</g>
<!-- Node22 -->
<g id="node22" class="node">
<title>Node22</title>
<g id="a_node22"><a xlink:title=" ">
<polygon fill="white" stroke="#bfbfbf" points="3349,-62 3349,-103 3512,-103 3512,-62 3349,-62"/>
<text text-anchor="start" x="3357" y="-91" font-family="Helvetica,sans-Serif" font-size="10.00">asm/JSystem/J2DGraph</text>
<text text-anchor="start" x="3357" y="-80" font-family="Helvetica,sans-Serif" font-size="10.00">/J2DTextBox/isUsed__10J2DText</text>
<text text-anchor="middle" x="3430.5" y="-69" font-family="Helvetica,sans-Serif" font-size="10.00">BoxFPC7ResFONT.s</text>
</a>
</g>
</g>
<!-- Node1&#45;&gt;Node22 -->
<g id="edge22" class="edge">
<title>Node1&#45;&gt;Node22</title>
<path fill="none" stroke="midnightblue" d="M1949.18,-159.32C2186.66,-158.29 3064.92,-151.63 3339.5,-109 3345.67,-108.04 3352.02,-106.81 3358.35,-105.39"/>
<polygon fill="midnightblue" stroke="midnightblue" points="3359.35,-108.76 3368.27,-103.05 3357.74,-101.94 3359.35,-108.76"/>
</g>
<!-- Node23 -->
<g id="node23" class="node">
<title>Node23</title>
<g id="a_node23"><a xlink:title=" ">
<polygon fill="white" stroke="#bfbfbf" points="3530,-62 3530,-103 3693,-103 3693,-62 3530,-62"/>
<text text-anchor="start" x="3538" y="-91" font-family="Helvetica,sans-Serif" font-size="10.00">asm/JSystem/J2DGraph</text>
<text text-anchor="start" x="3538" y="-80" font-family="Helvetica,sans-Serif" font-size="10.00">/J2DTextBox/isUsed__10J2DText</text>
<text text-anchor="middle" x="3611.5" y="-69" font-family="Helvetica,sans-Serif" font-size="10.00">BoxFPC7ResTIMG.s</text>
</a>
</g>
</g>
<!-- Node1&#45;&gt;Node23 -->
<g id="edge23" class="edge">
<title>Node1&#45;&gt;Node23</title>
<path fill="none" stroke="midnightblue" d="M1949.15,-159.61C2204.86,-159.77 3209.5,-157.28 3521.5,-109 3527.61,-108.05 3533.89,-106.83 3540.16,-105.42"/>
<polygon fill="midnightblue" stroke="midnightblue" points="3541.06,-108.81 3549.97,-103.08 3539.43,-102 3541.06,-108.81"/>
</g>
<!-- Node4&#45;&gt;Node3 -->
<g id="edge4" class="edge">
<title>Node4&#45;&gt;Node3</title>
<path fill="none" stroke="midnightblue" d="M177.58,-67.23C169.74,-55.95 158.76,-40.15 150.43,-28.17"/>
<polygon fill="midnightblue" stroke="midnightblue" points="153.26,-26.11 144.68,-19.89 147.51,-30.1 153.26,-26.11"/>
</g>
</g>
</svg>
