<?xml version="1.0" encoding="UTF-8" standalone="no"?>
<!DOCTYPE svg PUBLIC "-//W3C//DTD SVG 1.1//EN"
 "http://www.w3.org/Graphics/SVG/1.1/DTD/svg11.dtd">
<!-- Generated by graphviz version 2.47.0 (20210316.2052)
 -->
<!-- Title: libs/JSystem/J2DGraph/J2DTextBoxEx.cpp Pages: 1 -->
<!--zoomable 184 -->
<svg id="main" version="1.1" xmlns="http://www.w3.org/2000/svg" xmlns:xlink="http://www.w3.org/1999/xlink" xml:space="preserve" onload="init(evt)">
<style type="text/css"><![CDATA[
.edge:hover path { stroke: red; }
.edge:hover polygon { stroke: red; fill: red; }
]]></style>
<script type="text/javascript"><![CDATA[
var edges = document.getElementsByTagName('g');
if (edges && edges.length) {
  for (var i=0;i<edges.length;i++) {
    if (edges[i].id.substr(0,4)=='edge') {
      edges[i].setAttribute('class','edge');
    }
  }
}
]]></script>
        <defs>
                <circle id="rim" cx="0" cy="0" r="7"/>
                <circle id="rim2" cx="0" cy="0" r="3.5"/>
                <g id="zoomPlus">
                        <use xlink:href="#rim" fill="#404040">
                                <set attributeName="fill" to="#808080" begin="zoomplus.mouseover" end="zoomplus.mouseout"/>
                        </use>
                        <path d="M-4,0h8M0,-4v8" fill="none" stroke="white" stroke-width="1.5" pointer-events="none"/>
                </g>
                <g id="zoomMin">
                        <use xlink:href="#rim" fill="#404040">
                                <set attributeName="fill" to="#808080" begin="zoomminus.mouseover" end="zoomminus.mouseout"/>
                        </use>
                        <path d="M-4,0h8" fill="none" stroke="white" stroke-width="1.5" pointer-events="none"/>
                </g>
                <g id="dirArrow">
                        <path fill="none" stroke="white" stroke-width="1.5" d="M0,-3.0v7 M-2.5,-0.5L0,-3.0L2.5,-0.5"/>
                </g>
               <g id="resetDef">
                       <use xlink:href="#rim2" fill="#404040">
                               <set attributeName="fill" to="#808080" begin="reset.mouseover" end="reset.mouseout"/>
                       </use>
               </g>
        </defs>

<script type="text/javascript">
var viewWidth = 6274;
var viewHeight = 184;
var sectionId = 'dynsection-0';
</script>
<script xlink:href="svgpan.js"/>
<svg id="graph" class="graph">
<g id="viewport">
<title>libs/JSystem/J2DGraph/J2DTextBoxEx.cpp</title>
<polygon fill="white" stroke="transparent" points="-4,4 -4,-180 6270,-180 6270,4 -4,4"/>
<!-- Node1 -->
<g id="node1" class="node">
<title>Node1</title>
<g id="a_node1"><a xlink:title=" ">
<polygon fill="#bfbfbf" stroke="black" points="2879,-145.5 2879,-175.5 2998,-175.5 2998,-145.5 2879,-145.5"/>
<text text-anchor="start" x="2887" y="-163.5" font-family="Helvetica,sans-Serif" font-size="10.00">libs/JSystem/J2DGraph</text>
<text text-anchor="middle" x="2938.5" y="-152.5" font-family="Helvetica,sans-Serif" font-size="10.00">/J2DTextBoxEx.cpp</text>
</a>
</g>
</g>
<!-- Node2 -->
<g id="node2" class="node">
<title>Node2</title>
<g id="a_node2"><a xlink:href="dol2asm_8h.html" target="_top" xlink:title=" ">
<polygon fill="white" stroke="black" points="0,-73 0,-92 61,-92 61,-73 0,-73"/>
<text text-anchor="middle" x="30.5" y="-80" font-family="Helvetica,sans-Serif" font-size="10.00">dol2asm.h</text>
</a>
</g>
</g>
<!-- Node1&#45;&gt;Node2 -->
<g id="edge1" class="edge">
<title>Node1&#45;&gt;Node2</title>
<path fill="none" stroke="midnightblue" d="M2878.96,-159.28C2480.75,-157.73 215.44,-147.22 75.5,-109 66.85,-106.64 58.1,-102.24 50.65,-97.75"/>
<polygon fill="midnightblue" stroke="midnightblue" points="52.3,-94.65 42.01,-92.17 48.51,-100.53 52.3,-94.65"/>
</g>
<!-- Node3 -->
<g id="node3" class="node">
<title>Node3</title>
<g id="a_node3"><a xlink:href="types_8h.html" target="_top" xlink:title=" ">
<polygon fill="white" stroke="black" points="98,-0.5 98,-19.5 179,-19.5 179,-0.5 98,-0.5"/>
<text text-anchor="middle" x="138.5" y="-7.5" font-family="Helvetica,sans-Serif" font-size="10.00">dolphin/types.h</text>
</a>
</g>
</g>
<!-- Node1&#45;&gt;Node3 -->
<g id="edge2" class="edge">
<title>Node1&#45;&gt;Node3</title>
<path fill="none" stroke="midnightblue" d="M2878.9,-159.58C2475.45,-160.01 158.79,-160.2 108.5,-109 86.69,-86.8 108.69,-49.19 124.81,-27.59"/>
<polygon fill="midnightblue" stroke="midnightblue" points="127.61,-29.69 131.01,-19.65 122.09,-25.38 127.61,-29.69"/>
</g>
<!-- Node4 -->
<g id="node4" class="node">
<title>Node4</title>
<g id="a_node4"><a xlink:href="J2DTextBoxEx_8h.html" target="_top" xlink:title=" ">
<polygon fill="white" stroke="black" points="117.5,-67.5 117.5,-97.5 257.5,-97.5 257.5,-67.5 117.5,-67.5"/>
<text text-anchor="start" x="125.5" y="-85.5" font-family="Helvetica,sans-Serif" font-size="10.00">JSystem/J2DGraph/J2DText</text>
<text text-anchor="middle" x="187.5" y="-74.5" font-family="Helvetica,sans-Serif" font-size="10.00">BoxEx.h</text>
</a>
</g>
</g>
<!-- Node1&#45;&gt;Node4 -->
<g id="edge3" class="edge">
<title>Node1&#45;&gt;Node4</title>
<path fill="none" stroke="midnightblue" d="M2878.88,-159.41C2508.8,-158.69 532.76,-152.83 267.5,-109 256.38,-107.16 244.68,-104.11 233.76,-100.74"/>
<polygon fill="midnightblue" stroke="midnightblue" points="234.58,-97.33 223.99,-97.58 232.43,-103.99 234.58,-97.33"/>
</g>
<!-- Node5 -->
<g id="node5" class="node">
<title>Node5</title>
<g id="a_node5"><a xlink:title=" ">
<polygon fill="white" stroke="#bfbfbf" points="276,-56.5 276,-108.5 503,-108.5 503,-56.5 276,-56.5"/>
<text text-anchor="start" x="284" y="-96.5" font-family="Helvetica,sans-Serif" font-size="10.00">asm/JSystem/J2DGraph</text>
<text text-anchor="start" x="284" y="-85.5" font-family="Helvetica,sans-Serif" font-size="10.00">/J2DTextBoxEx/__ct__12J2DText</text>
<text text-anchor="start" x="284" y="-74.5" font-family="Helvetica,sans-Serif" font-size="10.00">BoxExFP7J2DPaneP20JSURandomInputStream</text>
<text text-anchor="middle" x="389.5" y="-63.5" font-family="Helvetica,sans-Serif" font-size="10.00">UlP11J2DMaterial.s</text>
</a>
</g>
</g>
<!-- Node1&#45;&gt;Node5 -->
<g id="edge5" class="edge">
<title>Node1&#45;&gt;Node5</title>
<path fill="none" stroke="midnightblue" d="M2878.96,-159.74C2556.22,-160.84 1012.97,-163.16 513.47,-108.99"/>
<polygon fill="midnightblue" stroke="midnightblue" points="513.63,-105.48 503.3,-107.86 512.86,-112.44 513.63,-105.48"/>
</g>
<!-- Node6 -->
<g id="node6" class="node">
<title>Node6</title>
<g id="a_node6"><a xlink:title=" ">
<polygon fill="white" stroke="#bfbfbf" points="521,-62 521,-103 682,-103 682,-62 521,-62"/>
<text text-anchor="start" x="529" y="-91" font-family="Helvetica,sans-Serif" font-size="10.00">asm/JSystem/J2DGraph</text>
<text text-anchor="start" x="529" y="-80" font-family="Helvetica,sans-Serif" font-size="10.00">/J2DTextBoxEx/__dt__12J2DText</text>
<text text-anchor="middle" x="601.5" y="-69" font-family="Helvetica,sans-Serif" font-size="10.00">BoxExFv.s</text>
</a>
</g>
</g>
<!-- Node1&#45;&gt;Node6 -->
<g id="edge6" class="edge">
<title>Node1&#45;&gt;Node6</title>
<path fill="none" stroke="midnightblue" d="M2878.92,-159.06C2544.99,-156.5 913.01,-142.32 691.5,-109 685.28,-108.06 678.89,-106.83 672.51,-105.41"/>
<polygon fill="midnightblue" stroke="midnightblue" points="673.07,-101.94 662.53,-103.03 671.45,-108.75 673.07,-101.94"/>
</g>
<!-- Node7 -->
<g id="node7" class="node">
<title>Node7</title>
<g id="a_node7"><a xlink:title=" ">
<polygon fill="white" stroke="#bfbfbf" points="700.5,-62 700.5,-103 864.5,-103 864.5,-62 700.5,-62"/>
<text text-anchor="start" x="708.5" y="-91" font-family="Helvetica,sans-Serif" font-size="10.00">asm/JSystem/J2DGraph</text>
<text text-anchor="start" x="708.5" y="-80" font-family="Helvetica,sans-Serif" font-size="10.00">/J2DTextBoxEx/drawSelf</text>
<text text-anchor="middle" x="782.5" y="-69" font-family="Helvetica,sans-Serif" font-size="10.00">__12J2DTextBoxExFffPA3_A4_f.s</text>
</a>
</g>
</g>
<!-- Node1&#45;&gt;Node7 -->
<g id="edge7" class="edge">
<title>Node1&#45;&gt;Node7</title>
<path fill="none" stroke="midnightblue" d="M2878.89,-158.93C2561.39,-155.75 1076.04,-139.37 873.5,-109 867.22,-108.06 860.75,-106.82 854.31,-105.39"/>
<polygon fill="midnightblue" stroke="midnightblue" points="854.76,-101.9 844.22,-103.01 853.15,-108.71 854.76,-101.9"/>
</g>
<!-- Node8 -->
<g id="node8" class="node">
<title>Node8</title>
<g id="a_node8"><a xlink:title=" ">
<polygon fill="white" stroke="#bfbfbf" points="882.5,-62 882.5,-103 1046.5,-103 1046.5,-62 882.5,-62"/>
<text text-anchor="start" x="890.5" y="-91" font-family="Helvetica,sans-Serif" font-size="10.00">asm/JSystem/J2DGraph</text>
<text text-anchor="start" x="890.5" y="-80" font-family="Helvetica,sans-Serif" font-size="10.00">/J2DTextBoxEx/draw__12J2DText</text>
<text text-anchor="middle" x="964.5" y="-69" font-family="Helvetica,sans-Serif" font-size="10.00">BoxExFff.s</text>
</a>
</g>
</g>
<!-- Node1&#45;&gt;Node8 -->
<g id="edge8" class="edge">
<title>Node1&#45;&gt;Node8</title>
<path fill="none" stroke="midnightblue" d="M2878.82,-159.87C2599.48,-161.32 1419.48,-164.01 1055.5,-109 1049.33,-108.07 1042.97,-106.85 1036.64,-105.45"/>
<polygon fill="midnightblue" stroke="midnightblue" points="1037.25,-102 1026.72,-103.11 1035.65,-108.81 1037.25,-102"/>
</g>
<!-- Node9 -->
<g id="node9" class="node">
<title>Node9</title>
<g id="a_node9"><a xlink:title=" ">
<polygon fill="white" stroke="#bfbfbf" points="1064.5,-62 1064.5,-103 1232.5,-103 1232.5,-62 1064.5,-62"/>
<text text-anchor="start" x="1072.5" y="-91" font-family="Helvetica,sans-Serif" font-size="10.00">asm/JSystem/J2DGraph</text>
<text text-anchor="start" x="1072.5" y="-80" font-family="Helvetica,sans-Serif" font-size="10.00">/J2DTextBoxEx/draw__12J2DText</text>
<text text-anchor="middle" x="1148.5" y="-69" font-family="Helvetica,sans-Serif" font-size="10.00">BoxExFfff18J2DTextBoxHBinding.s</text>
</a>
</g>
</g>
<!-- Node1&#45;&gt;Node9 -->
<g id="edge9" class="edge">
<title>Node1&#45;&gt;Node9</title>
<path fill="none" stroke="midnightblue" d="M2878.7,-159.62C2616.51,-159.88 1567.07,-157.77 1241.5,-109 1234.99,-108.03 1228.29,-106.75 1221.61,-105.29"/>
<polygon fill="midnightblue" stroke="midnightblue" points="1222.39,-101.87 1211.86,-103.02 1220.81,-108.69 1222.39,-101.87"/>
</g>
<!-- Node10 -->
<g id="node10" class="node">
<title>Node10</title>
<g id="a_node10"><a xlink:title=" ">
<polygon fill="white" stroke="#bfbfbf" points="1250.5,-62 1250.5,-103 1414.5,-103 1414.5,-62 1250.5,-62"/>
<text text-anchor="start" x="1258.5" y="-91" font-family="Helvetica,sans-Serif" font-size="10.00">asm/JSystem/J2DGraph</text>
<text text-anchor="start" x="1258.5" y="-80" font-family="Helvetica,sans-Serif" font-size="10.00">/J2DTextBoxEx/setFont</text>
<text text-anchor="middle" x="1332.5" y="-69" font-family="Helvetica,sans-Serif" font-size="10.00">__12J2DTextBoxExFP7JUTFont.s</text>
</a>
</g>
</g>
<!-- Node1&#45;&gt;Node10 -->
<g id="edge10" class="edge">
<title>Node1&#45;&gt;Node10</title>
<path fill="none" stroke="midnightblue" d="M2878.65,-159.42C2634.27,-158.79 1711.38,-153.47 1423.5,-109 1417.33,-108.05 1410.98,-106.81 1404.64,-105.4"/>
<polygon fill="midnightblue" stroke="midnightblue" points="1405.26,-101.95 1394.73,-103.06 1403.65,-108.77 1405.26,-101.95"/>
</g>
<!-- Node11 -->
<g id="node11" class="node">
<title>Node11</title>
<g id="a_node11"><a xlink:title=" ">
<polygon fill="white" stroke="#bfbfbf" points="1432.5,-62 1432.5,-103 1558.5,-103 1558.5,-62 1432.5,-62"/>
<text text-anchor="start" x="1440.5" y="-91" font-family="Helvetica,sans-Serif" font-size="10.00">asm/JSystem/J2DGraph</text>
<text text-anchor="start" x="1440.5" y="-80" font-family="Helvetica,sans-Serif" font-size="10.00">/J2DTextBoxEx/getFont</text>
<text text-anchor="middle" x="1495.5" y="-69" font-family="Helvetica,sans-Serif" font-size="10.00">__12J2DTextBoxExCFv.s</text>
</a>
</g>
</g>
<!-- Node1&#45;&gt;Node11 -->
<g id="edge11" class="edge">
<title>Node1&#45;&gt;Node11</title>
<path fill="none" stroke="midnightblue" d="M2878.89,-159.7C2649.58,-160.1 1824.42,-158.04 1567.5,-109 1563.13,-108.17 1558.67,-107.11 1554.22,-105.91"/>
<polygon fill="midnightblue" stroke="midnightblue" points="1555.11,-102.53 1544.53,-103.08 1553.14,-109.24 1555.11,-102.53"/>
</g>
<!-- Node12 -->
<g id="node12" class="node">
<title>Node12</title>
<g id="a_node12"><a xlink:title=" ">
<polygon fill="white" stroke="#bfbfbf" points="1576.5,-62 1576.5,-103 1716.5,-103 1716.5,-62 1576.5,-62"/>
<text text-anchor="start" x="1584.5" y="-91" font-family="Helvetica,sans-Serif" font-size="10.00">asm/JSystem/J2DGraph</text>
<text text-anchor="start" x="1584.5" y="-80" font-family="Helvetica,sans-Serif" font-size="10.00">/J2DTextBoxEx/setTevOrder</text>
<text text-anchor="middle" x="1646.5" y="-69" font-family="Helvetica,sans-Serif" font-size="10.00">__12J2DTextBoxExFb.s</text>
</a>
</g>
</g>
<!-- Node1&#45;&gt;Node12 -->
<g id="edge12" class="edge">
<title>Node1&#45;&gt;Node12</title>
<path fill="none" stroke="midnightblue" d="M2878.72,-159.12C2666.73,-157.42 1951.64,-148.83 1726.5,-109 1721.43,-108.1 1716.23,-106.97 1711.04,-105.68"/>
<polygon fill="midnightblue" stroke="midnightblue" points="1711.66,-102.22 1701.1,-103.02 1709.86,-108.98 1711.66,-102.22"/>
</g>
<!-- Node13 -->
<g id="node13" class="node">
<title>Node13</title>
<g id="a_node13"><a xlink:title=" ">
<polygon fill="white" stroke="#bfbfbf" points="1735,-62 1735,-103 1876,-103 1876,-62 1735,-62"/>
<text text-anchor="start" x="1743" y="-91" font-family="Helvetica,sans-Serif" font-size="10.00">asm/JSystem/J2DGraph</text>
<text text-anchor="start" x="1743" y="-80" font-family="Helvetica,sans-Serif" font-size="10.00">/J2DTextBoxEx/setTevStage</text>
<text text-anchor="middle" x="1805.5" y="-69" font-family="Helvetica,sans-Serif" font-size="10.00">__12J2DTextBoxExFb.s</text>
</a>
</g>
</g>
<!-- Node1&#45;&gt;Node13 -->
<g id="edge13" class="edge">
<title>Node1&#45;&gt;Node13</title>
<path fill="none" stroke="midnightblue" d="M2878.67,-158.68C2685.28,-155.7 2078.34,-143.74 1885.5,-109 1880.52,-108.1 1875.41,-106.98 1870.31,-105.71"/>
<polygon fill="midnightblue" stroke="midnightblue" points="1871.11,-102.3 1860.54,-103.1 1869.3,-109.06 1871.11,-102.3"/>
</g>
<!-- Node14 -->
<g id="node14" class="node">
<title>Node14</title>
<g id="a_node14"><a xlink:title=" ">
<polygon fill="white" stroke="#bfbfbf" points="1894,-56.5 1894,-108.5 2077,-108.5 2077,-56.5 1894,-56.5"/>
<text text-anchor="start" x="1902" y="-96.5" font-family="Helvetica,sans-Serif" font-size="10.00">asm/JSystem/J2DGraph</text>
<text text-anchor="start" x="1902" y="-85.5" font-family="Helvetica,sans-Serif" font-size="10.00">/J2DTextBoxEx/setStage</text>
<text text-anchor="start" x="1902" y="-74.5" font-family="Helvetica,sans-Serif" font-size="10.00">__12J2DTextBoxExFP11J2DTevStage</text>
<text text-anchor="middle" x="1985.5" y="-63.5" font-family="Helvetica,sans-Serif" font-size="10.00">Q212J2DTextBoxEx10stage_enum.s</text>
</a>
</g>
</g>
<!-- Node1&#45;&gt;Node14 -->
<g id="edge14" class="edge">
<title>Node1&#45;&gt;Node14</title>
<path fill="none" stroke="midnightblue" d="M2878.96,-159.81C2741.11,-159.69 2389.41,-154.67 2087.28,-108.97"/>
<polygon fill="midnightblue" stroke="midnightblue" points="2087.42,-105.45 2077,-107.4 2086.36,-112.37 2087.42,-105.45"/>
</g>
<!-- Node15 -->
<g id="node15" class="node">
<title>Node15</title>
<g id="a_node15"><a xlink:title=" ">
<polygon fill="white" stroke="#bfbfbf" points="2095.5,-62 2095.5,-103 2291.5,-103 2291.5,-62 2095.5,-62"/>
<text text-anchor="start" x="2103.5" y="-91" font-family="Helvetica,sans-Serif" font-size="10.00">asm/JSystem/J2DGraph</text>
<text text-anchor="start" x="2103.5" y="-80" font-family="Helvetica,sans-Serif" font-size="10.00">/J2DTextBoxEx/setBlack</text>
<text text-anchor="middle" x="2193.5" y="-69" font-family="Helvetica,sans-Serif" font-size="10.00">__12J2DTextBoxExFQ28JUtility6TColor.s</text>
</a>
</g>
</g>
<!-- Node1&#45;&gt;Node15 -->
<g id="edge15" class="edge">
<title>Node1&#45;&gt;Node15</title>
<path fill="none" stroke="midnightblue" d="M2878.77,-157.86C2765.4,-154.06 2511.5,-142.29 2300.5,-109 2293.43,-107.88 2286.14,-106.55 2278.84,-105.08"/>
<polygon fill="midnightblue" stroke="midnightblue" points="2279.41,-101.63 2268.91,-103.01 2277.98,-108.48 2279.41,-101.63"/>
</g>
<!-- Node16 -->
<g id="node16" class="node">
<title>Node16</title>
<g id="a_node16"><a xlink:title=" ">
<polygon fill="white" stroke="#bfbfbf" points="2309.5,-62 2309.5,-103 2505.5,-103 2505.5,-62 2309.5,-62"/>
<text text-anchor="start" x="2317.5" y="-91" font-family="Helvetica,sans-Serif" font-size="10.00">asm/JSystem/J2DGraph</text>
<text text-anchor="start" x="2317.5" y="-80" font-family="Helvetica,sans-Serif" font-size="10.00">/J2DTextBoxEx/setWhite</text>
<text text-anchor="middle" x="2407.5" y="-69" font-family="Helvetica,sans-Serif" font-size="10.00">__12J2DTextBoxExFQ28JUtility6TColor.s</text>
</a>
</g>
</g>
<!-- Node1&#45;&gt;Node16 -->
<g id="edge16" class="edge">
<title>Node1&#45;&gt;Node16</title>
<path fill="none" stroke="midnightblue" d="M2878.84,-154.58C2796.49,-147.3 2643.5,-131.97 2514.5,-109 2507.99,-107.84 2501.29,-106.53 2494.57,-105.13"/>
<polygon fill="midnightblue" stroke="midnightblue" points="2495.23,-101.69 2484.72,-103.02 2493.76,-108.54 2495.23,-101.69"/>
</g>
<!-- Node17 -->
<g id="node17" class="node">
<title>Node17</title>
<g id="a_node17"><a xlink:title=" ">
<polygon fill="white" stroke="#bfbfbf" points="2523.5,-56.5 2523.5,-108.5 2711.5,-108.5 2711.5,-56.5 2523.5,-56.5"/>
<text text-anchor="start" x="2531.5" y="-96.5" font-family="Helvetica,sans-Serif" font-size="10.00">asm/JSystem/J2DGraph</text>
<text text-anchor="start" x="2531.5" y="-85.5" font-family="Helvetica,sans-Serif" font-size="10.00">/J2DTextBoxEx/setBlackWhite</text>
<text text-anchor="start" x="2531.5" y="-74.5" font-family="Helvetica,sans-Serif" font-size="10.00">__12J2DTextBoxExFQ28JUtility6TColor</text>
<text text-anchor="middle" x="2617.5" y="-63.5" font-family="Helvetica,sans-Serif" font-size="10.00">Q28JUtility6TColor.s</text>
</a>
</g>
</g>
<!-- Node1&#45;&gt;Node17 -->
<g id="edge17" class="edge">
<title>Node1&#45;&gt;Node17</title>
<path fill="none" stroke="midnightblue" d="M2878.76,-145.92C2837.23,-136.42 2780.34,-123.28 2721.37,-109.2"/>
<polygon fill="midnightblue" stroke="midnightblue" points="2722.05,-105.76 2711.51,-106.84 2720.42,-112.57 2722.05,-105.76"/>
</g>
<!-- Node18 -->
<g id="node18" class="node">
<title>Node18</title>
<g id="a_node18"><a xlink:title=" ">
<polygon fill="white" stroke="#bfbfbf" points="2729.5,-56.5 2729.5,-108.5 2931.5,-108.5 2931.5,-56.5 2729.5,-56.5"/>
<text text-anchor="start" x="2737.5" y="-96.5" font-family="Helvetica,sans-Serif" font-size="10.00">asm/JSystem/J2DGraph</text>
<text text-anchor="start" x="2737.5" y="-85.5" font-family="Helvetica,sans-Serif" font-size="10.00">/J2DTextBoxEx/getBlackWhite</text>
<text text-anchor="start" x="2737.5" y="-74.5" font-family="Helvetica,sans-Serif" font-size="10.00">__12J2DTextBoxExCFPQ28JUtility6TColor</text>
<text text-anchor="middle" x="2830.5" y="-63.5" font-family="Helvetica,sans-Serif" font-size="10.00">PQ28JUtility6TColor.s</text>
</a>
</g>
</g>
<!-- Node1&#45;&gt;Node18 -->
<g id="edge18" class="edge">
<title>Node1&#45;&gt;Node18</title>
<path fill="none" stroke="midnightblue" d="M2918.44,-145.38C2906.09,-136.69 2889.75,-125.19 2874.51,-114.47"/>
<polygon fill="midnightblue" stroke="midnightblue" points="2876.38,-111.51 2866.19,-108.62 2872.35,-117.23 2876.38,-111.51"/>
</g>
<!-- Node19 -->
<g id="node19" class="node">
<title>Node19</title>
<g id="a_node19"><a xlink:title=" ">
<polygon fill="white" stroke="#bfbfbf" points="2950,-56.5 2950,-108.5 3145,-108.5 3145,-56.5 2950,-56.5"/>
<text text-anchor="start" x="2958" y="-96.5" font-family="Helvetica,sans-Serif" font-size="10.00">asm/JSystem/J2DGraph</text>
<text text-anchor="start" x="2958" y="-85.5" font-family="Helvetica,sans-Serif" font-size="10.00">/J2DTextBoxEx/isSetBlackWhite</text>
<text text-anchor="start" x="2958" y="-74.5" font-family="Helvetica,sans-Serif" font-size="10.00">__12J2DTextBoxExCFQ28JUtility6TColor</text>
<text text-anchor="middle" x="3047.5" y="-63.5" font-family="Helvetica,sans-Serif" font-size="10.00">Q28JUtility6TColor.s</text>
</a>
</g>
</g>
<!-- Node1&#45;&gt;Node19 -->
<g id="edge19" class="edge">
<title>Node1&#45;&gt;Node19</title>
<path fill="none" stroke="midnightblue" d="M2958.75,-145.38C2971.21,-136.69 2987.7,-125.19 3003.08,-114.47"/>
<polygon fill="midnightblue" stroke="midnightblue" points="3005.28,-117.21 3011.48,-108.62 3001.27,-111.46 3005.28,-117.21"/>
</g>
<!-- Node20 -->
<g id="node20" class="node">
<title>Node20</title>
<g id="a_node20"><a xlink:title=" ">
<polygon fill="white" stroke="#bfbfbf" points="3163.5,-62 3163.5,-103 3289.5,-103 3289.5,-62 3163.5,-62"/>
<text text-anchor="start" x="3171.5" y="-91" font-family="Helvetica,sans-Serif" font-size="10.00">asm/JSystem/J2DGraph</text>
<text text-anchor="start" x="3171.5" y="-80" font-family="Helvetica,sans-Serif" font-size="10.00">/J2DTextBoxEx/getBlack</text>
<text text-anchor="middle" x="3226.5" y="-69" font-family="Helvetica,sans-Serif" font-size="10.00">__12J2DTextBoxExCFv.s</text>
</a>
</g>
</g>
<!-- Node1&#45;&gt;Node20 -->
<g id="edge20" class="edge">
<title>Node1&#45;&gt;Node20</title>
<path fill="none" stroke="midnightblue" d="M2998.09,-147.43C3041.73,-138.14 3102.21,-124.32 3154.5,-109 3157.46,-108.13 3160.47,-107.21 3163.51,-106.26"/>
<polygon fill="midnightblue" stroke="midnightblue" points="3164.81,-109.52 3173.24,-103.1 3162.65,-102.86 3164.81,-109.52"/>
</g>
<!-- Node21 -->
<g id="node21" class="node">
<title>Node21</title>
<g id="a_node21"><a xlink:title=" ">
<polygon fill="white" stroke="#bfbfbf" points="3307.5,-62 3307.5,-103 3433.5,-103 3433.5,-62 3307.5,-62"/>
<text text-anchor="start" x="3315.5" y="-91" font-family="Helvetica,sans-Serif" font-size="10.00">asm/JSystem/J2DGraph</text>
<text text-anchor="start" x="3315.5" y="-80" font-family="Helvetica,sans-Serif" font-size="10.00">/J2DTextBoxEx/getWhite</text>
<text text-anchor="middle" x="3370.5" y="-69" font-family="Helvetica,sans-Serif" font-size="10.00">__12J2DTextBoxExCFv.s</text>
</a>
</g>
</g>
<!-- Node1&#45;&gt;Node21 -->
<g id="edge21" class="edge">
<title>Node1&#45;&gt;Node21</title>
<path fill="none" stroke="midnightblue" d="M2998.12,-154.83C3070.09,-148.35 3194.43,-134.45 3298.5,-109 3302.13,-108.11 3305.83,-107.11 3309.54,-106.03"/>
<polygon fill="midnightblue" stroke="midnightblue" points="3310.82,-109.3 3319.36,-103.02 3308.77,-102.61 3310.82,-109.3"/>
</g>
<!-- Node22 -->
<g id="node22" class="node">
<title>Node22</title>
<g id="a_node22"><a xlink:title=" ">
<polygon fill="white" stroke="#bfbfbf" points="3452,-62 3452,-103 3579,-103 3579,-62 3452,-62"/>
<text text-anchor="start" x="3460" y="-91" font-family="Helvetica,sans-Serif" font-size="10.00">asm/JSystem/J2DGraph</text>
<text text-anchor="start" x="3460" y="-80" font-family="Helvetica,sans-Serif" font-size="10.00">/J2DTextBoxEx/setAlpha</text>
<text text-anchor="middle" x="3515.5" y="-69" font-family="Helvetica,sans-Serif" font-size="10.00">__12J2DTextBoxExFUc.s</text>
</a>
</g>
</g>
<!-- Node1&#45;&gt;Node22 -->
<g id="edge22" class="edge">
<title>Node1&#45;&gt;Node22</title>
<path fill="none" stroke="midnightblue" d="M2998.19,-158.07C3093.27,-154.77 3284.52,-143.99 3442.5,-109 3446.55,-108.1 3450.7,-107.05 3454.84,-105.89"/>
<polygon fill="midnightblue" stroke="midnightblue" points="3455.9,-109.23 3464.49,-103.02 3453.91,-102.52 3455.9,-109.23"/>
</g>
<!-- Node23 -->
<g id="node23" class="node">
<title>Node23</title>
<g id="a_node23"><a xlink:title=" ">
<polygon fill="white" stroke="#bfbfbf" points="3597,-62 3597,-103 3782,-103 3782,-62 3597,-62"/>
<text text-anchor="start" x="3605" y="-91" font-family="Helvetica,sans-Serif" font-size="10.00">asm/JSystem/J2DGraph</text>
<text text-anchor="start" x="3605" y="-80" font-family="Helvetica,sans-Serif" font-size="10.00">/J2DTextBoxEx/setCullBack</text>
<text text-anchor="middle" x="3689.5" y="-69" font-family="Helvetica,sans-Serif" font-size="10.00">__12J2DTextBoxExF11_GXCullMode.s</text>
</a>
</g>
</g>
<!-- Node1&#45;&gt;Node23 -->
<g id="edge23" class="edge">
<title>Node1&#45;&gt;Node23</title>
<path fill="none" stroke="midnightblue" d="M2998.05,-158.25C3112.95,-155.09 3372.92,-144.33 3588.5,-109 3595.04,-107.93 3601.77,-106.64 3608.51,-105.22"/>
<polygon fill="midnightblue" stroke="midnightblue" points="3609.34,-108.62 3618.36,-103.06 3607.84,-101.79 3609.34,-108.62"/>
</g>
<!-- Node24 -->
<g id="node24" class="node">
<title>Node24</title>
<g id="a_node24"><a xlink:title=" ">
<polygon fill="white" stroke="#bfbfbf" points="3800.5,-62 3800.5,-103 3940.5,-103 3940.5,-62 3800.5,-62"/>
<text text-anchor="start" x="3808.5" y="-91" font-family="Helvetica,sans-Serif" font-size="10.00">asm/JSystem/J2DGraph</text>
<text text-anchor="start" x="3808.5" y="-80" font-family="Helvetica,sans-Serif" font-size="10.00">/J2DTextBoxEx/rewriteAlpha</text>
<text text-anchor="middle" x="3870.5" y="-69" font-family="Helvetica,sans-Serif" font-size="10.00">__12J2DTextBoxExFv.s</text>
</a>
</g>
</g>
<!-- Node1&#45;&gt;Node24 -->
<g id="edge24" class="edge">
<title>Node1&#45;&gt;Node24</title>
<path fill="none" stroke="midnightblue" d="M2998.19,-157.93C3165.88,-153.21 3638.96,-137.65 3791.5,-109 3796.29,-108.1 3801.2,-106.99 3806.11,-105.75"/>
<polygon fill="midnightblue" stroke="midnightblue" points="3807.41,-109.02 3816.14,-103.02 3805.57,-102.26 3807.41,-109.02"/>
</g>
<!-- Node25 -->
<g id="node25" class="node">
<title>Node25</title>
<g id="a_node25"><a xlink:title=" ">
<polygon fill="white" stroke="#bfbfbf" points="3959,-62 3959,-103 4136,-103 4136,-62 3959,-62"/>
<text text-anchor="start" x="3967" y="-91" font-family="Helvetica,sans-Serif" font-size="10.00">asm/JSystem/J2DGraph</text>
<text text-anchor="start" x="3967" y="-80" font-family="Helvetica,sans-Serif" font-size="10.00">/J2DTextBoxEx/isUsed</text>
<text text-anchor="middle" x="4047.5" y="-69" font-family="Helvetica,sans-Serif" font-size="10.00">__12J2DTextBoxExFPC7ResFONT.s</text>
</a>
</g>
</g>
<!-- Node1&#45;&gt;Node25 -->
<g id="edge25" class="edge">
<title>Node1&#45;&gt;Node25</title>
<path fill="none" stroke="midnightblue" d="M2998.17,-158.12C3186.11,-153.53 3764.28,-137.42 3949.5,-109 3956.15,-107.98 3963.01,-106.69 3969.86,-105.24"/>
<polygon fill="midnightblue" stroke="midnightblue" points="3970.87,-108.61 3979.87,-103.02 3969.35,-101.77 3970.87,-108.61"/>
</g>
<!-- Node26 -->
<g id="node26" class="node">
<title>Node26</title>
<g id="a_node26"><a xlink:title=" ">
<polygon fill="white" stroke="#bfbfbf" points="4154,-62 4154,-103 4345,-103 4345,-62 4154,-62"/>
<text text-anchor="start" x="4162" y="-91" font-family="Helvetica,sans-Serif" font-size="10.00">asm/JSystem/J2DGraph</text>
<text text-anchor="start" x="4162" y="-80" font-family="Helvetica,sans-Serif" font-size="10.00">/J2DTextBoxEx/setAnimation</text>
<text text-anchor="middle" x="4249.5" y="-69" font-family="Helvetica,sans-Serif" font-size="10.00">__12J2DTextBoxExFP11J2DAnmColor.s</text>
</a>
</g>
</g>
<!-- Node1&#45;&gt;Node26 -->
<g id="edge26" class="edge">
<title>Node1&#45;&gt;Node26</title>
<path fill="none" stroke="midnightblue" d="M2998.32,-158.57C3209.6,-155.04 3920.2,-141.01 4145.5,-109 4152.86,-107.95 4160.46,-106.61 4168.04,-105.1"/>
<polygon fill="midnightblue" stroke="midnightblue" points="4168.91,-108.49 4177.97,-103.01 4167.47,-101.64 4168.91,-108.49"/>
</g>
<!-- Node27 -->
<g id="node27" class="node">
<title>Node27</title>
<g id="a_node27"><a xlink:title=" ">
<polygon fill="white" stroke="#bfbfbf" points="4363.5,-56.5 4363.5,-108.5 4557.5,-108.5 4557.5,-56.5 4363.5,-56.5"/>
<text text-anchor="start" x="4371.5" y="-96.5" font-family="Helvetica,sans-Serif" font-size="10.00">asm/JSystem/J2DGraph</text>
<text text-anchor="start" x="4371.5" y="-85.5" font-family="Helvetica,sans-Serif" font-size="10.00">/J2DTextBoxEx/setAnimation</text>
<text text-anchor="start" x="4371.5" y="-74.5" font-family="Helvetica,sans-Serif" font-size="10.00">__12J2DTextBoxExFP19J2DAnmTexture</text>
<text text-anchor="middle" x="4460.5" y="-63.5" font-family="Helvetica,sans-Serif" font-size="10.00">SRTKey.s</text>
</a>
</g>
</g>
<!-- Node1&#45;&gt;Node27 -->
<g id="edge27" class="edge">
<title>Node1&#45;&gt;Node27</title>
<path fill="none" stroke="midnightblue" d="M2998.33,-158.96C3229.63,-156.64 4066.33,-145.93 4353.34,-109"/>
<polygon fill="midnightblue" stroke="midnightblue" points="4353.86,-112.46 4363.32,-107.68 4352.94,-105.53 4353.86,-112.46"/>
</g>
<!-- Node28 -->
<g id="node28" class="node">
<title>Node28</title>
<g id="a_node28"><a xlink:title=" ">
<polygon fill="white" stroke="#bfbfbf" points="4575.5,-62 4575.5,-103 4791.5,-103 4791.5,-62 4575.5,-62"/>
<text text-anchor="start" x="4583.5" y="-91" font-family="Helvetica,sans-Serif" font-size="10.00">asm/JSystem/J2DGraph</text>
<text text-anchor="start" x="4583.5" y="-80" font-family="Helvetica,sans-Serif" font-size="10.00">/J2DTextBoxEx/setAnimation</text>
<text text-anchor="middle" x="4683.5" y="-69" font-family="Helvetica,sans-Serif" font-size="10.00">__12J2DTextBoxExFP16J2DAnmTexPattern.s</text>
</a>
</g>
</g>
<!-- Node1&#45;&gt;Node28 -->
<g id="edge28" class="edge">
<title>Node1&#45;&gt;Node28</title>
<path fill="none" stroke="midnightblue" d="M2998.37,-159.11C3253.86,-157.24 4254.11,-147.56 4566.5,-109 4575.19,-107.93 4584.2,-106.52 4593.17,-104.91"/>
<polygon fill="midnightblue" stroke="midnightblue" points="4594.09,-108.3 4603.27,-103.02 4592.8,-101.42 4594.09,-108.3"/>
</g>
<!-- Node29 -->
<g id="node29" class="node">
<title>Node29</title>
<g id="a_node29"><a xlink:title=" ">
<polygon fill="white" stroke="#bfbfbf" points="4810,-62 4810,-103 5029,-103 5029,-62 4810,-62"/>
<text text-anchor="start" x="4818" y="-91" font-family="Helvetica,sans-Serif" font-size="10.00">asm/JSystem/J2DGraph</text>
<text text-anchor="start" x="4818" y="-80" font-family="Helvetica,sans-Serif" font-size="10.00">/J2DTextBoxEx/setAnimation</text>
<text text-anchor="middle" x="4919.5" y="-69" font-family="Helvetica,sans-Serif" font-size="10.00">__12J2DTextBoxExFP15J2DAnmTevRegKey.s</text>
</a>
</g>
</g>
<!-- Node1&#45;&gt;Node29 -->
<g id="edge29" class="edge">
<title>Node1&#45;&gt;Node29</title>
<path fill="none" stroke="midnightblue" d="M2998.37,-159.36C3275.96,-158.47 4439.47,-152.2 4800.5,-109 4809.44,-107.93 4818.69,-106.51 4827.92,-104.89"/>
<polygon fill="midnightblue" stroke="midnightblue" points="4828.69,-108.3 4837.89,-103.05 4827.43,-101.42 4828.69,-108.3"/>
</g>
<!-- Node30 -->
<g id="node30" class="node">
<title>Node30</title>
<g id="a_node30"><a xlink:title=" ">
<polygon fill="white" stroke="#bfbfbf" points="5047,-56.5 5047,-108.5 5244,-108.5 5244,-56.5 5047,-56.5"/>
<text text-anchor="start" x="5055" y="-96.5" font-family="Helvetica,sans-Serif" font-size="10.00">asm/JSystem/J2DGraph</text>
<text text-anchor="start" x="5055" y="-85.5" font-family="Helvetica,sans-Serif" font-size="10.00">/J2DTextBoxEx/setAnimation</text>
<text text-anchor="start" x="5055" y="-74.5" font-family="Helvetica,sans-Serif" font-size="10.00">__12J2DTextBoxExFP20J2DAnmVisibility</text>
<text text-anchor="middle" x="5145.5" y="-63.5" font-family="Helvetica,sans-Serif" font-size="10.00">Full.s</text>
</a>
</g>
</g>
<!-- Node1&#45;&gt;Node30 -->
<g id="edge30" class="edge">
<title>Node1&#45;&gt;Node30</title>
<path fill="none" stroke="midnightblue" d="M2998.42,-159.76C3294.93,-160.77 4607.73,-162.17 5036.85,-109.08"/>
<polygon fill="midnightblue" stroke="midnightblue" points="5037.34,-112.54 5046.82,-107.81 5036.46,-105.6 5037.34,-112.54"/>
</g>
<!-- Node31 -->
<g id="node31" class="node">
<title>Node31</title>
<g id="a_node31"><a xlink:title=" ">
<polygon fill="white" stroke="#bfbfbf" points="5262.5,-62 5262.5,-103 5482.5,-103 5482.5,-62 5262.5,-62"/>
<text text-anchor="start" x="5270.5" y="-91" font-family="Helvetica,sans-Serif" font-size="10.00">asm/JSystem/J2DGraph</text>
<text text-anchor="start" x="5270.5" y="-80" font-family="Helvetica,sans-Serif" font-size="10.00">/J2DTextBoxEx/animationPane</text>
<text text-anchor="middle" x="5372.5" y="-69" font-family="Helvetica,sans-Serif" font-size="10.00">__12J2DTextBoxExFPC15J2DAnmTransform.s</text>
</a>
</g>
</g>
<!-- Node1&#45;&gt;Node31 -->
<g id="edge31" class="edge">
<title>Node1&#45;&gt;Node31</title>
<path fill="none" stroke="midnightblue" d="M2998.14,-159.73C3314.39,-160.7 4797.82,-162.31 5253.5,-109 5262.52,-107.95 5271.86,-106.53 5281.16,-104.9"/>
<polygon fill="midnightblue" stroke="midnightblue" points="5282.02,-108.3 5291.22,-103.05 5280.76,-101.41 5282.02,-108.3"/>
</g>
<!-- Node32 -->
<g id="node32" class="node">
<title>Node32</title>
<g id="a_node32"><a xlink:title=" ">
<polygon fill="white" stroke="#bfbfbf" points="5500.5,-62 5500.5,-103 5638.5,-103 5638.5,-62 5500.5,-62"/>
<text text-anchor="start" x="5508.5" y="-91" font-family="Helvetica,sans-Serif" font-size="10.00">asm/JSystem/J2DGraph</text>
<text text-anchor="start" x="5508.5" y="-80" font-family="Helvetica,sans-Serif" font-size="10.00">/J2DTextBoxEx/setCullBack</text>
<text text-anchor="middle" x="5569.5" y="-69" font-family="Helvetica,sans-Serif" font-size="10.00">__12J2DTextBoxExFb.s</text>
</a>
</g>
</g>
<!-- Node1&#45;&gt;Node32 -->
<g id="edge32" class="edge">
<title>Node1&#45;&gt;Node32</title>
<path fill="none" stroke="midnightblue" d="M2998.1,-159.38C3358.41,-158.49 5238.74,-151.83 5491.5,-109 5496.55,-108.14 5501.72,-107.03 5506.88,-105.74"/>
<polygon fill="midnightblue" stroke="midnightblue" points="5508,-109.06 5516.74,-103.07 5506.18,-102.3 5508,-109.06"/>
</g>
<!-- Node33 -->
<g id="node33" class="node">
<title>Node33</title>
<g id="a_node33"><a xlink:title=" ">
<polygon fill="white" stroke="#bfbfbf" points="5657,-62 5657,-103 5832,-103 5832,-62 5657,-62"/>
<text text-anchor="start" x="5665" y="-91" font-family="Helvetica,sans-Serif" font-size="10.00">asm/JSystem/J2DGraph</text>
<text text-anchor="start" x="5665" y="-80" font-family="Helvetica,sans-Serif" font-size="10.00">/J2DTextBoxEx/isUsed</text>
<text text-anchor="middle" x="5744.5" y="-69" font-family="Helvetica,sans-Serif" font-size="10.00">__12J2DTextBoxExFPC7ResTIMG.s</text>
</a>
</g>
</g>
<!-- Node1&#45;&gt;Node33 -->
<g id="edge33" class="edge">
<title>Node1&#45;&gt;Node33</title>
<path fill="none" stroke="midnightblue" d="M2998.04,-159.24C3370.88,-157.51 5377.19,-146.5 5647.5,-109 5654.34,-108.05 5661.38,-106.79 5668.41,-105.32"/>
<polygon fill="midnightblue" stroke="midnightblue" points="5669.65,-108.63 5678.66,-103.05 5668.14,-101.8 5669.65,-108.63"/>
</g>
<!-- Node34 -->
<g id="node34" class="node">
<title>Node34</title>
<g id="a_node34"><a xlink:title=" ">
<polygon fill="white" stroke="#bfbfbf" points="5850.5,-62 5850.5,-103 6056.5,-103 6056.5,-62 5850.5,-62"/>
<text text-anchor="start" x="5858.5" y="-91" font-family="Helvetica,sans-Serif" font-size="10.00">asm/JSystem/J2DGraph</text>
<text text-anchor="start" x="5858.5" y="-80" font-family="Helvetica,sans-Serif" font-size="10.00">/J2DTextBoxEx/setAnimation</text>
<text text-anchor="middle" x="5953.5" y="-69" font-family="Helvetica,sans-Serif" font-size="10.00">__12J2DTextBoxExFP14J2DAnmVtxColor.s</text>
</a>
</g>
</g>
<!-- Node1&#45;&gt;Node34 -->
<g id="edge34" class="edge">
<title>Node1&#45;&gt;Node34</title>
<path fill="none" stroke="midnightblue" d="M2998.15,-159.2C3386.65,-157.17 5550.17,-144.31 5841.5,-109 5849.99,-107.97 5858.77,-106.57 5867.52,-104.96"/>
<polygon fill="midnightblue" stroke="midnightblue" points="5868.21,-108.39 5877.36,-103.05 5866.87,-101.52 5868.21,-108.39"/>
</g>
<!-- Node35 -->
<g id="node35" class="node">
<title>Node35</title>
<g id="a_node35"><a xlink:title=" ">
<polygon fill="white" stroke="#bfbfbf" points="6075,-62 6075,-103 6266,-103 6266,-62 6075,-62"/>
<text text-anchor="start" x="6083" y="-91" font-family="Helvetica,sans-Serif" font-size="10.00">asm/JSystem/J2DGraph</text>
<text text-anchor="start" x="6083" y="-80" font-family="Helvetica,sans-Serif" font-size="10.00">/J2DTextBoxEx/setAnimation</text>
<text text-anchor="middle" x="6170.5" y="-69" font-family="Helvetica,sans-Serif" font-size="10.00">__12J2DTextBoxExFP10J2DAnmBase.s</text>
</a>
</g>
</g>
<!-- Node1&#45;&gt;Node35 -->
<g id="edge35" class="edge">
<title>Node1&#45;&gt;Node35</title>
<path fill="none" stroke="midnightblue" d="M2998.13,-159.33C3403.73,-158.1 5750.78,-149.25 6065.5,-109 6073.37,-107.99 6081.51,-106.62 6089.61,-105.04"/>
<polygon fill="midnightblue" stroke="midnightblue" points="6090.36,-108.45 6099.45,-103.01 6088.95,-101.6 6090.36,-108.45"/>
</g>
<!-- Node4&#45;&gt;Node3 -->
<g id="edge4" class="edge">
<title>Node4&#45;&gt;Node3</title>
<path fill="none" stroke="midnightblue" d="M177.58,-67.23C169.74,-55.95 158.76,-40.15 150.43,-28.17"/>
<polygon fill="midnightblue" stroke="midnightblue" points="153.26,-26.11 144.68,-19.89 147.51,-30.1 153.26,-26.11"/>
</g>
</g>
</svg>
        <g id="navigator" transform="translate(0 0)" fill="#404254">
                <rect fill="#f2f5e9" fill-opacity="0.5" stroke="#606060" stroke-width=".5" x="0" y="0" width="60" height="60"/>
                <use id="zoomplus" xlink:href="#zoomPlus" x="17" y="9" onmousedown="handleZoom(evt,'in')"/>
                <use id="zoomminus" xlink:href="#zoomMin" x="42" y="9" onmousedown="handleZoom(evt,'out')"/>
                <use id="reset" xlink:href="#resetDef" x="30" y="36" onmousedown="handleReset()"/>
                <g id="arrowUp" xlink:href="#dirArrow" transform="translate(30 24)" onmousedown="handlePan(0,-1)">
                  <use xlink:href="#rim" fill="#404040">
                        <set attributeName="fill" to="#808080" begin="arrowUp.mouseover" end="arrowUp.mouseout"/>
                  </use>
                  <path fill="none" stroke="white" stroke-width="1.5" d="M0,-3.0v7 M-2.5,-0.5L0,-3.0L2.5,-0.5"/>
                </g>
                <g id="arrowRight" xlink:href="#dirArrow" transform="rotate(90) translate(36 -43)" onmousedown="handlePan(1,0)">
                  <use xlink:href="#rim" fill="#404040">
                        <set attributeName="fill" to="#808080" begin="arrowRight.mouseover" end="arrowRight.mouseout"/>
                  </use>
                  <path fill="none" stroke="white" stroke-width="1.5" d="M0,-3.0v7 M-2.5,-0.5L0,-3.0L2.5,-0.5"/>
                </g>
                <g id="arrowDown" xlink:href="#dirArrow" transform="rotate(180) translate(-30 -48)" onmousedown="handlePan(0,1)">
                  <use xlink:href="#rim" fill="#404040">
                        <set attributeName="fill" to="#808080" begin="arrowDown.mouseover" end="arrowDown.mouseout"/>
                  </use>
                  <path fill="none" stroke="white" stroke-width="1.5" d="M0,-3.0v7 M-2.5,-0.5L0,-3.0L2.5,-0.5"/>
                </g>
                <g id="arrowLeft" xlink:href="#dirArrow" transform="rotate(270) translate(-36 17)" onmousedown="handlePan(-1,0)">
                  <use xlink:href="#rim" fill="#404040">
                        <set attributeName="fill" to="#808080" begin="arrowLeft.mouseover" end="arrowLeft.mouseout"/>
                  </use>
                  <path fill="none" stroke="white" stroke-width="1.5" d="M0,-3.0v7 M-2.5,-0.5L0,-3.0L2.5,-0.5"/>
                </g>
        </g>
        <svg viewBox="0 0 15 15" width="100%" height="30px" preserveAspectRatio="xMaxYMin meet">
         <g id="arrow_out" transform="scale(0.3 0.3)">
          <a xlink:href="J2DTextBoxEx_8cpp__incl_org.svg" target="_base">
           <rect id="button" ry="5" rx="5" y="6" x="6" height="38" width="38"
                fill="#f2f5e9" fill-opacity="0.5" stroke="#606060" stroke-width="1.0"/>
           <path id="arrow"
             d="M 11.500037,31.436501 C 11.940474,20.09759 22.043105,11.32322 32.158766,21.979434 L 37.068811,17.246167 C 37.068811,17.246167 37.088388,32 37.088388,32 L 22.160133,31.978069 C 22.160133,31.978069 26.997745,27.140456 26.997745,27.140456 C 18.528582,18.264221 13.291696,25.230495 11.500037,31.436501 z"
             style="fill:#404040;"/>
          </a>
         </g>
        </svg>
</svg>
