<?xml version="1.0" encoding="UTF-8" standalone="no"?>
<!DOCTYPE svg PUBLIC "-//W3C//DTD SVG 1.1//EN"
 "http://www.w3.org/Graphics/SVG/1.1/DTD/svg11.dtd">
<!-- Generated by graphviz version 2.47.0 (20210316.2052)
 -->
<!-- Title: libs/JSystem/J2DGraph/J2DWindowEx.cpp Pages: 1 -->
<svg width="8098pt" height="184pt"
 viewBox="0.00 0.00 8097.50 184.00" xmlns="http://www.w3.org/2000/svg" xmlns:xlink="http://www.w3.org/1999/xlink">
<g id="graph0" class="graph" transform="scale(1 1) rotate(0) translate(4 180)">
<title>libs/JSystem/J2DGraph/J2DWindowEx.cpp</title>
<polygon fill="white" stroke="transparent" points="-4,4 -4,-180 8093.5,-180 8093.5,4 -4,4"/>
<!-- Node1 -->
<g id="node1" class="node">
<title>Node1</title>
<g id="a_node1"><a xlink:title=" ">
<polygon fill="#bfbfbf" stroke="black" points="3737,-145.5 3737,-175.5 3856,-175.5 3856,-145.5 3737,-145.5"/>
<text text-anchor="start" x="3745" y="-163.5" font-family="Helvetica,sans-Serif" font-size="10.00">libs/JSystem/J2DGraph</text>
<text text-anchor="middle" x="3796.5" y="-152.5" font-family="Helvetica,sans-Serif" font-size="10.00">/J2DWindowEx.cpp</text>
</a>
</g>
</g>
<!-- Node2 -->
<g id="node2" class="node">
<title>Node2</title>
<g id="a_node2"><a xlink:href="dol2asm_8h.html" target="_top" xlink:title=" ">
<polygon fill="white" stroke="black" points="0,-73 0,-92 61,-92 61,-73 0,-73"/>
<text text-anchor="middle" x="30.5" y="-80" font-family="Helvetica,sans-Serif" font-size="10.00">dol2asm.h</text>
</a>
</g>
</g>
<!-- Node1&#45;&gt;Node2 -->
<g id="edge1" class="edge">
<title>Node1&#45;&gt;Node2</title>
<path fill="none" stroke="midnightblue" d="M3736.76,-159.54C3272.92,-159.71 259.65,-158.89 75.5,-109 66.85,-106.66 58.1,-102.26 50.64,-97.77"/>
<polygon fill="midnightblue" stroke="midnightblue" points="52.3,-94.67 42,-92.18 48.5,-100.55 52.3,-94.67"/>
</g>
<!-- Node3 -->
<g id="node3" class="node">
<title>Node3</title>
<g id="a_node3"><a xlink:href="types_8h.html" target="_top" xlink:title=" ">
<polygon fill="white" stroke="black" points="106,-0.5 106,-19.5 187,-19.5 187,-0.5 106,-0.5"/>
<text text-anchor="middle" x="146.5" y="-7.5" font-family="Helvetica,sans-Serif" font-size="10.00">dolphin/types.h</text>
</a>
</g>
</g>
<!-- Node1&#45;&gt;Node3 -->
<g id="edge2" class="edge">
<title>Node1&#45;&gt;Node3</title>
<path fill="none" stroke="midnightblue" d="M3736.89,-159.26C3264.42,-157.25 141.75,-142.71 108.5,-109 91.96,-92.23 100.41,-78.12 108.5,-56 112.56,-44.91 120.69,-34.67 128.39,-26.76"/>
<polygon fill="midnightblue" stroke="midnightblue" points="130.97,-29.14 135.79,-19.7 126.14,-24.07 130.97,-29.14"/>
</g>
<!-- Node4 -->
<g id="node4" class="node">
<title>Node4</title>
<g id="a_node4"><a xlink:href="J2DWindowEx_8h.html" target="_top" xlink:title=" ">
<polygon fill="white" stroke="black" points="117.5,-73 117.5,-92 291.5,-92 291.5,-73 117.5,-73"/>
<text text-anchor="middle" x="204.5" y="-80" font-family="Helvetica,sans-Serif" font-size="10.00">JSystem/J2DGraph/J2DWindowEx.h</text>
</a>
</g>
</g>
<!-- Node1&#45;&gt;Node4 -->
<g id="edge3" class="edge">
<title>Node1&#45;&gt;Node4</title>
<path fill="none" stroke="midnightblue" d="M3736.93,-159.51C3304.57,-159.47 654.73,-157.25 301.5,-109 280.68,-106.16 257.94,-100.33 239.71,-94.96"/>
<polygon fill="midnightblue" stroke="midnightblue" points="240.68,-91.6 230.09,-92.05 238.65,-98.3 240.68,-91.6"/>
</g>
<!-- Node5 -->
<g id="node5" class="node">
<title>Node5</title>
<g id="a_node5"><a xlink:title=" ">
<polygon fill="white" stroke="#bfbfbf" points="310,-56.5 310,-108.5 521,-108.5 521,-56.5 310,-56.5"/>
<text text-anchor="start" x="318" y="-96.5" font-family="Helvetica,sans-Serif" font-size="10.00">asm/JSystem/J2DGraph</text>
<text text-anchor="start" x="318" y="-85.5" font-family="Helvetica,sans-Serif" font-size="10.00">/J2DWindowEx/__ct__11J2DWindow</text>
<text text-anchor="start" x="318" y="-74.5" font-family="Helvetica,sans-Serif" font-size="10.00">ExFP7J2DPaneP20JSURandomInputStream</text>
<text text-anchor="middle" x="415.5" y="-63.5" font-family="Helvetica,sans-Serif" font-size="10.00">UlP11J2DMaterial.s</text>
</a>
</g>
</g>
<!-- Node1&#45;&gt;Node5 -->
<g id="edge5" class="edge">
<title>Node1&#45;&gt;Node5</title>
<path fill="none" stroke="midnightblue" d="M3736.92,-159.31C3325.01,-157.87 905.82,-147.9 531.24,-108.9"/>
<polygon fill="midnightblue" stroke="midnightblue" points="531.59,-105.42 521.26,-107.8 530.82,-112.37 531.59,-105.42"/>
</g>
<!-- Node6 -->
<g id="node6" class="node">
<title>Node6</title>
<g id="a_node6"><a xlink:title=" ">
<polygon fill="white" stroke="#bfbfbf" points="539,-62 539,-103 672,-103 672,-62 539,-62"/>
<text text-anchor="start" x="547" y="-91" font-family="Helvetica,sans-Serif" font-size="10.00">asm/JSystem/J2DGraph</text>
<text text-anchor="start" x="547" y="-80" font-family="Helvetica,sans-Serif" font-size="10.00">/J2DWindowEx/setMinSize</text>
<text text-anchor="middle" x="605.5" y="-69" font-family="Helvetica,sans-Serif" font-size="10.00">__11J2DWindowExFv.s</text>
</a>
</g>
</g>
<!-- Node1&#45;&gt;Node6 -->
<g id="edge6" class="edge">
<title>Node1&#45;&gt;Node6</title>
<path fill="none" stroke="midnightblue" d="M3736.73,-159.63C3331.46,-160.4 992.93,-162.45 681.5,-109 676.69,-108.18 671.78,-107.1 666.88,-105.85"/>
<polygon fill="midnightblue" stroke="midnightblue" points="667.44,-102.38 656.87,-103.09 665.58,-109.13 667.44,-102.38"/>
</g>
<!-- Node7 -->
<g id="node7" class="node">
<title>Node7</title>
<g id="a_node7"><a xlink:title=" ">
<polygon fill="white" stroke="#bfbfbf" points="690.5,-62 690.5,-103 866.5,-103 866.5,-62 690.5,-62"/>
<text text-anchor="start" x="698.5" y="-91" font-family="Helvetica,sans-Serif" font-size="10.00">asm/JSystem/J2DGraph</text>
<text text-anchor="start" x="698.5" y="-80" font-family="Helvetica,sans-Serif" font-size="10.00">/J2DWindowEx/__dt__11J2DWindow</text>
<text text-anchor="middle" x="778.5" y="-69" font-family="Helvetica,sans-Serif" font-size="10.00">ExFv.s</text>
</a>
</g>
</g>
<!-- Node1&#45;&gt;Node7 -->
<g id="edge7" class="edge">
<title>Node1&#45;&gt;Node7</title>
<path fill="none" stroke="midnightblue" d="M3736.78,-159.33C3346.63,-158.09 1168.09,-149.39 875.5,-109 868.44,-108.03 861.17,-106.71 853.92,-105.19"/>
<polygon fill="midnightblue" stroke="midnightblue" points="854.6,-101.76 844.08,-103 853.08,-108.59 854.6,-101.76"/>
</g>
<!-- Node8 -->
<g id="node8" class="node">
<title>Node8</title>
<g id="a_node8"><a xlink:title=" ">
<polygon fill="white" stroke="#bfbfbf" points="884.5,-56.5 884.5,-108.5 1014.5,-108.5 1014.5,-56.5 884.5,-56.5"/>
<text text-anchor="start" x="892.5" y="-96.5" font-family="Helvetica,sans-Serif" font-size="10.00">asm/JSystem/J2DGraph</text>
<text text-anchor="start" x="892.5" y="-85.5" font-family="Helvetica,sans-Serif" font-size="10.00">/J2DWindowEx/drawSelf</text>
<text text-anchor="start" x="892.5" y="-74.5" font-family="Helvetica,sans-Serif" font-size="10.00">__11J2DWindowExFffPA3</text>
<text text-anchor="middle" x="949.5" y="-63.5" font-family="Helvetica,sans-Serif" font-size="10.00">_A4_f.s</text>
</a>
</g>
</g>
<!-- Node1&#45;&gt;Node8 -->
<g id="edge8" class="edge">
<title>Node1&#45;&gt;Node8</title>
<path fill="none" stroke="midnightblue" d="M3736.77,-159.52C3358.21,-159.49 1299.88,-157.11 1024.5,-109 1024.4,-108.98 1024.3,-108.96 1024.2,-108.95"/>
<polygon fill="midnightblue" stroke="midnightblue" points="1025.14,-105.57 1014.63,-106.97 1023.72,-112.42 1025.14,-105.57"/>
</g>
<!-- Node9 -->
<g id="node9" class="node">
<title>Node9</title>
<g id="a_node9"><a xlink:title=" ">
<polygon fill="white" stroke="#bfbfbf" points="1033,-67.5 1033,-97.5 1194,-97.5 1194,-67.5 1033,-67.5"/>
<text text-anchor="start" x="1041" y="-85.5" font-family="Helvetica,sans-Serif" font-size="10.00">asm/JSystem/J2DGraph</text>
<text text-anchor="middle" x="1113.5" y="-74.5" font-family="Helvetica,sans-Serif" font-size="10.00">/J2DWindowEx/func_803012CC.s</text>
</a>
</g>
</g>
<!-- Node1&#45;&gt;Node9 -->
<g id="edge9" class="edge">
<title>Node1&#45;&gt;Node9</title>
<path fill="none" stroke="midnightblue" d="M3736.88,-159.26C3373.27,-157.64 1461.25,-147.37 1203.5,-109 1190.7,-107.09 1177.15,-103.9 1164.55,-100.41"/>
<polygon fill="midnightblue" stroke="midnightblue" points="1165.26,-96.98 1154.68,-97.57 1163.32,-103.7 1165.26,-96.98"/>
</g>
<!-- Node10 -->
<g id="node10" class="node">
<title>Node10</title>
<g id="a_node10"><a xlink:title=" ">
<polygon fill="white" stroke="#bfbfbf" points="1212.5,-67.5 1212.5,-97.5 1370.5,-97.5 1370.5,-67.5 1212.5,-67.5"/>
<text text-anchor="start" x="1220.5" y="-85.5" font-family="Helvetica,sans-Serif" font-size="10.00">asm/JSystem/J2DGraph</text>
<text text-anchor="middle" x="1291.5" y="-74.5" font-family="Helvetica,sans-Serif" font-size="10.00">/J2DWindowEx/func_80301994.s</text>
</a>
</g>
</g>
<!-- Node1&#45;&gt;Node10 -->
<g id="edge10" class="edge">
<title>Node1&#45;&gt;Node10</title>
<path fill="none" stroke="midnightblue" d="M3736.73,-159.18C3387.56,-157.22 1618.65,-145.5 1379.5,-109 1366.97,-107.09 1353.71,-103.89 1341.39,-100.4"/>
<polygon fill="midnightblue" stroke="midnightblue" points="1342.33,-97.03 1331.75,-97.56 1340.35,-103.74 1342.33,-97.03"/>
</g>
<!-- Node11 -->
<g id="node11" class="node">
<title>Node11</title>
<g id="a_node11"><a xlink:title=" ">
<polygon fill="white" stroke="#bfbfbf" points="1388,-62 1388,-103 1637,-103 1637,-62 1388,-62"/>
<text text-anchor="start" x="1396" y="-91" font-family="Helvetica,sans-Serif" font-size="10.00">asm/JSystem/J2DGraph</text>
<text text-anchor="start" x="1396" y="-80" font-family="Helvetica,sans-Serif" font-size="10.00">/J2DWindowEx/drawFrameTexture</text>
<text text-anchor="middle" x="1512.5" y="-69" font-family="Helvetica,sans-Serif" font-size="10.00">__11J2DWindowExFffffUsUsUsUsP11J2DMaterialb.s</text>
</a>
</g>
</g>
<!-- Node1&#45;&gt;Node11 -->
<g id="edge11" class="edge">
<title>Node1&#45;&gt;Node11</title>
<path fill="none" stroke="midnightblue" d="M3736.7,-159.43C3433.96,-158.85 2068.14,-153.76 1646.5,-109 1635.95,-107.88 1624.99,-106.37 1614.09,-104.64"/>
<polygon fill="midnightblue" stroke="midnightblue" points="1614.54,-101.17 1604.11,-103 1613.41,-108.08 1614.54,-101.17"/>
</g>
<!-- Node12 -->
<g id="node12" class="node">
<title>Node12</title>
<g id="a_node12"><a xlink:title=" ">
<polygon fill="white" stroke="#bfbfbf" points="1655,-67.5 1655,-97.5 1816,-97.5 1816,-67.5 1655,-67.5"/>
<text text-anchor="start" x="1663" y="-85.5" font-family="Helvetica,sans-Serif" font-size="10.00">asm/JSystem/J2DGraph</text>
<text text-anchor="middle" x="1735.5" y="-74.5" font-family="Helvetica,sans-Serif" font-size="10.00">/J2DWindowEx/func_80301FC8.s</text>
</a>
</g>
</g>
<!-- Node1&#45;&gt;Node12 -->
<g id="edge12" class="edge">
<title>Node1&#45;&gt;Node12</title>
<path fill="none" stroke="midnightblue" d="M3736.83,-158.86C3428.02,-155.43 2018.18,-138.29 1825.5,-109 1812.7,-107.05 1799.15,-103.85 1786.56,-100.36"/>
<polygon fill="midnightblue" stroke="midnightblue" points="1787.27,-96.92 1776.69,-97.51 1785.33,-103.65 1787.27,-96.92"/>
</g>
<!-- Node13 -->
<g id="node13" class="node">
<title>Node13</title>
<g id="a_node13"><a xlink:title=" ">
<polygon fill="white" stroke="#bfbfbf" points="1834.5,-67.5 1834.5,-97.5 1992.5,-97.5 1992.5,-67.5 1834.5,-67.5"/>
<text text-anchor="start" x="1842.5" y="-85.5" font-family="Helvetica,sans-Serif" font-size="10.00">asm/JSystem/J2DGraph</text>
<text text-anchor="middle" x="1913.5" y="-74.5" font-family="Helvetica,sans-Serif" font-size="10.00">/J2DWindowEx/func_80302164.s</text>
</a>
</g>
</g>
<!-- Node1&#45;&gt;Node13 -->
<g id="edge13" class="edge">
<title>Node1&#45;&gt;Node13</title>
<path fill="none" stroke="midnightblue" d="M3736.95,-159.83C3465.98,-161.01 2347.94,-162.48 2002.5,-109 1989.97,-107.06 1976.7,-103.89 1964.35,-100.44"/>
<polygon fill="midnightblue" stroke="midnightblue" points="1965.25,-97.06 1954.67,-97.63 1963.3,-103.78 1965.25,-97.06"/>
</g>
<!-- Node14 -->
<g id="node14" class="node">
<title>Node14</title>
<g id="a_node14"><a xlink:title=" ">
<polygon fill="white" stroke="#bfbfbf" points="2011,-62 2011,-103 2150,-103 2150,-62 2011,-62"/>
<text text-anchor="start" x="2019" y="-91" font-family="Helvetica,sans-Serif" font-size="10.00">asm/JSystem/J2DGraph</text>
<text text-anchor="start" x="2019" y="-80" font-family="Helvetica,sans-Serif" font-size="10.00">/J2DWindowEx/setTevOrder</text>
<text text-anchor="middle" x="2080.5" y="-69" font-family="Helvetica,sans-Serif" font-size="10.00">__11J2DWindowExFb.s</text>
</a>
</g>
</g>
<!-- Node1&#45;&gt;Node14 -->
<g id="edge14" class="edge">
<title>Node1&#45;&gt;Node14</title>
<path fill="none" stroke="midnightblue" d="M3736.62,-159.9C3479.93,-161.28 2471.53,-163.06 2159.5,-109 2154.48,-108.13 2149.34,-107.02 2144.21,-105.74"/>
<polygon fill="midnightblue" stroke="midnightblue" points="2144.96,-102.31 2134.39,-103.11 2143.14,-109.08 2144.96,-102.31"/>
</g>
<!-- Node15 -->
<g id="node15" class="node">
<title>Node15</title>
<g id="a_node15"><a xlink:title=" ">
<polygon fill="white" stroke="#bfbfbf" points="2168.5,-62 2168.5,-103 2308.5,-103 2308.5,-62 2168.5,-62"/>
<text text-anchor="start" x="2176.5" y="-91" font-family="Helvetica,sans-Serif" font-size="10.00">asm/JSystem/J2DGraph</text>
<text text-anchor="start" x="2176.5" y="-80" font-family="Helvetica,sans-Serif" font-size="10.00">/J2DWindowEx/setTevStage</text>
<text text-anchor="middle" x="2238.5" y="-69" font-family="Helvetica,sans-Serif" font-size="10.00">__11J2DWindowExFb.s</text>
</a>
</g>
</g>
<!-- Node1&#45;&gt;Node15 -->
<g id="edge15" class="edge">
<title>Node1&#45;&gt;Node15</title>
<path fill="none" stroke="midnightblue" d="M3736.8,-159.67C3496.2,-160.01 2597.15,-157.92 2317.5,-109 2312.48,-108.12 2307.34,-107 2302.22,-105.72"/>
<polygon fill="midnightblue" stroke="midnightblue" points="2302.96,-102.3 2292.4,-103.08 2301.14,-109.06 2302.96,-102.3"/>
</g>
<!-- Node16 -->
<g id="node16" class="node">
<title>Node16</title>
<g id="a_node16"><a xlink:title=" ">
<polygon fill="white" stroke="#bfbfbf" points="2326.5,-56.5 2326.5,-108.5 2508.5,-108.5 2508.5,-56.5 2326.5,-56.5"/>
<text text-anchor="start" x="2334.5" y="-96.5" font-family="Helvetica,sans-Serif" font-size="10.00">asm/JSystem/J2DGraph</text>
<text text-anchor="start" x="2334.5" y="-85.5" font-family="Helvetica,sans-Serif" font-size="10.00">/J2DWindowEx/setStage</text>
<text text-anchor="start" x="2334.5" y="-74.5" font-family="Helvetica,sans-Serif" font-size="10.00">__11J2DWindowExFP11J2DTevStage</text>
<text text-anchor="middle" x="2417.5" y="-63.5" font-family="Helvetica,sans-Serif" font-size="10.00">Q211J2DWindowEx10stage_enum.s</text>
</a>
</g>
</g>
<!-- Node1&#45;&gt;Node16 -->
<g id="edge16" class="edge">
<title>Node1&#45;&gt;Node16</title>
<path fill="none" stroke="midnightblue" d="M3736.97,-158.79C3520.99,-155.96 2778.26,-143.95 2518.85,-108.85"/>
<polygon fill="midnightblue" stroke="midnightblue" points="2519.11,-105.35 2508.72,-107.43 2518.14,-112.29 2519.11,-105.35"/>
</g>
<!-- Node17 -->
<g id="node17" class="node">
<title>Node17</title>
<g id="a_node17"><a xlink:title=" ">
<polygon fill="white" stroke="#bfbfbf" points="2527,-56.5 2527,-108.5 2686,-108.5 2686,-56.5 2527,-56.5"/>
<text text-anchor="start" x="2535" y="-96.5" font-family="Helvetica,sans-Serif" font-size="10.00">asm/JSystem/J2DGraph</text>
<text text-anchor="start" x="2535" y="-85.5" font-family="Helvetica,sans-Serif" font-size="10.00">/J2DWindowEx/setBlack</text>
<text text-anchor="start" x="2535" y="-74.5" font-family="Helvetica,sans-Serif" font-size="10.00">__11J2DWindowExFQ28JUtility6</text>
<text text-anchor="middle" x="2606.5" y="-63.5" font-family="Helvetica,sans-Serif" font-size="10.00">TColor.s</text>
</a>
</g>
</g>
<!-- Node1&#45;&gt;Node17 -->
<g id="edge17" class="edge">
<title>Node1&#45;&gt;Node17</title>
<path fill="none" stroke="midnightblue" d="M3736.79,-158.59C3540.85,-155.34 2917.86,-142.68 2696.28,-108.9"/>
<polygon fill="midnightblue" stroke="midnightblue" points="2696.78,-105.44 2686.35,-107.33 2695.68,-112.35 2696.78,-105.44"/>
</g>
<!-- Node18 -->
<g id="node18" class="node">
<title>Node18</title>
<g id="a_node18"><a xlink:title=" ">
<polygon fill="white" stroke="#bfbfbf" points="2704,-56.5 2704,-108.5 2863,-108.5 2863,-56.5 2704,-56.5"/>
<text text-anchor="start" x="2712" y="-96.5" font-family="Helvetica,sans-Serif" font-size="10.00">asm/JSystem/J2DGraph</text>
<text text-anchor="start" x="2712" y="-85.5" font-family="Helvetica,sans-Serif" font-size="10.00">/J2DWindowEx/setWhite</text>
<text text-anchor="start" x="2712" y="-74.5" font-family="Helvetica,sans-Serif" font-size="10.00">__11J2DWindowExFQ28JUtility6</text>
<text text-anchor="middle" x="2783.5" y="-63.5" font-family="Helvetica,sans-Serif" font-size="10.00">TColor.s</text>
</a>
</g>
</g>
<!-- Node1&#45;&gt;Node18 -->
<g id="edge18" class="edge">
<title>Node1&#45;&gt;Node18</title>
<path fill="none" stroke="midnightblue" d="M3736.69,-157.98C3562.78,-153.31 3058.41,-137.74 2873.25,-108.9"/>
<polygon fill="midnightblue" stroke="midnightblue" points="2873.79,-105.44 2863.36,-107.3 2872.67,-112.35 2873.79,-105.44"/>
</g>
<!-- Node19 -->
<g id="node19" class="node">
<title>Node19</title>
<g id="a_node19"><a xlink:title=" ">
<polygon fill="white" stroke="#bfbfbf" points="2881.5,-56.5 2881.5,-108.5 3069.5,-108.5 3069.5,-56.5 2881.5,-56.5"/>
<text text-anchor="start" x="2889.5" y="-96.5" font-family="Helvetica,sans-Serif" font-size="10.00">asm/JSystem/J2DGraph</text>
<text text-anchor="start" x="2889.5" y="-85.5" font-family="Helvetica,sans-Serif" font-size="10.00">/J2DWindowEx/setBlackWhite</text>
<text text-anchor="start" x="2889.5" y="-74.5" font-family="Helvetica,sans-Serif" font-size="10.00">__11J2DWindowExFQ28JUtility6TColor</text>
<text text-anchor="middle" x="2975.5" y="-63.5" font-family="Helvetica,sans-Serif" font-size="10.00">Q28JUtility6TColor.s</text>
</a>
</g>
</g>
<!-- Node1&#45;&gt;Node19 -->
<g id="edge19" class="edge">
<title>Node1&#45;&gt;Node19</title>
<path fill="none" stroke="midnightblue" d="M3736.62,-158.72C3614.69,-156.38 3328.8,-147.1 3079.7,-108.89"/>
<polygon fill="midnightblue" stroke="midnightblue" points="3080.16,-105.42 3069.74,-107.35 3079.08,-112.34 3080.16,-105.42"/>
</g>
<!-- Node20 -->
<g id="node20" class="node">
<title>Node20</title>
<g id="a_node20"><a xlink:title=" ">
<polygon fill="white" stroke="#bfbfbf" points="3088,-56.5 3088,-108.5 3289,-108.5 3289,-56.5 3088,-56.5"/>
<text text-anchor="start" x="3096" y="-96.5" font-family="Helvetica,sans-Serif" font-size="10.00">asm/JSystem/J2DGraph</text>
<text text-anchor="start" x="3096" y="-85.5" font-family="Helvetica,sans-Serif" font-size="10.00">/J2DWindowEx/getBlackWhite</text>
<text text-anchor="start" x="3096" y="-74.5" font-family="Helvetica,sans-Serif" font-size="10.00">__11J2DWindowExCFPQ28JUtility6TColor</text>
<text text-anchor="middle" x="3188.5" y="-63.5" font-family="Helvetica,sans-Serif" font-size="10.00">PQ28JUtility6TColor.s</text>
</a>
</g>
</g>
<!-- Node1&#45;&gt;Node20 -->
<g id="edge20" class="edge">
<title>Node1&#45;&gt;Node20</title>
<path fill="none" stroke="midnightblue" d="M3736.77,-155.9C3644.89,-149.82 3463.25,-135.66 3299.37,-109.05"/>
<polygon fill="midnightblue" stroke="midnightblue" points="3299.54,-105.53 3289.11,-107.36 3298.41,-112.44 3299.54,-105.53"/>
</g>
<!-- Node21 -->
<g id="node21" class="node">
<title>Node21</title>
<g id="a_node21"><a xlink:title=" ">
<polygon fill="white" stroke="#bfbfbf" points="3307.5,-56.5 3307.5,-108.5 3501.5,-108.5 3501.5,-56.5 3307.5,-56.5"/>
<text text-anchor="start" x="3315.5" y="-96.5" font-family="Helvetica,sans-Serif" font-size="10.00">asm/JSystem/J2DGraph</text>
<text text-anchor="start" x="3315.5" y="-85.5" font-family="Helvetica,sans-Serif" font-size="10.00">/J2DWindowEx/isSetBlackWhite</text>
<text text-anchor="start" x="3315.5" y="-74.5" font-family="Helvetica,sans-Serif" font-size="10.00">__11J2DWindowExCFQ28JUtility6TColor</text>
<text text-anchor="middle" x="3404.5" y="-63.5" font-family="Helvetica,sans-Serif" font-size="10.00">Q28JUtility6TColor.s</text>
</a>
</g>
</g>
<!-- Node1&#45;&gt;Node21 -->
<g id="edge21" class="edge">
<title>Node1&#45;&gt;Node21</title>
<path fill="none" stroke="midnightblue" d="M3736.86,-150.06C3681.08,-140.99 3595.21,-126.39 3511.69,-109.2"/>
<polygon fill="midnightblue" stroke="midnightblue" points="3512.28,-105.75 3501.78,-107.15 3510.86,-112.6 3512.28,-105.75"/>
</g>
<!-- Node22 -->
<g id="node22" class="node">
<title>Node22</title>
<g id="a_node22"><a xlink:title=" ">
<polygon fill="white" stroke="#bfbfbf" points="3519,-62 3519,-103 3644,-103 3644,-62 3519,-62"/>
<text text-anchor="start" x="3527" y="-91" font-family="Helvetica,sans-Serif" font-size="10.00">asm/JSystem/J2DGraph</text>
<text text-anchor="start" x="3527" y="-80" font-family="Helvetica,sans-Serif" font-size="10.00">/J2DWindowEx/getBlack</text>
<text text-anchor="middle" x="3581.5" y="-69" font-family="Helvetica,sans-Serif" font-size="10.00">__11J2DWindowExCFv.s</text>
</a>
</g>
</g>
<!-- Node1&#45;&gt;Node22 -->
<g id="edge22" class="edge">
<title>Node1&#45;&gt;Node22</title>
<path fill="none" stroke="midnightblue" d="M3756.74,-145.47C3728.04,-135.34 3688.38,-121.33 3653.5,-109 3651.23,-108.2 3648.92,-107.38 3646.59,-106.56"/>
<polygon fill="midnightblue" stroke="midnightblue" points="3647.52,-103.17 3636.92,-103.13 3645.18,-109.77 3647.52,-103.17"/>
</g>
<!-- Node23 -->
<g id="node23" class="node">
<title>Node23</title>
<g id="a_node23"><a xlink:title=" ">
<polygon fill="white" stroke="#bfbfbf" points="3662,-62 3662,-103 3787,-103 3787,-62 3662,-62"/>
<text text-anchor="start" x="3670" y="-91" font-family="Helvetica,sans-Serif" font-size="10.00">asm/JSystem/J2DGraph</text>
<text text-anchor="start" x="3670" y="-80" font-family="Helvetica,sans-Serif" font-size="10.00">/J2DWindowEx/getWhite</text>
<text text-anchor="middle" x="3724.5" y="-69" font-family="Helvetica,sans-Serif" font-size="10.00">__11J2DWindowExCFv.s</text>
</a>
</g>
</g>
<!-- Node1&#45;&gt;Node23 -->
<g id="edge23" class="edge">
<title>Node1&#45;&gt;Node23</title>
<path fill="none" stroke="midnightblue" d="M3782.96,-145.2C3773.73,-135.47 3761.24,-122.28 3750.17,-110.59"/>
<polygon fill="midnightblue" stroke="midnightblue" points="3752.56,-108.03 3743.14,-103.18 3747.48,-112.85 3752.56,-108.03"/>
</g>
<!-- Node24 -->
<g id="node24" class="node">
<title>Node24</title>
<g id="a_node24"><a xlink:title=" ">
<polygon fill="white" stroke="#bfbfbf" points="3805.5,-62 3805.5,-103 3931.5,-103 3931.5,-62 3805.5,-62"/>
<text text-anchor="start" x="3813.5" y="-91" font-family="Helvetica,sans-Serif" font-size="10.00">asm/JSystem/J2DGraph</text>
<text text-anchor="start" x="3813.5" y="-80" font-family="Helvetica,sans-Serif" font-size="10.00">/J2DWindowEx/setAlpha</text>
<text text-anchor="middle" x="3868.5" y="-69" font-family="Helvetica,sans-Serif" font-size="10.00">__11J2DWindowExFUc.s</text>
</a>
</g>
</g>
<!-- Node1&#45;&gt;Node24 -->
<g id="edge24" class="edge">
<title>Node1&#45;&gt;Node24</title>
<path fill="none" stroke="midnightblue" d="M3810.04,-145.2C3819.27,-135.47 3831.76,-122.28 3842.83,-110.59"/>
<polygon fill="midnightblue" stroke="midnightblue" points="3845.52,-112.85 3849.86,-103.18 3840.44,-108.03 3845.52,-112.85"/>
</g>
<!-- Node25 -->
<g id="node25" class="node">
<title>Node25</title>
<g id="a_node25"><a xlink:title=" ">
<polygon fill="white" stroke="#bfbfbf" points="3949.5,-62 3949.5,-103 4133.5,-103 4133.5,-62 3949.5,-62"/>
<text text-anchor="start" x="3957.5" y="-91" font-family="Helvetica,sans-Serif" font-size="10.00">asm/JSystem/J2DGraph</text>
<text text-anchor="start" x="3957.5" y="-80" font-family="Helvetica,sans-Serif" font-size="10.00">/J2DWindowEx/setCullBack</text>
<text text-anchor="middle" x="4041.5" y="-69" font-family="Helvetica,sans-Serif" font-size="10.00">__11J2DWindowExF11_GXCullMode.s</text>
</a>
</g>
</g>
<!-- Node1&#45;&gt;Node25 -->
<g id="edge25" class="edge">
<title>Node1&#45;&gt;Node25</title>
<path fill="none" stroke="midnightblue" d="M3841.72,-145.47C3877.31,-134.43 3927.6,-118.83 3968.82,-106.05"/>
<polygon fill="midnightblue" stroke="midnightblue" points="3970.03,-109.34 3978.54,-103.03 3967.95,-102.65 3970.03,-109.34"/>
</g>
<!-- Node26 -->
<g id="node26" class="node">
<title>Node26</title>
<g id="a_node26"><a xlink:title=" ">
<polygon fill="white" stroke="#bfbfbf" points="4152,-62 4152,-103 4291,-103 4291,-62 4152,-62"/>
<text text-anchor="start" x="4160" y="-91" font-family="Helvetica,sans-Serif" font-size="10.00">asm/JSystem/J2DGraph</text>
<text text-anchor="start" x="4160" y="-80" font-family="Helvetica,sans-Serif" font-size="10.00">/J2DWindowEx/rewriteAlpha</text>
<text text-anchor="middle" x="4221.5" y="-69" font-family="Helvetica,sans-Serif" font-size="10.00">__11J2DWindowExFv.s</text>
</a>
</g>
</g>
<!-- Node1&#45;&gt;Node26 -->
<g id="edge26" class="edge">
<title>Node1&#45;&gt;Node26</title>
<path fill="none" stroke="midnightblue" d="M3856.14,-153.86C3925.55,-146.59 4043.31,-132.07 4142.5,-109 4146.61,-108.04 4150.8,-106.97 4155.02,-105.83"/>
<polygon fill="midnightblue" stroke="midnightblue" points="4156.2,-109.13 4164.86,-103.04 4154.28,-102.4 4156.2,-109.13"/>
</g>
<!-- Node27 -->
<g id="node27" class="node">
<title>Node27</title>
<g id="a_node27"><a xlink:title=" ">
<polygon fill="white" stroke="#bfbfbf" points="4309.5,-62 4309.5,-103 4467.5,-103 4467.5,-62 4309.5,-62"/>
<text text-anchor="start" x="4317.5" y="-91" font-family="Helvetica,sans-Serif" font-size="10.00">asm/JSystem/J2DGraph</text>
<text text-anchor="start" x="4317.5" y="-80" font-family="Helvetica,sans-Serif" font-size="10.00">/J2DWindowEx/getFrameTexture</text>
<text text-anchor="middle" x="4388.5" y="-69" font-family="Helvetica,sans-Serif" font-size="10.00">__11J2DWindowExCFUcUc.s</text>
</a>
</g>
</g>
<!-- Node1&#45;&gt;Node27 -->
<g id="edge27" class="edge">
<title>Node1&#45;&gt;Node27</title>
<path fill="none" stroke="midnightblue" d="M3856.36,-157.03C3951.29,-152.33 4141.85,-139.67 4300.5,-109 4305.77,-107.98 4311.18,-106.79 4316.6,-105.48"/>
<polygon fill="midnightblue" stroke="midnightblue" points="4317.5,-108.87 4326.35,-103.03 4315.79,-102.08 4317.5,-108.87"/>
</g>
<!-- Node28 -->
<g id="node28" class="node">
<title>Node28</title>
<g id="a_node28"><a xlink:title=" ">
<polygon fill="white" stroke="#bfbfbf" points="4485.5,-62 4485.5,-103 4655.5,-103 4655.5,-62 4485.5,-62"/>
<text text-anchor="start" x="4493.5" y="-91" font-family="Helvetica,sans-Serif" font-size="10.00">asm/JSystem/J2DGraph</text>
<text text-anchor="start" x="4493.5" y="-80" font-family="Helvetica,sans-Serif" font-size="10.00">/J2DWindowEx/getContentsTexture</text>
<text text-anchor="middle" x="4570.5" y="-69" font-family="Helvetica,sans-Serif" font-size="10.00">__11J2DWindowExCFUc.s</text>
</a>
</g>
</g>
<!-- Node1&#45;&gt;Node28 -->
<g id="edge28" class="edge">
<title>Node1&#45;&gt;Node28</title>
<path fill="none" stroke="midnightblue" d="M3856.08,-158.88C3974.93,-156.81 4249.55,-147.84 4476.5,-109 4482.57,-107.96 4488.82,-106.7 4495.06,-105.31"/>
<polygon fill="midnightblue" stroke="midnightblue" points="4495.92,-108.7 4504.86,-103.01 4494.33,-101.88 4495.92,-108.7"/>
</g>
<!-- Node29 -->
<g id="node29" class="node">
<title>Node29</title>
<g id="a_node29"><a xlink:title=" ">
<polygon fill="white" stroke="#bfbfbf" points="4674,-62 4674,-103 4843,-103 4843,-62 4674,-62"/>
<text text-anchor="start" x="4682" y="-91" font-family="Helvetica,sans-Serif" font-size="10.00">asm/JSystem/J2DGraph</text>
<text text-anchor="start" x="4682" y="-80" font-family="Helvetica,sans-Serif" font-size="10.00">/J2DWindowEx/isUsed_</text>
<text text-anchor="middle" x="4758.5" y="-69" font-family="Helvetica,sans-Serif" font-size="10.00">_11J2DWindowExFPC7ResTIMG.s</text>
</a>
</g>
</g>
<!-- Node1&#45;&gt;Node29 -->
<g id="edge29" class="edge">
<title>Node1&#45;&gt;Node29</title>
<path fill="none" stroke="midnightblue" d="M3856.16,-160.25C3997.56,-161.12 4363.74,-158 4664.5,-109 4670.69,-107.99 4677.06,-106.74 4683.42,-105.34"/>
<polygon fill="midnightblue" stroke="midnightblue" points="4684.45,-108.69 4693.39,-103.02 4682.86,-101.87 4684.45,-108.69"/>
</g>
<!-- Node30 -->
<g id="node30" class="node">
<title>Node30</title>
<g id="a_node30"><a xlink:title=" ">
<polygon fill="white" stroke="#bfbfbf" points="4861,-62 4861,-103 5052,-103 5052,-62 4861,-62"/>
<text text-anchor="start" x="4869" y="-91" font-family="Helvetica,sans-Serif" font-size="10.00">asm/JSystem/J2DGraph</text>
<text text-anchor="start" x="4869" y="-80" font-family="Helvetica,sans-Serif" font-size="10.00">/J2DWindowEx/setAnimation</text>
<text text-anchor="middle" x="4956.5" y="-69" font-family="Helvetica,sans-Serif" font-size="10.00">__11J2DWindowExFP11J2DAnmColor.s</text>
</a>
</g>
</g>
<!-- Node1&#45;&gt;Node30 -->
<g id="edge30" class="edge">
<title>Node1&#45;&gt;Node30</title>
<path fill="none" stroke="midnightblue" d="M3856.07,-158.16C4049.38,-153.58 4657.92,-137.24 4852.5,-109 4859.79,-107.94 4867.32,-106.6 4874.83,-105.09"/>
<polygon fill="midnightblue" stroke="midnightblue" points="4875.62,-108.5 4884.68,-103.01 4874.17,-101.65 4875.62,-108.5"/>
</g>
<!-- Node31 -->
<g id="node31" class="node">
<title>Node31</title>
<g id="a_node31"><a xlink:title=" ">
<polygon fill="white" stroke="#bfbfbf" points="5070,-56.5 5070,-108.5 5263,-108.5 5263,-56.5 5070,-56.5"/>
<text text-anchor="start" x="5078" y="-96.5" font-family="Helvetica,sans-Serif" font-size="10.00">asm/JSystem/J2DGraph</text>
<text text-anchor="start" x="5078" y="-85.5" font-family="Helvetica,sans-Serif" font-size="10.00">/J2DWindowEx/setAnimation</text>
<text text-anchor="start" x="5078" y="-74.5" font-family="Helvetica,sans-Serif" font-size="10.00">__11J2DWindowExFP19J2DAnmTexture</text>
<text text-anchor="middle" x="5166.5" y="-63.5" font-family="Helvetica,sans-Serif" font-size="10.00">SRTKey.s</text>
</a>
</g>
</g>
<!-- Node1&#45;&gt;Node31 -->
<g id="edge31" class="edge">
<title>Node1&#45;&gt;Node31</title>
<path fill="none" stroke="midnightblue" d="M3856.16,-158.69C4070.87,-155.52 4804.54,-142.56 5059.97,-109.06"/>
<polygon fill="midnightblue" stroke="midnightblue" points="5060.51,-112.52 5069.95,-107.71 5059.57,-105.59 5060.51,-112.52"/>
</g>
<!-- Node32 -->
<g id="node32" class="node">
<title>Node32</title>
<g id="a_node32"><a xlink:title=" ">
<polygon fill="white" stroke="#bfbfbf" points="5281,-62 5281,-103 5496,-103 5496,-62 5281,-62"/>
<text text-anchor="start" x="5289" y="-91" font-family="Helvetica,sans-Serif" font-size="10.00">asm/JSystem/J2DGraph</text>
<text text-anchor="start" x="5289" y="-80" font-family="Helvetica,sans-Serif" font-size="10.00">/J2DWindowEx/setAnimation</text>
<text text-anchor="middle" x="5388.5" y="-69" font-family="Helvetica,sans-Serif" font-size="10.00">__11J2DWindowExFP16J2DAnmTexPattern.s</text>
</a>
</g>
</g>
<!-- Node1&#45;&gt;Node32 -->
<g id="edge32" class="edge">
<title>Node1&#45;&gt;Node32</title>
<path fill="none" stroke="midnightblue" d="M3856.37,-158.91C4096.65,-156.3 4991.56,-144.39 5272.5,-109 5281.05,-107.92 5289.89,-106.52 5298.71,-104.92"/>
<polygon fill="midnightblue" stroke="midnightblue" points="5299.47,-108.34 5308.65,-103.05 5298.17,-101.46 5299.47,-108.34"/>
</g>
<!-- Node33 -->
<g id="node33" class="node">
<title>Node33</title>
<g id="a_node33"><a xlink:title=" ">
<polygon fill="white" stroke="#bfbfbf" points="5514.5,-62 5514.5,-103 5732.5,-103 5732.5,-62 5514.5,-62"/>
<text text-anchor="start" x="5522.5" y="-91" font-family="Helvetica,sans-Serif" font-size="10.00">asm/JSystem/J2DGraph</text>
<text text-anchor="start" x="5522.5" y="-80" font-family="Helvetica,sans-Serif" font-size="10.00">/J2DWindowEx/setAnimation</text>
<text text-anchor="middle" x="5623.5" y="-69" font-family="Helvetica,sans-Serif" font-size="10.00">__11J2DWindowExFP15J2DAnmTevRegKey.s</text>
</a>
</g>
</g>
<!-- Node1&#45;&gt;Node33 -->
<g id="edge33" class="edge">
<title>Node1&#45;&gt;Node33</title>
<path fill="none" stroke="midnightblue" d="M3856.22,-159.2C4119.28,-157.67 5176.22,-149.1 5505.5,-109 5514.36,-107.92 5523.54,-106.49 5532.69,-104.87"/>
<polygon fill="midnightblue" stroke="midnightblue" points="5533.39,-108.3 5542.58,-103.03 5532.11,-101.41 5533.39,-108.3"/>
</g>
<!-- Node34 -->
<g id="node34" class="node">
<title>Node34</title>
<g id="a_node34"><a xlink:title=" ">
<polygon fill="white" stroke="#bfbfbf" points="5751,-62 5751,-103 5902,-103 5902,-62 5751,-62"/>
<text text-anchor="start" x="5759" y="-91" font-family="Helvetica,sans-Serif" font-size="10.00">asm/JSystem/J2DGraph</text>
<text text-anchor="start" x="5759" y="-80" font-family="Helvetica,sans-Serif" font-size="10.00">/J2DWindowEx/isNeedSetAnm</text>
<text text-anchor="middle" x="5826.5" y="-69" font-family="Helvetica,sans-Serif" font-size="10.00">__11J2DWindowExFUc.s</text>
</a>
</g>
</g>
<!-- Node1&#45;&gt;Node34 -->
<g id="edge34" class="edge">
<title>Node1&#45;&gt;Node34</title>
<path fill="none" stroke="midnightblue" d="M3856.15,-158.89C4162.46,-155.65 5551.75,-139.37 5741.5,-109 5747.25,-108.08 5753.16,-106.88 5759.04,-105.49"/>
<polygon fill="midnightblue" stroke="midnightblue" points="5760.07,-108.84 5768.91,-103.01 5758.36,-102.05 5760.07,-108.84"/>
</g>
<!-- Node35 -->
<g id="node35" class="node">
<title>Node35</title>
<g id="a_node35"><a xlink:title=" ">
<polygon fill="white" stroke="#bfbfbf" points="5920,-56.5 5920,-108.5 6117,-108.5 6117,-56.5 5920,-56.5"/>
<text text-anchor="start" x="5928" y="-96.5" font-family="Helvetica,sans-Serif" font-size="10.00">asm/JSystem/J2DGraph</text>
<text text-anchor="start" x="5928" y="-85.5" font-family="Helvetica,sans-Serif" font-size="10.00">/J2DWindowEx/setAnimation</text>
<text text-anchor="start" x="5928" y="-74.5" font-family="Helvetica,sans-Serif" font-size="10.00">__11J2DWindowExFP20J2DAnmVisibility</text>
<text text-anchor="middle" x="6018.5" y="-63.5" font-family="Helvetica,sans-Serif" font-size="10.00">Full.s</text>
</a>
</g>
</g>
<!-- Node1&#45;&gt;Node35 -->
<g id="edge35" class="edge">
<title>Node1&#45;&gt;Node35</title>
<path fill="none" stroke="midnightblue" d="M3856.35,-159.77C4154.01,-160.84 5477.41,-162.54 5909.78,-109.09"/>
<polygon fill="midnightblue" stroke="midnightblue" points="5910.34,-112.54 5919.82,-107.81 5909.46,-105.6 5910.34,-112.54"/>
</g>
<!-- Node36 -->
<g id="node36" class="node">
<title>Node36</title>
<g id="a_node36"><a xlink:title=" ">
<polygon fill="white" stroke="#bfbfbf" points="6135,-62 6135,-103 6340,-103 6340,-62 6135,-62"/>
<text text-anchor="start" x="6143" y="-91" font-family="Helvetica,sans-Serif" font-size="10.00">asm/JSystem/J2DGraph</text>
<text text-anchor="start" x="6143" y="-80" font-family="Helvetica,sans-Serif" font-size="10.00">/J2DWindowEx/setAnimation</text>
<text text-anchor="middle" x="6237.5" y="-69" font-family="Helvetica,sans-Serif" font-size="10.00">__11J2DWindowExFP14J2DAnmVtxColor.s</text>
</a>
</g>
</g>
<!-- Node1&#45;&gt;Node36 -->
<g id="edge36" class="edge">
<title>Node1&#45;&gt;Node36</title>
<path fill="none" stroke="midnightblue" d="M3856.02,-158.94C4197.01,-155.62 5895.5,-137.73 6126.5,-109 6134.82,-107.97 6143.43,-106.57 6152.01,-104.97"/>
<polygon fill="midnightblue" stroke="midnightblue" points="6152.9,-108.36 6162.04,-103 6151.55,-101.49 6152.9,-108.36"/>
</g>
<!-- Node37 -->
<g id="node37" class="node">
<title>Node37</title>
<g id="a_node37"><a xlink:title=" ">
<polygon fill="white" stroke="#bfbfbf" points="6358,-62 6358,-103 6577,-103 6577,-62 6358,-62"/>
<text text-anchor="start" x="6366" y="-91" font-family="Helvetica,sans-Serif" font-size="10.00">asm/JSystem/J2DGraph</text>
<text text-anchor="start" x="6366" y="-80" font-family="Helvetica,sans-Serif" font-size="10.00">/J2DWindowEx/animationPane</text>
<text text-anchor="middle" x="6467.5" y="-69" font-family="Helvetica,sans-Serif" font-size="10.00">__11J2DWindowExFPC15J2DAnmTransform.s</text>
</a>
</g>
</g>
<!-- Node1&#45;&gt;Node37 -->
<g id="edge37" class="edge">
<title>Node1&#45;&gt;Node37</title>
<path fill="none" stroke="midnightblue" d="M3856.04,-159.01C4216.05,-155.97 6094.87,-138.75 6349.5,-109 6358.52,-107.95 6367.87,-106.52 6377.17,-104.87"/>
<polygon fill="midnightblue" stroke="midnightblue" points="6378.04,-108.27 6387.23,-103.01 6376.76,-101.39 6378.04,-108.27"/>
</g>
<!-- Node38 -->
<g id="node38" class="node">
<title>Node38</title>
<g id="a_node38"><a xlink:title=" ">
<polygon fill="white" stroke="#bfbfbf" points="6595,-62 6595,-103 6756,-103 6756,-62 6595,-62"/>
<text text-anchor="start" x="6603" y="-91" font-family="Helvetica,sans-Serif" font-size="10.00">asm/JSystem/J2DGraph</text>
<text text-anchor="start" x="6603" y="-80" font-family="Helvetica,sans-Serif" font-size="10.00">/J2DWindowEx/getFrameMaterial</text>
<text text-anchor="middle" x="6675.5" y="-69" font-family="Helvetica,sans-Serif" font-size="10.00">__11J2DWindowExCFUc.s</text>
</a>
</g>
</g>
<!-- Node1&#45;&gt;Node38 -->
<g id="edge38" class="edge">
<title>Node1&#45;&gt;Node38</title>
<path fill="none" stroke="midnightblue" d="M3856.29,-159.35C4236.32,-158.3 6308.16,-150.66 6586.5,-109 6592.65,-108.08 6598.98,-106.85 6605.29,-105.44"/>
<polygon fill="midnightblue" stroke="midnightblue" points="6606.26,-108.8 6615.16,-103.07 6604.62,-102 6606.26,-108.8"/>
</g>
<!-- Node39 -->
<g id="node39" class="node">
<title>Node39</title>
<g id="a_node39"><a xlink:title=" ">
<polygon fill="white" stroke="#bfbfbf" points="6774.5,-62 6774.5,-103 6946.5,-103 6946.5,-62 6774.5,-62"/>
<text text-anchor="start" x="6782.5" y="-91" font-family="Helvetica,sans-Serif" font-size="10.00">asm/JSystem/J2DGraph</text>
<text text-anchor="start" x="6782.5" y="-80" font-family="Helvetica,sans-Serif" font-size="10.00">/J2DWindowEx/getContentsMaterial</text>
<text text-anchor="middle" x="6860.5" y="-69" font-family="Helvetica,sans-Serif" font-size="10.00">__11J2DWindowExCFv.s</text>
</a>
</g>
</g>
<!-- Node1&#45;&gt;Node39 -->
<g id="edge39" class="edge">
<title>Node1&#45;&gt;Node39</title>
<path fill="none" stroke="midnightblue" d="M3856.25,-159.36C4250.22,-158.35 6467.97,-150.81 6765.5,-109 6772.26,-108.05 6779.23,-106.77 6786.17,-105.3"/>
<polygon fill="midnightblue" stroke="midnightblue" points="6787.31,-108.63 6796.29,-103.01 6785.77,-101.8 6787.31,-108.63"/>
</g>
<!-- Node40 -->
<g id="node40" class="node">
<title>Node40</title>
<g id="a_node40"><a xlink:title=" ">
<polygon fill="white" stroke="#bfbfbf" points="6964.5,-56.5 6964.5,-108.5 7158.5,-108.5 7158.5,-56.5 6964.5,-56.5"/>
<text text-anchor="start" x="6972.5" y="-96.5" font-family="Helvetica,sans-Serif" font-size="10.00">asm/JSystem/J2DGraph</text>
<text text-anchor="start" x="6972.5" y="-85.5" font-family="Helvetica,sans-Serif" font-size="10.00">/J2DWindowEx/getMaterial</text>
<text text-anchor="start" x="6972.5" y="-74.5" font-family="Helvetica,sans-Serif" font-size="10.00">__11J2DWindowExCFRQ29J2DWindow9</text>
<text text-anchor="middle" x="7061.5" y="-63.5" font-family="Helvetica,sans-Serif" font-size="10.00">TMaterial.s</text>
</a>
</g>
</g>
<!-- Node1&#45;&gt;Node40 -->
<g id="edge40" class="edge">
<title>Node1&#45;&gt;Node40</title>
<path fill="none" stroke="midnightblue" d="M3856.08,-159.34C4259.96,-158.13 6591.17,-149.48 6954.16,-108.96"/>
<polygon fill="midnightblue" stroke="midnightblue" points="6954.81,-112.41 6964.32,-107.75 6953.98,-105.46 6954.81,-112.41"/>
</g>
<!-- Node41 -->
<g id="node41" class="node">
<title>Node41</title>
<g id="a_node41"><a xlink:title=" ">
<polygon fill="white" stroke="#bfbfbf" points="7177,-62 7177,-103 7356,-103 7356,-62 7177,-62"/>
<text text-anchor="start" x="7185" y="-91" font-family="Helvetica,sans-Serif" font-size="10.00">asm/JSystem/J2DGraph</text>
<text text-anchor="start" x="7185" y="-80" font-family="Helvetica,sans-Serif" font-size="10.00">/J2DWindowEx/draw__11J2DWindow</text>
<text text-anchor="middle" x="7266.5" y="-69" font-family="Helvetica,sans-Serif" font-size="10.00">ExFffff.s</text>
</a>
</g>
</g>
<!-- Node1&#45;&gt;Node41 -->
<g id="edge41" class="edge">
<title>Node1&#45;&gt;Node41</title>
<path fill="none" stroke="midnightblue" d="M3856.3,-159.46C4280.47,-159.05 6827.33,-154.7 7167.5,-109 7174.78,-108.02 7182.29,-106.69 7189.77,-105.16"/>
<polygon fill="midnightblue" stroke="midnightblue" points="7190.53,-108.57 7199.56,-103.02 7189.04,-101.73 7190.53,-108.57"/>
</g>
<!-- Node42 -->
<g id="node42" class="node">
<title>Node42</title>
<g id="a_node42"><a xlink:title=" ">
<polygon fill="white" stroke="#bfbfbf" points="7374,-62 7374,-103 7511,-103 7511,-62 7374,-62"/>
<text text-anchor="start" x="7382" y="-91" font-family="Helvetica,sans-Serif" font-size="10.00">asm/JSystem/J2DGraph</text>
<text text-anchor="start" x="7382" y="-80" font-family="Helvetica,sans-Serif" font-size="10.00">/J2DWindowEx/setCullBack</text>
<text text-anchor="middle" x="7442.5" y="-69" font-family="Helvetica,sans-Serif" font-size="10.00">__11J2DWindowExFb.s</text>
</a>
</g>
</g>
<!-- Node1&#45;&gt;Node42 -->
<g id="edge42" class="edge">
<title>Node1&#45;&gt;Node42</title>
<path fill="none" stroke="midnightblue" d="M3856.22,-159.17C4308.78,-156.64 7185.38,-139.36 7365.5,-109 7370.49,-108.16 7375.6,-107.05 7380.7,-105.77"/>
<polygon fill="midnightblue" stroke="midnightblue" points="7381.71,-109.12 7390.44,-103.11 7379.87,-102.36 7381.71,-109.12"/>
</g>
<!-- Node43 -->
<g id="node43" class="node">
<title>Node43</title>
<g id="a_node43"><a xlink:title=" ">
<polygon fill="white" stroke="#bfbfbf" points="7529,-62 7529,-103 7700,-103 7700,-62 7529,-62"/>
<text text-anchor="start" x="7537" y="-91" font-family="Helvetica,sans-Serif" font-size="10.00">asm/JSystem/J2DGraph</text>
<text text-anchor="start" x="7537" y="-80" font-family="Helvetica,sans-Serif" font-size="10.00">/J2DWindowEx/isUsed_</text>
<text text-anchor="middle" x="7614.5" y="-69" font-family="Helvetica,sans-Serif" font-size="10.00">_11J2DWindowExFPC7ResFONT.s</text>
</a>
</g>
</g>
<!-- Node1&#45;&gt;Node43 -->
<g id="edge43" class="edge">
<title>Node1&#45;&gt;Node43</title>
<path fill="none" stroke="midnightblue" d="M3856.35,-159.6C4305.65,-160.2 7143.31,-161.86 7520.5,-109 7527.19,-108.06 7534.09,-106.79 7540.96,-105.32"/>
<polygon fill="midnightblue" stroke="midnightblue" points="7542.01,-108.67 7550.98,-103.04 7540.46,-101.85 7542.01,-108.67"/>
</g>
<!-- Node44 -->
<g id="node44" class="node">
<title>Node44</title>
<g id="a_node44"><a xlink:title=" ">
<polygon fill="white" stroke="#bfbfbf" points="7718,-62 7718,-103 7909,-103 7909,-62 7718,-62"/>
<text text-anchor="start" x="7726" y="-91" font-family="Helvetica,sans-Serif" font-size="10.00">asm/JSystem/J2DGraph</text>
<text text-anchor="start" x="7726" y="-80" font-family="Helvetica,sans-Serif" font-size="10.00">/J2DWindowEx/setAnimation</text>
<text text-anchor="middle" x="7813.5" y="-69" font-family="Helvetica,sans-Serif" font-size="10.00">__11J2DWindowExFP10J2DAnmBase.s</text>
</a>
</g>
</g>
<!-- Node1&#45;&gt;Node44 -->
<g id="edge44" class="edge">
<title>Node1&#45;&gt;Node44</title>
<path fill="none" stroke="midnightblue" d="M3856.03,-159.55C4317.14,-159.83 7311.55,-159.68 7709.5,-109 7717.22,-108.02 7725.19,-106.67 7733.12,-105.12"/>
<polygon fill="midnightblue" stroke="midnightblue" points="7734.06,-108.5 7743.14,-103.04 7732.63,-101.64 7734.06,-108.5"/>
</g>
<!-- Node45 -->
<g id="node45" class="node">
<title>Node45</title>
<g id="a_node45"><a xlink:title=" ">
<polygon fill="white" stroke="#bfbfbf" points="7927.5,-56.5 7927.5,-108.5 8089.5,-108.5 8089.5,-56.5 7927.5,-56.5"/>
<text text-anchor="start" x="7935.5" y="-96.5" font-family="Helvetica,sans-Serif" font-size="10.00">asm/JSystem/J2DGraph</text>
<text text-anchor="start" x="7935.5" y="-85.5" font-family="Helvetica,sans-Serif" font-size="10.00">/J2DWindowEx/getColor</text>
<text text-anchor="start" x="7935.5" y="-74.5" font-family="Helvetica,sans-Serif" font-size="10.00">__14J2DAnmVtxColorCFUcUsP8</text>
<text text-anchor="middle" x="8008.5" y="-63.5" font-family="Helvetica,sans-Serif" font-size="10.00">_GXColor.s</text>
</a>
</g>
</g>
<!-- Node1&#45;&gt;Node45 -->
<g id="edge45" class="edge">
<title>Node1&#45;&gt;Node45</title>
<path fill="none" stroke="midnightblue" d="M3856.22,-159.22C4340.95,-156.87 7620.34,-139.95 7916.99,-108.81"/>
<polygon fill="midnightblue" stroke="midnightblue" points="7917.77,-112.24 7927.27,-107.55 7916.92,-105.29 7917.77,-112.24"/>
</g>
<!-- Node4&#45;&gt;Node3 -->
<g id="edge4" class="edge">
<title>Node4&#45;&gt;Node3</title>
<path fill="none" stroke="midnightblue" d="M197.39,-72.86C188.17,-61.65 171.9,-41.87 160.23,-27.69"/>
<polygon fill="midnightblue" stroke="midnightblue" points="162.73,-25.21 153.67,-19.72 157.32,-29.66 162.73,-25.21"/>
</g>
</g>
</svg>
