<?xml version="1.0" encoding="UTF-8" standalone="no"?>
<!DOCTYPE svg PUBLIC "-//W3C//DTD SVG 1.1//EN"
 "http://www.w3.org/Graphics/SVG/1.1/DTD/svg11.dtd">
<!-- Generated by graphviz version 2.47.0 (20210316.2052)
 -->
<!-- Title: libs/JSystem/J2DGraph/J2DWindowEx.cpp Pages: 1 -->
<!--zoomable 184 -->
<svg id="main" version="1.1" xmlns="http://www.w3.org/2000/svg" xmlns:xlink="http://www.w3.org/1999/xlink" xml:space="preserve" onload="init(evt)">
<style type="text/css"><![CDATA[
.edge:hover path { stroke: red; }
.edge:hover polygon { stroke: red; fill: red; }
]]></style>
<script type="text/javascript"><![CDATA[
var edges = document.getElementsByTagName('g');
if (edges && edges.length) {
  for (var i=0;i<edges.length;i++) {
    if (edges[i].id.substr(0,4)=='edge') {
      edges[i].setAttribute('class','edge');
    }
  }
}
]]></script>
        <defs>
                <circle id="rim" cx="0" cy="0" r="7"/>
                <circle id="rim2" cx="0" cy="0" r="3.5"/>
                <g id="zoomPlus">
                        <use xlink:href="#rim" fill="#404040">
                                <set attributeName="fill" to="#808080" begin="zoomplus.mouseover" end="zoomplus.mouseout"/>
                        </use>
                        <path d="M-4,0h8M0,-4v8" fill="none" stroke="white" stroke-width="1.5" pointer-events="none"/>
                </g>
                <g id="zoomMin">
                        <use xlink:href="#rim" fill="#404040">
                                <set attributeName="fill" to="#808080" begin="zoomminus.mouseover" end="zoomminus.mouseout"/>
                        </use>
                        <path d="M-4,0h8" fill="none" stroke="white" stroke-width="1.5" pointer-events="none"/>
                </g>
                <g id="dirArrow">
                        <path fill="none" stroke="white" stroke-width="1.5" d="M0,-3.0v7 M-2.5,-0.5L0,-3.0L2.5,-0.5"/>
                </g>
               <g id="resetDef">
                       <use xlink:href="#rim2" fill="#404040">
                               <set attributeName="fill" to="#808080" begin="reset.mouseover" end="reset.mouseout"/>
                       </use>
               </g>
        </defs>

<script type="text/javascript">
var viewWidth = 7917;
var viewHeight = 184;
var sectionId = 'dynsection-0';
</script>
<script xlink:href="svgpan.js"/>
<svg id="graph" class="graph">
<g id="viewport">
<title>libs/JSystem/J2DGraph/J2DWindowEx.cpp</title>
<polygon fill="white" stroke="transparent" points="-4,4 -4,-180 7912.5,-180 7912.5,4 -4,4"/>
<!-- Node1 -->
<g id="node1" class="node">
<title>Node1</title>
<g id="a_node1"><a xlink:title=" ">
<polygon fill="#bfbfbf" stroke="black" points="3664.5,-145.5 3664.5,-175.5 3783.5,-175.5 3783.5,-145.5 3664.5,-145.5"/>
<text text-anchor="start" x="3672.5" y="-163.5" font-family="Helvetica,sans-Serif" font-size="10.00">libs/JSystem/J2DGraph</text>
<text text-anchor="middle" x="3724" y="-152.5" font-family="Helvetica,sans-Serif" font-size="10.00">/J2DWindowEx.cpp</text>
</a>
</g>
</g>
<!-- Node2 -->
<g id="node2" class="node">
<title>Node2</title>
<g id="a_node2"><a xlink:href="J2DWindowEx_8h.html" target="_top" xlink:title=" ">
<polygon fill="white" stroke="black" points="0,-73 0,-92 174,-92 174,-73 0,-73"/>
<text text-anchor="middle" x="87" y="-80" font-family="Helvetica,sans-Serif" font-size="10.00">JSystem/J2DGraph/J2DWindowEx.h</text>
</a>
</g>
</g>
<!-- Node1&#45;&gt;Node2 -->
<g id="edge1" class="edge">
<title>Node1&#45;&gt;Node2</title>
<path fill="none" stroke="midnightblue" d="M3664.44,-159.49C3229.19,-159.28 545.81,-156.07 188,-109 166.27,-106.14 142.47,-100.27 123.44,-94.89"/>
<polygon fill="midnightblue" stroke="midnightblue" points="124.26,-91.48 113.68,-92.05 122.3,-98.2 124.26,-91.48"/>
</g>
<!-- Node3 -->
<g id="node3" class="node">
<title>Node3</title>
<g id="a_node3"><a xlink:href="types_8h.html" target="_top" xlink:title=" ">
<polygon fill="white" stroke="black" points="103.5,-0.5 103.5,-19.5 184.5,-19.5 184.5,-0.5 103.5,-0.5"/>
<text text-anchor="middle" x="144" y="-7.5" font-family="Helvetica,sans-Serif" font-size="10.00">dolphin/types.h</text>
</a>
</g>
</g>
<!-- Node1&#45;&gt;Node3 -->
<g id="edge4" class="edge">
<title>Node1&#45;&gt;Node3</title>
<path fill="none" stroke="midnightblue" d="M3664.32,-159.37C3209.11,-158.33 301.72,-150.04 222,-109 196,-95.61 201.26,-78.85 183,-56 175.25,-46.31 166.2,-35.82 158.77,-27.4"/>
<polygon fill="midnightblue" stroke="midnightblue" points="161.25,-24.92 151.98,-19.79 156.02,-29.58 161.25,-24.92"/>
</g>
<!-- Node4 -->
<g id="node4" class="node">
<title>Node4</title>
<g id="a_node4"><a xlink:href="dol2asm_8h.html" target="_top" xlink:title=" ">
<polygon fill="white" stroke="black" points="230.5,-73 230.5,-92 291.5,-92 291.5,-73 230.5,-73"/>
<text text-anchor="middle" x="261" y="-80" font-family="Helvetica,sans-Serif" font-size="10.00">dol2asm.h</text>
</a>
</g>
</g>
<!-- Node1&#45;&gt;Node4 -->
<g id="edge3" class="edge">
<title>Node1&#45;&gt;Node4</title>
<path fill="none" stroke="midnightblue" d="M3664.19,-159.55C3221.65,-159.78 468.51,-159.19 301,-109 293.47,-106.74 286,-102.63 279.59,-98.35"/>
<polygon fill="midnightblue" stroke="midnightblue" points="281.22,-95.21 271.07,-92.17 277.11,-100.88 281.22,-95.21"/>
</g>
<!-- Node5 -->
<g id="node5" class="node">
<title>Node5</title>
<g id="a_node5"><a xlink:title=" ">
<polygon fill="white" stroke="#bfbfbf" points="309.5,-56.5 309.5,-108.5 520.5,-108.5 520.5,-56.5 309.5,-56.5"/>
<text text-anchor="start" x="317.5" y="-96.5" font-family="Helvetica,sans-Serif" font-size="10.00">asm/JSystem/J2DGraph</text>
<text text-anchor="start" x="317.5" y="-85.5" font-family="Helvetica,sans-Serif" font-size="10.00">/J2DWindowEx/__ct__11J2DWindow</text>
<text text-anchor="start" x="317.5" y="-74.5" font-family="Helvetica,sans-Serif" font-size="10.00">ExFP7J2DPaneP20JSURandomInputStream</text>
<text text-anchor="middle" x="415" y="-63.5" font-family="Helvetica,sans-Serif" font-size="10.00">UlP11J2DMaterial.s</text>
</a>
</g>
</g>
<!-- Node1&#45;&gt;Node5 -->
<g id="edge5" class="edge">
<title>Node1&#45;&gt;Node5</title>
<path fill="none" stroke="midnightblue" d="M3664.43,-159.28C3257.91,-157.72 897.77,-147.08 530.79,-108.9"/>
<polygon fill="midnightblue" stroke="midnightblue" points="531.09,-105.42 520.76,-107.8 530.32,-112.37 531.09,-105.42"/>
</g>
<!-- Node6 -->
<g id="node6" class="node">
<title>Node6</title>
<g id="a_node6"><a xlink:title=" ">
<polygon fill="white" stroke="#bfbfbf" points="538.5,-62 538.5,-103 671.5,-103 671.5,-62 538.5,-62"/>
<text text-anchor="start" x="546.5" y="-91" font-family="Helvetica,sans-Serif" font-size="10.00">asm/JSystem/J2DGraph</text>
<text text-anchor="start" x="546.5" y="-80" font-family="Helvetica,sans-Serif" font-size="10.00">/J2DWindowEx/setMinSize</text>
<text text-anchor="middle" x="605" y="-69" font-family="Helvetica,sans-Serif" font-size="10.00">__11J2DWindowExFv.s</text>
</a>
</g>
</g>
<!-- Node1&#45;&gt;Node6 -->
<g id="edge6" class="edge">
<title>Node1&#45;&gt;Node6</title>
<path fill="none" stroke="midnightblue" d="M3664.34,-159.61C3264.82,-160.19 984.9,-161.22 681,-109 676.19,-108.17 671.28,-107.1 666.38,-105.85"/>
<polygon fill="midnightblue" stroke="midnightblue" points="666.94,-102.38 656.37,-103.09 665.08,-109.13 666.94,-102.38"/>
</g>
<!-- Node7 -->
<g id="node7" class="node">
<title>Node7</title>
<g id="a_node7"><a xlink:title=" ">
<polygon fill="white" stroke="#bfbfbf" points="690,-62 690,-103 866,-103 866,-62 690,-62"/>
<text text-anchor="start" x="698" y="-91" font-family="Helvetica,sans-Serif" font-size="10.00">asm/JSystem/J2DGraph</text>
<text text-anchor="start" x="698" y="-80" font-family="Helvetica,sans-Serif" font-size="10.00">/J2DWindowEx/__dt__11J2DWindow</text>
<text text-anchor="middle" x="778" y="-69" font-family="Helvetica,sans-Serif" font-size="10.00">ExFv.s</text>
</a>
</g>
</g>
<!-- Node1&#45;&gt;Node7 -->
<g id="edge7" class="edge">
<title>Node1&#45;&gt;Node7</title>
<path fill="none" stroke="midnightblue" d="M3664.21,-159.3C3279.52,-157.89 1159.99,-148.4 875,-109 868.16,-108.05 861.12,-106.79 854.09,-105.33"/>
<polygon fill="midnightblue" stroke="midnightblue" points="854.36,-101.8 843.84,-103.06 852.85,-108.64 854.36,-101.8"/>
</g>
<!-- Node8 -->
<g id="node8" class="node">
<title>Node8</title>
<g id="a_node8"><a xlink:title=" ">
<polygon fill="white" stroke="#bfbfbf" points="884,-56.5 884,-108.5 1014,-108.5 1014,-56.5 884,-56.5"/>
<text text-anchor="start" x="892" y="-96.5" font-family="Helvetica,sans-Serif" font-size="10.00">asm/JSystem/J2DGraph</text>
<text text-anchor="start" x="892" y="-85.5" font-family="Helvetica,sans-Serif" font-size="10.00">/J2DWindowEx/drawSelf</text>
<text text-anchor="start" x="892" y="-74.5" font-family="Helvetica,sans-Serif" font-size="10.00">__11J2DWindowExFffPA3</text>
<text text-anchor="middle" x="949" y="-63.5" font-family="Helvetica,sans-Serif" font-size="10.00">_A4_f.s</text>
</a>
</g>
</g>
<!-- Node1&#45;&gt;Node8 -->
<g id="edge8" class="edge">
<title>Node1&#45;&gt;Node8</title>
<path fill="none" stroke="midnightblue" d="M3664.32,-159.49C3291.7,-159.26 1291.85,-155.87 1024,-109 1023.9,-108.98 1023.8,-108.96 1023.7,-108.95"/>
<polygon fill="midnightblue" stroke="midnightblue" points="1024.64,-105.57 1014.14,-106.97 1023.22,-112.42 1024.64,-105.57"/>
</g>
<!-- Node9 -->
<g id="node9" class="node">
<title>Node9</title>
<g id="a_node9"><a xlink:title=" ">
<polygon fill="white" stroke="#bfbfbf" points="1032.5,-67.5 1032.5,-97.5 1193.5,-97.5 1193.5,-67.5 1032.5,-67.5"/>
<text text-anchor="start" x="1040.5" y="-85.5" font-family="Helvetica,sans-Serif" font-size="10.00">asm/JSystem/J2DGraph</text>
<text text-anchor="middle" x="1113" y="-74.5" font-family="Helvetica,sans-Serif" font-size="10.00">/J2DWindowEx/func_803012CC.s</text>
</a>
</g>
</g>
<!-- Node1&#45;&gt;Node9 -->
<g id="edge9" class="edge">
<title>Node1&#45;&gt;Node9</title>
<path fill="none" stroke="midnightblue" d="M3664.3,-159.22C3306.5,-157.41 1453.18,-146.31 1203,-109 1190.2,-107.09 1176.65,-103.9 1164.05,-100.41"/>
<polygon fill="midnightblue" stroke="midnightblue" points="1164.76,-96.97 1154.19,-97.56 1162.82,-103.7 1164.76,-96.97"/>
</g>
<!-- Node10 -->
<g id="node10" class="node">
<title>Node10</title>
<g id="a_node10"><a xlink:title=" ">
<polygon fill="white" stroke="#bfbfbf" points="1212,-67.5 1212,-97.5 1370,-97.5 1370,-67.5 1212,-67.5"/>
<text text-anchor="start" x="1220" y="-85.5" font-family="Helvetica,sans-Serif" font-size="10.00">asm/JSystem/J2DGraph</text>
<text text-anchor="middle" x="1291" y="-74.5" font-family="Helvetica,sans-Serif" font-size="10.00">/J2DWindowEx/func_80301994.s</text>
</a>
</g>
</g>
<!-- Node1&#45;&gt;Node10 -->
<g id="edge10" class="edge">
<title>Node1&#45;&gt;Node10</title>
<path fill="none" stroke="midnightblue" d="M3664.35,-159.14C3321.66,-156.98 1610.64,-144.43 1379,-109 1366.47,-107.08 1353.21,-103.89 1340.89,-100.4"/>
<polygon fill="midnightblue" stroke="midnightblue" points="1341.83,-97.02 1331.25,-97.55 1339.85,-103.74 1341.83,-97.02"/>
</g>
<!-- Node11 -->
<g id="node11" class="node">
<title>Node11</title>
<g id="a_node11"><a xlink:title=" ">
<polygon fill="white" stroke="#bfbfbf" points="1387.5,-62 1387.5,-103 1636.5,-103 1636.5,-62 1387.5,-62"/>
<text text-anchor="start" x="1395.5" y="-91" font-family="Helvetica,sans-Serif" font-size="10.00">asm/JSystem/J2DGraph</text>
<text text-anchor="start" x="1395.5" y="-80" font-family="Helvetica,sans-Serif" font-size="10.00">/J2DWindowEx/drawFrameTexture</text>
<text text-anchor="middle" x="1512" y="-69" font-family="Helvetica,sans-Serif" font-size="10.00">__11J2DWindowExFffffUsUsUsUsP11J2DMaterialb.s</text>
</a>
</g>
</g>
<!-- Node1&#45;&gt;Node11 -->
<g id="edge11" class="edge">
<title>Node1&#45;&gt;Node11</title>
<path fill="none" stroke="midnightblue" d="M3664.26,-159.37C3367.79,-158.52 2052.61,-152.33 1646,-109 1635.54,-107.89 1624.68,-106.39 1613.87,-104.68"/>
<polygon fill="midnightblue" stroke="midnightblue" points="1614.41,-101.22 1603.97,-103.05 1613.27,-108.13 1614.41,-101.22"/>
</g>
<!-- Node12 -->
<g id="node12" class="node">
<title>Node12</title>
<g id="a_node12"><a xlink:title=" ">
<polygon fill="white" stroke="#bfbfbf" points="1654.5,-67.5 1654.5,-97.5 1815.5,-97.5 1815.5,-67.5 1654.5,-67.5"/>
<text text-anchor="start" x="1662.5" y="-85.5" font-family="Helvetica,sans-Serif" font-size="10.00">asm/JSystem/J2DGraph</text>
<text text-anchor="middle" x="1735" y="-74.5" font-family="Helvetica,sans-Serif" font-size="10.00">/J2DWindowEx/func_80301FC8.s</text>
</a>
</g>
</g>
<!-- Node1&#45;&gt;Node12 -->
<g id="edge12" class="edge">
<title>Node1&#45;&gt;Node12</title>
<path fill="none" stroke="midnightblue" d="M3664.04,-158.8C3361.53,-155.12 2010.13,-137.23 1825,-109 1812.21,-107.05 1798.65,-103.84 1786.06,-100.35"/>
<polygon fill="midnightblue" stroke="midnightblue" points="1786.77,-96.91 1776.19,-97.5 1784.83,-103.64 1786.77,-96.91"/>
</g>
<!-- Node13 -->
<g id="node13" class="node">
<title>Node13</title>
<g id="a_node13"><a xlink:title=" ">
<polygon fill="white" stroke="#bfbfbf" points="1834,-67.5 1834,-97.5 1992,-97.5 1992,-67.5 1834,-67.5"/>
<text text-anchor="start" x="1842" y="-85.5" font-family="Helvetica,sans-Serif" font-size="10.00">asm/JSystem/J2DGraph</text>
<text text-anchor="middle" x="1913" y="-74.5" font-family="Helvetica,sans-Serif" font-size="10.00">/J2DWindowEx/func_80302164.s</text>
</a>
</g>
</g>
<!-- Node1&#45;&gt;Node13 -->
<g id="edge13" class="edge">
<title>Node1&#45;&gt;Node13</title>
<path fill="none" stroke="midnightblue" d="M3664.2,-159.75C3399.58,-160.52 2332.45,-160.36 2002,-109 1989.47,-107.05 1976.21,-103.88 1963.85,-100.43"/>
<polygon fill="midnightblue" stroke="midnightblue" points="1964.75,-97.05 1954.18,-97.62 1962.8,-103.77 1964.75,-97.05"/>
</g>
<!-- Node14 -->
<g id="node14" class="node">
<title>Node14</title>
<g id="a_node14"><a xlink:title=" ">
<polygon fill="white" stroke="#bfbfbf" points="2010.5,-62 2010.5,-103 2149.5,-103 2149.5,-62 2010.5,-62"/>
<text text-anchor="start" x="2018.5" y="-91" font-family="Helvetica,sans-Serif" font-size="10.00">asm/JSystem/J2DGraph</text>
<text text-anchor="start" x="2018.5" y="-80" font-family="Helvetica,sans-Serif" font-size="10.00">/J2DWindowEx/setTevOrder</text>
<text text-anchor="middle" x="2080" y="-69" font-family="Helvetica,sans-Serif" font-size="10.00">__11J2DWindowExFb.s</text>
</a>
</g>
</g>
<!-- Node1&#45;&gt;Node14 -->
<g id="edge14" class="edge">
<title>Node1&#45;&gt;Node14</title>
<path fill="none" stroke="midnightblue" d="M3664.25,-159.8C3414.87,-160.71 2456.28,-160.72 2159,-109 2153.98,-108.13 2148.84,-107.01 2143.71,-105.73"/>
<polygon fill="midnightblue" stroke="midnightblue" points="2144.46,-102.31 2133.89,-103.1 2142.64,-109.07 2144.46,-102.31"/>
</g>
<!-- Node15 -->
<g id="node15" class="node">
<title>Node15</title>
<g id="a_node15"><a xlink:title=" ">
<polygon fill="white" stroke="#bfbfbf" points="2168,-62 2168,-103 2308,-103 2308,-62 2168,-62"/>
<text text-anchor="start" x="2176" y="-91" font-family="Helvetica,sans-Serif" font-size="10.00">asm/JSystem/J2DGraph</text>
<text text-anchor="start" x="2176" y="-80" font-family="Helvetica,sans-Serif" font-size="10.00">/J2DWindowEx/setTevStage</text>
<text text-anchor="middle" x="2238" y="-69" font-family="Helvetica,sans-Serif" font-size="10.00">__11J2DWindowExFb.s</text>
</a>
</g>
</g>
<!-- Node1&#45;&gt;Node15 -->
<g id="edge15" class="edge">
<title>Node1&#45;&gt;Node15</title>
<path fill="none" stroke="midnightblue" d="M3664.46,-159.55C3431.55,-159.4 2581.96,-155.59 2317,-109 2311.98,-108.12 2306.85,-106.99 2301.72,-105.71"/>
<polygon fill="midnightblue" stroke="midnightblue" points="2302.46,-102.29 2291.9,-103.07 2300.65,-109.05 2302.46,-102.29"/>
</g>
<!-- Node16 -->
<g id="node16" class="node">
<title>Node16</title>
<g id="a_node16"><a xlink:title=" ">
<polygon fill="white" stroke="#bfbfbf" points="2326,-56.5 2326,-108.5 2508,-108.5 2508,-56.5 2326,-56.5"/>
<text text-anchor="start" x="2334" y="-96.5" font-family="Helvetica,sans-Serif" font-size="10.00">asm/JSystem/J2DGraph</text>
<text text-anchor="start" x="2334" y="-85.5" font-family="Helvetica,sans-Serif" font-size="10.00">/J2DWindowEx/setStage</text>
<text text-anchor="start" x="2334" y="-74.5" font-family="Helvetica,sans-Serif" font-size="10.00">__11J2DWindowExFP11J2DTevStage</text>
<text text-anchor="middle" x="2417" y="-63.5" font-family="Helvetica,sans-Serif" font-size="10.00">Q211J2DWindowEx10stage_enum.s</text>
</a>
</g>
</g>
<!-- Node1&#45;&gt;Node16 -->
<g id="edge16" class="edge">
<title>Node1&#45;&gt;Node16</title>
<path fill="none" stroke="midnightblue" d="M3664.23,-158.62C3456.08,-155.31 2763.01,-142.14 2518.48,-108.87"/>
<polygon fill="midnightblue" stroke="midnightblue" points="2518.61,-105.35 2508.22,-107.42 2517.63,-112.29 2518.61,-105.35"/>
</g>
<!-- Node17 -->
<g id="node17" class="node">
<title>Node17</title>
<g id="a_node17"><a xlink:title=" ">
<polygon fill="white" stroke="#bfbfbf" points="2526.5,-56.5 2526.5,-108.5 2685.5,-108.5 2685.5,-56.5 2526.5,-56.5"/>
<text text-anchor="start" x="2534.5" y="-96.5" font-family="Helvetica,sans-Serif" font-size="10.00">asm/JSystem/J2DGraph</text>
<text text-anchor="start" x="2534.5" y="-85.5" font-family="Helvetica,sans-Serif" font-size="10.00">/J2DWindowEx/setBlack</text>
<text text-anchor="start" x="2534.5" y="-74.5" font-family="Helvetica,sans-Serif" font-size="10.00">__11J2DWindowExFQ28JUtility6</text>
<text text-anchor="middle" x="2606" y="-63.5" font-family="Helvetica,sans-Serif" font-size="10.00">TColor.s</text>
</a>
</g>
</g>
<!-- Node1&#45;&gt;Node17 -->
<g id="edge17" class="edge">
<title>Node1&#45;&gt;Node17</title>
<path fill="none" stroke="midnightblue" d="M3664.24,-158.37C3477.1,-154.56 2902.98,-140.67 2696.02,-108.94"/>
<polygon fill="midnightblue" stroke="midnightblue" points="2696.28,-105.44 2685.86,-107.32 2695.18,-112.35 2696.28,-105.44"/>
</g>
<!-- Node18 -->
<g id="node18" class="node">
<title>Node18</title>
<g id="a_node18"><a xlink:title=" ">
<polygon fill="white" stroke="#bfbfbf" points="2703.5,-56.5 2703.5,-108.5 2862.5,-108.5 2862.5,-56.5 2703.5,-56.5"/>
<text text-anchor="start" x="2711.5" y="-96.5" font-family="Helvetica,sans-Serif" font-size="10.00">asm/JSystem/J2DGraph</text>
<text text-anchor="start" x="2711.5" y="-85.5" font-family="Helvetica,sans-Serif" font-size="10.00">/J2DWindowEx/setWhite</text>
<text text-anchor="start" x="2711.5" y="-74.5" font-family="Helvetica,sans-Serif" font-size="10.00">__11J2DWindowExFQ28JUtility6</text>
<text text-anchor="middle" x="2783" y="-63.5" font-family="Helvetica,sans-Serif" font-size="10.00">TColor.s</text>
</a>
</g>
</g>
<!-- Node1&#45;&gt;Node18 -->
<g id="edge18" class="edge">
<title>Node1&#45;&gt;Node18</title>
<path fill="none" stroke="midnightblue" d="M3664.43,-157.67C3500.4,-152.38 3043.6,-135.78 2872.96,-108.94"/>
<polygon fill="midnightblue" stroke="midnightblue" points="2873.3,-105.44 2862.86,-107.28 2872.16,-112.35 2873.3,-105.44"/>
</g>
<!-- Node19 -->
<g id="node19" class="node">
<title>Node19</title>
<g id="a_node19"><a xlink:title=" ">
<polygon fill="white" stroke="#bfbfbf" points="2881,-56.5 2881,-108.5 3069,-108.5 3069,-56.5 2881,-56.5"/>
<text text-anchor="start" x="2889" y="-96.5" font-family="Helvetica,sans-Serif" font-size="10.00">asm/JSystem/J2DGraph</text>
<text text-anchor="start" x="2889" y="-85.5" font-family="Helvetica,sans-Serif" font-size="10.00">/J2DWindowEx/setBlackWhite</text>
<text text-anchor="start" x="2889" y="-74.5" font-family="Helvetica,sans-Serif" font-size="10.00">__11J2DWindowExFQ28JUtility6TColor</text>
<text text-anchor="middle" x="2975" y="-63.5" font-family="Helvetica,sans-Serif" font-size="10.00">Q28JUtility6TColor.s</text>
</a>
</g>
</g>
<!-- Node1&#45;&gt;Node19 -->
<g id="edge19" class="edge">
<title>Node1&#45;&gt;Node19</title>
<path fill="none" stroke="midnightblue" d="M3664.48,-158.06C3552.01,-154.65 3300.52,-143.68 3079.42,-108.93"/>
<polygon fill="midnightblue" stroke="midnightblue" points="3079.67,-105.43 3069.24,-107.32 3078.57,-112.34 3079.67,-105.43"/>
</g>
<!-- Node20 -->
<g id="node20" class="node">
<title>Node20</title>
<g id="a_node20"><a xlink:title=" ">
<polygon fill="white" stroke="#bfbfbf" points="3087.5,-56.5 3087.5,-108.5 3288.5,-108.5 3288.5,-56.5 3087.5,-56.5"/>
<text text-anchor="start" x="3095.5" y="-96.5" font-family="Helvetica,sans-Serif" font-size="10.00">asm/JSystem/J2DGraph</text>
<text text-anchor="start" x="3095.5" y="-85.5" font-family="Helvetica,sans-Serif" font-size="10.00">/J2DWindowEx/getBlackWhite</text>
<text text-anchor="start" x="3095.5" y="-74.5" font-family="Helvetica,sans-Serif" font-size="10.00">__11J2DWindowExCFPQ28JUtility6TColor</text>
<text text-anchor="middle" x="3188" y="-63.5" font-family="Helvetica,sans-Serif" font-size="10.00">PQ28JUtility6TColor.s</text>
</a>
</g>
</g>
<!-- Node1&#45;&gt;Node20 -->
<g id="edge20" class="edge">
<title>Node1&#45;&gt;Node20</title>
<path fill="none" stroke="midnightblue" d="M3664.43,-154.52C3583.81,-147.32 3435.33,-132.43 3298.84,-109.06"/>
<polygon fill="midnightblue" stroke="midnightblue" points="3299.07,-105.55 3288.62,-107.29 3297.87,-112.45 3299.07,-105.55"/>
</g>
<!-- Node21 -->
<g id="node21" class="node">
<title>Node21</title>
<g id="a_node21"><a xlink:title=" ">
<polygon fill="white" stroke="#bfbfbf" points="3307,-56.5 3307,-108.5 3501,-108.5 3501,-56.5 3307,-56.5"/>
<text text-anchor="start" x="3315" y="-96.5" font-family="Helvetica,sans-Serif" font-size="10.00">asm/JSystem/J2DGraph</text>
<text text-anchor="start" x="3315" y="-85.5" font-family="Helvetica,sans-Serif" font-size="10.00">/J2DWindowEx/isSetBlackWhite</text>
<text text-anchor="start" x="3315" y="-74.5" font-family="Helvetica,sans-Serif" font-size="10.00">__11J2DWindowExCFQ28JUtility6TColor</text>
<text text-anchor="middle" x="3404" y="-63.5" font-family="Helvetica,sans-Serif" font-size="10.00">Q28JUtility6TColor.s</text>
</a>
</g>
</g>
<!-- Node1&#45;&gt;Node21 -->
<g id="edge21" class="edge">
<title>Node1&#45;&gt;Node21</title>
<path fill="none" stroke="midnightblue" d="M3664.48,-145.53C3623.89,-135.98 3568.62,-122.95 3511.05,-109.25"/>
<polygon fill="midnightblue" stroke="midnightblue" points="3511.58,-105.78 3501.04,-106.86 3509.96,-112.58 3511.58,-105.78"/>
</g>
<!-- Node22 -->
<g id="node22" class="node">
<title>Node22</title>
<g id="a_node22"><a xlink:title=" ">
<polygon fill="white" stroke="#bfbfbf" points="3518.5,-62 3518.5,-103 3643.5,-103 3643.5,-62 3518.5,-62"/>
<text text-anchor="start" x="3526.5" y="-91" font-family="Helvetica,sans-Serif" font-size="10.00">asm/JSystem/J2DGraph</text>
<text text-anchor="start" x="3526.5" y="-80" font-family="Helvetica,sans-Serif" font-size="10.00">/J2DWindowEx/getBlack</text>
<text text-anchor="middle" x="3581" y="-69" font-family="Helvetica,sans-Serif" font-size="10.00">__11J2DWindowExCFv.s</text>
</a>
</g>
</g>
<!-- Node1&#45;&gt;Node22 -->
<g id="edge22" class="edge">
<title>Node1&#45;&gt;Node22</title>
<path fill="none" stroke="midnightblue" d="M3697.44,-145.38C3677.69,-134.89 3650.24,-120.3 3626.96,-107.92"/>
<polygon fill="midnightblue" stroke="midnightblue" points="3628.4,-104.73 3617.93,-103.13 3625.12,-110.91 3628.4,-104.73"/>
</g>
<!-- Node23 -->
<g id="node23" class="node">
<title>Node23</title>
<g id="a_node23"><a xlink:title=" ">
<polygon fill="white" stroke="#bfbfbf" points="3661.5,-62 3661.5,-103 3786.5,-103 3786.5,-62 3661.5,-62"/>
<text text-anchor="start" x="3669.5" y="-91" font-family="Helvetica,sans-Serif" font-size="10.00">asm/JSystem/J2DGraph</text>
<text text-anchor="start" x="3669.5" y="-80" font-family="Helvetica,sans-Serif" font-size="10.00">/J2DWindowEx/getWhite</text>
<text text-anchor="middle" x="3724" y="-69" font-family="Helvetica,sans-Serif" font-size="10.00">__11J2DWindowExCFv.s</text>
</a>
</g>
</g>
<!-- Node1&#45;&gt;Node23 -->
<g id="edge23" class="edge">
<title>Node1&#45;&gt;Node23</title>
<path fill="none" stroke="midnightblue" d="M3724,-145.2C3724,-136.21 3724,-124.27 3724,-113.29"/>
<polygon fill="midnightblue" stroke="midnightblue" points="3727.5,-113.18 3724,-103.18 3720.5,-113.18 3727.5,-113.18"/>
</g>
<!-- Node24 -->
<g id="node24" class="node">
<title>Node24</title>
<g id="a_node24"><a xlink:title=" ">
<polygon fill="white" stroke="#bfbfbf" points="3805,-62 3805,-103 3931,-103 3931,-62 3805,-62"/>
<text text-anchor="start" x="3813" y="-91" font-family="Helvetica,sans-Serif" font-size="10.00">asm/JSystem/J2DGraph</text>
<text text-anchor="start" x="3813" y="-80" font-family="Helvetica,sans-Serif" font-size="10.00">/J2DWindowEx/setAlpha</text>
<text text-anchor="middle" x="3868" y="-69" font-family="Helvetica,sans-Serif" font-size="10.00">__11J2DWindowExFUc.s</text>
</a>
</g>
</g>
<!-- Node1&#45;&gt;Node24 -->
<g id="edge24" class="edge">
<title>Node1&#45;&gt;Node24</title>
<path fill="none" stroke="midnightblue" d="M3750.75,-145.38C3770.64,-134.89 3798.28,-120.3 3821.72,-107.92"/>
<polygon fill="midnightblue" stroke="midnightblue" points="3823.6,-110.89 3830.81,-103.13 3820.33,-104.7 3823.6,-110.89"/>
</g>
<!-- Node25 -->
<g id="node25" class="node">
<title>Node25</title>
<g id="a_node25"><a xlink:title=" ">
<polygon fill="white" stroke="#bfbfbf" points="3949,-62 3949,-103 4133,-103 4133,-62 3949,-62"/>
<text text-anchor="start" x="3957" y="-91" font-family="Helvetica,sans-Serif" font-size="10.00">asm/JSystem/J2DGraph</text>
<text text-anchor="start" x="3957" y="-80" font-family="Helvetica,sans-Serif" font-size="10.00">/J2DWindowEx/setCullBack</text>
<text text-anchor="middle" x="4041" y="-69" font-family="Helvetica,sans-Serif" font-size="10.00">__11J2DWindowExF11_GXCullMode.s</text>
</a>
</g>
</g>
<!-- Node1&#45;&gt;Node25 -->
<g id="edge25" class="edge">
<title>Node1&#45;&gt;Node25</title>
<path fill="none" stroke="midnightblue" d="M3783.66,-145.85C3827.07,-135.84 3887.24,-121.83 3940,-109 3944.64,-107.87 3949.4,-106.7 3954.21,-105.52"/>
<polygon fill="midnightblue" stroke="midnightblue" points="3955.24,-108.87 3964.11,-103.06 3953.56,-102.07 3955.24,-108.87"/>
</g>
<!-- Node26 -->
<g id="node26" class="node">
<title>Node26</title>
<g id="a_node26"><a xlink:title=" ">
<polygon fill="white" stroke="#bfbfbf" points="4151.5,-62 4151.5,-103 4290.5,-103 4290.5,-62 4151.5,-62"/>
<text text-anchor="start" x="4159.5" y="-91" font-family="Helvetica,sans-Serif" font-size="10.00">asm/JSystem/J2DGraph</text>
<text text-anchor="start" x="4159.5" y="-80" font-family="Helvetica,sans-Serif" font-size="10.00">/J2DWindowEx/rewriteAlpha</text>
<text text-anchor="middle" x="4221" y="-69" font-family="Helvetica,sans-Serif" font-size="10.00">__11J2DWindowExFv.s</text>
</a>
</g>
</g>
<!-- Node1&#45;&gt;Node26 -->
<g id="edge26" class="edge">
<title>Node1&#45;&gt;Node26</title>
<path fill="none" stroke="midnightblue" d="M3783.79,-155.9C3865.47,-150.16 4016.17,-136.64 4142,-109 4146.31,-108.05 4150.73,-106.97 4155.15,-105.79"/>
<polygon fill="midnightblue" stroke="midnightblue" points="4156.14,-109.15 4164.83,-103.08 4154.26,-102.4 4156.14,-109.15"/>
</g>
<!-- Node27 -->
<g id="node27" class="node">
<title>Node27</title>
<g id="a_node27"><a xlink:title=" ">
<polygon fill="white" stroke="#bfbfbf" points="4309,-62 4309,-103 4467,-103 4467,-62 4309,-62"/>
<text text-anchor="start" x="4317" y="-91" font-family="Helvetica,sans-Serif" font-size="10.00">asm/JSystem/J2DGraph</text>
<text text-anchor="start" x="4317" y="-80" font-family="Helvetica,sans-Serif" font-size="10.00">/J2DWindowEx/getFrameTexture</text>
<text text-anchor="middle" x="4388" y="-69" font-family="Helvetica,sans-Serif" font-size="10.00">__11J2DWindowExCFUcUc.s</text>
</a>
</g>
</g>
<!-- Node1&#45;&gt;Node27 -->
<g id="edge27" class="edge">
<title>Node1&#45;&gt;Node27</title>
<path fill="none" stroke="midnightblue" d="M3783.8,-158.08C3889.02,-154.74 4113.75,-143.81 4300,-109 4305.37,-108 4310.89,-106.8 4316.42,-105.49"/>
<polygon fill="midnightblue" stroke="midnightblue" points="4317.49,-108.82 4326.34,-103 4315.79,-102.03 4317.49,-108.82"/>
</g>
<!-- Node28 -->
<g id="node28" class="node">
<title>Node28</title>
<g id="a_node28"><a xlink:title=" ">
<polygon fill="white" stroke="#bfbfbf" points="4485,-62 4485,-103 4655,-103 4655,-62 4485,-62"/>
<text text-anchor="start" x="4493" y="-91" font-family="Helvetica,sans-Serif" font-size="10.00">asm/JSystem/J2DGraph</text>
<text text-anchor="start" x="4493" y="-80" font-family="Helvetica,sans-Serif" font-size="10.00">/J2DWindowEx/getContentsTexture</text>
<text text-anchor="middle" x="4570" y="-69" font-family="Helvetica,sans-Serif" font-size="10.00">__11J2DWindowExCFUc.s</text>
</a>
</g>
</g>
<!-- Node1&#45;&gt;Node28 -->
<g id="edge28" class="edge">
<title>Node1&#45;&gt;Node28</title>
<path fill="none" stroke="midnightblue" d="M3783.93,-159.48C3911.93,-158.57 4221.12,-151.7 4476,-109 4482.13,-107.97 4488.44,-106.72 4494.74,-105.32"/>
<polygon fill="midnightblue" stroke="midnightblue" points="4495.68,-108.69 4504.63,-103.01 4494.09,-101.87 4495.68,-108.69"/>
</g>
<!-- Node29 -->
<g id="node29" class="node">
<title>Node29</title>
<g id="a_node29"><a xlink:title=" ">
<polygon fill="white" stroke="#bfbfbf" points="4673.5,-62 4673.5,-103 4842.5,-103 4842.5,-62 4673.5,-62"/>
<text text-anchor="start" x="4681.5" y="-91" font-family="Helvetica,sans-Serif" font-size="10.00">asm/JSystem/J2DGraph</text>
<text text-anchor="start" x="4681.5" y="-80" font-family="Helvetica,sans-Serif" font-size="10.00">/J2DWindowEx/isUsed_</text>
<text text-anchor="middle" x="4758" y="-69" font-family="Helvetica,sans-Serif" font-size="10.00">_11J2DWindowExFPC7ResTIMG.s</text>
</a>
</g>
</g>
<!-- Node1&#45;&gt;Node29 -->
<g id="edge29" class="edge">
<title>Node1&#45;&gt;Node29</title>
<path fill="none" stroke="midnightblue" d="M3783.55,-157.95C3962.44,-153.02 4493.26,-136.43 4664,-109 4670.19,-108.01 4676.56,-106.76 4682.93,-105.37"/>
<polygon fill="midnightblue" stroke="midnightblue" points="4683.95,-108.72 4692.9,-103.06 4682.37,-101.9 4683.95,-108.72"/>
</g>
<!-- Node30 -->
<g id="node30" class="node">
<title>Node30</title>
<g id="a_node30"><a xlink:title=" ">
<polygon fill="white" stroke="#bfbfbf" points="4860.5,-62 4860.5,-103 5051.5,-103 5051.5,-62 4860.5,-62"/>
<text text-anchor="start" x="4868.5" y="-91" font-family="Helvetica,sans-Serif" font-size="10.00">asm/JSystem/J2DGraph</text>
<text text-anchor="start" x="4868.5" y="-80" font-family="Helvetica,sans-Serif" font-size="10.00">/J2DWindowEx/setAnimation</text>
<text text-anchor="middle" x="4956" y="-69" font-family="Helvetica,sans-Serif" font-size="10.00">__11J2DWindowExFP11J2DAnmColor.s</text>
</a>
</g>
</g>
<!-- Node1&#45;&gt;Node30 -->
<g id="edge30" class="edge">
<title>Node1&#45;&gt;Node30</title>
<path fill="none" stroke="midnightblue" d="M3783.71,-158.37C3985.76,-154.3 4642.8,-139.03 4852,-109 4859.29,-107.95 4866.82,-106.62 4874.34,-105.11"/>
<polygon fill="midnightblue" stroke="midnightblue" points="4875.12,-108.52 4884.19,-103.04 4873.68,-101.67 4875.12,-108.52"/>
</g>
<!-- Node31 -->
<g id="node31" class="node">
<title>Node31</title>
<g id="a_node31"><a xlink:title=" ">
<polygon fill="white" stroke="#bfbfbf" points="5069.5,-56.5 5069.5,-108.5 5262.5,-108.5 5262.5,-56.5 5069.5,-56.5"/>
<text text-anchor="start" x="5077.5" y="-96.5" font-family="Helvetica,sans-Serif" font-size="10.00">asm/JSystem/J2DGraph</text>
<text text-anchor="start" x="5077.5" y="-85.5" font-family="Helvetica,sans-Serif" font-size="10.00">/J2DWindowEx/setAnimation</text>
<text text-anchor="start" x="5077.5" y="-74.5" font-family="Helvetica,sans-Serif" font-size="10.00">__11J2DWindowExFP19J2DAnmTexture</text>
<text text-anchor="middle" x="5166" y="-63.5" font-family="Helvetica,sans-Serif" font-size="10.00">SRTKey.s</text>
</a>
</g>
</g>
<!-- Node1&#45;&gt;Node31 -->
<g id="edge31" class="edge">
<title>Node1&#45;&gt;Node31</title>
<path fill="none" stroke="midnightblue" d="M3783.54,-158.84C4005.95,-156.12 4788.7,-144.31 5059.27,-109.09"/>
<polygon fill="midnightblue" stroke="midnightblue" points="5060.01,-112.52 5069.45,-107.72 5059.07,-105.58 5060.01,-112.52"/>
</g>
<!-- Node32 -->
<g id="node32" class="node">
<title>Node32</title>
<g id="a_node32"><a xlink:title=" ">
<polygon fill="white" stroke="#bfbfbf" points="5280.5,-62 5280.5,-103 5495.5,-103 5495.5,-62 5280.5,-62"/>
<text text-anchor="start" x="5288.5" y="-91" font-family="Helvetica,sans-Serif" font-size="10.00">asm/JSystem/J2DGraph</text>
<text text-anchor="start" x="5288.5" y="-80" font-family="Helvetica,sans-Serif" font-size="10.00">/J2DWindowEx/setAnimation</text>
<text text-anchor="middle" x="5388" y="-69" font-family="Helvetica,sans-Serif" font-size="10.00">__11J2DWindowExFP16J2DAnmTexPattern.s</text>
</a>
</g>
</g>
<!-- Node1&#45;&gt;Node32 -->
<g id="edge32" class="edge">
<title>Node1&#45;&gt;Node32</title>
<path fill="none" stroke="midnightblue" d="M3783.83,-159.02C4031.35,-156.8 4976.17,-146.02 5272,-109 5280.62,-107.92 5289.55,-106.51 5298.45,-104.9"/>
<polygon fill="midnightblue" stroke="midnightblue" points="5299.29,-108.3 5308.46,-103 5297.99,-101.42 5299.29,-108.3"/>
</g>
<!-- Node33 -->
<g id="node33" class="node">
<title>Node33</title>
<g id="a_node33"><a xlink:title=" ">
<polygon fill="white" stroke="#bfbfbf" points="5514,-62 5514,-103 5732,-103 5732,-62 5514,-62"/>
<text text-anchor="start" x="5522" y="-91" font-family="Helvetica,sans-Serif" font-size="10.00">asm/JSystem/J2DGraph</text>
<text text-anchor="start" x="5522" y="-80" font-family="Helvetica,sans-Serif" font-size="10.00">/J2DWindowEx/setAnimation</text>
<text text-anchor="middle" x="5623" y="-69" font-family="Helvetica,sans-Serif" font-size="10.00">__11J2DWindowExFP15J2DAnmTevRegKey.s</text>
</a>
</g>
</g>
<!-- Node1&#45;&gt;Node33 -->
<g id="edge33" class="edge">
<title>Node1&#45;&gt;Node33</title>
<path fill="none" stroke="midnightblue" d="M3783.5,-159.29C4052.97,-158.1 5160.69,-150.72 5505,-109 5513.86,-107.93 5523.04,-106.5 5532.19,-104.88"/>
<polygon fill="midnightblue" stroke="midnightblue" points="5532.89,-108.31 5542.08,-103.04 5531.61,-101.43 5532.89,-108.31"/>
</g>
<!-- Node34 -->
<g id="node34" class="node">
<title>Node34</title>
<g id="a_node34"><a xlink:title=" ">
<polygon fill="white" stroke="#bfbfbf" points="5750.5,-62 5750.5,-103 5901.5,-103 5901.5,-62 5750.5,-62"/>
<text text-anchor="start" x="5758.5" y="-91" font-family="Helvetica,sans-Serif" font-size="10.00">asm/JSystem/J2DGraph</text>
<text text-anchor="start" x="5758.5" y="-80" font-family="Helvetica,sans-Serif" font-size="10.00">/J2DWindowEx/isNeedSetAnm</text>
<text text-anchor="middle" x="5826" y="-69" font-family="Helvetica,sans-Serif" font-size="10.00">__11J2DWindowExFUc.s</text>
</a>
</g>
</g>
<!-- Node1&#45;&gt;Node34 -->
<g id="edge34" class="edge">
<title>Node1&#45;&gt;Node34</title>
<path fill="none" stroke="midnightblue" d="M3783.52,-158.95C4096.37,-155.96 5543.73,-140.48 5741,-109 5746.75,-108.08 5752.66,-106.88 5758.54,-105.5"/>
<polygon fill="midnightblue" stroke="midnightblue" points="5759.57,-108.85 5768.41,-103.02 5757.86,-102.06 5759.57,-108.85"/>
</g>
<!-- Node35 -->
<g id="node35" class="node">
<title>Node35</title>
<g id="a_node35"><a xlink:title=" ">
<polygon fill="white" stroke="#bfbfbf" points="5919.5,-56.5 5919.5,-108.5 6116.5,-108.5 6116.5,-56.5 5919.5,-56.5"/>
<text text-anchor="start" x="5927.5" y="-96.5" font-family="Helvetica,sans-Serif" font-size="10.00">asm/JSystem/J2DGraph</text>
<text text-anchor="start" x="5927.5" y="-85.5" font-family="Helvetica,sans-Serif" font-size="10.00">/J2DWindowEx/setAnimation</text>
<text text-anchor="start" x="5927.5" y="-74.5" font-family="Helvetica,sans-Serif" font-size="10.00">__11J2DWindowExFP20J2DAnmVisibility</text>
<text text-anchor="middle" x="6018" y="-63.5" font-family="Helvetica,sans-Serif" font-size="10.00">Full.s</text>
</a>
</g>
</g>
<!-- Node1&#45;&gt;Node35 -->
<g id="edge35" class="edge">
<title>Node1&#45;&gt;Node35</title>
<path fill="none" stroke="midnightblue" d="M3783.6,-159.82C4086.9,-161.2 5461.64,-164.31 5909.24,-109.09"/>
<polygon fill="midnightblue" stroke="midnightblue" points="5909.84,-112.54 5919.32,-107.82 5908.96,-105.6 5909.84,-112.54"/>
</g>
<!-- Node36 -->
<g id="node36" class="node">
<title>Node36</title>
<g id="a_node36"><a xlink:title=" ">
<polygon fill="white" stroke="#bfbfbf" points="6134.5,-62 6134.5,-103 6339.5,-103 6339.5,-62 6134.5,-62"/>
<text text-anchor="start" x="6142.5" y="-91" font-family="Helvetica,sans-Serif" font-size="10.00">asm/JSystem/J2DGraph</text>
<text text-anchor="start" x="6142.5" y="-80" font-family="Helvetica,sans-Serif" font-size="10.00">/J2DWindowEx/setAnimation</text>
<text text-anchor="middle" x="6237" y="-69" font-family="Helvetica,sans-Serif" font-size="10.00">__11J2DWindowExFP14J2DAnmVtxColor.s</text>
</a>
</g>
</g>
<!-- Node1&#45;&gt;Node36 -->
<g id="edge36" class="edge">
<title>Node1&#45;&gt;Node36</title>
<path fill="none" stroke="midnightblue" d="M3783.65,-158.98C4131.17,-155.84 5887.47,-138.59 6126,-109 6134.32,-107.97 6142.93,-106.58 6151.51,-104.98"/>
<polygon fill="midnightblue" stroke="midnightblue" points="6152.4,-108.37 6161.54,-103.01 6151.05,-101.5 6152.4,-108.37"/>
</g>
<!-- Node37 -->
<g id="node37" class="node">
<title>Node37</title>
<g id="a_node37"><a xlink:title=" ">
<polygon fill="white" stroke="#bfbfbf" points="6357.5,-62 6357.5,-103 6576.5,-103 6576.5,-62 6357.5,-62"/>
<text text-anchor="start" x="6365.5" y="-91" font-family="Helvetica,sans-Serif" font-size="10.00">asm/JSystem/J2DGraph</text>
<text text-anchor="start" x="6365.5" y="-80" font-family="Helvetica,sans-Serif" font-size="10.00">/J2DWindowEx/animationPane</text>
<text text-anchor="middle" x="6467" y="-69" font-family="Helvetica,sans-Serif" font-size="10.00">__11J2DWindowExFPC15J2DAnmTransform.s</text>
</a>
</g>
</g>
<!-- Node1&#45;&gt;Node37 -->
<g id="edge37" class="edge">
<title>Node1&#45;&gt;Node37</title>
<path fill="none" stroke="midnightblue" d="M3783.73,-159.04C4150.16,-156.16 6086.83,-139.56 6349,-109 6358.02,-107.95 6367.37,-106.52 6376.67,-104.88"/>
<polygon fill="midnightblue" stroke="midnightblue" points="6377.54,-108.28 6386.73,-103.02 6376.26,-101.4 6377.54,-108.28"/>
</g>
<!-- Node38 -->
<g id="node38" class="node">
<title>Node38</title>
<g id="a_node38"><a xlink:title=" ">
<polygon fill="white" stroke="#bfbfbf" points="6594.5,-62 6594.5,-103 6755.5,-103 6755.5,-62 6594.5,-62"/>
<text text-anchor="start" x="6602.5" y="-91" font-family="Helvetica,sans-Serif" font-size="10.00">asm/JSystem/J2DGraph</text>
<text text-anchor="start" x="6602.5" y="-80" font-family="Helvetica,sans-Serif" font-size="10.00">/J2DWindowEx/getFrameMaterial</text>
<text text-anchor="middle" x="6675" y="-69" font-family="Helvetica,sans-Serif" font-size="10.00">__11J2DWindowExCFUc.s</text>
</a>
</g>
</g>
<!-- Node1&#45;&gt;Node38 -->
<g id="edge38" class="edge">
<title>Node1&#45;&gt;Node38</title>
<path fill="none" stroke="midnightblue" d="M3783.77,-159.38C4169.45,-158.5 6300.09,-151.73 6586,-109 6592.15,-108.08 6598.48,-106.86 6604.79,-105.44"/>
<polygon fill="midnightblue" stroke="midnightblue" points="6605.76,-108.81 6614.67,-103.07 6604.12,-102 6605.76,-108.81"/>
</g>
<!-- Node39 -->
<g id="node39" class="node">
<title>Node39</title>
<g id="a_node39"><a xlink:title=" ">
<polygon fill="white" stroke="#bfbfbf" points="6774,-62 6774,-103 6946,-103 6946,-62 6774,-62"/>
<text text-anchor="start" x="6782" y="-91" font-family="Helvetica,sans-Serif" font-size="10.00">asm/JSystem/J2DGraph</text>
<text text-anchor="start" x="6782" y="-80" font-family="Helvetica,sans-Serif" font-size="10.00">/J2DWindowEx/getContentsMaterial</text>
<text text-anchor="middle" x="6860" y="-69" font-family="Helvetica,sans-Serif" font-size="10.00">__11J2DWindowExCFv.s</text>
</a>
</g>
</g>
<!-- Node1&#45;&gt;Node39 -->
<g id="edge39" class="edge">
<title>Node1&#45;&gt;Node39</title>
<path fill="none" stroke="midnightblue" d="M3783.59,-159.39C4182.62,-158.54 6459.84,-151.82 6765,-109 6771.76,-108.05 6778.73,-106.78 6785.67,-105.3"/>
<polygon fill="midnightblue" stroke="midnightblue" points="6786.81,-108.63 6795.8,-103.01 6785.27,-101.8 6786.81,-108.63"/>
</g>
<!-- Node40 -->
<g id="node40" class="node">
<title>Node40</title>
<g id="a_node40"><a xlink:title=" ">
<polygon fill="white" stroke="#bfbfbf" points="6964,-56.5 6964,-108.5 7158,-108.5 7158,-56.5 6964,-56.5"/>
<text text-anchor="start" x="6972" y="-96.5" font-family="Helvetica,sans-Serif" font-size="10.00">asm/JSystem/J2DGraph</text>
<text text-anchor="start" x="6972" y="-85.5" font-family="Helvetica,sans-Serif" font-size="10.00">/J2DWindowEx/getMaterial</text>
<text text-anchor="start" x="6972" y="-74.5" font-family="Helvetica,sans-Serif" font-size="10.00">__11J2DWindowExCFRQ29J2DWindow9</text>
<text text-anchor="middle" x="7061" y="-63.5" font-family="Helvetica,sans-Serif" font-size="10.00">TMaterial.s</text>
</a>
</g>
</g>
<!-- Node1&#45;&gt;Node40 -->
<g id="edge40" class="edge">
<title>Node1&#45;&gt;Node40</title>
<path fill="none" stroke="midnightblue" d="M3783.61,-159.36C4192.97,-158.29 6583.1,-150.37 6953.7,-108.96"/>
<polygon fill="midnightblue" stroke="midnightblue" points="6954.31,-112.41 6963.83,-107.76 6953.48,-105.46 6954.31,-112.41"/>
</g>
<!-- Node41 -->
<g id="node41" class="node">
<title>Node41</title>
<g id="a_node41"><a xlink:title=" ">
<polygon fill="white" stroke="#bfbfbf" points="7176.5,-62 7176.5,-103 7355.5,-103 7355.5,-62 7176.5,-62"/>
<text text-anchor="start" x="7184.5" y="-91" font-family="Helvetica,sans-Serif" font-size="10.00">asm/JSystem/J2DGraph</text>
<text text-anchor="start" x="7184.5" y="-80" font-family="Helvetica,sans-Serif" font-size="10.00">/J2DWindowEx/draw__11J2DWindow</text>
<text text-anchor="middle" x="7266" y="-69" font-family="Helvetica,sans-Serif" font-size="10.00">ExFffff.s</text>
</a>
</g>
</g>
<!-- Node1&#45;&gt;Node41 -->
<g id="edge41" class="edge">
<title>Node1&#45;&gt;Node41</title>
<path fill="none" stroke="midnightblue" d="M3783.7,-159.48C4212.75,-159.21 6819.19,-155.67 7167,-109 7174.28,-108.02 7181.79,-106.7 7189.27,-105.16"/>
<polygon fill="midnightblue" stroke="midnightblue" points="7190.03,-108.57 7199.06,-103.03 7188.54,-101.73 7190.03,-108.57"/>
</g>
<!-- Node42 -->
<g id="node42" class="node">
<title>Node42</title>
<g id="a_node42"><a xlink:title=" ">
<polygon fill="white" stroke="#bfbfbf" points="7373.5,-62 7373.5,-103 7510.5,-103 7510.5,-62 7373.5,-62"/>
<text text-anchor="start" x="7381.5" y="-91" font-family="Helvetica,sans-Serif" font-size="10.00">asm/JSystem/J2DGraph</text>
<text text-anchor="start" x="7381.5" y="-80" font-family="Helvetica,sans-Serif" font-size="10.00">/J2DWindowEx/setCullBack</text>
<text text-anchor="middle" x="7442" y="-69" font-family="Helvetica,sans-Serif" font-size="10.00">__11J2DWindowExFb.s</text>
</a>
</g>
</g>
<!-- Node1&#45;&gt;Node42 -->
<g id="edge42" class="edge">
<title>Node1&#45;&gt;Node42</title>
<path fill="none" stroke="midnightblue" d="M3783.83,-159.19C4241.95,-156.76 7181.1,-139.97 7365,-109 7369.99,-108.16 7375.1,-107.05 7380.2,-105.77"/>
<polygon fill="midnightblue" stroke="midnightblue" points="7381.21,-109.12 7389.94,-103.11 7379.37,-102.37 7381.21,-109.12"/>
</g>
<!-- Node43 -->
<g id="node43" class="node">
<title>Node43</title>
<g id="a_node43"><a xlink:title=" ">
<polygon fill="white" stroke="#bfbfbf" points="7528.5,-62 7528.5,-103 7699.5,-103 7699.5,-62 7528.5,-62"/>
<text text-anchor="start" x="7536.5" y="-91" font-family="Helvetica,sans-Serif" font-size="10.00">asm/JSystem/J2DGraph</text>
<text text-anchor="start" x="7536.5" y="-80" font-family="Helvetica,sans-Serif" font-size="10.00">/J2DWindowEx/isUsed_</text>
<text text-anchor="middle" x="7614" y="-69" font-family="Helvetica,sans-Serif" font-size="10.00">_11J2DWindowExFPC7ResFONT.s</text>
</a>
</g>
</g>
<!-- Node1&#45;&gt;Node43 -->
<g id="edge43" class="edge">
<title>Node1&#45;&gt;Node43</title>
<path fill="none" stroke="midnightblue" d="M3783.55,-159.61C4236.86,-160.34 7135.1,-162.89 7520,-109 7526.69,-108.06 7533.59,-106.8 7540.46,-105.33"/>
<polygon fill="midnightblue" stroke="midnightblue" points="7541.51,-108.68 7550.48,-103.04 7539.96,-101.85 7541.51,-108.68"/>
</g>
<!-- Node44 -->
<g id="node44" class="node">
<title>Node44</title>
<g id="a_node44"><a xlink:title=" ">
<polygon fill="white" stroke="#bfbfbf" points="7717.5,-62 7717.5,-103 7908.5,-103 7908.5,-62 7717.5,-62"/>
<text text-anchor="start" x="7725.5" y="-91" font-family="Helvetica,sans-Serif" font-size="10.00">asm/JSystem/J2DGraph</text>
<text text-anchor="start" x="7725.5" y="-80" font-family="Helvetica,sans-Serif" font-size="10.00">/J2DWindowEx/setAnimation</text>
<text text-anchor="middle" x="7813" y="-69" font-family="Helvetica,sans-Serif" font-size="10.00">__11J2DWindowExFP10J2DAnmBase.s</text>
</a>
</g>
</g>
<!-- Node1&#45;&gt;Node44 -->
<g id="edge44" class="edge">
<title>Node1&#45;&gt;Node44</title>
<path fill="none" stroke="midnightblue" d="M3783.52,-159.57C4249.38,-159.97 7303.4,-160.61 7709,-109 7716.72,-108.02 7724.69,-106.68 7732.62,-105.12"/>
<polygon fill="midnightblue" stroke="midnightblue" points="7733.56,-108.5 7742.64,-103.04 7732.13,-101.65 7733.56,-108.5"/>
</g>
<!-- Node2&#45;&gt;Node3 -->
<g id="edge2" class="edge">
<title>Node2&#45;&gt;Node3</title>
<path fill="none" stroke="midnightblue" d="M93.99,-72.86C103.05,-61.65 119.04,-41.87 130.5,-27.69"/>
<polygon fill="midnightblue" stroke="midnightblue" points="133.39,-29.69 136.95,-19.72 127.94,-25.29 133.39,-29.69"/>
</g>
</g>
</svg>
        <g id="navigator" transform="translate(0 0)" fill="#404254">
                <rect fill="#f2f5e9" fill-opacity="0.5" stroke="#606060" stroke-width=".5" x="0" y="0" width="60" height="60"/>
                <use id="zoomplus" xlink:href="#zoomPlus" x="17" y="9" onmousedown="handleZoom(evt,'in')"/>
                <use id="zoomminus" xlink:href="#zoomMin" x="42" y="9" onmousedown="handleZoom(evt,'out')"/>
                <use id="reset" xlink:href="#resetDef" x="30" y="36" onmousedown="handleReset()"/>
                <g id="arrowUp" xlink:href="#dirArrow" transform="translate(30 24)" onmousedown="handlePan(0,-1)">
                  <use xlink:href="#rim" fill="#404040">
                        <set attributeName="fill" to="#808080" begin="arrowUp.mouseover" end="arrowUp.mouseout"/>
                  </use>
                  <path fill="none" stroke="white" stroke-width="1.5" d="M0,-3.0v7 M-2.5,-0.5L0,-3.0L2.5,-0.5"/>
                </g>
                <g id="arrowRight" xlink:href="#dirArrow" transform="rotate(90) translate(36 -43)" onmousedown="handlePan(1,0)">
                  <use xlink:href="#rim" fill="#404040">
                        <set attributeName="fill" to="#808080" begin="arrowRight.mouseover" end="arrowRight.mouseout"/>
                  </use>
                  <path fill="none" stroke="white" stroke-width="1.5" d="M0,-3.0v7 M-2.5,-0.5L0,-3.0L2.5,-0.5"/>
                </g>
                <g id="arrowDown" xlink:href="#dirArrow" transform="rotate(180) translate(-30 -48)" onmousedown="handlePan(0,1)">
                  <use xlink:href="#rim" fill="#404040">
                        <set attributeName="fill" to="#808080" begin="arrowDown.mouseover" end="arrowDown.mouseout"/>
                  </use>
                  <path fill="none" stroke="white" stroke-width="1.5" d="M0,-3.0v7 M-2.5,-0.5L0,-3.0L2.5,-0.5"/>
                </g>
                <g id="arrowLeft" xlink:href="#dirArrow" transform="rotate(270) translate(-36 17)" onmousedown="handlePan(-1,0)">
                  <use xlink:href="#rim" fill="#404040">
                        <set attributeName="fill" to="#808080" begin="arrowLeft.mouseover" end="arrowLeft.mouseout"/>
                  </use>
                  <path fill="none" stroke="white" stroke-width="1.5" d="M0,-3.0v7 M-2.5,-0.5L0,-3.0L2.5,-0.5"/>
                </g>
        </g>
        <svg viewBox="0 0 15 15" width="100%" height="30px" preserveAspectRatio="xMaxYMin meet">
         <g id="arrow_out" transform="scale(0.3 0.3)">
          <a xlink:href="J2DWindowEx_8cpp__incl_org.svg" target="_base">
           <rect id="button" ry="5" rx="5" y="6" x="6" height="38" width="38"
                fill="#f2f5e9" fill-opacity="0.5" stroke="#606060" stroke-width="1.0"/>
           <path id="arrow"
             d="M 11.500037,31.436501 C 11.940474,20.09759 22.043105,11.32322 32.158766,21.979434 L 37.068811,17.246167 C 37.068811,17.246167 37.088388,32 37.088388,32 L 22.160133,31.978069 C 22.160133,31.978069 26.997745,27.140456 26.997745,27.140456 C 18.528582,18.264221 13.291696,25.230495 11.500037,31.436501 z"
             style="fill:#404040;"/>
          </a>
         </g>
        </svg>
</svg>
