<?xml version="1.0" encoding="UTF-8" standalone="no"?>
<!DOCTYPE svg PUBLIC "-//W3C//DTD SVG 1.1//EN"
 "http://www.w3.org/Graphics/SVG/1.1/DTD/svg11.dtd">
<!-- Generated by graphviz version 2.47.0 (20210316.2052)
 -->
<!-- Title: libs/JSystem/J3DGraphLoader/J3DJointFactory.cpp Pages: 1 -->
<svg width="802pt" height="173pt"
 viewBox="0.00 0.00 802.00 173.00" xmlns="http://www.w3.org/2000/svg" xmlns:xlink="http://www.w3.org/1999/xlink">
<g id="graph0" class="graph" transform="scale(1 1) rotate(0) translate(4 169)">
<title>libs/JSystem/J3DGraphLoader/J3DJointFactory.cpp</title>
<polygon fill="white" stroke="transparent" points="-4,4 -4,-169 798,-169 798,4 -4,4"/>
<!-- Node1 -->
<g id="node1" class="node">
<title>Node1</title>
<g id="a_node1"><a xlink:title=" ">
<polygon fill="#bfbfbf" stroke="black" points="193,-134.5 193,-164.5 342,-164.5 342,-134.5 193,-134.5"/>
<text text-anchor="start" x="201" y="-152.5" font-family="Helvetica,sans-Serif" font-size="10.00">libs/JSystem/J3DGraphLoader</text>
<text text-anchor="middle" x="267.5" y="-141.5" font-family="Helvetica,sans-Serif" font-size="10.00">/J3DJointFactory.cpp</text>
</a>
</g>
</g>
<!-- Node2 -->
<g id="node2" class="node">
<title>Node2</title>
<g id="a_node2"><a xlink:href="dol2asm_8h.html" target="_top" xlink:title=" ">
<polygon fill="white" stroke="black" points="0,-67.5 0,-86.5 61,-86.5 61,-67.5 0,-67.5"/>
<text text-anchor="middle" x="30.5" y="-74.5" font-family="Helvetica,sans-Serif" font-size="10.00">dol2asm.h</text>
</a>
</g>
</g>
<!-- Node1&#45;&gt;Node2 -->
<g id="edge1" class="edge">
<title>Node1&#45;&gt;Node2</title>
<path fill="none" stroke="midnightblue" d="M203.6,-134.42C165.88,-125.44 117.45,-112.73 75.5,-98 69.61,-95.93 63.42,-93.42 57.57,-90.88"/>
<polygon fill="midnightblue" stroke="midnightblue" points="58.74,-87.56 48.19,-86.65 55.87,-93.95 58.74,-87.56"/>
</g>
<!-- Node3 -->
<g id="node3" class="node">
<title>Node3</title>
<g id="a_node3"><a xlink:href="types_8h.html" target="_top" xlink:title=" ">
<polygon fill="white" stroke="black" points="96,-0.5 96,-19.5 177,-19.5 177,-0.5 96,-0.5"/>
<text text-anchor="middle" x="136.5" y="-7.5" font-family="Helvetica,sans-Serif" font-size="10.00">dolphin/types.h</text>
</a>
</g>
</g>
<!-- Node1&#45;&gt;Node3 -->
<g id="edge2" class="edge">
<title>Node1&#45;&gt;Node3</title>
<path fill="none" stroke="midnightblue" d="M192.64,-143.43C161.72,-137.2 128.69,-124.28 109.5,-98 94.03,-76.82 109.94,-46.56 123.06,-27.88"/>
<polygon fill="midnightblue" stroke="midnightblue" points="125.96,-29.85 129.13,-19.73 120.35,-25.67 125.96,-29.85"/>
</g>
<!-- Node4 -->
<g id="node4" class="node">
<title>Node4</title>
<g id="a_node4"><a xlink:href="J3DJointFactory_8h.html" target="_top" xlink:title=" ">
<polygon fill="white" stroke="black" points="118,-62 118,-92 249,-92 249,-62 118,-62"/>
<text text-anchor="start" x="126" y="-80" font-family="Helvetica,sans-Serif" font-size="10.00">JSystem/J3DGraphLoader</text>
<text text-anchor="middle" x="183.5" y="-69" font-family="Helvetica,sans-Serif" font-size="10.00">/J3DJointFactory.h</text>
</a>
</g>
</g>
<!-- Node1&#45;&gt;Node4 -->
<g id="edge3" class="edge">
<title>Node1&#45;&gt;Node4</title>
<path fill="none" stroke="midnightblue" d="M250.5,-134.23C238.35,-124.04 221.82,-110.16 208.21,-98.74"/>
<polygon fill="midnightblue" stroke="midnightblue" points="210.1,-95.75 200.19,-92 205.6,-101.11 210.1,-95.75"/>
</g>
<!-- Node5 -->
<g id="node5" class="node">
<title>Node5</title>
<g id="a_node5"><a xlink:title=" ">
<polygon fill="white" stroke="#bfbfbf" points="267,-56.5 267,-97.5 438,-97.5 438,-56.5 267,-56.5"/>
<text text-anchor="start" x="275" y="-85.5" font-family="Helvetica,sans-Serif" font-size="10.00">asm/JSystem/J3DGraphLoader</text>
<text text-anchor="start" x="275" y="-74.5" font-family="Helvetica,sans-Serif" font-size="10.00">/J3DJointFactory/__ct__15J3DJoint</text>
<text text-anchor="middle" x="352.5" y="-63.5" font-family="Helvetica,sans-Serif" font-size="10.00">FactoryFRC13J3DJointBlock.s</text>
</a>
</g>
</g>
<!-- Node1&#45;&gt;Node5 -->
<g id="edge5" class="edge">
<title>Node1&#45;&gt;Node5</title>
<path fill="none" stroke="midnightblue" d="M284.7,-134.23C295.13,-125.59 308.75,-114.29 321.04,-104.09"/>
<polygon fill="midnightblue" stroke="midnightblue" points="323.42,-106.67 328.88,-97.59 318.95,-101.28 323.42,-106.67"/>
</g>
<!-- Node6 -->
<g id="node6" class="node">
<title>Node6</title>
<g id="a_node6"><a xlink:title=" ">
<polygon fill="white" stroke="#bfbfbf" points="456,-56.5 456,-97.5 609,-97.5 609,-56.5 456,-56.5"/>
<text text-anchor="start" x="464" y="-85.5" font-family="Helvetica,sans-Serif" font-size="10.00">asm/JSystem/J3DGraphLoader</text>
<text text-anchor="start" x="464" y="-74.5" font-family="Helvetica,sans-Serif" font-size="10.00">/J3DJointFactory/create</text>
<text text-anchor="middle" x="532.5" y="-63.5" font-family="Helvetica,sans-Serif" font-size="10.00">__15J3DJointFactoryFi.s</text>
</a>
</g>
</g>
<!-- Node1&#45;&gt;Node6 -->
<g id="edge6" class="edge">
<title>Node1&#45;&gt;Node6</title>
<path fill="none" stroke="midnightblue" d="M320.17,-134.49C357.07,-124.67 407.14,-111.35 449.39,-100.11"/>
<polygon fill="midnightblue" stroke="midnightblue" points="450.34,-103.48 459.11,-97.53 448.54,-96.71 450.34,-103.48"/>
</g>
<!-- Node7 -->
<g id="node7" class="node">
<title>Node7</title>
<g id="a_node7"><a xlink:title=" ">
<polygon fill="white" stroke="#bfbfbf" points="627,-62 627,-92 794,-92 794,-62 627,-62"/>
<text text-anchor="start" x="635" y="-80" font-family="Helvetica,sans-Serif" font-size="10.00">asm/JSystem/J3DGraphLoader</text>
<text text-anchor="middle" x="710.5" y="-69" font-family="Helvetica,sans-Serif" font-size="10.00">/J3DJointFactory/func_80337338.s</text>
</a>
</g>
</g>
<!-- Node1&#45;&gt;Node7 -->
<g id="edge7" class="edge">
<title>Node1&#45;&gt;Node7</title>
<path fill="none" stroke="midnightblue" d="M342.04,-139.34C413.27,-130.22 523.53,-115.13 618.5,-98 625.09,-96.81 631.93,-95.49 638.77,-94.11"/>
<polygon fill="midnightblue" stroke="midnightblue" points="639.67,-97.5 648.76,-92.05 638.26,-90.64 639.67,-97.5"/>
</g>
<!-- Node4&#45;&gt;Node3 -->
<g id="edge4" class="edge">
<title>Node4&#45;&gt;Node3</title>
<path fill="none" stroke="midnightblue" d="M173.3,-61.9C166.12,-51.96 156.46,-38.61 148.84,-28.07"/>
<polygon fill="midnightblue" stroke="midnightblue" points="151.48,-25.75 142.79,-19.69 145.81,-29.85 151.48,-25.75"/>
</g>
</g>
</svg>
