<?xml version="1.0" encoding="UTF-8" standalone="no"?>
<!DOCTYPE svg PUBLIC "-//W3C//DTD SVG 1.1//EN"
 "http://www.w3.org/Graphics/SVG/1.1/DTD/svg11.dtd">
<!-- Generated by graphviz version 2.47.0 (20210316.2052)
 -->
<!-- Title: libs/JSystem/J3DGraphAnimator/J3DJointTree.cpp Pages: 1 -->
<svg width="1479pt" height="173pt"
 viewBox="0.00 0.00 1479.00 173.00" xmlns="http://www.w3.org/2000/svg" xmlns:xlink="http://www.w3.org/1999/xlink">
<g id="graph0" class="graph" transform="scale(1 1) rotate(0) translate(4 169)">
<title>libs/JSystem/J3DGraphAnimator/J3DJointTree.cpp</title>
<polygon fill="white" stroke="transparent" points="-4,4 -4,-169 1475,-169 1475,4 -4,4"/>
<!-- Node1 -->
<g id="node1" class="node">
<title>Node1</title>
<g id="a_node1"><a xlink:title=" ">
<polygon fill="#bfbfbf" stroke="black" points="493.5,-134.5 493.5,-164.5 651.5,-164.5 651.5,-134.5 493.5,-134.5"/>
<text text-anchor="start" x="501.5" y="-152.5" font-family="Helvetica,sans-Serif" font-size="10.00">libs/JSystem/J3DGraphAnimator</text>
<text text-anchor="middle" x="572.5" y="-141.5" font-family="Helvetica,sans-Serif" font-size="10.00">/J3DJointTree.cpp</text>
</a>
</g>
</g>
<!-- Node2 -->
<g id="node2" class="node">
<title>Node2</title>
<g id="a_node2"><a xlink:href="dol2asm_8h.html" target="_top" xlink:title=" ">
<polygon fill="white" stroke="black" points="0,-67.5 0,-86.5 61,-86.5 61,-67.5 0,-67.5"/>
<text text-anchor="middle" x="30.5" y="-74.5" font-family="Helvetica,sans-Serif" font-size="10.00">dol2asm.h</text>
</a>
</g>
</g>
<!-- Node1&#45;&gt;Node2 -->
<g id="edge1" class="edge">
<title>Node1&#45;&gt;Node2</title>
<path fill="none" stroke="midnightblue" d="M493.22,-148.12C393.96,-145.91 219.46,-136.26 75.5,-98 68.88,-96.24 62.01,-93.63 55.68,-90.86"/>
<polygon fill="midnightblue" stroke="midnightblue" points="56.84,-87.55 46.3,-86.5 53.89,-93.89 56.84,-87.55"/>
</g>
<!-- Node3 -->
<g id="node3" class="node">
<title>Node3</title>
<g id="a_node3"><a xlink:href="types_8h.html" target="_top" xlink:title=" ">
<polygon fill="white" stroke="black" points="98,-0.5 98,-19.5 179,-19.5 179,-0.5 98,-0.5"/>
<text text-anchor="middle" x="138.5" y="-7.5" font-family="Helvetica,sans-Serif" font-size="10.00">dolphin/types.h</text>
</a>
</g>
</g>
<!-- Node1&#45;&gt;Node3 -->
<g id="edge2" class="edge">
<title>Node1&#45;&gt;Node3</title>
<path fill="none" stroke="midnightblue" d="M493.29,-145.54C367.52,-140.02 133.68,-126.07 108.5,-98 90.46,-77.89 109.34,-46.39 124.24,-27.32"/>
<polygon fill="midnightblue" stroke="midnightblue" points="127.01,-29.46 130.66,-19.51 121.6,-25.01 127.01,-29.46"/>
</g>
<!-- Node4 -->
<g id="node4" class="node">
<title>Node4</title>
<g id="a_node4"><a xlink:href="J3DJointTree_8h.html" target="_top" xlink:title=" ">
<polygon fill="white" stroke="black" points="117.5,-62 117.5,-92 257.5,-92 257.5,-62 117.5,-62"/>
<text text-anchor="start" x="125.5" y="-80" font-family="Helvetica,sans-Serif" font-size="10.00">JSystem/J3DGraphAnimator</text>
<text text-anchor="middle" x="187.5" y="-69" font-family="Helvetica,sans-Serif" font-size="10.00">/J3DJointTree.h</text>
</a>
</g>
</g>
<!-- Node1&#45;&gt;Node4 -->
<g id="edge3" class="edge">
<title>Node1&#45;&gt;Node4</title>
<path fill="none" stroke="midnightblue" d="M493.18,-137.17C431.43,-127.91 343.7,-113.81 267.5,-98 262.16,-96.89 256.63,-95.67 251.09,-94.39"/>
<polygon fill="midnightblue" stroke="midnightblue" points="251.69,-90.94 241.15,-92.05 250.08,-97.75 251.69,-90.94"/>
</g>
<!-- Node5 -->
<g id="node5" class="node">
<title>Node5</title>
<g id="a_node5"><a xlink:title=" ">
<polygon fill="white" stroke="#bfbfbf" points="276,-62 276,-92 473,-92 473,-62 276,-62"/>
<text text-anchor="start" x="284" y="-80" font-family="Helvetica,sans-Serif" font-size="10.00">asm/JSystem/J3DGraphAnimator</text>
<text text-anchor="middle" x="374.5" y="-69" font-family="Helvetica,sans-Serif" font-size="10.00">/J3DJointTree/__ct__12J3DJointTreeFv.s</text>
</a>
</g>
</g>
<!-- Node1&#45;&gt;Node5 -->
<g id="edge5" class="edge">
<title>Node1&#45;&gt;Node5</title>
<path fill="none" stroke="midnightblue" d="M532.91,-134.4C501.48,-123.21 457.37,-107.51 423.68,-95.51"/>
<polygon fill="midnightblue" stroke="midnightblue" points="424.62,-92.13 414.02,-92.07 422.27,-98.72 424.62,-92.13"/>
</g>
<!-- Node6 -->
<g id="node6" class="node">
<title>Node6</title>
<g id="a_node6"><a xlink:title=" ">
<polygon fill="white" stroke="#bfbfbf" points="491.5,-62 491.5,-92 653.5,-92 653.5,-62 491.5,-62"/>
<text text-anchor="start" x="499.5" y="-80" font-family="Helvetica,sans-Serif" font-size="10.00">asm/JSystem/J3DGraphAnimator</text>
<text text-anchor="middle" x="572.5" y="-69" font-family="Helvetica,sans-Serif" font-size="10.00">/J3DJointTree/func_80325A9C.s</text>
</a>
</g>
</g>
<!-- Node1&#45;&gt;Node6 -->
<g id="edge6" class="edge">
<title>Node1&#45;&gt;Node6</title>
<path fill="none" stroke="midnightblue" d="M572.5,-134.23C572.5,-125.16 572.5,-113.16 572.5,-102.58"/>
<polygon fill="midnightblue" stroke="midnightblue" points="576,-102.25 572.5,-92.25 569,-102.25 576,-102.25"/>
</g>
<!-- Node7 -->
<g id="node7" class="node">
<title>Node7</title>
<g id="a_node7"><a xlink:title=" ">
<polygon fill="white" stroke="#bfbfbf" points="671.5,-56.5 671.5,-97.5 847.5,-97.5 847.5,-56.5 671.5,-56.5"/>
<text text-anchor="start" x="679.5" y="-85.5" font-family="Helvetica,sans-Serif" font-size="10.00">asm/JSystem/J3DGraphAnimator</text>
<text text-anchor="start" x="679.5" y="-74.5" font-family="Helvetica,sans-Serif" font-size="10.00">/J3DJointTree/findImportantMtxIndex</text>
<text text-anchor="middle" x="759.5" y="-63.5" font-family="Helvetica,sans-Serif" font-size="10.00">__12J3DJointTreeFv.s</text>
</a>
</g>
</g>
<!-- Node1&#45;&gt;Node7 -->
<g id="edge7" class="edge">
<title>Node1&#45;&gt;Node7</title>
<path fill="none" stroke="midnightblue" d="M609.89,-134.4C635.08,-124.91 668.88,-112.16 697.98,-101.19"/>
<polygon fill="midnightblue" stroke="midnightblue" points="699.53,-104.35 707.65,-97.55 697.06,-97.8 699.53,-104.35"/>
</g>
<!-- Node8 -->
<g id="node8" class="node">
<title>Node8</title>
<g id="a_node8"><a xlink:title=" ">
<polygon fill="white" stroke="#bfbfbf" points="866,-56.5 866,-97.5 1059,-97.5 1059,-56.5 866,-56.5"/>
<text text-anchor="start" x="874" y="-85.5" font-family="Helvetica,sans-Serif" font-size="10.00">asm/JSystem/J3DGraphAnimator</text>
<text text-anchor="start" x="874" y="-74.5" font-family="Helvetica,sans-Serif" font-size="10.00">/J3DJointTree/calc__12J3DJointTree</text>
<text text-anchor="middle" x="962.5" y="-63.5" font-family="Helvetica,sans-Serif" font-size="10.00">FP12J3DMtxBufferRC3VecRA3_A4_Cf.s</text>
</a>
</g>
</g>
<!-- Node1&#45;&gt;Node8 -->
<g id="edge8" class="edge">
<title>Node1&#45;&gt;Node8</title>
<path fill="none" stroke="midnightblue" d="M651.5,-134.68C706.06,-125.09 780.56,-111.88 855.63,-98.15"/>
<polygon fill="midnightblue" stroke="midnightblue" points="856.54,-101.54 865.75,-96.3 855.28,-94.66 856.54,-101.54"/>
</g>
<!-- Node9 -->
<g id="node9" class="node">
<title>Node9</title>
<g id="a_node9"><a xlink:title=" ">
<polygon fill="white" stroke="#bfbfbf" points="1077,-56.5 1077,-97.5 1256,-97.5 1256,-56.5 1077,-56.5"/>
<text text-anchor="start" x="1085" y="-85.5" font-family="Helvetica,sans-Serif" font-size="10.00">asm/JSystem/J3DGraphAnimator</text>
<text text-anchor="start" x="1085" y="-74.5" font-family="Helvetica,sans-Serif" font-size="10.00">/J3DJointTree/setMtxBuffer</text>
<text text-anchor="middle" x="1166.5" y="-63.5" font-family="Helvetica,sans-Serif" font-size="10.00">__10J3DMtxCalcFP12J3DMtxBuffer.s</text>
</a>
</g>
</g>
<!-- Node1&#45;&gt;Node9 -->
<g id="edge9" class="edge">
<title>Node1&#45;&gt;Node9</title>
<path fill="none" stroke="midnightblue" d="M651.84,-142.88C747.92,-135.52 914.82,-120.96 1066.85,-98.18"/>
<polygon fill="midnightblue" stroke="midnightblue" points="1067.48,-101.63 1076.84,-96.67 1066.43,-94.71 1067.48,-101.63"/>
</g>
<!-- Node10 -->
<g id="node10" class="node">
<title>Node10</title>
<g id="a_node10"><a xlink:title=" ">
<polygon fill="white" stroke="#bfbfbf" points="1274,-62 1274,-92 1471,-92 1471,-62 1274,-62"/>
<text text-anchor="start" x="1282" y="-80" font-family="Helvetica,sans-Serif" font-size="10.00">asm/JSystem/J3DGraphAnimator</text>
<text text-anchor="middle" x="1372.5" y="-69" font-family="Helvetica,sans-Serif" font-size="10.00">/J3DJointTree/__dt__12J3DJointTreeFv.s</text>
</a>
</g>
</g>
<!-- Node1&#45;&gt;Node10 -->
<g id="edge10" class="edge">
<title>Node1&#45;&gt;Node10</title>
<path fill="none" stroke="midnightblue" d="M651.51,-145.62C780.47,-140.29 1044.03,-126.68 1265.5,-98 1274.58,-96.82 1284.06,-95.38 1293.46,-93.8"/>
<polygon fill="midnightblue" stroke="midnightblue" points="1294.35,-97.2 1303.61,-92.05 1293.16,-90.3 1294.35,-97.2"/>
</g>
<!-- Node4&#45;&gt;Node3 -->
<g id="edge4" class="edge">
<title>Node4&#45;&gt;Node3</title>
<path fill="none" stroke="midnightblue" d="M176.87,-61.9C169.3,-51.86 159.11,-38.34 151.13,-27.75"/>
<polygon fill="midnightblue" stroke="midnightblue" points="153.87,-25.57 145.05,-19.69 148.28,-29.79 153.87,-25.57"/>
</g>
</g>
</svg>
