<?xml version="1.0" encoding="UTF-8" standalone="no"?>
<!DOCTYPE svg PUBLIC "-//W3C//DTD SVG 1.1//EN"
 "http://www.w3.org/Graphics/SVG/1.1/DTD/svg11.dtd">
<!-- Generated by graphviz version 2.47.0 (20210316.2052)
 -->
<!-- Title: libs/JSystem/J3DGraphAnimator/J3DMtxBuffer.cpp Pages: 1 -->
<svg width="2676pt" height="173pt"
 viewBox="0.00 0.00 2675.50 173.00" xmlns="http://www.w3.org/2000/svg" xmlns:xlink="http://www.w3.org/1999/xlink">
<g id="graph0" class="graph" transform="scale(1 1) rotate(0) translate(4 169)">
<title>libs/JSystem/J3DGraphAnimator/J3DMtxBuffer.cpp</title>
<polygon fill="white" stroke="transparent" points="-4,4 -4,-169 2671.5,-169 2671.5,4 -4,4"/>
<!-- Node1 -->
<g id="node1" class="node">
<title>Node1</title>
<g id="a_node1"><a xlink:title=" ">
<polygon fill="#bfbfbf" stroke="black" points="1098.5,-134.5 1098.5,-164.5 1256.5,-164.5 1256.5,-134.5 1098.5,-134.5"/>
<text text-anchor="start" x="1106.5" y="-152.5" font-family="Helvetica,sans-Serif" font-size="10.00">libs/JSystem/J3DGraphAnimator</text>
<text text-anchor="middle" x="1177.5" y="-141.5" font-family="Helvetica,sans-Serif" font-size="10.00">/J3DMtxBuffer.cpp</text>
</a>
</g>
</g>
<!-- Node2 -->
<g id="node2" class="node">
<title>Node2</title>
<g id="a_node2"><a xlink:href="dol2asm_8h.html" target="_top" xlink:title=" ">
<polygon fill="white" stroke="black" points="0,-67.5 0,-86.5 61,-86.5 61,-67.5 0,-67.5"/>
<text text-anchor="middle" x="30.5" y="-74.5" font-family="Helvetica,sans-Serif" font-size="10.00">dol2asm.h</text>
</a>
</g>
</g>
<!-- Node1&#45;&gt;Node2 -->
<g id="edge1" class="edge">
<title>Node1&#45;&gt;Node2</title>
<path fill="none" stroke="midnightblue" d="M1098.22,-148.67C879.33,-148.54 269.93,-143.94 75.5,-98 68.73,-96.4 61.72,-93.8 55.3,-90.99"/>
<polygon fill="midnightblue" stroke="midnightblue" points="56.36,-87.62 45.83,-86.52 53.38,-93.95 56.36,-87.62"/>
</g>
<!-- Node3 -->
<g id="node3" class="node">
<title>Node3</title>
<g id="a_node3"><a xlink:href="types_8h.html" target="_top" xlink:title=" ">
<polygon fill="white" stroke="black" points="98,-0.5 98,-19.5 179,-19.5 179,-0.5 98,-0.5"/>
<text text-anchor="middle" x="138.5" y="-7.5" font-family="Helvetica,sans-Serif" font-size="10.00">dolphin/types.h</text>
</a>
</g>
</g>
<!-- Node1&#45;&gt;Node3 -->
<g id="edge2" class="edge">
<title>Node1&#45;&gt;Node3</title>
<path fill="none" stroke="midnightblue" d="M1098.34,-147.71C856.65,-144.93 142.56,-133.71 108.5,-98 89.85,-78.45 108.93,-46.77 124.03,-27.51"/>
<polygon fill="midnightblue" stroke="midnightblue" points="126.87,-29.57 130.54,-19.63 121.47,-25.11 126.87,-29.57"/>
</g>
<!-- Node4 -->
<g id="node4" class="node">
<title>Node4</title>
<g id="a_node4"><a xlink:href="J3DMtxBuffer_8h.html" target="_top" xlink:title=" ">
<polygon fill="white" stroke="black" points="117.5,-62 117.5,-92 257.5,-92 257.5,-62 117.5,-62"/>
<text text-anchor="start" x="125.5" y="-80" font-family="Helvetica,sans-Serif" font-size="10.00">JSystem/J3DGraphAnimator</text>
<text text-anchor="middle" x="187.5" y="-69" font-family="Helvetica,sans-Serif" font-size="10.00">/J3DMtxBuffer.h</text>
</a>
</g>
</g>
<!-- Node1&#45;&gt;Node4 -->
<g id="edge3" class="edge">
<title>Node1&#45;&gt;Node4</title>
<path fill="none" stroke="midnightblue" d="M1098.38,-149.21C939.64,-149.53 571.45,-144.61 266.5,-98 260.17,-97.03 253.6,-95.78 247.09,-94.38"/>
<polygon fill="midnightblue" stroke="midnightblue" points="247.46,-90.87 236.93,-92.06 245.9,-97.7 247.46,-90.87"/>
</g>
<!-- Node5 -->
<g id="node5" class="node">
<title>Node5</title>
<g id="a_node5"><a xlink:title=" ">
<polygon fill="white" stroke="#bfbfbf" points="275.5,-56.5 275.5,-97.5 437.5,-97.5 437.5,-56.5 275.5,-56.5"/>
<text text-anchor="start" x="283.5" y="-85.5" font-family="Helvetica,sans-Serif" font-size="10.00">asm/JSystem/J3DGraphAnimator</text>
<text text-anchor="start" x="283.5" y="-74.5" font-family="Helvetica,sans-Serif" font-size="10.00">/J3DMtxBuffer/initialize</text>
<text text-anchor="middle" x="356.5" y="-63.5" font-family="Helvetica,sans-Serif" font-size="10.00">__12J3DMtxBufferFv.s</text>
</a>
</g>
</g>
<!-- Node1&#45;&gt;Node5 -->
<g id="edge5" class="edge">
<title>Node1&#45;&gt;Node5</title>
<path fill="none" stroke="midnightblue" d="M1098.39,-146.91C965.68,-143.39 689.76,-132.42 447.87,-98.09"/>
<polygon fill="midnightblue" stroke="midnightblue" points="448.23,-94.6 437.83,-96.65 447.24,-101.53 448.23,-94.6"/>
</g>
<!-- Node6 -->
<g id="node6" class="node">
<title>Node6</title>
<g id="a_node6"><a xlink:title=" ">
<polygon fill="white" stroke="#bfbfbf" points="455.5,-56.5 455.5,-97.5 643.5,-97.5 643.5,-56.5 455.5,-56.5"/>
<text text-anchor="start" x="463.5" y="-85.5" font-family="Helvetica,sans-Serif" font-size="10.00">asm/JSystem/J3DGraphAnimator</text>
<text text-anchor="start" x="463.5" y="-74.5" font-family="Helvetica,sans-Serif" font-size="10.00">/J3DMtxBuffer/create__12J3DMtxBuffer</text>
<text text-anchor="middle" x="549.5" y="-63.5" font-family="Helvetica,sans-Serif" font-size="10.00">FP12J3DModelDataUl.s</text>
</a>
</g>
</g>
<!-- Node1&#45;&gt;Node6 -->
<g id="edge6" class="edge">
<title>Node1&#45;&gt;Node6</title>
<path fill="none" stroke="midnightblue" d="M1098.22,-143.19C995.34,-135.76 810.45,-120.6 653.5,-98 653.4,-97.99 653.3,-97.97 653.19,-97.96"/>
<polygon fill="midnightblue" stroke="midnightblue" points="653.95,-94.53 643.54,-96.49 652.9,-101.45 653.95,-94.53"/>
</g>
<!-- Node7 -->
<g id="node7" class="node">
<title>Node7</title>
<g id="a_node7"><a xlink:title=" ">
<polygon fill="white" stroke="#bfbfbf" points="662,-56.5 662,-97.5 853,-97.5 853,-56.5 662,-56.5"/>
<text text-anchor="start" x="670" y="-85.5" font-family="Helvetica,sans-Serif" font-size="10.00">asm/JSystem/J3DGraphAnimator</text>
<text text-anchor="start" x="670" y="-74.5" font-family="Helvetica,sans-Serif" font-size="10.00">/J3DMtxBuffer/createAnmMtx</text>
<text text-anchor="middle" x="757.5" y="-63.5" font-family="Helvetica,sans-Serif" font-size="10.00">__12J3DMtxBufferFP12J3DModelData.s</text>
</a>
</g>
</g>
<!-- Node1&#45;&gt;Node7 -->
<g id="edge7" class="edge">
<title>Node1&#45;&gt;Node7</title>
<path fill="none" stroke="midnightblue" d="M1098.43,-136.48C1037.02,-126.99 949.48,-113.14 863.04,-98.07"/>
<polygon fill="midnightblue" stroke="midnightblue" points="863.5,-94.6 853.05,-96.32 862.29,-101.49 863.5,-94.6"/>
</g>
<!-- Node8 -->
<g id="node8" class="node">
<title>Node8</title>
<g id="a_node8"><a xlink:title=" ">
<polygon fill="white" stroke="#bfbfbf" points="871.5,-56.5 871.5,-97.5 1077.5,-97.5 1077.5,-56.5 871.5,-56.5"/>
<text text-anchor="start" x="879.5" y="-85.5" font-family="Helvetica,sans-Serif" font-size="10.00">asm/JSystem/J3DGraphAnimator</text>
<text text-anchor="start" x="879.5" y="-74.5" font-family="Helvetica,sans-Serif" font-size="10.00">/J3DMtxBuffer/createWeightEnvelope</text>
<text text-anchor="middle" x="974.5" y="-63.5" font-family="Helvetica,sans-Serif" font-size="10.00">Mtx__12J3DMtxBufferFP12J3DModelData.s</text>
</a>
</g>
</g>
<!-- Node1&#45;&gt;Node8 -->
<g id="edge8" class="edge">
<title>Node1&#45;&gt;Node8</title>
<path fill="none" stroke="midnightblue" d="M1136.91,-134.4C1109.33,-124.83 1072.23,-111.94 1040.46,-100.91"/>
<polygon fill="midnightblue" stroke="midnightblue" points="1041.38,-97.52 1030.78,-97.55 1039.08,-104.13 1041.38,-97.52"/>
</g>
<!-- Node9 -->
<g id="node9" class="node">
<title>Node9</title>
<g id="a_node9"><a xlink:title=" ">
<polygon fill="white" stroke="#bfbfbf" points="1095.5,-56.5 1095.5,-97.5 1259.5,-97.5 1259.5,-56.5 1095.5,-56.5"/>
<text text-anchor="start" x="1103.5" y="-85.5" font-family="Helvetica,sans-Serif" font-size="10.00">asm/JSystem/J3DGraphAnimator</text>
<text text-anchor="start" x="1103.5" y="-74.5" font-family="Helvetica,sans-Serif" font-size="10.00">/J3DMtxBuffer/setNoUseDrawMtx</text>
<text text-anchor="middle" x="1177.5" y="-63.5" font-family="Helvetica,sans-Serif" font-size="10.00">__12J3DMtxBufferFv.s</text>
</a>
</g>
</g>
<!-- Node1&#45;&gt;Node9 -->
<g id="edge9" class="edge">
<title>Node1&#45;&gt;Node9</title>
<path fill="none" stroke="midnightblue" d="M1177.5,-134.23C1177.5,-126.57 1177.5,-116.84 1177.5,-107.63"/>
<polygon fill="midnightblue" stroke="midnightblue" points="1181,-107.59 1177.5,-97.59 1174,-107.59 1181,-107.59"/>
</g>
<!-- Node10 -->
<g id="node10" class="node">
<title>Node10</title>
<g id="a_node10"><a xlink:title=" ">
<polygon fill="white" stroke="#bfbfbf" points="1277.5,-56.5 1277.5,-97.5 1477.5,-97.5 1477.5,-56.5 1277.5,-56.5"/>
<text text-anchor="start" x="1285.5" y="-85.5" font-family="Helvetica,sans-Serif" font-size="10.00">asm/JSystem/J3DGraphAnimator</text>
<text text-anchor="start" x="1285.5" y="-74.5" font-family="Helvetica,sans-Serif" font-size="10.00">/J3DMtxBuffer/createDoubleDrawMtx</text>
<text text-anchor="middle" x="1377.5" y="-63.5" font-family="Helvetica,sans-Serif" font-size="10.00">__12J3DMtxBufferFP12J3DModelDataUl.s</text>
</a>
</g>
</g>
<!-- Node1&#45;&gt;Node10 -->
<g id="edge10" class="edge">
<title>Node1&#45;&gt;Node10</title>
<path fill="none" stroke="midnightblue" d="M1217.49,-134.4C1244.66,-124.83 1281.21,-111.94 1312.52,-100.91"/>
<polygon fill="midnightblue" stroke="midnightblue" points="1313.78,-104.17 1322.05,-97.55 1311.45,-97.57 1313.78,-104.17"/>
</g>
<!-- Node11 -->
<g id="node11" class="node">
<title>Node11</title>
<g id="a_node11"><a xlink:title=" ">
<polygon fill="white" stroke="#bfbfbf" points="1495.5,-56.5 1495.5,-97.5 1695.5,-97.5 1695.5,-56.5 1495.5,-56.5"/>
<text text-anchor="start" x="1503.5" y="-85.5" font-family="Helvetica,sans-Serif" font-size="10.00">asm/JSystem/J3DGraphAnimator</text>
<text text-anchor="start" x="1503.5" y="-74.5" font-family="Helvetica,sans-Serif" font-size="10.00">/J3DMtxBuffer/createBumpMtxArray</text>
<text text-anchor="middle" x="1595.5" y="-63.5" font-family="Helvetica,sans-Serif" font-size="10.00">__12J3DMtxBufferFP12J3DModelDataUl.s</text>
</a>
</g>
</g>
<!-- Node1&#45;&gt;Node11 -->
<g id="edge11" class="edge">
<title>Node1&#45;&gt;Node11</title>
<path fill="none" stroke="midnightblue" d="M1256.63,-136C1316.72,-126.41 1401.67,-112.64 1485.48,-98.16"/>
<polygon fill="midnightblue" stroke="midnightblue" points="1486.17,-101.59 1495.43,-96.44 1484.98,-94.7 1486.17,-101.59"/>
</g>
<!-- Node12 -->
<g id="node12" class="node">
<title>Node12</title>
<g id="a_node12"><a xlink:title=" ">
<polygon fill="white" stroke="#bfbfbf" points="1714,-56.5 1714,-97.5 1883,-97.5 1883,-56.5 1714,-56.5"/>
<text text-anchor="start" x="1722" y="-85.5" font-family="Helvetica,sans-Serif" font-size="10.00">asm/JSystem/J3DGraphAnimator</text>
<text text-anchor="start" x="1722" y="-74.5" font-family="Helvetica,sans-Serif" font-size="10.00">/J3DMtxBuffer/calcWeightEnvelope</text>
<text text-anchor="middle" x="1798.5" y="-63.5" font-family="Helvetica,sans-Serif" font-size="10.00">Mtx__12J3DMtxBufferFv.s</text>
</a>
</g>
</g>
<!-- Node1&#45;&gt;Node12 -->
<g id="edge12" class="edge">
<title>Node1&#45;&gt;Node12</title>
<path fill="none" stroke="midnightblue" d="M1256.86,-143.73C1358.19,-137 1539.05,-122.87 1703.47,-98.06"/>
<polygon fill="midnightblue" stroke="midnightblue" points="1704.42,-101.46 1713.78,-96.49 1703.37,-94.54 1704.42,-101.46"/>
</g>
<!-- Node13 -->
<g id="node13" class="node">
<title>Node13</title>
<g id="a_node13"><a xlink:title=" ">
<polygon fill="white" stroke="#bfbfbf" points="1901.5,-56.5 1901.5,-97.5 2107.5,-97.5 2107.5,-56.5 1901.5,-56.5"/>
<text text-anchor="start" x="1909.5" y="-85.5" font-family="Helvetica,sans-Serif" font-size="10.00">asm/JSystem/J3DGraphAnimator</text>
<text text-anchor="start" x="1909.5" y="-74.5" font-family="Helvetica,sans-Serif" font-size="10.00">/J3DMtxBuffer/calcDrawMtx</text>
<text text-anchor="middle" x="2004.5" y="-63.5" font-family="Helvetica,sans-Serif" font-size="10.00">__12J3DMtxBufferFUlRC3VecRA3_A4_Cf.s</text>
</a>
</g>
</g>
<!-- Node1&#45;&gt;Node13 -->
<g id="edge13" class="edge">
<title>Node1&#45;&gt;Node13</title>
<path fill="none" stroke="midnightblue" d="M1256.59,-145.66C1386.84,-140.38 1654.77,-126.96 1891.26,-98.08"/>
<polygon fill="midnightblue" stroke="midnightblue" points="1891.93,-101.53 1901.43,-96.83 1891.07,-94.58 1891.93,-101.53"/>
</g>
<!-- Node14 -->
<g id="node14" class="node">
<title>Node14</title>
<g id="a_node14"><a xlink:title=" ">
<polygon fill="white" stroke="#bfbfbf" points="2125.5,-56.5 2125.5,-97.5 2287.5,-97.5 2287.5,-56.5 2125.5,-56.5"/>
<text text-anchor="start" x="2133.5" y="-85.5" font-family="Helvetica,sans-Serif" font-size="10.00">asm/JSystem/J3DGraphAnimator</text>
<text text-anchor="start" x="2133.5" y="-74.5" font-family="Helvetica,sans-Serif" font-size="10.00">/J3DMtxBuffer/calcNrmMtx</text>
<text text-anchor="middle" x="2206.5" y="-63.5" font-family="Helvetica,sans-Serif" font-size="10.00">__12J3DMtxBufferFv.s</text>
</a>
</g>
</g>
<!-- Node1&#45;&gt;Node14 -->
<g id="edge14" class="edge">
<title>Node1&#45;&gt;Node14</title>
<path fill="none" stroke="midnightblue" d="M1256.75,-148.63C1417.27,-147.95 1792.29,-141.5 2115.16,-98.06"/>
<polygon fill="midnightblue" stroke="midnightblue" points="2115.74,-101.52 2125.17,-96.7 2114.79,-94.58 2115.74,-101.52"/>
</g>
<!-- Node15 -->
<g id="node15" class="node">
<title>Node15</title>
<g id="a_node15"><a xlink:title=" ">
<polygon fill="white" stroke="#bfbfbf" points="2305.5,-56.5 2305.5,-97.5 2467.5,-97.5 2467.5,-56.5 2305.5,-56.5"/>
<text text-anchor="start" x="2313.5" y="-85.5" font-family="Helvetica,sans-Serif" font-size="10.00">asm/JSystem/J3DGraphAnimator</text>
<text text-anchor="start" x="2313.5" y="-74.5" font-family="Helvetica,sans-Serif" font-size="10.00">/J3DMtxBuffer/calcBBoardMtx</text>
<text text-anchor="middle" x="2386.5" y="-63.5" font-family="Helvetica,sans-Serif" font-size="10.00">__12J3DMtxBufferFv.s</text>
</a>
</g>
</g>
<!-- Node1&#45;&gt;Node15 -->
<g id="edge15" class="edge">
<title>Node1&#45;&gt;Node15</title>
<path fill="none" stroke="midnightblue" d="M1256.83,-146.71C1473.99,-141.53 2075.96,-125.23 2295.04,-98.04"/>
<polygon fill="midnightblue" stroke="midnightblue" points="2295.71,-101.48 2305.18,-96.73 2294.81,-94.54 2295.71,-101.48"/>
</g>
<!-- Node16 -->
<g id="node16" class="node">
<title>Node16</title>
<g id="a_node16"><a xlink:title=" ">
<polygon fill="white" stroke="#bfbfbf" points="2485.5,-56.5 2485.5,-97.5 2667.5,-97.5 2667.5,-56.5 2485.5,-56.5"/>
<text text-anchor="start" x="2493.5" y="-85.5" font-family="Helvetica,sans-Serif" font-size="10.00">asm/JSystem/J3DGraphAnimator</text>
<text text-anchor="start" x="2493.5" y="-74.5" font-family="Helvetica,sans-Serif" font-size="10.00">/J3DMtxBuffer/J3DCalcViewBaseMtx</text>
<text text-anchor="middle" x="2576.5" y="-63.5" font-family="Helvetica,sans-Serif" font-size="10.00">__FPA4_fRC3VecRA3_A4_CfPA4_f.s</text>
</a>
</g>
</g>
<!-- Node1&#45;&gt;Node16 -->
<g id="edge16" class="edge">
<title>Node1&#45;&gt;Node16</title>
<path fill="none" stroke="midnightblue" d="M1256.65,-147.07C1497.31,-142.46 2219.01,-126.68 2475.29,-98.01"/>
<polygon fill="midnightblue" stroke="midnightblue" points="2475.78,-101.48 2485.31,-96.86 2474.97,-94.53 2475.78,-101.48"/>
</g>
<!-- Node4&#45;&gt;Node3 -->
<g id="edge4" class="edge">
<title>Node4&#45;&gt;Node3</title>
<path fill="none" stroke="midnightblue" d="M176.87,-61.9C169.3,-51.86 159.11,-38.34 151.13,-27.75"/>
<polygon fill="midnightblue" stroke="midnightblue" points="153.87,-25.57 145.05,-19.69 148.28,-29.79 153.87,-25.57"/>
</g>
</g>
</svg>
