<?xml version="1.0" encoding="UTF-8" standalone="no"?>
<!DOCTYPE svg PUBLIC "-//W3C//DTD SVG 1.1//EN"
 "http://www.w3.org/Graphics/SVG/1.1/DTD/svg11.dtd">
<!-- Generated by graphviz version 2.47.0 (20210316.2052)
 -->
<!-- Title: libs/JSystem/J3DGraphAnimator/J3DModel.cpp Pages: 1 -->
<svg width="4926pt" height="173pt"
 viewBox="0.00 0.00 4926.00 173.00" xmlns="http://www.w3.org/2000/svg" xmlns:xlink="http://www.w3.org/1999/xlink">
<g id="graph0" class="graph" transform="scale(1 1) rotate(0) translate(4 169)">
<title>libs/JSystem/J3DGraphAnimator/J3DModel.cpp</title>
<polygon fill="white" stroke="transparent" points="-4,4 -4,-169 4922,-169 4922,4 -4,4"/>
<!-- Node1 -->
<g id="node1" class="node">
<title>Node1</title>
<g id="a_node1"><a xlink:title=" ">
<polygon fill="#bfbfbf" stroke="black" points="2209.5,-134.5 2209.5,-164.5 2367.5,-164.5 2367.5,-134.5 2209.5,-134.5"/>
<text text-anchor="start" x="2217.5" y="-152.5" font-family="Helvetica,sans-Serif" font-size="10.00">libs/JSystem/J3DGraphAnimator</text>
<text text-anchor="middle" x="2288.5" y="-141.5" font-family="Helvetica,sans-Serif" font-size="10.00">/J3DModel.cpp</text>
</a>
</g>
</g>
<!-- Node2 -->
<g id="node2" class="node">
<title>Node2</title>
<g id="a_node2"><a xlink:href="dol2asm_8h.html" target="_top" xlink:title=" ">
<polygon fill="white" stroke="black" points="0,-67.5 0,-86.5 61,-86.5 61,-67.5 0,-67.5"/>
<text text-anchor="middle" x="30.5" y="-74.5" font-family="Helvetica,sans-Serif" font-size="10.00">dol2asm.h</text>
</a>
</g>
</g>
<!-- Node1&#45;&gt;Node2 -->
<g id="edge1" class="edge">
<title>Node1&#45;&gt;Node2</title>
<path fill="none" stroke="midnightblue" d="M2209.21,-148.54C1838.66,-148.47 286.61,-145.32 75.5,-98 68.71,-96.48 61.69,-93.9 55.27,-91.1"/>
<polygon fill="midnightblue" stroke="midnightblue" points="56.34,-87.73 45.8,-86.62 53.35,-94.06 56.34,-87.73"/>
</g>
<!-- Node3 -->
<g id="node3" class="node">
<title>Node3</title>
<g id="a_node3"><a xlink:href="types_8h.html" target="_top" xlink:title=" ">
<polygon fill="white" stroke="black" points="98,-0.5 98,-19.5 179,-19.5 179,-0.5 98,-0.5"/>
<text text-anchor="middle" x="138.5" y="-7.5" font-family="Helvetica,sans-Serif" font-size="10.00">dolphin/types.h</text>
</a>
</g>
</g>
<!-- Node1&#45;&gt;Node3 -->
<g id="edge2" class="edge">
<title>Node1&#45;&gt;Node3</title>
<path fill="none" stroke="midnightblue" d="M2209.5,-148.17C1822.73,-146.36 145.94,-136.32 108.5,-98 89.62,-78.68 108.77,-46.92 123.95,-27.59"/>
<polygon fill="midnightblue" stroke="midnightblue" points="126.82,-29.61 130.49,-19.67 121.43,-25.15 126.82,-29.61"/>
</g>
<!-- Node4 -->
<g id="node4" class="node">
<title>Node4</title>
<g id="a_node4"><a xlink:href="J3DModel_8h.html" target="_top" xlink:title=" ">
<polygon fill="white" stroke="black" points="117.5,-62 117.5,-92 257.5,-92 257.5,-62 117.5,-62"/>
<text text-anchor="start" x="125.5" y="-80" font-family="Helvetica,sans-Serif" font-size="10.00">JSystem/J3DGraphAnimator</text>
<text text-anchor="middle" x="187.5" y="-69" font-family="Helvetica,sans-Serif" font-size="10.00">/J3DModel.h</text>
</a>
</g>
</g>
<!-- Node1&#45;&gt;Node4 -->
<g id="edge3" class="edge">
<title>Node1&#45;&gt;Node4</title>
<path fill="none" stroke="midnightblue" d="M2209.26,-148.85C1884.3,-149.9 652.67,-150.31 267.5,-98 260.73,-97.08 253.71,-95.81 246.76,-94.35"/>
<polygon fill="midnightblue" stroke="midnightblue" points="247.2,-90.86 236.67,-92.1 245.67,-97.69 247.2,-90.86"/>
</g>
<!-- Node5 -->
<g id="node5" class="node">
<title>Node5</title>
<g id="a_node5"><a xlink:title=" ">
<polygon fill="white" stroke="#bfbfbf" points="276,-62 276,-92 455,-92 455,-62 276,-62"/>
<text text-anchor="start" x="284" y="-80" font-family="Helvetica,sans-Serif" font-size="10.00">asm/JSystem/J3DGraphAnimator</text>
<text text-anchor="middle" x="365.5" y="-69" font-family="Helvetica,sans-Serif" font-size="10.00">/J3DModel/initialize__8J3DModelFv.s</text>
</a>
</g>
</g>
<!-- Node1&#45;&gt;Node5 -->
<g id="edge5" class="edge">
<title>Node1&#45;&gt;Node5</title>
<path fill="none" stroke="midnightblue" d="M2209.42,-148.12C1905.2,-146.37 810.13,-137.4 464.5,-98 455.42,-96.96 445.93,-95.52 436.57,-93.88"/>
<polygon fill="midnightblue" stroke="midnightblue" points="436.97,-90.39 426.5,-92.03 435.7,-97.28 436.97,-90.39"/>
</g>
<!-- Node6 -->
<g id="node6" class="node">
<title>Node6</title>
<g id="a_node6"><a xlink:title=" ">
<polygon fill="white" stroke="#bfbfbf" points="473.5,-56.5 473.5,-97.5 663.5,-97.5 663.5,-56.5 473.5,-56.5"/>
<text text-anchor="start" x="481.5" y="-85.5" font-family="Helvetica,sans-Serif" font-size="10.00">asm/JSystem/J3DGraphAnimator</text>
<text text-anchor="start" x="481.5" y="-74.5" font-family="Helvetica,sans-Serif" font-size="10.00">/J3DModel/entryModelData</text>
<text text-anchor="middle" x="568.5" y="-63.5" font-family="Helvetica,sans-Serif" font-size="10.00">__8J3DModelFP12J3DModelDataUlUl.s</text>
</a>
</g>
</g>
<!-- Node1&#45;&gt;Node6 -->
<g id="edge6" class="edge">
<title>Node1&#45;&gt;Node6</title>
<path fill="none" stroke="midnightblue" d="M2209.46,-147.69C1931.07,-144.59 995.93,-131.93 673.89,-98.03"/>
<polygon fill="midnightblue" stroke="midnightblue" points="673.94,-94.52 663.62,-96.92 673.19,-101.48 673.94,-94.52"/>
</g>
<!-- Node7 -->
<g id="node7" class="node">
<title>Node7</title>
<g id="a_node7"><a xlink:title=" ">
<polygon fill="white" stroke="#bfbfbf" points="681.5,-56.5 681.5,-97.5 851.5,-97.5 851.5,-56.5 681.5,-56.5"/>
<text text-anchor="start" x="689.5" y="-85.5" font-family="Helvetica,sans-Serif" font-size="10.00">asm/JSystem/J3DGraphAnimator</text>
<text text-anchor="start" x="689.5" y="-74.5" font-family="Helvetica,sans-Serif" font-size="10.00">/J3DModel/createShapePacket</text>
<text text-anchor="middle" x="766.5" y="-63.5" font-family="Helvetica,sans-Serif" font-size="10.00">__8J3DModelFP12J3DModelData.s</text>
</a>
</g>
</g>
<!-- Node1&#45;&gt;Node7 -->
<g id="edge7" class="edge">
<title>Node1&#45;&gt;Node7</title>
<path fill="none" stroke="midnightblue" d="M2209.36,-147.52C1952.79,-144.05 1144.77,-130.86 861.94,-98.03"/>
<polygon fill="midnightblue" stroke="midnightblue" points="862.04,-94.52 851.7,-96.8 861.21,-101.47 862.04,-94.52"/>
</g>
<!-- Node8 -->
<g id="node8" class="node">
<title>Node8</title>
<g id="a_node8"><a xlink:title=" ">
<polygon fill="white" stroke="#bfbfbf" points="869.5,-56.5 869.5,-97.5 1049.5,-97.5 1049.5,-56.5 869.5,-56.5"/>
<text text-anchor="start" x="877.5" y="-85.5" font-family="Helvetica,sans-Serif" font-size="10.00">asm/JSystem/J3DGraphAnimator</text>
<text text-anchor="start" x="877.5" y="-74.5" font-family="Helvetica,sans-Serif" font-size="10.00">/J3DModel/createMatPacket</text>
<text text-anchor="middle" x="959.5" y="-63.5" font-family="Helvetica,sans-Serif" font-size="10.00">__8J3DModelFP12J3DModelDataUl.s</text>
</a>
</g>
</g>
<!-- Node1&#45;&gt;Node8 -->
<g id="edge8" class="edge">
<title>Node1&#45;&gt;Node8</title>
<path fill="none" stroke="midnightblue" d="M2209.5,-146.87C1978.01,-141.84 1302.94,-125.31 1059.82,-97.88"/>
<polygon fill="midnightblue" stroke="midnightblue" points="1059.95,-94.38 1049.61,-96.7 1059.14,-101.33 1059.95,-94.38"/>
</g>
<!-- Node9 -->
<g id="node9" class="node">
<title>Node9</title>
<g id="a_node9"><a xlink:title=" ">
<polygon fill="white" stroke="#bfbfbf" points="1068,-56.5 1068,-97.5 1233,-97.5 1233,-56.5 1068,-56.5"/>
<text text-anchor="start" x="1076" y="-85.5" font-family="Helvetica,sans-Serif" font-size="10.00">asm/JSystem/J3DGraphAnimator</text>
<text text-anchor="start" x="1076" y="-74.5" font-family="Helvetica,sans-Serif" font-size="10.00">/J3DModel/newDifferedDisplayList</text>
<text text-anchor="middle" x="1150.5" y="-63.5" font-family="Helvetica,sans-Serif" font-size="10.00">__8J3DModelFUl.s</text>
</a>
</g>
</g>
<!-- Node1&#45;&gt;Node9 -->
<g id="edge9" class="edge">
<title>Node1&#45;&gt;Node9</title>
<path fill="none" stroke="midnightblue" d="M2209.37,-149.14C2035.87,-149.58 1609,-145.39 1243.13,-97.95"/>
<polygon fill="midnightblue" stroke="midnightblue" points="1243.51,-94.47 1233.14,-96.64 1242.6,-101.41 1243.51,-94.47"/>
</g>
<!-- Node10 -->
<g id="node10" class="node">
<title>Node10</title>
<g id="a_node10"><a xlink:title=" ">
<polygon fill="white" stroke="#bfbfbf" points="1251.5,-62 1251.5,-92 1413.5,-92 1413.5,-62 1251.5,-62"/>
<text text-anchor="start" x="1259.5" y="-80" font-family="Helvetica,sans-Serif" font-size="10.00">asm/JSystem/J3DGraphAnimator</text>
<text text-anchor="middle" x="1332.5" y="-69" font-family="Helvetica,sans-Serif" font-size="10.00">/J3DModel/lock__8J3DModelFv.s</text>
</a>
</g>
</g>
<!-- Node1&#45;&gt;Node10 -->
<g id="edge10" class="edge">
<title>Node1&#45;&gt;Node10</title>
<path fill="none" stroke="midnightblue" d="M2209.38,-148.05C2056.69,-146.26 1711.1,-137.75 1423.5,-98 1415.84,-96.94 1407.87,-95.58 1399.96,-94.07"/>
<polygon fill="midnightblue" stroke="midnightblue" points="1400.51,-90.61 1390.02,-92.08 1399.14,-97.47 1400.51,-90.61"/>
</g>
<!-- Node11 -->
<g id="node11" class="node">
<title>Node11</title>
<g id="a_node11"><a xlink:title=" ">
<polygon fill="white" stroke="#bfbfbf" points="1432,-62 1432,-92 1605,-92 1605,-62 1432,-62"/>
<text text-anchor="start" x="1440" y="-80" font-family="Helvetica,sans-Serif" font-size="10.00">asm/JSystem/J3DGraphAnimator</text>
<text text-anchor="middle" x="1518.5" y="-69" font-family="Helvetica,sans-Serif" font-size="10.00">/J3DModel/unlock__8J3DModelFv.s</text>
</a>
</g>
</g>
<!-- Node1&#45;&gt;Node11 -->
<g id="edge11" class="edge">
<title>Node1&#45;&gt;Node11</title>
<path fill="none" stroke="midnightblue" d="M2209.28,-145.92C2082.95,-141.05 1828.29,-128.15 1614.5,-98 1606.47,-96.87 1598.1,-95.46 1589.81,-93.93"/>
<polygon fill="midnightblue" stroke="midnightblue" points="1590.23,-90.45 1579.75,-92 1588.91,-97.32 1590.23,-90.45"/>
</g>
<!-- Node12 -->
<g id="node12" class="node">
<title>Node12</title>
<g id="a_node12"><a xlink:title=" ">
<polygon fill="white" stroke="#bfbfbf" points="1623,-62 1623,-92 1820,-92 1820,-62 1623,-62"/>
<text text-anchor="start" x="1631" y="-80" font-family="Helvetica,sans-Serif" font-size="10.00">asm/JSystem/J3DGraphAnimator</text>
<text text-anchor="middle" x="1721.5" y="-69" font-family="Helvetica,sans-Serif" font-size="10.00">/J3DModel/calcMaterial__8J3DModelFv.s</text>
</a>
</g>
</g>
<!-- Node1&#45;&gt;Node12 -->
<g id="edge12" class="edge">
<title>Node1&#45;&gt;Node12</title>
<path fill="none" stroke="midnightblue" d="M2209.49,-141.59C2117.85,-133.16 1962.35,-117.58 1829.5,-98 1820.93,-96.74 1812.01,-95.29 1803.12,-93.77"/>
<polygon fill="midnightblue" stroke="midnightblue" points="1803.58,-90.3 1793.12,-92.03 1802.37,-97.19 1803.58,-90.3"/>
</g>
<!-- Node13 -->
<g id="node13" class="node">
<title>Node13</title>
<g id="a_node13"><a xlink:title=" ">
<polygon fill="white" stroke="#bfbfbf" points="1838.5,-56.5 1838.5,-97.5 2000.5,-97.5 2000.5,-56.5 1838.5,-56.5"/>
<text text-anchor="start" x="1846.5" y="-85.5" font-family="Helvetica,sans-Serif" font-size="10.00">asm/JSystem/J3DGraphAnimator</text>
<text text-anchor="start" x="1846.5" y="-74.5" font-family="Helvetica,sans-Serif" font-size="10.00">/J3DModel/calcDiffTexMtx</text>
<text text-anchor="middle" x="1919.5" y="-63.5" font-family="Helvetica,sans-Serif" font-size="10.00">__8J3DModelFv.s</text>
</a>
</g>
</g>
<!-- Node1&#45;&gt;Node13 -->
<g id="edge13" class="edge">
<title>Node1&#45;&gt;Node13</title>
<path fill="none" stroke="midnightblue" d="M2209.27,-135.02C2155.85,-125.73 2083.54,-112.77 2011.12,-98.29"/>
<polygon fill="midnightblue" stroke="midnightblue" points="2011.4,-94.78 2000.9,-96.24 2010.02,-101.64 2011.4,-94.78"/>
</g>
<!-- Node14 -->
<g id="node14" class="node">
<title>Node14</title>
<g id="a_node14"><a xlink:title=" ">
<polygon fill="white" stroke="#bfbfbf" points="2018.5,-62 2018.5,-92 2180.5,-92 2180.5,-62 2018.5,-62"/>
<text text-anchor="start" x="2026.5" y="-80" font-family="Helvetica,sans-Serif" font-size="10.00">asm/JSystem/J3DGraphAnimator</text>
<text text-anchor="middle" x="2099.5" y="-69" font-family="Helvetica,sans-Serif" font-size="10.00">/J3DModel/diff__8J3DModelFv.s</text>
</a>
</g>
</g>
<!-- Node1&#45;&gt;Node14 -->
<g id="edge14" class="edge">
<title>Node1&#45;&gt;Node14</title>
<path fill="none" stroke="midnightblue" d="M2250.71,-134.4C2220.83,-123.26 2178.96,-107.64 2146.85,-95.66"/>
<polygon fill="midnightblue" stroke="midnightblue" points="2147.82,-92.29 2137.23,-92.07 2145.37,-98.85 2147.82,-92.29"/>
</g>
<!-- Node15 -->
<g id="node15" class="node">
<title>Node15</title>
<g id="a_node15"><a xlink:title=" ">
<polygon fill="white" stroke="#bfbfbf" points="2198.5,-56.5 2198.5,-97.5 2378.5,-97.5 2378.5,-56.5 2198.5,-56.5"/>
<text text-anchor="start" x="2206.5" y="-85.5" font-family="Helvetica,sans-Serif" font-size="10.00">asm/JSystem/J3DGraphAnimator</text>
<text text-anchor="start" x="2206.5" y="-74.5" font-family="Helvetica,sans-Serif" font-size="10.00">/J3DModel/setDeformData_</text>
<text text-anchor="middle" x="2288.5" y="-63.5" font-family="Helvetica,sans-Serif" font-size="10.00">_8J3DModelFP13J3DDeformDataUl.s</text>
</a>
</g>
</g>
<!-- Node1&#45;&gt;Node15 -->
<g id="edge15" class="edge">
<title>Node1&#45;&gt;Node15</title>
<path fill="none" stroke="midnightblue" d="M2288.5,-134.23C2288.5,-126.57 2288.5,-116.84 2288.5,-107.63"/>
<polygon fill="midnightblue" stroke="midnightblue" points="2292,-107.59 2288.5,-97.59 2285,-107.59 2292,-107.59"/>
</g>
<!-- Node16 -->
<g id="node16" class="node">
<title>Node16</title>
<g id="a_node16"><a xlink:title=" ">
<polygon fill="white" stroke="#bfbfbf" points="2397,-56.5 2397,-97.5 2576,-97.5 2576,-56.5 2397,-56.5"/>
<text text-anchor="start" x="2405" y="-85.5" font-family="Helvetica,sans-Serif" font-size="10.00">asm/JSystem/J3DGraphAnimator</text>
<text text-anchor="start" x="2405" y="-74.5" font-family="Helvetica,sans-Serif" font-size="10.00">/J3DModel/setSkinDeform_</text>
<text text-anchor="middle" x="2486.5" y="-63.5" font-family="Helvetica,sans-Serif" font-size="10.00">_8J3DModelFP13J3DSkinDeformUl.s</text>
</a>
</g>
</g>
<!-- Node1&#45;&gt;Node16 -->
<g id="edge16" class="edge">
<title>Node1&#45;&gt;Node16</title>
<path fill="none" stroke="midnightblue" d="M2328.09,-134.4C2354.99,-124.83 2391.17,-111.94 2422.17,-100.91"/>
<polygon fill="midnightblue" stroke="midnightblue" points="2423.36,-104.2 2431.6,-97.55 2421.01,-97.6 2423.36,-104.2"/>
</g>
<!-- Node17 -->
<g id="node17" class="node">
<title>Node17</title>
<g id="a_node17"><a xlink:title=" ">
<polygon fill="white" stroke="#bfbfbf" points="2594.5,-62 2594.5,-92 2792.5,-92 2792.5,-62 2594.5,-62"/>
<text text-anchor="start" x="2602.5" y="-80" font-family="Helvetica,sans-Serif" font-size="10.00">asm/JSystem/J3DGraphAnimator</text>
<text text-anchor="middle" x="2693.5" y="-69" font-family="Helvetica,sans-Serif" font-size="10.00">/J3DModel/calcAnmMtx__8J3DModelFv.s</text>
</a>
</g>
</g>
<!-- Node1&#45;&gt;Node17 -->
<g id="edge17" class="edge">
<title>Node1&#45;&gt;Node17</title>
<path fill="none" stroke="midnightblue" d="M2367.66,-135.37C2427.52,-125.35 2511.73,-111.1 2585.5,-98 2593.02,-96.66 2600.84,-95.26 2608.67,-93.83"/>
<polygon fill="midnightblue" stroke="midnightblue" points="2609.37,-97.26 2618.58,-92.02 2608.11,-90.38 2609.37,-97.26"/>
</g>
<!-- Node18 -->
<g id="node18" class="node">
<title>Node18</title>
<g id="a_node18"><a xlink:title=" ">
<polygon fill="white" stroke="#bfbfbf" points="2810.5,-56.5 2810.5,-97.5 2980.5,-97.5 2980.5,-56.5 2810.5,-56.5"/>
<text text-anchor="start" x="2818.5" y="-85.5" font-family="Helvetica,sans-Serif" font-size="10.00">asm/JSystem/J3DGraphAnimator</text>
<text text-anchor="start" x="2818.5" y="-74.5" font-family="Helvetica,sans-Serif" font-size="10.00">/J3DModel/calcWeightEnvelopeMtx</text>
<text text-anchor="middle" x="2895.5" y="-63.5" font-family="Helvetica,sans-Serif" font-size="10.00">__8J3DModelFv.s</text>
</a>
</g>
</g>
<!-- Node1&#45;&gt;Node18 -->
<g id="edge18" class="edge">
<title>Node1&#45;&gt;Node18</title>
<path fill="none" stroke="midnightblue" d="M2367.5,-143.47C2466.47,-136.55 2641.37,-122.3 2800.31,-98.1"/>
<polygon fill="midnightblue" stroke="midnightblue" points="2800.92,-101.55 2810.27,-96.57 2799.85,-94.63 2800.92,-101.55"/>
</g>
<!-- Node19 -->
<g id="node19" class="node">
<title>Node19</title>
<g id="a_node19"><a xlink:title=" ">
<polygon fill="white" stroke="#bfbfbf" points="2999,-62 2999,-92 3172,-92 3172,-62 2999,-62"/>
<text text-anchor="start" x="3007" y="-80" font-family="Helvetica,sans-Serif" font-size="10.00">asm/JSystem/J3DGraphAnimator</text>
<text text-anchor="middle" x="3085.5" y="-69" font-family="Helvetica,sans-Serif" font-size="10.00">/J3DModel/update__8J3DModelFv.s</text>
</a>
</g>
</g>
<!-- Node1&#45;&gt;Node19 -->
<g id="edge19" class="edge">
<title>Node1&#45;&gt;Node19</title>
<path fill="none" stroke="midnightblue" d="M2367.71,-146.24C2497.97,-141.75 2765.33,-129.28 2989.5,-98 2997.53,-96.88 3005.9,-95.48 3014.2,-93.95"/>
<polygon fill="midnightblue" stroke="midnightblue" points="3015.09,-97.34 3024.26,-92.03 3013.78,-90.47 3015.09,-97.34"/>
</g>
<!-- Node20 -->
<g id="node20" class="node">
<title>Node20</title>
<g id="a_node20"><a xlink:title=" ">
<polygon fill="white" stroke="#bfbfbf" points="3190.5,-62 3190.5,-92 3352.5,-92 3352.5,-62 3190.5,-62"/>
<text text-anchor="start" x="3198.5" y="-80" font-family="Helvetica,sans-Serif" font-size="10.00">asm/JSystem/J3DGraphAnimator</text>
<text text-anchor="middle" x="3271.5" y="-69" font-family="Helvetica,sans-Serif" font-size="10.00">/J3DModel/calc__8J3DModelFv.s</text>
</a>
</g>
</g>
<!-- Node1&#45;&gt;Node20 -->
<g id="edge20" class="edge">
<title>Node1&#45;&gt;Node20</title>
<path fill="none" stroke="midnightblue" d="M2367.76,-148.32C2524.13,-147.01 2883.1,-139.32 3181.5,-98 3189.08,-96.95 3196.97,-95.6 3204.79,-94.09"/>
<polygon fill="midnightblue" stroke="midnightblue" points="3205.51,-97.51 3214.62,-92.1 3204.13,-90.65 3205.51,-97.51"/>
</g>
<!-- Node21 -->
<g id="node21" class="node">
<title>Node21</title>
<g id="a_node21"><a xlink:title=" ">
<polygon fill="white" stroke="#bfbfbf" points="3371,-62 3371,-92 3536,-92 3536,-62 3371,-62"/>
<text text-anchor="start" x="3379" y="-80" font-family="Helvetica,sans-Serif" font-size="10.00">asm/JSystem/J3DGraphAnimator</text>
<text text-anchor="middle" x="3453.5" y="-69" font-family="Helvetica,sans-Serif" font-size="10.00">/J3DModel/entry__8J3DModelFv.s</text>
</a>
</g>
</g>
<!-- Node1&#45;&gt;Node21 -->
<g id="edge21" class="edge">
<title>Node1&#45;&gt;Node21</title>
<path fill="none" stroke="midnightblue" d="M2367.65,-149.28C2545.92,-150.06 2992.15,-146.49 3361.5,-98 3369.45,-96.96 3377.73,-95.58 3385.92,-94.03"/>
<polygon fill="midnightblue" stroke="midnightblue" points="3386.71,-97.44 3395.85,-92.07 3385.36,-90.58 3386.71,-97.44"/>
</g>
<!-- Node22 -->
<g id="node22" class="node">
<title>Node22</title>
<g id="a_node22"><a xlink:title=" ">
<polygon fill="white" stroke="#bfbfbf" points="3554.5,-62 3554.5,-92 3738.5,-92 3738.5,-62 3554.5,-62"/>
<text text-anchor="start" x="3562.5" y="-80" font-family="Helvetica,sans-Serif" font-size="10.00">asm/JSystem/J3DGraphAnimator</text>
<text text-anchor="middle" x="3646.5" y="-69" font-family="Helvetica,sans-Serif" font-size="10.00">/J3DModel/viewCalc__8J3DModelFv.s</text>
</a>
</g>
</g>
<!-- Node1&#45;&gt;Node22 -->
<g id="edge22" class="edge">
<title>Node1&#45;&gt;Node22</title>
<path fill="none" stroke="midnightblue" d="M2367.6,-146.93C2606.11,-141.95 3315.87,-125.18 3545.5,-98 3554.63,-96.92 3564.16,-95.47 3573.57,-93.83"/>
<polygon fill="midnightblue" stroke="midnightblue" points="3574.49,-97.23 3583.7,-92 3573.24,-90.34 3574.49,-97.23"/>
</g>
<!-- Node23 -->
<g id="node23" class="node">
<title>Node23</title>
<g id="a_node23"><a xlink:title=" ">
<polygon fill="white" stroke="#bfbfbf" points="3757,-62 3757,-92 3954,-92 3954,-62 3757,-62"/>
<text text-anchor="start" x="3765" y="-80" font-family="Helvetica,sans-Serif" font-size="10.00">asm/JSystem/J3DGraphAnimator</text>
<text text-anchor="middle" x="3855.5" y="-69" font-family="Helvetica,sans-Serif" font-size="10.00">/J3DModel/calcNrmMtx__8J3DModelFv.s</text>
</a>
</g>
</g>
<!-- Node1&#45;&gt;Node23 -->
<g id="edge23" class="edge">
<title>Node1&#45;&gt;Node23</title>
<path fill="none" stroke="midnightblue" d="M2367.94,-147.31C2631.66,-143.1 3476.65,-127.6 3747.5,-98 3757.56,-96.9 3768.08,-95.4 3778.45,-93.71"/>
<polygon fill="midnightblue" stroke="midnightblue" points="3779.05,-97.16 3788.32,-92.04 3777.88,-90.25 3779.05,-97.16"/>
</g>
<!-- Node24 -->
<g id="node24" class="node">
<title>Node24</title>
<g id="a_node24"><a xlink:title=" ">
<polygon fill="white" stroke="#bfbfbf" points="3972,-62 3972,-92 4175,-92 4175,-62 3972,-62"/>
<text text-anchor="start" x="3980" y="-80" font-family="Helvetica,sans-Serif" font-size="10.00">asm/JSystem/J3DGraphAnimator</text>
<text text-anchor="middle" x="4073.5" y="-69" font-family="Helvetica,sans-Serif" font-size="10.00">/J3DModel/calcBumpMtx__8J3DModelFv.s</text>
</a>
</g>
</g>
<!-- Node1&#45;&gt;Node24 -->
<g id="edge24" class="edge">
<title>Node1&#45;&gt;Node24</title>
<path fill="none" stroke="midnightblue" d="M2367.91,-147.68C2656.37,-144.47 3648.31,-131.22 3963.5,-98 3973.81,-96.91 3984.61,-95.41 3995.25,-93.71"/>
<polygon fill="midnightblue" stroke="midnightblue" points="3996.08,-97.12 4005.37,-92.03 3994.93,-90.21 3996.08,-97.12"/>
</g>
<!-- Node25 -->
<g id="node25" class="node">
<title>Node25</title>
<g id="a_node25"><a xlink:title=" ">
<polygon fill="white" stroke="#bfbfbf" points="4193.5,-56.5 4193.5,-97.5 4355.5,-97.5 4355.5,-56.5 4193.5,-56.5"/>
<text text-anchor="start" x="4201.5" y="-85.5" font-family="Helvetica,sans-Serif" font-size="10.00">asm/JSystem/J3DGraphAnimator</text>
<text text-anchor="start" x="4201.5" y="-74.5" font-family="Helvetica,sans-Serif" font-size="10.00">/J3DModel/calcBBoardMtx_</text>
<text text-anchor="middle" x="4274.5" y="-63.5" font-family="Helvetica,sans-Serif" font-size="10.00">_8J3DModelFv.s</text>
</a>
</g>
</g>
<!-- Node1&#45;&gt;Node25 -->
<g id="edge25" class="edge">
<title>Node1&#45;&gt;Node25</title>
<path fill="none" stroke="midnightblue" d="M2367.51,-148.42C2676.44,-147.78 3803.78,-142.49 4183,-98.03"/>
<polygon fill="midnightblue" stroke="midnightblue" points="4183.68,-101.47 4193.19,-96.8 4182.84,-94.52 4183.68,-101.47"/>
</g>
<!-- Node26 -->
<g id="node26" class="node">
<title>Node26</title>
<g id="a_node26"><a xlink:title=" ">
<polygon fill="white" stroke="#bfbfbf" points="4373.5,-56.5 4373.5,-97.5 4535.5,-97.5 4535.5,-56.5 4373.5,-56.5"/>
<text text-anchor="start" x="4381.5" y="-85.5" font-family="Helvetica,sans-Serif" font-size="10.00">asm/JSystem/J3DGraphAnimator</text>
<text text-anchor="start" x="4381.5" y="-74.5" font-family="Helvetica,sans-Serif" font-size="10.00">/J3DModel/prepareShapePackets</text>
<text text-anchor="middle" x="4454.5" y="-63.5" font-family="Helvetica,sans-Serif" font-size="10.00">__8J3DModelFv.s</text>
</a>
</g>
</g>
<!-- Node1&#45;&gt;Node26 -->
<g id="edge26" class="edge">
<title>Node1&#45;&gt;Node26</title>
<path fill="none" stroke="midnightblue" d="M2367.61,-148.63C2695.14,-148.86 3946.87,-146.54 4363.21,-98"/>
<polygon fill="midnightblue" stroke="midnightblue" points="4363.67,-101.47 4373.19,-96.81 4362.84,-94.52 4363.67,-101.47"/>
</g>
<!-- Node27 -->
<g id="node27" class="node">
<title>Node27</title>
<g id="a_node27"><a xlink:title=" ">
<polygon fill="white" stroke="#bfbfbf" points="4554,-62 4554,-92 4717,-92 4717,-62 4554,-62"/>
<text text-anchor="start" x="4562" y="-80" font-family="Helvetica,sans-Serif" font-size="10.00">asm/JSystem/J3DGraphAnimator</text>
<text text-anchor="middle" x="4635.5" y="-69" font-family="Helvetica,sans-Serif" font-size="10.00">/J3DModel/__dt__8J3DModelFv.s</text>
</a>
</g>
</g>
<!-- Node1&#45;&gt;Node27 -->
<g id="edge27" class="edge">
<title>Node1&#45;&gt;Node27</title>
<path fill="none" stroke="midnightblue" d="M2367.62,-148.79C2715.36,-149.73 4109.94,-150.12 4544.5,-98 4552.7,-97.02 4561.24,-95.63 4569.67,-94.04"/>
<polygon fill="midnightblue" stroke="midnightblue" points="4570.35,-97.47 4579.48,-92.1 4568.99,-90.61 4570.35,-97.47"/>
</g>
<!-- Node28 -->
<g id="node28" class="node">
<title>Node28</title>
<g id="a_node28"><a xlink:title=" ">
<polygon fill="white" stroke="#bfbfbf" points="4735,-62 4735,-92 4918,-92 4918,-62 4735,-62"/>
<text text-anchor="start" x="4743" y="-80" font-family="Helvetica,sans-Serif" font-size="10.00">asm/JSystem/J3DGraphAnimator</text>
<text text-anchor="middle" x="4826.5" y="-69" font-family="Helvetica,sans-Serif" font-size="10.00">/J3DModel/__dt__12J3DMtxBufferFv.s</text>
</a>
</g>
</g>
<!-- Node1&#45;&gt;Node28 -->
<g id="edge28" class="edge">
<title>Node1&#45;&gt;Node28</title>
<path fill="none" stroke="midnightblue" d="M2367.78,-148.74C2732.77,-149.56 4253.71,-149.76 4726.5,-98 4735.84,-96.98 4745.6,-95.52 4755.22,-93.85"/>
<polygon fill="midnightblue" stroke="midnightblue" points="4755.94,-97.28 4765.15,-92.04 4754.69,-90.39 4755.94,-97.28"/>
</g>
<!-- Node4&#45;&gt;Node3 -->
<g id="edge4" class="edge">
<title>Node4&#45;&gt;Node3</title>
<path fill="none" stroke="midnightblue" d="M176.87,-61.9C169.3,-51.86 159.11,-38.34 151.13,-27.75"/>
<polygon fill="midnightblue" stroke="midnightblue" points="153.87,-25.57 145.05,-19.69 148.28,-29.79 153.87,-25.57"/>
</g>
</g>
</svg>
