<?xml version="1.0" encoding="UTF-8" standalone="no"?>
<!DOCTYPE svg PUBLIC "-//W3C//DTD SVG 1.1//EN"
 "http://www.w3.org/Graphics/SVG/1.1/DTD/svg11.dtd">
<!-- Generated by graphviz version 2.47.0 (20210316.2052)
 -->
<!-- Title: libs/JSystem/J3DGraphBase/J3DShapeMtx.cpp Pages: 1 -->
<!--zoomable 184 -->
<svg id="main" version="1.1" xmlns="http://www.w3.org/2000/svg" xmlns:xlink="http://www.w3.org/1999/xlink" xml:space="preserve" onload="init(evt)">
<style type="text/css"><![CDATA[
.edge:hover path { stroke: red; }
.edge:hover polygon { stroke: red; fill: red; }
]]></style>
<script type="text/javascript"><![CDATA[
var edges = document.getElementsByTagName('g');
if (edges && edges.length) {
  for (var i=0;i<edges.length;i++) {
    if (edges[i].id.substr(0,4)=='edge') {
      edges[i].setAttribute('class','edge');
    }
  }
}
]]></script>
        <defs>
                <circle id="rim" cx="0" cy="0" r="7"/>
                <circle id="rim2" cx="0" cy="0" r="3.5"/>
                <g id="zoomPlus">
                        <use xlink:href="#rim" fill="#404040">
                                <set attributeName="fill" to="#808080" begin="zoomplus.mouseover" end="zoomplus.mouseout"/>
                        </use>
                        <path d="M-4,0h8M0,-4v8" fill="none" stroke="white" stroke-width="1.5" pointer-events="none"/>
                </g>
                <g id="zoomMin">
                        <use xlink:href="#rim" fill="#404040">
                                <set attributeName="fill" to="#808080" begin="zoomminus.mouseover" end="zoomminus.mouseout"/>
                        </use>
                        <path d="M-4,0h8" fill="none" stroke="white" stroke-width="1.5" pointer-events="none"/>
                </g>
                <g id="dirArrow">
                        <path fill="none" stroke="white" stroke-width="1.5" d="M0,-3.0v7 M-2.5,-0.5L0,-3.0L2.5,-0.5"/>
                </g>
               <g id="resetDef">
                       <use xlink:href="#rim2" fill="#404040">
                               <set attributeName="fill" to="#808080" begin="reset.mouseover" end="reset.mouseout"/>
                       </use>
               </g>
        </defs>

<script type="text/javascript">
var viewWidth = 8689;
var viewHeight = 184;
var sectionId = 'dynsection-0';
</script>
<script xlink:href="svgpan.js"/>
<svg id="graph" class="graph">
<g id="viewport">
<title>libs/JSystem/J3DGraphBase/J3DShapeMtx.cpp</title>
<polygon fill="white" stroke="transparent" points="-4,4 -4,-180 8684.5,-180 8684.5,4 -4,4"/>
<!-- Node1 -->
<g id="node1" class="node">
<title>Node1</title>
<g id="a_node1"><a xlink:title=" ">
<polygon fill="#bfbfbf" stroke="black" points="4164.5,-145.5 4164.5,-175.5 4306.5,-175.5 4306.5,-145.5 4164.5,-145.5"/>
<text text-anchor="start" x="4172.5" y="-163.5" font-family="Helvetica,sans-Serif" font-size="10.00">libs/JSystem/J3DGraphBase</text>
<text text-anchor="middle" x="4235.5" y="-152.5" font-family="Helvetica,sans-Serif" font-size="10.00">/J3DShapeMtx.cpp</text>
</a>
</g>
</g>
<!-- Node2 -->
<g id="node2" class="node">
<title>Node2</title>
<g id="a_node2"><a xlink:href="dol2asm_8h.html" target="_top" xlink:title=" ">
<polygon fill="white" stroke="black" points="0,-73 0,-92 61,-92 61,-73 0,-73"/>
<text text-anchor="middle" x="30.5" y="-80" font-family="Helvetica,sans-Serif" font-size="10.00">dol2asm.h</text>
</a>
</g>
</g>
<!-- Node1&#45;&gt;Node2 -->
<g id="edge1" class="edge">
<title>Node1&#45;&gt;Node2</title>
<path fill="none" stroke="midnightblue" d="M4164.12,-159.65C3630.58,-160.61 280.82,-164.46 75.5,-109 66.84,-106.66 58.1,-102.27 50.64,-97.78"/>
<polygon fill="midnightblue" stroke="midnightblue" points="52.3,-94.68 42,-92.19 48.5,-100.56 52.3,-94.68"/>
</g>
<!-- Node3 -->
<g id="node3" class="node">
<title>Node3</title>
<g id="a_node3"><a xlink:href="types_8h.html" target="_top" xlink:title=" ">
<polygon fill="white" stroke="black" points="94,-0.5 94,-19.5 175,-19.5 175,-0.5 94,-0.5"/>
<text text-anchor="middle" x="134.5" y="-7.5" font-family="Helvetica,sans-Serif" font-size="10.00">dolphin/types.h</text>
</a>
</g>
</g>
<!-- Node1&#45;&gt;Node3 -->
<g id="edge2" class="edge">
<title>Node1&#45;&gt;Node3</title>
<path fill="none" stroke="midnightblue" d="M4164.12,-159.31C3619.81,-157.79 145.63,-146.59 108.5,-109 86.96,-87.19 106.75,-49.71 121.61,-27.97"/>
<polygon fill="midnightblue" stroke="midnightblue" points="124.56,-29.87 127.55,-19.71 118.87,-25.79 124.56,-29.87"/>
</g>
<!-- Node4 -->
<g id="node4" class="node">
<title>Node4</title>
<g id="a_node4"><a xlink:href="J3DShapeMtx_8h.html" target="_top" xlink:title=" ">
<polygon fill="white" stroke="black" points="117.5,-67.5 117.5,-97.5 241.5,-97.5 241.5,-67.5 117.5,-67.5"/>
<text text-anchor="start" x="125.5" y="-85.5" font-family="Helvetica,sans-Serif" font-size="10.00">JSystem/J3DGraphBase</text>
<text text-anchor="middle" x="179.5" y="-74.5" font-family="Helvetica,sans-Serif" font-size="10.00">/J3DShapeMtx.h</text>
</a>
</g>
</g>
<!-- Node1&#45;&gt;Node4 -->
<g id="edge3" class="edge">
<title>Node1&#45;&gt;Node4</title>
<path fill="none" stroke="midnightblue" d="M4164.32,-159.27C3644.74,-157.5 450.61,-145.15 250.5,-109 240.74,-107.24 230.55,-104.29 221.03,-101.01"/>
<polygon fill="midnightblue" stroke="midnightblue" points="221.99,-97.63 211.4,-97.5 219.6,-104.21 221.99,-97.63"/>
</g>
<!-- Node5 -->
<g id="node5" class="node">
<title>Node5</title>
<g id="a_node5"><a xlink:title=" ">
<polygon fill="white" stroke="#bfbfbf" points="259.5,-62 259.5,-103 429.5,-103 429.5,-62 259.5,-62"/>
<text text-anchor="start" x="267.5" y="-91" font-family="Helvetica,sans-Serif" font-size="10.00">asm/JSystem/J3DGraphBase</text>
<text text-anchor="start" x="267.5" y="-80" font-family="Helvetica,sans-Serif" font-size="10.00">/J3DShapeMtx/resetMtxLoadCache</text>
<text text-anchor="middle" x="344.5" y="-69" font-family="Helvetica,sans-Serif" font-size="10.00">__11J3DShapeMtxFv.s</text>
</a>
</g>
</g>
<!-- Node1&#45;&gt;Node5 -->
<g id="edge5" class="edge">
<title>Node1&#45;&gt;Node5</title>
<path fill="none" stroke="midnightblue" d="M4164.29,-159.62C3675.21,-160.3 821.31,-161.94 439.5,-109 432.74,-108.06 425.77,-106.8 418.83,-105.33"/>
<polygon fill="midnightblue" stroke="midnightblue" points="419.23,-101.83 408.7,-103.04 417.69,-108.66 419.23,-101.83"/>
</g>
<!-- Node6 -->
<g id="node6" class="node">
<title>Node6</title>
<g id="a_node6"><a xlink:title=" ">
<polygon fill="white" stroke="#bfbfbf" points="448,-62 448,-103 615,-103 615,-62 448,-62"/>
<text text-anchor="start" x="456" y="-91" font-family="Helvetica,sans-Serif" font-size="10.00">asm/JSystem/J3DGraphBase</text>
<text text-anchor="start" x="456" y="-80" font-family="Helvetica,sans-Serif" font-size="10.00">/J3DShapeMtx/loadMtxIndx</text>
<text text-anchor="middle" x="531.5" y="-69" font-family="Helvetica,sans-Serif" font-size="10.00">_PNGP__11J3DShapeMtxCFiUs.s</text>
</a>
</g>
</g>
<!-- Node1&#45;&gt;Node6 -->
<g id="edge6" class="edge">
<title>Node1&#45;&gt;Node6</title>
<path fill="none" stroke="midnightblue" d="M4164.36,-159.59C3689.45,-160.04 986.68,-160.33 624.5,-109 617.87,-108.06 611.05,-106.79 604.25,-105.32"/>
<polygon fill="midnightblue" stroke="midnightblue" points="604.86,-101.87 594.33,-103.04 603.29,-108.69 604.86,-101.87"/>
</g>
<!-- Node7 -->
<g id="node7" class="node">
<title>Node7</title>
<g id="a_node7"><a xlink:title=" ">
<polygon fill="white" stroke="#bfbfbf" points="633,-62 633,-103 800,-103 800,-62 633,-62"/>
<text text-anchor="start" x="641" y="-91" font-family="Helvetica,sans-Serif" font-size="10.00">asm/JSystem/J3DGraphBase</text>
<text text-anchor="start" x="641" y="-80" font-family="Helvetica,sans-Serif" font-size="10.00">/J3DShapeMtx/loadMtxIndx</text>
<text text-anchor="middle" x="716.5" y="-69" font-family="Helvetica,sans-Serif" font-size="10.00">_PCPU__11J3DShapeMtxCFiUs.s</text>
</a>
</g>
</g>
<!-- Node1&#45;&gt;Node7 -->
<g id="edge7" class="edge">
<title>Node1&#45;&gt;Node7</title>
<path fill="none" stroke="midnightblue" d="M4164.34,-159.53C3703.7,-159.59 1152.19,-157.7 809.5,-109 802.87,-108.06 796.05,-106.79 789.25,-105.32"/>
<polygon fill="midnightblue" stroke="midnightblue" points="789.86,-101.87 779.33,-103.03 788.29,-108.69 789.86,-101.87"/>
</g>
<!-- Node8 -->
<g id="node8" class="node">
<title>Node8</title>
<g id="a_node8"><a xlink:title=" ">
<polygon fill="white" stroke="#bfbfbf" points="818,-62 818,-103 985,-103 985,-62 818,-62"/>
<text text-anchor="start" x="826" y="-91" font-family="Helvetica,sans-Serif" font-size="10.00">asm/JSystem/J3DGraphBase</text>
<text text-anchor="start" x="826" y="-80" font-family="Helvetica,sans-Serif" font-size="10.00">/J3DShapeMtx/loadMtxIndx</text>
<text text-anchor="middle" x="901.5" y="-69" font-family="Helvetica,sans-Serif" font-size="10.00">_NCPU__11J3DShapeMtxCFiUs.s</text>
</a>
</g>
</g>
<!-- Node1&#45;&gt;Node8 -->
<g id="edge8" class="edge">
<title>Node1&#45;&gt;Node8</title>
<path fill="none" stroke="midnightblue" d="M4164.27,-159.47C3718.18,-159.11 1317.71,-155.07 994.5,-109 987.87,-108.06 981.05,-106.78 974.25,-105.31"/>
<polygon fill="midnightblue" stroke="midnightblue" points="974.86,-101.86 964.33,-103.02 973.29,-108.68 974.86,-101.86"/>
</g>
<!-- Node9 -->
<g id="node9" class="node">
<title>Node9</title>
<g id="a_node9"><a xlink:title=" ">
<polygon fill="white" stroke="#bfbfbf" points="1003.5,-62 1003.5,-103 1177.5,-103 1177.5,-62 1003.5,-62"/>
<text text-anchor="start" x="1011.5" y="-91" font-family="Helvetica,sans-Serif" font-size="10.00">asm/JSystem/J3DGraphBase</text>
<text text-anchor="start" x="1011.5" y="-80" font-family="Helvetica,sans-Serif" font-size="10.00">/J3DShapeMtx/loadMtxIndx</text>
<text text-anchor="middle" x="1090.5" y="-69" font-family="Helvetica,sans-Serif" font-size="10.00">_PNCPU__11J3DShapeMtxCFiUs.s</text>
</a>
</g>
</g>
<!-- Node1&#45;&gt;Node9 -->
<g id="edge9" class="edge">
<title>Node1&#45;&gt;Node9</title>
<path fill="none" stroke="midnightblue" d="M4164.39,-159.35C3734.45,-158.28 1490.69,-150.74 1187.5,-109 1180.44,-108.03 1173.17,-106.72 1165.92,-105.2"/>
<polygon fill="midnightblue" stroke="midnightblue" points="1166.6,-101.76 1156.07,-103.01 1165.08,-108.6 1166.6,-101.76"/>
</g>
<!-- Node10 -->
<g id="node10" class="node">
<title>Node10</title>
<g id="a_node10"><a xlink:title=" ">
<polygon fill="white" stroke="#bfbfbf" points="1196,-62 1196,-103 1363,-103 1363,-62 1196,-62"/>
<text text-anchor="start" x="1204" y="-91" font-family="Helvetica,sans-Serif" font-size="10.00">asm/JSystem/J3DGraphBase</text>
<text text-anchor="start" x="1204" y="-80" font-family="Helvetica,sans-Serif" font-size="10.00">/J3DShapeMtx/loadExecute</text>
<text text-anchor="middle" x="1279.5" y="-69" font-family="Helvetica,sans-Serif" font-size="10.00">__17J3DDifferedTexMtxFPA4_Cf.s</text>
</a>
</g>
</g>
<!-- Node1&#45;&gt;Node10 -->
<g id="edge10" class="edge">
<title>Node1&#45;&gt;Node10</title>
<path fill="none" stroke="midnightblue" d="M4164.38,-159.31C3750.03,-158.05 1656.06,-149.72 1372.5,-109 1365.88,-108.05 1359.05,-106.77 1352.25,-105.3"/>
<polygon fill="midnightblue" stroke="midnightblue" points="1352.87,-101.85 1342.34,-103.01 1351.29,-108.67 1352.87,-101.85"/>
</g>
<!-- Node11 -->
<g id="node11" class="node">
<title>Node11</title>
<g id="a_node11"><a xlink:title=" ">
<polygon fill="white" stroke="#bfbfbf" points="1381.5,-62 1381.5,-103 1601.5,-103 1601.5,-62 1381.5,-62"/>
<text text-anchor="start" x="1389.5" y="-91" font-family="Helvetica,sans-Serif" font-size="10.00">asm/JSystem/J3DGraphBase</text>
<text text-anchor="start" x="1389.5" y="-80" font-family="Helvetica,sans-Serif" font-size="10.00">/J3DShapeMtx/loadMtxConcatView</text>
<text text-anchor="middle" x="1491.5" y="-69" font-family="Helvetica,sans-Serif" font-size="10.00">_PNGP__21J3DShapeMtxConcatViewCFiUs.s</text>
</a>
</g>
</g>
<!-- Node1&#45;&gt;Node11 -->
<g id="edge11" class="edge">
<title>Node1&#45;&gt;Node11</title>
<path fill="none" stroke="midnightblue" d="M4164.36,-158.94C3771.03,-155.73 1871,-138.8 1611.5,-109 1602.23,-107.94 1592.63,-106.49 1583.07,-104.82"/>
<polygon fill="midnightblue" stroke="midnightblue" points="1583.6,-101.36 1573.14,-103.01 1582.35,-108.25 1583.6,-101.36"/>
</g>
<!-- Node12 -->
<g id="node12" class="node">
<title>Node12</title>
<g id="a_node12"><a xlink:title=" ">
<polygon fill="white" stroke="#bfbfbf" points="1620,-62 1620,-103 1839,-103 1839,-62 1620,-62"/>
<text text-anchor="start" x="1628" y="-91" font-family="Helvetica,sans-Serif" font-size="10.00">asm/JSystem/J3DGraphBase</text>
<text text-anchor="start" x="1628" y="-80" font-family="Helvetica,sans-Serif" font-size="10.00">/J3DShapeMtx/loadMtxConcatView</text>
<text text-anchor="middle" x="1729.5" y="-69" font-family="Helvetica,sans-Serif" font-size="10.00">_PCPU__21J3DShapeMtxConcatViewCFiUs.s</text>
</a>
</g>
</g>
<!-- Node1&#45;&gt;Node12 -->
<g id="edge12" class="edge">
<title>Node1&#45;&gt;Node12</title>
<path fill="none" stroke="midnightblue" d="M4164.3,-159.82C3818.7,-161.08 2313.86,-163.28 1848.5,-109 1839.48,-107.95 1830.14,-106.53 1820.84,-104.9"/>
<polygon fill="midnightblue" stroke="midnightblue" points="1821.24,-101.42 1810.78,-103.06 1819.98,-108.3 1821.24,-101.42"/>
</g>
<!-- Node13 -->
<g id="node13" class="node">
<title>Node13</title>
<g id="a_node13"><a xlink:title=" ">
<polygon fill="white" stroke="#bfbfbf" points="1857.5,-62 1857.5,-103 2077.5,-103 2077.5,-62 1857.5,-62"/>
<text text-anchor="start" x="1865.5" y="-91" font-family="Helvetica,sans-Serif" font-size="10.00">asm/JSystem/J3DGraphBase</text>
<text text-anchor="start" x="1865.5" y="-80" font-family="Helvetica,sans-Serif" font-size="10.00">/J3DShapeMtx/loadMtxConcatView</text>
<text text-anchor="middle" x="1967.5" y="-69" font-family="Helvetica,sans-Serif" font-size="10.00">_NCPU__21J3DShapeMtxConcatViewCFiUs.s</text>
</a>
</g>
</g>
<!-- Node1&#45;&gt;Node13 -->
<g id="edge13" class="edge">
<title>Node1&#45;&gt;Node13</title>
<path fill="none" stroke="midnightblue" d="M4164.29,-159.6C3840.27,-159.81 2503.15,-157.62 2087.5,-109 2078.32,-107.93 2068.79,-106.48 2059.32,-104.83"/>
<polygon fill="midnightblue" stroke="midnightblue" points="2059.93,-101.38 2049.47,-103.03 2058.68,-108.27 2059.93,-101.38"/>
</g>
<!-- Node14 -->
<g id="node14" class="node">
<title>Node14</title>
<g id="a_node14"><a xlink:title=" ">
<polygon fill="white" stroke="#bfbfbf" points="2096,-62 2096,-103 2323,-103 2323,-62 2096,-62"/>
<text text-anchor="start" x="2104" y="-91" font-family="Helvetica,sans-Serif" font-size="10.00">asm/JSystem/J3DGraphBase</text>
<text text-anchor="start" x="2104" y="-80" font-family="Helvetica,sans-Serif" font-size="10.00">/J3DShapeMtx/loadMtxConcatView</text>
<text text-anchor="middle" x="2209.5" y="-69" font-family="Helvetica,sans-Serif" font-size="10.00">_PNCPU__21J3DShapeMtxConcatViewCFiUs.s</text>
</a>
</g>
</g>
<!-- Node1&#45;&gt;Node14 -->
<g id="edge14" class="edge">
<title>Node1&#45;&gt;Node14</title>
<path fill="none" stroke="midnightblue" d="M4164.27,-159.31C3863.66,-158.22 2697.42,-151.33 2332.5,-109 2323.17,-107.92 2313.51,-106.48 2303.88,-104.83"/>
<polygon fill="midnightblue" stroke="midnightblue" points="2304.33,-101.36 2293.87,-103.05 2303.1,-108.25 2304.33,-101.36"/>
</g>
<!-- Node15 -->
<g id="node15" class="node">
<title>Node15</title>
<g id="a_node15"><a xlink:title=" ">
<polygon fill="white" stroke="#bfbfbf" points="2341,-62 2341,-103 2586,-103 2586,-62 2341,-62"/>
<text text-anchor="start" x="2349" y="-91" font-family="Helvetica,sans-Serif" font-size="10.00">asm/JSystem/J3DGraphBase</text>
<text text-anchor="start" x="2349" y="-80" font-family="Helvetica,sans-Serif" font-size="10.00">/J3DShapeMtx/loadMtxConcatView</text>
<text text-anchor="middle" x="2463.5" y="-69" font-family="Helvetica,sans-Serif" font-size="10.00">_PNGP_LOD__21J3DShapeMtxConcatViewCFiUs.s</text>
</a>
</g>
</g>
<!-- Node1&#45;&gt;Node15 -->
<g id="edge15" class="edge">
<title>Node1&#45;&gt;Node15</title>
<path fill="none" stroke="midnightblue" d="M4164.41,-158.83C3890.9,-156 2906.39,-143.59 2595.5,-109 2585.39,-107.88 2574.9,-106.39 2564.45,-104.71"/>
<polygon fill="midnightblue" stroke="midnightblue" points="2564.9,-101.24 2554.46,-103.04 2563.74,-108.14 2564.9,-101.24"/>
</g>
<!-- Node16 -->
<g id="node16" class="node">
<title>Node16</title>
<g id="a_node16"><a xlink:title=" ">
<polygon fill="white" stroke="#bfbfbf" points="2604,-67.5 2604,-97.5 2813,-97.5 2813,-67.5 2604,-67.5"/>
<text text-anchor="start" x="2612" y="-85.5" font-family="Helvetica,sans-Serif" font-size="10.00">asm/JSystem/J3DGraphBase</text>
<text text-anchor="middle" x="2708.5" y="-74.5" font-family="Helvetica,sans-Serif" font-size="10.00">/J3DShapeMtx/load__11J3DShapeMtxCFv.s</text>
</a>
</g>
</g>
<!-- Node1&#45;&gt;Node16 -->
<g id="edge16" class="edge">
<title>Node1&#45;&gt;Node16</title>
<path fill="none" stroke="midnightblue" d="M4164.22,-158.69C3915.38,-155.59 3086.2,-142.91 2822.5,-109 2805.93,-106.87 2788.21,-103.47 2771.81,-99.83"/>
<polygon fill="midnightblue" stroke="midnightblue" points="2772.31,-96.36 2761.78,-97.55 2770.76,-103.19 2772.31,-96.36"/>
</g>
<!-- Node17 -->
<g id="node17" class="node">
<title>Node17</title>
<g id="a_node17"><a xlink:title=" ">
<polygon fill="white" stroke="#bfbfbf" points="2831,-56.5 2831,-108.5 2990,-108.5 2990,-56.5 2831,-56.5"/>
<text text-anchor="start" x="2839" y="-96.5" font-family="Helvetica,sans-Serif" font-size="10.00">asm/JSystem/J3DGraphBase</text>
<text text-anchor="start" x="2839" y="-85.5" font-family="Helvetica,sans-Serif" font-size="10.00">/J3DShapeMtx/calcNBTScale</text>
<text text-anchor="start" x="2839" y="-74.5" font-family="Helvetica,sans-Serif" font-size="10.00">__11J3DShapeMtxFRC3VecPA3</text>
<text text-anchor="middle" x="2910.5" y="-63.5" font-family="Helvetica,sans-Serif" font-size="10.00">_A3_fPA3_A3_f.s</text>
</a>
</g>
</g>
<!-- Node1&#45;&gt;Node17 -->
<g id="edge17" class="edge">
<title>Node1&#45;&gt;Node17</title>
<path fill="none" stroke="midnightblue" d="M4164.13,-158.81C3939.1,-156.31 3245.42,-145.85 3000.28,-108.9"/>
<polygon fill="midnightblue" stroke="midnightblue" points="3000.77,-105.43 2990.35,-107.35 2999.69,-112.35 3000.77,-105.43"/>
</g>
<!-- Node18 -->
<g id="node18" class="node">
<title>Node18</title>
<g id="a_node18"><a xlink:title=" ">
<polygon fill="white" stroke="#bfbfbf" points="3008,-62 3008,-103 3191,-103 3191,-62 3008,-62"/>
<text text-anchor="start" x="3016" y="-91" font-family="Helvetica,sans-Serif" font-size="10.00">asm/JSystem/J3DGraphBase</text>
<text text-anchor="start" x="3016" y="-80" font-family="Helvetica,sans-Serif" font-size="10.00">/J3DShapeMtx/load__21J3DShapeMtx</text>
<text text-anchor="middle" x="3099.5" y="-69" font-family="Helvetica,sans-Serif" font-size="10.00">ConcatViewCFv.s</text>
</a>
</g>
</g>
<!-- Node1&#45;&gt;Node18 -->
<g id="edge18" class="edge">
<title>Node1&#45;&gt;Node18</title>
<path fill="none" stroke="midnightblue" d="M4164.27,-157.87C3962.05,-152.94 3387,-136.81 3200.5,-109 3193.49,-107.95 3186.26,-106.63 3179.04,-105.14"/>
<polygon fill="midnightblue" stroke="midnightblue" points="3179.74,-101.71 3169.23,-103.01 3178.26,-108.55 3179.74,-101.71"/>
</g>
<!-- Node19 -->
<g id="node19" class="node">
<title>Node19</title>
<g id="a_node19"><a xlink:title=" ">
<polygon fill="white" stroke="#bfbfbf" points="3209,-62 3209,-103 3422,-103 3422,-62 3209,-62"/>
<text text-anchor="start" x="3217" y="-91" font-family="Helvetica,sans-Serif" font-size="10.00">asm/JSystem/J3DGraphBase</text>
<text text-anchor="start" x="3217" y="-80" font-family="Helvetica,sans-Serif" font-size="10.00">/J3DShapeMtx/loadNrmMtx</text>
<text text-anchor="middle" x="3315.5" y="-69" font-family="Helvetica,sans-Serif" font-size="10.00">__21J3DShapeMtxConcatViewCFiUsPA4_f.s</text>
</a>
</g>
</g>
<!-- Node1&#45;&gt;Node19 -->
<g id="edge19" class="edge">
<title>Node1&#45;&gt;Node19</title>
<path fill="none" stroke="midnightblue" d="M4164.42,-158.69C4023.78,-156.29 3700.36,-146.77 3431.5,-109 3423.52,-107.88 3415.26,-106.5 3407.01,-104.98"/>
<polygon fill="midnightblue" stroke="midnightblue" points="3407.45,-101.5 3396.97,-103.06 3406.13,-108.38 3407.45,-101.5"/>
</g>
<!-- Node20 -->
<g id="node20" class="node">
<title>Node20</title>
<g id="a_node20"><a xlink:title=" ">
<polygon fill="white" stroke="#bfbfbf" points="3440,-62 3440,-103 3623,-103 3623,-62 3440,-62"/>
<text text-anchor="start" x="3448" y="-91" font-family="Helvetica,sans-Serif" font-size="10.00">asm/JSystem/J3DGraphBase</text>
<text text-anchor="start" x="3448" y="-80" font-family="Helvetica,sans-Serif" font-size="10.00">/J3DShapeMtx/load__16J3DShapeMtx</text>
<text text-anchor="middle" x="3531.5" y="-69" font-family="Helvetica,sans-Serif" font-size="10.00">MultiCFv.s</text>
</a>
</g>
</g>
<!-- Node1&#45;&gt;Node20 -->
<g id="edge20" class="edge">
<title>Node1&#45;&gt;Node20</title>
<path fill="none" stroke="midnightblue" d="M4164.48,-157.32C4051.26,-152.99 3823.16,-140.83 3632.5,-109 3625.97,-107.91 3619.24,-106.61 3612.5,-105.18"/>
<polygon fill="midnightblue" stroke="midnightblue" points="3613.17,-101.74 3602.65,-103.01 3611.66,-108.58 3613.17,-101.74"/>
</g>
<!-- Node21 -->
<g id="node21" class="node">
<title>Node21</title>
<g id="a_node21"><a xlink:title=" ">
<polygon fill="white" stroke="#bfbfbf" points="3641.5,-56.5 3641.5,-108.5 3821.5,-108.5 3821.5,-56.5 3641.5,-56.5"/>
<text text-anchor="start" x="3649.5" y="-96.5" font-family="Helvetica,sans-Serif" font-size="10.00">asm/JSystem/J3DGraphBase</text>
<text text-anchor="start" x="3649.5" y="-85.5" font-family="Helvetica,sans-Serif" font-size="10.00">/J3DShapeMtx/calcNBTScale</text>
<text text-anchor="start" x="3649.5" y="-74.5" font-family="Helvetica,sans-Serif" font-size="10.00">__16J3DShapeMtxMultiFRC3VecPA3</text>
<text text-anchor="middle" x="3731.5" y="-63.5" font-family="Helvetica,sans-Serif" font-size="10.00">_A3_fPA3_A3_f.s</text>
</a>
</g>
</g>
<!-- Node1&#45;&gt;Node21 -->
<g id="edge21" class="edge">
<title>Node1&#45;&gt;Node21</title>
<path fill="none" stroke="midnightblue" d="M4164.29,-153.32C4083.25,-145.66 3947.14,-130.88 3831.5,-109 3831.4,-108.98 3831.3,-108.96 3831.19,-108.94"/>
<polygon fill="midnightblue" stroke="midnightblue" points="3832.09,-105.55 3821.6,-107.03 3830.72,-112.42 3832.09,-105.55"/>
</g>
<!-- Node22 -->
<g id="node22" class="node">
<title>Node22</title>
<g id="a_node22"><a xlink:title=" ">
<polygon fill="white" stroke="#bfbfbf" points="3840,-62 3840,-103 4023,-103 4023,-62 3840,-62"/>
<text text-anchor="start" x="3848" y="-91" font-family="Helvetica,sans-Serif" font-size="10.00">asm/JSystem/J3DGraphBase</text>
<text text-anchor="start" x="3848" y="-80" font-family="Helvetica,sans-Serif" font-size="10.00">/J3DShapeMtx/load__26J3DShapeMtx</text>
<text text-anchor="middle" x="3931.5" y="-69" font-family="Helvetica,sans-Serif" font-size="10.00">MultiConcatViewCFv.s</text>
</a>
</g>
</g>
<!-- Node1&#45;&gt;Node22 -->
<g id="edge22" class="edge">
<title>Node1&#45;&gt;Node22</title>
<path fill="none" stroke="midnightblue" d="M4178.61,-145.4C4137.91,-135.3 4081.82,-121.36 4032.5,-109 4027.92,-107.85 4023.22,-106.67 4018.47,-105.48"/>
<polygon fill="midnightblue" stroke="midnightblue" points="4019.25,-102.06 4008.69,-103.02 4017.54,-108.85 4019.25,-102.06"/>
</g>
<!-- Node23 -->
<g id="node23" class="node">
<title>Node23</title>
<g id="a_node23"><a xlink:title=" ">
<polygon fill="white" stroke="#bfbfbf" points="4041,-56.5 4041,-108.5 4228,-108.5 4228,-56.5 4041,-56.5"/>
<text text-anchor="start" x="4049" y="-96.5" font-family="Helvetica,sans-Serif" font-size="10.00">asm/JSystem/J3DGraphBase</text>
<text text-anchor="start" x="4049" y="-85.5" font-family="Helvetica,sans-Serif" font-size="10.00">/J3DShapeMtx/loadNrmMtx</text>
<text text-anchor="start" x="4049" y="-74.5" font-family="Helvetica,sans-Serif" font-size="10.00">__26J3DShapeMtxMultiConcatViewCFi</text>
<text text-anchor="middle" x="4134.5" y="-63.5" font-family="Helvetica,sans-Serif" font-size="10.00">UsPA4_f.s</text>
</a>
</g>
</g>
<!-- Node1&#45;&gt;Node23 -->
<g id="edge23" class="edge">
<title>Node1&#45;&gt;Node23</title>
<path fill="none" stroke="midnightblue" d="M4216.5,-145.2C4205.04,-136.58 4189.97,-125.24 4175.88,-114.64"/>
<polygon fill="midnightblue" stroke="midnightblue" points="4177.82,-111.72 4167.73,-108.5 4173.61,-117.31 4177.82,-111.72"/>
</g>
<!-- Node24 -->
<g id="node24" class="node">
<title>Node24</title>
<g id="a_node24"><a xlink:title=" ">
<polygon fill="white" stroke="#bfbfbf" points="4246,-62 4246,-103 4429,-103 4429,-62 4246,-62"/>
<text text-anchor="start" x="4254" y="-91" font-family="Helvetica,sans-Serif" font-size="10.00">asm/JSystem/J3DGraphBase</text>
<text text-anchor="start" x="4254" y="-80" font-family="Helvetica,sans-Serif" font-size="10.00">/J3DShapeMtx/load__27J3DShapeMtx</text>
<text text-anchor="middle" x="4337.5" y="-69" font-family="Helvetica,sans-Serif" font-size="10.00">BBoardConcatViewCFv.s</text>
</a>
</g>
</g>
<!-- Node1&#45;&gt;Node24 -->
<g id="edge24" class="edge">
<title>Node1&#45;&gt;Node24</title>
<path fill="none" stroke="midnightblue" d="M4254.69,-145.2C4268.25,-135.1 4286.81,-121.27 4302.92,-109.26"/>
<polygon fill="midnightblue" stroke="midnightblue" points="4305.16,-111.96 4311.09,-103.18 4300.98,-106.35 4305.16,-111.96"/>
</g>
<!-- Node25 -->
<g id="node25" class="node">
<title>Node25</title>
<g id="a_node25"><a xlink:title=" ">
<polygon fill="white" stroke="#bfbfbf" points="4447,-62 4447,-103 4630,-103 4630,-62 4447,-62"/>
<text text-anchor="start" x="4455" y="-91" font-family="Helvetica,sans-Serif" font-size="10.00">asm/JSystem/J3DGraphBase</text>
<text text-anchor="start" x="4455" y="-80" font-family="Helvetica,sans-Serif" font-size="10.00">/J3DShapeMtx/load__28J3DShapeMtx</text>
<text text-anchor="middle" x="4538.5" y="-69" font-family="Helvetica,sans-Serif" font-size="10.00">YBBoardConcatViewCFv.s</text>
</a>
</g>
</g>
<!-- Node1&#45;&gt;Node25 -->
<g id="edge25" class="edge">
<title>Node1&#45;&gt;Node25</title>
<path fill="none" stroke="midnightblue" d="M4292.4,-145.44C4333.11,-135.36 4389.2,-121.42 4438.5,-109 4442.92,-107.89 4447.45,-106.74 4452.02,-105.59"/>
<polygon fill="midnightblue" stroke="midnightblue" points="4453.24,-108.89 4462.07,-103.04 4451.52,-102.1 4453.24,-108.89"/>
</g>
<!-- Node26 -->
<g id="node26" class="node">
<title>Node26</title>
<g id="a_node26"><a xlink:title=" ">
<polygon fill="white" stroke="#bfbfbf" points="4648.5,-62 4648.5,-103 4832.5,-103 4832.5,-62 4648.5,-62"/>
<text text-anchor="start" x="4656.5" y="-91" font-family="Helvetica,sans-Serif" font-size="10.00">asm/JSystem/J3DGraphBase</text>
<text text-anchor="start" x="4656.5" y="-80" font-family="Helvetica,sans-Serif" font-size="10.00">/J3DShapeMtx/__dt__28J3DShapeMtx</text>
<text text-anchor="middle" x="4740.5" y="-69" font-family="Helvetica,sans-Serif" font-size="10.00">YBBoardConcatViewFv.s</text>
</a>
</g>
</g>
<!-- Node1&#45;&gt;Node26 -->
<g id="edge26" class="edge">
<title>Node1&#45;&gt;Node26</title>
<path fill="none" stroke="midnightblue" d="M4306.7,-153.27C4387.73,-145.57 4523.84,-130.74 4639.5,-109 4645.36,-107.9 4651.39,-106.66 4657.45,-105.33"/>
<polygon fill="midnightblue" stroke="midnightblue" points="4658.66,-108.64 4667.64,-103.02 4657.12,-101.82 4658.66,-108.64"/>
</g>
<!-- Node27 -->
<g id="node27" class="node">
<title>Node27</title>
<g id="a_node27"><a xlink:title=" ">
<polygon fill="white" stroke="#bfbfbf" points="4850.5,-62 4850.5,-103 5034.5,-103 5034.5,-62 4850.5,-62"/>
<text text-anchor="start" x="4858.5" y="-91" font-family="Helvetica,sans-Serif" font-size="10.00">asm/JSystem/J3DGraphBase</text>
<text text-anchor="start" x="4858.5" y="-80" font-family="Helvetica,sans-Serif" font-size="10.00">/J3DShapeMtx/getType__28J3DShape</text>
<text text-anchor="middle" x="4942.5" y="-69" font-family="Helvetica,sans-Serif" font-size="10.00">MtxYBBoardConcatViewCFv.s</text>
</a>
</g>
</g>
<!-- Node1&#45;&gt;Node27 -->
<g id="edge27" class="edge">
<title>Node1&#45;&gt;Node27</title>
<path fill="none" stroke="midnightblue" d="M4306.87,-157.34C4420.66,-153.06 4649.89,-140.95 4841.5,-109 4848.03,-107.91 4854.76,-106.61 4861.5,-105.18"/>
<polygon fill="midnightblue" stroke="midnightblue" points="4862.34,-108.58 4871.35,-103.01 4860.83,-101.75 4862.34,-108.58"/>
</g>
<!-- Node28 -->
<g id="node28" class="node">
<title>Node28</title>
<g id="a_node28"><a xlink:title=" ">
<polygon fill="white" stroke="#bfbfbf" points="5052.5,-62 5052.5,-103 5238.5,-103 5238.5,-62 5052.5,-62"/>
<text text-anchor="start" x="5060.5" y="-91" font-family="Helvetica,sans-Serif" font-size="10.00">asm/JSystem/J3DGraphBase</text>
<text text-anchor="start" x="5060.5" y="-80" font-family="Helvetica,sans-Serif" font-size="10.00">/J3DShapeMtx/loadNrmMtx</text>
<text text-anchor="middle" x="5145.5" y="-69" font-family="Helvetica,sans-Serif" font-size="10.00">__21J3DShapeMtxConcatViewCFiUs.s</text>
</a>
</g>
</g>
<!-- Node1&#45;&gt;Node28 -->
<g id="edge28" class="edge">
<title>Node1&#45;&gt;Node28</title>
<path fill="none" stroke="midnightblue" d="M4306.76,-159.4C4448.13,-158.24 4773.7,-150.8 5043.5,-109 5050.29,-107.95 5057.28,-106.66 5064.28,-105.21"/>
<polygon fill="midnightblue" stroke="midnightblue" points="5065.47,-108.54 5074.5,-103.01 5063.99,-101.7 5065.47,-108.54"/>
</g>
<!-- Node29 -->
<g id="node29" class="node">
<title>Node29</title>
<g id="a_node29"><a xlink:title=" ">
<polygon fill="white" stroke="#bfbfbf" points="5256.5,-62 5256.5,-103 5410.5,-103 5410.5,-62 5256.5,-62"/>
<text text-anchor="start" x="5264.5" y="-91" font-family="Helvetica,sans-Serif" font-size="10.00">asm/JSystem/J3DGraphBase</text>
<text text-anchor="start" x="5264.5" y="-80" font-family="Helvetica,sans-Serif" font-size="10.00">/J3DShapeMtx/getUseMtxIndex</text>
<text text-anchor="middle" x="5333.5" y="-69" font-family="Helvetica,sans-Serif" font-size="10.00">__11J3DShapeMtxCFUs.s</text>
</a>
</g>
</g>
<!-- Node1&#45;&gt;Node29 -->
<g id="edge29" class="edge">
<title>Node1&#45;&gt;Node29</title>
<path fill="none" stroke="midnightblue" d="M4306.63,-158.15C4505.78,-154.03 5066.18,-139.95 5247.5,-109 5252.97,-108.07 5258.58,-106.9 5264.19,-105.58"/>
<polygon fill="midnightblue" stroke="midnightblue" points="5265.4,-108.89 5274.25,-103.06 5263.7,-102.09 5265.4,-108.89"/>
</g>
<!-- Node30 -->
<g id="node30" class="node">
<title>Node30</title>
<g id="a_node30"><a xlink:title=" ">
<polygon fill="white" stroke="#bfbfbf" points="5428.5,-62 5428.5,-103 5612.5,-103 5612.5,-62 5428.5,-62"/>
<text text-anchor="start" x="5436.5" y="-91" font-family="Helvetica,sans-Serif" font-size="10.00">asm/JSystem/J3DGraphBase</text>
<text text-anchor="start" x="5436.5" y="-80" font-family="Helvetica,sans-Serif" font-size="10.00">/J3DShapeMtx/__dt__27J3DShapeMtx</text>
<text text-anchor="middle" x="5520.5" y="-69" font-family="Helvetica,sans-Serif" font-size="10.00">BBoardConcatViewFv.s</text>
</a>
</g>
</g>
<!-- Node1&#45;&gt;Node30 -->
<g id="edge30" class="edge">
<title>Node1&#45;&gt;Node30</title>
<path fill="none" stroke="midnightblue" d="M4306.53,-158.38C4527.8,-154.58 5202.81,-140.63 5419.5,-109 5426.57,-107.97 5433.87,-106.65 5441.16,-105.15"/>
<polygon fill="midnightblue" stroke="midnightblue" points="5442.02,-108.54 5451.06,-103.01 5440.54,-101.7 5442.02,-108.54"/>
</g>
<!-- Node31 -->
<g id="node31" class="node">
<title>Node31</title>
<g id="a_node31"><a xlink:title=" ">
<polygon fill="white" stroke="#bfbfbf" points="5630.5,-62 5630.5,-103 5814.5,-103 5814.5,-62 5630.5,-62"/>
<text text-anchor="start" x="5638.5" y="-91" font-family="Helvetica,sans-Serif" font-size="10.00">asm/JSystem/J3DGraphBase</text>
<text text-anchor="start" x="5638.5" y="-80" font-family="Helvetica,sans-Serif" font-size="10.00">/J3DShapeMtx/getType__27J3DShape</text>
<text text-anchor="middle" x="5722.5" y="-69" font-family="Helvetica,sans-Serif" font-size="10.00">MtxBBoardConcatViewCFv.s</text>
</a>
</g>
</g>
<!-- Node1&#45;&gt;Node31 -->
<g id="edge31" class="edge">
<title>Node1&#45;&gt;Node31</title>
<path fill="none" stroke="midnightblue" d="M4306.73,-158.89C4552.46,-156.47 5363.77,-145.81 5621.5,-109 5628.64,-107.98 5636,-106.66 5643.35,-105.16"/>
<polygon fill="midnightblue" stroke="midnightblue" points="5644.3,-108.53 5653.34,-103 5642.83,-101.69 5644.3,-108.53"/>
</g>
<!-- Node32 -->
<g id="node32" class="node">
<title>Node32</title>
<g id="a_node32"><a xlink:title=" ">
<polygon fill="white" stroke="#bfbfbf" points="5832.5,-62 5832.5,-103 6016.5,-103 6016.5,-62 5832.5,-62"/>
<text text-anchor="start" x="5840.5" y="-91" font-family="Helvetica,sans-Serif" font-size="10.00">asm/JSystem/J3DGraphBase</text>
<text text-anchor="start" x="5840.5" y="-80" font-family="Helvetica,sans-Serif" font-size="10.00">/J3DShapeMtx/__dt__26J3DShapeMtx</text>
<text text-anchor="middle" x="5924.5" y="-69" font-family="Helvetica,sans-Serif" font-size="10.00">MultiConcatViewFv.s</text>
</a>
</g>
</g>
<!-- Node1&#45;&gt;Node32 -->
<g id="edge32" class="edge">
<title>Node1&#45;&gt;Node32</title>
<path fill="none" stroke="midnightblue" d="M4306.68,-159.27C4574.9,-158.1 5524.4,-151.01 5823.5,-109 5830.64,-108 5838.01,-106.69 5845.36,-105.19"/>
<polygon fill="midnightblue" stroke="midnightblue" points="5846.3,-108.57 5855.35,-103.05 5844.83,-101.72 5846.3,-108.57"/>
</g>
<!-- Node33 -->
<g id="node33" class="node">
<title>Node33</title>
<g id="a_node33"><a xlink:title=" ">
<polygon fill="white" stroke="#bfbfbf" points="6034.5,-62 6034.5,-103 6218.5,-103 6218.5,-62 6034.5,-62"/>
<text text-anchor="start" x="6042.5" y="-91" font-family="Helvetica,sans-Serif" font-size="10.00">asm/JSystem/J3DGraphBase</text>
<text text-anchor="start" x="6042.5" y="-80" font-family="Helvetica,sans-Serif" font-size="10.00">/J3DShapeMtx/getType__26J3DShape</text>
<text text-anchor="middle" x="6126.5" y="-69" font-family="Helvetica,sans-Serif" font-size="10.00">MtxMultiConcatViewCFv.s</text>
</a>
</g>
</g>
<!-- Node1&#45;&gt;Node33 -->
<g id="edge33" class="edge">
<title>Node1&#45;&gt;Node33</title>
<path fill="none" stroke="midnightblue" d="M4306.66,-159.57C4595.99,-159.54 5684.84,-156.23 6025.5,-109 6032.79,-107.99 6040.31,-106.66 6047.8,-105.13"/>
<polygon fill="midnightblue" stroke="midnightblue" points="6048.58,-108.54 6057.62,-103.02 6047.11,-101.7 6048.58,-108.54"/>
</g>
<!-- Node34 -->
<g id="node34" class="node">
<title>Node34</title>
<g id="a_node34"><a xlink:title=" ">
<polygon fill="white" stroke="#bfbfbf" points="6237,-62 6237,-103 6434,-103 6434,-62 6237,-62"/>
<text text-anchor="start" x="6245" y="-91" font-family="Helvetica,sans-Serif" font-size="10.00">asm/JSystem/J3DGraphBase</text>
<text text-anchor="start" x="6245" y="-80" font-family="Helvetica,sans-Serif" font-size="10.00">/J3DShapeMtx/getUseMtxNum</text>
<text text-anchor="middle" x="6335.5" y="-69" font-family="Helvetica,sans-Serif" font-size="10.00">__26J3DShapeMtxMultiConcatViewCFv.s</text>
</a>
</g>
</g>
<!-- Node1&#45;&gt;Node34 -->
<g id="edge34" class="edge">
<title>Node1&#45;&gt;Node34</title>
<path fill="none" stroke="midnightblue" d="M4306.68,-159.66C4615.96,-160.08 5844.74,-158.5 6227.5,-109 6235.45,-107.97 6243.66,-106.61 6251.85,-105.04"/>
<polygon fill="midnightblue" stroke="midnightblue" points="6252.69,-108.44 6261.8,-103.03 6251.31,-101.58 6252.69,-108.44"/>
</g>
<!-- Node35 -->
<g id="node35" class="node">
<title>Node35</title>
<g id="a_node35"><a xlink:title=" ">
<polygon fill="white" stroke="#bfbfbf" points="6452,-62 6452,-103 6657,-103 6657,-62 6452,-62"/>
<text text-anchor="start" x="6460" y="-91" font-family="Helvetica,sans-Serif" font-size="10.00">asm/JSystem/J3DGraphBase</text>
<text text-anchor="start" x="6460" y="-80" font-family="Helvetica,sans-Serif" font-size="10.00">/J3DShapeMtx/getUseMtxIndex</text>
<text text-anchor="middle" x="6554.5" y="-69" font-family="Helvetica,sans-Serif" font-size="10.00">__26J3DShapeMtxMultiConcatViewCFUs.s</text>
</a>
</g>
</g>
<!-- Node1&#45;&gt;Node35 -->
<g id="edge35" class="edge">
<title>Node1&#45;&gt;Node35</title>
<path fill="none" stroke="midnightblue" d="M4306.51,-159.81C4635.74,-160.97 6015.71,-162.47 6443.5,-109 6451.75,-107.97 6460.28,-106.59 6468.79,-105"/>
<polygon fill="midnightblue" stroke="midnightblue" points="6469.59,-108.41 6478.73,-103.05 6468.25,-101.54 6469.59,-108.41"/>
</g>
<!-- Node36 -->
<g id="node36" class="node">
<title>Node36</title>
<g id="a_node36"><a xlink:title=" ">
<polygon fill="white" stroke="#bfbfbf" points="6675,-62 6675,-103 6882,-103 6882,-62 6675,-62"/>
<text text-anchor="start" x="6683" y="-91" font-family="Helvetica,sans-Serif" font-size="10.00">asm/JSystem/J3DGraphBase</text>
<text text-anchor="start" x="6683" y="-80" font-family="Helvetica,sans-Serif" font-size="10.00">/J3DShapeMtx/loadNrmMtx</text>
<text text-anchor="middle" x="6778.5" y="-69" font-family="Helvetica,sans-Serif" font-size="10.00">__26J3DShapeMtxMultiConcatViewCFiUs.s</text>
</a>
</g>
</g>
<!-- Node1&#45;&gt;Node36 -->
<g id="edge36" class="edge">
<title>Node1&#45;&gt;Node36</title>
<path fill="none" stroke="midnightblue" d="M4306.57,-158.88C4682.14,-155.52 6427.42,-138.39 6666.5,-109 6674.98,-107.96 6683.77,-106.55 6692.51,-104.93"/>
<polygon fill="midnightblue" stroke="midnightblue" points="6693.2,-108.36 6702.35,-103.01 6691.87,-101.49 6693.2,-108.36"/>
</g>
<!-- Node37 -->
<g id="node37" class="node">
<title>Node37</title>
<g id="a_node37"><a xlink:title=" ">
<polygon fill="white" stroke="#bfbfbf" points="6900.5,-62 6900.5,-103 7084.5,-103 7084.5,-62 6900.5,-62"/>
<text text-anchor="start" x="6908.5" y="-91" font-family="Helvetica,sans-Serif" font-size="10.00">asm/JSystem/J3DGraphBase</text>
<text text-anchor="start" x="6908.5" y="-80" font-family="Helvetica,sans-Serif" font-size="10.00">/J3DShapeMtx/__dt__16J3DShapeMtx</text>
<text text-anchor="middle" x="6992.5" y="-69" font-family="Helvetica,sans-Serif" font-size="10.00">MultiFv.s</text>
</a>
</g>
</g>
<!-- Node1&#45;&gt;Node37 -->
<g id="edge37" class="edge">
<title>Node1&#45;&gt;Node37</title>
<path fill="none" stroke="midnightblue" d="M4306.56,-159.12C4702.62,-156.86 6629.23,-144.13 6891.5,-109 6898.85,-108.02 6906.44,-106.69 6914.01,-105.16"/>
<polygon fill="midnightblue" stroke="midnightblue" points="6914.86,-108.56 6923.91,-103.04 6913.4,-101.71 6914.86,-108.56"/>
</g>
<!-- Node38 -->
<g id="node38" class="node">
<title>Node38</title>
<g id="a_node38"><a xlink:title=" ">
<polygon fill="white" stroke="#bfbfbf" points="7102.5,-62 7102.5,-103 7286.5,-103 7286.5,-62 7102.5,-62"/>
<text text-anchor="start" x="7110.5" y="-91" font-family="Helvetica,sans-Serif" font-size="10.00">asm/JSystem/J3DGraphBase</text>
<text text-anchor="start" x="7110.5" y="-80" font-family="Helvetica,sans-Serif" font-size="10.00">/J3DShapeMtx/getType__16J3DShape</text>
<text text-anchor="middle" x="7194.5" y="-69" font-family="Helvetica,sans-Serif" font-size="10.00">MtxMultiCFv.s</text>
</a>
</g>
</g>
<!-- Node1&#45;&gt;Node38 -->
<g id="edge38" class="edge">
<title>Node1&#45;&gt;Node38</title>
<path fill="none" stroke="midnightblue" d="M4306.82,-159.22C4721.17,-157.46 6810.11,-146.77 7093.5,-109 7100.85,-108.02 7108.44,-106.7 7116.01,-105.17"/>
<polygon fill="midnightblue" stroke="midnightblue" points="7116.86,-108.57 7125.91,-103.06 7115.4,-101.72 7116.86,-108.57"/>
</g>
<!-- Node39 -->
<g id="node39" class="node">
<title>Node39</title>
<g id="a_node39"><a xlink:title=" ">
<polygon fill="white" stroke="#bfbfbf" points="7304.5,-62 7304.5,-103 7456.5,-103 7456.5,-62 7304.5,-62"/>
<text text-anchor="start" x="7312.5" y="-91" font-family="Helvetica,sans-Serif" font-size="10.00">asm/JSystem/J3DGraphBase</text>
<text text-anchor="start" x="7312.5" y="-80" font-family="Helvetica,sans-Serif" font-size="10.00">/J3DShapeMtx/getUseMtxNum</text>
<text text-anchor="middle" x="7380.5" y="-69" font-family="Helvetica,sans-Serif" font-size="10.00">__16J3DShapeMtxMultiCFv.s</text>
</a>
</g>
</g>
<!-- Node1&#45;&gt;Node39 -->
<g id="edge39" class="edge">
<title>Node1&#45;&gt;Node39</title>
<path fill="none" stroke="midnightblue" d="M4306.56,-159.5C4737.45,-159.32 6991.8,-156.14 7295.5,-109 7301.25,-108.11 7307.16,-106.92 7313.05,-105.55"/>
<polygon fill="midnightblue" stroke="midnightblue" points="7314.07,-108.9 7322.92,-103.08 7312.37,-102.11 7314.07,-108.9"/>
</g>
<!-- Node40 -->
<g id="node40" class="node">
<title>Node40</title>
<g id="a_node40"><a xlink:title=" ">
<polygon fill="white" stroke="#bfbfbf" points="7474.5,-62 7474.5,-103 7628.5,-103 7628.5,-62 7474.5,-62"/>
<text text-anchor="start" x="7482.5" y="-91" font-family="Helvetica,sans-Serif" font-size="10.00">asm/JSystem/J3DGraphBase</text>
<text text-anchor="start" x="7482.5" y="-80" font-family="Helvetica,sans-Serif" font-size="10.00">/J3DShapeMtx/getUseMtxIndex</text>
<text text-anchor="middle" x="7551.5" y="-69" font-family="Helvetica,sans-Serif" font-size="10.00">__16J3DShapeMtxMultiCFUs.s</text>
</a>
</g>
</g>
<!-- Node1&#45;&gt;Node40 -->
<g id="edge40" class="edge">
<title>Node1&#45;&gt;Node40</title>
<path fill="none" stroke="midnightblue" d="M4306.51,-159.55C4751.16,-159.71 7143.88,-158.25 7465.5,-109 7471.32,-108.11 7477.29,-106.93 7483.25,-105.55"/>
<polygon fill="midnightblue" stroke="midnightblue" points="7484.36,-108.89 7493.23,-103.09 7482.69,-102.09 7484.36,-108.89"/>
</g>
<!-- Node41 -->
<g id="node41" class="node">
<title>Node41</title>
<g id="a_node41"><a xlink:title=" ">
<polygon fill="white" stroke="#bfbfbf" points="7646.5,-62 7646.5,-103 7830.5,-103 7830.5,-62 7646.5,-62"/>
<text text-anchor="start" x="7654.5" y="-91" font-family="Helvetica,sans-Serif" font-size="10.00">asm/JSystem/J3DGraphBase</text>
<text text-anchor="start" x="7654.5" y="-80" font-family="Helvetica,sans-Serif" font-size="10.00">/J3DShapeMtx/__dt__21J3DShapeMtx</text>
<text text-anchor="middle" x="7738.5" y="-69" font-family="Helvetica,sans-Serif" font-size="10.00">ConcatViewFv.s</text>
</a>
</g>
</g>
<!-- Node1&#45;&gt;Node41 -->
<g id="edge41" class="edge">
<title>Node1&#45;&gt;Node41</title>
<path fill="none" stroke="midnightblue" d="M4306.52,-159.44C4764.85,-158.9 7296.83,-153.91 7637.5,-109 7644.92,-108.02 7652.58,-106.69 7660.2,-105.16"/>
<polygon fill="midnightblue" stroke="midnightblue" points="7661.14,-108.53 7670.19,-103.02 7659.68,-101.69 7661.14,-108.53"/>
</g>
<!-- Node42 -->
<g id="node42" class="node">
<title>Node42</title>
<g id="a_node42"><a xlink:title=" ">
<polygon fill="white" stroke="#bfbfbf" points="7848.5,-62 7848.5,-103 8032.5,-103 8032.5,-62 7848.5,-62"/>
<text text-anchor="start" x="7856.5" y="-91" font-family="Helvetica,sans-Serif" font-size="10.00">asm/JSystem/J3DGraphBase</text>
<text text-anchor="start" x="7856.5" y="-80" font-family="Helvetica,sans-Serif" font-size="10.00">/J3DShapeMtx/getType__21J3DShape</text>
<text text-anchor="middle" x="7940.5" y="-69" font-family="Helvetica,sans-Serif" font-size="10.00">MtxConcatViewCFv.s</text>
</a>
</g>
</g>
<!-- Node1&#45;&gt;Node42 -->
<g id="edge42" class="edge">
<title>Node1&#45;&gt;Node42</title>
<path fill="none" stroke="midnightblue" d="M4306.87,-159.5C4781.85,-159.37 7477.62,-156.55 7839.5,-109 7846.92,-108.03 7854.58,-106.7 7862.2,-105.16"/>
<polygon fill="midnightblue" stroke="midnightblue" points="7863.14,-108.54 7872.19,-103.03 7861.68,-101.69 7863.14,-108.54"/>
</g>
<!-- Node43 -->
<g id="node43" class="node">
<title>Node43</title>
<g id="a_node43"><a xlink:title=" ">
<polygon fill="white" stroke="#bfbfbf" points="8051,-67.5 8051,-97.5 8254,-97.5 8254,-67.5 8051,-67.5"/>
<text text-anchor="start" x="8059" y="-85.5" font-family="Helvetica,sans-Serif" font-size="10.00">asm/JSystem/J3DGraphBase</text>
<text text-anchor="middle" x="8152.5" y="-74.5" font-family="Helvetica,sans-Serif" font-size="10.00">/J3DShapeMtx/__dt__11J3DShapeMtxFv.s</text>
</a>
</g>
</g>
<!-- Node1&#45;&gt;Node43 -->
<g id="edge43" class="edge">
<title>Node1&#45;&gt;Node43</title>
<path fill="none" stroke="midnightblue" d="M4306.88,-159.47C4797.11,-159.11 7657.78,-155.09 8041.5,-109 8058,-107.02 8075.63,-103.59 8091.87,-99.88"/>
<polygon fill="midnightblue" stroke="midnightblue" points="8092.85,-103.24 8101.78,-97.54 8091.25,-96.43 8092.85,-103.24"/>
</g>
<!-- Node44 -->
<g id="node44" class="node">
<title>Node44</title>
<g id="a_node44"><a xlink:title=" ">
<polygon fill="white" stroke="#bfbfbf" points="8272.5,-62 8272.5,-103 8456.5,-103 8456.5,-62 8272.5,-62"/>
<text text-anchor="start" x="8280.5" y="-91" font-family="Helvetica,sans-Serif" font-size="10.00">asm/JSystem/J3DGraphBase</text>
<text text-anchor="start" x="8280.5" y="-80" font-family="Helvetica,sans-Serif" font-size="10.00">/J3DShapeMtx/getType__11J3DShape</text>
<text text-anchor="middle" x="8364.5" y="-69" font-family="Helvetica,sans-Serif" font-size="10.00">MtxCFv.s</text>
</a>
</g>
</g>
<!-- Node1&#45;&gt;Node44 -->
<g id="edge44" class="edge">
<title>Node1&#45;&gt;Node44</title>
<path fill="none" stroke="midnightblue" d="M4306.55,-159.61C4812.14,-160.29 7856.74,-162.15 8263.5,-109 8270.92,-108.03 8278.58,-106.71 8286.21,-105.17"/>
<polygon fill="midnightblue" stroke="midnightblue" points="8287.14,-108.55 8296.19,-103.04 8285.68,-101.71 8287.14,-108.55"/>
</g>
<!-- Node45 -->
<g id="node45" class="node">
<title>Node45</title>
<g id="a_node45"><a xlink:title=" ">
<polygon fill="white" stroke="#bfbfbf" points="8474.5,-67.5 8474.5,-97.5 8680.5,-97.5 8680.5,-67.5 8474.5,-67.5"/>
<text text-anchor="start" x="8482.5" y="-85.5" font-family="Helvetica,sans-Serif" font-size="10.00">asm/JSystem/J3DGraphBase</text>
<text text-anchor="middle" x="8577.5" y="-74.5" font-family="Helvetica,sans-Serif" font-size="10.00">/J3DShapeMtx/__sinit_J3DShapeMtx_cpp.s</text>
</a>
</g>
</g>
<!-- Node1&#45;&gt;Node45 -->
<g id="edge45" class="edge">
<title>Node1&#45;&gt;Node45</title>
<path fill="none" stroke="midnightblue" d="M4306.74,-159.56C4827.31,-159.88 8036.79,-159.78 8465.5,-109 8482.15,-107.03 8499.94,-103.6 8516.32,-99.89"/>
<polygon fill="midnightblue" stroke="midnightblue" points="8517.38,-103.24 8526.32,-97.55 8515.79,-96.42 8517.38,-103.24"/>
</g>
<!-- Node4&#45;&gt;Node3 -->
<g id="edge4" class="edge">
<title>Node4&#45;&gt;Node3</title>
<path fill="none" stroke="midnightblue" d="M170.39,-67.23C163.26,-56.06 153.3,-40.46 145.69,-28.52"/>
<polygon fill="midnightblue" stroke="midnightblue" points="148.51,-26.44 140.18,-19.89 142.61,-30.21 148.51,-26.44"/>
</g>
</g>
</svg>
        <g id="navigator" transform="translate(0 0)" fill="#404254">
                <rect fill="#f2f5e9" fill-opacity="0.5" stroke="#606060" stroke-width=".5" x="0" y="0" width="60" height="60"/>
                <use id="zoomplus" xlink:href="#zoomPlus" x="17" y="9" onmousedown="handleZoom(evt,'in')"/>
                <use id="zoomminus" xlink:href="#zoomMin" x="42" y="9" onmousedown="handleZoom(evt,'out')"/>
                <use id="reset" xlink:href="#resetDef" x="30" y="36" onmousedown="handleReset()"/>
                <g id="arrowUp" xlink:href="#dirArrow" transform="translate(30 24)" onmousedown="handlePan(0,-1)">
                  <use xlink:href="#rim" fill="#404040">
                        <set attributeName="fill" to="#808080" begin="arrowUp.mouseover" end="arrowUp.mouseout"/>
                  </use>
                  <path fill="none" stroke="white" stroke-width="1.5" d="M0,-3.0v7 M-2.5,-0.5L0,-3.0L2.5,-0.5"/>
                </g>
                <g id="arrowRight" xlink:href="#dirArrow" transform="rotate(90) translate(36 -43)" onmousedown="handlePan(1,0)">
                  <use xlink:href="#rim" fill="#404040">
                        <set attributeName="fill" to="#808080" begin="arrowRight.mouseover" end="arrowRight.mouseout"/>
                  </use>
                  <path fill="none" stroke="white" stroke-width="1.5" d="M0,-3.0v7 M-2.5,-0.5L0,-3.0L2.5,-0.5"/>
                </g>
                <g id="arrowDown" xlink:href="#dirArrow" transform="rotate(180) translate(-30 -48)" onmousedown="handlePan(0,1)">
                  <use xlink:href="#rim" fill="#404040">
                        <set attributeName="fill" to="#808080" begin="arrowDown.mouseover" end="arrowDown.mouseout"/>
                  </use>
                  <path fill="none" stroke="white" stroke-width="1.5" d="M0,-3.0v7 M-2.5,-0.5L0,-3.0L2.5,-0.5"/>
                </g>
                <g id="arrowLeft" xlink:href="#dirArrow" transform="rotate(270) translate(-36 17)" onmousedown="handlePan(-1,0)">
                  <use xlink:href="#rim" fill="#404040">
                        <set attributeName="fill" to="#808080" begin="arrowLeft.mouseover" end="arrowLeft.mouseout"/>
                  </use>
                  <path fill="none" stroke="white" stroke-width="1.5" d="M0,-3.0v7 M-2.5,-0.5L0,-3.0L2.5,-0.5"/>
                </g>
        </g>
        <svg viewBox="0 0 15 15" width="100%" height="30px" preserveAspectRatio="xMaxYMin meet">
         <g id="arrow_out" transform="scale(0.3 0.3)">
          <a xlink:href="J3DShapeMtx_8cpp__incl_org.svg" target="_base">
           <rect id="button" ry="5" rx="5" y="6" x="6" height="38" width="38"
                fill="#f2f5e9" fill-opacity="0.5" stroke="#606060" stroke-width="1.0"/>
           <path id="arrow"
             d="M 11.500037,31.436501 C 11.940474,20.09759 22.043105,11.32322 32.158766,21.979434 L 37.068811,17.246167 C 37.068811,17.246167 37.088388,32 37.088388,32 L 22.160133,31.978069 C 22.160133,31.978069 26.997745,27.140456 26.997745,27.140456 C 18.528582,18.264221 13.291696,25.230495 11.500037,31.436501 z"
             style="fill:#404040;"/>
          </a>
         </g>
        </svg>
</svg>
