<?xml version="1.0" encoding="UTF-8" standalone="no"?>
<!DOCTYPE svg PUBLIC "-//W3C//DTD SVG 1.1//EN"
 "http://www.w3.org/Graphics/SVG/1.1/DTD/svg11.dtd">
<!-- Generated by graphviz version 2.47.0 (20210316.2052)
 -->
<!-- Title: libs/JSystem/J3DGraphBase/J3DStruct.cpp Pages: 1 -->
<!--zoomable 173 -->
<svg id="main" version="1.1" xmlns="http://www.w3.org/2000/svg" xmlns:xlink="http://www.w3.org/1999/xlink" xml:space="preserve" onload="init(evt)">
<style type="text/css"><![CDATA[
.edge:hover path { stroke: red; }
.edge:hover polygon { stroke: red; fill: red; }
]]></style>
<script type="text/javascript"><![CDATA[
var edges = document.getElementsByTagName('g');
if (edges && edges.length) {
  for (var i=0;i<edges.length;i++) {
    if (edges[i].id.substr(0,4)=='edge') {
      edges[i].setAttribute('class','edge');
    }
  }
}
]]></script>
        <defs>
                <circle id="rim" cx="0" cy="0" r="7"/>
                <circle id="rim2" cx="0" cy="0" r="3.5"/>
                <g id="zoomPlus">
                        <use xlink:href="#rim" fill="#404040">
                                <set attributeName="fill" to="#808080" begin="zoomplus.mouseover" end="zoomplus.mouseout"/>
                        </use>
                        <path d="M-4,0h8M0,-4v8" fill="none" stroke="white" stroke-width="1.5" pointer-events="none"/>
                </g>
                <g id="zoomMin">
                        <use xlink:href="#rim" fill="#404040">
                                <set attributeName="fill" to="#808080" begin="zoomminus.mouseover" end="zoomminus.mouseout"/>
                        </use>
                        <path d="M-4,0h8" fill="none" stroke="white" stroke-width="1.5" pointer-events="none"/>
                </g>
                <g id="dirArrow">
                        <path fill="none" stroke="white" stroke-width="1.5" d="M0,-3.0v7 M-2.5,-0.5L0,-3.0L2.5,-0.5"/>
                </g>
               <g id="resetDef">
                       <use xlink:href="#rim2" fill="#404040">
                               <set attributeName="fill" to="#808080" begin="reset.mouseover" end="reset.mouseout"/>
                       </use>
               </g>
        </defs>

<script type="text/javascript">
var viewWidth = 1370;
var viewHeight = 173;
var sectionId = 'dynsection-0';
</script>
<script xlink:href="svgpan.js"/>
<svg id="graph" class="graph">
<g id="viewport">
<title>libs/JSystem/J3DGraphBase/J3DStruct.cpp</title>
<polygon fill="white" stroke="transparent" points="-4,4 -4,-169 1366,-169 1366,4 -4,4"/>
<!-- Node1 -->
<g id="node1" class="node">
<title>Node1</title>
<g id="a_node1"><a xlink:title=" ">
<polygon fill="#bfbfbf" stroke="black" points="458,-134.5 458,-164.5 600,-164.5 600,-134.5 458,-134.5"/>
<text text-anchor="start" x="466" y="-152.5" font-family="Helvetica,sans-Serif" font-size="10.00">libs/JSystem/J3DGraphBase</text>
<text text-anchor="middle" x="529" y="-141.5" font-family="Helvetica,sans-Serif" font-size="10.00">/J3DStruct.cpp</text>
</a>
</g>
</g>
<!-- Node2 -->
<g id="node2" class="node">
<title>Node2</title>
<g id="a_node2"><a xlink:href="J3DStruct_8h.html" target="_top" xlink:title=" ">
<polygon fill="white" stroke="black" points="0,-62 0,-92 124,-92 124,-62 0,-62"/>
<text text-anchor="start" x="8" y="-80" font-family="Helvetica,sans-Serif" font-size="10.00">JSystem/J3DGraphBase</text>
<text text-anchor="middle" x="62" y="-69" font-family="Helvetica,sans-Serif" font-size="10.00">/J3DStruct.h</text>
</a>
</g>
</g>
<!-- Node1&#45;&gt;Node2 -->
<g id="edge1" class="edge">
<title>Node1&#45;&gt;Node2</title>
<path fill="none" stroke="midnightblue" d="M457.92,-142.1C379.23,-134.37 248.84,-119.65 138,-98 132.64,-96.95 127.11,-95.75 121.57,-94.45"/>
<polygon fill="midnightblue" stroke="midnightblue" points="122.21,-91.01 111.66,-92.05 120.56,-97.81 122.21,-91.01"/>
</g>
<!-- Node3 -->
<g id="node3" class="node">
<title>Node3</title>
<g id="a_node3"><a xlink:href="types_8h.html" target="_top" xlink:title=" ">
<polygon fill="white" stroke="black" points="66.5,-0.5 66.5,-19.5 147.5,-19.5 147.5,-0.5 66.5,-0.5"/>
<text text-anchor="middle" x="107" y="-7.5" font-family="Helvetica,sans-Serif" font-size="10.00">dolphin/types.h</text>
</a>
</g>
</g>
<!-- Node1&#45;&gt;Node3 -->
<g id="edge4" class="edge">
<title>Node1&#45;&gt;Node3</title>
<path fill="none" stroke="midnightblue" d="M457.78,-144.87C367.79,-139.19 218.99,-125.84 172,-98 157.66,-89.51 132.14,-51.27 117.71,-28.41"/>
<polygon fill="midnightblue" stroke="midnightblue" points="120.53,-26.32 112.27,-19.68 114.59,-30.02 120.53,-26.32"/>
</g>
<!-- Node4 -->
<g id="node4" class="node">
<title>Node4</title>
<g id="a_node4"><a xlink:href="dol2asm_8h.html" target="_top" xlink:title=" ">
<polygon fill="white" stroke="black" points="180.5,-67.5 180.5,-86.5 241.5,-86.5 241.5,-67.5 180.5,-67.5"/>
<text text-anchor="middle" x="211" y="-74.5" font-family="Helvetica,sans-Serif" font-size="10.00">dol2asm.h</text>
</a>
</g>
</g>
<!-- Node1&#45;&gt;Node4 -->
<g id="edge3" class="edge">
<title>Node1&#45;&gt;Node4</title>
<path fill="none" stroke="midnightblue" d="M457.93,-141.23C400.92,-134.06 319.41,-120.8 251,-98 245.57,-96.19 239.95,-93.76 234.69,-91.22"/>
<polygon fill="midnightblue" stroke="midnightblue" points="236.26,-88.09 225.76,-86.64 233.06,-94.32 236.26,-88.09"/>
</g>
<!-- Node5 -->
<g id="node5" class="node">
<title>Node5</title>
<g id="a_node5"><a xlink:title=" ">
<polygon fill="white" stroke="#bfbfbf" points="260,-56.5 260,-97.5 424,-97.5 424,-56.5 260,-56.5"/>
<text text-anchor="start" x="268" y="-85.5" font-family="Helvetica,sans-Serif" font-size="10.00">asm/JSystem/J3DGraphBase</text>
<text text-anchor="start" x="268" y="-74.5" font-family="Helvetica,sans-Serif" font-size="10.00">/J3DStruct/__as__12J3DLightInfo</text>
<text text-anchor="middle" x="342" y="-63.5" font-family="Helvetica,sans-Serif" font-size="10.00">FRC12J3DLightInfo.s</text>
</a>
</g>
</g>
<!-- Node1&#45;&gt;Node5 -->
<g id="edge5" class="edge">
<title>Node1&#45;&gt;Node5</title>
<path fill="none" stroke="midnightblue" d="M491.61,-134.4C466.42,-124.91 432.62,-112.16 403.52,-101.19"/>
<polygon fill="midnightblue" stroke="midnightblue" points="404.44,-97.8 393.85,-97.55 401.97,-104.35 404.44,-97.8"/>
</g>
<!-- Node6 -->
<g id="node6" class="node">
<title>Node6</title>
<g id="a_node6"><a xlink:title=" ">
<polygon fill="white" stroke="#bfbfbf" points="442.5,-56.5 442.5,-97.5 615.5,-97.5 615.5,-56.5 442.5,-56.5"/>
<text text-anchor="start" x="450.5" y="-85.5" font-family="Helvetica,sans-Serif" font-size="10.00">asm/JSystem/J3DGraphBase</text>
<text text-anchor="start" x="450.5" y="-74.5" font-family="Helvetica,sans-Serif" font-size="10.00">/J3DStruct/__as__13J3DTexMtxInfo</text>
<text text-anchor="middle" x="529" y="-63.5" font-family="Helvetica,sans-Serif" font-size="10.00">FRC13J3DTexMtxInfo.s</text>
</a>
</g>
</g>
<!-- Node1&#45;&gt;Node6 -->
<g id="edge6" class="edge">
<title>Node1&#45;&gt;Node6</title>
<path fill="none" stroke="midnightblue" d="M529,-134.23C529,-126.57 529,-116.84 529,-107.63"/>
<polygon fill="midnightblue" stroke="midnightblue" points="532.5,-107.59 529,-97.59 525.5,-107.59 532.5,-107.59"/>
</g>
<!-- Node7 -->
<g id="node7" class="node">
<title>Node7</title>
<g id="a_node7"><a xlink:title=" ">
<polygon fill="white" stroke="#bfbfbf" points="634,-56.5 634,-97.5 780,-97.5 780,-56.5 634,-56.5"/>
<text text-anchor="start" x="642" y="-85.5" font-family="Helvetica,sans-Serif" font-size="10.00">asm/JSystem/J3DGraphBase</text>
<text text-anchor="start" x="642" y="-74.5" font-family="Helvetica,sans-Serif" font-size="10.00">/J3DStruct/setEffectMtx</text>
<text text-anchor="middle" x="707" y="-63.5" font-family="Helvetica,sans-Serif" font-size="10.00">__13J3DTexMtxInfoFPA4_f.s</text>
</a>
</g>
</g>
<!-- Node1&#45;&gt;Node7 -->
<g id="edge7" class="edge">
<title>Node1&#45;&gt;Node7</title>
<path fill="none" stroke="midnightblue" d="M564.59,-134.4C588.46,-124.95 620.46,-112.27 648.08,-101.34"/>
<polygon fill="midnightblue" stroke="midnightblue" points="649.64,-104.48 657.65,-97.55 647.06,-97.97 649.64,-104.48"/>
</g>
<!-- Node8 -->
<g id="node8" class="node">
<title>Node8</title>
<g id="a_node8"><a xlink:title=" ">
<polygon fill="white" stroke="#bfbfbf" points="798,-56.5 798,-97.5 968,-97.5 968,-56.5 798,-56.5"/>
<text text-anchor="start" x="806" y="-85.5" font-family="Helvetica,sans-Serif" font-size="10.00">asm/JSystem/J3DGraphBase</text>
<text text-anchor="start" x="806" y="-74.5" font-family="Helvetica,sans-Serif" font-size="10.00">/J3DStruct/__as__16J3DIndTexMtx</text>
<text text-anchor="middle" x="883" y="-63.5" font-family="Helvetica,sans-Serif" font-size="10.00">InfoFRC16J3DIndTexMtxInfo.s</text>
</a>
</g>
</g>
<!-- Node1&#45;&gt;Node8 -->
<g id="edge8" class="edge">
<title>Node1&#45;&gt;Node8</title>
<path fill="none" stroke="midnightblue" d="M600.25,-135.02C650.08,-125.5 718.47,-112.28 787.74,-98.24"/>
<polygon fill="midnightblue" stroke="midnightblue" points="788.86,-101.59 797.96,-96.16 787.46,-94.73 788.86,-101.59"/>
</g>
<!-- Node9 -->
<g id="node9" class="node">
<title>Node9</title>
<g id="a_node9"><a xlink:title=" ">
<polygon fill="white" stroke="#bfbfbf" points="986,-56.5 986,-97.5 1174,-97.5 1174,-56.5 986,-56.5"/>
<text text-anchor="start" x="994" y="-85.5" font-family="Helvetica,sans-Serif" font-size="10.00">asm/JSystem/J3DGraphBase</text>
<text text-anchor="start" x="994" y="-74.5" font-family="Helvetica,sans-Serif" font-size="10.00">/J3DStruct/__as__10J3DFogInfoFRC10</text>
<text text-anchor="middle" x="1080" y="-63.5" font-family="Helvetica,sans-Serif" font-size="10.00">J3DFogInfo.s</text>
</a>
</g>
</g>
<!-- Node1&#45;&gt;Node9 -->
<g id="edge9" class="edge">
<title>Node1&#45;&gt;Node9</title>
<path fill="none" stroke="midnightblue" d="M600.23,-142.23C686.73,-134.23 837.25,-119.03 975.8,-98.13"/>
<polygon fill="midnightblue" stroke="midnightblue" points="976.39,-101.58 985.75,-96.61 975.34,-94.66 976.39,-101.58"/>
</g>
<!-- Node10 -->
<g id="node10" class="node">
<title>Node10</title>
<g id="a_node10"><a xlink:title=" ">
<polygon fill="white" stroke="#bfbfbf" points="1192,-56.5 1192,-97.5 1362,-97.5 1362,-56.5 1192,-56.5"/>
<text text-anchor="start" x="1200" y="-85.5" font-family="Helvetica,sans-Serif" font-size="10.00">asm/JSystem/J3DGraphBase</text>
<text text-anchor="start" x="1200" y="-74.5" font-family="Helvetica,sans-Serif" font-size="10.00">/J3DStruct/__as__15J3DNBTScale</text>
<text text-anchor="middle" x="1277" y="-63.5" font-family="Helvetica,sans-Serif" font-size="10.00">InfoFRC15J3DNBTScaleInfo.s</text>
</a>
</g>
</g>
<!-- Node1&#45;&gt;Node10 -->
<g id="edge10" class="edge">
<title>Node1&#45;&gt;Node10</title>
<path fill="none" stroke="midnightblue" d="M600.47,-146.08C719.26,-141.38 964.93,-128.77 1181.8,-98.07"/>
<polygon fill="midnightblue" stroke="midnightblue" points="1182.38,-101.53 1191.78,-96.65 1181.39,-94.6 1182.38,-101.53"/>
</g>
<!-- Node2&#45;&gt;Node3 -->
<g id="edge2" class="edge">
<title>Node2&#45;&gt;Node3</title>
<path fill="none" stroke="midnightblue" d="M71.76,-61.9C78.64,-51.96 87.89,-38.61 95.18,-28.07"/>
<polygon fill="midnightblue" stroke="midnightblue" points="98.17,-29.91 100.98,-19.69 92.41,-25.92 98.17,-29.91"/>
</g>
</g>
</svg>
        <g id="navigator" transform="translate(0 0)" fill="#404254">
                <rect fill="#f2f5e9" fill-opacity="0.5" stroke="#606060" stroke-width=".5" x="0" y="0" width="60" height="60"/>
                <use id="zoomplus" xlink:href="#zoomPlus" x="17" y="9" onmousedown="handleZoom(evt,'in')"/>
                <use id="zoomminus" xlink:href="#zoomMin" x="42" y="9" onmousedown="handleZoom(evt,'out')"/>
                <use id="reset" xlink:href="#resetDef" x="30" y="36" onmousedown="handleReset()"/>
                <g id="arrowUp" xlink:href="#dirArrow" transform="translate(30 24)" onmousedown="handlePan(0,-1)">
                  <use xlink:href="#rim" fill="#404040">
                        <set attributeName="fill" to="#808080" begin="arrowUp.mouseover" end="arrowUp.mouseout"/>
                  </use>
                  <path fill="none" stroke="white" stroke-width="1.5" d="M0,-3.0v7 M-2.5,-0.5L0,-3.0L2.5,-0.5"/>
                </g>
                <g id="arrowRight" xlink:href="#dirArrow" transform="rotate(90) translate(36 -43)" onmousedown="handlePan(1,0)">
                  <use xlink:href="#rim" fill="#404040">
                        <set attributeName="fill" to="#808080" begin="arrowRight.mouseover" end="arrowRight.mouseout"/>
                  </use>
                  <path fill="none" stroke="white" stroke-width="1.5" d="M0,-3.0v7 M-2.5,-0.5L0,-3.0L2.5,-0.5"/>
                </g>
                <g id="arrowDown" xlink:href="#dirArrow" transform="rotate(180) translate(-30 -48)" onmousedown="handlePan(0,1)">
                  <use xlink:href="#rim" fill="#404040">
                        <set attributeName="fill" to="#808080" begin="arrowDown.mouseover" end="arrowDown.mouseout"/>
                  </use>
                  <path fill="none" stroke="white" stroke-width="1.5" d="M0,-3.0v7 M-2.5,-0.5L0,-3.0L2.5,-0.5"/>
                </g>
                <g id="arrowLeft" xlink:href="#dirArrow" transform="rotate(270) translate(-36 17)" onmousedown="handlePan(-1,0)">
                  <use xlink:href="#rim" fill="#404040">
                        <set attributeName="fill" to="#808080" begin="arrowLeft.mouseover" end="arrowLeft.mouseout"/>
                  </use>
                  <path fill="none" stroke="white" stroke-width="1.5" d="M0,-3.0v7 M-2.5,-0.5L0,-3.0L2.5,-0.5"/>
                </g>
        </g>
        <svg viewBox="0 0 15 15" width="100%" height="30px" preserveAspectRatio="xMaxYMin meet">
         <g id="arrow_out" transform="scale(0.3 0.3)">
          <a xlink:href="J3DStruct_8cpp__incl_org.svg" target="_base">
           <rect id="button" ry="5" rx="5" y="6" x="6" height="38" width="38"
                fill="#f2f5e9" fill-opacity="0.5" stroke="#606060" stroke-width="1.0"/>
           <path id="arrow"
             d="M 11.500037,31.436501 C 11.940474,20.09759 22.043105,11.32322 32.158766,21.979434 L 37.068811,17.246167 C 37.068811,17.246167 37.088388,32 37.088388,32 L 22.160133,31.978069 C 22.160133,31.978069 26.997745,27.140456 26.997745,27.140456 C 18.528582,18.264221 13.291696,25.230495 11.500037,31.436501 z"
             style="fill:#404040;"/>
          </a>
         </g>
        </svg>
</svg>
