<?xml version="1.0" encoding="UTF-8" standalone="no"?>
<!DOCTYPE svg PUBLIC "-//W3C//DTD SVG 1.1//EN"
 "http://www.w3.org/Graphics/SVG/1.1/DTD/svg11.dtd">
<!-- Generated by graphviz version 2.47.0 (20210316.2052)
 -->
<!-- Title: libs/JSystem/J3DGraphBase/J3DShapeDraw.cpp Pages: 1 -->
<svg width="1182pt" height="173pt"
 viewBox="0.00 0.00 1182.00 173.00" xmlns="http://www.w3.org/2000/svg" xmlns:xlink="http://www.w3.org/1999/xlink">
<g id="graph0" class="graph" transform="scale(1 1) rotate(0) translate(4 169)">
<title>libs/JSystem/J3DGraphBase/J3DShapeDraw.cpp</title>
<polygon fill="white" stroke="transparent" points="-4,4 -4,-169 1178,-169 1178,4 -4,4"/>
<!-- Node1 -->
<g id="node1" class="node">
<title>Node1</title>
<g id="a_node1"><a xlink:title=" ">
<polygon fill="#bfbfbf" stroke="black" points="349.5,-134.5 349.5,-164.5 491.5,-164.5 491.5,-134.5 349.5,-134.5"/>
<text text-anchor="start" x="357.5" y="-152.5" font-family="Helvetica,sans-Serif" font-size="10.00">libs/JSystem/J3DGraphBase</text>
<text text-anchor="middle" x="420.5" y="-141.5" font-family="Helvetica,sans-Serif" font-size="10.00">/J3DShapeDraw.cpp</text>
</a>
</g>
</g>
<!-- Node2 -->
<g id="node2" class="node">
<title>Node2</title>
<g id="a_node2"><a xlink:href="dol2asm_8h.html" target="_top" xlink:title=" ">
<polygon fill="white" stroke="black" points="0,-67.5 0,-86.5 61,-86.5 61,-67.5 0,-67.5"/>
<text text-anchor="middle" x="30.5" y="-74.5" font-family="Helvetica,sans-Serif" font-size="10.00">dol2asm.h</text>
</a>
</g>
</g>
<!-- Node1&#45;&gt;Node2 -->
<g id="edge1" class="edge">
<title>Node1&#45;&gt;Node2</title>
<path fill="none" stroke="midnightblue" d="M349.26,-143.77C278.65,-137.76 167.95,-124.76 75.5,-98 69.03,-96.13 62.29,-93.51 56.04,-90.79"/>
<polygon fill="midnightblue" stroke="midnightblue" points="57.31,-87.52 46.76,-86.52 54.38,-93.88 57.31,-87.52"/>
</g>
<!-- Node3 -->
<g id="node3" class="node">
<title>Node3</title>
<g id="a_node3"><a xlink:href="types_8h.html" target="_top" xlink:title=" ">
<polygon fill="white" stroke="black" points="94,-0.5 94,-19.5 175,-19.5 175,-0.5 94,-0.5"/>
<text text-anchor="middle" x="134.5" y="-7.5" font-family="Helvetica,sans-Serif" font-size="10.00">dolphin/types.h</text>
</a>
</g>
</g>
<!-- Node1&#45;&gt;Node3 -->
<g id="edge2" class="edge">
<title>Node1&#45;&gt;Node3</title>
<path fill="none" stroke="midnightblue" d="M349.49,-147.28C267.15,-144.19 138.82,-133.62 108.5,-98 91.39,-77.9 107.79,-46.86 121.18,-27.8"/>
<polygon fill="midnightblue" stroke="midnightblue" points="124.02,-29.85 127.18,-19.74 118.4,-25.68 124.02,-29.85"/>
</g>
<!-- Node4 -->
<g id="node4" class="node">
<title>Node4</title>
<g id="a_node4"><a xlink:href="J3DShapeDraw_8h.html" target="_top" xlink:title=" ">
<polygon fill="white" stroke="black" points="117.5,-62 117.5,-92 241.5,-92 241.5,-62 117.5,-62"/>
<text text-anchor="start" x="125.5" y="-80" font-family="Helvetica,sans-Serif" font-size="10.00">JSystem/J3DGraphBase</text>
<text text-anchor="middle" x="179.5" y="-69" font-family="Helvetica,sans-Serif" font-size="10.00">/J3DShapeDraw.h</text>
</a>
</g>
</g>
<!-- Node1&#45;&gt;Node4 -->
<g id="edge3" class="edge">
<title>Node1&#45;&gt;Node4</title>
<path fill="none" stroke="midnightblue" d="M372.6,-134.49C333.71,-123.11 278.74,-107.03 237.39,-94.93"/>
<polygon fill="midnightblue" stroke="midnightblue" points="238.3,-91.56 227.72,-92.11 236.34,-98.27 238.3,-91.56"/>
</g>
<!-- Node5 -->
<g id="node5" class="node">
<title>Node5</title>
<g id="a_node5"><a xlink:title=" ">
<polygon fill="white" stroke="#bfbfbf" points="259.5,-56.5 259.5,-97.5 405.5,-97.5 405.5,-56.5 259.5,-56.5"/>
<text text-anchor="start" x="267.5" y="-85.5" font-family="Helvetica,sans-Serif" font-size="10.00">asm/JSystem/J3DGraphBase</text>
<text text-anchor="start" x="267.5" y="-74.5" font-family="Helvetica,sans-Serif" font-size="10.00">/J3DShapeDraw/countVertex</text>
<text text-anchor="middle" x="332.5" y="-63.5" font-family="Helvetica,sans-Serif" font-size="10.00">__12J3DShapeDrawFUl.s</text>
</a>
</g>
</g>
<!-- Node1&#45;&gt;Node5 -->
<g id="edge5" class="edge">
<title>Node1&#45;&gt;Node5</title>
<path fill="none" stroke="midnightblue" d="M402.69,-134.23C391.9,-125.59 377.8,-114.29 365.07,-104.09"/>
<polygon fill="midnightblue" stroke="midnightblue" points="366.94,-101.11 356.95,-97.59 362.57,-106.57 366.94,-101.11"/>
</g>
<!-- Node6 -->
<g id="node6" class="node">
<title>Node6</title>
<g id="a_node6"><a xlink:title=" ">
<polygon fill="white" stroke="#bfbfbf" points="424,-56.5 424,-97.5 593,-97.5 593,-56.5 424,-56.5"/>
<text text-anchor="start" x="432" y="-85.5" font-family="Helvetica,sans-Serif" font-size="10.00">asm/JSystem/J3DGraphBase</text>
<text text-anchor="start" x="432" y="-74.5" font-family="Helvetica,sans-Serif" font-size="10.00">/J3DShapeDraw/addTexMtxIndexIn</text>
<text text-anchor="middle" x="508.5" y="-63.5" font-family="Helvetica,sans-Serif" font-size="10.00">DL__12J3DShapeDrawFUlUlUl.s</text>
</a>
</g>
</g>
<!-- Node1&#45;&gt;Node6 -->
<g id="edge6" class="edge">
<title>Node1&#45;&gt;Node6</title>
<path fill="none" stroke="midnightblue" d="M438.31,-134.23C449.1,-125.59 463.2,-114.29 475.93,-104.09"/>
<polygon fill="midnightblue" stroke="midnightblue" points="478.43,-106.57 484.05,-97.59 474.06,-101.11 478.43,-106.57"/>
</g>
<!-- Node7 -->
<g id="node7" class="node">
<title>Node7</title>
<g id="a_node7"><a xlink:title=" ">
<polygon fill="white" stroke="#bfbfbf" points="611,-56.5 611,-97.5 786,-97.5 786,-56.5 611,-56.5"/>
<text text-anchor="start" x="619" y="-85.5" font-family="Helvetica,sans-Serif" font-size="10.00">asm/JSystem/J3DGraphBase</text>
<text text-anchor="start" x="619" y="-74.5" font-family="Helvetica,sans-Serif" font-size="10.00">/J3DShapeDraw/__ct__12J3DShape</text>
<text text-anchor="middle" x="698.5" y="-63.5" font-family="Helvetica,sans-Serif" font-size="10.00">DrawFPCUcUl.s</text>
</a>
</g>
</g>
<!-- Node1&#45;&gt;Node7 -->
<g id="edge7" class="edge">
<title>Node1&#45;&gt;Node7</title>
<path fill="none" stroke="midnightblue" d="M475.76,-134.49C514.55,-124.65 567.21,-111.29 611.59,-100.04"/>
<polygon fill="midnightblue" stroke="midnightblue" points="612.67,-103.38 621.51,-97.53 610.95,-96.59 612.67,-103.38"/>
</g>
<!-- Node8 -->
<g id="node8" class="node">
<title>Node8</title>
<g id="a_node8"><a xlink:title=" ">
<polygon fill="white" stroke="#bfbfbf" points="804,-56.5 804,-97.5 981,-97.5 981,-56.5 804,-56.5"/>
<text text-anchor="start" x="812" y="-85.5" font-family="Helvetica,sans-Serif" font-size="10.00">asm/JSystem/J3DGraphBase</text>
<text text-anchor="start" x="812" y="-74.5" font-family="Helvetica,sans-Serif" font-size="10.00">/J3DShapeDraw/draw__12J3DShape</text>
<text text-anchor="middle" x="892.5" y="-63.5" font-family="Helvetica,sans-Serif" font-size="10.00">DrawCFv.s</text>
</a>
</g>
</g>
<!-- Node1&#45;&gt;Node8 -->
<g id="edge8" class="edge">
<title>Node1&#45;&gt;Node8</title>
<path fill="none" stroke="midnightblue" d="M491.57,-140.42C564.94,-131.74 682.94,-116.85 793.73,-98.25"/>
<polygon fill="midnightblue" stroke="midnightblue" points="794.46,-101.68 803.74,-96.56 793.3,-94.78 794.46,-101.68"/>
</g>
<!-- Node9 -->
<g id="node9" class="node">
<title>Node9</title>
<g id="a_node9"><a xlink:title=" ">
<polygon fill="white" stroke="#bfbfbf" points="999,-56.5 999,-97.5 1174,-97.5 1174,-56.5 999,-56.5"/>
<text text-anchor="start" x="1007" y="-85.5" font-family="Helvetica,sans-Serif" font-size="10.00">asm/JSystem/J3DGraphBase</text>
<text text-anchor="start" x="1007" y="-74.5" font-family="Helvetica,sans-Serif" font-size="10.00">/J3DShapeDraw/__dt__12J3DShape</text>
<text text-anchor="middle" x="1086.5" y="-63.5" font-family="Helvetica,sans-Serif" font-size="10.00">DrawFv.s</text>
</a>
</g>
</g>
<!-- Node1&#45;&gt;Node9 -->
<g id="edge9" class="edge">
<title>Node1&#45;&gt;Node9</title>
<path fill="none" stroke="midnightblue" d="M491.9,-144.86C598.21,-138.85 804.5,-124.91 988.79,-98.17"/>
<polygon fill="midnightblue" stroke="midnightblue" points="989.56,-101.6 998.94,-96.68 988.54,-94.67 989.56,-101.6"/>
</g>
<!-- Node4&#45;&gt;Node3 -->
<g id="edge4" class="edge">
<title>Node4&#45;&gt;Node3</title>
<path fill="none" stroke="midnightblue" d="M169.74,-61.9C162.86,-51.96 153.61,-38.61 146.32,-28.07"/>
<polygon fill="midnightblue" stroke="midnightblue" points="149.09,-25.92 140.52,-19.69 143.33,-29.91 149.09,-25.92"/>
</g>
</g>
</svg>
