<?xml version="1.0" encoding="UTF-8" standalone="no"?>
<!DOCTYPE svg PUBLIC "-//W3C//DTD SVG 1.1//EN"
 "http://www.w3.org/Graphics/SVG/1.1/DTD/svg11.dtd">
<!-- Generated by graphviz version 2.47.0 (20210316.2052)
 -->
<!-- Title: libs/JSystem/J3DGraphBase/J3DTexture.cpp Pages: 1 -->
<svg width="865pt" height="173pt"
 viewBox="0.00 0.00 864.50 173.00" xmlns="http://www.w3.org/2000/svg" xmlns:xlink="http://www.w3.org/1999/xlink">
<g id="graph0" class="graph" transform="scale(1 1) rotate(0) translate(4 169)">
<title>libs/JSystem/J3DGraphBase/J3DTexture.cpp</title>
<polygon fill="white" stroke="transparent" points="-4,4 -4,-169 860.5,-169 860.5,4 -4,4"/>
<!-- Node1 -->
<g id="node1" class="node">
<title>Node1</title>
<g id="a_node1"><a xlink:title=" ">
<polygon fill="#bfbfbf" stroke="black" points="192.5,-134.5 192.5,-164.5 334.5,-164.5 334.5,-134.5 192.5,-134.5"/>
<text text-anchor="start" x="200.5" y="-152.5" font-family="Helvetica,sans-Serif" font-size="10.00">libs/JSystem/J3DGraphBase</text>
<text text-anchor="middle" x="263.5" y="-141.5" font-family="Helvetica,sans-Serif" font-size="10.00">/J3DTexture.cpp</text>
</a>
</g>
</g>
<!-- Node2 -->
<g id="node2" class="node">
<title>Node2</title>
<g id="a_node2"><a xlink:href="dol2asm_8h.html" target="_top" xlink:title=" ">
<polygon fill="white" stroke="black" points="0,-67.5 0,-86.5 61,-86.5 61,-67.5 0,-67.5"/>
<text text-anchor="middle" x="30.5" y="-74.5" font-family="Helvetica,sans-Serif" font-size="10.00">dol2asm.h</text>
</a>
</g>
</g>
<!-- Node1&#45;&gt;Node2 -->
<g id="edge1" class="edge">
<title>Node1&#45;&gt;Node2</title>
<path fill="none" stroke="midnightblue" d="M201.8,-134.5C164.75,-125.46 116.91,-112.67 75.5,-98 69.61,-95.92 63.42,-93.39 57.58,-90.85"/>
<polygon fill="midnightblue" stroke="midnightblue" points="58.75,-87.54 48.2,-86.63 55.88,-93.92 58.75,-87.54"/>
</g>
<!-- Node3 -->
<g id="node3" class="node">
<title>Node3</title>
<g id="a_node3"><a xlink:href="types_8h.html" target="_top" xlink:title=" ">
<polygon fill="white" stroke="black" points="94,-0.5 94,-19.5 175,-19.5 175,-0.5 94,-0.5"/>
<text text-anchor="middle" x="134.5" y="-7.5" font-family="Helvetica,sans-Serif" font-size="10.00">dolphin/types.h</text>
</a>
</g>
</g>
<!-- Node1&#45;&gt;Node3 -->
<g id="edge2" class="edge">
<title>Node1&#45;&gt;Node3</title>
<path fill="none" stroke="midnightblue" d="M192.44,-143.55C161.42,-137.43 127.79,-124.57 108.5,-98 93.14,-76.84 108.6,-46.58 121.39,-27.89"/>
<polygon fill="midnightblue" stroke="midnightblue" points="124.26,-29.89 127.3,-19.74 118.6,-25.78 124.26,-29.89"/>
</g>
<!-- Node4 -->
<g id="node4" class="node">
<title>Node4</title>
<g id="a_node4"><a xlink:href="J3DTexture_8h.html" target="_top" xlink:title=" ">
<polygon fill="white" stroke="black" points="117.5,-62 117.5,-92 241.5,-92 241.5,-62 117.5,-62"/>
<text text-anchor="start" x="125.5" y="-80" font-family="Helvetica,sans-Serif" font-size="10.00">JSystem/J3DGraphBase</text>
<text text-anchor="middle" x="179.5" y="-69" font-family="Helvetica,sans-Serif" font-size="10.00">/J3DTexture.h</text>
</a>
</g>
</g>
<!-- Node1&#45;&gt;Node4 -->
<g id="edge3" class="edge">
<title>Node1&#45;&gt;Node4</title>
<path fill="none" stroke="midnightblue" d="M246.5,-134.23C234.35,-124.04 217.82,-110.16 204.21,-98.74"/>
<polygon fill="midnightblue" stroke="midnightblue" points="206.1,-95.75 196.19,-92 201.6,-101.11 206.1,-95.75"/>
</g>
<!-- Node5 -->
<g id="node5" class="node">
<title>Node5</title>
<g id="a_node5"><a xlink:title=" ">
<polygon fill="white" stroke="#bfbfbf" points="260,-56.5 260,-97.5 435,-97.5 435,-56.5 260,-56.5"/>
<text text-anchor="start" x="268" y="-85.5" font-family="Helvetica,sans-Serif" font-size="10.00">asm/JSystem/J3DGraphBase</text>
<text text-anchor="start" x="268" y="-74.5" font-family="Helvetica,sans-Serif" font-size="10.00">/J3DTexture/loadGX__10J3DTexture</text>
<text text-anchor="middle" x="347.5" y="-63.5" font-family="Helvetica,sans-Serif" font-size="10.00">CFUs11_GXTexMapID.s</text>
</a>
</g>
</g>
<!-- Node1&#45;&gt;Node5 -->
<g id="edge5" class="edge">
<title>Node1&#45;&gt;Node5</title>
<path fill="none" stroke="midnightblue" d="M280.5,-134.23C290.8,-125.59 304.26,-114.29 316.41,-104.09"/>
<polygon fill="midnightblue" stroke="midnightblue" points="318.75,-106.7 324.16,-97.59 314.25,-101.34 318.75,-106.7"/>
</g>
<!-- Node6 -->
<g id="node6" class="node">
<title>Node6</title>
<g id="a_node6"><a xlink:title=" ">
<polygon fill="white" stroke="#bfbfbf" points="453,-62 453,-92 664,-92 664,-62 453,-62"/>
<text text-anchor="start" x="461" y="-80" font-family="Helvetica,sans-Serif" font-size="10.00">asm/JSystem/J3DGraphBase</text>
<text text-anchor="middle" x="558.5" y="-69" font-family="Helvetica,sans-Serif" font-size="10.00">/J3DTexture/entryNum__10J3DTextureFUs.s</text>
</a>
</g>
</g>
<!-- Node1&#45;&gt;Node6 -->
<g id="edge6" class="edge">
<title>Node1&#45;&gt;Node6</title>
<path fill="none" stroke="midnightblue" d="M322.14,-134.49C370.42,-122.95 438.95,-106.57 489.8,-94.42"/>
<polygon fill="midnightblue" stroke="midnightblue" points="490.81,-97.78 499.72,-92.05 489.18,-90.97 490.81,-97.78"/>
</g>
<!-- Node7 -->
<g id="node7" class="node">
<title>Node7</title>
<g id="a_node7"><a xlink:title=" ">
<polygon fill="white" stroke="#bfbfbf" points="682.5,-56.5 682.5,-97.5 856.5,-97.5 856.5,-56.5 682.5,-56.5"/>
<text text-anchor="start" x="690.5" y="-85.5" font-family="Helvetica,sans-Serif" font-size="10.00">asm/JSystem/J3DGraphBase</text>
<text text-anchor="start" x="690.5" y="-74.5" font-family="Helvetica,sans-Serif" font-size="10.00">/J3DTexture/addResTIMG</text>
<text text-anchor="middle" x="769.5" y="-63.5" font-family="Helvetica,sans-Serif" font-size="10.00">__10J3DTextureFUsPC7ResTIMG.s</text>
</a>
</g>
</g>
<!-- Node1&#45;&gt;Node7 -->
<g id="edge7" class="edge">
<title>Node1&#45;&gt;Node7</title>
<path fill="none" stroke="midnightblue" d="M334.86,-141.52C414.7,-133.31 548.07,-118.37 672.36,-98.12"/>
<polygon fill="midnightblue" stroke="midnightblue" points="673.14,-101.54 682.44,-96.47 672,-94.63 673.14,-101.54"/>
</g>
<!-- Node4&#45;&gt;Node3 -->
<g id="edge4" class="edge">
<title>Node4&#45;&gt;Node3</title>
<path fill="none" stroke="midnightblue" d="M169.74,-61.9C162.86,-51.96 153.61,-38.61 146.32,-28.07"/>
<polygon fill="midnightblue" stroke="midnightblue" points="149.09,-25.92 140.52,-19.69 143.33,-29.91 149.09,-25.92"/>
</g>
</g>
</svg>
