<?xml version="1.0" encoding="UTF-8" standalone="no"?>
<!DOCTYPE svg PUBLIC "-//W3C//DTD SVG 1.1//EN"
 "http://www.w3.org/Graphics/SVG/1.1/DTD/svg11.dtd">
<!-- Generated by graphviz version 2.47.0 (20210316.2052)
 -->
<!-- Title: libs/JSystem/J3DGraphBase/J3DTevs.cpp Pages: 1 -->
<!--zoomable 173 -->
<svg id="main" version="1.1" xmlns="http://www.w3.org/2000/svg" xmlns:xlink="http://www.w3.org/1999/xlink" xml:space="preserve" onload="init(evt)">
<style type="text/css"><![CDATA[
.edge:hover path { stroke: red; }
.edge:hover polygon { stroke: red; fill: red; }
]]></style>
<script type="text/javascript"><![CDATA[
var edges = document.getElementsByTagName('g');
if (edges && edges.length) {
  for (var i=0;i<edges.length;i++) {
    if (edges[i].id.substr(0,4)=='edge') {
      edges[i].setAttribute('class','edge');
    }
  }
}
]]></script>
        <defs>
                <circle id="rim" cx="0" cy="0" r="7"/>
                <circle id="rim2" cx="0" cy="0" r="3.5"/>
                <g id="zoomPlus">
                        <use xlink:href="#rim" fill="#404040">
                                <set attributeName="fill" to="#808080" begin="zoomplus.mouseover" end="zoomplus.mouseout"/>
                        </use>
                        <path d="M-4,0h8M0,-4v8" fill="none" stroke="white" stroke-width="1.5" pointer-events="none"/>
                </g>
                <g id="zoomMin">
                        <use xlink:href="#rim" fill="#404040">
                                <set attributeName="fill" to="#808080" begin="zoomminus.mouseover" end="zoomminus.mouseout"/>
                        </use>
                        <path d="M-4,0h8" fill="none" stroke="white" stroke-width="1.5" pointer-events="none"/>
                </g>
                <g id="dirArrow">
                        <path fill="none" stroke="white" stroke-width="1.5" d="M0,-3.0v7 M-2.5,-0.5L0,-3.0L2.5,-0.5"/>
                </g>
               <g id="resetDef">
                       <use xlink:href="#rim2" fill="#404040">
                               <set attributeName="fill" to="#808080" begin="reset.mouseover" end="reset.mouseout"/>
                       </use>
               </g>
        </defs>

<script type="text/javascript">
var viewWidth = 3778;
var viewHeight = 173;
var sectionId = 'dynsection-0';
</script>
<script xlink:href="svgpan.js"/>
<svg id="graph" class="graph">
<g id="viewport">
<title>libs/JSystem/J3DGraphBase/J3DTevs.cpp</title>
<polygon fill="white" stroke="transparent" points="-4,4 -4,-169 3773.5,-169 3773.5,4 -4,4"/>
<!-- Node1 -->
<g id="node1" class="node">
<title>Node1</title>
<g id="a_node1"><a xlink:title=" ">
<polygon fill="#bfbfbf" stroke="black" points="1653.5,-134.5 1653.5,-164.5 1795.5,-164.5 1795.5,-134.5 1653.5,-134.5"/>
<text text-anchor="start" x="1661.5" y="-152.5" font-family="Helvetica,sans-Serif" font-size="10.00">libs/JSystem/J3DGraphBase</text>
<text text-anchor="middle" x="1724.5" y="-141.5" font-family="Helvetica,sans-Serif" font-size="10.00">/J3DTevs.cpp</text>
</a>
</g>
</g>
<!-- Node2 -->
<g id="node2" class="node">
<title>Node2</title>
<g id="a_node2"><a xlink:href="dol2asm_8h.html" target="_top" xlink:title=" ">
<polygon fill="white" stroke="black" points="0,-67.5 0,-86.5 61,-86.5 61,-67.5 0,-67.5"/>
<text text-anchor="middle" x="30.5" y="-74.5" font-family="Helvetica,sans-Serif" font-size="10.00">dol2asm.h</text>
</a>
</g>
</g>
<!-- Node1&#45;&gt;Node2 -->
<g id="edge1" class="edge">
<title>Node1&#45;&gt;Node2</title>
<path fill="none" stroke="midnightblue" d="M1653.17,-147.94C1356.74,-145.37 230.48,-133.38 75.5,-98 68.72,-96.45 61.7,-93.87 55.28,-91.06"/>
<polygon fill="midnightblue" stroke="midnightblue" points="56.35,-87.69 45.81,-86.59 53.36,-94.02 56.35,-87.69"/>
</g>
<!-- Node3 -->
<g id="node3" class="node">
<title>Node3</title>
<g id="a_node3"><a xlink:href="types_8h.html" target="_top" xlink:title=" ">
<polygon fill="white" stroke="black" points="94,-0.5 94,-19.5 175,-19.5 175,-0.5 94,-0.5"/>
<text text-anchor="middle" x="134.5" y="-7.5" font-family="Helvetica,sans-Serif" font-size="10.00">dolphin/types.h</text>
</a>
</g>
</g>
<!-- Node1&#45;&gt;Node3 -->
<g id="edge2" class="edge">
<title>Node1&#45;&gt;Node3</title>
<path fill="none" stroke="midnightblue" d="M1653.26,-147.61C1344.45,-143.6 135.76,-126.12 108.5,-98 90.03,-78.94 107.09,-47.33 120.95,-27.91"/>
<polygon fill="midnightblue" stroke="midnightblue" points="123.91,-29.8 127.13,-19.71 118.32,-25.59 123.91,-29.8"/>
</g>
<!-- Node4 -->
<g id="node4" class="node">
<title>Node4</title>
<g id="a_node4"><a xlink:href="J3DTevs_8h.html" target="_top" xlink:title=" ">
<polygon fill="white" stroke="black" points="117.5,-62 117.5,-92 241.5,-92 241.5,-62 117.5,-62"/>
<text text-anchor="start" x="125.5" y="-80" font-family="Helvetica,sans-Serif" font-size="10.00">JSystem/J3DGraphBase</text>
<text text-anchor="middle" x="179.5" y="-69" font-family="Helvetica,sans-Serif" font-size="10.00">/J3DTevs.h</text>
</a>
</g>
</g>
<!-- Node1&#45;&gt;Node4 -->
<g id="edge3" class="edge">
<title>Node1&#45;&gt;Node4</title>
<path fill="none" stroke="midnightblue" d="M1653.18,-148.32C1397.24,-147.33 525.64,-140.83 250.5,-98 244.74,-97.1 238.79,-95.9 232.9,-94.51"/>
<polygon fill="midnightblue" stroke="midnightblue" points="233.62,-91.09 223.07,-92.05 231.92,-97.88 233.62,-91.09"/>
</g>
<!-- Node5 -->
<g id="node5" class="node">
<title>Node5</title>
<g id="a_node5"><a xlink:title=" ">
<polygon fill="white" stroke="#bfbfbf" points="259,-62 259,-92 444,-92 444,-62 259,-62"/>
<text text-anchor="start" x="267" y="-80" font-family="Helvetica,sans-Serif" font-size="10.00">asm/JSystem/J3DGraphBase</text>
<text text-anchor="middle" x="351.5" y="-69" font-family="Helvetica,sans-Serif" font-size="10.00">/J3DTevs/load__11J3DLightObjCFUl.s</text>
</a>
</g>
</g>
<!-- Node1&#45;&gt;Node5 -->
<g id="edge5" class="edge">
<title>Node1&#45;&gt;Node5</title>
<path fill="none" stroke="midnightblue" d="M1653.27,-147.11C1421.23,-142.37 688.6,-125.55 453.5,-98 444.19,-96.91 434.46,-95.44 424.86,-93.78"/>
<polygon fill="midnightblue" stroke="midnightblue" points="425.38,-90.32 414.92,-92 424.15,-97.21 425.38,-90.32"/>
</g>
<!-- Node6 -->
<g id="node6" class="node">
<title>Node6</title>
<g id="a_node6"><a xlink:title=" ">
<polygon fill="white" stroke="#bfbfbf" points="462.5,-56.5 462.5,-97.5 608.5,-97.5 608.5,-56.5 462.5,-56.5"/>
<text text-anchor="start" x="470.5" y="-85.5" font-family="Helvetica,sans-Serif" font-size="10.00">asm/JSystem/J3DGraphBase</text>
<text text-anchor="start" x="470.5" y="-74.5" font-family="Helvetica,sans-Serif" font-size="10.00">/J3DTevs/loadTexCoordGens</text>
<text text-anchor="middle" x="535.5" y="-63.5" font-family="Helvetica,sans-Serif" font-size="10.00">__FUlP11J3DTexCoord.s</text>
</a>
</g>
</g>
<!-- Node1&#45;&gt;Node6 -->
<g id="edge6" class="edge">
<title>Node1&#45;&gt;Node6</title>
<path fill="none" stroke="midnightblue" d="M1653.29,-147.05C1444.94,-142.54 838.02,-127.33 618.82,-98"/>
<polygon fill="midnightblue" stroke="midnightblue" points="619.07,-94.5 608.68,-96.59 618.1,-101.43 619.07,-94.5"/>
</g>
<!-- Node7 -->
<g id="node7" class="node">
<title>Node7</title>
<g id="a_node7"><a xlink:title=" ">
<polygon fill="white" stroke="#bfbfbf" points="626.5,-62 626.5,-92 800.5,-92 800.5,-62 626.5,-62"/>
<text text-anchor="start" x="634.5" y="-80" font-family="Helvetica,sans-Serif" font-size="10.00">asm/JSystem/J3DGraphBase</text>
<text text-anchor="middle" x="713.5" y="-69" font-family="Helvetica,sans-Serif" font-size="10.00">/J3DTevs/load__9J3DTexMtxCFUl.s</text>
</a>
</g>
</g>
<!-- Node1&#45;&gt;Node7 -->
<g id="edge7" class="edge">
<title>Node1&#45;&gt;Node7</title>
<path fill="none" stroke="midnightblue" d="M1653.35,-148.15C1499.13,-146.6 1122.74,-138.59 810.5,-98 802.11,-96.91 793.35,-95.5 784.69,-93.93"/>
<polygon fill="midnightblue" stroke="midnightblue" points="785.06,-90.44 774.58,-92.03 783.76,-97.32 785.06,-90.44"/>
</g>
<!-- Node8 -->
<g id="node8" class="node">
<title>Node8</title>
<g id="a_node8"><a xlink:title=" ">
<polygon fill="white" stroke="#bfbfbf" points="819,-62 819,-92 1010,-92 1010,-62 819,-62"/>
<text text-anchor="start" x="827" y="-80" font-family="Helvetica,sans-Serif" font-size="10.00">asm/JSystem/J3DGraphBase</text>
<text text-anchor="middle" x="914.5" y="-69" font-family="Helvetica,sans-Serif" font-size="10.00">/J3DTevs/calc__9J3DTexMtxFPA4_Cf.s</text>
</a>
</g>
</g>
<!-- Node1&#45;&gt;Node8 -->
<g id="edge8" class="edge">
<title>Node1&#45;&gt;Node8</title>
<path fill="none" stroke="midnightblue" d="M1653.43,-146.15C1525.96,-141.33 1250.23,-128.13 1019.5,-98 1010.51,-96.83 1001.14,-95.37 991.84,-93.79"/>
<polygon fill="midnightblue" stroke="midnightblue" points="992.27,-90.31 981.81,-92.03 991.05,-97.2 992.27,-90.31"/>
</g>
<!-- Node9 -->
<g id="node9" class="node">
<title>Node9</title>
<g id="a_node9"><a xlink:title=" ">
<polygon fill="white" stroke="#bfbfbf" points="1028.5,-56.5 1028.5,-97.5 1204.5,-97.5 1204.5,-56.5 1028.5,-56.5"/>
<text text-anchor="start" x="1036.5" y="-85.5" font-family="Helvetica,sans-Serif" font-size="10.00">asm/JSystem/J3DGraphBase</text>
<text text-anchor="start" x="1036.5" y="-74.5" font-family="Helvetica,sans-Serif" font-size="10.00">/J3DTevs/calcTexMtx__9J3DTexMtx</text>
<text text-anchor="middle" x="1116.5" y="-63.5" font-family="Helvetica,sans-Serif" font-size="10.00">FPA4_Cf.s</text>
</a>
</g>
</g>
<!-- Node1&#45;&gt;Node9 -->
<g id="edge9" class="edge">
<title>Node1&#45;&gt;Node9</title>
<path fill="none" stroke="midnightblue" d="M1653.11,-143.82C1556.09,-136.93 1377.03,-122.34 1214.88,-98.13"/>
<polygon fill="midnightblue" stroke="midnightblue" points="1215.13,-94.63 1204.72,-96.6 1214.08,-101.55 1215.13,-94.63"/>
</g>
<!-- Node10 -->
<g id="node10" class="node">
<title>Node10</title>
<g id="a_node10"><a xlink:title=" ">
<polygon fill="white" stroke="#bfbfbf" points="1222.5,-56.5 1222.5,-97.5 1368.5,-97.5 1368.5,-56.5 1222.5,-56.5"/>
<text text-anchor="start" x="1230.5" y="-85.5" font-family="Helvetica,sans-Serif" font-size="10.00">asm/JSystem/J3DGraphBase</text>
<text text-anchor="start" x="1230.5" y="-74.5" font-family="Helvetica,sans-Serif" font-size="10.00">/J3DTevs/calcPostTexMtx</text>
<text text-anchor="middle" x="1295.5" y="-63.5" font-family="Helvetica,sans-Serif" font-size="10.00">__9J3DTexMtxFPA4_Cf.s</text>
</a>
</g>
</g>
<!-- Node1&#45;&gt;Node10 -->
<g id="edge10" class="edge">
<title>Node1&#45;&gt;Node10</title>
<path fill="none" stroke="midnightblue" d="M1653.28,-140.04C1585.36,-131.53 1480.03,-117.2 1378.84,-97.97"/>
<polygon fill="midnightblue" stroke="midnightblue" points="1379.22,-94.48 1368.74,-96.03 1377.9,-101.36 1379.22,-94.48"/>
</g>
<!-- Node11 -->
<g id="node11" class="node">
<title>Node11</title>
<g id="a_node11"><a xlink:title=" ">
<polygon fill="white" stroke="#bfbfbf" points="1387,-62 1387,-92 1538,-92 1538,-62 1387,-62"/>
<text text-anchor="start" x="1395" y="-80" font-family="Helvetica,sans-Serif" font-size="10.00">asm/JSystem/J3DGraphBase</text>
<text text-anchor="middle" x="1462.5" y="-69" font-family="Helvetica,sans-Serif" font-size="10.00">/J3DTevs/isTexNoReg__FPv.s</text>
</a>
</g>
</g>
<!-- Node1&#45;&gt;Node11 -->
<g id="edge11" class="edge">
<title>Node1&#45;&gt;Node11</title>
<path fill="none" stroke="midnightblue" d="M1672.42,-134.49C1629.88,-123.04 1569.63,-106.83 1524.58,-94.71"/>
<polygon fill="midnightblue" stroke="midnightblue" points="1525.49,-91.33 1514.93,-92.11 1523.67,-98.09 1525.49,-91.33"/>
</g>
<!-- Node12 -->
<g id="node12" class="node">
<title>Node12</title>
<g id="a_node12"><a xlink:title=" ">
<polygon fill="white" stroke="#bfbfbf" points="1556,-62 1556,-92 1713,-92 1713,-62 1556,-62"/>
<text text-anchor="start" x="1564" y="-80" font-family="Helvetica,sans-Serif" font-size="10.00">asm/JSystem/J3DGraphBase</text>
<text text-anchor="middle" x="1634.5" y="-69" font-family="Helvetica,sans-Serif" font-size="10.00">/J3DTevs/getTexNoReg__FPv.s</text>
</a>
</g>
</g>
<!-- Node1&#45;&gt;Node12 -->
<g id="edge12" class="edge">
<title>Node1&#45;&gt;Node12</title>
<path fill="none" stroke="midnightblue" d="M1706.29,-134.23C1693.15,-123.94 1675.22,-109.9 1660.57,-98.42"/>
<polygon fill="midnightblue" stroke="midnightblue" points="1662.41,-95.42 1652.38,-92 1658.09,-100.93 1662.41,-95.42"/>
</g>
<!-- Node13 -->
<g id="node13" class="node">
<title>Node13</title>
<g id="a_node13"><a xlink:title=" ">
<polygon fill="white" stroke="#bfbfbf" points="1731.5,-62 1731.5,-92 1899.5,-92 1899.5,-62 1731.5,-62"/>
<text text-anchor="start" x="1739.5" y="-80" font-family="Helvetica,sans-Serif" font-size="10.00">asm/JSystem/J3DGraphBase</text>
<text text-anchor="middle" x="1815.5" y="-69" font-family="Helvetica,sans-Serif" font-size="10.00">/J3DTevs/loadTexNo__FUlRCUs.s</text>
</a>
</g>
</g>
<!-- Node1&#45;&gt;Node13 -->
<g id="edge13" class="edge">
<title>Node1&#45;&gt;Node13</title>
<path fill="none" stroke="midnightblue" d="M1742.92,-134.23C1756.2,-123.94 1774.33,-109.9 1789.14,-98.42"/>
<polygon fill="midnightblue" stroke="midnightblue" points="1791.66,-100.9 1797.42,-92 1787.37,-95.36 1791.66,-100.9"/>
</g>
<!-- Node14 -->
<g id="node14" class="node">
<title>Node14</title>
<g id="a_node14"><a xlink:title=" ">
<polygon fill="white" stroke="#bfbfbf" points="1917.5,-56.5 1917.5,-97.5 2073.5,-97.5 2073.5,-56.5 1917.5,-56.5"/>
<text text-anchor="start" x="1925.5" y="-85.5" font-family="Helvetica,sans-Serif" font-size="10.00">asm/JSystem/J3DGraphBase</text>
<text text-anchor="start" x="1925.5" y="-74.5" font-family="Helvetica,sans-Serif" font-size="10.00">/J3DTevs/patchTexNo_PtrToIdx</text>
<text text-anchor="middle" x="1995.5" y="-63.5" font-family="Helvetica,sans-Serif" font-size="10.00">__FUlRCUs.s</text>
</a>
</g>
</g>
<!-- Node1&#45;&gt;Node14 -->
<g id="edge14" class="edge">
<title>Node1&#45;&gt;Node14</title>
<path fill="none" stroke="midnightblue" d="M1778.36,-134.49C1816.1,-124.67 1867.3,-111.35 1910.51,-100.11"/>
<polygon fill="midnightblue" stroke="midnightblue" points="1911.65,-103.43 1920.45,-97.53 1909.89,-96.66 1911.65,-103.43"/>
</g>
<!-- Node15 -->
<g id="node15" class="node">
<title>Node15</title>
<g id="a_node15"><a xlink:title=" ">
<polygon fill="white" stroke="#bfbfbf" points="2091.5,-56.5 2091.5,-97.5 2237.5,-97.5 2237.5,-56.5 2091.5,-56.5"/>
<text text-anchor="start" x="2099.5" y="-85.5" font-family="Helvetica,sans-Serif" font-size="10.00">asm/JSystem/J3DGraphBase</text>
<text text-anchor="start" x="2099.5" y="-74.5" font-family="Helvetica,sans-Serif" font-size="10.00">/J3DTevs/loadNBTScale_</text>
<text text-anchor="middle" x="2164.5" y="-63.5" font-family="Helvetica,sans-Serif" font-size="10.00">_FR11J3DNBTScale.s</text>
</a>
</g>
</g>
<!-- Node1&#45;&gt;Node15 -->
<g id="edge15" class="edge">
<title>Node1&#45;&gt;Node15</title>
<path fill="none" stroke="midnightblue" d="M1795.83,-140.55C1866.06,-132.24 1976.55,-117.9 2081.16,-98.17"/>
<polygon fill="midnightblue" stroke="midnightblue" points="2082.09,-101.55 2091.26,-96.24 2080.78,-94.68 2082.09,-101.55"/>
</g>
<!-- Node16 -->
<g id="node16" class="node">
<title>Node16</title>
<g id="a_node16"><a xlink:title=" ">
<polygon fill="white" stroke="#bfbfbf" points="2255.5,-62 2255.5,-92 2435.5,-92 2435.5,-62 2255.5,-62"/>
<text text-anchor="start" x="2263.5" y="-80" font-family="Helvetica,sans-Serif" font-size="10.00">asm/JSystem/J3DGraphBase</text>
<text text-anchor="middle" x="2345.5" y="-69" font-family="Helvetica,sans-Serif" font-size="10.00">/J3DTevs/makeTexCoordTable__Fv.s</text>
</a>
</g>
</g>
<!-- Node1&#45;&gt;Node16 -->
<g id="edge16" class="edge">
<title>Node1&#45;&gt;Node16</title>
<path fill="none" stroke="midnightblue" d="M1795.71,-143.94C1896.45,-136.97 2086.2,-121.88 2246.5,-98 2254.45,-96.82 2262.73,-95.41 2270.97,-93.91"/>
<polygon fill="midnightblue" stroke="midnightblue" points="2271.78,-97.32 2280.97,-92.03 2270.49,-90.44 2271.78,-97.32"/>
</g>
<!-- Node17 -->
<g id="node17" class="node">
<title>Node17</title>
<g id="a_node17"><a xlink:title=" ">
<polygon fill="white" stroke="#bfbfbf" points="2453.5,-62 2453.5,-92 2637.5,-92 2637.5,-62 2453.5,-62"/>
<text text-anchor="start" x="2461.5" y="-80" font-family="Helvetica,sans-Serif" font-size="10.00">asm/JSystem/J3DGraphBase</text>
<text text-anchor="middle" x="2545.5" y="-69" font-family="Helvetica,sans-Serif" font-size="10.00">/J3DTevs/makeAlphaCmpTable__Fv.s</text>
</a>
</g>
</g>
<!-- Node1&#45;&gt;Node17 -->
<g id="edge17" class="edge">
<title>Node1&#45;&gt;Node17</title>
<path fill="none" stroke="midnightblue" d="M1795.57,-146.47C1925.1,-142.12 2208.05,-129.58 2444.5,-98 2453.13,-96.85 2462.12,-95.41 2471.04,-93.84"/>
<polygon fill="midnightblue" stroke="midnightblue" points="2471.83,-97.25 2481.04,-92.02 2470.58,-90.37 2471.83,-97.25"/>
</g>
<!-- Node18 -->
<g id="node18" class="node">
<title>Node18</title>
<g id="a_node18"><a xlink:title=" ">
<polygon fill="white" stroke="#bfbfbf" points="2656,-62 2656,-92 2825,-92 2825,-62 2656,-62"/>
<text text-anchor="start" x="2664" y="-80" font-family="Helvetica,sans-Serif" font-size="10.00">asm/JSystem/J3DGraphBase</text>
<text text-anchor="middle" x="2740.5" y="-69" font-family="Helvetica,sans-Serif" font-size="10.00">/J3DTevs/makeZModeTable__Fv.s</text>
</a>
</g>
</g>
<!-- Node1&#45;&gt;Node18 -->
<g id="edge18" class="edge">
<title>Node1&#45;&gt;Node18</title>
<path fill="none" stroke="midnightblue" d="M1795.7,-148.35C1950.94,-147.19 2331.26,-139.91 2646.5,-98 2654.55,-96.93 2662.95,-95.54 2671.26,-94"/>
<polygon fill="midnightblue" stroke="midnightblue" points="2672.17,-97.39 2681.32,-92.05 2670.84,-90.51 2672.17,-97.39"/>
</g>
<!-- Node19 -->
<g id="node19" class="node">
<title>Node19</title>
<g id="a_node19"><a xlink:title=" ">
<polygon fill="white" stroke="#bfbfbf" points="2843.5,-62 2843.5,-92 3023.5,-92 3023.5,-62 2843.5,-62"/>
<text text-anchor="start" x="2851.5" y="-80" font-family="Helvetica,sans-Serif" font-size="10.00">asm/JSystem/J3DGraphBase</text>
<text text-anchor="middle" x="2933.5" y="-69" font-family="Helvetica,sans-Serif" font-size="10.00">/J3DTevs/makeTevSwapTable__Fv.s</text>
</a>
</g>
</g>
<!-- Node1&#45;&gt;Node19 -->
<g id="edge19" class="edge">
<title>Node1&#45;&gt;Node19</title>
<path fill="none" stroke="midnightblue" d="M1795.59,-149.04C1972.12,-149.58 2444.39,-145.99 2834.5,-98 2843.38,-96.91 2852.66,-95.46 2861.82,-93.83"/>
<polygon fill="midnightblue" stroke="midnightblue" points="2862.49,-97.27 2871.69,-92.01 2861.22,-90.38 2862.49,-97.27"/>
</g>
<!-- Node20 -->
<g id="node20" class="node">
<title>Node20</title>
<g id="a_node20"><a xlink:title=" ">
<polygon fill="white" stroke="#bfbfbf" points="3041.5,-56.5 3041.5,-97.5 3217.5,-97.5 3217.5,-56.5 3041.5,-56.5"/>
<text text-anchor="start" x="3049.5" y="-85.5" font-family="Helvetica,sans-Serif" font-size="10.00">asm/JSystem/J3DGraphBase</text>
<text text-anchor="start" x="3049.5" y="-74.5" font-family="Helvetica,sans-Serif" font-size="10.00">/J3DTevs/loadTexMtx__9J3DTexMtx</text>
<text text-anchor="middle" x="3129.5" y="-63.5" font-family="Helvetica,sans-Serif" font-size="10.00">CFUl.s</text>
</a>
</g>
</g>
<!-- Node1&#45;&gt;Node20 -->
<g id="edge20" class="edge">
<title>Node1&#45;&gt;Node20</title>
<path fill="none" stroke="midnightblue" d="M1795.74,-147.3C2029.12,-143.12 2770.1,-127.89 3031.11,-98.03"/>
<polygon fill="midnightblue" stroke="midnightblue" points="3031.79,-101.47 3041.31,-96.82 3030.97,-94.52 3031.79,-101.47"/>
</g>
<!-- Node21 -->
<g id="node21" class="node">
<title>Node21</title>
<g id="a_node21"><a xlink:title=" ">
<polygon fill="white" stroke="#bfbfbf" points="3235.5,-56.5 3235.5,-97.5 3381.5,-97.5 3381.5,-56.5 3235.5,-56.5"/>
<text text-anchor="start" x="3243.5" y="-85.5" font-family="Helvetica,sans-Serif" font-size="10.00">asm/JSystem/J3DGraphBase</text>
<text text-anchor="start" x="3243.5" y="-74.5" font-family="Helvetica,sans-Serif" font-size="10.00">/J3DTevs/loadPostTexMtx</text>
<text text-anchor="middle" x="3308.5" y="-63.5" font-family="Helvetica,sans-Serif" font-size="10.00">__9J3DTexMtxCFUl.s</text>
</a>
</g>
</g>
<!-- Node1&#45;&gt;Node21 -->
<g id="edge21" class="edge">
<title>Node1&#45;&gt;Node21</title>
<path fill="none" stroke="midnightblue" d="M1795.78,-148.05C2051.78,-146.11 2924.99,-136.87 3225.32,-97.97"/>
<polygon fill="midnightblue" stroke="midnightblue" points="3225.88,-101.43 3235.33,-96.64 3224.95,-94.49 3225.88,-101.43"/>
</g>
<!-- Node22 -->
<g id="node22" class="node">
<title>Node22</title>
<g id="a_node22"><a xlink:title=" ">
<polygon fill="white" stroke="#bfbfbf" points="3399.5,-56.5 3399.5,-97.5 3565.5,-97.5 3565.5,-56.5 3399.5,-56.5"/>
<text text-anchor="start" x="3407.5" y="-85.5" font-family="Helvetica,sans-Serif" font-size="10.00">asm/JSystem/J3DGraphBase</text>
<text text-anchor="start" x="3407.5" y="-74.5" font-family="Helvetica,sans-Serif" font-size="10.00">/J3DTevs/J3DGDLoadTexMtxImm</text>
<text text-anchor="middle" x="3482.5" y="-63.5" font-family="Helvetica,sans-Serif" font-size="10.00">__FPA4_fUl13_GXTexMtxType.s</text>
</a>
</g>
</g>
<!-- Node1&#45;&gt;Node22 -->
<g id="edge22" class="edge">
<title>Node1&#45;&gt;Node22</title>
<path fill="none" stroke="midnightblue" d="M1795.8,-148.08C2069.56,-146.22 3054.27,-136.96 3389.17,-98.01"/>
<polygon fill="midnightblue" stroke="midnightblue" points="3389.86,-101.45 3399.37,-96.79 3389.03,-94.5 3389.86,-101.45"/>
</g>
<!-- Node23 -->
<g id="node23" class="node">
<title>Node23</title>
<g id="a_node23"><a xlink:title=" ">
<polygon fill="white" stroke="#bfbfbf" points="3583.5,-56.5 3583.5,-97.5 3769.5,-97.5 3769.5,-56.5 3583.5,-56.5"/>
<text text-anchor="start" x="3591.5" y="-85.5" font-family="Helvetica,sans-Serif" font-size="10.00">asm/JSystem/J3DGraphBase</text>
<text text-anchor="start" x="3591.5" y="-74.5" font-family="Helvetica,sans-Serif" font-size="10.00">/J3DTevs/J3DGDLoadPostTexMtxImm</text>
<text text-anchor="middle" x="3676.5" y="-63.5" font-family="Helvetica,sans-Serif" font-size="10.00">__FPA4_fUl.s</text>
</a>
</g>
</g>
<!-- Node1&#45;&gt;Node23 -->
<g id="edge23" class="edge">
<title>Node1&#45;&gt;Node23</title>
<path fill="none" stroke="midnightblue" d="M1795.97,-148.14C2088.99,-146.41 3200.1,-137.43 3573.46,-97.99"/>
<polygon fill="midnightblue" stroke="midnightblue" points="3573.92,-101.46 3583.49,-96.9 3573.17,-94.5 3573.92,-101.46"/>
</g>
<!-- Node4&#45;&gt;Node3 -->
<g id="edge4" class="edge">
<title>Node4&#45;&gt;Node3</title>
<path fill="none" stroke="midnightblue" d="M169.74,-61.9C162.86,-51.96 153.61,-38.61 146.32,-28.07"/>
<polygon fill="midnightblue" stroke="midnightblue" points="149.09,-25.92 140.52,-19.69 143.33,-29.91 149.09,-25.92"/>
</g>
</g>
</svg>
        <g id="navigator" transform="translate(0 0)" fill="#404254">
                <rect fill="#f2f5e9" fill-opacity="0.5" stroke="#606060" stroke-width=".5" x="0" y="0" width="60" height="60"/>
                <use id="zoomplus" xlink:href="#zoomPlus" x="17" y="9" onmousedown="handleZoom(evt,'in')"/>
                <use id="zoomminus" xlink:href="#zoomMin" x="42" y="9" onmousedown="handleZoom(evt,'out')"/>
                <use id="reset" xlink:href="#resetDef" x="30" y="36" onmousedown="handleReset()"/>
                <g id="arrowUp" xlink:href="#dirArrow" transform="translate(30 24)" onmousedown="handlePan(0,-1)">
                  <use xlink:href="#rim" fill="#404040">
                        <set attributeName="fill" to="#808080" begin="arrowUp.mouseover" end="arrowUp.mouseout"/>
                  </use>
                  <path fill="none" stroke="white" stroke-width="1.5" d="M0,-3.0v7 M-2.5,-0.5L0,-3.0L2.5,-0.5"/>
                </g>
                <g id="arrowRight" xlink:href="#dirArrow" transform="rotate(90) translate(36 -43)" onmousedown="handlePan(1,0)">
                  <use xlink:href="#rim" fill="#404040">
                        <set attributeName="fill" to="#808080" begin="arrowRight.mouseover" end="arrowRight.mouseout"/>
                  </use>
                  <path fill="none" stroke="white" stroke-width="1.5" d="M0,-3.0v7 M-2.5,-0.5L0,-3.0L2.5,-0.5"/>
                </g>
                <g id="arrowDown" xlink:href="#dirArrow" transform="rotate(180) translate(-30 -48)" onmousedown="handlePan(0,1)">
                  <use xlink:href="#rim" fill="#404040">
                        <set attributeName="fill" to="#808080" begin="arrowDown.mouseover" end="arrowDown.mouseout"/>
                  </use>
                  <path fill="none" stroke="white" stroke-width="1.5" d="M0,-3.0v7 M-2.5,-0.5L0,-3.0L2.5,-0.5"/>
                </g>
                <g id="arrowLeft" xlink:href="#dirArrow" transform="rotate(270) translate(-36 17)" onmousedown="handlePan(-1,0)">
                  <use xlink:href="#rim" fill="#404040">
                        <set attributeName="fill" to="#808080" begin="arrowLeft.mouseover" end="arrowLeft.mouseout"/>
                  </use>
                  <path fill="none" stroke="white" stroke-width="1.5" d="M0,-3.0v7 M-2.5,-0.5L0,-3.0L2.5,-0.5"/>
                </g>
        </g>
        <svg viewBox="0 0 15 15" width="100%" height="30px" preserveAspectRatio="xMaxYMin meet">
         <g id="arrow_out" transform="scale(0.3 0.3)">
          <a xlink:href="J3DTevs_8cpp__incl_org.svg" target="_base">
           <rect id="button" ry="5" rx="5" y="6" x="6" height="38" width="38"
                fill="#f2f5e9" fill-opacity="0.5" stroke="#606060" stroke-width="1.0"/>
           <path id="arrow"
             d="M 11.500037,31.436501 C 11.940474,20.09759 22.043105,11.32322 32.158766,21.979434 L 37.068811,17.246167 C 37.068811,17.246167 37.088388,32 37.088388,32 L 22.160133,31.978069 C 22.160133,31.978069 26.997745,27.140456 26.997745,27.140456 C 18.528582,18.264221 13.291696,25.230495 11.500037,31.436501 z"
             style="fill:#404040;"/>
          </a>
         </g>
        </svg>
</svg>
