<?xml version="1.0" encoding="UTF-8" standalone="no"?>
<!DOCTYPE svg PUBLIC "-//W3C//DTD SVG 1.1//EN"
 "http://www.w3.org/Graphics/SVG/1.1/DTD/svg11.dtd">
<!-- Generated by graphviz version 2.47.0 (20210316.2052)
 -->
<!-- Title: libs/JSystem/JAudio2/JAIAudience.cpp Pages: 1 -->
<svg width="495pt" height="162pt"
 viewBox="0.00 0.00 494.50 162.00" xmlns="http://www.w3.org/2000/svg" xmlns:xlink="http://www.w3.org/1999/xlink">
<g id="graph0" class="graph" transform="scale(1 1) rotate(0) translate(4 158)">
<title>libs/JSystem/JAudio2/JAIAudience.cpp</title>
<polygon fill="white" stroke="transparent" points="-4,4 -4,-158 490.5,-158 490.5,4 -4,4"/>
<!-- Node1 -->
<g id="node1" class="node">
<title>Node1</title>
<g id="a_node1"><a xlink:title=" ">
<polygon fill="#bfbfbf" stroke="black" points="87,-123.5 87,-153.5 198,-153.5 198,-123.5 87,-123.5"/>
<text text-anchor="start" x="95" y="-141.5" font-family="Helvetica,sans-Serif" font-size="10.00">libs/JSystem/JAudio2</text>
<text text-anchor="middle" x="142.5" y="-130.5" font-family="Helvetica,sans-Serif" font-size="10.00">/JAIAudience.cpp</text>
</a>
</g>
</g>
<!-- Node2 -->
<g id="node2" class="node">
<title>Node2</title>
<g id="a_node2"><a xlink:href="dol2asm_8h.html" target="_top" xlink:title=" ">
<polygon fill="white" stroke="black" points="0,-62 0,-81 61,-81 61,-62 0,-62"/>
<text text-anchor="middle" x="30.5" y="-69" font-family="Helvetica,sans-Serif" font-size="10.00">dol2asm.h</text>
</a>
</g>
</g>
<!-- Node1&#45;&gt;Node2 -->
<g id="edge1" class="edge">
<title>Node1&#45;&gt;Node2</title>
<path fill="none" stroke="midnightblue" d="M118.2,-123.4C99.15,-112.34 72.82,-97.06 53.99,-86.13"/>
<polygon fill="midnightblue" stroke="midnightblue" points="55.56,-83 45.16,-81.01 52.05,-89.05 55.56,-83"/>
</g>
<!-- Node3 -->
<g id="node3" class="node">
<title>Node3</title>
<g id="a_node3"><a xlink:href="types_8h.html" target="_top" xlink:title=" ">
<polygon fill="white" stroke="black" points="102,-0.5 102,-19.5 183,-19.5 183,-0.5 102,-0.5"/>
<text text-anchor="middle" x="142.5" y="-7.5" font-family="Helvetica,sans-Serif" font-size="10.00">dolphin/types.h</text>
</a>
</g>
</g>
<!-- Node1&#45;&gt;Node3 -->
<g id="edge2" class="edge">
<title>Node1&#45;&gt;Node3</title>
<path fill="none" stroke="midnightblue" d="M129.51,-123.25C121.76,-113.75 112.64,-100.55 108.5,-87 104.48,-73.82 104.12,-69.06 108.5,-56 112.1,-45.25 119.4,-35.02 126.32,-27.04"/>
<polygon fill="midnightblue" stroke="midnightblue" points="128.98,-29.32 133.21,-19.61 123.85,-24.56 128.98,-29.32"/>
</g>
<!-- Node4 -->
<g id="node4" class="node">
<title>Node4</title>
<g id="a_node4"><a xlink:href="JAIAudience_8h.html" target="_top" xlink:title=" ">
<polygon fill="white" stroke="black" points="117,-62 117,-81 276,-81 276,-62 117,-62"/>
<text text-anchor="middle" x="196.5" y="-69" font-family="Helvetica,sans-Serif" font-size="10.00">JSystem/JAudio2/JAIAudience.h</text>
</a>
</g>
</g>
<!-- Node1&#45;&gt;Node4 -->
<g id="edge3" class="edge">
<title>Node1&#45;&gt;Node4</title>
<path fill="none" stroke="midnightblue" d="M154.22,-123.4C162.64,-113.26 174.01,-99.57 182.84,-88.94"/>
<polygon fill="midnightblue" stroke="midnightblue" points="185.58,-91.12 189.28,-81.19 180.19,-86.65 185.58,-91.12"/>
</g>
<!-- Node5 -->
<g id="node5" class="node">
<title>Node5</title>
<g id="a_node5"><a xlink:title=" ">
<polygon fill="white" stroke="#bfbfbf" points="294.5,-56.5 294.5,-86.5 486.5,-86.5 486.5,-56.5 294.5,-56.5"/>
<text text-anchor="start" x="302.5" y="-74.5" font-family="Helvetica,sans-Serif" font-size="10.00">asm/JSystem/JAudio2</text>
<text text-anchor="middle" x="390.5" y="-63.5" font-family="Helvetica,sans-Serif" font-size="10.00">/JAIAudience/__dt__11JAIAudienceFv.s</text>
</a>
</g>
</g>
<!-- Node1&#45;&gt;Node5 -->
<g id="edge5" class="edge">
<title>Node1&#45;&gt;Node5</title>
<path fill="none" stroke="midnightblue" d="M196.01,-123.48C234.42,-113.41 286.34,-99.8 326.88,-89.17"/>
<polygon fill="midnightblue" stroke="midnightblue" points="327.88,-92.53 336.66,-86.61 326.1,-85.76 327.88,-92.53"/>
</g>
<!-- Node4&#45;&gt;Node3 -->
<g id="edge4" class="edge">
<title>Node4&#45;&gt;Node3</title>
<path fill="none" stroke="midnightblue" d="M188.76,-61.98C180.5,-52.87 167.22,-38.24 157.01,-26.98"/>
<polygon fill="midnightblue" stroke="midnightblue" points="159.53,-24.56 150.22,-19.51 154.35,-29.27 159.53,-24.56"/>
</g>
</g>
</svg>
