<?xml version="1.0" encoding="UTF-8" standalone="no"?>
<!DOCTYPE svg PUBLIC "-//W3C//DTD SVG 1.1//EN"
 "http://www.w3.org/Graphics/SVG/1.1/DTD/svg11.dtd">
<!-- Generated by graphviz version 2.47.0 (20210316.2052)
 -->
<!-- Title: libs/JSystem/JAudio2/JAIAudible.cpp Pages: 1 -->
<svg width="472pt" height="162pt"
 viewBox="0.00 0.00 471.50 162.00" xmlns="http://www.w3.org/2000/svg" xmlns:xlink="http://www.w3.org/1999/xlink">
<g id="graph0" class="graph" transform="scale(1 1) rotate(0) translate(4 158)">
<title>libs/JSystem/JAudio2/JAIAudible.cpp</title>
<polygon fill="white" stroke="transparent" points="-4,4 -4,-158 467.5,-158 467.5,4 -4,4"/>
<!-- Node1 -->
<g id="node1" class="node">
<title>Node1</title>
<g id="a_node1"><a xlink:title=" ">
<polygon fill="#bfbfbf" stroke="black" points="86,-123.5 86,-153.5 197,-153.5 197,-123.5 86,-123.5"/>
<text text-anchor="start" x="94" y="-141.5" font-family="Helvetica,sans-Serif" font-size="10.00">libs/JSystem/JAudio2</text>
<text text-anchor="middle" x="141.5" y="-130.5" font-family="Helvetica,sans-Serif" font-size="10.00">/JAIAudible.cpp</text>
</a>
</g>
</g>
<!-- Node2 -->
<g id="node2" class="node">
<title>Node2</title>
<g id="a_node2"><a xlink:href="dol2asm_8h.html" target="_top" xlink:title=" ">
<polygon fill="white" stroke="black" points="0,-62 0,-81 61,-81 61,-62 0,-62"/>
<text text-anchor="middle" x="30.5" y="-69" font-family="Helvetica,sans-Serif" font-size="10.00">dol2asm.h</text>
</a>
</g>
</g>
<!-- Node1&#45;&gt;Node2 -->
<g id="edge1" class="edge">
<title>Node1&#45;&gt;Node2</title>
<path fill="none" stroke="midnightblue" d="M117.41,-123.4C98.54,-112.34 72.44,-97.06 53.78,-86.13"/>
<polygon fill="midnightblue" stroke="midnightblue" points="55.43,-83.04 45.03,-81.01 51.89,-89.08 55.43,-83.04"/>
</g>
<!-- Node3 -->
<g id="node3" class="node">
<title>Node3</title>
<g id="a_node3"><a xlink:href="types_8h.html" target="_top" xlink:title=" ">
<polygon fill="white" stroke="black" points="101,-0.5 101,-19.5 182,-19.5 182,-0.5 101,-0.5"/>
<text text-anchor="middle" x="141.5" y="-7.5" font-family="Helvetica,sans-Serif" font-size="10.00">dolphin/types.h</text>
</a>
</g>
</g>
<!-- Node1&#45;&gt;Node3 -->
<g id="edge2" class="edge">
<title>Node1&#45;&gt;Node3</title>
<path fill="none" stroke="midnightblue" d="M129.26,-123.12C121.96,-113.57 113.38,-100.36 109.5,-87 105.66,-73.77 105.31,-69.12 109.5,-56 112.84,-45.54 119.6,-35.43 126.05,-27.45"/>
<polygon fill="midnightblue" stroke="midnightblue" points="128.85,-29.56 132.75,-19.71 123.56,-24.98 128.85,-29.56"/>
</g>
<!-- Node4 -->
<g id="node4" class="node">
<title>Node4</title>
<g id="a_node4"><a xlink:href="JAIAudible_8h.html" target="_top" xlink:title=" ">
<polygon fill="white" stroke="black" points="118,-62 118,-81 269,-81 269,-62 118,-62"/>
<text text-anchor="middle" x="193.5" y="-69" font-family="Helvetica,sans-Serif" font-size="10.00">JSystem/JAudio2/JAIAudible.h</text>
</a>
</g>
</g>
<!-- Node1&#45;&gt;Node4 -->
<g id="edge3" class="edge">
<title>Node1&#45;&gt;Node4</title>
<path fill="none" stroke="midnightblue" d="M152.78,-123.4C160.81,-113.36 171.63,-99.84 180.1,-89.25"/>
<polygon fill="midnightblue" stroke="midnightblue" points="183.03,-91.19 186.54,-81.19 177.56,-86.82 183.03,-91.19"/>
</g>
<!-- Node5 -->
<g id="node5" class="node">
<title>Node5</title>
<g id="a_node5"><a xlink:title=" ">
<polygon fill="white" stroke="#bfbfbf" points="287.5,-56.5 287.5,-86.5 463.5,-86.5 463.5,-56.5 287.5,-56.5"/>
<text text-anchor="start" x="295.5" y="-74.5" font-family="Helvetica,sans-Serif" font-size="10.00">asm/JSystem/JAudio2</text>
<text text-anchor="middle" x="375.5" y="-63.5" font-family="Helvetica,sans-Serif" font-size="10.00">/JAIAudible/__dt__10JAIAudibleFv.s</text>
</a>
</g>
</g>
<!-- Node1&#45;&gt;Node5 -->
<g id="edge5" class="edge">
<title>Node1&#45;&gt;Node5</title>
<path fill="none" stroke="midnightblue" d="M191.99,-123.48C228,-113.47 276.6,-99.97 314.74,-89.38"/>
<polygon fill="midnightblue" stroke="midnightblue" points="316,-92.66 324.7,-86.61 314.13,-85.92 316,-92.66"/>
</g>
<!-- Node4&#45;&gt;Node3 -->
<g id="edge4" class="edge">
<title>Node4&#45;&gt;Node3</title>
<path fill="none" stroke="midnightblue" d="M186.05,-61.98C178.17,-52.96 165.56,-38.52 155.76,-27.31"/>
<polygon fill="midnightblue" stroke="midnightblue" points="158.15,-24.74 148.94,-19.51 152.88,-29.34 158.15,-24.74"/>
</g>
</g>
</svg>
