<?xml version="1.0" encoding="UTF-8" standalone="no"?>
<!DOCTYPE svg PUBLIC "-//W3C//DTD SVG 1.1//EN"
 "http://www.w3.org/Graphics/SVG/1.1/DTD/svg11.dtd">
<!-- Generated by graphviz version 2.47.0 (20210316.2052)
 -->
<!-- Title: libs/JSystem/JAudio2/JAISound.cpp Pages: 1 -->
<!--zoomable 184 -->
<svg id="main" version="1.1" xmlns="http://www.w3.org/2000/svg" xmlns:xlink="http://www.w3.org/1999/xlink" xml:space="preserve" onload="init(evt)">
<style type="text/css"><![CDATA[
.edge:hover path { stroke: red; }
.edge:hover polygon { stroke: red; fill: red; }
]]></style>
<script type="text/javascript"><![CDATA[
var edges = document.getElementsByTagName('g');
if (edges && edges.length) {
  for (var i=0;i<edges.length;i++) {
    if (edges[i].id.substr(0,4)=='edge') {
      edges[i].setAttribute('class','edge');
    }
  }
}
]]></script>
        <defs>
                <circle id="rim" cx="0" cy="0" r="7"/>
                <circle id="rim2" cx="0" cy="0" r="3.5"/>
                <g id="zoomPlus">
                        <use xlink:href="#rim" fill="#404040">
                                <set attributeName="fill" to="#808080" begin="zoomplus.mouseover" end="zoomplus.mouseout"/>
                        </use>
                        <path d="M-4,0h8M0,-4v8" fill="none" stroke="white" stroke-width="1.5" pointer-events="none"/>
                </g>
                <g id="zoomMin">
                        <use xlink:href="#rim" fill="#404040">
                                <set attributeName="fill" to="#808080" begin="zoomminus.mouseover" end="zoomminus.mouseout"/>
                        </use>
                        <path d="M-4,0h8" fill="none" stroke="white" stroke-width="1.5" pointer-events="none"/>
                </g>
                <g id="dirArrow">
                        <path fill="none" stroke="white" stroke-width="1.5" d="M0,-3.0v7 M-2.5,-0.5L0,-3.0L2.5,-0.5"/>
                </g>
               <g id="resetDef">
                       <use xlink:href="#rim2" fill="#404040">
                               <set attributeName="fill" to="#808080" begin="reset.mouseover" end="reset.mouseout"/>
                       </use>
               </g>
        </defs>

<script type="text/javascript">
var viewWidth = 3006;
var viewHeight = 184;
var sectionId = 'dynsection-0';
</script>
<script xlink:href="svgpan.js"/>
<svg id="graph" class="graph">
<g id="viewport">
<title>libs/JSystem/JAudio2/JAISound.cpp</title>
<polygon fill="white" stroke="transparent" points="-4,4 -4,-180 3001.5,-180 3001.5,4 -4,4"/>
<!-- Node1 -->
<g id="node1" class="node">
<title>Node1</title>
<g id="a_node1"><a xlink:title=" ">
<polygon fill="#bfbfbf" stroke="black" points="1323.5,-145.5 1323.5,-175.5 1434.5,-175.5 1434.5,-145.5 1323.5,-145.5"/>
<text text-anchor="start" x="1331.5" y="-163.5" font-family="Helvetica,sans-Serif" font-size="10.00">libs/JSystem/JAudio2</text>
<text text-anchor="middle" x="1379" y="-152.5" font-family="Helvetica,sans-Serif" font-size="10.00">/JAISound.cpp</text>
</a>
</g>
</g>
<!-- Node2 -->
<g id="node2" class="node">
<title>Node2</title>
<g id="a_node2"><a xlink:href="JAISound_8h.html" target="_top" xlink:title=" ">
<polygon fill="white" stroke="black" points="0,-73 0,-92 146,-92 146,-73 0,-73"/>
<text text-anchor="middle" x="73" y="-80" font-family="Helvetica,sans-Serif" font-size="10.00">JSystem/JAudio2/JAISound.h</text>
</a>
</g>
</g>
<!-- Node1&#45;&gt;Node2 -->
<g id="edge1" class="edge">
<title>Node1&#45;&gt;Node2</title>
<path fill="none" stroke="midnightblue" d="M1323.25,-158.99C1115.75,-156.82 388.46,-146.63 160,-109 141.74,-105.99 121.9,-100.37 105.78,-95.16"/>
<polygon fill="midnightblue" stroke="midnightblue" points="106.87,-91.84 96.27,-92.01 104.66,-98.48 106.87,-91.84"/>
</g>
<!-- Node3 -->
<g id="node3" class="node">
<title>Node3</title>
<g id="a_node3"><a xlink:href="types_8h.html" target="_top" xlink:title=" ">
<polygon fill="white" stroke="black" points="82.5,-0.5 82.5,-19.5 163.5,-19.5 163.5,-0.5 82.5,-0.5"/>
<text text-anchor="middle" x="123" y="-7.5" font-family="Helvetica,sans-Serif" font-size="10.00">dolphin/types.h</text>
</a>
</g>
</g>
<!-- Node1&#45;&gt;Node3 -->
<g id="edge4" class="edge">
<title>Node1&#45;&gt;Node3</title>
<path fill="none" stroke="midnightblue" d="M1323.48,-159.95C1102.7,-161.37 294.1,-162.8 194,-109 192.91,-108.42 155.22,-55.96 135.21,-28.05"/>
<polygon fill="midnightblue" stroke="midnightblue" points="137.85,-25.72 129.18,-19.63 132.16,-29.8 137.85,-25.72"/>
</g>
<!-- Node4 -->
<g id="node4" class="node">
<title>Node4</title>
<g id="a_node4"><a xlink:href="dol2asm_8h.html" target="_top" xlink:title=" ">
<polygon fill="white" stroke="black" points="202.5,-73 202.5,-92 263.5,-92 263.5,-73 202.5,-73"/>
<text text-anchor="middle" x="233" y="-80" font-family="Helvetica,sans-Serif" font-size="10.00">dol2asm.h</text>
</a>
</g>
</g>
<!-- Node1&#45;&gt;Node4 -->
<g id="edge3" class="edge">
<title>Node1&#45;&gt;Node4</title>
<path fill="none" stroke="midnightblue" d="M1323.38,-158.64C1113.09,-155.17 373.44,-140.8 273,-109 265.51,-106.63 258.05,-102.48 251.63,-98.22"/>
<polygon fill="midnightblue" stroke="midnightblue" points="253.26,-95.07 243.1,-92.07 249.17,-100.75 253.26,-95.07"/>
</g>
<!-- Node5 -->
<g id="node5" class="node">
<title>Node5</title>
<g id="a_node5"><a xlink:title=" ">
<polygon fill="white" stroke="#bfbfbf" points="282,-62 282,-103 412,-103 412,-62 282,-62"/>
<text text-anchor="start" x="290" y="-91" font-family="Helvetica,sans-Serif" font-size="10.00">asm/JSystem/JAudio2</text>
<text text-anchor="start" x="290" y="-80" font-family="Helvetica,sans-Serif" font-size="10.00">/JAISound/releaseSound</text>
<text text-anchor="middle" x="347" y="-69" font-family="Helvetica,sans-Serif" font-size="10.00">__14JAISoundHandleFv.s</text>
</a>
</g>
</g>
<!-- Node1&#45;&gt;Node5 -->
<g id="edge5" class="edge">
<title>Node1&#45;&gt;Node5</title>
<path fill="none" stroke="midnightblue" d="M1323.3,-158.6C1145.91,-155.42 595.62,-142.99 421,-109 416.6,-108.14 412.11,-107.09 407.63,-105.89"/>
<polygon fill="midnightblue" stroke="midnightblue" points="408.42,-102.48 397.85,-103.09 406.49,-109.21 408.42,-102.48"/>
</g>
<!-- Node6 -->
<g id="node6" class="node">
<title>Node6</title>
<g id="a_node6"><a xlink:title=" ">
<polygon fill="white" stroke="#bfbfbf" points="430,-62 430,-103 558,-103 558,-62 430,-62"/>
<text text-anchor="start" x="438" y="-91" font-family="Helvetica,sans-Serif" font-size="10.00">asm/JSystem/JAudio2</text>
<text text-anchor="start" x="438" y="-80" font-family="Helvetica,sans-Serif" font-size="10.00">/JAISound/releaseHandle</text>
<text text-anchor="middle" x="494" y="-69" font-family="Helvetica,sans-Serif" font-size="10.00">__8JAISoundFv.s</text>
</a>
</g>
</g>
<!-- Node1&#45;&gt;Node6 -->
<g id="edge6" class="edge">
<title>Node1&#45;&gt;Node6</title>
<path fill="none" stroke="midnightblue" d="M1323.36,-157.99C1164.86,-153.37 713.09,-137.96 568,-109 563.61,-108.12 559.12,-107.05 554.64,-105.85"/>
<polygon fill="midnightblue" stroke="midnightblue" points="555.44,-102.43 544.86,-103.02 553.5,-109.16 555.44,-102.43"/>
</g>
<!-- Node7 -->
<g id="node7" class="node">
<title>Node7</title>
<g id="a_node7"><a xlink:title=" ">
<polygon fill="white" stroke="#bfbfbf" points="576.5,-62 576.5,-103 755.5,-103 755.5,-62 576.5,-62"/>
<text text-anchor="start" x="584.5" y="-91" font-family="Helvetica,sans-Serif" font-size="10.00">asm/JSystem/JAudio2</text>
<text text-anchor="start" x="584.5" y="-80" font-family="Helvetica,sans-Serif" font-size="10.00">/JAISound/attachHandle</text>
<text text-anchor="middle" x="666" y="-69" font-family="Helvetica,sans-Serif" font-size="10.00">__8JAISoundFP14JAISoundHandle.s</text>
</a>
</g>
</g>
<!-- Node1&#45;&gt;Node7 -->
<g id="edge7" class="edge">
<title>Node1&#45;&gt;Node7</title>
<path fill="none" stroke="midnightblue" d="M1323.15,-158.08C1214.8,-154.63 968.82,-143.37 765,-109 758.74,-107.94 752.3,-106.69 745.84,-105.3"/>
<polygon fill="midnightblue" stroke="midnightblue" points="746.24,-101.8 735.72,-103.04 744.72,-108.64 746.24,-101.8"/>
</g>
<!-- Node8 -->
<g id="node8" class="node">
<title>Node8</title>
<g id="a_node8"><a xlink:title=" ">
<polygon fill="white" stroke="#bfbfbf" points="773.5,-62 773.5,-103 920.5,-103 920.5,-62 773.5,-62"/>
<text text-anchor="start" x="781.5" y="-91" font-family="Helvetica,sans-Serif" font-size="10.00">asm/JSystem/JAudio2</text>
<text text-anchor="start" x="781.5" y="-80" font-family="Helvetica,sans-Serif" font-size="10.00">/JAISound/lockWhenPrepared</text>
<text text-anchor="middle" x="847" y="-69" font-family="Helvetica,sans-Serif" font-size="10.00">__15JAISoundStatus_Fv.s</text>
</a>
</g>
</g>
<!-- Node1&#45;&gt;Node8 -->
<g id="edge8" class="edge">
<title>Node1&#45;&gt;Node8</title>
<path fill="none" stroke="midnightblue" d="M1323.18,-156.57C1237.75,-151.33 1069.78,-138.07 930,-109 925.36,-108.03 920.6,-106.92 915.83,-105.71"/>
<polygon fill="midnightblue" stroke="midnightblue" points="916.61,-102.3 906.04,-103.11 914.81,-109.06 916.61,-102.3"/>
</g>
<!-- Node9 -->
<g id="node9" class="node">
<title>Node9</title>
<g id="a_node9"><a xlink:title=" ">
<polygon fill="white" stroke="#bfbfbf" points="938.5,-62 938.5,-103 1071.5,-103 1071.5,-62 938.5,-62"/>
<text text-anchor="start" x="946.5" y="-91" font-family="Helvetica,sans-Serif" font-size="10.00">asm/JSystem/JAudio2</text>
<text text-anchor="start" x="946.5" y="-80" font-family="Helvetica,sans-Serif" font-size="10.00">/JAISound/unlockIfLocked</text>
<text text-anchor="middle" x="1005" y="-69" font-family="Helvetica,sans-Serif" font-size="10.00">__15JAISoundStatus_Fv.s</text>
</a>
</g>
</g>
<!-- Node1&#45;&gt;Node9 -->
<g id="edge9" class="edge">
<title>Node1&#45;&gt;Node9</title>
<path fill="none" stroke="midnightblue" d="M1323.27,-152.7C1262.99,-144.73 1164.34,-129.91 1081,-109 1077.24,-108.06 1073.39,-107.01 1069.52,-105.91"/>
<polygon fill="midnightblue" stroke="midnightblue" points="1070.49,-102.55 1059.91,-103.04 1068.49,-109.25 1070.49,-102.55"/>
</g>
<!-- Node10 -->
<g id="node10" class="node">
<title>Node10</title>
<g id="a_node10"><a xlink:title=" ">
<polygon fill="white" stroke="#bfbfbf" points="1089.5,-56.5 1089.5,-108.5 1280.5,-108.5 1280.5,-56.5 1089.5,-56.5"/>
<text text-anchor="start" x="1097.5" y="-96.5" font-family="Helvetica,sans-Serif" font-size="10.00">asm/JSystem/JAudio2</text>
<text text-anchor="start" x="1097.5" y="-85.5" font-family="Helvetica,sans-Serif" font-size="10.00">/JAISound/mixOutAll</text>
<text text-anchor="start" x="1097.5" y="-74.5" font-family="Helvetica,sans-Serif" font-size="10.00">__14JAISoundParamsFRC14JASSound</text>
<text text-anchor="middle" x="1185" y="-63.5" font-family="Helvetica,sans-Serif" font-size="10.00">ParamsP14JASSoundParamsf.s</text>
</a>
</g>
</g>
<!-- Node1&#45;&gt;Node10 -->
<g id="edge10" class="edge">
<title>Node1&#45;&gt;Node10</title>
<path fill="none" stroke="midnightblue" d="M1342.96,-145.38C1319.34,-136.13 1287.59,-123.69 1258.76,-112.4"/>
<polygon fill="midnightblue" stroke="midnightblue" points="1259.7,-109 1249.11,-108.62 1257.15,-115.52 1259.7,-109"/>
</g>
<!-- Node11 -->
<g id="node11" class="node">
<title>Node11</title>
<g id="a_node11"><a xlink:title=" ">
<polygon fill="white" stroke="#bfbfbf" points="1298.5,-67.5 1298.5,-97.5 1459.5,-97.5 1459.5,-67.5 1298.5,-67.5"/>
<text text-anchor="start" x="1306.5" y="-85.5" font-family="Helvetica,sans-Serif" font-size="10.00">asm/JSystem/JAudio2</text>
<text text-anchor="middle" x="1379" y="-74.5" font-family="Helvetica,sans-Serif" font-size="10.00">/JAISound/__ct__8JAISoundFv.s</text>
</a>
</g>
</g>
<!-- Node1&#45;&gt;Node11 -->
<g id="edge11" class="edge">
<title>Node1&#45;&gt;Node11</title>
<path fill="none" stroke="midnightblue" d="M1379,-145.2C1379,-134.7 1379,-120.16 1379,-107.83"/>
<polygon fill="midnightblue" stroke="midnightblue" points="1382.5,-107.73 1379,-97.73 1375.5,-107.73 1382.5,-107.73"/>
</g>
<!-- Node12 -->
<g id="node12" class="node">
<title>Node12</title>
<g id="a_node12"><a xlink:title=" ">
<polygon fill="white" stroke="#bfbfbf" points="1478,-67.5 1478,-97.5 1618,-97.5 1618,-67.5 1478,-67.5"/>
<text text-anchor="start" x="1486" y="-85.5" font-family="Helvetica,sans-Serif" font-size="10.00">asm/JSystem/JAudio2</text>
<text text-anchor="middle" x="1548" y="-74.5" font-family="Helvetica,sans-Serif" font-size="10.00">/JAISound/func_802A2328.s</text>
</a>
</g>
</g>
<!-- Node1&#45;&gt;Node12 -->
<g id="edge12" class="edge">
<title>Node1&#45;&gt;Node12</title>
<path fill="none" stroke="midnightblue" d="M1410.39,-145.38C1437.78,-133.07 1477.69,-115.12 1507.49,-101.72"/>
<polygon fill="midnightblue" stroke="midnightblue" points="1509.09,-104.83 1516.78,-97.54 1506.22,-98.45 1509.09,-104.83"/>
</g>
<!-- Node13 -->
<g id="node13" class="node">
<title>Node13</title>
<g id="a_node13"><a xlink:title=" ">
<polygon fill="white" stroke="#bfbfbf" points="1636,-62 1636,-103 1788,-103 1788,-62 1636,-62"/>
<text text-anchor="start" x="1644" y="-91" font-family="Helvetica,sans-Serif" font-size="10.00">asm/JSystem/JAudio2</text>
<text text-anchor="start" x="1644" y="-80" font-family="Helvetica,sans-Serif" font-size="10.00">/JAISound/acceptsNewAudible</text>
<text text-anchor="middle" x="1712" y="-69" font-family="Helvetica,sans-Serif" font-size="10.00">__8JAISoundCFv.s</text>
</a>
</g>
</g>
<!-- Node1&#45;&gt;Node13 -->
<g id="edge13" class="edge">
<title>Node1&#45;&gt;Node13</title>
<path fill="none" stroke="midnightblue" d="M1434.98,-149.6C1485.45,-140.32 1561.59,-125.44 1627,-109 1631.03,-107.99 1635.16,-106.9 1639.32,-105.78"/>
<polygon fill="midnightblue" stroke="midnightblue" points="1640.35,-109.12 1649.05,-103.08 1638.48,-102.38 1640.35,-109.12"/>
</g>
<!-- Node14 -->
<g id="node14" class="node">
<title>Node14</title>
<g id="a_node14"><a xlink:title=" ">
<polygon fill="white" stroke="#bfbfbf" points="1806,-67.5 1806,-97.5 1946,-97.5 1946,-67.5 1806,-67.5"/>
<text text-anchor="start" x="1814" y="-85.5" font-family="Helvetica,sans-Serif" font-size="10.00">asm/JSystem/JAudio2</text>
<text text-anchor="middle" x="1876" y="-74.5" font-family="Helvetica,sans-Serif" font-size="10.00">/JAISound/func_802A2474.s</text>
</a>
</g>
</g>
<!-- Node1&#45;&gt;Node14 -->
<g id="edge14" class="edge">
<title>Node1&#45;&gt;Node14</title>
<path fill="none" stroke="midnightblue" d="M1434.68,-156.18C1515.33,-150.61 1669.02,-137.11 1797,-109 1807.03,-106.8 1817.6,-103.84 1827.62,-100.73"/>
<polygon fill="midnightblue" stroke="midnightblue" points="1828.98,-103.97 1837.43,-97.59 1826.84,-97.31 1828.98,-103.97"/>
</g>
<!-- Node15 -->
<g id="node15" class="node">
<title>Node15</title>
<g id="a_node15"><a xlink:title=" ">
<polygon fill="white" stroke="#bfbfbf" points="1964,-67.5 1964,-97.5 2130,-97.5 2130,-67.5 1964,-67.5"/>
<text text-anchor="start" x="1972" y="-85.5" font-family="Helvetica,sans-Serif" font-size="10.00">asm/JSystem/JAudio2</text>
<text text-anchor="middle" x="2047" y="-74.5" font-family="Helvetica,sans-Serif" font-size="10.00">/JAISound/stop__8JAISoundFUl.s</text>
</a>
</g>
</g>
<!-- Node1&#45;&gt;Node15 -->
<g id="edge15" class="edge">
<title>Node1&#45;&gt;Node15</title>
<path fill="none" stroke="midnightblue" d="M1434.65,-158C1537.96,-154.47 1766.08,-143.17 1955,-109 1967.35,-106.77 1980.45,-103.62 1992.77,-100.3"/>
<polygon fill="midnightblue" stroke="midnightblue" points="1993.76,-103.66 2002.46,-97.61 1991.89,-96.91 1993.76,-103.66"/>
</g>
<!-- Node16 -->
<g id="node16" class="node">
<title>Node16</title>
<g id="a_node16"><a xlink:title=" ">
<polygon fill="white" stroke="#bfbfbf" points="2148.5,-67.5 2148.5,-97.5 2309.5,-97.5 2309.5,-67.5 2148.5,-67.5"/>
<text text-anchor="start" x="2156.5" y="-85.5" font-family="Helvetica,sans-Serif" font-size="10.00">asm/JSystem/JAudio2</text>
<text text-anchor="middle" x="2229" y="-74.5" font-family="Helvetica,sans-Serif" font-size="10.00">/JAISound/stop__8JAISoundFv.s</text>
</a>
</g>
</g>
<!-- Node1&#45;&gt;Node16 -->
<g id="edge16" class="edge">
<title>Node1&#45;&gt;Node16</title>
<path fill="none" stroke="midnightblue" d="M1434.78,-159.78C1561.12,-159.54 1878.4,-154.06 2139,-109 2151.37,-106.86 2164.49,-103.69 2176.76,-100.3"/>
<polygon fill="midnightblue" stroke="midnightblue" points="2177.73,-103.66 2186.39,-97.55 2175.81,-96.93 2177.73,-103.66"/>
</g>
<!-- Node17 -->
<g id="node17" class="node">
<title>Node17</title>
<g id="a_node17"><a xlink:title=" ">
<polygon fill="white" stroke="#bfbfbf" points="2328,-62 2328,-103 2454,-103 2454,-62 2328,-62"/>
<text text-anchor="start" x="2336" y="-91" font-family="Helvetica,sans-Serif" font-size="10.00">asm/JSystem/JAudio2</text>
<text text-anchor="start" x="2336" y="-80" font-family="Helvetica,sans-Serif" font-size="10.00">/JAISound/die_JAISound</text>
<text text-anchor="middle" x="2391" y="-69" font-family="Helvetica,sans-Serif" font-size="10.00">___8JAISoundFv.s</text>
</a>
</g>
</g>
<!-- Node1&#45;&gt;Node17 -->
<g id="edge17" class="edge">
<title>Node1&#45;&gt;Node17</title>
<path fill="none" stroke="midnightblue" d="M1434.59,-158.6C1609.66,-155.43 2148.11,-143.11 2319,-109 2323.17,-108.17 2327.42,-107.14 2331.68,-105.99"/>
<polygon fill="midnightblue" stroke="midnightblue" points="2332.95,-109.26 2341.56,-103.09 2330.97,-102.55 2332.95,-109.26"/>
</g>
<!-- Node18 -->
<g id="node18" class="node">
<title>Node18</title>
<g id="a_node18"><a xlink:title=" ">
<polygon fill="white" stroke="#bfbfbf" points="2472.5,-62 2472.5,-103 2633.5,-103 2633.5,-62 2472.5,-62"/>
<text text-anchor="start" x="2480.5" y="-91" font-family="Helvetica,sans-Serif" font-size="10.00">asm/JSystem/JAudio2</text>
<text text-anchor="start" x="2480.5" y="-80" font-family="Helvetica,sans-Serif" font-size="10.00">/JAISound/increasePrepareCount</text>
<text text-anchor="middle" x="2553" y="-69" font-family="Helvetica,sans-Serif" font-size="10.00">_JAISound___8JAISoundFv.s</text>
</a>
</g>
</g>
<!-- Node1&#45;&gt;Node18 -->
<g id="edge18" class="edge">
<title>Node1&#45;&gt;Node18</title>
<path fill="none" stroke="midnightblue" d="M1434.75,-158.59C1627.06,-155.2 2261.94,-141.72 2463,-109 2468.85,-108.05 2474.87,-106.85 2480.88,-105.49"/>
<polygon fill="midnightblue" stroke="midnightblue" points="2482.05,-108.81 2490.96,-103.07 2480.42,-102 2482.05,-108.81"/>
</g>
<!-- Node19 -->
<g id="node19" class="node">
<title>Node19</title>
<g id="a_node19"><a xlink:title=" ">
<polygon fill="white" stroke="#bfbfbf" points="2651.5,-62 2651.5,-103 2782.5,-103 2782.5,-62 2651.5,-62"/>
<text text-anchor="start" x="2659.5" y="-91" font-family="Helvetica,sans-Serif" font-size="10.00">asm/JSystem/JAudio2</text>
<text text-anchor="start" x="2659.5" y="-80" font-family="Helvetica,sans-Serif" font-size="10.00">/JAISound/calc_JAISound</text>
<text text-anchor="middle" x="2717" y="-69" font-family="Helvetica,sans-Serif" font-size="10.00">___8JAISoundFv.s</text>
</a>
</g>
</g>
<!-- Node1&#45;&gt;Node19 -->
<g id="edge19" class="edge">
<title>Node1&#45;&gt;Node19</title>
<path fill="none" stroke="midnightblue" d="M1434.67,-159.43C1647.06,-158.82 2406.26,-153.52 2643,-109 2647.48,-108.16 2652.05,-107.1 2656.62,-105.89"/>
<polygon fill="midnightblue" stroke="midnightblue" points="2657.92,-109.16 2666.57,-103.05 2656,-102.43 2657.92,-109.16"/>
</g>
<!-- Node20 -->
<g id="node20" class="node">
<title>Node20</title>
<g id="a_node20"><a xlink:title=" ">
<polygon fill="white" stroke="#bfbfbf" points="2800.5,-62 2800.5,-103 2997.5,-103 2997.5,-62 2800.5,-62"/>
<text text-anchor="start" x="2808.5" y="-91" font-family="Helvetica,sans-Serif" font-size="10.00">asm/JSystem/JAudio2</text>
<text text-anchor="start" x="2808.5" y="-80" font-family="Helvetica,sans-Serif" font-size="10.00">/JAISound/initTrack</text>
<text text-anchor="middle" x="2899" y="-69" font-family="Helvetica,sans-Serif" font-size="10.00">_JAISound___8JAISoundFP8JASTrack.s</text>
</a>
</g>
</g>
<!-- Node1&#45;&gt;Node20 -->
<g id="edge20" class="edge">
<title>Node1&#45;&gt;Node20</title>
<path fill="none" stroke="midnightblue" d="M1434.78,-158.98C1662.55,-156.64 2522.76,-145.53 2792,-109 2799.65,-107.96 2807.55,-106.62 2815.44,-105.08"/>
<polygon fill="midnightblue" stroke="midnightblue" points="2816.3,-108.48 2825.4,-103.06 2814.9,-101.62 2816.3,-108.48"/>
</g>
<!-- Node2&#45;&gt;Node3 -->
<g id="edge2" class="edge">
<title>Node2&#45;&gt;Node3</title>
<path fill="none" stroke="midnightblue" d="M79.13,-72.86C87,-61.76 100.84,-42.24 110.88,-28.09"/>
<polygon fill="midnightblue" stroke="midnightblue" points="113.89,-29.9 116.82,-19.72 108.18,-25.85 113.89,-29.9"/>
</g>
</g>
</svg>
        <g id="navigator" transform="translate(0 0)" fill="#404254">
                <rect fill="#f2f5e9" fill-opacity="0.5" stroke="#606060" stroke-width=".5" x="0" y="0" width="60" height="60"/>
                <use id="zoomplus" xlink:href="#zoomPlus" x="17" y="9" onmousedown="handleZoom(evt,'in')"/>
                <use id="zoomminus" xlink:href="#zoomMin" x="42" y="9" onmousedown="handleZoom(evt,'out')"/>
                <use id="reset" xlink:href="#resetDef" x="30" y="36" onmousedown="handleReset()"/>
                <g id="arrowUp" xlink:href="#dirArrow" transform="translate(30 24)" onmousedown="handlePan(0,-1)">
                  <use xlink:href="#rim" fill="#404040">
                        <set attributeName="fill" to="#808080" begin="arrowUp.mouseover" end="arrowUp.mouseout"/>
                  </use>
                  <path fill="none" stroke="white" stroke-width="1.5" d="M0,-3.0v7 M-2.5,-0.5L0,-3.0L2.5,-0.5"/>
                </g>
                <g id="arrowRight" xlink:href="#dirArrow" transform="rotate(90) translate(36 -43)" onmousedown="handlePan(1,0)">
                  <use xlink:href="#rim" fill="#404040">
                        <set attributeName="fill" to="#808080" begin="arrowRight.mouseover" end="arrowRight.mouseout"/>
                  </use>
                  <path fill="none" stroke="white" stroke-width="1.5" d="M0,-3.0v7 M-2.5,-0.5L0,-3.0L2.5,-0.5"/>
                </g>
                <g id="arrowDown" xlink:href="#dirArrow" transform="rotate(180) translate(-30 -48)" onmousedown="handlePan(0,1)">
                  <use xlink:href="#rim" fill="#404040">
                        <set attributeName="fill" to="#808080" begin="arrowDown.mouseover" end="arrowDown.mouseout"/>
                  </use>
                  <path fill="none" stroke="white" stroke-width="1.5" d="M0,-3.0v7 M-2.5,-0.5L0,-3.0L2.5,-0.5"/>
                </g>
                <g id="arrowLeft" xlink:href="#dirArrow" transform="rotate(270) translate(-36 17)" onmousedown="handlePan(-1,0)">
                  <use xlink:href="#rim" fill="#404040">
                        <set attributeName="fill" to="#808080" begin="arrowLeft.mouseover" end="arrowLeft.mouseout"/>
                  </use>
                  <path fill="none" stroke="white" stroke-width="1.5" d="M0,-3.0v7 M-2.5,-0.5L0,-3.0L2.5,-0.5"/>
                </g>
        </g>
        <svg viewBox="0 0 15 15" width="100%" height="30px" preserveAspectRatio="xMaxYMin meet">
         <g id="arrow_out" transform="scale(0.3 0.3)">
          <a xlink:href="JAISound_8cpp__incl_org.svg" target="_base">
           <rect id="button" ry="5" rx="5" y="6" x="6" height="38" width="38"
                fill="#f2f5e9" fill-opacity="0.5" stroke="#606060" stroke-width="1.0"/>
           <path id="arrow"
             d="M 11.500037,31.436501 C 11.940474,20.09759 22.043105,11.32322 32.158766,21.979434 L 37.068811,17.246167 C 37.068811,17.246167 37.088388,32 37.088388,32 L 22.160133,31.978069 C 22.160133,31.978069 26.997745,27.140456 26.997745,27.140456 C 18.528582,18.264221 13.291696,25.230495 11.500037,31.436501 z"
             style="fill:#404040;"/>
          </a>
         </g>
        </svg>
</svg>
