<?xml version="1.0" encoding="UTF-8" standalone="no"?>
<!DOCTYPE svg PUBLIC "-//W3C//DTD SVG 1.1//EN"
 "http://www.w3.org/Graphics/SVG/1.1/DTD/svg11.dtd">
<!-- Generated by graphviz version 2.47.0 (20210316.2052)
 -->
<!-- Title: libs/JSystem/JAudio2/JAISoundInfo.cpp Pages: 1 -->
<svg width="531pt" height="173pt"
 viewBox="0.00 0.00 531.00 173.00" xmlns="http://www.w3.org/2000/svg" xmlns:xlink="http://www.w3.org/1999/xlink">
<g id="graph0" class="graph" transform="scale(1 1) rotate(0) translate(4 169)">
<title>libs/JSystem/JAudio2/JAISoundInfo.cpp</title>
<polygon fill="white" stroke="transparent" points="-4,4 -4,-169 527,-169 527,4 -4,4"/>
<!-- Node1 -->
<g id="node1" class="node">
<title>Node1</title>
<g id="a_node1"><a xlink:title=" ">
<polygon fill="#bfbfbf" stroke="black" points="132,-134.5 132,-164.5 243,-164.5 243,-134.5 132,-134.5"/>
<text text-anchor="start" x="140" y="-152.5" font-family="Helvetica,sans-Serif" font-size="10.00">libs/JSystem/JAudio2</text>
<text text-anchor="middle" x="187.5" y="-141.5" font-family="Helvetica,sans-Serif" font-size="10.00">/JAISoundInfo.cpp</text>
</a>
</g>
</g>
<!-- Node2 -->
<g id="node2" class="node">
<title>Node2</title>
<g id="a_node2"><a xlink:href="dol2asm_8h.html" target="_top" xlink:title=" ">
<polygon fill="white" stroke="black" points="0,-67.5 0,-86.5 61,-86.5 61,-67.5 0,-67.5"/>
<text text-anchor="middle" x="30.5" y="-74.5" font-family="Helvetica,sans-Serif" font-size="10.00">dol2asm.h</text>
</a>
</g>
</g>
<!-- Node1&#45;&gt;Node2 -->
<g id="edge1" class="edge">
<title>Node1&#45;&gt;Node2</title>
<path fill="none" stroke="midnightblue" d="M156.11,-134.4C127.73,-121.66 86.33,-103.07 58.92,-90.76"/>
<polygon fill="midnightblue" stroke="midnightblue" points="60.06,-87.44 49.5,-86.53 57.19,-93.82 60.06,-87.44"/>
</g>
<!-- Node3 -->
<g id="node3" class="node">
<title>Node3</title>
<g id="a_node3"><a xlink:href="types_8h.html" target="_top" xlink:title=" ">
<polygon fill="white" stroke="black" points="98,-0.5 98,-19.5 179,-19.5 179,-0.5 98,-0.5"/>
<text text-anchor="middle" x="138.5" y="-7.5" font-family="Helvetica,sans-Serif" font-size="10.00">dolphin/types.h</text>
</a>
</g>
</g>
<!-- Node1&#45;&gt;Node3 -->
<g id="edge2" class="edge">
<title>Node1&#45;&gt;Node3</title>
<path fill="none" stroke="midnightblue" d="M151.05,-134.46C135.29,-126.35 118.44,-114.44 109.5,-98 100.58,-81.6 104.23,-73.91 109.5,-56 112.51,-45.76 118.65,-35.66 124.51,-27.63"/>
<polygon fill="midnightblue" stroke="midnightblue" points="127.43,-29.58 130.83,-19.54 121.91,-25.27 127.43,-29.58"/>
</g>
<!-- Node4 -->
<g id="node4" class="node">
<title>Node4</title>
<g id="a_node4"><a xlink:href="JAISoundInfo_8h.html" target="_top" xlink:title=" ">
<polygon fill="white" stroke="black" points="118,-62 118,-92 257,-92 257,-62 118,-62"/>
<text text-anchor="start" x="126" y="-80" font-family="Helvetica,sans-Serif" font-size="10.00">JSystem/JAudio2/JAISound</text>
<text text-anchor="middle" x="187.5" y="-69" font-family="Helvetica,sans-Serif" font-size="10.00">Info.h</text>
</a>
</g>
</g>
<!-- Node1&#45;&gt;Node4 -->
<g id="edge3" class="edge">
<title>Node1&#45;&gt;Node4</title>
<path fill="none" stroke="midnightblue" d="M187.5,-134.23C187.5,-125.16 187.5,-113.16 187.5,-102.58"/>
<polygon fill="midnightblue" stroke="midnightblue" points="191,-102.25 187.5,-92.25 184,-102.25 191,-102.25"/>
</g>
<!-- Node5 -->
<g id="node5" class="node">
<title>Node5</title>
<g id="a_node5"><a xlink:title=" ">
<polygon fill="white" stroke="#bfbfbf" points="275,-56.5 275,-97.5 390,-97.5 390,-56.5 275,-56.5"/>
<text text-anchor="start" x="283" y="-85.5" font-family="Helvetica,sans-Serif" font-size="10.00">asm/JSystem/JAudio2</text>
<text text-anchor="start" x="283" y="-74.5" font-family="Helvetica,sans-Serif" font-size="10.00">/JAISoundInfo/__ct_</text>
<text text-anchor="middle" x="332.5" y="-63.5" font-family="Helvetica,sans-Serif" font-size="10.00">_12JAISoundInfoFb.s</text>
</a>
</g>
</g>
<!-- Node1&#45;&gt;Node5 -->
<g id="edge5" class="edge">
<title>Node1&#45;&gt;Node5</title>
<path fill="none" stroke="midnightblue" d="M216.49,-134.4C235.51,-125.16 260.87,-112.83 283.03,-102.05"/>
<polygon fill="midnightblue" stroke="midnightblue" points="284.84,-105.07 292.3,-97.55 281.77,-98.77 284.84,-105.07"/>
</g>
<!-- Node6 -->
<g id="node6" class="node">
<title>Node6</title>
<g id="a_node6"><a xlink:title=" ">
<polygon fill="white" stroke="#bfbfbf" points="408,-56.5 408,-97.5 523,-97.5 523,-56.5 408,-56.5"/>
<text text-anchor="start" x="416" y="-85.5" font-family="Helvetica,sans-Serif" font-size="10.00">asm/JSystem/JAudio2</text>
<text text-anchor="start" x="416" y="-74.5" font-family="Helvetica,sans-Serif" font-size="10.00">/JAISoundInfo/__dt_</text>
<text text-anchor="middle" x="465.5" y="-63.5" font-family="Helvetica,sans-Serif" font-size="10.00">_12JAISoundInfoFv.s</text>
</a>
</g>
</g>
<!-- Node1&#45;&gt;Node6 -->
<g id="edge6" class="edge">
<title>Node1&#45;&gt;Node6</title>
<path fill="none" stroke="midnightblue" d="M243.08,-136.23C283.72,-127.03 340.37,-113.76 398.28,-98.27"/>
<polygon fill="midnightblue" stroke="midnightblue" points="399.22,-101.64 407.97,-95.66 397.4,-94.88 399.22,-101.64"/>
</g>
<!-- Node4&#45;&gt;Node3 -->
<g id="edge4" class="edge">
<title>Node4&#45;&gt;Node3</title>
<path fill="none" stroke="midnightblue" d="M176.87,-61.9C169.3,-51.86 159.11,-38.34 151.13,-27.75"/>
<polygon fill="midnightblue" stroke="midnightblue" points="153.87,-25.57 145.05,-19.69 148.28,-29.79 153.87,-25.57"/>
</g>
</g>
</svg>
