<?xml version="1.0" encoding="UTF-8" standalone="no"?>
<!DOCTYPE svg PUBLIC "-//W3C//DTD SVG 1.1//EN"
 "http://www.w3.org/Graphics/SVG/1.1/DTD/svg11.dtd">
<!-- Generated by graphviz version 2.47.0 (20210316.2052)
 -->
<!-- Title: libs/JSystem/JAudio2/JAISeqDataMgr.cpp Pages: 1 -->
<svg width="566pt" height="173pt"
 viewBox="0.00 0.00 566.00 173.00" xmlns="http://www.w3.org/2000/svg" xmlns:xlink="http://www.w3.org/1999/xlink">
<g id="graph0" class="graph" transform="scale(1 1) rotate(0) translate(4 169)">
<title>libs/JSystem/JAudio2/JAISeqDataMgr.cpp</title>
<polygon fill="white" stroke="transparent" points="-4,4 -4,-169 562,-169 562,4 -4,4"/>
<!-- Node1 -->
<g id="node1" class="node">
<title>Node1</title>
<g id="a_node1"><a xlink:title=" ">
<polygon fill="#bfbfbf" stroke="black" points="136,-134.5 136,-164.5 247,-164.5 247,-134.5 136,-134.5"/>
<text text-anchor="start" x="144" y="-152.5" font-family="Helvetica,sans-Serif" font-size="10.00">libs/JSystem/JAudio2</text>
<text text-anchor="middle" x="191.5" y="-141.5" font-family="Helvetica,sans-Serif" font-size="10.00">/JAISeqDataMgr.cpp</text>
</a>
</g>
</g>
<!-- Node2 -->
<g id="node2" class="node">
<title>Node2</title>
<g id="a_node2"><a xlink:href="dol2asm_8h.html" target="_top" xlink:title=" ">
<polygon fill="white" stroke="black" points="0,-67.5 0,-86.5 61,-86.5 61,-67.5 0,-67.5"/>
<text text-anchor="middle" x="30.5" y="-74.5" font-family="Helvetica,sans-Serif" font-size="10.00">dol2asm.h</text>
</a>
</g>
</g>
<!-- Node1&#45;&gt;Node2 -->
<g id="edge1" class="edge">
<title>Node1&#45;&gt;Node2</title>
<path fill="none" stroke="midnightblue" d="M158.97,-134.42C135.7,-124.32 103.65,-110.38 75.5,-98 70.22,-95.68 64.59,-93.19 59.17,-90.78"/>
<polygon fill="midnightblue" stroke="midnightblue" points="60.32,-87.46 49.76,-86.6 57.47,-93.86 60.32,-87.46"/>
</g>
<!-- Node3 -->
<g id="node3" class="node">
<title>Node3</title>
<g id="a_node3"><a xlink:href="types_8h.html" target="_top" xlink:title=" ">
<polygon fill="white" stroke="black" points="100,-0.5 100,-19.5 181,-19.5 181,-0.5 100,-0.5"/>
<text text-anchor="middle" x="140.5" y="-7.5" font-family="Helvetica,sans-Serif" font-size="10.00">dolphin/types.h</text>
</a>
</g>
</g>
<!-- Node1&#45;&gt;Node3 -->
<g id="edge2" class="edge">
<title>Node1&#45;&gt;Node3</title>
<path fill="none" stroke="midnightblue" d="M151.48,-134.38C135.11,-126.4 117.84,-114.62 108.5,-98 99.35,-81.73 102.82,-73.78 108.5,-56 111.84,-45.54 118.6,-35.43 125.05,-27.45"/>
<polygon fill="midnightblue" stroke="midnightblue" points="127.85,-29.56 131.75,-19.71 122.56,-24.98 127.85,-29.56"/>
</g>
<!-- Node4 -->
<g id="node4" class="node">
<title>Node4</title>
<g id="a_node4"><a xlink:href="JAISeqDataMgr_8h.html" target="_top" xlink:title=" ">
<polygon fill="white" stroke="black" points="117,-62 117,-92 266,-92 266,-62 117,-62"/>
<text text-anchor="start" x="125" y="-80" font-family="Helvetica,sans-Serif" font-size="10.00">JSystem/JAudio2/JAISeqData</text>
<text text-anchor="middle" x="191.5" y="-69" font-family="Helvetica,sans-Serif" font-size="10.00">Mgr.h</text>
</a>
</g>
</g>
<!-- Node1&#45;&gt;Node4 -->
<g id="edge3" class="edge">
<title>Node1&#45;&gt;Node4</title>
<path fill="none" stroke="midnightblue" d="M191.5,-134.23C191.5,-125.16 191.5,-113.16 191.5,-102.58"/>
<polygon fill="midnightblue" stroke="midnightblue" points="195,-102.25 191.5,-92.25 188,-102.25 195,-102.25"/>
</g>
<!-- Node5 -->
<g id="node5" class="node">
<title>Node5</title>
<g id="a_node5"><a xlink:title=" ">
<polygon fill="white" stroke="#bfbfbf" points="284.5,-56.5 284.5,-97.5 414.5,-97.5 414.5,-56.5 284.5,-56.5"/>
<text text-anchor="start" x="292.5" y="-85.5" font-family="Helvetica,sans-Serif" font-size="10.00">asm/JSystem/JAudio2</text>
<text text-anchor="start" x="292.5" y="-74.5" font-family="Helvetica,sans-Serif" font-size="10.00">/JAISeqDataMgr/__dt</text>
<text text-anchor="middle" x="349.5" y="-63.5" font-family="Helvetica,sans-Serif" font-size="10.00">__14JAISeqDataUserFv.s</text>
</a>
</g>
</g>
<!-- Node1&#45;&gt;Node5 -->
<g id="edge5" class="edge">
<title>Node1&#45;&gt;Node5</title>
<path fill="none" stroke="midnightblue" d="M223.09,-134.4C244.1,-125.03 272.19,-112.5 296.56,-101.62"/>
<polygon fill="midnightblue" stroke="midnightblue" points="297.99,-104.82 305.69,-97.55 295.14,-98.42 297.99,-104.82"/>
</g>
<!-- Node6 -->
<g id="node6" class="node">
<title>Node6</title>
<g id="a_node6"><a xlink:title=" ">
<polygon fill="white" stroke="#bfbfbf" points="433,-56.5 433,-97.5 558,-97.5 558,-56.5 433,-56.5"/>
<text text-anchor="start" x="441" y="-85.5" font-family="Helvetica,sans-Serif" font-size="10.00">asm/JSystem/JAudio2</text>
<text text-anchor="start" x="441" y="-74.5" font-family="Helvetica,sans-Serif" font-size="10.00">/JAISeqDataMgr/__dt</text>
<text text-anchor="middle" x="495.5" y="-63.5" font-family="Helvetica,sans-Serif" font-size="10.00">__13JAISeqDataMgrFv.s</text>
</a>
</g>
</g>
<!-- Node1&#45;&gt;Node6 -->
<g id="edge6" class="edge">
<title>Node1&#45;&gt;Node6</title>
<path fill="none" stroke="midnightblue" d="M247.02,-137.34C291.94,-128.09 357.03,-114.23 422.99,-98.06"/>
<polygon fill="midnightblue" stroke="midnightblue" points="423.86,-101.46 432.73,-95.66 422.18,-94.66 423.86,-101.46"/>
</g>
<!-- Node4&#45;&gt;Node3 -->
<g id="edge4" class="edge">
<title>Node4&#45;&gt;Node3</title>
<path fill="none" stroke="midnightblue" d="M180.43,-61.9C172.56,-51.86 161.95,-38.34 153.65,-27.75"/>
<polygon fill="midnightblue" stroke="midnightblue" points="156.25,-25.4 147.32,-19.69 150.74,-29.72 156.25,-25.4"/>
</g>
</g>
</svg>
