<?xml version="1.0" encoding="UTF-8" standalone="no"?>
<!DOCTYPE svg PUBLIC "-//W3C//DTD SVG 1.1//EN"
 "http://www.w3.org/Graphics/SVG/1.1/DTD/svg11.dtd">
<!-- Generated by graphviz version 2.47.0 (20210316.2052)
 -->
<!-- Title: libs/JSystem/JAudio2/JAISeq.cpp Pages: 1 -->
<svg width="3672pt" height="184pt"
 viewBox="0.00 0.00 3672.00 184.00" xmlns="http://www.w3.org/2000/svg" xmlns:xlink="http://www.w3.org/1999/xlink">
<g id="graph0" class="graph" transform="scale(1 1) rotate(0) translate(4 180)">
<title>libs/JSystem/JAudio2/JAISeq.cpp</title>
<polygon fill="white" stroke="transparent" points="-4,4 -4,-180 3668,-180 3668,4 -4,4"/>
<!-- Node1 -->
<g id="node1" class="node">
<title>Node1</title>
<g id="a_node1"><a xlink:title=" ">
<polygon fill="#bfbfbf" stroke="black" points="1700,-145.5 1700,-175.5 1811,-175.5 1811,-145.5 1700,-145.5"/>
<text text-anchor="start" x="1708" y="-163.5" font-family="Helvetica,sans-Serif" font-size="10.00">libs/JSystem/JAudio2</text>
<text text-anchor="middle" x="1755.5" y="-152.5" font-family="Helvetica,sans-Serif" font-size="10.00">/JAISeq.cpp</text>
</a>
</g>
</g>
<!-- Node2 -->
<g id="node2" class="node">
<title>Node2</title>
<g id="a_node2"><a xlink:href="dol2asm_8h.html" target="_top" xlink:title=" ">
<polygon fill="white" stroke="black" points="0,-73 0,-92 61,-92 61,-73 0,-73"/>
<text text-anchor="middle" x="30.5" y="-80" font-family="Helvetica,sans-Serif" font-size="10.00">dol2asm.h</text>
</a>
</g>
</g>
<!-- Node1&#45;&gt;Node2 -->
<g id="edge1" class="edge">
<title>Node1&#45;&gt;Node2</title>
<path fill="none" stroke="midnightblue" d="M1699.6,-159.42C1425.98,-158.79 234.53,-153.49 75.5,-109 66.87,-106.58 58.12,-102.17 50.67,-97.69"/>
<polygon fill="midnightblue" stroke="midnightblue" points="52.32,-94.59 42.02,-92.12 48.53,-100.48 52.32,-94.59"/>
</g>
<!-- Node3 -->
<g id="node3" class="node">
<title>Node3</title>
<g id="a_node3"><a xlink:href="types_8h.html" target="_top" xlink:title=" ">
<polygon fill="white" stroke="black" points="97,-0.5 97,-19.5 178,-19.5 178,-0.5 97,-0.5"/>
<text text-anchor="middle" x="137.5" y="-7.5" font-family="Helvetica,sans-Serif" font-size="10.00">dolphin/types.h</text>
</a>
</g>
</g>
<!-- Node1&#45;&gt;Node3 -->
<g id="edge2" class="edge">
<title>Node1&#45;&gt;Node3</title>
<path fill="none" stroke="midnightblue" d="M1699.86,-158.85C1415.5,-155.38 136.82,-138.2 108.5,-109 86.99,-86.82 108.16,-49.47 123.9,-27.85"/>
<polygon fill="midnightblue" stroke="midnightblue" points="126.88,-29.71 130.17,-19.64 121.32,-25.46 126.88,-29.71"/>
</g>
<!-- Node4 -->
<g id="node4" class="node">
<title>Node4</title>
<g id="a_node4"><a xlink:href="JAISeq_8h.html" target="_top" xlink:title=" ">
<polygon fill="white" stroke="black" points="117.5,-73 117.5,-92 253.5,-92 253.5,-73 117.5,-73"/>
<text text-anchor="middle" x="185.5" y="-80" font-family="Helvetica,sans-Serif" font-size="10.00">JSystem/JAudio2/JAISeq.h</text>
</a>
</g>
</g>
<!-- Node1&#45;&gt;Node4 -->
<g id="edge3" class="edge">
<title>Node1&#45;&gt;Node4</title>
<path fill="none" stroke="midnightblue" d="M1699.73,-159.71C1463.85,-160.28 547.27,-159.15 263.5,-109 247.47,-106.17 230.21,-100.78 216.01,-95.69"/>
<polygon fill="midnightblue" stroke="midnightblue" points="216.87,-92.27 206.28,-92.07 214.43,-98.84 216.87,-92.27"/>
</g>
<!-- Node5 -->
<g id="node5" class="node">
<title>Node5</title>
<g id="a_node5"><a xlink:title=" ">
<polygon fill="white" stroke="#bfbfbf" points="272,-67.5 272,-97.5 405,-97.5 405,-67.5 272,-67.5"/>
<text text-anchor="start" x="280" y="-85.5" font-family="Helvetica,sans-Serif" font-size="10.00">asm/JSystem/JAudio2</text>
<text text-anchor="middle" x="338.5" y="-74.5" font-family="Helvetica,sans-Serif" font-size="10.00">/JAISeq/func_802A0A6C.s</text>
</a>
</g>
</g>
<!-- Node1&#45;&gt;Node5 -->
<g id="edge5" class="edge">
<title>Node1&#45;&gt;Node5</title>
<path fill="none" stroke="midnightblue" d="M1699.87,-159.52C1479.45,-159.27 667.18,-155.16 414.5,-109 404.12,-107.1 393.23,-104.1 383.04,-100.8"/>
<polygon fill="midnightblue" stroke="midnightblue" points="384.11,-97.47 373.52,-97.58 381.87,-104.1 384.11,-97.47"/>
</g>
<!-- Node6 -->
<g id="node6" class="node">
<title>Node6</title>
<g id="a_node6"><a xlink:title=" ">
<polygon fill="white" stroke="#bfbfbf" points="423,-67.5 423,-97.5 556,-97.5 556,-67.5 423,-67.5"/>
<text text-anchor="start" x="431" y="-85.5" font-family="Helvetica,sans-Serif" font-size="10.00">asm/JSystem/JAudio2</text>
<text text-anchor="middle" x="489.5" y="-74.5" font-family="Helvetica,sans-Serif" font-size="10.00">/JAISeq/func_802A0A8C.s</text>
</a>
</g>
</g>
<!-- Node1&#45;&gt;Node6 -->
<g id="edge6" class="edge">
<title>Node1&#45;&gt;Node6</title>
<path fill="none" stroke="midnightblue" d="M1699.98,-159.21C1495.86,-157.82 787.38,-150.08 565.5,-109 555.13,-107.08 544.24,-104.06 534.05,-100.76"/>
<polygon fill="midnightblue" stroke="midnightblue" points="535.12,-97.43 524.52,-97.54 532.88,-104.06 535.12,-97.43"/>
</g>
<!-- Node7 -->
<g id="node7" class="node">
<title>Node7</title>
<g id="a_node7"><a xlink:title=" ">
<polygon fill="white" stroke="#bfbfbf" points="574,-67.5 574,-97.5 705,-97.5 705,-67.5 574,-67.5"/>
<text text-anchor="start" x="582" y="-85.5" font-family="Helvetica,sans-Serif" font-size="10.00">asm/JSystem/JAudio2</text>
<text text-anchor="middle" x="639.5" y="-74.5" font-family="Helvetica,sans-Serif" font-size="10.00">/JAISeq/func_802A0B64.s</text>
</a>
</g>
</g>
<!-- Node1&#45;&gt;Node7 -->
<g id="edge7" class="edge">
<title>Node1&#45;&gt;Node7</title>
<path fill="none" stroke="midnightblue" d="M1699.96,-158.85C1512.78,-156.32 906.03,-145.46 714.5,-109 704.37,-107.07 693.73,-104.08 683.76,-100.82"/>
<polygon fill="midnightblue" stroke="midnightblue" points="684.65,-97.43 674.06,-97.5 682.39,-104.05 684.65,-97.43"/>
</g>
<!-- Node8 -->
<g id="node8" class="node">
<title>Node8</title>
<g id="a_node8"><a xlink:title=" ">
<polygon fill="white" stroke="#bfbfbf" points="723,-56.5 723,-108.5 914,-108.5 914,-56.5 723,-56.5"/>
<text text-anchor="start" x="731" y="-96.5" font-family="Helvetica,sans-Serif" font-size="10.00">asm/JSystem/JAudio2</text>
<text text-anchor="start" x="731" y="-85.5" font-family="Helvetica,sans-Serif" font-size="10.00">/JAISeq/playSeqData</text>
<text text-anchor="start" x="731" y="-74.5" font-family="Helvetica,sans-Serif" font-size="10.00">___6JAISeqFRC14JASSoundParams16</text>
<text text-anchor="middle" x="818.5" y="-63.5" font-family="Helvetica,sans-Serif" font-size="10.00">JAISoundActivity.s</text>
</a>
</g>
</g>
<!-- Node1&#45;&gt;Node8 -->
<g id="edge8" class="edge">
<title>Node1&#45;&gt;Node8</title>
<path fill="none" stroke="midnightblue" d="M1699.64,-159.52C1566.71,-158.84 1221.15,-152.77 924.31,-108.99"/>
<polygon fill="midnightblue" stroke="midnightblue" points="924.62,-105.5 914.21,-107.49 923.58,-112.42 924.62,-105.5"/>
</g>
<!-- Node9 -->
<g id="node9" class="node">
<title>Node9</title>
<g id="a_node9"><a xlink:title=" ">
<polygon fill="white" stroke="#bfbfbf" points="932,-62 932,-103 1071,-103 1071,-62 932,-62"/>
<text text-anchor="start" x="940" y="-91" font-family="Helvetica,sans-Serif" font-size="10.00">asm/JSystem/JAudio2</text>
<text text-anchor="start" x="940" y="-80" font-family="Helvetica,sans-Serif" font-size="10.00">/JAISeq/reserveChildTracks</text>
<text text-anchor="middle" x="1001.5" y="-69" font-family="Helvetica,sans-Serif" font-size="10.00">___6JAISeqFi.s</text>
</a>
</g>
</g>
<!-- Node1&#45;&gt;Node9 -->
<g id="edge9" class="edge">
<title>Node1&#45;&gt;Node9</title>
<path fill="none" stroke="midnightblue" d="M1699.78,-159.78C1583.53,-159.39 1307.11,-153.39 1080.5,-109 1075.8,-108.08 1070.98,-106.97 1066.17,-105.73"/>
<polygon fill="midnightblue" stroke="midnightblue" points="1066.88,-102.3 1056.31,-103.03 1065.03,-109.05 1066.88,-102.3"/>
</g>
<!-- Node10 -->
<g id="node10" class="node">
<title>Node10</title>
<g id="a_node10"><a xlink:title=" ">
<polygon fill="white" stroke="#bfbfbf" points="1089.5,-62 1089.5,-103 1227.5,-103 1227.5,-62 1089.5,-62"/>
<text text-anchor="start" x="1097.5" y="-91" font-family="Helvetica,sans-Serif" font-size="10.00">asm/JSystem/JAudio2</text>
<text text-anchor="start" x="1097.5" y="-80" font-family="Helvetica,sans-Serif" font-size="10.00">/JAISeq/releaseChildTracks</text>
<text text-anchor="middle" x="1158.5" y="-69" font-family="Helvetica,sans-Serif" font-size="10.00">___6JAISeqFv.s</text>
</a>
</g>
</g>
<!-- Node1&#45;&gt;Node10 -->
<g id="edge10" class="edge">
<title>Node1&#45;&gt;Node10</title>
<path fill="none" stroke="midnightblue" d="M1699.71,-157.99C1604.15,-154.52 1403.38,-143.44 1237.5,-109 1233.09,-108.09 1228.59,-107.01 1224.07,-105.84"/>
<polygon fill="midnightblue" stroke="midnightblue" points="1224.78,-102.4 1214.2,-103.12 1222.92,-109.15 1224.78,-102.4"/>
</g>
<!-- Node11 -->
<g id="node11" class="node">
<title>Node11</title>
<g id="a_node11"><a xlink:title=" ">
<polygon fill="white" stroke="#bfbfbf" points="1246,-62 1246,-103 1389,-103 1389,-62 1246,-62"/>
<text text-anchor="start" x="1254" y="-91" font-family="Helvetica,sans-Serif" font-size="10.00">asm/JSystem/JAudio2</text>
<text text-anchor="start" x="1254" y="-80" font-family="Helvetica,sans-Serif" font-size="10.00">/JAISeq/prepare_getSeqData</text>
<text text-anchor="middle" x="1317.5" y="-69" font-family="Helvetica,sans-Serif" font-size="10.00">___6JAISeqFv.s</text>
</a>
</g>
</g>
<!-- Node1&#45;&gt;Node11 -->
<g id="edge11" class="edge">
<title>Node1&#45;&gt;Node11</title>
<path fill="none" stroke="midnightblue" d="M1699.95,-154.5C1629.29,-147.49 1503.81,-132.85 1398.5,-109 1394.18,-108.02 1389.75,-106.92 1385.31,-105.74"/>
<polygon fill="midnightblue" stroke="midnightblue" points="1386.16,-102.34 1375.59,-103.04 1384.29,-109.09 1386.16,-102.34"/>
</g>
<!-- Node12 -->
<g id="node12" class="node">
<title>Node12</title>
<g id="a_node12"><a xlink:title=" ">
<polygon fill="white" stroke="#bfbfbf" points="1407.5,-62 1407.5,-103 1597.5,-103 1597.5,-62 1407.5,-62"/>
<text text-anchor="start" x="1415.5" y="-91" font-family="Helvetica,sans-Serif" font-size="10.00">asm/JSystem/JAudio2</text>
<text text-anchor="start" x="1415.5" y="-80" font-family="Helvetica,sans-Serif" font-size="10.00">/JAISeq/prepare___6JAISeqFRC14</text>
<text text-anchor="middle" x="1502.5" y="-69" font-family="Helvetica,sans-Serif" font-size="10.00">JASSoundParams16JAISoundActivity.s</text>
</a>
</g>
</g>
<!-- Node1&#45;&gt;Node12 -->
<g id="edge12" class="edge">
<title>Node1&#45;&gt;Node12</title>
<path fill="none" stroke="midnightblue" d="M1708.8,-145.47C1671.98,-134.41 1619.9,-118.77 1577.29,-105.97"/>
<polygon fill="midnightblue" stroke="midnightblue" points="1578.1,-102.55 1567.51,-103.03 1576.08,-109.26 1578.1,-102.55"/>
</g>
<!-- Node13 -->
<g id="node13" class="node">
<title>Node13</title>
<g id="a_node13"><a xlink:title=" ">
<polygon fill="white" stroke="#bfbfbf" points="1616,-62 1616,-103 1743,-103 1743,-62 1616,-62"/>
<text text-anchor="start" x="1624" y="-91" font-family="Helvetica,sans-Serif" font-size="10.00">asm/JSystem/JAudio2</text>
<text text-anchor="start" x="1624" y="-80" font-family="Helvetica,sans-Serif" font-size="10.00">/JAISeq/JAISeqMgr_calc</text>
<text text-anchor="middle" x="1679.5" y="-69" font-family="Helvetica,sans-Serif" font-size="10.00">___6JAISeqFv.s</text>
</a>
</g>
</g>
<!-- Node1&#45;&gt;Node13 -->
<g id="edge13" class="edge">
<title>Node1&#45;&gt;Node13</title>
<path fill="none" stroke="midnightblue" d="M1741.2,-145.2C1731.38,-135.38 1718.03,-122.03 1706.26,-110.26"/>
<polygon fill="midnightblue" stroke="midnightblue" points="1708.73,-107.78 1699.18,-103.18 1703.78,-112.73 1708.73,-107.78"/>
</g>
<!-- Node14 -->
<g id="node14" class="node">
<title>Node14</title>
<g id="a_node14"><a xlink:title=" ">
<polygon fill="white" stroke="#bfbfbf" points="1761.5,-67.5 1761.5,-97.5 1901.5,-97.5 1901.5,-67.5 1761.5,-67.5"/>
<text text-anchor="start" x="1769.5" y="-85.5" font-family="Helvetica,sans-Serif" font-size="10.00">asm/JSystem/JAudio2</text>
<text text-anchor="middle" x="1831.5" y="-74.5" font-family="Helvetica,sans-Serif" font-size="10.00">/JAISeq/die___6JAISeqFv.s</text>
</a>
</g>
</g>
<!-- Node1&#45;&gt;Node14 -->
<g id="edge14" class="edge">
<title>Node1&#45;&gt;Node14</title>
<path fill="none" stroke="midnightblue" d="M1769.8,-145.2C1781.15,-133.85 1797.22,-117.78 1810.11,-104.89"/>
<polygon fill="midnightblue" stroke="midnightblue" points="1812.67,-107.28 1817.27,-97.73 1807.72,-102.33 1812.67,-107.28"/>
</g>
<!-- Node15 -->
<g id="node15" class="node">
<title>Node15</title>
<g id="a_node15"><a xlink:title=" ">
<polygon fill="white" stroke="#bfbfbf" points="1919.5,-67.5 1919.5,-97.5 2049.5,-97.5 2049.5,-67.5 1919.5,-67.5"/>
<text text-anchor="start" x="1927.5" y="-85.5" font-family="Helvetica,sans-Serif" font-size="10.00">asm/JSystem/JAudio2</text>
<text text-anchor="middle" x="1984.5" y="-74.5" font-family="Helvetica,sans-Serif" font-size="10.00">/JAISeq/func_802A1268.s</text>
</a>
</g>
</g>
<!-- Node1&#45;&gt;Node15 -->
<g id="edge15" class="edge">
<title>Node1&#45;&gt;Node15</title>
<path fill="none" stroke="midnightblue" d="M1799.33,-145.44C1830.4,-135.42 1873.07,-121.55 1910.5,-109 1918.29,-106.39 1926.52,-103.59 1934.56,-100.84"/>
<polygon fill="midnightblue" stroke="midnightblue" points="1935.9,-104.08 1944.22,-97.52 1933.62,-97.46 1935.9,-104.08"/>
</g>
<!-- Node16 -->
<g id="node16" class="node">
<title>Node16</title>
<g id="a_node16"><a xlink:title=" ">
<polygon fill="white" stroke="#bfbfbf" points="2067.5,-62 2067.5,-103 2195.5,-103 2195.5,-62 2067.5,-62"/>
<text text-anchor="start" x="2075.5" y="-91" font-family="Helvetica,sans-Serif" font-size="10.00">asm/JSystem/JAudio2</text>
<text text-anchor="start" x="2075.5" y="-80" font-family="Helvetica,sans-Serif" font-size="10.00">/JAISeq/JAISound_tryDie</text>
<text text-anchor="middle" x="2131.5" y="-69" font-family="Helvetica,sans-Serif" font-size="10.00">___6JAISeqFv.s</text>
</a>
</g>
</g>
<!-- Node1&#45;&gt;Node16 -->
<g id="edge16" class="edge">
<title>Node1&#45;&gt;Node16</title>
<path fill="none" stroke="midnightblue" d="M1811.1,-153.13C1872.33,-145.45 1973.38,-130.79 2058.5,-109 2062.02,-108.1 2065.62,-107.1 2069.23,-106.04"/>
<polygon fill="midnightblue" stroke="midnightblue" points="2070.27,-109.38 2078.8,-103.1 2068.21,-102.69 2070.27,-109.38"/>
</g>
<!-- Node17 -->
<g id="node17" class="node">
<title>Node17</title>
<g id="a_node17"><a xlink:title=" ">
<polygon fill="white" stroke="#bfbfbf" points="2213.5,-62 2213.5,-103 2403.5,-103 2403.5,-62 2213.5,-62"/>
<text text-anchor="start" x="2221.5" y="-91" font-family="Helvetica,sans-Serif" font-size="10.00">asm/JSystem/JAudio2</text>
<text text-anchor="start" x="2221.5" y="-80" font-family="Helvetica,sans-Serif" font-size="10.00">/JAISeq/mixOut___6JAISeqFRC14</text>
<text text-anchor="middle" x="2308.5" y="-69" font-family="Helvetica,sans-Serif" font-size="10.00">JASSoundParams16JAISoundActivity.s</text>
</a>
</g>
</g>
<!-- Node1&#45;&gt;Node17 -->
<g id="edge17" class="edge">
<title>Node1&#45;&gt;Node17</title>
<path fill="none" stroke="midnightblue" d="M1811.13,-155.55C1896.3,-148.99 2063.95,-134.03 2204.5,-109 2210.75,-107.89 2217.17,-106.62 2223.63,-105.26"/>
<polygon fill="midnightblue" stroke="midnightblue" points="2224.74,-108.6 2233.76,-103.04 2223.24,-101.76 2224.74,-108.6"/>
</g>
<!-- Node18 -->
<g id="node18" class="node">
<title>Node18</title>
<g id="a_node18"><a xlink:title=" ">
<polygon fill="white" stroke="#bfbfbf" points="2422,-56.5 2422,-108.5 2613,-108.5 2613,-56.5 2422,-56.5"/>
<text text-anchor="start" x="2430" y="-96.5" font-family="Helvetica,sans-Serif" font-size="10.00">asm/JSystem/JAudio2</text>
<text text-anchor="start" x="2430" y="-85.5" font-family="Helvetica,sans-Serif" font-size="10.00">/JAISeq/JAISeqMgr_mixOut</text>
<text text-anchor="start" x="2430" y="-74.5" font-family="Helvetica,sans-Serif" font-size="10.00">___6JAISeqFRC14JASSoundParams16</text>
<text text-anchor="middle" x="2517.5" y="-63.5" font-family="Helvetica,sans-Serif" font-size="10.00">JAISoundActivity.s</text>
</a>
</g>
</g>
<!-- Node1&#45;&gt;Node18 -->
<g id="edge18" class="edge">
<title>Node1&#45;&gt;Node18</title>
<path fill="none" stroke="midnightblue" d="M1811.23,-158.25C1923.27,-155.08 2183.84,-144.39 2411.64,-109.02"/>
<polygon fill="midnightblue" stroke="midnightblue" points="2412.44,-112.43 2421.78,-107.42 2411.36,-105.52 2412.44,-112.43"/>
</g>
<!-- Node19 -->
<g id="node19" class="node">
<title>Node19</title>
<g id="a_node19"><a xlink:title=" ">
<polygon fill="white" stroke="#bfbfbf" points="2631,-62 2631,-103 2746,-103 2746,-62 2631,-62"/>
<text text-anchor="start" x="2639" y="-91" font-family="Helvetica,sans-Serif" font-size="10.00">asm/JSystem/JAudio2</text>
<text text-anchor="start" x="2639" y="-80" font-family="Helvetica,sans-Serif" font-size="10.00">/JAISeq/getNumChild</text>
<text text-anchor="middle" x="2688.5" y="-69" font-family="Helvetica,sans-Serif" font-size="10.00">__6JAISeqCFv.s</text>
</a>
</g>
</g>
<!-- Node1&#45;&gt;Node19 -->
<g id="edge19" class="edge">
<title>Node1&#45;&gt;Node19</title>
<path fill="none" stroke="midnightblue" d="M1811.15,-158.51C1977.13,-155.2 2466.76,-142.75 2622.5,-109 2626.14,-108.21 2629.83,-107.25 2633.53,-106.18"/>
<polygon fill="midnightblue" stroke="midnightblue" points="2634.79,-109.45 2643.26,-103.08 2632.67,-102.78 2634.79,-109.45"/>
</g>
<!-- Node20 -->
<g id="node20" class="node">
<title>Node20</title>
<g id="a_node20"><a xlink:title=" ">
<polygon fill="white" stroke="#bfbfbf" points="2764.5,-67.5 2764.5,-97.5 2918.5,-97.5 2918.5,-67.5 2764.5,-67.5"/>
<text text-anchor="start" x="2772.5" y="-85.5" font-family="Helvetica,sans-Serif" font-size="10.00">asm/JSystem/JAudio2</text>
<text text-anchor="middle" x="2841.5" y="-74.5" font-family="Helvetica,sans-Serif" font-size="10.00">/JAISeq/getChild__6JAISeqFi.s</text>
</a>
</g>
</g>
<!-- Node1&#45;&gt;Node20 -->
<g id="edge20" class="edge">
<title>Node1&#45;&gt;Node20</title>
<path fill="none" stroke="midnightblue" d="M1811.01,-158.43C1993.18,-154.66 2571.62,-140.44 2755.5,-109 2767.37,-106.97 2779.92,-103.84 2791.65,-100.46"/>
<polygon fill="midnightblue" stroke="midnightblue" points="2792.71,-103.8 2801.28,-97.58 2790.7,-97.09 2792.71,-103.8"/>
</g>
<!-- Node21 -->
<g id="node21" class="node">
<title>Node21</title>
<g id="a_node21"><a xlink:title=" ">
<polygon fill="white" stroke="#bfbfbf" points="2937,-62 2937,-103 3052,-103 3052,-62 2937,-62"/>
<text text-anchor="start" x="2945" y="-91" font-family="Helvetica,sans-Serif" font-size="10.00">asm/JSystem/JAudio2</text>
<text text-anchor="start" x="2945" y="-80" font-family="Helvetica,sans-Serif" font-size="10.00">/JAISeq/releaseChild</text>
<text text-anchor="middle" x="2994.5" y="-69" font-family="Helvetica,sans-Serif" font-size="10.00">__6JAISeqFi.s</text>
</a>
</g>
</g>
<!-- Node1&#45;&gt;Node21 -->
<g id="edge21" class="edge">
<title>Node1&#45;&gt;Node21</title>
<path fill="none" stroke="midnightblue" d="M1811.28,-159.45C2013.87,-158.92 2710.21,-153.81 2927.5,-109 2931.37,-108.2 2935.3,-107.21 2939.23,-106.09"/>
<polygon fill="midnightblue" stroke="midnightblue" points="2940.45,-109.37 2948.95,-103.05 2938.36,-102.69 2940.45,-109.37"/>
</g>
<!-- Node22 -->
<g id="node22" class="node">
<title>Node22</title>
<g id="a_node22"><a xlink:title=" ">
<polygon fill="white" stroke="#bfbfbf" points="3070.5,-67.5 3070.5,-97.5 3230.5,-97.5 3230.5,-67.5 3070.5,-67.5"/>
<text text-anchor="start" x="3078.5" y="-85.5" font-family="Helvetica,sans-Serif" font-size="10.00">asm/JSystem/JAudio2</text>
<text text-anchor="middle" x="3150.5" y="-74.5" font-family="Helvetica,sans-Serif" font-size="10.00">/JAISeq/getTrack__6JAISeqFv.s</text>
</a>
</g>
</g>
<!-- Node1&#45;&gt;Node22 -->
<g id="edge22" class="edge">
<title>Node1&#45;&gt;Node22</title>
<path fill="none" stroke="midnightblue" d="M1811.1,-159.13C2027.67,-157.4 2815.05,-148.48 3061.5,-109 3074.02,-106.99 3087.28,-103.8 3099.63,-100.35"/>
<polygon fill="midnightblue" stroke="midnightblue" points="3100.68,-103.68 3109.31,-97.53 3098.73,-96.96 3100.68,-103.68"/>
</g>
<!-- Node23 -->
<g id="node23" class="node">
<title>Node23</title>
<g id="a_node23"><a xlink:title=" ">
<polygon fill="white" stroke="#bfbfbf" points="3249,-62 3249,-103 3364,-103 3364,-62 3249,-62"/>
<text text-anchor="start" x="3257" y="-91" font-family="Helvetica,sans-Serif" font-size="10.00">asm/JSystem/JAudio2</text>
<text text-anchor="start" x="3257" y="-80" font-family="Helvetica,sans-Serif" font-size="10.00">/JAISeq/getChildTrack</text>
<text text-anchor="middle" x="3306.5" y="-69" font-family="Helvetica,sans-Serif" font-size="10.00">__6JAISeqFi.s</text>
</a>
</g>
</g>
<!-- Node1&#45;&gt;Node23 -->
<g id="edge23" class="edge">
<title>Node1&#45;&gt;Node23</title>
<path fill="none" stroke="midnightblue" d="M1811.36,-158.69C2064.48,-154.85 3097.75,-137.56 3239.5,-109 3243.37,-108.22 3247.31,-107.24 3251.24,-106.13"/>
<polygon fill="midnightblue" stroke="midnightblue" points="3252.45,-109.42 3260.96,-103.11 3250.37,-102.73 3252.45,-109.42"/>
</g>
<!-- Node24 -->
<g id="node24" class="node">
<title>Node24</title>
<g id="a_node24"><a xlink:title=" ">
<polygon fill="white" stroke="#bfbfbf" points="3382,-67.5 3382,-97.5 3531,-97.5 3531,-67.5 3382,-67.5"/>
<text text-anchor="start" x="3390" y="-85.5" font-family="Helvetica,sans-Serif" font-size="10.00">asm/JSystem/JAudio2</text>
<text text-anchor="middle" x="3456.5" y="-74.5" font-family="Helvetica,sans-Serif" font-size="10.00">/JAISeq/asSeq__6JAISeqFv.s</text>
</a>
</g>
</g>
<!-- Node1&#45;&gt;Node24 -->
<g id="edge24" class="edge">
<title>Node1&#45;&gt;Node24</title>
<path fill="none" stroke="midnightblue" d="M1811.3,-159.75C2059.34,-160.56 3063.34,-160.53 3373.5,-109 3385,-107.09 3397.13,-104.01 3408.46,-100.63"/>
<polygon fill="midnightblue" stroke="midnightblue" points="3409.65,-103.92 3418.17,-97.61 3407.58,-97.24 3409.65,-103.92"/>
</g>
<!-- Node25 -->
<g id="node25" class="node">
<title>Node25</title>
<g id="a_node25"><a xlink:title=" ">
<polygon fill="white" stroke="#bfbfbf" points="3549,-62 3549,-103 3664,-103 3664,-62 3549,-62"/>
<text text-anchor="start" x="3557" y="-91" font-family="Helvetica,sans-Serif" font-size="10.00">asm/JSystem/JAudio2</text>
<text text-anchor="start" x="3557" y="-80" font-family="Helvetica,sans-Serif" font-size="10.00">/JAISeq/getTempoMgr</text>
<text text-anchor="middle" x="3606.5" y="-69" font-family="Helvetica,sans-Serif" font-size="10.00">__6JAISeqFv.s</text>
</a>
</g>
</g>
<!-- Node1&#45;&gt;Node25 -->
<g id="edge25" class="edge">
<title>Node1&#45;&gt;Node25</title>
<path fill="none" stroke="midnightblue" d="M1811.45,-159.05C2095.13,-156.6 3367.83,-143.73 3540.5,-109 3544.39,-108.22 3548.34,-107.23 3552.28,-106.1"/>
<polygon fill="midnightblue" stroke="midnightblue" points="3553.54,-109.37 3562.02,-103.02 3551.43,-102.69 3553.54,-109.37"/>
</g>
<!-- Node4&#45;&gt;Node3 -->
<g id="edge4" class="edge">
<title>Node4&#45;&gt;Node3</title>
<path fill="none" stroke="midnightblue" d="M179.61,-72.86C172.06,-61.76 158.77,-42.24 149.14,-28.09"/>
<polygon fill="midnightblue" stroke="midnightblue" points="151.95,-26.01 143.43,-19.72 146.17,-29.95 151.95,-26.01"/>
</g>
</g>
</svg>
