<?xml version="1.0" encoding="UTF-8" standalone="no"?>
<!DOCTYPE svg PUBLIC "-//W3C//DTD SVG 1.1//EN"
 "http://www.w3.org/Graphics/SVG/1.1/DTD/svg11.dtd">
<!-- Generated by graphviz version 2.47.0 (20210316.2052)
 -->
<!-- Title: libs/JSystem/JAudio2/JAISeq.cpp Pages: 1 -->
<!--zoomable 184 -->
<svg id="main" version="1.1" xmlns="http://www.w3.org/2000/svg" xmlns:xlink="http://www.w3.org/1999/xlink" xml:space="preserve" onload="init(evt)">
<style type="text/css"><![CDATA[
.edge:hover path { stroke: red; }
.edge:hover polygon { stroke: red; fill: red; }
]]></style>
<script type="text/javascript"><![CDATA[
var edges = document.getElementsByTagName('g');
if (edges && edges.length) {
  for (var i=0;i<edges.length;i++) {
    if (edges[i].id.substr(0,4)=='edge') {
      edges[i].setAttribute('class','edge');
    }
  }
}
]]></script>
        <defs>
                <circle id="rim" cx="0" cy="0" r="7"/>
                <circle id="rim2" cx="0" cy="0" r="3.5"/>
                <g id="zoomPlus">
                        <use xlink:href="#rim" fill="#404040">
                                <set attributeName="fill" to="#808080" begin="zoomplus.mouseover" end="zoomplus.mouseout"/>
                        </use>
                        <path d="M-4,0h8M0,-4v8" fill="none" stroke="white" stroke-width="1.5" pointer-events="none"/>
                </g>
                <g id="zoomMin">
                        <use xlink:href="#rim" fill="#404040">
                                <set attributeName="fill" to="#808080" begin="zoomminus.mouseover" end="zoomminus.mouseout"/>
                        </use>
                        <path d="M-4,0h8" fill="none" stroke="white" stroke-width="1.5" pointer-events="none"/>
                </g>
                <g id="dirArrow">
                        <path fill="none" stroke="white" stroke-width="1.5" d="M0,-3.0v7 M-2.5,-0.5L0,-3.0L2.5,-0.5"/>
                </g>
               <g id="resetDef">
                       <use xlink:href="#rim2" fill="#404040">
                               <set attributeName="fill" to="#808080" begin="reset.mouseover" end="reset.mouseout"/>
                       </use>
               </g>
        </defs>

<script type="text/javascript">
var viewWidth = 3372;
var viewHeight = 184;
var sectionId = 'dynsection-0';
</script>
<script xlink:href="svgpan.js"/>
<svg id="graph" class="graph">
<g id="viewport">
<title>libs/JSystem/JAudio2/JAISeq.cpp</title>
<polygon fill="white" stroke="transparent" points="-4,4 -4,-180 3368,-180 3368,4 -4,4"/>
<!-- Node1 -->
<g id="node1" class="node">
<title>Node1</title>
<g id="a_node1"><a xlink:title=" ">
<polygon fill="#bfbfbf" stroke="black" points="1535,-145.5 1535,-175.5 1646,-175.5 1646,-145.5 1535,-145.5"/>
<text text-anchor="start" x="1543" y="-163.5" font-family="Helvetica,sans-Serif" font-size="10.00">libs/JSystem/JAudio2</text>
<text text-anchor="middle" x="1590.5" y="-152.5" font-family="Helvetica,sans-Serif" font-size="10.00">/JAISeq.cpp</text>
</a>
</g>
</g>
<!-- Node2 -->
<g id="node2" class="node">
<title>Node2</title>
<g id="a_node2"><a xlink:href="dol2asm_8h.html" target="_top" xlink:title=" ">
<polygon fill="white" stroke="black" points="0,-73 0,-92 61,-92 61,-73 0,-73"/>
<text text-anchor="middle" x="30.5" y="-80" font-family="Helvetica,sans-Serif" font-size="10.00">dol2asm.h</text>
</a>
</g>
</g>
<!-- Node1&#45;&gt;Node2 -->
<g id="edge1" class="edge">
<title>Node1&#45;&gt;Node2</title>
<path fill="none" stroke="midnightblue" d="M1534.65,-159.22C1277.95,-157.71 217.83,-149.07 75.5,-109 66.87,-106.57 58.13,-102.16 50.67,-97.68"/>
<polygon fill="midnightblue" stroke="midnightblue" points="52.32,-94.58 42.02,-92.11 48.54,-100.47 52.32,-94.58"/>
</g>
<!-- Node3 -->
<g id="node3" class="node">
<title>Node3</title>
<g id="a_node3"><a xlink:href="types_8h.html" target="_top" xlink:title=" ">
<polygon fill="white" stroke="black" points="97,-0.5 97,-19.5 178,-19.5 178,-0.5 97,-0.5"/>
<text text-anchor="middle" x="137.5" y="-7.5" font-family="Helvetica,sans-Serif" font-size="10.00">dolphin/types.h</text>
</a>
</g>
</g>
<!-- Node1&#45;&gt;Node3 -->
<g id="edge2" class="edge">
<title>Node1&#45;&gt;Node3</title>
<path fill="none" stroke="midnightblue" d="M1534.99,-159.74C1271.65,-160.62 158.96,-161.21 108.5,-109 87.03,-86.78 108.18,-49.45 123.91,-27.84"/>
<polygon fill="midnightblue" stroke="midnightblue" points="126.89,-29.71 130.18,-19.64 121.33,-25.46 126.89,-29.71"/>
</g>
<!-- Node4 -->
<g id="node4" class="node">
<title>Node4</title>
<g id="a_node4"><a xlink:href="JAISeq_8h.html" target="_top" xlink:title=" ">
<polygon fill="white" stroke="black" points="117.5,-73 117.5,-92 253.5,-92 253.5,-73 117.5,-73"/>
<text text-anchor="middle" x="185.5" y="-80" font-family="Helvetica,sans-Serif" font-size="10.00">JSystem/JAudio2/JAISeq.h</text>
</a>
</g>
</g>
<!-- Node1&#45;&gt;Node4 -->
<g id="edge3" class="edge">
<title>Node1&#45;&gt;Node4</title>
<path fill="none" stroke="midnightblue" d="M1534.71,-159.44C1315.56,-158.87 513.42,-153.71 263.5,-109 247.47,-106.13 230.22,-100.75 216.02,-95.66"/>
<polygon fill="midnightblue" stroke="midnightblue" points="216.87,-92.24 206.28,-92.05 214.44,-98.81 216.87,-92.24"/>
</g>
<!-- Node5 -->
<g id="node5" class="node">
<title>Node5</title>
<g id="a_node5"><a xlink:title=" ">
<polygon fill="white" stroke="#bfbfbf" points="272,-67.5 272,-97.5 405,-97.5 405,-67.5 272,-67.5"/>
<text text-anchor="start" x="280" y="-85.5" font-family="Helvetica,sans-Serif" font-size="10.00">asm/JSystem/JAudio2</text>
<text text-anchor="middle" x="338.5" y="-74.5" font-family="Helvetica,sans-Serif" font-size="10.00">/JAISeq/func_802A0A6C.s</text>
</a>
</g>
</g>
<!-- Node1&#45;&gt;Node5 -->
<g id="edge5" class="edge">
<title>Node1&#45;&gt;Node5</title>
<path fill="none" stroke="midnightblue" d="M1534.93,-159.18C1332.31,-157.68 633.51,-149.61 414.5,-109 404.13,-107.08 393.24,-104.06 383.05,-100.76"/>
<polygon fill="midnightblue" stroke="midnightblue" points="384.12,-97.43 373.53,-97.54 381.88,-104.06 384.12,-97.43"/>
</g>
<!-- Node6 -->
<g id="node6" class="node">
<title>Node6</title>
<g id="a_node6"><a xlink:title=" ">
<polygon fill="white" stroke="#bfbfbf" points="423,-67.5 423,-97.5 556,-97.5 556,-67.5 423,-67.5"/>
<text text-anchor="start" x="431" y="-85.5" font-family="Helvetica,sans-Serif" font-size="10.00">asm/JSystem/JAudio2</text>
<text text-anchor="middle" x="489.5" y="-74.5" font-family="Helvetica,sans-Serif" font-size="10.00">/JAISeq/func_802A0A8C.s</text>
</a>
</g>
</g>
<!-- Node1&#45;&gt;Node6 -->
<g id="edge6" class="edge">
<title>Node1&#45;&gt;Node6</title>
<path fill="none" stroke="midnightblue" d="M1534.85,-158.77C1349.45,-156.01 753.82,-144.53 565.5,-109 555.35,-107.08 544.69,-104.13 534.67,-100.91"/>
<polygon fill="midnightblue" stroke="midnightblue" points="535.51,-97.5 524.92,-97.63 533.28,-104.13 535.51,-97.5"/>
</g>
<!-- Node7 -->
<g id="node7" class="node">
<title>Node7</title>
<g id="a_node7"><a xlink:title=" ">
<polygon fill="white" stroke="#bfbfbf" points="574,-67.5 574,-97.5 705,-97.5 705,-67.5 574,-67.5"/>
<text text-anchor="start" x="582" y="-85.5" font-family="Helvetica,sans-Serif" font-size="10.00">asm/JSystem/JAudio2</text>
<text text-anchor="middle" x="639.5" y="-74.5" font-family="Helvetica,sans-Serif" font-size="10.00">/JAISeq/func_802A0B64.s</text>
</a>
</g>
</g>
<!-- Node1&#45;&gt;Node7 -->
<g id="edge7" class="edge">
<title>Node1&#45;&gt;Node7</title>
<path fill="none" stroke="midnightblue" d="M1534.92,-158.26C1367.98,-154.21 872.71,-139.86 714.5,-109 704.48,-107.04 693.96,-104.08 684.08,-100.85"/>
<polygon fill="midnightblue" stroke="midnightblue" points="685.04,-97.48 674.45,-97.57 682.78,-104.11 685.04,-97.48"/>
</g>
<!-- Node8 -->
<g id="node8" class="node">
<title>Node8</title>
<g id="a_node8"><a xlink:title=" ">
<polygon fill="white" stroke="#bfbfbf" points="723,-56.5 723,-108.5 914,-108.5 914,-56.5 723,-56.5"/>
<text text-anchor="start" x="731" y="-96.5" font-family="Helvetica,sans-Serif" font-size="10.00">asm/JSystem/JAudio2</text>
<text text-anchor="start" x="731" y="-85.5" font-family="Helvetica,sans-Serif" font-size="10.00">/JAISeq/playSeqData</text>
<text text-anchor="start" x="731" y="-74.5" font-family="Helvetica,sans-Serif" font-size="10.00">___6JAISeqFRC14JASSoundParams16</text>
<text text-anchor="middle" x="818.5" y="-63.5" font-family="Helvetica,sans-Serif" font-size="10.00">JAISoundActivity.s</text>
</a>
</g>
</g>
<!-- Node1&#45;&gt;Node8 -->
<g id="edge8" class="edge">
<title>Node1&#45;&gt;Node8</title>
<path fill="none" stroke="midnightblue" d="M1534.81,-158.34C1421.49,-155.32 1155.98,-144.87 924.19,-108.99"/>
<polygon fill="midnightblue" stroke="midnightblue" points="924.64,-105.52 914.22,-107.43 923.56,-112.43 924.64,-105.52"/>
</g>
<!-- Node9 -->
<g id="node9" class="node">
<title>Node9</title>
<g id="a_node9"><a xlink:title=" ">
<polygon fill="white" stroke="#bfbfbf" points="932,-62 932,-103 1071,-103 1071,-62 932,-62"/>
<text text-anchor="start" x="940" y="-91" font-family="Helvetica,sans-Serif" font-size="10.00">asm/JSystem/JAudio2</text>
<text text-anchor="start" x="940" y="-80" font-family="Helvetica,sans-Serif" font-size="10.00">/JAISeq/reserveChildTracks</text>
<text text-anchor="middle" x="1001.5" y="-69" font-family="Helvetica,sans-Serif" font-size="10.00">___6JAISeqFi.s</text>
</a>
</g>
</g>
<!-- Node1&#45;&gt;Node9 -->
<g id="edge9" class="edge">
<title>Node1&#45;&gt;Node9</title>
<path fill="none" stroke="midnightblue" d="M1534.82,-157.87C1440.43,-154.24 1243.38,-142.95 1080.5,-109 1076.1,-108.08 1071.59,-107.01 1067.07,-105.83"/>
<polygon fill="midnightblue" stroke="midnightblue" points="1067.78,-102.39 1057.21,-103.11 1065.92,-109.14 1067.78,-102.39"/>
</g>
<!-- Node10 -->
<g id="node10" class="node">
<title>Node10</title>
<g id="a_node10"><a xlink:title=" ">
<polygon fill="white" stroke="#bfbfbf" points="1089.5,-62 1089.5,-103 1227.5,-103 1227.5,-62 1089.5,-62"/>
<text text-anchor="start" x="1097.5" y="-91" font-family="Helvetica,sans-Serif" font-size="10.00">asm/JSystem/JAudio2</text>
<text text-anchor="start" x="1097.5" y="-80" font-family="Helvetica,sans-Serif" font-size="10.00">/JAISeq/releaseChildTracks</text>
<text text-anchor="middle" x="1158.5" y="-69" font-family="Helvetica,sans-Serif" font-size="10.00">___6JAISeqFv.s</text>
</a>
</g>
</g>
<!-- Node1&#45;&gt;Node10 -->
<g id="edge10" class="edge">
<title>Node1&#45;&gt;Node10</title>
<path fill="none" stroke="midnightblue" d="M1534.93,-154.5C1464.93,-147.53 1341.25,-132.98 1237.5,-109 1233.39,-108.05 1229.19,-106.99 1224.97,-105.84"/>
<polygon fill="midnightblue" stroke="midnightblue" points="1225.71,-102.41 1215.14,-103.06 1223.8,-109.15 1225.71,-102.41"/>
</g>
<!-- Node11 -->
<g id="node11" class="node">
<title>Node11</title>
<g id="a_node11"><a xlink:title=" ">
<polygon fill="white" stroke="#bfbfbf" points="1246,-62 1246,-103 1389,-103 1389,-62 1246,-62"/>
<text text-anchor="start" x="1254" y="-91" font-family="Helvetica,sans-Serif" font-size="10.00">asm/JSystem/JAudio2</text>
<text text-anchor="start" x="1254" y="-80" font-family="Helvetica,sans-Serif" font-size="10.00">/JAISeq/prepare_getSeqData</text>
<text text-anchor="middle" x="1317.5" y="-69" font-family="Helvetica,sans-Serif" font-size="10.00">___6JAISeqFv.s</text>
</a>
</g>
</g>
<!-- Node1&#45;&gt;Node11 -->
<g id="edge11" class="edge">
<title>Node1&#45;&gt;Node11</title>
<path fill="none" stroke="midnightblue" d="M1534.85,-145.61C1496.42,-135.84 1444.2,-122.19 1398.5,-109 1395.14,-108.03 1391.71,-107.02 1388.25,-105.99"/>
<polygon fill="midnightblue" stroke="midnightblue" points="1389.03,-102.57 1378.44,-103.03 1387,-109.27 1389.03,-102.57"/>
</g>
<!-- Node12 -->
<g id="node12" class="node">
<title>Node12</title>
<g id="a_node12"><a xlink:title=" ">
<polygon fill="white" stroke="#bfbfbf" points="1407.5,-62 1407.5,-103 1597.5,-103 1597.5,-62 1407.5,-62"/>
<text text-anchor="start" x="1415.5" y="-91" font-family="Helvetica,sans-Serif" font-size="10.00">asm/JSystem/JAudio2</text>
<text text-anchor="start" x="1415.5" y="-80" font-family="Helvetica,sans-Serif" font-size="10.00">/JAISeq/prepare___6JAISeqFRC14</text>
<text text-anchor="middle" x="1502.5" y="-69" font-family="Helvetica,sans-Serif" font-size="10.00">JASSoundParams16JAISoundActivity.s</text>
</a>
</g>
</g>
<!-- Node1&#45;&gt;Node12 -->
<g id="edge12" class="edge">
<title>Node1&#45;&gt;Node12</title>
<path fill="none" stroke="midnightblue" d="M1573.95,-145.2C1562.46,-135.28 1546.82,-121.77 1533.1,-109.93"/>
<polygon fill="midnightblue" stroke="midnightblue" points="1535.14,-107.07 1525.29,-103.18 1530.57,-112.37 1535.14,-107.07"/>
</g>
<!-- Node13 -->
<g id="node13" class="node">
<title>Node13</title>
<g id="a_node13"><a xlink:title=" ">
<polygon fill="white" stroke="#bfbfbf" points="1616,-62 1616,-103 1743,-103 1743,-62 1616,-62"/>
<text text-anchor="start" x="1624" y="-91" font-family="Helvetica,sans-Serif" font-size="10.00">asm/JSystem/JAudio2</text>
<text text-anchor="start" x="1624" y="-80" font-family="Helvetica,sans-Serif" font-size="10.00">/JAISeq/JAISeqMgr_calc</text>
<text text-anchor="middle" x="1679.5" y="-69" font-family="Helvetica,sans-Serif" font-size="10.00">___6JAISeqFv.s</text>
</a>
</g>
</g>
<!-- Node1&#45;&gt;Node13 -->
<g id="edge13" class="edge">
<title>Node1&#45;&gt;Node13</title>
<path fill="none" stroke="midnightblue" d="M1607.24,-145.2C1618.86,-135.28 1634.68,-121.77 1648.55,-109.93"/>
<polygon fill="midnightblue" stroke="midnightblue" points="1651.12,-112.34 1656.45,-103.18 1646.58,-107.01 1651.12,-112.34"/>
</g>
<!-- Node14 -->
<g id="node14" class="node">
<title>Node14</title>
<g id="a_node14"><a xlink:title=" ">
<polygon fill="white" stroke="#bfbfbf" points="1761.5,-67.5 1761.5,-97.5 1901.5,-97.5 1901.5,-67.5 1761.5,-67.5"/>
<text text-anchor="start" x="1769.5" y="-85.5" font-family="Helvetica,sans-Serif" font-size="10.00">asm/JSystem/JAudio2</text>
<text text-anchor="middle" x="1831.5" y="-74.5" font-family="Helvetica,sans-Serif" font-size="10.00">/JAISeq/die___6JAISeqFv.s</text>
</a>
</g>
</g>
<!-- Node1&#45;&gt;Node14 -->
<g id="edge14" class="edge">
<title>Node1&#45;&gt;Node14</title>
<path fill="none" stroke="midnightblue" d="M1635.93,-145.47C1668.42,-135.41 1713.19,-121.47 1752.5,-109 1760.88,-106.34 1769.76,-103.5 1778.42,-100.71"/>
<polygon fill="midnightblue" stroke="midnightblue" points="1779.62,-104.01 1788.06,-97.61 1777.47,-97.34 1779.62,-104.01"/>
</g>
<!-- Node15 -->
<g id="node15" class="node">
<title>Node15</title>
<g id="a_node15"><a xlink:title=" ">
<polygon fill="white" stroke="#bfbfbf" points="1919.5,-67.5 1919.5,-97.5 2049.5,-97.5 2049.5,-67.5 1919.5,-67.5"/>
<text text-anchor="start" x="1927.5" y="-85.5" font-family="Helvetica,sans-Serif" font-size="10.00">asm/JSystem/JAudio2</text>
<text text-anchor="middle" x="1984.5" y="-74.5" font-family="Helvetica,sans-Serif" font-size="10.00">/JAISeq/func_802A1268.s</text>
</a>
</g>
</g>
<!-- Node1&#45;&gt;Node15 -->
<g id="edge15" class="edge">
<title>Node1&#45;&gt;Node15</title>
<path fill="none" stroke="midnightblue" d="M1646.01,-153.73C1710.3,-146.37 1819.09,-131.78 1910.5,-109 1919.6,-106.73 1929.18,-103.83 1938.31,-100.81"/>
<polygon fill="midnightblue" stroke="midnightblue" points="1939.66,-104.04 1947.99,-97.5 1937.4,-97.42 1939.66,-104.04"/>
</g>
<!-- Node16 -->
<g id="node16" class="node">
<title>Node16</title>
<g id="a_node16"><a xlink:title=" ">
<polygon fill="white" stroke="#bfbfbf" points="2067.5,-62 2067.5,-103 2195.5,-103 2195.5,-62 2067.5,-62"/>
<text text-anchor="start" x="2075.5" y="-91" font-family="Helvetica,sans-Serif" font-size="10.00">asm/JSystem/JAudio2</text>
<text text-anchor="start" x="2075.5" y="-80" font-family="Helvetica,sans-Serif" font-size="10.00">/JAISeq/JAISound_tryDie</text>
<text text-anchor="middle" x="2131.5" y="-69" font-family="Helvetica,sans-Serif" font-size="10.00">___6JAISeqFv.s</text>
</a>
</g>
</g>
<!-- Node1&#45;&gt;Node16 -->
<g id="edge16" class="edge">
<title>Node1&#45;&gt;Node16</title>
<path fill="none" stroke="midnightblue" d="M1646.29,-157.6C1734.7,-153.66 1912.01,-142.03 2058.5,-109 2062.37,-108.13 2066.31,-107.12 2070.27,-106.01"/>
<polygon fill="midnightblue" stroke="midnightblue" points="2071.49,-109.3 2080.08,-103.1 2069.5,-102.59 2071.49,-109.3"/>
</g>
<!-- Node17 -->
<g id="node17" class="node">
<title>Node17</title>
<g id="a_node17"><a xlink:title=" ">
<polygon fill="white" stroke="#bfbfbf" points="2213.5,-62 2213.5,-103 2403.5,-103 2403.5,-62 2213.5,-62"/>
<text text-anchor="start" x="2221.5" y="-91" font-family="Helvetica,sans-Serif" font-size="10.00">asm/JSystem/JAudio2</text>
<text text-anchor="start" x="2221.5" y="-80" font-family="Helvetica,sans-Serif" font-size="10.00">/JAISeq/mixOut___6JAISeqFRC14</text>
<text text-anchor="middle" x="2308.5" y="-69" font-family="Helvetica,sans-Serif" font-size="10.00">JASSoundParams16JAISoundActivity.s</text>
</a>
</g>
</g>
<!-- Node1&#45;&gt;Node17 -->
<g id="edge17" class="edge">
<title>Node1&#45;&gt;Node17</title>
<path fill="none" stroke="midnightblue" d="M1646.31,-157.87C1754.6,-154.05 2000.49,-142.19 2204.5,-109 2211.22,-107.91 2218.14,-106.61 2225.08,-105.18"/>
<polygon fill="midnightblue" stroke="midnightblue" points="2226.18,-108.52 2235.22,-103 2224.71,-101.68 2226.18,-108.52"/>
</g>
<!-- Node18 -->
<g id="node18" class="node">
<title>Node18</title>
<g id="a_node18"><a xlink:title=" ">
<polygon fill="white" stroke="#bfbfbf" points="2422,-56.5 2422,-108.5 2613,-108.5 2613,-56.5 2422,-56.5"/>
<text text-anchor="start" x="2430" y="-96.5" font-family="Helvetica,sans-Serif" font-size="10.00">asm/JSystem/JAudio2</text>
<text text-anchor="start" x="2430" y="-85.5" font-family="Helvetica,sans-Serif" font-size="10.00">/JAISeq/JAISeqMgr_mixOut</text>
<text text-anchor="start" x="2430" y="-74.5" font-family="Helvetica,sans-Serif" font-size="10.00">___6JAISeqFRC14JASSoundParams16</text>
<text text-anchor="middle" x="2517.5" y="-63.5" font-family="Helvetica,sans-Serif" font-size="10.00">JAISoundActivity.s</text>
</a>
</g>
</g>
<!-- Node1&#45;&gt;Node18 -->
<g id="edge18" class="edge">
<title>Node1&#45;&gt;Node18</title>
<path fill="none" stroke="midnightblue" d="M1646.18,-159.46C1777.87,-158.65 2118.8,-152.3 2411.82,-108.97"/>
<polygon fill="midnightblue" stroke="midnightblue" points="2412.42,-112.42 2421.79,-107.48 2411.38,-105.5 2412.42,-112.42"/>
</g>
<!-- Node19 -->
<g id="node19" class="node">
<title>Node19</title>
<g id="a_node19"><a xlink:title=" ">
<polygon fill="white" stroke="#bfbfbf" points="2631.5,-67.5 2631.5,-97.5 2785.5,-97.5 2785.5,-67.5 2631.5,-67.5"/>
<text text-anchor="start" x="2639.5" y="-85.5" font-family="Helvetica,sans-Serif" font-size="10.00">asm/JSystem/JAudio2</text>
<text text-anchor="middle" x="2708.5" y="-74.5" font-family="Helvetica,sans-Serif" font-size="10.00">/JAISeq/getChild__6JAISeqFi.s</text>
</a>
</g>
</g>
<!-- Node1&#45;&gt;Node19 -->
<g id="edge19" class="edge">
<title>Node1&#45;&gt;Node19</title>
<path fill="none" stroke="midnightblue" d="M1646.15,-158.53C1832.31,-155.01 2432.18,-141.39 2622.5,-109 2634.37,-106.98 2646.92,-103.85 2658.66,-100.47"/>
<polygon fill="midnightblue" stroke="midnightblue" points="2659.71,-103.81 2668.29,-97.59 2657.7,-97.1 2659.71,-103.81"/>
</g>
<!-- Node20 -->
<g id="node20" class="node">
<title>Node20</title>
<g id="a_node20"><a xlink:title=" ">
<polygon fill="white" stroke="#bfbfbf" points="2804,-62 2804,-103 2919,-103 2919,-62 2804,-62"/>
<text text-anchor="start" x="2812" y="-91" font-family="Helvetica,sans-Serif" font-size="10.00">asm/JSystem/JAudio2</text>
<text text-anchor="start" x="2812" y="-80" font-family="Helvetica,sans-Serif" font-size="10.00">/JAISeq/releaseChild</text>
<text text-anchor="middle" x="2861.5" y="-69" font-family="Helvetica,sans-Serif" font-size="10.00">__6JAISeqFi.s</text>
</a>
</g>
</g>
<!-- Node1&#45;&gt;Node20 -->
<g id="edge20" class="edge">
<title>Node1&#45;&gt;Node20</title>
<path fill="none" stroke="midnightblue" d="M1646.02,-159.53C1851.81,-159.28 2570.62,-155.03 2794.5,-109 2798.37,-108.2 2802.3,-107.22 2806.23,-106.09"/>
<polygon fill="midnightblue" stroke="midnightblue" points="2807.45,-109.38 2815.95,-103.06 2805.36,-102.7 2807.45,-109.38"/>
</g>
<!-- Node21 -->
<g id="node21" class="node">
<title>Node21</title>
<g id="a_node21"><a xlink:title=" ">
<polygon fill="white" stroke="#bfbfbf" points="2937.5,-67.5 2937.5,-97.5 3097.5,-97.5 3097.5,-67.5 2937.5,-67.5"/>
<text text-anchor="start" x="2945.5" y="-85.5" font-family="Helvetica,sans-Serif" font-size="10.00">asm/JSystem/JAudio2</text>
<text text-anchor="middle" x="3017.5" y="-74.5" font-family="Helvetica,sans-Serif" font-size="10.00">/JAISeq/getTrack__6JAISeqFv.s</text>
</a>
</g>
</g>
<!-- Node1&#45;&gt;Node21 -->
<g id="edge21" class="edge">
<title>Node1&#45;&gt;Node21</title>
<path fill="none" stroke="midnightblue" d="M1646.33,-159.19C1866.59,-157.67 2675.57,-149.4 2928.5,-109 2941.02,-107 2954.28,-103.81 2966.63,-100.35"/>
<polygon fill="midnightblue" stroke="midnightblue" points="2967.69,-103.69 2976.31,-97.54 2965.73,-96.97 2967.69,-103.69"/>
</g>
<!-- Node22 -->
<g id="node22" class="node">
<title>Node22</title>
<g id="a_node22"><a xlink:title=" ">
<polygon fill="white" stroke="#bfbfbf" points="3116,-62 3116,-103 3231,-103 3231,-62 3116,-62"/>
<text text-anchor="start" x="3124" y="-91" font-family="Helvetica,sans-Serif" font-size="10.00">asm/JSystem/JAudio2</text>
<text text-anchor="start" x="3124" y="-80" font-family="Helvetica,sans-Serif" font-size="10.00">/JAISeq/getChildTrack</text>
<text text-anchor="middle" x="3173.5" y="-69" font-family="Helvetica,sans-Serif" font-size="10.00">__6JAISeqFi.s</text>
</a>
</g>
</g>
<!-- Node1&#45;&gt;Node22 -->
<g id="edge22" class="edge">
<title>Node1&#45;&gt;Node22</title>
<path fill="none" stroke="midnightblue" d="M1646.27,-158.73C1902.61,-155.05 2961.44,-138.18 3106.5,-109 3110.37,-108.22 3114.31,-107.24 3118.24,-106.13"/>
<polygon fill="midnightblue" stroke="midnightblue" points="3119.45,-109.42 3127.96,-103.11 3117.37,-102.74 3119.45,-109.42"/>
</g>
<!-- Node23 -->
<g id="node23" class="node">
<title>Node23</title>
<g id="a_node23"><a xlink:title=" ">
<polygon fill="white" stroke="#bfbfbf" points="3249,-62 3249,-103 3364,-103 3364,-62 3249,-62"/>
<text text-anchor="start" x="3257" y="-91" font-family="Helvetica,sans-Serif" font-size="10.00">asm/JSystem/JAudio2</text>
<text text-anchor="start" x="3257" y="-80" font-family="Helvetica,sans-Serif" font-size="10.00">/JAISeq/getTempoMgr</text>
<text text-anchor="middle" x="3306.5" y="-69" font-family="Helvetica,sans-Serif" font-size="10.00">__6JAISeqFv.s</text>
</a>
</g>
</g>
<!-- Node1&#45;&gt;Node23 -->
<g id="edge23" class="edge">
<title>Node1&#45;&gt;Node23</title>
<path fill="none" stroke="midnightblue" d="M1646.18,-158.91C1916.07,-155.9 3081.7,-141.13 3240.5,-109 3244.38,-108.21 3248.34,-107.22 3252.28,-106.09"/>
<polygon fill="midnightblue" stroke="midnightblue" points="3253.54,-109.36 3262.02,-103.01 3251.43,-102.68 3253.54,-109.36"/>
</g>
<!-- Node4&#45;&gt;Node3 -->
<g id="edge4" class="edge">
<title>Node4&#45;&gt;Node3</title>
<path fill="none" stroke="midnightblue" d="M179.61,-72.86C172.06,-61.76 158.77,-42.24 149.14,-28.09"/>
<polygon fill="midnightblue" stroke="midnightblue" points="151.95,-26.01 143.43,-19.72 146.17,-29.95 151.95,-26.01"/>
</g>
</g>
</svg>
        <g id="navigator" transform="translate(0 0)" fill="#404254">
                <rect fill="#f2f5e9" fill-opacity="0.5" stroke="#606060" stroke-width=".5" x="0" y="0" width="60" height="60"/>
                <use id="zoomplus" xlink:href="#zoomPlus" x="17" y="9" onmousedown="handleZoom(evt,'in')"/>
                <use id="zoomminus" xlink:href="#zoomMin" x="42" y="9" onmousedown="handleZoom(evt,'out')"/>
                <use id="reset" xlink:href="#resetDef" x="30" y="36" onmousedown="handleReset()"/>
                <g id="arrowUp" xlink:href="#dirArrow" transform="translate(30 24)" onmousedown="handlePan(0,-1)">
                  <use xlink:href="#rim" fill="#404040">
                        <set attributeName="fill" to="#808080" begin="arrowUp.mouseover" end="arrowUp.mouseout"/>
                  </use>
                  <path fill="none" stroke="white" stroke-width="1.5" d="M0,-3.0v7 M-2.5,-0.5L0,-3.0L2.5,-0.5"/>
                </g>
                <g id="arrowRight" xlink:href="#dirArrow" transform="rotate(90) translate(36 -43)" onmousedown="handlePan(1,0)">
                  <use xlink:href="#rim" fill="#404040">
                        <set attributeName="fill" to="#808080" begin="arrowRight.mouseover" end="arrowRight.mouseout"/>
                  </use>
                  <path fill="none" stroke="white" stroke-width="1.5" d="M0,-3.0v7 M-2.5,-0.5L0,-3.0L2.5,-0.5"/>
                </g>
                <g id="arrowDown" xlink:href="#dirArrow" transform="rotate(180) translate(-30 -48)" onmousedown="handlePan(0,1)">
                  <use xlink:href="#rim" fill="#404040">
                        <set attributeName="fill" to="#808080" begin="arrowDown.mouseover" end="arrowDown.mouseout"/>
                  </use>
                  <path fill="none" stroke="white" stroke-width="1.5" d="M0,-3.0v7 M-2.5,-0.5L0,-3.0L2.5,-0.5"/>
                </g>
                <g id="arrowLeft" xlink:href="#dirArrow" transform="rotate(270) translate(-36 17)" onmousedown="handlePan(-1,0)">
                  <use xlink:href="#rim" fill="#404040">
                        <set attributeName="fill" to="#808080" begin="arrowLeft.mouseover" end="arrowLeft.mouseout"/>
                  </use>
                  <path fill="none" stroke="white" stroke-width="1.5" d="M0,-3.0v7 M-2.5,-0.5L0,-3.0L2.5,-0.5"/>
                </g>
        </g>
        <svg viewBox="0 0 15 15" width="100%" height="30px" preserveAspectRatio="xMaxYMin meet">
         <g id="arrow_out" transform="scale(0.3 0.3)">
          <a xlink:href="JAISeq_8cpp__incl_org.svg" target="_base">
           <rect id="button" ry="5" rx="5" y="6" x="6" height="38" width="38"
                fill="#f2f5e9" fill-opacity="0.5" stroke="#606060" stroke-width="1.0"/>
           <path id="arrow"
             d="M 11.500037,31.436501 C 11.940474,20.09759 22.043105,11.32322 32.158766,21.979434 L 37.068811,17.246167 C 37.068811,17.246167 37.088388,32 37.088388,32 L 22.160133,31.978069 C 22.160133,31.978069 26.997745,27.140456 26.997745,27.140456 C 18.528582,18.264221 13.291696,25.230495 11.500037,31.436501 z"
             style="fill:#404040;"/>
          </a>
         </g>
        </svg>
</svg>
