<?xml version="1.0" encoding="UTF-8" standalone="no"?>
<!DOCTYPE svg PUBLIC "-//W3C//DTD SVG 1.1//EN"
 "http://www.w3.org/Graphics/SVG/1.1/DTD/svg11.dtd">
<!-- Generated by graphviz version 2.47.0 (20210316.2052)
 -->
<!-- Title: libs/JSystem/JAudio2/JAIStream.cpp Pages: 1 -->
<!--zoomable 184 -->
<svg id="main" version="1.1" xmlns="http://www.w3.org/2000/svg" xmlns:xlink="http://www.w3.org/1999/xlink" xml:space="preserve" onload="init(evt)">
<style type="text/css"><![CDATA[
.edge:hover path { stroke: red; }
.edge:hover polygon { stroke: red; fill: red; }
]]></style>
<script type="text/javascript"><![CDATA[
var edges = document.getElementsByTagName('g');
if (edges && edges.length) {
  for (var i=0;i<edges.length;i++) {
    if (edges[i].id.substr(0,4)=='edge') {
      edges[i].setAttribute('class','edge');
    }
  }
}
]]></script>
        <defs>
                <circle id="rim" cx="0" cy="0" r="7"/>
                <circle id="rim2" cx="0" cy="0" r="3.5"/>
                <g id="zoomPlus">
                        <use xlink:href="#rim" fill="#404040">
                                <set attributeName="fill" to="#808080" begin="zoomplus.mouseover" end="zoomplus.mouseout"/>
                        </use>
                        <path d="M-4,0h8M0,-4v8" fill="none" stroke="white" stroke-width="1.5" pointer-events="none"/>
                </g>
                <g id="zoomMin">
                        <use xlink:href="#rim" fill="#404040">
                                <set attributeName="fill" to="#808080" begin="zoomminus.mouseover" end="zoomminus.mouseout"/>
                        </use>
                        <path d="M-4,0h8" fill="none" stroke="white" stroke-width="1.5" pointer-events="none"/>
                </g>
                <g id="dirArrow">
                        <path fill="none" stroke="white" stroke-width="1.5" d="M0,-3.0v7 M-2.5,-0.5L0,-3.0L2.5,-0.5"/>
                </g>
               <g id="resetDef">
                       <use xlink:href="#rim2" fill="#404040">
                               <set attributeName="fill" to="#808080" begin="reset.mouseover" end="reset.mouseout"/>
                       </use>
               </g>
        </defs>

<script type="text/javascript">
var viewWidth = 2891;
var viewHeight = 184;
var sectionId = 'dynsection-0';
</script>
<script xlink:href="svgpan.js"/>
<svg id="graph" class="graph">
<g id="viewport">
<title>libs/JSystem/JAudio2/JAIStream.cpp</title>
<polygon fill="white" stroke="transparent" points="-4,4 -4,-180 2887,-180 2887,4 -4,4"/>
<!-- Node1 -->
<g id="node1" class="node">
<title>Node1</title>
<g id="a_node1"><a xlink:title=" ">
<polygon fill="#bfbfbf" stroke="black" points="1389,-145.5 1389,-175.5 1500,-175.5 1500,-145.5 1389,-145.5"/>
<text text-anchor="start" x="1397" y="-163.5" font-family="Helvetica,sans-Serif" font-size="10.00">libs/JSystem/JAudio2</text>
<text text-anchor="middle" x="1444.5" y="-152.5" font-family="Helvetica,sans-Serif" font-size="10.00">/JAIStream.cpp</text>
</a>
</g>
</g>
<!-- Node2 -->
<g id="node2" class="node">
<title>Node2</title>
<g id="a_node2"><a xlink:href="dol2asm_8h.html" target="_top" xlink:title=" ">
<polygon fill="white" stroke="black" points="0,-73 0,-92 61,-92 61,-73 0,-73"/>
<text text-anchor="middle" x="30.5" y="-80" font-family="Helvetica,sans-Serif" font-size="10.00">dol2asm.h</text>
</a>
</g>
</g>
<!-- Node1&#45;&gt;Node2 -->
<g id="edge1" class="edge">
<title>Node1&#45;&gt;Node2</title>
<path fill="none" stroke="midnightblue" d="M1388.88,-159.01C1148.25,-156.65 203.14,-145.18 75.5,-109 66.87,-106.55 58.13,-102.14 50.68,-97.66"/>
<polygon fill="midnightblue" stroke="midnightblue" points="52.33,-94.56 42.03,-92.1 48.54,-100.45 52.33,-94.56"/>
</g>
<!-- Node3 -->
<g id="node3" class="node">
<title>Node3</title>
<g id="a_node3"><a xlink:href="types_8h.html" target="_top" xlink:title=" ">
<polygon fill="white" stroke="black" points="100,-0.5 100,-19.5 181,-19.5 181,-0.5 100,-0.5"/>
<text text-anchor="middle" x="140.5" y="-7.5" font-family="Helvetica,sans-Serif" font-size="10.00">dolphin/types.h</text>
</a>
</g>
</g>
<!-- Node1&#45;&gt;Node3 -->
<g id="edge2" class="edge">
<title>Node1&#45;&gt;Node3</title>
<path fill="none" stroke="midnightblue" d="M1388.79,-159.52C1141.54,-159.36 153.55,-155.79 108.5,-109 86.79,-86.45 109.68,-48.97 126.36,-27.48"/>
<polygon fill="midnightblue" stroke="midnightblue" points="129.18,-29.56 132.77,-19.6 123.75,-25.15 129.18,-29.56"/>
</g>
<!-- Node4 -->
<g id="node4" class="node">
<title>Node4</title>
<g id="a_node4"><a xlink:href="JAIStream_8h.html" target="_top" xlink:title=" ">
<polygon fill="white" stroke="black" points="117.5,-73 117.5,-92 267.5,-92 267.5,-73 117.5,-73"/>
<text text-anchor="middle" x="192.5" y="-80" font-family="Helvetica,sans-Serif" font-size="10.00">JSystem/JAudio2/JAIStream.h</text>
</a>
</g>
</g>
<!-- Node1&#45;&gt;Node4 -->
<g id="edge3" class="edge">
<title>Node1&#45;&gt;Node4</title>
<path fill="none" stroke="midnightblue" d="M1388.66,-158.94C1186.64,-156.64 494.33,-146.16 276.5,-109 259,-106.01 240.03,-100.47 224.56,-95.31"/>
<polygon fill="midnightblue" stroke="midnightblue" points="225.54,-91.94 214.95,-92 223.26,-98.56 225.54,-91.94"/>
</g>
<!-- Node5 -->
<g id="node5" class="node">
<title>Node5</title>
<g id="a_node5"><a xlink:title=" ">
<polygon fill="white" stroke="#bfbfbf" points="285.5,-56.5 285.5,-108.5 443.5,-108.5 443.5,-56.5 285.5,-56.5"/>
<text text-anchor="start" x="293.5" y="-96.5" font-family="Helvetica,sans-Serif" font-size="10.00">asm/JSystem/JAudio2</text>
<text text-anchor="start" x="293.5" y="-85.5" font-family="Helvetica,sans-Serif" font-size="10.00">/JAIStream/JAIStream</text>
<text text-anchor="start" x="293.5" y="-74.5" font-family="Helvetica,sans-Serif" font-size="10.00">_JASAramStreamCallback</text>
<text text-anchor="middle" x="364.5" y="-63.5" font-family="Helvetica,sans-Serif" font-size="10.00">___FUlP13JASAramStreamPv.s</text>
</a>
</g>
</g>
<!-- Node1&#45;&gt;Node5 -->
<g id="edge5" class="edge">
<title>Node1&#45;&gt;Node5</title>
<path fill="none" stroke="midnightblue" d="M1388.81,-158.36C1210.51,-154.44 654.24,-140.13 454.05,-109.05"/>
<polygon fill="midnightblue" stroke="midnightblue" points="454.37,-105.55 443.93,-107.41 453.25,-112.46 454.37,-105.55"/>
</g>
<!-- Node6 -->
<g id="node6" class="node">
<title>Node6</title>
<g id="a_node6"><a xlink:title=" ">
<polygon fill="white" stroke="#bfbfbf" points="461.5,-67.5 461.5,-97.5 605.5,-97.5 605.5,-67.5 461.5,-67.5"/>
<text text-anchor="start" x="469.5" y="-85.5" font-family="Helvetica,sans-Serif" font-size="10.00">asm/JSystem/JAudio2</text>
<text text-anchor="middle" x="533.5" y="-74.5" font-family="Helvetica,sans-Serif" font-size="10.00">/JAIStream/func_802A3104.s</text>
</a>
</g>
</g>
<!-- Node1&#45;&gt;Node6 -->
<g id="edge6" class="edge">
<title>Node1&#45;&gt;Node6</title>
<path fill="none" stroke="midnightblue" d="M1388.75,-157.88C1227.69,-152.93 763.73,-136.6 614.5,-109 603.51,-106.97 591.93,-103.9 581.07,-100.6"/>
<polygon fill="midnightblue" stroke="midnightblue" points="581.92,-97.2 571.33,-97.51 579.81,-103.87 581.92,-97.2"/>
</g>
<!-- Node7 -->
<g id="node7" class="node">
<title>Node7</title>
<g id="a_node7"><a xlink:title=" ">
<polygon fill="white" stroke="#bfbfbf" points="623.5,-67.5 623.5,-97.5 769.5,-97.5 769.5,-67.5 623.5,-67.5"/>
<text text-anchor="start" x="631.5" y="-85.5" font-family="Helvetica,sans-Serif" font-size="10.00">asm/JSystem/JAudio2</text>
<text text-anchor="middle" x="696.5" y="-74.5" font-family="Helvetica,sans-Serif" font-size="10.00">/JAIStream/func_802A319C.s</text>
</a>
</g>
</g>
<!-- Node1&#45;&gt;Node7 -->
<g id="edge7" class="edge">
<title>Node1&#45;&gt;Node7</title>
<path fill="none" stroke="midnightblue" d="M1388.78,-159.43C1273.83,-158.37 1002.48,-151.18 779.5,-109 768.27,-106.88 756.42,-103.78 745.29,-100.46"/>
<polygon fill="midnightblue" stroke="midnightblue" points="746.32,-97.12 735.73,-97.51 744.26,-103.81 746.32,-97.12"/>
</g>
<!-- Node8 -->
<g id="node8" class="node">
<title>Node8</title>
<g id="a_node8"><a xlink:title=" ">
<polygon fill="white" stroke="#bfbfbf" points="788,-62 788,-103 927,-103 927,-62 788,-62"/>
<text text-anchor="start" x="796" y="-91" font-family="Helvetica,sans-Serif" font-size="10.00">asm/JSystem/JAudio2</text>
<text text-anchor="start" x="796" y="-80" font-family="Helvetica,sans-Serif" font-size="10.00">/JAIStream/prepare_prepare</text>
<text text-anchor="middle" x="857.5" y="-69" font-family="Helvetica,sans-Serif" font-size="10.00">Stream___9JAIStreamFv.s</text>
</a>
</g>
</g>
<!-- Node1&#45;&gt;Node8 -->
<g id="edge8" class="edge">
<title>Node1&#45;&gt;Node8</title>
<path fill="none" stroke="midnightblue" d="M1388.66,-157.83C1294.5,-154.16 1098.53,-142.8 936.5,-109 932.1,-108.08 927.59,-107.01 923.07,-105.83"/>
<polygon fill="midnightblue" stroke="midnightblue" points="923.78,-102.39 913.21,-103.11 921.92,-109.14 923.78,-102.39"/>
</g>
<!-- Node9 -->
<g id="node9" class="node">
<title>Node9</title>
<g id="a_node9"><a xlink:title=" ">
<polygon fill="white" stroke="#bfbfbf" points="945,-62 945,-103 1060,-103 1060,-62 945,-62"/>
<text text-anchor="start" x="953" y="-91" font-family="Helvetica,sans-Serif" font-size="10.00">asm/JSystem/JAudio2</text>
<text text-anchor="start" x="953" y="-80" font-family="Helvetica,sans-Serif" font-size="10.00">/JAIStream/prepare_</text>
<text text-anchor="middle" x="1002.5" y="-69" font-family="Helvetica,sans-Serif" font-size="10.00">__9JAIStreamFv.s</text>
</a>
</g>
</g>
<!-- Node1&#45;&gt;Node9 -->
<g id="edge9" class="edge">
<title>Node1&#45;&gt;Node9</title>
<path fill="none" stroke="midnightblue" d="M1388.93,-156.13C1314.86,-150.72 1180.15,-137.64 1068.5,-109 1065.35,-108.19 1062.14,-107.28 1058.92,-106.29"/>
<polygon fill="midnightblue" stroke="midnightblue" points="1059.88,-102.92 1049.29,-103.12 1057.7,-109.57 1059.88,-102.92"/>
</g>
<!-- Node10 -->
<g id="node10" class="node">
<title>Node10</title>
<g id="a_node10"><a xlink:title=" ">
<polygon fill="white" stroke="#bfbfbf" points="1077.5,-62 1077.5,-103 1235.5,-103 1235.5,-62 1077.5,-62"/>
<text text-anchor="start" x="1085.5" y="-91" font-family="Helvetica,sans-Serif" font-size="10.00">asm/JSystem/JAudio2</text>
<text text-anchor="start" x="1085.5" y="-80" font-family="Helvetica,sans-Serif" font-size="10.00">/JAIStream/prepare_startStream</text>
<text text-anchor="middle" x="1156.5" y="-69" font-family="Helvetica,sans-Serif" font-size="10.00">___9JAIStreamFv.s</text>
</a>
</g>
</g>
<!-- Node1&#45;&gt;Node10 -->
<g id="edge10" class="edge">
<title>Node1&#45;&gt;Node10</title>
<path fill="none" stroke="midnightblue" d="M1388.63,-145.8C1348.67,-135.89 1293.68,-122.01 1245.5,-109 1241.68,-107.97 1237.77,-106.9 1233.83,-105.81"/>
<polygon fill="midnightblue" stroke="midnightblue" points="1234.56,-102.38 1223.99,-103.07 1232.68,-109.12 1234.56,-102.38"/>
</g>
<!-- Node11 -->
<g id="node11" class="node">
<title>Node11</title>
<g id="a_node11"><a xlink:title=" ">
<polygon fill="white" stroke="#bfbfbf" points="1254,-56.5 1254,-108.5 1451,-108.5 1451,-56.5 1254,-56.5"/>
<text text-anchor="start" x="1262" y="-96.5" font-family="Helvetica,sans-Serif" font-size="10.00">asm/JSystem/JAudio2</text>
<text text-anchor="start" x="1262" y="-85.5" font-family="Helvetica,sans-Serif" font-size="10.00">/JAIStream/JAIStreamMgr</text>
<text text-anchor="start" x="1262" y="-74.5" font-family="Helvetica,sans-Serif" font-size="10.00">_mixOut___9JAIStreamFRC14JASSound</text>
<text text-anchor="middle" x="1352.5" y="-63.5" font-family="Helvetica,sans-Serif" font-size="10.00">Params16JAISoundActivity.s</text>
</a>
</g>
</g>
<!-- Node1&#45;&gt;Node11 -->
<g id="edge11" class="edge">
<title>Node1&#45;&gt;Node11</title>
<path fill="none" stroke="midnightblue" d="M1427.2,-145.2C1416.85,-136.66 1403.28,-125.45 1390.55,-114.93"/>
<polygon fill="midnightblue" stroke="midnightblue" points="1392.71,-112.17 1382.77,-108.5 1388.25,-117.57 1392.71,-112.17"/>
</g>
<!-- Node12 -->
<g id="node12" class="node">
<title>Node12</title>
<g id="a_node12"><a xlink:title=" ">
<polygon fill="white" stroke="#bfbfbf" points="1469.5,-62 1469.5,-103 1603.5,-103 1603.5,-62 1469.5,-62"/>
<text text-anchor="start" x="1477.5" y="-91" font-family="Helvetica,sans-Serif" font-size="10.00">asm/JSystem/JAudio2</text>
<text text-anchor="start" x="1477.5" y="-80" font-family="Helvetica,sans-Serif" font-size="10.00">/JAIStream/die_JAIStream</text>
<text text-anchor="middle" x="1536.5" y="-69" font-family="Helvetica,sans-Serif" font-size="10.00">___9JAIStreamFv.s</text>
</a>
</g>
</g>
<!-- Node1&#45;&gt;Node12 -->
<g id="edge12" class="edge">
<title>Node1&#45;&gt;Node12</title>
<path fill="none" stroke="midnightblue" d="M1461.8,-145.2C1473.93,-135.19 1490.47,-121.52 1504.91,-109.59"/>
<polygon fill="midnightblue" stroke="midnightblue" points="1507.2,-112.25 1512.68,-103.18 1502.74,-106.85 1507.2,-112.25"/>
</g>
<!-- Node13 -->
<g id="node13" class="node">
<title>Node13</title>
<g id="a_node13"><a xlink:title=" ">
<polygon fill="white" stroke="#bfbfbf" points="1622,-62 1622,-103 1755,-103 1755,-62 1622,-62"/>
<text text-anchor="start" x="1630" y="-91" font-family="Helvetica,sans-Serif" font-size="10.00">asm/JSystem/JAudio2</text>
<text text-anchor="start" x="1630" y="-80" font-family="Helvetica,sans-Serif" font-size="10.00">/JAIStream/JAISound</text>
<text text-anchor="middle" x="1688.5" y="-69" font-family="Helvetica,sans-Serif" font-size="10.00">_tryDie___9JAIStreamFv.s</text>
</a>
</g>
</g>
<!-- Node1&#45;&gt;Node13 -->
<g id="edge13" class="edge">
<title>Node1&#45;&gt;Node13</title>
<path fill="none" stroke="midnightblue" d="M1492.78,-145.43C1526.43,-135.51 1572.3,-121.78 1612.5,-109 1615.39,-108.08 1618.34,-107.13 1621.32,-106.17"/>
<polygon fill="midnightblue" stroke="midnightblue" points="1622.46,-109.48 1630.88,-103.05 1620.29,-102.82 1622.46,-109.48"/>
</g>
<!-- Node14 -->
<g id="node14" class="node">
<title>Node14</title>
<g id="a_node14"><a xlink:title=" ">
<polygon fill="white" stroke="#bfbfbf" points="1773.5,-62 1773.5,-103 1905.5,-103 1905.5,-62 1773.5,-62"/>
<text text-anchor="start" x="1781.5" y="-91" font-family="Helvetica,sans-Serif" font-size="10.00">asm/JSystem/JAudio2</text>
<text text-anchor="start" x="1781.5" y="-80" font-family="Helvetica,sans-Serif" font-size="10.00">/JAIStream/JAIStreamMgr</text>
<text text-anchor="middle" x="1839.5" y="-69" font-family="Helvetica,sans-Serif" font-size="10.00">_calc___9JAIStreamFv.s</text>
</a>
</g>
</g>
<!-- Node1&#45;&gt;Node14 -->
<g id="edge14" class="edge">
<title>Node1&#45;&gt;Node14</title>
<path fill="none" stroke="midnightblue" d="M1500.29,-153.63C1564.6,-146.19 1673.18,-131.55 1764.5,-109 1768.3,-108.06 1772.18,-107.02 1776.07,-105.9"/>
<polygon fill="midnightblue" stroke="midnightblue" points="1777.18,-109.23 1785.75,-103 1775.17,-102.52 1777.18,-109.23"/>
</g>
<!-- Node15 -->
<g id="node15" class="node">
<title>Node15</title>
<g id="a_node15"><a xlink:title=" ">
<polygon fill="white" stroke="#bfbfbf" points="1924,-62 1924,-103 2049,-103 2049,-62 1924,-62"/>
<text text-anchor="start" x="1932" y="-91" font-family="Helvetica,sans-Serif" font-size="10.00">asm/JSystem/JAudio2</text>
<text text-anchor="start" x="1932" y="-80" font-family="Helvetica,sans-Serif" font-size="10.00">/JAIStream/getNumChild</text>
<text text-anchor="middle" x="1986.5" y="-69" font-family="Helvetica,sans-Serif" font-size="10.00">__9JAIStreamCFv.s</text>
</a>
</g>
</g>
<!-- Node1&#45;&gt;Node15 -->
<g id="edge15" class="edge">
<title>Node1&#45;&gt;Node15</title>
<path fill="none" stroke="midnightblue" d="M1500.18,-157.71C1588.87,-153.93 1767.26,-142.5 1914.5,-109 1918.32,-108.13 1922.21,-107.12 1926.12,-106.02"/>
<polygon fill="midnightblue" stroke="midnightblue" points="1927.23,-109.34 1935.8,-103.11 1925.22,-102.64 1927.23,-109.34"/>
</g>
<!-- Node16 -->
<g id="node16" class="node">
<title>Node16</title>
<g id="a_node16"><a xlink:title=" ">
<polygon fill="white" stroke="#bfbfbf" points="2067,-62 2067,-103 2182,-103 2182,-62 2067,-62"/>
<text text-anchor="start" x="2075" y="-91" font-family="Helvetica,sans-Serif" font-size="10.00">asm/JSystem/JAudio2</text>
<text text-anchor="start" x="2075" y="-80" font-family="Helvetica,sans-Serif" font-size="10.00">/JAIStream/getChild</text>
<text text-anchor="middle" x="2124.5" y="-69" font-family="Helvetica,sans-Serif" font-size="10.00">__9JAIStreamFi.s</text>
</a>
</g>
</g>
<!-- Node1&#45;&gt;Node16 -->
<g id="edge16" class="edge">
<title>Node1&#45;&gt;Node16</title>
<path fill="none" stroke="midnightblue" d="M1500.35,-160.21C1609.21,-160.44 1856.77,-155.25 2058.5,-109 2062.06,-108.18 2065.69,-107.21 2069.31,-106.13"/>
<polygon fill="midnightblue" stroke="midnightblue" points="2070.42,-109.45 2078.87,-103.06 2068.28,-102.79 2070.42,-109.45"/>
</g>
<!-- Node17 -->
<g id="node17" class="node">
<title>Node17</title>
<g id="a_node17"><a xlink:title=" ">
<polygon fill="white" stroke="#bfbfbf" points="2200.5,-62 2200.5,-103 2322.5,-103 2322.5,-62 2200.5,-62"/>
<text text-anchor="start" x="2208.5" y="-91" font-family="Helvetica,sans-Serif" font-size="10.00">asm/JSystem/JAudio2</text>
<text text-anchor="start" x="2208.5" y="-80" font-family="Helvetica,sans-Serif" font-size="10.00">/JAIStream/releaseChild</text>
<text text-anchor="middle" x="2261.5" y="-69" font-family="Helvetica,sans-Serif" font-size="10.00">__9JAIStreamFi.s</text>
</a>
</g>
</g>
<!-- Node1&#45;&gt;Node17 -->
<g id="edge17" class="edge">
<title>Node1&#45;&gt;Node17</title>
<path fill="none" stroke="midnightblue" d="M1500.03,-157.77C1649.75,-152.79 2059.4,-136.94 2191.5,-109 2195.56,-108.14 2199.7,-107.1 2203.83,-105.93"/>
<polygon fill="midnightblue" stroke="midnightblue" points="2204.89,-109.27 2213.44,-103.01 2202.86,-102.57 2204.89,-109.27"/>
</g>
<!-- Node18 -->
<g id="node18" class="node">
<title>Node18</title>
<g id="a_node18"><a xlink:title=" ">
<polygon fill="white" stroke="#bfbfbf" points="2341,-62 2341,-103 2456,-103 2456,-62 2341,-62"/>
<text text-anchor="start" x="2349" y="-91" font-family="Helvetica,sans-Serif" font-size="10.00">asm/JSystem/JAudio2</text>
<text text-anchor="start" x="2349" y="-80" font-family="Helvetica,sans-Serif" font-size="10.00">/JAIStream/getTrack</text>
<text text-anchor="middle" x="2398.5" y="-69" font-family="Helvetica,sans-Serif" font-size="10.00">__9JAIStreamFv.s</text>
</a>
</g>
</g>
<!-- Node1&#45;&gt;Node18 -->
<g id="edge18" class="edge">
<title>Node1&#45;&gt;Node18</title>
<path fill="none" stroke="midnightblue" d="M1500.23,-158.56C1668.83,-155.35 2171.7,-143.11 2331.5,-109 2335.29,-108.19 2339.16,-107.2 2343.02,-106.08"/>
<polygon fill="midnightblue" stroke="midnightblue" points="2344.07,-109.42 2352.56,-103.09 2341.97,-102.74 2344.07,-109.42"/>
</g>
<!-- Node19 -->
<g id="node19" class="node">
<title>Node19</title>
<g id="a_node19"><a xlink:title=" ">
<polygon fill="white" stroke="#bfbfbf" points="2474,-62 2474,-103 2603,-103 2603,-62 2474,-62"/>
<text text-anchor="start" x="2482" y="-91" font-family="Helvetica,sans-Serif" font-size="10.00">asm/JSystem/JAudio2</text>
<text text-anchor="start" x="2482" y="-80" font-family="Helvetica,sans-Serif" font-size="10.00">/JAIStream/getChildTrack</text>
<text text-anchor="middle" x="2538.5" y="-69" font-family="Helvetica,sans-Serif" font-size="10.00">__9JAIStreamFi.s</text>
</a>
</g>
</g>
<!-- Node1&#45;&gt;Node19 -->
<g id="edge19" class="edge">
<title>Node1&#45;&gt;Node19</title>
<path fill="none" stroke="midnightblue" d="M1500.27,-158.84C1685.37,-156.33 2278.25,-145.55 2465.5,-109 2469.84,-108.15 2474.28,-107.1 2478.71,-105.91"/>
<polygon fill="midnightblue" stroke="midnightblue" points="2479.73,-109.26 2488.36,-103.11 2477.78,-102.54 2479.73,-109.26"/>
</g>
<!-- Node20 -->
<g id="node20" class="node">
<title>Node20</title>
<g id="a_node20"><a xlink:title=" ">
<polygon fill="white" stroke="#bfbfbf" points="2621,-62 2621,-103 2736,-103 2736,-62 2621,-62"/>
<text text-anchor="start" x="2629" y="-91" font-family="Helvetica,sans-Serif" font-size="10.00">asm/JSystem/JAudio2</text>
<text text-anchor="start" x="2629" y="-80" font-family="Helvetica,sans-Serif" font-size="10.00">/JAIStream/asStream</text>
<text text-anchor="middle" x="2678.5" y="-69" font-family="Helvetica,sans-Serif" font-size="10.00">__9JAIStreamFv.s</text>
</a>
</g>
</g>
<!-- Node1&#45;&gt;Node20 -->
<g id="edge20" class="edge">
<title>Node1&#45;&gt;Node20</title>
<path fill="none" stroke="midnightblue" d="M1500.1,-159.48C1702.02,-159.05 2396.07,-154.22 2612.5,-109 2616.31,-108.2 2620.2,-107.21 2624.07,-106.09"/>
<polygon fill="midnightblue" stroke="midnightblue" points="2625.17,-109.41 2633.64,-103.05 2623.05,-102.74 2625.17,-109.41"/>
</g>
<!-- Node21 -->
<g id="node21" class="node">
<title>Node21</title>
<g id="a_node21"><a xlink:title=" ">
<polygon fill="white" stroke="#bfbfbf" points="2754,-62 2754,-103 2883,-103 2883,-62 2754,-62"/>
<text text-anchor="start" x="2762" y="-91" font-family="Helvetica,sans-Serif" font-size="10.00">asm/JSystem/JAudio2</text>
<text text-anchor="start" x="2762" y="-80" font-family="Helvetica,sans-Serif" font-size="10.00">/JAIStream/getTempoMgr</text>
<text text-anchor="middle" x="2818.5" y="-69" font-family="Helvetica,sans-Serif" font-size="10.00">__9JAIStreamFv.s</text>
</a>
</g>
</g>
<!-- Node1&#45;&gt;Node21 -->
<g id="edge21" class="edge">
<title>Node1&#45;&gt;Node21</title>
<path fill="none" stroke="midnightblue" d="M1500.32,-159.53C1716.86,-159.32 2501.35,-155.3 2745.5,-109 2749.92,-108.16 2754.44,-107.1 2758.95,-105.9"/>
<polygon fill="midnightblue" stroke="midnightblue" points="2760.14,-109.2 2768.77,-103.06 2758.19,-102.48 2760.14,-109.2"/>
</g>
<!-- Node4&#45;&gt;Node3 -->
<g id="edge4" class="edge">
<title>Node4&#45;&gt;Node3</title>
<path fill="none" stroke="midnightblue" d="M186.12,-72.86C177.94,-61.76 163.54,-42.24 153.11,-28.09"/>
<polygon fill="midnightblue" stroke="midnightblue" points="155.68,-25.69 146.93,-19.72 150.05,-29.84 155.68,-25.69"/>
</g>
</g>
</svg>
        <g id="navigator" transform="translate(0 0)" fill="#404254">
                <rect fill="#f2f5e9" fill-opacity="0.5" stroke="#606060" stroke-width=".5" x="0" y="0" width="60" height="60"/>
                <use id="zoomplus" xlink:href="#zoomPlus" x="17" y="9" onmousedown="handleZoom(evt,'in')"/>
                <use id="zoomminus" xlink:href="#zoomMin" x="42" y="9" onmousedown="handleZoom(evt,'out')"/>
                <use id="reset" xlink:href="#resetDef" x="30" y="36" onmousedown="handleReset()"/>
                <g id="arrowUp" xlink:href="#dirArrow" transform="translate(30 24)" onmousedown="handlePan(0,-1)">
                  <use xlink:href="#rim" fill="#404040">
                        <set attributeName="fill" to="#808080" begin="arrowUp.mouseover" end="arrowUp.mouseout"/>
                  </use>
                  <path fill="none" stroke="white" stroke-width="1.5" d="M0,-3.0v7 M-2.5,-0.5L0,-3.0L2.5,-0.5"/>
                </g>
                <g id="arrowRight" xlink:href="#dirArrow" transform="rotate(90) translate(36 -43)" onmousedown="handlePan(1,0)">
                  <use xlink:href="#rim" fill="#404040">
                        <set attributeName="fill" to="#808080" begin="arrowRight.mouseover" end="arrowRight.mouseout"/>
                  </use>
                  <path fill="none" stroke="white" stroke-width="1.5" d="M0,-3.0v7 M-2.5,-0.5L0,-3.0L2.5,-0.5"/>
                </g>
                <g id="arrowDown" xlink:href="#dirArrow" transform="rotate(180) translate(-30 -48)" onmousedown="handlePan(0,1)">
                  <use xlink:href="#rim" fill="#404040">
                        <set attributeName="fill" to="#808080" begin="arrowDown.mouseover" end="arrowDown.mouseout"/>
                  </use>
                  <path fill="none" stroke="white" stroke-width="1.5" d="M0,-3.0v7 M-2.5,-0.5L0,-3.0L2.5,-0.5"/>
                </g>
                <g id="arrowLeft" xlink:href="#dirArrow" transform="rotate(270) translate(-36 17)" onmousedown="handlePan(-1,0)">
                  <use xlink:href="#rim" fill="#404040">
                        <set attributeName="fill" to="#808080" begin="arrowLeft.mouseover" end="arrowLeft.mouseout"/>
                  </use>
                  <path fill="none" stroke="white" stroke-width="1.5" d="M0,-3.0v7 M-2.5,-0.5L0,-3.0L2.5,-0.5"/>
                </g>
        </g>
        <svg viewBox="0 0 15 15" width="100%" height="30px" preserveAspectRatio="xMaxYMin meet">
         <g id="arrow_out" transform="scale(0.3 0.3)">
          <a xlink:href="JAIStream_8cpp__incl_org.svg" target="_base">
           <rect id="button" ry="5" rx="5" y="6" x="6" height="38" width="38"
                fill="#f2f5e9" fill-opacity="0.5" stroke="#606060" stroke-width="1.0"/>
           <path id="arrow"
             d="M 11.500037,31.436501 C 11.940474,20.09759 22.043105,11.32322 32.158766,21.979434 L 37.068811,17.246167 C 37.068811,17.246167 37.088388,32 37.088388,32 L 22.160133,31.978069 C 22.160133,31.978069 26.997745,27.140456 26.997745,27.140456 C 18.528582,18.264221 13.291696,25.230495 11.500037,31.436501 z"
             style="fill:#404040;"/>
          </a>
         </g>
        </svg>
</svg>
