<?xml version="1.0" encoding="UTF-8" standalone="no"?>
<!DOCTYPE svg PUBLIC "-//W3C//DTD SVG 1.1//EN"
 "http://www.w3.org/Graphics/SVG/1.1/DTD/svg11.dtd">
<!-- Generated by graphviz version 2.47.0 (20210316.2052)
 -->
<!-- Title: libs/JSystem/JAudio2/JAISoundChild.cpp Pages: 1 -->
<svg width="732pt" height="173pt"
 viewBox="0.00 0.00 732.00 173.00" xmlns="http://www.w3.org/2000/svg" xmlns:xlink="http://www.w3.org/1999/xlink">
<g id="graph0" class="graph" transform="scale(1 1) rotate(0) translate(4 169)">
<title>libs/JSystem/JAudio2/JAISoundChild.cpp</title>
<polygon fill="white" stroke="transparent" points="-4,4 -4,-169 728,-169 728,4 -4,4"/>
<!-- Node1 -->
<g id="node1" class="node">
<title>Node1</title>
<g id="a_node1"><a xlink:title=" ">
<polygon fill="#bfbfbf" stroke="black" points="206,-134.5 206,-164.5 317,-164.5 317,-134.5 206,-134.5"/>
<text text-anchor="start" x="214" y="-152.5" font-family="Helvetica,sans-Serif" font-size="10.00">libs/JSystem/JAudio2</text>
<text text-anchor="middle" x="261.5" y="-141.5" font-family="Helvetica,sans-Serif" font-size="10.00">/JAISoundChild.cpp</text>
</a>
</g>
</g>
<!-- Node2 -->
<g id="node2" class="node">
<title>Node2</title>
<g id="a_node2"><a xlink:href="dol2asm_8h.html" target="_top" xlink:title=" ">
<polygon fill="white" stroke="black" points="0,-67.5 0,-86.5 61,-86.5 61,-67.5 0,-67.5"/>
<text text-anchor="middle" x="30.5" y="-74.5" font-family="Helvetica,sans-Serif" font-size="10.00">dol2asm.h</text>
</a>
</g>
</g>
<!-- Node1&#45;&gt;Node2 -->
<g id="edge1" class="edge">
<title>Node1&#45;&gt;Node2</title>
<path fill="none" stroke="midnightblue" d="M205.88,-135.77C168.56,-126.64 118.53,-113.3 75.5,-98 69.62,-95.91 63.43,-93.38 57.59,-90.84"/>
<polygon fill="midnightblue" stroke="midnightblue" points="58.76,-87.53 48.2,-86.62 55.89,-93.91 58.76,-87.53"/>
</g>
<!-- Node3 -->
<g id="node3" class="node">
<title>Node3</title>
<g id="a_node3"><a xlink:href="types_8h.html" target="_top" xlink:title=" ">
<polygon fill="white" stroke="black" points="98,-0.5 98,-19.5 179,-19.5 179,-0.5 98,-0.5"/>
<text text-anchor="middle" x="138.5" y="-7.5" font-family="Helvetica,sans-Serif" font-size="10.00">dolphin/types.h</text>
</a>
</g>
</g>
<!-- Node1&#45;&gt;Node3 -->
<g id="edge2" class="edge">
<title>Node1&#45;&gt;Node3</title>
<path fill="none" stroke="midnightblue" d="M205.69,-145.61C171.93,-140.64 131.3,-128.22 109.5,-98 94.05,-76.59 110.79,-46.4 124.5,-27.8"/>
<polygon fill="midnightblue" stroke="midnightblue" points="127.44,-29.72 130.83,-19.69 121.92,-25.42 127.44,-29.72"/>
</g>
<!-- Node4 -->
<g id="node4" class="node">
<title>Node4</title>
<g id="a_node4"><a xlink:href="JAISoundChild_8h.html" target="_top" xlink:title=" ">
<polygon fill="white" stroke="black" points="118,-62 118,-92 257,-92 257,-62 118,-62"/>
<text text-anchor="start" x="126" y="-80" font-family="Helvetica,sans-Serif" font-size="10.00">JSystem/JAudio2/JAISound</text>
<text text-anchor="middle" x="187.5" y="-69" font-family="Helvetica,sans-Serif" font-size="10.00">Child.h</text>
</a>
</g>
</g>
<!-- Node1&#45;&gt;Node4 -->
<g id="edge3" class="edge">
<title>Node1&#45;&gt;Node4</title>
<path fill="none" stroke="midnightblue" d="M246.52,-134.23C235.99,-124.2 221.72,-110.6 209.84,-99.29"/>
<polygon fill="midnightblue" stroke="midnightblue" points="212.11,-96.61 202.45,-92.25 207.28,-101.68 212.11,-96.61"/>
</g>
<!-- Node5 -->
<g id="node5" class="node">
<title>Node5</title>
<g id="a_node5"><a xlink:title=" ">
<polygon fill="white" stroke="#bfbfbf" points="275,-56.5 275,-97.5 396,-97.5 396,-56.5 275,-56.5"/>
<text text-anchor="start" x="283" y="-85.5" font-family="Helvetica,sans-Serif" font-size="10.00">asm/JSystem/JAudio2</text>
<text text-anchor="start" x="283" y="-74.5" font-family="Helvetica,sans-Serif" font-size="10.00">/JAISoundChild/init</text>
<text text-anchor="middle" x="335.5" y="-63.5" font-family="Helvetica,sans-Serif" font-size="10.00">__13JAISoundChildFv.s</text>
</a>
</g>
</g>
<!-- Node1&#45;&gt;Node5 -->
<g id="edge5" class="edge">
<title>Node1&#45;&gt;Node5</title>
<path fill="none" stroke="midnightblue" d="M276.48,-134.23C285.38,-125.75 296.96,-114.72 307.5,-104.68"/>
<polygon fill="midnightblue" stroke="midnightblue" points="310.11,-107.02 314.94,-97.59 305.28,-101.95 310.11,-107.02"/>
</g>
<!-- Node6 -->
<g id="node6" class="node">
<title>Node6</title>
<g id="a_node6"><a xlink:title=" ">
<polygon fill="white" stroke="#bfbfbf" points="414,-56.5 414,-97.5 585,-97.5 585,-56.5 414,-56.5"/>
<text text-anchor="start" x="422" y="-85.5" font-family="Helvetica,sans-Serif" font-size="10.00">asm/JSystem/JAudio2</text>
<text text-anchor="start" x="422" y="-74.5" font-family="Helvetica,sans-Serif" font-size="10.00">/JAISoundChild/mixOut</text>
<text text-anchor="middle" x="499.5" y="-63.5" font-family="Helvetica,sans-Serif" font-size="10.00">__13JAISoundChildFP8JASTrack.s</text>
</a>
</g>
</g>
<!-- Node1&#45;&gt;Node6 -->
<g id="edge6" class="edge">
<title>Node1&#45;&gt;Node6</title>
<path fill="none" stroke="midnightblue" d="M308.81,-134.49C341.53,-124.79 385.8,-111.68 423.44,-100.53"/>
<polygon fill="midnightblue" stroke="midnightblue" points="424.77,-103.79 433.36,-97.59 422.78,-97.08 424.77,-103.79"/>
</g>
<!-- Node7 -->
<g id="node7" class="node">
<title>Node7</title>
<g id="a_node7"><a xlink:title=" ">
<polygon fill="white" stroke="#bfbfbf" points="603,-56.5 603,-97.5 724,-97.5 724,-56.5 603,-56.5"/>
<text text-anchor="start" x="611" y="-85.5" font-family="Helvetica,sans-Serif" font-size="10.00">asm/JSystem/JAudio2</text>
<text text-anchor="start" x="611" y="-74.5" font-family="Helvetica,sans-Serif" font-size="10.00">/JAISoundChild/calc</text>
<text text-anchor="middle" x="663.5" y="-63.5" font-family="Helvetica,sans-Serif" font-size="10.00">__13JAISoundChildFv.s</text>
</a>
</g>
</g>
<!-- Node1&#45;&gt;Node7 -->
<g id="edge7" class="edge">
<title>Node1&#45;&gt;Node7</title>
<path fill="none" stroke="midnightblue" d="M317,-142.35C381.36,-134.72 490.74,-120.19 592.81,-98.25"/>
<polygon fill="midnightblue" stroke="midnightblue" points="593.63,-101.65 602.66,-96.11 592.14,-94.81 593.63,-101.65"/>
</g>
<!-- Node4&#45;&gt;Node3 -->
<g id="edge4" class="edge">
<title>Node4&#45;&gt;Node3</title>
<path fill="none" stroke="midnightblue" d="M176.87,-61.9C169.3,-51.86 159.11,-38.34 151.13,-27.75"/>
<polygon fill="midnightblue" stroke="midnightblue" points="153.87,-25.57 145.05,-19.69 148.28,-29.79 153.87,-25.57"/>
</g>
</g>
</svg>
