<?xml version="1.0" encoding="UTF-8" standalone="no"?>
<!DOCTYPE svg PUBLIC "-//W3C//DTD SVG 1.1//EN"
 "http://www.w3.org/Graphics/SVG/1.1/DTD/svg11.dtd">
<!-- Generated by graphviz version 2.47.0 (20210316.2052)
 -->
<!-- Title: libs/JSystem/JAudio2/JAISeqMgr.cpp Pages: 1 -->
<!--zoomable 184 -->
<svg id="main" version="1.1" xmlns="http://www.w3.org/2000/svg" xmlns:xlink="http://www.w3.org/1999/xlink" xml:space="preserve" onload="init(evt)">
<style type="text/css"><![CDATA[
.edge:hover path { stroke: red; }
.edge:hover polygon { stroke: red; fill: red; }
]]></style>
<script type="text/javascript"><![CDATA[
var edges = document.getElementsByTagName('g');
if (edges && edges.length) {
  for (var i=0;i<edges.length;i++) {
    if (edges[i].id.substr(0,4)=='edge') {
      edges[i].setAttribute('class','edge');
    }
  }
}
]]></script>
        <defs>
                <circle id="rim" cx="0" cy="0" r="7"/>
                <circle id="rim2" cx="0" cy="0" r="3.5"/>
                <g id="zoomPlus">
                        <use xlink:href="#rim" fill="#404040">
                                <set attributeName="fill" to="#808080" begin="zoomplus.mouseover" end="zoomplus.mouseout"/>
                        </use>
                        <path d="M-4,0h8M0,-4v8" fill="none" stroke="white" stroke-width="1.5" pointer-events="none"/>
                </g>
                <g id="zoomMin">
                        <use xlink:href="#rim" fill="#404040">
                                <set attributeName="fill" to="#808080" begin="zoomminus.mouseover" end="zoomminus.mouseout"/>
                        </use>
                        <path d="M-4,0h8" fill="none" stroke="white" stroke-width="1.5" pointer-events="none"/>
                </g>
                <g id="dirArrow">
                        <path fill="none" stroke="white" stroke-width="1.5" d="M0,-3.0v7 M-2.5,-0.5L0,-3.0L2.5,-0.5"/>
                </g>
               <g id="resetDef">
                       <use xlink:href="#rim2" fill="#404040">
                               <set attributeName="fill" to="#808080" begin="reset.mouseover" end="reset.mouseout"/>
                       </use>
               </g>
        </defs>

<script type="text/javascript">
var viewWidth = 2845;
var viewHeight = 184;
var sectionId = 'dynsection-0';
</script>
<script xlink:href="svgpan.js"/>
<svg id="graph" class="graph">
<g id="viewport">
<title>libs/JSystem/JAudio2/JAISeqMgr.cpp</title>
<polygon fill="white" stroke="transparent" points="-4,4 -4,-180 2841,-180 2841,4 -4,4"/>
<!-- Node1 -->
<g id="node1" class="node">
<title>Node1</title>
<g id="a_node1"><a xlink:title=" ">
<polygon fill="#bfbfbf" stroke="black" points="1250,-145.5 1250,-175.5 1361,-175.5 1361,-145.5 1250,-145.5"/>
<text text-anchor="start" x="1258" y="-163.5" font-family="Helvetica,sans-Serif" font-size="10.00">libs/JSystem/JAudio2</text>
<text text-anchor="middle" x="1305.5" y="-152.5" font-family="Helvetica,sans-Serif" font-size="10.00">/JAISeqMgr.cpp</text>
</a>
</g>
</g>
<!-- Node2 -->
<g id="node2" class="node">
<title>Node2</title>
<g id="a_node2"><a xlink:href="dol2asm_8h.html" target="_top" xlink:title=" ">
<polygon fill="white" stroke="black" points="0,-73 0,-92 61,-92 61,-73 0,-73"/>
<text text-anchor="middle" x="30.5" y="-80" font-family="Helvetica,sans-Serif" font-size="10.00">dol2asm.h</text>
</a>
</g>
</g>
<!-- Node1&#45;&gt;Node2 -->
<g id="edge1" class="edge">
<title>Node1&#45;&gt;Node2</title>
<path fill="none" stroke="midnightblue" d="M1249.94,-158.76C1025.1,-155.54 189.17,-141.48 75.5,-109 66.88,-106.54 58.14,-102.12 50.68,-97.64"/>
<polygon fill="midnightblue" stroke="midnightblue" points="52.33,-94.54 42.03,-92.08 48.55,-100.43 52.33,-94.54"/>
</g>
<!-- Node3 -->
<g id="node3" class="node">
<title>Node3</title>
<g id="a_node3"><a xlink:href="types_8h.html" target="_top" xlink:title=" ">
<polygon fill="white" stroke="black" points="101,-0.5 101,-19.5 182,-19.5 182,-0.5 101,-0.5"/>
<text text-anchor="middle" x="141.5" y="-7.5" font-family="Helvetica,sans-Serif" font-size="10.00">dolphin/types.h</text>
</a>
</g>
</g>
<!-- Node1&#45;&gt;Node3 -->
<g id="edge2" class="edge">
<title>Node1&#45;&gt;Node3</title>
<path fill="none" stroke="midnightblue" d="M1249.88,-159.27C1019.27,-158.04 148.44,-150.66 108.5,-109 86.77,-86.33 110.14,-48.9 127.12,-27.45"/>
<polygon fill="midnightblue" stroke="midnightblue" points="129.96,-29.51 133.64,-19.58 124.57,-25.04 129.96,-29.51"/>
</g>
<!-- Node4 -->
<g id="node4" class="node">
<title>Node4</title>
<g id="a_node4"><a xlink:href="JAISeqMgr_8h.html" target="_top" xlink:title=" ">
<polygon fill="white" stroke="black" points="117.5,-73 117.5,-92 269.5,-92 269.5,-73 117.5,-73"/>
<text text-anchor="middle" x="193.5" y="-80" font-family="Helvetica,sans-Serif" font-size="10.00">JSystem/JAudio2/JAISeqMgr.h</text>
</a>
</g>
</g>
<!-- Node1&#45;&gt;Node4 -->
<g id="edge3" class="edge">
<title>Node1&#45;&gt;Node4</title>
<path fill="none" stroke="midnightblue" d="M1249.85,-158.51C1064.41,-154.95 468.6,-141.21 279.5,-109 261.74,-105.98 242.48,-100.48 226.69,-95.36"/>
<polygon fill="midnightblue" stroke="midnightblue" points="227.46,-91.93 216.87,-92.08 225.24,-98.57 227.46,-91.93"/>
</g>
<!-- Node5 -->
<g id="node5" class="node">
<title>Node5</title>
<g id="a_node5"><a xlink:title=" ">
<polygon fill="white" stroke="#bfbfbf" points="288,-62 288,-103 489,-103 489,-62 288,-62"/>
<text text-anchor="start" x="296" y="-91" font-family="Helvetica,sans-Serif" font-size="10.00">asm/JSystem/JAudio2</text>
<text text-anchor="start" x="296" y="-80" font-family="Helvetica,sans-Serif" font-size="10.00">/JAISeqMgr/isUsingSeqData</text>
<text text-anchor="middle" x="388.5" y="-69" font-family="Helvetica,sans-Serif" font-size="10.00">__9JAISeqMgrFRC16JAISeqDataRegion.s</text>
</a>
</g>
</g>
<!-- Node1&#45;&gt;Node5 -->
<g id="edge5" class="edge">
<title>Node1&#45;&gt;Node5</title>
<path fill="none" stroke="midnightblue" d="M1249.89,-159.18C1118.48,-157.73 778.74,-149.96 498.5,-109 490.93,-107.89 483.11,-106.53 475.3,-105.02"/>
<polygon fill="midnightblue" stroke="midnightblue" points="475.91,-101.57 465.42,-103.03 474.53,-108.43 475.91,-101.57"/>
</g>
<!-- Node6 -->
<g id="node6" class="node">
<title>Node6</title>
<g id="a_node6"><a xlink:title=" ">
<polygon fill="white" stroke="#bfbfbf" points="507,-62 507,-103 708,-103 708,-62 507,-62"/>
<text text-anchor="start" x="515" y="-91" font-family="Helvetica,sans-Serif" font-size="10.00">asm/JSystem/JAudio2</text>
<text text-anchor="start" x="515" y="-80" font-family="Helvetica,sans-Serif" font-size="10.00">/JAISeqMgr/releaseSeqData</text>
<text text-anchor="middle" x="607.5" y="-69" font-family="Helvetica,sans-Serif" font-size="10.00">__9JAISeqMgrFRC16JAISeqDataRegion.s</text>
</a>
</g>
</g>
<!-- Node1&#45;&gt;Node6 -->
<g id="edge6" class="edge">
<title>Node1&#45;&gt;Node6</title>
<path fill="none" stroke="midnightblue" d="M1249.65,-157.35C1144.8,-152.73 911.56,-139.67 717.5,-109 710.38,-107.87 703.03,-106.55 695.67,-105.1"/>
<polygon fill="midnightblue" stroke="midnightblue" points="696.15,-101.62 685.65,-103.05 694.75,-108.48 696.15,-101.62"/>
</g>
<!-- Node7 -->
<g id="node7" class="node">
<title>Node7</title>
<g id="a_node7"><a xlink:title=" ">
<polygon fill="white" stroke="#bfbfbf" points="726,-67.5 726,-97.5 899,-97.5 899,-67.5 726,-67.5"/>
<text text-anchor="start" x="734" y="-85.5" font-family="Helvetica,sans-Serif" font-size="10.00">asm/JSystem/JAudio2</text>
<text text-anchor="middle" x="812.5" y="-74.5" font-family="Helvetica,sans-Serif" font-size="10.00">/JAISeqMgr/__ct__9JAISeqMgrFb.s</text>
</a>
</g>
</g>
<!-- Node1&#45;&gt;Node7 -->
<g id="edge7" class="edge">
<title>Node1&#45;&gt;Node7</title>
<path fill="none" stroke="midnightblue" d="M1249.9,-154.78C1172.77,-147.7 1029.19,-132.6 908.5,-109 896.08,-106.57 882.89,-103.44 870.4,-100.21"/>
<polygon fill="midnightblue" stroke="midnightblue" points="871.12,-96.78 860.55,-97.61 869.33,-103.55 871.12,-96.78"/>
</g>
<!-- Node8 -->
<g id="node8" class="node">
<title>Node8</title>
<g id="a_node8"><a xlink:title=" ">
<polygon fill="white" stroke="#bfbfbf" points="917.5,-62 917.5,-103 1045.5,-103 1045.5,-62 917.5,-62"/>
<text text-anchor="start" x="925.5" y="-91" font-family="Helvetica,sans-Serif" font-size="10.00">asm/JSystem/JAudio2</text>
<text text-anchor="start" x="925.5" y="-80" font-family="Helvetica,sans-Serif" font-size="10.00">/JAISeqMgr/freeDeadSeq</text>
<text text-anchor="middle" x="981.5" y="-69" font-family="Helvetica,sans-Serif" font-size="10.00">___9JAISeqMgrFv.s</text>
</a>
</g>
</g>
<!-- Node1&#45;&gt;Node8 -->
<g id="edge8" class="edge">
<title>Node1&#45;&gt;Node8</title>
<path fill="none" stroke="midnightblue" d="M1249.9,-150.45C1198.9,-141.63 1121.51,-126.96 1055.5,-109 1052.19,-108.1 1048.81,-107.13 1045.41,-106.11"/>
<polygon fill="midnightblue" stroke="midnightblue" points="1046.39,-102.75 1035.8,-103.13 1044.32,-109.43 1046.39,-102.75"/>
</g>
<!-- Node9 -->
<g id="node9" class="node">
<title>Node9</title>
<g id="a_node9"><a xlink:title=" ">
<polygon fill="white" stroke="#bfbfbf" points="1064,-67.5 1064,-97.5 1213,-97.5 1213,-67.5 1064,-67.5"/>
<text text-anchor="start" x="1072" y="-85.5" font-family="Helvetica,sans-Serif" font-size="10.00">asm/JSystem/JAudio2</text>
<text text-anchor="middle" x="1138.5" y="-74.5" font-family="Helvetica,sans-Serif" font-size="10.00">/JAISeqMgr/func_802A1AF4.s</text>
</a>
</g>
</g>
<!-- Node1&#45;&gt;Node9 -->
<g id="edge9" class="edge">
<title>Node1&#45;&gt;Node9</title>
<path fill="none" stroke="midnightblue" d="M1274.48,-145.38C1247.41,-133.07 1207.97,-115.12 1178.53,-101.72"/>
<polygon fill="midnightblue" stroke="midnightblue" points="1179.91,-98.5 1169.35,-97.54 1177.01,-104.87 1179.91,-98.5"/>
</g>
<!-- Node10 -->
<g id="node10" class="node">
<title>Node10</title>
<g id="a_node10"><a xlink:title=" ">
<polygon fill="white" stroke="#bfbfbf" points="1231.5,-67.5 1231.5,-97.5 1379.5,-97.5 1379.5,-67.5 1231.5,-67.5"/>
<text text-anchor="start" x="1239.5" y="-85.5" font-family="Helvetica,sans-Serif" font-size="10.00">asm/JSystem/JAudio2</text>
<text text-anchor="middle" x="1305.5" y="-74.5" font-family="Helvetica,sans-Serif" font-size="10.00">/JAISeqMgr/func_802A1B48.s</text>
</a>
</g>
</g>
<!-- Node1&#45;&gt;Node10 -->
<g id="edge10" class="edge">
<title>Node1&#45;&gt;Node10</title>
<path fill="none" stroke="midnightblue" d="M1305.5,-145.2C1305.5,-134.7 1305.5,-120.16 1305.5,-107.83"/>
<polygon fill="midnightblue" stroke="midnightblue" points="1309,-107.73 1305.5,-97.73 1302,-107.73 1309,-107.73"/>
</g>
<!-- Node11 -->
<g id="node11" class="node">
<title>Node11</title>
<g id="a_node11"><a xlink:title=" ">
<polygon fill="white" stroke="#bfbfbf" points="1398,-67.5 1398,-97.5 1571,-97.5 1571,-67.5 1398,-67.5"/>
<text text-anchor="start" x="1406" y="-85.5" font-family="Helvetica,sans-Serif" font-size="10.00">asm/JSystem/JAudio2</text>
<text text-anchor="middle" x="1484.5" y="-74.5" font-family="Helvetica,sans-Serif" font-size="10.00">/JAISeqMgr/calc__9JAISeqMgrFv.s</text>
</a>
</g>
</g>
<!-- Node1&#45;&gt;Node11 -->
<g id="edge11" class="edge">
<title>Node1&#45;&gt;Node11</title>
<path fill="none" stroke="midnightblue" d="M1338.75,-145.38C1367.89,-133.01 1410.4,-114.96 1442,-101.54"/>
<polygon fill="midnightblue" stroke="midnightblue" points="1443.59,-104.67 1451.43,-97.54 1440.86,-98.23 1443.59,-104.67"/>
</g>
<!-- Node12 -->
<g id="node12" class="node">
<title>Node12</title>
<g id="a_node12"><a xlink:title=" ">
<polygon fill="white" stroke="#bfbfbf" points="1589,-67.5 1589,-97.5 1762,-97.5 1762,-67.5 1589,-67.5"/>
<text text-anchor="start" x="1597" y="-85.5" font-family="Helvetica,sans-Serif" font-size="10.00">asm/JSystem/JAudio2</text>
<text text-anchor="middle" x="1675.5" y="-74.5" font-family="Helvetica,sans-Serif" font-size="10.00">/JAISeqMgr/stop__9JAISeqMgrFv.s</text>
</a>
</g>
</g>
<!-- Node1&#45;&gt;Node12 -->
<g id="edge12" class="edge">
<title>Node1&#45;&gt;Node12</title>
<path fill="none" stroke="midnightblue" d="M1361.07,-150.65C1416.81,-141.45 1504.98,-126.04 1580.5,-109 1592.08,-106.39 1604.38,-103.31 1616.15,-100.22"/>
<polygon fill="midnightblue" stroke="midnightblue" points="1617.13,-103.58 1625.89,-97.63 1615.33,-96.82 1617.13,-103.58"/>
</g>
<!-- Node13 -->
<g id="node13" class="node">
<title>Node13</title>
<g id="a_node13"><a xlink:title=" ">
<polygon fill="white" stroke="#bfbfbf" points="1780,-62 1780,-103 1935,-103 1935,-62 1780,-62"/>
<text text-anchor="start" x="1788" y="-91" font-family="Helvetica,sans-Serif" font-size="10.00">asm/JSystem/JAudio2</text>
<text text-anchor="start" x="1788" y="-80" font-family="Helvetica,sans-Serif" font-size="10.00">/JAISeqMgr/stop__9JAISeqMgr</text>
<text text-anchor="middle" x="1857.5" y="-69" font-family="Helvetica,sans-Serif" font-size="10.00">FUl.s</text>
</a>
</g>
</g>
<!-- Node1&#45;&gt;Node13 -->
<g id="edge13" class="edge">
<title>Node1&#45;&gt;Node13</title>
<path fill="none" stroke="midnightblue" d="M1361.23,-156.71C1449.15,-151.59 1625.09,-138.39 1771.5,-109 1776.43,-108.01 1781.49,-106.86 1786.56,-105.62"/>
<polygon fill="midnightblue" stroke="midnightblue" points="1787.49,-108.99 1796.3,-103.11 1785.74,-102.21 1787.49,-108.99"/>
</g>
<!-- Node14 -->
<g id="node14" class="node">
<title>Node14</title>
<g id="a_node14"><a xlink:title=" ">
<polygon fill="white" stroke="#bfbfbf" points="1953.5,-62 1953.5,-103 2111.5,-103 2111.5,-62 1953.5,-62"/>
<text text-anchor="start" x="1961.5" y="-91" font-family="Helvetica,sans-Serif" font-size="10.00">asm/JSystem/JAudio2</text>
<text text-anchor="start" x="1961.5" y="-80" font-family="Helvetica,sans-Serif" font-size="10.00">/JAISeqMgr/stopSoundID</text>
<text text-anchor="middle" x="2032.5" y="-69" font-family="Helvetica,sans-Serif" font-size="10.00">__9JAISeqMgrF10JAISoundID.s</text>
</a>
</g>
</g>
<!-- Node1&#45;&gt;Node14 -->
<g id="edge14" class="edge">
<title>Node1&#45;&gt;Node14</title>
<path fill="none" stroke="midnightblue" d="M1361.12,-158.89C1472.67,-156.84 1731.29,-147.9 1944.5,-109 1949.88,-108.02 1955.4,-106.84 1960.93,-105.54"/>
<polygon fill="midnightblue" stroke="midnightblue" points="1962,-108.88 1970.86,-103.07 1960.31,-102.09 1962,-108.88"/>
</g>
<!-- Node15 -->
<g id="node15" class="node">
<title>Node15</title>
<g id="a_node15"><a xlink:title=" ">
<polygon fill="white" stroke="#bfbfbf" points="2129.5,-62 2129.5,-103 2279.5,-103 2279.5,-62 2129.5,-62"/>
<text text-anchor="start" x="2137.5" y="-91" font-family="Helvetica,sans-Serif" font-size="10.00">asm/JSystem/JAudio2</text>
<text text-anchor="start" x="2137.5" y="-80" font-family="Helvetica,sans-Serif" font-size="10.00">/JAISeqMgr/mixOut__9JAISeq</text>
<text text-anchor="middle" x="2204.5" y="-69" font-family="Helvetica,sans-Serif" font-size="10.00">MgrFv.s</text>
</a>
</g>
</g>
<!-- Node1&#45;&gt;Node15 -->
<g id="edge15" class="edge">
<title>Node1&#45;&gt;Node15</title>
<path fill="none" stroke="midnightblue" d="M1361.08,-157.74C1519.97,-152.45 1974.09,-135.39 2120.5,-109 2125.62,-108.08 2130.86,-106.95 2136.11,-105.68"/>
<polygon fill="midnightblue" stroke="midnightblue" points="2137.36,-108.98 2146.18,-103.1 2135.62,-102.2 2137.36,-108.98"/>
</g>
<!-- Node16 -->
<g id="node16" class="node">
<title>Node16</title>
<g id="a_node16"><a xlink:title=" ">
<polygon fill="white" stroke="#bfbfbf" points="2298,-62 2298,-103 2431,-103 2431,-62 2298,-62"/>
<text text-anchor="start" x="2306" y="-91" font-family="Helvetica,sans-Serif" font-size="10.00">asm/JSystem/JAudio2</text>
<text text-anchor="start" x="2306" y="-80" font-family="Helvetica,sans-Serif" font-size="10.00">/JAISeqMgr/beginStartSeq</text>
<text text-anchor="middle" x="2364.5" y="-69" font-family="Helvetica,sans-Serif" font-size="10.00">___9JAISeqMgrFv.s</text>
</a>
</g>
</g>
<!-- Node1&#45;&gt;Node16 -->
<g id="edge16" class="edge">
<title>Node1&#45;&gt;Node16</title>
<path fill="none" stroke="midnightblue" d="M1361.06,-158.63C1541.32,-155.5 2108.65,-143.13 2288.5,-109 2293.13,-108.12 2297.86,-107.03 2302.59,-105.8"/>
<polygon fill="midnightblue" stroke="midnightblue" points="2303.57,-109.16 2312.25,-103.09 2301.68,-102.42 2303.57,-109.16"/>
</g>
<!-- Node17 -->
<g id="node17" class="node">
<title>Node17</title>
<g id="a_node17"><a xlink:title=" ">
<polygon fill="white" stroke="#bfbfbf" points="2449,-56.5 2449,-108.5 2646,-108.5 2646,-56.5 2449,-56.5"/>
<text text-anchor="start" x="2457" y="-96.5" font-family="Helvetica,sans-Serif" font-size="10.00">asm/JSystem/JAudio2</text>
<text text-anchor="start" x="2457" y="-85.5" font-family="Helvetica,sans-Serif" font-size="10.00">/JAISeqMgr/endStartSeq</text>
<text text-anchor="start" x="2457" y="-74.5" font-family="Helvetica,sans-Serif" font-size="10.00">___9JAISeqMgrFP6JAISeqP14JAISound</text>
<text text-anchor="middle" x="2547.5" y="-63.5" font-family="Helvetica,sans-Serif" font-size="10.00">Handle.s</text>
</a>
</g>
</g>
<!-- Node1&#45;&gt;Node17 -->
<g id="edge17" class="edge">
<title>Node1&#45;&gt;Node17</title>
<path fill="none" stroke="midnightblue" d="M1361.06,-158.42C1555.97,-154.43 2208.81,-139.19 2438.84,-109.09"/>
<polygon fill="midnightblue" stroke="midnightblue" points="2439.37,-112.55 2448.81,-107.74 2438.43,-105.61 2439.37,-112.55"/>
</g>
<!-- Node18 -->
<g id="node18" class="node">
<title>Node18</title>
<g id="a_node18"><a xlink:title=" ">
<polygon fill="white" stroke="#bfbfbf" points="2664,-67.5 2664,-97.5 2837,-97.5 2837,-67.5 2664,-67.5"/>
<text text-anchor="start" x="2672" y="-85.5" font-family="Helvetica,sans-Serif" font-size="10.00">asm/JSystem/JAudio2</text>
<text text-anchor="middle" x="2750.5" y="-74.5" font-family="Helvetica,sans-Serif" font-size="10.00">/JAISeqMgr/__dt__9JAISeqMgrFv.s</text>
</a>
</g>
</g>
<!-- Node1&#45;&gt;Node18 -->
<g id="edge18" class="edge">
<title>Node1&#45;&gt;Node18</title>
<path fill="none" stroke="midnightblue" d="M1361.05,-159.09C1582.12,-157.18 2399.67,-147.62 2655.5,-109 2668.96,-106.97 2683.24,-103.73 2696.53,-100.24"/>
<polygon fill="midnightblue" stroke="midnightblue" points="2697.74,-103.53 2706.47,-97.53 2695.91,-96.78 2697.74,-103.53"/>
</g>
<!-- Node4&#45;&gt;Node3 -->
<g id="edge4" class="edge">
<title>Node4&#45;&gt;Node3</title>
<path fill="none" stroke="midnightblue" d="M187.12,-72.86C178.94,-61.76 164.54,-42.24 154.11,-28.09"/>
<polygon fill="midnightblue" stroke="midnightblue" points="156.68,-25.69 147.93,-19.72 151.05,-29.84 156.68,-25.69"/>
</g>
</g>
</svg>
        <g id="navigator" transform="translate(0 0)" fill="#404254">
                <rect fill="#f2f5e9" fill-opacity="0.5" stroke="#606060" stroke-width=".5" x="0" y="0" width="60" height="60"/>
                <use id="zoomplus" xlink:href="#zoomPlus" x="17" y="9" onmousedown="handleZoom(evt,'in')"/>
                <use id="zoomminus" xlink:href="#zoomMin" x="42" y="9" onmousedown="handleZoom(evt,'out')"/>
                <use id="reset" xlink:href="#resetDef" x="30" y="36" onmousedown="handleReset()"/>
                <g id="arrowUp" xlink:href="#dirArrow" transform="translate(30 24)" onmousedown="handlePan(0,-1)">
                  <use xlink:href="#rim" fill="#404040">
                        <set attributeName="fill" to="#808080" begin="arrowUp.mouseover" end="arrowUp.mouseout"/>
                  </use>
                  <path fill="none" stroke="white" stroke-width="1.5" d="M0,-3.0v7 M-2.5,-0.5L0,-3.0L2.5,-0.5"/>
                </g>
                <g id="arrowRight" xlink:href="#dirArrow" transform="rotate(90) translate(36 -43)" onmousedown="handlePan(1,0)">
                  <use xlink:href="#rim" fill="#404040">
                        <set attributeName="fill" to="#808080" begin="arrowRight.mouseover" end="arrowRight.mouseout"/>
                  </use>
                  <path fill="none" stroke="white" stroke-width="1.5" d="M0,-3.0v7 M-2.5,-0.5L0,-3.0L2.5,-0.5"/>
                </g>
                <g id="arrowDown" xlink:href="#dirArrow" transform="rotate(180) translate(-30 -48)" onmousedown="handlePan(0,1)">
                  <use xlink:href="#rim" fill="#404040">
                        <set attributeName="fill" to="#808080" begin="arrowDown.mouseover" end="arrowDown.mouseout"/>
                  </use>
                  <path fill="none" stroke="white" stroke-width="1.5" d="M0,-3.0v7 M-2.5,-0.5L0,-3.0L2.5,-0.5"/>
                </g>
                <g id="arrowLeft" xlink:href="#dirArrow" transform="rotate(270) translate(-36 17)" onmousedown="handlePan(-1,0)">
                  <use xlink:href="#rim" fill="#404040">
                        <set attributeName="fill" to="#808080" begin="arrowLeft.mouseover" end="arrowLeft.mouseout"/>
                  </use>
                  <path fill="none" stroke="white" stroke-width="1.5" d="M0,-3.0v7 M-2.5,-0.5L0,-3.0L2.5,-0.5"/>
                </g>
        </g>
        <svg viewBox="0 0 15 15" width="100%" height="30px" preserveAspectRatio="xMaxYMin meet">
         <g id="arrow_out" transform="scale(0.3 0.3)">
          <a xlink:href="JAISeqMgr_8cpp__incl_org.svg" target="_base">
           <rect id="button" ry="5" rx="5" y="6" x="6" height="38" width="38"
                fill="#f2f5e9" fill-opacity="0.5" stroke="#606060" stroke-width="1.0"/>
           <path id="arrow"
             d="M 11.500037,31.436501 C 11.940474,20.09759 22.043105,11.32322 32.158766,21.979434 L 37.068811,17.246167 C 37.068811,17.246167 37.088388,32 37.088388,32 L 22.160133,31.978069 C 22.160133,31.978069 26.997745,27.140456 26.997745,27.140456 C 18.528582,18.264221 13.291696,25.230495 11.500037,31.436501 z"
             style="fill:#404040;"/>
          </a>
         </g>
        </svg>
</svg>
