<?xml version="1.0" encoding="UTF-8" standalone="no"?>
<!DOCTYPE svg PUBLIC "-//W3C//DTD SVG 1.1//EN"
 "http://www.w3.org/Graphics/SVG/1.1/DTD/svg11.dtd">
<!-- Generated by graphviz version 2.47.0 (20210316.2052)
 -->
<!-- Title: libs/JSystem/JAudio2/JAIStreamDataMgr.cpp Pages: 1 -->
<svg width="615pt" height="173pt"
 viewBox="0.00 0.00 614.50 173.00" xmlns="http://www.w3.org/2000/svg" xmlns:xlink="http://www.w3.org/1999/xlink">
<g id="graph0" class="graph" transform="scale(1 1) rotate(0) translate(4 169)">
<title>libs/JSystem/JAudio2/JAIStreamDataMgr.cpp</title>
<polygon fill="white" stroke="transparent" points="-4,4 -4,-169 610.5,-169 610.5,4 -4,4"/>
<!-- Node1 -->
<g id="node1" class="node">
<title>Node1</title>
<g id="a_node1"><a xlink:title=" ">
<polygon fill="#bfbfbf" stroke="black" points="129,-134.5 129,-164.5 250,-164.5 250,-134.5 129,-134.5"/>
<text text-anchor="start" x="137" y="-152.5" font-family="Helvetica,sans-Serif" font-size="10.00">libs/JSystem/JAudio2</text>
<text text-anchor="middle" x="189.5" y="-141.5" font-family="Helvetica,sans-Serif" font-size="10.00">/JAIStreamDataMgr.cpp</text>
</a>
</g>
</g>
<!-- Node2 -->
<g id="node2" class="node">
<title>Node2</title>
<g id="a_node2"><a xlink:href="dol2asm_8h.html" target="_top" xlink:title=" ">
<polygon fill="white" stroke="black" points="0,-67.5 0,-86.5 61,-86.5 61,-67.5 0,-67.5"/>
<text text-anchor="middle" x="30.5" y="-74.5" font-family="Helvetica,sans-Serif" font-size="10.00">dol2asm.h</text>
</a>
</g>
</g>
<!-- Node1&#45;&gt;Node2 -->
<g id="edge1" class="edge">
<title>Node1&#45;&gt;Node2</title>
<path fill="none" stroke="midnightblue" d="M157.55,-134.36C134.7,-124.24 103.2,-110.29 75.5,-98 70.23,-95.66 64.6,-93.16 59.18,-90.75"/>
<polygon fill="midnightblue" stroke="midnightblue" points="60.33,-87.43 49.77,-86.57 57.48,-93.83 60.33,-87.43"/>
</g>
<!-- Node3 -->
<g id="node3" class="node">
<title>Node3</title>
<g id="a_node3"><a xlink:href="types_8h.html" target="_top" xlink:title=" ">
<polygon fill="white" stroke="black" points="99,-0.5 99,-19.5 180,-19.5 180,-0.5 99,-0.5"/>
<text text-anchor="middle" x="139.5" y="-7.5" font-family="Helvetica,sans-Serif" font-size="10.00">dolphin/types.h</text>
</a>
</g>
</g>
<!-- Node1&#45;&gt;Node3 -->
<g id="edge2" class="edge">
<title>Node1&#45;&gt;Node3</title>
<path fill="none" stroke="midnightblue" d="M151.73,-134.47C135.69,-126.41 118.62,-114.54 109.5,-98 100.49,-81.65 104.09,-73.87 109.5,-56 112.62,-45.7 118.95,-35.61 125,-27.6"/>
<polygon fill="midnightblue" stroke="midnightblue" points="127.73,-29.8 131.29,-19.82 122.28,-25.4 127.73,-29.8"/>
</g>
<!-- Node4 -->
<g id="node4" class="node">
<title>Node4</title>
<g id="a_node4"><a xlink:href="JAIStreamDataMgr_8h.html" target="_top" xlink:title=" ">
<polygon fill="white" stroke="black" points="118,-62 118,-92 261,-92 261,-62 118,-62"/>
<text text-anchor="start" x="126" y="-80" font-family="Helvetica,sans-Serif" font-size="10.00">JSystem/JAudio2/JAIStream</text>
<text text-anchor="middle" x="189.5" y="-69" font-family="Helvetica,sans-Serif" font-size="10.00">DataMgr.h</text>
</a>
</g>
</g>
<!-- Node1&#45;&gt;Node4 -->
<g id="edge3" class="edge">
<title>Node1&#45;&gt;Node4</title>
<path fill="none" stroke="midnightblue" d="M189.5,-134.23C189.5,-125.16 189.5,-113.16 189.5,-102.58"/>
<polygon fill="midnightblue" stroke="midnightblue" points="193,-102.25 189.5,-92.25 186,-102.25 193,-102.25"/>
</g>
<!-- Node5 -->
<g id="node5" class="node">
<title>Node5</title>
<g id="a_node5"><a xlink:title=" ">
<polygon fill="white" stroke="#bfbfbf" points="279,-56.5 279,-97.5 432,-97.5 432,-56.5 279,-56.5"/>
<text text-anchor="start" x="287" y="-85.5" font-family="Helvetica,sans-Serif" font-size="10.00">asm/JSystem/JAudio2</text>
<text text-anchor="start" x="287" y="-74.5" font-family="Helvetica,sans-Serif" font-size="10.00">/JAIStreamDataMgr/_</text>
<text text-anchor="middle" x="355.5" y="-63.5" font-family="Helvetica,sans-Serif" font-size="10.00">_dt__16JAIStreamDataMgrFv.s</text>
</a>
</g>
</g>
<!-- Node1&#45;&gt;Node5 -->
<g id="edge5" class="edge">
<title>Node1&#45;&gt;Node5</title>
<path fill="none" stroke="midnightblue" d="M222.69,-134.4C244.86,-124.99 274.54,-112.39 300.22,-101.48"/>
<polygon fill="midnightblue" stroke="midnightblue" points="301.64,-104.68 309.48,-97.55 298.9,-98.23 301.64,-104.68"/>
</g>
<!-- Node6 -->
<g id="node6" class="node">
<title>Node6</title>
<g id="a_node6"><a xlink:title=" ">
<polygon fill="white" stroke="#bfbfbf" points="450.5,-56.5 450.5,-97.5 606.5,-97.5 606.5,-56.5 450.5,-56.5"/>
<text text-anchor="start" x="458.5" y="-85.5" font-family="Helvetica,sans-Serif" font-size="10.00">asm/JSystem/JAudio2</text>
<text text-anchor="start" x="458.5" y="-74.5" font-family="Helvetica,sans-Serif" font-size="10.00">/JAIStreamDataMgr/_</text>
<text text-anchor="middle" x="528.5" y="-63.5" font-family="Helvetica,sans-Serif" font-size="10.00">_dt__16JAIStreamAramMgrFv.s</text>
</a>
</g>
</g>
<!-- Node1&#45;&gt;Node6 -->
<g id="edge6" class="edge">
<title>Node1&#45;&gt;Node6</title>
<path fill="none" stroke="midnightblue" d="M250.19,-136.84C299,-127.34 369.6,-113.35 440.29,-98.23"/>
<polygon fill="midnightblue" stroke="midnightblue" points="441.23,-101.61 450.27,-96.09 439.76,-94.77 441.23,-101.61"/>
</g>
<!-- Node4&#45;&gt;Node3 -->
<g id="edge4" class="edge">
<title>Node4&#45;&gt;Node3</title>
<path fill="none" stroke="midnightblue" d="M178.65,-61.9C170.93,-51.86 160.53,-38.34 152.39,-27.75"/>
<polygon fill="midnightblue" stroke="midnightblue" points="155.06,-25.49 146.19,-19.69 149.51,-29.75 155.06,-25.49"/>
</g>
</g>
</svg>
