<?xml version="1.0" encoding="UTF-8" standalone="no"?>
<!DOCTYPE svg PUBLIC "-//W3C//DTD SVG 1.1//EN"
 "http://www.w3.org/Graphics/SVG/1.1/DTD/svg11.dtd">
<!-- Generated by graphviz version 2.47.0 (20210316.2052)
 -->
<!-- Title: libs/JSystem/JAudio2/JASBank.cpp Pages: 1 -->
<svg width="733pt" height="184pt"
 viewBox="0.00 0.00 733.00 184.00" xmlns="http://www.w3.org/2000/svg" xmlns:xlink="http://www.w3.org/1999/xlink">
<g id="graph0" class="graph" transform="scale(1 1) rotate(0) translate(4 180)">
<title>libs/JSystem/JAudio2/JASBank.cpp</title>
<polygon fill="white" stroke="transparent" points="-4,4 -4,-180 729,-180 729,4 -4,4"/>
<!-- Node1 -->
<g id="node1" class="node">
<title>Node1</title>
<g id="a_node1"><a xlink:title=" ">
<polygon fill="#bfbfbf" stroke="black" points="135,-145.5 135,-175.5 246,-175.5 246,-145.5 135,-145.5"/>
<text text-anchor="start" x="143" y="-163.5" font-family="Helvetica,sans-Serif" font-size="10.00">libs/JSystem/JAudio2</text>
<text text-anchor="middle" x="190.5" y="-152.5" font-family="Helvetica,sans-Serif" font-size="10.00">/JASBank.cpp</text>
</a>
</g>
</g>
<!-- Node2 -->
<g id="node2" class="node">
<title>Node2</title>
<g id="a_node2"><a xlink:href="dol2asm_8h.html" target="_top" xlink:title=" ">
<polygon fill="white" stroke="black" points="0,-73 0,-92 61,-92 61,-73 0,-73"/>
<text text-anchor="middle" x="30.5" y="-80" font-family="Helvetica,sans-Serif" font-size="10.00">dol2asm.h</text>
</a>
</g>
</g>
<!-- Node1&#45;&gt;Node2 -->
<g id="edge1" class="edge">
<title>Node1&#45;&gt;Node2</title>
<path fill="none" stroke="midnightblue" d="M156.11,-145.48C133.04,-135.81 102.11,-122.34 75.5,-109 68.33,-105.4 60.68,-101.21 53.76,-97.28"/>
<polygon fill="midnightblue" stroke="midnightblue" points="55.3,-94.12 44.89,-92.15 51.79,-100.18 55.3,-94.12"/>
</g>
<!-- Node3 -->
<g id="node3" class="node">
<title>Node3</title>
<g id="a_node3"><a xlink:href="types_8h.html" target="_top" xlink:title=" ">
<polygon fill="white" stroke="black" points="99,-0.5 99,-19.5 180,-19.5 180,-0.5 99,-0.5"/>
<text text-anchor="middle" x="139.5" y="-7.5" font-family="Helvetica,sans-Serif" font-size="10.00">dolphin/types.h</text>
</a>
</g>
</g>
<!-- Node1&#45;&gt;Node3 -->
<g id="edge2" class="edge">
<title>Node1&#45;&gt;Node3</title>
<path fill="none" stroke="midnightblue" d="M151.84,-145.37C135.73,-137.34 118.67,-125.52 109.5,-109 98.07,-88.4 102.67,-78.54 109.5,-56 112.62,-45.7 118.95,-35.61 125,-27.6"/>
<polygon fill="midnightblue" stroke="midnightblue" points="127.73,-29.8 131.29,-19.82 122.28,-25.4 127.73,-29.8"/>
</g>
<!-- Node4 -->
<g id="node4" class="node">
<title>Node4</title>
<g id="a_node4"><a xlink:href="JASBank_8h.html" target="_top" xlink:title=" ">
<polygon fill="white" stroke="black" points="118,-73 118,-92 263,-92 263,-73 118,-73"/>
<text text-anchor="middle" x="190.5" y="-80" font-family="Helvetica,sans-Serif" font-size="10.00">JSystem/JAudio2/JASBank.h</text>
</a>
</g>
</g>
<!-- Node1&#45;&gt;Node4 -->
<g id="edge3" class="edge">
<title>Node1&#45;&gt;Node4</title>
<path fill="none" stroke="midnightblue" d="M190.5,-145.2C190.5,-133.1 190.5,-115.65 190.5,-102.39"/>
<polygon fill="midnightblue" stroke="midnightblue" points="194,-102.06 190.5,-92.06 187,-102.06 194,-102.06"/>
</g>
<!-- Node5 -->
<g id="node5" class="node">
<title>Node5</title>
<g id="a_node5"><a xlink:title=" ">
<polygon fill="white" stroke="#bfbfbf" points="281,-56.5 281,-108.5 498,-108.5 498,-56.5 281,-56.5"/>
<text text-anchor="start" x="289" y="-96.5" font-family="Helvetica,sans-Serif" font-size="10.00">asm/JSystem/JAudio2</text>
<text text-anchor="start" x="289" y="-85.5" font-family="Helvetica,sans-Serif" font-size="10.00">/JASBank/noteOn__7JASBankFPC7</text>
<text text-anchor="start" x="289" y="-74.5" font-family="Helvetica,sans-Serif" font-size="10.00">JASBankiUcUcUsPFUlP10JASChannelPQ26</text>
<text text-anchor="middle" x="389.5" y="-63.5" font-family="Helvetica,sans-Serif" font-size="10.00">JASDsp8TChannelPv_vPv.s</text>
</a>
</g>
</g>
<!-- Node1&#45;&gt;Node5 -->
<g id="edge5" class="edge">
<title>Node1&#45;&gt;Node5</title>
<path fill="none" stroke="midnightblue" d="M227.46,-145.38C251.81,-136.09 284.55,-123.58 314.22,-112.25"/>
<polygon fill="midnightblue" stroke="midnightblue" points="315.64,-115.45 323.74,-108.62 313.15,-108.91 315.64,-115.45"/>
</g>
<!-- Node6 -->
<g id="node6" class="node">
<title>Node6</title>
<g id="a_node6"><a xlink:title=" ">
<polygon fill="white" stroke="#bfbfbf" points="516,-56.5 516,-108.5 725,-108.5 725,-56.5 516,-56.5"/>
<text text-anchor="start" x="524" y="-96.5" font-family="Helvetica,sans-Serif" font-size="10.00">asm/JSystem/JAudio2</text>
<text text-anchor="start" x="524" y="-85.5" font-family="Helvetica,sans-Serif" font-size="10.00">/JASBank/noteOnOsc_</text>
<text text-anchor="start" x="524" y="-74.5" font-family="Helvetica,sans-Serif" font-size="10.00">_7JASBankFiUcUcUsPFUlP10JASChannel</text>
<text text-anchor="middle" x="620.5" y="-63.5" font-family="Helvetica,sans-Serif" font-size="10.00">PQ26JASDsp8TChannelPv_vPv.s</text>
</a>
</g>
</g>
<!-- Node1&#45;&gt;Node6 -->
<g id="edge6" class="edge">
<title>Node1&#45;&gt;Node6</title>
<path fill="none" stroke="midnightblue" d="M246.23,-151.72C307.59,-142.92 409.34,-127.58 505.96,-109.25"/>
<polygon fill="midnightblue" stroke="midnightblue" points="506.72,-112.67 515.89,-107.35 505.41,-105.79 506.72,-112.67"/>
</g>
<!-- Node4&#45;&gt;Node3 -->
<g id="edge4" class="edge">
<title>Node4&#45;&gt;Node3</title>
<path fill="none" stroke="midnightblue" d="M184.25,-72.86C176.22,-61.76 162.1,-42.24 151.87,-28.09"/>
<polygon fill="midnightblue" stroke="midnightblue" points="154.5,-25.77 145.8,-19.72 148.83,-29.87 154.5,-25.77"/>
</g>
</g>
</svg>
