<?xml version="1.0" encoding="UTF-8" standalone="no"?>
<!DOCTYPE svg PUBLIC "-//W3C//DTD SVG 1.1//EN"
 "http://www.w3.org/Graphics/SVG/1.1/DTD/svg11.dtd">
<!-- Generated by graphviz version 2.47.0 (20210316.2052)
 -->
<!-- Title: libs/JSystem/JAudio2/JASBasicInst.cpp Pages: 1 -->
<svg width="1975pt" height="184pt"
 viewBox="0.00 0.00 1975.00 184.00" xmlns="http://www.w3.org/2000/svg" xmlns:xlink="http://www.w3.org/1999/xlink">
<g id="graph0" class="graph" transform="scale(1 1) rotate(0) translate(4 180)">
<title>libs/JSystem/JAudio2/JASBasicInst.cpp</title>
<polygon fill="white" stroke="transparent" points="-4,4 -4,-180 1971,-180 1971,4 -4,4"/>
<!-- Node1 -->
<g id="node1" class="node">
<title>Node1</title>
<g id="a_node1"><a xlink:title=" ">
<polygon fill="#bfbfbf" stroke="black" points="772,-145.5 772,-175.5 883,-175.5 883,-145.5 772,-145.5"/>
<text text-anchor="start" x="780" y="-163.5" font-family="Helvetica,sans-Serif" font-size="10.00">libs/JSystem/JAudio2</text>
<text text-anchor="middle" x="827.5" y="-152.5" font-family="Helvetica,sans-Serif" font-size="10.00">/JASBasicInst.cpp</text>
</a>
</g>
</g>
<!-- Node2 -->
<g id="node2" class="node">
<title>Node2</title>
<g id="a_node2"><a xlink:href="dol2asm_8h.html" target="_top" xlink:title=" ">
<polygon fill="white" stroke="black" points="0,-73 0,-92 61,-92 61,-73 0,-73"/>
<text text-anchor="middle" x="30.5" y="-80" font-family="Helvetica,sans-Serif" font-size="10.00">dol2asm.h</text>
</a>
</g>
</g>
<!-- Node1&#45;&gt;Node2 -->
<g id="edge1" class="edge">
<title>Node1&#45;&gt;Node2</title>
<path fill="none" stroke="midnightblue" d="M771.85,-158.96C620.82,-156.99 205.85,-148.08 75.5,-109 67.03,-106.46 58.42,-102.1 51.03,-97.7"/>
<polygon fill="midnightblue" stroke="midnightblue" points="52.75,-94.64 42.43,-92.24 48.99,-100.55 52.75,-94.64"/>
</g>
<!-- Node3 -->
<g id="node3" class="node">
<title>Node3</title>
<g id="a_node3"><a xlink:href="types_8h.html" target="_top" xlink:title=" ">
<polygon fill="white" stroke="black" points="98,-0.5 98,-19.5 179,-19.5 179,-0.5 98,-0.5"/>
<text text-anchor="middle" x="138.5" y="-7.5" font-family="Helvetica,sans-Serif" font-size="10.00">dolphin/types.h</text>
</a>
</g>
</g>
<!-- Node1&#45;&gt;Node3 -->
<g id="edge2" class="edge">
<title>Node1&#45;&gt;Node3</title>
<path fill="none" stroke="midnightblue" d="M771.98,-159.85C611.14,-160.27 153.43,-157.2 108.5,-109 87.37,-86.34 108.87,-49.17 124.77,-27.71"/>
<polygon fill="midnightblue" stroke="midnightblue" points="127.73,-29.6 131.11,-19.56 122.21,-25.3 127.73,-29.6"/>
</g>
<!-- Node4 -->
<g id="node4" class="node">
<title>Node4</title>
<g id="a_node4"><a xlink:href="JASBasicInst_8h.html" target="_top" xlink:title=" ">
<polygon fill="white" stroke="black" points="117.5,-67.5 117.5,-97.5 257.5,-97.5 257.5,-67.5 117.5,-67.5"/>
<text text-anchor="start" x="125.5" y="-85.5" font-family="Helvetica,sans-Serif" font-size="10.00">JSystem/JAudio2/JASBasic</text>
<text text-anchor="middle" x="187.5" y="-74.5" font-family="Helvetica,sans-Serif" font-size="10.00">Inst.h</text>
</a>
</g>
</g>
<!-- Node1&#45;&gt;Node4 -->
<g id="edge3" class="edge">
<title>Node1&#45;&gt;Node4</title>
<path fill="none" stroke="midnightblue" d="M771.68,-158.49C670.29,-155.77 449.54,-145.76 267.5,-109 257,-106.88 245.93,-103.87 235.49,-100.67"/>
<polygon fill="midnightblue" stroke="midnightblue" points="236.3,-97.25 225.71,-97.55 234.17,-103.92 236.3,-97.25"/>
</g>
<!-- Node5 -->
<g id="node5" class="node">
<title>Node5</title>
<g id="a_node5"><a xlink:title=" ">
<polygon fill="white" stroke="#bfbfbf" points="276,-62 276,-103 391,-103 391,-62 276,-62"/>
<text text-anchor="start" x="284" y="-91" font-family="Helvetica,sans-Serif" font-size="10.00">asm/JSystem/JAudio2</text>
<text text-anchor="start" x="284" y="-80" font-family="Helvetica,sans-Serif" font-size="10.00">/JASBasicInst/__ct_</text>
<text text-anchor="middle" x="333.5" y="-69" font-family="Helvetica,sans-Serif" font-size="10.00">_12JASBasicInstFv.s</text>
</a>
</g>
</g>
<!-- Node1&#45;&gt;Node5 -->
<g id="edge5" class="edge">
<title>Node1&#45;&gt;Node5</title>
<path fill="none" stroke="midnightblue" d="M771.79,-157.28C689.52,-153.02 531.18,-141.07 400.5,-109 397.13,-108.17 393.71,-107.23 390.27,-106.19"/>
<polygon fill="midnightblue" stroke="midnightblue" points="391.21,-102.82 380.62,-103.08 389.07,-109.48 391.21,-102.82"/>
</g>
<!-- Node6 -->
<g id="node6" class="node">
<title>Node6</title>
<g id="a_node6"><a xlink:title=" ">
<polygon fill="white" stroke="#bfbfbf" points="409,-62 409,-103 524,-103 524,-62 409,-62"/>
<text text-anchor="start" x="417" y="-91" font-family="Helvetica,sans-Serif" font-size="10.00">asm/JSystem/JAudio2</text>
<text text-anchor="start" x="417" y="-80" font-family="Helvetica,sans-Serif" font-size="10.00">/JASBasicInst/__dt_</text>
<text text-anchor="middle" x="466.5" y="-69" font-family="Helvetica,sans-Serif" font-size="10.00">_12JASBasicInstFv.s</text>
</a>
</g>
</g>
<!-- Node1&#45;&gt;Node6 -->
<g id="edge6" class="edge">
<title>Node1&#45;&gt;Node6</title>
<path fill="none" stroke="midnightblue" d="M771.8,-153.2C712.15,-145.69 615.05,-131.3 533.5,-109 530.38,-108.15 527.2,-107.2 524.01,-106.2"/>
<polygon fill="midnightblue" stroke="midnightblue" points="525.03,-102.85 514.44,-103.02 522.82,-109.49 525.03,-102.85"/>
</g>
<!-- Node7 -->
<g id="node7" class="node">
<title>Node7</title>
<g id="a_node7"><a xlink:title=" ">
<polygon fill="white" stroke="#bfbfbf" points="542,-56.5 542,-108.5 709,-108.5 709,-56.5 542,-56.5"/>
<text text-anchor="start" x="550" y="-96.5" font-family="Helvetica,sans-Serif" font-size="10.00">asm/JSystem/JAudio2</text>
<text text-anchor="start" x="550" y="-85.5" font-family="Helvetica,sans-Serif" font-size="10.00">/JASBasicInst/getParam</text>
<text text-anchor="start" x="550" y="-74.5" font-family="Helvetica,sans-Serif" font-size="10.00">__12JASBasicInstCFiiP12JASInst</text>
<text text-anchor="middle" x="625.5" y="-63.5" font-family="Helvetica,sans-Serif" font-size="10.00">Param.s</text>
</a>
</g>
</g>
<!-- Node1&#45;&gt;Node7 -->
<g id="edge7" class="edge">
<title>Node1&#45;&gt;Node7</title>
<path fill="none" stroke="midnightblue" d="M789.98,-145.38C765.27,-136.09 732.04,-123.58 701.91,-112.25"/>
<polygon fill="midnightblue" stroke="midnightblue" points="702.85,-108.86 692.25,-108.62 700.38,-115.41 702.85,-108.86"/>
</g>
<!-- Node8 -->
<g id="node8" class="node">
<title>Node8</title>
<g id="a_node8"><a xlink:title=" ">
<polygon fill="white" stroke="#bfbfbf" points="727.5,-62 727.5,-103 927.5,-103 927.5,-62 727.5,-62"/>
<text text-anchor="start" x="735.5" y="-91" font-family="Helvetica,sans-Serif" font-size="10.00">asm/JSystem/JAudio2</text>
<text text-anchor="start" x="735.5" y="-80" font-family="Helvetica,sans-Serif" font-size="10.00">/JASBasicInst/setKeyRegion</text>
<text text-anchor="middle" x="827.5" y="-69" font-family="Helvetica,sans-Serif" font-size="10.00">Count__12JASBasicInstFUlP7JKRHeap.s</text>
</a>
</g>
</g>
<!-- Node1&#45;&gt;Node8 -->
<g id="edge8" class="edge">
<title>Node1&#45;&gt;Node8</title>
<path fill="none" stroke="midnightblue" d="M827.5,-145.2C827.5,-136.21 827.5,-124.27 827.5,-113.29"/>
<polygon fill="midnightblue" stroke="midnightblue" points="831,-113.18 827.5,-103.18 824,-113.18 831,-113.18"/>
</g>
<!-- Node9 -->
<g id="node9" class="node">
<title>Node9</title>
<g id="a_node9"><a xlink:title=" ">
<polygon fill="white" stroke="#bfbfbf" points="945.5,-56.5 945.5,-108.5 1153.5,-108.5 1153.5,-56.5 945.5,-56.5"/>
<text text-anchor="start" x="953.5" y="-96.5" font-family="Helvetica,sans-Serif" font-size="10.00">asm/JSystem/JAudio2</text>
<text text-anchor="start" x="953.5" y="-85.5" font-family="Helvetica,sans-Serif" font-size="10.00">/JASBasicInst/setOsc</text>
<text text-anchor="start" x="953.5" y="-74.5" font-family="Helvetica,sans-Serif" font-size="10.00">__12JASBasicInstFiPCQ213JASOscillator4</text>
<text text-anchor="middle" x="1049.5" y="-63.5" font-family="Helvetica,sans-Serif" font-size="10.00">Data.s</text>
</a>
</g>
</g>
<!-- Node1&#45;&gt;Node9 -->
<g id="edge9" class="edge">
<title>Node1&#45;&gt;Node9</title>
<path fill="none" stroke="midnightblue" d="M868.48,-145.47C895.96,-136.06 933.12,-123.34 966.62,-111.87"/>
<polygon fill="midnightblue" stroke="midnightblue" points="968.09,-115.07 976.42,-108.52 965.82,-108.45 968.09,-115.07"/>
</g>
<!-- Node10 -->
<g id="node10" class="node">
<title>Node10</title>
<g id="a_node10"><a xlink:title=" ">
<polygon fill="white" stroke="#bfbfbf" points="1172,-62 1172,-103 1315,-103 1315,-62 1172,-62"/>
<text text-anchor="start" x="1180" y="-91" font-family="Helvetica,sans-Serif" font-size="10.00">asm/JSystem/JAudio2</text>
<text text-anchor="start" x="1180" y="-80" font-family="Helvetica,sans-Serif" font-size="10.00">/JASBasicInst/getKeyRegion</text>
<text text-anchor="middle" x="1243.5" y="-69" font-family="Helvetica,sans-Serif" font-size="10.00">__12JASBasicInstFi.s</text>
</a>
</g>
</g>
<!-- Node1&#45;&gt;Node10 -->
<g id="edge10" class="edge">
<title>Node1&#45;&gt;Node10</title>
<path fill="none" stroke="midnightblue" d="M883.13,-153.79C950,-146.32 1065.37,-131.47 1162.5,-109 1166.62,-108.05 1170.83,-106.99 1175.07,-105.86"/>
<polygon fill="midnightblue" stroke="midnightblue" points="1176.26,-109.16 1184.96,-103.11 1174.38,-102.41 1176.26,-109.16"/>
</g>
<!-- Node11 -->
<g id="node11" class="node">
<title>Node11</title>
<g id="a_node11"><a xlink:title=" ">
<polygon fill="white" stroke="#bfbfbf" points="1333.5,-62 1333.5,-103 1503.5,-103 1503.5,-62 1333.5,-62"/>
<text text-anchor="start" x="1341.5" y="-91" font-family="Helvetica,sans-Serif" font-size="10.00">asm/JSystem/JAudio2</text>
<text text-anchor="start" x="1341.5" y="-80" font-family="Helvetica,sans-Serif" font-size="10.00">/JASBasicInst/__dt_</text>
<text text-anchor="middle" x="1418.5" y="-69" font-family="Helvetica,sans-Serif" font-size="10.00">_Q212JASBasicInst7TKeymapFv.s</text>
</a>
</g>
</g>
<!-- Node1&#45;&gt;Node11 -->
<g id="edge11" class="edge">
<title>Node1&#45;&gt;Node11</title>
<path fill="none" stroke="midnightblue" d="M883.08,-156.83C975.39,-151.72 1165.88,-138.37 1324.5,-109 1330.2,-107.94 1336.06,-106.72 1341.93,-105.38"/>
<polygon fill="midnightblue" stroke="midnightblue" points="1342.88,-108.75 1351.8,-103.03 1341.26,-101.94 1342.88,-108.75"/>
</g>
<!-- Node12 -->
<g id="node12" class="node">
<title>Node12</title>
<g id="a_node12"><a xlink:title=" ">
<polygon fill="white" stroke="#bfbfbf" points="1522,-62 1522,-103 1637,-103 1637,-62 1522,-62"/>
<text text-anchor="start" x="1530" y="-91" font-family="Helvetica,sans-Serif" font-size="10.00">asm/JSystem/JAudio2</text>
<text text-anchor="start" x="1530" y="-80" font-family="Helvetica,sans-Serif" font-size="10.00">/JASBasicInst/__dt_</text>
<text text-anchor="middle" x="1579.5" y="-69" font-family="Helvetica,sans-Serif" font-size="10.00">_7JASInstFv.s</text>
</a>
</g>
</g>
<!-- Node1&#45;&gt;Node12 -->
<g id="edge12" class="edge">
<title>Node1&#45;&gt;Node12</title>
<path fill="none" stroke="midnightblue" d="M883.25,-157.47C1024.36,-152.01 1392.96,-135.56 1512.5,-109 1516.11,-108.2 1519.79,-107.24 1523.47,-106.17"/>
<polygon fill="midnightblue" stroke="midnightblue" points="1524.69,-109.45 1533.17,-103.11 1522.58,-102.78 1524.69,-109.45"/>
</g>
<!-- Node13 -->
<g id="node13" class="node">
<title>Node13</title>
<g id="a_node13"><a xlink:title=" ">
<polygon fill="white" stroke="#bfbfbf" points="1655.5,-62 1655.5,-103 1825.5,-103 1825.5,-62 1655.5,-62"/>
<text text-anchor="start" x="1663.5" y="-91" font-family="Helvetica,sans-Serif" font-size="10.00">asm/JSystem/JAudio2</text>
<text text-anchor="start" x="1663.5" y="-80" font-family="Helvetica,sans-Serif" font-size="10.00">/JASBasicInst/__ct_</text>
<text text-anchor="middle" x="1740.5" y="-69" font-family="Helvetica,sans-Serif" font-size="10.00">_Q212JASBasicInst7TKeymapFv.s</text>
</a>
</g>
</g>
<!-- Node1&#45;&gt;Node13 -->
<g id="edge13" class="edge">
<title>Node1&#45;&gt;Node13</title>
<path fill="none" stroke="midnightblue" d="M883.05,-159.95C1015.93,-160.18 1362.21,-155.82 1646.5,-109 1652.63,-107.99 1658.94,-106.74 1665.25,-105.35"/>
<polygon fill="midnightblue" stroke="midnightblue" points="1666.19,-108.73 1675.13,-103.06 1664.6,-101.91 1666.19,-108.73"/>
</g>
<!-- Node14 -->
<g id="node14" class="node">
<title>Node14</title>
<g id="a_node14"><a xlink:title=" ">
<polygon fill="white" stroke="#bfbfbf" points="1844,-62 1844,-103 1967,-103 1967,-62 1844,-62"/>
<text text-anchor="start" x="1852" y="-91" font-family="Helvetica,sans-Serif" font-size="10.00">asm/JSystem/JAudio2</text>
<text text-anchor="start" x="1852" y="-80" font-family="Helvetica,sans-Serif" font-size="10.00">/JASBasicInst/getType</text>
<text text-anchor="middle" x="1905.5" y="-69" font-family="Helvetica,sans-Serif" font-size="10.00">__12JASBasicInstCFv.s</text>
</a>
</g>
</g>
<!-- Node1&#45;&gt;Node14 -->
<g id="edge14" class="edge">
<title>Node1&#45;&gt;Node14</title>
<path fill="none" stroke="midnightblue" d="M883.16,-158.86C1066.48,-156.42 1650.2,-145.87 1834.5,-109 1838.62,-108.18 1842.82,-107.16 1847.01,-106.01"/>
<polygon fill="midnightblue" stroke="midnightblue" points="1848.17,-109.32 1856.76,-103.12 1846.18,-102.61 1848.17,-109.32"/>
</g>
<!-- Node4&#45;&gt;Node3 -->
<g id="edge4" class="edge">
<title>Node4&#45;&gt;Node3</title>
<path fill="none" stroke="midnightblue" d="M177.58,-67.23C169.74,-55.95 158.76,-40.15 150.43,-28.17"/>
<polygon fill="midnightblue" stroke="midnightblue" points="153.26,-26.11 144.68,-19.89 147.51,-30.1 153.26,-26.11"/>
</g>
</g>
</svg>
