<?xml version="1.0" encoding="UTF-8" standalone="no"?>
<!DOCTYPE svg PUBLIC "-//W3C//DTD SVG 1.1//EN"
 "http://www.w3.org/Graphics/SVG/1.1/DTD/svg11.dtd">
<!-- Generated by graphviz version 2.47.0 (20210316.2052)
 -->
<!-- Title: libs/JSystem/JAudio2/JASCmdStack.cpp Pages: 1 -->
<svg width="1198pt" height="173pt"
 viewBox="0.00 0.00 1197.50 173.00" xmlns="http://www.w3.org/2000/svg" xmlns:xlink="http://www.w3.org/1999/xlink">
<g id="graph0" class="graph" transform="scale(1 1) rotate(0) translate(4 169)">
<title>libs/JSystem/JAudio2/JASCmdStack.cpp</title>
<polygon fill="white" stroke="transparent" points="-4,4 -4,-169 1193.5,-169 1193.5,4 -4,4"/>
<!-- Node1 -->
<g id="node1" class="node">
<title>Node1</title>
<g id="a_node1"><a xlink:title=" ">
<polygon fill="#bfbfbf" stroke="black" points="424,-134.5 424,-164.5 535,-164.5 535,-134.5 424,-134.5"/>
<text text-anchor="start" x="432" y="-152.5" font-family="Helvetica,sans-Serif" font-size="10.00">libs/JSystem/JAudio2</text>
<text text-anchor="middle" x="479.5" y="-141.5" font-family="Helvetica,sans-Serif" font-size="10.00">/JASCmdStack.cpp</text>
</a>
</g>
</g>
<!-- Node2 -->
<g id="node2" class="node">
<title>Node2</title>
<g id="a_node2"><a xlink:href="dol2asm_8h.html" target="_top" xlink:title=" ">
<polygon fill="white" stroke="black" points="0,-67.5 0,-86.5 61,-86.5 61,-67.5 0,-67.5"/>
<text text-anchor="middle" x="30.5" y="-74.5" font-family="Helvetica,sans-Serif" font-size="10.00">dol2asm.h</text>
</a>
</g>
</g>
<!-- Node1&#45;&gt;Node2 -->
<g id="edge1" class="edge">
<title>Node1&#45;&gt;Node2</title>
<path fill="none" stroke="midnightblue" d="M423.93,-146.7C345.1,-142.99 196.89,-131.76 75.5,-98 69.01,-96.2 62.26,-93.61 56.02,-90.89"/>
<polygon fill="midnightblue" stroke="midnightblue" points="57.28,-87.62 46.74,-86.61 54.35,-93.98 57.28,-87.62"/>
</g>
<!-- Node3 -->
<g id="node3" class="node">
<title>Node3</title>
<g id="a_node3"><a xlink:href="types_8h.html" target="_top" xlink:title=" ">
<polygon fill="white" stroke="black" points="105,-0.5 105,-19.5 186,-19.5 186,-0.5 105,-0.5"/>
<text text-anchor="middle" x="145.5" y="-7.5" font-family="Helvetica,sans-Serif" font-size="10.00">dolphin/types.h</text>
</a>
</g>
</g>
<!-- Node1&#45;&gt;Node3 -->
<g id="edge2" class="edge">
<title>Node1&#45;&gt;Node3</title>
<path fill="none" stroke="midnightblue" d="M423.76,-149.45C330.41,-149.7 148.74,-144.09 108.5,-98 90.26,-77.11 112.22,-45.89 129.26,-27.08"/>
<polygon fill="midnightblue" stroke="midnightblue" points="132,-29.28 136.36,-19.62 126.93,-24.45 132,-29.28"/>
</g>
<!-- Node4 -->
<g id="node4" class="node">
<title>Node4</title>
<g id="a_node4"><a xlink:href="JASCmdStack_8h.html" target="_top" xlink:title=" ">
<polygon fill="white" stroke="black" points="117.5,-67.5 117.5,-86.5 285.5,-86.5 285.5,-67.5 117.5,-67.5"/>
<text text-anchor="middle" x="201.5" y="-74.5" font-family="Helvetica,sans-Serif" font-size="10.00">JSystem/JAudio2/JASCmdStack.h</text>
</a>
</g>
</g>
<!-- Node1&#45;&gt;Node4 -->
<g id="edge3" class="edge">
<title>Node1&#45;&gt;Node4</title>
<path fill="none" stroke="midnightblue" d="M424.24,-134.49C371.62,-121.14 293.45,-101.32 245.08,-89.05"/>
<polygon fill="midnightblue" stroke="midnightblue" points="245.79,-85.62 235.23,-86.55 244.07,-92.41 245.79,-85.62"/>
</g>
<!-- Node5 -->
<g id="node5" class="node">
<title>Node5</title>
<g id="a_node5"><a xlink:title=" ">
<polygon fill="white" stroke="#bfbfbf" points="304,-56.5 304,-97.5 467,-97.5 467,-56.5 304,-56.5"/>
<text text-anchor="start" x="312" y="-85.5" font-family="Helvetica,sans-Serif" font-size="10.00">asm/JSystem/JAudio2</text>
<text text-anchor="start" x="312" y="-74.5" font-family="Helvetica,sans-Serif" font-size="10.00">/JASCmdStack/execAllCommand</text>
<text text-anchor="middle" x="385.5" y="-63.5" font-family="Helvetica,sans-Serif" font-size="10.00">__10JASPortCmdFv.s</text>
</a>
</g>
</g>
<!-- Node1&#45;&gt;Node5 -->
<g id="edge5" class="edge">
<title>Node1&#45;&gt;Node5</title>
<path fill="none" stroke="midnightblue" d="M460.48,-134.23C448.84,-125.5 433.6,-114.07 419.9,-103.8"/>
<polygon fill="midnightblue" stroke="midnightblue" points="421.72,-100.79 411.62,-97.59 417.52,-106.39 421.72,-100.79"/>
</g>
<!-- Node6 -->
<g id="node6" class="node">
<title>Node6</title>
<g id="a_node6"><a xlink:title=" ">
<polygon fill="white" stroke="#bfbfbf" points="485,-56.5 485,-97.5 664,-97.5 664,-56.5 485,-56.5"/>
<text text-anchor="start" x="493" y="-85.5" font-family="Helvetica,sans-Serif" font-size="10.00">asm/JSystem/JAudio2</text>
<text text-anchor="start" x="493" y="-74.5" font-family="Helvetica,sans-Serif" font-size="10.00">/JASCmdStack/execCommandOnce</text>
<text text-anchor="middle" x="574.5" y="-63.5" font-family="Helvetica,sans-Serif" font-size="10.00">__Q210JASPortCmd9TPortHeadFv.s</text>
</a>
</g>
</g>
<!-- Node1&#45;&gt;Node6 -->
<g id="edge6" class="edge">
<title>Node1&#45;&gt;Node6</title>
<path fill="none" stroke="midnightblue" d="M498.72,-134.23C510.49,-125.5 525.89,-114.07 539.73,-103.8"/>
<polygon fill="midnightblue" stroke="midnightblue" points="542.16,-106.36 548.1,-97.59 537.99,-100.74 542.16,-106.36"/>
</g>
<!-- Node7 -->
<g id="node7" class="node">
<title>Node7</title>
<g id="a_node7"><a xlink:title=" ">
<polygon fill="white" stroke="#bfbfbf" points="682,-56.5 682,-97.5 861,-97.5 861,-56.5 682,-56.5"/>
<text text-anchor="start" x="690" y="-85.5" font-family="Helvetica,sans-Serif" font-size="10.00">asm/JSystem/JAudio2</text>
<text text-anchor="start" x="690" y="-74.5" font-family="Helvetica,sans-Serif" font-size="10.00">/JASCmdStack/execCommandStay</text>
<text text-anchor="middle" x="771.5" y="-63.5" font-family="Helvetica,sans-Serif" font-size="10.00">__Q210JASPortCmd9TPortHeadFv.s</text>
</a>
</g>
</g>
<!-- Node1&#45;&gt;Node7 -->
<g id="edge7" class="edge">
<title>Node1&#45;&gt;Node7</title>
<path fill="none" stroke="midnightblue" d="M535.11,-135.07C576.2,-125.15 633.04,-111.43 680.69,-99.92"/>
<polygon fill="midnightblue" stroke="midnightblue" points="681.81,-103.26 690.71,-97.51 680.17,-96.45 681.81,-103.26"/>
</g>
<!-- Node8 -->
<g id="node8" class="node">
<title>Node8</title>
<g id="a_node8"><a xlink:title=" ">
<polygon fill="white" stroke="#bfbfbf" points="879.5,-56.5 879.5,-97.5 995.5,-97.5 995.5,-56.5 879.5,-56.5"/>
<text text-anchor="start" x="887.5" y="-85.5" font-family="Helvetica,sans-Serif" font-size="10.00">asm/JSystem/JAudio2</text>
<text text-anchor="start" x="887.5" y="-74.5" font-family="Helvetica,sans-Serif" font-size="10.00">/JASCmdStack/__sinit</text>
<text text-anchor="middle" x="937.5" y="-63.5" font-family="Helvetica,sans-Serif" font-size="10.00">_JASCmdStack_cpp.s</text>
</a>
</g>
</g>
<!-- Node1&#45;&gt;Node8 -->
<g id="edge8" class="edge">
<title>Node1&#45;&gt;Node8</title>
<path fill="none" stroke="midnightblue" d="M535.01,-144.18C609.23,-137.77 744.93,-123.86 869.12,-98.13"/>
<polygon fill="midnightblue" stroke="midnightblue" points="870.11,-101.5 879.18,-96.01 868.67,-94.65 870.11,-101.5"/>
</g>
<!-- Node9 -->
<g id="node9" class="node">
<title>Node9</title>
<g id="a_node9"><a xlink:title=" ">
<polygon fill="white" stroke="#bfbfbf" points="1013.5,-56.5 1013.5,-97.5 1189.5,-97.5 1189.5,-56.5 1013.5,-56.5"/>
<text text-anchor="start" x="1021.5" y="-85.5" font-family="Helvetica,sans-Serif" font-size="10.00">asm/JSystem/JAudio2</text>
<text text-anchor="start" x="1021.5" y="-74.5" font-family="Helvetica,sans-Serif" font-size="10.00">/JASCmdStack/__dt__Q210JASPort</text>
<text text-anchor="middle" x="1101.5" y="-63.5" font-family="Helvetica,sans-Serif" font-size="10.00">Cmd9TPortHeadFv.s</text>
</a>
</g>
</g>
<!-- Node1&#45;&gt;Node9 -->
<g id="edge9" class="edge">
<title>Node1&#45;&gt;Node9</title>
<path fill="none" stroke="midnightblue" d="M535.3,-145.11C629.69,-138.94 827.01,-124.19 1003.31,-98.1"/>
<polygon fill="midnightblue" stroke="midnightblue" points="1003.91,-101.55 1013.28,-96.61 1002.88,-94.63 1003.91,-101.55"/>
</g>
<!-- Node4&#45;&gt;Node3 -->
<g id="edge4" class="edge">
<title>Node4&#45;&gt;Node3</title>
<path fill="none" stroke="midnightblue" d="M193.95,-67.23C185.22,-57.1 170.65,-40.19 159.76,-27.56"/>
<polygon fill="midnightblue" stroke="midnightblue" points="162.11,-24.92 152.93,-19.63 156.81,-29.49 162.11,-24.92"/>
</g>
</g>
</svg>
