<?xml version="1.0" encoding="UTF-8" standalone="no"?>
<!DOCTYPE svg PUBLIC "-//W3C//DTD SVG 1.1//EN"
 "http://www.w3.org/Graphics/SVG/1.1/DTD/svg11.dtd">
<!-- Generated by graphviz version 2.47.0 (20210316.2052)
 -->
<!-- Title: libs/JSystem/JAudio2/JASDSPInterface.cpp Pages: 1 -->
<svg width="6490pt" height="184pt"
 viewBox="0.00 0.00 6489.50 184.00" xmlns="http://www.w3.org/2000/svg" xmlns:xlink="http://www.w3.org/1999/xlink">
<g id="graph0" class="graph" transform="scale(1 1) rotate(0) translate(4 180)">
<title>libs/JSystem/JAudio2/JASDSPInterface.cpp</title>
<polygon fill="white" stroke="transparent" points="-4,4 -4,-180 6485.5,-180 6485.5,4 -4,4"/>
<!-- Node1 -->
<g id="node1" class="node">
<title>Node1</title>
<g id="a_node1"><a xlink:title=" ">
<polygon fill="#bfbfbf" stroke="black" points="2966,-145.5 2966,-175.5 3081,-175.5 3081,-145.5 2966,-145.5"/>
<text text-anchor="start" x="2974" y="-163.5" font-family="Helvetica,sans-Serif" font-size="10.00">libs/JSystem/JAudio2</text>
<text text-anchor="middle" x="3023.5" y="-152.5" font-family="Helvetica,sans-Serif" font-size="10.00">/JASDSPInterface.cpp</text>
</a>
</g>
</g>
<!-- Node2 -->
<g id="node2" class="node">
<title>Node2</title>
<g id="a_node2"><a xlink:href="dol2asm_8h.html" target="_top" xlink:title=" ">
<polygon fill="white" stroke="black" points="0,-73 0,-92 61,-92 61,-73 0,-73"/>
<text text-anchor="middle" x="30.5" y="-80" font-family="Helvetica,sans-Serif" font-size="10.00">dol2asm.h</text>
</a>
</g>
</g>
<!-- Node1&#45;&gt;Node2 -->
<g id="edge1" class="edge">
<title>Node1&#45;&gt;Node2</title>
<path fill="none" stroke="midnightblue" d="M2965.77,-159.32C2565.92,-157.98 220.02,-148.43 75.5,-109 66.85,-106.64 58.1,-102.24 50.65,-97.76"/>
<polygon fill="midnightblue" stroke="midnightblue" points="52.3,-94.66 42.01,-92.17 48.51,-100.54 52.3,-94.66"/>
</g>
<!-- Node3 -->
<g id="node3" class="node">
<title>Node3</title>
<g id="a_node3"><a xlink:href="types_8h.html" target="_top" xlink:title=" ">
<polygon fill="white" stroke="black" points="108,-0.5 108,-19.5 189,-19.5 189,-0.5 108,-0.5"/>
<text text-anchor="middle" x="148.5" y="-7.5" font-family="Helvetica,sans-Serif" font-size="10.00">dolphin/types.h</text>
</a>
</g>
</g>
<!-- Node1&#45;&gt;Node3 -->
<g id="edge2" class="edge">
<title>Node1&#45;&gt;Node3</title>
<path fill="none" stroke="midnightblue" d="M2965.75,-159.61C2560.76,-160.26 161.45,-161.86 109.5,-109 92.99,-92.2 101.27,-78.07 109.5,-56 113.67,-44.81 122.02,-34.56 129.92,-26.68"/>
<polygon fill="midnightblue" stroke="midnightblue" points="132.56,-29 137.51,-19.63 127.8,-23.87 132.56,-29"/>
</g>
<!-- Node4 -->
<g id="node4" class="node">
<title>Node4</title>
<g id="a_node4"><a xlink:href="JASDSPInterface_8h.html" target="_top" xlink:title=" ">
<polygon fill="white" stroke="black" points="118,-73 118,-92 299,-92 299,-73 118,-73"/>
<text text-anchor="middle" x="208.5" y="-80" font-family="Helvetica,sans-Serif" font-size="10.00">JSystem/JAudio2/JASDSPInterface.h</text>
</a>
</g>
</g>
<!-- Node1&#45;&gt;Node4 -->
<g id="edge3" class="edge">
<title>Node1&#45;&gt;Node4</title>
<path fill="none" stroke="midnightblue" d="M2965.93,-159.23C2597.78,-157.38 580.06,-145.65 308.5,-109 286.98,-106.1 263.42,-100.22 244.57,-94.85"/>
<polygon fill="midnightblue" stroke="midnightblue" points="245.49,-91.47 234.91,-92.02 243.52,-98.19 245.49,-91.47"/>
</g>
<!-- Node5 -->
<g id="node5" class="node">
<title>Node5</title>
<g id="a_node5"><a xlink:title=" ">
<polygon fill="white" stroke="#bfbfbf" points="317,-62 317,-103 436,-103 436,-62 317,-62"/>
<text text-anchor="start" x="325" y="-91" font-family="Helvetica,sans-Serif" font-size="10.00">asm/JSystem/JAudio2</text>
<text text-anchor="start" x="325" y="-80" font-family="Helvetica,sans-Serif" font-size="10.00">/JASDSPInterface/boot</text>
<text text-anchor="middle" x="376.5" y="-69" font-family="Helvetica,sans-Serif" font-size="10.00">__6JASDspFPFPv_v.s</text>
</a>
</g>
</g>
<!-- Node1&#45;&gt;Node5 -->
<g id="edge5" class="edge">
<title>Node1&#45;&gt;Node5</title>
<path fill="none" stroke="midnightblue" d="M2965.92,-159.52C2608.56,-159.51 700.49,-157.19 445.5,-109 441.34,-108.21 437.09,-107.2 432.86,-106.04"/>
<polygon fill="midnightblue" stroke="midnightblue" points="433.63,-102.61 423.04,-103.08 431.6,-109.31 433.63,-102.61"/>
</g>
<!-- Node6 -->
<g id="node6" class="node">
<title>Node6</title>
<g id="a_node6"><a xlink:title=" ">
<polygon fill="white" stroke="#bfbfbf" points="454,-62 454,-103 603,-103 603,-62 454,-62"/>
<text text-anchor="start" x="462" y="-91" font-family="Helvetica,sans-Serif" font-size="10.00">asm/JSystem/JAudio2</text>
<text text-anchor="start" x="462" y="-80" font-family="Helvetica,sans-Serif" font-size="10.00">/JASDSPInterface/releaseHalt</text>
<text text-anchor="middle" x="528.5" y="-69" font-family="Helvetica,sans-Serif" font-size="10.00">__6JASDspFUl.s</text>
</a>
</g>
</g>
<!-- Node1&#45;&gt;Node6 -->
<g id="edge6" class="edge">
<title>Node1&#45;&gt;Node6</title>
<path fill="none" stroke="midnightblue" d="M2965.84,-159.24C2622.23,-157.54 851.28,-147 612.5,-109 606.81,-108.09 600.97,-106.9 595.15,-105.52"/>
<polygon fill="midnightblue" stroke="midnightblue" points="595.95,-102.12 585.4,-103.05 594.23,-108.9 595.95,-102.12"/>
</g>
<!-- Node7 -->
<g id="node7" class="node">
<title>Node7</title>
<g id="a_node7"><a xlink:title=" ">
<polygon fill="white" stroke="#bfbfbf" points="621,-62 621,-103 766,-103 766,-62 621,-62"/>
<text text-anchor="start" x="629" y="-91" font-family="Helvetica,sans-Serif" font-size="10.00">asm/JSystem/JAudio2</text>
<text text-anchor="start" x="629" y="-80" font-family="Helvetica,sans-Serif" font-size="10.00">/JASDSPInterface/finishWork</text>
<text text-anchor="middle" x="693.5" y="-69" font-family="Helvetica,sans-Serif" font-size="10.00">__6JASDspFUs.s</text>
</a>
</g>
</g>
<!-- Node1&#45;&gt;Node7 -->
<g id="edge7" class="edge">
<title>Node1&#45;&gt;Node7</title>
<path fill="none" stroke="midnightblue" d="M2965.77,-159.16C2635.95,-157.12 997.09,-145.21 775.5,-109 770.07,-108.11 764.51,-106.95 758.96,-105.62"/>
<polygon fill="midnightblue" stroke="midnightblue" points="759.58,-102.16 749.02,-103.04 757.82,-108.94 759.58,-102.16"/>
</g>
<!-- Node8 -->
<g id="node8" class="node">
<title>Node8</title>
<g id="a_node8"><a xlink:title=" ">
<polygon fill="white" stroke="#bfbfbf" points="784.5,-62 784.5,-103 932.5,-103 932.5,-62 784.5,-62"/>
<text text-anchor="start" x="792.5" y="-91" font-family="Helvetica,sans-Serif" font-size="10.00">asm/JSystem/JAudio2</text>
<text text-anchor="start" x="792.5" y="-80" font-family="Helvetica,sans-Serif" font-size="10.00">/JASDSPInterface/syncFrame</text>
<text text-anchor="middle" x="858.5" y="-69" font-family="Helvetica,sans-Serif" font-size="10.00">__6JASDspFUlUlUl.s</text>
</a>
</g>
</g>
<!-- Node1&#45;&gt;Node8 -->
<g id="edge8" class="edge">
<title>Node1&#45;&gt;Node8</title>
<path fill="none" stroke="midnightblue" d="M2965.75,-159.03C2650.78,-156.34 1146.77,-141.86 942.5,-109 936.81,-108.09 930.97,-106.88 925.15,-105.5"/>
<polygon fill="midnightblue" stroke="midnightblue" points="925.95,-102.1 915.4,-103.02 924.23,-108.88 925.95,-102.1"/>
</g>
<!-- Node9 -->
<g id="node9" class="node">
<title>Node9</title>
<g id="a_node9"><a xlink:title=" ">
<polygon fill="white" stroke="#bfbfbf" points="951,-62 951,-103 1108,-103 1108,-62 951,-62"/>
<text text-anchor="start" x="959" y="-91" font-family="Helvetica,sans-Serif" font-size="10.00">asm/JSystem/JAudio2</text>
<text text-anchor="start" x="959" y="-80" font-family="Helvetica,sans-Serif" font-size="10.00">/JASDSPInterface/setDSPMixer</text>
<text text-anchor="middle" x="1029.5" y="-69" font-family="Helvetica,sans-Serif" font-size="10.00">Level__6JASDspFf.s</text>
</a>
</g>
</g>
<!-- Node1&#45;&gt;Node9 -->
<g id="edge9" class="edge">
<title>Node1&#45;&gt;Node9</title>
<path fill="none" stroke="midnightblue" d="M2965.8,-158.85C2667.15,-155.36 1303.74,-137.96 1117.5,-109 1111.66,-108.09 1105.66,-106.91 1099.67,-105.55"/>
<polygon fill="midnightblue" stroke="midnightblue" points="1100.18,-102.07 1089.64,-103.12 1098.53,-108.88 1100.18,-102.07"/>
</g>
<!-- Node10 -->
<g id="node10" class="node">
<title>Node10</title>
<g id="a_node10"><a xlink:title=" ">
<polygon fill="white" stroke="#bfbfbf" points="1126,-62 1126,-103 1283,-103 1283,-62 1126,-62"/>
<text text-anchor="start" x="1134" y="-91" font-family="Helvetica,sans-Serif" font-size="10.00">asm/JSystem/JAudio2</text>
<text text-anchor="start" x="1134" y="-80" font-family="Helvetica,sans-Serif" font-size="10.00">/JASDSPInterface/getDSPMixer</text>
<text text-anchor="middle" x="1204.5" y="-69" font-family="Helvetica,sans-Serif" font-size="10.00">Level__6JASDspFv.s</text>
</a>
</g>
</g>
<!-- Node1&#45;&gt;Node10 -->
<g id="edge10" class="edge">
<title>Node1&#45;&gt;Node10</title>
<path fill="none" stroke="midnightblue" d="M2965.59,-159.77C2703.36,-160.71 1625.53,-161.24 1292.5,-109 1286.66,-108.08 1280.66,-106.9 1274.68,-105.54"/>
<polygon fill="midnightblue" stroke="midnightblue" points="1275.18,-102.06 1264.64,-103.1 1273.53,-108.86 1275.18,-102.06"/>
</g>
<!-- Node11 -->
<g id="node11" class="node">
<title>Node11</title>
<g id="a_node11"><a xlink:title=" ">
<polygon fill="white" stroke="#bfbfbf" points="1301.5,-62 1301.5,-103 1465.5,-103 1465.5,-62 1301.5,-62"/>
<text text-anchor="start" x="1309.5" y="-91" font-family="Helvetica,sans-Serif" font-size="10.00">asm/JSystem/JAudio2</text>
<text text-anchor="start" x="1309.5" y="-80" font-family="Helvetica,sans-Serif" font-size="10.00">/JASDSPInterface/getDSPHandle</text>
<text text-anchor="middle" x="1383.5" y="-69" font-family="Helvetica,sans-Serif" font-size="10.00">__6JASDspFi.s</text>
</a>
</g>
</g>
<!-- Node1&#45;&gt;Node11 -->
<g id="edge11" class="edge">
<title>Node1&#45;&gt;Node11</title>
<path fill="none" stroke="midnightblue" d="M2965.65,-159.47C2720.98,-159.07 1770.18,-154.57 1474.5,-109 1468.33,-108.05 1461.98,-106.82 1455.64,-105.41"/>
<polygon fill="midnightblue" stroke="midnightblue" points="1456.26,-101.96 1445.72,-103.07 1454.65,-108.77 1456.26,-101.96"/>
</g>
<!-- Node12 -->
<g id="node12" class="node">
<title>Node12</title>
<g id="a_node12"><a xlink:title=" ">
<polygon fill="white" stroke="#bfbfbf" points="1483.5,-62 1483.5,-103 1623.5,-103 1623.5,-62 1483.5,-62"/>
<text text-anchor="start" x="1491.5" y="-91" font-family="Helvetica,sans-Serif" font-size="10.00">asm/JSystem/JAudio2</text>
<text text-anchor="start" x="1491.5" y="-80" font-family="Helvetica,sans-Serif" font-size="10.00">/JASDSPInterface/setFilter</text>
<text text-anchor="middle" x="1553.5" y="-69" font-family="Helvetica,sans-Serif" font-size="10.00">Table__6JASDspFPsPsUl.s</text>
</a>
</g>
</g>
<!-- Node1&#45;&gt;Node12 -->
<g id="edge12" class="edge">
<title>Node1&#45;&gt;Node12</title>
<path fill="none" stroke="midnightblue" d="M2965.81,-159.52C2737.23,-159.28 1894.89,-155.19 1632.5,-109 1627.48,-108.12 1622.35,-106.99 1617.22,-105.71"/>
<polygon fill="midnightblue" stroke="midnightblue" points="1617.96,-102.28 1607.4,-103.07 1616.15,-109.04 1617.96,-102.28"/>
</g>
<!-- Node13 -->
<g id="node13" class="node">
<title>Node13</title>
<g id="a_node13"><a xlink:title=" ">
<polygon fill="white" stroke="#bfbfbf" points="1641.5,-62 1641.5,-103 1787.5,-103 1787.5,-62 1641.5,-62"/>
<text text-anchor="start" x="1649.5" y="-91" font-family="Helvetica,sans-Serif" font-size="10.00">asm/JSystem/JAudio2</text>
<text text-anchor="start" x="1649.5" y="-80" font-family="Helvetica,sans-Serif" font-size="10.00">/JASDSPInterface/flushBuffer</text>
<text text-anchor="middle" x="1714.5" y="-69" font-family="Helvetica,sans-Serif" font-size="10.00">__6JASDspFv.s</text>
</a>
</g>
</g>
<!-- Node1&#45;&gt;Node13 -->
<g id="edge13" class="edge">
<title>Node1&#45;&gt;Node13</title>
<path fill="none" stroke="midnightblue" d="M2965.97,-159.09C2755.32,-157.27 2026.5,-148.22 1797.5,-109 1792.11,-108.08 1786.59,-106.91 1781.07,-105.57"/>
<polygon fill="midnightblue" stroke="midnightblue" points="1781.74,-102.13 1771.18,-103.02 1779.99,-108.91 1781.74,-102.13"/>
</g>
<!-- Node14 -->
<g id="node14" class="node">
<title>Node14</title>
<g id="a_node14"><a xlink:title=" ">
<polygon fill="white" stroke="#bfbfbf" points="1806,-62 1806,-103 1961,-103 1961,-62 1806,-62"/>
<text text-anchor="start" x="1814" y="-91" font-family="Helvetica,sans-Serif" font-size="10.00">asm/JSystem/JAudio2</text>
<text text-anchor="start" x="1814" y="-80" font-family="Helvetica,sans-Serif" font-size="10.00">/JASDSPInterface/invalChannel</text>
<text text-anchor="middle" x="1883.5" y="-69" font-family="Helvetica,sans-Serif" font-size="10.00">All__6JASDspFv.s</text>
</a>
</g>
</g>
<!-- Node1&#45;&gt;Node14 -->
<g id="edge14" class="edge">
<title>Node1&#45;&gt;Node14</title>
<path fill="none" stroke="midnightblue" d="M2965.72,-158.53C2774.66,-155.05 2164.41,-141.59 1970.5,-109 1964.83,-108.05 1959.01,-106.85 1953.2,-105.49"/>
<polygon fill="midnightblue" stroke="midnightblue" points="1953.99,-102.08 1943.44,-103.07 1952.31,-108.88 1953.99,-102.08"/>
</g>
<!-- Node15 -->
<g id="node15" class="node">
<title>Node15</title>
<g id="a_node15"><a xlink:title=" ">
<polygon fill="white" stroke="#bfbfbf" points="1979.5,-62 1979.5,-103 2117.5,-103 2117.5,-62 1979.5,-62"/>
<text text-anchor="start" x="1987.5" y="-91" font-family="Helvetica,sans-Serif" font-size="10.00">asm/JSystem/JAudio2</text>
<text text-anchor="start" x="1987.5" y="-80" font-family="Helvetica,sans-Serif" font-size="10.00">/JASDSPInterface/initBuffer</text>
<text text-anchor="middle" x="2048.5" y="-69" font-family="Helvetica,sans-Serif" font-size="10.00">__6JASDspFv.s</text>
</a>
</g>
</g>
<!-- Node1&#45;&gt;Node15 -->
<g id="edge15" class="edge">
<title>Node1&#45;&gt;Node15</title>
<path fill="none" stroke="midnightblue" d="M2965.7,-158.2C2793.91,-154.05 2288.4,-139.48 2126.5,-109 2121.76,-108.11 2116.91,-107.01 2112.07,-105.77"/>
<polygon fill="midnightblue" stroke="midnightblue" points="2112.72,-102.32 2102.15,-103.05 2110.87,-109.07 2112.72,-102.32"/>
</g>
<!-- Node16 -->
<g id="node16" class="node">
<title>Node16</title>
<g id="a_node16"><a xlink:title=" ">
<polygon fill="white" stroke="#bfbfbf" points="2135.5,-56.5 2135.5,-108.5 2331.5,-108.5 2331.5,-56.5 2135.5,-56.5"/>
<text text-anchor="start" x="2143.5" y="-96.5" font-family="Helvetica,sans-Serif" font-size="10.00">asm/JSystem/JAudio2</text>
<text text-anchor="start" x="2143.5" y="-85.5" font-family="Helvetica,sans-Serif" font-size="10.00">/JASDSPInterface/setFXLine</text>
<text text-anchor="start" x="2143.5" y="-74.5" font-family="Helvetica,sans-Serif" font-size="10.00">__6JASDspFUcPsPQ26JASDsp13Fxline</text>
<text text-anchor="middle" x="2233.5" y="-63.5" font-family="Helvetica,sans-Serif" font-size="10.00">Config_.s</text>
</a>
</g>
</g>
<!-- Node1&#45;&gt;Node16 -->
<g id="edge16" class="edge">
<title>Node1&#45;&gt;Node16</title>
<path fill="none" stroke="midnightblue" d="M2965.58,-158.34C2849.07,-155.33 2578.02,-144.93 2341.78,-109.09"/>
<polygon fill="midnightblue" stroke="midnightblue" points="2342.04,-105.59 2331.63,-107.53 2340.98,-112.51 2342.04,-105.59"/>
</g>
<!-- Node17 -->
<g id="node17" class="node">
<title>Node17</title>
<g id="a_node17"><a xlink:title=" ">
<polygon fill="white" stroke="#bfbfbf" points="2349.5,-62 2349.5,-103 2495.5,-103 2495.5,-62 2349.5,-62"/>
<text text-anchor="start" x="2357.5" y="-91" font-family="Helvetica,sans-Serif" font-size="10.00">asm/JSystem/JAudio2</text>
<text text-anchor="start" x="2357.5" y="-80" font-family="Helvetica,sans-Serif" font-size="10.00">/JASDSPInterface/init</text>
<text text-anchor="middle" x="2422.5" y="-69" font-family="Helvetica,sans-Serif" font-size="10.00">__Q26JASDsp8TChannelFv.s</text>
</a>
</g>
</g>
<!-- Node1&#45;&gt;Node17 -->
<g id="edge17" class="edge">
<title>Node1&#45;&gt;Node17</title>
<path fill="none" stroke="midnightblue" d="M2965.72,-157.73C2869.28,-153.92 2669.78,-142.37 2504.5,-109 2499.81,-108.05 2495.02,-106.94 2490.21,-105.73"/>
<polygon fill="midnightblue" stroke="midnightblue" points="2490.92,-102.3 2480.35,-103.1 2489.11,-109.06 2490.92,-102.3"/>
</g>
<!-- Node18 -->
<g id="node18" class="node">
<title>Node18</title>
<g id="a_node18"><a xlink:title=" ">
<polygon fill="white" stroke="#bfbfbf" points="2513.5,-62 2513.5,-103 2659.5,-103 2659.5,-62 2513.5,-62"/>
<text text-anchor="start" x="2521.5" y="-91" font-family="Helvetica,sans-Serif" font-size="10.00">asm/JSystem/JAudio2</text>
<text text-anchor="start" x="2521.5" y="-80" font-family="Helvetica,sans-Serif" font-size="10.00">/JASDSPInterface/playStart</text>
<text text-anchor="middle" x="2586.5" y="-69" font-family="Helvetica,sans-Serif" font-size="10.00">__Q26JASDsp8TChannelFv.s</text>
</a>
</g>
</g>
<!-- Node1&#45;&gt;Node18 -->
<g id="edge18" class="edge">
<title>Node1&#45;&gt;Node18</title>
<path fill="none" stroke="midnightblue" d="M2965.81,-154.16C2895.14,-146.97 2772.05,-132.31 2668.5,-109 2664.13,-108.02 2659.65,-106.91 2655.16,-105.73"/>
<polygon fill="midnightblue" stroke="midnightblue" points="2655.89,-102.3 2645.32,-103.03 2654.03,-109.05 2655.89,-102.3"/>
</g>
<!-- Node19 -->
<g id="node19" class="node">
<title>Node19</title>
<g id="a_node19"><a xlink:title=" ">
<polygon fill="white" stroke="#bfbfbf" points="2677.5,-62 2677.5,-103 2823.5,-103 2823.5,-62 2677.5,-62"/>
<text text-anchor="start" x="2685.5" y="-91" font-family="Helvetica,sans-Serif" font-size="10.00">asm/JSystem/JAudio2</text>
<text text-anchor="start" x="2685.5" y="-80" font-family="Helvetica,sans-Serif" font-size="10.00">/JASDSPInterface/playStop</text>
<text text-anchor="middle" x="2750.5" y="-69" font-family="Helvetica,sans-Serif" font-size="10.00">__Q26JASDsp8TChannelFv.s</text>
</a>
</g>
</g>
<!-- Node1&#45;&gt;Node19 -->
<g id="edge19" class="edge">
<title>Node1&#45;&gt;Node19</title>
<path fill="none" stroke="midnightblue" d="M2967.75,-145.43C2929.56,-135.63 2877.82,-122.03 2832.5,-109 2829,-107.99 2825.42,-106.95 2821.81,-105.88"/>
<polygon fill="midnightblue" stroke="midnightblue" points="2822.79,-102.52 2812.2,-103 2820.78,-109.22 2822.79,-102.52"/>
</g>
<!-- Node20 -->
<g id="node20" class="node">
<title>Node20</title>
<g id="a_node20"><a xlink:title=" ">
<polygon fill="white" stroke="#bfbfbf" points="2841.5,-62 2841.5,-103 3023.5,-103 3023.5,-62 2841.5,-62"/>
<text text-anchor="start" x="2849.5" y="-91" font-family="Helvetica,sans-Serif" font-size="10.00">asm/JSystem/JAudio2</text>
<text text-anchor="start" x="2849.5" y="-80" font-family="Helvetica,sans-Serif" font-size="10.00">/JASDSPInterface/replyFinish</text>
<text text-anchor="middle" x="2932.5" y="-69" font-family="Helvetica,sans-Serif" font-size="10.00">Request__Q26JASDsp8TChannelFv.s</text>
</a>
</g>
</g>
<!-- Node1&#45;&gt;Node20 -->
<g id="edge20" class="edge">
<title>Node1&#45;&gt;Node20</title>
<path fill="none" stroke="midnightblue" d="M3006.38,-145.2C2994.39,-135.19 2978.03,-121.52 2963.74,-109.59"/>
<polygon fill="midnightblue" stroke="midnightblue" points="2965.98,-106.9 2956.06,-103.18 2961.5,-112.28 2965.98,-106.9"/>
</g>
<!-- Node21 -->
<g id="node21" class="node">
<title>Node21</title>
<g id="a_node21"><a xlink:title=" ">
<polygon fill="white" stroke="#bfbfbf" points="3041.5,-62 3041.5,-103 3187.5,-103 3187.5,-62 3041.5,-62"/>
<text text-anchor="start" x="3049.5" y="-91" font-family="Helvetica,sans-Serif" font-size="10.00">asm/JSystem/JAudio2</text>
<text text-anchor="start" x="3049.5" y="-80" font-family="Helvetica,sans-Serif" font-size="10.00">/JASDSPInterface/forceStop</text>
<text text-anchor="middle" x="3114.5" y="-69" font-family="Helvetica,sans-Serif" font-size="10.00">__Q26JASDsp8TChannelFv.s</text>
</a>
</g>
</g>
<!-- Node1&#45;&gt;Node21 -->
<g id="edge21" class="edge">
<title>Node1&#45;&gt;Node21</title>
<path fill="none" stroke="midnightblue" d="M3040.62,-145.2C3052.61,-135.19 3068.97,-121.52 3083.26,-109.59"/>
<polygon fill="midnightblue" stroke="midnightblue" points="3085.5,-112.28 3090.94,-103.18 3081.02,-106.9 3085.5,-112.28"/>
</g>
<!-- Node22 -->
<g id="node22" class="node">
<title>Node22</title>
<g id="a_node22"><a xlink:title=" ">
<polygon fill="white" stroke="#bfbfbf" points="3206,-62 3206,-103 3359,-103 3359,-62 3206,-62"/>
<text text-anchor="start" x="3214" y="-91" font-family="Helvetica,sans-Serif" font-size="10.00">asm/JSystem/JAudio2</text>
<text text-anchor="start" x="3214" y="-80" font-family="Helvetica,sans-Serif" font-size="10.00">/JASDSPInterface/isActive</text>
<text text-anchor="middle" x="3282.5" y="-69" font-family="Helvetica,sans-Serif" font-size="10.00">__Q26JASDsp8TChannelCFv.s</text>
</a>
</g>
</g>
<!-- Node1&#45;&gt;Node22 -->
<g id="edge22" class="edge">
<title>Node1&#45;&gt;Node22</title>
<path fill="none" stroke="midnightblue" d="M3071.99,-145.41C3106.68,-135.31 3154.48,-121.36 3196.5,-109 3199.99,-107.97 3203.56,-106.92 3207.17,-105.86"/>
<polygon fill="midnightblue" stroke="midnightblue" points="3208.17,-109.21 3216.77,-103.02 3206.19,-102.5 3208.17,-109.21"/>
</g>
<!-- Node23 -->
<g id="node23" class="node">
<title>Node23</title>
<g id="a_node23"><a xlink:title=" ">
<polygon fill="white" stroke="#bfbfbf" points="3377,-62 3377,-103 3530,-103 3530,-62 3377,-62"/>
<text text-anchor="start" x="3385" y="-91" font-family="Helvetica,sans-Serif" font-size="10.00">asm/JSystem/JAudio2</text>
<text text-anchor="start" x="3385" y="-80" font-family="Helvetica,sans-Serif" font-size="10.00">/JASDSPInterface/isFinish</text>
<text text-anchor="middle" x="3453.5" y="-69" font-family="Helvetica,sans-Serif" font-size="10.00">__Q26JASDsp8TChannelCFv.s</text>
</a>
</g>
</g>
<!-- Node1&#45;&gt;Node23 -->
<g id="edge23" class="edge">
<title>Node1&#45;&gt;Node23</title>
<path fill="none" stroke="midnightblue" d="M3081.04,-153.68C3149.91,-146.12 3268.48,-131.2 3368.5,-109 3372.93,-108.02 3377.48,-106.92 3382.04,-105.75"/>
<polygon fill="midnightblue" stroke="midnightblue" points="3383.27,-109.05 3392.03,-103.09 3381.47,-102.28 3383.27,-109.05"/>
</g>
<!-- Node24 -->
<g id="node24" class="node">
<title>Node24</title>
<g id="a_node24"><a xlink:title=" ">
<polygon fill="white" stroke="#bfbfbf" points="3548,-56.5 3548,-108.5 3749,-108.5 3749,-56.5 3548,-56.5"/>
<text text-anchor="start" x="3556" y="-96.5" font-family="Helvetica,sans-Serif" font-size="10.00">asm/JSystem/JAudio2</text>
<text text-anchor="start" x="3556" y="-85.5" font-family="Helvetica,sans-Serif" font-size="10.00">/JASDSPInterface/setWaveInfo</text>
<text text-anchor="start" x="3556" y="-74.5" font-family="Helvetica,sans-Serif" font-size="10.00">__Q26JASDsp8TChannelFRC11JASWave</text>
<text text-anchor="middle" x="3648.5" y="-63.5" font-family="Helvetica,sans-Serif" font-size="10.00">InfoUlUl.s</text>
</a>
</g>
</g>
<!-- Node1&#45;&gt;Node24 -->
<g id="edge24" class="edge">
<title>Node1&#45;&gt;Node24</title>
<path fill="none" stroke="midnightblue" d="M3081.09,-156.36C3174.95,-150.69 3366.83,-136.82 3537.99,-109.16"/>
<polygon fill="midnightblue" stroke="midnightblue" points="3538.63,-112.61 3547.93,-107.54 3537.5,-105.7 3538.63,-112.61"/>
</g>
<!-- Node25 -->
<g id="node25" class="node">
<title>Node25</title>
<g id="a_node25"><a xlink:title=" ">
<polygon fill="white" stroke="#bfbfbf" points="3767,-62 3767,-103 3918,-103 3918,-62 3767,-62"/>
<text text-anchor="start" x="3775" y="-91" font-family="Helvetica,sans-Serif" font-size="10.00">asm/JSystem/JAudio2</text>
<text text-anchor="start" x="3775" y="-80" font-family="Helvetica,sans-Serif" font-size="10.00">/JASDSPInterface/setOscInfo</text>
<text text-anchor="middle" x="3842.5" y="-69" font-family="Helvetica,sans-Serif" font-size="10.00">__Q26JASDsp8TChannelFUl.s</text>
</a>
</g>
</g>
<!-- Node1&#45;&gt;Node25 -->
<g id="edge25" class="edge">
<title>Node1&#45;&gt;Node25</title>
<path fill="none" stroke="midnightblue" d="M3081.23,-159.94C3205.95,-159.94 3509.42,-154.75 3758.5,-109 3763.62,-108.06 3768.86,-106.92 3774.11,-105.64"/>
<polygon fill="midnightblue" stroke="midnightblue" points="3775.36,-108.94 3784.17,-103.05 3773.61,-102.16 3775.36,-108.94"/>
</g>
<!-- Node26 -->
<g id="node26" class="node">
<title>Node26</title>
<g id="a_node26"><a xlink:title=" ">
<polygon fill="white" stroke="#bfbfbf" points="3936.5,-62 3936.5,-103 4092.5,-103 4092.5,-62 3936.5,-62"/>
<text text-anchor="start" x="3944.5" y="-91" font-family="Helvetica,sans-Serif" font-size="10.00">asm/JSystem/JAudio2</text>
<text text-anchor="start" x="3944.5" y="-80" font-family="Helvetica,sans-Serif" font-size="10.00">/JASDSPInterface/initAutoMixer</text>
<text text-anchor="middle" x="4014.5" y="-69" font-family="Helvetica,sans-Serif" font-size="10.00">__Q26JASDsp8TChannelFv.s</text>
</a>
</g>
</g>
<!-- Node1&#45;&gt;Node26 -->
<g id="edge26" class="edge">
<title>Node1&#45;&gt;Node26</title>
<path fill="none" stroke="midnightblue" d="M3081.1,-158.01C3253.51,-153.27 3763.68,-137.2 3927.5,-109 3933.16,-108.03 3938.98,-106.81 3944.8,-105.44"/>
<polygon fill="midnightblue" stroke="midnightblue" points="3945.69,-108.83 3954.55,-103.01 3944,-102.03 3945.69,-108.83"/>
</g>
<!-- Node27 -->
<g id="node27" class="node">
<title>Node27</title>
<g id="a_node27"><a xlink:title=" ">
<polygon fill="white" stroke="#bfbfbf" points="4111,-62 4111,-103 4316,-103 4316,-62 4111,-62"/>
<text text-anchor="start" x="4119" y="-91" font-family="Helvetica,sans-Serif" font-size="10.00">asm/JSystem/JAudio2</text>
<text text-anchor="start" x="4119" y="-80" font-family="Helvetica,sans-Serif" font-size="10.00">/JASDSPInterface/setAutoMixer</text>
<text text-anchor="middle" x="4213.5" y="-69" font-family="Helvetica,sans-Serif" font-size="10.00">__Q26JASDsp8TChannelFUsUcUcUcUc.s</text>
</a>
</g>
</g>
<!-- Node1&#45;&gt;Node27 -->
<g id="edge27" class="edge">
<title>Node1&#45;&gt;Node27</title>
<path fill="none" stroke="midnightblue" d="M3081.22,-158.15C3275.04,-153.38 3901.58,-136.22 4101.5,-109 4109.44,-107.92 4117.64,-106.55 4125.83,-105.01"/>
<polygon fill="midnightblue" stroke="midnightblue" points="4126.66,-108.41 4135.8,-103.05 4125.31,-101.54 4126.66,-108.41"/>
</g>
<!-- Node28 -->
<g id="node28" class="node">
<title>Node28</title>
<g id="a_node28"><a xlink:title=" ">
<polygon fill="white" stroke="#bfbfbf" points="4334.5,-62 4334.5,-103 4488.5,-103 4488.5,-62 4334.5,-62"/>
<text text-anchor="start" x="4342.5" y="-91" font-family="Helvetica,sans-Serif" font-size="10.00">asm/JSystem/JAudio2</text>
<text text-anchor="start" x="4342.5" y="-80" font-family="Helvetica,sans-Serif" font-size="10.00">/JASDSPInterface/setPitch</text>
<text text-anchor="middle" x="4411.5" y="-69" font-family="Helvetica,sans-Serif" font-size="10.00">__Q26JASDsp8TChannelFUs.s</text>
</a>
</g>
</g>
<!-- Node1&#45;&gt;Node28 -->
<g id="edge28" class="edge">
<title>Node1&#45;&gt;Node28</title>
<path fill="none" stroke="midnightblue" d="M3081.16,-159.17C3300.24,-157.63 4080.82,-149.37 4325.5,-109 4331.21,-108.06 4337.07,-106.85 4342.93,-105.48"/>
<polygon fill="midnightblue" stroke="midnightblue" points="4343.88,-108.85 4352.74,-103.03 4342.19,-102.06 4343.88,-108.85"/>
</g>
<!-- Node29 -->
<g id="node29" class="node">
<title>Node29</title>
<g id="a_node29"><a xlink:title=" ">
<polygon fill="white" stroke="#bfbfbf" points="4506.5,-62 4506.5,-103 4698.5,-103 4698.5,-62 4506.5,-62"/>
<text text-anchor="start" x="4514.5" y="-91" font-family="Helvetica,sans-Serif" font-size="10.00">asm/JSystem/JAudio2</text>
<text text-anchor="start" x="4514.5" y="-80" font-family="Helvetica,sans-Serif" font-size="10.00">/JASDSPInterface/setMixerInit</text>
<text text-anchor="middle" x="4602.5" y="-69" font-family="Helvetica,sans-Serif" font-size="10.00">Volume__Q26JASDsp8TChannelFUcs.s</text>
</a>
</g>
</g>
<!-- Node1&#45;&gt;Node29 -->
<g id="edge29" class="edge">
<title>Node1&#45;&gt;Node29</title>
<path fill="none" stroke="midnightblue" d="M3081.29,-159.09C3318.29,-157.19 4216.55,-147.52 4497.5,-109 4505.08,-107.96 4512.91,-106.61 4520.72,-105.06"/>
<polygon fill="midnightblue" stroke="midnightblue" points="4521.49,-108.47 4530.57,-103.01 4520.07,-101.62 4521.49,-108.47"/>
</g>
<!-- Node30 -->
<g id="node30" class="node">
<title>Node30</title>
<g id="a_node30"><a xlink:title=" ">
<polygon fill="white" stroke="#bfbfbf" points="4716.5,-62 4716.5,-103 4886.5,-103 4886.5,-62 4716.5,-62"/>
<text text-anchor="start" x="4724.5" y="-91" font-family="Helvetica,sans-Serif" font-size="10.00">asm/JSystem/JAudio2</text>
<text text-anchor="start" x="4724.5" y="-80" font-family="Helvetica,sans-Serif" font-size="10.00">/JASDSPInterface/setMixerVolume</text>
<text text-anchor="middle" x="4801.5" y="-69" font-family="Helvetica,sans-Serif" font-size="10.00">__Q26JASDsp8TChannelFUcs.s</text>
</a>
</g>
</g>
<!-- Node1&#45;&gt;Node30 -->
<g id="edge30" class="edge">
<title>Node1&#45;&gt;Node30</title>
<path fill="none" stroke="midnightblue" d="M3081.1,-159.59C3338.35,-159.69 4383.64,-157.1 4707.5,-109 4714.07,-108.02 4720.85,-106.75 4727.6,-105.28"/>
<polygon fill="midnightblue" stroke="midnightblue" points="4728.49,-108.67 4737.45,-103.02 4726.92,-101.85 4728.49,-108.67"/>
</g>
<!-- Node31 -->
<g id="node31" class="node">
<title>Node31</title>
<g id="a_node31"><a xlink:title=" ">
<polygon fill="white" stroke="#bfbfbf" points="4904.5,-62 4904.5,-103 5064.5,-103 5064.5,-62 4904.5,-62"/>
<text text-anchor="start" x="4912.5" y="-91" font-family="Helvetica,sans-Serif" font-size="10.00">asm/JSystem/JAudio2</text>
<text text-anchor="start" x="4912.5" y="-80" font-family="Helvetica,sans-Serif" font-size="10.00">/JASDSPInterface/setPauseFlag</text>
<text text-anchor="middle" x="4984.5" y="-69" font-family="Helvetica,sans-Serif" font-size="10.00">__Q26JASDsp8TChannelFUc.s</text>
</a>
</g>
</g>
<!-- Node1&#45;&gt;Node31 -->
<g id="edge31" class="edge">
<title>Node1&#45;&gt;Node31</title>
<path fill="none" stroke="midnightblue" d="M3081.14,-158.81C3376.42,-155.16 4712.75,-137.18 4895.5,-109 4901.4,-108.09 4907.47,-106.91 4913.52,-105.55"/>
<polygon fill="midnightblue" stroke="midnightblue" points="4914.76,-108.85 4923.67,-103.12 4913.13,-102.04 4914.76,-108.85"/>
</g>
<!-- Node32 -->
<g id="node32" class="node">
<title>Node32</title>
<g id="a_node32"><a xlink:title=" ">
<polygon fill="white" stroke="#bfbfbf" points="5082.5,-62 5082.5,-103 5228.5,-103 5228.5,-62 5082.5,-62"/>
<text text-anchor="start" x="5090.5" y="-91" font-family="Helvetica,sans-Serif" font-size="10.00">asm/JSystem/JAudio2</text>
<text text-anchor="start" x="5090.5" y="-80" font-family="Helvetica,sans-Serif" font-size="10.00">/JASDSPInterface/flush</text>
<text text-anchor="middle" x="5155.5" y="-69" font-family="Helvetica,sans-Serif" font-size="10.00">__Q26JASDsp8TChannelFv.s</text>
</a>
</g>
</g>
<!-- Node1&#45;&gt;Node32 -->
<g id="edge32" class="edge">
<title>Node1&#45;&gt;Node32</title>
<path fill="none" stroke="midnightblue" d="M3081.15,-159.03C3393.12,-156.37 4872.55,-142.06 5073.5,-109 5078.92,-108.11 5084.49,-106.94 5090.04,-105.6"/>
<polygon fill="midnightblue" stroke="midnightblue" points="5091.18,-108.92 5099.98,-103.02 5089.42,-102.15 5091.18,-108.92"/>
</g>
<!-- Node33 -->
<g id="node33" class="node">
<title>Node33</title>
<g id="a_node33"><a xlink:title=" ">
<polygon fill="white" stroke="#bfbfbf" points="5246.5,-62 5246.5,-103 5392.5,-103 5392.5,-62 5246.5,-62"/>
<text text-anchor="start" x="5254.5" y="-91" font-family="Helvetica,sans-Serif" font-size="10.00">asm/JSystem/JAudio2</text>
<text text-anchor="start" x="5254.5" y="-80" font-family="Helvetica,sans-Serif" font-size="10.00">/JASDSPInterface/initFilter</text>
<text text-anchor="middle" x="5319.5" y="-69" font-family="Helvetica,sans-Serif" font-size="10.00">__Q26JASDsp8TChannelFv.s</text>
</a>
</g>
</g>
<!-- Node1&#45;&gt;Node33 -->
<g id="edge33" class="edge">
<title>Node1&#45;&gt;Node33</title>
<path fill="none" stroke="midnightblue" d="M3081.15,-159.14C3407.82,-157 5019.45,-144.67 5237.5,-109 5242.93,-108.11 5248.49,-106.95 5254.04,-105.61"/>
<polygon fill="midnightblue" stroke="midnightblue" points="5255.18,-108.93 5263.98,-103.04 5253.42,-102.16 5255.18,-108.93"/>
</g>
<!-- Node34 -->
<g id="node34" class="node">
<title>Node34</title>
<g id="a_node34"><a xlink:title=" ">
<polygon fill="white" stroke="#bfbfbf" points="5410.5,-62 5410.5,-103 5588.5,-103 5588.5,-62 5410.5,-62"/>
<text text-anchor="start" x="5418.5" y="-91" font-family="Helvetica,sans-Serif" font-size="10.00">asm/JSystem/JAudio2</text>
<text text-anchor="start" x="5418.5" y="-80" font-family="Helvetica,sans-Serif" font-size="10.00">/JASDSPInterface/setFilter</text>
<text text-anchor="middle" x="5499.5" y="-69" font-family="Helvetica,sans-Serif" font-size="10.00">Mode__Q26JASDsp8TChannelFUs.s</text>
</a>
</g>
</g>
<!-- Node1&#45;&gt;Node34 -->
<g id="edge34" class="edge">
<title>Node1&#45;&gt;Node34</title>
<path fill="none" stroke="midnightblue" d="M3081.18,-159.08C3421.97,-156.5 5165.48,-141.75 5401.5,-109 5408.56,-108.02 5415.85,-106.71 5423.11,-105.2"/>
<polygon fill="midnightblue" stroke="midnightblue" points="5423.96,-108.6 5432.97,-103.03 5422.45,-101.76 5423.96,-108.6"/>
</g>
<!-- Node35 -->
<g id="node35" class="node">
<title>Node35</title>
<g id="a_node35"><a xlink:title=" ">
<polygon fill="white" stroke="#bfbfbf" points="5606.5,-62 5606.5,-103 5788.5,-103 5788.5,-62 5606.5,-62"/>
<text text-anchor="start" x="5614.5" y="-91" font-family="Helvetica,sans-Serif" font-size="10.00">asm/JSystem/JAudio2</text>
<text text-anchor="start" x="5614.5" y="-80" font-family="Helvetica,sans-Serif" font-size="10.00">/JASDSPInterface/setIIRFilter</text>
<text text-anchor="middle" x="5697.5" y="-69" font-family="Helvetica,sans-Serif" font-size="10.00">Param__Q26JASDsp8TChannelFPs.s</text>
</a>
</g>
</g>
<!-- Node1&#45;&gt;Node35 -->
<g id="edge35" class="edge">
<title>Node1&#45;&gt;Node35</title>
<path fill="none" stroke="midnightblue" d="M3081.22,-159.16C3438.41,-156.98 5340.82,-143.77 5597.5,-109 5604.78,-108.01 5612.3,-106.69 5619.79,-105.16"/>
<polygon fill="midnightblue" stroke="midnightblue" points="5620.56,-108.57 5629.6,-103.04 5619.08,-101.73 5620.56,-108.57"/>
</g>
<!-- Node36 -->
<g id="node36" class="node">
<title>Node36</title>
<g id="a_node36"><a xlink:title=" ">
<polygon fill="white" stroke="#bfbfbf" points="5806.5,-62 5806.5,-103 5988.5,-103 5988.5,-62 5806.5,-62"/>
<text text-anchor="start" x="5814.5" y="-91" font-family="Helvetica,sans-Serif" font-size="10.00">asm/JSystem/JAudio2</text>
<text text-anchor="start" x="5814.5" y="-80" font-family="Helvetica,sans-Serif" font-size="10.00">/JASDSPInterface/setFIR8Filter</text>
<text text-anchor="middle" x="5897.5" y="-69" font-family="Helvetica,sans-Serif" font-size="10.00">Param__Q26JASDsp8TChannelFPs.s</text>
</a>
</g>
</g>
<!-- Node1&#45;&gt;Node36 -->
<g id="edge36" class="edge">
<title>Node1&#45;&gt;Node36</title>
<path fill="none" stroke="midnightblue" d="M3081.11,-159.25C3454.04,-157.54 5519.73,-146.43 5797.5,-109 5804.78,-108.02 5812.3,-106.7 5819.79,-105.17"/>
<polygon fill="midnightblue" stroke="midnightblue" points="5820.56,-108.58 5829.6,-103.05 5819.08,-101.74 5820.56,-108.58"/>
</g>
<!-- Node37 -->
<g id="node37" class="node">
<title>Node37</title>
<g id="a_node37"><a xlink:title=" ">
<polygon fill="white" stroke="#bfbfbf" points="6006.5,-62 6006.5,-103 6158.5,-103 6158.5,-62 6006.5,-62"/>
<text text-anchor="start" x="6014.5" y="-91" font-family="Helvetica,sans-Serif" font-size="10.00">asm/JSystem/JAudio2</text>
<text text-anchor="start" x="6014.5" y="-80" font-family="Helvetica,sans-Serif" font-size="10.00">/JASDSPInterface/setDistFilter</text>
<text text-anchor="middle" x="6082.5" y="-69" font-family="Helvetica,sans-Serif" font-size="10.00">__Q26JASDsp8TChannelFs.s</text>
</a>
</g>
</g>
<!-- Node1&#45;&gt;Node37 -->
<g id="edge37" class="edge">
<title>Node1&#45;&gt;Node37</title>
<path fill="none" stroke="midnightblue" d="M3081.17,-159.47C3469.75,-159.15 5699.55,-155.32 5997.5,-109 6003.25,-108.11 6009.16,-106.92 6015.05,-105.55"/>
<polygon fill="midnightblue" stroke="midnightblue" points="6016.07,-108.9 6024.92,-103.08 6014.37,-102.11 6016.07,-108.9"/>
</g>
<!-- Node38 -->
<g id="node38" class="node">
<title>Node38</title>
<g id="a_node38"><a xlink:title=" ">
<polygon fill="white" stroke="#bfbfbf" points="6177,-62 6177,-103 6344,-103 6344,-62 6177,-62"/>
<text text-anchor="start" x="6185" y="-91" font-family="Helvetica,sans-Serif" font-size="10.00">asm/JSystem/JAudio2</text>
<text text-anchor="start" x="6185" y="-80" font-family="Helvetica,sans-Serif" font-size="10.00">/JASDSPInterface/setBusConnect</text>
<text text-anchor="middle" x="6260.5" y="-69" font-family="Helvetica,sans-Serif" font-size="10.00">__Q26JASDsp8TChannelFUcUc.s</text>
</a>
</g>
</g>
<!-- Node1&#45;&gt;Node38 -->
<g id="edge38" class="edge">
<title>Node1&#45;&gt;Node38</title>
<path fill="none" stroke="midnightblue" d="M3081.19,-159.45C3482.53,-158.96 5851.1,-154.18 6167.5,-109 6174.13,-108.05 6180.95,-106.78 6187.75,-105.31"/>
<polygon fill="midnightblue" stroke="midnightblue" points="6188.71,-108.68 6197.67,-103.02 6187.14,-101.86 6188.71,-108.68"/>
</g>
<!-- Node39 -->
<g id="node39" class="node">
<title>Node39</title>
<g id="a_node39"><a xlink:title=" ">
<polygon fill="white" stroke="#bfbfbf" points="6361.5,-62 6361.5,-103 6481.5,-103 6481.5,-62 6361.5,-62"/>
<text text-anchor="start" x="6369.5" y="-91" font-family="Helvetica,sans-Serif" font-size="10.00">asm/JSystem/JAudio2</text>
<text text-anchor="start" x="6369.5" y="-80" font-family="Helvetica,sans-Serif" font-size="10.00">/JASDSPInterface/DSP</text>
<text text-anchor="middle" x="6421.5" y="-69" font-family="Helvetica,sans-Serif" font-size="10.00">_CreateMap2__FUl.s</text>
</a>
</g>
</g>
<!-- Node1&#45;&gt;Node39 -->
<g id="edge39" class="edge">
<title>Node1&#45;&gt;Node39</title>
<path fill="none" stroke="midnightblue" d="M3081.26,-159.19C3510.1,-156.79 6186.31,-140.63 6353.5,-109 6357.61,-108.22 6361.8,-107.22 6365.98,-106.06"/>
<polygon fill="midnightblue" stroke="midnightblue" points="6367.11,-109.37 6375.66,-103.1 6365.07,-102.68 6367.11,-109.37"/>
</g>
<!-- Node4&#45;&gt;Node3 -->
<g id="edge4" class="edge">
<title>Node4&#45;&gt;Node3</title>
<path fill="none" stroke="midnightblue" d="M201.14,-72.86C191.61,-61.65 174.77,-41.87 162.71,-27.69"/>
<polygon fill="midnightblue" stroke="midnightblue" points="165.06,-25.06 155.92,-19.72 159.73,-29.6 165.06,-25.06"/>
</g>
</g>
</svg>
