<?xml version="1.0" encoding="UTF-8" standalone="no"?>
<!DOCTYPE svg PUBLIC "-//W3C//DTD SVG 1.1//EN"
 "http://www.w3.org/Graphics/SVG/1.1/DTD/svg11.dtd">
<!-- Generated by graphviz version 2.47.0 (20210316.2052)
 -->
<!-- Title: libs/JSystem/JAudio2/JASProbe.cpp Pages: 1 -->
<svg width="963pt" height="173pt"
 viewBox="0.00 0.00 963.00 173.00" xmlns="http://www.w3.org/2000/svg" xmlns:xlink="http://www.w3.org/1999/xlink">
<g id="graph0" class="graph" transform="scale(1 1) rotate(0) translate(4 169)">
<title>libs/JSystem/JAudio2/JASProbe.cpp</title>
<polygon fill="white" stroke="transparent" points="-4,4 -4,-169 959,-169 959,4 -4,4"/>
<!-- Node1 -->
<g id="node1" class="node">
<title>Node1</title>
<g id="a_node1"><a xlink:title=" ">
<polygon fill="#bfbfbf" stroke="black" points="301,-134.5 301,-164.5 412,-164.5 412,-134.5 301,-134.5"/>
<text text-anchor="start" x="309" y="-152.5" font-family="Helvetica,sans-Serif" font-size="10.00">libs/JSystem/JAudio2</text>
<text text-anchor="middle" x="356.5" y="-141.5" font-family="Helvetica,sans-Serif" font-size="10.00">/JASProbe.cpp</text>
</a>
</g>
</g>
<!-- Node2 -->
<g id="node2" class="node">
<title>Node2</title>
<g id="a_node2"><a xlink:href="dol2asm_8h.html" target="_top" xlink:title=" ">
<polygon fill="white" stroke="black" points="0,-67.5 0,-86.5 61,-86.5 61,-67.5 0,-67.5"/>
<text text-anchor="middle" x="30.5" y="-74.5" font-family="Helvetica,sans-Serif" font-size="10.00">dol2asm.h</text>
</a>
</g>
</g>
<!-- Node1&#45;&gt;Node2 -->
<g id="edge1" class="edge">
<title>Node1&#45;&gt;Node2</title>
<path fill="none" stroke="midnightblue" d="M300.91,-142.51C243.54,-135.41 151.9,-121.47 75.5,-98 69.17,-96.06 62.55,-93.46 56.4,-90.78"/>
<polygon fill="midnightblue" stroke="midnightblue" points="57.77,-87.56 47.22,-86.59 54.87,-93.93 57.77,-87.56"/>
</g>
<!-- Node3 -->
<g id="node3" class="node">
<title>Node3</title>
<g id="a_node3"><a xlink:href="types_8h.html" target="_top" xlink:title=" ">
<polygon fill="white" stroke="black" points="100,-0.5 100,-19.5 181,-19.5 181,-0.5 100,-0.5"/>
<text text-anchor="middle" x="140.5" y="-7.5" font-family="Helvetica,sans-Serif" font-size="10.00">dolphin/types.h</text>
</a>
</g>
</g>
<!-- Node1&#45;&gt;Node3 -->
<g id="edge2" class="edge">
<title>Node1&#45;&gt;Node3</title>
<path fill="none" stroke="midnightblue" d="M300.78,-145.14C235.24,-139.89 132.3,-127.14 108.5,-98 91.37,-77.03 110.58,-46.05 125.76,-27.27"/>
<polygon fill="midnightblue" stroke="midnightblue" points="128.48,-29.47 132.3,-19.58 123.16,-24.93 128.48,-29.47"/>
</g>
<!-- Node4 -->
<g id="node4" class="node">
<title>Node4</title>
<g id="a_node4"><a xlink:href="JASProbe_8h.html" target="_top" xlink:title=" ">
<polygon fill="white" stroke="black" points="117.5,-67.5 117.5,-86.5 265.5,-86.5 265.5,-67.5 117.5,-67.5"/>
<text text-anchor="middle" x="191.5" y="-74.5" font-family="Helvetica,sans-Serif" font-size="10.00">JSystem/JAudio2/JASProbe.h</text>
</a>
</g>
</g>
<!-- Node1&#45;&gt;Node4 -->
<g id="edge3" class="edge">
<title>Node1&#45;&gt;Node4</title>
<path fill="none" stroke="midnightblue" d="M323.51,-134.4C293.56,-121.61 249.8,-102.91 220.99,-90.6"/>
<polygon fill="midnightblue" stroke="midnightblue" points="222.04,-87.24 211.47,-86.53 219.29,-93.68 222.04,-87.24"/>
</g>
<!-- Node5 -->
<g id="node5" class="node">
<title>Node5</title>
<g id="a_node5"><a xlink:title=" ">
<polygon fill="white" stroke="#bfbfbf" points="283.5,-56.5 283.5,-97.5 429.5,-97.5 429.5,-56.5 283.5,-56.5"/>
<text text-anchor="start" x="291.5" y="-85.5" font-family="Helvetica,sans-Serif" font-size="10.00">asm/JSystem/JAudio2</text>
<text text-anchor="start" x="291.5" y="-74.5" font-family="Helvetica,sans-Serif" font-size="10.00">/JASProbe/start__8JASProbe</text>
<text text-anchor="middle" x="356.5" y="-63.5" font-family="Helvetica,sans-Serif" font-size="10.00">FPCc.s</text>
</a>
</g>
</g>
<!-- Node1&#45;&gt;Node5 -->
<g id="edge5" class="edge">
<title>Node1&#45;&gt;Node5</title>
<path fill="none" stroke="midnightblue" d="M356.5,-134.23C356.5,-126.57 356.5,-116.84 356.5,-107.63"/>
<polygon fill="midnightblue" stroke="midnightblue" points="360,-107.59 356.5,-97.59 353,-107.59 360,-107.59"/>
</g>
<!-- Node6 -->
<g id="node6" class="node">
<title>Node6</title>
<g id="a_node6"><a xlink:title=" ">
<polygon fill="white" stroke="#bfbfbf" points="447.5,-62 447.5,-92 611.5,-92 611.5,-62 447.5,-62"/>
<text text-anchor="start" x="455.5" y="-80" font-family="Helvetica,sans-Serif" font-size="10.00">asm/JSystem/JAudio2</text>
<text text-anchor="middle" x="529.5" y="-69" font-family="Helvetica,sans-Serif" font-size="10.00">/JASProbe/stop__8JASProbeFv.s</text>
</a>
</g>
</g>
<!-- Node1&#45;&gt;Node6 -->
<g id="edge6" class="edge">
<title>Node1&#45;&gt;Node6</title>
<path fill="none" stroke="midnightblue" d="M391.09,-134.4C418.2,-123.36 456.1,-107.91 485.39,-95.97"/>
<polygon fill="midnightblue" stroke="midnightblue" points="487.03,-99.09 494.97,-92.07 484.39,-92.61 487.03,-99.09"/>
</g>
<!-- Node7 -->
<g id="node7" class="node">
<title>Node7</title>
<g id="a_node7"><a xlink:title=" ">
<polygon fill="white" stroke="#bfbfbf" points="629.5,-56.5 629.5,-97.5 775.5,-97.5 775.5,-56.5 629.5,-56.5"/>
<text text-anchor="start" x="637.5" y="-85.5" font-family="Helvetica,sans-Serif" font-size="10.00">asm/JSystem/JAudio2</text>
<text text-anchor="start" x="637.5" y="-74.5" font-family="Helvetica,sans-Serif" font-size="10.00">/JASProbe/start__8JASProbe</text>
<text text-anchor="middle" x="702.5" y="-63.5" font-family="Helvetica,sans-Serif" font-size="10.00">FlPCc.s</text>
</a>
</g>
</g>
<!-- Node1&#45;&gt;Node7 -->
<g id="edge7" class="edge">
<title>Node1&#45;&gt;Node7</title>
<path fill="none" stroke="midnightblue" d="M412.03,-138.71C463.38,-129.48 542.02,-114.85 619.32,-98.21"/>
<polygon fill="midnightblue" stroke="midnightblue" points="620.19,-101.6 629.22,-96.07 618.71,-94.76 620.19,-101.6"/>
</g>
<!-- Node8 -->
<g id="node8" class="node">
<title>Node8</title>
<g id="a_node8"><a xlink:title=" ">
<polygon fill="white" stroke="#bfbfbf" points="794,-62 794,-92 955,-92 955,-62 794,-62"/>
<text text-anchor="start" x="802" y="-80" font-family="Helvetica,sans-Serif" font-size="10.00">asm/JSystem/JAudio2</text>
<text text-anchor="middle" x="874.5" y="-69" font-family="Helvetica,sans-Serif" font-size="10.00">/JASProbe/stop__8JASProbeFl.s</text>
</a>
</g>
</g>
<!-- Node1&#45;&gt;Node8 -->
<g id="edge8" class="edge">
<title>Node1&#45;&gt;Node8</title>
<path fill="none" stroke="midnightblue" d="M412.16,-143.75C494.06,-136.34 651.72,-120.53 784.5,-98 791.18,-96.87 798.11,-95.56 805.03,-94.17"/>
<polygon fill="midnightblue" stroke="midnightblue" points="806.04,-97.54 815.12,-92.09 804.62,-90.68 806.04,-97.54"/>
</g>
<!-- Node4&#45;&gt;Node3 -->
<g id="edge4" class="edge">
<title>Node4&#45;&gt;Node3</title>
<path fill="none" stroke="midnightblue" d="M184.62,-67.23C176.67,-57.1 163.4,-40.19 153.49,-27.56"/>
<polygon fill="midnightblue" stroke="midnightblue" points="156.2,-25.33 147.27,-19.63 150.69,-29.66 156.2,-25.33"/>
</g>
</g>
</svg>
