<?xml version="1.0" encoding="UTF-8" standalone="no"?>
<!DOCTYPE svg PUBLIC "-//W3C//DTD SVG 1.1//EN"
 "http://www.w3.org/Graphics/SVG/1.1/DTD/svg11.dtd">
<!-- Generated by graphviz version 2.47.0 (20210316.2052)
 -->
<!-- Title: libs/JSystem/JAudio2/JASVoiceBank.cpp Pages: 1 -->
<svg width="742pt" height="184pt"
 viewBox="0.00 0.00 742.00 184.00" xmlns="http://www.w3.org/2000/svg" xmlns:xlink="http://www.w3.org/1999/xlink">
<g id="graph0" class="graph" transform="scale(1 1) rotate(0) translate(4 180)">
<title>libs/JSystem/JAudio2/JASVoiceBank.cpp</title>
<polygon fill="white" stroke="transparent" points="-4,4 -4,-180 738,-180 738,4 -4,4"/>
<!-- Node1 -->
<g id="node1" class="node">
<title>Node1</title>
<g id="a_node1"><a xlink:title=" ">
<polygon fill="#bfbfbf" stroke="black" points="220,-145.5 220,-175.5 331,-175.5 331,-145.5 220,-145.5"/>
<text text-anchor="start" x="228" y="-163.5" font-family="Helvetica,sans-Serif" font-size="10.00">libs/JSystem/JAudio2</text>
<text text-anchor="middle" x="275.5" y="-152.5" font-family="Helvetica,sans-Serif" font-size="10.00">/JASVoiceBank.cpp</text>
</a>
</g>
</g>
<!-- Node2 -->
<g id="node2" class="node">
<title>Node2</title>
<g id="a_node2"><a xlink:href="dol2asm_8h.html" target="_top" xlink:title=" ">
<polygon fill="white" stroke="black" points="0,-73 0,-92 61,-92 61,-73 0,-73"/>
<text text-anchor="middle" x="30.5" y="-80" font-family="Helvetica,sans-Serif" font-size="10.00">dol2asm.h</text>
</a>
</g>
</g>
<!-- Node1&#45;&gt;Node2 -->
<g id="edge1" class="edge">
<title>Node1&#45;&gt;Node2</title>
<path fill="none" stroke="midnightblue" d="M219.92,-149.64C179.07,-141.4 122.7,-127.93 75.5,-109 67.71,-105.87 59.6,-101.63 52.46,-97.5"/>
<polygon fill="midnightblue" stroke="midnightblue" points="53.79,-94.22 43.42,-92.06 50.18,-100.22 53.79,-94.22"/>
</g>
<!-- Node3 -->
<g id="node3" class="node">
<title>Node3</title>
<g id="a_node3"><a xlink:href="types_8h.html" target="_top" xlink:title=" ">
<polygon fill="white" stroke="black" points="98,-0.5 98,-19.5 179,-19.5 179,-0.5 98,-0.5"/>
<text text-anchor="middle" x="138.5" y="-7.5" font-family="Helvetica,sans-Serif" font-size="10.00">dolphin/types.h</text>
</a>
</g>
</g>
<!-- Node1&#45;&gt;Node3 -->
<g id="edge2" class="edge">
<title>Node1&#45;&gt;Node3</title>
<path fill="none" stroke="midnightblue" d="M219.68,-158.8C181.69,-155.05 133.87,-143.17 108.5,-109 90.3,-84.48 109.98,-48.8 124.93,-27.94"/>
<polygon fill="midnightblue" stroke="midnightblue" points="127.9,-29.82 131.12,-19.73 122.31,-25.61 127.9,-29.82"/>
</g>
<!-- Node4 -->
<g id="node4" class="node">
<title>Node4</title>
<g id="a_node4"><a xlink:href="JASVoiceBank_8h.html" target="_top" xlink:title=" ">
<polygon fill="white" stroke="black" points="117.5,-67.5 117.5,-97.5 257.5,-97.5 257.5,-67.5 117.5,-67.5"/>
<text text-anchor="start" x="125.5" y="-85.5" font-family="Helvetica,sans-Serif" font-size="10.00">JSystem/JAudio2/JASVoice</text>
<text text-anchor="middle" x="187.5" y="-74.5" font-family="Helvetica,sans-Serif" font-size="10.00">Bank.h</text>
</a>
</g>
</g>
<!-- Node1&#45;&gt;Node4 -->
<g id="edge3" class="edge">
<title>Node1&#45;&gt;Node4</title>
<path fill="none" stroke="midnightblue" d="M258.95,-145.2C245.67,-133.74 226.85,-117.48 211.85,-104.53"/>
<polygon fill="midnightblue" stroke="midnightblue" points="213.83,-101.62 203.98,-97.73 209.26,-106.92 213.83,-101.62"/>
</g>
<!-- Node5 -->
<g id="node5" class="node">
<title>Node5</title>
<g id="a_node5"><a xlink:title=" ">
<polygon fill="white" stroke="#bfbfbf" points="275.5,-56.5 275.5,-108.5 451.5,-108.5 451.5,-56.5 275.5,-56.5"/>
<text text-anchor="start" x="283.5" y="-96.5" font-family="Helvetica,sans-Serif" font-size="10.00">asm/JSystem/JAudio2</text>
<text text-anchor="start" x="283.5" y="-85.5" font-family="Helvetica,sans-Serif" font-size="10.00">/JASVoiceBank/getInstParam</text>
<text text-anchor="start" x="283.5" y="-74.5" font-family="Helvetica,sans-Serif" font-size="10.00">__12JASVoiceBankCFiiiP12JASInst</text>
<text text-anchor="middle" x="363.5" y="-63.5" font-family="Helvetica,sans-Serif" font-size="10.00">Param.s</text>
</a>
</g>
</g>
<!-- Node1&#45;&gt;Node5 -->
<g id="edge5" class="edge">
<title>Node1&#45;&gt;Node5</title>
<path fill="none" stroke="midnightblue" d="M292.05,-145.2C301.85,-136.74 314.68,-125.66 326.76,-115.23"/>
<polygon fill="midnightblue" stroke="midnightblue" points="329.27,-117.69 334.55,-108.5 324.69,-112.39 329.27,-117.69"/>
</g>
<!-- Node6 -->
<g id="node6" class="node">
<title>Node6</title>
<g id="a_node6"><a xlink:title=" ">
<polygon fill="white" stroke="#bfbfbf" points="470,-62 470,-103 587,-103 587,-62 470,-62"/>
<text text-anchor="start" x="478" y="-91" font-family="Helvetica,sans-Serif" font-size="10.00">asm/JSystem/JAudio2</text>
<text text-anchor="start" x="478" y="-80" font-family="Helvetica,sans-Serif" font-size="10.00">/JASVoiceBank/__dt_</text>
<text text-anchor="middle" x="528.5" y="-69" font-family="Helvetica,sans-Serif" font-size="10.00">_12JASVoiceBankFv.s</text>
</a>
</g>
</g>
<!-- Node1&#45;&gt;Node6 -->
<g id="edge6" class="edge">
<title>Node1&#45;&gt;Node6</title>
<path fill="none" stroke="midnightblue" d="M331.35,-145.69C368.26,-136.21 417.57,-122.87 460.5,-109 463.06,-108.17 465.66,-107.31 468.28,-106.42"/>
<polygon fill="midnightblue" stroke="midnightblue" points="469.52,-109.69 477.81,-103.09 467.21,-103.08 469.52,-109.69"/>
</g>
<!-- Node7 -->
<g id="node7" class="node">
<title>Node7</title>
<g id="a_node7"><a xlink:title=" ">
<polygon fill="white" stroke="#bfbfbf" points="605,-62 605,-103 734,-103 734,-62 605,-62"/>
<text text-anchor="start" x="613" y="-91" font-family="Helvetica,sans-Serif" font-size="10.00">asm/JSystem/JAudio2</text>
<text text-anchor="start" x="613" y="-80" font-family="Helvetica,sans-Serif" font-size="10.00">/JASVoiceBank/getType</text>
<text text-anchor="middle" x="669.5" y="-69" font-family="Helvetica,sans-Serif" font-size="10.00">__12JASVoiceBankCFv.s</text>
</a>
</g>
</g>
<!-- Node1&#45;&gt;Node7 -->
<g id="edge7" class="edge">
<title>Node1&#45;&gt;Node7</title>
<path fill="none" stroke="midnightblue" d="M331.21,-153.82C395.71,-146.53 504.85,-132.02 596.5,-109 600.1,-108.1 603.77,-107.09 607.45,-106.02"/>
<polygon fill="midnightblue" stroke="midnightblue" points="608.67,-109.3 617.21,-103.03 606.62,-102.61 608.67,-109.3"/>
</g>
<!-- Node4&#45;&gt;Node3 -->
<g id="edge4" class="edge">
<title>Node4&#45;&gt;Node3</title>
<path fill="none" stroke="midnightblue" d="M177.58,-67.23C169.74,-55.95 158.76,-40.15 150.43,-28.17"/>
<polygon fill="midnightblue" stroke="midnightblue" points="153.26,-26.11 144.68,-19.89 147.51,-30.1 153.26,-26.11"/>
</g>
</g>
</svg>
