<?xml version="1.0" encoding="UTF-8" standalone="no"?>
<!DOCTYPE svg PUBLIC "-//W3C//DTD SVG 1.1//EN"
 "http://www.w3.org/Graphics/SVG/1.1/DTD/svg11.dtd">
<!-- Generated by graphviz version 2.47.0 (20210316.2052)
 -->
<!-- Title: libs/JSystem/JAudio2/JAUAudioArcLoader.cpp Pages: 1 -->
<!--zoomable 184 -->
<svg id="main" version="1.1" xmlns="http://www.w3.org/2000/svg" xmlns:xlink="http://www.w3.org/1999/xlink" xml:space="preserve" onload="init(evt)">
<style type="text/css"><![CDATA[
.edge:hover path { stroke: red; }
.edge:hover polygon { stroke: red; fill: red; }
]]></style>
<script type="text/javascript"><![CDATA[
var edges = document.getElementsByTagName('g');
if (edges && edges.length) {
  for (var i=0;i<edges.length;i++) {
    if (edges[i].id.substr(0,4)=='edge') {
      edges[i].setAttribute('class','edge');
    }
  }
}
]]></script>
        <defs>
                <circle id="rim" cx="0" cy="0" r="7"/>
                <circle id="rim2" cx="0" cy="0" r="3.5"/>
                <g id="zoomPlus">
                        <use xlink:href="#rim" fill="#404040">
                                <set attributeName="fill" to="#808080" begin="zoomplus.mouseover" end="zoomplus.mouseout"/>
                        </use>
                        <path d="M-4,0h8M0,-4v8" fill="none" stroke="white" stroke-width="1.5" pointer-events="none"/>
                </g>
                <g id="zoomMin">
                        <use xlink:href="#rim" fill="#404040">
                                <set attributeName="fill" to="#808080" begin="zoomminus.mouseover" end="zoomminus.mouseout"/>
                        </use>
                        <path d="M-4,0h8" fill="none" stroke="white" stroke-width="1.5" pointer-events="none"/>
                </g>
                <g id="dirArrow">
                        <path fill="none" stroke="white" stroke-width="1.5" d="M0,-3.0v7 M-2.5,-0.5L0,-3.0L2.5,-0.5"/>
                </g>
               <g id="resetDef">
                       <use xlink:href="#rim2" fill="#404040">
                               <set attributeName="fill" to="#808080" begin="reset.mouseover" end="reset.mouseout"/>
                       </use>
               </g>
        </defs>

<script type="text/javascript">
var viewWidth = 3338;
var viewHeight = 184;
var sectionId = 'dynsection-0';
</script>
<script xlink:href="svgpan.js"/>
<svg id="graph" class="graph">
<g id="viewport">
<title>libs/JSystem/JAudio2/JAUAudioArcLoader.cpp</title>
<polygon fill="white" stroke="transparent" points="-4,4 -4,-180 3333.5,-180 3333.5,4 -4,4"/>
<!-- Node1 -->
<g id="node1" class="node">
<title>Node1</title>
<g id="a_node1"><a xlink:title=" ">
<polygon fill="#bfbfbf" stroke="black" points="1419,-145.5 1419,-175.5 1546,-175.5 1546,-145.5 1419,-145.5"/>
<text text-anchor="start" x="1427" y="-163.5" font-family="Helvetica,sans-Serif" font-size="10.00">libs/JSystem/JAudio2</text>
<text text-anchor="middle" x="1482.5" y="-152.5" font-family="Helvetica,sans-Serif" font-size="10.00">/JAUAudioArcLoader.cpp</text>
</a>
</g>
</g>
<!-- Node2 -->
<g id="node2" class="node">
<title>Node2</title>
<g id="a_node2"><a xlink:href="dol2asm_8h.html" target="_top" xlink:title=" ">
<polygon fill="white" stroke="black" points="0,-73 0,-92 61,-92 61,-73 0,-73"/>
<text text-anchor="middle" x="30.5" y="-80" font-family="Helvetica,sans-Serif" font-size="10.00">dol2asm.h</text>
</a>
</g>
</g>
<!-- Node1&#45;&gt;Node2 -->
<g id="edge1" class="edge">
<title>Node1&#45;&gt;Node2</title>
<path fill="none" stroke="midnightblue" d="M1418.95,-159C1161.77,-156.71 205.59,-145.81 75.5,-109 66.87,-106.56 58.13,-102.14 50.67,-97.66"/>
<polygon fill="midnightblue" stroke="midnightblue" points="52.33,-94.57 42.02,-92.1 48.54,-100.45 52.33,-94.57"/>
</g>
<!-- Node3 -->
<g id="node3" class="node">
<title>Node3</title>
<g id="a_node3"><a xlink:href="types_8h.html" target="_top" xlink:title=" ">
<polygon fill="white" stroke="black" points="98,-0.5 98,-19.5 179,-19.5 179,-0.5 98,-0.5"/>
<text text-anchor="middle" x="138.5" y="-7.5" font-family="Helvetica,sans-Serif" font-size="10.00">dolphin/types.h</text>
</a>
</g>
</g>
<!-- Node1&#45;&gt;Node3 -->
<g id="edge2" class="edge">
<title>Node1&#45;&gt;Node3</title>
<path fill="none" stroke="midnightblue" d="M1418.66,-159.59C1153.98,-159.64 154.47,-156.69 108.5,-109 86.9,-86.59 108.82,-49.06 124.87,-27.53"/>
<polygon fill="midnightblue" stroke="midnightblue" points="127.65,-29.66 131.05,-19.62 122.13,-25.35 127.65,-29.66"/>
</g>
<!-- Node4 -->
<g id="node4" class="node">
<title>Node4</title>
<g id="a_node4"><a xlink:href="JAUAudioArcLoader_8h.html" target="_top" xlink:title=" ">
<polygon fill="white" stroke="black" points="117.5,-67.5 117.5,-97.5 257.5,-97.5 257.5,-67.5 117.5,-67.5"/>
<text text-anchor="start" x="125.5" y="-85.5" font-family="Helvetica,sans-Serif" font-size="10.00">JSystem/JAudio2/JAUAudio</text>
<text text-anchor="middle" x="187.5" y="-74.5" font-family="Helvetica,sans-Serif" font-size="10.00">ArcLoader.h</text>
</a>
</g>
</g>
<!-- Node1&#45;&gt;Node4 -->
<g id="edge3" class="edge">
<title>Node1&#45;&gt;Node4</title>
<path fill="none" stroke="midnightblue" d="M1418.85,-159.09C1201.82,-157.35 491.89,-148.69 267.5,-109 256.51,-107.06 244.94,-103.99 234.11,-100.66"/>
<polygon fill="midnightblue" stroke="midnightblue" points="235.02,-97.27 224.42,-97.54 232.87,-103.93 235.02,-97.27"/>
</g>
<!-- Node5 -->
<g id="node5" class="node">
<title>Node5</title>
<g id="a_node5"><a xlink:title=" ">
<polygon fill="white" stroke="#bfbfbf" points="276,-56.5 276,-108.5 445,-108.5 445,-56.5 276,-56.5"/>
<text text-anchor="start" x="284" y="-96.5" font-family="Helvetica,sans-Serif" font-size="10.00">asm/JSystem/JAudio2</text>
<text text-anchor="start" x="284" y="-85.5" font-family="Helvetica,sans-Serif" font-size="10.00">/JAUAudioArcLoader/</text>
<text text-anchor="start" x="284" y="-74.5" font-family="Helvetica,sans-Serif" font-size="10.00">__ct__17JAUAudioArcLoaderFP10</text>
<text text-anchor="middle" x="360.5" y="-63.5" font-family="Helvetica,sans-Serif" font-size="10.00">JAUSection.s</text>
</a>
</g>
</g>
<!-- Node1&#45;&gt;Node5 -->
<g id="edge5" class="edge">
<title>Node1&#45;&gt;Node5</title>
<path fill="none" stroke="midnightblue" d="M1418.76,-158.17C1227.71,-153.9 660.93,-139.13 455.23,-108.9"/>
<polygon fill="midnightblue" stroke="midnightblue" points="455.53,-105.41 445.12,-107.36 454.48,-112.33 455.53,-105.41"/>
</g>
<!-- Node6 -->
<g id="node6" class="node">
<title>Node6</title>
<g id="a_node6"><a xlink:title=" ">
<polygon fill="white" stroke="#bfbfbf" points="463,-62 463,-103 622,-103 622,-62 463,-62"/>
<text text-anchor="start" x="471" y="-91" font-family="Helvetica,sans-Serif" font-size="10.00">asm/JSystem/JAudio2</text>
<text text-anchor="start" x="471" y="-80" font-family="Helvetica,sans-Serif" font-size="10.00">/JAUAudioArcLoader/load</text>
<text text-anchor="middle" x="542.5" y="-69" font-family="Helvetica,sans-Serif" font-size="10.00">__17JAUAudioArcLoaderFPCv.s</text>
</a>
</g>
</g>
<!-- Node1&#45;&gt;Node6 -->
<g id="edge6" class="edge">
<title>Node1&#45;&gt;Node6</title>
<path fill="none" stroke="midnightblue" d="M1418.74,-157.53C1247.95,-151.97 782.86,-134.85 631.5,-109 625.82,-108.03 619.98,-106.83 614.14,-105.48"/>
<polygon fill="midnightblue" stroke="midnightblue" points="614.89,-102.06 604.34,-103.1 613.23,-108.87 614.89,-102.06"/>
</g>
<!-- Node7 -->
<g id="node7" class="node">
<title>Node7</title>
<g id="a_node7"><a xlink:title=" ">
<polygon fill="white" stroke="#bfbfbf" points="640,-62 640,-103 819,-103 819,-62 640,-62"/>
<text text-anchor="start" x="648" y="-91" font-family="Helvetica,sans-Serif" font-size="10.00">asm/JSystem/JAudio2</text>
<text text-anchor="start" x="648" y="-80" font-family="Helvetica,sans-Serif" font-size="10.00">/JAUAudioArcLoader/readWS</text>
<text text-anchor="middle" x="729.5" y="-69" font-family="Helvetica,sans-Serif" font-size="10.00">__17JAUAudioArcLoaderFUlPCvUl.s</text>
</a>
</g>
</g>
<!-- Node1&#45;&gt;Node7 -->
<g id="edge7" class="edge">
<title>Node1&#45;&gt;Node7</title>
<path fill="none" stroke="midnightblue" d="M1418.92,-158.28C1301.51,-155.21 1043.07,-144.64 828.5,-109 822.18,-107.95 815.67,-106.69 809.16,-105.3"/>
<polygon fill="midnightblue" stroke="midnightblue" points="809.47,-101.78 798.95,-103.02 807.94,-108.61 809.47,-101.78"/>
</g>
<!-- Node8 -->
<g id="node8" class="node">
<title>Node8</title>
<g id="a_node8"><a xlink:title=" ">
<polygon fill="white" stroke="#bfbfbf" points="837,-62 837,-103 1006,-103 1006,-62 837,-62"/>
<text text-anchor="start" x="845" y="-91" font-family="Helvetica,sans-Serif" font-size="10.00">asm/JSystem/JAudio2</text>
<text text-anchor="start" x="845" y="-80" font-family="Helvetica,sans-Serif" font-size="10.00">/JAUAudioArcLoader/readBNK</text>
<text text-anchor="middle" x="921.5" y="-69" font-family="Helvetica,sans-Serif" font-size="10.00">__17JAUAudioArcLoaderFUlPCv.s</text>
</a>
</g>
</g>
<!-- Node1&#45;&gt;Node8 -->
<g id="edge8" class="edge">
<title>Node1&#45;&gt;Node8</title>
<path fill="none" stroke="midnightblue" d="M1418.97,-155.81C1328.68,-149.84 1158.35,-135.93 1015.5,-109 1009.86,-107.94 1004.06,-106.71 998.24,-105.37"/>
<polygon fill="midnightblue" stroke="midnightblue" points="999.01,-101.96 988.47,-103.04 997.38,-108.77 999.01,-101.96"/>
</g>
<!-- Node9 -->
<g id="node9" class="node">
<title>Node9</title>
<g id="a_node9"><a xlink:title=" ">
<polygon fill="white" stroke="#bfbfbf" points="1024,-62 1024,-103 1193,-103 1193,-62 1024,-62"/>
<text text-anchor="start" x="1032" y="-91" font-family="Helvetica,sans-Serif" font-size="10.00">asm/JSystem/JAudio2</text>
<text text-anchor="start" x="1032" y="-80" font-family="Helvetica,sans-Serif" font-size="10.00">/JAUAudioArcLoader/readBSC</text>
<text text-anchor="middle" x="1108.5" y="-69" font-family="Helvetica,sans-Serif" font-size="10.00">__17JAUAudioArcLoaderFPCvUl.s</text>
</a>
</g>
</g>
<!-- Node1&#45;&gt;Node9 -->
<g id="edge9" class="edge">
<title>Node1&#45;&gt;Node9</title>
<path fill="none" stroke="midnightblue" d="M1418.8,-149.62C1361.84,-140.41 1276.23,-125.62 1202.5,-109 1197.75,-107.93 1192.88,-106.78 1187.97,-105.57"/>
<polygon fill="midnightblue" stroke="midnightblue" points="1188.44,-102.08 1177.89,-103.05 1186.74,-108.87 1188.44,-102.08"/>
</g>
<!-- Node10 -->
<g id="node10" class="node">
<title>Node10</title>
<g id="a_node10"><a xlink:title=" ">
<polygon fill="white" stroke="#bfbfbf" points="1211,-62 1211,-103 1380,-103 1380,-62 1211,-62"/>
<text text-anchor="start" x="1219" y="-91" font-family="Helvetica,sans-Serif" font-size="10.00">asm/JSystem/JAudio2</text>
<text text-anchor="start" x="1219" y="-80" font-family="Helvetica,sans-Serif" font-size="10.00">/JAUAudioArcLoader/readBST</text>
<text text-anchor="middle" x="1295.5" y="-69" font-family="Helvetica,sans-Serif" font-size="10.00">__17JAUAudioArcLoaderFPCvUl.s</text>
</a>
</g>
</g>
<!-- Node1&#45;&gt;Node10 -->
<g id="edge10" class="edge">
<title>Node1&#45;&gt;Node10</title>
<path fill="none" stroke="midnightblue" d="M1447.76,-145.38C1421.25,-134.61 1384.13,-119.52 1353.18,-106.94"/>
<polygon fill="midnightblue" stroke="midnightblue" points="1354.38,-103.65 1343.79,-103.13 1351.74,-110.14 1354.38,-103.65"/>
</g>
<!-- Node11 -->
<g id="node11" class="node">
<title>Node11</title>
<g id="a_node11"><a xlink:title=" ">
<polygon fill="white" stroke="#bfbfbf" points="1398,-62 1398,-103 1567,-103 1567,-62 1398,-62"/>
<text text-anchor="start" x="1406" y="-91" font-family="Helvetica,sans-Serif" font-size="10.00">asm/JSystem/JAudio2</text>
<text text-anchor="start" x="1406" y="-80" font-family="Helvetica,sans-Serif" font-size="10.00">/JAUAudioArcLoader/readBSTN</text>
<text text-anchor="middle" x="1482.5" y="-69" font-family="Helvetica,sans-Serif" font-size="10.00">__17JAUAudioArcLoaderFPCvUl.s</text>
</a>
</g>
</g>
<!-- Node1&#45;&gt;Node11 -->
<g id="edge11" class="edge">
<title>Node1&#45;&gt;Node11</title>
<path fill="none" stroke="midnightblue" d="M1482.5,-145.2C1482.5,-136.21 1482.5,-124.27 1482.5,-113.29"/>
<polygon fill="midnightblue" stroke="midnightblue" points="1486,-113.18 1482.5,-103.18 1479,-113.18 1486,-113.18"/>
</g>
<!-- Node12 -->
<g id="node12" class="node">
<title>Node12</title>
<g id="a_node12"><a xlink:title=" ">
<polygon fill="white" stroke="#bfbfbf" points="1585,-62 1585,-103 1764,-103 1764,-62 1585,-62"/>
<text text-anchor="start" x="1593" y="-91" font-family="Helvetica,sans-Serif" font-size="10.00">asm/JSystem/JAudio2</text>
<text text-anchor="start" x="1593" y="-80" font-family="Helvetica,sans-Serif" font-size="10.00">/JAUAudioArcLoader/readBMS</text>
<text text-anchor="middle" x="1674.5" y="-69" font-family="Helvetica,sans-Serif" font-size="10.00">__17JAUAudioArcLoaderFUlPCvUl.s</text>
</a>
</g>
</g>
<!-- Node1&#45;&gt;Node12 -->
<g id="edge12" class="edge">
<title>Node1&#45;&gt;Node12</title>
<path fill="none" stroke="midnightblue" d="M1518.16,-145.38C1545.39,-134.61 1583.5,-119.52 1615.27,-106.94"/>
<polygon fill="midnightblue" stroke="midnightblue" points="1616.9,-110.06 1624.91,-103.13 1614.33,-103.55 1616.9,-110.06"/>
</g>
<!-- Node13 -->
<g id="node13" class="node">
<title>Node13</title>
<g id="a_node13"><a xlink:title=" ">
<polygon fill="white" stroke="#bfbfbf" points="1782.5,-62 1782.5,-103 1990.5,-103 1990.5,-62 1782.5,-62"/>
<text text-anchor="start" x="1790.5" y="-91" font-family="Helvetica,sans-Serif" font-size="10.00">asm/JSystem/JAudio2</text>
<text text-anchor="start" x="1790.5" y="-80" font-family="Helvetica,sans-Serif" font-size="10.00">/JAUAudioArcLoader/readBMS</text>
<text text-anchor="middle" x="1886.5" y="-69" font-family="Helvetica,sans-Serif" font-size="10.00">_fromArchive__17JAUAudioArcLoaderFUl.s</text>
</a>
</g>
</g>
<!-- Node1&#45;&gt;Node13 -->
<g id="edge13" class="edge">
<title>Node1&#45;&gt;Node13</title>
<path fill="none" stroke="midnightblue" d="M1546.25,-149.38C1605.32,-139.78 1695.56,-124.55 1773.5,-109 1779.58,-107.79 1785.84,-106.5 1792.14,-105.16"/>
<polygon fill="midnightblue" stroke="midnightblue" points="1793.02,-108.55 1802.06,-103.04 1791.55,-101.71 1793.02,-108.55"/>
</g>
<!-- Node14 -->
<g id="node14" class="node">
<title>Node14</title>
<g id="a_node14"><a xlink:title=" ">
<polygon fill="white" stroke="#bfbfbf" points="2008.5,-62 2008.5,-103 2190.5,-103 2190.5,-62 2008.5,-62"/>
<text text-anchor="start" x="2016.5" y="-91" font-family="Helvetica,sans-Serif" font-size="10.00">asm/JSystem/JAudio2</text>
<text text-anchor="start" x="2016.5" y="-80" font-family="Helvetica,sans-Serif" font-size="10.00">/JAUAudioArcLoader/newVoice</text>
<text text-anchor="middle" x="2099.5" y="-69" font-family="Helvetica,sans-Serif" font-size="10.00">Bank__17JAUAudioArcLoaderFUlUl.s</text>
</a>
</g>
</g>
<!-- Node1&#45;&gt;Node14 -->
<g id="edge14" class="edge">
<title>Node1&#45;&gt;Node14</title>
<path fill="none" stroke="midnightblue" d="M1546.19,-156.41C1644.2,-150.94 1837.61,-137.38 1999.5,-109 2005.7,-107.91 2012.07,-106.65 2018.47,-105.27"/>
<polygon fill="midnightblue" stroke="midnightblue" points="2019.51,-108.62 2028.5,-103.02 2017.98,-101.79 2019.51,-108.62"/>
</g>
<!-- Node15 -->
<g id="node15" class="node">
<title>Node15</title>
<g id="a_node15"><a xlink:title=" ">
<polygon fill="white" stroke="#bfbfbf" points="2208.5,-62 2208.5,-103 2400.5,-103 2400.5,-62 2208.5,-62"/>
<text text-anchor="start" x="2216.5" y="-91" font-family="Helvetica,sans-Serif" font-size="10.00">asm/JSystem/JAudio2</text>
<text text-anchor="start" x="2216.5" y="-80" font-family="Helvetica,sans-Serif" font-size="10.00">/JAUAudioArcLoader/newDynamic</text>
<text text-anchor="middle" x="2304.5" y="-69" font-family="Helvetica,sans-Serif" font-size="10.00">SeqBlock__17JAUAudioArcLoaderFUl.s</text>
</a>
</g>
</g>
<!-- Node1&#45;&gt;Node15 -->
<g id="edge15" class="edge">
<title>Node1&#45;&gt;Node15</title>
<path fill="none" stroke="midnightblue" d="M1546.2,-158.59C1671.87,-156.02 1960.29,-146.2 2199.5,-109 2206.51,-107.91 2213.74,-106.59 2220.97,-105.12"/>
<polygon fill="midnightblue" stroke="midnightblue" points="2221.75,-108.53 2230.81,-103.04 2220.3,-101.68 2221.75,-108.53"/>
</g>
<!-- Node16 -->
<g id="node16" class="node">
<title>Node16</title>
<g id="a_node16"><a xlink:title=" ">
<polygon fill="white" stroke="#bfbfbf" points="2419,-62 2419,-103 2578,-103 2578,-62 2419,-62"/>
<text text-anchor="start" x="2427" y="-91" font-family="Helvetica,sans-Serif" font-size="10.00">asm/JSystem/JAudio2</text>
<text text-anchor="start" x="2427" y="-80" font-family="Helvetica,sans-Serif" font-size="10.00">/JAUAudioArcLoader/readBSFT</text>
<text text-anchor="middle" x="2498.5" y="-69" font-family="Helvetica,sans-Serif" font-size="10.00">__17JAUAudioArcLoaderFPCv.s</text>
</a>
</g>
</g>
<!-- Node1&#45;&gt;Node16 -->
<g id="edge16" class="edge">
<title>Node1&#45;&gt;Node16</title>
<path fill="none" stroke="midnightblue" d="M1546.02,-157.9C1726.96,-153.04 2242.81,-137.05 2409.5,-109 2415.29,-108.03 2421.24,-106.81 2427.18,-105.44"/>
<polygon fill="midnightblue" stroke="midnightblue" points="2428.26,-108.78 2437.15,-103.01 2426.61,-101.98 2428.26,-108.78"/>
</g>
<!-- Node17 -->
<g id="node17" class="node">
<title>Node17</title>
<g id="a_node17"><a xlink:title=" ">
<polygon fill="white" stroke="#bfbfbf" points="2596,-62 2596,-103 2769,-103 2769,-62 2596,-62"/>
<text text-anchor="start" x="2604" y="-91" font-family="Helvetica,sans-Serif" font-size="10.00">asm/JSystem/JAudio2</text>
<text text-anchor="start" x="2604" y="-80" font-family="Helvetica,sans-Serif" font-size="10.00">/JAUAudioArcLoader/beginBNKList</text>
<text text-anchor="middle" x="2682.5" y="-69" font-family="Helvetica,sans-Serif" font-size="10.00">__17JAUAudioArcLoaderFUlUl.s</text>
</a>
</g>
</g>
<!-- Node1&#45;&gt;Node17 -->
<g id="edge17" class="edge">
<title>Node1&#45;&gt;Node17</title>
<path fill="none" stroke="midnightblue" d="M1546.29,-158.4C1750.19,-154.6 2384.68,-140.47 2587.5,-109 2594.02,-107.99 2600.73,-106.7 2607.44,-105.24"/>
<polygon fill="midnightblue" stroke="midnightblue" points="2608.26,-108.65 2617.23,-103 2606.7,-101.82 2608.26,-108.65"/>
</g>
<!-- Node18 -->
<g id="node18" class="node">
<title>Node18</title>
<g id="a_node18"><a xlink:title=" ">
<polygon fill="white" stroke="#bfbfbf" points="2787,-62 2787,-103 2952,-103 2952,-62 2787,-62"/>
<text text-anchor="start" x="2795" y="-91" font-family="Helvetica,sans-Serif" font-size="10.00">asm/JSystem/JAudio2</text>
<text text-anchor="start" x="2795" y="-80" font-family="Helvetica,sans-Serif" font-size="10.00">/JAUAudioArcLoader/endBNKList</text>
<text text-anchor="middle" x="2869.5" y="-69" font-family="Helvetica,sans-Serif" font-size="10.00">__17JAUAudioArcLoaderFv.s</text>
</a>
</g>
</g>
<!-- Node1&#45;&gt;Node18 -->
<g id="edge18" class="edge">
<title>Node1&#45;&gt;Node18</title>
<path fill="none" stroke="midnightblue" d="M1546.38,-158.99C1772.88,-156.87 2537.02,-147 2778.5,-109 2784.67,-108.03 2791.02,-106.78 2797.35,-105.37"/>
<polygon fill="midnightblue" stroke="midnightblue" points="2798.35,-108.73 2807.27,-103.01 2796.73,-101.92 2798.35,-108.73"/>
</g>
<!-- Node19 -->
<g id="node19" class="node">
<title>Node19</title>
<g id="a_node19"><a xlink:title=" ">
<polygon fill="white" stroke="#bfbfbf" points="2970,-56.5 2970,-108.5 3147,-108.5 3147,-56.5 2970,-56.5"/>
<text text-anchor="start" x="2978" y="-96.5" font-family="Helvetica,sans-Serif" font-size="10.00">asm/JSystem/JAudio2</text>
<text text-anchor="start" x="2978" y="-85.5" font-family="Helvetica,sans-Serif" font-size="10.00">/JAUAudioArcLoader/readMax</text>
<text text-anchor="start" x="2978" y="-74.5" font-family="Helvetica,sans-Serif" font-size="10.00">SeCategory__17JAUAudioArcLoader</text>
<text text-anchor="middle" x="3058.5" y="-63.5" font-family="Helvetica,sans-Serif" font-size="10.00">Fiii.s</text>
</a>
</g>
</g>
<!-- Node1&#45;&gt;Node19 -->
<g id="edge19" class="edge">
<title>Node1&#45;&gt;Node19</title>
<path fill="none" stroke="midnightblue" d="M1546.27,-159.21C1789.84,-157.83 2662.3,-150.13 2959.94,-109.06"/>
<polygon fill="midnightblue" stroke="midnightblue" points="2960.45,-112.52 2969.86,-107.65 2959.46,-105.59 2960.45,-112.52"/>
</g>
<!-- Node20 -->
<g id="node20" class="node">
<title>Node20</title>
<g id="a_node20"><a xlink:title=" ">
<polygon fill="white" stroke="#bfbfbf" points="3165.5,-62 3165.5,-103 3329.5,-103 3329.5,-62 3165.5,-62"/>
<text text-anchor="start" x="3173.5" y="-91" font-family="Helvetica,sans-Serif" font-size="10.00">asm/JSystem/JAudio2</text>
<text text-anchor="start" x="3173.5" y="-80" font-family="Helvetica,sans-Serif" font-size="10.00">/JAUAudioArcLoader/</text>
<text text-anchor="middle" x="3247.5" y="-69" font-family="Helvetica,sans-Serif" font-size="10.00">__dt__17JAUAudioArcLoaderFv.s</text>
</a>
</g>
</g>
<!-- Node1&#45;&gt;Node20 -->
<g id="edge20" class="edge">
<title>Node1&#45;&gt;Node20</title>
<path fill="none" stroke="midnightblue" d="M1546.36,-159.64C1812.88,-159.93 2837.47,-157.77 3156.5,-109 3162.67,-108.06 3169.02,-106.83 3175.36,-105.42"/>
<polygon fill="midnightblue" stroke="midnightblue" points="3176.35,-108.79 3185.28,-103.09 3174.74,-101.97 3176.35,-108.79"/>
</g>
<!-- Node4&#45;&gt;Node3 -->
<g id="edge4" class="edge">
<title>Node4&#45;&gt;Node3</title>
<path fill="none" stroke="midnightblue" d="M177.58,-67.23C169.74,-55.95 158.76,-40.15 150.43,-28.17"/>
<polygon fill="midnightblue" stroke="midnightblue" points="153.26,-26.11 144.68,-19.89 147.51,-30.1 153.26,-26.11"/>
</g>
</g>
</svg>
        <g id="navigator" transform="translate(0 0)" fill="#404254">
                <rect fill="#f2f5e9" fill-opacity="0.5" stroke="#606060" stroke-width=".5" x="0" y="0" width="60" height="60"/>
                <use id="zoomplus" xlink:href="#zoomPlus" x="17" y="9" onmousedown="handleZoom(evt,'in')"/>
                <use id="zoomminus" xlink:href="#zoomMin" x="42" y="9" onmousedown="handleZoom(evt,'out')"/>
                <use id="reset" xlink:href="#resetDef" x="30" y="36" onmousedown="handleReset()"/>
                <g id="arrowUp" xlink:href="#dirArrow" transform="translate(30 24)" onmousedown="handlePan(0,-1)">
                  <use xlink:href="#rim" fill="#404040">
                        <set attributeName="fill" to="#808080" begin="arrowUp.mouseover" end="arrowUp.mouseout"/>
                  </use>
                  <path fill="none" stroke="white" stroke-width="1.5" d="M0,-3.0v7 M-2.5,-0.5L0,-3.0L2.5,-0.5"/>
                </g>
                <g id="arrowRight" xlink:href="#dirArrow" transform="rotate(90) translate(36 -43)" onmousedown="handlePan(1,0)">
                  <use xlink:href="#rim" fill="#404040">
                        <set attributeName="fill" to="#808080" begin="arrowRight.mouseover" end="arrowRight.mouseout"/>
                  </use>
                  <path fill="none" stroke="white" stroke-width="1.5" d="M0,-3.0v7 M-2.5,-0.5L0,-3.0L2.5,-0.5"/>
                </g>
                <g id="arrowDown" xlink:href="#dirArrow" transform="rotate(180) translate(-30 -48)" onmousedown="handlePan(0,1)">
                  <use xlink:href="#rim" fill="#404040">
                        <set attributeName="fill" to="#808080" begin="arrowDown.mouseover" end="arrowDown.mouseout"/>
                  </use>
                  <path fill="none" stroke="white" stroke-width="1.5" d="M0,-3.0v7 M-2.5,-0.5L0,-3.0L2.5,-0.5"/>
                </g>
                <g id="arrowLeft" xlink:href="#dirArrow" transform="rotate(270) translate(-36 17)" onmousedown="handlePan(-1,0)">
                  <use xlink:href="#rim" fill="#404040">
                        <set attributeName="fill" to="#808080" begin="arrowLeft.mouseover" end="arrowLeft.mouseout"/>
                  </use>
                  <path fill="none" stroke="white" stroke-width="1.5" d="M0,-3.0v7 M-2.5,-0.5L0,-3.0L2.5,-0.5"/>
                </g>
        </g>
        <svg viewBox="0 0 15 15" width="100%" height="30px" preserveAspectRatio="xMaxYMin meet">
         <g id="arrow_out" transform="scale(0.3 0.3)">
          <a xlink:href="JAUAudioArcLoader_8cpp__incl_org.svg" target="_base">
           <rect id="button" ry="5" rx="5" y="6" x="6" height="38" width="38"
                fill="#f2f5e9" fill-opacity="0.5" stroke="#606060" stroke-width="1.0"/>
           <path id="arrow"
             d="M 11.500037,31.436501 C 11.940474,20.09759 22.043105,11.32322 32.158766,21.979434 L 37.068811,17.246167 C 37.068811,17.246167 37.088388,32 37.088388,32 L 22.160133,31.978069 C 22.160133,31.978069 26.997745,27.140456 26.997745,27.140456 C 18.528582,18.264221 13.291696,25.230495 11.500037,31.436501 z"
             style="fill:#404040;"/>
          </a>
         </g>
        </svg>
</svg>
