<?xml version="1.0" encoding="UTF-8" standalone="no"?>
<!DOCTYPE svg PUBLIC "-//W3C//DTD SVG 1.1//EN"
 "http://www.w3.org/Graphics/SVG/1.1/DTD/svg11.dtd">
<!-- Generated by graphviz version 2.47.0 (20210316.2052)
 -->
<!-- Title: libs/JSystem/JFramework/JFWDisplay.cpp Pages: 1 -->
<!--zoomable 184 -->
<svg id="main" version="1.1" xmlns="http://www.w3.org/2000/svg" xmlns:xlink="http://www.w3.org/1999/xlink" xml:space="preserve" onload="init(evt)">
<style type="text/css"><![CDATA[
.edge:hover path { stroke: red; }
.edge:hover polygon { stroke: red; fill: red; }
]]></style>
<script type="text/javascript"><![CDATA[
var edges = document.getElementsByTagName('g');
if (edges && edges.length) {
  for (var i=0;i<edges.length;i++) {
    if (edges[i].id.substr(0,4)=='edge') {
      edges[i].setAttribute('class','edge');
    }
  }
}
]]></script>
        <defs>
                <circle id="rim" cx="0" cy="0" r="7"/>
                <circle id="rim2" cx="0" cy="0" r="3.5"/>
                <g id="zoomPlus">
                        <use xlink:href="#rim" fill="#404040">
                                <set attributeName="fill" to="#808080" begin="zoomplus.mouseover" end="zoomplus.mouseout"/>
                        </use>
                        <path d="M-4,0h8M0,-4v8" fill="none" stroke="white" stroke-width="1.5" pointer-events="none"/>
                </g>
                <g id="zoomMin">
                        <use xlink:href="#rim" fill="#404040">
                                <set attributeName="fill" to="#808080" begin="zoomminus.mouseover" end="zoomminus.mouseout"/>
                        </use>
                        <path d="M-4,0h8" fill="none" stroke="white" stroke-width="1.5" pointer-events="none"/>
                </g>
                <g id="dirArrow">
                        <path fill="none" stroke="white" stroke-width="1.5" d="M0,-3.0v7 M-2.5,-0.5L0,-3.0L2.5,-0.5"/>
                </g>
               <g id="resetDef">
                       <use xlink:href="#rim2" fill="#404040">
                               <set attributeName="fill" to="#808080" begin="reset.mouseover" end="reset.mouseout"/>
                       </use>
               </g>
        </defs>

<script type="text/javascript">
var viewWidth = 5393;
var viewHeight = 184;
var sectionId = 'dynsection-0';
</script>
<script xlink:href="svgpan.js"/>
<svg id="graph" class="graph">
<g id="viewport">
<title>libs/JSystem/JFramework/JFWDisplay.cpp</title>
<polygon fill="white" stroke="transparent" points="-4,4 -4,-180 5389,-180 5389,4 -4,4"/>
<!-- Node1 -->
<g id="node1" class="node">
<title>Node1</title>
<g id="a_node1"><a xlink:title=" ">
<polygon fill="#bfbfbf" stroke="black" points="2549,-145.5 2549,-175.5 2679,-175.5 2679,-145.5 2549,-145.5"/>
<text text-anchor="start" x="2557" y="-163.5" font-family="Helvetica,sans-Serif" font-size="10.00">libs/JSystem/JFramework</text>
<text text-anchor="middle" x="2614" y="-152.5" font-family="Helvetica,sans-Serif" font-size="10.00">/JFWDisplay.cpp</text>
</a>
</g>
</g>
<!-- Node2 -->
<g id="node2" class="node">
<title>Node2</title>
<g id="a_node2"><a xlink:href="JFWDisplay_8h.html" target="_top" xlink:title=" ">
<polygon fill="white" stroke="black" points="0,-67.5 0,-97.5 112,-97.5 112,-67.5 0,-67.5"/>
<text text-anchor="start" x="8" y="-85.5" font-family="Helvetica,sans-Serif" font-size="10.00">JSystem/JFramework</text>
<text text-anchor="middle" x="56" y="-74.5" font-family="Helvetica,sans-Serif" font-size="10.00">/JFWDisplay.h</text>
</a>
</g>
</g>
<!-- Node1&#45;&gt;Node2 -->
<g id="edge1" class="edge">
<title>Node1&#45;&gt;Node2</title>
<path fill="none" stroke="midnightblue" d="M2548.88,-159.45C2180.93,-159.03 369.99,-154.61 126,-109 116.47,-107.22 106.52,-104.29 97.21,-101.05"/>
<polygon fill="midnightblue" stroke="midnightblue" points="98.38,-97.75 87.79,-97.58 95.97,-104.32 98.38,-97.75"/>
</g>
<!-- Node3 -->
<g id="node3" class="node">
<title>Node3</title>
<g id="a_node3"><a xlink:href="types_8h.html" target="_top" xlink:title=" ">
<polygon fill="white" stroke="black" points="57.5,-0.5 57.5,-19.5 138.5,-19.5 138.5,-0.5 57.5,-0.5"/>
<text text-anchor="middle" x="98" y="-7.5" font-family="Helvetica,sans-Serif" font-size="10.00">dolphin/types.h</text>
</a>
</g>
</g>
<!-- Node1&#45;&gt;Node3 -->
<g id="edge4" class="edge">
<title>Node1&#45;&gt;Node3</title>
<path fill="none" stroke="midnightblue" d="M2548.96,-159.01C2165.4,-156 213.54,-139.2 160,-109 144.06,-100 119.48,-54.33 106.58,-28.63"/>
<polygon fill="midnightblue" stroke="midnightblue" points="109.67,-27 102.1,-19.59 103.4,-30.1 109.67,-27"/>
</g>
<!-- Node4 -->
<g id="node4" class="node">
<title>Node4</title>
<g id="a_node4"><a xlink:href="dol2asm_8h.html" target="_top" xlink:title=" ">
<polygon fill="white" stroke="black" points="168.5,-73 168.5,-92 229.5,-92 229.5,-73 168.5,-73"/>
<text text-anchor="middle" x="199" y="-80" font-family="Helvetica,sans-Serif" font-size="10.00">dol2asm.h</text>
</a>
</g>
</g>
<!-- Node1&#45;&gt;Node4 -->
<g id="edge3" class="edge">
<title>Node1&#45;&gt;Node4</title>
<path fill="none" stroke="midnightblue" d="M2548.99,-159.11C2179.12,-156.75 352.47,-143.4 239,-109 231.48,-106.72 224.01,-102.6 217.6,-98.32"/>
<polygon fill="midnightblue" stroke="midnightblue" points="219.23,-95.18 209.07,-92.15 215.12,-100.85 219.23,-95.18"/>
</g>
<!-- Node5 -->
<g id="node5" class="node">
<title>Node5</title>
<g id="a_node5"><a xlink:title=" ">
<polygon fill="white" stroke="#bfbfbf" points="247.5,-62 247.5,-103 388.5,-103 388.5,-62 247.5,-62"/>
<text text-anchor="start" x="255.5" y="-91" font-family="Helvetica,sans-Serif" font-size="10.00">asm/JSystem/JFramework</text>
<text text-anchor="start" x="255.5" y="-80" font-family="Helvetica,sans-Serif" font-size="10.00">/JFWDisplay/ctor_subroutine</text>
<text text-anchor="middle" x="318" y="-69" font-family="Helvetica,sans-Serif" font-size="10.00">__10JFWDisplayFb.s</text>
</a>
</g>
</g>
<!-- Node1&#45;&gt;Node5 -->
<g id="edge5" class="edge">
<title>Node1&#45;&gt;Node5</title>
<path fill="none" stroke="midnightblue" d="M2548.88,-159.12C2205.7,-156.99 614.52,-145.2 398,-109 392.7,-108.11 387.26,-106.95 381.85,-105.62"/>
<polygon fill="midnightblue" stroke="midnightblue" points="382.7,-102.22 372.14,-103.04 380.91,-108.99 382.7,-102.22"/>
</g>
<!-- Node6 -->
<g id="node6" class="node">
<title>Node6</title>
<g id="a_node6"><a xlink:title=" ">
<polygon fill="white" stroke="#bfbfbf" points="406.5,-62 406.5,-103 613.5,-103 613.5,-62 406.5,-62"/>
<text text-anchor="start" x="414.5" y="-91" font-family="Helvetica,sans-Serif" font-size="10.00">asm/JSystem/JFramework</text>
<text text-anchor="start" x="414.5" y="-80" font-family="Helvetica,sans-Serif" font-size="10.00">/JFWDisplay/__ct__10JFWDisplay</text>
<text text-anchor="middle" x="510" y="-69" font-family="Helvetica,sans-Serif" font-size="10.00">FP7JKRHeapQ26JUTXfb10EXfbNumberb.s</text>
</a>
</g>
</g>
<!-- Node1&#45;&gt;Node6 -->
<g id="edge6" class="edge">
<title>Node1&#45;&gt;Node6</title>
<path fill="none" stroke="midnightblue" d="M2548.98,-159.57C2250.34,-159.62 1008.38,-156.9 623,-109 614.52,-107.95 605.74,-106.54 596.99,-104.92"/>
<polygon fill="midnightblue" stroke="midnightblue" points="597.63,-101.48 587.15,-103.02 596.3,-108.36 597.63,-101.48"/>
</g>
<!-- Node7 -->
<g id="node7" class="node">
<title>Node7</title>
<g id="a_node7"><a xlink:title=" ">
<polygon fill="white" stroke="#bfbfbf" points="631.5,-67.5 631.5,-97.5 816.5,-97.5 816.5,-67.5 631.5,-67.5"/>
<text text-anchor="start" x="639.5" y="-85.5" font-family="Helvetica,sans-Serif" font-size="10.00">asm/JSystem/JFramework</text>
<text text-anchor="middle" x="724" y="-74.5" font-family="Helvetica,sans-Serif" font-size="10.00">/JFWDisplay/__dt__10JFWDisplayFv.s</text>
</a>
</g>
</g>
<!-- Node1&#45;&gt;Node7 -->
<g id="edge7" class="edge">
<title>Node1&#45;&gt;Node7</title>
<path fill="none" stroke="midnightblue" d="M2548.69,-159.55C2268.71,-159.47 1168.64,-156.1 826,-109 811.23,-106.97 795.51,-103.64 780.94,-100.05"/>
<polygon fill="midnightblue" stroke="midnightblue" points="781.62,-96.61 771.07,-97.53 779.89,-103.39 781.62,-96.61"/>
</g>
<!-- Node8 -->
<g id="node8" class="node">
<title>Node8</title>
<g id="a_node8"><a xlink:title=" ">
<polygon fill="white" stroke="#bfbfbf" points="835,-56.5 835,-108.5 1051,-108.5 1051,-56.5 835,-56.5"/>
<text text-anchor="start" x="843" y="-96.5" font-family="Helvetica,sans-Serif" font-size="10.00">asm/JSystem/JFramework</text>
<text text-anchor="start" x="843" y="-85.5" font-family="Helvetica,sans-Serif" font-size="10.00">/JFWDisplay/createManager</text>
<text text-anchor="start" x="843" y="-74.5" font-family="Helvetica,sans-Serif" font-size="10.00">__10JFWDisplayFPC16_GXRenderMode</text>
<text text-anchor="middle" x="943" y="-63.5" font-family="Helvetica,sans-Serif" font-size="10.00">ObjP7JKRHeapQ26JUTXfb10EXfbNumberb.s</text>
</a>
</g>
</g>
<!-- Node1&#45;&gt;Node8 -->
<g id="edge8" class="edge">
<title>Node1&#45;&gt;Node8</title>
<path fill="none" stroke="midnightblue" d="M2548.85,-158.95C2295.64,-156.56 1375.89,-145.59 1061.25,-108.88"/>
<polygon fill="midnightblue" stroke="midnightblue" points="1061.56,-105.4 1051.22,-107.68 1060.73,-112.35 1061.56,-105.4"/>
</g>
<!-- Node9 -->
<g id="node9" class="node">
<title>Node9</title>
<g id="a_node9"><a xlink:title=" ">
<polygon fill="white" stroke="#bfbfbf" points="1069.5,-67.5 1069.5,-97.5 1236.5,-97.5 1236.5,-67.5 1069.5,-67.5"/>
<text text-anchor="start" x="1077.5" y="-85.5" font-family="Helvetica,sans-Serif" font-size="10.00">asm/JSystem/JFramework</text>
<text text-anchor="middle" x="1153" y="-74.5" font-family="Helvetica,sans-Serif" font-size="10.00">/JFWDisplay/callDirectDraw__Fv.s</text>
</a>
</g>
</g>
<!-- Node1&#45;&gt;Node9 -->
<g id="edge9" class="edge">
<title>Node1&#45;&gt;Node9</title>
<path fill="none" stroke="midnightblue" d="M2548.64,-159.08C2312.17,-157.26 1501.76,-148.25 1246,-109 1232.81,-106.98 1218.82,-103.74 1205.81,-100.25"/>
<polygon fill="midnightblue" stroke="midnightblue" points="1206.65,-96.85 1196.08,-97.54 1204.78,-103.59 1206.65,-96.85"/>
</g>
<!-- Node10 -->
<g id="node10" class="node">
<title>Node10</title>
<g id="a_node10"><a xlink:title=" ">
<polygon fill="white" stroke="#bfbfbf" points="1255,-62 1255,-103 1403,-103 1403,-62 1255,-62"/>
<text text-anchor="start" x="1263" y="-91" font-family="Helvetica,sans-Serif" font-size="10.00">asm/JSystem/JFramework</text>
<text text-anchor="start" x="1263" y="-80" font-family="Helvetica,sans-Serif" font-size="10.00">/JFWDisplay/prepareCopyDisp</text>
<text text-anchor="middle" x="1329" y="-69" font-family="Helvetica,sans-Serif" font-size="10.00">__10JFWDisplayFv.s</text>
</a>
</g>
</g>
<!-- Node1&#45;&gt;Node10 -->
<g id="edge10" class="edge">
<title>Node1&#45;&gt;Node10</title>
<path fill="none" stroke="midnightblue" d="M2548.85,-158.93C2331.76,-156.67 1634.3,-146.62 1413,-109 1407.55,-108.07 1401.97,-106.9 1396.38,-105.56"/>
<polygon fill="midnightblue" stroke="midnightblue" points="1396.93,-102.09 1386.38,-103.01 1395.2,-108.87 1396.93,-102.09"/>
</g>
<!-- Node11 -->
<g id="node11" class="node">
<title>Node11</title>
<g id="a_node11"><a xlink:title=" ">
<polygon fill="white" stroke="#bfbfbf" points="1421.5,-62 1421.5,-103 1560.5,-103 1560.5,-62 1421.5,-62"/>
<text text-anchor="start" x="1429.5" y="-91" font-family="Helvetica,sans-Serif" font-size="10.00">asm/JSystem/JFramework</text>
<text text-anchor="start" x="1429.5" y="-80" font-family="Helvetica,sans-Serif" font-size="10.00">/JFWDisplay/drawendXfb</text>
<text text-anchor="middle" x="1491" y="-69" font-family="Helvetica,sans-Serif" font-size="10.00">_single__10JFWDisplayFv.s</text>
</a>
</g>
</g>
<!-- Node1&#45;&gt;Node11 -->
<g id="edge11" class="edge">
<title>Node1&#45;&gt;Node11</title>
<path fill="none" stroke="midnightblue" d="M2548.85,-158.59C2351.01,-155.49 1759.23,-143.49 1570,-109 1565.2,-108.13 1560.29,-107.04 1555.38,-105.8"/>
<polygon fill="midnightblue" stroke="midnightblue" points="1555.91,-102.32 1545.34,-103.1 1554.09,-109.08 1555.91,-102.32"/>
</g>
<!-- Node12 -->
<g id="node12" class="node">
<title>Node12</title>
<g id="a_node12"><a xlink:title=" ">
<polygon fill="white" stroke="#bfbfbf" points="1579,-62 1579,-103 1721,-103 1721,-62 1579,-62"/>
<text text-anchor="start" x="1587" y="-91" font-family="Helvetica,sans-Serif" font-size="10.00">asm/JSystem/JFramework</text>
<text text-anchor="start" x="1587" y="-80" font-family="Helvetica,sans-Serif" font-size="10.00">/JFWDisplay/exchangeXfb</text>
<text text-anchor="middle" x="1650" y="-69" font-family="Helvetica,sans-Serif" font-size="10.00">_double__10JFWDisplayFv.s</text>
</a>
</g>
</g>
<!-- Node1&#45;&gt;Node12 -->
<g id="edge12" class="edge">
<title>Node1&#45;&gt;Node12</title>
<path fill="none" stroke="midnightblue" d="M2548.68,-157.9C2371.95,-153.22 1887.11,-138.05 1730,-109 1725.02,-108.08 1719.92,-106.94 1714.82,-105.66"/>
<polygon fill="midnightblue" stroke="midnightblue" points="1715.62,-102.25 1705.06,-103.03 1713.81,-109.01 1715.62,-102.25"/>
</g>
<!-- Node13 -->
<g id="node13" class="node">
<title>Node13</title>
<g id="a_node13"><a xlink:title=" ">
<polygon fill="white" stroke="#bfbfbf" points="1739,-62 1739,-103 1873,-103 1873,-62 1739,-62"/>
<text text-anchor="start" x="1747" y="-91" font-family="Helvetica,sans-Serif" font-size="10.00">asm/JSystem/JFramework</text>
<text text-anchor="start" x="1747" y="-80" font-family="Helvetica,sans-Serif" font-size="10.00">/JFWDisplay/exchangeXfb</text>
<text text-anchor="middle" x="1806" y="-69" font-family="Helvetica,sans-Serif" font-size="10.00">_triple__10JFWDisplayFv.s</text>
</a>
</g>
</g>
<!-- Node1&#45;&gt;Node13 -->
<g id="edge13" class="edge">
<title>Node1&#45;&gt;Node13</title>
<path fill="none" stroke="midnightblue" d="M2548.89,-157.13C2394.31,-151.18 2008.73,-134.2 1882,-109 1877.58,-108.12 1873.06,-107.06 1868.54,-105.87"/>
<polygon fill="midnightblue" stroke="midnightblue" points="1869.26,-102.43 1858.68,-103.09 1867.36,-109.17 1869.26,-102.43"/>
</g>
<!-- Node14 -->
<g id="node14" class="node">
<title>Node14</title>
<g id="a_node14"><a xlink:title=" ">
<polygon fill="white" stroke="#bfbfbf" points="1891,-62 1891,-103 2027,-103 2027,-62 1891,-62"/>
<text text-anchor="start" x="1899" y="-91" font-family="Helvetica,sans-Serif" font-size="10.00">asm/JSystem/JFramework</text>
<text text-anchor="start" x="1899" y="-80" font-family="Helvetica,sans-Serif" font-size="10.00">/JFWDisplay/copyXfb_triple</text>
<text text-anchor="middle" x="1959" y="-69" font-family="Helvetica,sans-Serif" font-size="10.00">__10JFWDisplayFv.s</text>
</a>
</g>
</g>
<!-- Node1&#45;&gt;Node14 -->
<g id="edge14" class="edge">
<title>Node1&#45;&gt;Node14</title>
<path fill="none" stroke="midnightblue" d="M2548.71,-158.72C2440.87,-156.34 2219.25,-146.81 2036,-109 2031.61,-108.1 2027.13,-107.02 2022.64,-105.84"/>
<polygon fill="midnightblue" stroke="midnightblue" points="2023.41,-102.42 2012.84,-103.08 2021.52,-109.16 2023.41,-102.42"/>
</g>
<!-- Node15 -->
<g id="node15" class="node">
<title>Node15</title>
<g id="a_node15"><a xlink:title=" ">
<polygon fill="white" stroke="#bfbfbf" points="2045,-67.5 2045,-97.5 2239,-97.5 2239,-67.5 2045,-67.5"/>
<text text-anchor="start" x="2053" y="-85.5" font-family="Helvetica,sans-Serif" font-size="10.00">asm/JSystem/JFramework</text>
<text text-anchor="middle" x="2142" y="-74.5" font-family="Helvetica,sans-Serif" font-size="10.00">/JFWDisplay/preGX__10JFWDisplayFv.s</text>
</a>
</g>
</g>
<!-- Node1&#45;&gt;Node15 -->
<g id="edge15" class="edge">
<title>Node1&#45;&gt;Node15</title>
<path fill="none" stroke="midnightblue" d="M2548.89,-152.49C2475.46,-144.12 2352.63,-128.75 2248,-109 2234.23,-106.4 2219.56,-103.17 2205.66,-99.9"/>
<polygon fill="midnightblue" stroke="midnightblue" points="2206.24,-96.44 2195.7,-97.51 2204.61,-103.24 2206.24,-96.44"/>
</g>
<!-- Node16 -->
<g id="node16" class="node">
<title>Node16</title>
<g id="a_node16"><a xlink:title=" ">
<polygon fill="white" stroke="#bfbfbf" points="2257,-67.5 2257,-97.5 2453,-97.5 2453,-67.5 2257,-67.5"/>
<text text-anchor="start" x="2265" y="-85.5" font-family="Helvetica,sans-Serif" font-size="10.00">asm/JSystem/JFramework</text>
<text text-anchor="middle" x="2355" y="-74.5" font-family="Helvetica,sans-Serif" font-size="10.00">/JFWDisplay/endGX__10JFWDisplayFv.s</text>
</a>
</g>
</g>
<!-- Node1&#45;&gt;Node16 -->
<g id="edge16" class="edge">
<title>Node1&#45;&gt;Node16</title>
<path fill="none" stroke="midnightblue" d="M2566.19,-145.47C2522.89,-132.77 2458.99,-114.01 2412.83,-100.47"/>
<polygon fill="midnightblue" stroke="midnightblue" points="2413.55,-97.03 2402.97,-97.57 2411.58,-103.75 2413.55,-97.03"/>
</g>
<!-- Node17 -->
<g id="node17" class="node">
<title>Node17</title>
<g id="a_node17"><a xlink:title=" ">
<polygon fill="white" stroke="#bfbfbf" points="2471,-62 2471,-103 2605,-103 2605,-62 2471,-62"/>
<text text-anchor="start" x="2479" y="-91" font-family="Helvetica,sans-Serif" font-size="10.00">asm/JSystem/JFramework</text>
<text text-anchor="start" x="2479" y="-80" font-family="Helvetica,sans-Serif" font-size="10.00">/JFWDisplay/beginRender</text>
<text text-anchor="middle" x="2538" y="-69" font-family="Helvetica,sans-Serif" font-size="10.00">__10JFWDisplayFv.s</text>
</a>
</g>
</g>
<!-- Node1&#45;&gt;Node17 -->
<g id="edge17" class="edge">
<title>Node1&#45;&gt;Node17</title>
<path fill="none" stroke="midnightblue" d="M2599.7,-145.2C2589.88,-135.38 2576.53,-122.03 2564.76,-110.26"/>
<polygon fill="midnightblue" stroke="midnightblue" points="2567.23,-107.78 2557.68,-103.18 2562.28,-112.73 2567.23,-107.78"/>
</g>
<!-- Node18 -->
<g id="node18" class="node">
<title>Node18</title>
<g id="a_node18"><a xlink:title=" ">
<polygon fill="white" stroke="#bfbfbf" points="2623,-62 2623,-103 2757,-103 2757,-62 2623,-62"/>
<text text-anchor="start" x="2631" y="-91" font-family="Helvetica,sans-Serif" font-size="10.00">asm/JSystem/JFramework</text>
<text text-anchor="start" x="2631" y="-80" font-family="Helvetica,sans-Serif" font-size="10.00">/JFWDisplay/endRender</text>
<text text-anchor="middle" x="2690" y="-69" font-family="Helvetica,sans-Serif" font-size="10.00">__10JFWDisplayFv.s</text>
</a>
</g>
</g>
<!-- Node1&#45;&gt;Node18 -->
<g id="edge18" class="edge">
<title>Node1&#45;&gt;Node18</title>
<path fill="none" stroke="midnightblue" d="M2628.3,-145.2C2638.12,-135.38 2651.47,-122.03 2663.24,-110.26"/>
<polygon fill="midnightblue" stroke="midnightblue" points="2665.72,-112.73 2670.32,-103.18 2660.77,-107.78 2665.72,-112.73"/>
</g>
<!-- Node19 -->
<g id="node19" class="node">
<title>Node19</title>
<g id="a_node19"><a xlink:title=" ">
<polygon fill="white" stroke="#bfbfbf" points="2775,-62 2775,-103 2909,-103 2909,-62 2775,-62"/>
<text text-anchor="start" x="2783" y="-91" font-family="Helvetica,sans-Serif" font-size="10.00">asm/JSystem/JFramework</text>
<text text-anchor="start" x="2783" y="-80" font-family="Helvetica,sans-Serif" font-size="10.00">/JFWDisplay/endFrame_</text>
<text text-anchor="middle" x="2842" y="-69" font-family="Helvetica,sans-Serif" font-size="10.00">_10JFWDisplayFv.s</text>
</a>
</g>
</g>
<!-- Node1&#45;&gt;Node19 -->
<g id="edge19" class="edge">
<title>Node1&#45;&gt;Node19</title>
<path fill="none" stroke="midnightblue" d="M2656.27,-145.49C2686.78,-135.38 2728.94,-121.37 2766,-109 2768.72,-108.09 2771.5,-107.16 2774.31,-106.22"/>
<polygon fill="midnightblue" stroke="midnightblue" points="2775.54,-109.5 2783.91,-103.01 2773.32,-102.86 2775.54,-109.5"/>
</g>
<!-- Node20 -->
<g id="node20" class="node">
<title>Node20</title>
<g id="a_node20"><a xlink:title=" ">
<polygon fill="white" stroke="#bfbfbf" points="2927,-62 2927,-103 3061,-103 3061,-62 2927,-62"/>
<text text-anchor="start" x="2935" y="-91" font-family="Helvetica,sans-Serif" font-size="10.00">asm/JSystem/JFramework</text>
<text text-anchor="start" x="2935" y="-80" font-family="Helvetica,sans-Serif" font-size="10.00">/JFWDisplay/waitBlanking</text>
<text text-anchor="middle" x="2994" y="-69" font-family="Helvetica,sans-Serif" font-size="10.00">__10JFWDisplayFi.s</text>
</a>
</g>
</g>
<!-- Node1&#45;&gt;Node20 -->
<g id="edge20" class="edge">
<title>Node1&#45;&gt;Node20</title>
<path fill="none" stroke="midnightblue" d="M2679.25,-151.72C2741.23,-143.61 2836.75,-129.24 2918,-109 2921.77,-108.06 2925.61,-107.03 2929.48,-105.92"/>
<polygon fill="midnightblue" stroke="midnightblue" points="2930.51,-109.27 2939.1,-103.07 2928.51,-102.56 2930.51,-109.27"/>
</g>
<!-- Node21 -->
<g id="node21" class="node">
<title>Node21</title>
<g id="a_node21"><a xlink:title=" ">
<polygon fill="white" stroke="#bfbfbf" points="3079,-62 3079,-103 3213,-103 3213,-62 3079,-62"/>
<text text-anchor="start" x="3087" y="-91" font-family="Helvetica,sans-Serif" font-size="10.00">asm/JSystem/JFramework</text>
<text text-anchor="start" x="3087" y="-80" font-family="Helvetica,sans-Serif" font-size="10.00">/JFWDisplay/waitForTick</text>
<text text-anchor="middle" x="3146" y="-69" font-family="Helvetica,sans-Serif" font-size="10.00">__FUlUs.s</text>
</a>
</g>
</g>
<!-- Node1&#45;&gt;Node21 -->
<g id="edge21" class="edge">
<title>Node1&#45;&gt;Node21</title>
<path fill="none" stroke="midnightblue" d="M2679.28,-156.65C2768.44,-151.77 2932.91,-139.23 3070,-109 3074.13,-108.09 3078.35,-107.04 3082.58,-105.89"/>
<polygon fill="midnightblue" stroke="midnightblue" points="3083.78,-109.18 3092.43,-103.05 3081.85,-102.45 3083.78,-109.18"/>
</g>
<!-- Node22 -->
<g id="node22" class="node">
<title>Node22</title>
<g id="a_node22"><a xlink:title=" ">
<polygon fill="white" stroke="#bfbfbf" points="3231,-62 3231,-103 3415,-103 3415,-62 3231,-62"/>
<text text-anchor="start" x="3239" y="-91" font-family="Helvetica,sans-Serif" font-size="10.00">asm/JSystem/JFramework</text>
<text text-anchor="start" x="3239" y="-80" font-family="Helvetica,sans-Serif" font-size="10.00">/JFWDisplay/JFWThreadAlarmHandler</text>
<text text-anchor="middle" x="3323" y="-69" font-family="Helvetica,sans-Serif" font-size="10.00">__FP7OSAlarmP9OSContext.s</text>
</a>
</g>
</g>
<!-- Node1&#45;&gt;Node22 -->
<g id="edge22" class="edge">
<title>Node1&#45;&gt;Node22</title>
<path fill="none" stroke="midnightblue" d="M2679.22,-157.6C2791.01,-153.56 3026.1,-141.64 3222,-109 3228.53,-107.91 3235.26,-106.61 3242,-105.19"/>
<polygon fill="midnightblue" stroke="midnightblue" points="3242.84,-108.58 3251.85,-103.01 3241.33,-101.75 3242.84,-108.58"/>
</g>
<!-- Node23 -->
<g id="node23" class="node">
<title>Node23</title>
<g id="a_node23"><a xlink:title=" ">
<polygon fill="white" stroke="#bfbfbf" points="3433,-62 3433,-103 3567,-103 3567,-62 3433,-62"/>
<text text-anchor="start" x="3441" y="-91" font-family="Helvetica,sans-Serif" font-size="10.00">asm/JSystem/JFramework</text>
<text text-anchor="start" x="3441" y="-80" font-family="Helvetica,sans-Serif" font-size="10.00">/JFWDisplay/threadSleep</text>
<text text-anchor="middle" x="3500" y="-69" font-family="Helvetica,sans-Serif" font-size="10.00">__10JFWDisplayFx.s</text>
</a>
</g>
</g>
<!-- Node1&#45;&gt;Node23 -->
<g id="edge23" class="edge">
<title>Node1&#45;&gt;Node23</title>
<path fill="none" stroke="midnightblue" d="M2679.23,-157.63C2845.46,-152.52 3281.83,-136.78 3424,-109 3428.62,-108.1 3433.35,-106.99 3438.08,-105.74"/>
<polygon fill="midnightblue" stroke="midnightblue" points="3439.07,-109.1 3447.74,-103.01 3437.16,-102.36 3439.07,-109.1"/>
</g>
<!-- Node24 -->
<g id="node24" class="node">
<title>Node24</title>
<g id="a_node24"><a xlink:title=" ">
<polygon fill="white" stroke="#bfbfbf" points="3585,-62 3585,-103 3719,-103 3719,-62 3585,-62"/>
<text text-anchor="start" x="3593" y="-91" font-family="Helvetica,sans-Serif" font-size="10.00">asm/JSystem/JFramework</text>
<text text-anchor="start" x="3593" y="-80" font-family="Helvetica,sans-Serif" font-size="10.00">/JFWDisplay/clearEfb_init</text>
<text text-anchor="middle" x="3652" y="-69" font-family="Helvetica,sans-Serif" font-size="10.00">__10JFWDisplayFv.s</text>
</a>
</g>
</g>
<!-- Node1&#45;&gt;Node24 -->
<g id="edge24" class="edge">
<title>Node1&#45;&gt;Node24</title>
<path fill="none" stroke="midnightblue" d="M2679.31,-158.37C2866.66,-154.78 3403.49,-141.83 3576,-109 3580.63,-108.12 3585.36,-107.03 3590.09,-105.79"/>
<polygon fill="midnightblue" stroke="midnightblue" points="3591.07,-109.15 3599.75,-103.08 3589.18,-102.41 3591.07,-109.15"/>
</g>
<!-- Node25 -->
<g id="node25" class="node">
<title>Node25</title>
<g id="a_node25"><a xlink:title=" ">
<polygon fill="white" stroke="#bfbfbf" points="3737,-62 3737,-103 3871,-103 3871,-62 3737,-62"/>
<text text-anchor="start" x="3745" y="-91" font-family="Helvetica,sans-Serif" font-size="10.00">asm/JSystem/JFramework</text>
<text text-anchor="start" x="3745" y="-80" font-family="Helvetica,sans-Serif" font-size="10.00">/JFWDisplay/clearEfb_</text>
<text text-anchor="middle" x="3804" y="-69" font-family="Helvetica,sans-Serif" font-size="10.00">_10JFWDisplayFv.s</text>
</a>
</g>
</g>
<!-- Node1&#45;&gt;Node25 -->
<g id="edge25" class="edge">
<title>Node1&#45;&gt;Node25</title>
<path fill="none" stroke="midnightblue" d="M2679.12,-158.92C2885.72,-156.71 3524.84,-146.92 3728,-109 3732.71,-108.12 3737.53,-107.02 3742.34,-105.76"/>
<polygon fill="midnightblue" stroke="midnightblue" points="3743.49,-109.08 3752.18,-103.01 3741.6,-102.34 3743.49,-109.08"/>
</g>
<!-- Node26 -->
<g id="node26" class="node">
<title>Node26</title>
<g id="a_node26"><a xlink:title=" ">
<polygon fill="white" stroke="#bfbfbf" points="3889.5,-62 3889.5,-103 4034.5,-103 4034.5,-62 3889.5,-62"/>
<text text-anchor="start" x="3897.5" y="-91" font-family="Helvetica,sans-Serif" font-size="10.00">asm/JSystem/JFramework</text>
<text text-anchor="start" x="3897.5" y="-80" font-family="Helvetica,sans-Serif" font-size="10.00">/JFWDisplay/clearEfb_</text>
<text text-anchor="middle" x="3962" y="-69" font-family="Helvetica,sans-Serif" font-size="10.00">_10JFWDisplayF8_GXColor.s</text>
</a>
</g>
</g>
<!-- Node1&#45;&gt;Node26 -->
<g id="edge26" class="edge">
<title>Node1&#45;&gt;Node26</title>
<path fill="none" stroke="midnightblue" d="M2679.14,-159.15C2903.84,-157.58 3645.62,-149.4 3880,-109 3885.33,-108.08 3890.79,-106.91 3896.24,-105.58"/>
<polygon fill="midnightblue" stroke="midnightblue" points="3897.22,-108.94 3906.01,-103.03 3895.45,-102.17 3897.22,-108.94"/>
</g>
<!-- Node27 -->
<g id="node27" class="node">
<title>Node27</title>
<g id="a_node27"><a xlink:title=" ">
<polygon fill="white" stroke="#bfbfbf" points="4053,-62 4053,-103 4207,-103 4207,-62 4053,-62"/>
<text text-anchor="start" x="4061" y="-91" font-family="Helvetica,sans-Serif" font-size="10.00">asm/JSystem/JFramework</text>
<text text-anchor="start" x="4061" y="-80" font-family="Helvetica,sans-Serif" font-size="10.00">/JFWDisplay/clearEfb_</text>
<text text-anchor="middle" x="4130" y="-69" font-family="Helvetica,sans-Serif" font-size="10.00">_10JFWDisplayFiiii8_GXColor.s</text>
</a>
</g>
</g>
<!-- Node1&#45;&gt;Node27 -->
<g id="edge27" class="edge">
<title>Node1&#45;&gt;Node27</title>
<path fill="none" stroke="midnightblue" d="M2679.4,-159.38C2922.81,-158.6 3775.99,-152.74 4044,-109 4049.71,-108.07 4055.58,-106.87 4061.43,-105.5"/>
<polygon fill="midnightblue" stroke="midnightblue" points="4062.38,-108.87 4071.24,-103.06 4060.69,-102.08 4062.38,-108.87"/>
</g>
<!-- Node28 -->
<g id="node28" class="node">
<title>Node28</title>
<g id="a_node28"><a xlink:title=" ">
<polygon fill="white" stroke="#bfbfbf" points="4225.5,-62 4225.5,-103 4394.5,-103 4394.5,-62 4225.5,-62"/>
<text text-anchor="start" x="4233.5" y="-91" font-family="Helvetica,sans-Serif" font-size="10.00">asm/JSystem/JFramework</text>
<text text-anchor="start" x="4233.5" y="-80" font-family="Helvetica,sans-Serif" font-size="10.00">/JFWDisplay/calcCombinationRatio</text>
<text text-anchor="middle" x="4310" y="-69" font-family="Helvetica,sans-Serif" font-size="10.00">__10JFWDisplayFv.s</text>
</a>
</g>
</g>
<!-- Node1&#45;&gt;Node28 -->
<g id="edge28" class="edge">
<title>Node1&#45;&gt;Node28</title>
<path fill="none" stroke="midnightblue" d="M2679.04,-159.47C2940.05,-159.05 3912.06,-154.38 4216,-109 4222.57,-108.02 4229.34,-106.74 4236.1,-105.27"/>
<polygon fill="midnightblue" stroke="midnightblue" points="4236.99,-108.66 4245.95,-103.01 4235.42,-101.84 4236.99,-108.66"/>
</g>
<!-- Node29 -->
<g id="node29" class="node">
<title>Node29</title>
<g id="a_node29"><a xlink:title=" ">
<polygon fill="white" stroke="#bfbfbf" points="4412,-67.5 4412,-97.5 4606,-97.5 4606,-67.5 4412,-67.5"/>
<text text-anchor="start" x="4420" y="-85.5" font-family="Helvetica,sans-Serif" font-size="10.00">asm/JSystem/JFramework</text>
<text text-anchor="middle" x="4509" y="-74.5" font-family="Helvetica,sans-Serif" font-size="10.00">/JFWDisplay/JFWDrawDoneAlarm__Fv.s</text>
</a>
</g>
</g>
<!-- Node1&#45;&gt;Node29 -->
<g id="edge29" class="edge">
<title>Node1&#45;&gt;Node29</title>
<path fill="none" stroke="midnightblue" d="M2679.38,-159.49C2959.64,-159.18 4060.82,-154.99 4404,-109 4419.33,-106.95 4435.67,-103.57 4450.79,-99.94"/>
<polygon fill="midnightblue" stroke="midnightblue" points="4451.66,-103.33 4460.52,-97.52 4449.98,-96.53 4451.66,-103.33"/>
</g>
<!-- Node30 -->
<g id="node30" class="node">
<title>Node30</title>
<g id="a_node30"><a xlink:title=" ">
<polygon fill="white" stroke="#bfbfbf" points="4624.5,-62 4624.5,-103 4815.5,-103 4815.5,-62 4624.5,-62"/>
<text text-anchor="start" x="4632.5" y="-91" font-family="Helvetica,sans-Serif" font-size="10.00">asm/JSystem/JFramework</text>
<text text-anchor="start" x="4632.5" y="-80" font-family="Helvetica,sans-Serif" font-size="10.00">/JFWDisplay/JFWGXAbortAlarmHandler</text>
<text text-anchor="middle" x="4720" y="-69" font-family="Helvetica,sans-Serif" font-size="10.00">__FP7OSAlarmP9OSContext.s</text>
</a>
</g>
</g>
<!-- Node1&#45;&gt;Node30 -->
<g id="edge30" class="edge">
<title>Node1&#45;&gt;Node30</title>
<path fill="none" stroke="midnightblue" d="M2679.12,-159.72C2978.89,-160.45 4227.98,-160.28 4615,-109 4622.65,-107.99 4630.55,-106.64 4638.43,-105.09"/>
<polygon fill="midnightblue" stroke="midnightblue" points="4639.28,-108.49 4648.37,-103.04 4637.87,-101.64 4639.28,-108.49"/>
</g>
<!-- Node31 -->
<g id="node31" class="node">
<title>Node31</title>
<g id="a_node31"><a xlink:title=" ">
<polygon fill="white" stroke="#bfbfbf" points="4833.5,-67.5 4833.5,-97.5 5012.5,-97.5 5012.5,-67.5 4833.5,-67.5"/>
<text text-anchor="start" x="4841.5" y="-85.5" font-family="Helvetica,sans-Serif" font-size="10.00">asm/JSystem/JFramework</text>
<text text-anchor="middle" x="4923" y="-74.5" font-family="Helvetica,sans-Serif" font-size="10.00">/JFWDisplay/diagnoseGpHang__Fv.s</text>
</a>
</g>
</g>
<!-- Node1&#45;&gt;Node31 -->
<g id="edge31" class="edge">
<title>Node1&#45;&gt;Node31</title>
<path fill="none" stroke="midnightblue" d="M2679.22,-158.91C3022.05,-155.69 4608.13,-139.27 4825,-109 4839.15,-107.02 4854.19,-103.73 4868.14,-100.16"/>
<polygon fill="midnightblue" stroke="midnightblue" points="4869.3,-103.47 4878.07,-97.52 4867.5,-96.71 4869.3,-103.47"/>
</g>
<!-- Node32 -->
<g id="node32" class="node">
<title>Node32</title>
<g id="a_node32"><a xlink:title=" ">
<polygon fill="white" stroke="#bfbfbf" points="5031,-67.5 5031,-97.5 5219,-97.5 5219,-67.5 5031,-67.5"/>
<text text-anchor="start" x="5039" y="-85.5" font-family="Helvetica,sans-Serif" font-size="10.00">asm/JSystem/JFramework</text>
<text text-anchor="middle" x="5125" y="-74.5" font-family="Helvetica,sans-Serif" font-size="10.00">/JFWDisplay/__sinit_JFWDisplay_cpp.s</text>
</a>
</g>
</g>
<!-- Node1&#45;&gt;Node32 -->
<g id="edge32" class="edge">
<title>Node1&#45;&gt;Node32</title>
<path fill="none" stroke="midnightblue" d="M2679.01,-159C3039.39,-156.1 4784.3,-140.52 5022,-109 5036.99,-107.01 5052.95,-103.68 5067.72,-100.07"/>
<polygon fill="midnightblue" stroke="midnightblue" points="5068.9,-103.38 5077.73,-97.53 5067.18,-96.59 5068.9,-103.38"/>
</g>
<!-- Node33 -->
<g id="node33" class="node">
<title>Node33</title>
<g id="a_node33"><a xlink:title=" ">
<polygon fill="white" stroke="#bfbfbf" points="5237,-67.5 5237,-97.5 5385,-97.5 5385,-67.5 5237,-67.5"/>
<text text-anchor="start" x="5245" y="-85.5" font-family="Helvetica,sans-Serif" font-size="10.00">asm/JSystem/JFramework</text>
<text text-anchor="middle" x="5311" y="-74.5" font-family="Helvetica,sans-Serif" font-size="10.00">/JFWDisplay/func_80273724.s</text>
</a>
</g>
</g>
<!-- Node1&#45;&gt;Node33 -->
<g id="edge33" class="edge">
<title>Node1&#45;&gt;Node33</title>
<path fill="none" stroke="midnightblue" d="M2679.26,-159.33C3058.41,-158.17 4969.79,-150.32 5228,-109 5239.63,-107.14 5251.89,-104.04 5263.31,-100.63"/>
<polygon fill="midnightblue" stroke="midnightblue" points="5264.59,-103.9 5273.1,-97.58 5262.51,-97.21 5264.59,-103.9"/>
</g>
<!-- Node2&#45;&gt;Node3 -->
<g id="edge2" class="edge">
<title>Node2&#45;&gt;Node3</title>
<path fill="none" stroke="midnightblue" d="M64.5,-67.23C71.16,-56.06 80.45,-40.46 87.56,-28.52"/>
<polygon fill="midnightblue" stroke="midnightblue" points="90.59,-30.28 92.7,-19.89 84.58,-26.69 90.59,-30.28"/>
</g>
</g>
</svg>
        <g id="navigator" transform="translate(0 0)" fill="#404254">
                <rect fill="#f2f5e9" fill-opacity="0.5" stroke="#606060" stroke-width=".5" x="0" y="0" width="60" height="60"/>
                <use id="zoomplus" xlink:href="#zoomPlus" x="17" y="9" onmousedown="handleZoom(evt,'in')"/>
                <use id="zoomminus" xlink:href="#zoomMin" x="42" y="9" onmousedown="handleZoom(evt,'out')"/>
                <use id="reset" xlink:href="#resetDef" x="30" y="36" onmousedown="handleReset()"/>
                <g id="arrowUp" xlink:href="#dirArrow" transform="translate(30 24)" onmousedown="handlePan(0,-1)">
                  <use xlink:href="#rim" fill="#404040">
                        <set attributeName="fill" to="#808080" begin="arrowUp.mouseover" end="arrowUp.mouseout"/>
                  </use>
                  <path fill="none" stroke="white" stroke-width="1.5" d="M0,-3.0v7 M-2.5,-0.5L0,-3.0L2.5,-0.5"/>
                </g>
                <g id="arrowRight" xlink:href="#dirArrow" transform="rotate(90) translate(36 -43)" onmousedown="handlePan(1,0)">
                  <use xlink:href="#rim" fill="#404040">
                        <set attributeName="fill" to="#808080" begin="arrowRight.mouseover" end="arrowRight.mouseout"/>
                  </use>
                  <path fill="none" stroke="white" stroke-width="1.5" d="M0,-3.0v7 M-2.5,-0.5L0,-3.0L2.5,-0.5"/>
                </g>
                <g id="arrowDown" xlink:href="#dirArrow" transform="rotate(180) translate(-30 -48)" onmousedown="handlePan(0,1)">
                  <use xlink:href="#rim" fill="#404040">
                        <set attributeName="fill" to="#808080" begin="arrowDown.mouseover" end="arrowDown.mouseout"/>
                  </use>
                  <path fill="none" stroke="white" stroke-width="1.5" d="M0,-3.0v7 M-2.5,-0.5L0,-3.0L2.5,-0.5"/>
                </g>
                <g id="arrowLeft" xlink:href="#dirArrow" transform="rotate(270) translate(-36 17)" onmousedown="handlePan(-1,0)">
                  <use xlink:href="#rim" fill="#404040">
                        <set attributeName="fill" to="#808080" begin="arrowLeft.mouseover" end="arrowLeft.mouseout"/>
                  </use>
                  <path fill="none" stroke="white" stroke-width="1.5" d="M0,-3.0v7 M-2.5,-0.5L0,-3.0L2.5,-0.5"/>
                </g>
        </g>
        <svg viewBox="0 0 15 15" width="100%" height="30px" preserveAspectRatio="xMaxYMin meet">
         <g id="arrow_out" transform="scale(0.3 0.3)">
          <a xlink:href="JFWDisplay_8cpp__incl_org.svg" target="_base">
           <rect id="button" ry="5" rx="5" y="6" x="6" height="38" width="38"
                fill="#f2f5e9" fill-opacity="0.5" stroke="#606060" stroke-width="1.0"/>
           <path id="arrow"
             d="M 11.500037,31.436501 C 11.940474,20.09759 22.043105,11.32322 32.158766,21.979434 L 37.068811,17.246167 C 37.068811,17.246167 37.088388,32 37.088388,32 L 22.160133,31.978069 C 22.160133,31.978069 26.997745,27.140456 26.997745,27.140456 C 18.528582,18.264221 13.291696,25.230495 11.500037,31.436501 z"
             style="fill:#404040;"/>
          </a>
         </g>
        </svg>
</svg>
