<?xml version="1.0" encoding="UTF-8" standalone="no"?>
<!DOCTYPE svg PUBLIC "-//W3C//DTD SVG 1.1//EN"
 "http://www.w3.org/Graphics/SVG/1.1/DTD/svg11.dtd">
<!-- Generated by graphviz version 2.47.0 (20210316.2052)
 -->
<!-- Title: libs/JSystem/JKernel/JKRAramPiece.cpp Pages: 1 -->
<svg width="2224pt" height="184pt"
 viewBox="0.00 0.00 2223.50 184.00" xmlns="http://www.w3.org/2000/svg" xmlns:xlink="http://www.w3.org/1999/xlink">
<g id="graph0" class="graph" transform="scale(1 1) rotate(0) translate(4 180)">
<title>libs/JSystem/JKernel/JKRAramPiece.cpp</title>
<polygon fill="white" stroke="transparent" points="-4,4 -4,-180 2219.5,-180 2219.5,4 -4,4"/>
<!-- Node1 -->
<g id="node1" class="node">
<title>Node1</title>
<g id="a_node1"><a xlink:title=" ">
<polygon fill="#bfbfbf" stroke="black" points="1024,-145.5 1024,-175.5 1133,-175.5 1133,-145.5 1024,-145.5"/>
<text text-anchor="start" x="1032" y="-163.5" font-family="Helvetica,sans-Serif" font-size="10.00">libs/JSystem/JKernel</text>
<text text-anchor="middle" x="1078.5" y="-152.5" font-family="Helvetica,sans-Serif" font-size="10.00">/JKRAramPiece.cpp</text>
</a>
</g>
</g>
<!-- Node2 -->
<g id="node2" class="node">
<title>Node2</title>
<g id="a_node2"><a xlink:href="dol2asm_8h.html" target="_top" xlink:title=" ">
<polygon fill="white" stroke="black" points="0,-73 0,-92 61,-92 61,-73 0,-73"/>
<text text-anchor="middle" x="30.5" y="-80" font-family="Helvetica,sans-Serif" font-size="10.00">dol2asm.h</text>
</a>
</g>
</g>
<!-- Node1&#45;&gt;Node2 -->
<g id="edge1" class="edge">
<title>Node1&#45;&gt;Node2</title>
<path fill="none" stroke="midnightblue" d="M1023.73,-160.05C841.28,-161.38 255.58,-161.35 75.5,-109 66.89,-106.5 58.15,-102.07 50.69,-97.6"/>
<polygon fill="midnightblue" stroke="midnightblue" points="52.35,-94.5 42.04,-92.05 48.57,-100.39 52.35,-94.5"/>
</g>
<!-- Node3 -->
<g id="node3" class="node">
<title>Node3</title>
<g id="a_node3"><a xlink:href="types_8h.html" target="_top" xlink:title=" ">
<polygon fill="white" stroke="black" points="105,-0.5 105,-19.5 186,-19.5 186,-0.5 105,-0.5"/>
<text text-anchor="middle" x="145.5" y="-7.5" font-family="Helvetica,sans-Serif" font-size="10.00">dolphin/types.h</text>
</a>
</g>
</g>
<!-- Node1&#45;&gt;Node3 -->
<g id="edge2" class="edge">
<title>Node1&#45;&gt;Node3</title>
<path fill="none" stroke="midnightblue" d="M1023.85,-158.71C823.64,-155.56 140.19,-142.38 108.5,-109 92.28,-91.92 100.55,-78.17 108.5,-56 112.44,-45 120.36,-34.77 127.86,-26.85"/>
<polygon fill="midnightblue" stroke="midnightblue" points="130.39,-29.27 135.06,-19.76 125.48,-24.28 130.39,-29.27"/>
</g>
<!-- Node4 -->
<g id="node4" class="node">
<title>Node4</title>
<g id="a_node4"><a xlink:href="JKRAramPiece_8h.html" target="_top" xlink:title=" ">
<polygon fill="white" stroke="black" points="117.5,-73 117.5,-92 285.5,-92 285.5,-73 117.5,-73"/>
<text text-anchor="middle" x="201.5" y="-80" font-family="Helvetica,sans-Serif" font-size="10.00">JSystem/JKernel/JKRAramPiece.h</text>
</a>
</g>
</g>
<!-- Node1&#45;&gt;Node4 -->
<g id="edge3" class="edge">
<title>Node1&#45;&gt;Node4</title>
<path fill="none" stroke="midnightblue" d="M1023.96,-159.73C895.89,-159.44 566.27,-153.99 295.5,-109 275.98,-105.76 254.66,-100.15 237.27,-95.02"/>
<polygon fill="midnightblue" stroke="midnightblue" points="238.11,-91.62 227.53,-92.07 236.08,-98.32 238.11,-91.62"/>
</g>
<!-- Node5 -->
<g id="node5" class="node">
<title>Node5</title>
<g id="a_node5"><a xlink:title=" ">
<polygon fill="white" stroke="#bfbfbf" points="304,-56.5 304,-108.5 505,-108.5 505,-56.5 304,-56.5"/>
<text text-anchor="start" x="312" y="-96.5" font-family="Helvetica,sans-Serif" font-size="10.00">asm/JSystem/JKernel</text>
<text text-anchor="start" x="312" y="-85.5" font-family="Helvetica,sans-Serif" font-size="10.00">/JKRAramPiece/prepareCommand</text>
<text text-anchor="start" x="312" y="-74.5" font-family="Helvetica,sans-Serif" font-size="10.00">__12JKRAramPieceFiUlUlUlP12JKRAram</text>
<text text-anchor="middle" x="404.5" y="-63.5" font-family="Helvetica,sans-Serif" font-size="10.00">BlockPFUl_v.s</text>
</a>
</g>
</g>
<!-- Node1&#45;&gt;Node5 -->
<g id="edge5" class="edge">
<title>Node1&#45;&gt;Node5</title>
<path fill="none" stroke="midnightblue" d="M1023.74,-157.12C924.34,-152.25 707.49,-139.11 515.11,-108.99"/>
<polygon fill="midnightblue" stroke="midnightblue" points="515.52,-105.52 505.1,-107.41 514.43,-112.43 515.52,-105.52"/>
</g>
<!-- Node6 -->
<g id="node6" class="node">
<title>Node6</title>
<g id="a_node6"><a xlink:title=" ">
<polygon fill="white" stroke="#bfbfbf" points="523,-62 523,-103 736,-103 736,-62 523,-62"/>
<text text-anchor="start" x="531" y="-91" font-family="Helvetica,sans-Serif" font-size="10.00">asm/JSystem/JKernel</text>
<text text-anchor="start" x="531" y="-80" font-family="Helvetica,sans-Serif" font-size="10.00">/JKRAramPiece/sendCommand</text>
<text text-anchor="middle" x="629.5" y="-69" font-family="Helvetica,sans-Serif" font-size="10.00">__12JKRAramPieceFP12JKRAMCommand.s</text>
</a>
</g>
</g>
<!-- Node1&#45;&gt;Node6 -->
<g id="edge6" class="edge">
<title>Node1&#45;&gt;Node6</title>
<path fill="none" stroke="midnightblue" d="M1023.81,-152.33C957.68,-143.4 843.09,-127.11 745.5,-109 738.89,-107.77 732.09,-106.45 725.25,-105.07"/>
<polygon fill="midnightblue" stroke="midnightblue" points="725.71,-101.59 715.21,-103.01 724.3,-108.44 725.71,-101.59"/>
</g>
<!-- Node7 -->
<g id="node7" class="node">
<title>Node7</title>
<g id="a_node7"><a xlink:title=" ">
<polygon fill="white" stroke="#bfbfbf" points="754,-56.5 754,-108.5 955,-108.5 955,-56.5 754,-56.5"/>
<text text-anchor="start" x="762" y="-96.5" font-family="Helvetica,sans-Serif" font-size="10.00">asm/JSystem/JKernel</text>
<text text-anchor="start" x="762" y="-85.5" font-family="Helvetica,sans-Serif" font-size="10.00">/JKRAramPiece/orderAsync</text>
<text text-anchor="start" x="762" y="-74.5" font-family="Helvetica,sans-Serif" font-size="10.00">__12JKRAramPieceFiUlUlUlP12JKRAram</text>
<text text-anchor="middle" x="854.5" y="-63.5" font-family="Helvetica,sans-Serif" font-size="10.00">BlockPFUl_v.s</text>
</a>
</g>
</g>
<!-- Node1&#45;&gt;Node7 -->
<g id="edge7" class="edge">
<title>Node1&#45;&gt;Node7</title>
<path fill="none" stroke="midnightblue" d="M1037.15,-145.47C1009.43,-136.06 971.93,-123.34 938.13,-111.87"/>
<polygon fill="midnightblue" stroke="midnightblue" points="938.83,-108.42 928.24,-108.52 936.58,-115.05 938.83,-108.42"/>
</g>
<!-- Node8 -->
<g id="node8" class="node">
<title>Node8</title>
<g id="a_node8"><a xlink:title=" ">
<polygon fill="white" stroke="#bfbfbf" points="973.5,-62 973.5,-103 1183.5,-103 1183.5,-62 973.5,-62"/>
<text text-anchor="start" x="981.5" y="-91" font-family="Helvetica,sans-Serif" font-size="10.00">asm/JSystem/JKernel</text>
<text text-anchor="start" x="981.5" y="-80" font-family="Helvetica,sans-Serif" font-size="10.00">/JKRAramPiece/sync_</text>
<text text-anchor="middle" x="1078.5" y="-69" font-family="Helvetica,sans-Serif" font-size="10.00">_12JKRAramPieceFP12JKRAMCommandi.s</text>
</a>
</g>
</g>
<!-- Node1&#45;&gt;Node8 -->
<g id="edge8" class="edge">
<title>Node1&#45;&gt;Node8</title>
<path fill="none" stroke="midnightblue" d="M1078.5,-145.2C1078.5,-136.21 1078.5,-124.27 1078.5,-113.29"/>
<polygon fill="midnightblue" stroke="midnightblue" points="1082,-113.18 1078.5,-103.18 1075,-113.18 1082,-113.18"/>
</g>
<!-- Node9 -->
<g id="node9" class="node">
<title>Node9</title>
<g id="a_node9"><a xlink:title=" ">
<polygon fill="white" stroke="#bfbfbf" points="1202,-56.5 1202,-108.5 1403,-108.5 1403,-56.5 1202,-56.5"/>
<text text-anchor="start" x="1210" y="-96.5" font-family="Helvetica,sans-Serif" font-size="10.00">asm/JSystem/JKernel</text>
<text text-anchor="start" x="1210" y="-85.5" font-family="Helvetica,sans-Serif" font-size="10.00">/JKRAramPiece/orderSync</text>
<text text-anchor="start" x="1210" y="-74.5" font-family="Helvetica,sans-Serif" font-size="10.00">__12JKRAramPieceFiUlUlUlP12JKRAram</text>
<text text-anchor="middle" x="1302.5" y="-63.5" font-family="Helvetica,sans-Serif" font-size="10.00">Block.s</text>
</a>
</g>
</g>
<!-- Node1&#45;&gt;Node9 -->
<g id="edge9" class="edge">
<title>Node1&#45;&gt;Node9</title>
<path fill="none" stroke="midnightblue" d="M1119.85,-145.47C1147.57,-136.06 1185.07,-123.34 1218.87,-111.87"/>
<polygon fill="midnightblue" stroke="midnightblue" points="1220.42,-115.05 1228.76,-108.52 1218.17,-108.42 1220.42,-115.05"/>
</g>
<!-- Node10 -->
<g id="node10" class="node">
<title>Node10</title>
<g id="a_node10"><a xlink:title=" ">
<polygon fill="white" stroke="#bfbfbf" points="1421,-62 1421,-103 1634,-103 1634,-62 1421,-62"/>
<text text-anchor="start" x="1429" y="-91" font-family="Helvetica,sans-Serif" font-size="10.00">asm/JSystem/JKernel</text>
<text text-anchor="start" x="1429" y="-80" font-family="Helvetica,sans-Serif" font-size="10.00">/JKRAramPiece/startDMA</text>
<text text-anchor="middle" x="1527.5" y="-69" font-family="Helvetica,sans-Serif" font-size="10.00">__12JKRAramPieceFP12JKRAMCommand.s</text>
</a>
</g>
</g>
<!-- Node1&#45;&gt;Node10 -->
<g id="edge10" class="edge">
<title>Node1&#45;&gt;Node10</title>
<path fill="none" stroke="midnightblue" d="M1133.07,-152.41C1199.36,-143.53 1314.49,-127.25 1412.5,-109 1419.05,-107.78 1425.8,-106.46 1432.58,-105.08"/>
<polygon fill="midnightblue" stroke="midnightblue" points="1433.45,-108.47 1442.54,-103.02 1432.04,-101.62 1433.45,-108.47"/>
</g>
<!-- Node11 -->
<g id="node11" class="node">
<title>Node11</title>
<g id="a_node11"><a xlink:title=" ">
<polygon fill="white" stroke="#bfbfbf" points="1652.5,-62 1652.5,-103 1784.5,-103 1784.5,-62 1652.5,-62"/>
<text text-anchor="start" x="1660.5" y="-91" font-family="Helvetica,sans-Serif" font-size="10.00">asm/JSystem/JKernel</text>
<text text-anchor="start" x="1660.5" y="-80" font-family="Helvetica,sans-Serif" font-size="10.00">/JKRAramPiece/doneDMA</text>
<text text-anchor="middle" x="1718.5" y="-69" font-family="Helvetica,sans-Serif" font-size="10.00">__12JKRAramPieceFUl.s</text>
</a>
</g>
</g>
<!-- Node1&#45;&gt;Node11 -->
<g id="edge11" class="edge">
<title>Node1&#45;&gt;Node11</title>
<path fill="none" stroke="midnightblue" d="M1133.29,-158.92C1234.95,-156.9 1459.23,-147.98 1643.5,-109 1647.66,-108.12 1651.91,-107.08 1656.17,-105.93"/>
<polygon fill="midnightblue" stroke="midnightblue" points="1657.44,-109.21 1666.08,-103.08 1655.51,-102.48 1657.44,-109.21"/>
</g>
<!-- Node12 -->
<g id="node12" class="node">
<title>Node12</title>
<g id="a_node12"><a xlink:title=" ">
<polygon fill="white" stroke="#bfbfbf" points="1803,-62 1803,-103 1932,-103 1932,-62 1803,-62"/>
<text text-anchor="start" x="1811" y="-91" font-family="Helvetica,sans-Serif" font-size="10.00">asm/JSystem/JKernel</text>
<text text-anchor="start" x="1811" y="-80" font-family="Helvetica,sans-Serif" font-size="10.00">/JKRAramPiece/__ct_</text>
<text text-anchor="middle" x="1867.5" y="-69" font-family="Helvetica,sans-Serif" font-size="10.00">_12JKRAMCommandFv.s</text>
</a>
</g>
</g>
<!-- Node1&#45;&gt;Node12 -->
<g id="edge12" class="edge">
<title>Node1&#45;&gt;Node12</title>
<path fill="none" stroke="midnightblue" d="M1133.19,-157.49C1277.71,-151.87 1667.3,-134.74 1793.5,-109 1797.81,-108.12 1802.21,-107.06 1806.62,-105.87"/>
<polygon fill="midnightblue" stroke="midnightblue" points="1807.59,-109.23 1816.23,-103.09 1805.65,-102.5 1807.59,-109.23"/>
</g>
<!-- Node13 -->
<g id="node13" class="node">
<title>Node13</title>
<g id="a_node13"><a xlink:title=" ">
<polygon fill="white" stroke="#bfbfbf" points="1950,-62 1950,-103 2079,-103 2079,-62 1950,-62"/>
<text text-anchor="start" x="1958" y="-91" font-family="Helvetica,sans-Serif" font-size="10.00">asm/JSystem/JKernel</text>
<text text-anchor="start" x="1958" y="-80" font-family="Helvetica,sans-Serif" font-size="10.00">/JKRAramPiece/__dt_</text>
<text text-anchor="middle" x="2014.5" y="-69" font-family="Helvetica,sans-Serif" font-size="10.00">_12JKRAMCommandFv.s</text>
</a>
</g>
</g>
<!-- Node1&#45;&gt;Node13 -->
<g id="edge13" class="edge">
<title>Node1&#45;&gt;Node13</title>
<path fill="none" stroke="midnightblue" d="M1133.26,-158.28C1297.77,-154.3 1785.77,-140.12 1941.5,-109 1945.84,-108.13 1950.27,-107.07 1954.7,-105.87"/>
<polygon fill="midnightblue" stroke="midnightblue" points="1955.73,-109.21 1964.35,-103.05 1953.77,-102.49 1955.73,-109.21"/>
</g>
<!-- Node14 -->
<g id="node14" class="node">
<title>Node14</title>
<g id="a_node14"><a xlink:title=" ">
<polygon fill="white" stroke="#bfbfbf" points="2097.5,-62 2097.5,-103 2215.5,-103 2215.5,-62 2097.5,-62"/>
<text text-anchor="start" x="2105.5" y="-91" font-family="Helvetica,sans-Serif" font-size="10.00">asm/JSystem/JKernel</text>
<text text-anchor="start" x="2105.5" y="-80" font-family="Helvetica,sans-Serif" font-size="10.00">/JKRAramPiece/__sinit</text>
<text text-anchor="middle" x="2156.5" y="-69" font-family="Helvetica,sans-Serif" font-size="10.00">_JKRAramPiece_cpp.s</text>
</a>
</g>
</g>
<!-- Node1&#45;&gt;Node14 -->
<g id="edge14" class="edge">
<title>Node1&#45;&gt;Node14</title>
<path fill="none" stroke="midnightblue" d="M1133.06,-158.98C1315.55,-156.91 1903.48,-147.35 2088.5,-109 2092.42,-108.19 2096.41,-107.19 2100.39,-106.05"/>
<polygon fill="midnightblue" stroke="midnightblue" points="2101.72,-109.3 2110.24,-103 2099.65,-102.62 2101.72,-109.3"/>
</g>
<!-- Node4&#45;&gt;Node3 -->
<g id="edge4" class="edge">
<title>Node4&#45;&gt;Node3</title>
<path fill="none" stroke="midnightblue" d="M194.63,-72.86C185.73,-61.65 170.02,-41.87 158.76,-27.69"/>
<polygon fill="midnightblue" stroke="midnightblue" points="161.38,-25.37 152.42,-19.72 155.9,-29.72 161.38,-25.37"/>
</g>
</g>
</svg>
