<?xml version="1.0" encoding="UTF-8" standalone="no"?>
<!DOCTYPE svg PUBLIC "-//W3C//DTD SVG 1.1//EN"
 "http://www.w3.org/Graphics/SVG/1.1/DTD/svg11.dtd">
<!-- Generated by graphviz version 2.47.0 (20210316.2052)
 -->
<!-- Title: libs/JSystem/JKernel/JKRAssertHeap.cpp Pages: 1 -->
<svg width="1155pt" height="173pt"
 viewBox="0.00 0.00 1155.00 173.00" xmlns="http://www.w3.org/2000/svg" xmlns:xlink="http://www.w3.org/1999/xlink">
<g id="graph0" class="graph" transform="scale(1 1) rotate(0) translate(4 169)">
<title>libs/JSystem/JKernel/JKRAssertHeap.cpp</title>
<polygon fill="white" stroke="transparent" points="-4,4 -4,-169 1151,-169 1151,4 -4,4"/>
<!-- Node1 -->
<g id="node1" class="node">
<title>Node1</title>
<g id="a_node1"><a xlink:title=" ">
<polygon fill="#bfbfbf" stroke="black" points="415,-134.5 415,-164.5 524,-164.5 524,-134.5 415,-134.5"/>
<text text-anchor="start" x="423" y="-152.5" font-family="Helvetica,sans-Serif" font-size="10.00">libs/JSystem/JKernel</text>
<text text-anchor="middle" x="469.5" y="-141.5" font-family="Helvetica,sans-Serif" font-size="10.00">/JKRAssertHeap.cpp</text>
</a>
</g>
</g>
<!-- Node2 -->
<g id="node2" class="node">
<title>Node2</title>
<g id="a_node2"><a xlink:href="dol2asm_8h.html" target="_top" xlink:title=" ">
<polygon fill="white" stroke="black" points="0,-67.5 0,-86.5 61,-86.5 61,-67.5 0,-67.5"/>
<text text-anchor="middle" x="30.5" y="-74.5" font-family="Helvetica,sans-Serif" font-size="10.00">dol2asm.h</text>
</a>
</g>
</g>
<!-- Node1&#45;&gt;Node2 -->
<g id="edge1" class="edge">
<title>Node1&#45;&gt;Node2</title>
<path fill="none" stroke="midnightblue" d="M414.98,-146.51C338.02,-142.57 193.71,-131.08 75.5,-98 69.02,-96.19 62.26,-93.6 56.02,-90.88"/>
<polygon fill="midnightblue" stroke="midnightblue" points="57.29,-87.61 46.74,-86.6 54.35,-93.96 57.29,-87.61"/>
</g>
<!-- Node3 -->
<g id="node3" class="node">
<title>Node3</title>
<g id="a_node3"><a xlink:href="types_8h.html" target="_top" xlink:title=" ">
<polygon fill="white" stroke="black" points="98,-0.5 98,-19.5 179,-19.5 179,-0.5 98,-0.5"/>
<text text-anchor="middle" x="138.5" y="-7.5" font-family="Helvetica,sans-Serif" font-size="10.00">dolphin/types.h</text>
</a>
</g>
</g>
<!-- Node1&#45;&gt;Node3 -->
<g id="edge2" class="edge">
<title>Node1&#45;&gt;Node3</title>
<path fill="none" stroke="midnightblue" d="M414.67,-149.18C323.86,-149 148.37,-142.71 109.5,-98 92,-77.88 109.81,-46.85 124.22,-27.8"/>
<polygon fill="midnightblue" stroke="midnightblue" points="127.15,-29.73 130.65,-19.74 121.68,-25.37 127.15,-29.73"/>
</g>
<!-- Node4 -->
<g id="node4" class="node">
<title>Node4</title>
<g id="a_node4"><a xlink:href="JKRAssertHeap_8h.html" target="_top" xlink:title=" ">
<polygon fill="white" stroke="black" points="118,-62 118,-92 259,-92 259,-62 118,-62"/>
<text text-anchor="start" x="126" y="-80" font-family="Helvetica,sans-Serif" font-size="10.00">JSystem/JKernel/JKRAssert</text>
<text text-anchor="middle" x="188.5" y="-69" font-family="Helvetica,sans-Serif" font-size="10.00">Heap.h</text>
</a>
</g>
</g>
<!-- Node1&#45;&gt;Node4 -->
<g id="edge3" class="edge">
<title>Node1&#45;&gt;Node4</title>
<path fill="none" stroke="midnightblue" d="M414.99,-134.82C369,-123.29 303.04,-106.74 254.15,-94.47"/>
<polygon fill="midnightblue" stroke="midnightblue" points="254.85,-91.04 244.3,-92 253.15,-97.83 254.85,-91.04"/>
</g>
<!-- Node5 -->
<g id="node5" class="node">
<title>Node5</title>
<g id="a_node5"><a xlink:title=" ">
<polygon fill="white" stroke="#bfbfbf" points="277,-56.5 277,-97.5 480,-97.5 480,-56.5 277,-56.5"/>
<text text-anchor="start" x="285" y="-85.5" font-family="Helvetica,sans-Serif" font-size="10.00">asm/JSystem/JKernel</text>
<text text-anchor="start" x="285" y="-74.5" font-family="Helvetica,sans-Serif" font-size="10.00">/JKRAssertHeap/__ct</text>
<text text-anchor="middle" x="378.5" y="-63.5" font-family="Helvetica,sans-Serif" font-size="10.00">__13JKRAssertHeapFPvUlP7JKRHeapb.s</text>
</a>
</g>
</g>
<!-- Node1&#45;&gt;Node5 -->
<g id="edge5" class="edge">
<title>Node1&#45;&gt;Node5</title>
<path fill="none" stroke="midnightblue" d="M451.08,-134.23C439.82,-125.5 425.06,-114.07 411.8,-103.8"/>
<polygon fill="midnightblue" stroke="midnightblue" points="413.83,-100.95 403.78,-97.59 409.55,-106.48 413.83,-100.95"/>
</g>
<!-- Node6 -->
<g id="node6" class="node">
<title>Node6</title>
<g id="a_node6"><a xlink:title=" ">
<polygon fill="white" stroke="#bfbfbf" points="498,-56.5 498,-97.5 625,-97.5 625,-56.5 498,-56.5"/>
<text text-anchor="start" x="506" y="-85.5" font-family="Helvetica,sans-Serif" font-size="10.00">asm/JSystem/JKernel</text>
<text text-anchor="start" x="506" y="-74.5" font-family="Helvetica,sans-Serif" font-size="10.00">/JKRAssertHeap/__dt</text>
<text text-anchor="middle" x="561.5" y="-63.5" font-family="Helvetica,sans-Serif" font-size="10.00">__13JKRAssertHeapFv.s</text>
</a>
</g>
</g>
<!-- Node1&#45;&gt;Node6 -->
<g id="edge6" class="edge">
<title>Node1&#45;&gt;Node6</title>
<path fill="none" stroke="midnightblue" d="M488.12,-134.23C499.51,-125.5 514.42,-114.07 527.83,-103.8"/>
<polygon fill="midnightblue" stroke="midnightblue" points="530.13,-106.45 535.94,-97.59 525.87,-100.89 530.13,-106.45"/>
</g>
<!-- Node7 -->
<g id="node7" class="node">
<title>Node7</title>
<g id="a_node7"><a xlink:title=" ">
<polygon fill="white" stroke="#bfbfbf" points="643.5,-56.5 643.5,-97.5 819.5,-97.5 819.5,-56.5 643.5,-56.5"/>
<text text-anchor="start" x="651.5" y="-85.5" font-family="Helvetica,sans-Serif" font-size="10.00">asm/JSystem/JKernel</text>
<text text-anchor="start" x="651.5" y="-74.5" font-family="Helvetica,sans-Serif" font-size="10.00">/JKRAssertHeap/create</text>
<text text-anchor="middle" x="731.5" y="-63.5" font-family="Helvetica,sans-Serif" font-size="10.00">__13JKRAssertHeapFP7JKRHeap.s</text>
</a>
</g>
</g>
<!-- Node1&#45;&gt;Node7 -->
<g id="edge7" class="edge">
<title>Node1&#45;&gt;Node7</title>
<path fill="none" stroke="midnightblue" d="M521.58,-134.49C557.91,-124.71 607.16,-111.46 648.83,-100.25"/>
<polygon fill="midnightblue" stroke="midnightblue" points="649.94,-103.57 658.69,-97.59 648.12,-96.81 649.94,-103.57"/>
</g>
<!-- Node8 -->
<g id="node8" class="node">
<title>Node8</title>
<g id="a_node8"><a xlink:title=" ">
<polygon fill="white" stroke="#bfbfbf" points="837.5,-56.5 837.5,-97.5 977.5,-97.5 977.5,-56.5 837.5,-56.5"/>
<text text-anchor="start" x="845.5" y="-85.5" font-family="Helvetica,sans-Serif" font-size="10.00">asm/JSystem/JKernel</text>
<text text-anchor="start" x="845.5" y="-74.5" font-family="Helvetica,sans-Serif" font-size="10.00">/JKRAssertHeap/do_destroy</text>
<text text-anchor="middle" x="907.5" y="-63.5" font-family="Helvetica,sans-Serif" font-size="10.00">__13JKRAssertHeapFv.s</text>
</a>
</g>
</g>
<!-- Node1&#45;&gt;Node8 -->
<g id="edge8" class="edge">
<title>Node1&#45;&gt;Node8</title>
<path fill="none" stroke="midnightblue" d="M524.24,-142.67C592.9,-134.93 714.37,-119.89 827.51,-98.09"/>
<polygon fill="midnightblue" stroke="midnightblue" points="828.23,-101.52 837.38,-96.17 826.89,-94.65 828.23,-101.52"/>
</g>
<!-- Node9 -->
<g id="node9" class="node">
<title>Node9</title>
<g id="a_node9"><a xlink:title=" ">
<polygon fill="white" stroke="#bfbfbf" points="996,-56.5 996,-97.5 1147,-97.5 1147,-56.5 996,-56.5"/>
<text text-anchor="start" x="1004" y="-85.5" font-family="Helvetica,sans-Serif" font-size="10.00">asm/JSystem/JKernel</text>
<text text-anchor="start" x="1004" y="-74.5" font-family="Helvetica,sans-Serif" font-size="10.00">/JKRAssertHeap/getHeapType</text>
<text text-anchor="middle" x="1071.5" y="-63.5" font-family="Helvetica,sans-Serif" font-size="10.00">__13JKRAssertHeapFv.s</text>
</a>
</g>
</g>
<!-- Node1&#45;&gt;Node9 -->
<g id="edge9" class="edge">
<title>Node1&#45;&gt;Node9</title>
<path fill="none" stroke="midnightblue" d="M524.15,-145.57C617.02,-140.07 811.64,-126.26 985.5,-98.05"/>
<polygon fill="midnightblue" stroke="midnightblue" points="986.3,-101.46 995.6,-96.39 985.17,-94.56 986.3,-101.46"/>
</g>
<!-- Node4&#45;&gt;Node3 -->
<g id="edge4" class="edge">
<title>Node4&#45;&gt;Node3</title>
<path fill="none" stroke="midnightblue" d="M177.65,-61.9C169.93,-51.86 159.53,-38.34 151.39,-27.75"/>
<polygon fill="midnightblue" stroke="midnightblue" points="154.06,-25.49 145.19,-19.69 148.51,-29.75 154.06,-25.49"/>
</g>
</g>
</svg>
