<?xml version="1.0" encoding="UTF-8" standalone="no"?>
<!DOCTYPE svg PUBLIC "-//W3C//DTD SVG 1.1//EN"
 "http://www.w3.org/Graphics/SVG/1.1/DTD/svg11.dtd">
<!-- Generated by graphviz version 2.47.0 (20210316.2052)
 -->
<!-- Title: libs/JSystem/JKernel/JKRArchivePri.cpp Pages: 1 -->
<!--zoomable 184 -->
<svg id="main" version="1.1" xmlns="http://www.w3.org/2000/svg" xmlns:xlink="http://www.w3.org/1999/xlink" xml:space="preserve" onload="init(evt)">
<style type="text/css"><![CDATA[
.edge:hover path { stroke: red; }
.edge:hover polygon { stroke: red; fill: red; }
]]></style>
<script type="text/javascript"><![CDATA[
var edges = document.getElementsByTagName('g');
if (edges && edges.length) {
  for (var i=0;i<edges.length;i++) {
    if (edges[i].id.substr(0,4)=='edge') {
      edges[i].setAttribute('class','edge');
    }
  }
}
]]></script>
        <defs>
                <circle id="rim" cx="0" cy="0" r="7"/>
                <circle id="rim2" cx="0" cy="0" r="3.5"/>
                <g id="zoomPlus">
                        <use xlink:href="#rim" fill="#404040">
                                <set attributeName="fill" to="#808080" begin="zoomplus.mouseover" end="zoomplus.mouseout"/>
                        </use>
                        <path d="M-4,0h8M0,-4v8" fill="none" stroke="white" stroke-width="1.5" pointer-events="none"/>
                </g>
                <g id="zoomMin">
                        <use xlink:href="#rim" fill="#404040">
                                <set attributeName="fill" to="#808080" begin="zoomminus.mouseover" end="zoomminus.mouseout"/>
                        </use>
                        <path d="M-4,0h8" fill="none" stroke="white" stroke-width="1.5" pointer-events="none"/>
                </g>
                <g id="dirArrow">
                        <path fill="none" stroke="white" stroke-width="1.5" d="M0,-3.0v7 M-2.5,-0.5L0,-3.0L2.5,-0.5"/>
                </g>
               <g id="resetDef">
                       <use xlink:href="#rim2" fill="#404040">
                               <set attributeName="fill" to="#808080" begin="reset.mouseover" end="reset.mouseout"/>
                       </use>
               </g>
        </defs>

<script type="text/javascript">
var viewWidth = 3021;
var viewHeight = 184;
var sectionId = 'dynsection-0';
</script>
<script xlink:href="svgpan.js"/>
<svg id="graph" class="graph">
<g id="viewport">
<title>libs/JSystem/JKernel/JKRArchivePri.cpp</title>
<polygon fill="white" stroke="transparent" points="-4,4 -4,-180 3016.5,-180 3016.5,4 -4,4"/>
<!-- Node1 -->
<g id="node1" class="node">
<title>Node1</title>
<g id="a_node1"><a xlink:title=" ">
<polygon fill="#bfbfbf" stroke="black" points="1253,-145.5 1253,-175.5 1362,-175.5 1362,-145.5 1253,-145.5"/>
<text text-anchor="start" x="1261" y="-163.5" font-family="Helvetica,sans-Serif" font-size="10.00">libs/JSystem/JKernel</text>
<text text-anchor="middle" x="1307.5" y="-152.5" font-family="Helvetica,sans-Serif" font-size="10.00">/JKRArchivePri.cpp</text>
</a>
</g>
</g>
<!-- Node2 -->
<g id="node2" class="node">
<title>Node2</title>
<g id="a_node2"><a xlink:href="dol2asm_8h.html" target="_top" xlink:title=" ">
<polygon fill="white" stroke="black" points="0,-73 0,-92 61,-92 61,-73 0,-73"/>
<text text-anchor="middle" x="30.5" y="-80" font-family="Helvetica,sans-Serif" font-size="10.00">dol2asm.h</text>
</a>
</g>
</g>
<!-- Node1&#45;&gt;Node2 -->
<g id="edge1" class="edge">
<title>Node1&#45;&gt;Node2</title>
<path fill="none" stroke="midnightblue" d="M1252.99,-158.78C1029.48,-155.6 189.55,-141.58 75.5,-109 66.88,-106.54 58.14,-102.12 50.68,-97.64"/>
<polygon fill="midnightblue" stroke="midnightblue" points="52.33,-94.54 42.03,-92.08 48.55,-100.43 52.33,-94.54"/>
</g>
<!-- Node3 -->
<g id="node3" class="node">
<title>Node3</title>
<g id="a_node3"><a xlink:href="types_8h.html" target="_top" xlink:title=" ">
<polygon fill="white" stroke="black" points="99,-0.5 99,-19.5 180,-19.5 180,-0.5 99,-0.5"/>
<text text-anchor="middle" x="139.5" y="-7.5" font-family="Helvetica,sans-Serif" font-size="10.00">dolphin/types.h</text>
</a>
</g>
</g>
<!-- Node1&#45;&gt;Node3 -->
<g id="edge2" class="edge">
<title>Node1&#45;&gt;Node3</title>
<path fill="none" stroke="midnightblue" d="M1252.95,-159.28C1023.74,-158.09 148.58,-150.8 108.5,-109 86.9,-86.47 109.28,-48.98 125.64,-27.49"/>
<polygon fill="midnightblue" stroke="midnightblue" points="128.43,-29.6 131.92,-19.6 122.95,-25.24 128.43,-29.6"/>
</g>
<!-- Node4 -->
<g id="node4" class="node">
<title>Node4</title>
<g id="a_node4"><a xlink:href="JKRArchivePri_8h.html" target="_top" xlink:title=" ">
<polygon fill="white" stroke="black" points="117.5,-67.5 117.5,-97.5 263.5,-97.5 263.5,-67.5 117.5,-67.5"/>
<text text-anchor="start" x="125.5" y="-85.5" font-family="Helvetica,sans-Serif" font-size="10.00">JSystem/JKernel/JKRArchive</text>
<text text-anchor="middle" x="190.5" y="-74.5" font-family="Helvetica,sans-Serif" font-size="10.00">Pri.h</text>
</a>
</g>
</g>
<!-- Node1&#45;&gt;Node4 -->
<g id="edge3" class="edge">
<title>Node1&#45;&gt;Node4</title>
<path fill="none" stroke="midnightblue" d="M1252.7,-158.62C1067.27,-155.37 464.36,-142.44 273.5,-109 262.13,-107.01 250.14,-103.93 238.91,-100.59"/>
<polygon fill="midnightblue" stroke="midnightblue" points="239.86,-97.22 229.28,-97.6 237.79,-103.9 239.86,-97.22"/>
</g>
<!-- Node5 -->
<g id="node5" class="node">
<title>Node5</title>
<g id="a_node5"><a xlink:title=" ">
<polygon fill="white" stroke="#bfbfbf" points="282,-56.5 282,-108.5 465,-108.5 465,-56.5 282,-56.5"/>
<text text-anchor="start" x="290" y="-96.5" font-family="Helvetica,sans-Serif" font-size="10.00">asm/JSystem/JKernel</text>
<text text-anchor="start" x="290" y="-85.5" font-family="Helvetica,sans-Serif" font-size="10.00">/JKRArchivePri/__ct</text>
<text text-anchor="start" x="290" y="-74.5" font-family="Helvetica,sans-Serif" font-size="10.00">__10JKRArchiveFlQ210JKRArchive10</text>
<text text-anchor="middle" x="373.5" y="-63.5" font-family="Helvetica,sans-Serif" font-size="10.00">EMountMode.s</text>
</a>
</g>
</g>
<!-- Node1&#45;&gt;Node5 -->
<g id="edge5" class="edge">
<title>Node1&#45;&gt;Node5</title>
<path fill="none" stroke="midnightblue" d="M1252.54,-159.7C1120.14,-159.43 773.05,-154.21 475.14,-108.95"/>
<polygon fill="midnightblue" stroke="midnightblue" points="475.42,-105.46 465.01,-107.4 474.36,-112.37 475.42,-105.46"/>
</g>
<!-- Node6 -->
<g id="node6" class="node">
<title>Node6</title>
<g id="a_node6"><a xlink:title=" ">
<polygon fill="white" stroke="#bfbfbf" points="483,-62 483,-103 596,-103 596,-62 483,-62"/>
<text text-anchor="start" x="491" y="-91" font-family="Helvetica,sans-Serif" font-size="10.00">asm/JSystem/JKernel</text>
<text text-anchor="start" x="491" y="-80" font-family="Helvetica,sans-Serif" font-size="10.00">/JKRArchivePri/__dt</text>
<text text-anchor="middle" x="539.5" y="-69" font-family="Helvetica,sans-Serif" font-size="10.00">__10JKRArchiveFv.s</text>
</a>
</g>
</g>
<!-- Node1&#45;&gt;Node6 -->
<g id="edge6" class="edge">
<title>Node1&#45;&gt;Node6</title>
<path fill="none" stroke="midnightblue" d="M1252.98,-157.67C1110.34,-152.54 728.69,-136.58 605.5,-109 601.93,-108.2 598.31,-107.24 594.68,-106.18"/>
<polygon fill="midnightblue" stroke="midnightblue" points="595.71,-102.83 585.12,-103.12 593.58,-109.5 595.71,-102.83"/>
</g>
<!-- Node7 -->
<g id="node7" class="node">
<title>Node7</title>
<g id="a_node7"><a xlink:title=" ">
<polygon fill="white" stroke="#bfbfbf" points="614,-56.5 614,-108.5 803,-108.5 803,-56.5 614,-56.5"/>
<text text-anchor="start" x="622" y="-96.5" font-family="Helvetica,sans-Serif" font-size="10.00">asm/JSystem/JKernel</text>
<text text-anchor="start" x="622" y="-85.5" font-family="Helvetica,sans-Serif" font-size="10.00">/JKRArchivePri/isSameName</text>
<text text-anchor="start" x="622" y="-74.5" font-family="Helvetica,sans-Serif" font-size="10.00">__10JKRArchiveCFRQ210JKRArchive8</text>
<text text-anchor="middle" x="708.5" y="-63.5" font-family="Helvetica,sans-Serif" font-size="10.00">CArcNameUlUs.s</text>
</a>
</g>
</g>
<!-- Node1&#45;&gt;Node7 -->
<g id="edge7" class="edge">
<title>Node1&#45;&gt;Node7</title>
<path fill="none" stroke="midnightblue" d="M1252.96,-156.42C1163.2,-150.8 978.64,-136.98 812.92,-108.96"/>
<polygon fill="midnightblue" stroke="midnightblue" points="813.49,-105.51 803.04,-107.27 812.31,-112.41 813.49,-105.51"/>
</g>
<!-- Node8 -->
<g id="node8" class="node">
<title>Node8</title>
<g id="a_node8"><a xlink:title=" ">
<polygon fill="white" stroke="#bfbfbf" points="821.5,-62 821.5,-103 961.5,-103 961.5,-62 821.5,-62"/>
<text text-anchor="start" x="829.5" y="-91" font-family="Helvetica,sans-Serif" font-size="10.00">asm/JSystem/JKernel</text>
<text text-anchor="start" x="829.5" y="-80" font-family="Helvetica,sans-Serif" font-size="10.00">/JKRArchivePri/findResType</text>
<text text-anchor="middle" x="891.5" y="-69" font-family="Helvetica,sans-Serif" font-size="10.00">__10JKRArchiveCFUl.s</text>
</a>
</g>
</g>
<!-- Node1&#45;&gt;Node8 -->
<g id="edge8" class="edge">
<title>Node1&#45;&gt;Node8</title>
<path fill="none" stroke="midnightblue" d="M1252.99,-154.11C1185.92,-146.84 1068.84,-132.08 970.5,-109 966.4,-108.04 962.2,-106.96 957.98,-105.81"/>
<polygon fill="midnightblue" stroke="midnightblue" points="958.72,-102.38 948.15,-103.01 956.81,-109.11 958.72,-102.38"/>
</g>
<!-- Node9 -->
<g id="node9" class="node">
<title>Node9</title>
<g id="a_node9"><a xlink:title=" ">
<polygon fill="white" stroke="#bfbfbf" points="979.5,-62 979.5,-103 1119.5,-103 1119.5,-62 979.5,-62"/>
<text text-anchor="start" x="987.5" y="-91" font-family="Helvetica,sans-Serif" font-size="10.00">asm/JSystem/JKernel</text>
<text text-anchor="start" x="987.5" y="-80" font-family="Helvetica,sans-Serif" font-size="10.00">/JKRArchivePri/findDirectory</text>
<text text-anchor="middle" x="1049.5" y="-69" font-family="Helvetica,sans-Serif" font-size="10.00">__10JKRArchiveCFPCcUl.s</text>
</a>
</g>
</g>
<!-- Node1&#45;&gt;Node9 -->
<g id="edge9" class="edge">
<title>Node1&#45;&gt;Node9</title>
<path fill="none" stroke="midnightblue" d="M1255.65,-145.42C1219.84,-135.56 1171.15,-121.9 1128.5,-109 1125.4,-108.06 1122.23,-107.09 1119.03,-106.1"/>
<polygon fill="midnightblue" stroke="midnightblue" points="1119.97,-102.73 1109.38,-103.09 1117.88,-109.41 1119.97,-102.73"/>
</g>
<!-- Node10 -->
<g id="node10" class="node">
<title>Node10</title>
<g id="a_node10"><a xlink:title=" ">
<polygon fill="white" stroke="#bfbfbf" points="1137.5,-62 1137.5,-103 1301.5,-103 1301.5,-62 1137.5,-62"/>
<text text-anchor="start" x="1145.5" y="-91" font-family="Helvetica,sans-Serif" font-size="10.00">asm/JSystem/JKernel</text>
<text text-anchor="start" x="1145.5" y="-80" font-family="Helvetica,sans-Serif" font-size="10.00">/JKRArchivePri/findTypeResource</text>
<text text-anchor="middle" x="1219.5" y="-69" font-family="Helvetica,sans-Serif" font-size="10.00">__10JKRArchiveCFUlPCc.s</text>
</a>
</g>
</g>
<!-- Node1&#45;&gt;Node10 -->
<g id="edge10" class="edge">
<title>Node1&#45;&gt;Node10</title>
<path fill="none" stroke="midnightblue" d="M1290.95,-145.2C1279.46,-135.28 1263.82,-121.77 1250.1,-109.93"/>
<polygon fill="midnightblue" stroke="midnightblue" points="1252.14,-107.07 1242.29,-103.18 1247.57,-112.37 1252.14,-107.07"/>
</g>
<!-- Node11 -->
<g id="node11" class="node">
<title>Node11</title>
<g id="a_node11"><a xlink:title=" ">
<polygon fill="white" stroke="#bfbfbf" points="1319.5,-62 1319.5,-103 1473.5,-103 1473.5,-62 1319.5,-62"/>
<text text-anchor="start" x="1327.5" y="-91" font-family="Helvetica,sans-Serif" font-size="10.00">asm/JSystem/JKernel</text>
<text text-anchor="start" x="1327.5" y="-80" font-family="Helvetica,sans-Serif" font-size="10.00">/JKRArchivePri/findFsResource</text>
<text text-anchor="middle" x="1396.5" y="-69" font-family="Helvetica,sans-Serif" font-size="10.00">__10JKRArchiveCFPCcUl.s</text>
</a>
</g>
</g>
<!-- Node1&#45;&gt;Node11 -->
<g id="edge11" class="edge">
<title>Node1&#45;&gt;Node11</title>
<path fill="none" stroke="midnightblue" d="M1324.24,-145.2C1335.86,-135.28 1351.68,-121.77 1365.55,-109.93"/>
<polygon fill="midnightblue" stroke="midnightblue" points="1368.12,-112.34 1373.45,-103.18 1363.58,-107.01 1368.12,-112.34"/>
</g>
<!-- Node12 -->
<g id="node12" class="node">
<title>Node12</title>
<g id="a_node12"><a xlink:title=" ">
<polygon fill="white" stroke="#bfbfbf" points="1492,-62 1492,-103 1647,-103 1647,-62 1492,-62"/>
<text text-anchor="start" x="1500" y="-91" font-family="Helvetica,sans-Serif" font-size="10.00">asm/JSystem/JKernel</text>
<text text-anchor="start" x="1500" y="-80" font-family="Helvetica,sans-Serif" font-size="10.00">/JKRArchivePri/findIdxResource</text>
<text text-anchor="middle" x="1569.5" y="-69" font-family="Helvetica,sans-Serif" font-size="10.00">__10JKRArchiveCFUl.s</text>
</a>
</g>
</g>
<!-- Node1&#45;&gt;Node12 -->
<g id="edge12" class="edge">
<title>Node1&#45;&gt;Node12</title>
<path fill="none" stroke="midnightblue" d="M1356.55,-145.41C1391.64,-135.31 1439.99,-121.36 1482.5,-109 1486.03,-107.97 1489.65,-106.92 1493.29,-105.86"/>
<polygon fill="midnightblue" stroke="midnightblue" points="1494.39,-109.18 1503.01,-103.02 1492.43,-102.46 1494.39,-109.18"/>
</g>
<!-- Node13 -->
<g id="node13" class="node">
<title>Node13</title>
<g id="a_node13"><a xlink:title=" ">
<polygon fill="white" stroke="#bfbfbf" points="1665,-62 1665,-103 1834,-103 1834,-62 1665,-62"/>
<text text-anchor="start" x="1673" y="-91" font-family="Helvetica,sans-Serif" font-size="10.00">asm/JSystem/JKernel</text>
<text text-anchor="start" x="1673" y="-80" font-family="Helvetica,sans-Serif" font-size="10.00">/JKRArchivePri/findNameResource</text>
<text text-anchor="middle" x="1749.5" y="-69" font-family="Helvetica,sans-Serif" font-size="10.00">__10JKRArchiveCFPCc.s</text>
</a>
</g>
</g>
<!-- Node1&#45;&gt;Node13 -->
<g id="edge13" class="edge">
<title>Node1&#45;&gt;Node13</title>
<path fill="none" stroke="midnightblue" d="M1362.27,-153.7C1431.31,-145.91 1553.42,-130.5 1656.5,-109 1661.59,-107.94 1666.82,-106.76 1672.07,-105.5"/>
<polygon fill="midnightblue" stroke="midnightblue" points="1673.31,-108.8 1682.18,-103.01 1671.63,-102.01 1673.31,-108.8"/>
</g>
<!-- Node14 -->
<g id="node14" class="node">
<title>Node14</title>
<g id="a_node14"><a xlink:title=" ">
<polygon fill="white" stroke="#bfbfbf" points="1852,-62 1852,-103 2007,-103 2007,-62 1852,-62"/>
<text text-anchor="start" x="1860" y="-91" font-family="Helvetica,sans-Serif" font-size="10.00">asm/JSystem/JKernel</text>
<text text-anchor="start" x="1860" y="-80" font-family="Helvetica,sans-Serif" font-size="10.00">/JKRArchivePri/findPtrResource</text>
<text text-anchor="middle" x="1929.5" y="-69" font-family="Helvetica,sans-Serif" font-size="10.00">__10JKRArchiveCFPCv.s</text>
</a>
</g>
</g>
<!-- Node1&#45;&gt;Node14 -->
<g id="edge14" class="edge">
<title>Node1&#45;&gt;Node14</title>
<path fill="none" stroke="midnightblue" d="M1362.01,-157.86C1459.46,-154.15 1669.6,-142.64 1843.5,-109 1848.53,-108.03 1853.69,-106.88 1858.86,-105.63"/>
<polygon fill="midnightblue" stroke="midnightblue" points="1859.96,-108.96 1868.79,-103.09 1858.23,-102.17 1859.96,-108.96"/>
</g>
<!-- Node15 -->
<g id="node15" class="node">
<title>Node15</title>
<g id="a_node15"><a xlink:title=" ">
<polygon fill="white" stroke="#bfbfbf" points="2025,-62 2025,-103 2176,-103 2176,-62 2025,-62"/>
<text text-anchor="start" x="2033" y="-91" font-family="Helvetica,sans-Serif" font-size="10.00">asm/JSystem/JKernel</text>
<text text-anchor="start" x="2033" y="-80" font-family="Helvetica,sans-Serif" font-size="10.00">/JKRArchivePri/findIdResource</text>
<text text-anchor="middle" x="2100.5" y="-69" font-family="Helvetica,sans-Serif" font-size="10.00">__10JKRArchiveCFUs.s</text>
</a>
</g>
</g>
<!-- Node1&#45;&gt;Node15 -->
<g id="edge15" class="edge">
<title>Node1&#45;&gt;Node15</title>
<path fill="none" stroke="midnightblue" d="M1362.28,-159.75C1482.03,-159.38 1775.63,-153.56 2016.5,-109 2021.61,-108.05 2026.86,-106.91 2032.1,-105.63"/>
<polygon fill="midnightblue" stroke="midnightblue" points="2033.36,-108.92 2042.17,-103.03 2031.61,-102.14 2033.36,-108.92"/>
</g>
<!-- Node16 -->
<g id="node16" class="node">
<title>Node16</title>
<g id="a_node16"><a xlink:title=" ">
<polygon fill="white" stroke="#bfbfbf" points="2194.5,-62 2194.5,-103 2382.5,-103 2382.5,-62 2194.5,-62"/>
<text text-anchor="start" x="2202.5" y="-91" font-family="Helvetica,sans-Serif" font-size="10.00">asm/JSystem/JKernel</text>
<text text-anchor="start" x="2202.5" y="-80" font-family="Helvetica,sans-Serif" font-size="10.00">/JKRArchivePri/store</text>
<text text-anchor="middle" x="2288.5" y="-69" font-family="Helvetica,sans-Serif" font-size="10.00">__Q210JKRArchive8CArcNameFPCc.s</text>
</a>
</g>
</g>
<!-- Node1&#45;&gt;Node16 -->
<g id="edge16" class="edge">
<title>Node1&#45;&gt;Node16</title>
<path fill="none" stroke="midnightblue" d="M1362.07,-159.86C1500.55,-160.01 1876.59,-155.71 2185.5,-109 2192.51,-107.94 2199.75,-106.62 2206.97,-105.15"/>
<polygon fill="midnightblue" stroke="midnightblue" points="2207.76,-108.56 2216.81,-103.05 2206.3,-101.71 2207.76,-108.56"/>
</g>
<!-- Node17 -->
<g id="node17" class="node">
<title>Node17</title>
<g id="a_node17"><a xlink:title=" ">
<polygon fill="white" stroke="#bfbfbf" points="2401,-62 2401,-103 2594,-103 2594,-62 2401,-62"/>
<text text-anchor="start" x="2409" y="-91" font-family="Helvetica,sans-Serif" font-size="10.00">asm/JSystem/JKernel</text>
<text text-anchor="start" x="2409" y="-80" font-family="Helvetica,sans-Serif" font-size="10.00">/JKRArchivePri/store</text>
<text text-anchor="middle" x="2497.5" y="-69" font-family="Helvetica,sans-Serif" font-size="10.00">__Q210JKRArchive8CArcNameFPCcc.s</text>
</a>
</g>
</g>
<!-- Node1&#45;&gt;Node17 -->
<g id="edge17" class="edge">
<title>Node1&#45;&gt;Node17</title>
<path fill="none" stroke="midnightblue" d="M1362.21,-158.32C1553.17,-154 2189.47,-137.74 2391.5,-109 2398.93,-107.94 2406.59,-106.6 2414.25,-105.09"/>
<polygon fill="midnightblue" stroke="midnightblue" points="2415.2,-108.47 2424.29,-103.02 2413.79,-101.61 2415.2,-108.47"/>
</g>
<!-- Node18 -->
<g id="node18" class="node">
<title>Node18</title>
<g id="a_node18"><a xlink:title=" ">
<polygon fill="white" stroke="#bfbfbf" points="2612.5,-56.5 2612.5,-108.5 2800.5,-108.5 2800.5,-56.5 2612.5,-56.5"/>
<text text-anchor="start" x="2620.5" y="-96.5" font-family="Helvetica,sans-Serif" font-size="10.00">asm/JSystem/JKernel</text>
<text text-anchor="start" x="2620.5" y="-85.5" font-family="Helvetica,sans-Serif" font-size="10.00">/JKRArchivePri/setExpandSize</text>
<text text-anchor="start" x="2620.5" y="-74.5" font-family="Helvetica,sans-Serif" font-size="10.00">__10JKRArchiveFPQ210JKRArchive12</text>
<text text-anchor="middle" x="2706.5" y="-63.5" font-family="Helvetica,sans-Serif" font-size="10.00">SDIFileEntryUl.s</text>
</a>
</g>
</g>
<!-- Node1&#45;&gt;Node18 -->
<g id="edge18" class="edge">
<title>Node1&#45;&gt;Node18</title>
<path fill="none" stroke="midnightblue" d="M1362.26,-158.85C1573.79,-156.12 2338.37,-144.09 2602.42,-108.99"/>
<polygon fill="midnightblue" stroke="midnightblue" points="2602.92,-112.45 2612.35,-107.62 2601.97,-105.52 2602.92,-112.45"/>
</g>
<!-- Node19 -->
<g id="node19" class="node">
<title>Node19</title>
<g id="a_node19"><a xlink:title=" ">
<polygon fill="white" stroke="#bfbfbf" points="2818.5,-56.5 2818.5,-108.5 3012.5,-108.5 3012.5,-56.5 2818.5,-56.5"/>
<text text-anchor="start" x="2826.5" y="-96.5" font-family="Helvetica,sans-Serif" font-size="10.00">asm/JSystem/JKernel</text>
<text text-anchor="start" x="2826.5" y="-85.5" font-family="Helvetica,sans-Serif" font-size="10.00">/JKRArchivePri/getExpandSize</text>
<text text-anchor="start" x="2826.5" y="-74.5" font-family="Helvetica,sans-Serif" font-size="10.00">__10JKRArchiveCFPQ210JKRArchive12</text>
<text text-anchor="middle" x="2915.5" y="-63.5" font-family="Helvetica,sans-Serif" font-size="10.00">SDIFileEntry.s</text>
</a>
</g>
</g>
<!-- Node1&#45;&gt;Node19 -->
<g id="edge19" class="edge">
<title>Node1&#45;&gt;Node19</title>
<path fill="none" stroke="midnightblue" d="M1362.36,-159.14C1594.89,-157.4 2500.88,-148.27 2808.08,-109.04"/>
<polygon fill="midnightblue" stroke="midnightblue" points="2808.86,-112.46 2818.32,-107.69 2807.94,-105.52 2808.86,-112.46"/>
</g>
<!-- Node4&#45;&gt;Node3 -->
<g id="edge4" class="edge">
<title>Node4&#45;&gt;Node3</title>
<path fill="none" stroke="midnightblue" d="M180.18,-67.23C172.02,-55.95 160.59,-40.15 151.92,-28.17"/>
<polygon fill="midnightblue" stroke="midnightblue" points="154.63,-25.94 145.93,-19.89 148.96,-30.05 154.63,-25.94"/>
</g>
</g>
</svg>
        <g id="navigator" transform="translate(0 0)" fill="#404254">
                <rect fill="#f2f5e9" fill-opacity="0.5" stroke="#606060" stroke-width=".5" x="0" y="0" width="60" height="60"/>
                <use id="zoomplus" xlink:href="#zoomPlus" x="17" y="9" onmousedown="handleZoom(evt,'in')"/>
                <use id="zoomminus" xlink:href="#zoomMin" x="42" y="9" onmousedown="handleZoom(evt,'out')"/>
                <use id="reset" xlink:href="#resetDef" x="30" y="36" onmousedown="handleReset()"/>
                <g id="arrowUp" xlink:href="#dirArrow" transform="translate(30 24)" onmousedown="handlePan(0,-1)">
                  <use xlink:href="#rim" fill="#404040">
                        <set attributeName="fill" to="#808080" begin="arrowUp.mouseover" end="arrowUp.mouseout"/>
                  </use>
                  <path fill="none" stroke="white" stroke-width="1.5" d="M0,-3.0v7 M-2.5,-0.5L0,-3.0L2.5,-0.5"/>
                </g>
                <g id="arrowRight" xlink:href="#dirArrow" transform="rotate(90) translate(36 -43)" onmousedown="handlePan(1,0)">
                  <use xlink:href="#rim" fill="#404040">
                        <set attributeName="fill" to="#808080" begin="arrowRight.mouseover" end="arrowRight.mouseout"/>
                  </use>
                  <path fill="none" stroke="white" stroke-width="1.5" d="M0,-3.0v7 M-2.5,-0.5L0,-3.0L2.5,-0.5"/>
                </g>
                <g id="arrowDown" xlink:href="#dirArrow" transform="rotate(180) translate(-30 -48)" onmousedown="handlePan(0,1)">
                  <use xlink:href="#rim" fill="#404040">
                        <set attributeName="fill" to="#808080" begin="arrowDown.mouseover" end="arrowDown.mouseout"/>
                  </use>
                  <path fill="none" stroke="white" stroke-width="1.5" d="M0,-3.0v7 M-2.5,-0.5L0,-3.0L2.5,-0.5"/>
                </g>
                <g id="arrowLeft" xlink:href="#dirArrow" transform="rotate(270) translate(-36 17)" onmousedown="handlePan(-1,0)">
                  <use xlink:href="#rim" fill="#404040">
                        <set attributeName="fill" to="#808080" begin="arrowLeft.mouseover" end="arrowLeft.mouseout"/>
                  </use>
                  <path fill="none" stroke="white" stroke-width="1.5" d="M0,-3.0v7 M-2.5,-0.5L0,-3.0L2.5,-0.5"/>
                </g>
        </g>
        <svg viewBox="0 0 15 15" width="100%" height="30px" preserveAspectRatio="xMaxYMin meet">
         <g id="arrow_out" transform="scale(0.3 0.3)">
          <a xlink:href="JKRArchivePri_8cpp__incl_org.svg" target="_base">
           <rect id="button" ry="5" rx="5" y="6" x="6" height="38" width="38"
                fill="#f2f5e9" fill-opacity="0.5" stroke="#606060" stroke-width="1.0"/>
           <path id="arrow"
             d="M 11.500037,31.436501 C 11.940474,20.09759 22.043105,11.32322 32.158766,21.979434 L 37.068811,17.246167 C 37.068811,17.246167 37.088388,32 37.088388,32 L 22.160133,31.978069 C 22.160133,31.978069 26.997745,27.140456 26.997745,27.140456 C 18.528582,18.264221 13.291696,25.230495 11.500037,31.436501 z"
             style="fill:#404040;"/>
          </a>
         </g>
        </svg>
</svg>
