<?xml version="1.0" encoding="UTF-8" standalone="no"?>
<!DOCTYPE svg PUBLIC "-//W3C//DTD SVG 1.1//EN"
 "http://www.w3.org/Graphics/SVG/1.1/DTD/svg11.dtd">
<!-- Generated by graphviz version 2.47.0 (20210316.2052)
 -->
<!-- Title: libs/JSystem/JKernel/JKRCompArchive.cpp Pages: 1 -->
<!--zoomable 184 -->
<svg id="main" version="1.1" xmlns="http://www.w3.org/2000/svg" xmlns:xlink="http://www.w3.org/1999/xlink" xml:space="preserve" onload="init(evt)">
<style type="text/css"><![CDATA[
.edge:hover path { stroke: red; }
.edge:hover polygon { stroke: red; fill: red; }
]]></style>
<script type="text/javascript"><![CDATA[
var edges = document.getElementsByTagName('g');
if (edges && edges.length) {
  for (var i=0;i<edges.length;i++) {
    if (edges[i].id.substr(0,4)=='edge') {
      edges[i].setAttribute('class','edge');
    }
  }
}
]]></script>
        <defs>
                <circle id="rim" cx="0" cy="0" r="7"/>
                <circle id="rim2" cx="0" cy="0" r="3.5"/>
                <g id="zoomPlus">
                        <use xlink:href="#rim" fill="#404040">
                                <set attributeName="fill" to="#808080" begin="zoomplus.mouseover" end="zoomplus.mouseout"/>
                        </use>
                        <path d="M-4,0h8M0,-4v8" fill="none" stroke="white" stroke-width="1.5" pointer-events="none"/>
                </g>
                <g id="zoomMin">
                        <use xlink:href="#rim" fill="#404040">
                                <set attributeName="fill" to="#808080" begin="zoomminus.mouseover" end="zoomminus.mouseout"/>
                        </use>
                        <path d="M-4,0h8" fill="none" stroke="white" stroke-width="1.5" pointer-events="none"/>
                </g>
                <g id="dirArrow">
                        <path fill="none" stroke="white" stroke-width="1.5" d="M0,-3.0v7 M-2.5,-0.5L0,-3.0L2.5,-0.5"/>
                </g>
               <g id="resetDef">
                       <use xlink:href="#rim2" fill="#404040">
                               <set attributeName="fill" to="#808080" begin="reset.mouseover" end="reset.mouseout"/>
                       </use>
               </g>
        </defs>

<script type="text/javascript">
var viewWidth = 1909;
var viewHeight = 184;
var sectionId = 'dynsection-0';
</script>
<script xlink:href="svgpan.js"/>
<svg id="graph" class="graph">
<g id="viewport">
<title>libs/JSystem/JKernel/JKRCompArchive.cpp</title>
<polygon fill="white" stroke="transparent" points="-4,4 -4,-180 1904.5,-180 1904.5,4 -4,4"/>
<!-- Node1 -->
<g id="node1" class="node">
<title>Node1</title>
<g id="a_node1"><a xlink:title=" ">
<polygon fill="#bfbfbf" stroke="black" points="703,-145.5 703,-175.5 818,-175.5 818,-145.5 703,-145.5"/>
<text text-anchor="start" x="711" y="-163.5" font-family="Helvetica,sans-Serif" font-size="10.00">libs/JSystem/JKernel</text>
<text text-anchor="middle" x="760.5" y="-152.5" font-family="Helvetica,sans-Serif" font-size="10.00">/JKRCompArchive.cpp</text>
</a>
</g>
</g>
<!-- Node2 -->
<g id="node2" class="node">
<title>Node2</title>
<g id="a_node2"><a xlink:href="dol2asm_8h.html" target="_top" xlink:title=" ">
<polygon fill="white" stroke="black" points="0,-73 0,-92 61,-92 61,-73 0,-73"/>
<text text-anchor="middle" x="30.5" y="-80" font-family="Helvetica,sans-Serif" font-size="10.00">dol2asm.h</text>
</a>
</g>
</g>
<!-- Node1&#45;&gt;Node2 -->
<g id="edge1" class="edge">
<title>Node1&#45;&gt;Node2</title>
<path fill="none" stroke="midnightblue" d="M702.92,-158.49C560.01,-155.48 192.25,-144.42 75.5,-109 67.04,-106.43 58.43,-102.07 51.04,-97.67"/>
<polygon fill="midnightblue" stroke="midnightblue" points="52.75,-94.61 42.44,-92.21 49.01,-100.52 52.75,-94.61"/>
</g>
<!-- Node3 -->
<g id="node3" class="node">
<title>Node3</title>
<g id="a_node3"><a xlink:href="types_8h.html" target="_top" xlink:title=" ">
<polygon fill="white" stroke="black" points="108,-0.5 108,-19.5 189,-19.5 189,-0.5 108,-0.5"/>
<text text-anchor="middle" x="148.5" y="-7.5" font-family="Helvetica,sans-Serif" font-size="10.00">dolphin/types.h</text>
</a>
</g>
</g>
<!-- Node1&#45;&gt;Node3 -->
<g id="edge2" class="edge">
<title>Node1&#45;&gt;Node3</title>
<path fill="none" stroke="midnightblue" d="M702.73,-159.39C550.88,-158.51 149.37,-152.08 109.5,-109 93.5,-91.71 101.27,-78.07 109.5,-56 113.67,-44.81 122.02,-34.56 129.92,-26.68"/>
<polygon fill="midnightblue" stroke="midnightblue" points="132.56,-29 137.51,-19.63 127.8,-23.87 132.56,-29"/>
</g>
<!-- Node4 -->
<g id="node4" class="node">
<title>Node4</title>
<g id="a_node4"><a xlink:href="JKRCompArchive_8h.html" target="_top" xlink:title=" ">
<polygon fill="white" stroke="black" points="118,-73 118,-92 297,-92 297,-73 118,-73"/>
<text text-anchor="middle" x="207.5" y="-80" font-family="Helvetica,sans-Serif" font-size="10.00">JSystem/JKernel/JKRCompArchive.h</text>
</a>
</g>
</g>
<!-- Node1&#45;&gt;Node4 -->
<g id="edge3" class="edge">
<title>Node1&#45;&gt;Node4</title>
<path fill="none" stroke="midnightblue" d="M702.79,-155.71C616.18,-149.42 447.69,-134.9 306.5,-109 286.32,-105.3 264.18,-99.74 245.96,-94.76"/>
<polygon fill="midnightblue" stroke="midnightblue" points="246.86,-91.37 236.28,-92.06 244.98,-98.12 246.86,-91.37"/>
</g>
<!-- Node5 -->
<g id="node5" class="node">
<title>Node5</title>
<g id="a_node5"><a xlink:title=" ">
<polygon fill="white" stroke="#bfbfbf" points="315,-56.5 315,-108.5 524,-108.5 524,-56.5 315,-56.5"/>
<text text-anchor="start" x="323" y="-96.5" font-family="Helvetica,sans-Serif" font-size="10.00">asm/JSystem/JKernel</text>
<text text-anchor="start" x="323" y="-85.5" font-family="Helvetica,sans-Serif" font-size="10.00">/JKRCompArchive/__ct</text>
<text text-anchor="start" x="323" y="-74.5" font-family="Helvetica,sans-Serif" font-size="10.00">__14JKRCompArchiveFlQ210JKRArchive15</text>
<text text-anchor="middle" x="419.5" y="-63.5" font-family="Helvetica,sans-Serif" font-size="10.00">EMountDirection.s</text>
</a>
</g>
</g>
<!-- Node1&#45;&gt;Node5 -->
<g id="edge5" class="edge">
<title>Node1&#45;&gt;Node5</title>
<path fill="none" stroke="midnightblue" d="M702.65,-146.65C659.01,-136.95 597.4,-123.25 533.96,-109.1"/>
<polygon fill="midnightblue" stroke="midnightblue" points="534.7,-105.68 524.17,-106.92 533.17,-112.51 534.7,-105.68"/>
</g>
<!-- Node6 -->
<g id="node6" class="node">
<title>Node6</title>
<g id="a_node6"><a xlink:title=" ">
<polygon fill="white" stroke="#bfbfbf" points="542.5,-62 542.5,-103 676.5,-103 676.5,-62 542.5,-62"/>
<text text-anchor="start" x="550.5" y="-91" font-family="Helvetica,sans-Serif" font-size="10.00">asm/JSystem/JKernel</text>
<text text-anchor="start" x="550.5" y="-80" font-family="Helvetica,sans-Serif" font-size="10.00">/JKRCompArchive/__dt</text>
<text text-anchor="middle" x="609.5" y="-69" font-family="Helvetica,sans-Serif" font-size="10.00">__14JKRCompArchiveFv.s</text>
</a>
</g>
</g>
<!-- Node1&#45;&gt;Node6 -->
<g id="edge6" class="edge">
<title>Node1&#45;&gt;Node6</title>
<path fill="none" stroke="midnightblue" d="M732.45,-145.38C711.5,-134.84 682.36,-120.17 657.7,-107.76"/>
<polygon fill="midnightblue" stroke="midnightblue" points="659,-104.5 648.5,-103.13 655.86,-110.75 659,-104.5"/>
</g>
<!-- Node7 -->
<g id="node7" class="node">
<title>Node7</title>
<g id="a_node7"><a xlink:title=" ">
<polygon fill="white" stroke="#bfbfbf" points="695,-62 695,-103 826,-103 826,-62 695,-62"/>
<text text-anchor="start" x="703" y="-91" font-family="Helvetica,sans-Serif" font-size="10.00">asm/JSystem/JKernel</text>
<text text-anchor="start" x="703" y="-80" font-family="Helvetica,sans-Serif" font-size="10.00">/JKRCompArchive/open</text>
<text text-anchor="middle" x="760.5" y="-69" font-family="Helvetica,sans-Serif" font-size="10.00">__14JKRCompArchiveFl.s</text>
</a>
</g>
</g>
<!-- Node1&#45;&gt;Node7 -->
<g id="edge7" class="edge">
<title>Node1&#45;&gt;Node7</title>
<path fill="none" stroke="midnightblue" d="M760.5,-145.2C760.5,-136.21 760.5,-124.27 760.5,-113.29"/>
<polygon fill="midnightblue" stroke="midnightblue" points="764,-113.18 760.5,-103.18 757,-113.18 764,-113.18"/>
</g>
<!-- Node8 -->
<g id="node8" class="node">
<title>Node8</title>
<g id="a_node8"><a xlink:title=" ">
<polygon fill="white" stroke="#bfbfbf" points="844,-56.5 844,-108.5 1057,-108.5 1057,-56.5 844,-56.5"/>
<text text-anchor="start" x="852" y="-96.5" font-family="Helvetica,sans-Serif" font-size="10.00">asm/JSystem/JKernel</text>
<text text-anchor="start" x="852" y="-85.5" font-family="Helvetica,sans-Serif" font-size="10.00">/JKRCompArchive/fetchResource</text>
<text text-anchor="start" x="852" y="-74.5" font-family="Helvetica,sans-Serif" font-size="10.00">__14JKRCompArchiveFPQ210JKRArchive12</text>
<text text-anchor="middle" x="950.5" y="-63.5" font-family="Helvetica,sans-Serif" font-size="10.00">SDIFileEntryPUl.s</text>
</a>
</g>
</g>
<!-- Node1&#45;&gt;Node8 -->
<g id="edge8" class="edge">
<title>Node1&#45;&gt;Node8</title>
<path fill="none" stroke="midnightblue" d="M795.79,-145.38C818.93,-136.13 850.02,-123.69 878.26,-112.4"/>
<polygon fill="midnightblue" stroke="midnightblue" points="879.73,-115.58 887.71,-108.62 877.13,-109.08 879.73,-115.58"/>
</g>
<!-- Node9 -->
<g id="node9" class="node">
<title>Node9</title>
<g id="a_node9"><a xlink:title=" ">
<polygon fill="white" stroke="#bfbfbf" points="1075,-56.5 1075,-108.5 1310,-108.5 1310,-56.5 1075,-56.5"/>
<text text-anchor="start" x="1083" y="-96.5" font-family="Helvetica,sans-Serif" font-size="10.00">asm/JSystem/JKernel</text>
<text text-anchor="start" x="1083" y="-85.5" font-family="Helvetica,sans-Serif" font-size="10.00">/JKRCompArchive/fetchResource</text>
<text text-anchor="start" x="1083" y="-74.5" font-family="Helvetica,sans-Serif" font-size="10.00">__14JKRCompArchiveFPvUlPQ210JKRArchive12</text>
<text text-anchor="middle" x="1192.5" y="-63.5" font-family="Helvetica,sans-Serif" font-size="10.00">SDIFileEntryPUl.s</text>
</a>
</g>
</g>
<!-- Node1&#45;&gt;Node9 -->
<g id="edge9" class="edge">
<title>Node1&#45;&gt;Node9</title>
<path fill="none" stroke="midnightblue" d="M818.13,-150.62C877.56,-141.33 973.16,-125.98 1064.82,-109.29"/>
<polygon fill="midnightblue" stroke="midnightblue" points="1065.61,-112.7 1074.82,-107.46 1064.35,-105.81 1065.61,-112.7"/>
</g>
<!-- Node10 -->
<g id="node10" class="node">
<title>Node10</title>
<g id="a_node10"><a xlink:title=" ">
<polygon fill="white" stroke="#bfbfbf" points="1328,-62 1328,-103 1501,-103 1501,-62 1328,-62"/>
<text text-anchor="start" x="1336" y="-91" font-family="Helvetica,sans-Serif" font-size="10.00">asm/JSystem/JKernel</text>
<text text-anchor="start" x="1336" y="-80" font-family="Helvetica,sans-Serif" font-size="10.00">/JKRCompArchive/removeResource</text>
<text text-anchor="middle" x="1414.5" y="-69" font-family="Helvetica,sans-Serif" font-size="10.00">All__14JKRCompArchiveFv.s</text>
</a>
</g>
</g>
<!-- Node1&#45;&gt;Node10 -->
<g id="edge10" class="edge">
<title>Node1&#45;&gt;Node10</title>
<path fill="none" stroke="midnightblue" d="M818.07,-157.57C919.9,-153.42 1138.18,-141.28 1319.5,-109 1325.32,-107.96 1331.3,-106.74 1337.29,-105.41"/>
<polygon fill="midnightblue" stroke="midnightblue" points="1338.41,-108.74 1347.36,-103.06 1336.82,-101.92 1338.41,-108.74"/>
</g>
<!-- Node11 -->
<g id="node11" class="node">
<title>Node11</title>
<g id="a_node11"><a xlink:title=" ">
<polygon fill="white" stroke="#bfbfbf" points="1519,-62 1519,-103 1692,-103 1692,-62 1519,-62"/>
<text text-anchor="start" x="1527" y="-91" font-family="Helvetica,sans-Serif" font-size="10.00">asm/JSystem/JKernel</text>
<text text-anchor="start" x="1527" y="-80" font-family="Helvetica,sans-Serif" font-size="10.00">/JKRCompArchive/removeResource</text>
<text text-anchor="middle" x="1605.5" y="-69" font-family="Helvetica,sans-Serif" font-size="10.00">__14JKRCompArchiveFPv.s</text>
</a>
</g>
</g>
<!-- Node1&#45;&gt;Node11 -->
<g id="edge11" class="edge">
<title>Node1&#45;&gt;Node11</title>
<path fill="none" stroke="midnightblue" d="M818.34,-159.43C944.78,-158.45 1254.96,-151.48 1510.5,-109 1516.69,-107.97 1523.06,-106.71 1529.43,-105.31"/>
<polygon fill="midnightblue" stroke="midnightblue" points="1530.47,-108.66 1539.42,-103 1528.89,-101.84 1530.47,-108.66"/>
</g>
<!-- Node12 -->
<g id="node12" class="node">
<title>Node12</title>
<g id="a_node12"><a xlink:title=" ">
<polygon fill="white" stroke="#bfbfbf" points="1710.5,-62 1710.5,-103 1900.5,-103 1900.5,-62 1710.5,-62"/>
<text text-anchor="start" x="1718.5" y="-91" font-family="Helvetica,sans-Serif" font-size="10.00">asm/JSystem/JKernel</text>
<text text-anchor="start" x="1718.5" y="-80" font-family="Helvetica,sans-Serif" font-size="10.00">/JKRCompArchive/getExpanded</text>
<text text-anchor="middle" x="1805.5" y="-69" font-family="Helvetica,sans-Serif" font-size="10.00">ResSize__14JKRCompArchiveCFPCv.s</text>
</a>
</g>
</g>
<!-- Node1&#45;&gt;Node12 -->
<g id="edge12" class="edge">
<title>Node1&#45;&gt;Node12</title>
<path fill="none" stroke="midnightblue" d="M818.16,-160.14C965.89,-160.96 1369.73,-158.13 1701.5,-109 1708.64,-107.94 1716.01,-106.62 1723.38,-105.13"/>
<polygon fill="midnightblue" stroke="midnightblue" points="1724.33,-108.51 1733.39,-103.02 1722.88,-101.66 1724.33,-108.51"/>
</g>
<!-- Node4&#45;&gt;Node3 -->
<g id="edge4" class="edge">
<title>Node4&#45;&gt;Node3</title>
<path fill="none" stroke="midnightblue" d="M200.27,-72.86C190.89,-61.65 174.33,-41.87 162.47,-27.69"/>
<polygon fill="midnightblue" stroke="midnightblue" points="164.9,-25.14 155.79,-19.72 159.53,-29.63 164.9,-25.14"/>
</g>
</g>
</svg>
        <g id="navigator" transform="translate(0 0)" fill="#404254">
                <rect fill="#f2f5e9" fill-opacity="0.5" stroke="#606060" stroke-width=".5" x="0" y="0" width="60" height="60"/>
                <use id="zoomplus" xlink:href="#zoomPlus" x="17" y="9" onmousedown="handleZoom(evt,'in')"/>
                <use id="zoomminus" xlink:href="#zoomMin" x="42" y="9" onmousedown="handleZoom(evt,'out')"/>
                <use id="reset" xlink:href="#resetDef" x="30" y="36" onmousedown="handleReset()"/>
                <g id="arrowUp" xlink:href="#dirArrow" transform="translate(30 24)" onmousedown="handlePan(0,-1)">
                  <use xlink:href="#rim" fill="#404040">
                        <set attributeName="fill" to="#808080" begin="arrowUp.mouseover" end="arrowUp.mouseout"/>
                  </use>
                  <path fill="none" stroke="white" stroke-width="1.5" d="M0,-3.0v7 M-2.5,-0.5L0,-3.0L2.5,-0.5"/>
                </g>
                <g id="arrowRight" xlink:href="#dirArrow" transform="rotate(90) translate(36 -43)" onmousedown="handlePan(1,0)">
                  <use xlink:href="#rim" fill="#404040">
                        <set attributeName="fill" to="#808080" begin="arrowRight.mouseover" end="arrowRight.mouseout"/>
                  </use>
                  <path fill="none" stroke="white" stroke-width="1.5" d="M0,-3.0v7 M-2.5,-0.5L0,-3.0L2.5,-0.5"/>
                </g>
                <g id="arrowDown" xlink:href="#dirArrow" transform="rotate(180) translate(-30 -48)" onmousedown="handlePan(0,1)">
                  <use xlink:href="#rim" fill="#404040">
                        <set attributeName="fill" to="#808080" begin="arrowDown.mouseover" end="arrowDown.mouseout"/>
                  </use>
                  <path fill="none" stroke="white" stroke-width="1.5" d="M0,-3.0v7 M-2.5,-0.5L0,-3.0L2.5,-0.5"/>
                </g>
                <g id="arrowLeft" xlink:href="#dirArrow" transform="rotate(270) translate(-36 17)" onmousedown="handlePan(-1,0)">
                  <use xlink:href="#rim" fill="#404040">
                        <set attributeName="fill" to="#808080" begin="arrowLeft.mouseover" end="arrowLeft.mouseout"/>
                  </use>
                  <path fill="none" stroke="white" stroke-width="1.5" d="M0,-3.0v7 M-2.5,-0.5L0,-3.0L2.5,-0.5"/>
                </g>
        </g>
        <svg viewBox="0 0 15 15" width="100%" height="30px" preserveAspectRatio="xMaxYMin meet">
         <g id="arrow_out" transform="scale(0.3 0.3)">
          <a xlink:href="JKRCompArchive_8cpp__incl_org.svg" target="_base">
           <rect id="button" ry="5" rx="5" y="6" x="6" height="38" width="38"
                fill="#f2f5e9" fill-opacity="0.5" stroke="#606060" stroke-width="1.0"/>
           <path id="arrow"
             d="M 11.500037,31.436501 C 11.940474,20.09759 22.043105,11.32322 32.158766,21.979434 L 37.068811,17.246167 C 37.068811,17.246167 37.088388,32 37.088388,32 L 22.160133,31.978069 C 22.160133,31.978069 26.997745,27.140456 26.997745,27.140456 C 18.528582,18.264221 13.291696,25.230495 11.500037,31.436501 z"
             style="fill:#404040;"/>
          </a>
         </g>
        </svg>
</svg>
