<?xml version="1.0" encoding="UTF-8" standalone="no"?>
<!DOCTYPE svg PUBLIC "-//W3C//DTD SVG 1.1//EN"
 "http://www.w3.org/Graphics/SVG/1.1/DTD/svg11.dtd">
<!-- Generated by graphviz version 2.47.0 (20210316.2052)
 -->
<!-- Title: libs/JSystem/JKernel/JKRDisposer.cpp Pages: 1 -->
<svg width="710pt" height="162pt"
 viewBox="0.00 0.00 709.50 162.00" xmlns="http://www.w3.org/2000/svg" xmlns:xlink="http://www.w3.org/1999/xlink">
<g id="graph0" class="graph" transform="scale(1 1) rotate(0) translate(4 158)">
<title>libs/JSystem/JKernel/JKRDisposer.cpp</title>
<polygon fill="white" stroke="transparent" points="-4,4 -4,-158 705.5,-158 705.5,4 -4,4"/>
<!-- Node1 -->
<g id="node1" class="node">
<title>Node1</title>
<g id="a_node1"><a xlink:title=" ">
<polygon fill="#bfbfbf" stroke="black" points="190.5,-123.5 190.5,-153.5 299.5,-153.5 299.5,-123.5 190.5,-123.5"/>
<text text-anchor="start" x="198.5" y="-141.5" font-family="Helvetica,sans-Serif" font-size="10.00">libs/JSystem/JKernel</text>
<text text-anchor="middle" x="245" y="-130.5" font-family="Helvetica,sans-Serif" font-size="10.00">/JKRDisposer.cpp</text>
</a>
</g>
</g>
<!-- Node2 -->
<g id="node2" class="node">
<title>Node2</title>
<g id="a_node2"><a xlink:href="JKRDisposer_8h.html" target="_top" xlink:title=" ">
<polygon fill="white" stroke="black" points="0,-62 0,-81 158,-81 158,-62 0,-62"/>
<text text-anchor="middle" x="79" y="-69" font-family="Helvetica,sans-Serif" font-size="10.00">JSystem/JKernel/JKRDisposer.h</text>
</a>
</g>
</g>
<!-- Node1&#45;&gt;Node2 -->
<g id="edge1" class="edge">
<title>Node1&#45;&gt;Node2</title>
<path fill="none" stroke="midnightblue" d="M208.98,-123.4C179.47,-111.84 138.14,-95.66 110.06,-84.66"/>
<polygon fill="midnightblue" stroke="midnightblue" points="111.31,-81.39 100.73,-81.01 108.76,-87.91 111.31,-81.39"/>
</g>
<!-- Node3 -->
<g id="node3" class="node">
<title>Node3</title>
<g id="a_node3"><a xlink:href="types_8h.html" target="_top" xlink:title=" ">
<polygon fill="white" stroke="black" points="91.5,-0.5 91.5,-19.5 172.5,-19.5 172.5,-0.5 91.5,-0.5"/>
<text text-anchor="middle" x="132" y="-7.5" font-family="Helvetica,sans-Serif" font-size="10.00">dolphin/types.h</text>
</a>
</g>
</g>
<!-- Node1&#45;&gt;Node3 -->
<g id="edge4" class="edge">
<title>Node1&#45;&gt;Node3</title>
<path fill="none" stroke="midnightblue" d="M232.48,-123.48C211.41,-99.9 169.01,-52.43 146.62,-27.36"/>
<polygon fill="midnightblue" stroke="midnightblue" points="149.12,-24.91 139.85,-19.79 143.9,-29.58 149.12,-24.91"/>
</g>
<!-- Node4 -->
<g id="node4" class="node">
<title>Node4</title>
<g id="a_node4"><a xlink:href="dol2asm_8h.html" target="_top" xlink:title=" ">
<polygon fill="white" stroke="black" points="214.5,-62 214.5,-81 275.5,-81 275.5,-62 214.5,-62"/>
<text text-anchor="middle" x="245" y="-69" font-family="Helvetica,sans-Serif" font-size="10.00">dol2asm.h</text>
</a>
</g>
</g>
<!-- Node1&#45;&gt;Node4 -->
<g id="edge3" class="edge">
<title>Node1&#45;&gt;Node4</title>
<path fill="none" stroke="midnightblue" d="M245,-123.4C245,-114.06 245,-101.71 245,-91.52"/>
<polygon fill="midnightblue" stroke="midnightblue" points="248.5,-91.19 245,-81.19 241.5,-91.19 248.5,-91.19"/>
</g>
<!-- Node5 -->
<g id="node5" class="node">
<title>Node5</title>
<g id="a_node5"><a xlink:title=" ">
<polygon fill="white" stroke="#bfbfbf" points="293.5,-56.5 293.5,-86.5 488.5,-86.5 488.5,-56.5 293.5,-56.5"/>
<text text-anchor="start" x="301.5" y="-74.5" font-family="Helvetica,sans-Serif" font-size="10.00">asm/JSystem/JKernel</text>
<text text-anchor="middle" x="391" y="-63.5" font-family="Helvetica,sans-Serif" font-size="10.00">/JKRDisposer/__ct__11JKRDisposerFv.s</text>
</a>
</g>
</g>
<!-- Node1&#45;&gt;Node5 -->
<g id="edge5" class="edge">
<title>Node1&#45;&gt;Node5</title>
<path fill="none" stroke="midnightblue" d="M276.68,-123.4C298.2,-113.81 326.87,-101.05 350.12,-90.7"/>
<polygon fill="midnightblue" stroke="midnightblue" points="351.67,-93.84 359.38,-86.58 348.82,-87.45 351.67,-93.84"/>
</g>
<!-- Node6 -->
<g id="node6" class="node">
<title>Node6</title>
<g id="a_node6"><a xlink:title=" ">
<polygon fill="white" stroke="#bfbfbf" points="506.5,-56.5 506.5,-86.5 701.5,-86.5 701.5,-56.5 506.5,-56.5"/>
<text text-anchor="start" x="514.5" y="-74.5" font-family="Helvetica,sans-Serif" font-size="10.00">asm/JSystem/JKernel</text>
<text text-anchor="middle" x="604" y="-63.5" font-family="Helvetica,sans-Serif" font-size="10.00">/JKRDisposer/__dt__11JKRDisposerFv.s</text>
</a>
</g>
</g>
<!-- Node1&#45;&gt;Node6 -->
<g id="edge6" class="edge">
<title>Node1&#45;&gt;Node6</title>
<path fill="none" stroke="midnightblue" d="M299.52,-127.63C357.08,-117.21 448.67,-100.62 516.38,-88.36"/>
<polygon fill="midnightblue" stroke="midnightblue" points="517.4,-91.74 526.62,-86.51 516.15,-84.85 517.4,-91.74"/>
</g>
<!-- Node2&#45;&gt;Node3 -->
<g id="edge2" class="edge">
<title>Node2&#45;&gt;Node3</title>
<path fill="none" stroke="midnightblue" d="M86.59,-61.98C94.7,-52.87 107.73,-38.24 117.76,-26.98"/>
<polygon fill="midnightblue" stroke="midnightblue" points="120.38,-29.3 124.42,-19.51 115.16,-24.65 120.38,-29.3"/>
</g>
</g>
</svg>
