<?xml version="1.0" encoding="UTF-8" standalone="no"?>
<!DOCTYPE svg PUBLIC "-//W3C//DTD SVG 1.1//EN"
 "http://www.w3.org/Graphics/SVG/1.1/DTD/svg11.dtd">
<!-- Generated by graphviz version 2.47.0 (20210316.2052)
 -->
<!-- Title: libs/JSystem/JKernel/JKRFile.cpp Pages: 1 -->
<svg width="436pt" height="162pt"
 viewBox="0.00 0.00 436.00 162.00" xmlns="http://www.w3.org/2000/svg" xmlns:xlink="http://www.w3.org/1999/xlink">
<g id="graph0" class="graph" transform="scale(1 1) rotate(0) translate(4 158)">
<title>libs/JSystem/JKernel/JKRFile.cpp</title>
<polygon fill="white" stroke="transparent" points="-4,4 -4,-158 432,-158 432,4 -4,4"/>
<!-- Node1 -->
<g id="node1" class="node">
<title>Node1</title>
<g id="a_node1"><a xlink:title=" ">
<polygon fill="#bfbfbf" stroke="black" points="138.5,-123.5 138.5,-153.5 247.5,-153.5 247.5,-123.5 138.5,-123.5"/>
<text text-anchor="start" x="146.5" y="-141.5" font-family="Helvetica,sans-Serif" font-size="10.00">libs/JSystem/JKernel</text>
<text text-anchor="middle" x="193" y="-130.5" font-family="Helvetica,sans-Serif" font-size="10.00">/JKRFile.cpp</text>
</a>
</g>
</g>
<!-- Node2 -->
<g id="node2" class="node">
<title>Node2</title>
<g id="a_node2"><a xlink:href="JKRFile_8h.html" target="_top" xlink:title=" ">
<polygon fill="white" stroke="black" points="0,-62 0,-81 136,-81 136,-62 0,-62"/>
<text text-anchor="middle" x="68" y="-69" font-family="Helvetica,sans-Serif" font-size="10.00">JSystem/JKernel/JKRFile.h</text>
</a>
</g>
</g>
<!-- Node1&#45;&gt;Node2 -->
<g id="edge1" class="edge">
<title>Node1&#45;&gt;Node2</title>
<path fill="none" stroke="midnightblue" d="M165.88,-123.4C144.33,-112.19 114.43,-96.64 93.36,-85.69"/>
<polygon fill="midnightblue" stroke="midnightblue" points="94.85,-82.52 84.36,-81.01 91.62,-88.73 94.85,-82.52"/>
</g>
<!-- Node3 -->
<g id="node3" class="node">
<title>Node3</title>
<g id="a_node3"><a xlink:href="types_8h.html" target="_top" xlink:title=" ">
<polygon fill="white" stroke="black" points="75.5,-0.5 75.5,-19.5 156.5,-19.5 156.5,-0.5 75.5,-0.5"/>
<text text-anchor="middle" x="116" y="-7.5" font-family="Helvetica,sans-Serif" font-size="10.00">dolphin/types.h</text>
</a>
</g>
</g>
<!-- Node1&#45;&gt;Node3 -->
<g id="edge4" class="edge">
<title>Node1&#45;&gt;Node3</title>
<path fill="none" stroke="midnightblue" d="M184.85,-123.26C175.43,-106.91 159.39,-79.34 145,-56 139.26,-46.69 132.67,-36.43 127.22,-28.06"/>
<polygon fill="midnightblue" stroke="midnightblue" points="130.07,-26.01 121.66,-19.56 124.21,-29.85 130.07,-26.01"/>
</g>
<!-- Node4 -->
<g id="node4" class="node">
<title>Node4</title>
<g id="a_node4"><a xlink:href="dol2asm_8h.html" target="_top" xlink:title=" ">
<polygon fill="white" stroke="black" points="192.5,-62 192.5,-81 253.5,-81 253.5,-62 192.5,-62"/>
<text text-anchor="middle" x="223" y="-69" font-family="Helvetica,sans-Serif" font-size="10.00">dol2asm.h</text>
</a>
</g>
</g>
<!-- Node1&#45;&gt;Node4 -->
<g id="edge3" class="edge">
<title>Node1&#45;&gt;Node4</title>
<path fill="none" stroke="midnightblue" d="M199.51,-123.4C203.96,-113.76 209.89,-100.91 214.68,-90.54"/>
<polygon fill="midnightblue" stroke="midnightblue" points="217.97,-91.74 218.99,-81.19 211.62,-88.81 217.97,-91.74"/>
</g>
<!-- Node5 -->
<g id="node5" class="node">
<title>Node5</title>
<g id="a_node5"><a xlink:title=" ">
<polygon fill="white" stroke="#bfbfbf" points="272,-56.5 272,-86.5 428,-86.5 428,-56.5 272,-56.5"/>
<text text-anchor="start" x="280" y="-74.5" font-family="Helvetica,sans-Serif" font-size="10.00">asm/JSystem/JKernel</text>
<text text-anchor="middle" x="350" y="-63.5" font-family="Helvetica,sans-Serif" font-size="10.00">/JKRFile/read__7JKRFileFPvll.s</text>
</a>
</g>
</g>
<!-- Node1&#45;&gt;Node5 -->
<g id="edge5" class="edge">
<title>Node1&#45;&gt;Node5</title>
<path fill="none" stroke="midnightblue" d="M227.07,-123.4C250.42,-113.73 281.59,-100.82 306.7,-90.43"/>
<polygon fill="midnightblue" stroke="midnightblue" points="308.1,-93.64 316,-86.58 305.42,-87.17 308.1,-93.64"/>
</g>
<!-- Node2&#45;&gt;Node3 -->
<g id="edge2" class="edge">
<title>Node2&#45;&gt;Node3</title>
<path fill="none" stroke="midnightblue" d="M74.88,-61.98C82.15,-52.96 93.8,-38.52 102.84,-27.31"/>
<polygon fill="midnightblue" stroke="midnightblue" points="105.58,-29.49 109.14,-19.51 100.13,-25.09 105.58,-29.49"/>
</g>
</g>
</svg>
