<?xml version="1.0" encoding="UTF-8" standalone="no"?>
<!DOCTYPE svg PUBLIC "-//W3C//DTD SVG 1.1//EN"
 "http://www.w3.org/Graphics/SVG/1.1/DTD/svg11.dtd">
<!-- Generated by graphviz version 2.47.0 (20210316.2052)
 -->
<!-- Title: libs/JSystem/JKernel/JKRFileLoader.cpp Pages: 1 -->
<!--zoomable 173 -->
<svg id="main" version="1.1" xmlns="http://www.w3.org/2000/svg" xmlns:xlink="http://www.w3.org/1999/xlink" xml:space="preserve" onload="init(evt)">
<style type="text/css"><![CDATA[
.edge:hover path { stroke: red; }
.edge:hover polygon { stroke: red; fill: red; }
]]></style>
<script type="text/javascript"><![CDATA[
var edges = document.getElementsByTagName('g');
if (edges && edges.length) {
  for (var i=0;i<edges.length;i++) {
    if (edges[i].id.substr(0,4)=='edge') {
      edges[i].setAttribute('class','edge');
    }
  }
}
]]></script>
        <defs>
                <circle id="rim" cx="0" cy="0" r="7"/>
                <circle id="rim2" cx="0" cy="0" r="3.5"/>
                <g id="zoomPlus">
                        <use xlink:href="#rim" fill="#404040">
                                <set attributeName="fill" to="#808080" begin="zoomplus.mouseover" end="zoomplus.mouseout"/>
                        </use>
                        <path d="M-4,0h8M0,-4v8" fill="none" stroke="white" stroke-width="1.5" pointer-events="none"/>
                </g>
                <g id="zoomMin">
                        <use xlink:href="#rim" fill="#404040">
                                <set attributeName="fill" to="#808080" begin="zoomminus.mouseover" end="zoomminus.mouseout"/>
                        </use>
                        <path d="M-4,0h8" fill="none" stroke="white" stroke-width="1.5" pointer-events="none"/>
                </g>
                <g id="dirArrow">
                        <path fill="none" stroke="white" stroke-width="1.5" d="M0,-3.0v7 M-2.5,-0.5L0,-3.0L2.5,-0.5"/>
                </g>
               <g id="resetDef">
                       <use xlink:href="#rim2" fill="#404040">
                               <set attributeName="fill" to="#808080" begin="reset.mouseover" end="reset.mouseout"/>
                       </use>
               </g>
        </defs>

<script type="text/javascript">
var viewWidth = 2195;
var viewHeight = 173;
var sectionId = 'dynsection-0';
</script>
<script xlink:href="svgpan.js"/>
<svg id="graph" class="graph">
<g id="viewport">
<title>libs/JSystem/JKernel/JKRFileLoader.cpp</title>
<polygon fill="white" stroke="transparent" points="-4,4 -4,-169 2190.5,-169 2190.5,4 -4,4"/>
<!-- Node1 -->
<g id="node1" class="node">
<title>Node1</title>
<g id="a_node1"><a xlink:title=" ">
<polygon fill="#bfbfbf" stroke="black" points="848.5,-134.5 848.5,-164.5 957.5,-164.5 957.5,-134.5 848.5,-134.5"/>
<text text-anchor="start" x="856.5" y="-152.5" font-family="Helvetica,sans-Serif" font-size="10.00">libs/JSystem/JKernel</text>
<text text-anchor="middle" x="903" y="-141.5" font-family="Helvetica,sans-Serif" font-size="10.00">/JKRFileLoader.cpp</text>
</a>
</g>
</g>
<!-- Node2 -->
<g id="node2" class="node">
<title>Node2</title>
<g id="a_node2"><a xlink:href="JKRFileLoader_8h.html" target="_top" xlink:title=" ">
<polygon fill="white" stroke="black" points="0,-67.5 0,-86.5 166,-86.5 166,-67.5 0,-67.5"/>
<text text-anchor="middle" x="83" y="-74.5" font-family="Helvetica,sans-Serif" font-size="10.00">JSystem/JKernel/JKRFileLoader.h</text>
</a>
</g>
</g>
<!-- Node1&#45;&gt;Node2 -->
<g id="edge1" class="edge">
<title>Node1&#45;&gt;Node2</title>
<path fill="none" stroke="midnightblue" d="M848.33,-147.17C727.35,-143.69 428.06,-132.08 180,-98 163.23,-95.7 145.02,-92.21 128.95,-88.78"/>
<polygon fill="midnightblue" stroke="midnightblue" points="129.25,-85.27 118.73,-86.56 127.76,-92.11 129.25,-85.27"/>
</g>
<!-- Node3 -->
<g id="node3" class="node">
<title>Node3</title>
<g id="a_node3"><a xlink:href="types_8h.html" target="_top" xlink:title=" ">
<polygon fill="white" stroke="black" points="97.5,-0.5 97.5,-19.5 178.5,-19.5 178.5,-0.5 97.5,-0.5"/>
<text text-anchor="middle" x="138" y="-7.5" font-family="Helvetica,sans-Serif" font-size="10.00">dolphin/types.h</text>
</a>
</g>
</g>
<!-- Node1&#45;&gt;Node3 -->
<g id="edge4" class="edge">
<title>Node1&#45;&gt;Node3</title>
<path fill="none" stroke="midnightblue" d="M848.35,-146.87C695.34,-141.99 270.17,-126.04 214,-98 209.89,-95.95 172.67,-52.19 151.88,-27.54"/>
<polygon fill="midnightblue" stroke="midnightblue" points="154.42,-25.11 145.3,-19.71 149.06,-29.61 154.42,-25.11"/>
</g>
<!-- Node4 -->
<g id="node4" class="node">
<title>Node4</title>
<g id="a_node4"><a xlink:href="dol2asm_8h.html" target="_top" xlink:title=" ">
<polygon fill="white" stroke="black" points="222.5,-67.5 222.5,-86.5 283.5,-86.5 283.5,-67.5 222.5,-67.5"/>
<text text-anchor="middle" x="253" y="-74.5" font-family="Helvetica,sans-Serif" font-size="10.00">dol2asm.h</text>
</a>
</g>
</g>
<!-- Node1&#45;&gt;Node4 -->
<g id="edge3" class="edge">
<title>Node1&#45;&gt;Node4</title>
<path fill="none" stroke="midnightblue" d="M848.27,-146.63C718.78,-141.76 396.73,-127.06 293,-98 287.3,-96.4 281.45,-93.98 276.04,-91.37"/>
<polygon fill="midnightblue" stroke="midnightblue" points="277.39,-88.13 266.91,-86.6 274.15,-94.34 277.39,-88.13"/>
</g>
<!-- Node5 -->
<g id="node5" class="node">
<title>Node5</title>
<g id="a_node5"><a xlink:title=" ">
<polygon fill="white" stroke="#bfbfbf" points="301.5,-56.5 301.5,-97.5 422.5,-97.5 422.5,-56.5 301.5,-56.5"/>
<text text-anchor="start" x="309.5" y="-85.5" font-family="Helvetica,sans-Serif" font-size="10.00">asm/JSystem/JKernel</text>
<text text-anchor="start" x="309.5" y="-74.5" font-family="Helvetica,sans-Serif" font-size="10.00">/JKRFileLoader/__ct</text>
<text text-anchor="middle" x="362" y="-63.5" font-family="Helvetica,sans-Serif" font-size="10.00">__13JKRFileLoaderFv.s</text>
</a>
</g>
</g>
<!-- Node1&#45;&gt;Node5 -->
<g id="edge5" class="edge">
<title>Node1&#45;&gt;Node5</title>
<path fill="none" stroke="midnightblue" d="M848.15,-145.68C761.73,-140.56 588.57,-127.61 432.79,-97.96"/>
<polygon fill="midnightblue" stroke="midnightblue" points="433.03,-94.45 422.55,-95.99 431.71,-101.32 433.03,-94.45"/>
</g>
<!-- Node6 -->
<g id="node6" class="node">
<title>Node6</title>
<g id="a_node6"><a xlink:title=" ">
<polygon fill="white" stroke="#bfbfbf" points="440.5,-56.5 440.5,-97.5 561.5,-97.5 561.5,-56.5 440.5,-56.5"/>
<text text-anchor="start" x="448.5" y="-85.5" font-family="Helvetica,sans-Serif" font-size="10.00">asm/JSystem/JKernel</text>
<text text-anchor="start" x="448.5" y="-74.5" font-family="Helvetica,sans-Serif" font-size="10.00">/JKRFileLoader/__dt</text>
<text text-anchor="middle" x="501" y="-63.5" font-family="Helvetica,sans-Serif" font-size="10.00">__13JKRFileLoaderFv.s</text>
</a>
</g>
</g>
<!-- Node1&#45;&gt;Node6 -->
<g id="edge6" class="edge">
<title>Node1&#45;&gt;Node6</title>
<path fill="none" stroke="midnightblue" d="M848.27,-142.34C784.2,-134.66 674.8,-120.03 571.56,-97.98"/>
<polygon fill="midnightblue" stroke="midnightblue" points="572.1,-94.52 561.59,-95.82 570.62,-101.36 572.1,-94.52"/>
</g>
<!-- Node7 -->
<g id="node7" class="node">
<title>Node7</title>
<g id="a_node7"><a xlink:title=" ">
<polygon fill="white" stroke="#bfbfbf" points="579.5,-56.5 579.5,-97.5 704.5,-97.5 704.5,-56.5 579.5,-56.5"/>
<text text-anchor="start" x="587.5" y="-85.5" font-family="Helvetica,sans-Serif" font-size="10.00">asm/JSystem/JKernel</text>
<text text-anchor="start" x="587.5" y="-74.5" font-family="Helvetica,sans-Serif" font-size="10.00">/JKRFileLoader/unmount</text>
<text text-anchor="middle" x="642" y="-63.5" font-family="Helvetica,sans-Serif" font-size="10.00">__13JKRFileLoaderFv.s</text>
</a>
</g>
</g>
<!-- Node1&#45;&gt;Node7 -->
<g id="edge7" class="edge">
<title>Node1&#45;&gt;Node7</title>
<path fill="none" stroke="midnightblue" d="M850.01,-134.49C814.4,-125.04 766.15,-112.17 714.79,-98.2"/>
<polygon fill="midnightblue" stroke="midnightblue" points="715.39,-94.74 704.82,-95.49 713.55,-101.49 715.39,-94.74"/>
</g>
<!-- Node8 -->
<g id="node8" class="node">
<title>Node8</title>
<g id="a_node8"><a xlink:title=" ">
<polygon fill="white" stroke="#bfbfbf" points="722.5,-56.5 722.5,-97.5 879.5,-97.5 879.5,-56.5 722.5,-56.5"/>
<text text-anchor="start" x="730.5" y="-85.5" font-family="Helvetica,sans-Serif" font-size="10.00">asm/JSystem/JKernel</text>
<text text-anchor="start" x="730.5" y="-74.5" font-family="Helvetica,sans-Serif" font-size="10.00">/JKRFileLoader/getGlbResource</text>
<text text-anchor="middle" x="801" y="-63.5" font-family="Helvetica,sans-Serif" font-size="10.00">__13JKRFileLoaderFPCc.s</text>
</a>
</g>
</g>
<!-- Node1&#45;&gt;Node8 -->
<g id="edge8" class="edge">
<title>Node1&#45;&gt;Node8</title>
<path fill="none" stroke="midnightblue" d="M882.36,-134.23C869.61,-125.42 852.88,-113.86 837.91,-103.51"/>
<polygon fill="midnightblue" stroke="midnightblue" points="839.56,-100.4 829.34,-97.59 835.58,-106.15 839.56,-100.4"/>
</g>
<!-- Node9 -->
<g id="node9" class="node">
<title>Node9</title>
<g id="a_node9"><a xlink:title=" ">
<polygon fill="white" stroke="#bfbfbf" points="898,-56.5 898,-97.5 1114,-97.5 1114,-56.5 898,-56.5"/>
<text text-anchor="start" x="906" y="-85.5" font-family="Helvetica,sans-Serif" font-size="10.00">asm/JSystem/JKernel</text>
<text text-anchor="start" x="906" y="-74.5" font-family="Helvetica,sans-Serif" font-size="10.00">/JKRFileLoader/getGlbResource</text>
<text text-anchor="middle" x="1006" y="-63.5" font-family="Helvetica,sans-Serif" font-size="10.00">__13JKRFileLoaderFPCcP13JKRFileLoader.s</text>
</a>
</g>
</g>
<!-- Node1&#45;&gt;Node9 -->
<g id="edge9" class="edge">
<title>Node1&#45;&gt;Node9</title>
<path fill="none" stroke="midnightblue" d="M923.84,-134.23C936.72,-125.42 953.61,-113.86 968.73,-103.51"/>
<polygon fill="midnightblue" stroke="midnightblue" points="971.11,-106.12 977.38,-97.59 967.15,-100.35 971.11,-106.12"/>
</g>
<!-- Node10 -->
<g id="node10" class="node">
<title>Node10</title>
<g id="a_node10"><a xlink:title=" ">
<polygon fill="white" stroke="#bfbfbf" points="1132.5,-56.5 1132.5,-97.5 1341.5,-97.5 1341.5,-56.5 1132.5,-56.5"/>
<text text-anchor="start" x="1140.5" y="-85.5" font-family="Helvetica,sans-Serif" font-size="10.00">asm/JSystem/JKernel</text>
<text text-anchor="start" x="1140.5" y="-74.5" font-family="Helvetica,sans-Serif" font-size="10.00">/JKRFileLoader/removeResource</text>
<text text-anchor="middle" x="1237" y="-63.5" font-family="Helvetica,sans-Serif" font-size="10.00">__13JKRFileLoaderFPvP13JKRFileLoader.s</text>
</a>
</g>
</g>
<!-- Node1&#45;&gt;Node10 -->
<g id="edge10" class="edge">
<title>Node1&#45;&gt;Node10</title>
<path fill="none" stroke="midnightblue" d="M957.78,-136.94C1005.54,-126.86 1076.09,-111.96 1134.33,-99.67"/>
<polygon fill="midnightblue" stroke="midnightblue" points="1135.24,-103.06 1144.3,-97.57 1133.8,-96.21 1135.24,-103.06"/>
</g>
<!-- Node11 -->
<g id="node11" class="node">
<title>Node11</title>
<g id="a_node11"><a xlink:title=" ">
<polygon fill="white" stroke="#bfbfbf" points="1359.5,-56.5 1359.5,-97.5 1568.5,-97.5 1568.5,-56.5 1359.5,-56.5"/>
<text text-anchor="start" x="1367.5" y="-85.5" font-family="Helvetica,sans-Serif" font-size="10.00">asm/JSystem/JKernel</text>
<text text-anchor="start" x="1367.5" y="-74.5" font-family="Helvetica,sans-Serif" font-size="10.00">/JKRFileLoader/detachResource</text>
<text text-anchor="middle" x="1464" y="-63.5" font-family="Helvetica,sans-Serif" font-size="10.00">__13JKRFileLoaderFPvP13JKRFileLoader.s</text>
</a>
</g>
</g>
<!-- Node1&#45;&gt;Node11 -->
<g id="edge11" class="edge">
<title>Node1&#45;&gt;Node11</title>
<path fill="none" stroke="midnightblue" d="M957.62,-143.46C1040.24,-135.59 1202.15,-119.22 1349.26,-98.21"/>
<polygon fill="midnightblue" stroke="midnightblue" points="1349.98,-101.64 1359.38,-96.76 1348.98,-94.72 1349.98,-101.64"/>
</g>
<!-- Node12 -->
<g id="node12" class="node">
<title>Node12</title>
<g id="a_node12"><a xlink:title=" ">
<polygon fill="white" stroke="#bfbfbf" points="1586.5,-56.5 1586.5,-97.5 1727.5,-97.5 1727.5,-56.5 1586.5,-56.5"/>
<text text-anchor="start" x="1594.5" y="-85.5" font-family="Helvetica,sans-Serif" font-size="10.00">asm/JSystem/JKernel</text>
<text text-anchor="start" x="1594.5" y="-74.5" font-family="Helvetica,sans-Serif" font-size="10.00">/JKRFileLoader/findVolume</text>
<text text-anchor="middle" x="1657" y="-63.5" font-family="Helvetica,sans-Serif" font-size="10.00">__13JKRFileLoaderFPPCc.s</text>
</a>
</g>
</g>
<!-- Node1&#45;&gt;Node12 -->
<g id="edge12" class="edge">
<title>Node1&#45;&gt;Node12</title>
<path fill="none" stroke="midnightblue" d="M957.62,-147.61C1071.32,-145.08 1341.7,-135.46 1576.4,-98.12"/>
<polygon fill="midnightblue" stroke="midnightblue" points="1577.18,-101.54 1586.49,-96.49 1576.06,-94.63 1577.18,-101.54"/>
</g>
<!-- Node13 -->
<g id="node13" class="node">
<title>Node13</title>
<g id="a_node13"><a xlink:title=" ">
<polygon fill="white" stroke="#bfbfbf" points="1745.5,-56.5 1745.5,-97.5 1920.5,-97.5 1920.5,-56.5 1745.5,-56.5"/>
<text text-anchor="start" x="1753.5" y="-85.5" font-family="Helvetica,sans-Serif" font-size="10.00">asm/JSystem/JKernel</text>
<text text-anchor="start" x="1753.5" y="-74.5" font-family="Helvetica,sans-Serif" font-size="10.00">/JKRFileLoader/fetchVolume</text>
<text text-anchor="middle" x="1833" y="-63.5" font-family="Helvetica,sans-Serif" font-size="10.00">Name__13JKRFileLoaderFPclPCc.s</text>
</a>
</g>
</g>
<!-- Node1&#45;&gt;Node13 -->
<g id="edge13" class="edge">
<title>Node1&#45;&gt;Node13</title>
<path fill="none" stroke="midnightblue" d="M957.91,-147.92C1090.23,-145.94 1437.22,-137.23 1735.32,-98.13"/>
<polygon fill="midnightblue" stroke="midnightblue" points="1736,-101.57 1745.46,-96.78 1735.08,-94.63 1736,-101.57"/>
</g>
<!-- Node14 -->
<g id="node14" class="node">
<title>Node14</title>
<g id="a_node14"><a xlink:title=" ">
<polygon fill="white" stroke="#bfbfbf" points="1939,-56.5 1939,-97.5 2055,-97.5 2055,-56.5 1939,-56.5"/>
<text text-anchor="start" x="1947" y="-85.5" font-family="Helvetica,sans-Serif" font-size="10.00">asm/JSystem/JKernel</text>
<text text-anchor="start" x="1947" y="-74.5" font-family="Helvetica,sans-Serif" font-size="10.00">/JKRFileLoader/__sinit</text>
<text text-anchor="middle" x="1997" y="-63.5" font-family="Helvetica,sans-Serif" font-size="10.00">_JKRFileLoader_cpp.s</text>
</a>
</g>
</g>
<!-- Node1&#45;&gt;Node14 -->
<g id="edge14" class="edge">
<title>Node1&#45;&gt;Node14</title>
<path fill="none" stroke="midnightblue" d="M957.74,-147.55C1139.29,-144.11 1721.24,-130.9 1928.84,-97.93"/>
<polygon fill="midnightblue" stroke="midnightblue" points="1929.44,-101.38 1938.73,-96.29 1928.29,-94.47 1929.44,-101.38"/>
</g>
<!-- Node15 -->
<g id="node15" class="node">
<title>Node15</title>
<g id="a_node15"><a xlink:title=" ">
<polygon fill="white" stroke="#bfbfbf" points="2073.5,-56.5 2073.5,-97.5 2186.5,-97.5 2186.5,-56.5 2073.5,-56.5"/>
<text text-anchor="start" x="2081.5" y="-85.5" font-family="Helvetica,sans-Serif" font-size="10.00">asm/JSystem/JKernel</text>
<text text-anchor="start" x="2081.5" y="-74.5" font-family="Helvetica,sans-Serif" font-size="10.00">/JKRFileLoader/func</text>
<text text-anchor="middle" x="2130" y="-63.5" font-family="Helvetica,sans-Serif" font-size="10.00">_802D45E4.s</text>
</a>
</g>
</g>
<!-- Node1&#45;&gt;Node15 -->
<g id="edge15" class="edge">
<title>Node1&#45;&gt;Node15</title>
<path fill="none" stroke="midnightblue" d="M957.82,-147.94C1154.9,-145.63 1827.79,-135.26 2063.45,-97.79"/>
<polygon fill="midnightblue" stroke="midnightblue" points="2064.04,-101.24 2073.34,-96.16 2062.9,-94.33 2064.04,-101.24"/>
</g>
<!-- Node2&#45;&gt;Node3 -->
<g id="edge2" class="edge">
<title>Node2&#45;&gt;Node3</title>
<path fill="none" stroke="midnightblue" d="M90.42,-67.23C98.99,-57.1 113.3,-40.19 123.99,-27.56"/>
<polygon fill="midnightblue" stroke="midnightblue" points="126.91,-29.52 130.7,-19.63 121.57,-25 126.91,-29.52"/>
</g>
</g>
</svg>
        <g id="navigator" transform="translate(0 0)" fill="#404254">
                <rect fill="#f2f5e9" fill-opacity="0.5" stroke="#606060" stroke-width=".5" x="0" y="0" width="60" height="60"/>
                <use id="zoomplus" xlink:href="#zoomPlus" x="17" y="9" onmousedown="handleZoom(evt,'in')"/>
                <use id="zoomminus" xlink:href="#zoomMin" x="42" y="9" onmousedown="handleZoom(evt,'out')"/>
                <use id="reset" xlink:href="#resetDef" x="30" y="36" onmousedown="handleReset()"/>
                <g id="arrowUp" xlink:href="#dirArrow" transform="translate(30 24)" onmousedown="handlePan(0,-1)">
                  <use xlink:href="#rim" fill="#404040">
                        <set attributeName="fill" to="#808080" begin="arrowUp.mouseover" end="arrowUp.mouseout"/>
                  </use>
                  <path fill="none" stroke="white" stroke-width="1.5" d="M0,-3.0v7 M-2.5,-0.5L0,-3.0L2.5,-0.5"/>
                </g>
                <g id="arrowRight" xlink:href="#dirArrow" transform="rotate(90) translate(36 -43)" onmousedown="handlePan(1,0)">
                  <use xlink:href="#rim" fill="#404040">
                        <set attributeName="fill" to="#808080" begin="arrowRight.mouseover" end="arrowRight.mouseout"/>
                  </use>
                  <path fill="none" stroke="white" stroke-width="1.5" d="M0,-3.0v7 M-2.5,-0.5L0,-3.0L2.5,-0.5"/>
                </g>
                <g id="arrowDown" xlink:href="#dirArrow" transform="rotate(180) translate(-30 -48)" onmousedown="handlePan(0,1)">
                  <use xlink:href="#rim" fill="#404040">
                        <set attributeName="fill" to="#808080" begin="arrowDown.mouseover" end="arrowDown.mouseout"/>
                  </use>
                  <path fill="none" stroke="white" stroke-width="1.5" d="M0,-3.0v7 M-2.5,-0.5L0,-3.0L2.5,-0.5"/>
                </g>
                <g id="arrowLeft" xlink:href="#dirArrow" transform="rotate(270) translate(-36 17)" onmousedown="handlePan(-1,0)">
                  <use xlink:href="#rim" fill="#404040">
                        <set attributeName="fill" to="#808080" begin="arrowLeft.mouseover" end="arrowLeft.mouseout"/>
                  </use>
                  <path fill="none" stroke="white" stroke-width="1.5" d="M0,-3.0v7 M-2.5,-0.5L0,-3.0L2.5,-0.5"/>
                </g>
        </g>
        <svg viewBox="0 0 15 15" width="100%" height="30px" preserveAspectRatio="xMaxYMin meet">
         <g id="arrow_out" transform="scale(0.3 0.3)">
          <a xlink:href="JKRFileLoader_8cpp__incl_org.svg" target="_base">
           <rect id="button" ry="5" rx="5" y="6" x="6" height="38" width="38"
                fill="#f2f5e9" fill-opacity="0.5" stroke="#606060" stroke-width="1.0"/>
           <path id="arrow"
             d="M 11.500037,31.436501 C 11.940474,20.09759 22.043105,11.32322 32.158766,21.979434 L 37.068811,17.246167 C 37.068811,17.246167 37.088388,32 37.088388,32 L 22.160133,31.978069 C 22.160133,31.978069 26.997745,27.140456 26.997745,27.140456 C 18.528582,18.264221 13.291696,25.230495 11.500037,31.436501 z"
             style="fill:#404040;"/>
          </a>
         </g>
        </svg>
</svg>
