<?xml version="1.0" encoding="UTF-8" standalone="no"?>
<!DOCTYPE svg PUBLIC "-//W3C//DTD SVG 1.1//EN"
 "http://www.w3.org/Graphics/SVG/1.1/DTD/svg11.dtd">
<!-- Generated by graphviz version 2.47.0 (20210316.2052)
 -->
<!-- Title: libs/JSystem/JKernel/JKRFileLoader.cpp Pages: 1 -->
<svg width="2195pt" height="173pt"
 viewBox="0.00 0.00 2195.00 173.00" xmlns="http://www.w3.org/2000/svg" xmlns:xlink="http://www.w3.org/1999/xlink">
<g id="graph0" class="graph" transform="scale(1 1) rotate(0) translate(4 169)">
<title>libs/JSystem/JKernel/JKRFileLoader.cpp</title>
<polygon fill="white" stroke="transparent" points="-4,4 -4,-169 2191,-169 2191,4 -4,4"/>
<!-- Node1 -->
<g id="node1" class="node">
<title>Node1</title>
<g id="a_node1"><a xlink:title=" ">
<polygon fill="#bfbfbf" stroke="black" points="849,-134.5 849,-164.5 958,-164.5 958,-134.5 849,-134.5"/>
<text text-anchor="start" x="857" y="-152.5" font-family="Helvetica,sans-Serif" font-size="10.00">libs/JSystem/JKernel</text>
<text text-anchor="middle" x="903.5" y="-141.5" font-family="Helvetica,sans-Serif" font-size="10.00">/JKRFileLoader.cpp</text>
</a>
</g>
</g>
<!-- Node2 -->
<g id="node2" class="node">
<title>Node2</title>
<g id="a_node2"><a xlink:href="dol2asm_8h.html" target="_top" xlink:title=" ">
<polygon fill="white" stroke="black" points="0,-67.5 0,-86.5 61,-86.5 61,-67.5 0,-67.5"/>
<text text-anchor="middle" x="30.5" y="-74.5" font-family="Helvetica,sans-Serif" font-size="10.00">dol2asm.h</text>
</a>
</g>
</g>
<!-- Node1&#45;&gt;Node2 -->
<g id="edge1" class="edge">
<title>Node1&#45;&gt;Node2</title>
<path fill="none" stroke="midnightblue" d="M848.85,-147.7C688.78,-144.96 222.92,-134.01 75.5,-98 68.85,-96.38 61.96,-93.81 55.63,-91.05"/>
<polygon fill="midnightblue" stroke="midnightblue" points="56.79,-87.74 46.25,-86.67 53.83,-94.08 56.79,-87.74"/>
</g>
<!-- Node3 -->
<g id="node3" class="node">
<title>Node3</title>
<g id="a_node3"><a xlink:href="types_8h.html" target="_top" xlink:title=" ">
<polygon fill="white" stroke="black" points="104,-0.5 104,-19.5 185,-19.5 185,-0.5 104,-0.5"/>
<text text-anchor="middle" x="144.5" y="-7.5" font-family="Helvetica,sans-Serif" font-size="10.00">dolphin/types.h</text>
</a>
</g>
</g>
<!-- Node1&#45;&gt;Node3 -->
<g id="edge2" class="edge">
<title>Node1&#45;&gt;Node3</title>
<path fill="none" stroke="midnightblue" d="M848.99,-147.06C673.61,-142.18 133.85,-125.01 108.5,-98 89.5,-77.75 111.56,-46.07 128.56,-27.04"/>
<polygon fill="midnightblue" stroke="midnightblue" points="131.34,-29.2 135.63,-19.51 126.23,-24.41 131.34,-29.2"/>
</g>
<!-- Node4 -->
<g id="node4" class="node">
<title>Node4</title>
<g id="a_node4"><a xlink:href="JKRFileLoader_8h.html" target="_top" xlink:title=" ">
<polygon fill="white" stroke="black" points="117.5,-67.5 117.5,-86.5 283.5,-86.5 283.5,-67.5 117.5,-67.5"/>
<text text-anchor="middle" x="200.5" y="-74.5" font-family="Helvetica,sans-Serif" font-size="10.00">JSystem/JKernel/JKRFileLoader.h</text>
</a>
</g>
</g>
<!-- Node1&#45;&gt;Node4 -->
<g id="edge3" class="edge">
<title>Node1&#45;&gt;Node4</title>
<path fill="none" stroke="midnightblue" d="M848.96,-146.35C741.95,-141.61 497.16,-128.2 293.5,-98 277.7,-95.66 260.57,-92.23 245.37,-88.88"/>
<polygon fill="midnightblue" stroke="midnightblue" points="245.72,-85.37 235.19,-86.58 244.18,-92.19 245.72,-85.37"/>
</g>
<!-- Node5 -->
<g id="node5" class="node">
<title>Node5</title>
<g id="a_node5"><a xlink:title=" ">
<polygon fill="white" stroke="#bfbfbf" points="302,-56.5 302,-97.5 423,-97.5 423,-56.5 302,-56.5"/>
<text text-anchor="start" x="310" y="-85.5" font-family="Helvetica,sans-Serif" font-size="10.00">asm/JSystem/JKernel</text>
<text text-anchor="start" x="310" y="-74.5" font-family="Helvetica,sans-Serif" font-size="10.00">/JKRFileLoader/__ct</text>
<text text-anchor="middle" x="362.5" y="-63.5" font-family="Helvetica,sans-Serif" font-size="10.00">__13JKRFileLoaderFv.s</text>
</a>
</g>
</g>
<!-- Node1&#45;&gt;Node5 -->
<g id="edge5" class="edge">
<title>Node1&#45;&gt;Node5</title>
<path fill="none" stroke="midnightblue" d="M848.65,-145.68C762.23,-140.56 589.07,-127.61 433.29,-97.96"/>
<polygon fill="midnightblue" stroke="midnightblue" points="433.53,-94.45 423.05,-95.99 432.21,-101.32 433.53,-94.45"/>
</g>
<!-- Node6 -->
<g id="node6" class="node">
<title>Node6</title>
<g id="a_node6"><a xlink:title=" ">
<polygon fill="white" stroke="#bfbfbf" points="441,-56.5 441,-97.5 562,-97.5 562,-56.5 441,-56.5"/>
<text text-anchor="start" x="449" y="-85.5" font-family="Helvetica,sans-Serif" font-size="10.00">asm/JSystem/JKernel</text>
<text text-anchor="start" x="449" y="-74.5" font-family="Helvetica,sans-Serif" font-size="10.00">/JKRFileLoader/__dt</text>
<text text-anchor="middle" x="501.5" y="-63.5" font-family="Helvetica,sans-Serif" font-size="10.00">__13JKRFileLoaderFv.s</text>
</a>
</g>
</g>
<!-- Node1&#45;&gt;Node6 -->
<g id="edge6" class="edge">
<title>Node1&#45;&gt;Node6</title>
<path fill="none" stroke="midnightblue" d="M848.77,-142.34C784.7,-134.66 675.3,-120.03 572.06,-97.98"/>
<polygon fill="midnightblue" stroke="midnightblue" points="572.6,-94.52 562.09,-95.82 571.12,-101.36 572.6,-94.52"/>
</g>
<!-- Node7 -->
<g id="node7" class="node">
<title>Node7</title>
<g id="a_node7"><a xlink:title=" ">
<polygon fill="white" stroke="#bfbfbf" points="580,-56.5 580,-97.5 705,-97.5 705,-56.5 580,-56.5"/>
<text text-anchor="start" x="588" y="-85.5" font-family="Helvetica,sans-Serif" font-size="10.00">asm/JSystem/JKernel</text>
<text text-anchor="start" x="588" y="-74.5" font-family="Helvetica,sans-Serif" font-size="10.00">/JKRFileLoader/unmount</text>
<text text-anchor="middle" x="642.5" y="-63.5" font-family="Helvetica,sans-Serif" font-size="10.00">__13JKRFileLoaderFv.s</text>
</a>
</g>
</g>
<!-- Node1&#45;&gt;Node7 -->
<g id="edge7" class="edge">
<title>Node1&#45;&gt;Node7</title>
<path fill="none" stroke="midnightblue" d="M850.51,-134.49C814.9,-125.04 766.65,-112.17 715.29,-98.2"/>
<polygon fill="midnightblue" stroke="midnightblue" points="715.89,-94.74 705.32,-95.49 714.05,-101.49 715.89,-94.74"/>
</g>
<!-- Node8 -->
<g id="node8" class="node">
<title>Node8</title>
<g id="a_node8"><a xlink:title=" ">
<polygon fill="white" stroke="#bfbfbf" points="723,-56.5 723,-97.5 880,-97.5 880,-56.5 723,-56.5"/>
<text text-anchor="start" x="731" y="-85.5" font-family="Helvetica,sans-Serif" font-size="10.00">asm/JSystem/JKernel</text>
<text text-anchor="start" x="731" y="-74.5" font-family="Helvetica,sans-Serif" font-size="10.00">/JKRFileLoader/getGlbResource</text>
<text text-anchor="middle" x="801.5" y="-63.5" font-family="Helvetica,sans-Serif" font-size="10.00">__13JKRFileLoaderFPCc.s</text>
</a>
</g>
</g>
<!-- Node1&#45;&gt;Node8 -->
<g id="edge8" class="edge">
<title>Node1&#45;&gt;Node8</title>
<path fill="none" stroke="midnightblue" d="M882.86,-134.23C870.11,-125.42 853.38,-113.86 838.41,-103.51"/>
<polygon fill="midnightblue" stroke="midnightblue" points="840.06,-100.4 829.84,-97.59 836.08,-106.15 840.06,-100.4"/>
</g>
<!-- Node9 -->
<g id="node9" class="node">
<title>Node9</title>
<g id="a_node9"><a xlink:title=" ">
<polygon fill="white" stroke="#bfbfbf" points="898.5,-56.5 898.5,-97.5 1114.5,-97.5 1114.5,-56.5 898.5,-56.5"/>
<text text-anchor="start" x="906.5" y="-85.5" font-family="Helvetica,sans-Serif" font-size="10.00">asm/JSystem/JKernel</text>
<text text-anchor="start" x="906.5" y="-74.5" font-family="Helvetica,sans-Serif" font-size="10.00">/JKRFileLoader/getGlbResource</text>
<text text-anchor="middle" x="1006.5" y="-63.5" font-family="Helvetica,sans-Serif" font-size="10.00">__13JKRFileLoaderFPCcP13JKRFileLoader.s</text>
</a>
</g>
</g>
<!-- Node1&#45;&gt;Node9 -->
<g id="edge9" class="edge">
<title>Node1&#45;&gt;Node9</title>
<path fill="none" stroke="midnightblue" d="M924.34,-134.23C937.22,-125.42 954.11,-113.86 969.23,-103.51"/>
<polygon fill="midnightblue" stroke="midnightblue" points="971.61,-106.12 977.88,-97.59 967.65,-100.35 971.61,-106.12"/>
</g>
<!-- Node10 -->
<g id="node10" class="node">
<title>Node10</title>
<g id="a_node10"><a xlink:title=" ">
<polygon fill="white" stroke="#bfbfbf" points="1133,-56.5 1133,-97.5 1342,-97.5 1342,-56.5 1133,-56.5"/>
<text text-anchor="start" x="1141" y="-85.5" font-family="Helvetica,sans-Serif" font-size="10.00">asm/JSystem/JKernel</text>
<text text-anchor="start" x="1141" y="-74.5" font-family="Helvetica,sans-Serif" font-size="10.00">/JKRFileLoader/removeResource</text>
<text text-anchor="middle" x="1237.5" y="-63.5" font-family="Helvetica,sans-Serif" font-size="10.00">__13JKRFileLoaderFPvP13JKRFileLoader.s</text>
</a>
</g>
</g>
<!-- Node1&#45;&gt;Node10 -->
<g id="edge10" class="edge">
<title>Node1&#45;&gt;Node10</title>
<path fill="none" stroke="midnightblue" d="M958.28,-136.94C1006.04,-126.86 1076.59,-111.96 1134.83,-99.67"/>
<polygon fill="midnightblue" stroke="midnightblue" points="1135.74,-103.06 1144.8,-97.57 1134.3,-96.21 1135.74,-103.06"/>
</g>
<!-- Node11 -->
<g id="node11" class="node">
<title>Node11</title>
<g id="a_node11"><a xlink:title=" ">
<polygon fill="white" stroke="#bfbfbf" points="1360,-56.5 1360,-97.5 1569,-97.5 1569,-56.5 1360,-56.5"/>
<text text-anchor="start" x="1368" y="-85.5" font-family="Helvetica,sans-Serif" font-size="10.00">asm/JSystem/JKernel</text>
<text text-anchor="start" x="1368" y="-74.5" font-family="Helvetica,sans-Serif" font-size="10.00">/JKRFileLoader/detachResource</text>
<text text-anchor="middle" x="1464.5" y="-63.5" font-family="Helvetica,sans-Serif" font-size="10.00">__13JKRFileLoaderFPvP13JKRFileLoader.s</text>
</a>
</g>
</g>
<!-- Node1&#45;&gt;Node11 -->
<g id="edge11" class="edge">
<title>Node1&#45;&gt;Node11</title>
<path fill="none" stroke="midnightblue" d="M958.12,-143.46C1040.74,-135.59 1202.65,-119.22 1349.76,-98.21"/>
<polygon fill="midnightblue" stroke="midnightblue" points="1350.48,-101.64 1359.88,-96.76 1349.48,-94.72 1350.48,-101.64"/>
</g>
<!-- Node12 -->
<g id="node12" class="node">
<title>Node12</title>
<g id="a_node12"><a xlink:title=" ">
<polygon fill="white" stroke="#bfbfbf" points="1587,-56.5 1587,-97.5 1728,-97.5 1728,-56.5 1587,-56.5"/>
<text text-anchor="start" x="1595" y="-85.5" font-family="Helvetica,sans-Serif" font-size="10.00">asm/JSystem/JKernel</text>
<text text-anchor="start" x="1595" y="-74.5" font-family="Helvetica,sans-Serif" font-size="10.00">/JKRFileLoader/findVolume</text>
<text text-anchor="middle" x="1657.5" y="-63.5" font-family="Helvetica,sans-Serif" font-size="10.00">__13JKRFileLoaderFPPCc.s</text>
</a>
</g>
</g>
<!-- Node1&#45;&gt;Node12 -->
<g id="edge12" class="edge">
<title>Node1&#45;&gt;Node12</title>
<path fill="none" stroke="midnightblue" d="M958.12,-147.61C1071.82,-145.08 1342.2,-135.46 1576.9,-98.12"/>
<polygon fill="midnightblue" stroke="midnightblue" points="1577.68,-101.54 1586.99,-96.49 1576.56,-94.63 1577.68,-101.54"/>
</g>
<!-- Node13 -->
<g id="node13" class="node">
<title>Node13</title>
<g id="a_node13"><a xlink:title=" ">
<polygon fill="white" stroke="#bfbfbf" points="1746,-56.5 1746,-97.5 1921,-97.5 1921,-56.5 1746,-56.5"/>
<text text-anchor="start" x="1754" y="-85.5" font-family="Helvetica,sans-Serif" font-size="10.00">asm/JSystem/JKernel</text>
<text text-anchor="start" x="1754" y="-74.5" font-family="Helvetica,sans-Serif" font-size="10.00">/JKRFileLoader/fetchVolume</text>
<text text-anchor="middle" x="1833.5" y="-63.5" font-family="Helvetica,sans-Serif" font-size="10.00">Name__13JKRFileLoaderFPclPCc.s</text>
</a>
</g>
</g>
<!-- Node1&#45;&gt;Node13 -->
<g id="edge13" class="edge">
<title>Node1&#45;&gt;Node13</title>
<path fill="none" stroke="midnightblue" d="M958.41,-147.92C1090.73,-145.94 1437.72,-137.23 1735.82,-98.13"/>
<polygon fill="midnightblue" stroke="midnightblue" points="1736.5,-101.57 1745.96,-96.78 1735.58,-94.63 1736.5,-101.57"/>
</g>
<!-- Node14 -->
<g id="node14" class="node">
<title>Node14</title>
<g id="a_node14"><a xlink:title=" ">
<polygon fill="white" stroke="#bfbfbf" points="1939.5,-56.5 1939.5,-97.5 2055.5,-97.5 2055.5,-56.5 1939.5,-56.5"/>
<text text-anchor="start" x="1947.5" y="-85.5" font-family="Helvetica,sans-Serif" font-size="10.00">asm/JSystem/JKernel</text>
<text text-anchor="start" x="1947.5" y="-74.5" font-family="Helvetica,sans-Serif" font-size="10.00">/JKRFileLoader/__sinit</text>
<text text-anchor="middle" x="1997.5" y="-63.5" font-family="Helvetica,sans-Serif" font-size="10.00">_JKRFileLoader_cpp.s</text>
</a>
</g>
</g>
<!-- Node1&#45;&gt;Node14 -->
<g id="edge14" class="edge">
<title>Node1&#45;&gt;Node14</title>
<path fill="none" stroke="midnightblue" d="M958.24,-147.55C1139.79,-144.11 1721.74,-130.9 1929.34,-97.93"/>
<polygon fill="midnightblue" stroke="midnightblue" points="1929.94,-101.38 1939.23,-96.29 1928.79,-94.47 1929.94,-101.38"/>
</g>
<!-- Node15 -->
<g id="node15" class="node">
<title>Node15</title>
<g id="a_node15"><a xlink:title=" ">
<polygon fill="white" stroke="#bfbfbf" points="2074,-56.5 2074,-97.5 2187,-97.5 2187,-56.5 2074,-56.5"/>
<text text-anchor="start" x="2082" y="-85.5" font-family="Helvetica,sans-Serif" font-size="10.00">asm/JSystem/JKernel</text>
<text text-anchor="start" x="2082" y="-74.5" font-family="Helvetica,sans-Serif" font-size="10.00">/JKRFileLoader/func</text>
<text text-anchor="middle" x="2130.5" y="-63.5" font-family="Helvetica,sans-Serif" font-size="10.00">_802D45E4.s</text>
</a>
</g>
</g>
<!-- Node1&#45;&gt;Node15 -->
<g id="edge15" class="edge">
<title>Node1&#45;&gt;Node15</title>
<path fill="none" stroke="midnightblue" d="M958.32,-147.94C1155.4,-145.63 1828.29,-135.26 2063.95,-97.79"/>
<polygon fill="midnightblue" stroke="midnightblue" points="2064.54,-101.24 2073.84,-96.16 2063.4,-94.33 2064.54,-101.24"/>
</g>
<!-- Node4&#45;&gt;Node3 -->
<g id="edge4" class="edge">
<title>Node4&#45;&gt;Node3</title>
<path fill="none" stroke="midnightblue" d="M192.95,-67.23C184.22,-57.1 169.65,-40.19 158.76,-27.56"/>
<polygon fill="midnightblue" stroke="midnightblue" points="161.11,-24.92 151.93,-19.63 155.81,-29.49 161.11,-24.92"/>
</g>
</g>
</svg>
