<?xml version="1.0" encoding="UTF-8" standalone="no"?>
<!DOCTYPE svg PUBLIC "-//W3C//DTD SVG 1.1//EN"
 "http://www.w3.org/Graphics/SVG/1.1/DTD/svg11.dtd">
<!-- Generated by graphviz version 2.47.0 (20210316.2052)
 -->
<!-- Title: libs/JSystem/JKernel/JKRFileFinder.cpp Pages: 1 -->
<svg width="1358pt" height="173pt"
 viewBox="0.00 0.00 1358.00 173.00" xmlns="http://www.w3.org/2000/svg" xmlns:xlink="http://www.w3.org/1999/xlink">
<g id="graph0" class="graph" transform="scale(1 1) rotate(0) translate(4 169)">
<title>libs/JSystem/JKernel/JKRFileFinder.cpp</title>
<polygon fill="white" stroke="transparent" points="-4,4 -4,-169 1354,-169 1354,4 -4,4"/>
<!-- Node1 -->
<g id="node1" class="node">
<title>Node1</title>
<g id="a_node1"><a xlink:title=" ">
<polygon fill="#bfbfbf" stroke="black" points="591,-134.5 591,-164.5 700,-164.5 700,-134.5 591,-134.5"/>
<text text-anchor="start" x="599" y="-152.5" font-family="Helvetica,sans-Serif" font-size="10.00">libs/JSystem/JKernel</text>
<text text-anchor="middle" x="645.5" y="-141.5" font-family="Helvetica,sans-Serif" font-size="10.00">/JKRFileFinder.cpp</text>
</a>
</g>
</g>
<!-- Node2 -->
<g id="node2" class="node">
<title>Node2</title>
<g id="a_node2"><a xlink:href="JKRFileFinder_8h.html" target="_top" xlink:title=" ">
<polygon fill="white" stroke="black" points="0,-67.5 0,-86.5 163,-86.5 163,-67.5 0,-67.5"/>
<text text-anchor="middle" x="81.5" y="-74.5" font-family="Helvetica,sans-Serif" font-size="10.00">JSystem/JKernel/JKRFileFinder.h</text>
</a>
</g>
</g>
<!-- Node1&#45;&gt;Node2 -->
<g id="edge1" class="edge">
<title>Node1&#45;&gt;Node2</title>
<path fill="none" stroke="midnightblue" d="M590.87,-144.35C503.3,-137.31 326.23,-121.46 177.5,-98 161.36,-95.45 143.83,-92.01 128.22,-88.69"/>
<polygon fill="midnightblue" stroke="midnightblue" points="128.78,-85.23 118.27,-86.54 127.31,-92.07 128.78,-85.23"/>
</g>
<!-- Node3 -->
<g id="node3" class="node">
<title>Node3</title>
<g id="a_node3"><a xlink:href="types_8h.html" target="_top" xlink:title=" ">
<polygon fill="white" stroke="black" points="96,-0.5 96,-19.5 177,-19.5 177,-0.5 96,-0.5"/>
<text text-anchor="middle" x="136.5" y="-7.5" font-family="Helvetica,sans-Serif" font-size="10.00">dolphin/types.h</text>
</a>
</g>
</g>
<!-- Node1&#45;&gt;Node3 -->
<g id="edge4" class="edge">
<title>Node1&#45;&gt;Node3</title>
<path fill="none" stroke="midnightblue" d="M590.94,-147.05C489.45,-143.55 276.09,-132.25 211.5,-98 203.5,-93.76 169.08,-51.71 149.77,-27.66"/>
<polygon fill="midnightblue" stroke="midnightblue" points="152.39,-25.34 143.41,-19.72 146.93,-29.72 152.39,-25.34"/>
</g>
<!-- Node4 -->
<g id="node4" class="node">
<title>Node4</title>
<g id="a_node4"><a xlink:href="dol2asm_8h.html" target="_top" xlink:title=" ">
<polygon fill="white" stroke="black" points="220,-67.5 220,-86.5 281,-86.5 281,-67.5 220,-67.5"/>
<text text-anchor="middle" x="250.5" y="-74.5" font-family="Helvetica,sans-Serif" font-size="10.00">dol2asm.h</text>
</a>
</g>
</g>
<!-- Node1&#45;&gt;Node4 -->
<g id="edge3" class="edge">
<title>Node1&#45;&gt;Node4</title>
<path fill="none" stroke="midnightblue" d="M590.78,-146.17C520.01,-141.93 393.6,-130.17 290.5,-98 284.94,-96.27 279.21,-93.83 273.88,-91.25"/>
<polygon fill="midnightblue" stroke="midnightblue" points="275.33,-88.07 264.84,-86.59 272.12,-94.29 275.33,-88.07"/>
</g>
<!-- Node5 -->
<g id="node5" class="node">
<title>Node5</title>
<g id="a_node5"><a xlink:title=" ">
<polygon fill="white" stroke="#bfbfbf" points="299,-56.5 299,-97.5 484,-97.5 484,-56.5 299,-56.5"/>
<text text-anchor="start" x="307" y="-85.5" font-family="Helvetica,sans-Serif" font-size="10.00">asm/JSystem/JKernel</text>
<text text-anchor="start" x="307" y="-74.5" font-family="Helvetica,sans-Serif" font-size="10.00">/JKRFileFinder/__ct</text>
<text text-anchor="middle" x="391.5" y="-63.5" font-family="Helvetica,sans-Serif" font-size="10.00">__12JKRArcFinderFP10JKRArchivell.s</text>
</a>
</g>
</g>
<!-- Node1&#45;&gt;Node5 -->
<g id="edge5" class="edge">
<title>Node1&#45;&gt;Node5</title>
<path fill="none" stroke="midnightblue" d="M595.01,-134.49C559.86,-124.73 512.24,-111.51 471.9,-100.32"/>
<polygon fill="midnightblue" stroke="midnightblue" points="472.66,-96.89 462.09,-97.59 470.79,-103.64 472.66,-96.89"/>
</g>
<!-- Node6 -->
<g id="node6" class="node">
<title>Node6</title>
<g id="a_node6"><a xlink:title=" ">
<polygon fill="white" stroke="#bfbfbf" points="502,-56.5 502,-97.5 637,-97.5 637,-56.5 502,-56.5"/>
<text text-anchor="start" x="510" y="-85.5" font-family="Helvetica,sans-Serif" font-size="10.00">asm/JSystem/JKernel</text>
<text text-anchor="start" x="510" y="-74.5" font-family="Helvetica,sans-Serif" font-size="10.00">/JKRFileFinder/findNextFile</text>
<text text-anchor="middle" x="569.5" y="-63.5" font-family="Helvetica,sans-Serif" font-size="10.00">__12JKRArcFinderFv.s</text>
</a>
</g>
</g>
<!-- Node1&#45;&gt;Node6 -->
<g id="edge6" class="edge">
<title>Node1&#45;&gt;Node6</title>
<path fill="none" stroke="midnightblue" d="M630.12,-134.23C620.98,-125.75 609.08,-114.72 598.26,-104.68"/>
<polygon fill="midnightblue" stroke="midnightblue" points="600.33,-101.82 590.62,-97.59 595.57,-106.96 600.33,-101.82"/>
</g>
<!-- Node7 -->
<g id="node7" class="node">
<title>Node7</title>
<g id="a_node7"><a xlink:title=" ">
<polygon fill="white" stroke="#bfbfbf" points="655,-56.5 655,-97.5 788,-97.5 788,-56.5 655,-56.5"/>
<text text-anchor="start" x="663" y="-85.5" font-family="Helvetica,sans-Serif" font-size="10.00">asm/JSystem/JKernel</text>
<text text-anchor="start" x="663" y="-74.5" font-family="Helvetica,sans-Serif" font-size="10.00">/JKRFileFinder/__ct</text>
<text text-anchor="middle" x="721.5" y="-63.5" font-family="Helvetica,sans-Serif" font-size="10.00">__12JKRDvdFinderFPCc.s</text>
</a>
</g>
</g>
<!-- Node1&#45;&gt;Node7 -->
<g id="edge7" class="edge">
<title>Node1&#45;&gt;Node7</title>
<path fill="none" stroke="midnightblue" d="M660.88,-134.23C670.02,-125.75 681.92,-114.72 692.74,-104.68"/>
<polygon fill="midnightblue" stroke="midnightblue" points="695.43,-106.96 700.38,-97.59 690.67,-101.82 695.43,-106.96"/>
</g>
<!-- Node8 -->
<g id="node8" class="node">
<title>Node8</title>
<g id="a_node8"><a xlink:title=" ">
<polygon fill="white" stroke="#bfbfbf" points="806,-56.5 806,-97.5 925,-97.5 925,-56.5 806,-56.5"/>
<text text-anchor="start" x="814" y="-85.5" font-family="Helvetica,sans-Serif" font-size="10.00">asm/JSystem/JKernel</text>
<text text-anchor="start" x="814" y="-74.5" font-family="Helvetica,sans-Serif" font-size="10.00">/JKRFileFinder/__dt</text>
<text text-anchor="middle" x="865.5" y="-63.5" font-family="Helvetica,sans-Serif" font-size="10.00">__12JKRDvdFinderFv.s</text>
</a>
</g>
</g>
<!-- Node1&#45;&gt;Node8 -->
<g id="edge8" class="edge">
<title>Node1&#45;&gt;Node8</title>
<path fill="none" stroke="midnightblue" d="M689.23,-134.49C719.7,-124.72 760.98,-111.49 795.93,-100.29"/>
<polygon fill="midnightblue" stroke="midnightblue" points="797.16,-103.58 805.61,-97.19 795.02,-96.91 797.16,-103.58"/>
</g>
<!-- Node9 -->
<g id="node9" class="node">
<title>Node9</title>
<g id="a_node9"><a xlink:title=" ">
<polygon fill="white" stroke="#bfbfbf" points="943,-56.5 943,-97.5 1078,-97.5 1078,-56.5 943,-56.5"/>
<text text-anchor="start" x="951" y="-85.5" font-family="Helvetica,sans-Serif" font-size="10.00">asm/JSystem/JKernel</text>
<text text-anchor="start" x="951" y="-74.5" font-family="Helvetica,sans-Serif" font-size="10.00">/JKRFileFinder/findNextFile</text>
<text text-anchor="middle" x="1010.5" y="-63.5" font-family="Helvetica,sans-Serif" font-size="10.00">__12JKRDvdFinderFv.s</text>
</a>
</g>
</g>
<!-- Node1&#45;&gt;Node9 -->
<g id="edge9" class="edge">
<title>Node1&#45;&gt;Node9</title>
<path fill="none" stroke="midnightblue" d="M700.1,-140.37C756.24,-131.69 846.39,-116.88 932.66,-98.33"/>
<polygon fill="midnightblue" stroke="midnightblue" points="933.59,-101.71 942.62,-96.17 932.1,-94.87 933.59,-101.71"/>
</g>
<!-- Node10 -->
<g id="node10" class="node">
<title>Node10</title>
<g id="a_node10"><a xlink:title=" ">
<polygon fill="white" stroke="#bfbfbf" points="1096.5,-56.5 1096.5,-97.5 1214.5,-97.5 1214.5,-56.5 1096.5,-56.5"/>
<text text-anchor="start" x="1104.5" y="-85.5" font-family="Helvetica,sans-Serif" font-size="10.00">asm/JSystem/JKernel</text>
<text text-anchor="start" x="1104.5" y="-74.5" font-family="Helvetica,sans-Serif" font-size="10.00">/JKRFileFinder/__dt</text>
<text text-anchor="middle" x="1155.5" y="-63.5" font-family="Helvetica,sans-Serif" font-size="10.00">__13JKRFileFinderFv.s</text>
</a>
</g>
</g>
<!-- Node1&#45;&gt;Node10 -->
<g id="edge10" class="edge">
<title>Node1&#45;&gt;Node10</title>
<path fill="none" stroke="midnightblue" d="M700.06,-145.3C782.11,-139.83 942.15,-126.57 1086.4,-98.05"/>
<polygon fill="midnightblue" stroke="midnightblue" points="1087.2,-101.46 1096.31,-96.06 1085.82,-94.6 1087.2,-101.46"/>
</g>
<!-- Node11 -->
<g id="node11" class="node">
<title>Node11</title>
<g id="a_node11"><a xlink:title=" ">
<polygon fill="white" stroke="#bfbfbf" points="1233,-56.5 1233,-97.5 1350,-97.5 1350,-56.5 1233,-56.5"/>
<text text-anchor="start" x="1241" y="-85.5" font-family="Helvetica,sans-Serif" font-size="10.00">asm/JSystem/JKernel</text>
<text text-anchor="start" x="1241" y="-74.5" font-family="Helvetica,sans-Serif" font-size="10.00">/JKRFileFinder/__dt</text>
<text text-anchor="middle" x="1291.5" y="-63.5" font-family="Helvetica,sans-Serif" font-size="10.00">__12JKRArcFinderFv.s</text>
</a>
</g>
</g>
<!-- Node1&#45;&gt;Node11 -->
<g id="edge11" class="edge">
<title>Node1&#45;&gt;Node11</title>
<path fill="none" stroke="midnightblue" d="M700.18,-147.34C801.64,-144.4 1025.85,-134.22 1222.75,-97.93"/>
<polygon fill="midnightblue" stroke="midnightblue" points="1223.52,-101.35 1232.7,-96.07 1222.23,-94.47 1223.52,-101.35"/>
</g>
<!-- Node2&#45;&gt;Node3 -->
<g id="edge2" class="edge">
<title>Node2&#45;&gt;Node3</title>
<path fill="none" stroke="midnightblue" d="M88.92,-67.23C97.49,-57.1 111.8,-40.19 122.49,-27.56"/>
<polygon fill="midnightblue" stroke="midnightblue" points="125.41,-29.52 129.2,-19.63 120.07,-25 125.41,-29.52"/>
</g>
</g>
</svg>
