<?xml version="1.0" encoding="UTF-8" standalone="no"?>
<!DOCTYPE svg PUBLIC "-//W3C//DTD SVG 1.1//EN"
 "http://www.w3.org/Graphics/SVG/1.1/DTD/svg11.dtd">
<!-- Generated by graphviz version 2.47.0 (20210316.2052)
 -->
<!-- Title: libs/JSystem/JKernel/JKRMemArchive.cpp Pages: 1 -->
<svg width="2575pt" height="184pt"
 viewBox="0.00 0.00 2574.50 184.00" xmlns="http://www.w3.org/2000/svg" xmlns:xlink="http://www.w3.org/1999/xlink">
<g id="graph0" class="graph" transform="scale(1 1) rotate(0) translate(4 180)">
<title>libs/JSystem/JKernel/JKRMemArchive.cpp</title>
<polygon fill="white" stroke="transparent" points="-4,4 -4,-180 2570.5,-180 2570.5,4 -4,4"/>
<!-- Node1 -->
<g id="node1" class="node">
<title>Node1</title>
<g id="a_node1"><a xlink:title=" ">
<polygon fill="#bfbfbf" stroke="black" points="1046,-145.5 1046,-175.5 1157,-175.5 1157,-145.5 1046,-145.5"/>
<text text-anchor="start" x="1054" y="-163.5" font-family="Helvetica,sans-Serif" font-size="10.00">libs/JSystem/JKernel</text>
<text text-anchor="middle" x="1101.5" y="-152.5" font-family="Helvetica,sans-Serif" font-size="10.00">/JKRMemArchive.cpp</text>
</a>
</g>
</g>
<!-- Node2 -->
<g id="node2" class="node">
<title>Node2</title>
<g id="a_node2"><a xlink:href="JKRMemArchive_8h.html" target="_top" xlink:title=" ">
<polygon fill="white" stroke="black" points="0,-73 0,-92 175,-92 175,-73 0,-73"/>
<text text-anchor="middle" x="87.5" y="-80" font-family="Helvetica,sans-Serif" font-size="10.00">JSystem/JKernel/JKRMemArchive.h</text>
</a>
</g>
</g>
<!-- Node1&#45;&gt;Node2 -->
<g id="edge1" class="edge">
<title>Node1&#45;&gt;Node2</title>
<path fill="none" stroke="midnightblue" d="M1045.87,-160.07C902.86,-160.76 511.12,-157.66 189.5,-109 168.08,-105.76 144.6,-100.04 125.58,-94.84"/>
<polygon fill="midnightblue" stroke="midnightblue" points="126.36,-91.43 115.79,-92.11 124.47,-98.17 126.36,-91.43"/>
</g>
<!-- Node3 -->
<g id="node3" class="node">
<title>Node3</title>
<g id="a_node3"><a xlink:href="types_8h.html" target="_top" xlink:title=" ">
<polygon fill="white" stroke="black" points="105,-0.5 105,-19.5 186,-19.5 186,-0.5 105,-0.5"/>
<text text-anchor="middle" x="145.5" y="-7.5" font-family="Helvetica,sans-Serif" font-size="10.00">dolphin/types.h</text>
</a>
</g>
</g>
<!-- Node1&#45;&gt;Node3 -->
<g id="edge4" class="edge">
<title>Node1&#45;&gt;Node3</title>
<path fill="none" stroke="midnightblue" d="M1045.75,-159.03C863.91,-157.12 295.51,-148.06 223.5,-109 197.79,-95.06 202.76,-78.85 184.5,-56 176.75,-46.31 167.7,-35.82 160.27,-27.4"/>
<polygon fill="midnightblue" stroke="midnightblue" points="162.75,-24.92 153.48,-19.79 157.52,-29.58 162.75,-24.92"/>
</g>
<!-- Node4 -->
<g id="node4" class="node">
<title>Node4</title>
<g id="a_node4"><a xlink:href="dol2asm_8h.html" target="_top" xlink:title=" ">
<polygon fill="white" stroke="black" points="232,-73 232,-92 293,-92 293,-73 232,-73"/>
<text text-anchor="middle" x="262.5" y="-80" font-family="Helvetica,sans-Serif" font-size="10.00">dol2asm.h</text>
</a>
</g>
</g>
<!-- Node1&#45;&gt;Node4 -->
<g id="edge3" class="edge">
<title>Node1&#45;&gt;Node4</title>
<path fill="none" stroke="midnightblue" d="M1045.97,-159.58C888.42,-159.23 441,-154.18 302.5,-109 295.03,-106.56 287.57,-102.4 281.16,-98.14"/>
<polygon fill="midnightblue" stroke="midnightblue" points="282.78,-95 272.62,-92.01 278.7,-100.68 282.78,-95"/>
</g>
<!-- Node5 -->
<g id="node5" class="node">
<title>Node5</title>
<g id="a_node5"><a xlink:title=" ">
<polygon fill="white" stroke="#bfbfbf" points="311,-56.5 311,-108.5 516,-108.5 516,-56.5 311,-56.5"/>
<text text-anchor="start" x="319" y="-96.5" font-family="Helvetica,sans-Serif" font-size="10.00">asm/JSystem/JKernel</text>
<text text-anchor="start" x="319" y="-85.5" font-family="Helvetica,sans-Serif" font-size="10.00">/JKRMemArchive/__ct</text>
<text text-anchor="start" x="319" y="-74.5" font-family="Helvetica,sans-Serif" font-size="10.00">__13JKRMemArchiveFlQ210JKRArchive15</text>
<text text-anchor="middle" x="413.5" y="-63.5" font-family="Helvetica,sans-Serif" font-size="10.00">EMountDirection.s</text>
</a>
</g>
</g>
<!-- Node1&#45;&gt;Node5 -->
<g id="edge5" class="edge">
<title>Node1&#45;&gt;Node5</title>
<path fill="none" stroke="midnightblue" d="M1045.99,-157.15C944.63,-152.32 722.69,-139.21 526.16,-109.01"/>
<polygon fill="midnightblue" stroke="midnightblue" points="526.65,-105.54 516.23,-107.46 525.58,-112.46 526.65,-105.54"/>
</g>
<!-- Node6 -->
<g id="node6" class="node">
<title>Node6</title>
<g id="a_node6"><a xlink:title=" ">
<polygon fill="white" stroke="#bfbfbf" points="534.5,-56.5 534.5,-108.5 724.5,-108.5 724.5,-56.5 534.5,-56.5"/>
<text text-anchor="start" x="542.5" y="-96.5" font-family="Helvetica,sans-Serif" font-size="10.00">asm/JSystem/JKernel</text>
<text text-anchor="start" x="542.5" y="-85.5" font-family="Helvetica,sans-Serif" font-size="10.00">/JKRMemArchive/__ct</text>
<text text-anchor="start" x="542.5" y="-74.5" font-family="Helvetica,sans-Serif" font-size="10.00">__13JKRMemArchiveFPvUl15JKRMem</text>
<text text-anchor="middle" x="629.5" y="-63.5" font-family="Helvetica,sans-Serif" font-size="10.00">BreakFlag.s</text>
</a>
</g>
</g>
<!-- Node1&#45;&gt;Node6 -->
<g id="edge6" class="edge">
<title>Node1&#45;&gt;Node6</title>
<path fill="none" stroke="midnightblue" d="M1045.72,-153.68C975.42,-145.93 850.72,-130.84 734.74,-109.16"/>
<polygon fill="midnightblue" stroke="midnightblue" points="735.1,-105.66 724.63,-107.24 733.8,-112.54 735.1,-105.66"/>
</g>
<!-- Node7 -->
<g id="node7" class="node">
<title>Node7</title>
<g id="a_node7"><a xlink:title=" ">
<polygon fill="white" stroke="#bfbfbf" points="742.5,-62 742.5,-103 872.5,-103 872.5,-62 742.5,-62"/>
<text text-anchor="start" x="750.5" y="-91" font-family="Helvetica,sans-Serif" font-size="10.00">asm/JSystem/JKernel</text>
<text text-anchor="start" x="750.5" y="-80" font-family="Helvetica,sans-Serif" font-size="10.00">/JKRMemArchive/__dt</text>
<text text-anchor="middle" x="807.5" y="-69" font-family="Helvetica,sans-Serif" font-size="10.00">__13JKRMemArchiveFv.s</text>
</a>
</g>
</g>
<!-- Node1&#45;&gt;Node7 -->
<g id="edge7" class="edge">
<title>Node1&#45;&gt;Node7</title>
<path fill="none" stroke="midnightblue" d="M1045.75,-148.27C1001.25,-138.92 937.48,-124.64 882.5,-109 879.33,-108.1 876.09,-107.14 872.82,-106.14"/>
<polygon fill="midnightblue" stroke="midnightblue" points="873.59,-102.72 863,-103.07 871.5,-109.4 873.59,-102.72"/>
</g>
<!-- Node8 -->
<g id="node8" class="node">
<title>Node8</title>
<g id="a_node8"><a xlink:title=" ">
<polygon fill="white" stroke="#bfbfbf" points="891,-56.5 891,-108.5 1096,-108.5 1096,-56.5 891,-56.5"/>
<text text-anchor="start" x="899" y="-96.5" font-family="Helvetica,sans-Serif" font-size="10.00">asm/JSystem/JKernel</text>
<text text-anchor="start" x="899" y="-85.5" font-family="Helvetica,sans-Serif" font-size="10.00">/JKRMemArchive/open</text>
<text text-anchor="start" x="899" y="-74.5" font-family="Helvetica,sans-Serif" font-size="10.00">__13JKRMemArchiveFlQ210JKRArchive15</text>
<text text-anchor="middle" x="993.5" y="-63.5" font-family="Helvetica,sans-Serif" font-size="10.00">EMountDirection.s</text>
</a>
</g>
</g>
<!-- Node1&#45;&gt;Node8 -->
<g id="edge8" class="edge">
<title>Node1&#45;&gt;Node8</title>
<path fill="none" stroke="midnightblue" d="M1081.44,-145.38C1069.09,-136.69 1052.75,-125.19 1037.51,-114.47"/>
<polygon fill="midnightblue" stroke="midnightblue" points="1039.38,-111.51 1029.19,-108.62 1035.35,-117.23 1039.38,-111.51"/>
</g>
<!-- Node9 -->
<g id="node9" class="node">
<title>Node9</title>
<g id="a_node9"><a xlink:title=" ">
<polygon fill="white" stroke="#bfbfbf" points="1114.5,-56.5 1114.5,-108.5 1304.5,-108.5 1304.5,-56.5 1114.5,-56.5"/>
<text text-anchor="start" x="1122.5" y="-96.5" font-family="Helvetica,sans-Serif" font-size="10.00">asm/JSystem/JKernel</text>
<text text-anchor="start" x="1122.5" y="-85.5" font-family="Helvetica,sans-Serif" font-size="10.00">/JKRMemArchive/open</text>
<text text-anchor="start" x="1122.5" y="-74.5" font-family="Helvetica,sans-Serif" font-size="10.00">__13JKRMemArchiveFPvUl15JKRMem</text>
<text text-anchor="middle" x="1209.5" y="-63.5" font-family="Helvetica,sans-Serif" font-size="10.00">BreakFlag.s</text>
</a>
</g>
</g>
<!-- Node1&#45;&gt;Node9 -->
<g id="edge9" class="edge">
<title>Node1&#45;&gt;Node9</title>
<path fill="none" stroke="midnightblue" d="M1121.56,-145.38C1133.91,-136.69 1150.25,-125.19 1165.49,-114.47"/>
<polygon fill="midnightblue" stroke="midnightblue" points="1167.65,-117.23 1173.81,-108.62 1163.62,-111.51 1167.65,-117.23"/>
</g>
<!-- Node10 -->
<g id="node10" class="node">
<title>Node10</title>
<g id="a_node10"><a xlink:title=" ">
<polygon fill="white" stroke="#bfbfbf" points="1323,-56.5 1323,-108.5 1532,-108.5 1532,-56.5 1323,-56.5"/>
<text text-anchor="start" x="1331" y="-96.5" font-family="Helvetica,sans-Serif" font-size="10.00">asm/JSystem/JKernel</text>
<text text-anchor="start" x="1331" y="-85.5" font-family="Helvetica,sans-Serif" font-size="10.00">/JKRMemArchive/fetchResource</text>
<text text-anchor="start" x="1331" y="-74.5" font-family="Helvetica,sans-Serif" font-size="10.00">__13JKRMemArchiveFPQ210JKRArchive12</text>
<text text-anchor="middle" x="1427.5" y="-63.5" font-family="Helvetica,sans-Serif" font-size="10.00">SDIFileEntryPUl.s</text>
</a>
</g>
</g>
<!-- Node1&#45;&gt;Node10 -->
<g id="edge10" class="edge">
<title>Node1&#45;&gt;Node10</title>
<path fill="none" stroke="midnightblue" d="M1157.17,-146.52C1199.89,-136.56 1260.3,-122.48 1313.19,-110.15"/>
<polygon fill="midnightblue" stroke="midnightblue" points="1314.02,-113.55 1322.97,-107.87 1312.43,-106.73 1314.02,-113.55"/>
</g>
<!-- Node11 -->
<g id="node11" class="node">
<title>Node11</title>
<g id="a_node11"><a xlink:title=" ">
<polygon fill="white" stroke="#bfbfbf" points="1550,-56.5 1550,-108.5 1781,-108.5 1781,-56.5 1550,-56.5"/>
<text text-anchor="start" x="1558" y="-96.5" font-family="Helvetica,sans-Serif" font-size="10.00">asm/JSystem/JKernel</text>
<text text-anchor="start" x="1558" y="-85.5" font-family="Helvetica,sans-Serif" font-size="10.00">/JKRMemArchive/fetchResource</text>
<text text-anchor="start" x="1558" y="-74.5" font-family="Helvetica,sans-Serif" font-size="10.00">__13JKRMemArchiveFPvUlPQ210JKRArchive12</text>
<text text-anchor="middle" x="1665.5" y="-63.5" font-family="Helvetica,sans-Serif" font-size="10.00">SDIFileEntryPUl.s</text>
</a>
</g>
</g>
<!-- Node1&#45;&gt;Node11 -->
<g id="edge11" class="edge">
<title>Node1&#45;&gt;Node11</title>
<path fill="none" stroke="midnightblue" d="M1157.28,-154.69C1239.06,-147.3 1396.47,-131.72 1539.45,-109.27"/>
<polygon fill="midnightblue" stroke="midnightblue" points="1540.39,-112.67 1549.72,-107.65 1539.3,-105.76 1540.39,-112.67"/>
</g>
<!-- Node12 -->
<g id="node12" class="node">
<title>Node12</title>
<g id="a_node12"><a xlink:title=" ">
<polygon fill="white" stroke="#bfbfbf" points="1799.5,-62 1799.5,-103 1969.5,-103 1969.5,-62 1799.5,-62"/>
<text text-anchor="start" x="1807.5" y="-91" font-family="Helvetica,sans-Serif" font-size="10.00">asm/JSystem/JKernel</text>
<text text-anchor="start" x="1807.5" y="-80" font-family="Helvetica,sans-Serif" font-size="10.00">/JKRMemArchive/removeResource</text>
<text text-anchor="middle" x="1884.5" y="-69" font-family="Helvetica,sans-Serif" font-size="10.00">All__13JKRMemArchiveFv.s</text>
</a>
</g>
</g>
<!-- Node1&#45;&gt;Node12 -->
<g id="edge12" class="edge">
<title>Node1&#45;&gt;Node12</title>
<path fill="none" stroke="midnightblue" d="M1157.31,-159.02C1275.13,-157.23 1557.59,-148.75 1790.5,-109 1796.57,-107.96 1802.82,-106.71 1809.07,-105.31"/>
<polygon fill="midnightblue" stroke="midnightblue" points="1809.92,-108.71 1818.86,-103.02 1808.33,-101.89 1809.92,-108.71"/>
</g>
<!-- Node13 -->
<g id="node13" class="node">
<title>Node13</title>
<g id="a_node13"><a xlink:title=" ">
<polygon fill="white" stroke="#bfbfbf" points="1987.5,-62 1987.5,-103 2157.5,-103 2157.5,-62 1987.5,-62"/>
<text text-anchor="start" x="1995.5" y="-91" font-family="Helvetica,sans-Serif" font-size="10.00">asm/JSystem/JKernel</text>
<text text-anchor="start" x="1995.5" y="-80" font-family="Helvetica,sans-Serif" font-size="10.00">/JKRMemArchive/removeResource</text>
<text text-anchor="middle" x="2072.5" y="-69" font-family="Helvetica,sans-Serif" font-size="10.00">__13JKRMemArchiveFPv.s</text>
</a>
</g>
</g>
<!-- Node1&#45;&gt;Node13 -->
<g id="edge13" class="edge">
<title>Node1&#45;&gt;Node13</title>
<path fill="none" stroke="midnightblue" d="M1157.09,-160.27C1296.38,-161.36 1671.23,-158.97 1978.5,-109 1984.69,-107.99 1991.06,-106.74 1997.42,-105.34"/>
<polygon fill="midnightblue" stroke="midnightblue" points="1998.45,-108.7 2007.4,-103.03 1996.86,-101.88 1998.45,-108.7"/>
</g>
<!-- Node14 -->
<g id="node14" class="node">
<title>Node14</title>
<g id="a_node14"><a xlink:title=" ">
<polygon fill="white" stroke="#bfbfbf" points="2176,-56.5 2176,-108.5 2363,-108.5 2363,-56.5 2176,-56.5"/>
<text text-anchor="start" x="2184" y="-96.5" font-family="Helvetica,sans-Serif" font-size="10.00">asm/JSystem/JKernel</text>
<text text-anchor="start" x="2184" y="-85.5" font-family="Helvetica,sans-Serif" font-size="10.00">/JKRMemArchive/fetchResource</text>
<text text-anchor="start" x="2184" y="-74.5" font-family="Helvetica,sans-Serif" font-size="10.00">_subroutine__13JKRMemArchiveFPUc</text>
<text text-anchor="middle" x="2269.5" y="-63.5" font-family="Helvetica,sans-Serif" font-size="10.00">UlPUcUli.s</text>
</a>
</g>
</g>
<!-- Node1&#45;&gt;Node14 -->
<g id="edge14" class="edge">
<title>Node1&#45;&gt;Node14</title>
<path fill="none" stroke="midnightblue" d="M1157.22,-158.3C1344.25,-154.03 1949.48,-138.38 2165.9,-108.91"/>
<polygon fill="midnightblue" stroke="midnightblue" points="2166.49,-112.36 2175.91,-107.49 2165.51,-105.43 2166.49,-112.36"/>
</g>
<!-- Node15 -->
<g id="node15" class="node">
<title>Node15</title>
<g id="a_node15"><a xlink:title=" ">
<polygon fill="white" stroke="#bfbfbf" points="2380.5,-62 2380.5,-103 2566.5,-103 2566.5,-62 2380.5,-62"/>
<text text-anchor="start" x="2388.5" y="-91" font-family="Helvetica,sans-Serif" font-size="10.00">asm/JSystem/JKernel</text>
<text text-anchor="start" x="2388.5" y="-80" font-family="Helvetica,sans-Serif" font-size="10.00">/JKRMemArchive/getExpanded</text>
<text text-anchor="middle" x="2473.5" y="-69" font-family="Helvetica,sans-Serif" font-size="10.00">ResSize__13JKRMemArchiveCFPCv.s</text>
</a>
</g>
</g>
<!-- Node1&#45;&gt;Node15 -->
<g id="edge15" class="edge">
<title>Node1&#45;&gt;Node15</title>
<path fill="none" stroke="midnightblue" d="M1157.02,-158.83C1369.69,-156.01 2132.63,-143.66 2372.5,-109 2379.58,-107.98 2386.87,-106.66 2394.16,-105.17"/>
<polygon fill="midnightblue" stroke="midnightblue" points="2395.02,-108.56 2404.06,-103.04 2393.55,-101.72 2395.02,-108.56"/>
</g>
<!-- Node2&#45;&gt;Node3 -->
<g id="edge2" class="edge">
<title>Node2&#45;&gt;Node3</title>
<path fill="none" stroke="midnightblue" d="M94.61,-72.86C103.83,-61.65 120.1,-41.87 131.77,-27.69"/>
<polygon fill="midnightblue" stroke="midnightblue" points="134.68,-29.66 138.33,-19.72 129.27,-25.21 134.68,-29.66"/>
</g>
</g>
</svg>
