<?xml version="1.0" encoding="UTF-8" standalone="no"?>
<!DOCTYPE svg PUBLIC "-//W3C//DTD SVG 1.1//EN"
 "http://www.w3.org/Graphics/SVG/1.1/DTD/svg11.dtd">
<!-- Generated by graphviz version 2.47.0 (20210316.2052)
 -->
<!-- Title: libs/JSystem/JKernel/JKRThread.cpp Pages: 1 -->
<svg width="3635pt" height="184pt"
 viewBox="0.00 0.00 3634.50 184.00" xmlns="http://www.w3.org/2000/svg" xmlns:xlink="http://www.w3.org/1999/xlink">
<g id="graph0" class="graph" transform="scale(1 1) rotate(0) translate(4 180)">
<title>libs/JSystem/JKernel/JKRThread.cpp</title>
<polygon fill="white" stroke="transparent" points="-4,4 -4,-180 3630.5,-180 3630.5,4 -4,4"/>
<!-- Node1 -->
<g id="node1" class="node">
<title>Node1</title>
<g id="a_node1"><a xlink:title=" ">
<polygon fill="#bfbfbf" stroke="black" points="1599.5,-145.5 1599.5,-175.5 1708.5,-175.5 1708.5,-145.5 1599.5,-145.5"/>
<text text-anchor="start" x="1607.5" y="-163.5" font-family="Helvetica,sans-Serif" font-size="10.00">libs/JSystem/JKernel</text>
<text text-anchor="middle" x="1654" y="-152.5" font-family="Helvetica,sans-Serif" font-size="10.00">/JKRThread.cpp</text>
</a>
</g>
</g>
<!-- Node2 -->
<g id="node2" class="node">
<title>Node2</title>
<g id="a_node2"><a xlink:href="JKRThread_8h.html" target="_top" xlink:title=" ">
<polygon fill="white" stroke="black" points="0,-73 0,-92 150,-92 150,-73 0,-73"/>
<text text-anchor="middle" x="75" y="-80" font-family="Helvetica,sans-Serif" font-size="10.00">JSystem/JKernel/JKRThread.h</text>
</a>
</g>
</g>
<!-- Node1&#45;&gt;Node2 -->
<g id="edge1" class="edge">
<title>Node1&#45;&gt;Node2</title>
<path fill="none" stroke="midnightblue" d="M1599.14,-159.44C1365.02,-158.9 448.59,-153.89 164,-109 145.33,-106.05 125.03,-100.43 108.54,-95.22"/>
<polygon fill="midnightblue" stroke="midnightblue" points="109.41,-91.82 98.82,-92.05 107.24,-98.48 109.41,-91.82"/>
</g>
<!-- Node3 -->
<g id="node3" class="node">
<title>Node3</title>
<g id="a_node3"><a xlink:href="types_8h.html" target="_top" xlink:title=" ">
<polygon fill="white" stroke="black" points="85.5,-0.5 85.5,-19.5 166.5,-19.5 166.5,-0.5 85.5,-0.5"/>
<text text-anchor="middle" x="126" y="-7.5" font-family="Helvetica,sans-Serif" font-size="10.00">dolphin/types.h</text>
</a>
</g>
</g>
<!-- Node1&#45;&gt;Node3 -->
<g id="edge4" class="edge">
<title>Node1&#45;&gt;Node3</title>
<path fill="none" stroke="midnightblue" d="M1599.18,-158.93C1341.55,-156.1 261.01,-142.28 198,-109 197.72,-108.85 158.78,-55.74 138.29,-27.78"/>
<polygon fill="midnightblue" stroke="midnightblue" points="141.09,-25.68 132.36,-19.68 135.45,-29.82 141.09,-25.68"/>
</g>
<!-- Node4 -->
<g id="node4" class="node">
<title>Node4</title>
<g id="a_node4"><a xlink:href="dol2asm_8h.html" target="_top" xlink:title=" ">
<polygon fill="white" stroke="black" points="206.5,-73 206.5,-92 267.5,-92 267.5,-73 206.5,-73"/>
<text text-anchor="middle" x="237" y="-80" font-family="Helvetica,sans-Serif" font-size="10.00">dol2asm.h</text>
</a>
</g>
</g>
<!-- Node1&#45;&gt;Node4 -->
<g id="edge3" class="edge">
<title>Node1&#45;&gt;Node4</title>
<path fill="none" stroke="midnightblue" d="M1599.23,-159.19C1358.97,-157.59 404.61,-148.77 277,-109 269.5,-106.66 262.03,-102.53 255.62,-98.25"/>
<polygon fill="midnightblue" stroke="midnightblue" points="257.25,-95.11 247.09,-92.1 253.15,-100.79 257.25,-95.11"/>
</g>
<!-- Node5 -->
<g id="node5" class="node">
<title>Node5</title>
<g id="a_node5"><a xlink:title=" ">
<polygon fill="white" stroke="#bfbfbf" points="285.5,-62 285.5,-103 440.5,-103 440.5,-62 285.5,-62"/>
<text text-anchor="start" x="293.5" y="-91" font-family="Helvetica,sans-Serif" font-size="10.00">asm/JSystem/JKernel</text>
<text text-anchor="start" x="293.5" y="-80" font-family="Helvetica,sans-Serif" font-size="10.00">/JKRThread/__ct__9JKRThread</text>
<text text-anchor="middle" x="363" y="-69" font-family="Helvetica,sans-Serif" font-size="10.00">FUlii.s</text>
</a>
</g>
</g>
<!-- Node1&#45;&gt;Node5 -->
<g id="edge5" class="edge">
<title>Node1&#45;&gt;Node5</title>
<path fill="none" stroke="midnightblue" d="M1599.28,-158.97C1394.81,-156.71 675.77,-146.25 450,-109 444.33,-108.06 438.51,-106.88 432.69,-105.53"/>
<polygon fill="midnightblue" stroke="midnightblue" points="433.48,-102.12 422.93,-103.12 431.81,-108.92 433.48,-102.12"/>
</g>
<!-- Node6 -->
<g id="node6" class="node">
<title>Node6</title>
<g id="a_node6"><a xlink:title=" ">
<polygon fill="white" stroke="#bfbfbf" points="458.5,-62 458.5,-103 613.5,-103 613.5,-62 458.5,-62"/>
<text text-anchor="start" x="466.5" y="-91" font-family="Helvetica,sans-Serif" font-size="10.00">asm/JSystem/JKernel</text>
<text text-anchor="start" x="466.5" y="-80" font-family="Helvetica,sans-Serif" font-size="10.00">/JKRThread/__ct__9JKRThread</text>
<text text-anchor="middle" x="536" y="-69" font-family="Helvetica,sans-Serif" font-size="10.00">FP7JKRHeapUlii.s</text>
</a>
</g>
</g>
<!-- Node1&#45;&gt;Node6 -->
<g id="edge6" class="edge">
<title>Node1&#45;&gt;Node6</title>
<path fill="none" stroke="midnightblue" d="M1599.37,-158.52C1414.53,-154.96 813.52,-141.12 623,-109 617.33,-108.04 611.51,-106.84 605.7,-105.48"/>
<polygon fill="midnightblue" stroke="midnightblue" points="606.49,-102.08 595.94,-103.07 604.81,-108.87 606.49,-102.08"/>
</g>
<!-- Node7 -->
<g id="node7" class="node">
<title>Node7</title>
<g id="a_node7"><a xlink:title=" ">
<polygon fill="white" stroke="#bfbfbf" points="631.5,-62 631.5,-103 786.5,-103 786.5,-62 631.5,-62"/>
<text text-anchor="start" x="639.5" y="-91" font-family="Helvetica,sans-Serif" font-size="10.00">asm/JSystem/JKernel</text>
<text text-anchor="start" x="639.5" y="-80" font-family="Helvetica,sans-Serif" font-size="10.00">/JKRThread/__ct__9JKRThread</text>
<text text-anchor="middle" x="709" y="-69" font-family="Helvetica,sans-Serif" font-size="10.00">FP8OSThreadi.s</text>
</a>
</g>
</g>
<!-- Node1&#45;&gt;Node7 -->
<g id="edge7" class="edge">
<title>Node1&#45;&gt;Node7</title>
<path fill="none" stroke="midnightblue" d="M1599.33,-157.9C1435.69,-152.86 951.47,-136 796,-109 790.57,-108.06 785,-106.9 779.43,-105.59"/>
<polygon fill="midnightblue" stroke="midnightblue" points="779.98,-102.12 769.43,-103.11 778.29,-108.92 779.98,-102.12"/>
</g>
<!-- Node8 -->
<g id="node8" class="node">
<title>Node8</title>
<g id="a_node8"><a xlink:title=" ">
<polygon fill="white" stroke="#bfbfbf" points="804.5,-67.5 804.5,-97.5 977.5,-97.5 977.5,-67.5 804.5,-67.5"/>
<text text-anchor="start" x="812.5" y="-85.5" font-family="Helvetica,sans-Serif" font-size="10.00">asm/JSystem/JKernel</text>
<text text-anchor="middle" x="891" y="-74.5" font-family="Helvetica,sans-Serif" font-size="10.00">/JKRThread/__dt__9JKRThreadFv.s</text>
</a>
</g>
</g>
<!-- Node1&#45;&gt;Node8 -->
<g id="edge8" class="edge">
<title>Node1&#45;&gt;Node8</title>
<path fill="none" stroke="midnightblue" d="M1599.12,-158.75C1484.57,-156.45 1212,-147.07 987,-109 973.86,-106.78 959.9,-103.57 946.82,-100.18"/>
<polygon fill="midnightblue" stroke="midnightblue" points="947.57,-96.76 937.01,-97.56 945.77,-103.52 947.57,-96.76"/>
</g>
<!-- Node9 -->
<g id="node9" class="node">
<title>Node9</title>
<g id="a_node9"><a xlink:title=" ">
<polygon fill="white" stroke="#bfbfbf" points="995.5,-62 995.5,-103 1204.5,-103 1204.5,-62 995.5,-62"/>
<text text-anchor="start" x="1003.5" y="-91" font-family="Helvetica,sans-Serif" font-size="10.00">asm/JSystem/JKernel</text>
<text text-anchor="start" x="1003.5" y="-80" font-family="Helvetica,sans-Serif" font-size="10.00">/JKRThread/setCommon</text>
<text text-anchor="middle" x="1100" y="-69" font-family="Helvetica,sans-Serif" font-size="10.00">_mesgQueue__9JKRThreadFP7JKRHeapi.s</text>
</a>
</g>
</g>
<!-- Node1&#45;&gt;Node9 -->
<g id="edge9" class="edge">
<title>Node1&#45;&gt;Node9</title>
<path fill="none" stroke="midnightblue" d="M1599.21,-155.09C1515.71,-147.94 1351.8,-132.25 1214,-109 1206.99,-107.82 1199.76,-106.48 1192.5,-105.05"/>
<polygon fill="midnightblue" stroke="midnightblue" points="1193.1,-101.6 1182.61,-103.06 1191.72,-108.46 1193.1,-101.6"/>
</g>
<!-- Node10 -->
<g id="node10" class="node">
<title>Node10</title>
<g id="a_node10"><a xlink:title=" ">
<polygon fill="white" stroke="#bfbfbf" points="1222.5,-56.5 1222.5,-108.5 1387.5,-108.5 1387.5,-56.5 1222.5,-56.5"/>
<text text-anchor="start" x="1230.5" y="-96.5" font-family="Helvetica,sans-Serif" font-size="10.00">asm/JSystem/JKernel</text>
<text text-anchor="start" x="1230.5" y="-85.5" font-family="Helvetica,sans-Serif" font-size="10.00">/JKRThread/setCommon</text>
<text text-anchor="start" x="1230.5" y="-74.5" font-family="Helvetica,sans-Serif" font-size="10.00">_heapSpecified__9JKRThreadFP7</text>
<text text-anchor="middle" x="1305" y="-63.5" font-family="Helvetica,sans-Serif" font-size="10.00">JKRHeapUli.s</text>
</a>
</g>
</g>
<!-- Node1&#45;&gt;Node10 -->
<g id="edge10" class="edge">
<title>Node1&#45;&gt;Node10</title>
<path fill="none" stroke="midnightblue" d="M1599.09,-149.97C1549.12,-141.01 1473.13,-126.67 1397.81,-109.12"/>
<polygon fill="midnightblue" stroke="midnightblue" points="1398.21,-105.62 1387.68,-106.74 1396.61,-112.43 1398.21,-105.62"/>
</g>
<!-- Node11 -->
<g id="node11" class="node">
<title>Node11</title>
<g id="a_node11"><a xlink:title=" ">
<polygon fill="white" stroke="#bfbfbf" points="1405.5,-62 1405.5,-103 1560.5,-103 1560.5,-62 1405.5,-62"/>
<text text-anchor="start" x="1413.5" y="-91" font-family="Helvetica,sans-Serif" font-size="10.00">asm/JSystem/JKernel</text>
<text text-anchor="start" x="1413.5" y="-80" font-family="Helvetica,sans-Serif" font-size="10.00">/JKRThread/start__9JKRThread</text>
<text text-anchor="middle" x="1483" y="-69" font-family="Helvetica,sans-Serif" font-size="10.00">FPv.s</text>
</a>
</g>
</g>
<!-- Node1&#45;&gt;Node11 -->
<g id="edge11" class="edge">
<title>Node1&#45;&gt;Node11</title>
<path fill="none" stroke="midnightblue" d="M1622.24,-145.38C1598.2,-134.7 1564.63,-119.78 1536.48,-107.27"/>
<polygon fill="midnightblue" stroke="midnightblue" points="1537.72,-103.99 1527.16,-103.13 1534.88,-110.39 1537.72,-103.99"/>
</g>
<!-- Node12 -->
<g id="node12" class="node">
<title>Node12</title>
<g id="a_node12"><a xlink:title=" ">
<polygon fill="white" stroke="#bfbfbf" points="1578.5,-62 1578.5,-103 1729.5,-103 1729.5,-62 1578.5,-62"/>
<text text-anchor="start" x="1586.5" y="-91" font-family="Helvetica,sans-Serif" font-size="10.00">asm/JSystem/JKernel</text>
<text text-anchor="start" x="1586.5" y="-80" font-family="Helvetica,sans-Serif" font-size="10.00">/JKRThread/searchThread</text>
<text text-anchor="middle" x="1654" y="-69" font-family="Helvetica,sans-Serif" font-size="10.00">__9JKRThreadFP8OSThread.s</text>
</a>
</g>
</g>
<!-- Node1&#45;&gt;Node12 -->
<g id="edge12" class="edge">
<title>Node1&#45;&gt;Node12</title>
<path fill="none" stroke="midnightblue" d="M1654,-145.2C1654,-136.21 1654,-124.27 1654,-113.29"/>
<polygon fill="midnightblue" stroke="midnightblue" points="1657.5,-113.18 1654,-103.18 1650.5,-113.18 1657.5,-113.18"/>
</g>
<!-- Node13 -->
<g id="node13" class="node">
<title>Node13</title>
<g id="a_node13"><a xlink:title=" ">
<polygon fill="white" stroke="#bfbfbf" points="1748,-62 1748,-103 1908,-103 1908,-62 1748,-62"/>
<text text-anchor="start" x="1756" y="-91" font-family="Helvetica,sans-Serif" font-size="10.00">asm/JSystem/JKernel</text>
<text text-anchor="start" x="1756" y="-80" font-family="Helvetica,sans-Serif" font-size="10.00">/JKRThread/__ct__15JKRThread</text>
<text text-anchor="middle" x="1828" y="-69" font-family="Helvetica,sans-Serif" font-size="10.00">SwitchFP7JKRHeap.s</text>
</a>
</g>
</g>
<!-- Node1&#45;&gt;Node13 -->
<g id="edge13" class="edge">
<title>Node1&#45;&gt;Node13</title>
<path fill="none" stroke="midnightblue" d="M1686.32,-145.38C1710.78,-134.7 1744.93,-119.78 1773.58,-107.27"/>
<polygon fill="midnightblue" stroke="midnightblue" points="1775.3,-110.34 1783.06,-103.13 1772.5,-103.92 1775.3,-110.34"/>
</g>
<!-- Node14 -->
<g id="node14" class="node">
<title>Node14</title>
<g id="a_node14"><a xlink:title=" ">
<polygon fill="white" stroke="#bfbfbf" points="1926,-62 1926,-103 2110,-103 2110,-62 1926,-62"/>
<text text-anchor="start" x="1934" y="-91" font-family="Helvetica,sans-Serif" font-size="10.00">asm/JSystem/JKernel</text>
<text text-anchor="start" x="1934" y="-80" font-family="Helvetica,sans-Serif" font-size="10.00">/JKRThread/createManager</text>
<text text-anchor="middle" x="2018" y="-69" font-family="Helvetica,sans-Serif" font-size="10.00">__15JKRThreadSwitchFP7JKRHeap.s</text>
</a>
</g>
</g>
<!-- Node1&#45;&gt;Node14 -->
<g id="edge14" class="edge">
<title>Node1&#45;&gt;Node14</title>
<path fill="none" stroke="midnightblue" d="M1708.59,-149.97C1761.91,-140.43 1845.29,-124.92 1917,-109 1922.06,-107.88 1927.25,-106.69 1932.47,-105.46"/>
<polygon fill="midnightblue" stroke="midnightblue" points="1933.64,-108.78 1942.56,-103.05 1932.02,-101.97 1933.64,-108.78"/>
</g>
<!-- Node15 -->
<g id="node15" class="node">
<title>Node15</title>
<g id="a_node15"><a xlink:title=" ">
<polygon fill="white" stroke="#bfbfbf" points="2128.5,-62 2128.5,-103 2291.5,-103 2291.5,-62 2128.5,-62"/>
<text text-anchor="start" x="2136.5" y="-91" font-family="Helvetica,sans-Serif" font-size="10.00">asm/JSystem/JKernel</text>
<text text-anchor="start" x="2136.5" y="-80" font-family="Helvetica,sans-Serif" font-size="10.00">/JKRThread/enter__15JKRThread</text>
<text text-anchor="middle" x="2210" y="-69" font-family="Helvetica,sans-Serif" font-size="10.00">SwitchFP9JKRThreadi.s</text>
</a>
</g>
</g>
<!-- Node1&#45;&gt;Node15 -->
<g id="edge15" class="edge">
<title>Node1&#45;&gt;Node15</title>
<path fill="none" stroke="midnightblue" d="M1708.84,-156.48C1796.26,-151.02 1972.29,-137.32 2119,-109 2124.34,-107.97 2129.82,-106.78 2135.31,-105.49"/>
<polygon fill="midnightblue" stroke="midnightblue" points="2136.31,-108.85 2145.19,-103.06 2134.65,-102.05 2136.31,-108.85"/>
</g>
<!-- Node16 -->
<g id="node16" class="node">
<title>Node16</title>
<g id="a_node16"><a xlink:title=" ">
<polygon fill="white" stroke="#bfbfbf" points="2309.5,-56.5 2309.5,-108.5 2488.5,-108.5 2488.5,-56.5 2309.5,-56.5"/>
<text text-anchor="start" x="2317.5" y="-96.5" font-family="Helvetica,sans-Serif" font-size="10.00">asm/JSystem/JKernel</text>
<text text-anchor="start" x="2317.5" y="-85.5" font-family="Helvetica,sans-Serif" font-size="10.00">/JKRThread/callback</text>
<text text-anchor="start" x="2317.5" y="-74.5" font-family="Helvetica,sans-Serif" font-size="10.00">__15JKRThreadSwitchFP8OSThread</text>
<text text-anchor="middle" x="2399" y="-63.5" font-family="Helvetica,sans-Serif" font-size="10.00">P8OSThread.s</text>
</a>
</g>
</g>
<!-- Node1&#45;&gt;Node16 -->
<g id="edge16" class="edge">
<title>Node1&#45;&gt;Node16</title>
<path fill="none" stroke="midnightblue" d="M1708.5,-158.49C1818.69,-155.74 2075.81,-145.79 2299.46,-109.14"/>
<polygon fill="midnightblue" stroke="midnightblue" points="2300.12,-112.58 2309.42,-107.49 2298.98,-105.67 2300.12,-112.58"/>
</g>
<!-- Node17 -->
<g id="node17" class="node">
<title>Node17</title>
<g id="a_node17"><a xlink:title=" ">
<polygon fill="white" stroke="#bfbfbf" points="2506.5,-62 2506.5,-103 2735.5,-103 2735.5,-62 2506.5,-62"/>
<text text-anchor="start" x="2514.5" y="-91" font-family="Helvetica,sans-Serif" font-size="10.00">asm/JSystem/JKernel</text>
<text text-anchor="start" x="2514.5" y="-80" font-family="Helvetica,sans-Serif" font-size="10.00">/JKRThread/draw__15JKRThread</text>
<text text-anchor="middle" x="2621" y="-69" font-family="Helvetica,sans-Serif" font-size="10.00">SwitchFP14JKRThreadName_P10JUTConsole.s</text>
</a>
</g>
</g>
<!-- Node1&#45;&gt;Node17 -->
<g id="edge17" class="edge">
<title>Node1&#45;&gt;Node17</title>
<path fill="none" stroke="midnightblue" d="M1708.57,-158.96C1843.22,-157.05 2201.88,-148.34 2498,-109 2506.64,-107.85 2515.58,-106.44 2524.51,-104.88"/>
<polygon fill="midnightblue" stroke="midnightblue" points="2525.37,-108.28 2534.58,-103.05 2524.12,-101.39 2525.37,-108.28"/>
</g>
<!-- Node18 -->
<g id="node18" class="node">
<title>Node18</title>
<g id="a_node18"><a xlink:title=" ">
<polygon fill="white" stroke="#bfbfbf" points="2754,-62 2754,-103 2916,-103 2916,-62 2754,-62"/>
<text text-anchor="start" x="2762" y="-91" font-family="Helvetica,sans-Serif" font-size="10.00">asm/JSystem/JKernel</text>
<text text-anchor="start" x="2762" y="-80" font-family="Helvetica,sans-Serif" font-size="10.00">/JKRThread/draw__15JKRThread</text>
<text text-anchor="middle" x="2835" y="-69" font-family="Helvetica,sans-Serif" font-size="10.00">SwitchFP14JKRThreadName_.s</text>
</a>
</g>
</g>
<!-- Node1&#45;&gt;Node18 -->
<g id="edge18" class="edge">
<title>Node1&#45;&gt;Node18</title>
<path fill="none" stroke="midnightblue" d="M1708.77,-158.63C1900.7,-155.31 2542.17,-141.98 2745,-109 2750.85,-108.05 2756.87,-106.85 2762.88,-105.49"/>
<polygon fill="midnightblue" stroke="midnightblue" points="2764.05,-108.81 2772.96,-103.08 2762.42,-102 2764.05,-108.81"/>
</g>
<!-- Node19 -->
<g id="node19" class="node">
<title>Node19</title>
<g id="a_node19"><a xlink:title=" ">
<polygon fill="white" stroke="#bfbfbf" points="2934,-62 2934,-103 3094,-103 3094,-62 2934,-62"/>
<text text-anchor="start" x="2942" y="-91" font-family="Helvetica,sans-Serif" font-size="10.00">asm/JSystem/JKernel</text>
<text text-anchor="start" x="2942" y="-80" font-family="Helvetica,sans-Serif" font-size="10.00">/JKRThread/__dt__15JKRThread</text>
<text text-anchor="middle" x="3014" y="-69" font-family="Helvetica,sans-Serif" font-size="10.00">SwitchFv.s</text>
</a>
</g>
</g>
<!-- Node1&#45;&gt;Node19 -->
<g id="edge19" class="edge">
<title>Node1&#45;&gt;Node19</title>
<path fill="none" stroke="midnightblue" d="M1708.83,-159.07C1920.62,-157.12 2685.43,-147.51 2925,-109 2930.9,-108.05 2936.96,-106.84 2943.01,-105.47"/>
<polygon fill="midnightblue" stroke="midnightblue" points="2944.26,-108.77 2953.15,-103.01 2942.61,-101.96 2944.26,-108.77"/>
</g>
<!-- Node20 -->
<g id="node20" class="node">
<title>Node20</title>
<g id="a_node20"><a xlink:title=" ">
<polygon fill="white" stroke="#bfbfbf" points="3112,-67.5 3112,-97.5 3294,-97.5 3294,-67.5 3112,-67.5"/>
<text text-anchor="start" x="3120" y="-85.5" font-family="Helvetica,sans-Serif" font-size="10.00">asm/JSystem/JKernel</text>
<text text-anchor="middle" x="3203" y="-74.5" font-family="Helvetica,sans-Serif" font-size="10.00">/JKRThread/__sinit_JKRThread_cpp.s</text>
</a>
</g>
</g>
<!-- Node1&#45;&gt;Node20 -->
<g id="edge20" class="edge">
<title>Node1&#45;&gt;Node20</title>
<path fill="none" stroke="midnightblue" d="M1708.86,-159.16C1938.87,-157.51 2826.26,-148.64 3103,-109 3117.27,-106.96 3132.45,-103.68 3146.56,-100.14"/>
<polygon fill="midnightblue" stroke="midnightblue" points="3147.81,-103.43 3156.61,-97.54 3146.05,-96.66 3147.81,-103.43"/>
</g>
<!-- Node21 -->
<g id="node21" class="node">
<title>Node21</title>
<g id="a_node21"><a xlink:title=" ">
<polygon fill="white" stroke="#bfbfbf" points="3312.5,-67.5 3312.5,-97.5 3461.5,-97.5 3461.5,-67.5 3312.5,-67.5"/>
<text text-anchor="start" x="3320.5" y="-85.5" font-family="Helvetica,sans-Serif" font-size="10.00">asm/JSystem/JKernel</text>
<text text-anchor="middle" x="3387" y="-74.5" font-family="Helvetica,sans-Serif" font-size="10.00">/JKRThread/func_802D1EFC.s</text>
</a>
</g>
</g>
<!-- Node1&#45;&gt;Node21 -->
<g id="edge21" class="edge">
<title>Node1&#45;&gt;Node21</title>
<path fill="none" stroke="midnightblue" d="M1708.76,-159.76C1957.91,-160.65 2985.92,-161.04 3303,-109 3314.63,-107.09 3326.9,-104.01 3338.36,-100.63"/>
<polygon fill="midnightblue" stroke="midnightblue" points="3339.66,-103.9 3348.19,-97.62 3337.61,-97.21 3339.66,-103.9"/>
</g>
<!-- Node22 -->
<g id="node22" class="node">
<title>Node22</title>
<g id="a_node22"><a xlink:title=" ">
<polygon fill="white" stroke="#bfbfbf" points="3479.5,-67.5 3479.5,-97.5 3626.5,-97.5 3626.5,-67.5 3479.5,-67.5"/>
<text text-anchor="start" x="3487.5" y="-85.5" font-family="Helvetica,sans-Serif" font-size="10.00">asm/JSystem/JKernel</text>
<text text-anchor="middle" x="3553" y="-74.5" font-family="Helvetica,sans-Serif" font-size="10.00">/JKRThread/func_802D1F50.s</text>
</a>
</g>
</g>
<!-- Node1&#45;&gt;Node22 -->
<g id="edge22" class="edge">
<title>Node1&#45;&gt;Node22</title>
<path fill="none" stroke="midnightblue" d="M1708.55,-158.87C1992.34,-155.49 3293.65,-138.47 3471,-109 3482.49,-107.09 3494.6,-103.97 3505.89,-100.56"/>
<polygon fill="midnightblue" stroke="midnightblue" points="3507.07,-103.86 3515.56,-97.51 3504.97,-97.18 3507.07,-103.86"/>
</g>
<!-- Node2&#45;&gt;Node3 -->
<g id="edge2" class="edge">
<title>Node2&#45;&gt;Node3</title>
<path fill="none" stroke="midnightblue" d="M81.25,-72.86C89.28,-61.76 103.4,-42.24 113.63,-28.09"/>
<polygon fill="midnightblue" stroke="midnightblue" points="116.67,-29.87 119.7,-19.72 111,-25.77 116.67,-29.87"/>
</g>
</g>
</svg>
