<?xml version="1.0" encoding="UTF-8" standalone="no"?>
<!DOCTYPE svg PUBLIC "-//W3C//DTD SVG 1.1//EN"
 "http://www.w3.org/Graphics/SVG/1.1/DTD/svg11.dtd">
<!-- Generated by graphviz version 2.47.0 (20210316.2052)
 -->
<!-- Title: libs/JSystem/JParticle/JPAChildShape.cpp Pages: 1 -->
<svg width="1030pt" height="184pt"
 viewBox="0.00 0.00 1029.50 184.00" xmlns="http://www.w3.org/2000/svg" xmlns:xlink="http://www.w3.org/1999/xlink">
<g id="graph0" class="graph" transform="scale(1 1) rotate(0) translate(4 180)">
<title>libs/JSystem/JParticle/JPAChildShape.cpp</title>
<polygon fill="white" stroke="transparent" points="-4,4 -4,-180 1025.5,-180 1025.5,4 -4,4"/>
<!-- Node1 -->
<g id="node1" class="node">
<title>Node1</title>
<g id="a_node1"><a xlink:title=" ">
<polygon fill="#bfbfbf" stroke="black" points="311.5,-145.5 311.5,-175.5 425.5,-175.5 425.5,-145.5 311.5,-145.5"/>
<text text-anchor="start" x="319.5" y="-163.5" font-family="Helvetica,sans-Serif" font-size="10.00">libs/JSystem/JParticle</text>
<text text-anchor="middle" x="368.5" y="-152.5" font-family="Helvetica,sans-Serif" font-size="10.00">/JPAChildShape.cpp</text>
</a>
</g>
</g>
<!-- Node2 -->
<g id="node2" class="node">
<title>Node2</title>
<g id="a_node2"><a xlink:href="dol2asm_8h.html" target="_top" xlink:title=" ">
<polygon fill="white" stroke="black" points="0,-73 0,-92 61,-92 61,-73 0,-73"/>
<text text-anchor="middle" x="30.5" y="-80" font-family="Helvetica,sans-Serif" font-size="10.00">dol2asm.h</text>
</a>
</g>
</g>
<!-- Node1&#45;&gt;Node2 -->
<g id="edge1" class="edge">
<title>Node1&#45;&gt;Node2</title>
<path fill="none" stroke="midnightblue" d="M311.41,-155.5C251.26,-149.96 154.49,-137.22 75.5,-109 67.29,-106.07 58.84,-101.7 51.51,-97.4"/>
<polygon fill="midnightblue" stroke="midnightblue" points="53.28,-94.37 42.93,-92.1 49.6,-100.33 53.28,-94.37"/>
</g>
<!-- Node3 -->
<g id="node3" class="node">
<title>Node3</title>
<g id="a_node3"><a xlink:href="types_8h.html" target="_top" xlink:title=" ">
<polygon fill="white" stroke="black" points="98,-0.5 98,-19.5 179,-19.5 179,-0.5 98,-0.5"/>
<text text-anchor="middle" x="138.5" y="-7.5" font-family="Helvetica,sans-Serif" font-size="10.00">dolphin/types.h</text>
</a>
</g>
</g>
<!-- Node1&#45;&gt;Node3 -->
<g id="edge2" class="edge">
<title>Node1&#45;&gt;Node3</title>
<path fill="none" stroke="midnightblue" d="M311.32,-156.63C242.69,-151.86 133.69,-139.56 108.5,-109 88.89,-85.21 109.56,-48.74 124.98,-27.64"/>
<polygon fill="midnightblue" stroke="midnightblue" points="127.82,-29.69 131.13,-19.63 122.26,-25.43 127.82,-29.69"/>
</g>
<!-- Node4 -->
<g id="node4" class="node">
<title>Node4</title>
<g id="a_node4"><a xlink:href="JPAChildShape_8h.html" target="_top" xlink:title=" ">
<polygon fill="white" stroke="black" points="117.5,-67.5 117.5,-97.5 257.5,-97.5 257.5,-67.5 117.5,-67.5"/>
<text text-anchor="start" x="125.5" y="-85.5" font-family="Helvetica,sans-Serif" font-size="10.00">JSystem/JParticle/JPAChild</text>
<text text-anchor="middle" x="187.5" y="-74.5" font-family="Helvetica,sans-Serif" font-size="10.00">Shape.h</text>
</a>
</g>
</g>
<!-- Node1&#45;&gt;Node4 -->
<g id="edge3" class="edge">
<title>Node1&#45;&gt;Node4</title>
<path fill="none" stroke="midnightblue" d="M334.88,-145.38C305.42,-133.01 262.43,-114.96 230.48,-101.54"/>
<polygon fill="midnightblue" stroke="midnightblue" points="231.52,-98.19 220.94,-97.54 228.81,-104.64 231.52,-98.19"/>
</g>
<!-- Node5 -->
<g id="node5" class="node">
<title>Node5</title>
<g id="a_node5"><a xlink:title=" ">
<polygon fill="white" stroke="#bfbfbf" points="276,-62 276,-103 461,-103 461,-62 276,-62"/>
<text text-anchor="start" x="284" y="-91" font-family="Helvetica,sans-Serif" font-size="10.00">asm/JSystem/JParticle</text>
<text text-anchor="start" x="284" y="-80" font-family="Helvetica,sans-Serif" font-size="10.00">/JPAChildShape/JPARegistChild</text>
<text text-anchor="middle" x="368.5" y="-69" font-family="Helvetica,sans-Serif" font-size="10.00">PrmEnv__FP18JPAEmitterWorkData.s</text>
</a>
</g>
</g>
<!-- Node1&#45;&gt;Node5 -->
<g id="edge5" class="edge">
<title>Node1&#45;&gt;Node5</title>
<path fill="none" stroke="midnightblue" d="M368.5,-145.2C368.5,-136.21 368.5,-124.27 368.5,-113.29"/>
<polygon fill="midnightblue" stroke="midnightblue" points="372,-113.18 368.5,-103.18 365,-113.18 372,-113.18"/>
</g>
<!-- Node6 -->
<g id="node6" class="node">
<title>Node6</title>
<g id="a_node6"><a xlink:title=" ">
<polygon fill="white" stroke="#bfbfbf" points="479,-56.5 479,-108.5 662,-108.5 662,-56.5 479,-56.5"/>
<text text-anchor="start" x="487" y="-96.5" font-family="Helvetica,sans-Serif" font-size="10.00">asm/JSystem/JParticle</text>
<text text-anchor="start" x="487" y="-85.5" font-family="Helvetica,sans-Serif" font-size="10.00">/JPAChildShape/JPACalcChild</text>
<text text-anchor="start" x="487" y="-74.5" font-family="Helvetica,sans-Serif" font-size="10.00">AlphaOut__FP18JPAEmitterWorkData</text>
<text text-anchor="middle" x="570.5" y="-63.5" font-family="Helvetica,sans-Serif" font-size="10.00">P15JPABaseParticle.s</text>
</a>
</g>
</g>
<!-- Node1&#45;&gt;Node6 -->
<g id="edge6" class="edge">
<title>Node1&#45;&gt;Node6</title>
<path fill="none" stroke="midnightblue" d="M406.02,-145.38C430.73,-136.09 463.96,-123.58 494.09,-112.25"/>
<polygon fill="midnightblue" stroke="midnightblue" points="495.62,-115.41 503.75,-108.62 493.15,-108.86 495.62,-115.41"/>
</g>
<!-- Node7 -->
<g id="node7" class="node">
<title>Node7</title>
<g id="a_node7"><a xlink:title=" ">
<polygon fill="white" stroke="#bfbfbf" points="680,-56.5 680,-108.5 863,-108.5 863,-56.5 680,-56.5"/>
<text text-anchor="start" x="688" y="-96.5" font-family="Helvetica,sans-Serif" font-size="10.00">asm/JSystem/JParticle</text>
<text text-anchor="start" x="688" y="-85.5" font-family="Helvetica,sans-Serif" font-size="10.00">/JPAChildShape/JPACalcChild</text>
<text text-anchor="start" x="688" y="-74.5" font-family="Helvetica,sans-Serif" font-size="10.00">ScaleOut__FP18JPAEmitterWorkData</text>
<text text-anchor="middle" x="771.5" y="-63.5" font-family="Helvetica,sans-Serif" font-size="10.00">P15JPABaseParticle.s</text>
</a>
</g>
</g>
<!-- Node1&#45;&gt;Node7 -->
<g id="edge7" class="edge">
<title>Node1&#45;&gt;Node7</title>
<path fill="none" stroke="midnightblue" d="M425.73,-151.44C484.71,-142.79 579.48,-127.99 669.89,-109.28"/>
<polygon fill="midnightblue" stroke="midnightblue" points="670.68,-112.69 679.75,-107.22 669.25,-105.84 670.68,-112.69"/>
</g>
<!-- Node8 -->
<g id="node8" class="node">
<title>Node8</title>
<g id="a_node8"><a xlink:title=" ">
<polygon fill="white" stroke="#bfbfbf" points="881.5,-62 881.5,-103 1021.5,-103 1021.5,-62 881.5,-62"/>
<text text-anchor="start" x="889.5" y="-91" font-family="Helvetica,sans-Serif" font-size="10.00">asm/JSystem/JParticle</text>
<text text-anchor="start" x="889.5" y="-80" font-family="Helvetica,sans-Serif" font-size="10.00">/JPAChildShape/__ct_</text>
<text text-anchor="middle" x="951.5" y="-69" font-family="Helvetica,sans-Serif" font-size="10.00">_13JPAChildShapeFPCUc.s</text>
</a>
</g>
</g>
<!-- Node1&#45;&gt;Node8 -->
<g id="edge8" class="edge">
<title>Node1&#45;&gt;Node8</title>
<path fill="none" stroke="midnightblue" d="M425.79,-157.71C519.92,-153.9 712.83,-142.37 872.5,-109 876.9,-108.08 881.41,-107 885.92,-105.83"/>
<polygon fill="midnightblue" stroke="midnightblue" points="887.08,-109.14 895.79,-103.1 885.22,-102.39 887.08,-109.14"/>
</g>
<!-- Node4&#45;&gt;Node3 -->
<g id="edge4" class="edge">
<title>Node4&#45;&gt;Node3</title>
<path fill="none" stroke="midnightblue" d="M177.58,-67.23C169.74,-55.95 158.76,-40.15 150.43,-28.17"/>
<polygon fill="midnightblue" stroke="midnightblue" points="153.26,-26.11 144.68,-19.89 147.51,-30.1 153.26,-26.11"/>
</g>
</g>
</svg>
