<?xml version="1.0" encoding="UTF-8" standalone="no"?>
<!DOCTYPE svg PUBLIC "-//W3C//DTD SVG 1.1//EN"
 "http://www.w3.org/Graphics/SVG/1.1/DTD/svg11.dtd">
<!-- Generated by graphviz version 2.47.0 (20210316.2052)
 -->
<!-- Title: libs/JSystem/JParticle/JPAChildShape.cpp Pages: 1 -->
<svg width="1029pt" height="184pt"
 viewBox="0.00 0.00 1029.00 184.00" xmlns="http://www.w3.org/2000/svg" xmlns:xlink="http://www.w3.org/1999/xlink">
<g id="graph0" class="graph" transform="scale(1 1) rotate(0) translate(4 180)">
<title>libs/JSystem/JParticle/JPAChildShape.cpp</title>
<polygon fill="white" stroke="transparent" points="-4,4 -4,-180 1025,-180 1025,4 -4,4"/>
<!-- Node1 -->
<g id="node1" class="node">
<title>Node1</title>
<g id="a_node1"><a xlink:title=" ">
<polygon fill="#bfbfbf" stroke="black" points="311,-145.5 311,-175.5 425,-175.5 425,-145.5 311,-145.5"/>
<text text-anchor="start" x="319" y="-163.5" font-family="Helvetica,sans-Serif" font-size="10.00">libs/JSystem/JParticle</text>
<text text-anchor="middle" x="368" y="-152.5" font-family="Helvetica,sans-Serif" font-size="10.00">/JPAChildShape.cpp</text>
</a>
</g>
</g>
<!-- Node2 -->
<g id="node2" class="node">
<title>Node2</title>
<g id="a_node2"><a xlink:href="JPAChildShape_8h.html" target="_top" xlink:title=" ">
<polygon fill="white" stroke="black" points="0,-67.5 0,-97.5 140,-97.5 140,-67.5 0,-67.5"/>
<text text-anchor="start" x="8" y="-85.5" font-family="Helvetica,sans-Serif" font-size="10.00">JSystem/JParticle/JPAChild</text>
<text text-anchor="middle" x="70" y="-74.5" font-family="Helvetica,sans-Serif" font-size="10.00">Shape.h</text>
</a>
</g>
</g>
<!-- Node1&#45;&gt;Node2 -->
<g id="edge1" class="edge">
<title>Node1&#45;&gt;Node2</title>
<path fill="none" stroke="midnightblue" d="M310.98,-147.07C267.73,-137.4 206.89,-123.25 154,-109 144.29,-106.38 134,-103.42 124.08,-100.46"/>
<polygon fill="midnightblue" stroke="midnightblue" points="124.9,-97.06 114.32,-97.52 122.88,-103.76 124.9,-97.06"/>
</g>
<!-- Node3 -->
<g id="node3" class="node">
<title>Node3</title>
<g id="a_node3"><a xlink:href="types_8h.html" target="_top" xlink:title=" ">
<polygon fill="white" stroke="black" points="78.5,-0.5 78.5,-19.5 159.5,-19.5 159.5,-0.5 78.5,-0.5"/>
<text text-anchor="middle" x="119" y="-7.5" font-family="Helvetica,sans-Serif" font-size="10.00">dolphin/types.h</text>
</a>
</g>
</g>
<!-- Node1&#45;&gt;Node3 -->
<g id="edge4" class="edge">
<title>Node1&#45;&gt;Node3</title>
<path fill="none" stroke="midnightblue" d="M310.6,-153.48C272.95,-147.24 224.17,-134.58 188,-109 184.05,-106.21 149.39,-55.71 130.75,-28.32"/>
<polygon fill="midnightblue" stroke="midnightblue" points="133.42,-26.02 124.9,-19.71 127.63,-29.95 133.42,-26.02"/>
</g>
<!-- Node4 -->
<g id="node4" class="node">
<title>Node4</title>
<g id="a_node4"><a xlink:href="dol2asm_8h.html" target="_top" xlink:title=" ">
<polygon fill="white" stroke="black" points="196.5,-73 196.5,-92 257.5,-92 257.5,-73 196.5,-73"/>
<text text-anchor="middle" x="227" y="-80" font-family="Helvetica,sans-Serif" font-size="10.00">dol2asm.h</text>
</a>
</g>
</g>
<!-- Node1&#45;&gt;Node4 -->
<g id="edge3" class="edge">
<title>Node1&#45;&gt;Node4</title>
<path fill="none" stroke="midnightblue" d="M337.96,-145.49C317.65,-135.77 290.37,-122.24 267,-109 260.89,-105.54 254.41,-101.55 248.48,-97.77"/>
<polygon fill="midnightblue" stroke="midnightblue" points="250.06,-94.62 239.76,-92.11 246.25,-100.49 250.06,-94.62"/>
</g>
<!-- Node5 -->
<g id="node5" class="node">
<title>Node5</title>
<g id="a_node5"><a xlink:title=" ">
<polygon fill="white" stroke="#bfbfbf" points="275.5,-62 275.5,-103 460.5,-103 460.5,-62 275.5,-62"/>
<text text-anchor="start" x="283.5" y="-91" font-family="Helvetica,sans-Serif" font-size="10.00">asm/JSystem/JParticle</text>
<text text-anchor="start" x="283.5" y="-80" font-family="Helvetica,sans-Serif" font-size="10.00">/JPAChildShape/JPARegistChild</text>
<text text-anchor="middle" x="368" y="-69" font-family="Helvetica,sans-Serif" font-size="10.00">PrmEnv__FP18JPAEmitterWorkData.s</text>
</a>
</g>
</g>
<!-- Node1&#45;&gt;Node5 -->
<g id="edge5" class="edge">
<title>Node1&#45;&gt;Node5</title>
<path fill="none" stroke="midnightblue" d="M368,-145.2C368,-136.21 368,-124.27 368,-113.29"/>
<polygon fill="midnightblue" stroke="midnightblue" points="371.5,-113.18 368,-103.18 364.5,-113.18 371.5,-113.18"/>
</g>
<!-- Node6 -->
<g id="node6" class="node">
<title>Node6</title>
<g id="a_node6"><a xlink:title=" ">
<polygon fill="white" stroke="#bfbfbf" points="478.5,-56.5 478.5,-108.5 661.5,-108.5 661.5,-56.5 478.5,-56.5"/>
<text text-anchor="start" x="486.5" y="-96.5" font-family="Helvetica,sans-Serif" font-size="10.00">asm/JSystem/JParticle</text>
<text text-anchor="start" x="486.5" y="-85.5" font-family="Helvetica,sans-Serif" font-size="10.00">/JPAChildShape/JPACalcChild</text>
<text text-anchor="start" x="486.5" y="-74.5" font-family="Helvetica,sans-Serif" font-size="10.00">AlphaOut__FP18JPAEmitterWorkData</text>
<text text-anchor="middle" x="570" y="-63.5" font-family="Helvetica,sans-Serif" font-size="10.00">P15JPABaseParticle.s</text>
</a>
</g>
</g>
<!-- Node1&#45;&gt;Node6 -->
<g id="edge6" class="edge">
<title>Node1&#45;&gt;Node6</title>
<path fill="none" stroke="midnightblue" d="M405.52,-145.38C430.23,-136.09 463.46,-123.58 493.59,-112.25"/>
<polygon fill="midnightblue" stroke="midnightblue" points="495.12,-115.41 503.25,-108.62 492.65,-108.86 495.12,-115.41"/>
</g>
<!-- Node7 -->
<g id="node7" class="node">
<title>Node7</title>
<g id="a_node7"><a xlink:title=" ">
<polygon fill="white" stroke="#bfbfbf" points="679.5,-56.5 679.5,-108.5 862.5,-108.5 862.5,-56.5 679.5,-56.5"/>
<text text-anchor="start" x="687.5" y="-96.5" font-family="Helvetica,sans-Serif" font-size="10.00">asm/JSystem/JParticle</text>
<text text-anchor="start" x="687.5" y="-85.5" font-family="Helvetica,sans-Serif" font-size="10.00">/JPAChildShape/JPACalcChild</text>
<text text-anchor="start" x="687.5" y="-74.5" font-family="Helvetica,sans-Serif" font-size="10.00">ScaleOut__FP18JPAEmitterWorkData</text>
<text text-anchor="middle" x="771" y="-63.5" font-family="Helvetica,sans-Serif" font-size="10.00">P15JPABaseParticle.s</text>
</a>
</g>
</g>
<!-- Node1&#45;&gt;Node7 -->
<g id="edge7" class="edge">
<title>Node1&#45;&gt;Node7</title>
<path fill="none" stroke="midnightblue" d="M425.23,-151.44C484.21,-142.79 578.98,-127.99 669.39,-109.28"/>
<polygon fill="midnightblue" stroke="midnightblue" points="670.18,-112.69 679.25,-107.22 668.75,-105.84 670.18,-112.69"/>
</g>
<!-- Node8 -->
<g id="node8" class="node">
<title>Node8</title>
<g id="a_node8"><a xlink:title=" ">
<polygon fill="white" stroke="#bfbfbf" points="881,-62 881,-103 1021,-103 1021,-62 881,-62"/>
<text text-anchor="start" x="889" y="-91" font-family="Helvetica,sans-Serif" font-size="10.00">asm/JSystem/JParticle</text>
<text text-anchor="start" x="889" y="-80" font-family="Helvetica,sans-Serif" font-size="10.00">/JPAChildShape/__ct_</text>
<text text-anchor="middle" x="951" y="-69" font-family="Helvetica,sans-Serif" font-size="10.00">_13JPAChildShapeFPCUc.s</text>
</a>
</g>
</g>
<!-- Node1&#45;&gt;Node8 -->
<g id="edge8" class="edge">
<title>Node1&#45;&gt;Node8</title>
<path fill="none" stroke="midnightblue" d="M425.29,-157.71C519.42,-153.9 712.33,-142.37 872,-109 876.4,-108.08 880.91,-107 885.42,-105.83"/>
<polygon fill="midnightblue" stroke="midnightblue" points="886.58,-109.14 895.29,-103.1 884.72,-102.39 886.58,-109.14"/>
</g>
<!-- Node2&#45;&gt;Node3 -->
<g id="edge2" class="edge">
<title>Node2&#45;&gt;Node3</title>
<path fill="none" stroke="midnightblue" d="M79.92,-67.23C87.76,-55.95 98.74,-40.15 107.07,-28.17"/>
<polygon fill="midnightblue" stroke="midnightblue" points="109.99,-30.1 112.82,-19.89 104.24,-26.11 109.99,-30.1"/>
</g>
</g>
</svg>
