<?xml version="1.0" encoding="UTF-8" standalone="no"?>
<!DOCTYPE svg PUBLIC "-//W3C//DTD SVG 1.1//EN"
 "http://www.w3.org/Graphics/SVG/1.1/DTD/svg11.dtd">
<!-- Generated by graphviz version 2.47.0 (20210316.2052)
 -->
<!-- Title: libs/JSystem/JParticle/JPAExTexShape.cpp Pages: 1 -->
<svg width="613pt" height="173pt"
 viewBox="0.00 0.00 613.00 173.00" xmlns="http://www.w3.org/2000/svg" xmlns:xlink="http://www.w3.org/1999/xlink">
<g id="graph0" class="graph" transform="scale(1 1) rotate(0) translate(4 169)">
<title>libs/JSystem/JParticle/JPAExTexShape.cpp</title>
<polygon fill="white" stroke="transparent" points="-4,4 -4,-169 609,-169 609,4 -4,4"/>
<!-- Node1 -->
<g id="node1" class="node">
<title>Node1</title>
<g id="a_node1"><a xlink:title=" ">
<polygon fill="#bfbfbf" stroke="black" points="132.5,-134.5 132.5,-164.5 246.5,-164.5 246.5,-134.5 132.5,-134.5"/>
<text text-anchor="start" x="140.5" y="-152.5" font-family="Helvetica,sans-Serif" font-size="10.00">libs/JSystem/JParticle</text>
<text text-anchor="middle" x="189.5" y="-141.5" font-family="Helvetica,sans-Serif" font-size="10.00">/JPAExTexShape.cpp</text>
</a>
</g>
</g>
<!-- Node2 -->
<g id="node2" class="node">
<title>Node2</title>
<g id="a_node2"><a xlink:href="dol2asm_8h.html" target="_top" xlink:title=" ">
<polygon fill="white" stroke="black" points="0,-67.5 0,-86.5 61,-86.5 61,-67.5 0,-67.5"/>
<text text-anchor="middle" x="30.5" y="-74.5" font-family="Helvetica,sans-Serif" font-size="10.00">dol2asm.h</text>
</a>
</g>
</g>
<!-- Node1&#45;&gt;Node2 -->
<g id="edge1" class="edge">
<title>Node1&#45;&gt;Node2</title>
<path fill="none" stroke="midnightblue" d="M157.55,-134.36C134.7,-124.24 103.2,-110.29 75.5,-98 70.23,-95.66 64.6,-93.16 59.18,-90.75"/>
<polygon fill="midnightblue" stroke="midnightblue" points="60.33,-87.43 49.77,-86.57 57.48,-93.83 60.33,-87.43"/>
</g>
<!-- Node3 -->
<g id="node3" class="node">
<title>Node3</title>
<g id="a_node3"><a xlink:href="types_8h.html" target="_top" xlink:title=" ">
<polygon fill="white" stroke="black" points="99,-0.5 99,-19.5 180,-19.5 180,-0.5 99,-0.5"/>
<text text-anchor="middle" x="139.5" y="-7.5" font-family="Helvetica,sans-Serif" font-size="10.00">dolphin/types.h</text>
</a>
</g>
</g>
<!-- Node1&#45;&gt;Node3 -->
<g id="edge2" class="edge">
<title>Node1&#45;&gt;Node3</title>
<path fill="none" stroke="midnightblue" d="M150.84,-134.37C134.73,-126.34 117.67,-114.52 108.5,-98 99.44,-81.68 102.95,-73.82 108.5,-56 111.73,-45.62 118.28,-35.52 124.52,-27.53"/>
<polygon fill="midnightblue" stroke="midnightblue" points="127.29,-29.68 131.02,-19.77 121.92,-25.19 127.29,-29.68"/>
</g>
<!-- Node4 -->
<g id="node4" class="node">
<title>Node4</title>
<g id="a_node4"><a xlink:href="JPAExTexShape_8h.html" target="_top" xlink:title=" ">
<polygon fill="white" stroke="black" points="117.5,-62 117.5,-92 261.5,-92 261.5,-62 117.5,-62"/>
<text text-anchor="start" x="125.5" y="-80" font-family="Helvetica,sans-Serif" font-size="10.00">JSystem/JParticle/JPAExTex</text>
<text text-anchor="middle" x="189.5" y="-69" font-family="Helvetica,sans-Serif" font-size="10.00">Shape.h</text>
</a>
</g>
</g>
<!-- Node1&#45;&gt;Node4 -->
<g id="edge3" class="edge">
<title>Node1&#45;&gt;Node4</title>
<path fill="none" stroke="midnightblue" d="M189.5,-134.23C189.5,-125.16 189.5,-113.16 189.5,-102.58"/>
<polygon fill="midnightblue" stroke="midnightblue" points="193,-102.25 189.5,-92.25 186,-102.25 193,-102.25"/>
</g>
<!-- Node5 -->
<g id="node5" class="node">
<title>Node5</title>
<g id="a_node5"><a xlink:title=" ">
<polygon fill="white" stroke="#bfbfbf" points="279.5,-56.5 279.5,-97.5 441.5,-97.5 441.5,-56.5 279.5,-56.5"/>
<text text-anchor="start" x="287.5" y="-85.5" font-family="Helvetica,sans-Serif" font-size="10.00">asm/JSystem/JParticle</text>
<text text-anchor="start" x="287.5" y="-74.5" font-family="Helvetica,sans-Serif" font-size="10.00">/JPAExTexShape/JPALoadExTex</text>
<text text-anchor="middle" x="360.5" y="-63.5" font-family="Helvetica,sans-Serif" font-size="10.00">__FP18JPAEmitterWorkData.s</text>
</a>
</g>
</g>
<!-- Node1&#45;&gt;Node5 -->
<g id="edge5" class="edge">
<title>Node1&#45;&gt;Node5</title>
<path fill="none" stroke="midnightblue" d="M223.69,-134.4C246.52,-124.99 277.1,-112.39 303.55,-101.48"/>
<polygon fill="midnightblue" stroke="midnightblue" points="305.18,-104.59 313.09,-97.55 302.51,-98.12 305.18,-104.59"/>
</g>
<!-- Node6 -->
<g id="node6" class="node">
<title>Node6</title>
<g id="a_node6"><a xlink:title=" ">
<polygon fill="white" stroke="#bfbfbf" points="460,-56.5 460,-97.5 605,-97.5 605,-56.5 460,-56.5"/>
<text text-anchor="start" x="468" y="-85.5" font-family="Helvetica,sans-Serif" font-size="10.00">asm/JSystem/JParticle</text>
<text text-anchor="start" x="468" y="-74.5" font-family="Helvetica,sans-Serif" font-size="10.00">/JPAExTexShape/__ct_</text>
<text text-anchor="middle" x="532.5" y="-63.5" font-family="Helvetica,sans-Serif" font-size="10.00">_13JPAExTexShapeFPCUc.s</text>
</a>
</g>
</g>
<!-- Node1&#45;&gt;Node6 -->
<g id="edge6" class="edge">
<title>Node1&#45;&gt;Node6</title>
<path fill="none" stroke="midnightblue" d="M246.69,-138.25C297.4,-128.98 373.71,-114.58 449.47,-98.18"/>
<polygon fill="midnightblue" stroke="midnightblue" points="450.64,-101.5 459.66,-95.96 449.15,-94.67 450.64,-101.5"/>
</g>
<!-- Node4&#45;&gt;Node3 -->
<g id="edge4" class="edge">
<title>Node4&#45;&gt;Node3</title>
<path fill="none" stroke="midnightblue" d="M178.65,-61.9C170.93,-51.86 160.53,-38.34 152.39,-27.75"/>
<polygon fill="midnightblue" stroke="midnightblue" points="155.06,-25.49 146.19,-19.69 149.51,-29.75 155.06,-25.49"/>
</g>
</g>
</svg>
