<?xml version="1.0" encoding="UTF-8" standalone="no"?>
<!DOCTYPE svg PUBLIC "-//W3C//DTD SVG 1.1//EN"
 "http://www.w3.org/Graphics/SVG/1.1/DTD/svg11.dtd">
<!-- Generated by graphviz version 2.47.0 (20210316.2052)
 -->
<!-- Title: libs/JSystem/JParticle/JPAParticle.cpp Pages: 1 -->
<svg width="1876pt" height="184pt"
 viewBox="0.00 0.00 1875.50 184.00" xmlns="http://www.w3.org/2000/svg" xmlns:xlink="http://www.w3.org/1999/xlink">
<g id="graph0" class="graph" transform="scale(1 1) rotate(0) translate(4 180)">
<title>libs/JSystem/JParticle/JPAParticle.cpp</title>
<polygon fill="white" stroke="transparent" points="-4,4 -4,-180 1871.5,-180 1871.5,4 -4,4"/>
<!-- Node1 -->
<g id="node1" class="node">
<title>Node1</title>
<g id="a_node1"><a xlink:title=" ">
<polygon fill="#bfbfbf" stroke="black" points="707.5,-145.5 707.5,-175.5 821.5,-175.5 821.5,-145.5 707.5,-145.5"/>
<text text-anchor="start" x="715.5" y="-163.5" font-family="Helvetica,sans-Serif" font-size="10.00">libs/JSystem/JParticle</text>
<text text-anchor="middle" x="764.5" y="-152.5" font-family="Helvetica,sans-Serif" font-size="10.00">/JPAParticle.cpp</text>
</a>
</g>
</g>
<!-- Node2 -->
<g id="node2" class="node">
<title>Node2</title>
<g id="a_node2"><a xlink:href="dol2asm_8h.html" target="_top" xlink:title=" ">
<polygon fill="white" stroke="black" points="0,-73 0,-92 61,-92 61,-73 0,-73"/>
<text text-anchor="middle" x="30.5" y="-80" font-family="Helvetica,sans-Serif" font-size="10.00">dol2asm.h</text>
</a>
</g>
</g>
<!-- Node1&#45;&gt;Node2 -->
<g id="edge1" class="edge">
<title>Node1&#45;&gt;Node2</title>
<path fill="none" stroke="midnightblue" d="M707.37,-158.53C564.2,-155.59 193.15,-144.67 75.5,-109 67.04,-106.44 58.43,-102.07 51.04,-97.67"/>
<polygon fill="midnightblue" stroke="midnightblue" points="52.75,-94.61 42.43,-92.22 49.01,-100.53 52.75,-94.61"/>
</g>
<!-- Node3 -->
<g id="node3" class="node">
<title>Node3</title>
<g id="a_node3"><a xlink:href="types_8h.html" target="_top" xlink:title=" ">
<polygon fill="white" stroke="black" points="102,-0.5 102,-19.5 183,-19.5 183,-0.5 102,-0.5"/>
<text text-anchor="middle" x="142.5" y="-7.5" font-family="Helvetica,sans-Serif" font-size="10.00">dolphin/types.h</text>
</a>
</g>
</g>
<!-- Node1&#45;&gt;Node3 -->
<g id="edge2" class="edge">
<title>Node1&#45;&gt;Node3</title>
<path fill="none" stroke="midnightblue" d="M707.4,-159.43C555.23,-158.66 148.78,-152.5 108.5,-109 92.5,-91.72 101.01,-78.33 108.5,-56 112.1,-45.25 119.4,-35.02 126.32,-27.04"/>
<polygon fill="midnightblue" stroke="midnightblue" points="128.98,-29.32 133.21,-19.61 123.85,-24.56 128.98,-29.32"/>
</g>
<!-- Node4 -->
<g id="node4" class="node">
<title>Node4</title>
<g id="a_node4"><a xlink:href="JPAParticle_8h.html" target="_top" xlink:title=" ">
<polygon fill="white" stroke="black" points="117.5,-73 117.5,-92 275.5,-92 275.5,-73 117.5,-73"/>
<text text-anchor="middle" x="196.5" y="-80" font-family="Helvetica,sans-Serif" font-size="10.00">JSystem/JParticle/JPAParticle.h</text>
</a>
</g>
</g>
<!-- Node1&#45;&gt;Node4 -->
<g id="edge3" class="edge">
<title>Node1&#45;&gt;Node4</title>
<path fill="none" stroke="midnightblue" d="M707.49,-156.78C617.08,-151.72 435.6,-138.6 284.5,-109 266.83,-105.54 247.58,-100.15 231.6,-95.22"/>
<polygon fill="midnightblue" stroke="midnightblue" points="232.21,-91.74 221.62,-92.07 230.11,-98.42 232.21,-91.74"/>
</g>
<!-- Node5 -->
<g id="node5" class="node">
<title>Node5</title>
<g id="a_node5"><a xlink:title=" ">
<polygon fill="white" stroke="#bfbfbf" points="293.5,-62 293.5,-103 459.5,-103 459.5,-62 293.5,-62"/>
<text text-anchor="start" x="301.5" y="-91" font-family="Helvetica,sans-Serif" font-size="10.00">asm/JSystem/JParticle</text>
<text text-anchor="start" x="301.5" y="-80" font-family="Helvetica,sans-Serif" font-size="10.00">/JPAParticle/__dt__19JPAParticle</text>
<text text-anchor="middle" x="376.5" y="-69" font-family="Helvetica,sans-Serif" font-size="10.00">CallBackFv.s</text>
</a>
</g>
</g>
<!-- Node1&#45;&gt;Node5 -->
<g id="edge5" class="edge">
<title>Node1&#45;&gt;Node5</title>
<path fill="none" stroke="midnightblue" d="M707.35,-151.42C647.68,-142.58 551.55,-127.22 469.5,-109 464.57,-107.9 459.51,-106.71 454.42,-105.46"/>
<polygon fill="midnightblue" stroke="midnightblue" points="455.17,-102.04 444.62,-103 453.47,-108.83 455.17,-102.04"/>
</g>
<!-- Node6 -->
<g id="node6" class="node">
<title>Node6</title>
<g id="a_node6"><a xlink:title=" ">
<polygon fill="white" stroke="#bfbfbf" points="478,-56.5 478,-108.5 657,-108.5 657,-56.5 478,-56.5"/>
<text text-anchor="start" x="486" y="-96.5" font-family="Helvetica,sans-Serif" font-size="10.00">asm/JSystem/JParticle</text>
<text text-anchor="start" x="486" y="-85.5" font-family="Helvetica,sans-Serif" font-size="10.00">/JPAParticle/init_p_</text>
<text text-anchor="start" x="486" y="-74.5" font-family="Helvetica,sans-Serif" font-size="10.00">_15JPABaseParticleFP18JPAEmitter</text>
<text text-anchor="middle" x="567.5" y="-63.5" font-family="Helvetica,sans-Serif" font-size="10.00">WorkData.s</text>
</a>
</g>
</g>
<!-- Node1&#45;&gt;Node6 -->
<g id="edge6" class="edge">
<title>Node1&#45;&gt;Node6</title>
<path fill="none" stroke="midnightblue" d="M727.91,-145.38C703.81,-136.09 671.4,-123.58 642.02,-112.25"/>
<polygon fill="midnightblue" stroke="midnightblue" points="643.19,-108.95 632.6,-108.62 640.67,-115.48 643.19,-108.95"/>
</g>
<!-- Node7 -->
<g id="node7" class="node">
<title>Node7</title>
<g id="a_node7"><a xlink:title=" ">
<polygon fill="white" stroke="#bfbfbf" points="675,-56.5 675,-108.5 854,-108.5 854,-56.5 675,-56.5"/>
<text text-anchor="start" x="683" y="-96.5" font-family="Helvetica,sans-Serif" font-size="10.00">asm/JSystem/JParticle</text>
<text text-anchor="start" x="683" y="-85.5" font-family="Helvetica,sans-Serif" font-size="10.00">/JPAParticle/init_c_</text>
<text text-anchor="start" x="683" y="-74.5" font-family="Helvetica,sans-Serif" font-size="10.00">_15JPABaseParticleFP18JPAEmitter</text>
<text text-anchor="middle" x="764.5" y="-63.5" font-family="Helvetica,sans-Serif" font-size="10.00">WorkDataP15JPABaseParticle.s</text>
</a>
</g>
</g>
<!-- Node1&#45;&gt;Node7 -->
<g id="edge7" class="edge">
<title>Node1&#45;&gt;Node7</title>
<path fill="none" stroke="midnightblue" d="M764.5,-145.2C764.5,-137.63 764.5,-127.95 764.5,-118.53"/>
<polygon fill="midnightblue" stroke="midnightblue" points="768,-118.5 764.5,-108.5 761,-118.5 768,-118.5"/>
</g>
<!-- Node8 -->
<g id="node8" class="node">
<title>Node8</title>
<g id="a_node8"><a xlink:title=" ">
<polygon fill="white" stroke="#bfbfbf" points="872,-56.5 872,-108.5 1051,-108.5 1051,-56.5 872,-56.5"/>
<text text-anchor="start" x="880" y="-96.5" font-family="Helvetica,sans-Serif" font-size="10.00">asm/JSystem/JParticle</text>
<text text-anchor="start" x="880" y="-85.5" font-family="Helvetica,sans-Serif" font-size="10.00">/JPAParticle/calc_p_</text>
<text text-anchor="start" x="880" y="-74.5" font-family="Helvetica,sans-Serif" font-size="10.00">_15JPABaseParticleFP18JPAEmitter</text>
<text text-anchor="middle" x="961.5" y="-63.5" font-family="Helvetica,sans-Serif" font-size="10.00">WorkData.s</text>
</a>
</g>
</g>
<!-- Node1&#45;&gt;Node8 -->
<g id="edge8" class="edge">
<title>Node1&#45;&gt;Node8</title>
<path fill="none" stroke="midnightblue" d="M801.09,-145.38C825.19,-136.09 857.6,-123.58 886.98,-112.25"/>
<polygon fill="midnightblue" stroke="midnightblue" points="888.33,-115.48 896.4,-108.62 885.81,-108.95 888.33,-115.48"/>
</g>
<!-- Node9 -->
<g id="node9" class="node">
<title>Node9</title>
<g id="a_node9"><a xlink:title=" ">
<polygon fill="white" stroke="#bfbfbf" points="1069,-56.5 1069,-108.5 1248,-108.5 1248,-56.5 1069,-56.5"/>
<text text-anchor="start" x="1077" y="-96.5" font-family="Helvetica,sans-Serif" font-size="10.00">asm/JSystem/JParticle</text>
<text text-anchor="start" x="1077" y="-85.5" font-family="Helvetica,sans-Serif" font-size="10.00">/JPAParticle/calc_c_</text>
<text text-anchor="start" x="1077" y="-74.5" font-family="Helvetica,sans-Serif" font-size="10.00">_15JPABaseParticleFP18JPAEmitter</text>
<text text-anchor="middle" x="1158.5" y="-63.5" font-family="Helvetica,sans-Serif" font-size="10.00">WorkData.s</text>
</a>
</g>
</g>
<!-- Node1&#45;&gt;Node9 -->
<g id="edge9" class="edge">
<title>Node1&#45;&gt;Node9</title>
<path fill="none" stroke="midnightblue" d="M821.52,-151.25C879.17,-142.58 971,-127.86 1058.98,-109.26"/>
<polygon fill="midnightblue" stroke="midnightblue" points="1059.8,-112.67 1068.85,-107.15 1058.34,-105.82 1059.8,-112.67"/>
</g>
<!-- Node10 -->
<g id="node10" class="node">
<title>Node10</title>
<g id="a_node10"><a xlink:title=" ">
<polygon fill="white" stroke="#bfbfbf" points="1266,-56.5 1266,-108.5 1451,-108.5 1451,-56.5 1266,-56.5"/>
<text text-anchor="start" x="1274" y="-96.5" font-family="Helvetica,sans-Serif" font-size="10.00">asm/JSystem/JParticle</text>
<text text-anchor="start" x="1274" y="-85.5" font-family="Helvetica,sans-Serif" font-size="10.00">/JPAParticle/canCreateChild</text>
<text text-anchor="start" x="1274" y="-74.5" font-family="Helvetica,sans-Serif" font-size="10.00">__15JPABaseParticleFP18JPAEmitter</text>
<text text-anchor="middle" x="1358.5" y="-63.5" font-family="Helvetica,sans-Serif" font-size="10.00">WorkData.s</text>
</a>
</g>
</g>
<!-- Node1&#45;&gt;Node10 -->
<g id="edge10" class="edge">
<title>Node1&#45;&gt;Node10</title>
<path fill="none" stroke="midnightblue" d="M821.81,-156.34C912.21,-150.76 1093.54,-137.16 1255.71,-109.22"/>
<polygon fill="midnightblue" stroke="midnightblue" points="1256.63,-112.61 1265.87,-107.44 1255.42,-105.71 1256.63,-112.61"/>
</g>
<!-- Node11 -->
<g id="node11" class="node">
<title>Node11</title>
<g id="a_node11"><a xlink:title=" ">
<polygon fill="white" stroke="#bfbfbf" points="1469.5,-56.5 1469.5,-108.5 1659.5,-108.5 1659.5,-56.5 1469.5,-56.5"/>
<text text-anchor="start" x="1477.5" y="-96.5" font-family="Helvetica,sans-Serif" font-size="10.00">asm/JSystem/JParticle</text>
<text text-anchor="start" x="1477.5" y="-85.5" font-family="Helvetica,sans-Serif" font-size="10.00">/JPAParticle/getWidth</text>
<text text-anchor="start" x="1477.5" y="-74.5" font-family="Helvetica,sans-Serif" font-size="10.00">__15JPABaseParticleCFPC14JPABase</text>
<text text-anchor="middle" x="1564.5" y="-63.5" font-family="Helvetica,sans-Serif" font-size="10.00">Emitter.s</text>
</a>
</g>
</g>
<!-- Node1&#45;&gt;Node11 -->
<g id="edge11" class="edge">
<title>Node1&#45;&gt;Node11</title>
<path fill="none" stroke="midnightblue" d="M821.71,-158.59C939.49,-156.03 1217.6,-146.36 1459.38,-109.06"/>
<polygon fill="midnightblue" stroke="midnightblue" points="1460.08,-112.49 1469.42,-107.49 1458.99,-105.58 1460.08,-112.49"/>
</g>
<!-- Node12 -->
<g id="node12" class="node">
<title>Node12</title>
<g id="a_node12"><a xlink:title=" ">
<polygon fill="white" stroke="#bfbfbf" points="1677.5,-56.5 1677.5,-108.5 1867.5,-108.5 1867.5,-56.5 1677.5,-56.5"/>
<text text-anchor="start" x="1685.5" y="-96.5" font-family="Helvetica,sans-Serif" font-size="10.00">asm/JSystem/JParticle</text>
<text text-anchor="start" x="1685.5" y="-85.5" font-family="Helvetica,sans-Serif" font-size="10.00">/JPAParticle/getHeight</text>
<text text-anchor="start" x="1685.5" y="-74.5" font-family="Helvetica,sans-Serif" font-size="10.00">__15JPABaseParticleCFPC14JPABase</text>
<text text-anchor="middle" x="1772.5" y="-63.5" font-family="Helvetica,sans-Serif" font-size="10.00">Emitter.s</text>
</a>
</g>
</g>
<!-- Node1&#45;&gt;Node12 -->
<g id="edge12" class="edge">
<title>Node1&#45;&gt;Node12</title>
<path fill="none" stroke="midnightblue" d="M821.72,-159.95C963.66,-160.3 1343.26,-156.44 1667.37,-109.04"/>
<polygon fill="midnightblue" stroke="midnightblue" points="1668.04,-112.48 1677.42,-107.56 1667.02,-105.56 1668.04,-112.48"/>
</g>
<!-- Node4&#45;&gt;Node3 -->
<g id="edge4" class="edge">
<title>Node4&#45;&gt;Node3</title>
<path fill="none" stroke="midnightblue" d="M189.88,-72.86C181.3,-61.65 166.14,-41.87 155.29,-27.69"/>
<polygon fill="midnightblue" stroke="midnightblue" points="158.04,-25.53 149.18,-19.72 152.48,-29.78 158.04,-25.53"/>
</g>
</g>
</svg>
