<?xml version="1.0" encoding="UTF-8" standalone="no"?>
<!DOCTYPE svg PUBLIC "-//W3C//DTD SVG 1.1//EN"
 "http://www.w3.org/Graphics/SVG/1.1/DTD/svg11.dtd">
<!-- Generated by graphviz version 2.47.0 (20210316.2052)
 -->
<!-- Title: libs/JSystem/JParticle/JPAResourceLoader.cpp Pages: 1 -->
<svg width="672pt" height="184pt"
 viewBox="0.00 0.00 671.50 184.00" xmlns="http://www.w3.org/2000/svg" xmlns:xlink="http://www.w3.org/1999/xlink">
<g id="graph0" class="graph" transform="scale(1 1) rotate(0) translate(4 180)">
<title>libs/JSystem/JParticle/JPAResourceLoader.cpp</title>
<polygon fill="white" stroke="transparent" points="-4,4 -4,-180 667.5,-180 667.5,4 -4,4"/>
<!-- Node1 -->
<g id="node1" class="node">
<title>Node1</title>
<g id="a_node1"><a xlink:title=" ">
<polygon fill="#bfbfbf" stroke="black" points="132.5,-145.5 132.5,-175.5 260.5,-175.5 260.5,-145.5 132.5,-145.5"/>
<text text-anchor="start" x="140.5" y="-163.5" font-family="Helvetica,sans-Serif" font-size="10.00">libs/JSystem/JParticle</text>
<text text-anchor="middle" x="196.5" y="-152.5" font-family="Helvetica,sans-Serif" font-size="10.00">/JPAResourceLoader.cpp</text>
</a>
</g>
</g>
<!-- Node2 -->
<g id="node2" class="node">
<title>Node2</title>
<g id="a_node2"><a xlink:href="dol2asm_8h.html" target="_top" xlink:title=" ">
<polygon fill="white" stroke="black" points="0,-73 0,-92 61,-92 61,-73 0,-73"/>
<text text-anchor="middle" x="30.5" y="-80" font-family="Helvetica,sans-Serif" font-size="10.00">dol2asm.h</text>
</a>
</g>
</g>
<!-- Node1&#45;&gt;Node2 -->
<g id="edge1" class="edge">
<title>Node1&#45;&gt;Node2</title>
<path fill="none" stroke="midnightblue" d="M159.72,-145.48C135.48,-135.92 103.2,-122.57 75.5,-109 68.29,-105.47 60.63,-101.3 53.72,-97.36"/>
<polygon fill="midnightblue" stroke="midnightblue" points="55.26,-94.21 44.85,-92.22 51.75,-100.26 55.26,-94.21"/>
</g>
<!-- Node3 -->
<g id="node3" class="node">
<title>Node3</title>
<g id="a_node3"><a xlink:href="types_8h.html" target="_top" xlink:title=" ">
<polygon fill="white" stroke="black" points="102,-0.5 102,-19.5 183,-19.5 183,-0.5 102,-0.5"/>
<text text-anchor="middle" x="142.5" y="-7.5" font-family="Helvetica,sans-Serif" font-size="10.00">dolphin/types.h</text>
</a>
</g>
</g>
<!-- Node1&#45;&gt;Node3 -->
<g id="edge2" class="edge">
<title>Node1&#45;&gt;Node3</title>
<path fill="none" stroke="midnightblue" d="M152.75,-145.32C135.82,-137.45 118.21,-125.77 108.5,-109 96.7,-88.62 101.01,-78.33 108.5,-56 112.1,-45.25 119.4,-35.02 126.32,-27.04"/>
<polygon fill="midnightblue" stroke="midnightblue" points="128.98,-29.32 133.21,-19.61 123.85,-24.56 128.98,-29.32"/>
</g>
<!-- Node4 -->
<g id="node4" class="node">
<title>Node4</title>
<g id="a_node4"><a xlink:href="JPAResourceLoader_8h.html" target="_top" xlink:title=" ">
<polygon fill="white" stroke="black" points="117,-67.5 117,-97.5 276,-97.5 276,-67.5 117,-67.5"/>
<text text-anchor="start" x="125" y="-85.5" font-family="Helvetica,sans-Serif" font-size="10.00">JSystem/JParticle/JPAResource</text>
<text text-anchor="middle" x="196.5" y="-74.5" font-family="Helvetica,sans-Serif" font-size="10.00">Loader.h</text>
</a>
</g>
</g>
<!-- Node1&#45;&gt;Node4 -->
<g id="edge3" class="edge">
<title>Node1&#45;&gt;Node4</title>
<path fill="none" stroke="midnightblue" d="M196.5,-145.2C196.5,-134.7 196.5,-120.16 196.5,-107.83"/>
<polygon fill="midnightblue" stroke="midnightblue" points="200,-107.73 196.5,-97.73 193,-107.73 200,-107.73"/>
</g>
<!-- Node5 -->
<g id="node5" class="node">
<title>Node5</title>
<g id="a_node5"><a xlink:title=" ">
<polygon fill="white" stroke="#bfbfbf" points="294,-56.5 294,-108.5 467,-108.5 467,-56.5 294,-56.5"/>
<text text-anchor="start" x="302" y="-96.5" font-family="Helvetica,sans-Serif" font-size="10.00">asm/JSystem/JParticle</text>
<text text-anchor="start" x="302" y="-85.5" font-family="Helvetica,sans-Serif" font-size="10.00">/JPAResourceLoader/_</text>
<text text-anchor="start" x="302" y="-74.5" font-family="Helvetica,sans-Serif" font-size="10.00">_ct__17JPAResourceLoaderFPCUc</text>
<text text-anchor="middle" x="380.5" y="-63.5" font-family="Helvetica,sans-Serif" font-size="10.00">P18JPAResourceManager.s</text>
</a>
</g>
</g>
<!-- Node1&#45;&gt;Node5 -->
<g id="edge5" class="edge">
<title>Node1&#45;&gt;Node5</title>
<path fill="none" stroke="midnightblue" d="M230.68,-145.38C252.99,-136.17 282.93,-123.8 310.18,-112.54"/>
<polygon fill="midnightblue" stroke="midnightblue" points="311.79,-115.67 319.69,-108.62 309.11,-109.2 311.79,-115.67"/>
</g>
<!-- Node6 -->
<g id="node6" class="node">
<title>Node6</title>
<g id="a_node6"><a xlink:title=" ">
<polygon fill="white" stroke="#bfbfbf" points="485.5,-56.5 485.5,-108.5 663.5,-108.5 663.5,-56.5 485.5,-56.5"/>
<text text-anchor="start" x="493.5" y="-96.5" font-family="Helvetica,sans-Serif" font-size="10.00">asm/JSystem/JParticle</text>
<text text-anchor="start" x="493.5" y="-85.5" font-family="Helvetica,sans-Serif" font-size="10.00">/JPAResourceLoader/load</text>
<text text-anchor="start" x="493.5" y="-74.5" font-family="Helvetica,sans-Serif" font-size="10.00">_jpc__17JPAResourceLoaderFPCUc</text>
<text text-anchor="middle" x="574.5" y="-63.5" font-family="Helvetica,sans-Serif" font-size="10.00">P18JPAResourceManager.s</text>
</a>
</g>
</g>
<!-- Node1&#45;&gt;Node6 -->
<g id="edge6" class="edge">
<title>Node1&#45;&gt;Node6</title>
<path fill="none" stroke="midnightblue" d="M260.72,-149.35C315.32,-140.39 395.98,-126.39 475.22,-109.22"/>
<polygon fill="midnightblue" stroke="midnightblue" points="476.35,-112.55 485.37,-107 474.85,-105.72 476.35,-112.55"/>
</g>
<!-- Node4&#45;&gt;Node3 -->
<g id="edge4" class="edge">
<title>Node4&#45;&gt;Node3</title>
<path fill="none" stroke="midnightblue" d="M185.57,-67.23C176.93,-55.95 164.83,-40.15 155.65,-28.17"/>
<polygon fill="midnightblue" stroke="midnightblue" points="158.17,-25.7 149.31,-19.89 152.61,-29.96 158.17,-25.7"/>
</g>
</g>
</svg>
