<?xml version="1.0" encoding="UTF-8" standalone="no"?>
<!DOCTYPE svg PUBLIC "-//W3C//DTD SVG 1.1//EN"
 "http://www.w3.org/Graphics/SVG/1.1/DTD/svg11.dtd">
<!-- Generated by graphviz version 2.47.0 (20210316.2052)
 -->
<!-- Title: libs/JSystem/JStage/JSGAmbientLight.cpp Pages: 1 -->
<!--zoomable 184 -->
<svg id="main" version="1.1" xmlns="http://www.w3.org/2000/svg" xmlns:xlink="http://www.w3.org/1999/xlink" xml:space="preserve" onload="init(evt)">
<style type="text/css"><![CDATA[
.edge:hover path { stroke: red; }
.edge:hover polygon { stroke: red; fill: red; }
]]></style>
<script type="text/javascript"><![CDATA[
var edges = document.getElementsByTagName('g');
if (edges && edges.length) {
  for (var i=0;i<edges.length;i++) {
    if (edges[i].id.substr(0,4)=='edge') {
      edges[i].setAttribute('class','edge');
    }
  }
}
]]></script>
        <defs>
                <circle id="rim" cx="0" cy="0" r="7"/>
                <circle id="rim2" cx="0" cy="0" r="3.5"/>
                <g id="zoomPlus">
                        <use xlink:href="#rim" fill="#404040">
                                <set attributeName="fill" to="#808080" begin="zoomplus.mouseover" end="zoomplus.mouseout"/>
                        </use>
                        <path d="M-4,0h8M0,-4v8" fill="none" stroke="white" stroke-width="1.5" pointer-events="none"/>
                </g>
                <g id="zoomMin">
                        <use xlink:href="#rim" fill="#404040">
                                <set attributeName="fill" to="#808080" begin="zoomminus.mouseover" end="zoomminus.mouseout"/>
                        </use>
                        <path d="M-4,0h8" fill="none" stroke="white" stroke-width="1.5" pointer-events="none"/>
                </g>
                <g id="dirArrow">
                        <path fill="none" stroke="white" stroke-width="1.5" d="M0,-3.0v7 M-2.5,-0.5L0,-3.0L2.5,-0.5"/>
                </g>
               <g id="resetDef">
                       <use xlink:href="#rim2" fill="#404040">
                               <set attributeName="fill" to="#808080" begin="reset.mouseover" end="reset.mouseout"/>
                       </use>
               </g>
        </defs>

<script type="text/javascript">
var viewWidth = 1027;
var viewHeight = 184;
var sectionId = 'dynsection-0';
</script>
<script xlink:href="svgpan.js"/>
<svg id="graph" class="graph">
<g id="viewport">
<title>libs/JSystem/JStage/JSGAmbientLight.cpp</title>
<polygon fill="white" stroke="transparent" points="-4,4 -4,-180 1023,-180 1023,4 -4,4"/>
<!-- Node1 -->
<g id="node1" class="node">
<title>Node1</title>
<g id="a_node1"><a xlink:title=" ">
<polygon fill="#bfbfbf" stroke="black" points="310,-145.5 310,-175.5 425,-175.5 425,-145.5 310,-145.5"/>
<text text-anchor="start" x="318" y="-163.5" font-family="Helvetica,sans-Serif" font-size="10.00">libs/JSystem/JStage</text>
<text text-anchor="middle" x="367.5" y="-152.5" font-family="Helvetica,sans-Serif" font-size="10.00">/JSGAmbientLight.cpp</text>
</a>
</g>
</g>
<!-- Node2 -->
<g id="node2" class="node">
<title>Node2</title>
<g id="a_node2"><a xlink:href="dol2asm_8h.html" target="_top" xlink:title=" ">
<polygon fill="white" stroke="black" points="0,-73 0,-92 61,-92 61,-73 0,-73"/>
<text text-anchor="middle" x="30.5" y="-80" font-family="Helvetica,sans-Serif" font-size="10.00">dol2asm.h</text>
</a>
</g>
</g>
<!-- Node1&#45;&gt;Node2 -->
<g id="edge1" class="edge">
<title>Node1&#45;&gt;Node2</title>
<path fill="none" stroke="midnightblue" d="M309.77,-155.4C249.77,-149.79 153.86,-137.02 75.5,-109 67.3,-106.07 58.85,-101.69 51.52,-97.39"/>
<polygon fill="midnightblue" stroke="midnightblue" points="53.28,-94.37 42.93,-92.1 49.61,-100.33 53.28,-94.37"/>
</g>
<!-- Node3 -->
<g id="node3" class="node">
<title>Node3</title>
<g id="a_node3"><a xlink:href="types_8h.html" target="_top" xlink:title=" ">
<polygon fill="white" stroke="black" points="100,-0.5 100,-19.5 181,-19.5 181,-0.5 100,-0.5"/>
<text text-anchor="middle" x="140.5" y="-7.5" font-family="Helvetica,sans-Serif" font-size="10.00">dolphin/types.h</text>
</a>
</g>
</g>
<!-- Node1&#45;&gt;Node3 -->
<g id="edge2" class="edge">
<title>Node1&#45;&gt;Node3</title>
<path fill="none" stroke="midnightblue" d="M309.86,-156.5C241.71,-151.61 134.37,-139.22 109.5,-109 89.85,-85.13 110.99,-48.69 126.72,-27.62"/>
<polygon fill="midnightblue" stroke="midnightblue" points="129.58,-29.64 132.99,-19.61 124.07,-25.33 129.58,-29.64"/>
</g>
<!-- Node4 -->
<g id="node4" class="node">
<title>Node4</title>
<g id="a_node4"><a xlink:href="JSGAmbientLight_8h.html" target="_top" xlink:title=" ">
<polygon fill="white" stroke="black" points="118,-67.5 118,-97.5 265,-97.5 265,-67.5 118,-67.5"/>
<text text-anchor="start" x="126" y="-85.5" font-family="Helvetica,sans-Serif" font-size="10.00">JSystem/JStage/JSGAmbient</text>
<text text-anchor="middle" x="191.5" y="-74.5" font-family="Helvetica,sans-Serif" font-size="10.00">Light.h</text>
</a>
</g>
</g>
<!-- Node1&#45;&gt;Node4 -->
<g id="edge3" class="edge">
<title>Node1&#45;&gt;Node4</title>
<path fill="none" stroke="midnightblue" d="M334.81,-145.38C306.16,-133.01 264.36,-114.96 233.29,-101.54"/>
<polygon fill="midnightblue" stroke="midnightblue" points="234.58,-98.29 224.02,-97.54 231.81,-104.72 234.58,-98.29"/>
</g>
<!-- Node5 -->
<g id="node5" class="node">
<title>Node5</title>
<g id="a_node5"><a xlink:title=" ">
<polygon fill="white" stroke="#bfbfbf" points="283,-62 283,-103 452,-103 452,-62 283,-62"/>
<text text-anchor="start" x="291" y="-91" font-family="Helvetica,sans-Serif" font-size="10.00">asm/JSystem/JStage</text>
<text text-anchor="start" x="291" y="-80" font-family="Helvetica,sans-Serif" font-size="10.00">/JSGAmbientLight/__dt</text>
<text text-anchor="middle" x="367.5" y="-69" font-family="Helvetica,sans-Serif" font-size="10.00">__Q26JStage13TAmbientLightFv.s</text>
</a>
</g>
</g>
<!-- Node1&#45;&gt;Node5 -->
<g id="edge5" class="edge">
<title>Node1&#45;&gt;Node5</title>
<path fill="none" stroke="midnightblue" d="M367.5,-145.2C367.5,-136.21 367.5,-124.27 367.5,-113.29"/>
<polygon fill="midnightblue" stroke="midnightblue" points="371,-113.18 367.5,-103.18 364,-113.18 371,-113.18"/>
</g>
<!-- Node6 -->
<g id="node6" class="node">
<title>Node6</title>
<g id="a_node6"><a xlink:title=" ">
<polygon fill="white" stroke="#bfbfbf" points="469.5,-62 469.5,-103 645.5,-103 645.5,-62 469.5,-62"/>
<text text-anchor="start" x="477.5" y="-91" font-family="Helvetica,sans-Serif" font-size="10.00">asm/JSystem/JStage</text>
<text text-anchor="start" x="477.5" y="-80" font-family="Helvetica,sans-Serif" font-size="10.00">/JSGAmbientLight/JSGFGetType</text>
<text text-anchor="middle" x="557.5" y="-69" font-family="Helvetica,sans-Serif" font-size="10.00">__Q26JStage13TAmbientLightCFv.s</text>
</a>
</g>
</g>
<!-- Node1&#45;&gt;Node6 -->
<g id="edge6" class="edge">
<title>Node1&#45;&gt;Node6</title>
<path fill="none" stroke="midnightblue" d="M402.79,-145.38C429.73,-134.61 467.45,-119.52 498.89,-106.94"/>
<polygon fill="midnightblue" stroke="midnightblue" points="500.45,-110.09 508.43,-103.13 497.85,-103.59 500.45,-110.09"/>
</g>
<!-- Node7 -->
<g id="node7" class="node">
<title>Node7</title>
<g id="a_node7"><a xlink:title=" ">
<polygon fill="white" stroke="#bfbfbf" points="663.5,-62 663.5,-103 839.5,-103 839.5,-62 663.5,-62"/>
<text text-anchor="start" x="671.5" y="-91" font-family="Helvetica,sans-Serif" font-size="10.00">asm/JSystem/JStage</text>
<text text-anchor="start" x="671.5" y="-80" font-family="Helvetica,sans-Serif" font-size="10.00">/JSGAmbientLight/JSGGetColor</text>
<text text-anchor="middle" x="751.5" y="-69" font-family="Helvetica,sans-Serif" font-size="10.00">__Q26JStage13TAmbientLightCFv.s</text>
</a>
</g>
</g>
<!-- Node1&#45;&gt;Node7 -->
<g id="edge7" class="edge">
<title>Node1&#45;&gt;Node7</title>
<path fill="none" stroke="midnightblue" d="M425.22,-150.79C483.37,-141.67 575.55,-126.29 654.5,-109 659.53,-107.9 664.69,-106.71 669.88,-105.47"/>
<polygon fill="midnightblue" stroke="midnightblue" points="671,-108.8 679.88,-103.04 669.34,-102 671,-108.8"/>
</g>
<!-- Node8 -->
<g id="node8" class="node">
<title>Node8</title>
<g id="a_node8"><a xlink:title=" ">
<polygon fill="white" stroke="#bfbfbf" points="858,-56.5 858,-108.5 1019,-108.5 1019,-56.5 858,-56.5"/>
<text text-anchor="start" x="866" y="-96.5" font-family="Helvetica,sans-Serif" font-size="10.00">asm/JSystem/JStage</text>
<text text-anchor="start" x="866" y="-85.5" font-family="Helvetica,sans-Serif" font-size="10.00">/JSGAmbientLight/JSGSetColor</text>
<text text-anchor="start" x="866" y="-74.5" font-family="Helvetica,sans-Serif" font-size="10.00">__Q26JStage13TAmbientLightF8</text>
<text text-anchor="middle" x="938.5" y="-63.5" font-family="Helvetica,sans-Serif" font-size="10.00">_GXColor.s</text>
</a>
</g>
</g>
<!-- Node1&#45;&gt;Node8 -->
<g id="edge8" class="edge">
<title>Node1&#45;&gt;Node8</title>
<path fill="none" stroke="midnightblue" d="M425.35,-156.64C514.3,-151.53 690.02,-138.65 847.82,-108.98"/>
<polygon fill="midnightblue" stroke="midnightblue" points="848.54,-112.41 857.7,-107.1 847.23,-105.53 848.54,-112.41"/>
</g>
<!-- Node4&#45;&gt;Node3 -->
<g id="edge4" class="edge">
<title>Node4&#45;&gt;Node3</title>
<path fill="none" stroke="midnightblue" d="M181.18,-67.23C173.02,-55.95 161.59,-40.15 152.92,-28.17"/>
<polygon fill="midnightblue" stroke="midnightblue" points="155.63,-25.94 146.93,-19.89 149.96,-30.05 155.63,-25.94"/>
</g>
</g>
</svg>
        <g id="navigator" transform="translate(0 0)" fill="#404254">
                <rect fill="#f2f5e9" fill-opacity="0.5" stroke="#606060" stroke-width=".5" x="0" y="0" width="60" height="60"/>
                <use id="zoomplus" xlink:href="#zoomPlus" x="17" y="9" onmousedown="handleZoom(evt,'in')"/>
                <use id="zoomminus" xlink:href="#zoomMin" x="42" y="9" onmousedown="handleZoom(evt,'out')"/>
                <use id="reset" xlink:href="#resetDef" x="30" y="36" onmousedown="handleReset()"/>
                <g id="arrowUp" xlink:href="#dirArrow" transform="translate(30 24)" onmousedown="handlePan(0,-1)">
                  <use xlink:href="#rim" fill="#404040">
                        <set attributeName="fill" to="#808080" begin="arrowUp.mouseover" end="arrowUp.mouseout"/>
                  </use>
                  <path fill="none" stroke="white" stroke-width="1.5" d="M0,-3.0v7 M-2.5,-0.5L0,-3.0L2.5,-0.5"/>
                </g>
                <g id="arrowRight" xlink:href="#dirArrow" transform="rotate(90) translate(36 -43)" onmousedown="handlePan(1,0)">
                  <use xlink:href="#rim" fill="#404040">
                        <set attributeName="fill" to="#808080" begin="arrowRight.mouseover" end="arrowRight.mouseout"/>
                  </use>
                  <path fill="none" stroke="white" stroke-width="1.5" d="M0,-3.0v7 M-2.5,-0.5L0,-3.0L2.5,-0.5"/>
                </g>
                <g id="arrowDown" xlink:href="#dirArrow" transform="rotate(180) translate(-30 -48)" onmousedown="handlePan(0,1)">
                  <use xlink:href="#rim" fill="#404040">
                        <set attributeName="fill" to="#808080" begin="arrowDown.mouseover" end="arrowDown.mouseout"/>
                  </use>
                  <path fill="none" stroke="white" stroke-width="1.5" d="M0,-3.0v7 M-2.5,-0.5L0,-3.0L2.5,-0.5"/>
                </g>
                <g id="arrowLeft" xlink:href="#dirArrow" transform="rotate(270) translate(-36 17)" onmousedown="handlePan(-1,0)">
                  <use xlink:href="#rim" fill="#404040">
                        <set attributeName="fill" to="#808080" begin="arrowLeft.mouseover" end="arrowLeft.mouseout"/>
                  </use>
                  <path fill="none" stroke="white" stroke-width="1.5" d="M0,-3.0v7 M-2.5,-0.5L0,-3.0L2.5,-0.5"/>
                </g>
        </g>
        <svg viewBox="0 0 15 15" width="100%" height="30px" preserveAspectRatio="xMaxYMin meet">
         <g id="arrow_out" transform="scale(0.3 0.3)">
          <a xlink:href="JSGAmbientLight_8cpp__incl_org.svg" target="_base">
           <rect id="button" ry="5" rx="5" y="6" x="6" height="38" width="38"
                fill="#f2f5e9" fill-opacity="0.5" stroke="#606060" stroke-width="1.0"/>
           <path id="arrow"
             d="M 11.500037,31.436501 C 11.940474,20.09759 22.043105,11.32322 32.158766,21.979434 L 37.068811,17.246167 C 37.068811,17.246167 37.088388,32 37.088388,32 L 22.160133,31.978069 C 22.160133,31.978069 26.997745,27.140456 26.997745,27.140456 C 18.528582,18.264221 13.291696,25.230495 11.500037,31.436501 z"
             style="fill:#404040;"/>
          </a>
         </g>
        </svg>
</svg>
