<?xml version="1.0" encoding="UTF-8" standalone="no"?>
<!DOCTYPE svg PUBLIC "-//W3C//DTD SVG 1.1//EN"
 "http://www.w3.org/Graphics/SVG/1.1/DTD/svg11.dtd">
<!-- Generated by graphviz version 2.47.0 (20210316.2052)
 -->
<!-- Title: libs/JSystem/JStage/JSGActor.cpp Pages: 1 -->
<svg width="1415pt" height="173pt"
 viewBox="0.00 0.00 1414.50 173.00" xmlns="http://www.w3.org/2000/svg" xmlns:xlink="http://www.w3.org/1999/xlink">
<g id="graph0" class="graph" transform="scale(1 1) rotate(0) translate(4 169)">
<title>libs/JSystem/JStage/JSGActor.cpp</title>
<polygon fill="white" stroke="transparent" points="-4,4 -4,-169 1410.5,-169 1410.5,4 -4,4"/>
<!-- Node1 -->
<g id="node1" class="node">
<title>Node1</title>
<g id="a_node1"><a xlink:title=" ">
<polygon fill="#bfbfbf" stroke="black" points="478,-134.5 478,-164.5 585,-164.5 585,-134.5 478,-134.5"/>
<text text-anchor="start" x="486" y="-152.5" font-family="Helvetica,sans-Serif" font-size="10.00">libs/JSystem/JStage</text>
<text text-anchor="middle" x="531.5" y="-141.5" font-family="Helvetica,sans-Serif" font-size="10.00">/JSGActor.cpp</text>
</a>
</g>
</g>
<!-- Node2 -->
<g id="node2" class="node">
<title>Node2</title>
<g id="a_node2"><a xlink:href="dol2asm_8h.html" target="_top" xlink:title=" ">
<polygon fill="white" stroke="black" points="0,-67.5 0,-86.5 61,-86.5 61,-67.5 0,-67.5"/>
<text text-anchor="middle" x="30.5" y="-74.5" font-family="Helvetica,sans-Serif" font-size="10.00">dol2asm.h</text>
</a>
</g>
</g>
<!-- Node1&#45;&gt;Node2 -->
<g id="edge1" class="edge">
<title>Node1&#45;&gt;Node2</title>
<path fill="none" stroke="midnightblue" d="M477.85,-147.87C391.59,-145.67 217.35,-136.38 75.5,-98 69,-96.24 62.24,-93.67 56,-90.96"/>
<polygon fill="midnightblue" stroke="midnightblue" points="57.27,-87.69 46.72,-86.67 54.33,-94.04 57.27,-87.69"/>
</g>
<!-- Node3 -->
<g id="node3" class="node">
<title>Node3</title>
<g id="a_node3"><a xlink:href="types_8h.html" target="_top" xlink:title=" ">
<polygon fill="white" stroke="black" points="98,-0.5 98,-19.5 179,-19.5 179,-0.5 98,-0.5"/>
<text text-anchor="middle" x="138.5" y="-7.5" font-family="Helvetica,sans-Serif" font-size="10.00">dolphin/types.h</text>
</a>
</g>
</g>
<!-- Node1&#45;&gt;Node3 -->
<g id="edge2" class="edge">
<title>Node1&#45;&gt;Node3</title>
<path fill="none" stroke="midnightblue" d="M477.89,-146.01C369.54,-140.42 132.65,-125.21 108.5,-98 90.66,-77.9 109.22,-46.64 124.05,-27.58"/>
<polygon fill="midnightblue" stroke="midnightblue" points="126.82,-29.71 130.45,-19.76 121.41,-25.28 126.82,-29.71"/>
</g>
<!-- Node4 -->
<g id="node4" class="node">
<title>Node4</title>
<g id="a_node4"><a xlink:href="JSGActor_8h.html" target="_top" xlink:title=" ">
<polygon fill="white" stroke="black" points="117.5,-67.5 117.5,-86.5 259.5,-86.5 259.5,-67.5 117.5,-67.5"/>
<text text-anchor="middle" x="188.5" y="-74.5" font-family="Helvetica,sans-Serif" font-size="10.00">JSystem/JStage/JSGActor.h</text>
</a>
</g>
</g>
<!-- Node1&#45;&gt;Node4 -->
<g id="edge3" class="edge">
<title>Node1&#45;&gt;Node4</title>
<path fill="none" stroke="midnightblue" d="M477.89,-139C424.82,-129.41 341.33,-113.78 269.5,-98 257.12,-95.28 243.74,-92.08 231.49,-89.05"/>
<polygon fill="midnightblue" stroke="midnightblue" points="232.06,-85.59 221.51,-86.56 230.37,-92.38 232.06,-85.59"/>
</g>
<!-- Node5 -->
<g id="node5" class="node">
<title>Node5</title>
<g id="a_node5"><a xlink:title=" ">
<polygon fill="white" stroke="#bfbfbf" points="278,-56.5 278,-97.5 427,-97.5 427,-56.5 278,-56.5"/>
<text text-anchor="start" x="286" y="-85.5" font-family="Helvetica,sans-Serif" font-size="10.00">asm/JSystem/JStage</text>
<text text-anchor="start" x="286" y="-74.5" font-family="Helvetica,sans-Serif" font-size="10.00">/JSGActor/__dt__Q26JStage6</text>
<text text-anchor="middle" x="352.5" y="-63.5" font-family="Helvetica,sans-Serif" font-size="10.00">TActorFv.s</text>
</a>
</g>
</g>
<!-- Node1&#45;&gt;Node5 -->
<g id="edge5" class="edge">
<title>Node1&#45;&gt;Node5</title>
<path fill="none" stroke="midnightblue" d="M495.71,-134.4C471.7,-124.95 439.52,-112.27 411.75,-101.34"/>
<polygon fill="midnightblue" stroke="midnightblue" points="412.72,-97.95 402.13,-97.55 410.15,-104.47 412.72,-97.95"/>
</g>
<!-- Node6 -->
<g id="node6" class="node">
<title>Node6</title>
<g id="a_node6"><a xlink:title=" ">
<polygon fill="white" stroke="#bfbfbf" points="445.5,-56.5 445.5,-97.5 617.5,-97.5 617.5,-56.5 445.5,-56.5"/>
<text text-anchor="start" x="453.5" y="-85.5" font-family="Helvetica,sans-Serif" font-size="10.00">asm/JSystem/JStage</text>
<text text-anchor="start" x="453.5" y="-74.5" font-family="Helvetica,sans-Serif" font-size="10.00">/JSGActor/JSGGetAnimationFrame</text>
<text text-anchor="middle" x="531.5" y="-63.5" font-family="Helvetica,sans-Serif" font-size="10.00">__Q26JStage6TActorCFv.s</text>
</a>
</g>
</g>
<!-- Node1&#45;&gt;Node6 -->
<g id="edge6" class="edge">
<title>Node1&#45;&gt;Node6</title>
<path fill="none" stroke="midnightblue" d="M531.5,-134.23C531.5,-126.57 531.5,-116.84 531.5,-107.63"/>
<polygon fill="midnightblue" stroke="midnightblue" points="535,-107.59 531.5,-97.59 528,-107.59 535,-107.59"/>
</g>
<!-- Node7 -->
<g id="node7" class="node">
<title>Node7</title>
<g id="a_node7"><a xlink:title=" ">
<polygon fill="white" stroke="#bfbfbf" points="635.5,-56.5 635.5,-97.5 807.5,-97.5 807.5,-56.5 635.5,-56.5"/>
<text text-anchor="start" x="643.5" y="-85.5" font-family="Helvetica,sans-Serif" font-size="10.00">asm/JSystem/JStage</text>
<text text-anchor="start" x="643.5" y="-74.5" font-family="Helvetica,sans-Serif" font-size="10.00">/JSGActor/JSGGetAnimationFrame</text>
<text text-anchor="middle" x="721.5" y="-63.5" font-family="Helvetica,sans-Serif" font-size="10.00">Max__Q26JStage6TActorCFv.s</text>
</a>
</g>
</g>
<!-- Node1&#45;&gt;Node7 -->
<g id="edge7" class="edge">
<title>Node1&#45;&gt;Node7</title>
<path fill="none" stroke="midnightblue" d="M569.49,-134.4C595.19,-124.87 629.73,-112.05 659.38,-101.05"/>
<polygon fill="midnightblue" stroke="midnightblue" points="660.66,-104.31 668.82,-97.55 658.23,-97.74 660.66,-104.31"/>
</g>
<!-- Node8 -->
<g id="node8" class="node">
<title>Node8</title>
<g id="a_node8"><a xlink:title=" ">
<polygon fill="white" stroke="#bfbfbf" points="826,-56.5 826,-97.5 1013,-97.5 1013,-56.5 826,-56.5"/>
<text text-anchor="start" x="834" y="-85.5" font-family="Helvetica,sans-Serif" font-size="10.00">asm/JSystem/JStage</text>
<text text-anchor="start" x="834" y="-74.5" font-family="Helvetica,sans-Serif" font-size="10.00">/JSGActor/JSGGetAnimationTransition</text>
<text text-anchor="middle" x="919.5" y="-63.5" font-family="Helvetica,sans-Serif" font-size="10.00">__Q26JStage6TActorCFv.s</text>
</a>
</g>
</g>
<!-- Node1&#45;&gt;Node8 -->
<g id="edge8" class="edge">
<title>Node1&#45;&gt;Node8</title>
<path fill="none" stroke="midnightblue" d="M585.13,-139.27C640.32,-129.71 729.08,-114.16 815.75,-98.12"/>
<polygon fill="midnightblue" stroke="midnightblue" points="816.57,-101.53 825.76,-96.27 815.29,-94.65 816.57,-101.53"/>
</g>
<!-- Node9 -->
<g id="node9" class="node">
<title>Node9</title>
<g id="a_node9"><a xlink:title=" ">
<polygon fill="white" stroke="#bfbfbf" points="1030.5,-56.5 1030.5,-97.5 1206.5,-97.5 1206.5,-56.5 1030.5,-56.5"/>
<text text-anchor="start" x="1038.5" y="-85.5" font-family="Helvetica,sans-Serif" font-size="10.00">asm/JSystem/JStage</text>
<text text-anchor="start" x="1038.5" y="-74.5" font-family="Helvetica,sans-Serif" font-size="10.00">/JSGActor/JSGGetTextureAnimation</text>
<text text-anchor="middle" x="1118.5" y="-63.5" font-family="Helvetica,sans-Serif" font-size="10.00">Frame__Q26JStage6TActorCFv.s</text>
</a>
</g>
</g>
<!-- Node1&#45;&gt;Node9 -->
<g id="edge9" class="edge">
<title>Node1&#45;&gt;Node9</title>
<path fill="none" stroke="midnightblue" d="M585.13,-144.8C673.8,-138.29 856.66,-123.18 1020.17,-98.29"/>
<polygon fill="midnightblue" stroke="midnightblue" points="1021.07,-101.7 1030.42,-96.72 1020,-94.78 1021.07,-101.7"/>
</g>
<!-- Node10 -->
<g id="node10" class="node">
<title>Node10</title>
<g id="a_node10"><a xlink:title=" ">
<polygon fill="white" stroke="#bfbfbf" points="1224.5,-56.5 1224.5,-97.5 1406.5,-97.5 1406.5,-56.5 1224.5,-56.5"/>
<text text-anchor="start" x="1232.5" y="-85.5" font-family="Helvetica,sans-Serif" font-size="10.00">asm/JSystem/JStage</text>
<text text-anchor="start" x="1232.5" y="-74.5" font-family="Helvetica,sans-Serif" font-size="10.00">/JSGActor/JSGGetTextureAnimation</text>
<text text-anchor="middle" x="1315.5" y="-63.5" font-family="Helvetica,sans-Serif" font-size="10.00">FrameMax__Q26JStage6TActorCFv.s</text>
</a>
</g>
</g>
<!-- Node1&#45;&gt;Node10 -->
<g id="edge10" class="edge">
<title>Node1&#45;&gt;Node10</title>
<path fill="none" stroke="midnightblue" d="M585.39,-146.79C699.6,-142.67 974.54,-130.17 1214.34,-98.07"/>
<polygon fill="midnightblue" stroke="midnightblue" points="1214.85,-101.53 1224.29,-96.72 1213.91,-94.6 1214.85,-101.53"/>
</g>
<!-- Node4&#45;&gt;Node3 -->
<g id="edge4" class="edge">
<title>Node4&#45;&gt;Node3</title>
<path fill="none" stroke="midnightblue" d="M181.76,-67.23C173.96,-57.1 160.95,-40.19 151.24,-27.56"/>
<polygon fill="midnightblue" stroke="midnightblue" points="154.01,-25.42 145.14,-19.63 148.46,-29.69 154.01,-25.42"/>
</g>
</g>
</svg>
