<?xml version="1.0" encoding="UTF-8" standalone="no"?>
<!DOCTYPE svg PUBLIC "-//W3C//DTD SVG 1.1//EN"
 "http://www.w3.org/Graphics/SVG/1.1/DTD/svg11.dtd">
<!-- Generated by graphviz version 2.47.0 (20210316.2052)
 -->
<!-- Title: libs/JSystem/JStage/JSGAmbientLight.cpp Pages: 1 -->
<svg width="654pt" height="173pt"
 viewBox="0.00 0.00 653.50 173.00" xmlns="http://www.w3.org/2000/svg" xmlns:xlink="http://www.w3.org/1999/xlink">
<g id="graph0" class="graph" transform="scale(1 1) rotate(0) translate(4 169)">
<title>libs/JSystem/JStage/JSGAmbientLight.cpp</title>
<polygon fill="white" stroke="transparent" points="-4,4 -4,-169 649.5,-169 649.5,4 -4,4"/>
<!-- Node1 -->
<g id="node1" class="node">
<title>Node1</title>
<g id="a_node1"><a xlink:title=" ">
<polygon fill="#bfbfbf" stroke="black" points="134,-134.5 134,-164.5 249,-164.5 249,-134.5 134,-134.5"/>
<text text-anchor="start" x="142" y="-152.5" font-family="Helvetica,sans-Serif" font-size="10.00">libs/JSystem/JStage</text>
<text text-anchor="middle" x="191.5" y="-141.5" font-family="Helvetica,sans-Serif" font-size="10.00">/JSGAmbientLight.cpp</text>
</a>
</g>
</g>
<!-- Node2 -->
<g id="node2" class="node">
<title>Node2</title>
<g id="a_node2"><a xlink:href="dol2asm_8h.html" target="_top" xlink:title=" ">
<polygon fill="white" stroke="black" points="0,-67.5 0,-86.5 61,-86.5 61,-67.5 0,-67.5"/>
<text text-anchor="middle" x="30.5" y="-74.5" font-family="Helvetica,sans-Serif" font-size="10.00">dol2asm.h</text>
</a>
</g>
</g>
<!-- Node1&#45;&gt;Node2 -->
<g id="edge1" class="edge">
<title>Node1&#45;&gt;Node2</title>
<path fill="none" stroke="midnightblue" d="M158.97,-134.42C135.7,-124.32 103.65,-110.38 75.5,-98 70.22,-95.68 64.59,-93.19 59.17,-90.78"/>
<polygon fill="midnightblue" stroke="midnightblue" points="60.32,-87.46 49.76,-86.6 57.47,-93.86 60.32,-87.46"/>
</g>
<!-- Node3 -->
<g id="node3" class="node">
<title>Node3</title>
<g id="a_node3"><a xlink:href="types_8h.html" target="_top" xlink:title=" ">
<polygon fill="white" stroke="black" points="100,-0.5 100,-19.5 181,-19.5 181,-0.5 100,-0.5"/>
<text text-anchor="middle" x="140.5" y="-7.5" font-family="Helvetica,sans-Serif" font-size="10.00">dolphin/types.h</text>
</a>
</g>
</g>
<!-- Node1&#45;&gt;Node3 -->
<g id="edge2" class="edge">
<title>Node1&#45;&gt;Node3</title>
<path fill="none" stroke="midnightblue" d="M152.38,-134.48C136.07,-126.47 118.79,-114.64 109.5,-98 100.4,-81.7 103.95,-73.82 109.5,-56 112.73,-45.62 119.28,-35.52 125.52,-27.53"/>
<polygon fill="midnightblue" stroke="midnightblue" points="128.29,-29.68 132.02,-19.77 122.92,-25.19 128.29,-29.68"/>
</g>
<!-- Node4 -->
<g id="node4" class="node">
<title>Node4</title>
<g id="a_node4"><a xlink:href="JSGAmbientLight_8h.html" target="_top" xlink:title=" ">
<polygon fill="white" stroke="black" points="118,-62 118,-92 265,-92 265,-62 118,-62"/>
<text text-anchor="start" x="126" y="-80" font-family="Helvetica,sans-Serif" font-size="10.00">JSystem/JStage/JSGAmbient</text>
<text text-anchor="middle" x="191.5" y="-69" font-family="Helvetica,sans-Serif" font-size="10.00">Light.h</text>
</a>
</g>
</g>
<!-- Node1&#45;&gt;Node4 -->
<g id="edge3" class="edge">
<title>Node1&#45;&gt;Node4</title>
<path fill="none" stroke="midnightblue" d="M191.5,-134.23C191.5,-125.16 191.5,-113.16 191.5,-102.58"/>
<polygon fill="midnightblue" stroke="midnightblue" points="195,-102.25 191.5,-92.25 188,-102.25 195,-102.25"/>
</g>
<!-- Node5 -->
<g id="node5" class="node">
<title>Node5</title>
<g id="a_node5"><a xlink:title=" ">
<polygon fill="white" stroke="#bfbfbf" points="283,-56.5 283,-97.5 452,-97.5 452,-56.5 283,-56.5"/>
<text text-anchor="start" x="291" y="-85.5" font-family="Helvetica,sans-Serif" font-size="10.00">asm/JSystem/JStage</text>
<text text-anchor="start" x="291" y="-74.5" font-family="Helvetica,sans-Serif" font-size="10.00">/JSGAmbientLight/__dt</text>
<text text-anchor="middle" x="367.5" y="-63.5" font-family="Helvetica,sans-Serif" font-size="10.00">__Q26JStage13TAmbientLightFv.s</text>
</a>
</g>
</g>
<!-- Node1&#45;&gt;Node5 -->
<g id="edge5" class="edge">
<title>Node1&#45;&gt;Node5</title>
<path fill="none" stroke="midnightblue" d="M226.69,-134.4C250.29,-124.95 281.93,-112.27 309.24,-101.34"/>
<polygon fill="midnightblue" stroke="midnightblue" points="310.72,-104.51 318.7,-97.55 308.12,-98.02 310.72,-104.51"/>
</g>
<!-- Node6 -->
<g id="node6" class="node">
<title>Node6</title>
<g id="a_node6"><a xlink:title=" ">
<polygon fill="white" stroke="#bfbfbf" points="469.5,-56.5 469.5,-97.5 645.5,-97.5 645.5,-56.5 469.5,-56.5"/>
<text text-anchor="start" x="477.5" y="-85.5" font-family="Helvetica,sans-Serif" font-size="10.00">asm/JSystem/JStage</text>
<text text-anchor="start" x="477.5" y="-74.5" font-family="Helvetica,sans-Serif" font-size="10.00">/JSGAmbientLight/JSGGetColor</text>
<text text-anchor="middle" x="557.5" y="-63.5" font-family="Helvetica,sans-Serif" font-size="10.00">__Q26JStage13TAmbientLightCFv.s</text>
</a>
</g>
</g>
<!-- Node1&#45;&gt;Node6 -->
<g id="edge6" class="edge">
<title>Node1&#45;&gt;Node6</title>
<path fill="none" stroke="midnightblue" d="M249.24,-138.05C301.71,-128.48 381.52,-113.72 459.39,-98.4"/>
<polygon fill="midnightblue" stroke="midnightblue" points="460.23,-101.8 469.37,-96.43 458.88,-94.94 460.23,-101.8"/>
</g>
<!-- Node4&#45;&gt;Node3 -->
<g id="edge4" class="edge">
<title>Node4&#45;&gt;Node3</title>
<path fill="none" stroke="midnightblue" d="M180.43,-61.9C172.56,-51.86 161.95,-38.34 153.65,-27.75"/>
<polygon fill="midnightblue" stroke="midnightblue" points="156.25,-25.4 147.32,-19.69 150.74,-29.72 156.25,-25.4"/>
</g>
</g>
</svg>
