<?xml version="1.0" encoding="UTF-8" standalone="no"?>
<!DOCTYPE svg PUBLIC "-//W3C//DTD SVG 1.1//EN"
 "http://www.w3.org/Graphics/SVG/1.1/DTD/svg11.dtd">
<!-- Generated by graphviz version 2.47.0 (20210316.2052)
 -->
<!-- Title: libs/JSystem/JStage/JSGCamera.cpp Pages: 1 -->
<!--zoomable 173 -->
<svg id="main" version="1.1" xmlns="http://www.w3.org/2000/svg" xmlns:xlink="http://www.w3.org/1999/xlink" xml:space="preserve" onload="init(evt)">
<style type="text/css"><![CDATA[
.edge:hover path { stroke: red; }
.edge:hover polygon { stroke: red; fill: red; }
]]></style>
<script type="text/javascript"><![CDATA[
var edges = document.getElementsByTagName('g');
if (edges && edges.length) {
  for (var i=0;i<edges.length;i++) {
    if (edges[i].id.substr(0,4)=='edge') {
      edges[i].setAttribute('class','edge');
    }
  }
}
]]></script>
        <defs>
                <circle id="rim" cx="0" cy="0" r="7"/>
                <circle id="rim2" cx="0" cy="0" r="3.5"/>
                <g id="zoomPlus">
                        <use xlink:href="#rim" fill="#404040">
                                <set attributeName="fill" to="#808080" begin="zoomplus.mouseover" end="zoomplus.mouseout"/>
                        </use>
                        <path d="M-4,0h8M0,-4v8" fill="none" stroke="white" stroke-width="1.5" pointer-events="none"/>
                </g>
                <g id="zoomMin">
                        <use xlink:href="#rim" fill="#404040">
                                <set attributeName="fill" to="#808080" begin="zoomminus.mouseover" end="zoomminus.mouseout"/>
                        </use>
                        <path d="M-4,0h8" fill="none" stroke="white" stroke-width="1.5" pointer-events="none"/>
                </g>
                <g id="dirArrow">
                        <path fill="none" stroke="white" stroke-width="1.5" d="M0,-3.0v7 M-2.5,-0.5L0,-3.0L2.5,-0.5"/>
                </g>
               <g id="resetDef">
                       <use xlink:href="#rim2" fill="#404040">
                               <set attributeName="fill" to="#808080" begin="reset.mouseover" end="reset.mouseout"/>
                       </use>
               </g>
        </defs>

<script type="text/javascript">
var viewWidth = 1366;
var viewHeight = 173;
var sectionId = 'dynsection-0';
</script>
<script xlink:href="svgpan.js"/>
<svg id="graph" class="graph">
<g id="viewport">
<title>libs/JSystem/JStage/JSGCamera.cpp</title>
<polygon fill="white" stroke="transparent" points="-4,4 -4,-169 1362,-169 1362,4 -4,4"/>
<!-- Node1 -->
<g id="node1" class="node">
<title>Node1</title>
<g id="a_node1"><a xlink:title=" ">
<polygon fill="#bfbfbf" stroke="black" points="495,-134.5 495,-164.5 602,-164.5 602,-134.5 495,-134.5"/>
<text text-anchor="start" x="503" y="-152.5" font-family="Helvetica,sans-Serif" font-size="10.00">libs/JSystem/JStage</text>
<text text-anchor="middle" x="548.5" y="-141.5" font-family="Helvetica,sans-Serif" font-size="10.00">/JSGCamera.cpp</text>
</a>
</g>
</g>
<!-- Node2 -->
<g id="node2" class="node">
<title>Node2</title>
<g id="a_node2"><a xlink:href="dol2asm_8h.html" target="_top" xlink:title=" ">
<polygon fill="white" stroke="black" points="0,-67.5 0,-86.5 61,-86.5 61,-67.5 0,-67.5"/>
<text text-anchor="middle" x="30.5" y="-74.5" font-family="Helvetica,sans-Serif" font-size="10.00">dol2asm.h</text>
</a>
</g>
</g>
<!-- Node1&#45;&gt;Node2 -->
<g id="edge1" class="edge">
<title>Node1&#45;&gt;Node2</title>
<path fill="none" stroke="midnightblue" d="M494.66,-148.16C405.83,-146.42 223.65,-137.78 75.5,-98 69,-96.25 62.24,-93.69 55.99,-90.98"/>
<polygon fill="midnightblue" stroke="midnightblue" points="57.26,-87.71 46.72,-86.68 54.32,-94.06 57.26,-87.71"/>
</g>
<!-- Node3 -->
<g id="node3" class="node">
<title>Node3</title>
<g id="a_node3"><a xlink:href="types_8h.html" target="_top" xlink:title=" ">
<polygon fill="white" stroke="black" points="101,-0.5 101,-19.5 182,-19.5 182,-0.5 101,-0.5"/>
<text text-anchor="middle" x="141.5" y="-7.5" font-family="Helvetica,sans-Serif" font-size="10.00">dolphin/types.h</text>
</a>
</g>
</g>
<!-- Node1&#45;&gt;Node3 -->
<g id="edge2" class="edge">
<title>Node1&#45;&gt;Node3</title>
<path fill="none" stroke="midnightblue" d="M494.88,-146.27C383.19,-141.08 133.83,-126.41 108.5,-98 90.33,-77.63 110.53,-46.24 126.36,-27.26"/>
<polygon fill="midnightblue" stroke="midnightblue" points="129,-29.55 132.96,-19.72 123.74,-24.94 129,-29.55"/>
</g>
<!-- Node4 -->
<g id="node4" class="node">
<title>Node4</title>
<g id="a_node4"><a xlink:href="JSGCamera_8h.html" target="_top" xlink:title=" ">
<polygon fill="white" stroke="black" points="117.5,-67.5 117.5,-86.5 269.5,-86.5 269.5,-67.5 117.5,-67.5"/>
<text text-anchor="middle" x="193.5" y="-74.5" font-family="Helvetica,sans-Serif" font-size="10.00">JSystem/JStage/JSGCamera.h</text>
</a>
</g>
</g>
<!-- Node1&#45;&gt;Node4 -->
<g id="edge3" class="edge">
<title>Node1&#45;&gt;Node4</title>
<path fill="none" stroke="midnightblue" d="M494.78,-139.11C440.38,-129.45 353.9,-113.63 279.5,-98 266.11,-95.19 251.6,-91.91 238.39,-88.82"/>
<polygon fill="midnightblue" stroke="midnightblue" points="239.11,-85.4 228.57,-86.52 237.51,-92.21 239.11,-85.4"/>
</g>
<!-- Node5 -->
<g id="node5" class="node">
<title>Node5</title>
<g id="a_node5"><a xlink:title=" ">
<polygon fill="white" stroke="#bfbfbf" points="288,-56.5 288,-97.5 447,-97.5 447,-56.5 288,-56.5"/>
<text text-anchor="start" x="296" y="-85.5" font-family="Helvetica,sans-Serif" font-size="10.00">asm/JSystem/JStage</text>
<text text-anchor="start" x="296" y="-74.5" font-family="Helvetica,sans-Serif" font-size="10.00">/JSGCamera/__dt__Q26JStage7</text>
<text text-anchor="middle" x="367.5" y="-63.5" font-family="Helvetica,sans-Serif" font-size="10.00">TCameraFv.s</text>
</a>
</g>
</g>
<!-- Node1&#45;&gt;Node5 -->
<g id="edge5" class="edge">
<title>Node1&#45;&gt;Node5</title>
<path fill="none" stroke="midnightblue" d="M512.31,-134.4C487.93,-124.91 455.21,-112.16 427.04,-101.19"/>
<polygon fill="midnightblue" stroke="midnightblue" points="428.27,-97.91 417.68,-97.55 425.73,-104.44 428.27,-97.91"/>
</g>
<!-- Node6 -->
<g id="node6" class="node">
<title>Node6</title>
<g id="a_node6"><a xlink:title=" ">
<polygon fill="white" stroke="#bfbfbf" points="465,-56.5 465,-97.5 632,-97.5 632,-56.5 465,-56.5"/>
<text text-anchor="start" x="473" y="-85.5" font-family="Helvetica,sans-Serif" font-size="10.00">asm/JSystem/JStage</text>
<text text-anchor="start" x="473" y="-74.5" font-family="Helvetica,sans-Serif" font-size="10.00">/JSGCamera/JSGGetProjection</text>
<text text-anchor="middle" x="548.5" y="-63.5" font-family="Helvetica,sans-Serif" font-size="10.00">Near__Q26JStage7TCameraCFv.s</text>
</a>
</g>
</g>
<!-- Node1&#45;&gt;Node6 -->
<g id="edge6" class="edge">
<title>Node1&#45;&gt;Node6</title>
<path fill="none" stroke="midnightblue" d="M548.5,-134.23C548.5,-126.57 548.5,-116.84 548.5,-107.63"/>
<polygon fill="midnightblue" stroke="midnightblue" points="552,-107.59 548.5,-97.59 545,-107.59 552,-107.59"/>
</g>
<!-- Node7 -->
<g id="node7" class="node">
<title>Node7</title>
<g id="a_node7"><a xlink:title=" ">
<polygon fill="white" stroke="#bfbfbf" points="650,-56.5 650,-97.5 811,-97.5 811,-56.5 650,-56.5"/>
<text text-anchor="start" x="658" y="-85.5" font-family="Helvetica,sans-Serif" font-size="10.00">asm/JSystem/JStage</text>
<text text-anchor="start" x="658" y="-74.5" font-family="Helvetica,sans-Serif" font-size="10.00">/JSGCamera/JSGGetProjection</text>
<text text-anchor="middle" x="730.5" y="-63.5" font-family="Helvetica,sans-Serif" font-size="10.00">Far__Q26JStage7TCameraCFv.s</text>
</a>
</g>
</g>
<!-- Node1&#45;&gt;Node7 -->
<g id="edge7" class="edge">
<title>Node1&#45;&gt;Node7</title>
<path fill="none" stroke="midnightblue" d="M584.89,-134.4C609.4,-124.91 642.3,-112.16 670.63,-101.19"/>
<polygon fill="midnightblue" stroke="midnightblue" points="671.98,-104.42 680.04,-97.55 669.45,-97.89 671.98,-104.42"/>
</g>
<!-- Node8 -->
<g id="node8" class="node">
<title>Node8</title>
<g id="a_node8"><a xlink:title=" ">
<polygon fill="white" stroke="#bfbfbf" points="829,-56.5 829,-97.5 996,-97.5 996,-56.5 829,-56.5"/>
<text text-anchor="start" x="837" y="-85.5" font-family="Helvetica,sans-Serif" font-size="10.00">asm/JSystem/JStage</text>
<text text-anchor="start" x="837" y="-74.5" font-family="Helvetica,sans-Serif" font-size="10.00">/JSGCamera/JSGGetProjection</text>
<text text-anchor="middle" x="912.5" y="-63.5" font-family="Helvetica,sans-Serif" font-size="10.00">Fovy__Q26JStage7TCameraCFv.s</text>
</a>
</g>
</g>
<!-- Node1&#45;&gt;Node8 -->
<g id="edge8" class="edge">
<title>Node1&#45;&gt;Node8</title>
<path fill="none" stroke="midnightblue" d="M602.01,-139.06C654.79,-129.64 738,-114.49 818.93,-98.29"/>
<polygon fill="midnightblue" stroke="midnightblue" points="819.67,-101.71 828.79,-96.31 818.29,-94.85 819.67,-101.71"/>
</g>
<!-- Node9 -->
<g id="node9" class="node">
<title>Node9</title>
<g id="a_node9"><a xlink:title=" ">
<polygon fill="white" stroke="#bfbfbf" points="1014,-56.5 1014,-97.5 1191,-97.5 1191,-56.5 1014,-56.5"/>
<text text-anchor="start" x="1022" y="-85.5" font-family="Helvetica,sans-Serif" font-size="10.00">asm/JSystem/JStage</text>
<text text-anchor="start" x="1022" y="-74.5" font-family="Helvetica,sans-Serif" font-size="10.00">/JSGCamera/JSGGetProjection</text>
<text text-anchor="middle" x="1102.5" y="-63.5" font-family="Helvetica,sans-Serif" font-size="10.00">Aspect__Q26JStage7TCameraCFv.s</text>
</a>
</g>
</g>
<!-- Node1&#45;&gt;Node9 -->
<g id="edge9" class="edge">
<title>Node1&#45;&gt;Node9</title>
<path fill="none" stroke="midnightblue" d="M602.19,-144.2C685.97,-137.14 853.05,-121.61 1003.85,-98.2"/>
<polygon fill="midnightblue" stroke="midnightblue" points="1004.42,-101.65 1013.75,-96.64 1003.33,-94.73 1004.42,-101.65"/>
</g>
<!-- Node10 -->
<g id="node10" class="node">
<title>Node10</title>
<g id="a_node10"><a xlink:title=" ">
<polygon fill="white" stroke="#bfbfbf" points="1209,-56.5 1209,-97.5 1358,-97.5 1358,-56.5 1209,-56.5"/>
<text text-anchor="start" x="1217" y="-85.5" font-family="Helvetica,sans-Serif" font-size="10.00">asm/JSystem/JStage</text>
<text text-anchor="start" x="1217" y="-74.5" font-family="Helvetica,sans-Serif" font-size="10.00">/JSGCamera/JSGGetViewRoll</text>
<text text-anchor="middle" x="1283.5" y="-63.5" font-family="Helvetica,sans-Serif" font-size="10.00">__Q26JStage7TCameraCFv.s</text>
</a>
</g>
</g>
<!-- Node1&#45;&gt;Node10 -->
<g id="edge10" class="edge">
<title>Node1&#45;&gt;Node10</title>
<path fill="none" stroke="midnightblue" d="M602.08,-147.23C712.29,-144 972.38,-133.18 1198.88,-98.13"/>
<polygon fill="midnightblue" stroke="midnightblue" points="1199.62,-101.56 1208.96,-96.55 1198.53,-94.64 1199.62,-101.56"/>
</g>
<!-- Node4&#45;&gt;Node3 -->
<g id="edge4" class="edge">
<title>Node4&#45;&gt;Node3</title>
<path fill="none" stroke="midnightblue" d="M186.49,-67.23C178.38,-57.1 164.85,-40.19 154.74,-27.56"/>
<polygon fill="midnightblue" stroke="midnightblue" points="157.38,-25.25 148.4,-19.63 151.92,-29.62 157.38,-25.25"/>
</g>
</g>
</svg>
        <g id="navigator" transform="translate(0 0)" fill="#404254">
                <rect fill="#f2f5e9" fill-opacity="0.5" stroke="#606060" stroke-width=".5" x="0" y="0" width="60" height="60"/>
                <use id="zoomplus" xlink:href="#zoomPlus" x="17" y="9" onmousedown="handleZoom(evt,'in')"/>
                <use id="zoomminus" xlink:href="#zoomMin" x="42" y="9" onmousedown="handleZoom(evt,'out')"/>
                <use id="reset" xlink:href="#resetDef" x="30" y="36" onmousedown="handleReset()"/>
                <g id="arrowUp" xlink:href="#dirArrow" transform="translate(30 24)" onmousedown="handlePan(0,-1)">
                  <use xlink:href="#rim" fill="#404040">
                        <set attributeName="fill" to="#808080" begin="arrowUp.mouseover" end="arrowUp.mouseout"/>
                  </use>
                  <path fill="none" stroke="white" stroke-width="1.5" d="M0,-3.0v7 M-2.5,-0.5L0,-3.0L2.5,-0.5"/>
                </g>
                <g id="arrowRight" xlink:href="#dirArrow" transform="rotate(90) translate(36 -43)" onmousedown="handlePan(1,0)">
                  <use xlink:href="#rim" fill="#404040">
                        <set attributeName="fill" to="#808080" begin="arrowRight.mouseover" end="arrowRight.mouseout"/>
                  </use>
                  <path fill="none" stroke="white" stroke-width="1.5" d="M0,-3.0v7 M-2.5,-0.5L0,-3.0L2.5,-0.5"/>
                </g>
                <g id="arrowDown" xlink:href="#dirArrow" transform="rotate(180) translate(-30 -48)" onmousedown="handlePan(0,1)">
                  <use xlink:href="#rim" fill="#404040">
                        <set attributeName="fill" to="#808080" begin="arrowDown.mouseover" end="arrowDown.mouseout"/>
                  </use>
                  <path fill="none" stroke="white" stroke-width="1.5" d="M0,-3.0v7 M-2.5,-0.5L0,-3.0L2.5,-0.5"/>
                </g>
                <g id="arrowLeft" xlink:href="#dirArrow" transform="rotate(270) translate(-36 17)" onmousedown="handlePan(-1,0)">
                  <use xlink:href="#rim" fill="#404040">
                        <set attributeName="fill" to="#808080" begin="arrowLeft.mouseover" end="arrowLeft.mouseout"/>
                  </use>
                  <path fill="none" stroke="white" stroke-width="1.5" d="M0,-3.0v7 M-2.5,-0.5L0,-3.0L2.5,-0.5"/>
                </g>
        </g>
        <svg viewBox="0 0 15 15" width="100%" height="30px" preserveAspectRatio="xMaxYMin meet">
         <g id="arrow_out" transform="scale(0.3 0.3)">
          <a xlink:href="JSGCamera_8cpp__incl_org.svg" target="_base">
           <rect id="button" ry="5" rx="5" y="6" x="6" height="38" width="38"
                fill="#f2f5e9" fill-opacity="0.5" stroke="#606060" stroke-width="1.0"/>
           <path id="arrow"
             d="M 11.500037,31.436501 C 11.940474,20.09759 22.043105,11.32322 32.158766,21.979434 L 37.068811,17.246167 C 37.068811,17.246167 37.088388,32 37.088388,32 L 22.160133,31.978069 C 22.160133,31.978069 26.997745,27.140456 26.997745,27.140456 C 18.528582,18.264221 13.291696,25.230495 11.500037,31.436501 z"
             style="fill:#404040;"/>
          </a>
         </g>
        </svg>
</svg>
