<?xml version="1.0" encoding="UTF-8" standalone="no"?>
<!DOCTYPE svg PUBLIC "-//W3C//DTD SVG 1.1//EN"
 "http://www.w3.org/Graphics/SVG/1.1/DTD/svg11.dtd">
<!-- Generated by graphviz version 2.47.0 (20210316.2052)
 -->
<!-- Title: libs/JSystem/JStage/JSGCamera.cpp Pages: 1 -->
<svg width="4782pt" height="184pt"
 viewBox="0.00 0.00 4782.00 184.00" xmlns="http://www.w3.org/2000/svg" xmlns:xlink="http://www.w3.org/1999/xlink">
<g id="graph0" class="graph" transform="scale(1 1) rotate(0) translate(4 180)">
<title>libs/JSystem/JStage/JSGCamera.cpp</title>
<polygon fill="white" stroke="transparent" points="-4,4 -4,-180 4778,-180 4778,4 -4,4"/>
<!-- Node1 -->
<g id="node1" class="node">
<title>Node1</title>
<g id="a_node1"><a xlink:title=" ">
<polygon fill="#bfbfbf" stroke="black" points="2148,-145.5 2148,-175.5 2255,-175.5 2255,-145.5 2148,-145.5"/>
<text text-anchor="start" x="2156" y="-163.5" font-family="Helvetica,sans-Serif" font-size="10.00">libs/JSystem/JStage</text>
<text text-anchor="middle" x="2201.5" y="-152.5" font-family="Helvetica,sans-Serif" font-size="10.00">/JSGCamera.cpp</text>
</a>
</g>
</g>
<!-- Node2 -->
<g id="node2" class="node">
<title>Node2</title>
<g id="a_node2"><a xlink:href="dol2asm_8h.html" target="_top" xlink:title=" ">
<polygon fill="white" stroke="black" points="0,-73 0,-92 61,-92 61,-73 0,-73"/>
<text text-anchor="middle" x="30.5" y="-80" font-family="Helvetica,sans-Serif" font-size="10.00">dol2asm.h</text>
</a>
</g>
</g>
<!-- Node1&#45;&gt;Node2 -->
<g id="edge1" class="edge">
<title>Node1&#45;&gt;Node2</title>
<path fill="none" stroke="midnightblue" d="M2147.77,-159.79C1837.37,-161.24 280.4,-165.63 75.5,-109 66.86,-106.61 58.11,-102.21 50.66,-97.72"/>
<polygon fill="midnightblue" stroke="midnightblue" points="52.31,-94.63 42.01,-92.15 48.52,-100.51 52.31,-94.63"/>
</g>
<!-- Node3 -->
<g id="node3" class="node">
<title>Node3</title>
<g id="a_node3"><a xlink:href="types_8h.html" target="_top" xlink:title=" ">
<polygon fill="white" stroke="black" points="101,-0.5 101,-19.5 182,-19.5 182,-0.5 101,-0.5"/>
<text text-anchor="middle" x="141.5" y="-7.5" font-family="Helvetica,sans-Serif" font-size="10.00">dolphin/types.h</text>
</a>
</g>
</g>
<!-- Node1&#45;&gt;Node3 -->
<g id="edge2" class="edge">
<title>Node1&#45;&gt;Node3</title>
<path fill="none" stroke="midnightblue" d="M2147.88,-159.23C1824.36,-157.48 145.21,-146.6 108.5,-109 86.57,-86.53 110.01,-49.02 127.06,-27.51"/>
<polygon fill="midnightblue" stroke="midnightblue" points="129.92,-29.54 133.61,-19.61 124.53,-25.07 129.92,-29.54"/>
</g>
<!-- Node4 -->
<g id="node4" class="node">
<title>Node4</title>
<g id="a_node4"><a xlink:href="JSGCamera_8h.html" target="_top" xlink:title=" ">
<polygon fill="white" stroke="black" points="117.5,-73 117.5,-92 269.5,-92 269.5,-73 117.5,-73"/>
<text text-anchor="middle" x="193.5" y="-80" font-family="Helvetica,sans-Serif" font-size="10.00">JSystem/JStage/JSGCamera.h</text>
</a>
</g>
</g>
<!-- Node1&#45;&gt;Node4 -->
<g id="edge3" class="edge">
<title>Node1&#45;&gt;Node4</title>
<path fill="none" stroke="midnightblue" d="M2147.69,-158.93C1855.75,-155.7 468.14,-138.91 279.5,-109 261.58,-106.16 242.17,-100.62 226.32,-95.43"/>
<polygon fill="midnightblue" stroke="midnightblue" points="227.07,-91.99 216.48,-92.11 224.83,-98.63 227.07,-91.99"/>
</g>
<!-- Node5 -->
<g id="node5" class="node">
<title>Node5</title>
<g id="a_node5"><a xlink:title=" ">
<polygon fill="white" stroke="#bfbfbf" points="288,-62 288,-103 447,-103 447,-62 288,-62"/>
<text text-anchor="start" x="296" y="-91" font-family="Helvetica,sans-Serif" font-size="10.00">asm/JSystem/JStage</text>
<text text-anchor="start" x="296" y="-80" font-family="Helvetica,sans-Serif" font-size="10.00">/JSGCamera/__dt__Q26JStage7</text>
<text text-anchor="middle" x="367.5" y="-69" font-family="Helvetica,sans-Serif" font-size="10.00">TCameraFv.s</text>
</a>
</g>
</g>
<!-- Node1&#45;&gt;Node5 -->
<g id="edge5" class="edge">
<title>Node1&#45;&gt;Node5</title>
<path fill="none" stroke="midnightblue" d="M2147.9,-159.75C1892.15,-160.67 794.36,-161.44 456.5,-109 450.6,-108.08 444.54,-106.9 438.48,-105.54"/>
<polygon fill="midnightblue" stroke="midnightblue" points="438.87,-102.03 428.33,-103.1 437.24,-108.84 438.87,-102.03"/>
</g>
<!-- Node6 -->
<g id="node6" class="node">
<title>Node6</title>
<g id="a_node6"><a xlink:title=" ">
<polygon fill="white" stroke="#bfbfbf" points="465.5,-62 465.5,-103 611.5,-103 611.5,-62 465.5,-62"/>
<text text-anchor="start" x="473.5" y="-91" font-family="Helvetica,sans-Serif" font-size="10.00">asm/JSystem/JStage</text>
<text text-anchor="start" x="473.5" y="-80" font-family="Helvetica,sans-Serif" font-size="10.00">/JSGCamera/JSGFGetType</text>
<text text-anchor="middle" x="538.5" y="-69" font-family="Helvetica,sans-Serif" font-size="10.00">__Q26JStage7TCameraCFv.s</text>
</a>
</g>
</g>
<!-- Node1&#45;&gt;Node6 -->
<g id="edge6" class="edge">
<title>Node1&#45;&gt;Node6</title>
<path fill="none" stroke="midnightblue" d="M2147.82,-159.7C1906.99,-160.29 924.7,-159.49 621.5,-109 616.11,-108.1 610.58,-106.95 605.06,-105.63"/>
<polygon fill="midnightblue" stroke="midnightblue" points="605.73,-102.18 595.17,-103.09 603.99,-108.96 605.73,-102.18"/>
</g>
<!-- Node7 -->
<g id="node7" class="node">
<title>Node7</title>
<g id="a_node7"><a xlink:title=" ">
<polygon fill="white" stroke="#bfbfbf" points="630,-62 630,-103 797,-103 797,-62 630,-62"/>
<text text-anchor="start" x="638" y="-91" font-family="Helvetica,sans-Serif" font-size="10.00">asm/JSystem/JStage</text>
<text text-anchor="start" x="638" y="-80" font-family="Helvetica,sans-Serif" font-size="10.00">/JSGCamera/JSGGetProjection</text>
<text text-anchor="middle" x="713.5" y="-69" font-family="Helvetica,sans-Serif" font-size="10.00">Type__Q26JStage7TCameraCFv.s</text>
</a>
</g>
</g>
<!-- Node1&#45;&gt;Node7 -->
<g id="edge7" class="edge">
<title>Node1&#45;&gt;Node7</title>
<path fill="none" stroke="midnightblue" d="M2147.91,-159.22C1925.23,-157.78 1072.26,-149.68 806.5,-109 800.2,-108.04 793.72,-106.79 787.25,-105.38"/>
<polygon fill="midnightblue" stroke="midnightblue" points="787.65,-101.88 777.12,-103.03 786.07,-108.7 787.65,-101.88"/>
</g>
<!-- Node8 -->
<g id="node8" class="node">
<title>Node8</title>
<g id="a_node8"><a xlink:title=" ">
<polygon fill="white" stroke="#bfbfbf" points="815,-56.5 815,-108.5 1022,-108.5 1022,-56.5 815,-56.5"/>
<text text-anchor="start" x="823" y="-96.5" font-family="Helvetica,sans-Serif" font-size="10.00">asm/JSystem/JStage</text>
<text text-anchor="start" x="823" y="-85.5" font-family="Helvetica,sans-Serif" font-size="10.00">/JSGCamera/JSGSetProjection</text>
<text text-anchor="start" x="823" y="-74.5" font-family="Helvetica,sans-Serif" font-size="10.00">Type__Q26JStage7TCameraFQ26JStage18</text>
<text text-anchor="middle" x="918.5" y="-63.5" font-family="Helvetica,sans-Serif" font-size="10.00">TECameraProjection.s</text>
</a>
</g>
</g>
<!-- Node1&#45;&gt;Node8 -->
<g id="edge8" class="edge">
<title>Node1&#45;&gt;Node8</title>
<path fill="none" stroke="midnightblue" d="M2147.71,-158.46C1951.16,-154.45 1271.3,-138.81 1032.16,-108.94"/>
<polygon fill="midnightblue" stroke="midnightblue" points="1032.49,-105.45 1022.13,-107.64 1031.6,-112.39 1032.49,-105.45"/>
</g>
<!-- Node9 -->
<g id="node9" class="node">
<title>Node9</title>
<g id="a_node9"><a xlink:title=" ">
<polygon fill="white" stroke="#bfbfbf" points="1040,-62 1040,-103 1207,-103 1207,-62 1040,-62"/>
<text text-anchor="start" x="1048" y="-91" font-family="Helvetica,sans-Serif" font-size="10.00">asm/JSystem/JStage</text>
<text text-anchor="start" x="1048" y="-80" font-family="Helvetica,sans-Serif" font-size="10.00">/JSGCamera/JSGGetProjection</text>
<text text-anchor="middle" x="1123.5" y="-69" font-family="Helvetica,sans-Serif" font-size="10.00">Near__Q26JStage7TCameraCFv.s</text>
</a>
</g>
</g>
<!-- Node1&#45;&gt;Node9 -->
<g id="edge9" class="edge">
<title>Node1&#45;&gt;Node9</title>
<path fill="none" stroke="midnightblue" d="M2147.72,-158.3C1969.22,-154.07 1397.38,-138.5 1215.5,-109 1209.38,-108.01 1203.08,-106.76 1196.79,-105.35"/>
<polygon fill="midnightblue" stroke="midnightblue" points="1197.48,-101.92 1186.94,-103.03 1195.87,-108.73 1197.48,-101.92"/>
</g>
<!-- Node10 -->
<g id="node10" class="node">
<title>Node10</title>
<g id="a_node10"><a xlink:title=" ">
<polygon fill="white" stroke="#bfbfbf" points="1224.5,-62 1224.5,-103 1382.5,-103 1382.5,-62 1224.5,-62"/>
<text text-anchor="start" x="1232.5" y="-91" font-family="Helvetica,sans-Serif" font-size="10.00">asm/JSystem/JStage</text>
<text text-anchor="start" x="1232.5" y="-80" font-family="Helvetica,sans-Serif" font-size="10.00">/JSGCamera/JSGSetProjection</text>
<text text-anchor="middle" x="1303.5" y="-69" font-family="Helvetica,sans-Serif" font-size="10.00">Near__Q26JStage7TCameraFf.s</text>
</a>
</g>
</g>
<!-- Node1&#45;&gt;Node10 -->
<g id="edge10" class="edge">
<title>Node1&#45;&gt;Node10</title>
<path fill="none" stroke="midnightblue" d="M2147.55,-160.14C2016.92,-160.84 1673.67,-157.47 1392.5,-109 1386.82,-108.02 1380.98,-106.81 1375.14,-105.47"/>
<polygon fill="midnightblue" stroke="midnightblue" points="1375.89,-102.05 1365.35,-103.07 1374.23,-108.85 1375.89,-102.05"/>
</g>
<!-- Node11 -->
<g id="node11" class="node">
<title>Node11</title>
<g id="a_node11"><a xlink:title=" ">
<polygon fill="white" stroke="#bfbfbf" points="1401,-62 1401,-103 1562,-103 1562,-62 1401,-62"/>
<text text-anchor="start" x="1409" y="-91" font-family="Helvetica,sans-Serif" font-size="10.00">asm/JSystem/JStage</text>
<text text-anchor="start" x="1409" y="-80" font-family="Helvetica,sans-Serif" font-size="10.00">/JSGCamera/JSGGetProjection</text>
<text text-anchor="middle" x="1481.5" y="-69" font-family="Helvetica,sans-Serif" font-size="10.00">Far__Q26JStage7TCameraCFv.s</text>
</a>
</g>
</g>
<!-- Node1&#45;&gt;Node11 -->
<g id="edge11" class="edge">
<title>Node1&#45;&gt;Node11</title>
<path fill="none" stroke="midnightblue" d="M2147.95,-158.74C2038.7,-156.41 1782.62,-146.99 1571.5,-109 1565.87,-107.99 1560.08,-106.77 1554.29,-105.42"/>
<polygon fill="midnightblue" stroke="midnightblue" points="1555.11,-102.02 1544.56,-103.05 1553.45,-108.82 1555.11,-102.02"/>
</g>
<!-- Node12 -->
<g id="node12" class="node">
<title>Node12</title>
<g id="a_node12"><a xlink:title=" ">
<polygon fill="white" stroke="#bfbfbf" points="1580.5,-62 1580.5,-103 1734.5,-103 1734.5,-62 1580.5,-62"/>
<text text-anchor="start" x="1588.5" y="-91" font-family="Helvetica,sans-Serif" font-size="10.00">asm/JSystem/JStage</text>
<text text-anchor="start" x="1588.5" y="-80" font-family="Helvetica,sans-Serif" font-size="10.00">/JSGCamera/JSGSetProjection</text>
<text text-anchor="middle" x="1657.5" y="-69" font-family="Helvetica,sans-Serif" font-size="10.00">Far__Q26JStage7TCameraFf.s</text>
</a>
</g>
</g>
<!-- Node1&#45;&gt;Node12 -->
<g id="edge12" class="edge">
<title>Node1&#45;&gt;Node12</title>
<path fill="none" stroke="midnightblue" d="M2147.91,-156.63C2062.07,-151.34 1888.71,-137.87 1744.5,-109 1739.52,-108 1734.4,-106.85 1729.28,-105.6"/>
<polygon fill="midnightblue" stroke="midnightblue" points="1729.98,-102.17 1719.43,-103.08 1728.25,-108.95 1729.98,-102.17"/>
</g>
<!-- Node13 -->
<g id="node13" class="node">
<title>Node13</title>
<g id="a_node13"><a xlink:title=" ">
<polygon fill="white" stroke="#bfbfbf" points="1753,-62 1753,-103 1920,-103 1920,-62 1753,-62"/>
<text text-anchor="start" x="1761" y="-91" font-family="Helvetica,sans-Serif" font-size="10.00">asm/JSystem/JStage</text>
<text text-anchor="start" x="1761" y="-80" font-family="Helvetica,sans-Serif" font-size="10.00">/JSGCamera/JSGGetProjection</text>
<text text-anchor="middle" x="1836.5" y="-69" font-family="Helvetica,sans-Serif" font-size="10.00">Fovy__Q26JStage7TCameraCFv.s</text>
</a>
</g>
</g>
<!-- Node1&#45;&gt;Node13 -->
<g id="edge13" class="edge">
<title>Node1&#45;&gt;Node13</title>
<path fill="none" stroke="midnightblue" d="M2147.86,-151C2092.6,-141.92 2004.12,-126.44 1928.5,-109 1923.85,-107.93 1919.08,-106.77 1914.28,-105.57"/>
<polygon fill="midnightblue" stroke="midnightblue" points="1914.96,-102.13 1904.41,-103.04 1913.22,-108.91 1914.96,-102.13"/>
</g>
<!-- Node14 -->
<g id="node14" class="node">
<title>Node14</title>
<g id="a_node14"><a xlink:title=" ">
<polygon fill="white" stroke="#bfbfbf" points="1937.5,-62 1937.5,-103 2095.5,-103 2095.5,-62 1937.5,-62"/>
<text text-anchor="start" x="1945.5" y="-91" font-family="Helvetica,sans-Serif" font-size="10.00">asm/JSystem/JStage</text>
<text text-anchor="start" x="1945.5" y="-80" font-family="Helvetica,sans-Serif" font-size="10.00">/JSGCamera/JSGSetProjection</text>
<text text-anchor="middle" x="2016.5" y="-69" font-family="Helvetica,sans-Serif" font-size="10.00">Fovy__Q26JStage7TCameraFf.s</text>
</a>
</g>
</g>
<!-- Node1&#45;&gt;Node14 -->
<g id="edge14" class="edge">
<title>Node1&#45;&gt;Node14</title>
<path fill="none" stroke="midnightblue" d="M2167.14,-145.38C2140.91,-134.61 2104.18,-119.52 2073.57,-106.94"/>
<polygon fill="midnightblue" stroke="midnightblue" points="2074.86,-103.69 2064.28,-103.13 2072.2,-110.17 2074.86,-103.69"/>
</g>
<!-- Node15 -->
<g id="node15" class="node">
<title>Node15</title>
<g id="a_node15"><a xlink:title=" ">
<polygon fill="white" stroke="#bfbfbf" points="2113,-62 2113,-103 2290,-103 2290,-62 2113,-62"/>
<text text-anchor="start" x="2121" y="-91" font-family="Helvetica,sans-Serif" font-size="10.00">asm/JSystem/JStage</text>
<text text-anchor="start" x="2121" y="-80" font-family="Helvetica,sans-Serif" font-size="10.00">/JSGCamera/JSGGetProjection</text>
<text text-anchor="middle" x="2201.5" y="-69" font-family="Helvetica,sans-Serif" font-size="10.00">Aspect__Q26JStage7TCameraCFv.s</text>
</a>
</g>
</g>
<!-- Node1&#45;&gt;Node15 -->
<g id="edge15" class="edge">
<title>Node1&#45;&gt;Node15</title>
<path fill="none" stroke="midnightblue" d="M2201.5,-145.2C2201.5,-136.21 2201.5,-124.27 2201.5,-113.29"/>
<polygon fill="midnightblue" stroke="midnightblue" points="2205,-113.18 2201.5,-103.18 2198,-113.18 2205,-113.18"/>
</g>
<!-- Node16 -->
<g id="node16" class="node">
<title>Node16</title>
<g id="a_node16"><a xlink:title=" ">
<polygon fill="white" stroke="#bfbfbf" points="2307.5,-62 2307.5,-103 2475.5,-103 2475.5,-62 2307.5,-62"/>
<text text-anchor="start" x="2315.5" y="-91" font-family="Helvetica,sans-Serif" font-size="10.00">asm/JSystem/JStage</text>
<text text-anchor="start" x="2315.5" y="-80" font-family="Helvetica,sans-Serif" font-size="10.00">/JSGCamera/JSGSetProjection</text>
<text text-anchor="middle" x="2391.5" y="-69" font-family="Helvetica,sans-Serif" font-size="10.00">Aspect__Q26JStage7TCameraFf.s</text>
</a>
</g>
</g>
<!-- Node1&#45;&gt;Node16 -->
<g id="edge16" class="edge">
<title>Node1&#45;&gt;Node16</title>
<path fill="none" stroke="midnightblue" d="M2236.79,-145.38C2263.73,-134.61 2301.45,-119.52 2332.89,-106.94"/>
<polygon fill="midnightblue" stroke="midnightblue" points="2334.45,-110.09 2342.43,-103.13 2331.85,-103.59 2334.45,-110.09"/>
</g>
<!-- Node17 -->
<g id="node17" class="node">
<title>Node17</title>
<g id="a_node17"><a xlink:title=" ">
<polygon fill="white" stroke="#bfbfbf" points="2493.5,-62 2493.5,-103 2665.5,-103 2665.5,-62 2493.5,-62"/>
<text text-anchor="start" x="2501.5" y="-91" font-family="Helvetica,sans-Serif" font-size="10.00">asm/JSystem/JStage</text>
<text text-anchor="start" x="2501.5" y="-80" font-family="Helvetica,sans-Serif" font-size="10.00">/JSGCamera/JSGGetProjection</text>
<text text-anchor="middle" x="2579.5" y="-69" font-family="Helvetica,sans-Serif" font-size="10.00">Field__Q26JStage7TCameraCFPf.s</text>
</a>
</g>
</g>
<!-- Node1&#45;&gt;Node17 -->
<g id="edge17" class="edge">
<title>Node1&#45;&gt;Node17</title>
<path fill="none" stroke="midnightblue" d="M2255.24,-151.32C2312.37,-142.29 2405.22,-126.68 2484.5,-109 2489.43,-107.9 2494.48,-106.72 2499.57,-105.48"/>
<polygon fill="midnightblue" stroke="midnightblue" points="2500.51,-108.85 2509.37,-103.05 2498.82,-102.06 2500.51,-108.85"/>
</g>
<!-- Node18 -->
<g id="node18" class="node">
<title>Node18</title>
<g id="a_node18"><a xlink:title=" ">
<polygon fill="white" stroke="#bfbfbf" points="2683.5,-62 2683.5,-103 2855.5,-103 2855.5,-62 2683.5,-62"/>
<text text-anchor="start" x="2691.5" y="-91" font-family="Helvetica,sans-Serif" font-size="10.00">asm/JSystem/JStage</text>
<text text-anchor="start" x="2691.5" y="-80" font-family="Helvetica,sans-Serif" font-size="10.00">/JSGCamera/JSGSetProjection</text>
<text text-anchor="middle" x="2769.5" y="-69" font-family="Helvetica,sans-Serif" font-size="10.00">Field__Q26JStage7TCameraFPCf.s</text>
</a>
</g>
</g>
<!-- Node1&#45;&gt;Node18 -->
<g id="edge18" class="edge">
<title>Node1&#45;&gt;Node18</title>
<path fill="none" stroke="midnightblue" d="M2255.09,-156.51C2343.2,-150.98 2523.9,-137.07 2674.5,-109 2680.2,-107.94 2686.06,-106.71 2691.93,-105.38"/>
<polygon fill="midnightblue" stroke="midnightblue" points="2692.88,-108.75 2701.81,-103.04 2691.28,-101.93 2692.88,-108.75"/>
</g>
<!-- Node19 -->
<g id="node19" class="node">
<title>Node19</title>
<g id="a_node19"><a xlink:title=" ">
<polygon fill="white" stroke="#bfbfbf" points="2873.5,-62 2873.5,-103 3027.5,-103 3027.5,-62 2873.5,-62"/>
<text text-anchor="start" x="2881.5" y="-91" font-family="Helvetica,sans-Serif" font-size="10.00">asm/JSystem/JStage</text>
<text text-anchor="start" x="2881.5" y="-80" font-family="Helvetica,sans-Serif" font-size="10.00">/JSGCamera/JSGGetViewType</text>
<text text-anchor="middle" x="2950.5" y="-69" font-family="Helvetica,sans-Serif" font-size="10.00">__Q26JStage7TCameraCFv.s</text>
</a>
</g>
</g>
<!-- Node1&#45;&gt;Node19 -->
<g id="edge19" class="edge">
<title>Node1&#45;&gt;Node19</title>
<path fill="none" stroke="midnightblue" d="M2255.28,-159.25C2368.8,-157.89 2640.85,-150.19 2864.5,-109 2869.76,-108.03 2875.17,-106.86 2880.57,-105.56"/>
<polygon fill="midnightblue" stroke="midnightblue" points="2881.45,-108.95 2890.28,-103.11 2879.73,-102.17 2881.45,-108.95"/>
</g>
<!-- Node20 -->
<g id="node20" class="node">
<title>Node20</title>
<g id="a_node20"><a xlink:title=" ">
<polygon fill="white" stroke="#bfbfbf" points="3045.5,-56.5 3045.5,-108.5 3231.5,-108.5 3231.5,-56.5 3045.5,-56.5"/>
<text text-anchor="start" x="3053.5" y="-96.5" font-family="Helvetica,sans-Serif" font-size="10.00">asm/JSystem/JStage</text>
<text text-anchor="start" x="3053.5" y="-85.5" font-family="Helvetica,sans-Serif" font-size="10.00">/JSGCamera/JSGSetViewType</text>
<text text-anchor="start" x="3053.5" y="-74.5" font-family="Helvetica,sans-Serif" font-size="10.00">__Q26JStage7TCameraFQ26JStage12</text>
<text text-anchor="middle" x="3138.5" y="-63.5" font-family="Helvetica,sans-Serif" font-size="10.00">TECameraView.s</text>
</a>
</g>
</g>
<!-- Node1&#45;&gt;Node20 -->
<g id="edge20" class="edge">
<title>Node1&#45;&gt;Node20</title>
<path fill="none" stroke="midnightblue" d="M2255.1,-159.67C2386.69,-159.37 2736.07,-154.13 3035.09,-109.09"/>
<polygon fill="midnightblue" stroke="midnightblue" points="3035.9,-112.51 3045.26,-107.54 3034.84,-105.59 3035.9,-112.51"/>
</g>
<!-- Node21 -->
<g id="node21" class="node">
<title>Node21</title>
<g id="a_node21"><a xlink:title=" ">
<polygon fill="white" stroke="#bfbfbf" points="3249.5,-62 3249.5,-103 3419.5,-103 3419.5,-62 3249.5,-62"/>
<text text-anchor="start" x="3257.5" y="-91" font-family="Helvetica,sans-Serif" font-size="10.00">asm/JSystem/JStage</text>
<text text-anchor="start" x="3257.5" y="-80" font-family="Helvetica,sans-Serif" font-size="10.00">/JSGCamera/JSGGetViewPosition</text>
<text text-anchor="middle" x="3334.5" y="-69" font-family="Helvetica,sans-Serif" font-size="10.00">__Q26JStage7TCameraCFP3Vec.s</text>
</a>
</g>
</g>
<!-- Node1&#45;&gt;Node21 -->
<g id="edge21" class="edge">
<title>Node1&#45;&gt;Node21</title>
<path fill="none" stroke="midnightblue" d="M2255.24,-158.42C2439.91,-154.48 3047.74,-139.46 3240.5,-109 3246.75,-108.01 3253.18,-106.77 3259.6,-105.37"/>
<polygon fill="midnightblue" stroke="midnightblue" points="3260.71,-108.7 3269.66,-103.04 3259.13,-101.88 3260.71,-108.7"/>
</g>
<!-- Node22 -->
<g id="node22" class="node">
<title>Node22</title>
<g id="a_node22"><a xlink:title=" ">
<polygon fill="white" stroke="#bfbfbf" points="3437.5,-62 3437.5,-103 3607.5,-103 3607.5,-62 3437.5,-62"/>
<text text-anchor="start" x="3445.5" y="-91" font-family="Helvetica,sans-Serif" font-size="10.00">asm/JSystem/JStage</text>
<text text-anchor="start" x="3445.5" y="-80" font-family="Helvetica,sans-Serif" font-size="10.00">/JSGCamera/JSGSetViewPosition</text>
<text text-anchor="middle" x="3522.5" y="-69" font-family="Helvetica,sans-Serif" font-size="10.00">__Q26JStage7TCameraFRC3Vec.s</text>
</a>
</g>
</g>
<!-- Node1&#45;&gt;Node22 -->
<g id="edge22" class="edge">
<title>Node1&#45;&gt;Node22</title>
<path fill="none" stroke="midnightblue" d="M2255.11,-158.89C2460.5,-156.3 3197.25,-144.66 3428.5,-109 3434.81,-108.03 3441.3,-106.79 3447.78,-105.38"/>
<polygon fill="midnightblue" stroke="midnightblue" points="3448.97,-108.7 3457.93,-103.05 3447.4,-101.88 3448.97,-108.7"/>
</g>
<!-- Node23 -->
<g id="node23" class="node">
<title>Node23</title>
<g id="a_node23"><a xlink:title=" ">
<polygon fill="white" stroke="#bfbfbf" points="3625.5,-62 3625.5,-103 3799.5,-103 3799.5,-62 3625.5,-62"/>
<text text-anchor="start" x="3633.5" y="-91" font-family="Helvetica,sans-Serif" font-size="10.00">asm/JSystem/JStage</text>
<text text-anchor="start" x="3633.5" y="-80" font-family="Helvetica,sans-Serif" font-size="10.00">/JSGCamera/JSGGetViewUpVector</text>
<text text-anchor="middle" x="3712.5" y="-69" font-family="Helvetica,sans-Serif" font-size="10.00">__Q26JStage7TCameraCFP3Vec.s</text>
</a>
</g>
</g>
<!-- Node1&#45;&gt;Node23 -->
<g id="edge23" class="edge">
<title>Node1&#45;&gt;Node23</title>
<path fill="none" stroke="midnightblue" d="M2255.09,-159.19C2479.74,-157.65 3346.46,-149.16 3616.5,-109 3623.15,-108.01 3629.99,-106.73 3636.83,-105.28"/>
<polygon fill="midnightblue" stroke="midnightblue" points="3637.82,-108.64 3646.8,-103.03 3636.28,-101.81 3637.82,-108.64"/>
</g>
<!-- Node24 -->
<g id="node24" class="node">
<title>Node24</title>
<g id="a_node24"><a xlink:title=" ">
<polygon fill="white" stroke="#bfbfbf" points="3818,-62 3818,-103 3991,-103 3991,-62 3818,-62"/>
<text text-anchor="start" x="3826" y="-91" font-family="Helvetica,sans-Serif" font-size="10.00">asm/JSystem/JStage</text>
<text text-anchor="start" x="3826" y="-80" font-family="Helvetica,sans-Serif" font-size="10.00">/JSGCamera/JSGSetViewUpVector</text>
<text text-anchor="middle" x="3904.5" y="-69" font-family="Helvetica,sans-Serif" font-size="10.00">__Q26JStage7TCameraFRC3Vec.s</text>
</a>
</g>
</g>
<!-- Node1&#45;&gt;Node24 -->
<g id="edge24" class="edge">
<title>Node1&#45;&gt;Node24</title>
<path fill="none" stroke="midnightblue" d="M2255.23,-159.46C2498.58,-159.01 3498.83,-154.38 3808.5,-109 3815.21,-108.02 3822.12,-106.73 3829.01,-105.27"/>
<polygon fill="midnightblue" stroke="midnightblue" points="3830.08,-108.61 3839.07,-103 3828.55,-101.79 3830.08,-108.61"/>
</g>
<!-- Node25 -->
<g id="node25" class="node">
<title>Node25</title>
<g id="a_node25"><a xlink:title=" ">
<polygon fill="white" stroke="#bfbfbf" points="4009.5,-62 4009.5,-103 4215.5,-103 4215.5,-62 4009.5,-62"/>
<text text-anchor="start" x="4017.5" y="-91" font-family="Helvetica,sans-Serif" font-size="10.00">asm/JSystem/JStage</text>
<text text-anchor="start" x="4017.5" y="-80" font-family="Helvetica,sans-Serif" font-size="10.00">/JSGCamera/JSGGetViewTarget</text>
<text text-anchor="middle" x="4112.5" y="-69" font-family="Helvetica,sans-Serif" font-size="10.00">Position__Q26JStage7TCameraCFP3Vec.s</text>
</a>
</g>
</g>
<!-- Node1&#45;&gt;Node25 -->
<g id="edge25" class="edge">
<title>Node1&#45;&gt;Node25</title>
<path fill="none" stroke="midnightblue" d="M2255.4,-159.41C2516.34,-158.75 3650.23,-153.36 4000.5,-109 4008.75,-107.96 4017.28,-106.58 4025.78,-105"/>
<polygon fill="midnightblue" stroke="midnightblue" points="4026.59,-108.4 4035.73,-103.06 4025.25,-101.53 4026.59,-108.4"/>
</g>
<!-- Node26 -->
<g id="node26" class="node">
<title>Node26</title>
<g id="a_node26"><a xlink:title=" ">
<polygon fill="white" stroke="#bfbfbf" points="4233.5,-62 4233.5,-103 4439.5,-103 4439.5,-62 4233.5,-62"/>
<text text-anchor="start" x="4241.5" y="-91" font-family="Helvetica,sans-Serif" font-size="10.00">asm/JSystem/JStage</text>
<text text-anchor="start" x="4241.5" y="-80" font-family="Helvetica,sans-Serif" font-size="10.00">/JSGCamera/JSGSetViewTarget</text>
<text text-anchor="middle" x="4336.5" y="-69" font-family="Helvetica,sans-Serif" font-size="10.00">Position__Q26JStage7TCameraFRC3Vec.s</text>
</a>
</g>
</g>
<!-- Node1&#45;&gt;Node26 -->
<g id="edge26" class="edge">
<title>Node1&#45;&gt;Node26</title>
<path fill="none" stroke="midnightblue" d="M2255,-159.6C2534.31,-159.93 3827.3,-158.67 4224.5,-109 4232.82,-107.96 4241.43,-106.57 4250.01,-104.98"/>
<polygon fill="midnightblue" stroke="midnightblue" points="4250.9,-108.37 4260.04,-103.03 4249.56,-101.5 4250.9,-108.37"/>
</g>
<!-- Node27 -->
<g id="node27" class="node">
<title>Node27</title>
<g id="a_node27"><a xlink:title=" ">
<polygon fill="white" stroke="#bfbfbf" points="4458,-62 4458,-103 4607,-103 4607,-62 4458,-62"/>
<text text-anchor="start" x="4466" y="-91" font-family="Helvetica,sans-Serif" font-size="10.00">asm/JSystem/JStage</text>
<text text-anchor="start" x="4466" y="-80" font-family="Helvetica,sans-Serif" font-size="10.00">/JSGCamera/JSGGetViewRoll</text>
<text text-anchor="middle" x="4532.5" y="-69" font-family="Helvetica,sans-Serif" font-size="10.00">__Q26JStage7TCameraCFv.s</text>
</a>
</g>
</g>
<!-- Node1&#45;&gt;Node27 -->
<g id="edge27" class="edge">
<title>Node1&#45;&gt;Node27</title>
<path fill="none" stroke="midnightblue" d="M2255.24,-159.17C2575.48,-157.07 4225.99,-144.59 4448.5,-109 4454.19,-108.09 4460.03,-106.89 4465.85,-105.51"/>
<polygon fill="midnightblue" stroke="midnightblue" points="4466.77,-108.89 4475.6,-103.04 4465.05,-102.11 4466.77,-108.89"/>
</g>
<!-- Node28 -->
<g id="node28" class="node">
<title>Node28</title>
<g id="a_node28"><a xlink:title=" ">
<polygon fill="white" stroke="#bfbfbf" points="4625,-62 4625,-103 4774,-103 4774,-62 4625,-62"/>
<text text-anchor="start" x="4633" y="-91" font-family="Helvetica,sans-Serif" font-size="10.00">asm/JSystem/JStage</text>
<text text-anchor="start" x="4633" y="-80" font-family="Helvetica,sans-Serif" font-size="10.00">/JSGCamera/JSGSetViewRoll</text>
<text text-anchor="middle" x="4699.5" y="-69" font-family="Helvetica,sans-Serif" font-size="10.00">__Q26JStage7TCameraFf.s</text>
</a>
</g>
</g>
<!-- Node1&#45;&gt;Node28 -->
<g id="edge28" class="edge">
<title>Node1&#45;&gt;Node28</title>
<path fill="none" stroke="midnightblue" d="M2255.13,-159.27C2589.02,-157.71 4376.42,-147.62 4616.5,-109 4621.99,-108.12 4627.62,-106.96 4633.23,-105.62"/>
<polygon fill="midnightblue" stroke="midnightblue" points="4634.47,-108.92 4643.29,-103.05 4632.74,-102.14 4634.47,-108.92"/>
</g>
<!-- Node4&#45;&gt;Node3 -->
<g id="edge4" class="edge">
<title>Node4&#45;&gt;Node3</title>
<path fill="none" stroke="midnightblue" d="M187.12,-72.86C178.94,-61.76 164.54,-42.24 154.11,-28.09"/>
<polygon fill="midnightblue" stroke="midnightblue" points="156.68,-25.69 147.93,-19.72 151.05,-29.84 156.68,-25.69"/>
</g>
</g>
</svg>
