<?xml version="1.0" encoding="UTF-8" standalone="no"?>
<!DOCTYPE svg PUBLIC "-//W3C//DTD SVG 1.1//EN"
 "http://www.w3.org/Graphics/SVG/1.1/DTD/svg11.dtd">
<!-- Generated by graphviz version 2.47.0 (20210316.2052)
 -->
<!-- Title: libs/JSystem/JStage/JSGObject.cpp Pages: 1 -->
<svg width="658pt" height="173pt"
 viewBox="0.00 0.00 657.50 173.00" xmlns="http://www.w3.org/2000/svg" xmlns:xlink="http://www.w3.org/1999/xlink">
<g id="graph0" class="graph" transform="scale(1 1) rotate(0) translate(4 169)">
<title>libs/JSystem/JStage/JSGObject.cpp</title>
<polygon fill="white" stroke="transparent" points="-4,4 -4,-169 653.5,-169 653.5,4 -4,4"/>
<!-- Node1 -->
<g id="node1" class="node">
<title>Node1</title>
<g id="a_node1"><a xlink:title=" ">
<polygon fill="#bfbfbf" stroke="black" points="138,-134.5 138,-164.5 245,-164.5 245,-134.5 138,-134.5"/>
<text text-anchor="start" x="146" y="-152.5" font-family="Helvetica,sans-Serif" font-size="10.00">libs/JSystem/JStage</text>
<text text-anchor="middle" x="191.5" y="-141.5" font-family="Helvetica,sans-Serif" font-size="10.00">/JSGObject.cpp</text>
</a>
</g>
</g>
<!-- Node2 -->
<g id="node2" class="node">
<title>Node2</title>
<g id="a_node2"><a xlink:href="dol2asm_8h.html" target="_top" xlink:title=" ">
<polygon fill="white" stroke="black" points="0,-67.5 0,-86.5 61,-86.5 61,-67.5 0,-67.5"/>
<text text-anchor="middle" x="30.5" y="-74.5" font-family="Helvetica,sans-Serif" font-size="10.00">dol2asm.h</text>
</a>
</g>
</g>
<!-- Node1&#45;&gt;Node2 -->
<g id="edge1" class="edge">
<title>Node1&#45;&gt;Node2</title>
<path fill="none" stroke="midnightblue" d="M158.97,-134.42C135.7,-124.32 103.65,-110.38 75.5,-98 70.22,-95.68 64.59,-93.19 59.17,-90.78"/>
<polygon fill="midnightblue" stroke="midnightblue" points="60.32,-87.46 49.76,-86.6 57.47,-93.86 60.32,-87.46"/>
</g>
<!-- Node3 -->
<g id="node3" class="node">
<title>Node3</title>
<g id="a_node3"><a xlink:href="types_8h.html" target="_top" xlink:title=" ">
<polygon fill="white" stroke="black" points="100,-0.5 100,-19.5 181,-19.5 181,-0.5 100,-0.5"/>
<text text-anchor="middle" x="140.5" y="-7.5" font-family="Helvetica,sans-Serif" font-size="10.00">dolphin/types.h</text>
</a>
</g>
</g>
<!-- Node1&#45;&gt;Node3 -->
<g id="edge2" class="edge">
<title>Node1&#45;&gt;Node3</title>
<path fill="none" stroke="midnightblue" d="M152.38,-134.48C136.07,-126.47 118.79,-114.64 109.5,-98 100.4,-81.7 103.95,-73.82 109.5,-56 112.73,-45.62 119.28,-35.52 125.52,-27.53"/>
<polygon fill="midnightblue" stroke="midnightblue" points="128.29,-29.68 132.02,-19.77 122.92,-25.19 128.29,-29.68"/>
</g>
<!-- Node4 -->
<g id="node4" class="node">
<title>Node4</title>
<g id="a_node4"><a xlink:href="JSGObject_8h.html" target="_top" xlink:title=" ">
<polygon fill="white" stroke="black" points="118,-67.5 118,-86.5 265,-86.5 265,-67.5 118,-67.5"/>
<text text-anchor="middle" x="191.5" y="-74.5" font-family="Helvetica,sans-Serif" font-size="10.00">JSystem/JStage/JSGObject.h</text>
</a>
</g>
</g>
<!-- Node1&#45;&gt;Node4 -->
<g id="edge3" class="edge">
<title>Node1&#45;&gt;Node4</title>
<path fill="none" stroke="midnightblue" d="M191.5,-134.23C191.5,-123.5 191.5,-108.69 191.5,-96.96"/>
<polygon fill="midnightblue" stroke="midnightblue" points="195,-96.89 191.5,-86.89 188,-96.89 195,-96.89"/>
</g>
<!-- Node5 -->
<g id="node5" class="node">
<title>Node5</title>
<g id="a_node5"><a xlink:title=" ">
<polygon fill="white" stroke="#bfbfbf" points="283.5,-56.5 283.5,-97.5 437.5,-97.5 437.5,-56.5 283.5,-56.5"/>
<text text-anchor="start" x="291.5" y="-85.5" font-family="Helvetica,sans-Serif" font-size="10.00">asm/JSystem/JStage</text>
<text text-anchor="start" x="291.5" y="-74.5" font-family="Helvetica,sans-Serif" font-size="10.00">/JSGObject/__dt__Q26JStage7</text>
<text text-anchor="middle" x="360.5" y="-63.5" font-family="Helvetica,sans-Serif" font-size="10.00">TObjectFv.s</text>
</a>
</g>
</g>
<!-- Node1&#45;&gt;Node5 -->
<g id="edge5" class="edge">
<title>Node1&#45;&gt;Node5</title>
<path fill="none" stroke="midnightblue" d="M225.29,-134.4C247.86,-124.99 278.07,-112.39 304.22,-101.48"/>
<polygon fill="midnightblue" stroke="midnightblue" points="305.76,-104.63 313.64,-97.55 303.07,-98.17 305.76,-104.63"/>
</g>
<!-- Node6 -->
<g id="node6" class="node">
<title>Node6</title>
<g id="a_node6"><a xlink:title=" ">
<polygon fill="white" stroke="#bfbfbf" points="455.5,-56.5 455.5,-97.5 649.5,-97.5 649.5,-56.5 455.5,-56.5"/>
<text text-anchor="start" x="463.5" y="-85.5" font-family="Helvetica,sans-Serif" font-size="10.00">asm/JSystem/JStage</text>
<text text-anchor="start" x="463.5" y="-74.5" font-family="Helvetica,sans-Serif" font-size="10.00">/JSGObject/JSGGetNodeTransformation</text>
<text text-anchor="middle" x="552.5" y="-63.5" font-family="Helvetica,sans-Serif" font-size="10.00">__Q26JStage7TObjectCFUlPA4_f.s</text>
</a>
</g>
</g>
<!-- Node1&#45;&gt;Node6 -->
<g id="edge6" class="edge">
<title>Node1&#45;&gt;Node6</title>
<path fill="none" stroke="midnightblue" d="M245.16,-138.02C297.75,-127.75 379.39,-111.81 445.31,-98.93"/>
<polygon fill="midnightblue" stroke="midnightblue" points="446.19,-102.33 455.33,-96.98 444.85,-95.46 446.19,-102.33"/>
</g>
<!-- Node4&#45;&gt;Node3 -->
<g id="edge4" class="edge">
<title>Node4&#45;&gt;Node3</title>
<path fill="none" stroke="midnightblue" d="M184.62,-67.23C176.67,-57.1 163.4,-40.19 153.49,-27.56"/>
<polygon fill="midnightblue" stroke="midnightblue" points="156.2,-25.33 147.27,-19.63 150.69,-29.66 156.2,-25.33"/>
</g>
</g>
</svg>
