<?xml version="1.0" encoding="UTF-8" standalone="no"?>
<!DOCTYPE svg PUBLIC "-//W3C//DTD SVG 1.1//EN"
 "http://www.w3.org/Graphics/SVG/1.1/DTD/svg11.dtd">
<!-- Generated by graphviz version 2.47.0 (20210316.2052)
 -->
<!-- Title: libs/JSystem/JStudio/JStudio_JParticle/control.cpp Pages: 1 -->
<!--zoomable 195 -->
<svg id="main" version="1.1" xmlns="http://www.w3.org/2000/svg" xmlns:xlink="http://www.w3.org/1999/xlink" xml:space="preserve" onload="init(evt)">
<style type="text/css"><![CDATA[
.edge:hover path { stroke: red; }
.edge:hover polygon { stroke: red; fill: red; }
]]></style>
<script type="text/javascript"><![CDATA[
var edges = document.getElementsByTagName('g');
if (edges && edges.length) {
  for (var i=0;i<edges.length;i++) {
    if (edges[i].id.substr(0,4)=='edge') {
      edges[i].setAttribute('class','edge');
    }
  }
}
]]></script>
        <defs>
                <circle id="rim" cx="0" cy="0" r="7"/>
                <circle id="rim2" cx="0" cy="0" r="3.5"/>
                <g id="zoomPlus">
                        <use xlink:href="#rim" fill="#404040">
                                <set attributeName="fill" to="#808080" begin="zoomplus.mouseover" end="zoomplus.mouseout"/>
                        </use>
                        <path d="M-4,0h8M0,-4v8" fill="none" stroke="white" stroke-width="1.5" pointer-events="none"/>
                </g>
                <g id="zoomMin">
                        <use xlink:href="#rim" fill="#404040">
                                <set attributeName="fill" to="#808080" begin="zoomminus.mouseover" end="zoomminus.mouseout"/>
                        </use>
                        <path d="M-4,0h8" fill="none" stroke="white" stroke-width="1.5" pointer-events="none"/>
                </g>
                <g id="dirArrow">
                        <path fill="none" stroke="white" stroke-width="1.5" d="M0,-3.0v7 M-2.5,-0.5L0,-3.0L2.5,-0.5"/>
                </g>
               <g id="resetDef">
                       <use xlink:href="#rim2" fill="#404040">
                               <set attributeName="fill" to="#808080" begin="reset.mouseover" end="reset.mouseout"/>
                       </use>
               </g>
        </defs>

<script type="text/javascript">
var viewWidth = 1150;
var viewHeight = 195;
var sectionId = 'dynsection-0';
</script>
<script xlink:href="svgpan.js"/>
<svg id="graph" class="graph">
<g id="viewport">
<title>libs/JSystem/JStudio/JStudio_JParticle/control.cpp</title>
<polygon fill="white" stroke="transparent" points="-4,4 -4,-191 1145.5,-191 1145.5,4 -4,4"/>
<!-- Node1 -->
<g id="node1" class="node">
<title>Node1</title>
<g id="a_node1"><a xlink:title=" ">
<polygon fill="#bfbfbf" stroke="black" points="376.5,-156.5 376.5,-186.5 522.5,-186.5 522.5,-156.5 376.5,-156.5"/>
<text text-anchor="start" x="384.5" y="-174.5" font-family="Helvetica,sans-Serif" font-size="10.00">libs/JSystem/JStudio</text>
<text text-anchor="middle" x="449.5" y="-163.5" font-family="Helvetica,sans-Serif" font-size="10.00">/JStudio_JParticle/control.cpp</text>
</a>
</g>
</g>
<!-- Node2 -->
<g id="node2" class="node">
<title>Node2</title>
<g id="a_node2"><a xlink:href="dol2asm_8h.html" target="_top" xlink:title=" ">
<polygon fill="white" stroke="black" points="0,-78.5 0,-97.5 61,-97.5 61,-78.5 0,-78.5"/>
<text text-anchor="middle" x="30.5" y="-85.5" font-family="Helvetica,sans-Serif" font-size="10.00">dol2asm.h</text>
</a>
</g>
</g>
<!-- Node1&#45;&gt;Node2 -->
<g id="edge1" class="edge">
<title>Node1&#45;&gt;Node2</title>
<path fill="none" stroke="midnightblue" d="M376.37,-170.58C299.12,-168.41 174.97,-158.43 75.5,-120 65.73,-116.22 56.01,-109.94 48.12,-104.01"/>
<polygon fill="midnightblue" stroke="midnightblue" points="50.09,-101.1 40.09,-97.62 45.74,-106.58 50.09,-101.1"/>
</g>
<!-- Node3 -->
<g id="node3" class="node">
<title>Node3</title>
<g id="a_node3"><a xlink:href="types_8h.html" target="_top" xlink:title=" ">
<polygon fill="white" stroke="black" points="95,-0.5 95,-19.5 176,-19.5 176,-0.5 95,-0.5"/>
<text text-anchor="middle" x="135.5" y="-7.5" font-family="Helvetica,sans-Serif" font-size="10.00">dolphin/types.h</text>
</a>
</g>
</g>
<!-- Node1&#45;&gt;Node3 -->
<g id="edge2" class="edge">
<title>Node1&#45;&gt;Node3</title>
<path fill="none" stroke="midnightblue" d="M376.47,-170.35C287.05,-168.44 143.26,-159.15 109.5,-120 86.94,-93.84 108.18,-51.54 123.31,-28.07"/>
<polygon fill="midnightblue" stroke="midnightblue" points="126.39,-29.77 129.09,-19.53 120.59,-25.85 126.39,-29.77"/>
</g>
<!-- Node4 -->
<g id="node4" class="node">
<title>Node4</title>
<g id="a_node4"><a xlink:href="JStudio_2JStudio__JParticle_2control_8h.html" target="_top" xlink:title=" ">
<polygon fill="white" stroke="black" points="118,-73 118,-103 245,-103 245,-73 118,-73"/>
<text text-anchor="start" x="126" y="-91" font-family="Helvetica,sans-Serif" font-size="10.00">JSystem/JStudio/JStudio</text>
<text text-anchor="middle" x="181.5" y="-80" font-family="Helvetica,sans-Serif" font-size="10.00">_JParticle/control.h</text>
</a>
</g>
</g>
<!-- Node1&#45;&gt;Node4 -->
<g id="edge3" class="edge">
<title>Node1&#45;&gt;Node4</title>
<path fill="none" stroke="midnightblue" d="M385.57,-156.47C347.16,-147.42 297.55,-134.62 254.5,-120 243.62,-116.3 232.08,-111.72 221.46,-107.23"/>
<polygon fill="midnightblue" stroke="midnightblue" points="222.58,-103.9 212.01,-103.15 219.8,-110.33 222.58,-103.9"/>
</g>
<!-- Node5 -->
<g id="node5" class="node">
<title>Node5</title>
<g id="a_node5"><a xlink:title=" ">
<polygon fill="white" stroke="#bfbfbf" points="263.5,-62 263.5,-114 457.5,-114 457.5,-62 263.5,-62"/>
<text text-anchor="start" x="271.5" y="-102" font-family="Helvetica,sans-Serif" font-size="10.00">asm/JSystem/JStudio</text>
<text text-anchor="start" x="271.5" y="-91" font-family="Helvetica,sans-Serif" font-size="10.00">/JStudio_JParticle/control</text>
<text text-anchor="start" x="271.5" y="-80" font-family="Helvetica,sans-Serif" font-size="10.00">/__dt__Q217JStudio_JParticle13TCreate</text>
<text text-anchor="middle" x="360.5" y="-69" font-family="Helvetica,sans-Serif" font-size="10.00">ObjectFv.s</text>
</a>
</g>
</g>
<!-- Node1&#45;&gt;Node5 -->
<g id="edge5" class="edge">
<title>Node1&#45;&gt;Node5</title>
<path fill="none" stroke="midnightblue" d="M434,-156.3C423.42,-146.62 408.98,-133.39 395.69,-121.23"/>
<polygon fill="midnightblue" stroke="midnightblue" points="397.78,-118.39 388.04,-114.22 393.05,-123.56 397.78,-118.39"/>
</g>
<!-- Node6 -->
<g id="node6" class="node">
<title>Node6</title>
<g id="a_node6"><a xlink:title=" ">
<polygon fill="white" stroke="#bfbfbf" points="475.5,-67.5 475.5,-108.5 603.5,-108.5 603.5,-67.5 475.5,-67.5"/>
<text text-anchor="start" x="483.5" y="-96.5" font-family="Helvetica,sans-Serif" font-size="10.00">asm/JSystem/JStudio</text>
<text text-anchor="start" x="483.5" y="-85.5" font-family="Helvetica,sans-Serif" font-size="10.00">/JStudio_JParticle/control</text>
<text text-anchor="middle" x="539.5" y="-74.5" font-family="Helvetica,sans-Serif" font-size="10.00">/func_8028E400.s</text>
</a>
</g>
</g>
<!-- Node1&#45;&gt;Node6 -->
<g id="edge6" class="edge">
<title>Node1&#45;&gt;Node6</title>
<path fill="none" stroke="midnightblue" d="M465.18,-156.3C477.61,-145.04 495.34,-128.99 510.37,-115.38"/>
<polygon fill="midnightblue" stroke="midnightblue" points="512.87,-117.83 517.94,-108.53 508.17,-112.65 512.87,-117.83"/>
</g>
<!-- Node7 -->
<g id="node7" class="node">
<title>Node7</title>
<g id="a_node7"><a xlink:title=" ">
<polygon fill="white" stroke="#bfbfbf" points="622,-62 622,-114 779,-114 779,-62 622,-62"/>
<text text-anchor="start" x="630" y="-102" font-family="Helvetica,sans-Serif" font-size="10.00">asm/JSystem/JStudio</text>
<text text-anchor="start" x="630" y="-91" font-family="Helvetica,sans-Serif" font-size="10.00">/JStudio_JParticle/control</text>
<text text-anchor="start" x="630" y="-80" font-family="Helvetica,sans-Serif" font-size="10.00">/emitter_create__Q217JStudio</text>
<text text-anchor="middle" x="700.5" y="-69" font-family="Helvetica,sans-Serif" font-size="10.00">_JParticle13TCreateObjectFUl.s</text>
</a>
</g>
</g>
<!-- Node1&#45;&gt;Node7 -->
<g id="edge7" class="edge">
<title>Node1&#45;&gt;Node7</title>
<path fill="none" stroke="midnightblue" d="M496.38,-156.5C529.03,-146.61 573.55,-132.89 612.5,-120 615.08,-119.15 617.7,-118.27 620.34,-117.38"/>
<polygon fill="midnightblue" stroke="midnightblue" points="621.63,-120.64 629.98,-114.11 619.38,-114.01 621.63,-120.64"/>
</g>
<!-- Node8 -->
<g id="node8" class="node">
<title>Node8</title>
<g id="a_node8"><a xlink:title=" ">
<polygon fill="white" stroke="#bfbfbf" points="797.5,-56.5 797.5,-119.5 995.5,-119.5 995.5,-56.5 797.5,-56.5"/>
<text text-anchor="start" x="805.5" y="-107.5" font-family="Helvetica,sans-Serif" font-size="10.00">asm/JSystem/JStudio</text>
<text text-anchor="start" x="805.5" y="-96.5" font-family="Helvetica,sans-Serif" font-size="10.00">/JStudio_JParticle/control</text>
<text text-anchor="start" x="805.5" y="-85.5" font-family="Helvetica,sans-Serif" font-size="10.00">/emitter_destroy__Q217JStudio</text>
<text text-anchor="start" x="805.5" y="-74.5" font-family="Helvetica,sans-Serif" font-size="10.00">_JParticle13TCreateObjectFP14JPABase</text>
<text text-anchor="middle" x="896.5" y="-63.5" font-family="Helvetica,sans-Serif" font-size="10.00">Emitter.s</text>
</a>
</g>
</g>
<!-- Node1&#45;&gt;Node8 -->
<g id="edge8" class="edge">
<title>Node1&#45;&gt;Node8</title>
<path fill="none" stroke="midnightblue" d="M522.74,-162.41C589.45,-154.41 690.79,-140.64 787.52,-120.11"/>
<polygon fill="midnightblue" stroke="midnightblue" points="788.42,-123.5 797.46,-117.98 786.95,-116.66 788.42,-123.5"/>
</g>
<!-- Node9 -->
<g id="node9" class="node">
<title>Node9</title>
<g id="a_node9"><a xlink:title=" ">
<polygon fill="white" stroke="#bfbfbf" points="1013.5,-67.5 1013.5,-108.5 1141.5,-108.5 1141.5,-67.5 1013.5,-67.5"/>
<text text-anchor="start" x="1021.5" y="-96.5" font-family="Helvetica,sans-Serif" font-size="10.00">asm/JSystem/JStudio</text>
<text text-anchor="start" x="1021.5" y="-85.5" font-family="Helvetica,sans-Serif" font-size="10.00">/JStudio_JParticle/control</text>
<text text-anchor="middle" x="1077.5" y="-74.5" font-family="Helvetica,sans-Serif" font-size="10.00">/func_8028E508.s</text>
</a>
</g>
</g>
<!-- Node1&#45;&gt;Node9 -->
<g id="edge9" class="edge">
<title>Node1&#45;&gt;Node9</title>
<path fill="none" stroke="midnightblue" d="M522.54,-171.01C629.83,-170.16 835.6,-162.44 1004.5,-120 1012.38,-118.02 1020.51,-115.31 1028.35,-112.3"/>
<polygon fill="midnightblue" stroke="midnightblue" points="1029.76,-115.5 1037.73,-108.52 1027.15,-109.01 1029.76,-115.5"/>
</g>
<!-- Node4&#45;&gt;Node3 -->
<g id="edge4" class="edge">
<title>Node4&#45;&gt;Node3</title>
<path fill="none" stroke="midnightblue" d="M172.85,-72.7C165.22,-60.11 154.1,-41.73 145.98,-28.31"/>
<polygon fill="midnightblue" stroke="midnightblue" points="148.86,-26.31 140.68,-19.56 142.87,-29.93 148.86,-26.31"/>
</g>
</g>
</svg>
        <g id="navigator" transform="translate(0 0)" fill="#404254">
                <rect fill="#f2f5e9" fill-opacity="0.5" stroke="#606060" stroke-width=".5" x="0" y="0" width="60" height="60"/>
                <use id="zoomplus" xlink:href="#zoomPlus" x="17" y="9" onmousedown="handleZoom(evt,'in')"/>
                <use id="zoomminus" xlink:href="#zoomMin" x="42" y="9" onmousedown="handleZoom(evt,'out')"/>
                <use id="reset" xlink:href="#resetDef" x="30" y="36" onmousedown="handleReset()"/>
                <g id="arrowUp" xlink:href="#dirArrow" transform="translate(30 24)" onmousedown="handlePan(0,-1)">
                  <use xlink:href="#rim" fill="#404040">
                        <set attributeName="fill" to="#808080" begin="arrowUp.mouseover" end="arrowUp.mouseout"/>
                  </use>
                  <path fill="none" stroke="white" stroke-width="1.5" d="M0,-3.0v7 M-2.5,-0.5L0,-3.0L2.5,-0.5"/>
                </g>
                <g id="arrowRight" xlink:href="#dirArrow" transform="rotate(90) translate(36 -43)" onmousedown="handlePan(1,0)">
                  <use xlink:href="#rim" fill="#404040">
                        <set attributeName="fill" to="#808080" begin="arrowRight.mouseover" end="arrowRight.mouseout"/>
                  </use>
                  <path fill="none" stroke="white" stroke-width="1.5" d="M0,-3.0v7 M-2.5,-0.5L0,-3.0L2.5,-0.5"/>
                </g>
                <g id="arrowDown" xlink:href="#dirArrow" transform="rotate(180) translate(-30 -48)" onmousedown="handlePan(0,1)">
                  <use xlink:href="#rim" fill="#404040">
                        <set attributeName="fill" to="#808080" begin="arrowDown.mouseover" end="arrowDown.mouseout"/>
                  </use>
                  <path fill="none" stroke="white" stroke-width="1.5" d="M0,-3.0v7 M-2.5,-0.5L0,-3.0L2.5,-0.5"/>
                </g>
                <g id="arrowLeft" xlink:href="#dirArrow" transform="rotate(270) translate(-36 17)" onmousedown="handlePan(-1,0)">
                  <use xlink:href="#rim" fill="#404040">
                        <set attributeName="fill" to="#808080" begin="arrowLeft.mouseover" end="arrowLeft.mouseout"/>
                  </use>
                  <path fill="none" stroke="white" stroke-width="1.5" d="M0,-3.0v7 M-2.5,-0.5L0,-3.0L2.5,-0.5"/>
                </g>
        </g>
        <svg viewBox="0 0 15 15" width="100%" height="30px" preserveAspectRatio="xMaxYMin meet">
         <g id="arrow_out" transform="scale(0.3 0.3)">
          <a xlink:href="JStudio_2JStudio__JParticle_2control_8cpp__incl_org.svg" target="_base">
           <rect id="button" ry="5" rx="5" y="6" x="6" height="38" width="38"
                fill="#f2f5e9" fill-opacity="0.5" stroke="#606060" stroke-width="1.0"/>
           <path id="arrow"
             d="M 11.500037,31.436501 C 11.940474,20.09759 22.043105,11.32322 32.158766,21.979434 L 37.068811,17.246167 C 37.068811,17.246167 37.088388,32 37.088388,32 L 22.160133,31.978069 C 22.160133,31.978069 26.997745,27.140456 26.997745,27.140456 C 18.528582,18.264221 13.291696,25.230495 11.500037,31.436501 z"
             style="fill:#404040;"/>
          </a>
         </g>
        </svg>
</svg>
