<?xml version="1.0" encoding="UTF-8" standalone="no"?>
<!DOCTYPE svg PUBLIC "-//W3C//DTD SVG 1.1//EN"
 "http://www.w3.org/Graphics/SVG/1.1/DTD/svg11.dtd">
<!-- Generated by graphviz version 2.47.0 (20210316.2052)
 -->
<!-- Title: libs/JSystem/JSupport/JSUFileStream.cpp Pages: 1 -->
<svg width="1187pt" height="184pt"
 viewBox="0.00 0.00 1186.50 184.00" xmlns="http://www.w3.org/2000/svg" xmlns:xlink="http://www.w3.org/1999/xlink">
<g id="graph0" class="graph" transform="scale(1 1) rotate(0) translate(4 180)">
<title>libs/JSystem/JSupport/JSUFileStream.cpp</title>
<polygon fill="white" stroke="transparent" points="-4,4 -4,-180 1182.5,-180 1182.5,4 -4,4"/>
<!-- Node1 -->
<g id="node1" class="node">
<title>Node1</title>
<g id="a_node1"><a xlink:title=" ">
<polygon fill="#bfbfbf" stroke="black" points="397,-145.5 397,-175.5 512,-175.5 512,-145.5 397,-145.5"/>
<text text-anchor="start" x="405" y="-163.5" font-family="Helvetica,sans-Serif" font-size="10.00">libs/JSystem/JSupport</text>
<text text-anchor="middle" x="454.5" y="-152.5" font-family="Helvetica,sans-Serif" font-size="10.00">/JSUFileStream.cpp</text>
</a>
</g>
</g>
<!-- Node2 -->
<g id="node2" class="node">
<title>Node2</title>
<g id="a_node2"><a xlink:href="JSUFileStream_8h.html" target="_top" xlink:title=" ">
<polygon fill="white" stroke="black" points="0,-67.5 0,-97.5 135,-97.5 135,-67.5 0,-67.5"/>
<text text-anchor="start" x="8" y="-85.5" font-family="Helvetica,sans-Serif" font-size="10.00">JSystem/JSupport/JSUFile</text>
<text text-anchor="middle" x="67.5" y="-74.5" font-family="Helvetica,sans-Serif" font-size="10.00">Stream.h</text>
</a>
</g>
</g>
<!-- Node1&#45;&gt;Node2 -->
<g id="edge1" class="edge">
<title>Node1&#45;&gt;Node2</title>
<path fill="none" stroke="midnightblue" d="M396.98,-152.38C335.31,-144.18 234.76,-129.21 149.5,-109 139.39,-106.6 128.7,-103.62 118.5,-100.55"/>
<polygon fill="midnightblue" stroke="midnightblue" points="119.5,-97.19 108.91,-97.59 117.44,-103.88 119.5,-97.19"/>
</g>
<!-- Node3 -->
<g id="node3" class="node">
<title>Node3</title>
<g id="a_node3"><a xlink:href="types_8h.html" target="_top" xlink:title=" ">
<polygon fill="white" stroke="black" points="75,-0.5 75,-19.5 156,-19.5 156,-0.5 75,-0.5"/>
<text text-anchor="middle" x="115.5" y="-7.5" font-family="Helvetica,sans-Serif" font-size="10.00">dolphin/types.h</text>
</a>
</g>
</g>
<!-- Node1&#45;&gt;Node3 -->
<g id="edge4" class="edge">
<title>Node1&#45;&gt;Node3</title>
<path fill="none" stroke="midnightblue" d="M396.98,-153.94C328.19,-146.42 218.01,-131.32 183.5,-109 179.46,-106.38 145.37,-55.8 127.05,-28.36"/>
<polygon fill="midnightblue" stroke="midnightblue" points="129.76,-26.12 121.3,-19.74 123.93,-30 129.76,-26.12"/>
</g>
<!-- Node4 -->
<g id="node4" class="node">
<title>Node4</title>
<g id="a_node4"><a xlink:href="dol2asm_8h.html" target="_top" xlink:title=" ">
<polygon fill="white" stroke="black" points="192,-73 192,-92 253,-92 253,-73 192,-73"/>
<text text-anchor="middle" x="222.5" y="-80" font-family="Helvetica,sans-Serif" font-size="10.00">dol2asm.h</text>
</a>
</g>
</g>
<!-- Node1&#45;&gt;Node4 -->
<g id="edge3" class="edge">
<title>Node1&#45;&gt;Node4</title>
<path fill="none" stroke="midnightblue" d="M396.65,-149.18C357.71,-141.06 305.76,-127.92 262.5,-109 255.61,-105.98 248.54,-101.87 242.3,-97.83"/>
<polygon fill="midnightblue" stroke="midnightblue" points="244.1,-94.83 233.86,-92.1 240.16,-100.61 244.1,-94.83"/>
</g>
<!-- Node5 -->
<g id="node5" class="node">
<title>Node5</title>
<g id="a_node5"><a xlink:title=" ">
<polygon fill="white" stroke="#bfbfbf" points="271,-62 271,-103 452,-103 452,-62 271,-62"/>
<text text-anchor="start" x="279" y="-91" font-family="Helvetica,sans-Serif" font-size="10.00">asm/JSystem/JSupport</text>
<text text-anchor="start" x="279" y="-80" font-family="Helvetica,sans-Serif" font-size="10.00">/JSUFileStream/__ct_</text>
<text text-anchor="middle" x="361.5" y="-69" font-family="Helvetica,sans-Serif" font-size="10.00">_18JSUFileInputStreamFP7JKRFile.s</text>
</a>
</g>
</g>
<!-- Node1&#45;&gt;Node5 -->
<g id="edge5" class="edge">
<title>Node1&#45;&gt;Node5</title>
<path fill="none" stroke="midnightblue" d="M437.01,-145.2C424.75,-135.19 408.03,-121.52 393.43,-109.59"/>
<polygon fill="midnightblue" stroke="midnightblue" points="395.54,-106.8 385.58,-103.18 391.11,-112.22 395.54,-106.8"/>
</g>
<!-- Node6 -->
<g id="node6" class="node">
<title>Node6</title>
<g id="a_node6"><a xlink:title=" ">
<polygon fill="white" stroke="#bfbfbf" points="470.5,-62 470.5,-103 624.5,-103 624.5,-62 470.5,-62"/>
<text text-anchor="start" x="478.5" y="-91" font-family="Helvetica,sans-Serif" font-size="10.00">asm/JSystem/JSupport</text>
<text text-anchor="start" x="478.5" y="-80" font-family="Helvetica,sans-Serif" font-size="10.00">/JSUFileStream/readData</text>
<text text-anchor="middle" x="547.5" y="-69" font-family="Helvetica,sans-Serif" font-size="10.00">__18JSUFileInputStreamFPvl.s</text>
</a>
</g>
</g>
<!-- Node1&#45;&gt;Node6 -->
<g id="edge6" class="edge">
<title>Node1&#45;&gt;Node6</title>
<path fill="none" stroke="midnightblue" d="M471.99,-145.2C484.25,-135.19 500.97,-121.52 515.57,-109.59"/>
<polygon fill="midnightblue" stroke="midnightblue" points="517.89,-112.22 523.42,-103.18 513.46,-106.8 517.89,-112.22"/>
</g>
<!-- Node7 -->
<g id="node7" class="node">
<title>Node7</title>
<g id="a_node7"><a xlink:title=" ">
<polygon fill="white" stroke="#bfbfbf" points="642.5,-56.5 642.5,-108.5 838.5,-108.5 838.5,-56.5 642.5,-56.5"/>
<text text-anchor="start" x="650.5" y="-96.5" font-family="Helvetica,sans-Serif" font-size="10.00">asm/JSystem/JSupport</text>
<text text-anchor="start" x="650.5" y="-85.5" font-family="Helvetica,sans-Serif" font-size="10.00">/JSUFileStream/seekPos</text>
<text text-anchor="start" x="650.5" y="-74.5" font-family="Helvetica,sans-Serif" font-size="10.00">__18JSUFileInputStreamFl17JSUStream</text>
<text text-anchor="middle" x="740.5" y="-63.5" font-family="Helvetica,sans-Serif" font-size="10.00">SeekFrom.s</text>
</a>
</g>
</g>
<!-- Node1&#45;&gt;Node7 -->
<g id="edge7" class="edge">
<title>Node1&#45;&gt;Node7</title>
<path fill="none" stroke="midnightblue" d="M507.29,-145.47C543.45,-135.86 592.63,-122.8 636.5,-111.14"/>
<polygon fill="midnightblue" stroke="midnightblue" points="637.59,-114.47 646.35,-108.52 635.79,-107.7 637.59,-114.47"/>
</g>
<!-- Node8 -->
<g id="node8" class="node">
<title>Node8</title>
<g id="a_node8"><a xlink:title=" ">
<polygon fill="white" stroke="#bfbfbf" points="856.5,-62 856.5,-103 1008.5,-103 1008.5,-62 856.5,-62"/>
<text text-anchor="start" x="864.5" y="-91" font-family="Helvetica,sans-Serif" font-size="10.00">asm/JSystem/JSupport</text>
<text text-anchor="start" x="864.5" y="-80" font-family="Helvetica,sans-Serif" font-size="10.00">/JSUFileStream/getLength</text>
<text text-anchor="middle" x="932.5" y="-69" font-family="Helvetica,sans-Serif" font-size="10.00">__18JSUFileInputStreamCFv.s</text>
</a>
</g>
</g>
<!-- Node1&#45;&gt;Node8 -->
<g id="edge8" class="edge">
<title>Node1&#45;&gt;Node8</title>
<path fill="none" stroke="midnightblue" d="M512.27,-155.06C589.34,-148.45 729.75,-134.05 847.5,-109 852.15,-108.01 856.92,-106.89 861.71,-105.68"/>
<polygon fill="midnightblue" stroke="midnightblue" points="862.75,-109.03 871.52,-103.1 860.96,-102.26 862.75,-109.03"/>
</g>
<!-- Node9 -->
<g id="node9" class="node">
<title>Node9</title>
<g id="a_node9"><a xlink:title=" ">
<polygon fill="white" stroke="#bfbfbf" points="1026.5,-62 1026.5,-103 1178.5,-103 1178.5,-62 1026.5,-62"/>
<text text-anchor="start" x="1034.5" y="-91" font-family="Helvetica,sans-Serif" font-size="10.00">asm/JSystem/JSupport</text>
<text text-anchor="start" x="1034.5" y="-80" font-family="Helvetica,sans-Serif" font-size="10.00">/JSUFileStream/getPosition</text>
<text text-anchor="middle" x="1102.5" y="-69" font-family="Helvetica,sans-Serif" font-size="10.00">__18JSUFileInputStreamCFv.s</text>
</a>
</g>
</g>
<!-- Node1&#45;&gt;Node9 -->
<g id="edge9" class="edge">
<title>Node1&#45;&gt;Node9</title>
<path fill="none" stroke="midnightblue" d="M512.17,-158.16C614.72,-154.93 835.14,-144.16 1017.5,-109 1022.57,-108.02 1027.77,-106.86 1032.98,-105.59"/>
<polygon fill="midnightblue" stroke="midnightblue" points="1034.16,-108.9 1042.97,-103.01 1032.41,-102.12 1034.16,-108.9"/>
</g>
<!-- Node2&#45;&gt;Node3 -->
<g id="edge2" class="edge">
<title>Node2&#45;&gt;Node3</title>
<path fill="none" stroke="midnightblue" d="M77.21,-67.23C84.9,-55.95 95.65,-40.15 103.81,-28.17"/>
<polygon fill="midnightblue" stroke="midnightblue" points="106.71,-30.13 109.45,-19.89 100.92,-26.19 106.71,-30.13"/>
</g>
</g>
</svg>
