<?xml version="1.0" encoding="UTF-8" standalone="no"?>
<!DOCTYPE svg PUBLIC "-//W3C//DTD SVG 1.1//EN"
 "http://www.w3.org/Graphics/SVG/1.1/DTD/svg11.dtd">
<!-- Generated by graphviz version 2.47.0 (20210316.2052)
 -->
<!-- Title: libs/JSystem/JUtility/JUTConsole.cpp Pages: 1 -->
<svg width="6233pt" height="173pt"
 viewBox="0.00 0.00 6233.00 173.00" xmlns="http://www.w3.org/2000/svg" xmlns:xlink="http://www.w3.org/1999/xlink">
<g id="graph0" class="graph" transform="scale(1 1) rotate(0) translate(4 169)">
<title>libs/JSystem/JUtility/JUTConsole.cpp</title>
<polygon fill="white" stroke="transparent" points="-4,4 -4,-169 6229,-169 6229,4 -4,4"/>
<!-- Node1 -->
<g id="node1" class="node">
<title>Node1</title>
<g id="a_node1"><a xlink:title=" ">
<polygon fill="#bfbfbf" stroke="black" points="2802.5,-134.5 2802.5,-164.5 2908.5,-164.5 2908.5,-134.5 2802.5,-134.5"/>
<text text-anchor="start" x="2810.5" y="-152.5" font-family="Helvetica,sans-Serif" font-size="10.00">libs/JSystem/JUtility</text>
<text text-anchor="middle" x="2855.5" y="-141.5" font-family="Helvetica,sans-Serif" font-size="10.00">/JUTConsole.cpp</text>
</a>
</g>
</g>
<!-- Node2 -->
<g id="node2" class="node">
<title>Node2</title>
<g id="a_node2"><a xlink:href="dol2asm_8h.html" target="_top" xlink:title=" ">
<polygon fill="white" stroke="black" points="0,-67.5 0,-86.5 61,-86.5 61,-67.5 0,-67.5"/>
<text text-anchor="middle" x="30.5" y="-74.5" font-family="Helvetica,sans-Serif" font-size="10.00">dol2asm.h</text>
</a>
</g>
</g>
<!-- Node1&#45;&gt;Node2 -->
<g id="edge1" class="edge">
<title>Node1&#45;&gt;Node2</title>
<path fill="none" stroke="midnightblue" d="M2802.3,-148.14C2429,-145.5 213.57,-128.61 75.5,-98 68.71,-96.49 61.69,-93.92 55.27,-91.12"/>
<polygon fill="midnightblue" stroke="midnightblue" points="56.34,-87.75 45.8,-86.64 53.34,-94.08 56.34,-87.75"/>
</g>
<!-- Node3 -->
<g id="node3" class="node">
<title>Node3</title>
<g id="a_node3"><a xlink:href="types_8h.html" target="_top" xlink:title=" ">
<polygon fill="white" stroke="black" points="101,-0.5 101,-19.5 182,-19.5 182,-0.5 101,-0.5"/>
<text text-anchor="middle" x="141.5" y="-7.5" font-family="Helvetica,sans-Serif" font-size="10.00">dolphin/types.h</text>
</a>
</g>
</g>
<!-- Node1&#45;&gt;Node3 -->
<g id="edge2" class="edge">
<title>Node1&#45;&gt;Node3</title>
<path fill="none" stroke="midnightblue" d="M2802.27,-148.55C2424.11,-148.75 157.5,-147.91 108.5,-98 89.28,-78.42 110.09,-46.52 126.28,-27.27"/>
<polygon fill="midnightblue" stroke="midnightblue" points="129.02,-29.45 133.01,-19.64 123.77,-24.82 129.02,-29.45"/>
</g>
<!-- Node4 -->
<g id="node4" class="node">
<title>Node4</title>
<g id="a_node4"><a xlink:href="JUTConsole_8h.html" target="_top" xlink:title=" ">
<polygon fill="white" stroke="black" points="117.5,-67.5 117.5,-86.5 269.5,-86.5 269.5,-67.5 117.5,-67.5"/>
<text text-anchor="middle" x="193.5" y="-74.5" font-family="Helvetica,sans-Serif" font-size="10.00">JSystem/JUtility/JUTConsole.h</text>
</a>
</g>
</g>
<!-- Node1&#45;&gt;Node4 -->
<g id="edge3" class="edge">
<title>Node1&#45;&gt;Node4</title>
<path fill="none" stroke="midnightblue" d="M2802.29,-148.12C2456.79,-145.6 537.85,-130.21 279.5,-98 264.32,-96.11 247.91,-92.65 233.53,-89.14"/>
<polygon fill="midnightblue" stroke="midnightblue" points="234.02,-85.65 223.47,-86.59 232.31,-92.44 234.02,-85.65"/>
</g>
<!-- Node5 -->
<g id="node5" class="node">
<title>Node5</title>
<g id="a_node5"><a xlink:title=" ">
<polygon fill="white" stroke="#bfbfbf" points="288,-56.5 288,-97.5 467,-97.5 467,-56.5 288,-56.5"/>
<text text-anchor="start" x="296" y="-85.5" font-family="Helvetica,sans-Serif" font-size="10.00">asm/JSystem/JUtility</text>
<text text-anchor="start" x="296" y="-74.5" font-family="Helvetica,sans-Serif" font-size="10.00">/JUTConsole/create__10JUTConsole</text>
<text text-anchor="middle" x="377.5" y="-63.5" font-family="Helvetica,sans-Serif" font-size="10.00">FUiUiP7JKRHeap.s</text>
</a>
</g>
</g>
<!-- Node1&#45;&gt;Node5 -->
<g id="edge5" class="edge">
<title>Node1&#45;&gt;Node5</title>
<path fill="none" stroke="midnightblue" d="M2802.48,-148.66C2498.17,-149.38 970.3,-150.33 477.27,-97.94"/>
<polygon fill="midnightblue" stroke="midnightblue" points="477.55,-94.45 467.23,-96.85 476.8,-101.41 477.55,-94.45"/>
</g>
<!-- Node6 -->
<g id="node6" class="node">
<title>Node6</title>
<g id="a_node6"><a xlink:title=" ">
<polygon fill="white" stroke="#bfbfbf" points="485,-56.5 485,-97.5 664,-97.5 664,-56.5 485,-56.5"/>
<text text-anchor="start" x="493" y="-85.5" font-family="Helvetica,sans-Serif" font-size="10.00">asm/JSystem/JUtility</text>
<text text-anchor="start" x="493" y="-74.5" font-family="Helvetica,sans-Serif" font-size="10.00">/JUTConsole/create__10JUTConsole</text>
<text text-anchor="middle" x="574.5" y="-63.5" font-family="Helvetica,sans-Serif" font-size="10.00">FUiPvUl.s</text>
</a>
</g>
</g>
<!-- Node1&#45;&gt;Node6 -->
<g id="edge6" class="edge">
<title>Node1&#45;&gt;Node6</title>
<path fill="none" stroke="midnightblue" d="M2802.19,-148.54C2512.67,-148.57 1125.9,-146.2 674.4,-97.96"/>
<polygon fill="midnightblue" stroke="midnightblue" points="674.56,-94.45 664.23,-96.85 673.79,-101.41 674.56,-94.45"/>
</g>
<!-- Node7 -->
<g id="node7" class="node">
<title>Node7</title>
<g id="a_node7"><a xlink:title=" ">
<polygon fill="white" stroke="#bfbfbf" points="682.5,-56.5 682.5,-97.5 852.5,-97.5 852.5,-56.5 682.5,-56.5"/>
<text text-anchor="start" x="690.5" y="-85.5" font-family="Helvetica,sans-Serif" font-size="10.00">asm/JSystem/JUtility</text>
<text text-anchor="start" x="690.5" y="-74.5" font-family="Helvetica,sans-Serif" font-size="10.00">/JUTConsole/__ct__10JUTConsole</text>
<text text-anchor="middle" x="767.5" y="-63.5" font-family="Helvetica,sans-Serif" font-size="10.00">FUiUib.s</text>
</a>
</g>
</g>
<!-- Node1&#45;&gt;Node7 -->
<g id="edge7" class="edge">
<title>Node1&#45;&gt;Node7</title>
<path fill="none" stroke="midnightblue" d="M2802.35,-148.46C2526.31,-148.07 1253.97,-143.78 862.5,-98 862.4,-97.99 862.3,-97.98 862.19,-97.96"/>
<polygon fill="midnightblue" stroke="midnightblue" points="862.94,-94.53 852.57,-96.69 862.03,-101.47 862.94,-94.53"/>
</g>
<!-- Node8 -->
<g id="node8" class="node">
<title>Node8</title>
<g id="a_node8"><a xlink:title=" ">
<polygon fill="white" stroke="#bfbfbf" points="871,-62 871,-92 1060,-92 1060,-62 871,-62"/>
<text text-anchor="start" x="879" y="-80" font-family="Helvetica,sans-Serif" font-size="10.00">asm/JSystem/JUtility</text>
<text text-anchor="middle" x="965.5" y="-69" font-family="Helvetica,sans-Serif" font-size="10.00">/JUTConsole/__dt__10JUTConsoleFv.s</text>
</a>
</g>
</g>
<!-- Node1&#45;&gt;Node8 -->
<g id="edge8" class="edge">
<title>Node1&#45;&gt;Node8</title>
<path fill="none" stroke="midnightblue" d="M2802.45,-148.16C2544.34,-146.32 1418.13,-136.2 1069.5,-98 1059.77,-96.93 1049.58,-95.45 1039.56,-93.76"/>
<polygon fill="midnightblue" stroke="midnightblue" points="1040.06,-90.29 1029.61,-92.01 1038.85,-97.19 1040.06,-90.29"/>
</g>
<!-- Node9 -->
<g id="node9" class="node">
<title>Node9</title>
<g id="a_node9"><a xlink:title=" ">
<polygon fill="white" stroke="#bfbfbf" points="1078,-56.5 1078,-97.5 1247,-97.5 1247,-56.5 1078,-56.5"/>
<text text-anchor="start" x="1086" y="-85.5" font-family="Helvetica,sans-Serif" font-size="10.00">asm/JSystem/JUtility</text>
<text text-anchor="start" x="1086" y="-74.5" font-family="Helvetica,sans-Serif" font-size="10.00">/JUTConsole/getObjectSizeFrom</text>
<text text-anchor="middle" x="1162.5" y="-63.5" font-family="Helvetica,sans-Serif" font-size="10.00">BufferSize__10JUTConsoleFUiUi.s</text>
</a>
</g>
</g>
<!-- Node1&#45;&gt;Node9 -->
<g id="edge9" class="edge">
<title>Node1&#45;&gt;Node9</title>
<path fill="none" stroke="midnightblue" d="M2802.48,-148.09C2563.74,-146.08 1586.16,-135.7 1257.2,-97.93"/>
<polygon fill="midnightblue" stroke="midnightblue" points="1257.53,-94.44 1247.19,-96.74 1256.71,-101.39 1257.53,-94.44"/>
</g>
<!-- Node10 -->
<g id="node10" class="node">
<title>Node10</title>
<g id="a_node10"><a xlink:title=" ">
<polygon fill="white" stroke="#bfbfbf" points="1265.5,-56.5 1265.5,-97.5 1425.5,-97.5 1425.5,-56.5 1265.5,-56.5"/>
<text text-anchor="start" x="1273.5" y="-85.5" font-family="Helvetica,sans-Serif" font-size="10.00">asm/JSystem/JUtility</text>
<text text-anchor="start" x="1273.5" y="-74.5" font-family="Helvetica,sans-Serif" font-size="10.00">/JUTConsole/getLineFromObject</text>
<text text-anchor="middle" x="1345.5" y="-63.5" font-family="Helvetica,sans-Serif" font-size="10.00">Size__10JUTConsoleFUlUi.s</text>
</a>
</g>
</g>
<!-- Node1&#45;&gt;Node10 -->
<g id="edge10" class="edge">
<title>Node1&#45;&gt;Node10</title>
<path fill="none" stroke="midnightblue" d="M2802.14,-147.91C2580.1,-145.26 1727.72,-133.04 1435.98,-97.88"/>
<polygon fill="midnightblue" stroke="midnightblue" points="1436.2,-94.38 1425.84,-96.62 1435.33,-101.33 1436.2,-94.38"/>
</g>
<!-- Node11 -->
<g id="node11" class="node">
<title>Node11</title>
<g id="a_node11"><a xlink:title=" ">
<polygon fill="white" stroke="#bfbfbf" points="1444,-62 1444,-92 1635,-92 1635,-62 1444,-62"/>
<text text-anchor="start" x="1452" y="-80" font-family="Helvetica,sans-Serif" font-size="10.00">asm/JSystem/JUtility</text>
<text text-anchor="middle" x="1539.5" y="-69" font-family="Helvetica,sans-Serif" font-size="10.00">/JUTConsole/clear__10JUTConsoleFv.s</text>
</a>
</g>
</g>
<!-- Node1&#45;&gt;Node11 -->
<g id="edge11" class="edge">
<title>Node1&#45;&gt;Node11</title>
<path fill="none" stroke="midnightblue" d="M2802.46,-149.05C2633.06,-150.23 2090.01,-149.44 1644.5,-98 1634.99,-96.9 1625.05,-95.43 1615.24,-93.79"/>
<polygon fill="midnightblue" stroke="midnightblue" points="1615.54,-90.29 1605.09,-92.02 1614.34,-97.19 1615.54,-90.29"/>
</g>
<!-- Node12 -->
<g id="node12" class="node">
<title>Node12</title>
<g id="a_node12"><a xlink:title=" ">
<polygon fill="white" stroke="#bfbfbf" points="1653,-56.5 1653,-97.5 1840,-97.5 1840,-56.5 1653,-56.5"/>
<text text-anchor="start" x="1661" y="-85.5" font-family="Helvetica,sans-Serif" font-size="10.00">asm/JSystem/JUtility</text>
<text text-anchor="start" x="1661" y="-74.5" font-family="Helvetica,sans-Serif" font-size="10.00">/JUTConsole/doDraw__10JUTConsole</text>
<text text-anchor="middle" x="1746.5" y="-63.5" font-family="Helvetica,sans-Serif" font-size="10.00">CFQ210JUTConsole12EConsoleType.s</text>
</a>
</g>
</g>
<!-- Node1&#45;&gt;Node12 -->
<g id="edge12" class="edge">
<title>Node1&#45;&gt;Node12</title>
<path fill="none" stroke="midnightblue" d="M2802.32,-148.51C2653.33,-147.98 2219.14,-142.52 1850.15,-98.11"/>
<polygon fill="midnightblue" stroke="midnightblue" points="1850.42,-94.62 1840.07,-96.89 1849.58,-101.57 1850.42,-94.62"/>
</g>
<!-- Node13 -->
<g id="node13" class="node">
<title>Node13</title>
<g id="a_node13"><a xlink:title=" ">
<polygon fill="white" stroke="#bfbfbf" points="1857.5,-56.5 1857.5,-97.5 1981.5,-97.5 1981.5,-56.5 1857.5,-56.5"/>
<text text-anchor="start" x="1865.5" y="-85.5" font-family="Helvetica,sans-Serif" font-size="10.00">asm/JSystem/JUtility</text>
<text text-anchor="start" x="1865.5" y="-74.5" font-family="Helvetica,sans-Serif" font-size="10.00">/JUTConsole/print_f_</text>
<text text-anchor="middle" x="1919.5" y="-63.5" font-family="Helvetica,sans-Serif" font-size="10.00">_10JUTConsoleFPCce.s</text>
</a>
</g>
</g>
<!-- Node1&#45;&gt;Node13 -->
<g id="edge13" class="edge">
<title>Node1&#45;&gt;Node13</title>
<path fill="none" stroke="midnightblue" d="M2802.43,-146.91C2642.68,-141.88 2167.1,-125.14 1991.78,-97.97"/>
<polygon fill="midnightblue" stroke="midnightblue" points="1992.1,-94.47 1981.67,-96.33 1990.98,-101.38 1992.1,-94.47"/>
</g>
<!-- Node14 -->
<g id="node14" class="node">
<title>Node14</title>
<g id="a_node14"><a xlink:title=" ">
<polygon fill="white" stroke="#bfbfbf" points="1999.5,-56.5 1999.5,-97.5 2169.5,-97.5 2169.5,-56.5 1999.5,-56.5"/>
<text text-anchor="start" x="2007.5" y="-85.5" font-family="Helvetica,sans-Serif" font-size="10.00">asm/JSystem/JUtility</text>
<text text-anchor="start" x="2007.5" y="-74.5" font-family="Helvetica,sans-Serif" font-size="10.00">/JUTConsole/print__10JUTConsole</text>
<text text-anchor="middle" x="2084.5" y="-63.5" font-family="Helvetica,sans-Serif" font-size="10.00">FPCc.s</text>
</a>
</g>
</g>
<!-- Node1&#45;&gt;Node14 -->
<g id="edge14" class="edge">
<title>Node1&#45;&gt;Node14</title>
<path fill="none" stroke="midnightblue" d="M2802.22,-146.93C2687.72,-143.02 2409.92,-130.71 2179.5,-98 2179.4,-97.99 2179.3,-97.97 2179.19,-97.96"/>
<polygon fill="midnightblue" stroke="midnightblue" points="2180.01,-94.54 2169.6,-96.49 2178.95,-101.46 2180.01,-94.54"/>
</g>
<!-- Node15 -->
<g id="node15" class="node">
<title>Node15</title>
<g id="a_node15"><a xlink:title=" ">
<polygon fill="white" stroke="#bfbfbf" points="2188,-56.5 2188,-97.5 2319,-97.5 2319,-56.5 2188,-56.5"/>
<text text-anchor="start" x="2196" y="-85.5" font-family="Helvetica,sans-Serif" font-size="10.00">asm/JSystem/JUtility</text>
<text text-anchor="start" x="2196" y="-74.5" font-family="Helvetica,sans-Serif" font-size="10.00">/JUTConsole/JUTConsole</text>
<text text-anchor="middle" x="2253.5" y="-63.5" font-family="Helvetica,sans-Serif" font-size="10.00">_print_f_va_.s</text>
</a>
</g>
</g>
<!-- Node1&#45;&gt;Node15 -->
<g id="edge15" class="edge">
<title>Node1&#45;&gt;Node15</title>
<path fill="none" stroke="midnightblue" d="M2802.37,-146.31C2708.64,-141.82 2507.78,-129.37 2329.31,-97.98"/>
<polygon fill="midnightblue" stroke="midnightblue" points="2329.67,-94.49 2319.21,-96.18 2328.44,-101.38 2329.67,-94.49"/>
</g>
<!-- Node16 -->
<g id="node16" class="node">
<title>Node16</title>
<g id="a_node16"><a xlink:title=" ">
<polygon fill="white" stroke="#bfbfbf" points="2337,-56.5 2337,-97.5 2486,-97.5 2486,-56.5 2337,-56.5"/>
<text text-anchor="start" x="2345" y="-85.5" font-family="Helvetica,sans-Serif" font-size="10.00">asm/JSystem/JUtility</text>
<text text-anchor="start" x="2345" y="-74.5" font-family="Helvetica,sans-Serif" font-size="10.00">/JUTConsole/dumpToTerminal</text>
<text text-anchor="middle" x="2411.5" y="-63.5" font-family="Helvetica,sans-Serif" font-size="10.00">__10JUTConsoleFUi.s</text>
</a>
</g>
</g>
<!-- Node1&#45;&gt;Node16 -->
<g id="edge16" class="edge">
<title>Node1&#45;&gt;Node16</title>
<path fill="none" stroke="midnightblue" d="M2802.48,-142.65C2734.04,-134.75 2611.09,-119.36 2496.11,-98.02"/>
<polygon fill="midnightblue" stroke="midnightblue" points="2496.55,-94.54 2486.08,-96.14 2495.26,-101.43 2496.55,-94.54"/>
</g>
<!-- Node17 -->
<g id="node17" class="node">
<title>Node17</title>
<g id="a_node17"><a xlink:title=" ">
<polygon fill="white" stroke="#bfbfbf" points="2504,-62 2504,-92 2695,-92 2695,-62 2504,-62"/>
<text text-anchor="start" x="2512" y="-80" font-family="Helvetica,sans-Serif" font-size="10.00">asm/JSystem/JUtility</text>
<text text-anchor="middle" x="2599.5" y="-69" font-family="Helvetica,sans-Serif" font-size="10.00">/JUTConsole/scroll__10JUTConsoleFi.s</text>
</a>
</g>
</g>
<!-- Node1&#45;&gt;Node17 -->
<g id="edge17" class="edge">
<title>Node1&#45;&gt;Node17</title>
<path fill="none" stroke="midnightblue" d="M2804.62,-134.49C2763.13,-123.06 2704.42,-106.9 2660.44,-94.78"/>
<polygon fill="midnightblue" stroke="midnightblue" points="2661.3,-91.39 2650.72,-92.11 2659.44,-98.14 2661.3,-91.39"/>
</g>
<!-- Node18 -->
<g id="node18" class="node">
<title>Node18</title>
<g id="a_node18"><a xlink:title=" ">
<polygon fill="white" stroke="#bfbfbf" points="2713.5,-56.5 2713.5,-97.5 2845.5,-97.5 2845.5,-56.5 2713.5,-56.5"/>
<text text-anchor="start" x="2721.5" y="-85.5" font-family="Helvetica,sans-Serif" font-size="10.00">asm/JSystem/JUtility</text>
<text text-anchor="start" x="2721.5" y="-74.5" font-family="Helvetica,sans-Serif" font-size="10.00">/JUTConsole/getUsedLine</text>
<text text-anchor="middle" x="2779.5" y="-63.5" font-family="Helvetica,sans-Serif" font-size="10.00">__10JUTConsoleCFv.s</text>
</a>
</g>
</g>
<!-- Node1&#45;&gt;Node18 -->
<g id="edge18" class="edge">
<title>Node1&#45;&gt;Node18</title>
<path fill="none" stroke="midnightblue" d="M2840.12,-134.23C2830.98,-125.75 2819.08,-114.72 2808.26,-104.68"/>
<polygon fill="midnightblue" stroke="midnightblue" points="2810.33,-101.82 2800.62,-97.59 2805.57,-106.96 2810.33,-101.82"/>
</g>
<!-- Node19 -->
<g id="node19" class="node">
<title>Node19</title>
<g id="a_node19"><a xlink:title=" ">
<polygon fill="white" stroke="#bfbfbf" points="2864,-56.5 2864,-97.5 2999,-97.5 2999,-56.5 2864,-56.5"/>
<text text-anchor="start" x="2872" y="-85.5" font-family="Helvetica,sans-Serif" font-size="10.00">asm/JSystem/JUtility</text>
<text text-anchor="start" x="2872" y="-74.5" font-family="Helvetica,sans-Serif" font-size="10.00">/JUTConsole/getLineOffset</text>
<text text-anchor="middle" x="2931.5" y="-63.5" font-family="Helvetica,sans-Serif" font-size="10.00">__10JUTConsoleCFv.s</text>
</a>
</g>
</g>
<!-- Node1&#45;&gt;Node19 -->
<g id="edge19" class="edge">
<title>Node1&#45;&gt;Node19</title>
<path fill="none" stroke="midnightblue" d="M2870.88,-134.23C2880.02,-125.75 2891.92,-114.72 2902.74,-104.68"/>
<polygon fill="midnightblue" stroke="midnightblue" points="2905.43,-106.96 2910.38,-97.59 2900.67,-101.82 2905.43,-106.96"/>
</g>
<!-- Node20 -->
<g id="node20" class="node">
<title>Node20</title>
<g id="a_node20"><a xlink:title=" ">
<polygon fill="white" stroke="#bfbfbf" points="3017.5,-56.5 3017.5,-97.5 3187.5,-97.5 3187.5,-56.5 3017.5,-56.5"/>
<text text-anchor="start" x="3025.5" y="-85.5" font-family="Helvetica,sans-Serif" font-size="10.00">asm/JSystem/JUtility</text>
<text text-anchor="start" x="3025.5" y="-74.5" font-family="Helvetica,sans-Serif" font-size="10.00">/JUTConsole/__ct__17JUTConsole</text>
<text text-anchor="middle" x="3102.5" y="-63.5" font-family="Helvetica,sans-Serif" font-size="10.00">ManagerFv.s</text>
</a>
</g>
</g>
<!-- Node1&#45;&gt;Node20 -->
<g id="edge20" class="edge">
<title>Node1&#45;&gt;Node20</title>
<path fill="none" stroke="midnightblue" d="M2904.59,-134.49C2938.71,-124.75 2984.89,-111.57 3024.06,-100.39"/>
<polygon fill="midnightblue" stroke="midnightblue" points="3025.2,-103.7 3033.86,-97.59 3023.28,-96.97 3025.2,-103.7"/>
</g>
<!-- Node21 -->
<g id="node21" class="node">
<title>Node21</title>
<g id="a_node21"><a xlink:title=" ">
<polygon fill="white" stroke="#bfbfbf" points="3206,-56.5 3206,-97.5 3403,-97.5 3403,-56.5 3206,-56.5"/>
<text text-anchor="start" x="3214" y="-85.5" font-family="Helvetica,sans-Serif" font-size="10.00">asm/JSystem/JUtility</text>
<text text-anchor="start" x="3214" y="-74.5" font-family="Helvetica,sans-Serif" font-size="10.00">/JUTConsole/createManager</text>
<text text-anchor="middle" x="3304.5" y="-63.5" font-family="Helvetica,sans-Serif" font-size="10.00">__17JUTConsoleManagerFP7JKRHeap.s</text>
</a>
</g>
</g>
<!-- Node1&#45;&gt;Node21 -->
<g id="edge21" class="edge">
<title>Node1&#45;&gt;Node21</title>
<path fill="none" stroke="midnightblue" d="M2908.75,-141.22C2973.9,-132.18 3087.8,-115.94 3195.84,-98.08"/>
<polygon fill="midnightblue" stroke="midnightblue" points="3196.65,-101.49 3205.94,-96.4 3195.5,-94.59 3196.65,-101.49"/>
</g>
<!-- Node22 -->
<g id="node22" class="node">
<title>Node22</title>
<g id="a_node22"><a xlink:title=" ">
<polygon fill="white" stroke="#bfbfbf" points="3421.5,-56.5 3421.5,-97.5 3635.5,-97.5 3635.5,-56.5 3421.5,-56.5"/>
<text text-anchor="start" x="3429.5" y="-85.5" font-family="Helvetica,sans-Serif" font-size="10.00">asm/JSystem/JUtility</text>
<text text-anchor="start" x="3429.5" y="-74.5" font-family="Helvetica,sans-Serif" font-size="10.00">/JUTConsole/appendConsole</text>
<text text-anchor="middle" x="3528.5" y="-63.5" font-family="Helvetica,sans-Serif" font-size="10.00">__17JUTConsoleManagerFP10JUTConsole.s</text>
</a>
</g>
</g>
<!-- Node1&#45;&gt;Node22 -->
<g id="edge22" class="edge">
<title>Node1&#45;&gt;Node22</title>
<path fill="none" stroke="midnightblue" d="M2908.65,-145.11C3006.22,-138.57 3220.65,-122.76 3411.49,-98.08"/>
<polygon fill="midnightblue" stroke="midnightblue" points="3411.95,-101.55 3421.42,-96.78 3411.05,-94.61 3411.95,-101.55"/>
</g>
<!-- Node23 -->
<g id="node23" class="node">
<title>Node23</title>
<g id="a_node23"><a xlink:title=" ">
<polygon fill="white" stroke="#bfbfbf" points="3653.5,-56.5 3653.5,-97.5 3867.5,-97.5 3867.5,-56.5 3653.5,-56.5"/>
<text text-anchor="start" x="3661.5" y="-85.5" font-family="Helvetica,sans-Serif" font-size="10.00">asm/JSystem/JUtility</text>
<text text-anchor="start" x="3661.5" y="-74.5" font-family="Helvetica,sans-Serif" font-size="10.00">/JUTConsole/removeConsole</text>
<text text-anchor="middle" x="3760.5" y="-63.5" font-family="Helvetica,sans-Serif" font-size="10.00">__17JUTConsoleManagerFP10JUTConsole.s</text>
</a>
</g>
</g>
<!-- Node1&#45;&gt;Node23 -->
<g id="edge23" class="edge">
<title>Node1&#45;&gt;Node23</title>
<path fill="none" stroke="midnightblue" d="M2908.78,-147.05C3034.77,-143.21 3361.04,-130.79 3643.41,-98.06"/>
<polygon fill="midnightblue" stroke="midnightblue" points="3643.91,-101.53 3653.43,-96.89 3643.09,-94.57 3643.91,-101.53"/>
</g>
<!-- Node24 -->
<g id="node24" class="node">
<title>Node24</title>
<g id="a_node24"><a xlink:title=" ">
<polygon fill="white" stroke="#bfbfbf" points="3886,-56.5 3886,-97.5 4059,-97.5 4059,-56.5 3886,-56.5"/>
<text text-anchor="start" x="3894" y="-85.5" font-family="Helvetica,sans-Serif" font-size="10.00">asm/JSystem/JUtility</text>
<text text-anchor="start" x="3894" y="-74.5" font-family="Helvetica,sans-Serif" font-size="10.00">/JUTConsole/draw__17JUTConsole</text>
<text text-anchor="middle" x="3972.5" y="-63.5" font-family="Helvetica,sans-Serif" font-size="10.00">ManagerCFv.s</text>
</a>
</g>
</g>
<!-- Node1&#45;&gt;Node24 -->
<g id="edge24" class="edge">
<title>Node1&#45;&gt;Node24</title>
<path fill="none" stroke="midnightblue" d="M2908.63,-148.78C3059.02,-148.97 3500.51,-145.23 3876.02,-97.94"/>
<polygon fill="midnightblue" stroke="midnightblue" points="3876.52,-101.4 3886,-96.67 3875.64,-94.46 3876.52,-101.4"/>
</g>
<!-- Node25 -->
<g id="node25" class="node">
<title>Node25</title>
<g id="a_node25"><a xlink:title=" ">
<polygon fill="white" stroke="#bfbfbf" points="4077,-56.5 4077,-97.5 4232,-97.5 4232,-56.5 4077,-56.5"/>
<text text-anchor="start" x="4085" y="-85.5" font-family="Helvetica,sans-Serif" font-size="10.00">asm/JSystem/JUtility</text>
<text text-anchor="start" x="4085" y="-74.5" font-family="Helvetica,sans-Serif" font-size="10.00">/JUTConsole/drawDirect</text>
<text text-anchor="middle" x="4154.5" y="-63.5" font-family="Helvetica,sans-Serif" font-size="10.00">__17JUTConsoleManagerCFb.s</text>
</a>
</g>
</g>
<!-- Node1&#45;&gt;Node25 -->
<g id="edge25" class="edge">
<title>Node1&#45;&gt;Node25</title>
<path fill="none" stroke="midnightblue" d="M2908.81,-147.61C3109.42,-144.04 3819.63,-129.53 4066.8,-98.07"/>
<polygon fill="midnightblue" stroke="midnightblue" points="4067.35,-101.53 4076.81,-96.75 4066.43,-94.59 4067.35,-101.53"/>
</g>
<!-- Node26 -->
<g id="node26" class="node">
<title>Node26</title>
<g id="a_node26"><a xlink:title=" ">
<polygon fill="white" stroke="#bfbfbf" points="4250.5,-56.5 4250.5,-97.5 4464.5,-97.5 4464.5,-56.5 4250.5,-56.5"/>
<text text-anchor="start" x="4258.5" y="-85.5" font-family="Helvetica,sans-Serif" font-size="10.00">asm/JSystem/JUtility</text>
<text text-anchor="start" x="4258.5" y="-74.5" font-family="Helvetica,sans-Serif" font-size="10.00">/JUTConsole/setDirectConsole</text>
<text text-anchor="middle" x="4357.5" y="-63.5" font-family="Helvetica,sans-Serif" font-size="10.00">__17JUTConsoleManagerFP10JUTConsole.s</text>
</a>
</g>
</g>
<!-- Node1&#45;&gt;Node26 -->
<g id="edge26" class="edge">
<title>Node1&#45;&gt;Node26</title>
<path fill="none" stroke="midnightblue" d="M2908.65,-147.52C3126.85,-143.35 3955.24,-126.05 4240.13,-98.04"/>
<polygon fill="midnightblue" stroke="midnightblue" points="4240.85,-101.49 4250.44,-97 4240.14,-94.52 4240.85,-101.49"/>
</g>
<!-- Node27 -->
<g id="node27" class="node">
<title>Node27</title>
<g id="a_node27"><a xlink:title=" ">
<polygon fill="white" stroke="#bfbfbf" points="4482.5,-62 4482.5,-92 4664.5,-92 4664.5,-62 4482.5,-62"/>
<text text-anchor="start" x="4490.5" y="-80" font-family="Helvetica,sans-Serif" font-size="10.00">asm/JSystem/JUtility</text>
<text text-anchor="middle" x="4573.5" y="-69" font-family="Helvetica,sans-Serif" font-size="10.00">/JUTConsole/JUTSetReportConsole.s</text>
</a>
</g>
</g>
<!-- Node1&#45;&gt;Node27 -->
<g id="edge27" class="edge">
<title>Node1&#45;&gt;Node27</title>
<path fill="none" stroke="midnightblue" d="M2908.73,-148.03C3152.05,-145.69 4160.09,-133.98 4473.5,-98 4482.61,-96.95 4492.12,-95.51 4501.5,-93.88"/>
<polygon fill="midnightblue" stroke="midnightblue" points="4502.4,-97.28 4511.61,-92.04 4501.14,-90.39 4502.4,-97.28"/>
</g>
<!-- Node28 -->
<g id="node28" class="node">
<title>Node28</title>
<g id="a_node28"><a xlink:title=" ">
<polygon fill="white" stroke="#bfbfbf" points="4682.5,-62 4682.5,-92 4864.5,-92 4864.5,-62 4682.5,-62"/>
<text text-anchor="start" x="4690.5" y="-80" font-family="Helvetica,sans-Serif" font-size="10.00">asm/JSystem/JUtility</text>
<text text-anchor="middle" x="4773.5" y="-69" font-family="Helvetica,sans-Serif" font-size="10.00">/JUTConsole/JUTGetReportConsole.s</text>
</a>
</g>
</g>
<!-- Node1&#45;&gt;Node28 -->
<g id="edge28" class="edge">
<title>Node1&#45;&gt;Node28</title>
<path fill="none" stroke="midnightblue" d="M2908.64,-148.24C3169.73,-146.78 4318.38,-138.15 4673.5,-98 4682.77,-96.95 4692.46,-95.49 4702.01,-93.82"/>
<polygon fill="midnightblue" stroke="midnightblue" points="4702.67,-97.26 4711.88,-92.03 4701.41,-90.37 4702.67,-97.26"/>
</g>
<!-- Node29 -->
<g id="node29" class="node">
<title>Node29</title>
<g id="a_node29"><a xlink:title=" ">
<polygon fill="white" stroke="#bfbfbf" points="4882.5,-62 4882.5,-92 5070.5,-92 5070.5,-62 4882.5,-62"/>
<text text-anchor="start" x="4890.5" y="-80" font-family="Helvetica,sans-Serif" font-size="10.00">asm/JSystem/JUtility</text>
<text text-anchor="middle" x="4976.5" y="-69" font-family="Helvetica,sans-Serif" font-size="10.00">/JUTConsole/JUTSetWarningConsole.s</text>
</a>
</g>
</g>
<!-- Node1&#45;&gt;Node29 -->
<g id="edge29" class="edge">
<title>Node1&#45;&gt;Node29</title>
<path fill="none" stroke="midnightblue" d="M2908.85,-148.37C3187.33,-147.51 4476.54,-141.2 4873.5,-98 4883.14,-96.95 4893.23,-95.47 4903.16,-93.79"/>
<polygon fill="midnightblue" stroke="midnightblue" points="4903.78,-97.23 4913.02,-92.05 4902.56,-90.34 4903.78,-97.23"/>
</g>
<!-- Node30 -->
<g id="node30" class="node">
<title>Node30</title>
<g id="a_node30"><a xlink:title=" ">
<polygon fill="white" stroke="#bfbfbf" points="5089,-62 5089,-92 5278,-92 5278,-62 5089,-62"/>
<text text-anchor="start" x="5097" y="-80" font-family="Helvetica,sans-Serif" font-size="10.00">asm/JSystem/JUtility</text>
<text text-anchor="middle" x="5183.5" y="-69" font-family="Helvetica,sans-Serif" font-size="10.00">/JUTConsole/JUTGetWarningConsole.s</text>
</a>
</g>
</g>
<!-- Node1&#45;&gt;Node30 -->
<g id="edge30" class="edge">
<title>Node1&#45;&gt;Node30</title>
<path fill="none" stroke="midnightblue" d="M2908.86,-148.5C3204,-148.32 4639.31,-144.99 5079.5,-98 5089.3,-96.95 5099.56,-95.47 5109.66,-93.77"/>
<polygon fill="midnightblue" stroke="midnightblue" points="5110.43,-97.19 5119.68,-92.02 5109.22,-90.3 5110.43,-97.19"/>
</g>
<!-- Node31 -->
<g id="node31" class="node">
<title>Node31</title>
<g id="a_node31"><a xlink:title=" ">
<polygon fill="white" stroke="#bfbfbf" points="5296,-56.5 5296,-97.5 5455,-97.5 5455,-56.5 5296,-56.5"/>
<text text-anchor="start" x="5304" y="-85.5" font-family="Helvetica,sans-Serif" font-size="10.00">asm/JSystem/JUtility</text>
<text text-anchor="start" x="5304" y="-74.5" font-family="Helvetica,sans-Serif" font-size="10.00">/JUTConsole/JUTReportConsole</text>
<text text-anchor="middle" x="5375.5" y="-63.5" font-family="Helvetica,sans-Serif" font-size="10.00">_f_va.s</text>
</a>
</g>
</g>
<!-- Node1&#45;&gt;Node31 -->
<g id="edge31" class="edge">
<title>Node1&#45;&gt;Node31</title>
<path fill="none" stroke="midnightblue" d="M2908.67,-148.04C3238.36,-145.13 4998.74,-128.29 5285.21,-98.07"/>
<polygon fill="midnightblue" stroke="midnightblue" points="5285.98,-101.51 5295.53,-96.9 5285.19,-94.55 5285.98,-101.51"/>
</g>
<!-- Node32 -->
<g id="node32" class="node">
<title>Node32</title>
<g id="a_node32"><a xlink:title=" ">
<polygon fill="white" stroke="#bfbfbf" points="5473,-62 5473,-92 5648,-92 5648,-62 5473,-62"/>
<text text-anchor="start" x="5481" y="-80" font-family="Helvetica,sans-Serif" font-size="10.00">asm/JSystem/JUtility</text>
<text text-anchor="middle" x="5560.5" y="-69" font-family="Helvetica,sans-Serif" font-size="10.00">/JUTConsole/JUTReportConsole_f.s</text>
</a>
</g>
</g>
<!-- Node1&#45;&gt;Node32 -->
<g id="edge32" class="edge">
<title>Node1&#45;&gt;Node32</title>
<path fill="none" stroke="midnightblue" d="M2908.54,-148.07C3256.13,-145.15 5202.27,-127.59 5464.5,-98 5473.44,-96.99 5482.79,-95.54 5491.99,-93.89"/>
<polygon fill="midnightblue" stroke="midnightblue" points="5492.71,-97.31 5501.89,-92.01 5491.41,-90.43 5492.71,-97.31"/>
</g>
<!-- Node33 -->
<g id="node33" class="node">
<title>Node33</title>
<g id="a_node33"><a xlink:title=" ">
<polygon fill="white" stroke="#bfbfbf" points="5666,-62 5666,-92 5833,-92 5833,-62 5666,-62"/>
<text text-anchor="start" x="5674" y="-80" font-family="Helvetica,sans-Serif" font-size="10.00">asm/JSystem/JUtility</text>
<text text-anchor="middle" x="5749.5" y="-69" font-family="Helvetica,sans-Serif" font-size="10.00">/JUTConsole/JUTReportConsole.s</text>
</a>
</g>
</g>
<!-- Node1&#45;&gt;Node33 -->
<g id="edge33" class="edge">
<title>Node1&#45;&gt;Node33</title>
<path fill="none" stroke="midnightblue" d="M2908.63,-148.17C3271.18,-145.83 5375.02,-130.93 5657.5,-98 5665.9,-97.02 5674.67,-95.62 5683.3,-94.01"/>
<polygon fill="midnightblue" stroke="midnightblue" points="5684.22,-97.4 5693.35,-92.03 5682.87,-90.53 5684.22,-97.4"/>
</g>
<!-- Node34 -->
<g id="node34" class="node">
<title>Node34</title>
<g id="a_node34"><a xlink:title=" ">
<polygon fill="white" stroke="#bfbfbf" points="5851.5,-62 5851.5,-92 6033.5,-92 6033.5,-62 5851.5,-62"/>
<text text-anchor="start" x="5859.5" y="-80" font-family="Helvetica,sans-Serif" font-size="10.00">asm/JSystem/JUtility</text>
<text text-anchor="middle" x="5942.5" y="-69" font-family="Helvetica,sans-Serif" font-size="10.00">/JUTConsole/JUTWarningConsole_f.s</text>
</a>
</g>
</g>
<!-- Node1&#45;&gt;Node34 -->
<g id="edge34" class="edge">
<title>Node1&#45;&gt;Node34</title>
<path fill="none" stroke="midnightblue" d="M2908.77,-148.18C3285.37,-145.84 5540.18,-130.52 5842.5,-98 5851.91,-96.99 5861.74,-95.53 5871.42,-93.85"/>
<polygon fill="midnightblue" stroke="midnightblue" points="5872.21,-97.26 5881.42,-92.03 5870.96,-90.38 5872.21,-97.26"/>
</g>
<!-- Node35 -->
<g id="node35" class="node">
<title>Node35</title>
<g id="a_node35"><a xlink:title=" ">
<polygon fill="white" stroke="#bfbfbf" points="6052,-62 6052,-92 6225,-92 6225,-62 6052,-62"/>
<text text-anchor="start" x="6060" y="-80" font-family="Helvetica,sans-Serif" font-size="10.00">asm/JSystem/JUtility</text>
<text text-anchor="middle" x="6138.5" y="-69" font-family="Helvetica,sans-Serif" font-size="10.00">/JUTConsole/JUTWarningConsole.s</text>
</a>
</g>
</g>
<!-- Node1&#45;&gt;Node35 -->
<g id="edge35" class="edge">
<title>Node1&#45;&gt;Node35</title>
<path fill="none" stroke="midnightblue" d="M2908.54,-148.27C3298.77,-146.47 5719.04,-133.93 6042.5,-98 6051.45,-97.01 6060.79,-95.57 6069.99,-93.92"/>
<polygon fill="midnightblue" stroke="midnightblue" points="6070.71,-97.34 6079.89,-92.05 6069.41,-90.46 6070.71,-97.34"/>
</g>
<!-- Node4&#45;&gt;Node3 -->
<g id="edge4" class="edge">
<title>Node4&#45;&gt;Node3</title>
<path fill="none" stroke="midnightblue" d="M186.49,-67.23C178.38,-57.1 164.85,-40.19 154.74,-27.56"/>
<polygon fill="midnightblue" stroke="midnightblue" points="157.38,-25.25 148.4,-19.63 151.92,-29.62 157.38,-25.25"/>
</g>
</g>
</svg>
