<?xml version="1.0" encoding="UTF-8" standalone="no"?>
<!DOCTYPE svg PUBLIC "-//W3C//DTD SVG 1.1//EN"
 "http://www.w3.org/Graphics/SVG/1.1/DTD/svg11.dtd">
<!-- Generated by graphviz version 2.47.0 (20210316.2052)
 -->
<!-- Title: libs/JSystem/JUtility/JUTException.cpp Pages: 1 -->
<!--zoomable 184 -->
<svg id="main" version="1.1" xmlns="http://www.w3.org/2000/svg" xmlns:xlink="http://www.w3.org/1999/xlink" xml:space="preserve" onload="init(evt)">
<style type="text/css"><![CDATA[
.edge:hover path { stroke: red; }
.edge:hover polygon { stroke: red; fill: red; }
]]></style>
<script type="text/javascript"><![CDATA[
var edges = document.getElementsByTagName('g');
if (edges && edges.length) {
  for (var i=0;i<edges.length;i++) {
    if (edges[i].id.substr(0,4)=='edge') {
      edges[i].setAttribute('class','edge');
    }
  }
}
]]></script>
        <defs>
                <circle id="rim" cx="0" cy="0" r="7"/>
                <circle id="rim2" cx="0" cy="0" r="3.5"/>
                <g id="zoomPlus">
                        <use xlink:href="#rim" fill="#404040">
                                <set attributeName="fill" to="#808080" begin="zoomplus.mouseover" end="zoomplus.mouseout"/>
                        </use>
                        <path d="M-4,0h8M0,-4v8" fill="none" stroke="white" stroke-width="1.5" pointer-events="none"/>
                </g>
                <g id="zoomMin">
                        <use xlink:href="#rim" fill="#404040">
                                <set attributeName="fill" to="#808080" begin="zoomminus.mouseover" end="zoomminus.mouseout"/>
                        </use>
                        <path d="M-4,0h8" fill="none" stroke="white" stroke-width="1.5" pointer-events="none"/>
                </g>
                <g id="dirArrow">
                        <path fill="none" stroke="white" stroke-width="1.5" d="M0,-3.0v7 M-2.5,-0.5L0,-3.0L2.5,-0.5"/>
                </g>
               <g id="resetDef">
                       <use xlink:href="#rim2" fill="#404040">
                               <set attributeName="fill" to="#808080" begin="reset.mouseover" end="reset.mouseout"/>
                       </use>
               </g>
        </defs>

<script type="text/javascript">
var viewWidth = 6620;
var viewHeight = 184;
var sectionId = 'dynsection-0';
</script>
<script xlink:href="svgpan.js"/>
<svg id="graph" class="graph">
<g id="viewport">
<title>libs/JSystem/JUtility/JUTException.cpp</title>
<polygon fill="white" stroke="transparent" points="-4,4 -4,-180 6615.5,-180 6615.5,4 -4,4"/>
<!-- Node1 -->
<g id="node1" class="node">
<title>Node1</title>
<g id="a_node1"><a xlink:title=" ">
<polygon fill="#bfbfbf" stroke="black" points="3129.5,-145.5 3129.5,-175.5 3235.5,-175.5 3235.5,-145.5 3129.5,-145.5"/>
<text text-anchor="start" x="3137.5" y="-163.5" font-family="Helvetica,sans-Serif" font-size="10.00">libs/JSystem/JUtility</text>
<text text-anchor="middle" x="3182.5" y="-152.5" font-family="Helvetica,sans-Serif" font-size="10.00">/JUTException.cpp</text>
</a>
</g>
</g>
<!-- Node2 -->
<g id="node2" class="node">
<title>Node2</title>
<g id="a_node2"><a xlink:href="JUTException_8h.html" target="_top" xlink:title=" ">
<polygon fill="white" stroke="black" points="0,-73 0,-92 159,-92 159,-73 0,-73"/>
<text text-anchor="middle" x="79.5" y="-80" font-family="Helvetica,sans-Serif" font-size="10.00">JSystem/JUtility/JUTException.h</text>
</a>
</g>
</g>
<!-- Node1&#45;&gt;Node2 -->
<g id="edge1" class="edge">
<title>Node1&#45;&gt;Node2</title>
<path fill="none" stroke="midnightblue" d="M3129.4,-159.41C2751.51,-158.67 475.97,-152.45 172.5,-109 152.69,-106.16 131.1,-100.42 113.72,-95.09"/>
<polygon fill="midnightblue" stroke="midnightblue" points="114.6,-91.7 104.01,-92.04 112.5,-98.38 114.6,-91.7"/>
</g>
<!-- Node3 -->
<g id="node3" class="node">
<title>Node3</title>
<g id="a_node3"><a xlink:href="types_8h.html" target="_top" xlink:title=" ">
<polygon fill="white" stroke="black" points="92,-0.5 92,-19.5 173,-19.5 173,-0.5 92,-0.5"/>
<text text-anchor="middle" x="132.5" y="-7.5" font-family="Helvetica,sans-Serif" font-size="10.00">dolphin/types.h</text>
</a>
</g>
</g>
<!-- Node1&#45;&gt;Node3 -->
<g id="edge4" class="edge">
<title>Node1&#45;&gt;Node3</title>
<path fill="none" stroke="midnightblue" d="M3129.29,-159.25C2734.48,-157.32 274.06,-143.89 206.5,-109 180.51,-95.58 185.15,-79.32 167.5,-56 160.32,-46.51 152.16,-36.01 145.53,-27.54"/>
<polygon fill="midnightblue" stroke="midnightblue" points="148.21,-25.28 139.28,-19.57 142.7,-29.6 148.21,-25.28"/>
</g>
<!-- Node4 -->
<g id="node4" class="node">
<title>Node4</title>
<g id="a_node4"><a xlink:href="dol2asm_8h.html" target="_top" xlink:title=" ">
<polygon fill="white" stroke="black" points="215,-73 215,-92 276,-92 276,-73 215,-73"/>
<text text-anchor="middle" x="245.5" y="-80" font-family="Helvetica,sans-Serif" font-size="10.00">dol2asm.h</text>
</a>
</g>
</g>
<!-- Node1&#45;&gt;Node4 -->
<g id="edge3" class="edge">
<title>Node1&#45;&gt;Node4</title>
<path fill="none" stroke="midnightblue" d="M3129.46,-159.4C2747.45,-158.54 426.91,-151.58 285.5,-109 277.98,-106.73 270.51,-102.62 264.09,-98.34"/>
<polygon fill="midnightblue" stroke="midnightblue" points="265.72,-95.2 255.57,-92.16 261.61,-100.86 265.72,-95.2"/>
</g>
<!-- Node5 -->
<g id="node5" class="node">
<title>Node5</title>
<g id="a_node5"><a xlink:title=" ">
<polygon fill="white" stroke="#bfbfbf" points="294.5,-62 294.5,-103 478.5,-103 478.5,-62 294.5,-62"/>
<text text-anchor="start" x="302.5" y="-91" font-family="Helvetica,sans-Serif" font-size="10.00">asm/JSystem/JUtility</text>
<text text-anchor="start" x="302.5" y="-80" font-family="Helvetica,sans-Serif" font-size="10.00">/JUTException/__ct__12JUTException</text>
<text text-anchor="middle" x="386.5" y="-69" font-family="Helvetica,sans-Serif" font-size="10.00">FP14JUTDirectPrint.s</text>
</a>
</g>
</g>
<!-- Node1&#45;&gt;Node5 -->
<g id="edge5" class="edge">
<title>Node1&#45;&gt;Node5</title>
<path fill="none" stroke="midnightblue" d="M3129.41,-159.23C2775.02,-157.37 758.12,-145.21 487.5,-109 480.15,-108.02 472.56,-106.69 464.99,-105.16"/>
<polygon fill="midnightblue" stroke="midnightblue" points="465.6,-101.71 455.09,-103.05 464.14,-108.56 465.6,-101.71"/>
</g>
<!-- Node6 -->
<g id="node6" class="node">
<title>Node6</title>
<g id="a_node6"><a xlink:title=" ">
<polygon fill="white" stroke="#bfbfbf" points="496.5,-56.5 496.5,-108.5 662.5,-108.5 662.5,-56.5 496.5,-56.5"/>
<text text-anchor="start" x="504.5" y="-96.5" font-family="Helvetica,sans-Serif" font-size="10.00">asm/JSystem/JUtility</text>
<text text-anchor="start" x="504.5" y="-85.5" font-family="Helvetica,sans-Serif" font-size="10.00">/JUTException/create</text>
<text text-anchor="start" x="504.5" y="-74.5" font-family="Helvetica,sans-Serif" font-size="10.00">__12JUTExceptionFP14JUTDirect</text>
<text text-anchor="middle" x="579.5" y="-63.5" font-family="Helvetica,sans-Serif" font-size="10.00">Print.s</text>
</a>
</g>
</g>
<!-- Node1&#45;&gt;Node6 -->
<g id="edge6" class="edge">
<title>Node1&#45;&gt;Node6</title>
<path fill="none" stroke="midnightblue" d="M3129.27,-159.22C2793.02,-157.35 968.54,-145.61 672.94,-108.76"/>
<polygon fill="midnightblue" stroke="midnightblue" points="673.07,-105.24 662.69,-107.38 672.14,-112.18 673.07,-105.24"/>
</g>
<!-- Node7 -->
<g id="node7" class="node">
<title>Node7</title>
<g id="a_node7"><a xlink:title=" ">
<polygon fill="white" stroke="#bfbfbf" points="681,-67.5 681,-97.5 878,-97.5 878,-67.5 681,-67.5"/>
<text text-anchor="start" x="689" y="-85.5" font-family="Helvetica,sans-Serif" font-size="10.00">asm/JSystem/JUtility</text>
<text text-anchor="middle" x="779.5" y="-74.5" font-family="Helvetica,sans-Serif" font-size="10.00">/JUTException/run__12JUTExceptionFv.s</text>
</a>
</g>
</g>
<!-- Node1&#45;&gt;Node7 -->
<g id="edge7" class="edge">
<title>Node1&#45;&gt;Node7</title>
<path fill="none" stroke="midnightblue" d="M3129.49,-159C2807.12,-155.88 1116.23,-138.19 887.5,-109 871.67,-106.98 854.77,-103.6 839.16,-99.94"/>
<polygon fill="midnightblue" stroke="midnightblue" points="839.65,-96.46 829.1,-97.52 838,-103.27 839.65,-96.46"/>
</g>
<!-- Node8 -->
<g id="node8" class="node">
<title>Node8</title>
<g id="a_node8"><a xlink:title=" ">
<polygon fill="white" stroke="#bfbfbf" points="896,-62 896,-103 1099,-103 1099,-62 896,-62"/>
<text text-anchor="start" x="904" y="-91" font-family="Helvetica,sans-Serif" font-size="10.00">asm/JSystem/JUtility</text>
<text text-anchor="start" x="904" y="-80" font-family="Helvetica,sans-Serif" font-size="10.00">/JUTException/errorHandler</text>
<text text-anchor="middle" x="997.5" y="-69" font-family="Helvetica,sans-Serif" font-size="10.00">__12JUTExceptionFUsP9OSContextUlUl.s</text>
</a>
</g>
</g>
<!-- Node1&#45;&gt;Node8 -->
<g id="edge8" class="edge">
<title>Node1&#45;&gt;Node8</title>
<path fill="none" stroke="midnightblue" d="M3129.05,-159.66C2845.65,-160.26 1516.34,-160.28 1108.5,-109 1100.25,-107.96 1091.72,-106.58 1083.22,-104.99"/>
<polygon fill="midnightblue" stroke="midnightblue" points="1083.75,-101.53 1073.27,-103.04 1082.41,-108.4 1083.75,-101.53"/>
</g>
<!-- Node9 -->
<g id="node9" class="node">
<title>Node9</title>
<g id="a_node9"><a xlink:title=" ">
<polygon fill="white" stroke="#bfbfbf" points="1117,-56.5 1117,-108.5 1294,-108.5 1294,-56.5 1117,-56.5"/>
<text text-anchor="start" x="1125" y="-96.5" font-family="Helvetica,sans-Serif" font-size="10.00">asm/JSystem/JUtility</text>
<text text-anchor="start" x="1125" y="-85.5" font-family="Helvetica,sans-Serif" font-size="10.00">/JUTException/panic_f</text>
<text text-anchor="start" x="1125" y="-74.5" font-family="Helvetica,sans-Serif" font-size="10.00">_va__12JUTExceptionFPCciPCcP16</text>
<text text-anchor="middle" x="1205.5" y="-63.5" font-family="Helvetica,sans-Serif" font-size="10.00">__va_list_struct.s</text>
</a>
</g>
</g>
<!-- Node1&#45;&gt;Node9 -->
<g id="edge9" class="edge">
<title>Node1&#45;&gt;Node9</title>
<path fill="none" stroke="midnightblue" d="M3129.3,-159.7C2865.02,-160.47 1690.92,-160.91 1304.35,-108.93"/>
<polygon fill="midnightblue" stroke="midnightblue" points="1304.64,-105.44 1294.26,-107.54 1303.68,-112.37 1304.64,-105.44"/>
</g>
<!-- Node10 -->
<g id="node10" class="node">
<title>Node10</title>
<g id="a_node10"><a xlink:title=" ">
<polygon fill="white" stroke="#bfbfbf" points="1312,-62 1312,-103 1469,-103 1469,-62 1312,-62"/>
<text text-anchor="start" x="1320" y="-91" font-family="Helvetica,sans-Serif" font-size="10.00">asm/JSystem/JUtility</text>
<text text-anchor="start" x="1320" y="-80" font-family="Helvetica,sans-Serif" font-size="10.00">/JUTException/panic_f</text>
<text text-anchor="middle" x="1390.5" y="-69" font-family="Helvetica,sans-Serif" font-size="10.00">__12JUTExceptionFPCciPCce.s</text>
</a>
</g>
</g>
<!-- Node1&#45;&gt;Node10 -->
<g id="edge10" class="edge">
<title>Node1&#45;&gt;Node10</title>
<path fill="none" stroke="midnightblue" d="M3129.32,-159.73C2878.02,-160.53 1807.97,-160.76 1478.5,-109 1472.66,-108.08 1466.66,-106.89 1460.68,-105.53"/>
<polygon fill="midnightblue" stroke="midnightblue" points="1461.18,-102.05 1450.64,-103.1 1459.53,-108.86 1461.18,-102.05"/>
</g>
<!-- Node11 -->
<g id="node11" class="node">
<title>Node11</title>
<g id="a_node11"><a xlink:title=" ">
<polygon fill="white" stroke="#bfbfbf" points="1487.5,-62 1487.5,-103 1639.5,-103 1639.5,-62 1487.5,-62"/>
<text text-anchor="start" x="1495.5" y="-91" font-family="Helvetica,sans-Serif" font-size="10.00">asm/JSystem/JUtility</text>
<text text-anchor="start" x="1495.5" y="-80" font-family="Helvetica,sans-Serif" font-size="10.00">/JUTException/setFPException</text>
<text text-anchor="middle" x="1563.5" y="-69" font-family="Helvetica,sans-Serif" font-size="10.00">__12JUTExceptionFUl.s</text>
</a>
</g>
</g>
<!-- Node1&#45;&gt;Node11 -->
<g id="edge11" class="edge">
<title>Node1&#45;&gt;Node11</title>
<path fill="none" stroke="midnightblue" d="M3129.21,-159.59C2893.41,-159.7 1942.53,-157.11 1648.5,-109 1642.85,-108.08 1637.05,-106.88 1631.26,-105.52"/>
<polygon fill="midnightblue" stroke="midnightblue" points="1632.11,-102.12 1621.56,-103.08 1630.41,-108.91 1632.11,-102.12"/>
</g>
<!-- Node12 -->
<g id="node12" class="node">
<title>Node12</title>
<g id="a_node12"><a xlink:title=" ">
<polygon fill="white" stroke="#bfbfbf" points="1657.5,-62 1657.5,-103 1803.5,-103 1803.5,-62 1657.5,-62"/>
<text text-anchor="start" x="1665.5" y="-91" font-family="Helvetica,sans-Serif" font-size="10.00">asm/JSystem/JUtility</text>
<text text-anchor="start" x="1665.5" y="-80" font-family="Helvetica,sans-Serif" font-size="10.00">/JUTException/showFloatSub</text>
<text text-anchor="middle" x="1730.5" y="-69" font-family="Helvetica,sans-Serif" font-size="10.00">__12JUTExceptionFif.s</text>
</a>
</g>
</g>
<!-- Node1&#45;&gt;Node12 -->
<g id="edge12" class="edge">
<title>Node1&#45;&gt;Node12</title>
<path fill="none" stroke="midnightblue" d="M3129.13,-159.39C2909.32,-158.65 2073.36,-152.93 1813.5,-109 1808.11,-108.09 1802.59,-106.92 1797.07,-105.6"/>
<polygon fill="midnightblue" stroke="midnightblue" points="1797.73,-102.15 1787.18,-103.05 1795.99,-108.93 1797.73,-102.15"/>
</g>
<!-- Node13 -->
<g id="node13" class="node">
<title>Node13</title>
<g id="a_node13"><a xlink:title=" ">
<polygon fill="white" stroke="#bfbfbf" points="1822,-62 1822,-103 1993,-103 1993,-62 1822,-62"/>
<text text-anchor="start" x="1830" y="-91" font-family="Helvetica,sans-Serif" font-size="10.00">asm/JSystem/JUtility</text>
<text text-anchor="start" x="1830" y="-80" font-family="Helvetica,sans-Serif" font-size="10.00">/JUTException/showFloat</text>
<text text-anchor="middle" x="1907.5" y="-69" font-family="Helvetica,sans-Serif" font-size="10.00">__12JUTExceptionFP9OSContext.s</text>
</a>
</g>
</g>
<!-- Node1&#45;&gt;Node13 -->
<g id="edge13" class="edge">
<title>Node1&#45;&gt;Node13</title>
<path fill="none" stroke="midnightblue" d="M3129.24,-158.77C2929.4,-155.8 2224.3,-143.09 2002.5,-109 1995.98,-108 1989.26,-106.72 1982.56,-105.27"/>
<polygon fill="midnightblue" stroke="midnightblue" points="1983.3,-101.84 1972.77,-103.03 1981.74,-108.67 1983.3,-101.84"/>
</g>
<!-- Node14 -->
<g id="node14" class="node">
<title>Node14</title>
<g id="a_node14"><a xlink:title=" ">
<polygon fill="white" stroke="#bfbfbf" points="2011,-62 2011,-103 2230,-103 2230,-62 2011,-62"/>
<text text-anchor="start" x="2019" y="-91" font-family="Helvetica,sans-Serif" font-size="10.00">asm/JSystem/JUtility</text>
<text text-anchor="start" x="2019" y="-80" font-family="Helvetica,sans-Serif" font-size="10.00">/JUTException/searchPartial</text>
<text text-anchor="middle" x="2120.5" y="-69" font-family="Helvetica,sans-Serif" font-size="10.00">Module__12JUTExceptionFUlPUlPUlPUlPUl.s</text>
</a>
</g>
</g>
<!-- Node1&#45;&gt;Node14 -->
<g id="edge14" class="edge">
<title>Node1&#45;&gt;Node14</title>
<path fill="none" stroke="midnightblue" d="M3129.32,-159.58C2985.33,-159.16 2576.11,-153.79 2239.5,-109 2230.98,-107.87 2222.16,-106.45 2213.35,-104.87"/>
<polygon fill="midnightblue" stroke="midnightblue" points="2213.9,-101.41 2203.43,-103.02 2212.62,-108.29 2213.9,-101.41"/>
</g>
<!-- Node15 -->
<g id="node15" class="node">
<title>Node15</title>
<g id="a_node15"><a xlink:title=" ">
<polygon fill="white" stroke="#bfbfbf" points="2248,-62 2248,-103 2381,-103 2381,-62 2248,-62"/>
<text text-anchor="start" x="2256" y="-91" font-family="Helvetica,sans-Serif" font-size="10.00">asm/JSystem/JUtility</text>
<text text-anchor="start" x="2256" y="-80" font-family="Helvetica,sans-Serif" font-size="10.00">/JUTException/search</text>
<text text-anchor="middle" x="2314.5" y="-69" font-family="Helvetica,sans-Serif" font-size="10.00">_name_part__FPUcPUci.s</text>
</a>
</g>
</g>
<!-- Node1&#45;&gt;Node15 -->
<g id="edge15" class="edge">
<title>Node1&#45;&gt;Node15</title>
<path fill="none" stroke="midnightblue" d="M3129.28,-157.91C2975.52,-153.03 2532.63,-136.88 2390.5,-109 2385.88,-108.09 2381.15,-106.98 2376.42,-105.73"/>
<polygon fill="midnightblue" stroke="midnightblue" points="2377.34,-102.35 2366.76,-103 2375.43,-109.09 2377.34,-102.35"/>
</g>
<!-- Node16 -->
<g id="node16" class="node">
<title>Node16</title>
<g id="a_node16"><a xlink:title=" ">
<polygon fill="white" stroke="#bfbfbf" points="2399,-62 2399,-103 2570,-103 2570,-62 2399,-62"/>
<text text-anchor="start" x="2407" y="-91" font-family="Helvetica,sans-Serif" font-size="10.00">asm/JSystem/JUtility</text>
<text text-anchor="start" x="2407" y="-80" font-family="Helvetica,sans-Serif" font-size="10.00">/JUTException/showStack</text>
<text text-anchor="middle" x="2484.5" y="-69" font-family="Helvetica,sans-Serif" font-size="10.00">__12JUTExceptionFP9OSContext.s</text>
</a>
</g>
</g>
<!-- Node1&#45;&gt;Node16 -->
<g id="edge16" class="edge">
<title>Node1&#45;&gt;Node16</title>
<path fill="none" stroke="midnightblue" d="M3129.26,-158.23C3023.66,-155.01 2780.52,-144.11 2579.5,-109 2573.63,-107.97 2567.59,-106.75 2561.54,-105.41"/>
<polygon fill="midnightblue" stroke="midnightblue" points="2561.91,-101.9 2551.38,-103.05 2560.32,-108.72 2561.91,-101.9"/>
</g>
<!-- Node17 -->
<g id="node17" class="node">
<title>Node17</title>
<g id="a_node17"><a xlink:title=" ">
<polygon fill="white" stroke="#bfbfbf" points="2588,-62 2588,-103 2791,-103 2791,-62 2588,-62"/>
<text text-anchor="start" x="2596" y="-91" font-family="Helvetica,sans-Serif" font-size="10.00">asm/JSystem/JUtility</text>
<text text-anchor="start" x="2596" y="-80" font-family="Helvetica,sans-Serif" font-size="10.00">/JUTException/showMainInfo</text>
<text text-anchor="middle" x="2689.5" y="-69" font-family="Helvetica,sans-Serif" font-size="10.00">__12JUTExceptionFUsP9OSContextUlUl.s</text>
</a>
</g>
</g>
<!-- Node1&#45;&gt;Node17 -->
<g id="edge17" class="edge">
<title>Node1&#45;&gt;Node17</title>
<path fill="none" stroke="midnightblue" d="M3129.42,-154.08C3055.42,-146.17 2917.19,-130.07 2800.5,-109 2793.96,-107.82 2787.23,-106.51 2780.47,-105.13"/>
<polygon fill="midnightblue" stroke="midnightblue" points="2781.06,-101.67 2770.55,-103.05 2779.62,-108.52 2781.06,-101.67"/>
</g>
<!-- Node18 -->
<g id="node18" class="node">
<title>Node18</title>
<g id="a_node18"><a xlink:title=" ">
<polygon fill="white" stroke="#bfbfbf" points="2809,-62 2809,-103 2980,-103 2980,-62 2809,-62"/>
<text text-anchor="start" x="2817" y="-91" font-family="Helvetica,sans-Serif" font-size="10.00">asm/JSystem/JUtility</text>
<text text-anchor="start" x="2817" y="-80" font-family="Helvetica,sans-Serif" font-size="10.00">/JUTException/showGPR</text>
<text text-anchor="middle" x="2894.5" y="-69" font-family="Helvetica,sans-Serif" font-size="10.00">__12JUTExceptionFP9OSContext.s</text>
</a>
</g>
</g>
<!-- Node1&#45;&gt;Node18 -->
<g id="edge18" class="edge">
<title>Node1&#45;&gt;Node18</title>
<path fill="none" stroke="midnightblue" d="M3129.23,-145.66C3090.46,-135.56 3036.71,-121.51 2989.5,-109 2985.41,-107.92 2981.23,-106.81 2977.01,-105.68"/>
<polygon fill="midnightblue" stroke="midnightblue" points="2977.67,-102.23 2967.1,-103.04 2975.86,-109 2977.67,-102.23"/>
</g>
<!-- Node19 -->
<g id="node19" class="node">
<title>Node19</title>
<g id="a_node19"><a xlink:title=" ">
<polygon fill="white" stroke="#bfbfbf" points="2998,-62 2998,-103 3175,-103 3175,-62 2998,-62"/>
<text text-anchor="start" x="3006" y="-91" font-family="Helvetica,sans-Serif" font-size="10.00">asm/JSystem/JUtility</text>
<text text-anchor="start" x="3006" y="-80" font-family="Helvetica,sans-Serif" font-size="10.00">/JUTException/showMapInfo</text>
<text text-anchor="middle" x="3086.5" y="-69" font-family="Helvetica,sans-Serif" font-size="10.00">_subroutine__12JUTExceptionFUlb.s</text>
</a>
</g>
</g>
<!-- Node1&#45;&gt;Node19 -->
<g id="edge19" class="edge">
<title>Node1&#45;&gt;Node19</title>
<path fill="none" stroke="midnightblue" d="M3164.44,-145.2C3151.79,-135.19 3134.53,-121.52 3119.46,-109.59"/>
<polygon fill="midnightblue" stroke="midnightblue" points="3121.37,-106.64 3111.36,-103.18 3117.03,-112.13 3121.37,-106.64"/>
</g>
<!-- Node20 -->
<g id="node20" class="node">
<title>Node20</title>
<g id="a_node20"><a xlink:title=" ">
<polygon fill="white" stroke="#bfbfbf" points="3193,-62 3193,-103 3364,-103 3364,-62 3193,-62"/>
<text text-anchor="start" x="3201" y="-91" font-family="Helvetica,sans-Serif" font-size="10.00">asm/JSystem/JUtility</text>
<text text-anchor="start" x="3201" y="-80" font-family="Helvetica,sans-Serif" font-size="10.00">/JUTException/showGPRMap</text>
<text text-anchor="middle" x="3278.5" y="-69" font-family="Helvetica,sans-Serif" font-size="10.00">__12JUTExceptionFP9OSContext.s</text>
</a>
</g>
</g>
<!-- Node1&#45;&gt;Node20 -->
<g id="edge20" class="edge">
<title>Node1&#45;&gt;Node20</title>
<path fill="none" stroke="midnightblue" d="M3200.56,-145.2C3213.21,-135.19 3230.47,-121.52 3245.54,-109.59"/>
<polygon fill="midnightblue" stroke="midnightblue" points="3247.97,-112.13 3253.64,-103.18 3243.63,-106.64 3247.97,-112.13"/>
</g>
<!-- Node21 -->
<g id="node21" class="node">
<title>Node21</title>
<g id="a_node21"><a xlink:title=" ">
<polygon fill="white" stroke="#bfbfbf" points="3382,-62 3382,-103 3553,-103 3553,-62 3382,-62"/>
<text text-anchor="start" x="3390" y="-91" font-family="Helvetica,sans-Serif" font-size="10.00">asm/JSystem/JUtility</text>
<text text-anchor="start" x="3390" y="-80" font-family="Helvetica,sans-Serif" font-size="10.00">/JUTException/showSRR0Map</text>
<text text-anchor="middle" x="3467.5" y="-69" font-family="Helvetica,sans-Serif" font-size="10.00">__12JUTExceptionFP9OSContext.s</text>
</a>
</g>
</g>
<!-- Node1&#45;&gt;Node21 -->
<g id="edge21" class="edge">
<title>Node1&#45;&gt;Node21</title>
<path fill="none" stroke="midnightblue" d="M3235.63,-145.55C3273.96,-135.46 3326.95,-121.47 3373.5,-109 3377.54,-107.92 3381.68,-106.81 3385.86,-105.68"/>
<polygon fill="midnightblue" stroke="midnightblue" points="3386.92,-109.02 3395.66,-103.04 3385.1,-102.26 3386.92,-109.02"/>
</g>
<!-- Node22 -->
<g id="node22" class="node">
<title>Node22</title>
<g id="a_node22"><a xlink:title=" ">
<polygon fill="white" stroke="#bfbfbf" points="3571.5,-56.5 3571.5,-108.5 3765.5,-108.5 3765.5,-56.5 3571.5,-56.5"/>
<text text-anchor="start" x="3579.5" y="-96.5" font-family="Helvetica,sans-Serif" font-size="10.00">asm/JSystem/JUtility</text>
<text text-anchor="start" x="3579.5" y="-85.5" font-family="Helvetica,sans-Serif" font-size="10.00">/JUTException/printDebugInfo</text>
<text text-anchor="start" x="3579.5" y="-74.5" font-family="Helvetica,sans-Serif" font-size="10.00">__12JUTExceptionFQ212JUTException9</text>
<text text-anchor="middle" x="3668.5" y="-63.5" font-family="Helvetica,sans-Serif" font-size="10.00">EInfoPageUsP9OSContextUlUl.s</text>
</a>
</g>
</g>
<!-- Node1&#45;&gt;Node22 -->
<g id="edge22" class="edge">
<title>Node1&#45;&gt;Node22</title>
<path fill="none" stroke="midnightblue" d="M3235.64,-154.2C3307.43,-146.65 3439.5,-131.4 3561.38,-109.13"/>
<polygon fill="midnightblue" stroke="midnightblue" points="3562.06,-112.57 3571.26,-107.31 3560.79,-105.68 3562.06,-112.57"/>
</g>
<!-- Node23 -->
<g id="node23" class="node">
<title>Node23</title>
<g id="a_node23"><a xlink:title=" ">
<polygon fill="white" stroke="#bfbfbf" points="3784,-62 3784,-103 3921,-103 3921,-62 3784,-62"/>
<text text-anchor="start" x="3792" y="-91" font-family="Helvetica,sans-Serif" font-size="10.00">asm/JSystem/JUtility</text>
<text text-anchor="start" x="3792" y="-80" font-family="Helvetica,sans-Serif" font-size="10.00">/JUTException/isEnablePad</text>
<text text-anchor="middle" x="3852.5" y="-69" font-family="Helvetica,sans-Serif" font-size="10.00">__12JUTExceptionCFv.s</text>
</a>
</g>
</g>
<!-- Node1&#45;&gt;Node23 -->
<g id="edge23" class="edge">
<title>Node1&#45;&gt;Node23</title>
<path fill="none" stroke="midnightblue" d="M3235.75,-159.06C3340.15,-157.29 3578.65,-148.81 3774.5,-109 3778.94,-108.1 3783.48,-107.03 3788.03,-105.84"/>
<polygon fill="midnightblue" stroke="midnightblue" points="3789.25,-109.13 3797.96,-103.09 3787.38,-102.39 3789.25,-109.13"/>
</g>
<!-- Node24 -->
<g id="node24" class="node">
<title>Node24</title>
<g id="a_node24"><a xlink:title=" ">
<polygon fill="white" stroke="#bfbfbf" points="3939,-62 3939,-103 4084,-103 4084,-62 3939,-62"/>
<text text-anchor="start" x="3947" y="-91" font-family="Helvetica,sans-Serif" font-size="10.00">asm/JSystem/JUtility</text>
<text text-anchor="start" x="3947" y="-80" font-family="Helvetica,sans-Serif" font-size="10.00">/JUTException/readPad</text>
<text text-anchor="middle" x="4011.5" y="-69" font-family="Helvetica,sans-Serif" font-size="10.00">__12JUTExceptionFPUlPUl.s</text>
</a>
</g>
</g>
<!-- Node1&#45;&gt;Node24 -->
<g id="edge24" class="edge">
<title>Node1&#45;&gt;Node24</title>
<path fill="none" stroke="midnightblue" d="M3235.64,-160.22C3358.91,-160.94 3673.41,-157.43 3930.5,-109 3935.44,-108.07 3940.51,-106.93 3945.58,-105.66"/>
<polygon fill="midnightblue" stroke="midnightblue" points="3946.53,-109.03 3955.29,-103.07 3944.72,-102.27 3946.53,-109.03"/>
</g>
<!-- Node25 -->
<g id="node25" class="node">
<title>Node25</title>
<g id="a_node25"><a xlink:title=" ">
<polygon fill="white" stroke="#bfbfbf" points="4102,-62 4102,-103 4305,-103 4305,-62 4102,-62"/>
<text text-anchor="start" x="4110" y="-91" font-family="Helvetica,sans-Serif" font-size="10.00">asm/JSystem/JUtility</text>
<text text-anchor="start" x="4110" y="-80" font-family="Helvetica,sans-Serif" font-size="10.00">/JUTException/printContext</text>
<text text-anchor="middle" x="4203.5" y="-69" font-family="Helvetica,sans-Serif" font-size="10.00">__12JUTExceptionFUsP9OSContextUlUl.s</text>
</a>
</g>
</g>
<!-- Node1&#45;&gt;Node25 -->
<g id="edge25" class="edge">
<title>Node1&#45;&gt;Node25</title>
<path fill="none" stroke="midnightblue" d="M3235.7,-159.74C3376.46,-159.7 3770.06,-155.1 4093.5,-109 4101.14,-107.91 4109.03,-106.55 4116.92,-105.04"/>
<polygon fill="midnightblue" stroke="midnightblue" points="4117.77,-108.44 4126.89,-103.04 4116.4,-101.57 4117.77,-108.44"/>
</g>
<!-- Node26 -->
<g id="node26" class="node">
<title>Node26</title>
<g id="a_node26"><a xlink:title=" ">
<polygon fill="white" stroke="#bfbfbf" points="4323,-62 4323,-103 4446,-103 4446,-62 4323,-62"/>
<text text-anchor="start" x="4331" y="-91" font-family="Helvetica,sans-Serif" font-size="10.00">asm/JSystem/JUtility</text>
<text text-anchor="start" x="4331" y="-80" font-family="Helvetica,sans-Serif" font-size="10.00">/JUTException/waitTime</text>
<text text-anchor="middle" x="4384.5" y="-69" font-family="Helvetica,sans-Serif" font-size="10.00">__12JUTExceptionFl.s</text>
</a>
</g>
</g>
<!-- Node1&#45;&gt;Node26 -->
<g id="edge26" class="edge">
<title>Node1&#45;&gt;Node26</title>
<path fill="none" stroke="midnightblue" d="M3235.69,-159.27C3430.42,-158.09 4104.1,-150.99 4314.5,-109 4318.64,-108.17 4322.86,-107.14 4327.07,-105.98"/>
<polygon fill="midnightblue" stroke="midnightblue" points="4328.29,-109.27 4336.85,-103.03 4326.27,-102.56 4328.29,-109.27"/>
</g>
<!-- Node27 -->
<g id="node27" class="node">
<title>Node27</title>
<g id="a_node27"><a xlink:title=" ">
<polygon fill="white" stroke="#bfbfbf" points="4464,-62 4464,-103 4587,-103 4587,-62 4464,-62"/>
<text text-anchor="start" x="4472" y="-91" font-family="Helvetica,sans-Serif" font-size="10.00">asm/JSystem/JUtility</text>
<text text-anchor="start" x="4472" y="-80" font-family="Helvetica,sans-Serif" font-size="10.00">/JUTException/createFB</text>
<text text-anchor="middle" x="4525.5" y="-69" font-family="Helvetica,sans-Serif" font-size="10.00">__12JUTExceptionFv.s</text>
</a>
</g>
</g>
<!-- Node1&#45;&gt;Node27 -->
<g id="edge27" class="edge">
<title>Node1&#45;&gt;Node27</title>
<path fill="none" stroke="midnightblue" d="M3235.7,-159.57C3445.6,-159.53 4216.38,-156.1 4455.5,-109 4459.64,-108.18 4463.86,-107.16 4468.08,-106"/>
<polygon fill="midnightblue" stroke="midnightblue" points="4469.29,-109.29 4477.86,-103.06 4467.28,-102.59 4469.29,-109.29"/>
</g>
<!-- Node28 -->
<g id="node28" class="node">
<title>Node28</title>
<g id="a_node28"><a xlink:title=" ">
<polygon fill="white" stroke="#bfbfbf" points="4605,-62 4605,-103 4832,-103 4832,-62 4605,-62"/>
<text text-anchor="start" x="4613" y="-91" font-family="Helvetica,sans-Serif" font-size="10.00">asm/JSystem/JUtility</text>
<text text-anchor="start" x="4613" y="-80" font-family="Helvetica,sans-Serif" font-size="10.00">/JUTException/setPreUserCallback</text>
<text text-anchor="middle" x="4718.5" y="-69" font-family="Helvetica,sans-Serif" font-size="10.00">__12JUTExceptionFPFUsP9OSContextUlUl_v.s</text>
</a>
</g>
</g>
<!-- Node1&#45;&gt;Node28 -->
<g id="edge28" class="edge">
<title>Node1&#45;&gt;Node28</title>
<path fill="none" stroke="midnightblue" d="M3235.62,-158.81C3459.31,-155.74 4325.52,-141.91 4596.5,-109 4605.67,-107.89 4615.17,-106.44 4624.64,-104.79"/>
<polygon fill="midnightblue" stroke="midnightblue" points="4625.26,-108.24 4634.48,-103.01 4624.01,-101.35 4625.26,-108.24"/>
</g>
<!-- Node29 -->
<g id="node29" class="node">
<title>Node29</title>
<g id="a_node29"><a xlink:title=" ">
<polygon fill="white" stroke="#bfbfbf" points="4850,-62 4850,-103 5077,-103 5077,-62 4850,-62"/>
<text text-anchor="start" x="4858" y="-91" font-family="Helvetica,sans-Serif" font-size="10.00">asm/JSystem/JUtility</text>
<text text-anchor="start" x="4858" y="-80" font-family="Helvetica,sans-Serif" font-size="10.00">/JUTException/setPostUserCallback</text>
<text text-anchor="middle" x="4963.5" y="-69" font-family="Helvetica,sans-Serif" font-size="10.00">__12JUTExceptionFPFUsP9OSContextUlUl_v.s</text>
</a>
</g>
</g>
<!-- Node1&#45;&gt;Node29 -->
<g id="edge29" class="edge">
<title>Node1&#45;&gt;Node29</title>
<path fill="none" stroke="midnightblue" d="M3235.84,-159.14C3483.15,-157.26 4519.77,-147.22 4841.5,-109 4850.75,-107.9 4860.34,-106.45 4869.89,-104.8"/>
<polygon fill="midnightblue" stroke="midnightblue" points="4870.59,-108.23 4879.81,-103.01 4869.35,-101.34 4870.59,-108.23"/>
</g>
<!-- Node30 -->
<g id="node30" class="node">
<title>Node30</title>
<g id="a_node30"><a xlink:title=" ">
<polygon fill="white" stroke="#bfbfbf" points="5095,-62 5095,-103 5244,-103 5244,-62 5095,-62"/>
<text text-anchor="start" x="5103" y="-91" font-family="Helvetica,sans-Serif" font-size="10.00">asm/JSystem/JUtility</text>
<text text-anchor="start" x="5103" y="-80" font-family="Helvetica,sans-Serif" font-size="10.00">/JUTException/appendMapFile</text>
<text text-anchor="middle" x="5169.5" y="-69" font-family="Helvetica,sans-Serif" font-size="10.00">__12JUTExceptionFPCc.s</text>
</a>
</g>
</g>
<!-- Node1&#45;&gt;Node30 -->
<g id="edge30" class="edge">
<title>Node1&#45;&gt;Node30</title>
<path fill="none" stroke="midnightblue" d="M3235.81,-158.95C3525.04,-155.84 4899.78,-139.57 5086.5,-109 5091.99,-108.1 5097.61,-106.93 5103.23,-105.59"/>
<polygon fill="midnightblue" stroke="midnightblue" points="5104.47,-108.89 5113.29,-103.01 5102.73,-102.11 5104.47,-108.89"/>
</g>
<!-- Node31 -->
<g id="node31" class="node">
<title>Node31</title>
<g id="a_node31"><a xlink:title=" ">
<polygon fill="white" stroke="#bfbfbf" points="5262,-62 5262,-103 5463,-103 5463,-62 5262,-62"/>
<text text-anchor="start" x="5270" y="-91" font-family="Helvetica,sans-Serif" font-size="10.00">asm/JSystem/JUtility</text>
<text text-anchor="start" x="5270" y="-80" font-family="Helvetica,sans-Serif" font-size="10.00">/JUTException/queryMapAddress</text>
<text text-anchor="middle" x="5362.5" y="-69" font-family="Helvetica,sans-Serif" font-size="10.00">__12JUTExceptionFPcUllPUlPUlPcUlbb.s</text>
</a>
</g>
</g>
<!-- Node1&#45;&gt;Node31 -->
<g id="edge31" class="edge">
<title>Node1&#45;&gt;Node31</title>
<path fill="none" stroke="midnightblue" d="M3235.88,-159.68C3518.88,-160.42 4846.35,-161.03 5253.5,-109 5261.52,-107.98 5269.81,-106.61 5278.07,-105.04"/>
<polygon fill="midnightblue" stroke="midnightblue" points="5278.99,-108.43 5288.11,-103.04 5277.62,-101.56 5278.99,-108.43"/>
</g>
<!-- Node32 -->
<g id="node32" class="node">
<title>Node32</title>
<g id="a_node32"><a xlink:title=" ">
<polygon fill="white" stroke="#bfbfbf" points="5481.5,-56.5 5481.5,-108.5 5673.5,-108.5 5673.5,-56.5 5481.5,-56.5"/>
<text text-anchor="start" x="5489.5" y="-96.5" font-family="Helvetica,sans-Serif" font-size="10.00">asm/JSystem/JUtility</text>
<text text-anchor="start" x="5489.5" y="-85.5" font-family="Helvetica,sans-Serif" font-size="10.00">/JUTException/queryMapAddress</text>
<text text-anchor="start" x="5489.5" y="-74.5" font-family="Helvetica,sans-Serif" font-size="10.00">_single__12JUTExceptionFPcUllPUlPUl</text>
<text text-anchor="middle" x="5577.5" y="-63.5" font-family="Helvetica,sans-Serif" font-size="10.00">PcUlbb.s</text>
</a>
</g>
</g>
<!-- Node1&#45;&gt;Node32 -->
<g id="edge32" class="edge">
<title>Node1&#45;&gt;Node32</title>
<path fill="none" stroke="midnightblue" d="M3235.66,-159.02C3553.74,-156.03 5200.19,-139.3 5471.13,-108.96"/>
<polygon fill="midnightblue" stroke="midnightblue" points="5471.73,-112.41 5481.24,-107.73 5470.89,-105.46 5471.73,-112.41"/>
</g>
<!-- Node33 -->
<g id="node33" class="node">
<title>Node33</title>
<g id="a_node33"><a xlink:title=" ">
<polygon fill="white" stroke="#bfbfbf" points="5691.5,-62 5691.5,-103 5837.5,-103 5837.5,-62 5691.5,-62"/>
<text text-anchor="start" x="5699.5" y="-91" font-family="Helvetica,sans-Serif" font-size="10.00">asm/JSystem/JUtility</text>
<text text-anchor="start" x="5699.5" y="-80" font-family="Helvetica,sans-Serif" font-size="10.00">/JUTException/createConsole</text>
<text text-anchor="middle" x="5764.5" y="-69" font-family="Helvetica,sans-Serif" font-size="10.00">__12JUTExceptionFPvUl.s</text>
</a>
</g>
</g>
<!-- Node1&#45;&gt;Node33 -->
<g id="edge33" class="edge">
<title>Node1&#45;&gt;Node33</title>
<path fill="none" stroke="midnightblue" d="M3235.54,-159.32C3574.69,-158.07 5433.43,-149.41 5682.5,-109 5687.93,-108.12 5693.49,-106.96 5699.04,-105.63"/>
<polygon fill="midnightblue" stroke="midnightblue" points="5700.18,-108.95 5708.98,-103.06 5698.43,-102.17 5700.18,-108.95"/>
</g>
<!-- Node34 -->
<g id="node34" class="node">
<title>Node34</title>
<g id="a_node34"><a xlink:title=" ">
<polygon fill="white" stroke="#bfbfbf" points="5855.5,-62 5855.5,-103 6085.5,-103 6085.5,-62 5855.5,-62"/>
<text text-anchor="start" x="5863.5" y="-91" font-family="Helvetica,sans-Serif" font-size="10.00">asm/JSystem/JUtility</text>
<text text-anchor="start" x="5863.5" y="-80" font-family="Helvetica,sans-Serif" font-size="10.00">/JUTException/__ct__13JUTExternal</text>
<text text-anchor="middle" x="5970.5" y="-69" font-family="Helvetica,sans-Serif" font-size="10.00">FBFP16_GXRenderModeObj8_GXGammaPvUl.s</text>
</a>
</g>
</g>
<!-- Node1&#45;&gt;Node34 -->
<g id="edge34" class="edge">
<title>Node1&#45;&gt;Node34</title>
<path fill="none" stroke="midnightblue" d="M3235.52,-159.08C3587.3,-156.23 5578.41,-138.85 5846.5,-109 5856.17,-107.92 5866.19,-106.46 5876.17,-104.77"/>
<polygon fill="midnightblue" stroke="midnightblue" points="5876.88,-108.2 5886.12,-103.01 5875.66,-101.3 5876.88,-108.2"/>
</g>
<!-- Node35 -->
<g id="node35" class="node">
<title>Node35</title>
<g id="a_node35"><a xlink:title=" ">
<polygon fill="white" stroke="#bfbfbf" points="6103,-67.5 6103,-97.5 6306,-97.5 6306,-67.5 6103,-67.5"/>
<text text-anchor="start" x="6111" y="-85.5" font-family="Helvetica,sans-Serif" font-size="10.00">asm/JSystem/JUtility</text>
<text text-anchor="middle" x="6204.5" y="-74.5" font-family="Helvetica,sans-Serif" font-size="10.00">/JUTException/__dt__12JUTExceptionFv.s</text>
</a>
</g>
</g>
<!-- Node1&#45;&gt;Node35 -->
<g id="edge35" class="edge">
<title>Node1&#45;&gt;Node35</title>
<path fill="none" stroke="midnightblue" d="M3235.62,-159.25C3606.35,-157.44 5800.61,-145.2 6094.5,-109 6110.77,-107 6128.16,-103.58 6144.18,-99.89"/>
<polygon fill="midnightblue" stroke="midnightblue" points="6145.05,-103.28 6153.97,-97.56 6143.43,-96.47 6145.05,-103.28"/>
</g>
<!-- Node36 -->
<g id="node36" class="node">
<title>Node36</title>
<g id="a_node36"><a xlink:title=" ">
<polygon fill="white" stroke="#bfbfbf" points="6323.5,-62 6323.5,-103 6435.5,-103 6435.5,-62 6323.5,-62"/>
<text text-anchor="start" x="6331.5" y="-91" font-family="Helvetica,sans-Serif" font-size="10.00">asm/JSystem/JUtility</text>
<text text-anchor="start" x="6331.5" y="-80" font-family="Helvetica,sans-Serif" font-size="10.00">/JUTException/__sinit</text>
<text text-anchor="middle" x="6379.5" y="-69" font-family="Helvetica,sans-Serif" font-size="10.00">_JUTException_cpp.s</text>
</a>
</g>
</g>
<!-- Node1&#45;&gt;Node36 -->
<g id="edge36" class="edge">
<title>Node1&#45;&gt;Node36</title>
<path fill="none" stroke="midnightblue" d="M3235.58,-159.19C3635.02,-156.8 6158.35,-140.47 6315.5,-109 6319.18,-108.26 6322.91,-107.33 6326.64,-106.25"/>
<polygon fill="midnightblue" stroke="midnightblue" points="6327.98,-109.49 6336.42,-103.1 6325.83,-102.83 6327.98,-109.49"/>
</g>
<!-- Node37 -->
<g id="node37" class="node">
<title>Node37</title>
<g id="a_node37"><a xlink:title=" ">
<polygon fill="white" stroke="#bfbfbf" points="6453.5,-67.5 6453.5,-97.5 6611.5,-97.5 6611.5,-67.5 6453.5,-67.5"/>
<text text-anchor="start" x="6461.5" y="-85.5" font-family="Helvetica,sans-Serif" font-size="10.00">asm/JSystem/JUtility</text>
<text text-anchor="middle" x="6532.5" y="-74.5" font-family="Helvetica,sans-Serif" font-size="10.00">/JUTException/func_802E4194.s</text>
</a>
</g>
</g>
<!-- Node1&#45;&gt;Node37 -->
<g id="edge37" class="edge">
<title>Node1&#45;&gt;Node37</title>
<path fill="none" stroke="midnightblue" d="M3235.56,-159.53C3631.2,-159.65 6114.72,-158.42 6444.5,-109 6457.04,-107.12 6470.3,-103.94 6482.61,-100.45"/>
<polygon fill="midnightblue" stroke="midnightblue" points="6483.66,-103.79 6492.26,-97.61 6481.68,-97.08 6483.66,-103.79"/>
</g>
<!-- Node2&#45;&gt;Node3 -->
<g id="edge2" class="edge">
<title>Node2&#45;&gt;Node3</title>
<path fill="none" stroke="midnightblue" d="M86,-72.86C94.34,-61.76 109.01,-42.24 119.65,-28.09"/>
<polygon fill="midnightblue" stroke="midnightblue" points="122.74,-29.81 125.95,-19.72 117.14,-25.61 122.74,-29.81"/>
</g>
</g>
</svg>
        <g id="navigator" transform="translate(0 0)" fill="#404254">
                <rect fill="#f2f5e9" fill-opacity="0.5" stroke="#606060" stroke-width=".5" x="0" y="0" width="60" height="60"/>
                <use id="zoomplus" xlink:href="#zoomPlus" x="17" y="9" onmousedown="handleZoom(evt,'in')"/>
                <use id="zoomminus" xlink:href="#zoomMin" x="42" y="9" onmousedown="handleZoom(evt,'out')"/>
                <use id="reset" xlink:href="#resetDef" x="30" y="36" onmousedown="handleReset()"/>
                <g id="arrowUp" xlink:href="#dirArrow" transform="translate(30 24)" onmousedown="handlePan(0,-1)">
                  <use xlink:href="#rim" fill="#404040">
                        <set attributeName="fill" to="#808080" begin="arrowUp.mouseover" end="arrowUp.mouseout"/>
                  </use>
                  <path fill="none" stroke="white" stroke-width="1.5" d="M0,-3.0v7 M-2.5,-0.5L0,-3.0L2.5,-0.5"/>
                </g>
                <g id="arrowRight" xlink:href="#dirArrow" transform="rotate(90) translate(36 -43)" onmousedown="handlePan(1,0)">
                  <use xlink:href="#rim" fill="#404040">
                        <set attributeName="fill" to="#808080" begin="arrowRight.mouseover" end="arrowRight.mouseout"/>
                  </use>
                  <path fill="none" stroke="white" stroke-width="1.5" d="M0,-3.0v7 M-2.5,-0.5L0,-3.0L2.5,-0.5"/>
                </g>
                <g id="arrowDown" xlink:href="#dirArrow" transform="rotate(180) translate(-30 -48)" onmousedown="handlePan(0,1)">
                  <use xlink:href="#rim" fill="#404040">
                        <set attributeName="fill" to="#808080" begin="arrowDown.mouseover" end="arrowDown.mouseout"/>
                  </use>
                  <path fill="none" stroke="white" stroke-width="1.5" d="M0,-3.0v7 M-2.5,-0.5L0,-3.0L2.5,-0.5"/>
                </g>
                <g id="arrowLeft" xlink:href="#dirArrow" transform="rotate(270) translate(-36 17)" onmousedown="handlePan(-1,0)">
                  <use xlink:href="#rim" fill="#404040">
                        <set attributeName="fill" to="#808080" begin="arrowLeft.mouseover" end="arrowLeft.mouseout"/>
                  </use>
                  <path fill="none" stroke="white" stroke-width="1.5" d="M0,-3.0v7 M-2.5,-0.5L0,-3.0L2.5,-0.5"/>
                </g>
        </g>
        <svg viewBox="0 0 15 15" width="100%" height="30px" preserveAspectRatio="xMaxYMin meet">
         <g id="arrow_out" transform="scale(0.3 0.3)">
          <a xlink:href="JUTException_8cpp__incl_org.svg" target="_base">
           <rect id="button" ry="5" rx="5" y="6" x="6" height="38" width="38"
                fill="#f2f5e9" fill-opacity="0.5" stroke="#606060" stroke-width="1.0"/>
           <path id="arrow"
             d="M 11.500037,31.436501 C 11.940474,20.09759 22.043105,11.32322 32.158766,21.979434 L 37.068811,17.246167 C 37.068811,17.246167 37.088388,32 37.088388,32 L 22.160133,31.978069 C 22.160133,31.978069 26.997745,27.140456 26.997745,27.140456 C 18.528582,18.264221 13.291696,25.230495 11.500037,31.436501 z"
             style="fill:#404040;"/>
          </a>
         </g>
        </svg>
</svg>
