<?xml version="1.0" encoding="UTF-8" standalone="no"?>
<!DOCTYPE svg PUBLIC "-//W3C//DTD SVG 1.1//EN"
 "http://www.w3.org/Graphics/SVG/1.1/DTD/svg11.dtd">
<!-- Generated by graphviz version 2.47.0 (20210316.2052)
 -->
<!-- Title: libs/JSystem/JUtility/JUTFont.cpp Pages: 1 -->
<!--zoomable 184 -->
<svg id="main" version="1.1" xmlns="http://www.w3.org/2000/svg" xmlns:xlink="http://www.w3.org/1999/xlink" xml:space="preserve" onload="init(evt)">
<style type="text/css"><![CDATA[
.edge:hover path { stroke: red; }
.edge:hover polygon { stroke: red; fill: red; }
]]></style>
<script type="text/javascript"><![CDATA[
var edges = document.getElementsByTagName('g');
if (edges && edges.length) {
  for (var i=0;i<edges.length;i++) {
    if (edges[i].id.substr(0,4)=='edge') {
      edges[i].setAttribute('class','edge');
    }
  }
}
]]></script>
        <defs>
                <circle id="rim" cx="0" cy="0" r="7"/>
                <circle id="rim2" cx="0" cy="0" r="3.5"/>
                <g id="zoomPlus">
                        <use xlink:href="#rim" fill="#404040">
                                <set attributeName="fill" to="#808080" begin="zoomplus.mouseover" end="zoomplus.mouseout"/>
                        </use>
                        <path d="M-4,0h8M0,-4v8" fill="none" stroke="white" stroke-width="1.5" pointer-events="none"/>
                </g>
                <g id="zoomMin">
                        <use xlink:href="#rim" fill="#404040">
                                <set attributeName="fill" to="#808080" begin="zoomminus.mouseover" end="zoomminus.mouseout"/>
                        </use>
                        <path d="M-4,0h8" fill="none" stroke="white" stroke-width="1.5" pointer-events="none"/>
                </g>
                <g id="dirArrow">
                        <path fill="none" stroke="white" stroke-width="1.5" d="M0,-3.0v7 M-2.5,-0.5L0,-3.0L2.5,-0.5"/>
                </g>
               <g id="resetDef">
                       <use xlink:href="#rim2" fill="#404040">
                               <set attributeName="fill" to="#808080" begin="reset.mouseover" end="reset.mouseout"/>
                       </use>
               </g>
        </defs>

<script type="text/javascript">
var viewWidth = 1109;
var viewHeight = 184;
var sectionId = 'dynsection-0';
</script>
<script xlink:href="svgpan.js"/>
<svg id="graph" class="graph">
<g id="viewport">
<title>libs/JSystem/JUtility/JUTFont.cpp</title>
<polygon fill="white" stroke="transparent" points="-4,4 -4,-180 1105,-180 1105,4 -4,4"/>
<!-- Node1 -->
<g id="node1" class="node">
<title>Node1</title>
<g id="a_node1"><a xlink:title=" ">
<polygon fill="#bfbfbf" stroke="black" points="373.5,-145.5 373.5,-175.5 479.5,-175.5 479.5,-145.5 373.5,-145.5"/>
<text text-anchor="start" x="381.5" y="-163.5" font-family="Helvetica,sans-Serif" font-size="10.00">libs/JSystem/JUtility</text>
<text text-anchor="middle" x="426.5" y="-152.5" font-family="Helvetica,sans-Serif" font-size="10.00">/JUTFont.cpp</text>
</a>
</g>
</g>
<!-- Node2 -->
<g id="node2" class="node">
<title>Node2</title>
<g id="a_node2"><a xlink:href="JUTFont_8h.html" target="_top" xlink:title=" ">
<polygon fill="white" stroke="black" points="0,-73 0,-92 137,-92 137,-73 0,-73"/>
<text text-anchor="middle" x="68.5" y="-80" font-family="Helvetica,sans-Serif" font-size="10.00">JSystem/JUtility/JUTFont.h</text>
</a>
</g>
</g>
<!-- Node1&#45;&gt;Node2 -->
<g id="edge1" class="edge">
<title>Node1&#45;&gt;Node2</title>
<path fill="none" stroke="midnightblue" d="M373.39,-151.63C317.72,-142.94 227.89,-127.68 151.5,-109 135.56,-105.1 118.16,-99.91 103.43,-95.22"/>
<polygon fill="midnightblue" stroke="midnightblue" points="104.31,-91.83 93.72,-92.08 102.16,-98.49 104.31,-91.83"/>
</g>
<!-- Node3 -->
<g id="node3" class="node">
<title>Node3</title>
<g id="a_node3"><a xlink:href="types_8h.html" target="_top" xlink:title=" ">
<polygon fill="white" stroke="black" points="76,-0.5 76,-19.5 157,-19.5 157,-0.5 76,-0.5"/>
<text text-anchor="middle" x="116.5" y="-7.5" font-family="Helvetica,sans-Serif" font-size="10.00">dolphin/types.h</text>
</a>
</g>
</g>
<!-- Node1&#45;&gt;Node3 -->
<g id="edge4" class="edge">
<title>Node1&#45;&gt;Node3</title>
<path fill="none" stroke="midnightblue" d="M373.38,-159.33C321.5,-156.79 242.28,-146.36 185.5,-109 181.46,-106.34 146.84,-55.78 128.23,-28.35"/>
<polygon fill="midnightblue" stroke="midnightblue" points="130.9,-26.05 122.39,-19.73 125.1,-29.97 130.9,-26.05"/>
</g>
<!-- Node4 -->
<g id="node4" class="node">
<title>Node4</title>
<g id="a_node4"><a xlink:href="dol2asm_8h.html" target="_top" xlink:title=" ">
<polygon fill="white" stroke="black" points="194,-73 194,-92 255,-92 255,-73 194,-73"/>
<text text-anchor="middle" x="224.5" y="-80" font-family="Helvetica,sans-Serif" font-size="10.00">dol2asm.h</text>
</a>
</g>
</g>
<!-- Node1&#45;&gt;Node4 -->
<g id="edge3" class="edge">
<title>Node1&#45;&gt;Node4</title>
<path fill="none" stroke="midnightblue" d="M373.38,-146.77C341.1,-138.1 299.5,-125.26 264.5,-109 257.78,-105.88 250.83,-101.8 244.66,-97.82"/>
<polygon fill="midnightblue" stroke="midnightblue" points="246.53,-94.86 236.28,-92.19 242.62,-100.67 246.53,-94.86"/>
</g>
<!-- Node5 -->
<g id="node5" class="node">
<title>Node5</title>
<g id="a_node5"><a xlink:title=" ">
<polygon fill="white" stroke="#bfbfbf" points="273.5,-67.5 273.5,-97.5 425.5,-97.5 425.5,-67.5 273.5,-67.5"/>
<text text-anchor="start" x="281.5" y="-85.5" font-family="Helvetica,sans-Serif" font-size="10.00">asm/JSystem/JUtility</text>
<text text-anchor="middle" x="349.5" y="-74.5" font-family="Helvetica,sans-Serif" font-size="10.00">/JUTFont/__ct__7JUTFontFv.s</text>
</a>
</g>
</g>
<!-- Node1&#45;&gt;Node5 -->
<g id="edge5" class="edge">
<title>Node1&#45;&gt;Node5</title>
<path fill="none" stroke="midnightblue" d="M412.02,-145.2C400.51,-133.85 384.23,-117.78 371.18,-104.89"/>
<polygon fill="midnightblue" stroke="midnightblue" points="373.49,-102.26 363.92,-97.73 368.58,-107.25 373.49,-102.26"/>
</g>
<!-- Node6 -->
<g id="node6" class="node">
<title>Node6</title>
<g id="a_node6"><a xlink:title=" ">
<polygon fill="white" stroke="#bfbfbf" points="443.5,-62 443.5,-103 565.5,-103 565.5,-62 443.5,-62"/>
<text text-anchor="start" x="451.5" y="-91" font-family="Helvetica,sans-Serif" font-size="10.00">asm/JSystem/JUtility</text>
<text text-anchor="start" x="451.5" y="-80" font-family="Helvetica,sans-Serif" font-size="10.00">/JUTFont/initialize_state</text>
<text text-anchor="middle" x="504.5" y="-69" font-family="Helvetica,sans-Serif" font-size="10.00">__7JUTFontFv.s</text>
</a>
</g>
</g>
<!-- Node1&#45;&gt;Node6 -->
<g id="edge6" class="edge">
<title>Node1&#45;&gt;Node6</title>
<path fill="none" stroke="midnightblue" d="M441.17,-145.2C451.26,-135.38 464.96,-122.03 477.04,-110.26"/>
<polygon fill="midnightblue" stroke="midnightblue" points="479.58,-112.67 484.3,-103.18 474.7,-107.65 479.58,-112.67"/>
</g>
<!-- Node7 -->
<g id="node7" class="node">
<title>Node7</title>
<g id="a_node7"><a xlink:title=" ">
<polygon fill="white" stroke="#bfbfbf" points="583.5,-62 583.5,-103 749.5,-103 749.5,-62 583.5,-62"/>
<text text-anchor="start" x="591.5" y="-91" font-family="Helvetica,sans-Serif" font-size="10.00">asm/JSystem/JUtility</text>
<text text-anchor="start" x="591.5" y="-80" font-family="Helvetica,sans-Serif" font-size="10.00">/JUTFont/setCharColor</text>
<text text-anchor="middle" x="666.5" y="-69" font-family="Helvetica,sans-Serif" font-size="10.00">__7JUTFontFQ28JUtility6TColor.s</text>
</a>
</g>
</g>
<!-- Node1&#45;&gt;Node7 -->
<g id="edge7" class="edge">
<title>Node1&#45;&gt;Node7</title>
<path fill="none" stroke="midnightblue" d="M470.8,-145.47C505.58,-134.46 554.71,-118.9 595.04,-106.13"/>
<polygon fill="midnightblue" stroke="midnightblue" points="596.35,-109.39 604.83,-103.03 594.24,-102.71 596.35,-109.39"/>
</g>
<!-- Node8 -->
<g id="node8" class="node">
<title>Node8</title>
<g id="a_node8"><a xlink:title=" ">
<polygon fill="white" stroke="#bfbfbf" points="767.5,-56.5 767.5,-108.5 925.5,-108.5 925.5,-56.5 767.5,-56.5"/>
<text text-anchor="start" x="775.5" y="-96.5" font-family="Helvetica,sans-Serif" font-size="10.00">asm/JSystem/JUtility</text>
<text text-anchor="start" x="775.5" y="-85.5" font-family="Helvetica,sans-Serif" font-size="10.00">/JUTFont/setGradColor</text>
<text text-anchor="start" x="775.5" y="-74.5" font-family="Helvetica,sans-Serif" font-size="10.00">__7JUTFontFQ28JUtility6TColor</text>
<text text-anchor="middle" x="846.5" y="-63.5" font-family="Helvetica,sans-Serif" font-size="10.00">Q28JUtility6TColor.s</text>
</a>
</g>
</g>
<!-- Node1&#45;&gt;Node8 -->
<g id="edge8" class="edge">
<title>Node1&#45;&gt;Node8</title>
<path fill="none" stroke="midnightblue" d="M479.51,-153.61C543.31,-146.04 653.81,-131.4 757.46,-109.11"/>
<polygon fill="midnightblue" stroke="midnightblue" points="758.45,-112.48 767.47,-106.93 756.96,-105.64 758.45,-112.48"/>
</g>
<!-- Node9 -->
<g id="node9" class="node">
<title>Node9</title>
<g id="a_node9"><a xlink:title=" ">
<polygon fill="white" stroke="#bfbfbf" points="944,-62 944,-103 1101,-103 1101,-62 944,-62"/>
<text text-anchor="start" x="952" y="-91" font-family="Helvetica,sans-Serif" font-size="10.00">asm/JSystem/JUtility</text>
<text text-anchor="start" x="952" y="-80" font-family="Helvetica,sans-Serif" font-size="10.00">/JUTFont/drawString_size</text>
<text text-anchor="middle" x="1022.5" y="-69" font-family="Helvetica,sans-Serif" font-size="10.00">_scale__7JUTFontFffffPCcUlb.s</text>
</a>
</g>
</g>
<!-- Node1&#45;&gt;Node9 -->
<g id="edge9" class="edge">
<title>Node1&#45;&gt;Node9</title>
<path fill="none" stroke="midnightblue" d="M479.61,-157.42C572.57,-153.07 770.46,-140.64 934.5,-109 939.77,-107.98 945.18,-106.79 950.6,-105.49"/>
<polygon fill="midnightblue" stroke="midnightblue" points="951.5,-108.87 960.35,-103.04 949.8,-102.08 951.5,-108.87"/>
</g>
<!-- Node2&#45;&gt;Node3 -->
<g id="edge2" class="edge">
<title>Node2&#45;&gt;Node3</title>
<path fill="none" stroke="midnightblue" d="M74.39,-72.86C81.94,-61.76 95.23,-42.24 104.86,-28.09"/>
<polygon fill="midnightblue" stroke="midnightblue" points="107.83,-29.95 110.57,-19.72 102.05,-26.01 107.83,-29.95"/>
</g>
</g>
</svg>
        <g id="navigator" transform="translate(0 0)" fill="#404254">
                <rect fill="#f2f5e9" fill-opacity="0.5" stroke="#606060" stroke-width=".5" x="0" y="0" width="60" height="60"/>
                <use id="zoomplus" xlink:href="#zoomPlus" x="17" y="9" onmousedown="handleZoom(evt,'in')"/>
                <use id="zoomminus" xlink:href="#zoomMin" x="42" y="9" onmousedown="handleZoom(evt,'out')"/>
                <use id="reset" xlink:href="#resetDef" x="30" y="36" onmousedown="handleReset()"/>
                <g id="arrowUp" xlink:href="#dirArrow" transform="translate(30 24)" onmousedown="handlePan(0,-1)">
                  <use xlink:href="#rim" fill="#404040">
                        <set attributeName="fill" to="#808080" begin="arrowUp.mouseover" end="arrowUp.mouseout"/>
                  </use>
                  <path fill="none" stroke="white" stroke-width="1.5" d="M0,-3.0v7 M-2.5,-0.5L0,-3.0L2.5,-0.5"/>
                </g>
                <g id="arrowRight" xlink:href="#dirArrow" transform="rotate(90) translate(36 -43)" onmousedown="handlePan(1,0)">
                  <use xlink:href="#rim" fill="#404040">
                        <set attributeName="fill" to="#808080" begin="arrowRight.mouseover" end="arrowRight.mouseout"/>
                  </use>
                  <path fill="none" stroke="white" stroke-width="1.5" d="M0,-3.0v7 M-2.5,-0.5L0,-3.0L2.5,-0.5"/>
                </g>
                <g id="arrowDown" xlink:href="#dirArrow" transform="rotate(180) translate(-30 -48)" onmousedown="handlePan(0,1)">
                  <use xlink:href="#rim" fill="#404040">
                        <set attributeName="fill" to="#808080" begin="arrowDown.mouseover" end="arrowDown.mouseout"/>
                  </use>
                  <path fill="none" stroke="white" stroke-width="1.5" d="M0,-3.0v7 M-2.5,-0.5L0,-3.0L2.5,-0.5"/>
                </g>
                <g id="arrowLeft" xlink:href="#dirArrow" transform="rotate(270) translate(-36 17)" onmousedown="handlePan(-1,0)">
                  <use xlink:href="#rim" fill="#404040">
                        <set attributeName="fill" to="#808080" begin="arrowLeft.mouseover" end="arrowLeft.mouseout"/>
                  </use>
                  <path fill="none" stroke="white" stroke-width="1.5" d="M0,-3.0v7 M-2.5,-0.5L0,-3.0L2.5,-0.5"/>
                </g>
        </g>
        <svg viewBox="0 0 15 15" width="100%" height="30px" preserveAspectRatio="xMaxYMin meet">
         <g id="arrow_out" transform="scale(0.3 0.3)">
          <a xlink:href="JUTFont_8cpp__incl_org.svg" target="_base">
           <rect id="button" ry="5" rx="5" y="6" x="6" height="38" width="38"
                fill="#f2f5e9" fill-opacity="0.5" stroke="#606060" stroke-width="1.0"/>
           <path id="arrow"
             d="M 11.500037,31.436501 C 11.940474,20.09759 22.043105,11.32322 32.158766,21.979434 L 37.068811,17.246167 C 37.068811,17.246167 37.088388,32 37.088388,32 L 22.160133,31.978069 C 22.160133,31.978069 26.997745,27.140456 26.997745,27.140456 C 18.528582,18.264221 13.291696,25.230495 11.500037,31.436501 z"
             style="fill:#404040;"/>
          </a>
         </g>
        </svg>
</svg>
