<?xml version="1.0" encoding="UTF-8" standalone="no"?>
<!DOCTYPE svg PUBLIC "-//W3C//DTD SVG 1.1//EN"
 "http://www.w3.org/Graphics/SVG/1.1/DTD/svg11.dtd">
<!-- Generated by graphviz version 2.47.0 (20210316.2052)
 -->
<!-- Title: libs/JSystem/JUtility/JUTNameTab.cpp Pages: 1 -->
<svg width="1292pt" height="173pt"
 viewBox="0.00 0.00 1292.00 173.00" xmlns="http://www.w3.org/2000/svg" xmlns:xlink="http://www.w3.org/1999/xlink">
<g id="graph0" class="graph" transform="scale(1 1) rotate(0) translate(4 169)">
<title>libs/JSystem/JUtility/JUTNameTab.cpp</title>
<polygon fill="white" stroke="transparent" points="-4,4 -4,-169 1288,-169 1288,4 -4,4"/>
<!-- Node1 -->
<g id="node1" class="node">
<title>Node1</title>
<g id="a_node1"><a xlink:title=" ">
<polygon fill="#bfbfbf" stroke="black" points="490.5,-134.5 490.5,-164.5 596.5,-164.5 596.5,-134.5 490.5,-134.5"/>
<text text-anchor="start" x="498.5" y="-152.5" font-family="Helvetica,sans-Serif" font-size="10.00">libs/JSystem/JUtility</text>
<text text-anchor="middle" x="543.5" y="-141.5" font-family="Helvetica,sans-Serif" font-size="10.00">/JUTNameTab.cpp</text>
</a>
</g>
</g>
<!-- Node2 -->
<g id="node2" class="node">
<title>Node2</title>
<g id="a_node2"><a xlink:href="dol2asm_8h.html" target="_top" xlink:title=" ">
<polygon fill="white" stroke="black" points="0,-67.5 0,-86.5 61,-86.5 61,-67.5 0,-67.5"/>
<text text-anchor="middle" x="30.5" y="-74.5" font-family="Helvetica,sans-Serif" font-size="10.00">dol2asm.h</text>
</a>
</g>
</g>
<!-- Node1&#45;&gt;Node2 -->
<g id="edge1" class="edge">
<title>Node1&#45;&gt;Node2</title>
<path fill="none" stroke="midnightblue" d="M490.23,-148.09C402.34,-146.23 222.08,-137.44 75.5,-98 69,-96.25 62.24,-93.68 55.99,-90.97"/>
<polygon fill="midnightblue" stroke="midnightblue" points="57.26,-87.7 46.72,-86.68 54.32,-94.05 57.26,-87.7"/>
</g>
<!-- Node3 -->
<g id="node3" class="node">
<title>Node3</title>
<g id="a_node3"><a xlink:href="types_8h.html" target="_top" xlink:title=" ">
<polygon fill="white" stroke="black" points="97,-0.5 97,-19.5 178,-19.5 178,-0.5 97,-0.5"/>
<text text-anchor="middle" x="137.5" y="-7.5" font-family="Helvetica,sans-Serif" font-size="10.00">dolphin/types.h</text>
</a>
</g>
</g>
<!-- Node1&#45;&gt;Node3 -->
<g id="edge2" class="edge">
<title>Node1&#45;&gt;Node3</title>
<path fill="none" stroke="midnightblue" d="M490.49,-146.23C380.06,-140.94 133.53,-126.1 108.5,-98 90.59,-77.89 109,-46.39 123.55,-27.32"/>
<polygon fill="midnightblue" stroke="midnightblue" points="126.29,-29.5 129.83,-19.52 120.83,-25.12 126.29,-29.5"/>
</g>
<!-- Node4 -->
<g id="node4" class="node">
<title>Node4</title>
<g id="a_node4"><a xlink:href="JUTNameTab_8h.html" target="_top" xlink:title=" ">
<polygon fill="white" stroke="black" points="117.5,-62 117.5,-92 253.5,-92 253.5,-62 117.5,-62"/>
<text text-anchor="start" x="125.5" y="-80" font-family="Helvetica,sans-Serif" font-size="10.00">JSystem/JUtility/JUTName</text>
<text text-anchor="middle" x="185.5" y="-69" font-family="Helvetica,sans-Serif" font-size="10.00">Tab.h</text>
</a>
</g>
</g>
<!-- Node1&#45;&gt;Node4 -->
<g id="edge3" class="edge">
<title>Node1&#45;&gt;Node4</title>
<path fill="none" stroke="midnightblue" d="M490.38,-140.1C433.89,-130.89 342.04,-115.13 263.5,-98 258.51,-96.91 253.35,-95.72 248.17,-94.49"/>
<polygon fill="midnightblue" stroke="midnightblue" points="248.79,-91.04 238.24,-92.08 247.13,-97.84 248.79,-91.04"/>
</g>
<!-- Node5 -->
<g id="node5" class="node">
<title>Node5</title>
<g id="a_node5"><a xlink:title=" ">
<polygon fill="white" stroke="#bfbfbf" points="272,-56.5 272,-97.5 441,-97.5 441,-56.5 272,-56.5"/>
<text text-anchor="start" x="280" y="-85.5" font-family="Helvetica,sans-Serif" font-size="10.00">asm/JSystem/JUtility</text>
<text text-anchor="start" x="280" y="-74.5" font-family="Helvetica,sans-Serif" font-size="10.00">/JUTNameTab/__ct__10JUTName</text>
<text text-anchor="middle" x="356.5" y="-63.5" font-family="Helvetica,sans-Serif" font-size="10.00">TabFv.s</text>
</a>
</g>
</g>
<!-- Node1&#45;&gt;Node5 -->
<g id="edge5" class="edge">
<title>Node1&#45;&gt;Node5</title>
<path fill="none" stroke="midnightblue" d="M506.11,-134.4C480.92,-124.91 447.12,-112.16 418.02,-101.19"/>
<polygon fill="midnightblue" stroke="midnightblue" points="418.94,-97.8 408.35,-97.55 416.47,-104.35 418.94,-97.8"/>
</g>
<!-- Node6 -->
<g id="node6" class="node">
<title>Node6</title>
<g id="a_node6"><a xlink:title=" ">
<polygon fill="white" stroke="#bfbfbf" points="459,-56.5 459,-97.5 628,-97.5 628,-56.5 459,-56.5"/>
<text text-anchor="start" x="467" y="-85.5" font-family="Helvetica,sans-Serif" font-size="10.00">asm/JSystem/JUtility</text>
<text text-anchor="start" x="467" y="-74.5" font-family="Helvetica,sans-Serif" font-size="10.00">/JUTNameTab/__ct__10JUTName</text>
<text text-anchor="middle" x="543.5" y="-63.5" font-family="Helvetica,sans-Serif" font-size="10.00">TabFPC7ResNTAB.s</text>
</a>
</g>
</g>
<!-- Node1&#45;&gt;Node6 -->
<g id="edge6" class="edge">
<title>Node1&#45;&gt;Node6</title>
<path fill="none" stroke="midnightblue" d="M543.5,-134.23C543.5,-126.57 543.5,-116.84 543.5,-107.63"/>
<polygon fill="midnightblue" stroke="midnightblue" points="547,-107.59 543.5,-97.59 540,-107.59 547,-107.59"/>
</g>
<!-- Node7 -->
<g id="node7" class="node">
<title>Node7</title>
<g id="a_node7"><a xlink:title=" ">
<polygon fill="white" stroke="#bfbfbf" points="645.5,-56.5 645.5,-97.5 821.5,-97.5 821.5,-56.5 645.5,-56.5"/>
<text text-anchor="start" x="653.5" y="-85.5" font-family="Helvetica,sans-Serif" font-size="10.00">asm/JSystem/JUtility</text>
<text text-anchor="start" x="653.5" y="-74.5" font-family="Helvetica,sans-Serif" font-size="10.00">/JUTNameTab/setResource</text>
<text text-anchor="middle" x="733.5" y="-63.5" font-family="Helvetica,sans-Serif" font-size="10.00">__10JUTNameTabFPC7ResNTAB.s</text>
</a>
</g>
</g>
<!-- Node1&#45;&gt;Node7 -->
<g id="edge7" class="edge">
<title>Node1&#45;&gt;Node7</title>
<path fill="none" stroke="midnightblue" d="M581.49,-134.4C607.19,-124.87 641.73,-112.05 671.38,-101.05"/>
<polygon fill="midnightblue" stroke="midnightblue" points="672.66,-104.31 680.82,-97.55 670.23,-97.74 672.66,-104.31"/>
</g>
<!-- Node8 -->
<g id="node8" class="node">
<title>Node8</title>
<g id="a_node8"><a xlink:title=" ">
<polygon fill="white" stroke="#bfbfbf" points="839.5,-56.5 839.5,-97.5 977.5,-97.5 977.5,-56.5 839.5,-56.5"/>
<text text-anchor="start" x="847.5" y="-85.5" font-family="Helvetica,sans-Serif" font-size="10.00">asm/JSystem/JUtility</text>
<text text-anchor="start" x="847.5" y="-74.5" font-family="Helvetica,sans-Serif" font-size="10.00">/JUTNameTab/getIndex</text>
<text text-anchor="middle" x="908.5" y="-63.5" font-family="Helvetica,sans-Serif" font-size="10.00">__10JUTNameTabCFPCc.s</text>
</a>
</g>
</g>
<!-- Node1&#45;&gt;Node8 -->
<g id="edge8" class="edge">
<title>Node1&#45;&gt;Node8</title>
<path fill="none" stroke="midnightblue" d="M596.63,-140.4C652.28,-131.65 742.4,-116.67 829.22,-98.2"/>
<polygon fill="midnightblue" stroke="midnightblue" points="830.2,-101.57 839.24,-96.05 828.73,-94.73 830.2,-101.57"/>
</g>
<!-- Node9 -->
<g id="node9" class="node">
<title>Node9</title>
<g id="a_node9"><a xlink:title=" ">
<polygon fill="white" stroke="#bfbfbf" points="996,-56.5 996,-97.5 1125,-97.5 1125,-56.5 996,-56.5"/>
<text text-anchor="start" x="1004" y="-85.5" font-family="Helvetica,sans-Serif" font-size="10.00">asm/JSystem/JUtility</text>
<text text-anchor="start" x="1004" y="-74.5" font-family="Helvetica,sans-Serif" font-size="10.00">/JUTNameTab/getName_</text>
<text text-anchor="middle" x="1060.5" y="-63.5" font-family="Helvetica,sans-Serif" font-size="10.00">_10JUTNameTabCFUs.s</text>
</a>
</g>
</g>
<!-- Node1&#45;&gt;Node9 -->
<g id="edge9" class="edge">
<title>Node1&#45;&gt;Node9</title>
<path fill="none" stroke="midnightblue" d="M596.74,-145.03C678.44,-139.14 839.72,-125.26 985.62,-98.02"/>
<polygon fill="midnightblue" stroke="midnightblue" points="986.48,-101.42 995.66,-96.12 985.18,-94.54 986.48,-101.42"/>
</g>
<!-- Node10 -->
<g id="node10" class="node">
<title>Node10</title>
<g id="a_node10"><a xlink:title=" ">
<polygon fill="white" stroke="#bfbfbf" points="1143,-56.5 1143,-97.5 1284,-97.5 1284,-56.5 1143,-56.5"/>
<text text-anchor="start" x="1151" y="-85.5" font-family="Helvetica,sans-Serif" font-size="10.00">asm/JSystem/JUtility</text>
<text text-anchor="start" x="1151" y="-74.5" font-family="Helvetica,sans-Serif" font-size="10.00">/JUTNameTab/calcKeyCode</text>
<text text-anchor="middle" x="1213.5" y="-63.5" font-family="Helvetica,sans-Serif" font-size="10.00">__10JUTNameTabCFPCc.s</text>
</a>
</g>
</g>
<!-- Node1&#45;&gt;Node10 -->
<g id="edge10" class="edge">
<title>Node1&#45;&gt;Node10</title>
<path fill="none" stroke="midnightblue" d="M596.84,-146.85C699.22,-143.05 930.39,-131.43 1133.05,-98.11"/>
<polygon fill="midnightblue" stroke="midnightblue" points="1133.7,-101.55 1142.99,-96.46 1132.55,-94.65 1133.7,-101.55"/>
</g>
<!-- Node4&#45;&gt;Node3 -->
<g id="edge4" class="edge">
<title>Node4&#45;&gt;Node3</title>
<path fill="none" stroke="midnightblue" d="M175.08,-61.9C167.67,-51.86 157.69,-38.34 149.87,-27.75"/>
<polygon fill="midnightblue" stroke="midnightblue" points="152.68,-25.66 143.92,-19.69 147.05,-29.82 152.68,-25.66"/>
</g>
</g>
</svg>
