<?xml version="1.0" encoding="UTF-8" standalone="no"?>
<!DOCTYPE svg PUBLIC "-//W3C//DTD SVG 1.1//EN"
 "http://www.w3.org/Graphics/SVG/1.1/DTD/svg11.dtd">
<!-- Generated by graphviz version 2.47.0 (20210316.2052)
 -->
<!-- Title: libs/JSystem/JUtility/JUTVideo.cpp Pages: 1 -->
<svg width="2197pt" height="173pt"
 viewBox="0.00 0.00 2197.00 173.00" xmlns="http://www.w3.org/2000/svg" xmlns:xlink="http://www.w3.org/1999/xlink">
<g id="graph0" class="graph" transform="scale(1 1) rotate(0) translate(4 169)">
<title>libs/JSystem/JUtility/JUTVideo.cpp</title>
<polygon fill="white" stroke="transparent" points="-4,4 -4,-169 2193,-169 2193,4 -4,4"/>
<!-- Node1 -->
<g id="node1" class="node">
<title>Node1</title>
<g id="a_node1"><a xlink:title=" ">
<polygon fill="#bfbfbf" stroke="black" points="956.5,-134.5 956.5,-164.5 1062.5,-164.5 1062.5,-134.5 956.5,-134.5"/>
<text text-anchor="start" x="964.5" y="-152.5" font-family="Helvetica,sans-Serif" font-size="10.00">libs/JSystem/JUtility</text>
<text text-anchor="middle" x="1009.5" y="-141.5" font-family="Helvetica,sans-Serif" font-size="10.00">/JUTVideo.cpp</text>
</a>
</g>
</g>
<!-- Node2 -->
<g id="node2" class="node">
<title>Node2</title>
<g id="a_node2"><a xlink:href="dol2asm_8h.html" target="_top" xlink:title=" ">
<polygon fill="white" stroke="black" points="0,-67.5 0,-86.5 61,-86.5 61,-67.5 0,-67.5"/>
<text text-anchor="middle" x="30.5" y="-74.5" font-family="Helvetica,sans-Serif" font-size="10.00">dol2asm.h</text>
</a>
</g>
</g>
<!-- Node1&#45;&gt;Node2 -->
<g id="edge1" class="edge">
<title>Node1&#45;&gt;Node2</title>
<path fill="none" stroke="midnightblue" d="M956.27,-148.15C784.23,-146.64 244.53,-138.67 75.5,-98 68.85,-96.4 61.95,-93.84 55.62,-91.09"/>
<polygon fill="midnightblue" stroke="midnightblue" points="56.79,-87.77 46.25,-86.7 53.82,-94.11 56.79,-87.77"/>
</g>
<!-- Node3 -->
<g id="node3" class="node">
<title>Node3</title>
<g id="a_node3"><a xlink:href="types_8h.html" target="_top" xlink:title=" ">
<polygon fill="white" stroke="black" points="98,-0.5 98,-19.5 179,-19.5 179,-0.5 98,-0.5"/>
<text text-anchor="middle" x="138.5" y="-7.5" font-family="Helvetica,sans-Serif" font-size="10.00">dolphin/types.h</text>
</a>
</g>
</g>
<!-- Node1&#45;&gt;Node3 -->
<g id="edge2" class="edge">
<title>Node1&#45;&gt;Node3</title>
<path fill="none" stroke="midnightblue" d="M956.48,-147.52C767.68,-143.76 137.76,-128.95 108.5,-98 89.94,-78.37 108.99,-46.71 124.06,-27.48"/>
<polygon fill="midnightblue" stroke="midnightblue" points="126.89,-29.55 130.56,-19.61 121.49,-25.1 126.89,-29.55"/>
</g>
<!-- Node4 -->
<g id="node4" class="node">
<title>Node4</title>
<g id="a_node4"><a xlink:href="JUTVideo_8h.html" target="_top" xlink:title=" ">
<polygon fill="white" stroke="black" points="117.5,-67.5 117.5,-86.5 259.5,-86.5 259.5,-67.5 117.5,-67.5"/>
<text text-anchor="middle" x="188.5" y="-74.5" font-family="Helvetica,sans-Serif" font-size="10.00">JSystem/JUtility/JUTVideo.h</text>
</a>
</g>
</g>
<!-- Node1&#45;&gt;Node4 -->
<g id="edge3" class="edge">
<title>Node1&#45;&gt;Node4</title>
<path fill="none" stroke="midnightblue" d="M956.21,-148.03C834.03,-146.27 524.59,-137.89 269.5,-98 255.7,-95.84 240.81,-92.47 227.6,-89.11"/>
<polygon fill="midnightblue" stroke="midnightblue" points="228.43,-85.71 217.87,-86.56 226.66,-92.48 228.43,-85.71"/>
</g>
<!-- Node5 -->
<g id="node5" class="node">
<title>Node5</title>
<g id="a_node5"><a xlink:title=" ">
<polygon fill="white" stroke="#bfbfbf" points="278,-56.5 278,-97.5 481,-97.5 481,-56.5 278,-56.5"/>
<text text-anchor="start" x="286" y="-85.5" font-family="Helvetica,sans-Serif" font-size="10.00">asm/JSystem/JUtility</text>
<text text-anchor="start" x="286" y="-74.5" font-family="Helvetica,sans-Serif" font-size="10.00">/JUTVideo/createManager</text>
<text text-anchor="middle" x="379.5" y="-63.5" font-family="Helvetica,sans-Serif" font-size="10.00">__8JUTVideoFPC16_GXRenderModeObj.s</text>
</a>
</g>
</g>
<!-- Node1&#45;&gt;Node5 -->
<g id="edge5" class="edge">
<title>Node1&#45;&gt;Node5</title>
<path fill="none" stroke="midnightblue" d="M956.29,-144.76C863.85,-137.94 667.45,-122.08 491.05,-98.02"/>
<polygon fill="midnightblue" stroke="midnightblue" points="491.45,-94.54 481.07,-96.64 490.5,-101.47 491.45,-94.54"/>
</g>
<!-- Node6 -->
<g id="node6" class="node">
<title>Node6</title>
<g id="a_node6"><a xlink:title=" ">
<polygon fill="white" stroke="#bfbfbf" points="499,-56.5 499,-97.5 634,-97.5 634,-56.5 499,-56.5"/>
<text text-anchor="start" x="507" y="-85.5" font-family="Helvetica,sans-Serif" font-size="10.00">asm/JSystem/JUtility</text>
<text text-anchor="start" x="507" y="-74.5" font-family="Helvetica,sans-Serif" font-size="10.00">/JUTVideo/destroyManager</text>
<text text-anchor="middle" x="566.5" y="-63.5" font-family="Helvetica,sans-Serif" font-size="10.00">__8JUTVideoFv.s</text>
</a>
</g>
</g>
<!-- Node1&#45;&gt;Node6 -->
<g id="edge6" class="edge">
<title>Node1&#45;&gt;Node6</title>
<path fill="none" stroke="midnightblue" d="M956.45,-143.15C886.91,-135.7 761.05,-120.73 643.86,-97.95"/>
<polygon fill="midnightblue" stroke="midnightblue" points="644.49,-94.51 634,-96.01 643.14,-101.37 644.49,-94.51"/>
</g>
<!-- Node7 -->
<g id="node7" class="node">
<title>Node7</title>
<g id="a_node7"><a xlink:title=" ">
<polygon fill="white" stroke="#bfbfbf" points="652.5,-56.5 652.5,-97.5 826.5,-97.5 826.5,-56.5 652.5,-56.5"/>
<text text-anchor="start" x="660.5" y="-85.5" font-family="Helvetica,sans-Serif" font-size="10.00">asm/JSystem/JUtility</text>
<text text-anchor="start" x="660.5" y="-74.5" font-family="Helvetica,sans-Serif" font-size="10.00">/JUTVideo/__ct__8JUTVideoFPC16</text>
<text text-anchor="middle" x="739.5" y="-63.5" font-family="Helvetica,sans-Serif" font-size="10.00">_GXRenderModeObj.s</text>
</a>
</g>
</g>
<!-- Node1&#45;&gt;Node7 -->
<g id="edge7" class="edge">
<title>Node1&#45;&gt;Node7</title>
<path fill="none" stroke="midnightblue" d="M956.48,-134.66C918.79,-124.81 867.37,-111.39 824.05,-100.08"/>
<polygon fill="midnightblue" stroke="midnightblue" points="824.93,-96.69 814.37,-97.55 823.16,-103.46 824.93,-96.69"/>
</g>
<!-- Node8 -->
<g id="node8" class="node">
<title>Node8</title>
<g id="a_node8"><a xlink:title=" ">
<polygon fill="white" stroke="#bfbfbf" points="845,-62 845,-92 1008,-92 1008,-62 845,-62"/>
<text text-anchor="start" x="853" y="-80" font-family="Helvetica,sans-Serif" font-size="10.00">asm/JSystem/JUtility</text>
<text text-anchor="middle" x="926.5" y="-69" font-family="Helvetica,sans-Serif" font-size="10.00">/JUTVideo/__dt__8JUTVideoFv.s</text>
</a>
</g>
</g>
<!-- Node1&#45;&gt;Node8 -->
<g id="edge8" class="edge">
<title>Node1&#45;&gt;Node8</title>
<path fill="none" stroke="midnightblue" d="M992.7,-134.23C980.7,-124.04 964.36,-110.16 950.92,-98.74"/>
<polygon fill="midnightblue" stroke="midnightblue" points="952.88,-95.81 942.99,-92 948.34,-101.15 952.88,-95.81"/>
</g>
<!-- Node9 -->
<g id="node9" class="node">
<title>Node9</title>
<g id="a_node9"><a xlink:title=" ">
<polygon fill="white" stroke="#bfbfbf" points="1026.5,-56.5 1026.5,-97.5 1160.5,-97.5 1160.5,-56.5 1026.5,-56.5"/>
<text text-anchor="start" x="1034.5" y="-85.5" font-family="Helvetica,sans-Serif" font-size="10.00">asm/JSystem/JUtility</text>
<text text-anchor="start" x="1034.5" y="-74.5" font-family="Helvetica,sans-Serif" font-size="10.00">/JUTVideo/preRetraceProc</text>
<text text-anchor="middle" x="1093.5" y="-63.5" font-family="Helvetica,sans-Serif" font-size="10.00">__8JUTVideoFUl.s</text>
</a>
</g>
</g>
<!-- Node1&#45;&gt;Node9 -->
<g id="edge9" class="edge">
<title>Node1&#45;&gt;Node9</title>
<path fill="none" stroke="midnightblue" d="M1026.5,-134.23C1036.8,-125.59 1050.26,-114.29 1062.41,-104.09"/>
<polygon fill="midnightblue" stroke="midnightblue" points="1064.75,-106.7 1070.16,-97.59 1060.25,-101.34 1064.75,-106.7"/>
</g>
<!-- Node10 -->
<g id="node10" class="node">
<title>Node10</title>
<g id="a_node10"><a xlink:title=" ">
<polygon fill="white" stroke="#bfbfbf" points="1179,-56.5 1179,-97.5 1310,-97.5 1310,-56.5 1179,-56.5"/>
<text text-anchor="start" x="1187" y="-85.5" font-family="Helvetica,sans-Serif" font-size="10.00">asm/JSystem/JUtility</text>
<text text-anchor="start" x="1187" y="-74.5" font-family="Helvetica,sans-Serif" font-size="10.00">/JUTVideo/drawDoneStart</text>
<text text-anchor="middle" x="1244.5" y="-63.5" font-family="Helvetica,sans-Serif" font-size="10.00">__8JUTVideoFv.s</text>
</a>
</g>
</g>
<!-- Node1&#45;&gt;Node10 -->
<g id="edge10" class="edge">
<title>Node1&#45;&gt;Node10</title>
<path fill="none" stroke="midnightblue" d="M1056.21,-134.49C1088.53,-124.79 1132.23,-111.68 1169.4,-100.53"/>
<polygon fill="midnightblue" stroke="midnightblue" points="1170.62,-103.82 1179.19,-97.59 1168.61,-97.11 1170.62,-103.82"/>
</g>
<!-- Node11 -->
<g id="node11" class="node">
<title>Node11</title>
<g id="a_node11"><a xlink:title=" ">
<polygon fill="white" stroke="#bfbfbf" points="1328.5,-56.5 1328.5,-97.5 1480.5,-97.5 1480.5,-56.5 1328.5,-56.5"/>
<text text-anchor="start" x="1336.5" y="-85.5" font-family="Helvetica,sans-Serif" font-size="10.00">asm/JSystem/JUtility</text>
<text text-anchor="start" x="1336.5" y="-74.5" font-family="Helvetica,sans-Serif" font-size="10.00">/JUTVideo/dummyNoDrawWait</text>
<text text-anchor="middle" x="1404.5" y="-63.5" font-family="Helvetica,sans-Serif" font-size="10.00">__8JUTVideoFv.s</text>
</a>
</g>
</g>
<!-- Node1&#45;&gt;Node11 -->
<g id="edge11" class="edge">
<title>Node1&#45;&gt;Node11</title>
<path fill="none" stroke="midnightblue" d="M1062.63,-140.99C1122.48,-132.28 1222.84,-116.9 1318.28,-98.18"/>
<polygon fill="midnightblue" stroke="midnightblue" points="1318.97,-101.61 1328.1,-96.24 1317.61,-94.75 1318.97,-101.61"/>
</g>
<!-- Node12 -->
<g id="node12" class="node">
<title>Node12</title>
<g id="a_node12"><a xlink:title=" ">
<polygon fill="white" stroke="#bfbfbf" points="1499,-56.5 1499,-97.5 1646,-97.5 1646,-56.5 1499,-56.5"/>
<text text-anchor="start" x="1507" y="-85.5" font-family="Helvetica,sans-Serif" font-size="10.00">asm/JSystem/JUtility</text>
<text text-anchor="start" x="1507" y="-74.5" font-family="Helvetica,sans-Serif" font-size="10.00">/JUTVideo/drawDoneCallback</text>
<text text-anchor="middle" x="1572.5" y="-63.5" font-family="Helvetica,sans-Serif" font-size="10.00">__8JUTVideoFv.s</text>
</a>
</g>
</g>
<!-- Node1&#45;&gt;Node12 -->
<g id="edge12" class="edge">
<title>Node1&#45;&gt;Node12</title>
<path fill="none" stroke="midnightblue" d="M1062.73,-145.2C1149.8,-139.3 1328.19,-125.1 1488.78,-98"/>
<polygon fill="midnightblue" stroke="midnightblue" points="1489.57,-101.42 1498.84,-96.28 1488.39,-94.52 1489.57,-101.42"/>
</g>
<!-- Node13 -->
<g id="node13" class="node">
<title>Node13</title>
<g id="a_node13"><a xlink:title=" ">
<polygon fill="white" stroke="#bfbfbf" points="1664,-56.5 1664,-97.5 1803,-97.5 1803,-56.5 1664,-56.5"/>
<text text-anchor="start" x="1672" y="-85.5" font-family="Helvetica,sans-Serif" font-size="10.00">asm/JSystem/JUtility</text>
<text text-anchor="start" x="1672" y="-74.5" font-family="Helvetica,sans-Serif" font-size="10.00">/JUTVideo/postRetraceProc</text>
<text text-anchor="middle" x="1733.5" y="-63.5" font-family="Helvetica,sans-Serif" font-size="10.00">__8JUTVideoFUl.s</text>
</a>
</g>
</g>
<!-- Node1&#45;&gt;Node13 -->
<g id="edge13" class="edge">
<title>Node1&#45;&gt;Node13</title>
<path fill="none" stroke="midnightblue" d="M1062.63,-147.45C1171.9,-144.62 1429.73,-134.5 1653.91,-98.13"/>
<polygon fill="midnightblue" stroke="midnightblue" points="1654.59,-101.56 1663.89,-96.49 1653.45,-94.65 1654.59,-101.56"/>
</g>
<!-- Node14 -->
<g id="node14" class="node">
<title>Node14</title>
<g id="a_node14"><a xlink:title=" ">
<polygon fill="white" stroke="#bfbfbf" points="1821,-56.5 1821,-97.5 2024,-97.5 2024,-56.5 1821,-56.5"/>
<text text-anchor="start" x="1829" y="-85.5" font-family="Helvetica,sans-Serif" font-size="10.00">asm/JSystem/JUtility</text>
<text text-anchor="start" x="1829" y="-74.5" font-family="Helvetica,sans-Serif" font-size="10.00">/JUTVideo/setRenderMode</text>
<text text-anchor="middle" x="1922.5" y="-63.5" font-family="Helvetica,sans-Serif" font-size="10.00">__8JUTVideoFPC16_GXRenderModeObj.s</text>
</a>
</g>
</g>
<!-- Node1&#45;&gt;Node14 -->
<g id="edge14" class="edge">
<title>Node1&#45;&gt;Node14</title>
<path fill="none" stroke="midnightblue" d="M1062.79,-147.3C1190.35,-143.98 1523.44,-132.55 1810.78,-98.14"/>
<polygon fill="midnightblue" stroke="midnightblue" points="1811.47,-101.58 1820.98,-96.91 1810.63,-94.63 1811.47,-101.58"/>
</g>
<!-- Node15 -->
<g id="node15" class="node">
<title>Node15</title>
<g id="a_node15"><a xlink:title=" ">
<polygon fill="white" stroke="#bfbfbf" points="2042,-56.5 2042,-97.5 2189,-97.5 2189,-56.5 2042,-56.5"/>
<text text-anchor="start" x="2050" y="-85.5" font-family="Helvetica,sans-Serif" font-size="10.00">asm/JSystem/JUtility</text>
<text text-anchor="start" x="2050" y="-74.5" font-family="Helvetica,sans-Serif" font-size="10.00">/JUTVideo/waitRetraceIfNeed</text>
<text text-anchor="middle" x="2115.5" y="-63.5" font-family="Helvetica,sans-Serif" font-size="10.00">__8JUTVideoFv.s</text>
</a>
</g>
</g>
<!-- Node1&#45;&gt;Node15 -->
<g id="edge15" class="edge">
<title>Node1&#45;&gt;Node15</title>
<path fill="none" stroke="midnightblue" d="M1062.75,-147.21C1242.11,-142.66 1824.09,-126.18 2031.96,-98.05"/>
<polygon fill="midnightblue" stroke="midnightblue" points="2032.46,-101.51 2041.87,-96.66 2031.48,-94.58 2032.46,-101.51"/>
</g>
<!-- Node4&#45;&gt;Node3 -->
<g id="edge4" class="edge">
<title>Node4&#45;&gt;Node3</title>
<path fill="none" stroke="midnightblue" d="M181.76,-67.23C173.96,-57.1 160.95,-40.19 151.24,-27.56"/>
<polygon fill="midnightblue" stroke="midnightblue" points="154.01,-25.42 145.14,-19.63 148.46,-29.69 154.01,-25.42"/>
</g>
</g>
</svg>
