<?xml version="1.0" encoding="UTF-8" standalone="no"?>
<!DOCTYPE svg PUBLIC "-//W3C//DTD SVG 1.1//EN"
 "http://www.w3.org/Graphics/SVG/1.1/DTD/svg11.dtd">
<!-- Generated by graphviz version 2.47.0 (20210316.2052)
 -->
<!-- Title: libs/JSystem/JUtility/JUTVideo.cpp Pages: 1 -->
<!--zoomable 173 -->
<svg id="main" version="1.1" xmlns="http://www.w3.org/2000/svg" xmlns:xlink="http://www.w3.org/1999/xlink" xml:space="preserve" onload="init(evt)">
<style type="text/css"><![CDATA[
.edge:hover path { stroke: red; }
.edge:hover polygon { stroke: red; fill: red; }
]]></style>
<script type="text/javascript"><![CDATA[
var edges = document.getElementsByTagName('g');
if (edges && edges.length) {
  for (var i=0;i<edges.length;i++) {
    if (edges[i].id.substr(0,4)=='edge') {
      edges[i].setAttribute('class','edge');
    }
  }
}
]]></script>
        <defs>
                <circle id="rim" cx="0" cy="0" r="7"/>
                <circle id="rim2" cx="0" cy="0" r="3.5"/>
                <g id="zoomPlus">
                        <use xlink:href="#rim" fill="#404040">
                                <set attributeName="fill" to="#808080" begin="zoomplus.mouseover" end="zoomplus.mouseout"/>
                        </use>
                        <path d="M-4,0h8M0,-4v8" fill="none" stroke="white" stroke-width="1.5" pointer-events="none"/>
                </g>
                <g id="zoomMin">
                        <use xlink:href="#rim" fill="#404040">
                                <set attributeName="fill" to="#808080" begin="zoomminus.mouseover" end="zoomminus.mouseout"/>
                        </use>
                        <path d="M-4,0h8" fill="none" stroke="white" stroke-width="1.5" pointer-events="none"/>
                </g>
                <g id="dirArrow">
                        <path fill="none" stroke="white" stroke-width="1.5" d="M0,-3.0v7 M-2.5,-0.5L0,-3.0L2.5,-0.5"/>
                </g>
               <g id="resetDef">
                       <use xlink:href="#rim2" fill="#404040">
                               <set attributeName="fill" to="#808080" begin="reset.mouseover" end="reset.mouseout"/>
                       </use>
               </g>
        </defs>

<script type="text/javascript">
var viewWidth = 2032;
var viewHeight = 173;
var sectionId = 'dynsection-0';
</script>
<script xlink:href="svgpan.js"/>
<svg id="graph" class="graph">
<g id="viewport">
<title>libs/JSystem/JUtility/JUTVideo.cpp</title>
<polygon fill="white" stroke="transparent" points="-4,4 -4,-169 2028,-169 2028,4 -4,4"/>
<!-- Node1 -->
<g id="node1" class="node">
<title>Node1</title>
<g id="a_node1"><a xlink:title=" ">
<polygon fill="#bfbfbf" stroke="black" points="873.5,-134.5 873.5,-164.5 979.5,-164.5 979.5,-134.5 873.5,-134.5"/>
<text text-anchor="start" x="881.5" y="-152.5" font-family="Helvetica,sans-Serif" font-size="10.00">libs/JSystem/JUtility</text>
<text text-anchor="middle" x="926.5" y="-141.5" font-family="Helvetica,sans-Serif" font-size="10.00">/JUTVideo.cpp</text>
</a>
</g>
</g>
<!-- Node2 -->
<g id="node2" class="node">
<title>Node2</title>
<g id="a_node2"><a xlink:href="dol2asm_8h.html" target="_top" xlink:title=" ">
<polygon fill="white" stroke="black" points="0,-67.5 0,-86.5 61,-86.5 61,-67.5 0,-67.5"/>
<text text-anchor="middle" x="30.5" y="-74.5" font-family="Helvetica,sans-Serif" font-size="10.00">dol2asm.h</text>
</a>
</g>
</g>
<!-- Node1&#45;&gt;Node2 -->
<g id="edge1" class="edge">
<title>Node1&#45;&gt;Node2</title>
<path fill="none" stroke="midnightblue" d="M873.23,-147.83C711.51,-145.39 227.93,-135.1 75.5,-98 68.85,-96.38 61.96,-93.82 55.63,-91.06"/>
<polygon fill="midnightblue" stroke="midnightblue" points="56.79,-87.74 46.25,-86.68 53.83,-94.08 56.79,-87.74"/>
</g>
<!-- Node3 -->
<g id="node3" class="node">
<title>Node3</title>
<g id="a_node3"><a xlink:href="types_8h.html" target="_top" xlink:title=" ">
<polygon fill="white" stroke="black" points="98,-0.5 98,-19.5 179,-19.5 179,-0.5 98,-0.5"/>
<text text-anchor="middle" x="138.5" y="-7.5" font-family="Helvetica,sans-Serif" font-size="10.00">dolphin/types.h</text>
</a>
</g>
</g>
<!-- Node1&#45;&gt;Node3 -->
<g id="edge2" class="edge">
<title>Node1&#45;&gt;Node3</title>
<path fill="none" stroke="midnightblue" d="M873.22,-147.2C695.81,-142.6 134.74,-125.91 108.5,-98 89.99,-78.32 109.03,-46.68 124.08,-27.46"/>
<polygon fill="midnightblue" stroke="midnightblue" points="126.9,-29.54 130.57,-19.6 121.5,-25.09 126.9,-29.54"/>
</g>
<!-- Node4 -->
<g id="node4" class="node">
<title>Node4</title>
<g id="a_node4"><a xlink:href="JUTVideo_8h.html" target="_top" xlink:title=" ">
<polygon fill="white" stroke="black" points="117.5,-67.5 117.5,-86.5 259.5,-86.5 259.5,-67.5 117.5,-67.5"/>
<text text-anchor="middle" x="188.5" y="-74.5" font-family="Helvetica,sans-Serif" font-size="10.00">JSystem/JUtility/JUTVideo.h</text>
</a>
</g>
</g>
<!-- Node1&#45;&gt;Node4 -->
<g id="edge3" class="edge">
<title>Node1&#45;&gt;Node4</title>
<path fill="none" stroke="midnightblue" d="M873.35,-147.39C761.12,-144.39 492.01,-133.77 269.5,-98 255.96,-95.82 241.35,-92.52 228.32,-89.22"/>
<polygon fill="midnightblue" stroke="midnightblue" points="228.82,-85.74 218.26,-86.6 227.06,-92.51 228.82,-85.74"/>
</g>
<!-- Node5 -->
<g id="node5" class="node">
<title>Node5</title>
<g id="a_node5"><a xlink:title=" ">
<polygon fill="white" stroke="#bfbfbf" points="278,-56.5 278,-97.5 481,-97.5 481,-56.5 278,-56.5"/>
<text text-anchor="start" x="286" y="-85.5" font-family="Helvetica,sans-Serif" font-size="10.00">asm/JSystem/JUtility</text>
<text text-anchor="start" x="286" y="-74.5" font-family="Helvetica,sans-Serif" font-size="10.00">/JUTVideo/createManager</text>
<text text-anchor="middle" x="379.5" y="-63.5" font-family="Helvetica,sans-Serif" font-size="10.00">__8JUTVideoFPC16_GXRenderModeObj.s</text>
</a>
</g>
</g>
<!-- Node1&#45;&gt;Node5 -->
<g id="edge5" class="edge">
<title>Node1&#45;&gt;Node5</title>
<path fill="none" stroke="midnightblue" d="M873.34,-143.43C792.92,-135.53 635.35,-119.1 491.01,-98.03"/>
<polygon fill="midnightblue" stroke="midnightblue" points="491.48,-94.56 481.08,-96.57 490.47,-101.48 491.48,-94.56"/>
</g>
<!-- Node6 -->
<g id="node6" class="node">
<title>Node6</title>
<g id="a_node6"><a xlink:title=" ">
<polygon fill="white" stroke="#bfbfbf" points="499,-56.5 499,-97.5 634,-97.5 634,-56.5 499,-56.5"/>
<text text-anchor="start" x="507" y="-85.5" font-family="Helvetica,sans-Serif" font-size="10.00">asm/JSystem/JUtility</text>
<text text-anchor="start" x="507" y="-74.5" font-family="Helvetica,sans-Serif" font-size="10.00">/JUTVideo/destroyManager</text>
<text text-anchor="middle" x="566.5" y="-63.5" font-family="Helvetica,sans-Serif" font-size="10.00">__8JUTVideoFv.s</text>
</a>
</g>
</g>
<!-- Node1&#45;&gt;Node6 -->
<g id="edge6" class="edge">
<title>Node1&#45;&gt;Node6</title>
<path fill="none" stroke="midnightblue" d="M873.32,-140.27C818.37,-131.49 729.96,-116.57 643.96,-98.02"/>
<polygon fill="midnightblue" stroke="midnightblue" points="644.55,-94.56 634.03,-95.86 643.06,-101.4 644.55,-94.56"/>
</g>
<!-- Node7 -->
<g id="node7" class="node">
<title>Node7</title>
<g id="a_node7"><a xlink:title=" ">
<polygon fill="white" stroke="#bfbfbf" points="652.5,-56.5 652.5,-97.5 826.5,-97.5 826.5,-56.5 652.5,-56.5"/>
<text text-anchor="start" x="660.5" y="-85.5" font-family="Helvetica,sans-Serif" font-size="10.00">asm/JSystem/JUtility</text>
<text text-anchor="start" x="660.5" y="-74.5" font-family="Helvetica,sans-Serif" font-size="10.00">/JUTVideo/__ct__8JUTVideoFPC16</text>
<text text-anchor="middle" x="739.5" y="-63.5" font-family="Helvetica,sans-Serif" font-size="10.00">_GXRenderModeObj.s</text>
</a>
</g>
</g>
<!-- Node1&#45;&gt;Node7 -->
<g id="edge7" class="edge">
<title>Node1&#45;&gt;Node7</title>
<path fill="none" stroke="midnightblue" d="M889.11,-134.4C863.92,-124.91 830.12,-112.16 801.02,-101.19"/>
<polygon fill="midnightblue" stroke="midnightblue" points="801.94,-97.8 791.35,-97.55 799.47,-104.35 801.94,-97.8"/>
</g>
<!-- Node8 -->
<g id="node8" class="node">
<title>Node8</title>
<g id="a_node8"><a xlink:title=" ">
<polygon fill="white" stroke="#bfbfbf" points="845,-62 845,-92 1008,-92 1008,-62 845,-62"/>
<text text-anchor="start" x="853" y="-80" font-family="Helvetica,sans-Serif" font-size="10.00">asm/JSystem/JUtility</text>
<text text-anchor="middle" x="926.5" y="-69" font-family="Helvetica,sans-Serif" font-size="10.00">/JUTVideo/__dt__8JUTVideoFv.s</text>
</a>
</g>
</g>
<!-- Node1&#45;&gt;Node8 -->
<g id="edge8" class="edge">
<title>Node1&#45;&gt;Node8</title>
<path fill="none" stroke="midnightblue" d="M926.5,-134.23C926.5,-125.16 926.5,-113.16 926.5,-102.58"/>
<polygon fill="midnightblue" stroke="midnightblue" points="930,-102.25 926.5,-92.25 923,-102.25 930,-102.25"/>
</g>
<!-- Node9 -->
<g id="node9" class="node">
<title>Node9</title>
<g id="a_node9"><a xlink:title=" ">
<polygon fill="white" stroke="#bfbfbf" points="1026.5,-56.5 1026.5,-97.5 1160.5,-97.5 1160.5,-56.5 1026.5,-56.5"/>
<text text-anchor="start" x="1034.5" y="-85.5" font-family="Helvetica,sans-Serif" font-size="10.00">asm/JSystem/JUtility</text>
<text text-anchor="start" x="1034.5" y="-74.5" font-family="Helvetica,sans-Serif" font-size="10.00">/JUTVideo/preRetraceProc</text>
<text text-anchor="middle" x="1093.5" y="-63.5" font-family="Helvetica,sans-Serif" font-size="10.00">__8JUTVideoFUl.s</text>
</a>
</g>
</g>
<!-- Node1&#45;&gt;Node9 -->
<g id="edge9" class="edge">
<title>Node1&#45;&gt;Node9</title>
<path fill="none" stroke="midnightblue" d="M959.89,-134.4C982.19,-124.99 1012.05,-112.39 1037.88,-101.48"/>
<polygon fill="midnightblue" stroke="midnightblue" points="1039.35,-104.66 1047.2,-97.55 1036.62,-98.21 1039.35,-104.66"/>
</g>
<!-- Node10 -->
<g id="node10" class="node">
<title>Node10</title>
<g id="a_node10"><a xlink:title=" ">
<polygon fill="white" stroke="#bfbfbf" points="1179,-56.5 1179,-97.5 1310,-97.5 1310,-56.5 1179,-56.5"/>
<text text-anchor="start" x="1187" y="-85.5" font-family="Helvetica,sans-Serif" font-size="10.00">asm/JSystem/JUtility</text>
<text text-anchor="start" x="1187" y="-74.5" font-family="Helvetica,sans-Serif" font-size="10.00">/JUTVideo/drawDoneStart</text>
<text text-anchor="middle" x="1244.5" y="-63.5" font-family="Helvetica,sans-Serif" font-size="10.00">__8JUTVideoFv.s</text>
</a>
</g>
</g>
<!-- Node1&#45;&gt;Node10 -->
<g id="edge10" class="edge">
<title>Node1&#45;&gt;Node10</title>
<path fill="none" stroke="midnightblue" d="M979.78,-138.31C1026.92,-129.1 1097.79,-114.77 1168.7,-98.13"/>
<polygon fill="midnightblue" stroke="midnightblue" points="1169.77,-101.47 1178.7,-95.77 1168.17,-94.66 1169.77,-101.47"/>
</g>
<!-- Node11 -->
<g id="node11" class="node">
<title>Node11</title>
<g id="a_node11"><a xlink:title=" ">
<polygon fill="white" stroke="#bfbfbf" points="1328.5,-56.5 1328.5,-97.5 1480.5,-97.5 1480.5,-56.5 1328.5,-56.5"/>
<text text-anchor="start" x="1336.5" y="-85.5" font-family="Helvetica,sans-Serif" font-size="10.00">asm/JSystem/JUtility</text>
<text text-anchor="start" x="1336.5" y="-74.5" font-family="Helvetica,sans-Serif" font-size="10.00">/JUTVideo/dummyNoDrawWait</text>
<text text-anchor="middle" x="1404.5" y="-63.5" font-family="Helvetica,sans-Serif" font-size="10.00">__8JUTVideoFv.s</text>
</a>
</g>
</g>
<!-- Node1&#45;&gt;Node11 -->
<g id="edge11" class="edge">
<title>Node1&#45;&gt;Node11</title>
<path fill="none" stroke="midnightblue" d="M979.53,-143.44C1053.36,-136.02 1191.44,-120.72 1318.24,-98.14"/>
<polygon fill="midnightblue" stroke="midnightblue" points="1318.9,-101.58 1328.12,-96.36 1317.66,-94.69 1318.9,-101.58"/>
</g>
<!-- Node12 -->
<g id="node12" class="node">
<title>Node12</title>
<g id="a_node12"><a xlink:title=" ">
<polygon fill="white" stroke="#bfbfbf" points="1499,-56.5 1499,-97.5 1646,-97.5 1646,-56.5 1499,-56.5"/>
<text text-anchor="start" x="1507" y="-85.5" font-family="Helvetica,sans-Serif" font-size="10.00">asm/JSystem/JUtility</text>
<text text-anchor="start" x="1507" y="-74.5" font-family="Helvetica,sans-Serif" font-size="10.00">/JUTVideo/drawDoneCallback</text>
<text text-anchor="middle" x="1572.5" y="-63.5" font-family="Helvetica,sans-Serif" font-size="10.00">__8JUTVideoFv.s</text>
</a>
</g>
</g>
<!-- Node1&#45;&gt;Node12 -->
<g id="edge12" class="edge">
<title>Node1&#45;&gt;Node12</title>
<path fill="none" stroke="midnightblue" d="M979.61,-146.34C1078.14,-141.77 1295.97,-129.01 1488.81,-97.98"/>
<polygon fill="midnightblue" stroke="midnightblue" points="1489.54,-101.4 1498.85,-96.34 1488.42,-94.5 1489.54,-101.4"/>
</g>
<!-- Node13 -->
<g id="node13" class="node">
<title>Node13</title>
<g id="a_node13"><a xlink:title=" ">
<polygon fill="white" stroke="#bfbfbf" points="1664,-56.5 1664,-97.5 1803,-97.5 1803,-56.5 1664,-56.5"/>
<text text-anchor="start" x="1672" y="-85.5" font-family="Helvetica,sans-Serif" font-size="10.00">asm/JSystem/JUtility</text>
<text text-anchor="start" x="1672" y="-74.5" font-family="Helvetica,sans-Serif" font-size="10.00">/JUTVideo/postRetraceProc</text>
<text text-anchor="middle" x="1733.5" y="-63.5" font-family="Helvetica,sans-Serif" font-size="10.00">__8JUTVideoFUl.s</text>
</a>
</g>
</g>
<!-- Node1&#45;&gt;Node13 -->
<g id="edge13" class="edge">
<title>Node1&#45;&gt;Node13</title>
<path fill="none" stroke="midnightblue" d="M979.93,-148.11C1099.43,-146.54 1397.32,-138.65 1654.01,-98.1"/>
<polygon fill="midnightblue" stroke="midnightblue" points="1654.57,-101.55 1663.89,-96.52 1653.46,-94.64 1654.57,-101.55"/>
</g>
<!-- Node14 -->
<g id="node14" class="node">
<title>Node14</title>
<g id="a_node14"><a xlink:title=" ">
<polygon fill="white" stroke="#bfbfbf" points="1821,-56.5 1821,-97.5 2024,-97.5 2024,-56.5 1821,-56.5"/>
<text text-anchor="start" x="1829" y="-85.5" font-family="Helvetica,sans-Serif" font-size="10.00">asm/JSystem/JUtility</text>
<text text-anchor="start" x="1829" y="-74.5" font-family="Helvetica,sans-Serif" font-size="10.00">/JUTVideo/setRenderMode</text>
<text text-anchor="middle" x="1922.5" y="-63.5" font-family="Helvetica,sans-Serif" font-size="10.00">__8JUTVideoFPC16_GXRenderModeObj.s</text>
</a>
</g>
</g>
<!-- Node1&#45;&gt;Node14 -->
<g id="edge14" class="edge">
<title>Node1&#45;&gt;Node14</title>
<path fill="none" stroke="midnightblue" d="M979.63,-147.75C1116.12,-145.32 1490.33,-135.6 1811.03,-98.1"/>
<polygon fill="midnightblue" stroke="midnightblue" points="1811.46,-101.58 1820.98,-96.93 1810.64,-94.62 1811.46,-101.58"/>
</g>
<!-- Node4&#45;&gt;Node3 -->
<g id="edge4" class="edge">
<title>Node4&#45;&gt;Node3</title>
<path fill="none" stroke="midnightblue" d="M181.76,-67.23C173.96,-57.1 160.95,-40.19 151.24,-27.56"/>
<polygon fill="midnightblue" stroke="midnightblue" points="154.01,-25.42 145.14,-19.63 148.46,-29.69 154.01,-25.42"/>
</g>
</g>
</svg>
        <g id="navigator" transform="translate(0 0)" fill="#404254">
                <rect fill="#f2f5e9" fill-opacity="0.5" stroke="#606060" stroke-width=".5" x="0" y="0" width="60" height="60"/>
                <use id="zoomplus" xlink:href="#zoomPlus" x="17" y="9" onmousedown="handleZoom(evt,'in')"/>
                <use id="zoomminus" xlink:href="#zoomMin" x="42" y="9" onmousedown="handleZoom(evt,'out')"/>
                <use id="reset" xlink:href="#resetDef" x="30" y="36" onmousedown="handleReset()"/>
                <g id="arrowUp" xlink:href="#dirArrow" transform="translate(30 24)" onmousedown="handlePan(0,-1)">
                  <use xlink:href="#rim" fill="#404040">
                        <set attributeName="fill" to="#808080" begin="arrowUp.mouseover" end="arrowUp.mouseout"/>
                  </use>
                  <path fill="none" stroke="white" stroke-width="1.5" d="M0,-3.0v7 M-2.5,-0.5L0,-3.0L2.5,-0.5"/>
                </g>
                <g id="arrowRight" xlink:href="#dirArrow" transform="rotate(90) translate(36 -43)" onmousedown="handlePan(1,0)">
                  <use xlink:href="#rim" fill="#404040">
                        <set attributeName="fill" to="#808080" begin="arrowRight.mouseover" end="arrowRight.mouseout"/>
                  </use>
                  <path fill="none" stroke="white" stroke-width="1.5" d="M0,-3.0v7 M-2.5,-0.5L0,-3.0L2.5,-0.5"/>
                </g>
                <g id="arrowDown" xlink:href="#dirArrow" transform="rotate(180) translate(-30 -48)" onmousedown="handlePan(0,1)">
                  <use xlink:href="#rim" fill="#404040">
                        <set attributeName="fill" to="#808080" begin="arrowDown.mouseover" end="arrowDown.mouseout"/>
                  </use>
                  <path fill="none" stroke="white" stroke-width="1.5" d="M0,-3.0v7 M-2.5,-0.5L0,-3.0L2.5,-0.5"/>
                </g>
                <g id="arrowLeft" xlink:href="#dirArrow" transform="rotate(270) translate(-36 17)" onmousedown="handlePan(-1,0)">
                  <use xlink:href="#rim" fill="#404040">
                        <set attributeName="fill" to="#808080" begin="arrowLeft.mouseover" end="arrowLeft.mouseout"/>
                  </use>
                  <path fill="none" stroke="white" stroke-width="1.5" d="M0,-3.0v7 M-2.5,-0.5L0,-3.0L2.5,-0.5"/>
                </g>
        </g>
        <svg viewBox="0 0 15 15" width="100%" height="30px" preserveAspectRatio="xMaxYMin meet">
         <g id="arrow_out" transform="scale(0.3 0.3)">
          <a xlink:href="JUTVideo_8cpp__incl_org.svg" target="_base">
           <rect id="button" ry="5" rx="5" y="6" x="6" height="38" width="38"
                fill="#f2f5e9" fill-opacity="0.5" stroke="#606060" stroke-width="1.0"/>
           <path id="arrow"
             d="M 11.500037,31.436501 C 11.940474,20.09759 22.043105,11.32322 32.158766,21.979434 L 37.068811,17.246167 C 37.068811,17.246167 37.088388,32 37.088388,32 L 22.160133,31.978069 C 22.160133,31.978069 26.997745,27.140456 26.997745,27.140456 C 18.528582,18.264221 13.291696,25.230495 11.500037,31.436501 z"
             style="fill:#404040;"/>
          </a>
         </g>
        </svg>
</svg>
