<?xml version="1.0" encoding="UTF-8" standalone="no"?>
<!DOCTYPE svg PUBLIC "-//W3C//DTD SVG 1.1//EN"
 "http://www.w3.org/Graphics/SVG/1.1/DTD/svg11.dtd">
<!-- Generated by graphviz version 2.47.0 (20210316.2052)
 -->
<!-- Title: libs/JSystem/JMessage/locale.cpp Pages: 1 -->
<svg width="692pt" height="173pt"
 viewBox="0.00 0.00 691.50 173.00" xmlns="http://www.w3.org/2000/svg" xmlns:xlink="http://www.w3.org/1999/xlink">
<g id="graph0" class="graph" transform="scale(1 1) rotate(0) translate(4 169)">
<title>libs/JSystem/JMessage/locale.cpp</title>
<polygon fill="white" stroke="transparent" points="-4,4 -4,-169 687.5,-169 687.5,4 -4,4"/>
<!-- Node1 -->
<g id="node1" class="node">
<title>Node1</title>
<g id="a_node1"><a xlink:title=" ">
<polygon fill="#bfbfbf" stroke="black" points="127,-134.5 127,-164.5 248,-164.5 248,-134.5 127,-134.5"/>
<text text-anchor="start" x="135" y="-152.5" font-family="Helvetica,sans-Serif" font-size="10.00">libs/JSystem/JMessage</text>
<text text-anchor="middle" x="187.5" y="-141.5" font-family="Helvetica,sans-Serif" font-size="10.00">/locale.cpp</text>
</a>
</g>
</g>
<!-- Node2 -->
<g id="node2" class="node">
<title>Node2</title>
<g id="a_node2"><a xlink:href="dol2asm_8h.html" target="_top" xlink:title=" ">
<polygon fill="white" stroke="black" points="0,-67.5 0,-86.5 61,-86.5 61,-67.5 0,-67.5"/>
<text text-anchor="middle" x="30.5" y="-74.5" font-family="Helvetica,sans-Serif" font-size="10.00">dol2asm.h</text>
</a>
</g>
</g>
<!-- Node1&#45;&gt;Node2 -->
<g id="edge1" class="edge">
<title>Node1&#45;&gt;Node2</title>
<path fill="none" stroke="midnightblue" d="M156.11,-134.4C127.73,-121.66 86.33,-103.07 58.92,-90.76"/>
<polygon fill="midnightblue" stroke="midnightblue" points="60.06,-87.44 49.5,-86.53 57.19,-93.82 60.06,-87.44"/>
</g>
<!-- Node3 -->
<g id="node3" class="node">
<title>Node3</title>
<g id="a_node3"><a xlink:href="types_8h.html" target="_top" xlink:title=" ">
<polygon fill="white" stroke="black" points="98,-0.5 98,-19.5 179,-19.5 179,-0.5 98,-0.5"/>
<text text-anchor="middle" x="138.5" y="-7.5" font-family="Helvetica,sans-Serif" font-size="10.00">dolphin/types.h</text>
</a>
</g>
</g>
<!-- Node1&#45;&gt;Node3 -->
<g id="edge2" class="edge">
<title>Node1&#45;&gt;Node3</title>
<path fill="none" stroke="midnightblue" d="M151.05,-134.46C135.29,-126.35 118.44,-114.44 109.5,-98 100.58,-81.6 104.23,-73.91 109.5,-56 112.51,-45.76 118.65,-35.66 124.51,-27.63"/>
<polygon fill="midnightblue" stroke="midnightblue" points="127.43,-29.58 130.83,-19.54 121.91,-25.27 127.43,-29.58"/>
</g>
<!-- Node4 -->
<g id="node4" class="node">
<title>Node4</title>
<g id="a_node4"><a xlink:href="locale_8h.html" target="_top" xlink:title=" ">
<polygon fill="white" stroke="black" points="118,-67.5 118,-86.5 257,-86.5 257,-67.5 118,-67.5"/>
<text text-anchor="middle" x="187.5" y="-74.5" font-family="Helvetica,sans-Serif" font-size="10.00">JSystem/JMessage/locale.h</text>
</a>
</g>
</g>
<!-- Node1&#45;&gt;Node4 -->
<g id="edge3" class="edge">
<title>Node1&#45;&gt;Node4</title>
<path fill="none" stroke="midnightblue" d="M187.5,-134.23C187.5,-123.5 187.5,-108.69 187.5,-96.96"/>
<polygon fill="midnightblue" stroke="midnightblue" points="191,-96.89 187.5,-86.89 184,-96.89 191,-96.89"/>
</g>
<!-- Node5 -->
<g id="node5" class="node">
<title>Node5</title>
<g id="a_node5"><a xlink:title=" ">
<polygon fill="white" stroke="#bfbfbf" points="275.5,-56.5 275.5,-97.5 475.5,-97.5 475.5,-56.5 275.5,-56.5"/>
<text text-anchor="start" x="283.5" y="-85.5" font-family="Helvetica,sans-Serif" font-size="10.00">asm/JSystem/JMessage</text>
<text text-anchor="start" x="283.5" y="-74.5" font-family="Helvetica,sans-Serif" font-size="10.00">/locale/parseCharacter</text>
<text text-anchor="middle" x="375.5" y="-63.5" font-family="Helvetica,sans-Serif" font-size="10.00">_ShiftJIS__Q28JMessage6localeFPPCc.s</text>
</a>
</g>
</g>
<!-- Node1&#45;&gt;Node5 -->
<g id="edge5" class="edge">
<title>Node1&#45;&gt;Node5</title>
<path fill="none" stroke="midnightblue" d="M225.09,-134.4C250.41,-124.91 284.4,-112.16 313.65,-101.19"/>
<polygon fill="midnightblue" stroke="midnightblue" points="315.24,-104.33 323.38,-97.55 312.78,-97.78 315.24,-104.33"/>
</g>
<!-- Node6 -->
<g id="node6" class="node">
<title>Node6</title>
<g id="a_node6"><a xlink:title=" ">
<polygon fill="white" stroke="#bfbfbf" points="493.5,-56.5 493.5,-97.5 683.5,-97.5 683.5,-56.5 493.5,-56.5"/>
<text text-anchor="start" x="501.5" y="-85.5" font-family="Helvetica,sans-Serif" font-size="10.00">asm/JSystem/JMessage</text>
<text text-anchor="start" x="501.5" y="-74.5" font-family="Helvetica,sans-Serif" font-size="10.00">/locale/parseCharacter</text>
<text text-anchor="middle" x="588.5" y="-63.5" font-family="Helvetica,sans-Serif" font-size="10.00">_UTF8__Q28JMessage6localeFPPCc.s</text>
</a>
</g>
</g>
<!-- Node1&#45;&gt;Node6 -->
<g id="edge6" class="edge">
<title>Node1&#45;&gt;Node6</title>
<path fill="none" stroke="midnightblue" d="M248.15,-138.58C305.99,-129.03 395.83,-113.97 483.21,-98.22"/>
<polygon fill="midnightblue" stroke="midnightblue" points="484.08,-101.62 493.3,-96.39 482.84,-94.73 484.08,-101.62"/>
</g>
<!-- Node4&#45;&gt;Node3 -->
<g id="edge4" class="edge">
<title>Node4&#45;&gt;Node3</title>
<path fill="none" stroke="midnightblue" d="M180.89,-67.23C173.32,-57.2 160.75,-40.51 151.26,-27.92"/>
<polygon fill="midnightblue" stroke="midnightblue" points="153.82,-25.51 145,-19.63 148.23,-29.72 153.82,-25.51"/>
</g>
</g>
</svg>
