<?xml version="1.0" encoding="UTF-8" standalone="no"?>
<!DOCTYPE svg PUBLIC "-//W3C//DTD SVG 1.1//EN"
 "http://www.w3.org/Graphics/SVG/1.1/DTD/svg11.dtd">
<!-- Generated by graphviz version 2.47.0 (20210316.2052)
 -->
<!-- Title: src/m_Do/m_Do_lib.cpp Pages: 1 -->
<svg width="1193pt" height="162pt"
 viewBox="0.00 0.00 1192.50 162.00" xmlns="http://www.w3.org/2000/svg" xmlns:xlink="http://www.w3.org/1999/xlink">
<g id="graph0" class="graph" transform="scale(1 1) rotate(0) translate(4 158)">
<title>src/m_Do/m_Do_lib.cpp</title>
<polygon fill="white" stroke="transparent" points="-4,4 -4,-158 1188.5,-158 1188.5,4 -4,4"/>
<!-- Node1 -->
<g id="node1" class="node">
<title>Node1</title>
<g id="a_node1"><a xlink:title=" ">
<polygon fill="#bfbfbf" stroke="black" points="433.5,-134.5 433.5,-153.5 553.5,-153.5 553.5,-134.5 433.5,-134.5"/>
<text text-anchor="middle" x="493.5" y="-141.5" font-family="Helvetica,sans-Serif" font-size="10.00">src/m_Do/m_Do_lib.cpp</text>
</a>
</g>
</g>
<!-- Node2 -->
<g id="node2" class="node">
<title>Node2</title>
<g id="a_node2"><a xlink:href="m__Do__lib_8h.html" target="_top" xlink:title=" ">
<polygon fill="white" stroke="black" points="0,-67.5 0,-86.5 93,-86.5 93,-67.5 0,-67.5"/>
<text text-anchor="middle" x="46.5" y="-74.5" font-family="Helvetica,sans-Serif" font-size="10.00">m_Do/m_Do_lib.h</text>
</a>
</g>
</g>
<!-- Node1&#45;&gt;Node2 -->
<g id="edge1" class="edge">
<title>Node1&#45;&gt;Node2</title>
<path fill="none" stroke="midnightblue" d="M433.37,-139.74C356.91,-134.74 221.17,-122.99 107.5,-98 97.91,-95.89 87.69,-92.86 78.42,-89.8"/>
<polygon fill="midnightblue" stroke="midnightblue" points="79.39,-86.43 68.8,-86.5 77.12,-93.06 79.39,-86.43"/>
</g>
<!-- Node3 -->
<g id="node3" class="node">
<title>Node3</title>
<g id="a_node3"><a xlink:href="types_8h.html" target="_top" xlink:title=" ">
<polygon fill="white" stroke="black" points="43,-0.5 43,-19.5 124,-19.5 124,-0.5 43,-0.5"/>
<text text-anchor="middle" x="83.5" y="-7.5" font-family="Helvetica,sans-Serif" font-size="10.00">dolphin/types.h</text>
</a>
</g>
</g>
<!-- Node1&#45;&gt;Node3 -->
<g id="edge4" class="edge">
<title>Node1&#45;&gt;Node3</title>
<path fill="none" stroke="midnightblue" d="M433.49,-141.27C346.09,-137.77 189.02,-127.46 141.5,-98 115.62,-81.95 98.75,-49.58 90.2,-29.16"/>
<polygon fill="midnightblue" stroke="midnightblue" points="93.4,-27.75 86.48,-19.73 86.89,-30.32 93.4,-27.75"/>
</g>
<!-- Node4 -->
<g id="node4" class="node">
<title>Node4</title>
<g id="a_node4"><a xlink:href="dol2asm_8h.html" target="_top" xlink:title=" ">
<polygon fill="white" stroke="black" points="150,-67.5 150,-86.5 211,-86.5 211,-67.5 150,-67.5"/>
<text text-anchor="middle" x="180.5" y="-74.5" font-family="Helvetica,sans-Serif" font-size="10.00">dol2asm.h</text>
</a>
</g>
</g>
<!-- Node1&#45;&gt;Node4 -->
<g id="edge3" class="edge">
<title>Node1&#45;&gt;Node4</title>
<path fill="none" stroke="midnightblue" d="M433.44,-138.32C377.29,-132.73 291.67,-121.07 220.5,-98 214.96,-96.2 209.23,-93.74 203.9,-91.16"/>
<polygon fill="midnightblue" stroke="midnightblue" points="205.36,-87.98 194.87,-86.5 202.15,-94.2 205.36,-87.98"/>
</g>
<!-- Node5 -->
<g id="node5" class="node">
<title>Node5</title>
<g id="a_node5"><a xlink:title=" ">
<polygon fill="white" stroke="#bfbfbf" points="229,-56.5 229,-97.5 408,-97.5 408,-56.5 229,-56.5"/>
<text text-anchor="start" x="237" y="-85.5" font-family="Helvetica,sans-Serif" font-size="10.00">asm/m_Do/m_Do_lib/mDoLib</text>
<text text-anchor="start" x="237" y="-74.5" font-family="Helvetica,sans-Serif" font-size="10.00">_setResTimgObj__FPC7ResTIMGP9</text>
<text text-anchor="middle" x="318.5" y="-63.5" font-family="Helvetica,sans-Serif" font-size="10.00">_GXTexObjUlP10_GXTlutObj.s</text>
</a>
</g>
</g>
<!-- Node1&#45;&gt;Node5 -->
<g id="edge5" class="edge">
<title>Node1&#45;&gt;Node5</title>
<path fill="none" stroke="midnightblue" d="M470.26,-134.37C447.51,-125.92 411.84,-112.67 380.8,-101.14"/>
<polygon fill="midnightblue" stroke="midnightblue" points="381.93,-97.83 371.34,-97.63 379.49,-104.39 381.93,-97.83"/>
</g>
<!-- Node6 -->
<g id="node6" class="node">
<title>Node6</title>
<g id="a_node6"><a xlink:title=" ">
<polygon fill="white" stroke="#bfbfbf" points="426.5,-62 426.5,-92 560.5,-92 560.5,-62 426.5,-62"/>
<text text-anchor="start" x="434.5" y="-80" font-family="Helvetica,sans-Serif" font-size="10.00">asm/m_Do/m_Do_lib/setup</text>
<text text-anchor="middle" x="493.5" y="-69" font-family="Helvetica,sans-Serif" font-size="10.00">__14mDoLib_clipperFffff.s</text>
</a>
</g>
</g>
<!-- Node1&#45;&gt;Node6 -->
<g id="edge6" class="edge">
<title>Node1&#45;&gt;Node6</title>
<path fill="none" stroke="midnightblue" d="M493.5,-134.23C493.5,-126.04 493.5,-113.42 493.5,-102.21"/>
<polygon fill="midnightblue" stroke="midnightblue" points="497,-102.09 493.5,-92.09 490,-102.09 497,-102.09"/>
</g>
<!-- Node7 -->
<g id="node7" class="node">
<title>Node7</title>
<g id="a_node7"><a xlink:title=" ">
<polygon fill="white" stroke="#bfbfbf" points="578.5,-62 578.5,-92 722.5,-92 722.5,-62 578.5,-62"/>
<text text-anchor="start" x="586.5" y="-80" font-family="Helvetica,sans-Serif" font-size="10.00">asm/m_Do/m_Do_lib/mDoLib</text>
<text text-anchor="middle" x="650.5" y="-69" font-family="Helvetica,sans-Serif" font-size="10.00">_project__FP3VecP3Vec.s</text>
</a>
</g>
</g>
<!-- Node1&#45;&gt;Node7 -->
<g id="edge7" class="edge">
<title>Node1&#45;&gt;Node7</title>
<path fill="none" stroke="midnightblue" d="M514.35,-134.37C537.91,-124.62 576.9,-108.47 607.14,-95.95"/>
<polygon fill="midnightblue" stroke="midnightblue" points="608.72,-99.09 616.62,-92.03 606.04,-92.62 608.72,-99.09"/>
</g>
<!-- Node8 -->
<g id="node8" class="node">
<title>Node8</title>
<g id="a_node8"><a xlink:title=" ">
<polygon fill="white" stroke="#bfbfbf" points="740.5,-62 740.5,-92 898.5,-92 898.5,-62 740.5,-62"/>
<text text-anchor="start" x="748.5" y="-80" font-family="Helvetica,sans-Serif" font-size="10.00">asm/m_Do/m_Do_lib/mDoLib</text>
<text text-anchor="middle" x="819.5" y="-69" font-family="Helvetica,sans-Serif" font-size="10.00">_pos2camera__FP3VecP3Vec.s</text>
</a>
</g>
</g>
<!-- Node1&#45;&gt;Node8 -->
<g id="edge8" class="edge">
<title>Node1&#45;&gt;Node8</title>
<path fill="none" stroke="midnightblue" d="M541.47,-134.46C589.61,-125.77 665.83,-111.67 731.5,-98 737.2,-96.81 743.1,-95.55 749.02,-94.26"/>
<polygon fill="midnightblue" stroke="midnightblue" points="749.96,-97.63 758.97,-92.06 748.45,-90.8 749.96,-97.63"/>
</g>
<!-- Node9 -->
<g id="node9" class="node">
<title>Node9</title>
<g id="a_node9"><a xlink:title=" ">
<polygon fill="white" stroke="#bfbfbf" points="917,-62 917,-92 1036,-92 1036,-62 917,-62"/>
<text text-anchor="start" x="925" y="-80" font-family="Helvetica,sans-Serif" font-size="10.00">asm/m_Do/m_Do_lib/</text>
<text text-anchor="middle" x="976.5" y="-69" font-family="Helvetica,sans-Serif" font-size="10.00">__sinit_m_Do_lib_cpp.s</text>
</a>
</g>
</g>
<!-- Node1&#45;&gt;Node9 -->
<g id="edge9" class="edge">
<title>Node1&#45;&gt;Node9</title>
<path fill="none" stroke="midnightblue" d="M553.64,-139.75C634.65,-134.63 783.03,-122.61 907.5,-98 912.42,-97.03 917.5,-95.87 922.56,-94.6"/>
<polygon fill="midnightblue" stroke="midnightblue" points="923.46,-97.98 932.24,-92.06 921.68,-91.21 923.46,-97.98"/>
</g>
<!-- Node10 -->
<g id="node10" class="node">
<title>Node10</title>
<g id="a_node10"><a xlink:title=" ">
<polygon fill="white" stroke="#bfbfbf" points="1054.5,-62 1054.5,-92 1184.5,-92 1184.5,-62 1054.5,-62"/>
<text text-anchor="start" x="1062.5" y="-80" font-family="Helvetica,sans-Serif" font-size="10.00">asm/m_Do/m_Do_lib/</text>
<text text-anchor="middle" x="1119.5" y="-69" font-family="Helvetica,sans-Serif" font-size="10.00">__dt__11J3DUClipperFv.s</text>
</a>
</g>
</g>
<!-- Node1&#45;&gt;Node10 -->
<g id="edge10" class="edge">
<title>Node1&#45;&gt;Node10</title>
<path fill="none" stroke="midnightblue" d="M553.58,-141.69C655.48,-138.66 868.37,-128.89 1045.5,-98 1051.21,-97 1057.12,-95.77 1063,-94.4"/>
<polygon fill="midnightblue" stroke="midnightblue" points="1063.93,-97.78 1072.81,-92 1062.27,-90.98 1063.93,-97.78"/>
</g>
<!-- Node2&#45;&gt;Node3 -->
<g id="edge2" class="edge">
<title>Node2&#45;&gt;Node3</title>
<path fill="none" stroke="midnightblue" d="M51.49,-67.23C57.09,-57.39 66.33,-41.16 73.45,-28.66"/>
<polygon fill="midnightblue" stroke="midnightblue" points="76.68,-30.05 78.59,-19.63 70.6,-26.59 76.68,-30.05"/>
</g>
</g>
</svg>
