<?xml version="1.0" encoding="UTF-8" standalone="no"?>
<!DOCTYPE svg PUBLIC "-//W3C//DTD SVG 1.1//EN"
 "http://www.w3.org/Graphics/SVG/1.1/DTD/svg11.dtd">
<!-- Generated by graphviz version 2.47.0 (20210316.2052)
 -->
<!-- Title: src/m_Do/m_Do_machine_exception.cpp Pages: 1 -->
<svg width="1502pt" height="173pt"
 viewBox="0.00 0.00 1502.00 173.00" xmlns="http://www.w3.org/2000/svg" xmlns:xlink="http://www.w3.org/1999/xlink">
<g id="graph0" class="graph" transform="scale(1 1) rotate(0) translate(4 169)">
<title>src/m_Do/m_Do_machine_exception.cpp</title>
<polygon fill="white" stroke="transparent" points="-4,4 -4,-169 1498,-169 1498,4 -4,4"/>
<!-- Node1 -->
<g id="node1" class="node">
<title>Node1</title>
<g id="a_node1"><a xlink:title=" ">
<polygon fill="#bfbfbf" stroke="black" points="545,-134.5 545,-164.5 674,-164.5 674,-134.5 545,-134.5"/>
<text text-anchor="start" x="553" y="-152.5" font-family="Helvetica,sans-Serif" font-size="10.00">src/m_Do/m_Do_machine</text>
<text text-anchor="middle" x="609.5" y="-141.5" font-family="Helvetica,sans-Serif" font-size="10.00">_exception.cpp</text>
</a>
</g>
</g>
<!-- Node2 -->
<g id="node2" class="node">
<title>Node2</title>
<g id="a_node2"><a xlink:href="dol2asm_8h.html" target="_top" xlink:title=" ">
<polygon fill="white" stroke="black" points="0,-67.5 0,-86.5 61,-86.5 61,-67.5 0,-67.5"/>
<text text-anchor="middle" x="30.5" y="-74.5" font-family="Helvetica,sans-Serif" font-size="10.00">dol2asm.h</text>
</a>
</g>
</g>
<!-- Node1&#45;&gt;Node2 -->
<g id="edge1" class="edge">
<title>Node1&#45;&gt;Node2</title>
<path fill="none" stroke="midnightblue" d="M544.63,-149.06C442.94,-148.46 240.57,-141.25 75.5,-98 68.88,-96.27 62,-93.66 55.67,-90.9"/>
<polygon fill="midnightblue" stroke="midnightblue" points="56.83,-87.58 46.29,-86.53 53.88,-93.92 56.83,-87.58"/>
</g>
<!-- Node3 -->
<g id="node3" class="node">
<title>Node3</title>
<g id="a_node3"><a xlink:href="types_8h.html" target="_top" xlink:title=" ">
<polygon fill="white" stroke="black" points="104,-0.5 104,-19.5 185,-19.5 185,-0.5 104,-0.5"/>
<text text-anchor="middle" x="144.5" y="-7.5" font-family="Helvetica,sans-Serif" font-size="10.00">dolphin/types.h</text>
</a>
</g>
</g>
<!-- Node1&#45;&gt;Node3 -->
<g id="edge2" class="edge">
<title>Node1&#45;&gt;Node3</title>
<path fill="none" stroke="midnightblue" d="M544.57,-146.71C415.64,-142.5 137.23,-129.77 108.5,-98 89.97,-77.51 111.59,-46.16 128.43,-27.22"/>
<polygon fill="midnightblue" stroke="midnightblue" points="131.18,-29.4 135.45,-19.7 126.06,-24.62 131.18,-29.4"/>
</g>
<!-- Node4 -->
<g id="node4" class="node">
<title>Node4</title>
<g id="a_node4"><a xlink:href="m__Do__machine__exception_8h.html" target="_top" xlink:title=" ">
<polygon fill="white" stroke="black" points="117,-67.5 117,-86.5 284,-86.5 284,-67.5 117,-67.5"/>
<text text-anchor="middle" x="200.5" y="-74.5" font-family="Helvetica,sans-Serif" font-size="10.00">m_Do/m_Do_machine_exception.h</text>
</a>
</g>
</g>
<!-- Node1&#45;&gt;Node4 -->
<g id="edge3" class="edge">
<title>Node1&#45;&gt;Node4</title>
<path fill="none" stroke="midnightblue" d="M544.87,-139.2C480.88,-129.76 380.19,-114.24 293.5,-98 278.6,-95.21 262.42,-91.85 247.8,-88.68"/>
<polygon fill="midnightblue" stroke="midnightblue" points="248.48,-85.25 237.97,-86.53 246.99,-92.09 248.48,-85.25"/>
</g>
<!-- Node5 -->
<g id="node5" class="node">
<title>Node5</title>
<g id="a_node5"><a xlink:title=" ">
<polygon fill="white" stroke="#bfbfbf" points="302,-62 302,-92 443,-92 443,-62 302,-62"/>
<text text-anchor="start" x="310" y="-80" font-family="Helvetica,sans-Serif" font-size="10.00">asm/m_Do/m_Do_machine</text>
<text text-anchor="middle" x="372.5" y="-69" font-family="Helvetica,sans-Serif" font-size="10.00">_exception/print_f__FPCce.s</text>
</a>
</g>
</g>
<!-- Node1&#45;&gt;Node5 -->
<g id="edge5" class="edge">
<title>Node1&#45;&gt;Node5</title>
<path fill="none" stroke="midnightblue" d="M562.39,-134.49C524.23,-123.14 470.32,-107.1 429.69,-95.01"/>
<polygon fill="midnightblue" stroke="midnightblue" points="430.51,-91.6 419.92,-92.11 428.51,-98.31 430.51,-91.6"/>
</g>
<!-- Node6 -->
<g id="node6" class="node">
<title>Node6</title>
<g id="a_node6"><a xlink:title=" ">
<polygon fill="white" stroke="#bfbfbf" points="461.5,-62 461.5,-92 595.5,-92 595.5,-62 461.5,-62"/>
<text text-anchor="start" x="469.5" y="-80" font-family="Helvetica,sans-Serif" font-size="10.00">asm/m_Do/m_Do_machine</text>
<text text-anchor="middle" x="528.5" y="-69" font-family="Helvetica,sans-Serif" font-size="10.00">_exception/print__FPCc.s</text>
</a>
</g>
</g>
<!-- Node1&#45;&gt;Node6 -->
<g id="edge6" class="edge">
<title>Node1&#45;&gt;Node6</title>
<path fill="none" stroke="midnightblue" d="M593.11,-134.23C581.39,-124.04 565.45,-110.16 552.33,-98.74"/>
<polygon fill="midnightblue" stroke="midnightblue" points="554.43,-95.93 544.59,-92 549.84,-101.21 554.43,-95.93"/>
</g>
<!-- Node7 -->
<g id="node7" class="node">
<title>Node7</title>
<g id="a_node7"><a xlink:title=" ">
<polygon fill="white" stroke="#bfbfbf" points="614,-62 614,-92 767,-92 767,-62 614,-62"/>
<text text-anchor="start" x="622" y="-80" font-family="Helvetica,sans-Serif" font-size="10.00">asm/m_Do/m_Do_machine</text>
<text text-anchor="middle" x="690.5" y="-69" font-family="Helvetica,sans-Serif" font-size="10.00">_exception/dispHeapInfo__Fv.s</text>
</a>
</g>
</g>
<!-- Node1&#45;&gt;Node7 -->
<g id="edge7" class="edge">
<title>Node1&#45;&gt;Node7</title>
<path fill="none" stroke="midnightblue" d="M625.89,-134.23C637.61,-124.04 653.55,-110.16 666.67,-98.74"/>
<polygon fill="midnightblue" stroke="midnightblue" points="669.16,-101.21 674.41,-92 664.57,-95.93 669.16,-101.21"/>
</g>
<!-- Node8 -->
<g id="node8" class="node">
<title>Node8</title>
<g id="a_node8"><a xlink:title=" ">
<polygon fill="white" stroke="#bfbfbf" points="785.5,-62 785.5,-92 941.5,-92 941.5,-62 785.5,-62"/>
<text text-anchor="start" x="793.5" y="-80" font-family="Helvetica,sans-Serif" font-size="10.00">asm/m_Do/m_Do_machine</text>
<text text-anchor="middle" x="863.5" y="-69" font-family="Helvetica,sans-Serif" font-size="10.00">_exception/dispGameInfo__Fv.s</text>
</a>
</g>
</g>
<!-- Node1&#45;&gt;Node8 -->
<g id="edge8" class="edge">
<title>Node1&#45;&gt;Node8</title>
<path fill="none" stroke="midnightblue" d="M659.99,-134.49C701.14,-123.06 759.4,-106.9 803.04,-94.78"/>
<polygon fill="midnightblue" stroke="midnightblue" points="803.98,-98.15 812.68,-92.11 802.1,-91.41 803.98,-98.15"/>
</g>
<!-- Node9 -->
<g id="node9" class="node">
<title>Node9</title>
<g id="a_node9"><a xlink:title=" ">
<polygon fill="white" stroke="#bfbfbf" points="959.5,-62 959.5,-92 1109.5,-92 1109.5,-62 959.5,-62"/>
<text text-anchor="start" x="967.5" y="-80" font-family="Helvetica,sans-Serif" font-size="10.00">asm/m_Do/m_Do_machine</text>
<text text-anchor="middle" x="1034.5" y="-69" font-family="Helvetica,sans-Serif" font-size="10.00">_exception/dispDateInfo__Fv.s</text>
</a>
</g>
</g>
<!-- Node1&#45;&gt;Node9 -->
<g id="edge9" class="edge">
<title>Node1&#45;&gt;Node9</title>
<path fill="none" stroke="midnightblue" d="M674.2,-140.62C743,-131.84 854.86,-116.43 950.5,-98 956.35,-96.87 962.4,-95.61 968.46,-94.29"/>
<polygon fill="midnightblue" stroke="midnightblue" points="969.62,-97.62 978.62,-92.02 968.09,-90.79 969.62,-97.62"/>
</g>
<!-- Node10 -->
<g id="node10" class="node">
<title>Node10</title>
<g id="a_node10"><a xlink:title=" ">
<polygon fill="white" stroke="#bfbfbf" points="1128,-62 1128,-92 1325,-92 1325,-62 1128,-62"/>
<text text-anchor="start" x="1136" y="-80" font-family="Helvetica,sans-Serif" font-size="10.00">asm/m_Do/m_Do_machine</text>
<text text-anchor="middle" x="1226.5" y="-69" font-family="Helvetica,sans-Serif" font-size="10.00">_exception/dispConsoleToTerminal__Fv.s</text>
</a>
</g>
</g>
<!-- Node1&#45;&gt;Node10 -->
<g id="edge10" class="edge">
<title>Node1&#45;&gt;Node10</title>
<path fill="none" stroke="midnightblue" d="M674.39,-143.82C771.33,-136.44 959.58,-120.56 1118.5,-98 1127.3,-96.75 1136.48,-95.29 1145.61,-93.74"/>
<polygon fill="midnightblue" stroke="midnightblue" points="1146.22,-97.19 1155.47,-92.03 1145.02,-90.29 1146.22,-97.19"/>
</g>
<!-- Node11 -->
<g id="node11" class="node">
<title>Node11</title>
<g id="a_node11"><a xlink:title=" ">
<polygon fill="white" stroke="#bfbfbf" points="1343,-56.5 1343,-97.5 1494,-97.5 1494,-56.5 1343,-56.5"/>
<text text-anchor="start" x="1351" y="-85.5" font-family="Helvetica,sans-Serif" font-size="10.00">asm/m_Do/m_Do_machine</text>
<text text-anchor="start" x="1351" y="-74.5" font-family="Helvetica,sans-Serif" font-size="10.00">_exception/exception</text>
<text text-anchor="middle" x="1418.5" y="-63.5" font-family="Helvetica,sans-Serif" font-size="10.00">_addition__FP10JUTConsole.s</text>
</a>
</g>
</g>
<!-- Node1&#45;&gt;Node11 -->
<g id="edge11" class="edge">
<title>Node1&#45;&gt;Node11</title>
<path fill="none" stroke="midnightblue" d="M674.39,-147.54C800.02,-144.92 1085.2,-135.19 1332.7,-98.16"/>
<polygon fill="midnightblue" stroke="midnightblue" points="1333.24,-101.62 1342.6,-96.66 1332.19,-94.7 1333.24,-101.62"/>
</g>
<!-- Node4&#45;&gt;Node3 -->
<g id="edge4" class="edge">
<title>Node4&#45;&gt;Node3</title>
<path fill="none" stroke="midnightblue" d="M192.95,-67.23C184.22,-57.1 169.65,-40.19 158.76,-27.56"/>
<polygon fill="midnightblue" stroke="midnightblue" points="161.11,-24.92 151.93,-19.63 155.81,-29.49 161.11,-24.92"/>
</g>
</g>
</svg>
