<?xml version="1.0" encoding="UTF-8" standalone="no"?>
<!DOCTYPE svg PUBLIC "-//W3C//DTD SVG 1.1//EN"
 "http://www.w3.org/Graphics/SVG/1.1/DTD/svg11.dtd">
<!-- Generated by graphviz version 2.47.0 (20210316.2052)
 -->
<!-- Title: src/m_Do/m_Do_machine.cpp Pages: 1 -->
<svg width="2345pt" height="162pt"
 viewBox="0.00 0.00 2344.50 162.00" xmlns="http://www.w3.org/2000/svg" xmlns:xlink="http://www.w3.org/1999/xlink">
<g id="graph0" class="graph" transform="scale(1 1) rotate(0) translate(4 158)">
<title>src/m_Do/m_Do_machine.cpp</title>
<polygon fill="white" stroke="transparent" points="-4,4 -4,-158 2340.5,-158 2340.5,4 -4,4"/>
<!-- Node1 -->
<g id="node1" class="node">
<title>Node1</title>
<g id="a_node1"><a xlink:title=" ">
<polygon fill="#bfbfbf" stroke="black" points="970,-134.5 970,-153.5 1117,-153.5 1117,-134.5 970,-134.5"/>
<text text-anchor="middle" x="1043.5" y="-141.5" font-family="Helvetica,sans-Serif" font-size="10.00">src/m_Do/m_Do_machine.cpp</text>
</a>
</g>
</g>
<!-- Node2 -->
<g id="node2" class="node">
<title>Node2</title>
<g id="a_node2"><a xlink:href="dol2asm_8h.html" target="_top" xlink:title=" ">
<polygon fill="white" stroke="black" points="0,-67.5 0,-86.5 61,-86.5 61,-67.5 0,-67.5"/>
<text text-anchor="middle" x="30.5" y="-74.5" font-family="Helvetica,sans-Serif" font-size="10.00">dol2asm.h</text>
</a>
</g>
</g>
<!-- Node1&#45;&gt;Node2 -->
<g id="edge1" class="edge">
<title>Node1&#45;&gt;Node2</title>
<path fill="none" stroke="midnightblue" d="M969.66,-143.09C773.91,-142.78 245.05,-138.12 75.5,-98 68.73,-96.4 61.72,-93.79 55.3,-90.99"/>
<polygon fill="midnightblue" stroke="midnightblue" points="56.36,-87.62 45.83,-86.52 53.38,-93.95 56.36,-87.62"/>
</g>
<!-- Node3 -->
<g id="node3" class="node">
<title>Node3</title>
<g id="a_node3"><a xlink:href="types_8h.html" target="_top" xlink:title=" ">
<polygon fill="white" stroke="black" points="93,-0.5 93,-19.5 174,-19.5 174,-0.5 93,-0.5"/>
<text text-anchor="middle" x="133.5" y="-7.5" font-family="Helvetica,sans-Serif" font-size="10.00">dolphin/types.h</text>
</a>
</g>
</g>
<!-- Node1&#45;&gt;Node3 -->
<g id="edge2" class="edge">
<title>Node1&#45;&gt;Node3</title>
<path fill="none" stroke="midnightblue" d="M969.73,-142.19C754.08,-139.48 138.07,-129.03 108.5,-98 90.25,-78.85 106.81,-47.26 120.29,-27.88"/>
<polygon fill="midnightblue" stroke="midnightblue" points="123.21,-29.82 126.32,-19.69 117.57,-25.67 123.21,-29.82"/>
</g>
<!-- Node4 -->
<g id="node4" class="node">
<title>Node4</title>
<g id="a_node4"><a xlink:href="m__Do__machine_8h.html" target="_top" xlink:title=" ">
<polygon fill="white" stroke="black" points="117.5,-67.5 117.5,-86.5 237.5,-86.5 237.5,-67.5 117.5,-67.5"/>
<text text-anchor="middle" x="177.5" y="-74.5" font-family="Helvetica,sans-Serif" font-size="10.00">m_Do/m_Do_machine.h</text>
</a>
</g>
</g>
<!-- Node1&#45;&gt;Node4 -->
<g id="edge3" class="edge">
<title>Node1&#45;&gt;Node4</title>
<path fill="none" stroke="midnightblue" d="M969.86,-140.97C799.91,-135.93 384.3,-121.55 246.5,-98 235.02,-96.04 222.73,-92.84 211.75,-89.58"/>
<polygon fill="midnightblue" stroke="midnightblue" points="212.68,-86.21 202.1,-86.6 210.62,-92.89 212.68,-86.21"/>
</g>
<!-- Node5 -->
<g id="node5" class="node">
<title>Node5</title>
<g id="a_node5"><a xlink:title=" ">
<polygon fill="white" stroke="#bfbfbf" points="255.5,-56.5 255.5,-97.5 389.5,-97.5 389.5,-56.5 255.5,-56.5"/>
<text text-anchor="start" x="263.5" y="-85.5" font-family="Helvetica,sans-Serif" font-size="10.00">asm/m_Do/m_Do_machine</text>
<text text-anchor="start" x="263.5" y="-74.5" font-family="Helvetica,sans-Serif" font-size="10.00">/myGetHeapTypeByString</text>
<text text-anchor="middle" x="322.5" y="-63.5" font-family="Helvetica,sans-Serif" font-size="10.00">__FP7JKRHeap.s</text>
</a>
</g>
</g>
<!-- Node1&#45;&gt;Node5 -->
<g id="edge5" class="edge">
<title>Node1&#45;&gt;Node5</title>
<path fill="none" stroke="midnightblue" d="M969.95,-142.34C851.54,-140.3 611.33,-132.11 399.95,-98.08"/>
<polygon fill="midnightblue" stroke="midnightblue" points="400.34,-94.6 389.9,-96.44 399.21,-101.51 400.34,-94.6"/>
</g>
<!-- Node6 -->
<g id="node6" class="node">
<title>Node6</title>
<g id="a_node6"><a xlink:title=" ">
<polygon fill="white" stroke="#bfbfbf" points="407.5,-56.5 407.5,-97.5 541.5,-97.5 541.5,-56.5 407.5,-56.5"/>
<text text-anchor="start" x="415.5" y="-85.5" font-family="Helvetica,sans-Serif" font-size="10.00">asm/m_Do/m_Do_machine</text>
<text text-anchor="start" x="415.5" y="-74.5" font-family="Helvetica,sans-Serif" font-size="10.00">/myMemoryErrorRoutine</text>
<text text-anchor="middle" x="474.5" y="-63.5" font-family="Helvetica,sans-Serif" font-size="10.00">__FPvUli.s</text>
</a>
</g>
</g>
<!-- Node1&#45;&gt;Node6 -->
<g id="edge6" class="edge">
<title>Node1&#45;&gt;Node6</title>
<path fill="none" stroke="midnightblue" d="M969.91,-140.1C875.19,-135.52 705.48,-124.44 551.61,-98.04"/>
<polygon fill="midnightblue" stroke="midnightblue" points="551.96,-94.55 541.5,-96.28 550.75,-101.44 551.96,-94.55"/>
</g>
<!-- Node7 -->
<g id="node7" class="node">
<title>Node7</title>
<g id="a_node7"><a xlink:title=" ">
<polygon fill="white" stroke="#bfbfbf" points="559.5,-56.5 559.5,-97.5 693.5,-97.5 693.5,-56.5 559.5,-56.5"/>
<text text-anchor="start" x="567.5" y="-85.5" font-family="Helvetica,sans-Serif" font-size="10.00">asm/m_Do/m_Do_machine</text>
<text text-anchor="start" x="567.5" y="-74.5" font-family="Helvetica,sans-Serif" font-size="10.00">/myHeapCheckRecursive</text>
<text text-anchor="middle" x="626.5" y="-63.5" font-family="Helvetica,sans-Serif" font-size="10.00">__FP7JKRHeap.s</text>
</a>
</g>
</g>
<!-- Node1&#45;&gt;Node7 -->
<g id="edge7" class="edge">
<title>Node1&#45;&gt;Node7</title>
<path fill="none" stroke="midnightblue" d="M969.79,-135.88C900.64,-128.58 794.52,-115.77 703.5,-98 703.4,-97.98 703.3,-97.96 703.19,-97.94"/>
<polygon fill="midnightblue" stroke="midnightblue" points="704.08,-94.55 693.58,-95.94 702.66,-101.4 704.08,-94.55"/>
</g>
<!-- Node8 -->
<g id="node8" class="node">
<title>Node8</title>
<g id="a_node8"><a xlink:title=" ">
<polygon fill="white" stroke="#bfbfbf" points="712,-62 712,-92 867,-92 867,-62 712,-62"/>
<text text-anchor="start" x="720" y="-80" font-family="Helvetica,sans-Serif" font-size="10.00">asm/m_Do/m_Do_machine</text>
<text text-anchor="middle" x="789.5" y="-69" font-family="Helvetica,sans-Serif" font-size="10.00">/mDoMch_HeapCheckAll__Fv.s</text>
</a>
</g>
</g>
<!-- Node1&#45;&gt;Node8 -->
<g id="edge8" class="edge">
<title>Node1&#45;&gt;Node8</title>
<path fill="none" stroke="midnightblue" d="M1010.03,-134.44C970.5,-124.32 903.85,-107.26 854.14,-94.54"/>
<polygon fill="midnightblue" stroke="midnightblue" points="854.99,-91.15 844.44,-92.06 853.26,-97.93 854.99,-91.15"/>
</g>
<!-- Node9 -->
<g id="node9" class="node">
<title>Node9</title>
<g id="a_node9"><a xlink:title=" ">
<polygon fill="white" stroke="#bfbfbf" points="885,-62 885,-92 1026,-92 1026,-62 885,-62"/>
<text text-anchor="start" x="893" y="-80" font-family="Helvetica,sans-Serif" font-size="10.00">asm/m_Do/m_Do_machine</text>
<text text-anchor="middle" x="955.5" y="-69" font-family="Helvetica,sans-Serif" font-size="10.00">/developKeyCheck__FUlUl.s</text>
</a>
</g>
</g>
<!-- Node1&#45;&gt;Node9 -->
<g id="edge9" class="edge">
<title>Node1&#45;&gt;Node9</title>
<path fill="none" stroke="midnightblue" d="M1031.63,-134.23C1019.17,-125.03 999.14,-110.23 982.75,-98.13"/>
<polygon fill="midnightblue" stroke="midnightblue" points="984.7,-95.22 974.57,-92.09 980.54,-100.85 984.7,-95.22"/>
</g>
<!-- Node10 -->
<g id="node10" class="node">
<title>Node10</title>
<g id="a_node10"><a xlink:title=" ">
<polygon fill="white" stroke="#bfbfbf" points="1044,-62 1044,-92 1221,-92 1221,-62 1044,-62"/>
<text text-anchor="start" x="1052" y="-80" font-family="Helvetica,sans-Serif" font-size="10.00">asm/m_Do/m_Do_machine</text>
<text text-anchor="middle" x="1132.5" y="-69" font-family="Helvetica,sans-Serif" font-size="10.00">/mDoMch_IsProgressiveMode__Fv.s</text>
</a>
</g>
</g>
<!-- Node1&#45;&gt;Node10 -->
<g id="edge10" class="edge">
<title>Node1&#45;&gt;Node10</title>
<path fill="none" stroke="midnightblue" d="M1055.5,-134.23C1068.11,-125.03 1088.37,-110.23 1104.94,-98.13"/>
<polygon fill="midnightblue" stroke="midnightblue" points="1107.2,-100.81 1113.21,-92.09 1103.07,-95.16 1107.2,-100.81"/>
</g>
<!-- Node11 -->
<g id="node11" class="node">
<title>Node11</title>
<g id="a_node11"><a xlink:title=" ">
<polygon fill="white" stroke="#bfbfbf" points="1238.5,-62 1238.5,-92 1396.5,-92 1396.5,-62 1238.5,-62"/>
<text text-anchor="start" x="1246.5" y="-80" font-family="Helvetica,sans-Serif" font-size="10.00">asm/m_Do/m_Do_machine</text>
<text text-anchor="middle" x="1317.5" y="-69" font-family="Helvetica,sans-Serif" font-size="10.00">/exceptionReadPad__FPUlPUl.s</text>
</a>
</g>
</g>
<!-- Node1&#45;&gt;Node11 -->
<g id="edge11" class="edge">
<title>Node1&#45;&gt;Node11</title>
<path fill="none" stroke="midnightblue" d="M1079.6,-134.44C1122.42,-124.28 1194.75,-107.12 1248.44,-94.38"/>
<polygon fill="midnightblue" stroke="midnightblue" points="1249.31,-97.77 1258.24,-92.06 1247.7,-90.96 1249.31,-97.77"/>
</g>
<!-- Node12 -->
<g id="node12" class="node">
<title>Node12</title>
<g id="a_node12"><a xlink:title=" ">
<polygon fill="white" stroke="#bfbfbf" points="1414.5,-62 1414.5,-92 1548.5,-92 1548.5,-62 1414.5,-62"/>
<text text-anchor="start" x="1422.5" y="-80" font-family="Helvetica,sans-Serif" font-size="10.00">asm/m_Do/m_Do_machine</text>
<text text-anchor="middle" x="1481.5" y="-69" font-family="Helvetica,sans-Serif" font-size="10.00">/exceptionRestart__Fv.s</text>
</a>
</g>
</g>
<!-- Node1&#45;&gt;Node12 -->
<g id="edge12" class="edge">
<title>Node1&#45;&gt;Node12</title>
<path fill="none" stroke="midnightblue" d="M1117.1,-136.76C1190.56,-129.85 1306.47,-117.1 1405.5,-98 1410.86,-96.97 1416.4,-95.77 1421.93,-94.48"/>
<polygon fill="midnightblue" stroke="midnightblue" points="1422.95,-97.84 1431.84,-92.08 1421.3,-91.03 1422.95,-97.84"/>
</g>
<!-- Node13 -->
<g id="node13" class="node">
<title>Node13</title>
<g id="a_node13"><a xlink:title=" ">
<polygon fill="white" stroke="#bfbfbf" points="1566.5,-56.5 1566.5,-97.5 1700.5,-97.5 1700.5,-56.5 1566.5,-56.5"/>
<text text-anchor="start" x="1574.5" y="-85.5" font-family="Helvetica,sans-Serif" font-size="10.00">asm/m_Do/m_Do_machine</text>
<text text-anchor="start" x="1574.5" y="-74.5" font-family="Helvetica,sans-Serif" font-size="10.00">/myExceptionCallback</text>
<text text-anchor="middle" x="1633.5" y="-63.5" font-family="Helvetica,sans-Serif" font-size="10.00">__FUsP9OSContextUlUl.s</text>
</a>
</g>
</g>
<!-- Node1&#45;&gt;Node13 -->
<g id="edge13" class="edge">
<title>Node1&#45;&gt;Node13</title>
<path fill="none" stroke="midnightblue" d="M1117.21,-140.48C1215.42,-136.25 1394.64,-125.49 1556.37,-98.04"/>
<polygon fill="midnightblue" stroke="midnightblue" points="1557.24,-101.44 1566.5,-96.29 1556.05,-94.54 1557.24,-101.44"/>
</g>
<!-- Node14 -->
<g id="node14" class="node">
<title>Node14</title>
<g id="a_node14"><a xlink:title=" ">
<polygon fill="white" stroke="#bfbfbf" points="1718.5,-56.5 1718.5,-97.5 1852.5,-97.5 1852.5,-56.5 1718.5,-56.5"/>
<text text-anchor="start" x="1726.5" y="-85.5" font-family="Helvetica,sans-Serif" font-size="10.00">asm/m_Do/m_Do_machine</text>
<text text-anchor="start" x="1726.5" y="-74.5" font-family="Helvetica,sans-Serif" font-size="10.00">/fault_callback_scroll</text>
<text text-anchor="middle" x="1785.5" y="-63.5" font-family="Helvetica,sans-Serif" font-size="10.00">__FUsP9OSContextUlUl.s</text>
</a>
</g>
</g>
<!-- Node1&#45;&gt;Node14 -->
<g id="edge14" class="edge">
<title>Node1&#45;&gt;Node14</title>
<path fill="none" stroke="midnightblue" d="M1117.44,-142.57C1239.04,-140.86 1488.79,-133.14 1708.01,-98.08"/>
<polygon fill="midnightblue" stroke="midnightblue" points="1708.79,-101.5 1718.1,-96.45 1707.67,-94.59 1708.79,-101.5"/>
</g>
<!-- Node15 -->
<g id="node15" class="node">
<title>Node15</title>
<g id="a_node15"><a xlink:title=" ">
<polygon fill="white" stroke="#bfbfbf" points="1870.5,-62 1870.5,-92 2004.5,-92 2004.5,-62 1870.5,-62"/>
<text text-anchor="start" x="1878.5" y="-80" font-family="Helvetica,sans-Serif" font-size="10.00">asm/m_Do/m_Do_machine</text>
<text text-anchor="middle" x="1937.5" y="-69" font-family="Helvetica,sans-Serif" font-size="10.00">/my_PrintHeap__FPCcUl.s</text>
</a>
</g>
</g>
<!-- Node1&#45;&gt;Node15 -->
<g id="edge15" class="edge">
<title>Node1&#45;&gt;Node15</title>
<path fill="none" stroke="midnightblue" d="M1117.07,-143.91C1260.99,-144.61 1589.46,-140.82 1861.5,-98 1867.6,-97.04 1873.92,-95.79 1880.2,-94.39"/>
<polygon fill="midnightblue" stroke="midnightblue" points="1881.05,-97.79 1889.97,-92.08 1879.44,-90.97 1881.05,-97.79"/>
</g>
<!-- Node16 -->
<g id="node16" class="node">
<title>Node16</title>
<g id="a_node16"><a xlink:title=" ">
<polygon fill="white" stroke="#bfbfbf" points="2022.5,-62 2022.5,-92 2184.5,-92 2184.5,-62 2022.5,-62"/>
<text text-anchor="start" x="2030.5" y="-80" font-family="Helvetica,sans-Serif" font-size="10.00">asm/m_Do/m_Do_machine</text>
<text text-anchor="middle" x="2103.5" y="-69" font-family="Helvetica,sans-Serif" font-size="10.00">/my_SysPrintHeap__FPCcPvUl.s</text>
</a>
</g>
</g>
<!-- Node1&#45;&gt;Node16 -->
<g id="edge16" class="edge">
<title>Node1&#45;&gt;Node16</title>
<path fill="none" stroke="midnightblue" d="M1117.14,-141.23C1312.44,-136.27 1840.44,-121.07 2013.5,-98 2021.2,-96.97 2029.21,-95.62 2037.14,-94.1"/>
<polygon fill="midnightblue" stroke="midnightblue" points="2038,-97.49 2047.11,-92.09 2036.62,-90.63 2038,-97.49"/>
</g>
<!-- Node17 -->
<g id="node17" class="node">
<title>Node17</title>
<g id="a_node17"><a xlink:title=" ">
<polygon fill="white" stroke="#bfbfbf" points="2202.5,-62 2202.5,-92 2336.5,-92 2336.5,-62 2202.5,-62"/>
<text text-anchor="start" x="2210.5" y="-80" font-family="Helvetica,sans-Serif" font-size="10.00">asm/m_Do/m_Do_machine</text>
<text text-anchor="middle" x="2269.5" y="-69" font-family="Helvetica,sans-Serif" font-size="10.00">/mDoMch_Create__Fv.s</text>
</a>
</g>
</g>
<!-- Node1&#45;&gt;Node17 -->
<g id="edge17" class="edge">
<title>Node1&#45;&gt;Node17</title>
<path fill="none" stroke="midnightblue" d="M1117.11,-142.22C1336.67,-139.55 1984.65,-129.18 2193.5,-98 2199.7,-97.07 2206.12,-95.84 2212.48,-94.43"/>
<polygon fill="midnightblue" stroke="midnightblue" points="2213.47,-97.79 2222.4,-92.1 2211.86,-90.98 2213.47,-97.79"/>
</g>
<!-- Node4&#45;&gt;Node3 -->
<g id="edge4" class="edge">
<title>Node4&#45;&gt;Node3</title>
<path fill="none" stroke="midnightblue" d="M171.57,-67.23C164.77,-57.2 153.48,-40.51 144.95,-27.92"/>
<polygon fill="midnightblue" stroke="midnightblue" points="147.84,-25.95 139.34,-19.63 142.05,-29.87 147.84,-25.95"/>
</g>
</g>
</svg>
