<?xml version="1.0" encoding="UTF-8" standalone="no"?>
<!DOCTYPE svg PUBLIC "-//W3C//DTD SVG 1.1//EN"
 "http://www.w3.org/Graphics/SVG/1.1/DTD/svg11.dtd">
<!-- Generated by graphviz version 2.47.0 (20210316.2052)
 -->
<!-- Title: src/m_Do/m_Do_DVDError.cpp Pages: 1 -->
<svg width="695pt" height="263pt"
 viewBox="0.00 0.00 694.50 263.00" xmlns="http://www.w3.org/2000/svg" xmlns:xlink="http://www.w3.org/1999/xlink">
<g id="graph0" class="graph" transform="scale(1 1) rotate(0) translate(4 259)">
<title>src/m_Do/m_Do_DVDError.cpp</title>
<polygon fill="white" stroke="transparent" points="-4,4 -4,-259 690.5,-259 690.5,4 -4,4"/>
<!-- Node1 -->
<g id="node1" class="node">
<title>Node1</title>
<g id="a_node1"><a xlink:title=" ">
<polygon fill="#bfbfbf" stroke="black" points="151,-235.5 151,-254.5 302,-254.5 302,-235.5 151,-235.5"/>
<text text-anchor="middle" x="226.5" y="-242.5" font-family="Helvetica,sans-Serif" font-size="10.00">src/m_Do/m_Do_DVDError.cpp</text>
</a>
</g>
</g>
<!-- Node2 -->
<g id="node2" class="node">
<title>Node2</title>
<g id="a_node2"><a xlink:href="dvd_8h.html" target="_top" xlink:title=" ">
<polygon fill="white" stroke="black" points="0,-56.5 0,-75.5 59,-75.5 59,-56.5 0,-56.5"/>
<text text-anchor="middle" x="29.5" y="-63.5" font-family="Helvetica,sans-Serif" font-size="10.00">dvd/dvd.h</text>
</a>
</g>
</g>
<!-- Node1&#45;&gt;Node2 -->
<g id="edge1" class="edge">
<title>Node1&#45;&gt;Node2</title>
<path fill="none" stroke="midnightblue" d="M154.46,-235.49C126.16,-229.17 94.92,-218.17 71.5,-199 37.33,-171.03 30.57,-115.27 29.48,-85.98"/>
<polygon fill="midnightblue" stroke="midnightblue" points="32.98,-85.77 29.29,-75.84 25.98,-85.9 32.98,-85.77"/>
</g>
<!-- Node4 -->
<g id="node4" class="node">
<title>Node4</title>
<g id="a_node4"><a xlink:href="global_8h.html" target="_top" xlink:title=" ">
<polygon fill="white" stroke="black" points="100.5,-174 100.5,-193 150.5,-193 150.5,-174 100.5,-174"/>
<text text-anchor="middle" x="125.5" y="-181" font-family="Helvetica,sans-Serif" font-size="10.00">global.h</text>
</a>
</g>
</g>
<!-- Node1&#45;&gt;Node4 -->
<g id="edge3" class="edge">
<title>Node1&#45;&gt;Node4</title>
<path fill="none" stroke="midnightblue" d="M212.03,-235.48C195.53,-225.75 168.32,-209.73 148.82,-198.24"/>
<polygon fill="midnightblue" stroke="midnightblue" points="150.34,-195.07 139.94,-193.01 146.78,-201.1 150.34,-195.07"/>
</g>
<!-- Node8 -->
<g id="node8" class="node">
<title>Node8</title>
<g id="a_node8"><a xlink:href="OS_8h.html" target="_top" xlink:title=" ">
<polygon fill="white" stroke="black" points="45.5,-112.5 45.5,-131.5 97.5,-131.5 97.5,-112.5 45.5,-112.5"/>
<text text-anchor="middle" x="71.5" y="-119.5" font-family="Helvetica,sans-Serif" font-size="10.00">os/OS.h</text>
</a>
</g>
</g>
<!-- Node1&#45;&gt;Node8 -->
<g id="edge13" class="edge">
<title>Node1&#45;&gt;Node8</title>
<path fill="none" stroke="midnightblue" d="M160.22,-235.43C135.64,-229.1 109.41,-218.1 91.5,-199 77.09,-183.63 72.79,-159.16 71.64,-142.16"/>
<polygon fill="midnightblue" stroke="midnightblue" points="75.13,-141.65 71.27,-131.78 68.13,-141.9 75.13,-141.65"/>
</g>
<!-- Node9 -->
<g id="node9" class="node">
<title>Node9</title>
<g id="a_node9"><a xlink:title=" ">
<polygon fill="white" stroke="#bfbfbf" points="168.5,-168.5 168.5,-198.5 284.5,-198.5 284.5,-168.5 168.5,-168.5"/>
<text text-anchor="start" x="176.5" y="-186.5" font-family="Helvetica,sans-Serif" font-size="10.00">m_Do/m_Do_DVDError</text>
<text text-anchor="middle" x="226.5" y="-175.5" font-family="Helvetica,sans-Serif" font-size="10.00">/asm/func_8001659C.s</text>
</a>
</g>
</g>
<!-- Node1&#45;&gt;Node9 -->
<g id="edge14" class="edge">
<title>Node1&#45;&gt;Node9</title>
<path fill="none" stroke="midnightblue" d="M226.5,-235.48C226.5,-228.47 226.5,-218.19 226.5,-208.7"/>
<polygon fill="midnightblue" stroke="midnightblue" points="230,-208.52 226.5,-198.52 223,-208.52 230,-208.52"/>
</g>
<!-- Node10 -->
<g id="node10" class="node">
<title>Node10</title>
<g id="a_node10"><a xlink:title=" ">
<polygon fill="white" stroke="#bfbfbf" points="302.5,-168.5 302.5,-198.5 418.5,-198.5 418.5,-168.5 302.5,-168.5"/>
<text text-anchor="start" x="310.5" y="-186.5" font-family="Helvetica,sans-Serif" font-size="10.00">m_Do/m_Do_DVDError</text>
<text text-anchor="middle" x="360.5" y="-175.5" font-family="Helvetica,sans-Serif" font-size="10.00">/asm/func_8001665C.s</text>
</a>
</g>
</g>
<!-- Node1&#45;&gt;Node10 -->
<g id="edge15" class="edge">
<title>Node1&#45;&gt;Node10</title>
<path fill="none" stroke="midnightblue" d="M245.7,-235.48C264.87,-226.96 294.92,-213.62 319.47,-202.72"/>
<polygon fill="midnightblue" stroke="midnightblue" points="321.2,-205.78 328.92,-198.52 318.36,-199.38 321.2,-205.78"/>
</g>
<!-- Node11 -->
<g id="node11" class="node">
<title>Node11</title>
<g id="a_node11"><a xlink:title=" ">
<polygon fill="white" stroke="#bfbfbf" points="436.5,-168.5 436.5,-198.5 552.5,-198.5 552.5,-168.5 436.5,-168.5"/>
<text text-anchor="start" x="444.5" y="-186.5" font-family="Helvetica,sans-Serif" font-size="10.00">m_Do/m_Do_DVDError</text>
<text text-anchor="middle" x="494.5" y="-175.5" font-family="Helvetica,sans-Serif" font-size="10.00">/asm/func_800166A4.s</text>
</a>
</g>
</g>
<!-- Node1&#45;&gt;Node11 -->
<g id="edge16" class="edge">
<title>Node1&#45;&gt;Node11</title>
<path fill="none" stroke="midnightblue" d="M264.9,-235.48C306.96,-226.14 375.25,-210.98 426.44,-199.61"/>
<polygon fill="midnightblue" stroke="midnightblue" points="427.43,-202.98 436.44,-197.39 425.91,-196.14 427.43,-202.98"/>
</g>
<!-- Node12 -->
<g id="node12" class="node">
<title>Node12</title>
<g id="a_node12"><a xlink:title=" ">
<polygon fill="white" stroke="#bfbfbf" points="570.5,-168.5 570.5,-198.5 686.5,-198.5 686.5,-168.5 570.5,-168.5"/>
<text text-anchor="start" x="578.5" y="-186.5" font-family="Helvetica,sans-Serif" font-size="10.00">m_Do/m_Do_DVDError</text>
<text text-anchor="middle" x="628.5" y="-175.5" font-family="Helvetica,sans-Serif" font-size="10.00">/asm/func_80016704.s</text>
</a>
</g>
</g>
<!-- Node1&#45;&gt;Node12 -->
<g id="edge17" class="edge">
<title>Node1&#45;&gt;Node12</title>
<path fill="none" stroke="midnightblue" d="M302.27,-235.57C368.01,-227.85 465.95,-215.4 560.43,-199.1"/>
<polygon fill="midnightblue" stroke="midnightblue" points="561.2,-202.52 570.45,-197.36 560,-195.63 561.2,-202.52"/>
</g>
<!-- Node3 -->
<g id="node3" class="node">
<title>Node3</title>
<g id="a_node3"><a xlink:href="types_8h.html" target="_top" xlink:title=" ">
<polygon fill="white" stroke="black" points="85,-0.5 85,-19.5 166,-19.5 166,-0.5 85,-0.5"/>
<text text-anchor="middle" x="125.5" y="-7.5" font-family="Helvetica,sans-Serif" font-size="10.00">dolphin/types.h</text>
</a>
</g>
</g>
<!-- Node2&#45;&gt;Node3 -->
<g id="edge2" class="edge">
<title>Node2&#45;&gt;Node3</title>
<path fill="none" stroke="midnightblue" d="M44.92,-56.32C60.04,-47.82 83.32,-34.73 100.97,-24.8"/>
<polygon fill="midnightblue" stroke="midnightblue" points="103.11,-27.61 110.11,-19.65 99.68,-21.51 103.11,-27.61"/>
</g>
<!-- Node4&#45;&gt;Node3 -->
<g id="edge4" class="edge">
<title>Node4&#45;&gt;Node3</title>
<path fill="none" stroke="midnightblue" d="M125.5,-173.76C125.5,-147.15 125.5,-66.71 125.5,-29.84"/>
<polygon fill="midnightblue" stroke="midnightblue" points="129,-29.52 125.5,-19.52 122,-29.52 129,-29.52"/>
</g>
<!-- Node5 -->
<g id="node5" class="node">
<title>Node5</title>
<g id="a_node5"><a xlink:href="AR_8h.html" target="_top" xlink:title=" ">
<polygon fill="white" stroke="black" points="154,-56.5 154,-75.5 203,-75.5 203,-56.5 154,-56.5"/>
<text text-anchor="middle" x="178.5" y="-63.5" font-family="Helvetica,sans-Serif" font-size="10.00">ar/AR.h</text>
</a>
</g>
</g>
<!-- Node4&#45;&gt;Node5 -->
<g id="edge5" class="edge">
<title>Node4&#45;&gt;Node5</title>
<path fill="none" stroke="midnightblue" d="M129.48,-173.82C138.12,-155.01 158.7,-110.15 170.26,-84.96"/>
<polygon fill="midnightblue" stroke="midnightblue" points="173.48,-86.33 174.47,-75.78 167.12,-83.41 173.48,-86.33"/>
</g>
<!-- Node6 -->
<g id="node6" class="node">
<title>Node6</title>
<g id="a_node6"><a xlink:href="ARQ_8h.html" target="_top" xlink:title=" ">
<polygon fill="white" stroke="black" points="221.5,-56.5 221.5,-75.5 277.5,-75.5 277.5,-56.5 221.5,-56.5"/>
<text text-anchor="middle" x="249.5" y="-63.5" font-family="Helvetica,sans-Serif" font-size="10.00">ar/ARQ.h</text>
</a>
</g>
</g>
<!-- Node4&#45;&gt;Node6 -->
<g id="edge7" class="edge">
<title>Node4&#45;&gt;Node6</title>
<path fill="none" stroke="midnightblue" d="M134.82,-173.82C155.65,-154.42 206.2,-107.33 232.68,-82.66"/>
<polygon fill="midnightblue" stroke="midnightblue" points="235.14,-85.16 240.07,-75.78 230.37,-80.04 235.14,-85.16"/>
</g>
<!-- Node7 -->
<g id="node7" class="node">
<title>Node7</title>
<g id="a_node7"><a xlink:href="mwcc_8h.html" target="_top" xlink:title=" ">
<polygon fill="white" stroke="black" points="229.5,-112.5 229.5,-131.5 279.5,-131.5 279.5,-112.5 229.5,-112.5"/>
<text text-anchor="middle" x="254.5" y="-119.5" font-family="Helvetica,sans-Serif" font-size="10.00">mwcc.h</text>
</a>
</g>
</g>
<!-- Node4&#45;&gt;Node7 -->
<g id="edge9" class="edge">
<title>Node4&#45;&gt;Node7</title>
<path fill="none" stroke="midnightblue" d="M143.98,-173.98C165.63,-163.99 201.71,-147.35 226.73,-135.81"/>
<polygon fill="midnightblue" stroke="midnightblue" points="228.44,-138.88 236.05,-131.51 225.51,-132.52 228.44,-138.88"/>
</g>
<!-- Node4&#45;&gt;Node8 -->
<g id="edge10" class="edge">
<title>Node4&#45;&gt;Node8</title>
<path fill="none" stroke="midnightblue" d="M117.76,-173.98C109.5,-164.87 96.22,-150.24 86.01,-138.98"/>
<polygon fill="midnightblue" stroke="midnightblue" points="88.53,-136.56 79.22,-131.51 83.35,-141.27 88.53,-136.56"/>
</g>
<!-- Node5&#45;&gt;Node3 -->
<g id="edge6" class="edge">
<title>Node5&#45;&gt;Node3</title>
<path fill="none" stroke="midnightblue" d="M169.75,-56.08C162.03,-48.22 150.6,-36.57 141.28,-27.08"/>
<polygon fill="midnightblue" stroke="midnightblue" points="143.59,-24.44 134.09,-19.75 138.6,-29.34 143.59,-24.44"/>
</g>
<!-- Node6&#45;&gt;Node3 -->
<g id="edge8" class="edge">
<title>Node6&#45;&gt;Node3</title>
<path fill="none" stroke="midnightblue" d="M229.85,-56.44C209.54,-47.6 177.6,-33.69 154.4,-23.59"/>
<polygon fill="midnightblue" stroke="midnightblue" points="155.62,-20.3 145.06,-19.52 152.83,-26.72 155.62,-20.3"/>
</g>
<!-- Node8&#45;&gt;Node2 -->
<g id="edge12" class="edge">
<title>Node8&#45;&gt;Node2</title>
<path fill="none" stroke="midnightblue" d="M64.56,-112.08C58.57,-104.38 49.75,-93.03 42.45,-83.65"/>
<polygon fill="midnightblue" stroke="midnightblue" points="45.21,-81.5 36.31,-75.75 39.68,-85.79 45.21,-81.5"/>
</g>
<!-- Node8&#45;&gt;Node3 -->
<g id="edge11" class="edge">
<title>Node8&#45;&gt;Node3</title>
<path fill="none" stroke="midnightblue" d="M75.74,-112.37C84.57,-94.38 105.1,-52.55 116.85,-28.63"/>
<polygon fill="midnightblue" stroke="midnightblue" points="120.02,-30.11 121.28,-19.59 113.73,-27.03 120.02,-30.11"/>
</g>
</g>
</svg>
