<?xml version="1.0" encoding="UTF-8" standalone="no"?>
<!DOCTYPE svg PUBLIC "-//W3C//DTD SVG 1.1//EN"
 "http://www.w3.org/Graphics/SVG/1.1/DTD/svg11.dtd">
<!-- Generated by graphviz version 2.47.0 (20210316.2052)
 -->
<!-- Title: src/m_Do/m_Do_Reset.cpp Pages: 1 -->
<svg width="825pt" height="162pt"
 viewBox="0.00 0.00 825.00 162.00" xmlns="http://www.w3.org/2000/svg" xmlns:xlink="http://www.w3.org/1999/xlink">
<g id="graph0" class="graph" transform="scale(1 1) rotate(0) translate(4 158)">
<title>src/m_Do/m_Do_Reset.cpp</title>
<polygon fill="white" stroke="transparent" points="-4,4 -4,-158 821,-158 821,4 -4,4"/>
<!-- Node1 -->
<g id="node1" class="node">
<title>Node1</title>
<g id="a_node1"><a xlink:title=" ">
<polygon fill="#bfbfbf" stroke="black" points="238.5,-134.5 238.5,-153.5 374.5,-153.5 374.5,-134.5 238.5,-134.5"/>
<text text-anchor="middle" x="306.5" y="-141.5" font-family="Helvetica,sans-Serif" font-size="10.00">src/m_Do/m_Do_Reset.cpp</text>
</a>
</g>
</g>
<!-- Node2 -->
<g id="node2" class="node">
<title>Node2</title>
<g id="a_node2"><a xlink:href="m__Do__Reset_8h.html" target="_top" xlink:title=" ">
<polygon fill="white" stroke="black" points="0,-67.5 0,-86.5 109,-86.5 109,-67.5 0,-67.5"/>
<text text-anchor="middle" x="54.5" y="-74.5" font-family="Helvetica,sans-Serif" font-size="10.00">m_Do/m_Do_Reset.h</text>
</a>
</g>
</g>
<!-- Node1&#45;&gt;Node2 -->
<g id="edge1" class="edge">
<title>Node1&#45;&gt;Node2</title>
<path fill="none" stroke="midnightblue" d="M269.93,-134.47C232.91,-125.73 174.07,-111.54 123.5,-98 113.47,-95.31 102.67,-92.26 92.65,-89.36"/>
<polygon fill="midnightblue" stroke="midnightblue" points="93.54,-85.98 82.96,-86.53 91.58,-92.69 93.54,-85.98"/>
</g>
<!-- Node3 -->
<g id="node3" class="node">
<title>Node3</title>
<g id="a_node3"><a xlink:href="types_8h.html" target="_top" xlink:title=" ">
<polygon fill="white" stroke="black" points="55,-0.5 55,-19.5 136,-19.5 136,-0.5 55,-0.5"/>
<text text-anchor="middle" x="95.5" y="-7.5" font-family="Helvetica,sans-Serif" font-size="10.00">dolphin/types.h</text>
</a>
</g>
</g>
<!-- Node1&#45;&gt;Node3 -->
<g id="edge4" class="edge">
<title>Node1&#45;&gt;Node3</title>
<path fill="none" stroke="midnightblue" d="M247.69,-134.48C218.52,-128.07 183.95,-116.98 157.5,-98 132.35,-79.95 113.64,-48.46 103.66,-28.72"/>
<polygon fill="midnightblue" stroke="midnightblue" points="106.76,-27.08 99.25,-19.6 100.46,-30.13 106.76,-27.08"/>
</g>
<!-- Node4 -->
<g id="node4" class="node">
<title>Node4</title>
<g id="a_node4"><a xlink:href="dol2asm_8h.html" target="_top" xlink:title=" ">
<polygon fill="white" stroke="black" points="166,-67.5 166,-86.5 227,-86.5 227,-67.5 166,-67.5"/>
<text text-anchor="middle" x="196.5" y="-74.5" font-family="Helvetica,sans-Serif" font-size="10.00">dol2asm.h</text>
</a>
</g>
</g>
<!-- Node1&#45;&gt;Node4 -->
<g id="edge3" class="edge">
<title>Node1&#45;&gt;Node4</title>
<path fill="none" stroke="midnightblue" d="M291.66,-134.23C273.19,-123.32 241.43,-104.55 219.72,-91.72"/>
<polygon fill="midnightblue" stroke="midnightblue" points="221.49,-88.7 211.1,-86.63 217.93,-94.73 221.49,-88.7"/>
</g>
<!-- Node5 -->
<g id="node5" class="node">
<title>Node5</title>
<g id="a_node5"><a xlink:title=" ">
<polygon fill="white" stroke="#bfbfbf" points="245,-62 245,-92 368,-92 368,-62 245,-62"/>
<text text-anchor="start" x="253" y="-80" font-family="Helvetica,sans-Serif" font-size="10.00">asm/m_Do/m_Do_Reset</text>
<text text-anchor="middle" x="306.5" y="-69" font-family="Helvetica,sans-Serif" font-size="10.00">/destroyVideo__Fv.s</text>
</a>
</g>
</g>
<!-- Node1&#45;&gt;Node5 -->
<g id="edge5" class="edge">
<title>Node1&#45;&gt;Node5</title>
<path fill="none" stroke="midnightblue" d="M306.5,-134.23C306.5,-126.04 306.5,-113.42 306.5,-102.21"/>
<polygon fill="midnightblue" stroke="midnightblue" points="310,-102.09 306.5,-92.09 303,-102.09 310,-102.09"/>
</g>
<!-- Node6 -->
<g id="node6" class="node">
<title>Node6</title>
<g id="a_node6"><a xlink:title=" ">
<polygon fill="white" stroke="#bfbfbf" points="386,-62 386,-92 509,-92 509,-62 386,-62"/>
<text text-anchor="start" x="394" y="-80" font-family="Helvetica,sans-Serif" font-size="10.00">asm/m_Do/m_Do_Reset</text>
<text text-anchor="middle" x="447.5" y="-69" font-family="Helvetica,sans-Serif" font-size="10.00">/mDoRst_reset__FiUli.s</text>
</a>
</g>
</g>
<!-- Node1&#45;&gt;Node6 -->
<g id="edge6" class="edge">
<title>Node1&#45;&gt;Node6</title>
<path fill="none" stroke="midnightblue" d="M325.22,-134.37C346.2,-124.7 380.8,-108.75 407.85,-96.28"/>
<polygon fill="midnightblue" stroke="midnightblue" points="409.45,-99.39 417.07,-92.03 406.52,-93.04 409.45,-99.39"/>
</g>
<!-- Node7 -->
<g id="node7" class="node">
<title>Node7</title>
<g id="a_node7"><a xlink:title=" ">
<polygon fill="white" stroke="#bfbfbf" points="527,-56.5 527,-97.5 650,-97.5 650,-56.5 527,-56.5"/>
<text text-anchor="start" x="535" y="-85.5" font-family="Helvetica,sans-Serif" font-size="10.00">asm/m_Do/m_Do_Reset</text>
<text text-anchor="start" x="535" y="-74.5" font-family="Helvetica,sans-Serif" font-size="10.00">/mDoRst_resetCallBack</text>
<text text-anchor="middle" x="588.5" y="-63.5" font-family="Helvetica,sans-Serif" font-size="10.00">__FiPv.s</text>
</a>
</g>
</g>
<!-- Node1&#45;&gt;Node7 -->
<g id="edge7" class="edge">
<title>Node1&#45;&gt;Node7</title>
<path fill="none" stroke="midnightblue" d="M350.96,-134.49C391.81,-126.47 454.25,-113.68 516.71,-98.38"/>
<polygon fill="midnightblue" stroke="midnightblue" points="517.86,-101.7 526.73,-95.9 516.18,-94.9 517.86,-101.7"/>
</g>
<!-- Node8 -->
<g id="node8" class="node">
<title>Node8</title>
<g id="a_node8"><a xlink:title=" ">
<polygon fill="white" stroke="#bfbfbf" points="668,-62 668,-92 817,-92 817,-62 668,-62"/>
<text text-anchor="start" x="676" y="-80" font-family="Helvetica,sans-Serif" font-size="10.00">asm/m_Do/m_Do_Reset</text>
<text text-anchor="middle" x="742.5" y="-69" font-family="Helvetica,sans-Serif" font-size="10.00">/getResetData__6mDoRstFv.s</text>
</a>
</g>
</g>
<!-- Node1&#45;&gt;Node8 -->
<g id="edge8" class="edge">
<title>Node1&#45;&gt;Node8</title>
<path fill="none" stroke="midnightblue" d="M374.51,-136.57C445.85,-129.3 561.06,-116.08 659.5,-98 665.38,-96.92 671.48,-95.68 677.56,-94.37"/>
<polygon fill="midnightblue" stroke="midnightblue" points="678.77,-97.68 687.77,-92.09 677.24,-90.85 678.77,-97.68"/>
</g>
<!-- Node2&#45;&gt;Node3 -->
<g id="edge2" class="edge">
<title>Node2&#45;&gt;Node3</title>
<path fill="none" stroke="midnightblue" d="M60.03,-67.23C66.3,-57.29 76.68,-40.84 84.59,-28.29"/>
<polygon fill="midnightblue" stroke="midnightblue" points="87.68,-29.95 90.06,-19.63 81.76,-26.22 87.68,-29.95"/>
</g>
</g>
</svg>
