<?xml version="1.0" encoding="UTF-8" standalone="no"?>
<!DOCTYPE svg PUBLIC "-//W3C//DTD SVG 1.1//EN"
 "http://www.w3.org/Graphics/SVG/1.1/DTD/svg11.dtd">
<!-- Generated by graphviz version 2.47.0 (20210316.2052)
 -->
<!-- Title: src/m_Do/m_Do_Reset.cpp Pages: 1 -->
<!--zoomable 620 -->
<svg id="main" version="1.1" xmlns="http://www.w3.org/2000/svg" xmlns:xlink="http://www.w3.org/1999/xlink" xml:space="preserve" onload="init(evt)">
<style type="text/css"><![CDATA[
.edge:hover path { stroke: red; }
.edge:hover polygon { stroke: red; fill: red; }
]]></style>
<script type="text/javascript"><![CDATA[
var edges = document.getElementsByTagName('g');
if (edges && edges.length) {
  for (var i=0;i<edges.length;i++) {
    if (edges[i].id.substr(0,4)=='edge') {
      edges[i].setAttribute('class','edge');
    }
  }
}
]]></script>
        <defs>
                <circle id="rim" cx="0" cy="0" r="7"/>
                <circle id="rim2" cx="0" cy="0" r="3.5"/>
                <g id="zoomPlus">
                        <use xlink:href="#rim" fill="#404040">
                                <set attributeName="fill" to="#808080" begin="zoomplus.mouseover" end="zoomplus.mouseout"/>
                        </use>
                        <path d="M-4,0h8M0,-4v8" fill="none" stroke="white" stroke-width="1.5" pointer-events="none"/>
                </g>
                <g id="zoomMin">
                        <use xlink:href="#rim" fill="#404040">
                                <set attributeName="fill" to="#808080" begin="zoomminus.mouseover" end="zoomminus.mouseout"/>
                        </use>
                        <path d="M-4,0h8" fill="none" stroke="white" stroke-width="1.5" pointer-events="none"/>
                </g>
                <g id="dirArrow">
                        <path fill="none" stroke="white" stroke-width="1.5" d="M0,-3.0v7 M-2.5,-0.5L0,-3.0L2.5,-0.5"/>
                </g>
               <g id="resetDef">
                       <use xlink:href="#rim2" fill="#404040">
                               <set attributeName="fill" to="#808080" begin="reset.mouseover" end="reset.mouseout"/>
                       </use>
               </g>
        </defs>

<script type="text/javascript">
var viewWidth = 1554;
var viewHeight = 620;
var sectionId = 'dynsection-0';
</script>
<script xlink:href="svgpan.js"/>
<svg id="graph" class="graph">
<g id="viewport">
<title>src/m_Do/m_Do_Reset.cpp</title>
<polygon fill="white" stroke="transparent" points="-4,4 -4,-616 1550,-616 1550,4 -4,4"/>
<!-- Node1 -->
<g id="node1" class="node">
<title>Node1</title>
<g id="a_node1"><a xlink:title=" ">
<polygon fill="#bfbfbf" stroke="black" points="179,-592.5 179,-611.5 315,-611.5 315,-592.5 179,-592.5"/>
<text text-anchor="middle" x="247" y="-599.5" font-family="Helvetica,sans-Serif" font-size="10.00">src/m_Do/m_Do_Reset.cpp</text>
</a>
</g>
</g>
<!-- Node2 -->
<g id="node2" class="node">
<title>Node2</title>
<g id="a_node2"><a xlink:href="m__Do__Reset_8h.html" target="_top" xlink:title=" ">
<polygon fill="white" stroke="black" points="0,-391.5 0,-421.5 130,-421.5 130,-391.5 0,-391.5"/>
<text text-anchor="start" x="8" y="-409.5" font-family="Helvetica,sans-Serif" font-size="10.00">m_Do/m_Do_Reset/m_Do</text>
<text text-anchor="middle" x="65" y="-398.5" font-family="Helvetica,sans-Serif" font-size="10.00">_Reset.h</text>
</a>
</g>
</g>
<!-- Node1&#45;&gt;Node2 -->
<g id="edge1" class="edge">
<title>Node1&#45;&gt;Node2</title>
<path fill="none" stroke="midnightblue" d="M213.16,-592.49C191.33,-585.6 163.47,-574.03 144,-556 106.27,-521.06 83.06,-463.93 72.26,-431.66"/>
<polygon fill="midnightblue" stroke="midnightblue" points="75.46,-430.19 69.06,-421.74 68.8,-432.33 75.46,-430.19"/>
</g>
<!-- Node3 -->
<g id="node3" class="node">
<title>Node3</title>
<g id="a_node3"><a xlink:href="JUTXfb_8h.html" target="_top" xlink:title=" ">
<polygon fill="white" stroke="black" points="42.5,-324.5 42.5,-354.5 167.5,-354.5 167.5,-324.5 42.5,-324.5"/>
<text text-anchor="start" x="50.5" y="-342.5" font-family="Helvetica,sans-Serif" font-size="10.00">JSystem/JUtility/JUTXfb</text>
<text text-anchor="middle" x="105" y="-331.5" font-family="Helvetica,sans-Serif" font-size="10.00">/JUTXfb.h</text>
</a>
</g>
</g>
<!-- Node1&#45;&gt;Node3 -->
<g id="edge24" class="edge">
<title>Node1&#45;&gt;Node3</title>
<path fill="none" stroke="midnightblue" d="M227.97,-592.47C213.28,-584.92 193.56,-572.54 182,-556 138.58,-493.89 170.16,-460.08 139,-391 134.61,-381.28 128.4,-371.37 122.48,-362.93"/>
<polygon fill="midnightblue" stroke="midnightblue" points="125.23,-360.77 116.51,-354.75 119.58,-364.89 125.23,-360.77"/>
</g>
<!-- Node8 -->
<g id="node8" class="node">
<title>Node8</title>
<g id="a_node8"><a xlink:href="global_8h.html" target="_top" xlink:title=" ">
<polygon fill="white" stroke="black" points="517,-196 517,-215 567,-215 567,-196 517,-196"/>
<text text-anchor="middle" x="542" y="-203" font-family="Helvetica,sans-Serif" font-size="10.00">global.h</text>
</a>
</g>
</g>
<!-- Node1&#45;&gt;Node8 -->
<g id="edge61" class="edge">
<title>Node1&#45;&gt;Node8</title>
<path fill="none" stroke="midnightblue" d="M240.75,-592.29C227.13,-572.43 196,-521.86 196,-474.5 196,-474.5 196,-474.5 196,-405.5 196,-329.01 220.6,-301.24 283,-257 318.59,-231.77 444.61,-216.12 506.78,-209.77"/>
<polygon fill="midnightblue" stroke="midnightblue" points="507.3,-213.24 516.9,-208.76 506.6,-206.27 507.3,-213.24"/>
</g>
<!-- Node13 -->
<g id="node13" class="node">
<title>Node13</title>
<g id="a_node13"><a xlink:href="dvd_8h.html" target="_top" xlink:title=" ">
<polygon fill="white" stroke="black" points="782.5,-62 782.5,-81 841.5,-81 841.5,-62 782.5,-62"/>
<text text-anchor="middle" x="812" y="-69" font-family="Helvetica,sans-Serif" font-size="10.00">dvd/dvd.h</text>
</a>
</g>
</g>
<!-- Node1&#45;&gt;Node13 -->
<g id="edge60" class="edge">
<title>Node1&#45;&gt;Node13</title>
<path fill="none" stroke="midnightblue" d="M315.17,-601.21C475.29,-599.86 862,-585.14 862,-474.5 862,-474.5 862,-474.5 862,-271.5 862,-203.03 833.82,-125.2 819.77,-90.66"/>
<polygon fill="midnightblue" stroke="midnightblue" points="822.83,-88.92 815.76,-81.04 816.37,-91.61 822.83,-88.92"/>
</g>
<!-- Node15 -->
<g id="node15" class="node">
<title>Node15</title>
<g id="a_node15"><a xlink:href="c__API__controller__pad_8h.html" target="_top" xlink:title=" ">
<polygon fill="white" stroke="black" points="224,-458.5 224,-488.5 372,-488.5 372,-458.5 224,-458.5"/>
<text text-anchor="start" x="232" y="-476.5" font-family="Helvetica,sans-Serif" font-size="10.00">SComponent/c_API_controller</text>
<text text-anchor="middle" x="298" y="-465.5" font-family="Helvetica,sans-Serif" font-size="10.00">_pad.h</text>
</a>
</g>
</g>
<!-- Node1&#45;&gt;Node15 -->
<g id="edge25" class="edge">
<title>Node1&#45;&gt;Node15</title>
<path fill="none" stroke="midnightblue" d="M250.51,-592.31C258.2,-573.21 276.81,-527.07 288.31,-498.52"/>
<polygon fill="midnightblue" stroke="midnightblue" points="291.71,-499.47 292.2,-488.89 285.21,-496.85 291.71,-499.47"/>
</g>
<!-- Node16 -->
<g id="node16" class="node">
<title>Node16</title>
<g id="a_node16"><a xlink:href="Z2AudioMgr_8h.html" target="_top" xlink:title=" ">
<polygon fill="white" stroke="black" points="599,-525.5 599,-555.5 721,-555.5 721,-525.5 599,-525.5"/>
<text text-anchor="start" x="607" y="-543.5" font-family="Helvetica,sans-Serif" font-size="10.00">Z2AudioLib/Z2AudioMgr</text>
<text text-anchor="middle" x="660" y="-532.5" font-family="Helvetica,sans-Serif" font-size="10.00">/Z2AudioMgr.h</text>
</a>
</g>
</g>
<!-- Node1&#45;&gt;Node16 -->
<g id="edge27" class="edge">
<title>Node1&#45;&gt;Node16</title>
<path fill="none" stroke="midnightblue" d="M306.17,-592.48C380.82,-581.72 509.07,-563.24 588.94,-551.74"/>
<polygon fill="midnightblue" stroke="midnightblue" points="589.52,-555.19 598.92,-550.3 588.52,-548.26 589.52,-555.19"/>
</g>
<!-- Node2&#45;&gt;Node3 -->
<g id="edge2" class="edge">
<title>Node2&#45;&gt;Node3</title>
<path fill="none" stroke="midnightblue" d="M73.68,-391.4C78.76,-383.13 85.3,-372.51 91.09,-363.1"/>
<polygon fill="midnightblue" stroke="midnightblue" points="94.08,-364.93 96.34,-354.58 88.12,-361.26 94.08,-364.93"/>
</g>
<!-- Node7 -->
<g id="node7" class="node">
<title>Node7</title>
<g id="a_node7"><a xlink:href="types_8h.html" target="_top" xlink:title=" ">
<polygon fill="white" stroke="black" points="800.5,-0.5 800.5,-19.5 881.5,-19.5 881.5,-0.5 800.5,-0.5"/>
<text text-anchor="middle" x="841" y="-7.5" font-family="Helvetica,sans-Serif" font-size="10.00">dolphin/types.h</text>
</a>
</g>
</g>
<!-- Node2&#45;&gt;Node7 -->
<g id="edge23" class="edge">
<title>Node2&#45;&gt;Node7</title>
<path fill="none" stroke="midnightblue" d="M54.1,-391.2C47.15,-381.46 38.46,-368.02 33,-355 18.62,-320.7 14,-310.69 14,-273.5 14,-273.5 14,-273.5 14,-137.5 14,-79.47 61.86,-76.88 116,-56 178.4,-31.94 635.18,-16.85 789.91,-12.39"/>
<polygon fill="midnightblue" stroke="midnightblue" points="790.2,-15.89 800.09,-12.1 790,-8.89 790.2,-15.89"/>
</g>
<!-- Node4 -->
<g id="node4" class="node">
<title>Node4</title>
<g id="a_node4"><a xlink:href="JKRHeap_8h.html" target="_top" xlink:title=" ">
<polygon fill="white" stroke="black" points="660,-257.5 660,-287.5 796,-287.5 796,-257.5 660,-257.5"/>
<text text-anchor="start" x="668" y="-275.5" font-family="Helvetica,sans-Serif" font-size="10.00">JSystem/JKernel/JKRHeap</text>
<text text-anchor="middle" x="728" y="-264.5" font-family="Helvetica,sans-Serif" font-size="10.00">/JKRHeap.h</text>
</a>
</g>
</g>
<!-- Node3&#45;&gt;Node4 -->
<g id="edge3" class="edge">
<title>Node3&#45;&gt;Node4</title>
<path fill="none" stroke="midnightblue" d="M167.62,-332.81C263.57,-323.97 452.71,-306.07 613,-288 624.87,-286.66 637.42,-285.16 649.7,-283.65"/>
<polygon fill="midnightblue" stroke="midnightblue" points="650.44,-287.09 659.93,-282.38 649.57,-280.14 650.44,-287.09"/>
</g>
<!-- Node3&#45;&gt;Node7 -->
<g id="edge20" class="edge">
<title>Node3&#45;&gt;Node7</title>
<path fill="none" stroke="midnightblue" d="M105,-324.24C105,-300.03 105,-249.35 105,-206.5 105,-206.5 105,-206.5 105,-137.5 105,-94.53 120.02,-77.88 157,-56 211.01,-24.04 640.41,-14.2 789.9,-11.72"/>
<polygon fill="midnightblue" stroke="midnightblue" points="790.23,-15.22 800.17,-11.56 790.12,-8.22 790.23,-15.22"/>
</g>
<!-- Node14 -->
<g id="node14" class="node">
<title>Node14</title>
<g id="a_node14"><a xlink:href="GX_8h.html" target="_top" xlink:title=" ">
<polygon fill="white" stroke="black" points="165.5,-62 165.5,-81 216.5,-81 216.5,-62 165.5,-62"/>
<text text-anchor="middle" x="191" y="-69" font-family="Helvetica,sans-Serif" font-size="10.00">gx/GX.h</text>
</a>
</g>
</g>
<!-- Node3&#45;&gt;Node14 -->
<g id="edge21" class="edge">
<title>Node3&#45;&gt;Node14</title>
<path fill="none" stroke="midnightblue" d="M109.62,-324.2C124.15,-279.25 168.89,-140.87 185.08,-90.81"/>
<polygon fill="midnightblue" stroke="midnightblue" points="188.49,-91.64 188.24,-81.05 181.83,-89.49 188.49,-91.64"/>
</g>
<!-- Node5 -->
<g id="node5" class="node">
<title>Node5</title>
<g id="a_node5"><a xlink:href="JKRDisposer_8h.html" target="_top" xlink:title=" ">
<polygon fill="white" stroke="black" points="890.5,-190.5 890.5,-220.5 1041.5,-220.5 1041.5,-190.5 890.5,-190.5"/>
<text text-anchor="start" x="898.5" y="-208.5" font-family="Helvetica,sans-Serif" font-size="10.00">JSystem/JKernel/JKRDisposer</text>
<text text-anchor="middle" x="966" y="-197.5" font-family="Helvetica,sans-Serif" font-size="10.00">/JKRDisposer.h</text>
</a>
</g>
</g>
<!-- Node4&#45;&gt;Node5 -->
<g id="edge4" class="edge">
<title>Node4&#45;&gt;Node5</title>
<path fill="none" stroke="midnightblue" d="M779.35,-257.48C815.98,-247.47 865.41,-233.97 904.2,-223.38"/>
<polygon fill="midnightblue" stroke="midnightblue" points="905.61,-226.62 914.33,-220.61 903.76,-219.87 905.61,-226.62"/>
</g>
<!-- Node4&#45;&gt;Node7 -->
<g id="edge8" class="edge">
<title>Node4&#45;&gt;Node7</title>
<path fill="none" stroke="midnightblue" d="M725.52,-257.34C719.78,-219.56 709.68,-115.2 761,-56 773.28,-41.84 791.15,-31.2 806.9,-23.82"/>
<polygon fill="midnightblue" stroke="midnightblue" points="808.62,-26.89 816.35,-19.65 805.79,-20.48 808.62,-26.89"/>
</g>
<!-- Node4&#45;&gt;Node8 -->
<g id="edge9" class="edge">
<title>Node4&#45;&gt;Node8</title>
<path fill="none" stroke="midnightblue" d="M687.64,-257.4C654.28,-245.74 607.45,-229.37 575.98,-218.38"/>
<polygon fill="midnightblue" stroke="midnightblue" points="576.94,-215 566.34,-215.01 574.63,-221.61 576.94,-215"/>
</g>
<!-- Node6 -->
<g id="node6" class="node">
<title>Node6</title>
<g id="a_node6"><a xlink:href="JSUList_8h.html" target="_top" xlink:title=" ">
<polygon fill="white" stroke="black" points="890,-123.5 890,-153.5 1026,-153.5 1026,-123.5 890,-123.5"/>
<text text-anchor="start" x="898" y="-141.5" font-family="Helvetica,sans-Serif" font-size="10.00">JSystem/JSupport/JSUList</text>
<text text-anchor="middle" x="958" y="-130.5" font-family="Helvetica,sans-Serif" font-size="10.00">/JSUList.h</text>
</a>
</g>
</g>
<!-- Node5&#45;&gt;Node6 -->
<g id="edge5" class="edge">
<title>Node5&#45;&gt;Node6</title>
<path fill="none" stroke="midnightblue" d="M964.26,-190.4C963.3,-182.56 962.07,-172.6 960.96,-163.57"/>
<polygon fill="midnightblue" stroke="midnightblue" points="964.43,-163.07 959.73,-153.58 957.48,-163.93 964.43,-163.07"/>
</g>
<!-- Node5&#45;&gt;Node7 -->
<g id="edge7" class="edge">
<title>Node5&#45;&gt;Node7</title>
<path fill="none" stroke="midnightblue" d="M996.91,-190.34C1011.28,-181.98 1026.94,-169.89 1035,-154 1041.23,-141.71 1041.89,-134.93 1035,-123 1003.12,-67.78 932.49,-37.35 885.83,-22.61"/>
<polygon fill="midnightblue" stroke="midnightblue" points="886.55,-19.17 875.97,-19.61 884.52,-25.87 886.55,-19.17"/>
</g>
<!-- Node6&#45;&gt;Node7 -->
<g id="edge6" class="edge">
<title>Node6&#45;&gt;Node7</title>
<path fill="none" stroke="midnightblue" d="M945.27,-123.27C930.62,-106.92 905.75,-79.35 884,-56 874.96,-46.29 864.7,-35.55 856.47,-26.99"/>
<polygon fill="midnightblue" stroke="midnightblue" points="858.77,-24.33 849.31,-19.56 853.73,-29.19 858.77,-24.33"/>
</g>
<!-- Node8&#45;&gt;Node7 -->
<g id="edge10" class="edge">
<title>Node8&#45;&gt;Node7</title>
<path fill="none" stroke="midnightblue" d="M541.86,-195.97C542.03,-180.06 544.43,-145.44 561,-123 615.25,-49.54 725.55,-24.19 790.35,-15.49"/>
<polygon fill="midnightblue" stroke="midnightblue" points="790.85,-18.96 800.34,-14.24 789.98,-12.01 790.85,-18.96"/>
</g>
<!-- Node9 -->
<g id="node9" class="node">
<title>Node9</title>
<g id="a_node9"><a xlink:href="AR_8h.html" target="_top" xlink:title=" ">
<polygon fill="white" stroke="black" points="638.5,-129 638.5,-148 687.5,-148 687.5,-129 638.5,-129"/>
<text text-anchor="middle" x="663" y="-136" font-family="Helvetica,sans-Serif" font-size="10.00">ar/AR.h</text>
</a>
</g>
</g>
<!-- Node8&#45;&gt;Node9 -->
<g id="edge11" class="edge">
<title>Node8&#45;&gt;Node9</title>
<path fill="none" stroke="midnightblue" d="M558.32,-195.73C578.82,-184.72 614.2,-165.71 638.09,-152.88"/>
<polygon fill="midnightblue" stroke="midnightblue" points="639.79,-155.94 646.94,-148.13 636.47,-149.78 639.79,-155.94"/>
</g>
<!-- Node10 -->
<g id="node10" class="node">
<title>Node10</title>
<g id="a_node10"><a xlink:href="ARQ_8h.html" target="_top" xlink:title=" ">
<polygon fill="white" stroke="black" points="458,-62 458,-81 514,-81 514,-62 458,-62"/>
<text text-anchor="middle" x="486" y="-69" font-family="Helvetica,sans-Serif" font-size="10.00">ar/ARQ.h</text>
</a>
</g>
</g>
<!-- Node8&#45;&gt;Node10 -->
<g id="edge13" class="edge">
<title>Node8&#45;&gt;Node10</title>
<path fill="none" stroke="midnightblue" d="M538.33,-195.84C529.27,-174.49 505.72,-118.98 493.54,-90.27"/>
<polygon fill="midnightblue" stroke="midnightblue" points="496.74,-88.86 489.62,-81.02 490.3,-91.59 496.74,-88.86"/>
</g>
<!-- Node11 -->
<g id="node11" class="node">
<title>Node11</title>
<g id="a_node11"><a xlink:href="mwcc_8h.html" target="_top" xlink:title=" ">
<polygon fill="white" stroke="black" points="570,-129 570,-148 620,-148 620,-129 570,-129"/>
<text text-anchor="middle" x="595" y="-136" font-family="Helvetica,sans-Serif" font-size="10.00">mwcc.h</text>
</a>
</g>
</g>
<!-- Node8&#45;&gt;Node11 -->
<g id="edge15" class="edge">
<title>Node8&#45;&gt;Node11</title>
<path fill="none" stroke="midnightblue" d="M549.15,-195.73C557.41,-185.6 571.2,-168.69 581.5,-156.06"/>
<polygon fill="midnightblue" stroke="midnightblue" points="584.36,-158.09 587.97,-148.13 578.93,-153.67 584.36,-158.09"/>
</g>
<!-- Node12 -->
<g id="node12" class="node">
<title>Node12</title>
<g id="a_node12"><a xlink:href="OS_8h.html" target="_top" xlink:title=" ">
<polygon fill="white" stroke="black" points="744,-129 744,-148 796,-148 796,-129 744,-129"/>
<text text-anchor="middle" x="770" y="-136" font-family="Helvetica,sans-Serif" font-size="10.00">os/OS.h</text>
</a>
</g>
</g>
<!-- Node8&#45;&gt;Node12 -->
<g id="edge16" class="edge">
<title>Node8&#45;&gt;Node12</title>
<path fill="none" stroke="midnightblue" d="M567.27,-197.3C607.89,-185.72 687.82,-162.93 734.26,-149.69"/>
<polygon fill="midnightblue" stroke="midnightblue" points="735.26,-153.04 743.91,-146.94 733.34,-146.31 735.26,-153.04"/>
</g>
<!-- Node9&#45;&gt;Node7 -->
<g id="edge12" class="edge">
<title>Node9&#45;&gt;Node7</title>
<path fill="none" stroke="midnightblue" d="M664.78,-128.74C668.62,-112.13 679.22,-75.93 702,-56 726.59,-34.49 761.63,-23.23 790.37,-17.35"/>
<polygon fill="midnightblue" stroke="midnightblue" points="791.07,-20.78 800.25,-15.49 789.77,-13.91 791.07,-20.78"/>
</g>
<!-- Node10&#45;&gt;Node7 -->
<g id="edge14" class="edge">
<title>Node10&#45;&gt;Node7</title>
<path fill="none" stroke="midnightblue" d="M508.44,-61.88C514.7,-59.71 521.55,-57.56 528,-56 618.98,-33.97 727.62,-21.32 790.03,-15.33"/>
<polygon fill="midnightblue" stroke="midnightblue" points="790.39,-18.81 800.01,-14.39 789.73,-11.85 790.39,-18.81"/>
</g>
<!-- Node12&#45;&gt;Node7 -->
<g id="edge17" class="edge">
<title>Node12&#45;&gt;Node7</title>
<path fill="none" stroke="midnightblue" d="M768.07,-128.96C765.02,-113.33 760.69,-79.56 774,-56 781.95,-41.92 796.34,-31.4 809.76,-24.08"/>
<polygon fill="midnightblue" stroke="midnightblue" points="811.44,-27.15 818.8,-19.52 808.29,-20.9 811.44,-27.15"/>
</g>
<!-- Node12&#45;&gt;Node13 -->
<g id="edge18" class="edge">
<title>Node12&#45;&gt;Node13</title>
<path fill="none" stroke="midnightblue" d="M775.66,-128.73C782.09,-118.79 792.72,-102.34 800.83,-89.79"/>
<polygon fill="midnightblue" stroke="midnightblue" points="803.94,-91.43 806.43,-81.13 798.06,-87.63 803.94,-91.43"/>
</g>
<!-- Node13&#45;&gt;Node7 -->
<g id="edge19" class="edge">
<title>Node13&#45;&gt;Node7</title>
<path fill="none" stroke="midnightblue" d="M816.15,-61.98C820.38,-53.32 827.04,-39.65 832.4,-28.65"/>
<polygon fill="midnightblue" stroke="midnightblue" points="835.62,-30.03 836.85,-19.51 829.33,-26.96 835.62,-30.03"/>
</g>
<!-- Node14&#45;&gt;Node7 -->
<g id="edge22" class="edge">
<title>Node14&#45;&gt;Node7</title>
<path fill="none" stroke="midnightblue" d="M216.58,-66.29C236.54,-63.12 264.97,-58.85 290,-56 473.79,-35.06 693.14,-20.14 790.34,-14.05"/>
<polygon fill="midnightblue" stroke="midnightblue" points="790.71,-17.53 800.47,-13.42 790.28,-10.55 790.71,-17.53"/>
</g>
<!-- Node15&#45;&gt;Node8 -->
<g id="edge26" class="edge">
<title>Node15&#45;&gt;Node8</title>
<path fill="none" stroke="midnightblue" d="M293.21,-458.37C281.39,-420.65 255.28,-316.43 305,-257 330.47,-226.56 447.13,-213.56 506.73,-208.83"/>
<polygon fill="midnightblue" stroke="midnightblue" points="507.11,-212.31 516.81,-208.06 506.58,-205.33 507.11,-212.31"/>
</g>
<!-- Node17 -->
<g id="node17" class="node">
<title>Node17</title>
<g id="a_node17"><a xlink:href="JKRAramArchive_8h.html" target="_top" xlink:title=" ">
<polygon fill="white" stroke="black" points="1299.5,-458.5 1299.5,-488.5 1468.5,-488.5 1468.5,-458.5 1299.5,-458.5"/>
<text text-anchor="start" x="1307.5" y="-476.5" font-family="Helvetica,sans-Serif" font-size="10.00">JSystem/JKernel/JKRAramArchive</text>
<text text-anchor="middle" x="1384" y="-465.5" font-family="Helvetica,sans-Serif" font-size="10.00">/JKRAramArchive.h</text>
</a>
</g>
</g>
<!-- Node16&#45;&gt;Node17 -->
<g id="edge28" class="edge">
<title>Node16&#45;&gt;Node17</title>
<path fill="none" stroke="midnightblue" d="M721.1,-534.01C847.49,-522.67 1138.4,-496.55 1289.32,-483"/>
<polygon fill="midnightblue" stroke="midnightblue" points="1289.85,-486.47 1299.49,-482.09 1289.22,-479.5 1289.85,-486.47"/>
</g>
<!-- Node24 -->
<g id="node24" class="node">
<title>Node24</title>
<g id="a_node24"><a xlink:href="JKRSolidHeap_8h.html" target="_top" xlink:title=" ">
<polygon fill="white" stroke="black" points="661,-324.5 661,-354.5 795,-354.5 795,-324.5 661,-324.5"/>
<text text-anchor="start" x="669" y="-342.5" font-family="Helvetica,sans-Serif" font-size="10.00">JSystem/JKernel/JKRSolid</text>
<text text-anchor="middle" x="728" y="-331.5" font-family="Helvetica,sans-Serif" font-size="10.00">Heap/JKRSolidHeap.h</text>
</a>
</g>
</g>
<!-- Node16&#45;&gt;Node24 -->
<g id="edge46" class="edge">
<title>Node16&#45;&gt;Node24</title>
<path fill="none" stroke="midnightblue" d="M664.89,-525.19C676.46,-491.34 705.59,-406.08 719.87,-364.31"/>
<polygon fill="midnightblue" stroke="midnightblue" points="723.23,-365.28 723.15,-354.68 716.61,-363.01 723.23,-365.28"/>
</g>
<!-- Node25 -->
<g id="node25" class="node">
<title>Node25</title>
<g id="a_node25"><a xlink:href="Z2SceneMgr_8h.html" target="_top" xlink:title=" ">
<polygon fill="white" stroke="black" points="515.5,-391.5 515.5,-421.5 640.5,-421.5 640.5,-391.5 515.5,-391.5"/>
<text text-anchor="start" x="523.5" y="-409.5" font-family="Helvetica,sans-Serif" font-size="10.00">Z2AudioLib/Z2SceneMgr</text>
<text text-anchor="middle" x="578" y="-398.5" font-family="Helvetica,sans-Serif" font-size="10.00">/Z2SceneMgr.h</text>
</a>
</g>
</g>
<!-- Node16&#45;&gt;Node25 -->
<g id="edge49" class="edge">
<title>Node16&#45;&gt;Node25</title>
<path fill="none" stroke="midnightblue" d="M651.22,-525.37C637.04,-502.55 608.97,-457.36 592,-430.04"/>
<polygon fill="midnightblue" stroke="midnightblue" points="594.96,-428.17 586.71,-421.52 589.02,-431.87 594.96,-428.17"/>
</g>
<!-- Node17&#45;&gt;Node7 -->
<g id="edge45" class="edge">
<title>Node17&#45;&gt;Node7</title>
<path fill="none" stroke="midnightblue" d="M1427.41,-458.37C1475.4,-439.7 1546,-401.81 1546,-340.5 1546,-340.5 1546,-340.5 1546,-137.5 1546,-69.31 1480.75,-77.39 1416,-56 1319.34,-24.07 1013.51,-14.47 891.74,-11.88"/>
<polygon fill="midnightblue" stroke="midnightblue" points="891.64,-8.37 881.57,-11.67 891.5,-15.37 891.64,-8.37"/>
</g>
<!-- Node18 -->
<g id="node18" class="node">
<title>Node18</title>
<g id="a_node18"><a xlink:href="JKRArchive_8h.html" target="_top" xlink:title=" ">
<polygon fill="white" stroke="black" points="1311,-391.5 1311,-421.5 1457,-421.5 1457,-391.5 1311,-391.5"/>
<text text-anchor="start" x="1319" y="-409.5" font-family="Helvetica,sans-Serif" font-size="10.00">JSystem/JKernel/JKRArchive</text>
<text text-anchor="middle" x="1384" y="-398.5" font-family="Helvetica,sans-Serif" font-size="10.00">/JKRArchive.h</text>
</a>
</g>
</g>
<!-- Node17&#45;&gt;Node18 -->
<g id="edge29" class="edge">
<title>Node17&#45;&gt;Node18</title>
<path fill="none" stroke="midnightblue" d="M1384,-458.4C1384,-450.64 1384,-440.81 1384,-431.86"/>
<polygon fill="midnightblue" stroke="midnightblue" points="1387.5,-431.58 1384,-421.58 1380.5,-431.58 1387.5,-431.58"/>
</g>
<!-- Node18&#45;&gt;Node7 -->
<g id="edge44" class="edge">
<title>Node18&#45;&gt;Node7</title>
<path fill="none" stroke="midnightblue" d="M1412.14,-391.45C1448.72,-370.95 1508,-329.15 1508,-273.5 1508,-273.5 1508,-273.5 1508,-137.5 1508,-45.61 1407.04,-78.7 1318,-56 1166.39,-17.35 980.04,-11.2 891.87,-10.66"/>
<polygon fill="midnightblue" stroke="midnightblue" points="891.62,-7.16 881.61,-10.62 891.6,-14.16 891.62,-7.16"/>
</g>
<!-- Node19 -->
<g id="node19" class="node">
<title>Node19</title>
<g id="a_node19"><a xlink:href="JKRDecomp_8h.html" target="_top" xlink:title=" ">
<polygon fill="white" stroke="black" points="1249.5,-324.5 1249.5,-354.5 1398.5,-354.5 1398.5,-324.5 1249.5,-324.5"/>
<text text-anchor="start" x="1257.5" y="-342.5" font-family="Helvetica,sans-Serif" font-size="10.00">JSystem/JKernel/JKRDecomp</text>
<text text-anchor="middle" x="1324" y="-331.5" font-family="Helvetica,sans-Serif" font-size="10.00">/JKRDecomp.h</text>
</a>
</g>
</g>
<!-- Node18&#45;&gt;Node19 -->
<g id="edge30" class="edge">
<title>Node18&#45;&gt;Node19</title>
<path fill="none" stroke="midnightblue" d="M1370.98,-391.4C1363.04,-382.79 1352.73,-371.63 1343.8,-361.94"/>
<polygon fill="midnightblue" stroke="midnightblue" points="1346.35,-359.55 1336.99,-354.58 1341.2,-364.3 1346.35,-359.55"/>
</g>
<!-- Node21 -->
<g id="node21" class="node">
<title>Node21</title>
<g id="a_node21"><a xlink:href="SArc_8h.html" target="_top" xlink:title=" ">
<polygon fill="white" stroke="black" points="1304.5,-196 1304.5,-215 1427.5,-215 1427.5,-196 1304.5,-196"/>
<text text-anchor="middle" x="1366" y="-203" font-family="Helvetica,sans-Serif" font-size="10.00">JSystem/JKernel/SArc.h</text>
</a>
</g>
</g>
<!-- Node18&#45;&gt;Node21 -->
<g id="edge43" class="edge">
<title>Node18&#45;&gt;Node21</title>
<path fill="none" stroke="midnightblue" d="M1399.7,-391.16C1427.27,-364.16 1479.05,-304.25 1452,-257 1441.77,-239.12 1422.47,-226.96 1404.75,-219.05"/>
<polygon fill="midnightblue" stroke="midnightblue" points="1405.71,-215.66 1395.13,-215.09 1403.04,-222.13 1405.71,-215.66"/>
</g>
<!-- Node23 -->
<g id="node23" class="node">
<title>Node23</title>
<g id="a_node23"><a xlink:href="JKRFileLoader_8h.html" target="_top" xlink:title=" ">
<polygon fill="white" stroke="black" points="1052,-257.5 1052,-287.5 1210,-287.5 1210,-257.5 1052,-257.5"/>
<text text-anchor="start" x="1060" y="-275.5" font-family="Helvetica,sans-Serif" font-size="10.00">JSystem/JKernel/JKRFileLoader</text>
<text text-anchor="middle" x="1131" y="-264.5" font-family="Helvetica,sans-Serif" font-size="10.00">/JKRFileLoader.h</text>
</a>
</g>
</g>
<!-- Node18&#45;&gt;Node23 -->
<g id="edge40" class="edge">
<title>Node18&#45;&gt;Node23</title>
<path fill="none" stroke="midnightblue" d="M1332.82,-391.5C1304.84,-382.85 1270.06,-370.45 1241,-355 1208.95,-337.96 1175.99,-312.25 1154.61,-294.27"/>
<polygon fill="midnightblue" stroke="midnightblue" points="1156.62,-291.38 1146.74,-287.56 1152.08,-296.71 1156.62,-291.38"/>
</g>
<!-- Node19&#45;&gt;Node7 -->
<g id="edge39" class="edge">
<title>Node19&#45;&gt;Node7</title>
<path fill="none" stroke="midnightblue" d="M1297.12,-324.35C1283.14,-315.66 1266.93,-303.26 1257,-288 1236.71,-256.83 1238,-243.69 1238,-206.5 1238,-206.5 1238,-206.5 1238,-137.5 1238,-65.66 998.99,-29.14 891.87,-16.39"/>
<polygon fill="midnightblue" stroke="midnightblue" points="891.96,-12.87 881.62,-15.19 891.15,-19.83 891.96,-12.87"/>
</g>
<!-- Node20 -->
<g id="node20" class="node">
<title>Node20</title>
<g id="a_node20"><a xlink:href="JKRCompression_8h.html" target="_top" xlink:title=" ">
<polygon fill="white" stroke="black" points="1265.5,-263 1265.5,-282 1442.5,-282 1442.5,-263 1265.5,-263"/>
<text text-anchor="middle" x="1354" y="-270" font-family="Helvetica,sans-Serif" font-size="10.00">JSystem/JKernel/JKRCompression.h</text>
</a>
</g>
</g>
<!-- Node19&#45;&gt;Node20 -->
<g id="edge31" class="edge">
<title>Node19&#45;&gt;Node20</title>
<path fill="none" stroke="midnightblue" d="M1330.51,-324.4C1334.96,-314.76 1340.89,-301.91 1345.68,-291.54"/>
<polygon fill="midnightblue" stroke="midnightblue" points="1348.97,-292.74 1349.99,-282.19 1342.62,-289.81 1348.97,-292.74"/>
</g>
<!-- Node22 -->
<g id="node22" class="node">
<title>Node22</title>
<g id="a_node22"><a xlink:href="JKRThread_8h.html" target="_top" xlink:title=" ">
<polygon fill="white" stroke="black" points="890.5,-257.5 890.5,-287.5 1033.5,-287.5 1033.5,-257.5 890.5,-257.5"/>
<text text-anchor="start" x="898.5" y="-275.5" font-family="Helvetica,sans-Serif" font-size="10.00">JSystem/JKernel/JKRThread</text>
<text text-anchor="middle" x="962" y="-264.5" font-family="Helvetica,sans-Serif" font-size="10.00">/JKRThread.h</text>
</a>
</g>
</g>
<!-- Node19&#45;&gt;Node22 -->
<g id="edge35" class="edge">
<title>Node19&#45;&gt;Node22</title>
<path fill="none" stroke="midnightblue" d="M1249.43,-325.11C1189.54,-314.36 1105.52,-299.27 1043.79,-288.19"/>
<polygon fill="midnightblue" stroke="midnightblue" points="1044.16,-284.7 1033.7,-286.37 1042.92,-291.59 1044.16,-284.7"/>
</g>
<!-- Node20&#45;&gt;Node7 -->
<g id="edge34" class="edge">
<title>Node20&#45;&gt;Node7</title>
<path fill="none" stroke="midnightblue" d="M1339.92,-262.83C1326.64,-253.94 1307.16,-238.9 1296,-221 1255.85,-156.6 1309.58,-105.45 1252,-56 1225.15,-32.94 995.73,-18.7 891.8,-13.38"/>
<polygon fill="midnightblue" stroke="midnightblue" points="891.71,-9.87 881.55,-12.86 891.36,-16.86 891.71,-9.87"/>
</g>
<!-- Node20&#45;&gt;Node21 -->
<g id="edge32" class="edge">
<title>Node20&#45;&gt;Node21</title>
<path fill="none" stroke="midnightblue" d="M1355.62,-262.73C1357.38,-253.18 1360.26,-237.62 1362.53,-225.28"/>
<polygon fill="midnightblue" stroke="midnightblue" points="1366.03,-225.6 1364.41,-215.13 1359.15,-224.33 1366.03,-225.6"/>
</g>
<!-- Node21&#45;&gt;Node7 -->
<g id="edge33" class="edge">
<title>Node21&#45;&gt;Node7</title>
<path fill="none" stroke="midnightblue" d="M1364.53,-195.91C1359.55,-169.74 1340.71,-90.61 1290,-56 1226.34,-12.56 995.34,-9.31 891.8,-10.13"/>
<polygon fill="midnightblue" stroke="midnightblue" points="891.56,-6.64 881.6,-10.23 891.63,-13.64 891.56,-6.64"/>
</g>
<!-- Node22&#45;&gt;Node5 -->
<g id="edge36" class="edge">
<title>Node22&#45;&gt;Node5</title>
<path fill="none" stroke="midnightblue" d="M962.87,-257.4C963.35,-249.56 963.96,-239.6 964.52,-230.57"/>
<polygon fill="midnightblue" stroke="midnightblue" points="968.01,-230.77 965.13,-220.58 961.03,-230.34 968.01,-230.77"/>
</g>
<!-- Node22&#45;&gt;Node7 -->
<g id="edge37" class="edge">
<title>Node22&#45;&gt;Node7</title>
<path fill="none" stroke="midnightblue" d="M1006.23,-257.44C1023.35,-249.59 1041.17,-237.89 1051,-221 1072.92,-183.36 1065.3,-164.14 1051,-123 1038.53,-87.14 1029.54,-77.13 998,-56 966.22,-34.71 924.34,-23.36 891.83,-17.39"/>
<polygon fill="midnightblue" stroke="midnightblue" points="892.07,-13.88 881.62,-15.63 890.89,-20.78 892.07,-13.88"/>
</g>
<!-- Node22&#45;&gt;Node8 -->
<g id="edge38" class="edge">
<title>Node22&#45;&gt;Node8</title>
<path fill="none" stroke="midnightblue" d="M890.28,-260.4C799.35,-246.33 646.17,-222.62 577.35,-211.97"/>
<polygon fill="midnightblue" stroke="midnightblue" points="577.86,-208.51 567.44,-210.44 576.79,-215.43 577.86,-208.51"/>
</g>
<!-- Node23&#45;&gt;Node5 -->
<g id="edge41" class="edge">
<title>Node23&#45;&gt;Node5</title>
<path fill="none" stroke="midnightblue" d="M1095.2,-257.4C1070.55,-247.69 1037.61,-234.71 1011.16,-224.29"/>
<polygon fill="midnightblue" stroke="midnightblue" points="1012.32,-220.99 1001.73,-220.58 1009.75,-227.5 1012.32,-220.99"/>
</g>
<!-- Node23&#45;&gt;Node7 -->
<g id="edge42" class="edge">
<title>Node23&#45;&gt;Node7</title>
<path fill="none" stroke="midnightblue" d="M1128.95,-257.27C1122.47,-217.91 1098.54,-107.11 1029,-56 989.07,-26.66 932.66,-16.19 892.07,-12.59"/>
<polygon fill="midnightblue" stroke="midnightblue" points="892.09,-9.08 881.85,-11.8 891.55,-16.06 892.09,-9.08"/>
</g>
<!-- Node24&#45;&gt;Node4 -->
<g id="edge47" class="edge">
<title>Node24&#45;&gt;Node4</title>
<path fill="none" stroke="midnightblue" d="M728,-324.4C728,-316.64 728,-306.81 728,-297.86"/>
<polygon fill="midnightblue" stroke="midnightblue" points="731.5,-297.58 728,-287.58 724.5,-297.58 731.5,-297.58"/>
</g>
<!-- Node24&#45;&gt;Node7 -->
<g id="edge48" class="edge">
<title>Node24&#45;&gt;Node7</title>
<path fill="none" stroke="midnightblue" d="M760.44,-324.43C776.15,-316.03 793.96,-303.88 805,-288 857.32,-212.76 840.71,-178.06 851,-87 852.55,-73.31 852.5,-69.7 851,-56 850.03,-47.14 848.01,-37.47 846.04,-29.38"/>
<polygon fill="midnightblue" stroke="midnightblue" points="849.38,-28.33 843.48,-19.53 842.61,-30.09 849.38,-28.33"/>
</g>
<!-- Node25&#45;&gt;Node8 -->
<g id="edge59" class="edge">
<title>Node25&#45;&gt;Node8</title>
<path fill="none" stroke="midnightblue" d="M587.57,-391.2C604.64,-363.76 636.44,-302.43 613,-257 604.44,-240.41 587.64,-228.08 572.53,-219.76"/>
<polygon fill="midnightblue" stroke="midnightblue" points="573.92,-216.54 563.43,-215.09 570.73,-222.77 573.92,-216.54"/>
</g>
<!-- Node26 -->
<g id="node26" class="node">
<title>Node26</title>
<g id="a_node26"><a xlink:href="JAISe_8h.html" target="_top" xlink:title=" ">
<polygon fill="white" stroke="black" points="480.5,-257.5 480.5,-287.5 603.5,-287.5 603.5,-257.5 480.5,-257.5"/>
<text text-anchor="start" x="488.5" y="-275.5" font-family="Helvetica,sans-Serif" font-size="10.00">JSystem/JAudio2/JAISe</text>
<text text-anchor="middle" x="542" y="-264.5" font-family="Helvetica,sans-Serif" font-size="10.00">/JAISe.h</text>
</a>
</g>
</g>
<!-- Node25&#45;&gt;Node26 -->
<g id="edge50" class="edge">
<title>Node25&#45;&gt;Node26</title>
<path fill="none" stroke="midnightblue" d="M574.15,-391.37C568.03,-368.94 556.02,-324.92 548.54,-297.49"/>
<polygon fill="midnightblue" stroke="midnightblue" points="551.83,-296.25 545.82,-287.52 545.08,-298.09 551.83,-296.25"/>
</g>
<!-- Node27 -->
<g id="node27" class="node">
<title>Node27</title>
<g id="a_node27"><a xlink:href="Z2SeqMgr_8h.html" target="_top" xlink:title=" ">
<polygon fill="white" stroke="black" points="336,-324.5 336,-354.5 450,-354.5 450,-324.5 336,-324.5"/>
<text text-anchor="start" x="344" y="-342.5" font-family="Helvetica,sans-Serif" font-size="10.00">Z2AudioLib/Z2SeqMgr</text>
<text text-anchor="middle" x="393" y="-331.5" font-family="Helvetica,sans-Serif" font-size="10.00">/Z2SeqMgr.h</text>
</a>
</g>
</g>
<!-- Node25&#45;&gt;Node27 -->
<g id="edge52" class="edge">
<title>Node25&#45;&gt;Node27</title>
<path fill="none" stroke="midnightblue" d="M537.86,-391.4C509.98,-381.6 472.64,-368.48 442.85,-358.02"/>
<polygon fill="midnightblue" stroke="midnightblue" points="443.66,-354.59 433.06,-354.58 441.34,-361.19 443.66,-354.59"/>
</g>
<!-- Node26&#45;&gt;Node8 -->
<g id="edge51" class="edge">
<title>Node26&#45;&gt;Node8</title>
<path fill="none" stroke="midnightblue" d="M542,-257.4C542,-248.06 542,-235.71 542,-225.52"/>
<polygon fill="midnightblue" stroke="midnightblue" points="545.5,-225.19 542,-215.19 538.5,-225.19 545.5,-225.19"/>
</g>
<!-- Node27&#45;&gt;Node8 -->
<g id="edge58" class="edge">
<title>Node27&#45;&gt;Node8</title>
<path fill="none" stroke="midnightblue" d="M356.55,-324.46C340.79,-316.35 323.94,-304.44 315,-288 308.42,-275.9 306.38,-267.75 315,-257 338.66,-227.5 449.26,-214.13 506.88,-209.08"/>
<polygon fill="midnightblue" stroke="midnightblue" points="507.32,-212.56 516.99,-208.24 506.73,-205.58 507.32,-212.56"/>
</g>
<!-- Node27&#45;&gt;Node26 -->
<g id="edge53" class="edge">
<title>Node27&#45;&gt;Node26</title>
<path fill="none" stroke="midnightblue" d="M425.33,-324.4C447.3,-314.81 476.56,-302.05 500.28,-291.7"/>
<polygon fill="midnightblue" stroke="midnightblue" points="501.97,-294.78 509.73,-287.58 499.17,-288.37 501.97,-294.78"/>
</g>
<!-- Node28 -->
<g id="node28" class="node">
<title>Node28</title>
<g id="a_node28"><a xlink:href="JAISound_8h.html" target="_top" xlink:title=" ">
<polygon fill="white" stroke="black" points="323.5,-257.5 323.5,-287.5 462.5,-287.5 462.5,-257.5 323.5,-257.5"/>
<text text-anchor="start" x="331.5" y="-275.5" font-family="Helvetica,sans-Serif" font-size="10.00">JSystem/JAudio2/JAISound</text>
<text text-anchor="middle" x="393" y="-264.5" font-family="Helvetica,sans-Serif" font-size="10.00">/JAISound.h</text>
</a>
</g>
</g>
<!-- Node27&#45;&gt;Node28 -->
<g id="edge54" class="edge">
<title>Node27&#45;&gt;Node28</title>
<path fill="none" stroke="midnightblue" d="M393,-324.4C393,-316.64 393,-306.81 393,-297.86"/>
<polygon fill="midnightblue" stroke="midnightblue" points="396.5,-297.58 393,-287.58 389.5,-297.58 396.5,-297.58"/>
</g>
<!-- Node29 -->
<g id="node29" class="node">
<title>Node29</title>
<g id="a_node29"><a xlink:href="Z2Param_8h.html" target="_top" xlink:title=" ">
<polygon fill="white" stroke="black" points="298.5,-56.5 298.5,-86.5 407.5,-86.5 407.5,-56.5 298.5,-56.5"/>
<text text-anchor="start" x="306.5" y="-74.5" font-family="Helvetica,sans-Serif" font-size="10.00">Z2AudioLib/Z2Param</text>
<text text-anchor="middle" x="353" y="-63.5" font-family="Helvetica,sans-Serif" font-size="10.00">/Z2Param.h</text>
</a>
</g>
</g>
<!-- Node27&#45;&gt;Node29 -->
<g id="edge56" class="edge">
<title>Node27&#45;&gt;Node29</title>
<path fill="none" stroke="midnightblue" d="M349.25,-324.32C332.32,-316.45 314.71,-304.77 305,-288 268.39,-224.78 312.9,-136.25 338.03,-95.14"/>
<polygon fill="midnightblue" stroke="midnightblue" points="341,-96.98 343.36,-86.65 335.07,-93.26 341,-96.98"/>
</g>
<!-- Node28&#45;&gt;Node8 -->
<g id="edge55" class="edge">
<title>Node28&#45;&gt;Node8</title>
<path fill="none" stroke="midnightblue" d="M425.33,-257.4C451.47,-245.99 487.95,-230.08 513.12,-219.1"/>
<polygon fill="midnightblue" stroke="midnightblue" points="514.73,-222.21 522.5,-215.01 511.93,-215.8 514.73,-222.21"/>
</g>
<!-- Node29&#45;&gt;Node7 -->
<g id="edge57" class="edge">
<title>Node29&#45;&gt;Node7</title>
<path fill="none" stroke="midnightblue" d="M407.53,-61.92C421.07,-59.88 435.55,-57.79 449,-56 571.25,-39.76 715.42,-24.1 790.23,-16.24"/>
<polygon fill="midnightblue" stroke="midnightblue" points="790.73,-19.71 800.31,-15.19 790,-12.75 790.73,-19.71"/>
</g>
</g>
</svg>
        <g id="navigator" transform="translate(0 0)" fill="#404254">
                <rect fill="#f2f5e9" fill-opacity="0.5" stroke="#606060" stroke-width=".5" x="0" y="0" width="60" height="60"/>
                <use id="zoomplus" xlink:href="#zoomPlus" x="17" y="9" onmousedown="handleZoom(evt,'in')"/>
                <use id="zoomminus" xlink:href="#zoomMin" x="42" y="9" onmousedown="handleZoom(evt,'out')"/>
                <use id="reset" xlink:href="#resetDef" x="30" y="36" onmousedown="handleReset()"/>
                <g id="arrowUp" xlink:href="#dirArrow" transform="translate(30 24)" onmousedown="handlePan(0,-1)">
                  <use xlink:href="#rim" fill="#404040">
                        <set attributeName="fill" to="#808080" begin="arrowUp.mouseover" end="arrowUp.mouseout"/>
                  </use>
                  <path fill="none" stroke="white" stroke-width="1.5" d="M0,-3.0v7 M-2.5,-0.5L0,-3.0L2.5,-0.5"/>
                </g>
                <g id="arrowRight" xlink:href="#dirArrow" transform="rotate(90) translate(36 -43)" onmousedown="handlePan(1,0)">
                  <use xlink:href="#rim" fill="#404040">
                        <set attributeName="fill" to="#808080" begin="arrowRight.mouseover" end="arrowRight.mouseout"/>
                  </use>
                  <path fill="none" stroke="white" stroke-width="1.5" d="M0,-3.0v7 M-2.5,-0.5L0,-3.0L2.5,-0.5"/>
                </g>
                <g id="arrowDown" xlink:href="#dirArrow" transform="rotate(180) translate(-30 -48)" onmousedown="handlePan(0,1)">
                  <use xlink:href="#rim" fill="#404040">
                        <set attributeName="fill" to="#808080" begin="arrowDown.mouseover" end="arrowDown.mouseout"/>
                  </use>
                  <path fill="none" stroke="white" stroke-width="1.5" d="M0,-3.0v7 M-2.5,-0.5L0,-3.0L2.5,-0.5"/>
                </g>
                <g id="arrowLeft" xlink:href="#dirArrow" transform="rotate(270) translate(-36 17)" onmousedown="handlePan(-1,0)">
                  <use xlink:href="#rim" fill="#404040">
                        <set attributeName="fill" to="#808080" begin="arrowLeft.mouseover" end="arrowLeft.mouseout"/>
                  </use>
                  <path fill="none" stroke="white" stroke-width="1.5" d="M0,-3.0v7 M-2.5,-0.5L0,-3.0L2.5,-0.5"/>
                </g>
        </g>
        <svg viewBox="0 0 15 15" width="100%" height="30px" preserveAspectRatio="xMaxYMin meet">
         <g id="arrow_out" transform="scale(0.3 0.3)">
          <a xlink:href="m__Do__Reset_8cpp__incl_org.svg" target="_base">
           <rect id="button" ry="5" rx="5" y="6" x="6" height="38" width="38"
                fill="#f2f5e9" fill-opacity="0.5" stroke="#606060" stroke-width="1.0"/>
           <path id="arrow"
             d="M 11.500037,31.436501 C 11.940474,20.09759 22.043105,11.32322 32.158766,21.979434 L 37.068811,17.246167 C 37.068811,17.246167 37.088388,32 37.088388,32 L 22.160133,31.978069 C 22.160133,31.978069 26.997745,27.140456 26.997745,27.140456 C 18.528582,18.264221 13.291696,25.230495 11.500037,31.436501 z"
             style="fill:#404040;"/>
          </a>
         </g>
        </svg>
</svg>
