<?xml version="1.0" encoding="UTF-8" standalone="no"?>
<!DOCTYPE svg PUBLIC "-//W3C//DTD SVG 1.1//EN"
 "http://www.w3.org/Graphics/SVG/1.1/DTD/svg11.dtd">
<!-- Generated by graphviz version 2.47.0 (20210316.2052)
 -->
<!-- Title: src/m_Do/m_Do_audio.cpp Pages: 1 -->
<svg width="2684pt" height="162pt"
 viewBox="0.00 0.00 2683.50 162.00" xmlns="http://www.w3.org/2000/svg" xmlns:xlink="http://www.w3.org/1999/xlink">
<g id="graph0" class="graph" transform="scale(1 1) rotate(0) translate(4 158)">
<title>src/m_Do/m_Do_audio.cpp</title>
<polygon fill="white" stroke="transparent" points="-4,4 -4,-158 2679.5,-158 2679.5,4 -4,4"/>
<!-- Node1 -->
<g id="node1" class="node">
<title>Node1</title>
<g id="a_node1"><a xlink:title=" ">
<polygon fill="#bfbfbf" stroke="black" points="1141.5,-134.5 1141.5,-153.5 1275.5,-153.5 1275.5,-134.5 1141.5,-134.5"/>
<text text-anchor="middle" x="1208.5" y="-141.5" font-family="Helvetica,sans-Serif" font-size="10.00">src/m_Do/m_Do_audio.cpp</text>
</a>
</g>
</g>
<!-- Node2 -->
<g id="node2" class="node">
<title>Node2</title>
<g id="a_node2"><a xlink:href="dol2asm_8h.html" target="_top" xlink:title=" ">
<polygon fill="white" stroke="black" points="0,-67.5 0,-86.5 61,-86.5 61,-67.5 0,-67.5"/>
<text text-anchor="middle" x="30.5" y="-74.5" font-family="Helvetica,sans-Serif" font-size="10.00">dol2asm.h</text>
</a>
</g>
</g>
<!-- Node1&#45;&gt;Node2 -->
<g id="edge1" class="edge">
<title>Node1&#45;&gt;Node2</title>
<path fill="none" stroke="midnightblue" d="M1141.35,-141.81C913.6,-137.56 178.97,-122.11 75.5,-98 68.72,-96.42 61.71,-93.82 55.29,-91.02"/>
<polygon fill="midnightblue" stroke="midnightblue" points="56.36,-87.65 45.82,-86.55 53.37,-93.98 56.36,-87.65"/>
</g>
<!-- Node3 -->
<g id="node3" class="node">
<title>Node3</title>
<g id="a_node3"><a xlink:href="types_8h.html" target="_top" xlink:title=" ">
<polygon fill="white" stroke="black" points="90,-0.5 90,-19.5 171,-19.5 171,-0.5 90,-0.5"/>
<text text-anchor="middle" x="130.5" y="-7.5" font-family="Helvetica,sans-Serif" font-size="10.00">dolphin/types.h</text>
</a>
</g>
</g>
<!-- Node1&#45;&gt;Node3 -->
<g id="edge2" class="edge">
<title>Node1&#45;&gt;Node3</title>
<path fill="none" stroke="midnightblue" d="M1141.45,-142.78C908.32,-141.7 145.33,-135.33 109.5,-98 91.47,-79.22 106.04,-47.74 118.26,-28.24"/>
<polygon fill="midnightblue" stroke="midnightblue" points="121.29,-30.01 123.92,-19.74 115.46,-26.13 121.29,-30.01"/>
</g>
<!-- Node4 -->
<g id="node4" class="node">
<title>Node4</title>
<g id="a_node4"><a xlink:href="m__Do__audio_8h.html" target="_top" xlink:title=" ">
<polygon fill="white" stroke="black" points="118,-67.5 118,-86.5 225,-86.5 225,-67.5 118,-67.5"/>
<text text-anchor="middle" x="171.5" y="-74.5" font-family="Helvetica,sans-Serif" font-size="10.00">m_Do/m_Do_audio.h</text>
</a>
</g>
</g>
<!-- Node1&#45;&gt;Node4 -->
<g id="edge3" class="edge">
<title>Node1&#45;&gt;Node4</title>
<path fill="none" stroke="midnightblue" d="M1141.39,-142.18C950.86,-139.48 409.16,-129.2 234.5,-98 224.08,-96.14 212.99,-93.02 203.06,-89.8"/>
<polygon fill="midnightblue" stroke="midnightblue" points="204.19,-86.48 193.59,-86.58 201.93,-93.11 204.19,-86.48"/>
</g>
<!-- Node5 -->
<g id="node5" class="node">
<title>Node5</title>
<g id="a_node5"><a xlink:title=" ">
<polygon fill="white" stroke="#bfbfbf" points="243,-62 243,-92 414,-92 414,-62 243,-62"/>
<text text-anchor="start" x="251" y="-80" font-family="Helvetica,sans-Serif" font-size="10.00">asm/m_Do/m_Do_audio</text>
<text text-anchor="middle" x="328.5" y="-69" font-family="Helvetica,sans-Serif" font-size="10.00">/reset__17mDoAud_zelAudio_cFv.s</text>
</a>
</g>
</g>
<!-- Node1&#45;&gt;Node5 -->
<g id="edge5" class="edge">
<title>Node1&#45;&gt;Node5</title>
<path fill="none" stroke="midnightblue" d="M1141.5,-142.54C1005.53,-140.87 687.7,-133.18 423.5,-98 415.27,-96.9 406.7,-95.49 398.21,-93.92"/>
<polygon fill="midnightblue" stroke="midnightblue" points="398.8,-90.47 388.32,-92.02 397.48,-97.34 398.8,-90.47"/>
</g>
<!-- Node6 -->
<g id="node6" class="node">
<title>Node6</title>
<g id="a_node6"><a xlink:title=" ">
<polygon fill="white" stroke="#bfbfbf" points="432,-62 432,-92 553,-92 553,-62 432,-62"/>
<text text-anchor="start" x="440" y="-80" font-family="Helvetica,sans-Serif" font-size="10.00">asm/m_Do/m_Do_audio</text>
<text text-anchor="middle" x="492.5" y="-69" font-family="Helvetica,sans-Serif" font-size="10.00">/mDoAud_Create__Fv.s</text>
</a>
</g>
</g>
<!-- Node1&#45;&gt;Node6 -->
<g id="edge6" class="edge">
<title>Node1&#45;&gt;Node6</title>
<path fill="none" stroke="midnightblue" d="M1141.45,-142.92C1023.48,-141.76 771.5,-134.72 562.5,-98 557.13,-97.06 551.59,-95.86 546.07,-94.53"/>
<polygon fill="midnightblue" stroke="midnightblue" points="546.79,-91.1 536.24,-92.01 545.05,-97.88 546.79,-91.1"/>
</g>
<!-- Node7 -->
<g id="node7" class="node">
<title>Node7</title>
<g id="a_node7"><a xlink:title=" ">
<polygon fill="white" stroke="#bfbfbf" points="571.5,-62 571.5,-92 697.5,-92 697.5,-62 571.5,-62"/>
<text text-anchor="start" x="579.5" y="-80" font-family="Helvetica,sans-Serif" font-size="10.00">asm/m_Do/m_Do_audio</text>
<text text-anchor="middle" x="634.5" y="-69" font-family="Helvetica,sans-Serif" font-size="10.00">/mDoAud_Execute__Fv.s</text>
</a>
</g>
</g>
<!-- Node1&#45;&gt;Node7 -->
<g id="edge7" class="edge">
<title>Node1&#45;&gt;Node7</title>
<path fill="none" stroke="midnightblue" d="M1141.4,-140.85C1044.63,-136.89 860.59,-126.07 706.5,-98 701.16,-97.03 695.63,-95.84 690.13,-94.53"/>
<polygon fill="midnightblue" stroke="midnightblue" points="690.85,-91.1 680.3,-92.06 689.15,-97.89 690.85,-91.1"/>
</g>
<!-- Node8 -->
<g id="node8" class="node">
<title>Node8</title>
<g id="a_node8"><a xlink:title=" ">
<polygon fill="white" stroke="#bfbfbf" points="715.5,-56.5 715.5,-97.5 845.5,-97.5 845.5,-56.5 715.5,-56.5"/>
<text text-anchor="start" x="723.5" y="-85.5" font-family="Helvetica,sans-Serif" font-size="10.00">asm/m_Do/m_Do_audio</text>
<text text-anchor="start" x="723.5" y="-74.5" font-family="Helvetica,sans-Serif" font-size="10.00">/mDoAud_setSceneName</text>
<text text-anchor="middle" x="780.5" y="-63.5" font-family="Helvetica,sans-Serif" font-size="10.00">__FPCcll.s</text>
</a>
</g>
</g>
<!-- Node1&#45;&gt;Node8 -->
<g id="edge8" class="edge">
<title>Node1&#45;&gt;Node8</title>
<path fill="none" stroke="midnightblue" d="M1141.38,-137.14C1072.21,-130.5 961.14,-118.13 855.69,-97.89"/>
<polygon fill="midnightblue" stroke="midnightblue" points="856.31,-94.45 845.83,-95.97 854.97,-101.32 856.31,-94.45"/>
</g>
<!-- Node9 -->
<g id="node9" class="node">
<title>Node9</title>
<g id="a_node9"><a xlink:title=" ">
<polygon fill="white" stroke="#bfbfbf" points="864,-62 864,-92 1049,-92 1049,-62 864,-62"/>
<text text-anchor="start" x="872" y="-80" font-family="Helvetica,sans-Serif" font-size="10.00">asm/m_Do/m_Do_audio</text>
<text text-anchor="middle" x="956.5" y="-69" font-family="Helvetica,sans-Serif" font-size="10.00">/mDoAud_load1stDynamicWave__Fv.s</text>
</a>
</g>
</g>
<!-- Node1&#45;&gt;Node9 -->
<g id="edge9" class="edge">
<title>Node1&#45;&gt;Node9</title>
<path fill="none" stroke="midnightblue" d="M1175.3,-134.44C1136.16,-124.34 1070.22,-107.33 1020.94,-94.62"/>
<polygon fill="midnightblue" stroke="midnightblue" points="1021.56,-91.17 1011.01,-92.06 1019.82,-97.95 1021.56,-91.17"/>
</g>
<!-- Node10 -->
<g id="node10" class="node">
<title>Node10</title>
<g id="a_node10"><a xlink:title=" ">
<polygon fill="white" stroke="#bfbfbf" points="1067.5,-56.5 1067.5,-97.5 1201.5,-97.5 1201.5,-56.5 1067.5,-56.5"/>
<text text-anchor="start" x="1075.5" y="-85.5" font-family="Helvetica,sans-Serif" font-size="10.00">asm/m_Do/m_Do_audio</text>
<text text-anchor="start" x="1075.5" y="-74.5" font-family="Helvetica,sans-Serif" font-size="10.00">/mDoAud_setFadeOutStart</text>
<text text-anchor="middle" x="1134.5" y="-63.5" font-family="Helvetica,sans-Serif" font-size="10.00">__FUc.s</text>
</a>
</g>
</g>
<!-- Node1&#45;&gt;Node10 -->
<g id="edge10" class="edge">
<title>Node1&#45;&gt;Node10</title>
<path fill="none" stroke="midnightblue" d="M1198.52,-134.23C1189.78,-126.56 1176.62,-115 1164.5,-104.36"/>
<polygon fill="midnightblue" stroke="midnightblue" points="1166.57,-101.51 1156.75,-97.54 1161.95,-106.77 1166.57,-101.51"/>
</g>
<!-- Node11 -->
<g id="node11" class="node">
<title>Node11</title>
<g id="a_node11"><a xlink:title=" ">
<polygon fill="white" stroke="#bfbfbf" points="1220,-56.5 1220,-97.5 1347,-97.5 1347,-56.5 1220,-56.5"/>
<text text-anchor="start" x="1228" y="-85.5" font-family="Helvetica,sans-Serif" font-size="10.00">asm/m_Do/m_Do_audio</text>
<text text-anchor="start" x="1228" y="-74.5" font-family="Helvetica,sans-Serif" font-size="10.00">/mDoAud_setFadeInStart</text>
<text text-anchor="middle" x="1283.5" y="-63.5" font-family="Helvetica,sans-Serif" font-size="10.00">__FUc.s</text>
</a>
</g>
</g>
<!-- Node1&#45;&gt;Node11 -->
<g id="edge11" class="edge">
<title>Node1&#45;&gt;Node11</title>
<path fill="none" stroke="midnightblue" d="M1218.61,-134.23C1227.47,-126.56 1240.81,-115 1253.09,-104.36"/>
<polygon fill="midnightblue" stroke="midnightblue" points="1255.69,-106.74 1260.95,-97.54 1251.1,-101.45 1255.69,-106.74"/>
</g>
<!-- Node12 -->
<g id="node12" class="node">
<title>Node12</title>
<g id="a_node12"><a xlink:title=" ">
<polygon fill="white" stroke="#bfbfbf" points="1365,-62 1365,-92 1514,-92 1514,-62 1365,-62"/>
<text text-anchor="start" x="1373" y="-80" font-family="Helvetica,sans-Serif" font-size="10.00">asm/m_Do/m_Do_audio</text>
<text text-anchor="middle" x="1439.5" y="-69" font-family="Helvetica,sans-Serif" font-size="10.00">/mDoAud_resetProcess__Fv.s</text>
</a>
</g>
</g>
<!-- Node1&#45;&gt;Node12 -->
<g id="edge12" class="edge">
<title>Node1&#45;&gt;Node12</title>
<path fill="none" stroke="midnightblue" d="M1239.18,-134.37C1274.96,-124.3 1334.97,-107.41 1379.99,-94.74"/>
<polygon fill="midnightblue" stroke="midnightblue" points="1380.97,-98.11 1389.65,-92.03 1379.07,-91.37 1380.97,-98.11"/>
</g>
<!-- Node13 -->
<g id="node13" class="node">
<title>Node13</title>
<g id="a_node13"><a xlink:title=" ">
<polygon fill="white" stroke="#bfbfbf" points="1532,-62 1532,-92 1681,-92 1681,-62 1532,-62"/>
<text text-anchor="start" x="1540" y="-80" font-family="Helvetica,sans-Serif" font-size="10.00">asm/m_Do/m_Do_audio</text>
<text text-anchor="middle" x="1606.5" y="-69" font-family="Helvetica,sans-Serif" font-size="10.00">/mDoAud_resetRecover__Fv.s</text>
</a>
</g>
</g>
<!-- Node1&#45;&gt;Node13 -->
<g id="edge13" class="edge">
<title>Node1&#45;&gt;Node13</title>
<path fill="none" stroke="midnightblue" d="M1275.78,-135.26C1339.77,-127.46 1438.59,-114.26 1523.5,-98 1529.28,-96.89 1535.27,-95.65 1541.26,-94.33"/>
<polygon fill="midnightblue" stroke="midnightblue" points="1542.31,-97.68 1551.3,-92.07 1540.77,-90.86 1542.31,-97.68"/>
</g>
<!-- Node14 -->
<g id="node14" class="node">
<title>Node14</title>
<g id="a_node14"><a xlink:title=" ">
<polygon fill="white" stroke="#bfbfbf" points="1699.5,-62 1699.5,-92 1835.5,-92 1835.5,-62 1699.5,-62"/>
<text text-anchor="start" x="1707.5" y="-80" font-family="Helvetica,sans-Serif" font-size="10.00">asm/m_Do/m_Do_audio</text>
<text text-anchor="middle" x="1767.5" y="-69" font-family="Helvetica,sans-Serif" font-size="10.00">/__sinit_m_Do_audio_cpp.s</text>
</a>
</g>
</g>
<!-- Node1&#45;&gt;Node14 -->
<g id="edge14" class="edge">
<title>Node1&#45;&gt;Node14</title>
<path fill="none" stroke="midnightblue" d="M1275.62,-140.15C1369.16,-135.4 1543.77,-123.73 1690.5,-98 1696.25,-96.99 1702.2,-95.77 1708.13,-94.43"/>
<polygon fill="midnightblue" stroke="midnightblue" points="1709.12,-97.8 1718.05,-92.1 1707.52,-90.98 1709.12,-97.8"/>
</g>
<!-- Node15 -->
<g id="node15" class="node">
<title>Node15</title>
<g id="a_node15"><a xlink:title=" ">
<polygon fill="white" stroke="#bfbfbf" points="1853.5,-62 1853.5,-92 2021.5,-92 2021.5,-62 1853.5,-62"/>
<text text-anchor="start" x="1861.5" y="-80" font-family="Helvetica,sans-Serif" font-size="10.00">asm/m_Do/m_Do_audio</text>
<text text-anchor="middle" x="1937.5" y="-69" font-family="Helvetica,sans-Serif" font-size="10.00">/__dt__17mDoAud_zelAudio_cFv.s</text>
</a>
</g>
</g>
<!-- Node1&#45;&gt;Node15 -->
<g id="edge15" class="edge">
<title>Node1&#45;&gt;Node15</title>
<path fill="none" stroke="midnightblue" d="M1275.67,-141.36C1392.05,-137.83 1638.47,-127.29 1844.5,-98 1852.2,-96.9 1860.22,-95.54 1868.17,-94.03"/>
<polygon fill="midnightblue" stroke="midnightblue" points="1869.05,-97.42 1878.19,-92.06 1867.7,-90.56 1869.05,-97.42"/>
</g>
<!-- Node16 -->
<g id="node16" class="node">
<title>Node16</title>
<g id="a_node16"><a xlink:title=" ">
<polygon fill="white" stroke="#bfbfbf" points="2040,-62 2040,-92 2171,-92 2171,-62 2040,-62"/>
<text text-anchor="start" x="2048" y="-80" font-family="Helvetica,sans-Serif" font-size="10.00">asm/m_Do/m_Do_audio</text>
<text text-anchor="middle" x="2105.5" y="-69" font-family="Helvetica,sans-Serif" font-size="10.00">/__dt__10Z2AudioMgrFv.s</text>
</a>
</g>
</g>
<!-- Node1&#45;&gt;Node16 -->
<g id="edge16" class="edge">
<title>Node1&#45;&gt;Node16</title>
<path fill="none" stroke="midnightblue" d="M1275.53,-141.11C1444.67,-136.06 1885.65,-121.03 2030.5,-98 2036.38,-97.06 2042.47,-95.86 2048.52,-94.5"/>
<polygon fill="midnightblue" stroke="midnightblue" points="2049.69,-97.81 2058.61,-92.09 2048.07,-91.01 2049.69,-97.81"/>
</g>
<!-- Node17 -->
<g id="node17" class="node">
<title>Node17</title>
<g id="a_node17"><a xlink:title=" ">
<polygon fill="white" stroke="#bfbfbf" points="2189.5,-62 2189.5,-92 2341.5,-92 2341.5,-62 2189.5,-62"/>
<text text-anchor="start" x="2197.5" y="-80" font-family="Helvetica,sans-Serif" font-size="10.00">asm/m_Do/m_Do_audio</text>
<text text-anchor="middle" x="2265.5" y="-69" font-family="Helvetica,sans-Serif" font-size="10.00">/__dt__14JAISoundHandleFv.s</text>
</a>
</g>
</g>
<!-- Node1&#45;&gt;Node17 -->
<g id="edge17" class="edge">
<title>Node1&#45;&gt;Node17</title>
<path fill="none" stroke="midnightblue" d="M1275.71,-141.51C1465.87,-137.02 2005.24,-122.46 2180.5,-98 2187.81,-96.98 2195.41,-95.62 2202.93,-94.1"/>
<polygon fill="midnightblue" stroke="midnightblue" points="2203.68,-97.52 2212.73,-92.01 2202.22,-90.67 2203.68,-97.52"/>
</g>
<!-- Node18 -->
<g id="node18" class="node">
<title>Node18</title>
<g id="a_node18"><a xlink:title=" ">
<polygon fill="white" stroke="#bfbfbf" points="2360,-62 2360,-92 2497,-92 2497,-62 2360,-62"/>
<text text-anchor="start" x="2368" y="-80" font-family="Helvetica,sans-Serif" font-size="10.00">asm/m_Do/m_Do_audio</text>
<text text-anchor="middle" x="2428.5" y="-69" font-family="Helvetica,sans-Serif" font-size="10.00">/__dt__12Z2MultiSeObjFv.s</text>
</a>
</g>
</g>
<!-- Node1&#45;&gt;Node18 -->
<g id="edge18" class="edge">
<title>Node1&#45;&gt;Node18</title>
<path fill="none" stroke="midnightblue" d="M1275.52,-142.22C1487.38,-139.46 2141.04,-128.63 2350.5,-98 2356.85,-97.07 2363.44,-95.83 2369.97,-94.42"/>
<polygon fill="midnightblue" stroke="midnightblue" points="2371.18,-97.74 2380.14,-92.09 2369.61,-90.91 2371.18,-97.74"/>
</g>
<!-- Node19 -->
<g id="node19" class="node">
<title>Node19</title>
<g id="a_node19"><a xlink:title=" ">
<polygon fill="white" stroke="#bfbfbf" points="2515.5,-62 2515.5,-92 2675.5,-92 2675.5,-62 2515.5,-62"/>
<text text-anchor="start" x="2523.5" y="-80" font-family="Helvetica,sans-Serif" font-size="10.00">asm/m_Do/m_Do_audio</text>
<text text-anchor="middle" x="2595.5" y="-69" font-family="Helvetica,sans-Serif" font-size="10.00">/__dt__16JAISeCategoryMgrFv.s</text>
</a>
</g>
</g>
<!-- Node1&#45;&gt;Node19 -->
<g id="edge19" class="edge">
<title>Node1&#45;&gt;Node19</title>
<path fill="none" stroke="midnightblue" d="M1275.57,-142.33C1506.08,-139.75 2264.83,-129.07 2506.5,-98 2514.23,-97.01 2522.28,-95.66 2530.24,-94.12"/>
<polygon fill="midnightblue" stroke="midnightblue" points="2531.13,-97.51 2540.24,-92.09 2529.74,-90.65 2531.13,-97.51"/>
</g>
<!-- Node4&#45;&gt;Node3 -->
<g id="edge4" class="edge">
<title>Node4&#45;&gt;Node3</title>
<path fill="none" stroke="midnightblue" d="M165.97,-67.23C159.7,-57.29 149.32,-40.84 141.41,-28.29"/>
<polygon fill="midnightblue" stroke="midnightblue" points="144.24,-26.22 135.94,-19.63 138.32,-29.95 144.24,-26.22"/>
</g>
</g>
</svg>
