<?xml version="1.0" encoding="UTF-8" standalone="no"?>
<!DOCTYPE svg PUBLIC "-//W3C//DTD SVG 1.1//EN"
 "http://www.w3.org/Graphics/SVG/1.1/DTD/svg11.dtd">
<!-- Generated by graphviz version 2.47.0 (20210316.2052)
 -->
<!-- Title: src/m_Do/m_Do_machine.cpp Pages: 1 -->
<svg width="2193pt" height="162pt"
 viewBox="0.00 0.00 2192.50 162.00" xmlns="http://www.w3.org/2000/svg" xmlns:xlink="http://www.w3.org/1999/xlink">
<g id="graph0" class="graph" transform="scale(1 1) rotate(0) translate(4 158)">
<title>src/m_Do/m_Do_machine.cpp</title>
<polygon fill="white" stroke="transparent" points="-4,4 -4,-158 2188.5,-158 2188.5,4 -4,4"/>
<!-- Node1 -->
<g id="node1" class="node">
<title>Node1</title>
<g id="a_node1"><a xlink:title=" ">
<polygon fill="#bfbfbf" stroke="black" points="882,-134.5 882,-153.5 1029,-153.5 1029,-134.5 882,-134.5"/>
<text text-anchor="middle" x="955.5" y="-141.5" font-family="Helvetica,sans-Serif" font-size="10.00">src/m_Do/m_Do_machine.cpp</text>
</a>
</g>
</g>
<!-- Node2 -->
<g id="node2" class="node">
<title>Node2</title>
<g id="a_node2"><a xlink:href="dol2asm_8h.html" target="_top" xlink:title=" ">
<polygon fill="white" stroke="black" points="0,-67.5 0,-86.5 61,-86.5 61,-67.5 0,-67.5"/>
<text text-anchor="middle" x="30.5" y="-74.5" font-family="Helvetica,sans-Serif" font-size="10.00">dol2asm.h</text>
</a>
</g>
</g>
<!-- Node1&#45;&gt;Node2 -->
<g id="edge1" class="edge">
<title>Node1&#45;&gt;Node2</title>
<path fill="none" stroke="midnightblue" d="M881.79,-142.69C698.84,-141.36 227.73,-134.39 75.5,-98 68.73,-96.38 61.72,-93.77 55.3,-90.96"/>
<polygon fill="midnightblue" stroke="midnightblue" points="56.37,-87.6 45.83,-86.5 53.39,-93.93 56.37,-87.6"/>
</g>
<!-- Node3 -->
<g id="node3" class="node">
<title>Node3</title>
<g id="a_node3"><a xlink:href="types_8h.html" target="_top" xlink:title=" ">
<polygon fill="white" stroke="black" points="93,-0.5 93,-19.5 174,-19.5 174,-0.5 93,-0.5"/>
<text text-anchor="middle" x="133.5" y="-7.5" font-family="Helvetica,sans-Serif" font-size="10.00">dolphin/types.h</text>
</a>
</g>
</g>
<!-- Node1&#45;&gt;Node3 -->
<g id="edge2" class="edge">
<title>Node1&#45;&gt;Node3</title>
<path fill="none" stroke="midnightblue" d="M881.93,-141.81C680.8,-138.2 134.92,-125.87 108.5,-98 90.3,-78.8 106.84,-47.23 120.31,-27.86"/>
<polygon fill="midnightblue" stroke="midnightblue" points="123.23,-29.81 126.33,-19.68 117.58,-25.66 123.23,-29.81"/>
</g>
<!-- Node4 -->
<g id="node4" class="node">
<title>Node4</title>
<g id="a_node4"><a xlink:href="m__Do__machine_8h.html" target="_top" xlink:title=" ">
<polygon fill="white" stroke="black" points="117.5,-67.5 117.5,-86.5 237.5,-86.5 237.5,-67.5 117.5,-67.5"/>
<text text-anchor="middle" x="177.5" y="-74.5" font-family="Helvetica,sans-Serif" font-size="10.00">m_Do/m_Do_machine.h</text>
</a>
</g>
</g>
<!-- Node1&#45;&gt;Node4 -->
<g id="edge3" class="edge">
<title>Node1&#45;&gt;Node4</title>
<path fill="none" stroke="midnightblue" d="M881.9,-143.6C752.42,-143.49 475.84,-138.02 246.5,-98 235.02,-96 222.74,-92.79 211.76,-89.53"/>
<polygon fill="midnightblue" stroke="midnightblue" points="212.69,-86.16 202.1,-86.55 210.63,-92.85 212.69,-86.16"/>
</g>
<!-- Node5 -->
<g id="node5" class="node">
<title>Node5</title>
<g id="a_node5"><a xlink:title=" ">
<polygon fill="white" stroke="#bfbfbf" points="255.5,-56.5 255.5,-97.5 389.5,-97.5 389.5,-56.5 255.5,-56.5"/>
<text text-anchor="start" x="263.5" y="-85.5" font-family="Helvetica,sans-Serif" font-size="10.00">asm/m_Do/m_Do_machine</text>
<text text-anchor="start" x="263.5" y="-74.5" font-family="Helvetica,sans-Serif" font-size="10.00">/myGetHeapTypeByString</text>
<text text-anchor="middle" x="322.5" y="-63.5" font-family="Helvetica,sans-Serif" font-size="10.00">__FP7JKRHeap.s</text>
</a>
</g>
</g>
<!-- Node1&#45;&gt;Node5 -->
<g id="edge5" class="edge">
<title>Node1&#45;&gt;Node5</title>
<path fill="none" stroke="midnightblue" d="M882,-141.19C776.93,-137.69 577.73,-127.67 399.97,-98.1"/>
<polygon fill="midnightblue" stroke="midnightblue" points="400.35,-94.61 389.91,-96.4 399.19,-101.52 400.35,-94.61"/>
</g>
<!-- Node6 -->
<g id="node6" class="node">
<title>Node6</title>
<g id="a_node6"><a xlink:title=" ">
<polygon fill="white" stroke="#bfbfbf" points="407.5,-56.5 407.5,-97.5 541.5,-97.5 541.5,-56.5 407.5,-56.5"/>
<text text-anchor="start" x="415.5" y="-85.5" font-family="Helvetica,sans-Serif" font-size="10.00">asm/m_Do/m_Do_machine</text>
<text text-anchor="start" x="415.5" y="-74.5" font-family="Helvetica,sans-Serif" font-size="10.00">/myMemoryErrorRoutine</text>
<text text-anchor="middle" x="474.5" y="-63.5" font-family="Helvetica,sans-Serif" font-size="10.00">__FPvUli.s</text>
</a>
</g>
</g>
<!-- Node1&#45;&gt;Node6 -->
<g id="edge6" class="edge">
<title>Node1&#45;&gt;Node6</title>
<path fill="none" stroke="midnightblue" d="M881.86,-138.08C802.56,-132.05 672.61,-120.04 551.69,-98.08"/>
<polygon fill="midnightblue" stroke="midnightblue" points="551.98,-94.58 541.52,-96.21 550.72,-101.46 551.98,-94.58"/>
</g>
<!-- Node7 -->
<g id="node7" class="node">
<title>Node7</title>
<g id="a_node7"><a xlink:title=" ">
<polygon fill="white" stroke="#bfbfbf" points="559.5,-56.5 559.5,-97.5 693.5,-97.5 693.5,-56.5 559.5,-56.5"/>
<text text-anchor="start" x="567.5" y="-85.5" font-family="Helvetica,sans-Serif" font-size="10.00">asm/m_Do/m_Do_machine</text>
<text text-anchor="start" x="567.5" y="-74.5" font-family="Helvetica,sans-Serif" font-size="10.00">/myHeapCheckRecursive</text>
<text text-anchor="middle" x="626.5" y="-63.5" font-family="Helvetica,sans-Serif" font-size="10.00">__FP7JKRHeap.s</text>
</a>
</g>
</g>
<!-- Node1&#45;&gt;Node7 -->
<g id="edge7" class="edge">
<title>Node1&#45;&gt;Node7</title>
<path fill="none" stroke="midnightblue" d="M900.69,-134.47C849.48,-126.2 771.01,-112.77 703.5,-98 703.4,-97.98 703.3,-97.96 703.2,-97.93"/>
<polygon fill="midnightblue" stroke="midnightblue" points="704.14,-94.56 693.62,-95.76 702.6,-101.39 704.14,-94.56"/>
</g>
<!-- Node8 -->
<g id="node8" class="node">
<title>Node8</title>
<g id="a_node8"><a xlink:title=" ">
<polygon fill="white" stroke="#bfbfbf" points="712,-62 712,-92 867,-92 867,-62 712,-62"/>
<text text-anchor="start" x="720" y="-80" font-family="Helvetica,sans-Serif" font-size="10.00">asm/m_Do/m_Do_machine</text>
<text text-anchor="middle" x="789.5" y="-69" font-family="Helvetica,sans-Serif" font-size="10.00">/mDoMch_HeapCheckAll__Fv.s</text>
</a>
</g>
</g>
<!-- Node1&#45;&gt;Node8 -->
<g id="edge8" class="edge">
<title>Node1&#45;&gt;Node8</title>
<path fill="none" stroke="midnightblue" d="M933.46,-134.37C908.44,-124.57 866.96,-108.33 834.93,-95.79"/>
<polygon fill="midnightblue" stroke="midnightblue" points="835.91,-92.42 825.33,-92.03 833.36,-98.93 835.91,-92.42"/>
</g>
<!-- Node9 -->
<g id="node9" class="node">
<title>Node9</title>
<g id="a_node9"><a xlink:title=" ">
<polygon fill="white" stroke="#bfbfbf" points="885,-62 885,-92 1026,-92 1026,-62 885,-62"/>
<text text-anchor="start" x="893" y="-80" font-family="Helvetica,sans-Serif" font-size="10.00">asm/m_Do/m_Do_machine</text>
<text text-anchor="middle" x="955.5" y="-69" font-family="Helvetica,sans-Serif" font-size="10.00">/developKeyCheck__FUlUl.s</text>
</a>
</g>
</g>
<!-- Node1&#45;&gt;Node9 -->
<g id="edge9" class="edge">
<title>Node1&#45;&gt;Node9</title>
<path fill="none" stroke="midnightblue" d="M955.5,-134.23C955.5,-126.04 955.5,-113.42 955.5,-102.21"/>
<polygon fill="midnightblue" stroke="midnightblue" points="959,-102.09 955.5,-92.09 952,-102.09 959,-102.09"/>
</g>
<!-- Node10 -->
<g id="node10" class="node">
<title>Node10</title>
<g id="a_node10"><a xlink:title=" ">
<polygon fill="white" stroke="#bfbfbf" points="1044,-62 1044,-92 1221,-92 1221,-62 1044,-62"/>
<text text-anchor="start" x="1052" y="-80" font-family="Helvetica,sans-Serif" font-size="10.00">asm/m_Do/m_Do_machine</text>
<text text-anchor="middle" x="1132.5" y="-69" font-family="Helvetica,sans-Serif" font-size="10.00">/mDoMch_IsProgressiveMode__Fv.s</text>
</a>
</g>
</g>
<!-- Node1&#45;&gt;Node10 -->
<g id="edge10" class="edge">
<title>Node1&#45;&gt;Node10</title>
<path fill="none" stroke="midnightblue" d="M979,-134.37C1005.79,-124.53 1050.29,-108.19 1084.5,-95.63"/>
<polygon fill="midnightblue" stroke="midnightblue" points="1086.12,-98.76 1094.3,-92.03 1083.71,-92.19 1086.12,-98.76"/>
</g>
<!-- Node11 -->
<g id="node11" class="node">
<title>Node11</title>
<g id="a_node11"><a xlink:title=" ">
<polygon fill="white" stroke="#bfbfbf" points="1238.5,-62 1238.5,-92 1396.5,-92 1396.5,-62 1238.5,-62"/>
<text text-anchor="start" x="1246.5" y="-80" font-family="Helvetica,sans-Serif" font-size="10.00">asm/m_Do/m_Do_machine</text>
<text text-anchor="middle" x="1317.5" y="-69" font-family="Helvetica,sans-Serif" font-size="10.00">/exceptionReadPad__FPUlPUl.s</text>
</a>
</g>
</g>
<!-- Node1&#45;&gt;Node11 -->
<g id="edge11" class="edge">
<title>Node1&#45;&gt;Node11</title>
<path fill="none" stroke="midnightblue" d="M1014.44,-134.47C1070.25,-126.12 1156.33,-112.58 1230.5,-98 1236.35,-96.85 1242.4,-95.6 1248.46,-94.29"/>
<polygon fill="midnightblue" stroke="midnightblue" points="1249.62,-97.62 1258.64,-92.07 1248.13,-90.78 1249.62,-97.62"/>
</g>
<!-- Node12 -->
<g id="node12" class="node">
<title>Node12</title>
<g id="a_node12"><a xlink:title=" ">
<polygon fill="white" stroke="#bfbfbf" points="1414.5,-62 1414.5,-92 1548.5,-92 1548.5,-62 1414.5,-62"/>
<text text-anchor="start" x="1422.5" y="-80" font-family="Helvetica,sans-Serif" font-size="10.00">asm/m_Do/m_Do_machine</text>
<text text-anchor="middle" x="1481.5" y="-69" font-family="Helvetica,sans-Serif" font-size="10.00">/exceptionRestart__Fv.s</text>
</a>
</g>
</g>
<!-- Node1&#45;&gt;Node12 -->
<g id="edge12" class="edge">
<title>Node1&#45;&gt;Node12</title>
<path fill="none" stroke="midnightblue" d="M1029.26,-139.2C1118.81,-133.77 1274.15,-121.7 1405.5,-98 1411.18,-96.98 1417.05,-95.74 1422.9,-94.4"/>
<polygon fill="midnightblue" stroke="midnightblue" points="1423.79,-97.79 1432.69,-92.06 1422.15,-90.98 1423.79,-97.79"/>
</g>
<!-- Node13 -->
<g id="node13" class="node">
<title>Node13</title>
<g id="a_node13"><a xlink:title=" ">
<polygon fill="white" stroke="#bfbfbf" points="1566.5,-56.5 1566.5,-97.5 1700.5,-97.5 1700.5,-56.5 1566.5,-56.5"/>
<text text-anchor="start" x="1574.5" y="-85.5" font-family="Helvetica,sans-Serif" font-size="10.00">asm/m_Do/m_Do_machine</text>
<text text-anchor="start" x="1574.5" y="-74.5" font-family="Helvetica,sans-Serif" font-size="10.00">/myExceptionCallback</text>
<text text-anchor="middle" x="1633.5" y="-63.5" font-family="Helvetica,sans-Serif" font-size="10.00">__FUsP9OSContextUlUl.s</text>
</a>
</g>
</g>
<!-- Node1&#45;&gt;Node13 -->
<g id="edge13" class="edge">
<title>Node1&#45;&gt;Node13</title>
<path fill="none" stroke="midnightblue" d="M1029.23,-141.82C1141.29,-139.06 1361.18,-129.92 1555.96,-98.1"/>
<polygon fill="midnightblue" stroke="midnightblue" points="1556.8,-101.51 1566.09,-96.42 1555.66,-94.6 1556.8,-101.51"/>
</g>
<!-- Node14 -->
<g id="node14" class="node">
<title>Node14</title>
<g id="a_node14"><a xlink:title=" ">
<polygon fill="white" stroke="#bfbfbf" points="1718.5,-56.5 1718.5,-97.5 1852.5,-97.5 1852.5,-56.5 1718.5,-56.5"/>
<text text-anchor="start" x="1726.5" y="-85.5" font-family="Helvetica,sans-Serif" font-size="10.00">asm/m_Do/m_Do_machine</text>
<text text-anchor="start" x="1726.5" y="-74.5" font-family="Helvetica,sans-Serif" font-size="10.00">/fault_callback_scroll</text>
<text text-anchor="middle" x="1785.5" y="-63.5" font-family="Helvetica,sans-Serif" font-size="10.00">__FUsP9OSContextUlUl.s</text>
</a>
</g>
</g>
<!-- Node1&#45;&gt;Node14 -->
<g id="edge14" class="edge">
<title>Node1&#45;&gt;Node14</title>
<path fill="none" stroke="midnightblue" d="M1029.07,-143.41C1162.79,-143.12 1454.51,-137.65 1707.97,-98.08"/>
<polygon fill="midnightblue" stroke="midnightblue" points="1708.77,-101.5 1718.1,-96.48 1707.68,-94.58 1708.77,-101.5"/>
</g>
<!-- Node15 -->
<g id="node15" class="node">
<title>Node15</title>
<g id="a_node15"><a xlink:title=" ">
<polygon fill="white" stroke="#bfbfbf" points="1870.5,-62 1870.5,-92 2032.5,-92 2032.5,-62 1870.5,-62"/>
<text text-anchor="start" x="1878.5" y="-80" font-family="Helvetica,sans-Serif" font-size="10.00">asm/m_Do/m_Do_machine</text>
<text text-anchor="middle" x="1951.5" y="-69" font-family="Helvetica,sans-Serif" font-size="10.00">/my_SysPrintHeap__FPCcPvUl.s</text>
</a>
</g>
</g>
<!-- Node1&#45;&gt;Node15 -->
<g id="edge15" class="edge">
<title>Node1&#45;&gt;Node15</title>
<path fill="none" stroke="midnightblue" d="M1029.28,-143.54C1184.21,-143.76 1554.43,-139.44 1861.5,-98 1869.2,-96.96 1877.21,-95.6 1885.14,-94.07"/>
<polygon fill="midnightblue" stroke="midnightblue" points="1886,-97.47 1895.11,-92.06 1884.62,-90.61 1886,-97.47"/>
</g>
<!-- Node16 -->
<g id="node16" class="node">
<title>Node16</title>
<g id="a_node16"><a xlink:title=" ">
<polygon fill="white" stroke="#bfbfbf" points="2050.5,-62 2050.5,-92 2184.5,-92 2184.5,-62 2050.5,-62"/>
<text text-anchor="start" x="2058.5" y="-80" font-family="Helvetica,sans-Serif" font-size="10.00">asm/m_Do/m_Do_machine</text>
<text text-anchor="middle" x="2117.5" y="-69" font-family="Helvetica,sans-Serif" font-size="10.00">/mDoMch_Create__Fv.s</text>
</a>
</g>
</g>
<!-- Node1&#45;&gt;Node16 -->
<g id="edge16" class="edge">
<title>Node1&#45;&gt;Node16</title>
<path fill="none" stroke="midnightblue" d="M1029.11,-142.02C1240.3,-138.88 1845.57,-127.49 2041.5,-98 2047.7,-97.07 2054.12,-95.83 2060.48,-94.42"/>
<polygon fill="midnightblue" stroke="midnightblue" points="2061.46,-97.78 2070.4,-92.08 2059.86,-90.97 2061.46,-97.78"/>
</g>
<!-- Node4&#45;&gt;Node3 -->
<g id="edge4" class="edge">
<title>Node4&#45;&gt;Node3</title>
<path fill="none" stroke="midnightblue" d="M171.57,-67.23C164.77,-57.2 153.48,-40.51 144.95,-27.92"/>
<polygon fill="midnightblue" stroke="midnightblue" points="147.84,-25.95 139.34,-19.63 142.05,-29.87 147.84,-25.95"/>
</g>
</g>
</svg>
