<?xml version="1.0" encoding="UTF-8" standalone="no"?>
<!DOCTYPE svg PUBLIC "-//W3C//DTD SVG 1.1//EN"
 "http://www.w3.org/Graphics/SVG/1.1/DTD/svg11.dtd">
<!-- Generated by graphviz version 2.47.0 (20210316.2052)
 -->
<!-- Title: src/m_Do/m_Do_main.cpp Pages: 1 -->
<svg width="2401pt" height="151pt"
 viewBox="0.00 0.00 2400.50 151.00" xmlns="http://www.w3.org/2000/svg" xmlns:xlink="http://www.w3.org/1999/xlink">
<g id="graph0" class="graph" transform="scale(1 1) rotate(0) translate(4 147)">
<title>src/m_Do/m_Do_main.cpp</title>
<polygon fill="white" stroke="transparent" points="-4,4 -4,-147 2396.5,-147 2396.5,4 -4,4"/>
<!-- Node1 -->
<g id="node1" class="node">
<title>Node1</title>
<g id="a_node1"><a xlink:title=" ">
<polygon fill="#bfbfbf" stroke="black" points="1086,-123.5 1086,-142.5 1217,-142.5 1217,-123.5 1086,-123.5"/>
<text text-anchor="middle" x="1151.5" y="-130.5" font-family="Helvetica,sans-Serif" font-size="10.00">src/m_Do/m_Do_main.cpp</text>
</a>
</g>
</g>
<!-- Node2 -->
<g id="node2" class="node">
<title>Node2</title>
<g id="a_node2"><a xlink:href="dol2asm_8h.html" target="_top" xlink:title=" ">
<polygon fill="white" stroke="black" points="0,-62 0,-81 61,-81 61,-62 0,-62"/>
<text text-anchor="middle" x="30.5" y="-69" font-family="Helvetica,sans-Serif" font-size="10.00">dol2asm.h</text>
</a>
</g>
</g>
<!-- Node1&#45;&gt;Node2 -->
<g id="edge1" class="edge">
<title>Node1&#45;&gt;Node2</title>
<path fill="none" stroke="midnightblue" d="M1085.79,-131.57C883.36,-129.88 271.06,-121.93 75.5,-87 71.32,-86.25 66.99,-85.22 62.74,-84.04"/>
<polygon fill="midnightblue" stroke="midnightblue" points="63.68,-80.66 53.09,-81.09 61.63,-87.36 63.68,-80.66"/>
</g>
<!-- Node3 -->
<g id="node3" class="node">
<title>Node3</title>
<g id="a_node3"><a xlink:href="types_8h.html" target="_top" xlink:title=" ">
<polygon fill="white" stroke="black" points="89,-0.5 89,-19.5 170,-19.5 170,-0.5 89,-0.5"/>
<text text-anchor="middle" x="129.5" y="-7.5" font-family="Helvetica,sans-Serif" font-size="10.00">dolphin/types.h</text>
</a>
</g>
</g>
<!-- Node1&#45;&gt;Node3 -->
<g id="edge2" class="edge">
<title>Node1&#45;&gt;Node3</title>
<path fill="none" stroke="midnightblue" d="M1085.93,-131.64C862.44,-130.09 142.37,-122.36 108.5,-87 93.32,-71.15 105.39,-45.35 116.53,-28.27"/>
<polygon fill="midnightblue" stroke="midnightblue" points="119.59,-30.01 122.44,-19.8 113.85,-26 119.59,-30.01"/>
</g>
<!-- Node4 -->
<g id="node4" class="node">
<title>Node4</title>
<g id="a_node4"><a xlink:href="m__Do__main_8h.html" target="_top" xlink:title=" ">
<polygon fill="white" stroke="black" points="117.5,-62 117.5,-81 221.5,-81 221.5,-62 117.5,-62"/>
<text text-anchor="middle" x="169.5" y="-69" font-family="Helvetica,sans-Serif" font-size="10.00">m_Do/m_Do_main.h</text>
</a>
</g>
</g>
<!-- Node1&#45;&gt;Node4 -->
<g id="edge3" class="edge">
<title>Node1&#45;&gt;Node4</title>
<path fill="none" stroke="midnightblue" d="M1085.94,-130.34C904.25,-125.48 396.79,-110.18 231.5,-87 224.81,-86.06 217.77,-84.74 210.95,-83.28"/>
<polygon fill="midnightblue" stroke="midnightblue" points="211.68,-79.86 201.15,-81.07 210.13,-86.69 211.68,-79.86"/>
</g>
<!-- Node5 -->
<g id="node5" class="node">
<title>Node5</title>
<g id="a_node5"><a xlink:title=" ">
<polygon fill="white" stroke="#bfbfbf" points="240,-56.5 240,-86.5 359,-86.5 359,-56.5 240,-56.5"/>
<text text-anchor="start" x="248" y="-74.5" font-family="Helvetica,sans-Serif" font-size="10.00">asm/m_Do/m_Do_main</text>
<text text-anchor="middle" x="299.5" y="-63.5" font-family="Helvetica,sans-Serif" font-size="10.00">/version_check__Fv.s</text>
</a>
</g>
</g>
<!-- Node1&#45;&gt;Node5 -->
<g id="edge5" class="edge">
<title>Node1&#45;&gt;Node5</title>
<path fill="none" stroke="midnightblue" d="M1085.97,-131.54C952.73,-129.89 640.62,-122.36 369.28,-86.95"/>
<polygon fill="midnightblue" stroke="midnightblue" points="369.62,-83.47 359.24,-85.63 368.7,-90.41 369.62,-83.47"/>
</g>
<!-- Node6 -->
<g id="node6" class="node">
<title>Node6</title>
<g id="a_node6"><a xlink:title=" ">
<polygon fill="white" stroke="#bfbfbf" points="377,-56.5 377,-86.5 538,-86.5 538,-56.5 377,-56.5"/>
<text text-anchor="start" x="385" y="-74.5" font-family="Helvetica,sans-Serif" font-size="10.00">asm/m_Do/m_Do_main</text>
<text text-anchor="middle" x="457.5" y="-63.5" font-family="Helvetica,sans-Serif" font-size="10.00">/CheckHeap1__9HeapCheckFv.s</text>
</a>
</g>
</g>
<!-- Node1&#45;&gt;Node6 -->
<g id="edge6" class="edge">
<title>Node1&#45;&gt;Node6</title>
<path fill="none" stroke="midnightblue" d="M1085.63,-128.94C976.28,-123.45 750.19,-110.38 548.6,-87.06"/>
<polygon fill="midnightblue" stroke="midnightblue" points="548.75,-83.55 538.41,-85.87 547.93,-90.51 548.75,-83.55"/>
</g>
<!-- Node7 -->
<g id="node7" class="node">
<title>Node7</title>
<g id="a_node7"><a xlink:title=" ">
<polygon fill="white" stroke="#bfbfbf" points="556,-56.5 556,-86.5 675,-86.5 675,-56.5 556,-56.5"/>
<text text-anchor="start" x="564" y="-74.5" font-family="Helvetica,sans-Serif" font-size="10.00">asm/m_Do/m_Do_main</text>
<text text-anchor="middle" x="615.5" y="-63.5" font-family="Helvetica,sans-Serif" font-size="10.00">/CheckHeap__FUl.s</text>
</a>
</g>
</g>
<!-- Node1&#45;&gt;Node7 -->
<g id="edge7" class="edge">
<title>Node1&#45;&gt;Node7</title>
<path fill="none" stroke="midnightblue" d="M1085.86,-127.98C997.26,-122.05 834.34,-109.33 685.5,-87.04"/>
<polygon fill="midnightblue" stroke="midnightblue" points="685.68,-83.52 675.27,-85.48 684.63,-90.44 685.68,-83.52"/>
</g>
<!-- Node8 -->
<g id="node8" class="node">
<title>Node8</title>
<g id="a_node8"><a xlink:title=" ">
<polygon fill="white" stroke="#bfbfbf" points="693.5,-56.5 693.5,-86.5 859.5,-86.5 859.5,-56.5 693.5,-56.5"/>
<text text-anchor="start" x="701.5" y="-74.5" font-family="Helvetica,sans-Serif" font-size="10.00">asm/m_Do/m_Do_main</text>
<text text-anchor="middle" x="776.5" y="-63.5" font-family="Helvetica,sans-Serif" font-size="10.00">/countUsed__FP10JKRExpHeap.s</text>
</a>
</g>
</g>
<!-- Node1&#45;&gt;Node8 -->
<g id="edge8" class="edge">
<title>Node1&#45;&gt;Node8</title>
<path fill="none" stroke="midnightblue" d="M1097.77,-123.48C1038.29,-114.04 941.34,-98.66 869.48,-87.25"/>
<polygon fill="midnightblue" stroke="midnightblue" points="869.94,-83.78 859.51,-85.67 868.84,-90.7 869.94,-83.78"/>
</g>
<!-- Node9 -->
<g id="node9" class="node">
<title>Node9</title>
<g id="a_node9"><a xlink:title=" ">
<polygon fill="white" stroke="#bfbfbf" points="877.5,-56.5 877.5,-86.5 1051.5,-86.5 1051.5,-56.5 877.5,-56.5"/>
<text text-anchor="start" x="885.5" y="-74.5" font-family="Helvetica,sans-Serif" font-size="10.00">asm/m_Do/m_Do_main</text>
<text text-anchor="middle" x="964.5" y="-63.5" font-family="Helvetica,sans-Serif" font-size="10.00">/getUsedCount__9HeapCheckCFv.s</text>
</a>
</g>
</g>
<!-- Node1&#45;&gt;Node9 -->
<g id="edge9" class="edge">
<title>Node1&#45;&gt;Node9</title>
<path fill="none" stroke="midnightblue" d="M1124.71,-123.48C1097.01,-114.66 1053.03,-100.67 1018.15,-89.57"/>
<polygon fill="midnightblue" stroke="midnightblue" points="1019.16,-86.22 1008.57,-86.52 1017.04,-92.89 1019.16,-86.22"/>
</g>
<!-- Node10 -->
<g id="node10" class="node">
<title>Node10</title>
<g id="a_node10"><a xlink:title=" ">
<polygon fill="white" stroke="#bfbfbf" points="1069.5,-56.5 1069.5,-86.5 1233.5,-86.5 1233.5,-56.5 1069.5,-56.5"/>
<text text-anchor="start" x="1077.5" y="-74.5" font-family="Helvetica,sans-Serif" font-size="10.00">asm/m_Do/m_Do_main</text>
<text text-anchor="middle" x="1151.5" y="-63.5" font-family="Helvetica,sans-Serif" font-size="10.00">/heapDisplay__9HeapCheckCFv.s</text>
</a>
</g>
</g>
<!-- Node1&#45;&gt;Node10 -->
<g id="edge10" class="edge">
<title>Node1&#45;&gt;Node10</title>
<path fill="none" stroke="midnightblue" d="M1151.5,-123.48C1151.5,-116.47 1151.5,-106.19 1151.5,-96.7"/>
<polygon fill="midnightblue" stroke="midnightblue" points="1155,-96.52 1151.5,-86.52 1148,-96.52 1155,-96.52"/>
</g>
<!-- Node11 -->
<g id="node11" class="node">
<title>Node11</title>
<g id="a_node11"><a xlink:title=" ">
<polygon fill="white" stroke="#bfbfbf" points="1252,-56.5 1252,-86.5 1371,-86.5 1371,-56.5 1252,-56.5"/>
<text text-anchor="start" x="1260" y="-74.5" font-family="Helvetica,sans-Serif" font-size="10.00">asm/m_Do/m_Do_main</text>
<text text-anchor="middle" x="1311.5" y="-63.5" font-family="Helvetica,sans-Serif" font-size="10.00">/debugDisplay__Fv.s</text>
</a>
</g>
</g>
<!-- Node1&#45;&gt;Node11 -->
<g id="edge11" class="edge">
<title>Node1&#45;&gt;Node11</title>
<path fill="none" stroke="midnightblue" d="M1174.42,-123.48C1197.71,-114.81 1234.47,-101.15 1264.06,-90.14"/>
<polygon fill="midnightblue" stroke="midnightblue" points="1265.64,-93.29 1273.79,-86.52 1263.2,-86.73 1265.64,-93.29"/>
</g>
<!-- Node12 -->
<g id="node12" class="node">
<title>Node12</title>
<g id="a_node12"><a xlink:title=" ">
<polygon fill="white" stroke="#bfbfbf" points="1389.5,-56.5 1389.5,-86.5 1509.5,-86.5 1509.5,-56.5 1389.5,-56.5"/>
<text text-anchor="start" x="1397.5" y="-74.5" font-family="Helvetica,sans-Serif" font-size="10.00">asm/m_Do/m_Do_main</text>
<text text-anchor="middle" x="1449.5" y="-63.5" font-family="Helvetica,sans-Serif" font-size="10.00">/Debug_console__FUl.s</text>
</a>
</g>
</g>
<!-- Node1&#45;&gt;Node12 -->
<g id="edge12" class="edge">
<title>Node1&#45;&gt;Node12</title>
<path fill="none" stroke="midnightblue" d="M1195.86,-123.46C1239.95,-114.94 1309.75,-101.33 1379.47,-87.2"/>
<polygon fill="midnightblue" stroke="midnightblue" points="1380.2,-90.62 1389.3,-85.2 1378.8,-83.76 1380.2,-90.62"/>
</g>
<!-- Node13 -->
<g id="node13" class="node">
<title>Node13</title>
<g id="a_node13"><a xlink:title=" ">
<polygon fill="white" stroke="#bfbfbf" points="1528,-56.5 1528,-86.5 1669,-86.5 1669,-56.5 1528,-56.5"/>
<text text-anchor="start" x="1536" y="-74.5" font-family="Helvetica,sans-Serif" font-size="10.00">asm/m_Do/m_Do_main</text>
<text text-anchor="middle" x="1598.5" y="-63.5" font-family="Helvetica,sans-Serif" font-size="10.00">/LOAD_COPYDATE__FPv.s</text>
</a>
</g>
</g>
<!-- Node1&#45;&gt;Node13 -->
<g id="edge13" class="edge">
<title>Node1&#45;&gt;Node13</title>
<path fill="none" stroke="midnightblue" d="M1217.29,-125.08C1288.7,-117.32 1406.32,-103.77 1517.79,-87.05"/>
<polygon fill="midnightblue" stroke="midnightblue" points="1518.5,-90.48 1527.87,-85.53 1517.46,-83.56 1518.5,-90.48"/>
</g>
<!-- Node14 -->
<g id="node14" class="node">
<title>Node14</title>
<g id="a_node14"><a xlink:title=" ">
<polygon fill="white" stroke="#bfbfbf" points="1687,-56.5 1687,-86.5 1806,-86.5 1806,-56.5 1687,-56.5"/>
<text text-anchor="start" x="1695" y="-74.5" font-family="Helvetica,sans-Serif" font-size="10.00">asm/m_Do/m_Do_main</text>
<text text-anchor="middle" x="1746.5" y="-63.5" font-family="Helvetica,sans-Serif" font-size="10.00">/debug__Fv.s</text>
</a>
</g>
</g>
<!-- Node1&#45;&gt;Node14 -->
<g id="edge14" class="edge">
<title>Node1&#45;&gt;Node14</title>
<path fill="none" stroke="midnightblue" d="M1217.12,-129.03C1315.21,-124.02 1505.98,-112.02 1676.94,-87.12"/>
<polygon fill="midnightblue" stroke="midnightblue" points="1677.49,-90.58 1686.87,-85.65 1676.47,-83.65 1677.49,-90.58"/>
</g>
<!-- Node15 -->
<g id="node15" class="node">
<title>Node15</title>
<g id="a_node15"><a xlink:title=" ">
<polygon fill="white" stroke="#bfbfbf" points="1824,-56.5 1824,-86.5 1943,-86.5 1943,-56.5 1824,-56.5"/>
<text text-anchor="start" x="1832" y="-74.5" font-family="Helvetica,sans-Serif" font-size="10.00">asm/m_Do/m_Do_main</text>
<text text-anchor="middle" x="1883.5" y="-63.5" font-family="Helvetica,sans-Serif" font-size="10.00">/main01__Fv.s</text>
</a>
</g>
</g>
<!-- Node1&#45;&gt;Node15 -->
<g id="edge15" class="edge">
<title>Node1&#45;&gt;Node15</title>
<path fill="none" stroke="midnightblue" d="M1217.32,-130.64C1335.2,-127.53 1590.19,-117.72 1813.92,-87.09"/>
<polygon fill="midnightblue" stroke="midnightblue" points="1814.46,-90.55 1823.88,-85.71 1813.5,-83.62 1814.46,-90.55"/>
</g>
<!-- Node16 -->
<g id="node16" class="node">
<title>Node16</title>
<g id="a_node16"><a xlink:title=" ">
<polygon fill="white" stroke="#bfbfbf" points="1961,-56.5 1961,-86.5 2080,-86.5 2080,-56.5 1961,-56.5"/>
<text text-anchor="start" x="1969" y="-74.5" font-family="Helvetica,sans-Serif" font-size="10.00">asm/m_Do/m_Do_main</text>
<text text-anchor="middle" x="2020.5" y="-63.5" font-family="Helvetica,sans-Serif" font-size="10.00">/main.s</text>
</a>
</g>
</g>
<!-- Node1&#45;&gt;Node16 -->
<g id="edge16" class="edge">
<title>Node1&#45;&gt;Node16</title>
<path fill="none" stroke="midnightblue" d="M1217.23,-131.72C1352.8,-130.41 1673.28,-123.49 1950.62,-87.12"/>
<polygon fill="midnightblue" stroke="midnightblue" points="1951.43,-90.54 1960.89,-85.75 1950.51,-83.6 1951.43,-90.54"/>
</g>
<!-- Node17 -->
<g id="node17" class="node">
<title>Node17</title>
<g id="a_node17"><a xlink:title=" ">
<polygon fill="white" stroke="#bfbfbf" points="2098.5,-56.5 2098.5,-86.5 2240.5,-86.5 2240.5,-56.5 2098.5,-56.5"/>
<text text-anchor="start" x="2106.5" y="-74.5" font-family="Helvetica,sans-Serif" font-size="10.00">asm/m_Do/m_Do_main</text>
<text text-anchor="middle" x="2169.5" y="-63.5" font-family="Helvetica,sans-Serif" font-size="10.00">/dump_sort__7JKRHeapFv.s</text>
</a>
</g>
</g>
<!-- Node1&#45;&gt;Node17 -->
<g id="edge17" class="edge">
<title>Node1&#45;&gt;Node17</title>
<path fill="none" stroke="midnightblue" d="M1217.13,-131.81C1368.8,-130.73 1755.47,-124.33 2088.15,-87.04"/>
<polygon fill="midnightblue" stroke="midnightblue" points="2088.93,-90.48 2098.47,-85.87 2088.14,-83.52 2088.93,-90.48"/>
</g>
<!-- Node18 -->
<g id="node18" class="node">
<title>Node18</title>
<g id="a_node18"><a xlink:title=" ">
<polygon fill="white" stroke="#bfbfbf" points="2258.5,-56.5 2258.5,-86.5 2392.5,-86.5 2392.5,-56.5 2258.5,-56.5"/>
<text text-anchor="start" x="2266.5" y="-74.5" font-family="Helvetica,sans-Serif" font-size="10.00">asm/m_Do/m_Do_main</text>
<text text-anchor="middle" x="2325.5" y="-63.5" font-family="Helvetica,sans-Serif" font-size="10.00">/__sinit_m_Do_main_cpp.s</text>
</a>
</g>
</g>
<!-- Node1&#45;&gt;Node18 -->
<g id="edge18" class="edge">
<title>Node1&#45;&gt;Node18</title>
<path fill="none" stroke="midnightblue" d="M1217.04,-132.68C1386.31,-133.7 1851.96,-131.94 2248.5,-86.99"/>
<polygon fill="midnightblue" stroke="midnightblue" points="2248.91,-90.46 2258.45,-85.85 2248.11,-83.51 2248.91,-90.46"/>
</g>
<!-- Node4&#45;&gt;Node3 -->
<g id="edge4" class="edge">
<title>Node4&#45;&gt;Node3</title>
<path fill="none" stroke="midnightblue" d="M163.77,-61.98C157.83,-53.14 148.38,-39.09 140.91,-27.98"/>
<polygon fill="midnightblue" stroke="midnightblue" points="143.7,-25.86 135.22,-19.51 137.89,-29.76 143.7,-25.86"/>
</g>
</g>
</svg>
