<?xml version="1.0" encoding="UTF-8" standalone="no"?>
<!DOCTYPE svg PUBLIC "-//W3C//DTD SVG 1.1//EN"
 "http://www.w3.org/Graphics/SVG/1.1/DTD/svg11.dtd">
<!-- Generated by graphviz version 2.47.0 (20210316.2052)
 -->
<!-- Title: libs/TRK_MINNOW_DOLPHIN/MetroTRK/Portable/main_TRK.cpp Pages: 1 -->
<svg width="459pt" height="184pt"
 viewBox="0.00 0.00 458.50 184.00" xmlns="http://www.w3.org/2000/svg" xmlns:xlink="http://www.w3.org/1999/xlink">
<g id="graph0" class="graph" transform="scale(1 1) rotate(0) translate(4 180)">
<title>libs/TRK_MINNOW_DOLPHIN/MetroTRK/Portable/main_TRK.cpp</title>
<polygon fill="white" stroke="transparent" points="-4,4 -4,-180 454.5,-180 454.5,4 -4,4"/>
<!-- Node1 -->
<g id="node1" class="node">
<title>Node1</title>
<g id="a_node1"><a xlink:title=" ">
<polygon fill="#bfbfbf" stroke="black" points="66.5,-134.5 66.5,-175.5 218.5,-175.5 218.5,-134.5 66.5,-134.5"/>
<text text-anchor="start" x="74.5" y="-163.5" font-family="Helvetica,sans-Serif" font-size="10.00">libs/TRK_MINNOW_DOLPHIN</text>
<text text-anchor="start" x="74.5" y="-152.5" font-family="Helvetica,sans-Serif" font-size="10.00">/MetroTRK/Portable/main</text>
<text text-anchor="middle" x="142.5" y="-141.5" font-family="Helvetica,sans-Serif" font-size="10.00">_TRK.cpp</text>
</a>
</g>
</g>
<!-- Node2 -->
<g id="node2" class="node">
<title>Node2</title>
<g id="a_node2"><a xlink:href="dol2asm_8h.html" target="_top" xlink:title=" ">
<polygon fill="white" stroke="black" points="0,-67.5 0,-86.5 61,-86.5 61,-67.5 0,-67.5"/>
<text text-anchor="middle" x="30.5" y="-74.5" font-family="Helvetica,sans-Serif" font-size="10.00">dol2asm.h</text>
</a>
</g>
</g>
<!-- Node1&#45;&gt;Node2 -->
<g id="edge1" class="edge">
<title>Node1&#45;&gt;Node2</title>
<path fill="none" stroke="midnightblue" d="M113.66,-134.43C94.23,-121.24 69.05,-104.16 51.51,-92.26"/>
<polygon fill="midnightblue" stroke="midnightblue" points="53.34,-89.27 43.1,-86.55 49.41,-95.06 53.34,-89.27"/>
</g>
<!-- Node3 -->
<g id="node3" class="node">
<title>Node3</title>
<g id="a_node3"><a xlink:href="types_8h.html" target="_top" xlink:title=" ">
<polygon fill="white" stroke="black" points="102,-0.5 102,-19.5 183,-19.5 183,-0.5 102,-0.5"/>
<text text-anchor="middle" x="142.5" y="-7.5" font-family="Helvetica,sans-Serif" font-size="10.00">dolphin/types.h</text>
</a>
</g>
</g>
<!-- Node1&#45;&gt;Node3 -->
<g id="edge2" class="edge">
<title>Node1&#45;&gt;Node3</title>
<path fill="none" stroke="midnightblue" d="M126.84,-134.25C119.75,-124.05 112.15,-111.03 108.5,-98 103.47,-80.02 102.57,-73.7 108.5,-56 112.1,-45.25 119.4,-35.02 126.32,-27.04"/>
<polygon fill="midnightblue" stroke="midnightblue" points="128.98,-29.32 133.21,-19.61 123.85,-24.56 128.98,-29.32"/>
</g>
<!-- Node4 -->
<g id="node4" class="node">
<title>Node4</title>
<g id="a_node4"><a xlink:href="main__TRK_8h.html" target="_top" xlink:title=" ">
<polygon fill="white" stroke="black" points="117,-62 117,-92 276,-92 276,-62 117,-62"/>
<text text-anchor="start" x="125" y="-80" font-family="Helvetica,sans-Serif" font-size="10.00">TRK_MINNOW_DOLPHIN</text>
<text text-anchor="middle" x="196.5" y="-69" font-family="Helvetica,sans-Serif" font-size="10.00">/MetroTRK/Portable/main_TRK.h</text>
</a>
</g>
</g>
<!-- Node1&#45;&gt;Node4 -->
<g id="edge3" class="edge">
<title>Node1&#45;&gt;Node4</title>
<path fill="none" stroke="midnightblue" d="M156.41,-134.43C163.73,-124.12 172.75,-111.42 180.38,-100.69"/>
<polygon fill="midnightblue" stroke="midnightblue" points="183.45,-102.4 186.39,-92.23 177.75,-98.35 183.45,-102.4"/>
</g>
<!-- Node5 -->
<g id="node5" class="node">
<title>Node5</title>
<g id="a_node5"><a xlink:title=" ">
<polygon fill="white" stroke="#bfbfbf" points="294.5,-56.5 294.5,-97.5 450.5,-97.5 450.5,-56.5 294.5,-56.5"/>
<text text-anchor="start" x="302.5" y="-85.5" font-family="Helvetica,sans-Serif" font-size="10.00">asm/TRK_MINNOW_DOLPHIN</text>
<text text-anchor="start" x="302.5" y="-74.5" font-family="Helvetica,sans-Serif" font-size="10.00">/MetroTRK/Portable/main</text>
<text text-anchor="middle" x="372.5" y="-63.5" font-family="Helvetica,sans-Serif" font-size="10.00">_TRK/TRK_main.s</text>
</a>
</g>
</g>
<!-- Node1&#45;&gt;Node5 -->
<g id="edge5" class="edge">
<title>Node1&#45;&gt;Node5</title>
<path fill="none" stroke="midnightblue" d="M201.73,-134.43C232.85,-124.14 271.16,-111.49 303.6,-100.77"/>
<polygon fill="midnightblue" stroke="midnightblue" points="305.07,-103.97 313.47,-97.51 302.88,-97.32 305.07,-103.97"/>
</g>
<!-- Node4&#45;&gt;Node3 -->
<g id="edge4" class="edge">
<title>Node4&#45;&gt;Node3</title>
<path fill="none" stroke="midnightblue" d="M184.78,-61.9C176.36,-51.76 164.99,-38.07 156.16,-27.44"/>
<polygon fill="midnightblue" stroke="midnightblue" points="158.81,-25.15 149.72,-19.69 153.42,-29.62 158.81,-25.15"/>
</g>
</g>
</svg>
