<?xml version="1.0" encoding="UTF-8" standalone="no"?>
<!DOCTYPE svg PUBLIC "-//W3C//DTD SVG 1.1//EN"
 "http://www.w3.org/Graphics/SVG/1.1/DTD/svg11.dtd">
<!-- Generated by graphviz version 2.47.0 (20210316.2052)
 -->
<!-- Title: libs/MSL_C.PPCEABI.bare.H/MSL_Common/Src/mbstring.cpp Pages: 1 -->
<svg width="442pt" height="173pt"
 viewBox="0.00 0.00 442.00 173.00" xmlns="http://www.w3.org/2000/svg" xmlns:xlink="http://www.w3.org/1999/xlink">
<g id="graph0" class="graph" transform="scale(1 1) rotate(0) translate(4 169)">
<title>libs/MSL_C.PPCEABI.bare.H/MSL_Common/Src/mbstring.cpp</title>
<polygon fill="white" stroke="transparent" points="-4,4 -4,-169 438,-169 438,4 -4,4"/>
<!-- Node1 -->
<g id="node1" class="node">
<title>Node1</title>
<g id="a_node1"><a xlink:title=" ">
<polygon fill="#bfbfbf" stroke="black" points="57,-134.5 57,-164.5 226,-164.5 226,-134.5 57,-134.5"/>
<text text-anchor="start" x="65" y="-152.5" font-family="Helvetica,sans-Serif" font-size="10.00">libs/MSL_C.PPCEABI.bare.</text>
<text text-anchor="middle" x="141.5" y="-141.5" font-family="Helvetica,sans-Serif" font-size="10.00">H/MSL_Common/Src/mbstring.cpp</text>
</a>
</g>
</g>
<!-- Node2 -->
<g id="node2" class="node">
<title>Node2</title>
<g id="a_node2"><a xlink:href="dol2asm_8h.html" target="_top" xlink:title=" ">
<polygon fill="white" stroke="black" points="0,-67.5 0,-86.5 61,-86.5 61,-67.5 0,-67.5"/>
<text text-anchor="middle" x="30.5" y="-74.5" font-family="Helvetica,sans-Serif" font-size="10.00">dol2asm.h</text>
</a>
</g>
</g>
<!-- Node1&#45;&gt;Node2 -->
<g id="edge1" class="edge">
<title>Node1&#45;&gt;Node2</title>
<path fill="none" stroke="midnightblue" d="M119.3,-134.4C99.86,-122.05 71.76,-104.21 52.41,-91.91"/>
<polygon fill="midnightblue" stroke="midnightblue" points="54.25,-88.94 43.94,-86.53 50.5,-94.85 54.25,-88.94"/>
</g>
<!-- Node3 -->
<g id="node3" class="node">
<title>Node3</title>
<g id="a_node3"><a xlink:href="types_8h.html" target="_top" xlink:title=" ">
<polygon fill="white" stroke="black" points="101,-0.5 101,-19.5 182,-19.5 182,-0.5 101,-0.5"/>
<text text-anchor="middle" x="141.5" y="-7.5" font-family="Helvetica,sans-Serif" font-size="10.00">dolphin/types.h</text>
</a>
</g>
</g>
<!-- Node1&#45;&gt;Node3 -->
<g id="edge2" class="edge">
<title>Node1&#45;&gt;Node3</title>
<path fill="none" stroke="midnightblue" d="M129.26,-134.12C121.96,-124.57 113.38,-111.36 109.5,-98 104.3,-80.07 103.82,-73.78 109.5,-56 112.84,-45.54 119.6,-35.43 126.05,-27.45"/>
<polygon fill="midnightblue" stroke="midnightblue" points="128.85,-29.56 132.75,-19.71 123.56,-24.98 128.85,-29.56"/>
</g>
<!-- Node4 -->
<g id="node4" class="node">
<title>Node4</title>
<g id="a_node4"><a xlink:href="mbstring_8h.html" target="_top" xlink:title=" ">
<polygon fill="white" stroke="black" points="118,-62 118,-92 269,-92 269,-62 118,-62"/>
<text text-anchor="start" x="126" y="-80" font-family="Helvetica,sans-Serif" font-size="10.00">MSL_C.PPCEABI.bare.H</text>
<text text-anchor="middle" x="193.5" y="-69" font-family="Helvetica,sans-Serif" font-size="10.00">/MSL_Common/Src/mbstring.h</text>
</a>
</g>
</g>
<!-- Node1&#45;&gt;Node4 -->
<g id="edge3" class="edge">
<title>Node1&#45;&gt;Node4</title>
<path fill="none" stroke="midnightblue" d="M152.02,-134.23C159.14,-124.58 168.69,-111.63 176.84,-100.59"/>
<polygon fill="midnightblue" stroke="midnightblue" points="179.87,-102.37 182.99,-92.25 174.24,-98.22 179.87,-102.37"/>
</g>
<!-- Node5 -->
<g id="node5" class="node">
<title>Node5</title>
<g id="a_node5"><a xlink:title=" ">
<polygon fill="white" stroke="#bfbfbf" points="287,-56.5 287,-97.5 434,-97.5 434,-56.5 287,-56.5"/>
<text text-anchor="start" x="295" y="-85.5" font-family="Helvetica,sans-Serif" font-size="10.00">asm/MSL_C.PPCEABI.bare.H</text>
<text text-anchor="start" x="295" y="-74.5" font-family="Helvetica,sans-Serif" font-size="10.00">/MSL_Common/Src/mbstring</text>
<text text-anchor="middle" x="360.5" y="-63.5" font-family="Helvetica,sans-Serif" font-size="10.00">/wcstombs.s</text>
</a>
</g>
</g>
<!-- Node1&#45;&gt;Node5 -->
<g id="edge5" class="edge">
<title>Node1&#45;&gt;Node5</title>
<path fill="none" stroke="midnightblue" d="M185.03,-134.49C215.02,-124.83 255.53,-111.79 290.07,-100.67"/>
<polygon fill="midnightblue" stroke="midnightblue" points="291.19,-103.99 299.64,-97.59 289.05,-97.32 291.19,-103.99"/>
</g>
<!-- Node4&#45;&gt;Node3 -->
<g id="edge4" class="edge">
<title>Node4&#45;&gt;Node3</title>
<path fill="none" stroke="midnightblue" d="M182.22,-61.9C174.19,-51.86 163.37,-38.34 154.9,-27.75"/>
<polygon fill="midnightblue" stroke="midnightblue" points="157.44,-25.32 148.46,-19.69 151.97,-29.69 157.44,-25.32"/>
</g>
</g>
</svg>
