<?xml version="1.0" encoding="UTF-8" standalone="no"?>
<!DOCTYPE svg PUBLIC "-//W3C//DTD SVG 1.1//EN"
 "http://www.w3.org/Graphics/SVG/1.1/DTD/svg11.dtd">
<!-- Generated by graphviz version 2.47.0 (20210316.2052)
 -->
<!-- Title: libs/TRK_MINNOW_DOLPHIN/MetroTRK/Portable/mem_TRK.cpp Pages: 1 -->
<svg width="460pt" height="184pt"
 viewBox="0.00 0.00 459.50 184.00" xmlns="http://www.w3.org/2000/svg" xmlns:xlink="http://www.w3.org/1999/xlink">
<g id="graph0" class="graph" transform="scale(1 1) rotate(0) translate(4 180)">
<title>libs/TRK_MINNOW_DOLPHIN/MetroTRK/Portable/mem_TRK.cpp</title>
<polygon fill="white" stroke="transparent" points="-4,4 -4,-180 455.5,-180 455.5,4 -4,4"/>
<!-- Node1 -->
<g id="node1" class="node">
<title>Node1</title>
<g id="a_node1"><a xlink:title=" ">
<polygon fill="#bfbfbf" stroke="black" points="67.5,-134.5 67.5,-175.5 219.5,-175.5 219.5,-134.5 67.5,-134.5"/>
<text text-anchor="start" x="75.5" y="-163.5" font-family="Helvetica,sans-Serif" font-size="10.00">libs/TRK_MINNOW_DOLPHIN</text>
<text text-anchor="start" x="75.5" y="-152.5" font-family="Helvetica,sans-Serif" font-size="10.00">/MetroTRK/Portable/mem</text>
<text text-anchor="middle" x="143.5" y="-141.5" font-family="Helvetica,sans-Serif" font-size="10.00">_TRK.cpp</text>
</a>
</g>
</g>
<!-- Node2 -->
<g id="node2" class="node">
<title>Node2</title>
<g id="a_node2"><a xlink:href="dol2asm_8h.html" target="_top" xlink:title=" ">
<polygon fill="white" stroke="black" points="0,-67.5 0,-86.5 61,-86.5 61,-67.5 0,-67.5"/>
<text text-anchor="middle" x="30.5" y="-74.5" font-family="Helvetica,sans-Serif" font-size="10.00">dol2asm.h</text>
</a>
</g>
</g>
<!-- Node1&#45;&gt;Node2 -->
<g id="edge1" class="edge">
<title>Node1&#45;&gt;Node2</title>
<path fill="none" stroke="midnightblue" d="M114.4,-134.43C94.8,-121.24 69.39,-104.16 51.7,-92.26"/>
<polygon fill="midnightblue" stroke="midnightblue" points="53.47,-89.23 43.22,-86.55 49.56,-95.04 53.47,-89.23"/>
</g>
<!-- Node3 -->
<g id="node3" class="node">
<title>Node3</title>
<g id="a_node3"><a xlink:href="types_8h.html" target="_top" xlink:title=" ">
<polygon fill="white" stroke="black" points="103,-0.5 103,-19.5 184,-19.5 184,-0.5 103,-0.5"/>
<text text-anchor="middle" x="143.5" y="-7.5" font-family="Helvetica,sans-Serif" font-size="10.00">dolphin/types.h</text>
</a>
</g>
</g>
<!-- Node1&#45;&gt;Node3 -->
<g id="edge2" class="edge">
<title>Node1&#45;&gt;Node3</title>
<path fill="none" stroke="midnightblue" d="M127.39,-134.32C120.09,-124.14 112.26,-111.11 108.5,-98 103.35,-80.06 102.44,-73.66 108.5,-56 112.22,-45.16 119.73,-34.92 126.85,-26.96"/>
<polygon fill="midnightblue" stroke="midnightblue" points="129.55,-29.19 133.94,-19.55 124.5,-24.35 129.55,-29.19"/>
</g>
<!-- Node4 -->
<g id="node4" class="node">
<title>Node4</title>
<g id="a_node4"><a xlink:href="mem__TRK_8h.html" target="_top" xlink:title=" ">
<polygon fill="white" stroke="black" points="117.5,-62 117.5,-92 277.5,-92 277.5,-62 117.5,-62"/>
<text text-anchor="start" x="125.5" y="-80" font-family="Helvetica,sans-Serif" font-size="10.00">TRK_MINNOW_DOLPHIN</text>
<text text-anchor="middle" x="197.5" y="-69" font-family="Helvetica,sans-Serif" font-size="10.00">/MetroTRK/Portable/mem_TRK.h</text>
</a>
</g>
</g>
<!-- Node1&#45;&gt;Node4 -->
<g id="edge3" class="edge">
<title>Node1&#45;&gt;Node4</title>
<path fill="none" stroke="midnightblue" d="M157.41,-134.43C164.73,-124.12 173.75,-111.42 181.38,-100.69"/>
<polygon fill="midnightblue" stroke="midnightblue" points="184.45,-102.4 187.39,-92.23 178.75,-98.35 184.45,-102.4"/>
</g>
<!-- Node5 -->
<g id="node5" class="node">
<title>Node5</title>
<g id="a_node5"><a xlink:title=" ">
<polygon fill="white" stroke="#bfbfbf" points="295.5,-56.5 295.5,-97.5 451.5,-97.5 451.5,-56.5 295.5,-56.5"/>
<text text-anchor="start" x="303.5" y="-85.5" font-family="Helvetica,sans-Serif" font-size="10.00">asm/TRK_MINNOW_DOLPHIN</text>
<text text-anchor="start" x="303.5" y="-74.5" font-family="Helvetica,sans-Serif" font-size="10.00">/MetroTRK/Portable/mem</text>
<text text-anchor="middle" x="373.5" y="-63.5" font-family="Helvetica,sans-Serif" font-size="10.00">_TRK/TRK_fill_mem.s</text>
</a>
</g>
</g>
<!-- Node1&#45;&gt;Node5 -->
<g id="edge5" class="edge">
<title>Node1&#45;&gt;Node5</title>
<path fill="none" stroke="midnightblue" d="M202.73,-134.43C233.85,-124.14 272.16,-111.49 304.6,-100.77"/>
<polygon fill="midnightblue" stroke="midnightblue" points="306.07,-103.97 314.47,-97.51 303.88,-97.32 306.07,-103.97"/>
</g>
<!-- Node4&#45;&gt;Node3 -->
<g id="edge4" class="edge">
<title>Node4&#45;&gt;Node3</title>
<path fill="none" stroke="midnightblue" d="M185.78,-61.9C177.36,-51.76 165.99,-38.07 157.16,-27.44"/>
<polygon fill="midnightblue" stroke="midnightblue" points="159.81,-25.15 150.72,-19.69 154.42,-29.62 159.81,-25.15"/>
</g>
</g>
</svg>
