<?xml version="1.0" encoding="UTF-8" standalone="no"?>
<!DOCTYPE svg PUBLIC "-//W3C//DTD SVG 1.1//EN"
 "http://www.w3.org/Graphics/SVG/1.1/DTD/svg11.dtd">
<!-- Generated by graphviz version 2.47.0 (20210316.2052)
 -->
<!-- Title: libs/MSL_C.PPCEABI.bare.H/MSL_Common/Src/misc_io.cpp Pages: 1 -->
<svg width="438pt" height="184pt"
 viewBox="0.00 0.00 438.00 184.00" xmlns="http://www.w3.org/2000/svg" xmlns:xlink="http://www.w3.org/1999/xlink">
<g id="graph0" class="graph" transform="scale(1 1) rotate(0) translate(4 180)">
<title>libs/MSL_C.PPCEABI.bare.H/MSL_Common/Src/misc_io.cpp</title>
<polygon fill="white" stroke="transparent" points="-4,4 -4,-180 434,-180 434,4 -4,4"/>
<!-- Node1 -->
<g id="node1" class="node">
<title>Node1</title>
<g id="a_node1"><a xlink:title=" ">
<polygon fill="#bfbfbf" stroke="black" points="72.5,-134.5 72.5,-175.5 208.5,-175.5 208.5,-134.5 72.5,-134.5"/>
<text text-anchor="start" x="80.5" y="-163.5" font-family="Helvetica,sans-Serif" font-size="10.00">libs/MSL_C.PPCEABI.bare.</text>
<text text-anchor="start" x="80.5" y="-152.5" font-family="Helvetica,sans-Serif" font-size="10.00">H/MSL_Common/Src/misc</text>
<text text-anchor="middle" x="140.5" y="-141.5" font-family="Helvetica,sans-Serif" font-size="10.00">_io.cpp</text>
</a>
</g>
</g>
<!-- Node2 -->
<g id="node2" class="node">
<title>Node2</title>
<g id="a_node2"><a xlink:href="dol2asm_8h.html" target="_top" xlink:title=" ">
<polygon fill="white" stroke="black" points="0,-67.5 0,-86.5 61,-86.5 61,-67.5 0,-67.5"/>
<text text-anchor="middle" x="30.5" y="-74.5" font-family="Helvetica,sans-Serif" font-size="10.00">dol2asm.h</text>
</a>
</g>
</g>
<!-- Node1&#45;&gt;Node2 -->
<g id="edge1" class="edge">
<title>Node1&#45;&gt;Node2</title>
<path fill="none" stroke="midnightblue" d="M112.17,-134.43C93.09,-121.24 68.36,-104.16 51.13,-92.26"/>
<polygon fill="midnightblue" stroke="midnightblue" points="53.09,-89.36 42.88,-86.55 49.12,-95.12 53.09,-89.36"/>
</g>
<!-- Node3 -->
<g id="node3" class="node">
<title>Node3</title>
<g id="a_node3"><a xlink:href="types_8h.html" target="_top" xlink:title=" ">
<polygon fill="white" stroke="black" points="100,-0.5 100,-19.5 181,-19.5 181,-0.5 100,-0.5"/>
<text text-anchor="middle" x="140.5" y="-7.5" font-family="Helvetica,sans-Serif" font-size="10.00">dolphin/types.h</text>
</a>
</g>
</g>
<!-- Node1&#45;&gt;Node3 -->
<g id="edge2" class="edge">
<title>Node1&#45;&gt;Node3</title>
<path fill="none" stroke="midnightblue" d="M126.37,-134.31C119.86,-124.02 112.84,-110.91 109.5,-98 104.83,-79.93 103.95,-73.82 109.5,-56 112.73,-45.62 119.28,-35.52 125.52,-27.53"/>
<polygon fill="midnightblue" stroke="midnightblue" points="128.29,-29.68 132.02,-19.77 122.92,-25.19 128.29,-29.68"/>
</g>
<!-- Node4 -->
<g id="node4" class="node">
<title>Node4</title>
<g id="a_node4"><a xlink:href="misc__io_8h.html" target="_top" xlink:title=" ">
<polygon fill="white" stroke="black" points="118,-62 118,-92 265,-92 265,-62 118,-62"/>
<text text-anchor="start" x="126" y="-80" font-family="Helvetica,sans-Serif" font-size="10.00">MSL_C.PPCEABI.bare.H</text>
<text text-anchor="middle" x="191.5" y="-69" font-family="Helvetica,sans-Serif" font-size="10.00">/MSL_Common/Src/misc_io.h</text>
</a>
</g>
</g>
<!-- Node1&#45;&gt;Node4 -->
<g id="edge3" class="edge">
<title>Node1&#45;&gt;Node4</title>
<path fill="none" stroke="midnightblue" d="M153.63,-134.43C160.55,-124.12 169.07,-111.42 176.28,-100.69"/>
<polygon fill="midnightblue" stroke="midnightblue" points="179.29,-102.48 181.95,-92.23 173.48,-98.58 179.29,-102.48"/>
</g>
<!-- Node5 -->
<g id="node5" class="node">
<title>Node5</title>
<g id="a_node5"><a xlink:title=" ">
<polygon fill="white" stroke="#bfbfbf" points="283,-56.5 283,-97.5 430,-97.5 430,-56.5 283,-56.5"/>
<text text-anchor="start" x="291" y="-85.5" font-family="Helvetica,sans-Serif" font-size="10.00">asm/MSL_C.PPCEABI.bare.H</text>
<text text-anchor="start" x="291" y="-74.5" font-family="Helvetica,sans-Serif" font-size="10.00">/MSL_Common/Src/misc_io</text>
<text text-anchor="middle" x="356.5" y="-63.5" font-family="Helvetica,sans-Serif" font-size="10.00">/__stdio_atexit.s</text>
</a>
</g>
</g>
<!-- Node1&#45;&gt;Node5 -->
<g id="edge5" class="edge">
<title>Node1&#45;&gt;Node5</title>
<path fill="none" stroke="midnightblue" d="M196.13,-134.43C225.23,-124.19 261.02,-111.59 291.4,-100.9"/>
<polygon fill="midnightblue" stroke="midnightblue" points="292.79,-104.13 301.06,-97.51 290.47,-97.52 292.79,-104.13"/>
</g>
<!-- Node4&#45;&gt;Node3 -->
<g id="edge4" class="edge">
<title>Node4&#45;&gt;Node3</title>
<path fill="none" stroke="midnightblue" d="M180.43,-61.9C172.56,-51.86 161.95,-38.34 153.65,-27.75"/>
<polygon fill="midnightblue" stroke="midnightblue" points="156.25,-25.4 147.32,-19.69 150.74,-29.72 156.25,-25.4"/>
</g>
</g>
</svg>
