<?xml version="1.0" encoding="UTF-8" standalone="no"?>
<!DOCTYPE svg PUBLIC "-//W3C//DTD SVG 1.1//EN"
 "http://www.w3.org/Graphics/SVG/1.1/DTD/svg11.dtd">
<!-- Generated by graphviz version 2.47.0 (20210316.2052)
 -->
<!-- Title: libs/TRK_MINNOW_DOLPHIN/MetroTRK/Portable/msghndlr.cpp Pages: 1 -->
<svg width="2890pt" height="173pt"
 viewBox="0.00 0.00 2889.50 173.00" xmlns="http://www.w3.org/2000/svg" xmlns:xlink="http://www.w3.org/1999/xlink">
<g id="graph0" class="graph" transform="scale(1 1) rotate(0) translate(4 169)">
<title>libs/TRK_MINNOW_DOLPHIN/MetroTRK/Portable/msghndlr.cpp</title>
<polygon fill="white" stroke="transparent" points="-4,4 -4,-169 2885.5,-169 2885.5,4 -4,4"/>
<!-- Node1 -->
<g id="node1" class="node">
<title>Node1</title>
<g id="a_node1"><a xlink:title=" ">
<polygon fill="#bfbfbf" stroke="black" points="1242.5,-134.5 1242.5,-164.5 1406.5,-164.5 1406.5,-134.5 1242.5,-134.5"/>
<text text-anchor="start" x="1250.5" y="-152.5" font-family="Helvetica,sans-Serif" font-size="10.00">libs/TRK_MINNOW_DOLPHIN</text>
<text text-anchor="middle" x="1324.5" y="-141.5" font-family="Helvetica,sans-Serif" font-size="10.00">/MetroTRK/Portable/msghndlr.cpp</text>
</a>
</g>
</g>
<!-- Node2 -->
<g id="node2" class="node">
<title>Node2</title>
<g id="a_node2"><a xlink:href="dol2asm_8h.html" target="_top" xlink:title=" ">
<polygon fill="white" stroke="black" points="0,-67.5 0,-86.5 61,-86.5 61,-67.5 0,-67.5"/>
<text text-anchor="middle" x="30.5" y="-74.5" font-family="Helvetica,sans-Serif" font-size="10.00">dol2asm.h</text>
</a>
</g>
</g>
<!-- Node1&#45;&gt;Node2 -->
<g id="edge1" class="edge">
<title>Node1&#45;&gt;Node2</title>
<path fill="none" stroke="midnightblue" d="M1242.44,-146.97C982.6,-141.89 188.37,-124.35 75.5,-98 68.73,-96.42 61.71,-93.82 55.29,-91.01"/>
<polygon fill="midnightblue" stroke="midnightblue" points="56.36,-87.65 45.82,-86.55 53.37,-93.98 56.36,-87.65"/>
</g>
<!-- Node3 -->
<g id="node3" class="node">
<title>Node3</title>
<g id="a_node3"><a xlink:href="types_8h.html" target="_top" xlink:title=" ">
<polygon fill="white" stroke="black" points="101,-0.5 101,-19.5 182,-19.5 182,-0.5 101,-0.5"/>
<text text-anchor="middle" x="141.5" y="-7.5" font-family="Helvetica,sans-Serif" font-size="10.00">dolphin/types.h</text>
</a>
</g>
</g>
<!-- Node1&#45;&gt;Node3 -->
<g id="edge2" class="edge">
<title>Node1&#45;&gt;Node3</title>
<path fill="none" stroke="midnightblue" d="M1242.15,-148.17C975.21,-146.7 148.69,-138.85 109.5,-98 90.58,-78.27 110.85,-46.42 126.64,-27.22"/>
<polygon fill="midnightblue" stroke="midnightblue" points="129.33,-29.46 133.21,-19.61 124.03,-24.89 129.33,-29.46"/>
</g>
<!-- Node4 -->
<g id="node4" class="node">
<title>Node4</title>
<g id="a_node4"><a xlink:href="msghndlr_8h.html" target="_top" xlink:title=" ">
<polygon fill="white" stroke="black" points="118,-62 118,-92 271,-92 271,-62 118,-62"/>
<text text-anchor="start" x="126" y="-80" font-family="Helvetica,sans-Serif" font-size="10.00">TRK_MINNOW_DOLPHIN</text>
<text text-anchor="middle" x="194.5" y="-69" font-family="Helvetica,sans-Serif" font-size="10.00">/MetroTRK/Portable/msghndlr.h</text>
</a>
</g>
</g>
<!-- Node1&#45;&gt;Node4 -->
<g id="edge3" class="edge">
<title>Node1&#45;&gt;Node4</title>
<path fill="none" stroke="midnightblue" d="M1242.15,-146.43C1029.51,-140.79 465.73,-123.8 280.5,-98 273.22,-96.99 265.64,-95.65 258.14,-94.15"/>
<polygon fill="midnightblue" stroke="midnightblue" points="258.86,-90.72 248.36,-92.09 257.42,-97.57 258.86,-90.72"/>
</g>
<!-- Node5 -->
<g id="node5" class="node">
<title>Node5</title>
<g id="a_node5"><a xlink:title=" ">
<polygon fill="white" stroke="#bfbfbf" points="289.5,-56.5 289.5,-97.5 445.5,-97.5 445.5,-56.5 289.5,-56.5"/>
<text text-anchor="start" x="297.5" y="-85.5" font-family="Helvetica,sans-Serif" font-size="10.00">asm/TRK_MINNOW_DOLPHIN</text>
<text text-anchor="start" x="297.5" y="-74.5" font-family="Helvetica,sans-Serif" font-size="10.00">/MetroTRK/Portable/msghndlr</text>
<text text-anchor="middle" x="367.5" y="-63.5" font-family="Helvetica,sans-Serif" font-size="10.00">/TRKDoSetOption.s</text>
</a>
</g>
</g>
<!-- Node1&#45;&gt;Node5 -->
<g id="edge5" class="edge">
<title>Node1&#45;&gt;Node5</title>
<path fill="none" stroke="midnightblue" d="M1242.48,-148.32C1089.4,-146.97 749.8,-139.28 455.64,-98.03"/>
<polygon fill="midnightblue" stroke="midnightblue" points="456.03,-94.55 445.64,-96.61 455.05,-101.48 456.03,-94.55"/>
</g>
<!-- Node6 -->
<g id="node6" class="node">
<title>Node6</title>
<g id="a_node6"><a xlink:title=" ">
<polygon fill="white" stroke="#bfbfbf" points="463.5,-56.5 463.5,-97.5 619.5,-97.5 619.5,-56.5 463.5,-56.5"/>
<text text-anchor="start" x="471.5" y="-85.5" font-family="Helvetica,sans-Serif" font-size="10.00">asm/TRK_MINNOW_DOLPHIN</text>
<text text-anchor="start" x="471.5" y="-74.5" font-family="Helvetica,sans-Serif" font-size="10.00">/MetroTRK/Portable/msghndlr</text>
<text text-anchor="middle" x="541.5" y="-63.5" font-family="Helvetica,sans-Serif" font-size="10.00">/TRKDoStop.s</text>
</a>
</g>
</g>
<!-- Node1&#45;&gt;Node6 -->
<g id="edge6" class="edge">
<title>Node1&#45;&gt;Node6</title>
<path fill="none" stroke="midnightblue" d="M1242.35,-146.62C1113.61,-142.77 856.47,-131.45 629.74,-98.06"/>
<polygon fill="midnightblue" stroke="midnightblue" points="630.05,-94.57 619.65,-96.56 629.02,-101.5 630.05,-94.57"/>
</g>
<!-- Node7 -->
<g id="node7" class="node">
<title>Node7</title>
<g id="a_node7"><a xlink:title=" ">
<polygon fill="white" stroke="#bfbfbf" points="637.5,-56.5 637.5,-97.5 793.5,-97.5 793.5,-56.5 637.5,-56.5"/>
<text text-anchor="start" x="645.5" y="-85.5" font-family="Helvetica,sans-Serif" font-size="10.00">asm/TRK_MINNOW_DOLPHIN</text>
<text text-anchor="start" x="645.5" y="-74.5" font-family="Helvetica,sans-Serif" font-size="10.00">/MetroTRK/Portable/msghndlr</text>
<text text-anchor="middle" x="715.5" y="-63.5" font-family="Helvetica,sans-Serif" font-size="10.00">/TRKDoStep.s</text>
</a>
</g>
</g>
<!-- Node1&#45;&gt;Node7 -->
<g id="edge7" class="edge">
<title>Node1&#45;&gt;Node7</title>
<path fill="none" stroke="midnightblue" d="M1242.25,-143.85C1141.16,-137.39 964.29,-123.68 803.72,-98.09"/>
<polygon fill="midnightblue" stroke="midnightblue" points="804.09,-94.61 793.66,-96.47 802.98,-101.52 804.09,-94.61"/>
</g>
<!-- Node8 -->
<g id="node8" class="node">
<title>Node8</title>
<g id="a_node8"><a xlink:title=" ">
<polygon fill="white" stroke="#bfbfbf" points="811.5,-56.5 811.5,-97.5 967.5,-97.5 967.5,-56.5 811.5,-56.5"/>
<text text-anchor="start" x="819.5" y="-85.5" font-family="Helvetica,sans-Serif" font-size="10.00">asm/TRK_MINNOW_DOLPHIN</text>
<text text-anchor="start" x="819.5" y="-74.5" font-family="Helvetica,sans-Serif" font-size="10.00">/MetroTRK/Portable/msghndlr</text>
<text text-anchor="middle" x="889.5" y="-63.5" font-family="Helvetica,sans-Serif" font-size="10.00">/TRKDoContinue.s</text>
</a>
</g>
</g>
<!-- Node1&#45;&gt;Node8 -->
<g id="edge8" class="edge">
<title>Node1&#45;&gt;Node8</title>
<path fill="none" stroke="midnightblue" d="M1242.27,-138.5C1173.91,-129.74 1073.87,-115.89 977.6,-98.14"/>
<polygon fill="midnightblue" stroke="midnightblue" points="978.16,-94.68 967.69,-96.29 976.88,-101.56 978.16,-94.68"/>
</g>
<!-- Node9 -->
<g id="node9" class="node">
<title>Node9</title>
<g id="a_node9"><a xlink:title=" ">
<polygon fill="white" stroke="#bfbfbf" points="985.5,-56.5 985.5,-97.5 1141.5,-97.5 1141.5,-56.5 985.5,-56.5"/>
<text text-anchor="start" x="993.5" y="-85.5" font-family="Helvetica,sans-Serif" font-size="10.00">asm/TRK_MINNOW_DOLPHIN</text>
<text text-anchor="start" x="993.5" y="-74.5" font-family="Helvetica,sans-Serif" font-size="10.00">/MetroTRK/Portable/msghndlr</text>
<text text-anchor="middle" x="1063.5" y="-63.5" font-family="Helvetica,sans-Serif" font-size="10.00">/TRKDoWriteRegisters.s</text>
</a>
</g>
</g>
<!-- Node1&#45;&gt;Node9 -->
<g id="edge9" class="edge">
<title>Node1&#45;&gt;Node9</title>
<path fill="none" stroke="midnightblue" d="M1272.62,-134.49C1236.43,-124.71 1187.36,-111.46 1145.86,-100.25"/>
<polygon fill="midnightblue" stroke="midnightblue" points="1146.6,-96.82 1136.03,-97.59 1144.77,-103.58 1146.6,-96.82"/>
</g>
<!-- Node10 -->
<g id="node10" class="node">
<title>Node10</title>
<g id="a_node10"><a xlink:title=" ">
<polygon fill="white" stroke="#bfbfbf" points="1159.5,-56.5 1159.5,-97.5 1315.5,-97.5 1315.5,-56.5 1159.5,-56.5"/>
<text text-anchor="start" x="1167.5" y="-85.5" font-family="Helvetica,sans-Serif" font-size="10.00">asm/TRK_MINNOW_DOLPHIN</text>
<text text-anchor="start" x="1167.5" y="-74.5" font-family="Helvetica,sans-Serif" font-size="10.00">/MetroTRK/Portable/msghndlr</text>
<text text-anchor="middle" x="1237.5" y="-63.5" font-family="Helvetica,sans-Serif" font-size="10.00">/TRKDoReadRegisters.s</text>
</a>
</g>
</g>
<!-- Node1&#45;&gt;Node10 -->
<g id="edge10" class="edge">
<title>Node1&#45;&gt;Node10</title>
<path fill="none" stroke="midnightblue" d="M1306.89,-134.23C1296.22,-125.59 1282.28,-114.29 1269.7,-104.09"/>
<polygon fill="midnightblue" stroke="midnightblue" points="1271.65,-101.17 1261.67,-97.59 1267.24,-106.6 1271.65,-101.17"/>
</g>
<!-- Node11 -->
<g id="node11" class="node">
<title>Node11</title>
<g id="a_node11"><a xlink:title=" ">
<polygon fill="white" stroke="#bfbfbf" points="1333.5,-56.5 1333.5,-97.5 1489.5,-97.5 1489.5,-56.5 1333.5,-56.5"/>
<text text-anchor="start" x="1341.5" y="-85.5" font-family="Helvetica,sans-Serif" font-size="10.00">asm/TRK_MINNOW_DOLPHIN</text>
<text text-anchor="start" x="1341.5" y="-74.5" font-family="Helvetica,sans-Serif" font-size="10.00">/MetroTRK/Portable/msghndlr</text>
<text text-anchor="middle" x="1411.5" y="-63.5" font-family="Helvetica,sans-Serif" font-size="10.00">/TRKDoWriteMemory.s</text>
</a>
</g>
</g>
<!-- Node1&#45;&gt;Node11 -->
<g id="edge11" class="edge">
<title>Node1&#45;&gt;Node11</title>
<path fill="none" stroke="midnightblue" d="M1342.11,-134.23C1352.78,-125.59 1366.72,-114.29 1379.3,-104.09"/>
<polygon fill="midnightblue" stroke="midnightblue" points="1381.76,-106.6 1387.33,-97.59 1377.35,-101.17 1381.76,-106.6"/>
</g>
<!-- Node12 -->
<g id="node12" class="node">
<title>Node12</title>
<g id="a_node12"><a xlink:title=" ">
<polygon fill="white" stroke="#bfbfbf" points="1507.5,-56.5 1507.5,-97.5 1663.5,-97.5 1663.5,-56.5 1507.5,-56.5"/>
<text text-anchor="start" x="1515.5" y="-85.5" font-family="Helvetica,sans-Serif" font-size="10.00">asm/TRK_MINNOW_DOLPHIN</text>
<text text-anchor="start" x="1515.5" y="-74.5" font-family="Helvetica,sans-Serif" font-size="10.00">/MetroTRK/Portable/msghndlr</text>
<text text-anchor="middle" x="1585.5" y="-63.5" font-family="Helvetica,sans-Serif" font-size="10.00">/TRKDoReadMemory.s</text>
</a>
</g>
</g>
<!-- Node1&#45;&gt;Node12 -->
<g id="edge12" class="edge">
<title>Node1&#45;&gt;Node12</title>
<path fill="none" stroke="midnightblue" d="M1376.38,-134.49C1412.57,-124.71 1461.64,-111.46 1503.14,-100.25"/>
<polygon fill="midnightblue" stroke="midnightblue" points="1504.23,-103.58 1512.97,-97.59 1502.4,-96.82 1504.23,-103.58"/>
</g>
<!-- Node13 -->
<g id="node13" class="node">
<title>Node13</title>
<g id="a_node13"><a xlink:title=" ">
<polygon fill="white" stroke="#bfbfbf" points="1681.5,-56.5 1681.5,-97.5 1837.5,-97.5 1837.5,-56.5 1681.5,-56.5"/>
<text text-anchor="start" x="1689.5" y="-85.5" font-family="Helvetica,sans-Serif" font-size="10.00">asm/TRK_MINNOW_DOLPHIN</text>
<text text-anchor="start" x="1689.5" y="-74.5" font-family="Helvetica,sans-Serif" font-size="10.00">/MetroTRK/Portable/msghndlr</text>
<text text-anchor="middle" x="1759.5" y="-63.5" font-family="Helvetica,sans-Serif" font-size="10.00">/TRKDoOverride.s</text>
</a>
</g>
</g>
<!-- Node1&#45;&gt;Node13 -->
<g id="edge13" class="edge">
<title>Node1&#45;&gt;Node13</title>
<path fill="none" stroke="midnightblue" d="M1406.73,-138.5C1475.09,-129.74 1575.13,-115.89 1671.4,-98.14"/>
<polygon fill="midnightblue" stroke="midnightblue" points="1672.12,-101.56 1681.31,-96.29 1670.84,-94.68 1672.12,-101.56"/>
</g>
<!-- Node14 -->
<g id="node14" class="node">
<title>Node14</title>
<g id="a_node14"><a xlink:title=" ">
<polygon fill="white" stroke="#bfbfbf" points="1855.5,-56.5 1855.5,-97.5 2011.5,-97.5 2011.5,-56.5 1855.5,-56.5"/>
<text text-anchor="start" x="1863.5" y="-85.5" font-family="Helvetica,sans-Serif" font-size="10.00">asm/TRK_MINNOW_DOLPHIN</text>
<text text-anchor="start" x="1863.5" y="-74.5" font-family="Helvetica,sans-Serif" font-size="10.00">/MetroTRK/Portable/msghndlr</text>
<text text-anchor="middle" x="1933.5" y="-63.5" font-family="Helvetica,sans-Serif" font-size="10.00">/TRKDoReset.s</text>
</a>
</g>
</g>
<!-- Node1&#45;&gt;Node14 -->
<g id="edge14" class="edge">
<title>Node1&#45;&gt;Node14</title>
<path fill="none" stroke="midnightblue" d="M1406.75,-143.85C1507.84,-137.39 1684.71,-123.68 1845.28,-98.09"/>
<polygon fill="midnightblue" stroke="midnightblue" points="1846.02,-101.52 1855.34,-96.47 1844.91,-94.61 1846.02,-101.52"/>
</g>
<!-- Node15 -->
<g id="node15" class="node">
<title>Node15</title>
<g id="a_node15"><a xlink:title=" ">
<polygon fill="white" stroke="#bfbfbf" points="2029.5,-56.5 2029.5,-97.5 2185.5,-97.5 2185.5,-56.5 2029.5,-56.5"/>
<text text-anchor="start" x="2037.5" y="-85.5" font-family="Helvetica,sans-Serif" font-size="10.00">asm/TRK_MINNOW_DOLPHIN</text>
<text text-anchor="start" x="2037.5" y="-74.5" font-family="Helvetica,sans-Serif" font-size="10.00">/MetroTRK/Portable/msghndlr</text>
<text text-anchor="middle" x="2107.5" y="-63.5" font-family="Helvetica,sans-Serif" font-size="10.00">/TRKDoDisconnect.s</text>
</a>
</g>
</g>
<!-- Node1&#45;&gt;Node15 -->
<g id="edge15" class="edge">
<title>Node1&#45;&gt;Node15</title>
<path fill="none" stroke="midnightblue" d="M1406.65,-146.62C1535.39,-142.77 1792.53,-131.45 2019.26,-98.06"/>
<polygon fill="midnightblue" stroke="midnightblue" points="2019.98,-101.5 2029.35,-96.56 2018.95,-94.57 2019.98,-101.5"/>
</g>
<!-- Node16 -->
<g id="node16" class="node">
<title>Node16</title>
<g id="a_node16"><a xlink:title=" ">
<polygon fill="white" stroke="#bfbfbf" points="2203.5,-56.5 2203.5,-97.5 2359.5,-97.5 2359.5,-56.5 2203.5,-56.5"/>
<text text-anchor="start" x="2211.5" y="-85.5" font-family="Helvetica,sans-Serif" font-size="10.00">asm/TRK_MINNOW_DOLPHIN</text>
<text text-anchor="start" x="2211.5" y="-74.5" font-family="Helvetica,sans-Serif" font-size="10.00">/MetroTRK/Portable/msghndlr</text>
<text text-anchor="middle" x="2281.5" y="-63.5" font-family="Helvetica,sans-Serif" font-size="10.00">/TRKDoConnect.s</text>
</a>
</g>
</g>
<!-- Node1&#45;&gt;Node16 -->
<g id="edge16" class="edge">
<title>Node1&#45;&gt;Node16</title>
<path fill="none" stroke="midnightblue" d="M1406.52,-148.32C1559.6,-146.97 1899.2,-139.28 2193.36,-98.03"/>
<polygon fill="midnightblue" stroke="midnightblue" points="2193.95,-101.48 2203.36,-96.61 2192.97,-94.55 2193.95,-101.48"/>
</g>
<!-- Node17 -->
<g id="node17" class="node">
<title>Node17</title>
<g id="a_node17"><a xlink:title=" ">
<polygon fill="white" stroke="#bfbfbf" points="2377.5,-56.5 2377.5,-97.5 2533.5,-97.5 2533.5,-56.5 2377.5,-56.5"/>
<text text-anchor="start" x="2385.5" y="-85.5" font-family="Helvetica,sans-Serif" font-size="10.00">asm/TRK_MINNOW_DOLPHIN</text>
<text text-anchor="start" x="2385.5" y="-74.5" font-family="Helvetica,sans-Serif" font-size="10.00">/MetroTRK/Portable/msghndlr</text>
<text text-anchor="middle" x="2455.5" y="-63.5" font-family="Helvetica,sans-Serif" font-size="10.00">/SetTRKConnected.s</text>
</a>
</g>
</g>
<!-- Node1&#45;&gt;Node17 -->
<g id="edge17" class="edge">
<title>Node1&#45;&gt;Node17</title>
<path fill="none" stroke="midnightblue" d="M1406.84,-146.41C1615.95,-140.8 2164.62,-124.13 2367.4,-97.98"/>
<polygon fill="midnightblue" stroke="midnightblue" points="2367.92,-101.44 2377.37,-96.65 2366.99,-94.51 2367.92,-101.44"/>
</g>
<!-- Node18 -->
<g id="node18" class="node">
<title>Node18</title>
<g id="a_node18"><a xlink:title=" ">
<polygon fill="white" stroke="#bfbfbf" points="2551.5,-56.5 2551.5,-97.5 2707.5,-97.5 2707.5,-56.5 2551.5,-56.5"/>
<text text-anchor="start" x="2559.5" y="-85.5" font-family="Helvetica,sans-Serif" font-size="10.00">asm/TRK_MINNOW_DOLPHIN</text>
<text text-anchor="start" x="2559.5" y="-74.5" font-family="Helvetica,sans-Serif" font-size="10.00">/MetroTRK/Portable/msghndlr</text>
<text text-anchor="middle" x="2629.5" y="-63.5" font-family="Helvetica,sans-Serif" font-size="10.00">/GetTRKConnected.s</text>
</a>
</g>
</g>
<!-- Node1&#45;&gt;Node18 -->
<g id="edge18" class="edge">
<title>Node1&#45;&gt;Node18</title>
<path fill="none" stroke="midnightblue" d="M1406.59,-147.07C1639.59,-142.71 2302.98,-128.06 2541.36,-97.98"/>
<polygon fill="midnightblue" stroke="midnightblue" points="2541.91,-101.44 2551.37,-96.68 2541,-94.5 2541.91,-101.44"/>
</g>
<!-- Node19 -->
<g id="node19" class="node">
<title>Node19</title>
<g id="a_node19"><a xlink:title=" ">
<polygon fill="white" stroke="#bfbfbf" points="2725.5,-56.5 2725.5,-97.5 2881.5,-97.5 2881.5,-56.5 2725.5,-56.5"/>
<text text-anchor="start" x="2733.5" y="-85.5" font-family="Helvetica,sans-Serif" font-size="10.00">asm/TRK_MINNOW_DOLPHIN</text>
<text text-anchor="start" x="2733.5" y="-74.5" font-family="Helvetica,sans-Serif" font-size="10.00">/MetroTRK/Portable/msghndlr</text>
<text text-anchor="middle" x="2803.5" y="-63.5" font-family="Helvetica,sans-Serif" font-size="10.00">/OutputData.s</text>
</a>
</g>
</g>
<!-- Node1&#45;&gt;Node19 -->
<g id="edge19" class="edge">
<title>Node1&#45;&gt;Node19</title>
<path fill="none" stroke="midnightblue" d="M1406.6,-147.57C1662.05,-144.34 2441.52,-132.02 2715.45,-97.97"/>
<polygon fill="midnightblue" stroke="midnightblue" points="2715.9,-101.44 2725.37,-96.7 2715.01,-94.5 2715.9,-101.44"/>
</g>
<!-- Node4&#45;&gt;Node3 -->
<g id="edge4" class="edge">
<title>Node4&#45;&gt;Node3</title>
<path fill="none" stroke="midnightblue" d="M183,-61.9C174.82,-51.86 163.79,-38.34 155.16,-27.75"/>
<polygon fill="midnightblue" stroke="midnightblue" points="157.62,-25.23 148.59,-19.69 152.2,-29.66 157.62,-25.23"/>
</g>
</g>
</svg>
