<?xml version="1.0" encoding="UTF-8" standalone="no"?>
<!DOCTYPE svg PUBLIC "-//W3C//DTD SVG 1.1//EN"
 "http://www.w3.org/Graphics/SVG/1.1/DTD/svg11.dtd">
<!-- Generated by graphviz version 2.47.0 (20210316.2052)
 -->
<!-- Title: libs/TRK_MINNOW_DOLPHIN/MetroTRK/Portable/mutex_TRK.cpp Pages: 1 -->
<svg width="812pt" height="184pt"
 viewBox="0.00 0.00 811.50 184.00" xmlns="http://www.w3.org/2000/svg" xmlns:xlink="http://www.w3.org/1999/xlink">
<g id="graph0" class="graph" transform="scale(1 1) rotate(0) translate(4 180)">
<title>libs/TRK_MINNOW_DOLPHIN/MetroTRK/Portable/mutex_TRK.cpp</title>
<polygon fill="white" stroke="transparent" points="-4,4 -4,-180 807.5,-180 807.5,4 -4,4"/>
<!-- Node1 -->
<g id="node1" class="node">
<title>Node1</title>
<g id="a_node1"><a xlink:title=" ">
<polygon fill="#bfbfbf" stroke="black" points="212.5,-134.5 212.5,-175.5 364.5,-175.5 364.5,-134.5 212.5,-134.5"/>
<text text-anchor="start" x="220.5" y="-163.5" font-family="Helvetica,sans-Serif" font-size="10.00">libs/TRK_MINNOW_DOLPHIN</text>
<text text-anchor="start" x="220.5" y="-152.5" font-family="Helvetica,sans-Serif" font-size="10.00">/MetroTRK/Portable/mutex</text>
<text text-anchor="middle" x="288.5" y="-141.5" font-family="Helvetica,sans-Serif" font-size="10.00">_TRK.cpp</text>
</a>
</g>
</g>
<!-- Node2 -->
<g id="node2" class="node">
<title>Node2</title>
<g id="a_node2"><a xlink:href="dol2asm_8h.html" target="_top" xlink:title=" ">
<polygon fill="white" stroke="black" points="0,-67.5 0,-86.5 61,-86.5 61,-67.5 0,-67.5"/>
<text text-anchor="middle" x="30.5" y="-74.5" font-family="Helvetica,sans-Serif" font-size="10.00">dol2asm.h</text>
</a>
</g>
</g>
<!-- Node1&#45;&gt;Node2 -->
<g id="edge1" class="edge">
<title>Node1&#45;&gt;Node2</title>
<path fill="none" stroke="midnightblue" d="M212.19,-137.1C171.19,-127.23 120.05,-113.64 75.5,-98 69.61,-95.93 63.42,-93.42 57.57,-90.88"/>
<polygon fill="midnightblue" stroke="midnightblue" points="58.74,-87.56 48.19,-86.65 55.87,-93.95 58.74,-87.56"/>
</g>
<!-- Node3 -->
<g id="node3" class="node">
<title>Node3</title>
<g id="a_node3"><a xlink:href="types_8h.html" target="_top" xlink:title=" ">
<polygon fill="white" stroke="black" points="104,-0.5 104,-19.5 185,-19.5 185,-0.5 104,-0.5"/>
<text text-anchor="middle" x="144.5" y="-7.5" font-family="Helvetica,sans-Serif" font-size="10.00">dolphin/types.h</text>
</a>
</g>
</g>
<!-- Node1&#45;&gt;Node3 -->
<g id="edge2" class="edge">
<title>Node1&#45;&gt;Node3</title>
<path fill="none" stroke="midnightblue" d="M212.09,-150.54C174.51,-144.5 132.27,-130.29 108.5,-98 97.43,-82.97 102.32,-73.61 108.5,-56 112.29,-45.21 119.87,-35.08 127.1,-27.18"/>
<polygon fill="midnightblue" stroke="midnightblue" points="129.83,-29.4 134.34,-19.81 124.83,-24.49 129.83,-29.4"/>
</g>
<!-- Node4 -->
<g id="node4" class="node">
<title>Node4</title>
<g id="a_node4"><a xlink:href="mutex__TRK_8h.html" target="_top" xlink:title=" ">
<polygon fill="white" stroke="black" points="117.5,-62 117.5,-92 281.5,-92 281.5,-62 117.5,-62"/>
<text text-anchor="start" x="125.5" y="-80" font-family="Helvetica,sans-Serif" font-size="10.00">TRK_MINNOW_DOLPHIN</text>
<text text-anchor="middle" x="199.5" y="-69" font-family="Helvetica,sans-Serif" font-size="10.00">/MetroTRK/Portable/mutex_TRK.h</text>
</a>
</g>
</g>
<!-- Node1&#45;&gt;Node4 -->
<g id="edge3" class="edge">
<title>Node1&#45;&gt;Node4</title>
<path fill="none" stroke="midnightblue" d="M265.58,-134.43C252.78,-123.5 236.85,-109.89 223.83,-98.78"/>
<polygon fill="midnightblue" stroke="midnightblue" points="226.04,-96.06 216.16,-92.23 221.49,-101.38 226.04,-96.06"/>
</g>
<!-- Node5 -->
<g id="node5" class="node">
<title>Node5</title>
<g id="a_node5"><a xlink:title=" ">
<polygon fill="white" stroke="#bfbfbf" points="299.5,-56.5 299.5,-97.5 455.5,-97.5 455.5,-56.5 299.5,-56.5"/>
<text text-anchor="start" x="307.5" y="-85.5" font-family="Helvetica,sans-Serif" font-size="10.00">asm/TRK_MINNOW_DOLPHIN</text>
<text text-anchor="start" x="307.5" y="-74.5" font-family="Helvetica,sans-Serif" font-size="10.00">/MetroTRK/Portable/mutex</text>
<text text-anchor="middle" x="377.5" y="-63.5" font-family="Helvetica,sans-Serif" font-size="10.00">_TRK/TRKReleaseMutex.s</text>
</a>
</g>
</g>
<!-- Node1&#45;&gt;Node5 -->
<g id="edge5" class="edge">
<title>Node1&#45;&gt;Node5</title>
<path fill="none" stroke="midnightblue" d="M311.42,-134.43C322.22,-125.21 335.25,-114.08 346.88,-104.15"/>
<polygon fill="midnightblue" stroke="midnightblue" points="349.33,-106.66 354.66,-97.51 344.78,-101.34 349.33,-106.66"/>
</g>
<!-- Node6 -->
<g id="node6" class="node">
<title>Node6</title>
<g id="a_node6"><a xlink:title=" ">
<polygon fill="white" stroke="#bfbfbf" points="473.5,-56.5 473.5,-97.5 629.5,-97.5 629.5,-56.5 473.5,-56.5"/>
<text text-anchor="start" x="481.5" y="-85.5" font-family="Helvetica,sans-Serif" font-size="10.00">asm/TRK_MINNOW_DOLPHIN</text>
<text text-anchor="start" x="481.5" y="-74.5" font-family="Helvetica,sans-Serif" font-size="10.00">/MetroTRK/Portable/mutex</text>
<text text-anchor="middle" x="551.5" y="-63.5" font-family="Helvetica,sans-Serif" font-size="10.00">_TRK/TRKAcquireMutex.s</text>
</a>
</g>
</g>
<!-- Node1&#45;&gt;Node6 -->
<g id="edge6" class="edge">
<title>Node1&#45;&gt;Node6</title>
<path fill="none" stroke="midnightblue" d="M356.23,-134.43C392.27,-124.01 436.76,-111.16 474.15,-100.35"/>
<polygon fill="midnightblue" stroke="midnightblue" points="475.37,-103.64 484,-97.51 473.42,-96.92 475.37,-103.64"/>
</g>
<!-- Node7 -->
<g id="node7" class="node">
<title>Node7</title>
<g id="a_node7"><a xlink:title=" ">
<polygon fill="white" stroke="#bfbfbf" points="647.5,-56.5 647.5,-97.5 803.5,-97.5 803.5,-56.5 647.5,-56.5"/>
<text text-anchor="start" x="655.5" y="-85.5" font-family="Helvetica,sans-Serif" font-size="10.00">asm/TRK_MINNOW_DOLPHIN</text>
<text text-anchor="start" x="655.5" y="-74.5" font-family="Helvetica,sans-Serif" font-size="10.00">/MetroTRK/Portable/mutex</text>
<text text-anchor="middle" x="725.5" y="-63.5" font-family="Helvetica,sans-Serif" font-size="10.00">_TRK/TRKInitializeMutex.s</text>
</a>
</g>
</g>
<!-- Node1&#45;&gt;Node7 -->
<g id="edge7" class="edge">
<title>Node1&#45;&gt;Node7</title>
<path fill="none" stroke="midnightblue" d="M364.54,-143.34C433.33,-133.35 537.59,-117.36 637.35,-98.17"/>
<polygon fill="midnightblue" stroke="midnightblue" points="638.15,-101.58 647.3,-96.24 636.82,-94.71 638.15,-101.58"/>
</g>
<!-- Node4&#45;&gt;Node3 -->
<g id="edge4" class="edge">
<title>Node4&#45;&gt;Node3</title>
<path fill="none" stroke="midnightblue" d="M187.57,-61.9C178.99,-51.76 167.4,-38.07 158.41,-27.44"/>
<polygon fill="midnightblue" stroke="midnightblue" points="160.99,-25.07 151.86,-19.69 155.64,-29.59 160.99,-25.07"/>
</g>
</g>
</svg>
