<?xml version="1.0" encoding="UTF-8" standalone="no"?>
<!DOCTYPE svg PUBLIC "-//W3C//DTD SVG 1.1//EN"
 "http://www.w3.org/Graphics/SVG/1.1/DTD/svg11.dtd">
<!-- Generated by graphviz version 2.47.0 (20210316.2052)
 -->
<!-- Title: libs/TRK_MINNOW_DOLPHIN/utils/gc/MWCriticalSection_gc.cpp Pages: 1 -->
<svg width="808pt" height="184pt"
 viewBox="0.00 0.00 807.50 184.00" xmlns="http://www.w3.org/2000/svg" xmlns:xlink="http://www.w3.org/1999/xlink">
<g id="graph0" class="graph" transform="scale(1 1) rotate(0) translate(4 180)">
<title>libs/TRK_MINNOW_DOLPHIN/utils/gc/MWCriticalSection_gc.cpp</title>
<polygon fill="white" stroke="transparent" points="-4,4 -4,-180 803.5,-180 803.5,4 -4,4"/>
<!-- Node1 -->
<g id="node1" class="node">
<title>Node1</title>
<g id="a_node1"><a xlink:title=" ">
<polygon fill="#bfbfbf" stroke="black" points="207.5,-134.5 207.5,-175.5 359.5,-175.5 359.5,-134.5 207.5,-134.5"/>
<text text-anchor="start" x="215.5" y="-163.5" font-family="Helvetica,sans-Serif" font-size="10.00">libs/TRK_MINNOW_DOLPHIN</text>
<text text-anchor="start" x="215.5" y="-152.5" font-family="Helvetica,sans-Serif" font-size="10.00">/utils/gc/MWCriticalSection</text>
<text text-anchor="middle" x="283.5" y="-141.5" font-family="Helvetica,sans-Serif" font-size="10.00">_gc.cpp</text>
</a>
</g>
</g>
<!-- Node2 -->
<g id="node2" class="node">
<title>Node2</title>
<g id="a_node2"><a xlink:href="dol2asm_8h.html" target="_top" xlink:title=" ">
<polygon fill="white" stroke="black" points="0,-67.5 0,-86.5 61,-86.5 61,-67.5 0,-67.5"/>
<text text-anchor="middle" x="30.5" y="-74.5" font-family="Helvetica,sans-Serif" font-size="10.00">dol2asm.h</text>
</a>
</g>
</g>
<!-- Node1&#45;&gt;Node2 -->
<g id="edge1" class="edge">
<title>Node1&#45;&gt;Node2</title>
<path fill="none" stroke="midnightblue" d="M207.05,-136.44C167.35,-126.56 118.33,-113.18 75.5,-98 69.61,-95.91 63.43,-93.39 57.58,-90.85"/>
<polygon fill="midnightblue" stroke="midnightblue" points="58.75,-87.54 48.2,-86.63 55.88,-93.92 58.75,-87.54"/>
</g>
<!-- Node3 -->
<g id="node3" class="node">
<title>Node3</title>
<g id="a_node3"><a xlink:href="types_8h.html" target="_top" xlink:title=" ">
<polygon fill="white" stroke="black" points="102,-0.5 102,-19.5 183,-19.5 183,-0.5 102,-0.5"/>
<text text-anchor="middle" x="142.5" y="-7.5" font-family="Helvetica,sans-Serif" font-size="10.00">dolphin/types.h</text>
</a>
</g>
</g>
<!-- Node1&#45;&gt;Node3 -->
<g id="edge2" class="edge">
<title>Node1&#45;&gt;Node3</title>
<path fill="none" stroke="midnightblue" d="M207.37,-149.64C171.26,-143.27 131.16,-129.05 108.5,-98 92.58,-76.19 111.75,-45.95 127.1,-27.47"/>
<polygon fill="midnightblue" stroke="midnightblue" points="129.79,-29.71 133.75,-19.88 124.53,-25.1 129.79,-29.71"/>
</g>
<!-- Node4 -->
<g id="node4" class="node">
<title>Node4</title>
<g id="a_node4"><a xlink:href="MWCriticalSection__gc_8h.html" target="_top" xlink:title=" ">
<polygon fill="white" stroke="black" points="117.5,-62 117.5,-92 275.5,-92 275.5,-62 117.5,-62"/>
<text text-anchor="start" x="125.5" y="-80" font-family="Helvetica,sans-Serif" font-size="10.00">TRK_MINNOW_DOLPHIN</text>
<text text-anchor="middle" x="196.5" y="-69" font-family="Helvetica,sans-Serif" font-size="10.00">/utils/gc/MWCriticalSection_gc.h</text>
</a>
</g>
</g>
<!-- Node1&#45;&gt;Node4 -->
<g id="edge3" class="edge">
<title>Node1&#45;&gt;Node4</title>
<path fill="none" stroke="midnightblue" d="M261.1,-134.43C248.71,-123.6 233.3,-110.15 220.65,-99.09"/>
<polygon fill="midnightblue" stroke="midnightblue" points="222.62,-96.17 212.78,-92.23 218.01,-101.44 222.62,-96.17"/>
</g>
<!-- Node5 -->
<g id="node5" class="node">
<title>Node5</title>
<g id="a_node5"><a xlink:title=" ">
<polygon fill="white" stroke="#bfbfbf" points="293.5,-56.5 293.5,-97.5 449.5,-97.5 449.5,-56.5 293.5,-56.5"/>
<text text-anchor="start" x="301.5" y="-85.5" font-family="Helvetica,sans-Serif" font-size="10.00">asm/TRK_MINNOW_DOLPHIN</text>
<text text-anchor="start" x="301.5" y="-74.5" font-family="Helvetica,sans-Serif" font-size="10.00">/utils/gc/MWCriticalSection</text>
<text text-anchor="middle" x="371.5" y="-63.5" font-family="Helvetica,sans-Serif" font-size="10.00">_gc/MWExitCriticalSection.s</text>
</a>
</g>
</g>
<!-- Node1&#45;&gt;Node5 -->
<g id="edge5" class="edge">
<title>Node1&#45;&gt;Node5</title>
<path fill="none" stroke="midnightblue" d="M306.16,-134.43C316.84,-125.21 329.72,-114.08 341.22,-104.15"/>
<polygon fill="midnightblue" stroke="midnightblue" points="343.63,-106.69 348.91,-97.51 339.06,-101.39 343.63,-106.69"/>
</g>
<!-- Node6 -->
<g id="node6" class="node">
<title>Node6</title>
<g id="a_node6"><a xlink:title=" ">
<polygon fill="white" stroke="#bfbfbf" points="467.5,-56.5 467.5,-97.5 623.5,-97.5 623.5,-56.5 467.5,-56.5"/>
<text text-anchor="start" x="475.5" y="-85.5" font-family="Helvetica,sans-Serif" font-size="10.00">asm/TRK_MINNOW_DOLPHIN</text>
<text text-anchor="start" x="475.5" y="-74.5" font-family="Helvetica,sans-Serif" font-size="10.00">/utils/gc/MWCriticalSection</text>
<text text-anchor="middle" x="545.5" y="-63.5" font-family="Helvetica,sans-Serif" font-size="10.00">_gc/MWEnterCriticalSection.s</text>
</a>
</g>
</g>
<!-- Node1&#45;&gt;Node6 -->
<g id="edge6" class="edge">
<title>Node1&#45;&gt;Node6</title>
<path fill="none" stroke="midnightblue" d="M350.97,-134.43C386.88,-124.01 431.19,-111.16 468.45,-100.35"/>
<polygon fill="midnightblue" stroke="midnightblue" points="469.63,-103.65 478.26,-97.51 467.68,-96.93 469.63,-103.65"/>
</g>
<!-- Node7 -->
<g id="node7" class="node">
<title>Node7</title>
<g id="a_node7"><a xlink:title=" ">
<polygon fill="white" stroke="#bfbfbf" points="641.5,-56.5 641.5,-97.5 799.5,-97.5 799.5,-56.5 641.5,-56.5"/>
<text text-anchor="start" x="649.5" y="-85.5" font-family="Helvetica,sans-Serif" font-size="10.00">asm/TRK_MINNOW_DOLPHIN</text>
<text text-anchor="start" x="649.5" y="-74.5" font-family="Helvetica,sans-Serif" font-size="10.00">/utils/gc/MWCriticalSection</text>
<text text-anchor="middle" x="720.5" y="-63.5" font-family="Helvetica,sans-Serif" font-size="10.00">_gc/MWInitializeCriticalSection.s</text>
</a>
</g>
</g>
<!-- Node1&#45;&gt;Node7 -->
<g id="edge7" class="edge">
<title>Node1&#45;&gt;Node7</title>
<path fill="none" stroke="midnightblue" d="M359.66,-143.22C428.24,-133.19 532.02,-117.19 631.48,-98.14"/>
<polygon fill="midnightblue" stroke="midnightblue" points="632.24,-101.56 641.4,-96.23 630.91,-94.69 632.24,-101.56"/>
</g>
<!-- Node4&#45;&gt;Node3 -->
<g id="edge4" class="edge">
<title>Node4&#45;&gt;Node3</title>
<path fill="none" stroke="midnightblue" d="M184.78,-61.9C176.36,-51.76 164.99,-38.07 156.16,-27.44"/>
<polygon fill="midnightblue" stroke="midnightblue" points="158.81,-25.15 149.72,-19.69 153.42,-29.62 158.81,-25.15"/>
</g>
</g>
</svg>
