<?xml version="1.0" encoding="UTF-8" standalone="no"?>
<!DOCTYPE svg PUBLIC "-//W3C//DTD SVG 1.1//EN"
 "http://www.w3.org/Graphics/SVG/1.1/DTD/svg11.dtd">
<!-- Generated by graphviz version 2.47.0 (20210316.2052)
 -->
<!-- Title: libs/TRK_MINNOW_DOLPHIN/MetroTRK/Portable/nubinit.cpp Pages: 1 -->
<svg width="790pt" height="173pt"
 viewBox="0.00 0.00 789.50 173.00" xmlns="http://www.w3.org/2000/svg" xmlns:xlink="http://www.w3.org/1999/xlink">
<g id="graph0" class="graph" transform="scale(1 1) rotate(0) translate(4 169)">
<title>libs/TRK_MINNOW_DOLPHIN/MetroTRK/Portable/nubinit.cpp</title>
<polygon fill="white" stroke="transparent" points="-4,4 -4,-169 785.5,-169 785.5,4 -4,4"/>
<!-- Node1 -->
<g id="node1" class="node">
<title>Node1</title>
<g id="a_node1"><a xlink:title=" ">
<polygon fill="#bfbfbf" stroke="black" points="195.5,-134.5 195.5,-164.5 347.5,-164.5 347.5,-134.5 195.5,-134.5"/>
<text text-anchor="start" x="203.5" y="-152.5" font-family="Helvetica,sans-Serif" font-size="10.00">libs/TRK_MINNOW_DOLPHIN</text>
<text text-anchor="middle" x="271.5" y="-141.5" font-family="Helvetica,sans-Serif" font-size="10.00">/MetroTRK/Portable/nubinit.cpp</text>
</a>
</g>
</g>
<!-- Node2 -->
<g id="node2" class="node">
<title>Node2</title>
<g id="a_node2"><a xlink:href="dol2asm_8h.html" target="_top" xlink:title=" ">
<polygon fill="white" stroke="black" points="0,-67.5 0,-86.5 61,-86.5 61,-67.5 0,-67.5"/>
<text text-anchor="middle" x="30.5" y="-74.5" font-family="Helvetica,sans-Serif" font-size="10.00">dol2asm.h</text>
</a>
</g>
</g>
<!-- Node1&#45;&gt;Node2 -->
<g id="edge1" class="edge">
<title>Node1&#45;&gt;Node2</title>
<path fill="none" stroke="midnightblue" d="M205.81,-134.45C167.36,-125.52 118.14,-112.85 75.5,-98 69.6,-95.95 63.41,-93.44 57.57,-90.9"/>
<polygon fill="midnightblue" stroke="midnightblue" points="58.74,-87.59 48.18,-86.67 55.86,-93.97 58.74,-87.59"/>
</g>
<!-- Node3 -->
<g id="node3" class="node">
<title>Node3</title>
<g id="a_node3"><a xlink:href="types_8h.html" target="_top" xlink:title=" ">
<polygon fill="white" stroke="black" points="98,-0.5 98,-19.5 179,-19.5 179,-0.5 98,-0.5"/>
<text text-anchor="middle" x="138.5" y="-7.5" font-family="Helvetica,sans-Serif" font-size="10.00">dolphin/types.h</text>
</a>
</g>
</g>
<!-- Node1&#45;&gt;Node3 -->
<g id="edge2" class="edge">
<title>Node1&#45;&gt;Node3</title>
<path fill="none" stroke="midnightblue" d="M195.18,-144.22C163.05,-138.17 128.54,-125.19 108.5,-98 92.71,-76.57 110.18,-46.18 124.3,-27.58"/>
<polygon fill="midnightblue" stroke="midnightblue" points="127.09,-29.69 130.62,-19.7 121.63,-25.31 127.09,-29.69"/>
</g>
<!-- Node4 -->
<g id="node4" class="node">
<title>Node4</title>
<g id="a_node4"><a xlink:href="nubinit_8h.html" target="_top" xlink:title=" ">
<polygon fill="white" stroke="black" points="117.5,-62 117.5,-92 259.5,-92 259.5,-62 117.5,-62"/>
<text text-anchor="start" x="125.5" y="-80" font-family="Helvetica,sans-Serif" font-size="10.00">TRK_MINNOW_DOLPHIN</text>
<text text-anchor="middle" x="188.5" y="-69" font-family="Helvetica,sans-Serif" font-size="10.00">/MetroTRK/Portable/nubinit.h</text>
</a>
</g>
</g>
<!-- Node1&#45;&gt;Node4 -->
<g id="edge3" class="edge">
<title>Node1&#45;&gt;Node4</title>
<path fill="none" stroke="midnightblue" d="M254.7,-134.23C242.7,-124.04 226.36,-110.16 212.92,-98.74"/>
<polygon fill="midnightblue" stroke="midnightblue" points="214.88,-95.81 204.99,-92 210.34,-101.15 214.88,-95.81"/>
</g>
<!-- Node5 -->
<g id="node5" class="node">
<title>Node5</title>
<g id="a_node5"><a xlink:title=" ">
<polygon fill="white" stroke="#bfbfbf" points="277.5,-56.5 277.5,-97.5 433.5,-97.5 433.5,-56.5 277.5,-56.5"/>
<text text-anchor="start" x="285.5" y="-85.5" font-family="Helvetica,sans-Serif" font-size="10.00">asm/TRK_MINNOW_DOLPHIN</text>
<text text-anchor="start" x="285.5" y="-74.5" font-family="Helvetica,sans-Serif" font-size="10.00">/MetroTRK/Portable/nubinit</text>
<text text-anchor="middle" x="355.5" y="-63.5" font-family="Helvetica,sans-Serif" font-size="10.00">/TRKNubWelcome.s</text>
</a>
</g>
</g>
<!-- Node1&#45;&gt;Node5 -->
<g id="edge5" class="edge">
<title>Node1&#45;&gt;Node5</title>
<path fill="none" stroke="midnightblue" d="M288.5,-134.23C298.8,-125.59 312.26,-114.29 324.41,-104.09"/>
<polygon fill="midnightblue" stroke="midnightblue" points="326.75,-106.7 332.16,-97.59 322.25,-101.34 326.75,-106.7"/>
</g>
<!-- Node6 -->
<g id="node6" class="node">
<title>Node6</title>
<g id="a_node6"><a xlink:title=" ">
<polygon fill="white" stroke="#bfbfbf" points="451.5,-56.5 451.5,-97.5 607.5,-97.5 607.5,-56.5 451.5,-56.5"/>
<text text-anchor="start" x="459.5" y="-85.5" font-family="Helvetica,sans-Serif" font-size="10.00">asm/TRK_MINNOW_DOLPHIN</text>
<text text-anchor="start" x="459.5" y="-74.5" font-family="Helvetica,sans-Serif" font-size="10.00">/MetroTRK/Portable/nubinit</text>
<text text-anchor="middle" x="529.5" y="-63.5" font-family="Helvetica,sans-Serif" font-size="10.00">/TRKTerminateNub.s</text>
</a>
</g>
</g>
<!-- Node1&#45;&gt;Node6 -->
<g id="edge6" class="edge">
<title>Node1&#45;&gt;Node6</title>
<path fill="none" stroke="midnightblue" d="M322.78,-134.49C358.56,-124.71 407.06,-111.46 448.09,-100.25"/>
<polygon fill="midnightblue" stroke="midnightblue" points="449.08,-103.6 457.8,-97.59 447.23,-96.85 449.08,-103.6"/>
</g>
<!-- Node7 -->
<g id="node7" class="node">
<title>Node7</title>
<g id="a_node7"><a xlink:title=" ">
<polygon fill="white" stroke="#bfbfbf" points="625.5,-56.5 625.5,-97.5 781.5,-97.5 781.5,-56.5 625.5,-56.5"/>
<text text-anchor="start" x="633.5" y="-85.5" font-family="Helvetica,sans-Serif" font-size="10.00">asm/TRK_MINNOW_DOLPHIN</text>
<text text-anchor="start" x="633.5" y="-74.5" font-family="Helvetica,sans-Serif" font-size="10.00">/MetroTRK/Portable/nubinit</text>
<text text-anchor="middle" x="703.5" y="-63.5" font-family="Helvetica,sans-Serif" font-size="10.00">/TRKInitializeNub.s</text>
</a>
</g>
</g>
<!-- Node1&#45;&gt;Node7 -->
<g id="edge7" class="edge">
<title>Node1&#45;&gt;Node7</title>
<path fill="none" stroke="midnightblue" d="M347.51,-139.16C415.28,-130.43 517.38,-116.27 615.24,-98.17"/>
<polygon fill="midnightblue" stroke="midnightblue" points="616.12,-101.56 625.31,-96.29 614.84,-94.68 616.12,-101.56"/>
</g>
<!-- Node4&#45;&gt;Node3 -->
<g id="edge4" class="edge">
<title>Node4&#45;&gt;Node3</title>
<path fill="none" stroke="midnightblue" d="M177.65,-61.9C169.93,-51.86 159.53,-38.34 151.39,-27.75"/>
<polygon fill="midnightblue" stroke="midnightblue" points="154.06,-25.49 145.19,-19.69 148.51,-29.75 154.06,-25.49"/>
</g>
</g>
</svg>
