<?xml version="1.0" encoding="UTF-8" standalone="no"?>
<!DOCTYPE svg PUBLIC "-//W3C//DTD SVG 1.1//EN"
 "http://www.w3.org/Graphics/SVG/1.1/DTD/svg11.dtd">
<!-- Generated by graphviz version 2.47.0 (20210316.2052)
 -->
<!-- Title: libs/odenotstub/odenotstub.cpp Pages: 1 -->
<svg width="404pt" height="151pt"
 viewBox="0.00 0.00 404.00 151.00" xmlns="http://www.w3.org/2000/svg" xmlns:xlink="http://www.w3.org/1999/xlink">
<g id="graph0" class="graph" transform="scale(1 1) rotate(0) translate(4 147)">
<title>libs/odenotstub/odenotstub.cpp</title>
<polygon fill="white" stroke="transparent" points="-4,4 -4,-147 400,-147 400,4 -4,4"/>
<!-- Node1 -->
<g id="node1" class="node">
<title>Node1</title>
<g id="a_node1"><a xlink:title=" ">
<polygon fill="#bfbfbf" stroke="black" points="58.5,-123.5 58.5,-142.5 210.5,-142.5 210.5,-123.5 58.5,-123.5"/>
<text text-anchor="middle" x="134.5" y="-130.5" font-family="Helvetica,sans-Serif" font-size="10.00">libs/odenotstub/odenotstub.cpp</text>
</a>
</g>
</g>
<!-- Node2 -->
<g id="node2" class="node">
<title>Node2</title>
<g id="a_node2"><a xlink:href="dol2asm_8h.html" target="_top" xlink:title=" ">
<polygon fill="white" stroke="black" points="0,-62 0,-81 61,-81 61,-62 0,-62"/>
<text text-anchor="middle" x="30.5" y="-69" font-family="Helvetica,sans-Serif" font-size="10.00">dol2asm.h</text>
</a>
</g>
</g>
<!-- Node1&#45;&gt;Node2 -->
<g id="edge1" class="edge">
<title>Node1&#45;&gt;Node2</title>
<path fill="none" stroke="midnightblue" d="M119.6,-123.48C102.53,-113.71 74.34,-97.58 54.24,-86.08"/>
<polygon fill="midnightblue" stroke="midnightblue" points="55.79,-82.94 45.37,-81.01 52.31,-89.01 55.79,-82.94"/>
</g>
<!-- Node3 -->
<g id="node3" class="node">
<title>Node3</title>
<g id="a_node3"><a xlink:href="types_8h.html" target="_top" xlink:title=" ">
<polygon fill="white" stroke="black" points="94,-0.5 94,-19.5 175,-19.5 175,-0.5 94,-0.5"/>
<text text-anchor="middle" x="134.5" y="-7.5" font-family="Helvetica,sans-Serif" font-size="10.00">dolphin/types.h</text>
</a>
</g>
</g>
<!-- Node1&#45;&gt;Node3 -->
<g id="edge2" class="edge">
<title>Node1&#45;&gt;Node3</title>
<path fill="none" stroke="midnightblue" d="M127.87,-123.27C121.73,-114.61 113.04,-100.67 109.5,-87 106.04,-73.66 106.04,-69.34 109.5,-56 112.05,-46.18 117.25,-36.21 122.26,-28.17"/>
<polygon fill="midnightblue" stroke="midnightblue" points="125.25,-29.99 127.87,-19.73 119.42,-26.11 125.25,-29.99"/>
</g>
<!-- Node4 -->
<g id="node4" class="node">
<title>Node4</title>
<g id="a_node4"><a xlink:href="odenotstub_8h.html" target="_top" xlink:title=" ">
<polygon fill="white" stroke="black" points="118,-62 118,-81 241,-81 241,-62 118,-62"/>
<text text-anchor="middle" x="179.5" y="-69" font-family="Helvetica,sans-Serif" font-size="10.00">odenotstub/odenotstub.h</text>
</a>
</g>
</g>
<!-- Node1&#45;&gt;Node4 -->
<g id="edge3" class="edge">
<title>Node1&#45;&gt;Node4</title>
<path fill="none" stroke="midnightblue" d="M140.95,-123.48C147.7,-114.55 158.47,-100.31 166.91,-89.14"/>
<polygon fill="midnightblue" stroke="midnightblue" points="169.82,-91.1 173.06,-81.01 164.24,-86.87 169.82,-91.1"/>
</g>
<!-- Node5 -->
<g id="node5" class="node">
<title>Node5</title>
<g id="a_node5"><a xlink:title=" ">
<polygon fill="white" stroke="#bfbfbf" points="259,-56.5 259,-86.5 396,-86.5 396,-56.5 259,-56.5"/>
<text text-anchor="start" x="267" y="-74.5" font-family="Helvetica,sans-Serif" font-size="10.00">asm/odenotstub/odenotstub</text>
<text text-anchor="middle" x="327.5" y="-63.5" font-family="Helvetica,sans-Serif" font-size="10.00">/Hu_IsStub.s</text>
</a>
</g>
</g>
<!-- Node1&#45;&gt;Node5 -->
<g id="edge5" class="edge">
<title>Node1&#45;&gt;Node5</title>
<path fill="none" stroke="midnightblue" d="M162.15,-123.48C190.73,-114.66 236.13,-100.67 272.13,-89.57"/>
<polygon fill="midnightblue" stroke="midnightblue" points="273.49,-92.81 282.01,-86.52 271.43,-86.12 273.49,-92.81"/>
</g>
<!-- Node4&#45;&gt;Node3 -->
<g id="edge4" class="edge">
<title>Node4&#45;&gt;Node3</title>
<path fill="none" stroke="midnightblue" d="M173.05,-61.98C166.3,-53.05 155.53,-38.81 147.09,-27.64"/>
<polygon fill="midnightblue" stroke="midnightblue" points="149.76,-25.37 140.94,-19.51 144.18,-29.6 149.76,-25.37"/>
</g>
</g>
</svg>
