<?xml version="1.0" encoding="UTF-8" standalone="no"?>
<!DOCTYPE svg PUBLIC "-//W3C//DTD SVG 1.1//EN"
 "http://www.w3.org/Graphics/SVG/1.1/DTD/svg11.dtd">
<!-- Generated by graphviz version 2.47.0 (20210316.2052)
 -->
<!-- Title: libs/JSystem/JAudio2/osdsp.cpp Pages: 1 -->
<svg width="563pt" height="173pt"
 viewBox="0.00 0.00 563.00 173.00" xmlns="http://www.w3.org/2000/svg" xmlns:xlink="http://www.w3.org/1999/xlink">
<g id="graph0" class="graph" transform="scale(1 1) rotate(0) translate(4 169)">
<title>libs/JSystem/JAudio2/osdsp.cpp</title>
<polygon fill="white" stroke="transparent" points="-4,4 -4,-169 559,-169 559,4 -4,4"/>
<!-- Node1 -->
<g id="node1" class="node">
<title>Node1</title>
<g id="a_node1"><a xlink:title=" ">
<polygon fill="#bfbfbf" stroke="black" points="127,-134.5 127,-164.5 238,-164.5 238,-134.5 127,-134.5"/>
<text text-anchor="start" x="135" y="-152.5" font-family="Helvetica,sans-Serif" font-size="10.00">libs/JSystem/JAudio2</text>
<text text-anchor="middle" x="182.5" y="-141.5" font-family="Helvetica,sans-Serif" font-size="10.00">/osdsp.cpp</text>
</a>
</g>
</g>
<!-- Node2 -->
<g id="node2" class="node">
<title>Node2</title>
<g id="a_node2"><a xlink:href="dol2asm_8h.html" target="_top" xlink:title=" ">
<polygon fill="white" stroke="black" points="0,-67.5 0,-86.5 61,-86.5 61,-67.5 0,-67.5"/>
<text text-anchor="middle" x="30.5" y="-74.5" font-family="Helvetica,sans-Serif" font-size="10.00">dol2asm.h</text>
</a>
</g>
</g>
<!-- Node1&#45;&gt;Node2 -->
<g id="edge1" class="edge">
<title>Node1&#45;&gt;Node2</title>
<path fill="none" stroke="midnightblue" d="M152.11,-134.4C124.64,-121.66 84.55,-103.07 58.02,-90.76"/>
<polygon fill="midnightblue" stroke="midnightblue" points="59.44,-87.57 48.9,-86.53 56.5,-93.92 59.44,-87.57"/>
</g>
<!-- Node3 -->
<g id="node3" class="node">
<title>Node3</title>
<g id="a_node3"><a xlink:href="types_8h.html" target="_top" xlink:title=" ">
<polygon fill="white" stroke="black" points="95,-0.5 95,-19.5 176,-19.5 176,-0.5 95,-0.5"/>
<text text-anchor="middle" x="135.5" y="-7.5" font-family="Helvetica,sans-Serif" font-size="10.00">dolphin/types.h</text>
</a>
</g>
</g>
<!-- Node1&#45;&gt;Node3 -->
<g id="edge2" class="edge">
<title>Node1&#45;&gt;Node3</title>
<path fill="none" stroke="midnightblue" d="M148.65,-134.44C133.46,-126.23 117.07,-114.23 108.5,-98 96.42,-75.14 110.79,-45.99 122.74,-27.91"/>
<polygon fill="midnightblue" stroke="midnightblue" points="125.73,-29.75 128.62,-19.56 120,-25.72 125.73,-29.75"/>
</g>
<!-- Node4 -->
<g id="node4" class="node">
<title>Node4</title>
<g id="a_node4"><a xlink:href="osdsp_8h.html" target="_top" xlink:title=" ">
<polygon fill="white" stroke="black" points="117.5,-67.5 117.5,-86.5 247.5,-86.5 247.5,-67.5 117.5,-67.5"/>
<text text-anchor="middle" x="182.5" y="-74.5" font-family="Helvetica,sans-Serif" font-size="10.00">JSystem/JAudio2/osdsp.h</text>
</a>
</g>
</g>
<!-- Node1&#45;&gt;Node4 -->
<g id="edge3" class="edge">
<title>Node1&#45;&gt;Node4</title>
<path fill="none" stroke="midnightblue" d="M182.5,-134.23C182.5,-123.5 182.5,-108.69 182.5,-96.96"/>
<polygon fill="midnightblue" stroke="midnightblue" points="186,-96.89 182.5,-86.89 179,-96.89 186,-96.89"/>
</g>
<!-- Node5 -->
<g id="node5" class="node">
<title>Node5</title>
<g id="a_node5"><a xlink:title=" ">
<polygon fill="white" stroke="#bfbfbf" points="265.5,-62 265.5,-92 381.5,-92 381.5,-62 265.5,-62"/>
<text text-anchor="start" x="273.5" y="-80" font-family="Helvetica,sans-Serif" font-size="10.00">asm/JSystem/JAudio2</text>
<text text-anchor="middle" x="323.5" y="-69" font-family="Helvetica,sans-Serif" font-size="10.00">/osdsp/DSPAddTask.s</text>
</a>
</g>
</g>
<!-- Node1&#45;&gt;Node5 -->
<g id="edge5" class="edge">
<title>Node1&#45;&gt;Node5</title>
<path fill="none" stroke="midnightblue" d="M210.69,-134.4C232.4,-123.55 262.61,-108.45 286.3,-96.6"/>
<polygon fill="midnightblue" stroke="midnightblue" points="287.98,-99.68 295.35,-92.07 284.84,-93.41 287.98,-99.68"/>
</g>
<!-- Node6 -->
<g id="node6" class="node">
<title>Node6</title>
<g id="a_node6"><a xlink:title=" ">
<polygon fill="white" stroke="#bfbfbf" points="400,-56.5 400,-97.5 555,-97.5 555,-56.5 400,-56.5"/>
<text text-anchor="start" x="408" y="-85.5" font-family="Helvetica,sans-Serif" font-size="10.00">asm/JSystem/JAudio2</text>
<text text-anchor="start" x="408" y="-74.5" font-family="Helvetica,sans-Serif" font-size="10.00">/osdsp/DSPAddPriorTask</text>
<text text-anchor="middle" x="477.5" y="-63.5" font-family="Helvetica,sans-Serif" font-size="10.00">__FP15STRUCT_DSP_TASK.s</text>
</a>
</g>
</g>
<!-- Node1&#45;&gt;Node6 -->
<g id="edge6" class="edge">
<title>Node1&#45;&gt;Node6</title>
<path fill="none" stroke="midnightblue" d="M238.33,-135.16C281.07,-124.94 340.83,-110.66 389.91,-98.93"/>
<polygon fill="midnightblue" stroke="midnightblue" points="390.99,-102.27 399.9,-96.55 389.36,-95.47 390.99,-102.27"/>
</g>
<!-- Node4&#45;&gt;Node3 -->
<g id="edge4" class="edge">
<title>Node4&#45;&gt;Node3</title>
<path fill="none" stroke="midnightblue" d="M176.16,-67.23C168.9,-57.2 156.84,-40.51 147.74,-27.92"/>
<polygon fill="midnightblue" stroke="midnightblue" points="150.43,-25.68 141.74,-19.63 144.76,-29.78 150.43,-25.68"/>
</g>
</g>
</svg>
