<?xml version="1.0" encoding="UTF-8" standalone="no"?>
<!DOCTYPE svg PUBLIC "-//W3C//DTD SVG 1.1//EN"
 "http://www.w3.org/Graphics/SVG/1.1/DTD/svg11.dtd">
<!-- Generated by graphviz version 2.47.0 (20210316.2052)
 -->
<!-- Title: libs/JSystem/JAudio2/osdsp_task.cpp Pages: 1 -->
<svg width="1156pt" height="173pt"
 viewBox="0.00 0.00 1156.00 173.00" xmlns="http://www.w3.org/2000/svg" xmlns:xlink="http://www.w3.org/1999/xlink">
<g id="graph0" class="graph" transform="scale(1 1) rotate(0) translate(4 169)">
<title>libs/JSystem/JAudio2/osdsp_task.cpp</title>
<polygon fill="white" stroke="transparent" points="-4,4 -4,-169 1152,-169 1152,4 -4,4"/>
<!-- Node1 -->
<g id="node1" class="node">
<title>Node1</title>
<g id="a_node1"><a xlink:title=" ">
<polygon fill="#bfbfbf" stroke="black" points="432,-134.5 432,-164.5 543,-164.5 543,-134.5 432,-134.5"/>
<text text-anchor="start" x="440" y="-152.5" font-family="Helvetica,sans-Serif" font-size="10.00">libs/JSystem/JAudio2</text>
<text text-anchor="middle" x="487.5" y="-141.5" font-family="Helvetica,sans-Serif" font-size="10.00">/osdsp_task.cpp</text>
</a>
</g>
</g>
<!-- Node2 -->
<g id="node2" class="node">
<title>Node2</title>
<g id="a_node2"><a xlink:href="dol2asm_8h.html" target="_top" xlink:title=" ">
<polygon fill="white" stroke="black" points="0,-67.5 0,-86.5 61,-86.5 61,-67.5 0,-67.5"/>
<text text-anchor="middle" x="30.5" y="-74.5" font-family="Helvetica,sans-Serif" font-size="10.00">dol2asm.h</text>
</a>
</g>
</g>
<!-- Node1&#45;&gt;Node2 -->
<g id="edge1" class="edge">
<title>Node1&#45;&gt;Node2</title>
<path fill="none" stroke="midnightblue" d="M431.84,-146.88C351.71,-143.39 199.82,-132.42 75.5,-98 69.01,-96.2 62.26,-93.62 56.01,-90.9"/>
<polygon fill="midnightblue" stroke="midnightblue" points="57.28,-87.63 46.74,-86.62 54.35,-93.99 57.28,-87.63"/>
</g>
<!-- Node3 -->
<g id="node3" class="node">
<title>Node3</title>
<g id="a_node3"><a xlink:href="types_8h.html" target="_top" xlink:title=" ">
<polygon fill="white" stroke="black" points="93,-0.5 93,-19.5 174,-19.5 174,-0.5 93,-0.5"/>
<text text-anchor="middle" x="133.5" y="-7.5" font-family="Helvetica,sans-Serif" font-size="10.00">dolphin/types.h</text>
</a>
</g>
</g>
<!-- Node1&#45;&gt;Node3 -->
<g id="edge2" class="edge">
<title>Node1&#45;&gt;Node3</title>
<path fill="none" stroke="midnightblue" d="M431.83,-145.08C331.65,-138.35 129.46,-121.94 108.5,-98 91.07,-78.1 107.37,-46.75 120.58,-27.62"/>
<polygon fill="midnightblue" stroke="midnightblue" points="123.41,-29.68 126.48,-19.54 117.76,-25.55 123.41,-29.68"/>
</g>
<!-- Node4 -->
<g id="node4" class="node">
<title>Node4</title>
<g id="a_node4"><a xlink:href="osdsp__task_8h.html" target="_top" xlink:title=" ">
<polygon fill="white" stroke="black" points="117.5,-62 117.5,-92 239.5,-92 239.5,-62 117.5,-62"/>
<text text-anchor="start" x="125.5" y="-80" font-family="Helvetica,sans-Serif" font-size="10.00">JSystem/JAudio2/osdsp</text>
<text text-anchor="middle" x="178.5" y="-69" font-family="Helvetica,sans-Serif" font-size="10.00">_task.h</text>
</a>
</g>
</g>
<!-- Node1&#45;&gt;Node4 -->
<g id="edge3" class="edge">
<title>Node1&#45;&gt;Node4</title>
<path fill="none" stroke="midnightblue" d="M431.96,-137.79C383.58,-128.2 311.63,-113.32 249.5,-98 245.37,-96.98 241.12,-95.89 236.85,-94.77"/>
<polygon fill="midnightblue" stroke="midnightblue" points="237.46,-91.3 226.89,-92.09 235.64,-98.06 237.46,-91.3"/>
</g>
<!-- Node5 -->
<g id="node5" class="node">
<title>Node5</title>
<g id="a_node5"><a xlink:title=" ">
<polygon fill="white" stroke="#bfbfbf" points="258,-62 258,-92 403,-92 403,-62 258,-62"/>
<text text-anchor="start" x="266" y="-80" font-family="Helvetica,sans-Serif" font-size="10.00">asm/JSystem/JAudio2</text>
<text text-anchor="middle" x="330.5" y="-69" font-family="Helvetica,sans-Serif" font-size="10.00">/osdsp_task/__DSPHandler.s</text>
</a>
</g>
</g>
<!-- Node1&#45;&gt;Node5 -->
<g id="edge5" class="edge">
<title>Node1&#45;&gt;Node5</title>
<path fill="none" stroke="midnightblue" d="M456.11,-134.4C431.72,-123.45 397.71,-108.18 371.22,-96.29"/>
<polygon fill="midnightblue" stroke="midnightblue" points="372.4,-92.98 361.84,-92.07 369.53,-99.36 372.4,-92.98"/>
</g>
<!-- Node6 -->
<g id="node6" class="node">
<title>Node6</title>
<g id="a_node6"><a xlink:title=" ">
<polygon fill="white" stroke="#bfbfbf" points="421,-56.5 421,-97.5 554,-97.5 554,-56.5 421,-56.5"/>
<text text-anchor="start" x="429" y="-85.5" font-family="Helvetica,sans-Serif" font-size="10.00">asm/JSystem/JAudio2</text>
<text text-anchor="start" x="429" y="-74.5" font-family="Helvetica,sans-Serif" font-size="10.00">/osdsp_task/DsyncFrame2</text>
<text text-anchor="middle" x="487.5" y="-63.5" font-family="Helvetica,sans-Serif" font-size="10.00">__FUlUlUl.s</text>
</a>
</g>
</g>
<!-- Node1&#45;&gt;Node6 -->
<g id="edge6" class="edge">
<title>Node1&#45;&gt;Node6</title>
<path fill="none" stroke="midnightblue" d="M487.5,-134.23C487.5,-126.57 487.5,-116.84 487.5,-107.63"/>
<polygon fill="midnightblue" stroke="midnightblue" points="491,-107.59 487.5,-97.59 484,-107.59 491,-107.59"/>
</g>
<!-- Node7 -->
<g id="node7" class="node">
<title>Node7</title>
<g id="a_node7"><a xlink:title=" ">
<polygon fill="white" stroke="#bfbfbf" points="572,-56.5 572,-97.5 705,-97.5 705,-56.5 572,-56.5"/>
<text text-anchor="start" x="580" y="-85.5" font-family="Helvetica,sans-Serif" font-size="10.00">asm/JSystem/JAudio2</text>
<text text-anchor="start" x="580" y="-74.5" font-family="Helvetica,sans-Serif" font-size="10.00">/osdsp_task/DsyncFrame3</text>
<text text-anchor="middle" x="638.5" y="-63.5" font-family="Helvetica,sans-Serif" font-size="10.00">__FUlUlUlUlUl.s</text>
</a>
</g>
</g>
<!-- Node1&#45;&gt;Node7 -->
<g id="edge7" class="edge">
<title>Node1&#45;&gt;Node7</title>
<path fill="none" stroke="midnightblue" d="M517.69,-134.4C537.59,-125.11 564.14,-112.72 587.29,-101.91"/>
<polygon fill="midnightblue" stroke="midnightblue" points="589.05,-104.95 596.63,-97.55 586.09,-98.61 589.05,-104.95"/>
</g>
<!-- Node8 -->
<g id="node8" class="node">
<title>Node8</title>
<g id="a_node8"><a xlink:title=" ">
<polygon fill="white" stroke="#bfbfbf" points="723,-56.5 723,-97.5 850,-97.5 850,-56.5 723,-56.5"/>
<text text-anchor="start" x="731" y="-85.5" font-family="Helvetica,sans-Serif" font-size="10.00">asm/JSystem/JAudio2</text>
<text text-anchor="start" x="731" y="-74.5" font-family="Helvetica,sans-Serif" font-size="10.00">/osdsp_task/Dsp_Update</text>
<text text-anchor="middle" x="786.5" y="-63.5" font-family="Helvetica,sans-Serif" font-size="10.00">_Request__Fv.s</text>
</a>
</g>
</g>
<!-- Node1&#45;&gt;Node8 -->
<g id="edge8" class="edge">
<title>Node1&#45;&gt;Node8</title>
<path fill="none" stroke="midnightblue" d="M543.2,-136.95C587.02,-127.68 649.84,-113.96 713.19,-98.28"/>
<polygon fill="midnightblue" stroke="midnightblue" points="714.09,-101.66 722.94,-95.85 712.39,-94.87 714.09,-101.66"/>
</g>
<!-- Node9 -->
<g id="node9" class="node">
<title>Node9</title>
<g id="a_node9"><a xlink:title=" ">
<polygon fill="white" stroke="#bfbfbf" points="868,-56.5 868,-97.5 999,-97.5 999,-56.5 868,-56.5"/>
<text text-anchor="start" x="876" y="-85.5" font-family="Helvetica,sans-Serif" font-size="10.00">asm/JSystem/JAudio2</text>
<text text-anchor="start" x="876" y="-74.5" font-family="Helvetica,sans-Serif" font-size="10.00">/osdsp_task/Dsp_Running</text>
<text text-anchor="middle" x="933.5" y="-63.5" font-family="Helvetica,sans-Serif" font-size="10.00">_Check__Fv.s</text>
</a>
</g>
</g>
<!-- Node1&#45;&gt;Node9 -->
<g id="edge9" class="edge">
<title>Node1&#45;&gt;Node9</title>
<path fill="none" stroke="midnightblue" d="M543.02,-143.22C614.06,-135.97 741,-121.33 858,-98.19"/>
<polygon fill="midnightblue" stroke="midnightblue" points="858.72,-101.61 867.84,-96.22 857.34,-94.75 858.72,-101.61"/>
</g>
<!-- Node10 -->
<g id="node10" class="node">
<title>Node10</title>
<g id="a_node10"><a xlink:title=" ">
<polygon fill="white" stroke="#bfbfbf" points="1017,-56.5 1017,-97.5 1148,-97.5 1148,-56.5 1017,-56.5"/>
<text text-anchor="start" x="1025" y="-85.5" font-family="Helvetica,sans-Serif" font-size="10.00">asm/JSystem/JAudio2</text>
<text text-anchor="start" x="1025" y="-74.5" font-family="Helvetica,sans-Serif" font-size="10.00">/osdsp_task/Dsp_Running</text>
<text text-anchor="middle" x="1082.5" y="-63.5" font-family="Helvetica,sans-Serif" font-size="10.00">_Start__Fv.s</text>
</a>
</g>
</g>
<!-- Node1&#45;&gt;Node10 -->
<g id="edge10" class="edge">
<title>Node1&#45;&gt;Node10</title>
<path fill="none" stroke="midnightblue" d="M543.06,-146.17C636.95,-141.57 833,-129.08 1006.77,-98.17"/>
<polygon fill="midnightblue" stroke="midnightblue" points="1007.64,-101.57 1016.86,-96.35 1006.4,-94.68 1007.64,-101.57"/>
</g>
<!-- Node4&#45;&gt;Node3 -->
<g id="edge4" class="edge">
<title>Node4&#45;&gt;Node3</title>
<path fill="none" stroke="midnightblue" d="M168.74,-61.9C161.86,-51.96 152.61,-38.61 145.32,-28.07"/>
<polygon fill="midnightblue" stroke="midnightblue" points="148.09,-25.92 139.52,-19.69 142.33,-29.91 148.09,-25.92"/>
</g>
</g>
</svg>
