<?xml version="1.0" encoding="UTF-8" standalone="no"?>
<!DOCTYPE svg PUBLIC "-//W3C//DTD SVG 1.1//EN"
 "http://www.w3.org/Graphics/SVG/1.1/DTD/svg11.dtd">
<!-- Generated by graphviz version 2.47.0 (20210316.2052)
 -->
<!-- Title: libs/dolphin/os/OSFont.cpp Pages: 1 -->
<svg width="642pt" height="151pt"
 viewBox="0.00 0.00 642.00 151.00" xmlns="http://www.w3.org/2000/svg" xmlns:xlink="http://www.w3.org/1999/xlink">
<g id="graph0" class="graph" transform="scale(1 1) rotate(0) translate(4 147)">
<title>libs/dolphin/os/OSFont.cpp</title>
<polygon fill="white" stroke="transparent" points="-4,4 -4,-147 638,-147 638,4 -4,4"/>
<!-- Node1 -->
<g id="node1" class="node">
<title>Node1</title>
<g id="a_node1"><a xlink:title=" ">
<polygon fill="#bfbfbf" stroke="black" points="168.5,-123.5 168.5,-142.5 302.5,-142.5 302.5,-123.5 168.5,-123.5"/>
<text text-anchor="middle" x="235.5" y="-130.5" font-family="Helvetica,sans-Serif" font-size="10.00">libs/dolphin/os/OSFont.cpp</text>
</a>
</g>
</g>
<!-- Node2 -->
<g id="node2" class="node">
<title>Node2</title>
<g id="a_node2"><a xlink:href="dol2asm_8h.html" target="_top" xlink:title=" ">
<polygon fill="white" stroke="black" points="0,-62 0,-81 61,-81 61,-62 0,-62"/>
<text text-anchor="middle" x="30.5" y="-69" font-family="Helvetica,sans-Serif" font-size="10.00">dol2asm.h</text>
</a>
</g>
</g>
<!-- Node1&#45;&gt;Node2 -->
<g id="edge1" class="edge">
<title>Node1&#45;&gt;Node2</title>
<path fill="none" stroke="midnightblue" d="M203.83,-123.47C171.47,-114.67 119.84,-100.37 75.5,-87 72.53,-86.1 69.46,-85.16 66.38,-84.19"/>
<polygon fill="midnightblue" stroke="midnightblue" points="67.21,-80.79 56.62,-81.1 65.1,-87.46 67.21,-80.79"/>
</g>
<!-- Node3 -->
<g id="node3" class="node">
<title>Node3</title>
<g id="a_node3"><a xlink:href="types_8h.html" target="_top" xlink:title=" ">
<polygon fill="white" stroke="black" points="89,-0.5 89,-19.5 170,-19.5 170,-0.5 89,-0.5"/>
<text text-anchor="middle" x="129.5" y="-7.5" font-family="Helvetica,sans-Serif" font-size="10.00">dolphin/types.h</text>
</a>
</g>
</g>
<!-- Node1&#45;&gt;Node3 -->
<g id="edge2" class="edge">
<title>Node1&#45;&gt;Node3</title>
<path fill="none" stroke="midnightblue" d="M168.39,-123.76C145.92,-117.44 123.15,-106.37 109.5,-87 97.15,-69.47 107.5,-44.82 117.33,-28.4"/>
<polygon fill="midnightblue" stroke="midnightblue" points="120.4,-30.1 122.89,-19.8 114.52,-26.3 120.4,-30.1"/>
</g>
<!-- Node4 -->
<g id="node4" class="node">
<title>Node4</title>
<g id="a_node4"><a xlink:href="OSFont_8h.html" target="_top" xlink:title=" ">
<polygon fill="white" stroke="black" points="118,-62 118,-81 223,-81 223,-62 118,-62"/>
<text text-anchor="middle" x="170.5" y="-69" font-family="Helvetica,sans-Serif" font-size="10.00">dolphin/os/OSFont.h</text>
</a>
</g>
</g>
<!-- Node1&#45;&gt;Node4 -->
<g id="edge3" class="edge">
<title>Node1&#45;&gt;Node4</title>
<path fill="none" stroke="midnightblue" d="M226.19,-123.48C216.05,-114.2 199.64,-99.17 187.25,-87.83"/>
<polygon fill="midnightblue" stroke="midnightblue" points="189.54,-85.18 179.8,-81.01 184.81,-90.34 189.54,-85.18"/>
</g>
<!-- Node5 -->
<g id="node5" class="node">
<title>Node5</title>
<g id="a_node5"><a xlink:title=" ">
<polygon fill="white" stroke="#bfbfbf" points="241,-56.5 241,-86.5 360,-86.5 360,-56.5 241,-56.5"/>
<text text-anchor="start" x="249" y="-74.5" font-family="Helvetica,sans-Serif" font-size="10.00">asm/dolphin/os/OSFont</text>
<text text-anchor="middle" x="300.5" y="-63.5" font-family="Helvetica,sans-Serif" font-size="10.00">/GetFontCode.s</text>
</a>
</g>
</g>
<!-- Node1&#45;&gt;Node5 -->
<g id="edge5" class="edge">
<title>Node1&#45;&gt;Node5</title>
<path fill="none" stroke="midnightblue" d="M244.81,-123.48C253.37,-115.64 266.4,-103.71 277.71,-93.37"/>
<polygon fill="midnightblue" stroke="midnightblue" points="280.17,-95.86 285.18,-86.52 275.44,-90.69 280.17,-95.86"/>
</g>
<!-- Node6 -->
<g id="node6" class="node">
<title>Node6</title>
<g id="a_node6"><a xlink:title=" ">
<polygon fill="white" stroke="#bfbfbf" points="378,-56.5 378,-86.5 497,-86.5 497,-56.5 378,-56.5"/>
<text text-anchor="start" x="386" y="-74.5" font-family="Helvetica,sans-Serif" font-size="10.00">asm/dolphin/os/OSFont</text>
<text text-anchor="middle" x="437.5" y="-63.5" font-family="Helvetica,sans-Serif" font-size="10.00">/OSGetFontEncode.s</text>
</a>
</g>
</g>
<!-- Node1&#45;&gt;Node6 -->
<g id="edge6" class="edge">
<title>Node1&#45;&gt;Node6</title>
<path fill="none" stroke="midnightblue" d="M264.44,-123.48C294.48,-114.63 342.28,-100.55 380.03,-89.43"/>
<polygon fill="midnightblue" stroke="midnightblue" points="381.29,-92.71 389.89,-86.52 379.31,-85.99 381.29,-92.71"/>
</g>
<!-- Node7 -->
<g id="node7" class="node">
<title>Node7</title>
<g id="a_node7"><a xlink:title=" ">
<polygon fill="white" stroke="#bfbfbf" points="515,-56.5 515,-86.5 634,-86.5 634,-56.5 515,-56.5"/>
<text text-anchor="start" x="523" y="-74.5" font-family="Helvetica,sans-Serif" font-size="10.00">asm/dolphin/os/OSFont</text>
<text text-anchor="middle" x="574.5" y="-63.5" font-family="Helvetica,sans-Serif" font-size="10.00">/ParseStringS.s</text>
</a>
</g>
</g>
<!-- Node1&#45;&gt;Node7 -->
<g id="edge7" class="edge">
<title>Node1&#45;&gt;Node7</title>
<path fill="none" stroke="midnightblue" d="M291.43,-123.48C344.06,-115.28 425.34,-102.18 504.66,-87.3"/>
<polygon fill="midnightblue" stroke="midnightblue" points="505.65,-90.68 514.83,-85.39 504.35,-83.8 505.65,-90.68"/>
</g>
<!-- Node4&#45;&gt;Node3 -->
<g id="edge4" class="edge">
<title>Node4&#45;&gt;Node3</title>
<path fill="none" stroke="midnightblue" d="M164.63,-61.98C158.54,-53.14 148.86,-39.09 141.2,-27.98"/>
<polygon fill="midnightblue" stroke="midnightblue" points="143.92,-25.76 135.36,-19.51 138.16,-29.73 143.92,-25.76"/>
</g>
</g>
</svg>
