<?xml version="1.0" encoding="UTF-8" standalone="no"?>
<!DOCTYPE svg PUBLIC "-//W3C//DTD SVG 1.1//EN"
 "http://www.w3.org/Graphics/SVG/1.1/DTD/svg11.dtd">
<!-- Generated by graphviz version 2.47.0 (20210316.2052)
 -->
<!-- Title: libs/dolphin/os/OSInterrupt.cpp Pages: 1 -->
<svg width="2135pt" height="151pt"
 viewBox="0.00 0.00 2134.50 151.00" xmlns="http://www.w3.org/2000/svg" xmlns:xlink="http://www.w3.org/1999/xlink">
<g id="graph0" class="graph" transform="scale(1 1) rotate(0) translate(4 147)">
<title>libs/dolphin/os/OSInterrupt.cpp</title>
<polygon fill="white" stroke="transparent" points="-4,4 -4,-147 2130.5,-147 2130.5,4 -4,4"/>
<!-- Node1 -->
<g id="node1" class="node">
<title>Node1</title>
<g id="a_node1"><a xlink:title=" ">
<polygon fill="#bfbfbf" stroke="black" points="903.5,-123.5 903.5,-142.5 1053.5,-142.5 1053.5,-123.5 903.5,-123.5"/>
<text text-anchor="middle" x="978.5" y="-130.5" font-family="Helvetica,sans-Serif" font-size="10.00">libs/dolphin/os/OSInterrupt.cpp</text>
</a>
</g>
</g>
<!-- Node2 -->
<g id="node2" class="node">
<title>Node2</title>
<g id="a_node2"><a xlink:href="dol2asm_8h.html" target="_top" xlink:title=" ">
<polygon fill="white" stroke="black" points="0,-62 0,-81 61,-81 61,-62 0,-62"/>
<text text-anchor="middle" x="30.5" y="-69" font-family="Helvetica,sans-Serif" font-size="10.00">dol2asm.h</text>
</a>
</g>
</g>
<!-- Node1&#45;&gt;Node2 -->
<g id="edge1" class="edge">
<title>Node1&#45;&gt;Node2</title>
<path fill="none" stroke="midnightblue" d="M903.42,-130.78C716.43,-127.35 233.58,-115.89 75.5,-87 71.32,-86.24 66.99,-85.19 62.75,-84"/>
<polygon fill="midnightblue" stroke="midnightblue" points="63.68,-80.63 53.1,-81.06 61.64,-87.32 63.68,-80.63"/>
</g>
<!-- Node3 -->
<g id="node3" class="node">
<title>Node3</title>
<g id="a_node3"><a xlink:href="types_8h.html" target="_top" xlink:title=" ">
<polygon fill="white" stroke="black" points="93,-0.5 93,-19.5 174,-19.5 174,-0.5 93,-0.5"/>
<text text-anchor="middle" x="133.5" y="-7.5" font-family="Helvetica,sans-Serif" font-size="10.00">dolphin/types.h</text>
</a>
</g>
</g>
<!-- Node1&#45;&gt;Node3 -->
<g id="edge2" class="edge">
<title>Node1&#45;&gt;Node3</title>
<path fill="none" stroke="midnightblue" d="M903.3,-130.89C697.02,-127.49 135.68,-115.62 108.5,-87 93.02,-70.7 107.1,-44.65 119.55,-27.68"/>
<polygon fill="midnightblue" stroke="midnightblue" points="122.36,-29.77 125.75,-19.73 116.84,-25.47 122.36,-29.77"/>
</g>
<!-- Node4 -->
<g id="node4" class="node">
<title>Node4</title>
<g id="a_node4"><a xlink:href="OSInterrupt_8h.html" target="_top" xlink:title=" ">
<polygon fill="white" stroke="black" points="117.5,-62 117.5,-81 239.5,-81 239.5,-62 117.5,-62"/>
<text text-anchor="middle" x="178.5" y="-69" font-family="Helvetica,sans-Serif" font-size="10.00">dolphin/os/OSInterrupt.h</text>
</a>
</g>
</g>
<!-- Node1&#45;&gt;Node4 -->
<g id="edge3" class="edge">
<title>Node1&#45;&gt;Node4</title>
<path fill="none" stroke="midnightblue" d="M903.28,-130.9C770.53,-128.16 486.21,-118.78 248.5,-87 240.72,-85.96 232.5,-84.55 224.55,-83.01"/>
<polygon fill="midnightblue" stroke="midnightblue" points="225.16,-79.56 214.66,-81.02 223.77,-86.42 225.16,-79.56"/>
</g>
<!-- Node5 -->
<g id="node5" class="node">
<title>Node5</title>
<g id="a_node5"><a xlink:title=" ">
<polygon fill="white" stroke="#bfbfbf" points="257.5,-56.5 257.5,-86.5 393.5,-86.5 393.5,-56.5 257.5,-56.5"/>
<text text-anchor="start" x="265.5" y="-74.5" font-family="Helvetica,sans-Serif" font-size="10.00">asm/dolphin/os/OSInterrupt</text>
<text text-anchor="middle" x="325.5" y="-63.5" font-family="Helvetica,sans-Serif" font-size="10.00">/OSDisableInterrupts.s</text>
</a>
</g>
</g>
<!-- Node1&#45;&gt;Node5 -->
<g id="edge5" class="edge">
<title>Node1&#45;&gt;Node5</title>
<path fill="none" stroke="midnightblue" d="M903.21,-128.72C794.94,-123.42 588.84,-111.19 404.05,-87.11"/>
<polygon fill="midnightblue" stroke="midnightblue" points="404.24,-83.61 393.87,-85.77 403.33,-90.55 404.24,-83.61"/>
</g>
<!-- Node6 -->
<g id="node6" class="node">
<title>Node6</title>
<g id="a_node6"><a xlink:title=" ">
<polygon fill="white" stroke="#bfbfbf" points="411.5,-56.5 411.5,-86.5 583.5,-86.5 583.5,-56.5 411.5,-56.5"/>
<text text-anchor="start" x="419.5" y="-74.5" font-family="Helvetica,sans-Serif" font-size="10.00">asm/dolphin/os/OSInterrupt</text>
<text text-anchor="middle" x="497.5" y="-63.5" font-family="Helvetica,sans-Serif" font-size="10.00">/__RAS_OSDisableInterrupts_end.s</text>
</a>
</g>
</g>
<!-- Node1&#45;&gt;Node6 -->
<g id="edge6" class="edge">
<title>Node1&#45;&gt;Node6</title>
<path fill="none" stroke="midnightblue" d="M903.32,-124.03C827.66,-115.83 707.37,-102.3 593.62,-87.12"/>
<polygon fill="midnightblue" stroke="midnightblue" points="594.07,-83.65 583.69,-85.79 593.14,-90.59 594.07,-83.65"/>
</g>
<!-- Node7 -->
<g id="node7" class="node">
<title>Node7</title>
<g id="a_node7"><a xlink:title=" ">
<polygon fill="white" stroke="#bfbfbf" points="601.5,-56.5 601.5,-86.5 737.5,-86.5 737.5,-56.5 601.5,-56.5"/>
<text text-anchor="start" x="609.5" y="-74.5" font-family="Helvetica,sans-Serif" font-size="10.00">asm/dolphin/os/OSInterrupt</text>
<text text-anchor="middle" x="669.5" y="-63.5" font-family="Helvetica,sans-Serif" font-size="10.00">/OSEnableInterrupts.s</text>
</a>
</g>
</g>
<!-- Node1&#45;&gt;Node7 -->
<g id="edge7" class="edge">
<title>Node1&#45;&gt;Node7</title>
<path fill="none" stroke="midnightblue" d="M934.23,-123.48C885.64,-114.12 806.71,-98.92 747.65,-87.55"/>
<polygon fill="midnightblue" stroke="midnightblue" points="748.09,-84.07 737.61,-85.62 746.77,-90.94 748.09,-84.07"/>
</g>
<!-- Node8 -->
<g id="node8" class="node">
<title>Node8</title>
<g id="a_node8"><a xlink:title=" ">
<polygon fill="white" stroke="#bfbfbf" points="755.5,-56.5 755.5,-86.5 891.5,-86.5 891.5,-56.5 755.5,-56.5"/>
<text text-anchor="start" x="763.5" y="-74.5" font-family="Helvetica,sans-Serif" font-size="10.00">asm/dolphin/os/OSInterrupt</text>
<text text-anchor="middle" x="823.5" y="-63.5" font-family="Helvetica,sans-Serif" font-size="10.00">/OSRestoreInterrupts.s</text>
</a>
</g>
</g>
<!-- Node1&#45;&gt;Node8 -->
<g id="edge8" class="edge">
<title>Node1&#45;&gt;Node8</title>
<path fill="none" stroke="midnightblue" d="M956.29,-123.48C933.73,-114.81 898.12,-101.15 869.46,-90.14"/>
<polygon fill="midnightblue" stroke="midnightblue" points="870.62,-86.84 860.03,-86.52 868.11,-93.37 870.62,-86.84"/>
</g>
<!-- Node9 -->
<g id="node9" class="node">
<title>Node9</title>
<g id="a_node9"><a xlink:title=" ">
<polygon fill="white" stroke="#bfbfbf" points="910,-56.5 910,-86.5 1047,-86.5 1047,-56.5 910,-56.5"/>
<text text-anchor="start" x="918" y="-74.5" font-family="Helvetica,sans-Serif" font-size="10.00">asm/dolphin/os/OSInterrupt</text>
<text text-anchor="middle" x="978.5" y="-63.5" font-family="Helvetica,sans-Serif" font-size="10.00">/__OSSetInterruptHandler.s</text>
</a>
</g>
</g>
<!-- Node1&#45;&gt;Node9 -->
<g id="edge9" class="edge">
<title>Node1&#45;&gt;Node9</title>
<path fill="none" stroke="midnightblue" d="M978.5,-123.48C978.5,-116.47 978.5,-106.19 978.5,-96.7"/>
<polygon fill="midnightblue" stroke="midnightblue" points="982,-96.52 978.5,-86.52 975,-96.52 982,-96.52"/>
</g>
<!-- Node10 -->
<g id="node10" class="node">
<title>Node10</title>
<g id="a_node10"><a xlink:title=" ">
<polygon fill="white" stroke="#bfbfbf" points="1065,-56.5 1065,-86.5 1202,-86.5 1202,-56.5 1065,-56.5"/>
<text text-anchor="start" x="1073" y="-74.5" font-family="Helvetica,sans-Serif" font-size="10.00">asm/dolphin/os/OSInterrupt</text>
<text text-anchor="middle" x="1133.5" y="-63.5" font-family="Helvetica,sans-Serif" font-size="10.00">/__OSGetInterruptHandler.s</text>
</a>
</g>
</g>
<!-- Node1&#45;&gt;Node10 -->
<g id="edge10" class="edge">
<title>Node1&#45;&gt;Node10</title>
<path fill="none" stroke="midnightblue" d="M1000.71,-123.48C1023.27,-114.81 1058.88,-101.15 1087.54,-90.14"/>
<polygon fill="midnightblue" stroke="midnightblue" points="1088.89,-93.37 1096.97,-86.52 1086.38,-86.84 1088.89,-93.37"/>
</g>
<!-- Node11 -->
<g id="node11" class="node">
<title>Node11</title>
<g id="a_node11"><a xlink:title=" ">
<polygon fill="white" stroke="#bfbfbf" points="1220.5,-56.5 1220.5,-86.5 1356.5,-86.5 1356.5,-56.5 1220.5,-56.5"/>
<text text-anchor="start" x="1228.5" y="-74.5" font-family="Helvetica,sans-Serif" font-size="10.00">asm/dolphin/os/OSInterrupt</text>
<text text-anchor="middle" x="1288.5" y="-63.5" font-family="Helvetica,sans-Serif" font-size="10.00">/__OSInterruptInit.s</text>
</a>
</g>
</g>
<!-- Node1&#45;&gt;Node11 -->
<g id="edge11" class="edge">
<title>Node1&#45;&gt;Node11</title>
<path fill="none" stroke="midnightblue" d="M1022.92,-123.48C1071.74,-114.1 1151.11,-98.87 1210.39,-87.49"/>
<polygon fill="midnightblue" stroke="midnightblue" points="1211.3,-90.88 1220.46,-85.56 1209.98,-84.01 1211.3,-90.88"/>
</g>
<!-- Node12 -->
<g id="node12" class="node">
<title>Node12</title>
<g id="a_node12"><a xlink:title=" ">
<polygon fill="white" stroke="#bfbfbf" points="1374.5,-56.5 1374.5,-86.5 1510.5,-86.5 1510.5,-56.5 1374.5,-56.5"/>
<text text-anchor="start" x="1382.5" y="-74.5" font-family="Helvetica,sans-Serif" font-size="10.00">asm/dolphin/os/OSInterrupt</text>
<text text-anchor="middle" x="1442.5" y="-63.5" font-family="Helvetica,sans-Serif" font-size="10.00">/SetInterruptMask.s</text>
</a>
</g>
</g>
<!-- Node1&#45;&gt;Node12 -->
<g id="edge12" class="edge">
<title>Node1&#45;&gt;Node12</title>
<path fill="none" stroke="midnightblue" d="M1053.62,-124.85C1129.54,-117.26 1250.42,-104.19 1364.18,-87.14"/>
<polygon fill="midnightblue" stroke="midnightblue" points="1364.74,-90.59 1374.11,-85.64 1363.7,-83.67 1364.74,-90.59"/>
</g>
<!-- Node13 -->
<g id="node13" class="node">
<title>Node13</title>
<g id="a_node13"><a xlink:title=" ">
<polygon fill="white" stroke="#bfbfbf" points="1528.5,-56.5 1528.5,-86.5 1664.5,-86.5 1664.5,-56.5 1528.5,-56.5"/>
<text text-anchor="start" x="1536.5" y="-74.5" font-family="Helvetica,sans-Serif" font-size="10.00">asm/dolphin/os/OSInterrupt</text>
<text text-anchor="middle" x="1596.5" y="-63.5" font-family="Helvetica,sans-Serif" font-size="10.00">/__OSMaskInterrupts.s</text>
</a>
</g>
</g>
<!-- Node1&#45;&gt;Node13 -->
<g id="edge13" class="edge">
<title>Node1&#45;&gt;Node13</title>
<path fill="none" stroke="midnightblue" d="M1053.59,-128.21C1156.31,-122.47 1346.54,-109.9 1518.15,-87.09"/>
<polygon fill="midnightblue" stroke="midnightblue" points="1518.68,-90.55 1528.13,-85.75 1517.75,-83.62 1518.68,-90.55"/>
</g>
<!-- Node14 -->
<g id="node14" class="node">
<title>Node14</title>
<g id="a_node14"><a xlink:title=" ">
<polygon fill="white" stroke="#bfbfbf" points="1682.5,-56.5 1682.5,-86.5 1818.5,-86.5 1818.5,-56.5 1682.5,-56.5"/>
<text text-anchor="start" x="1690.5" y="-74.5" font-family="Helvetica,sans-Serif" font-size="10.00">asm/dolphin/os/OSInterrupt</text>
<text text-anchor="middle" x="1750.5" y="-63.5" font-family="Helvetica,sans-Serif" font-size="10.00">/__OSUnmaskInterrupts.s</text>
</a>
</g>
</g>
<!-- Node1&#45;&gt;Node14 -->
<g id="edge14" class="edge">
<title>Node1&#45;&gt;Node14</title>
<path fill="none" stroke="midnightblue" d="M1053.6,-130.13C1179.56,-126.32 1441.47,-115.61 1672.21,-87.06"/>
<polygon fill="midnightblue" stroke="midnightblue" points="1672.65,-90.53 1682.13,-85.82 1671.78,-83.59 1672.65,-90.53"/>
</g>
<!-- Node15 -->
<g id="node15" class="node">
<title>Node15</title>
<g id="a_node15"><a xlink:title=" ">
<polygon fill="white" stroke="#bfbfbf" points="1836.5,-56.5 1836.5,-86.5 1972.5,-86.5 1972.5,-56.5 1836.5,-56.5"/>
<text text-anchor="start" x="1844.5" y="-74.5" font-family="Helvetica,sans-Serif" font-size="10.00">asm/dolphin/os/OSInterrupt</text>
<text text-anchor="middle" x="1904.5" y="-63.5" font-family="Helvetica,sans-Serif" font-size="10.00">/__OSDispatchInterrupt.s</text>
</a>
</g>
</g>
<!-- Node1&#45;&gt;Node15 -->
<g id="edge15" class="edge">
<title>Node1&#45;&gt;Node15</title>
<path fill="none" stroke="midnightblue" d="M1053.75,-131.37C1200.49,-129.41 1535.23,-121.34 1825.82,-87.09"/>
<polygon fill="midnightblue" stroke="midnightblue" points="1826.62,-90.52 1836.14,-85.86 1825.8,-83.57 1826.62,-90.52"/>
</g>
<!-- Node16 -->
<g id="node16" class="node">
<title>Node16</title>
<g id="a_node16"><a xlink:title=" ">
<polygon fill="white" stroke="#bfbfbf" points="1990.5,-56.5 1990.5,-86.5 2126.5,-86.5 2126.5,-56.5 1990.5,-56.5"/>
<text text-anchor="start" x="1998.5" y="-74.5" font-family="Helvetica,sans-Serif" font-size="10.00">asm/dolphin/os/OSInterrupt</text>
<text text-anchor="middle" x="2058.5" y="-63.5" font-family="Helvetica,sans-Serif" font-size="10.00">/ExternalInterruptHandler.s</text>
</a>
</g>
</g>
<!-- Node1&#45;&gt;Node16 -->
<g id="edge16" class="edge">
<title>Node1&#45;&gt;Node16</title>
<path fill="none" stroke="midnightblue" d="M1053.65,-132.25C1219.35,-132.01 1628.62,-127.11 1980.02,-87.06"/>
<polygon fill="midnightblue" stroke="midnightblue" points="1980.61,-90.51 1990.14,-85.89 1979.81,-83.56 1980.61,-90.51"/>
</g>
<!-- Node4&#45;&gt;Node3 -->
<g id="edge4" class="edge">
<title>Node4&#45;&gt;Node3</title>
<path fill="none" stroke="midnightblue" d="M172.05,-61.98C165.3,-53.05 154.53,-38.81 146.09,-27.64"/>
<polygon fill="midnightblue" stroke="midnightblue" points="148.76,-25.37 139.94,-19.51 143.18,-29.6 148.76,-25.37"/>
</g>
</g>
</svg>
