<?xml version="1.0" encoding="UTF-8" standalone="no"?>
<!DOCTYPE svg PUBLIC "-//W3C//DTD SVG 1.1//EN"
 "http://www.w3.org/Graphics/SVG/1.1/DTD/svg11.dtd">
<!-- Generated by graphviz version 2.47.0 (20210316.2052)
 -->
<!-- Title: libs/dolphin/os/OSMemory.cpp Pages: 1 -->
<!--zoomable 151 -->
<svg id="main" version="1.1" xmlns="http://www.w3.org/2000/svg" xmlns:xlink="http://www.w3.org/1999/xlink" xml:space="preserve" onload="init(evt)">
<style type="text/css"><![CDATA[
.edge:hover path { stroke: red; }
.edge:hover polygon { stroke: red; fill: red; }
]]></style>
<script type="text/javascript"><![CDATA[
var edges = document.getElementsByTagName('g');
if (edges && edges.length) {
  for (var i=0;i<edges.length;i++) {
    if (edges[i].id.substr(0,4)=='edge') {
      edges[i].setAttribute('class','edge');
    }
  }
}
]]></script>
        <defs>
                <circle id="rim" cx="0" cy="0" r="7"/>
                <circle id="rim2" cx="0" cy="0" r="3.5"/>
                <g id="zoomPlus">
                        <use xlink:href="#rim" fill="#404040">
                                <set attributeName="fill" to="#808080" begin="zoomplus.mouseover" end="zoomplus.mouseout"/>
                        </use>
                        <path d="M-4,0h8M0,-4v8" fill="none" stroke="white" stroke-width="1.5" pointer-events="none"/>
                </g>
                <g id="zoomMin">
                        <use xlink:href="#rim" fill="#404040">
                                <set attributeName="fill" to="#808080" begin="zoomminus.mouseover" end="zoomminus.mouseout"/>
                        </use>
                        <path d="M-4,0h8" fill="none" stroke="white" stroke-width="1.5" pointer-events="none"/>
                </g>
                <g id="dirArrow">
                        <path fill="none" stroke="white" stroke-width="1.5" d="M0,-3.0v7 M-2.5,-0.5L0,-3.0L2.5,-0.5"/>
                </g>
               <g id="resetDef">
                       <use xlink:href="#rim2" fill="#404040">
                               <set attributeName="fill" to="#808080" begin="reset.mouseover" end="reset.mouseout"/>
                       </use>
               </g>
        </defs>

<script type="text/javascript">
var viewWidth = 1320;
var viewHeight = 151;
var sectionId = 'dynsection-0';
</script>
<script xlink:href="svgpan.js"/>
<svg id="graph" class="graph">
<g id="viewport">
<title>libs/dolphin/os/OSMemory.cpp</title>
<polygon fill="white" stroke="transparent" points="-4,4 -4,-147 1315.5,-147 1315.5,4 -4,4"/>
<!-- Node1 -->
<g id="node1" class="node">
<title>Node1</title>
<g id="a_node1"><a xlink:title=" ">
<polygon fill="#bfbfbf" stroke="black" points="476,-123.5 476,-142.5 625,-142.5 625,-123.5 476,-123.5"/>
<text text-anchor="middle" x="550.5" y="-130.5" font-family="Helvetica,sans-Serif" font-size="10.00">libs/dolphin/os/OSMemory.cpp</text>
</a>
</g>
</g>
<!-- Node2 -->
<g id="node2" class="node">
<title>Node2</title>
<g id="a_node2"><a xlink:href="dol2asm_8h.html" target="_top" xlink:title=" ">
<polygon fill="white" stroke="black" points="0,-62 0,-81 61,-81 61,-62 0,-62"/>
<text text-anchor="middle" x="30.5" y="-69" font-family="Helvetica,sans-Serif" font-size="10.00">dol2asm.h</text>
</a>
</g>
</g>
<!-- Node1&#45;&gt;Node2 -->
<g id="edge1" class="edge">
<title>Node1&#45;&gt;Node2</title>
<path fill="none" stroke="midnightblue" d="M475.71,-129.93C381.5,-126.17 215.05,-115.74 75.5,-87 71.54,-86.19 67.44,-85.15 63.4,-84"/>
<polygon fill="midnightblue" stroke="midnightblue" points="64.18,-80.58 53.6,-81 62.14,-87.28 64.18,-80.58"/>
</g>
<!-- Node3 -->
<g id="node3" class="node">
<title>Node3</title>
<g id="a_node3"><a xlink:href="types_8h.html" target="_top" xlink:title=" ">
<polygon fill="white" stroke="black" points="93,-0.5 93,-19.5 174,-19.5 174,-0.5 93,-0.5"/>
<text text-anchor="middle" x="133.5" y="-7.5" font-family="Helvetica,sans-Serif" font-size="10.00">dolphin/types.h</text>
</a>
</g>
</g>
<!-- Node1&#45;&gt;Node3 -->
<g id="edge2" class="edge">
<title>Node1&#45;&gt;Node3</title>
<path fill="none" stroke="midnightblue" d="M475.79,-129.75C356.17,-125.37 132.61,-113.69 108.5,-87 93.57,-70.48 107.15,-44.84 119.38,-27.99"/>
<polygon fill="midnightblue" stroke="midnightblue" points="122.49,-29.69 125.84,-19.64 116.95,-25.41 122.49,-29.69"/>
</g>
<!-- Node4 -->
<g id="node4" class="node">
<title>Node4</title>
<g id="a_node4"><a xlink:href="OSMemory_8h.html" target="_top" xlink:title=" ">
<polygon fill="white" stroke="black" points="117.5,-62 117.5,-81 237.5,-81 237.5,-62 117.5,-62"/>
<text text-anchor="middle" x="177.5" y="-69" font-family="Helvetica,sans-Serif" font-size="10.00">dolphin/os/OSMemory.h</text>
</a>
</g>
</g>
<!-- Node1&#45;&gt;Node4 -->
<g id="edge3" class="edge">
<title>Node1&#45;&gt;Node4</title>
<path fill="none" stroke="midnightblue" d="M485.08,-123.48C423.39,-115.16 328.43,-101.66 246.5,-87 239.86,-85.81 232.88,-84.46 226.02,-83.08"/>
<polygon fill="midnightblue" stroke="midnightblue" points="226.6,-79.63 216.1,-81.04 225.19,-86.48 226.6,-79.63"/>
</g>
<!-- Node5 -->
<g id="node5" class="node">
<title>Node5</title>
<g id="a_node5"><a xlink:title=" ">
<polygon fill="white" stroke="#bfbfbf" points="255.5,-56.5 255.5,-86.5 389.5,-86.5 389.5,-56.5 255.5,-56.5"/>
<text text-anchor="start" x="263.5" y="-74.5" font-family="Helvetica,sans-Serif" font-size="10.00">asm/dolphin/os/OSMemory</text>
<text text-anchor="middle" x="322.5" y="-63.5" font-family="Helvetica,sans-Serif" font-size="10.00">/OSMemory__OnReset.s</text>
</a>
</g>
</g>
<!-- Node1&#45;&gt;Node5 -->
<g id="edge5" class="edge">
<title>Node1&#45;&gt;Node5</title>
<path fill="none" stroke="midnightblue" d="M517.83,-123.48C483.56,-114.53 428.83,-100.25 386.01,-89.07"/>
<polygon fill="midnightblue" stroke="midnightblue" points="386.79,-85.66 376.24,-86.52 385.03,-92.43 386.79,-85.66"/>
</g>
<!-- Node6 -->
<g id="node6" class="node">
<title>Node6</title>
<g id="a_node6"><a xlink:title=" ">
<polygon fill="white" stroke="#bfbfbf" points="407.5,-56.5 407.5,-86.5 541.5,-86.5 541.5,-56.5 407.5,-56.5"/>
<text text-anchor="start" x="415.5" y="-74.5" font-family="Helvetica,sans-Serif" font-size="10.00">asm/dolphin/os/OSMemory</text>
<text text-anchor="middle" x="474.5" y="-63.5" font-family="Helvetica,sans-Serif" font-size="10.00">/MEMIntrruptHandler.s</text>
</a>
</g>
</g>
<!-- Node1&#45;&gt;Node6 -->
<g id="edge6" class="edge">
<title>Node1&#45;&gt;Node6</title>
<path fill="none" stroke="midnightblue" d="M539.61,-123.48C529.41,-115.49 513.78,-103.25 500.39,-92.77"/>
<polygon fill="midnightblue" stroke="midnightblue" points="502.44,-89.93 492.41,-86.52 498.13,-95.44 502.44,-89.93"/>
</g>
<!-- Node7 -->
<g id="node7" class="node">
<title>Node7</title>
<g id="a_node7"><a xlink:title=" ">
<polygon fill="white" stroke="#bfbfbf" points="559.5,-56.5 559.5,-86.5 693.5,-86.5 693.5,-56.5 559.5,-56.5"/>
<text text-anchor="start" x="567.5" y="-74.5" font-family="Helvetica,sans-Serif" font-size="10.00">asm/dolphin/os/OSMemory</text>
<text text-anchor="middle" x="626.5" y="-63.5" font-family="Helvetica,sans-Serif" font-size="10.00">/OSProtectRange.s</text>
</a>
</g>
</g>
<!-- Node1&#45;&gt;Node7 -->
<g id="edge7" class="edge">
<title>Node1&#45;&gt;Node7</title>
<path fill="none" stroke="midnightblue" d="M561.39,-123.48C571.59,-115.49 587.22,-103.25 600.61,-92.77"/>
<polygon fill="midnightblue" stroke="midnightblue" points="602.87,-95.44 608.59,-86.52 598.56,-89.93 602.87,-95.44"/>
</g>
<!-- Node8 -->
<g id="node8" class="node">
<title>Node8</title>
<g id="a_node8"><a xlink:title=" ">
<polygon fill="white" stroke="#bfbfbf" points="711.5,-56.5 711.5,-86.5 845.5,-86.5 845.5,-56.5 711.5,-56.5"/>
<text text-anchor="start" x="719.5" y="-74.5" font-family="Helvetica,sans-Serif" font-size="10.00">asm/dolphin/os/OSMemory</text>
<text text-anchor="middle" x="778.5" y="-63.5" font-family="Helvetica,sans-Serif" font-size="10.00">/Config24MB.s</text>
</a>
</g>
</g>
<!-- Node1&#45;&gt;Node8 -->
<g id="edge8" class="edge">
<title>Node1&#45;&gt;Node8</title>
<path fill="none" stroke="midnightblue" d="M583.17,-123.48C617.44,-114.53 672.17,-100.25 714.99,-89.07"/>
<polygon fill="midnightblue" stroke="midnightblue" points="715.97,-92.43 724.76,-86.52 714.21,-85.66 715.97,-92.43"/>
</g>
<!-- Node9 -->
<g id="node9" class="node">
<title>Node9</title>
<g id="a_node9"><a xlink:title=" ">
<polygon fill="white" stroke="#bfbfbf" points="863.5,-56.5 863.5,-86.5 997.5,-86.5 997.5,-56.5 863.5,-56.5"/>
<text text-anchor="start" x="871.5" y="-74.5" font-family="Helvetica,sans-Serif" font-size="10.00">asm/dolphin/os/OSMemory</text>
<text text-anchor="middle" x="930.5" y="-63.5" font-family="Helvetica,sans-Serif" font-size="10.00">/Config48MB.s</text>
</a>
</g>
</g>
<!-- Node1&#45;&gt;Node9 -->
<g id="edge9" class="edge">
<title>Node1&#45;&gt;Node9</title>
<path fill="none" stroke="midnightblue" d="M613.21,-123.49C672.54,-115.27 764.33,-102.09 853.39,-87.15"/>
<polygon fill="midnightblue" stroke="midnightblue" points="854.11,-90.58 863.39,-85.46 852.95,-83.67 854.11,-90.58"/>
</g>
<!-- Node10 -->
<g id="node10" class="node">
<title>Node10</title>
<g id="a_node10"><a xlink:title=" ">
<polygon fill="white" stroke="#bfbfbf" points="1015.5,-56.5 1015.5,-86.5 1149.5,-86.5 1149.5,-56.5 1015.5,-56.5"/>
<text text-anchor="start" x="1023.5" y="-74.5" font-family="Helvetica,sans-Serif" font-size="10.00">asm/dolphin/os/OSMemory</text>
<text text-anchor="middle" x="1082.5" y="-63.5" font-family="Helvetica,sans-Serif" font-size="10.00">/RealMode.s</text>
</a>
</g>
</g>
<!-- Node1&#45;&gt;Node10 -->
<g id="edge10" class="edge">
<title>Node1&#45;&gt;Node10</title>
<path fill="none" stroke="midnightblue" d="M625.39,-126.69C713.82,-119.96 865.53,-106.93 1005.37,-87.08"/>
<polygon fill="midnightblue" stroke="midnightblue" points="1006.02,-90.52 1015.42,-85.64 1005.02,-83.59 1006.02,-90.52"/>
</g>
<!-- Node11 -->
<g id="node11" class="node">
<title>Node11</title>
<g id="a_node11"><a xlink:title=" ">
<polygon fill="white" stroke="#bfbfbf" points="1167.5,-56.5 1167.5,-86.5 1311.5,-86.5 1311.5,-56.5 1167.5,-56.5"/>
<text text-anchor="start" x="1175.5" y="-74.5" font-family="Helvetica,sans-Serif" font-size="10.00">asm/dolphin/os/OSMemory</text>
<text text-anchor="middle" x="1239.5" y="-63.5" font-family="Helvetica,sans-Serif" font-size="10.00">/__OSInitMemoryProtection.s</text>
</a>
</g>
</g>
<!-- Node1&#45;&gt;Node11 -->
<g id="edge11" class="edge">
<title>Node1&#45;&gt;Node11</title>
<path fill="none" stroke="midnightblue" d="M625.16,-128.96C738.17,-123.81 959.61,-111.56 1157.15,-87.09"/>
<polygon fill="midnightblue" stroke="midnightblue" points="1157.65,-90.55 1167.13,-85.84 1156.78,-83.61 1157.65,-90.55"/>
</g>
<!-- Node4&#45;&gt;Node3 -->
<g id="edge4" class="edge">
<title>Node4&#45;&gt;Node3</title>
<path fill="none" stroke="midnightblue" d="M171.2,-61.98C164.6,-53.05 154.06,-38.81 145.81,-27.64"/>
<polygon fill="midnightblue" stroke="midnightblue" points="148.55,-25.47 139.79,-19.51 142.92,-29.63 148.55,-25.47"/>
</g>
</g>
</svg>
        <g id="navigator" transform="translate(0 0)" fill="#404254">
                <rect fill="#f2f5e9" fill-opacity="0.5" stroke="#606060" stroke-width=".5" x="0" y="0" width="60" height="60"/>
                <use id="zoomplus" xlink:href="#zoomPlus" x="17" y="9" onmousedown="handleZoom(evt,'in')"/>
                <use id="zoomminus" xlink:href="#zoomMin" x="42" y="9" onmousedown="handleZoom(evt,'out')"/>
                <use id="reset" xlink:href="#resetDef" x="30" y="36" onmousedown="handleReset()"/>
                <g id="arrowUp" xlink:href="#dirArrow" transform="translate(30 24)" onmousedown="handlePan(0,-1)">
                  <use xlink:href="#rim" fill="#404040">
                        <set attributeName="fill" to="#808080" begin="arrowUp.mouseover" end="arrowUp.mouseout"/>
                  </use>
                  <path fill="none" stroke="white" stroke-width="1.5" d="M0,-3.0v7 M-2.5,-0.5L0,-3.0L2.5,-0.5"/>
                </g>
                <g id="arrowRight" xlink:href="#dirArrow" transform="rotate(90) translate(36 -43)" onmousedown="handlePan(1,0)">
                  <use xlink:href="#rim" fill="#404040">
                        <set attributeName="fill" to="#808080" begin="arrowRight.mouseover" end="arrowRight.mouseout"/>
                  </use>
                  <path fill="none" stroke="white" stroke-width="1.5" d="M0,-3.0v7 M-2.5,-0.5L0,-3.0L2.5,-0.5"/>
                </g>
                <g id="arrowDown" xlink:href="#dirArrow" transform="rotate(180) translate(-30 -48)" onmousedown="handlePan(0,1)">
                  <use xlink:href="#rim" fill="#404040">
                        <set attributeName="fill" to="#808080" begin="arrowDown.mouseover" end="arrowDown.mouseout"/>
                  </use>
                  <path fill="none" stroke="white" stroke-width="1.5" d="M0,-3.0v7 M-2.5,-0.5L0,-3.0L2.5,-0.5"/>
                </g>
                <g id="arrowLeft" xlink:href="#dirArrow" transform="rotate(270) translate(-36 17)" onmousedown="handlePan(-1,0)">
                  <use xlink:href="#rim" fill="#404040">
                        <set attributeName="fill" to="#808080" begin="arrowLeft.mouseover" end="arrowLeft.mouseout"/>
                  </use>
                  <path fill="none" stroke="white" stroke-width="1.5" d="M0,-3.0v7 M-2.5,-0.5L0,-3.0L2.5,-0.5"/>
                </g>
        </g>
        <svg viewBox="0 0 15 15" width="100%" height="30px" preserveAspectRatio="xMaxYMin meet">
         <g id="arrow_out" transform="scale(0.3 0.3)">
          <a xlink:href="OSMemory_8cpp__incl_org.svg" target="_base">
           <rect id="button" ry="5" rx="5" y="6" x="6" height="38" width="38"
                fill="#f2f5e9" fill-opacity="0.5" stroke="#606060" stroke-width="1.0"/>
           <path id="arrow"
             d="M 11.500037,31.436501 C 11.940474,20.09759 22.043105,11.32322 32.158766,21.979434 L 37.068811,17.246167 C 37.068811,17.246167 37.088388,32 37.088388,32 L 22.160133,31.978069 C 22.160133,31.978069 26.997745,27.140456 26.997745,27.140456 C 18.528582,18.264221 13.291696,25.230495 11.500037,31.436501 z"
             style="fill:#404040;"/>
          </a>
         </g>
        </svg>
</svg>
