<?xml version="1.0" encoding="UTF-8" standalone="no"?>
<!DOCTYPE svg PUBLIC "-//W3C//DTD SVG 1.1//EN"
 "http://www.w3.org/Graphics/SVG/1.1/DTD/svg11.dtd">
<!-- Generated by graphviz version 2.47.0 (20210316.2052)
 -->
<!-- Title: libs/dolphin/os/OSThread.cpp Pages: 1 -->
<svg width="4444pt" height="151pt"
 viewBox="0.00 0.00 4443.50 151.00" xmlns="http://www.w3.org/2000/svg" xmlns:xlink="http://www.w3.org/1999/xlink">
<g id="graph0" class="graph" transform="scale(1 1) rotate(0) translate(4 147)">
<title>libs/dolphin/os/OSThread.cpp</title>
<polygon fill="white" stroke="transparent" points="-4,4 -4,-147 4439.5,-147 4439.5,4 -4,4"/>
<!-- Node1 -->
<g id="node1" class="node">
<title>Node1</title>
<g id="a_node1"><a xlink:title=" ">
<polygon fill="#bfbfbf" stroke="black" points="2076.5,-123.5 2076.5,-142.5 2220.5,-142.5 2220.5,-123.5 2076.5,-123.5"/>
<text text-anchor="middle" x="2148.5" y="-130.5" font-family="Helvetica,sans-Serif" font-size="10.00">libs/dolphin/os/OSThread.cpp</text>
</a>
</g>
</g>
<!-- Node2 -->
<g id="node2" class="node">
<title>Node2</title>
<g id="a_node2"><a xlink:href="dol2asm_8h.html" target="_top" xlink:title=" ">
<polygon fill="white" stroke="black" points="0,-62 0,-81 61,-81 61,-62 0,-62"/>
<text text-anchor="middle" x="30.5" y="-69" font-family="Helvetica,sans-Serif" font-size="10.00">dol2asm.h</text>
</a>
</g>
</g>
<!-- Node1&#45;&gt;Node2 -->
<g id="edge1" class="edge">
<title>Node1&#45;&gt;Node2</title>
<path fill="none" stroke="midnightblue" d="M2076.33,-131.67C1733.27,-129.95 275.74,-120.69 75.5,-87 71.22,-86.28 66.79,-85.24 62.45,-84.04"/>
<polygon fill="midnightblue" stroke="midnightblue" points="63.2,-80.61 52.61,-81.03 61.15,-87.3 63.2,-80.61"/>
</g>
<!-- Node3 -->
<g id="node3" class="node">
<title>Node3</title>
<g id="a_node3"><a xlink:href="types_8h.html" target="_top" xlink:title=" ">
<polygon fill="white" stroke="black" points="92,-0.5 92,-19.5 173,-19.5 173,-0.5 92,-0.5"/>
<text text-anchor="middle" x="132.5" y="-7.5" font-family="Helvetica,sans-Serif" font-size="10.00">dolphin/types.h</text>
</a>
</g>
</g>
<!-- Node1&#45;&gt;Node3 -->
<g id="edge2" class="edge">
<title>Node1&#45;&gt;Node3</title>
<path fill="none" stroke="midnightblue" d="M2076.36,-131.78C1717.85,-130.51 143.62,-122.9 108.5,-87 92.85,-71 106.57,-44.86 118.78,-27.8"/>
<polygon fill="midnightblue" stroke="midnightblue" points="121.6,-29.88 124.87,-19.8 116.03,-25.64 121.6,-29.88"/>
</g>
<!-- Node4 -->
<g id="node4" class="node">
<title>Node4</title>
<g id="a_node4"><a xlink:href="OSThread_8h.html" target="_top" xlink:title=" ">
<polygon fill="white" stroke="black" points="117.5,-62 117.5,-81 233.5,-81 233.5,-62 117.5,-62"/>
<text text-anchor="middle" x="175.5" y="-69" font-family="Helvetica,sans-Serif" font-size="10.00">dolphin/os/OSThread.h</text>
</a>
</g>
</g>
<!-- Node1&#45;&gt;Node4 -->
<g id="edge3" class="edge">
<title>Node1&#45;&gt;Node4</title>
<path fill="none" stroke="midnightblue" d="M2076.43,-132.09C1774.27,-132.22 608.41,-129.84 243.5,-87 235.66,-86.08 227.39,-84.68 219.42,-83.11"/>
<polygon fill="midnightblue" stroke="midnightblue" points="220.04,-79.67 209.54,-81.06 218.61,-86.52 220.04,-79.67"/>
</g>
<!-- Node5 -->
<g id="node5" class="node">
<title>Node5</title>
<g id="a_node5"><a xlink:title=" ">
<polygon fill="white" stroke="#bfbfbf" points="252,-56.5 252,-86.5 407,-86.5 407,-56.5 252,-56.5"/>
<text text-anchor="start" x="260" y="-74.5" font-family="Helvetica,sans-Serif" font-size="10.00">asm/dolphin/os/OSThread</text>
<text text-anchor="middle" x="329.5" y="-63.5" font-family="Helvetica,sans-Serif" font-size="10.00">/DefaultSwitchThreadCallback.s</text>
</a>
</g>
</g>
<!-- Node1&#45;&gt;Node5 -->
<g id="edge5" class="edge">
<title>Node1&#45;&gt;Node5</title>
<path fill="none" stroke="midnightblue" d="M2076.38,-131.47C1794.59,-129.17 766.77,-118.83 417.36,-86.95"/>
<polygon fill="midnightblue" stroke="midnightblue" points="417.5,-83.45 407.22,-86 416.85,-90.42 417.5,-83.45"/>
</g>
<!-- Node6 -->
<g id="node6" class="node">
<title>Node6</title>
<g id="a_node6"><a xlink:title=" ">
<polygon fill="white" stroke="#bfbfbf" points="425.5,-56.5 425.5,-86.5 579.5,-86.5 579.5,-56.5 425.5,-56.5"/>
<text text-anchor="start" x="433.5" y="-74.5" font-family="Helvetica,sans-Serif" font-size="10.00">asm/dolphin/os/OSThread</text>
<text text-anchor="middle" x="502.5" y="-63.5" font-family="Helvetica,sans-Serif" font-size="10.00">/OSSetSwitchThreadCallback.s</text>
</a>
</g>
</g>
<!-- Node1&#45;&gt;Node6 -->
<g id="edge6" class="edge">
<title>Node1&#45;&gt;Node6</title>
<path fill="none" stroke="midnightblue" d="M2076.39,-131.24C1813.05,-128.28 902.77,-116.19 589.77,-87.01"/>
<polygon fill="midnightblue" stroke="midnightblue" points="590.08,-83.52 579.79,-86.05 589.41,-90.49 590.08,-83.52"/>
</g>
<!-- Node7 -->
<g id="node7" class="node">
<title>Node7</title>
<g id="a_node7"><a xlink:title=" ">
<polygon fill="white" stroke="#bfbfbf" points="597.5,-56.5 597.5,-86.5 727.5,-86.5 727.5,-56.5 597.5,-56.5"/>
<text text-anchor="start" x="605.5" y="-74.5" font-family="Helvetica,sans-Serif" font-size="10.00">asm/dolphin/os/OSThread</text>
<text text-anchor="middle" x="662.5" y="-63.5" font-family="Helvetica,sans-Serif" font-size="10.00">/__OSThreadInit.s</text>
</a>
</g>
</g>
<!-- Node1&#45;&gt;Node7 -->
<g id="edge7" class="edge">
<title>Node1&#45;&gt;Node7</title>
<path fill="none" stroke="midnightblue" d="M2076.44,-131.24C1829.88,-128.42 1020.26,-117.12 738,-87.01"/>
<polygon fill="midnightblue" stroke="midnightblue" points="738.1,-83.5 727.78,-85.89 737.34,-90.46 738.1,-83.5"/>
</g>
<!-- Node8 -->
<g id="node8" class="node">
<title>Node8</title>
<g id="a_node8"><a xlink:title=" ">
<polygon fill="white" stroke="#bfbfbf" points="745.5,-56.5 745.5,-86.5 875.5,-86.5 875.5,-56.5 745.5,-56.5"/>
<text text-anchor="start" x="753.5" y="-74.5" font-family="Helvetica,sans-Serif" font-size="10.00">asm/dolphin/os/OSThread</text>
<text text-anchor="middle" x="810.5" y="-63.5" font-family="Helvetica,sans-Serif" font-size="10.00">/OSInitThreadQueue.s</text>
</a>
</g>
</g>
<!-- Node1&#45;&gt;Node8 -->
<g id="edge8" class="edge">
<title>Node1&#45;&gt;Node8</title>
<path fill="none" stroke="midnightblue" d="M2076.44,-130.93C1847.53,-127.31 1137.69,-114.22 885.98,-87.01"/>
<polygon fill="midnightblue" stroke="midnightblue" points="886.11,-83.5 875.78,-85.87 885.33,-90.46 886.11,-83.5"/>
</g>
<!-- Node9 -->
<g id="node9" class="node">
<title>Node9</title>
<g id="a_node9"><a xlink:title=" ">
<polygon fill="white" stroke="#bfbfbf" points="893.5,-56.5 893.5,-86.5 1023.5,-86.5 1023.5,-56.5 893.5,-56.5"/>
<text text-anchor="start" x="901.5" y="-74.5" font-family="Helvetica,sans-Serif" font-size="10.00">asm/dolphin/os/OSThread</text>
<text text-anchor="middle" x="958.5" y="-63.5" font-family="Helvetica,sans-Serif" font-size="10.00">/OSGetCurrentThread.s</text>
</a>
</g>
</g>
<!-- Node1&#45;&gt;Node9 -->
<g id="edge9" class="edge">
<title>Node1&#45;&gt;Node9</title>
<path fill="none" stroke="midnightblue" d="M2076.39,-130.54C1866.15,-126.05 1255.29,-111.34 1034.02,-87.02"/>
<polygon fill="midnightblue" stroke="midnightblue" points="1034.12,-83.51 1023.78,-85.86 1033.32,-90.46 1034.12,-83.51"/>
</g>
<!-- Node10 -->
<g id="node10" class="node">
<title>Node10</title>
<g id="a_node10"><a xlink:title=" ">
<polygon fill="white" stroke="#bfbfbf" points="1041.5,-56.5 1041.5,-86.5 1171.5,-86.5 1171.5,-56.5 1041.5,-56.5"/>
<text text-anchor="start" x="1049.5" y="-74.5" font-family="Helvetica,sans-Serif" font-size="10.00">asm/dolphin/os/OSThread</text>
<text text-anchor="middle" x="1106.5" y="-63.5" font-family="Helvetica,sans-Serif" font-size="10.00">/OSIsThreadTerminated.s</text>
</a>
</g>
</g>
<!-- Node1&#45;&gt;Node10 -->
<g id="edge10" class="edge">
<title>Node1&#45;&gt;Node10</title>
<path fill="none" stroke="midnightblue" d="M2076.25,-132.26C1916.53,-132.06 1521.33,-127.24 1181.82,-87.03"/>
<polygon fill="midnightblue" stroke="midnightblue" points="1182.13,-83.55 1171.79,-85.83 1181.3,-90.5 1182.13,-83.55"/>
</g>
<!-- Node11 -->
<g id="node11" class="node">
<title>Node11</title>
<g id="a_node11"><a xlink:title=" ">
<polygon fill="white" stroke="#bfbfbf" points="1189.5,-56.5 1189.5,-86.5 1319.5,-86.5 1319.5,-56.5 1189.5,-56.5"/>
<text text-anchor="start" x="1197.5" y="-74.5" font-family="Helvetica,sans-Serif" font-size="10.00">asm/dolphin/os/OSThread</text>
<text text-anchor="middle" x="1254.5" y="-63.5" font-family="Helvetica,sans-Serif" font-size="10.00">/OSDisableScheduler.s</text>
</a>
</g>
</g>
<!-- Node1&#45;&gt;Node11 -->
<g id="edge11" class="edge">
<title>Node1&#45;&gt;Node11</title>
<path fill="none" stroke="midnightblue" d="M2076.36,-131.4C1934.88,-129.48 1611.03,-121.49 1329.78,-87.04"/>
<polygon fill="midnightblue" stroke="midnightblue" points="1330.15,-83.56 1319.79,-85.8 1329.28,-90.51 1330.15,-83.56"/>
</g>
<!-- Node12 -->
<g id="node12" class="node">
<title>Node12</title>
<g id="a_node12"><a xlink:title=" ">
<polygon fill="white" stroke="#bfbfbf" points="1337.5,-56.5 1337.5,-86.5 1467.5,-86.5 1467.5,-56.5 1337.5,-56.5"/>
<text text-anchor="start" x="1345.5" y="-74.5" font-family="Helvetica,sans-Serif" font-size="10.00">asm/dolphin/os/OSThread</text>
<text text-anchor="middle" x="1402.5" y="-63.5" font-family="Helvetica,sans-Serif" font-size="10.00">/OSEnableScheduler.s</text>
</a>
</g>
</g>
<!-- Node1&#45;&gt;Node12 -->
<g id="edge12" class="edge">
<title>Node1&#45;&gt;Node12</title>
<path fill="none" stroke="midnightblue" d="M2076.11,-130.16C1954.44,-126.4 1701.15,-115.74 1477.74,-87.05"/>
<polygon fill="midnightblue" stroke="midnightblue" points="1478.16,-83.58 1467.8,-85.76 1477.26,-90.52 1478.16,-83.58"/>
</g>
<!-- Node13 -->
<g id="node13" class="node">
<title>Node13</title>
<g id="a_node13"><a xlink:title=" ">
<polygon fill="white" stroke="#bfbfbf" points="1485.5,-56.5 1485.5,-86.5 1615.5,-86.5 1615.5,-56.5 1485.5,-56.5"/>
<text text-anchor="start" x="1493.5" y="-74.5" font-family="Helvetica,sans-Serif" font-size="10.00">asm/dolphin/os/OSThread</text>
<text text-anchor="middle" x="1550.5" y="-63.5" font-family="Helvetica,sans-Serif" font-size="10.00">/UnsetRun.s</text>
</a>
</g>
</g>
<!-- Node1&#45;&gt;Node13 -->
<g id="edge13" class="edge">
<title>Node1&#45;&gt;Node13</title>
<path fill="none" stroke="midnightblue" d="M2076.32,-128.2C1977.16,-122.44 1793.08,-109.82 1625.85,-86.94"/>
<polygon fill="midnightblue" stroke="midnightblue" points="1626.26,-83.46 1615.88,-85.56 1625.3,-90.4 1626.26,-83.46"/>
</g>
<!-- Node14 -->
<g id="node14" class="node">
<title>Node14</title>
<g id="a_node14"><a xlink:title=" ">
<polygon fill="white" stroke="#bfbfbf" points="1634,-56.5 1634,-86.5 1769,-86.5 1769,-56.5 1634,-56.5"/>
<text text-anchor="start" x="1642" y="-74.5" font-family="Helvetica,sans-Serif" font-size="10.00">asm/dolphin/os/OSThread</text>
<text text-anchor="middle" x="1701.5" y="-63.5" font-family="Helvetica,sans-Serif" font-size="10.00">/__OSGetEffectivePriority.s</text>
</a>
</g>
</g>
<!-- Node1&#45;&gt;Node14 -->
<g id="edge14" class="edge">
<title>Node1&#45;&gt;Node14</title>
<path fill="none" stroke="midnightblue" d="M2076.34,-124.63C2003.82,-116.9 1888.61,-103.76 1778.97,-87.01"/>
<polygon fill="midnightblue" stroke="midnightblue" points="1779.48,-83.54 1769.06,-85.48 1778.41,-90.46 1779.48,-83.54"/>
</g>
<!-- Node15 -->
<g id="node15" class="node">
<title>Node15</title>
<g id="a_node15"><a xlink:title=" ">
<polygon fill="white" stroke="#bfbfbf" points="1787.5,-56.5 1787.5,-86.5 1917.5,-86.5 1917.5,-56.5 1787.5,-56.5"/>
<text text-anchor="start" x="1795.5" y="-74.5" font-family="Helvetica,sans-Serif" font-size="10.00">asm/dolphin/os/OSThread</text>
<text text-anchor="middle" x="1852.5" y="-63.5" font-family="Helvetica,sans-Serif" font-size="10.00">/SetEffectivePriority.s</text>
</a>
</g>
</g>
<!-- Node1&#45;&gt;Node15 -->
<g id="edge15" class="edge">
<title>Node1&#45;&gt;Node15</title>
<path fill="none" stroke="midnightblue" d="M2106.09,-123.48C2059.64,-114.14 1984.25,-98.98 1927.71,-87.62"/>
<polygon fill="midnightblue" stroke="midnightblue" points="1928.24,-84.15 1917.74,-85.62 1926.86,-91.02 1928.24,-84.15"/>
</g>
<!-- Node16 -->
<g id="node16" class="node">
<title>Node16</title>
<g id="a_node16"><a xlink:title=" ">
<polygon fill="white" stroke="#bfbfbf" points="1935.5,-56.5 1935.5,-86.5 2065.5,-86.5 2065.5,-56.5 1935.5,-56.5"/>
<text text-anchor="start" x="1943.5" y="-74.5" font-family="Helvetica,sans-Serif" font-size="10.00">asm/dolphin/os/OSThread</text>
<text text-anchor="middle" x="2000.5" y="-63.5" font-family="Helvetica,sans-Serif" font-size="10.00">/__OSPromoteThread.s</text>
</a>
</g>
</g>
<!-- Node1&#45;&gt;Node16 -->
<g id="edge16" class="edge">
<title>Node1&#45;&gt;Node16</title>
<path fill="none" stroke="midnightblue" d="M2127.3,-123.48C2105.85,-114.85 2072.05,-101.26 2044.74,-90.29"/>
<polygon fill="midnightblue" stroke="midnightblue" points="2045.96,-87.01 2035.38,-86.52 2043.35,-93.5 2045.96,-87.01"/>
</g>
<!-- Node17 -->
<g id="node17" class="node">
<title>Node17</title>
<g id="a_node17"><a xlink:title=" ">
<polygon fill="white" stroke="#bfbfbf" points="2083.5,-56.5 2083.5,-86.5 2213.5,-86.5 2213.5,-56.5 2083.5,-56.5"/>
<text text-anchor="start" x="2091.5" y="-74.5" font-family="Helvetica,sans-Serif" font-size="10.00">asm/dolphin/os/OSThread</text>
<text text-anchor="middle" x="2148.5" y="-63.5" font-family="Helvetica,sans-Serif" font-size="10.00">/SelectThread.s</text>
</a>
</g>
</g>
<!-- Node1&#45;&gt;Node17 -->
<g id="edge17" class="edge">
<title>Node1&#45;&gt;Node17</title>
<path fill="none" stroke="midnightblue" d="M2148.5,-123.48C2148.5,-116.47 2148.5,-106.19 2148.5,-96.7"/>
<polygon fill="midnightblue" stroke="midnightblue" points="2152,-96.52 2148.5,-86.52 2145,-96.52 2152,-96.52"/>
</g>
<!-- Node18 -->
<g id="node18" class="node">
<title>Node18</title>
<g id="a_node18"><a xlink:title=" ">
<polygon fill="white" stroke="#bfbfbf" points="2231.5,-56.5 2231.5,-86.5 2361.5,-86.5 2361.5,-56.5 2231.5,-56.5"/>
<text text-anchor="start" x="2239.5" y="-74.5" font-family="Helvetica,sans-Serif" font-size="10.00">asm/dolphin/os/OSThread</text>
<text text-anchor="middle" x="2296.5" y="-63.5" font-family="Helvetica,sans-Serif" font-size="10.00">/__OSReschedule.s</text>
</a>
</g>
</g>
<!-- Node1&#45;&gt;Node18 -->
<g id="edge18" class="edge">
<title>Node1&#45;&gt;Node18</title>
<path fill="none" stroke="midnightblue" d="M2169.7,-123.48C2191.15,-114.85 2224.95,-101.26 2252.26,-90.29"/>
<polygon fill="midnightblue" stroke="midnightblue" points="2253.65,-93.5 2261.62,-86.52 2251.04,-87.01 2253.65,-93.5"/>
</g>
<!-- Node19 -->
<g id="node19" class="node">
<title>Node19</title>
<g id="a_node19"><a xlink:title=" ">
<polygon fill="white" stroke="#bfbfbf" points="2379.5,-56.5 2379.5,-86.5 2509.5,-86.5 2509.5,-56.5 2379.5,-56.5"/>
<text text-anchor="start" x="2387.5" y="-74.5" font-family="Helvetica,sans-Serif" font-size="10.00">asm/dolphin/os/OSThread</text>
<text text-anchor="middle" x="2444.5" y="-63.5" font-family="Helvetica,sans-Serif" font-size="10.00">/OSYieldThread.s</text>
</a>
</g>
</g>
<!-- Node1&#45;&gt;Node19 -->
<g id="edge19" class="edge">
<title>Node1&#45;&gt;Node19</title>
<path fill="none" stroke="midnightblue" d="M2190.91,-123.48C2237.36,-114.14 2312.75,-98.98 2369.29,-87.62"/>
<polygon fill="midnightblue" stroke="midnightblue" points="2370.14,-91.02 2379.26,-85.62 2368.76,-84.15 2370.14,-91.02"/>
</g>
<!-- Node20 -->
<g id="node20" class="node">
<title>Node20</title>
<g id="a_node20"><a xlink:title=" ">
<polygon fill="white" stroke="#bfbfbf" points="2527.5,-56.5 2527.5,-86.5 2657.5,-86.5 2657.5,-56.5 2527.5,-56.5"/>
<text text-anchor="start" x="2535.5" y="-74.5" font-family="Helvetica,sans-Serif" font-size="10.00">asm/dolphin/os/OSThread</text>
<text text-anchor="middle" x="2592.5" y="-63.5" font-family="Helvetica,sans-Serif" font-size="10.00">/OSCreateThread.s</text>
</a>
</g>
</g>
<!-- Node1&#45;&gt;Node20 -->
<g id="edge20" class="edge">
<title>Node1&#45;&gt;Node20</title>
<path fill="none" stroke="midnightblue" d="M2220.68,-124.79C2293.15,-117.19 2408.22,-104.16 2517.01,-87.17"/>
<polygon fill="midnightblue" stroke="midnightblue" points="2517.84,-90.58 2527.18,-85.57 2516.75,-83.67 2517.84,-90.58"/>
</g>
<!-- Node21 -->
<g id="node21" class="node">
<title>Node21</title>
<g id="a_node21"><a xlink:title=" ">
<polygon fill="white" stroke="#bfbfbf" points="2675.5,-56.5 2675.5,-86.5 2805.5,-86.5 2805.5,-56.5 2675.5,-56.5"/>
<text text-anchor="start" x="2683.5" y="-74.5" font-family="Helvetica,sans-Serif" font-size="10.00">asm/dolphin/os/OSThread</text>
<text text-anchor="middle" x="2740.5" y="-63.5" font-family="Helvetica,sans-Serif" font-size="10.00">/OSExitThread.s</text>
</a>
</g>
</g>
<!-- Node1&#45;&gt;Node21 -->
<g id="edge21" class="edge">
<title>Node1&#45;&gt;Node21</title>
<path fill="none" stroke="midnightblue" d="M2220.84,-128.16C2319.17,-122.4 2500.65,-109.84 2664.9,-87.13"/>
<polygon fill="midnightblue" stroke="midnightblue" points="2665.78,-90.54 2675.19,-85.69 2664.81,-83.61 2665.78,-90.54"/>
</g>
<!-- Node22 -->
<g id="node22" class="node">
<title>Node22</title>
<g id="a_node22"><a xlink:title=" ">
<polygon fill="white" stroke="#bfbfbf" points="2823.5,-56.5 2823.5,-86.5 2953.5,-86.5 2953.5,-56.5 2823.5,-56.5"/>
<text text-anchor="start" x="2831.5" y="-74.5" font-family="Helvetica,sans-Serif" font-size="10.00">asm/dolphin/os/OSThread</text>
<text text-anchor="middle" x="2888.5" y="-63.5" font-family="Helvetica,sans-Serif" font-size="10.00">/OSCancelThread.s</text>
</a>
</g>
</g>
<!-- Node1&#45;&gt;Node22 -->
<g id="edge22" class="edge">
<title>Node1&#45;&gt;Node22</title>
<path fill="none" stroke="midnightblue" d="M2220.74,-130.1C2341.45,-126.27 2591.9,-115.53 2813.03,-87.08"/>
<polygon fill="midnightblue" stroke="midnightblue" points="2813.74,-90.52 2823.2,-85.76 2812.84,-83.58 2813.74,-90.52"/>
</g>
<!-- Node23 -->
<g id="node23" class="node">
<title>Node23</title>
<g id="a_node23"><a xlink:title=" ">
<polygon fill="white" stroke="#bfbfbf" points="2971.5,-56.5 2971.5,-86.5 3101.5,-86.5 3101.5,-56.5 2971.5,-56.5"/>
<text text-anchor="start" x="2979.5" y="-74.5" font-family="Helvetica,sans-Serif" font-size="10.00">asm/dolphin/os/OSThread</text>
<text text-anchor="middle" x="3036.5" y="-63.5" font-family="Helvetica,sans-Serif" font-size="10.00">/OSDetachThread.s</text>
</a>
</g>
</g>
<!-- Node1&#45;&gt;Node23 -->
<g id="edge23" class="edge">
<title>Node1&#45;&gt;Node23</title>
<path fill="none" stroke="midnightblue" d="M2220.67,-131.35C2361.33,-129.36 2682.09,-121.26 2960.89,-87.08"/>
<polygon fill="midnightblue" stroke="midnightblue" points="2961.72,-90.51 2971.21,-85.8 2960.85,-83.56 2961.72,-90.51"/>
</g>
<!-- Node24 -->
<g id="node24" class="node">
<title>Node24</title>
<g id="a_node24"><a xlink:title=" ">
<polygon fill="white" stroke="#bfbfbf" points="3119.5,-56.5 3119.5,-86.5 3249.5,-86.5 3249.5,-56.5 3119.5,-56.5"/>
<text text-anchor="start" x="3127.5" y="-74.5" font-family="Helvetica,sans-Serif" font-size="10.00">asm/dolphin/os/OSThread</text>
<text text-anchor="middle" x="3184.5" y="-63.5" font-family="Helvetica,sans-Serif" font-size="10.00">/OSResumeThread.s</text>
</a>
</g>
</g>
<!-- Node1&#45;&gt;Node24 -->
<g id="edge24" class="edge">
<title>Node1&#45;&gt;Node24</title>
<path fill="none" stroke="midnightblue" d="M2220.6,-132.23C2379.53,-131.96 2772,-127.02 3109.25,-87.03"/>
<polygon fill="midnightblue" stroke="midnightblue" points="3109.7,-90.5 3119.21,-85.83 3108.87,-83.55 3109.7,-90.5"/>
</g>
<!-- Node25 -->
<g id="node25" class="node">
<title>Node25</title>
<g id="a_node25"><a xlink:title=" ">
<polygon fill="white" stroke="#bfbfbf" points="3267.5,-56.5 3267.5,-86.5 3397.5,-86.5 3397.5,-56.5 3267.5,-56.5"/>
<text text-anchor="start" x="3275.5" y="-74.5" font-family="Helvetica,sans-Serif" font-size="10.00">asm/dolphin/os/OSThread</text>
<text text-anchor="middle" x="3332.5" y="-63.5" font-family="Helvetica,sans-Serif" font-size="10.00">/OSSuspendThread.s</text>
</a>
</g>
</g>
<!-- Node1&#45;&gt;Node25 -->
<g id="edge25" class="edge">
<title>Node1&#45;&gt;Node25</title>
<path fill="none" stroke="midnightblue" d="M2220.6,-130.52C2430.07,-125.99 3037.05,-111.22 3257.04,-87.01"/>
<polygon fill="midnightblue" stroke="midnightblue" points="3257.68,-90.46 3267.22,-85.85 3256.88,-83.51 3257.68,-90.46"/>
</g>
<!-- Node26 -->
<g id="node26" class="node">
<title>Node26</title>
<g id="a_node26"><a xlink:title=" ">
<polygon fill="white" stroke="#bfbfbf" points="3415.5,-56.5 3415.5,-86.5 3545.5,-86.5 3545.5,-56.5 3415.5,-56.5"/>
<text text-anchor="start" x="3423.5" y="-74.5" font-family="Helvetica,sans-Serif" font-size="10.00">asm/dolphin/os/OSThread</text>
<text text-anchor="middle" x="3480.5" y="-63.5" font-family="Helvetica,sans-Serif" font-size="10.00">/OSSleepThread.s</text>
</a>
</g>
</g>
<!-- Node1&#45;&gt;Node26 -->
<g id="edge26" class="edge">
<title>Node1&#45;&gt;Node26</title>
<path fill="none" stroke="midnightblue" d="M2220.62,-130.92C2448.88,-127.26 3154.67,-114.1 3405.07,-87.01"/>
<polygon fill="midnightblue" stroke="midnightblue" points="3405.67,-90.46 3415.22,-85.87 3404.89,-83.5 3405.67,-90.46"/>
</g>
<!-- Node27 -->
<g id="node27" class="node">
<title>Node27</title>
<g id="a_node27"><a xlink:title=" ">
<polygon fill="white" stroke="#bfbfbf" points="3563.5,-56.5 3563.5,-86.5 3693.5,-86.5 3693.5,-56.5 3563.5,-56.5"/>
<text text-anchor="start" x="3571.5" y="-74.5" font-family="Helvetica,sans-Serif" font-size="10.00">asm/dolphin/os/OSThread</text>
<text text-anchor="middle" x="3628.5" y="-63.5" font-family="Helvetica,sans-Serif" font-size="10.00">/OSWakeupThread.s</text>
</a>
</g>
</g>
<!-- Node1&#45;&gt;Node27 -->
<g id="edge27" class="edge">
<title>Node1&#45;&gt;Node27</title>
<path fill="none" stroke="midnightblue" d="M2220.69,-131.23C2466.71,-128.37 3272.12,-116.99 3553.05,-87.01"/>
<polygon fill="midnightblue" stroke="midnightblue" points="3553.66,-90.46 3563.22,-85.88 3552.9,-83.5 3553.66,-90.46"/>
</g>
<!-- Node28 -->
<g id="node28" class="node">
<title>Node28</title>
<g id="a_node28"><a xlink:title=" ">
<polygon fill="white" stroke="#bfbfbf" points="3711.5,-56.5 3711.5,-86.5 3841.5,-86.5 3841.5,-56.5 3711.5,-56.5"/>
<text text-anchor="start" x="3719.5" y="-74.5" font-family="Helvetica,sans-Serif" font-size="10.00">asm/dolphin/os/OSThread</text>
<text text-anchor="middle" x="3776.5" y="-63.5" font-family="Helvetica,sans-Serif" font-size="10.00">/OSSetThreadPriority.s</text>
</a>
</g>
</g>
<!-- Node1&#45;&gt;Node28 -->
<g id="edge28" class="edge">
<title>Node1&#45;&gt;Node28</title>
<path fill="none" stroke="midnightblue" d="M2220.81,-131.49C2483.7,-129.37 3389.14,-119.91 3700.83,-87.03"/>
<polygon fill="midnightblue" stroke="midnightblue" points="3701.66,-90.46 3711.22,-85.9 3700.9,-83.5 3701.66,-90.46"/>
</g>
<!-- Node29 -->
<g id="node29" class="node">
<title>Node29</title>
<g id="a_node29"><a xlink:title=" ">
<polygon fill="white" stroke="#bfbfbf" points="3859.5,-56.5 3859.5,-86.5 3989.5,-86.5 3989.5,-56.5 3859.5,-56.5"/>
<text text-anchor="start" x="3867.5" y="-74.5" font-family="Helvetica,sans-Serif" font-size="10.00">asm/dolphin/os/OSThread</text>
<text text-anchor="middle" x="3924.5" y="-63.5" font-family="Helvetica,sans-Serif" font-size="10.00">/OSGetThreadPriority.s</text>
</a>
</g>
</g>
<!-- Node1&#45;&gt;Node29 -->
<g id="edge29" class="edge">
<title>Node1&#45;&gt;Node29</title>
<path fill="none" stroke="midnightblue" d="M2220.83,-131.7C2499.81,-130.28 3506.88,-122.83 3849.05,-87"/>
<polygon fill="midnightblue" stroke="midnightblue" points="3849.65,-90.46 3859.22,-85.9 3848.9,-83.5 3849.65,-90.46"/>
</g>
<!-- Node30 -->
<g id="node30" class="node">
<title>Node30</title>
<g id="a_node30"><a xlink:title=" ">
<polygon fill="white" stroke="#bfbfbf" points="4007.5,-56.5 4007.5,-86.5 4137.5,-86.5 4137.5,-56.5 4007.5,-56.5"/>
<text text-anchor="start" x="4015.5" y="-74.5" font-family="Helvetica,sans-Serif" font-size="10.00">asm/dolphin/os/OSThread</text>
<text text-anchor="middle" x="4072.5" y="-63.5" font-family="Helvetica,sans-Serif" font-size="10.00">/CheckThreadQueue.s</text>
</a>
</g>
</g>
<!-- Node1&#45;&gt;Node30 -->
<g id="edge30" class="edge">
<title>Node1&#45;&gt;Node30</title>
<path fill="none" stroke="midnightblue" d="M2220.72,-131.88C2514.88,-131.12 3624.4,-125.78 3997.21,-86.98"/>
<polygon fill="midnightblue" stroke="midnightblue" points="3997.65,-90.46 4007.22,-85.91 3996.91,-83.49 3997.65,-90.46"/>
</g>
<!-- Node31 -->
<g id="node31" class="node">
<title>Node31</title>
<g id="a_node31"><a xlink:title=" ">
<polygon fill="white" stroke="#bfbfbf" points="4155.5,-56.5 4155.5,-86.5 4287.5,-86.5 4287.5,-56.5 4155.5,-56.5"/>
<text text-anchor="start" x="4163.5" y="-74.5" font-family="Helvetica,sans-Serif" font-size="10.00">asm/dolphin/os/OSThread</text>
<text text-anchor="middle" x="4221.5" y="-63.5" font-family="Helvetica,sans-Serif" font-size="10.00">/OSCheckActiveThreads.s</text>
</a>
</g>
</g>
<!-- Node1&#45;&gt;Node31 -->
<g id="edge31" class="edge">
<title>Node1&#45;&gt;Node31</title>
<path fill="none" stroke="midnightblue" d="M2220.63,-132C2529.34,-131.77 3741.59,-128.27 4145.37,-86.96"/>
<polygon fill="midnightblue" stroke="midnightblue" points="4145.76,-90.44 4155.34,-85.92 4145.03,-83.48 4145.76,-90.44"/>
</g>
<!-- Node32 -->
<g id="node32" class="node">
<title>Node32</title>
<g id="a_node32"><a xlink:title=" ">
<polygon fill="white" stroke="#bfbfbf" points="4305.5,-56.5 4305.5,-86.5 4435.5,-86.5 4435.5,-56.5 4305.5,-56.5"/>
<text text-anchor="start" x="4313.5" y="-74.5" font-family="Helvetica,sans-Serif" font-size="10.00">asm/dolphin/os/OSThread</text>
<text text-anchor="middle" x="4370.5" y="-63.5" font-family="Helvetica,sans-Serif" font-size="10.00">/OSClearStack.s</text>
</a>
</g>
</g>
<!-- Node1&#45;&gt;Node32 -->
<g id="edge32" class="edge">
<title>Node1&#45;&gt;Node32</title>
<path fill="none" stroke="midnightblue" d="M2220.51,-132.16C2543.32,-132.63 3860,-131.76 4295.11,-86.99"/>
<polygon fill="midnightblue" stroke="midnightblue" points="4295.65,-90.45 4305.22,-85.92 4294.91,-83.49 4295.65,-90.45"/>
</g>
<!-- Node4&#45;&gt;Node3 -->
<g id="edge4" class="edge">
<title>Node4&#45;&gt;Node3</title>
<path fill="none" stroke="midnightblue" d="M169.34,-61.98C162.89,-53.05 152.6,-38.81 144.53,-27.64"/>
<polygon fill="midnightblue" stroke="midnightblue" points="147.34,-25.56 138.65,-19.51 141.67,-29.66 147.34,-25.56"/>
</g>
</g>
</svg>
