<?xml version="1.0" encoding="UTF-8" standalone="no"?>
<!DOCTYPE svg PUBLIC "-//W3C//DTD SVG 1.1//EN"
 "http://www.w3.org/Graphics/SVG/1.1/DTD/svg11.dtd">
<!-- Generated by graphviz version 2.47.0 (20210316.2052)
 -->
<!-- Title: libs/dolphin/si/SIBios.cpp Pages: 1 -->
<!--zoomable 151 -->
<svg id="main" version="1.1" xmlns="http://www.w3.org/2000/svg" xmlns:xlink="http://www.w3.org/1999/xlink" xml:space="preserve" onload="init(evt)">
<style type="text/css"><![CDATA[
.edge:hover path { stroke: red; }
.edge:hover polygon { stroke: red; fill: red; }
]]></style>
<script type="text/javascript"><![CDATA[
var edges = document.getElementsByTagName('g');
if (edges && edges.length) {
  for (var i=0;i<edges.length;i++) {
    if (edges[i].id.substr(0,4)=='edge') {
      edges[i].setAttribute('class','edge');
    }
  }
}
]]></script>
        <defs>
                <circle id="rim" cx="0" cy="0" r="7"/>
                <circle id="rim2" cx="0" cy="0" r="3.5"/>
                <g id="zoomPlus">
                        <use xlink:href="#rim" fill="#404040">
                                <set attributeName="fill" to="#808080" begin="zoomplus.mouseover" end="zoomplus.mouseout"/>
                        </use>
                        <path d="M-4,0h8M0,-4v8" fill="none" stroke="white" stroke-width="1.5" pointer-events="none"/>
                </g>
                <g id="zoomMin">
                        <use xlink:href="#rim" fill="#404040">
                                <set attributeName="fill" to="#808080" begin="zoomminus.mouseover" end="zoomminus.mouseout"/>
                        </use>
                        <path d="M-4,0h8" fill="none" stroke="white" stroke-width="1.5" pointer-events="none"/>
                </g>
                <g id="dirArrow">
                        <path fill="none" stroke="white" stroke-width="1.5" d="M0,-3.0v7 M-2.5,-0.5L0,-3.0L2.5,-0.5"/>
                </g>
               <g id="resetDef">
                       <use xlink:href="#rim2" fill="#404040">
                               <set attributeName="fill" to="#808080" begin="reset.mouseover" end="reset.mouseout"/>
                       </use>
               </g>
        </defs>

<script type="text/javascript">
var viewWidth = 3176;
var viewHeight = 151;
var sectionId = 'dynsection-0';
</script>
<script xlink:href="svgpan.js"/>
<svg id="graph" class="graph">
<g id="viewport">
<title>libs/dolphin/si/SIBios.cpp</title>
<polygon fill="white" stroke="transparent" points="-4,4 -4,-147 3171.5,-147 3171.5,4 -4,4"/>
<!-- Node1 -->
<g id="node1" class="node">
<title>Node1</title>
<g id="a_node1"><a xlink:title=" ">
<polygon fill="#bfbfbf" stroke="black" points="1474.5,-123.5 1474.5,-142.5 1600.5,-142.5 1600.5,-123.5 1474.5,-123.5"/>
<text text-anchor="middle" x="1537.5" y="-130.5" font-family="Helvetica,sans-Serif" font-size="10.00">libs/dolphin/si/SIBios.cpp</text>
</a>
</g>
</g>
<!-- Node2 -->
<g id="node2" class="node">
<title>Node2</title>
<g id="a_node2"><a xlink:href="dol2asm_8h.html" target="_top" xlink:title=" ">
<polygon fill="white" stroke="black" points="0,-62 0,-81 61,-81 61,-62 0,-62"/>
<text text-anchor="middle" x="30.5" y="-69" font-family="Helvetica,sans-Serif" font-size="10.00">dol2asm.h</text>
</a>
</g>
</g>
<!-- Node1&#45;&gt;Node2 -->
<g id="edge1" class="edge">
<title>Node1&#45;&gt;Node2</title>
<path fill="none" stroke="midnightblue" d="M1474.4,-132.41C1230.63,-133.62 350.44,-134.55 75.5,-87 71.31,-86.28 66.98,-85.25 62.73,-84.08"/>
<polygon fill="midnightblue" stroke="midnightblue" points="63.67,-80.71 53.08,-81.14 61.63,-87.4 63.67,-80.71"/>
</g>
<!-- Node3 -->
<g id="node3" class="node">
<title>Node3</title>
<g id="a_node3"><a xlink:href="types_8h.html" target="_top" xlink:title=" ">
<polygon fill="white" stroke="black" points="87,-0.5 87,-19.5 168,-19.5 168,-0.5 87,-0.5"/>
<text text-anchor="middle" x="127.5" y="-7.5" font-family="Helvetica,sans-Serif" font-size="10.00">dolphin/types.h</text>
</a>
</g>
</g>
<!-- Node1&#45;&gt;Node3 -->
<g id="edge2" class="edge">
<title>Node1&#45;&gt;Node3</title>
<path fill="none" stroke="midnightblue" d="M1474.05,-131.19C1200.23,-127.57 132.59,-111.86 108.5,-87 93.25,-71.26 104.73,-45.22 115.33,-28.08"/>
<polygon fill="midnightblue" stroke="midnightblue" points="118.34,-29.87 120.95,-19.6 112.51,-26 118.34,-29.87"/>
</g>
<!-- Node4 -->
<g id="node4" class="node">
<title>Node4</title>
<g id="a_node4"><a xlink:href="SIBios_8h.html" target="_top" xlink:title=" ">
<polygon fill="white" stroke="black" points="117.5,-62 117.5,-81 215.5,-81 215.5,-62 117.5,-62"/>
<text text-anchor="middle" x="166.5" y="-69" font-family="Helvetica,sans-Serif" font-size="10.00">dolphin/si/SIBios.h</text>
</a>
</g>
</g>
<!-- Node1&#45;&gt;Node4 -->
<g id="edge3" class="edge">
<title>Node1&#45;&gt;Node4</title>
<path fill="none" stroke="midnightblue" d="M1474.4,-131.6C1247.04,-129.87 470.27,-121.54 224.5,-87 218.23,-86.12 211.65,-84.83 205.27,-83.39"/>
<polygon fill="midnightblue" stroke="midnightblue" points="206.02,-79.97 195.47,-81.02 204.37,-86.77 206.02,-79.97"/>
</g>
<!-- Node5 -->
<g id="node5" class="node">
<title>Node5</title>
<g id="a_node5"><a xlink:title=" ">
<polygon fill="white" stroke="#bfbfbf" points="233.5,-56.5 233.5,-86.5 345.5,-86.5 345.5,-56.5 233.5,-56.5"/>
<text text-anchor="start" x="241.5" y="-74.5" font-family="Helvetica,sans-Serif" font-size="10.00">asm/dolphin/si/SIBios</text>
<text text-anchor="middle" x="289.5" y="-63.5" font-family="Helvetica,sans-Serif" font-size="10.00">/SIBusy.s</text>
</a>
</g>
</g>
<!-- Node1&#45;&gt;Node5 -->
<g id="edge5" class="edge">
<title>Node1&#45;&gt;Node5</title>
<path fill="none" stroke="midnightblue" d="M1474.16,-131.11C1264.5,-127.92 593.37,-115.77 355.73,-86.96"/>
<polygon fill="midnightblue" stroke="midnightblue" points="356.12,-83.48 345.76,-85.71 355.25,-90.42 356.12,-83.48"/>
</g>
<!-- Node6 -->
<g id="node6" class="node">
<title>Node6</title>
<g id="a_node6"><a xlink:title=" ">
<polygon fill="white" stroke="#bfbfbf" points="363.5,-56.5 363.5,-86.5 475.5,-86.5 475.5,-56.5 363.5,-56.5"/>
<text text-anchor="start" x="371.5" y="-74.5" font-family="Helvetica,sans-Serif" font-size="10.00">asm/dolphin/si/SIBios</text>
<text text-anchor="middle" x="419.5" y="-63.5" font-family="Helvetica,sans-Serif" font-size="10.00">/SIIsChanBusy.s</text>
</a>
</g>
</g>
<!-- Node1&#45;&gt;Node6 -->
<g id="edge6" class="edge">
<title>Node1&#45;&gt;Node6</title>
<path fill="none" stroke="midnightblue" d="M1474.36,-130.77C1280.83,-126.76 696.82,-112.92 485.82,-86.97"/>
<polygon fill="midnightblue" stroke="midnightblue" points="486.12,-83.48 475.76,-85.69 485.24,-90.43 486.12,-83.48"/>
</g>
<!-- Node7 -->
<g id="node7" class="node">
<title>Node7</title>
<g id="a_node7"><a xlink:title=" ">
<polygon fill="white" stroke="#bfbfbf" points="493.5,-56.5 493.5,-86.5 605.5,-86.5 605.5,-56.5 493.5,-56.5"/>
<text text-anchor="start" x="501.5" y="-74.5" font-family="Helvetica,sans-Serif" font-size="10.00">asm/dolphin/si/SIBios</text>
<text text-anchor="middle" x="549.5" y="-63.5" font-family="Helvetica,sans-Serif" font-size="10.00">/CompleteTransfer.s</text>
</a>
</g>
</g>
<!-- Node1&#45;&gt;Node7 -->
<g id="edge7" class="edge">
<title>Node1&#45;&gt;Node7</title>
<path fill="none" stroke="midnightblue" d="M1474.49,-132.62C1326.21,-133.29 943.62,-130.39 615.93,-87.03"/>
<polygon fill="midnightblue" stroke="midnightblue" points="616.14,-83.53 605.76,-85.67 615.21,-90.46 616.14,-83.53"/>
</g>
<!-- Node8 -->
<g id="node8" class="node">
<title>Node8</title>
<g id="a_node8"><a xlink:title=" ">
<polygon fill="white" stroke="#bfbfbf" points="623.5,-56.5 623.5,-86.5 735.5,-86.5 735.5,-56.5 623.5,-56.5"/>
<text text-anchor="start" x="631.5" y="-74.5" font-family="Helvetica,sans-Serif" font-size="10.00">asm/dolphin/si/SIBios</text>
<text text-anchor="middle" x="679.5" y="-63.5" font-family="Helvetica,sans-Serif" font-size="10.00">/SIInterruptHandler.s</text>
</a>
</g>
</g>
<!-- Node1&#45;&gt;Node8 -->
<g id="edge8" class="edge">
<title>Node1&#45;&gt;Node8</title>
<path fill="none" stroke="midnightblue" d="M1474.29,-131.82C1339.63,-130.69 1014.8,-123.99 745.5,-87 745.4,-86.99 745.3,-86.97 745.19,-86.96"/>
<polygon fill="midnightblue" stroke="midnightblue" points="745.98,-83.54 735.56,-85.45 744.9,-90.45 745.98,-83.54"/>
</g>
<!-- Node9 -->
<g id="node9" class="node">
<title>Node9</title>
<g id="a_node9"><a xlink:title=" ">
<polygon fill="white" stroke="#bfbfbf" points="754,-56.5 754,-86.5 885,-86.5 885,-56.5 754,-56.5"/>
<text text-anchor="start" x="762" y="-74.5" font-family="Helvetica,sans-Serif" font-size="10.00">asm/dolphin/si/SIBios</text>
<text text-anchor="middle" x="819.5" y="-63.5" font-family="Helvetica,sans-Serif" font-size="10.00">/SIEnablePollingInterrupt.s</text>
</a>
</g>
</g>
<!-- Node1&#45;&gt;Node9 -->
<g id="edge9" class="edge">
<title>Node1&#45;&gt;Node9</title>
<path fill="none" stroke="midnightblue" d="M1474.27,-130.11C1360.47,-126.17 1113.49,-115.07 895.32,-86.99"/>
<polygon fill="midnightblue" stroke="midnightblue" points="895.64,-83.5 885.28,-85.68 894.74,-90.45 895.64,-83.5"/>
</g>
<!-- Node10 -->
<g id="node10" class="node">
<title>Node10</title>
<g id="a_node10"><a xlink:title=" ">
<polygon fill="white" stroke="#bfbfbf" points="903.5,-56.5 903.5,-86.5 1039.5,-86.5 1039.5,-56.5 903.5,-56.5"/>
<text text-anchor="start" x="911.5" y="-74.5" font-family="Helvetica,sans-Serif" font-size="10.00">asm/dolphin/si/SIBios</text>
<text text-anchor="middle" x="971.5" y="-63.5" font-family="Helvetica,sans-Serif" font-size="10.00">/SIRegisterPollingHandler.s</text>
</a>
</g>
</g>
<!-- Node1&#45;&gt;Node10 -->
<g id="edge10" class="edge">
<title>Node1&#45;&gt;Node10</title>
<path fill="none" stroke="midnightblue" d="M1474.12,-128.02C1380.83,-121.74 1201.19,-108.05 1049.5,-87 1049.4,-86.99 1049.3,-86.97 1049.19,-86.96"/>
<polygon fill="midnightblue" stroke="midnightblue" points="1049.91,-83.53 1039.5,-85.52 1048.88,-90.45 1049.91,-83.53"/>
</g>
<!-- Node11 -->
<g id="node11" class="node">
<title>Node11</title>
<g id="a_node11"><a xlink:title=" ">
<polygon fill="white" stroke="#bfbfbf" points="1058,-56.5 1058,-86.5 1203,-86.5 1203,-56.5 1058,-56.5"/>
<text text-anchor="start" x="1066" y="-74.5" font-family="Helvetica,sans-Serif" font-size="10.00">asm/dolphin/si/SIBios</text>
<text text-anchor="middle" x="1130.5" y="-63.5" font-family="Helvetica,sans-Serif" font-size="10.00">/SIUnregisterPollingHandler.s</text>
</a>
</g>
</g>
<!-- Node1&#45;&gt;Node11 -->
<g id="edge11" class="edge">
<title>Node1&#45;&gt;Node11</title>
<path fill="none" stroke="midnightblue" d="M1474.49,-123.99C1411.11,-115.76 1310.34,-102.25 1213.33,-87.1"/>
<polygon fill="midnightblue" stroke="midnightblue" points="1213.78,-83.62 1203.35,-85.53 1212.69,-90.54 1213.78,-83.62"/>
</g>
<!-- Node12 -->
<g id="node12" class="node">
<title>Node12</title>
<g id="a_node12"><a xlink:title=" ">
<polygon fill="white" stroke="#bfbfbf" points="1221.5,-56.5 1221.5,-86.5 1333.5,-86.5 1333.5,-56.5 1221.5,-56.5"/>
<text text-anchor="start" x="1229.5" y="-74.5" font-family="Helvetica,sans-Serif" font-size="10.00">asm/dolphin/si/SIBios</text>
<text text-anchor="middle" x="1277.5" y="-63.5" font-family="Helvetica,sans-Serif" font-size="10.00">/SIInit.s</text>
</a>
</g>
</g>
<!-- Node1&#45;&gt;Node12 -->
<g id="edge12" class="edge">
<title>Node1&#45;&gt;Node12</title>
<path fill="none" stroke="midnightblue" d="M1500.25,-123.48C1459.53,-114.16 1393.47,-99.04 1343.84,-87.68"/>
<polygon fill="midnightblue" stroke="midnightblue" points="1344.36,-84.21 1333.83,-85.39 1342.8,-91.03 1344.36,-84.21"/>
</g>
<!-- Node13 -->
<g id="node13" class="node">
<title>Node13</title>
<g id="a_node13"><a xlink:title=" ">
<polygon fill="white" stroke="#bfbfbf" points="1351.5,-56.5 1351.5,-86.5 1463.5,-86.5 1463.5,-56.5 1351.5,-56.5"/>
<text text-anchor="start" x="1359.5" y="-74.5" font-family="Helvetica,sans-Serif" font-size="10.00">asm/dolphin/si/SIBios</text>
<text text-anchor="middle" x="1407.5" y="-63.5" font-family="Helvetica,sans-Serif" font-size="10.00">/__SITransfer.s</text>
</a>
</g>
</g>
<!-- Node1&#45;&gt;Node13 -->
<g id="edge13" class="edge">
<title>Node1&#45;&gt;Node13</title>
<path fill="none" stroke="midnightblue" d="M1518.87,-123.48C1500.28,-114.96 1471.12,-101.62 1447.3,-90.72"/>
<polygon fill="midnightblue" stroke="midnightblue" points="1448.69,-87.5 1438.14,-86.52 1445.77,-93.87 1448.69,-87.5"/>
</g>
<!-- Node14 -->
<g id="node14" class="node">
<title>Node14</title>
<g id="a_node14"><a xlink:title=" ">
<polygon fill="white" stroke="#bfbfbf" points="1481.5,-56.5 1481.5,-86.5 1593.5,-86.5 1593.5,-56.5 1481.5,-56.5"/>
<text text-anchor="start" x="1489.5" y="-74.5" font-family="Helvetica,sans-Serif" font-size="10.00">asm/dolphin/si/SIBios</text>
<text text-anchor="middle" x="1537.5" y="-63.5" font-family="Helvetica,sans-Serif" font-size="10.00">/SIGetStatus.s</text>
</a>
</g>
</g>
<!-- Node1&#45;&gt;Node14 -->
<g id="edge14" class="edge">
<title>Node1&#45;&gt;Node14</title>
<path fill="none" stroke="midnightblue" d="M1537.5,-123.48C1537.5,-116.47 1537.5,-106.19 1537.5,-96.7"/>
<polygon fill="midnightblue" stroke="midnightblue" points="1541,-96.52 1537.5,-86.52 1534,-96.52 1541,-96.52"/>
</g>
<!-- Node15 -->
<g id="node15" class="node">
<title>Node15</title>
<g id="a_node15"><a xlink:title=" ">
<polygon fill="white" stroke="#bfbfbf" points="1611.5,-56.5 1611.5,-86.5 1723.5,-86.5 1723.5,-56.5 1611.5,-56.5"/>
<text text-anchor="start" x="1619.5" y="-74.5" font-family="Helvetica,sans-Serif" font-size="10.00">asm/dolphin/si/SIBios</text>
<text text-anchor="middle" x="1667.5" y="-63.5" font-family="Helvetica,sans-Serif" font-size="10.00">/SISetCommand.s</text>
</a>
</g>
</g>
<!-- Node1&#45;&gt;Node15 -->
<g id="edge15" class="edge">
<title>Node1&#45;&gt;Node15</title>
<path fill="none" stroke="midnightblue" d="M1556.13,-123.48C1574.72,-114.96 1603.88,-101.62 1627.7,-90.72"/>
<polygon fill="midnightblue" stroke="midnightblue" points="1629.23,-93.87 1636.86,-86.52 1626.31,-87.5 1629.23,-93.87"/>
</g>
<!-- Node16 -->
<g id="node16" class="node">
<title>Node16</title>
<g id="a_node16"><a xlink:title=" ">
<polygon fill="white" stroke="#bfbfbf" points="1741.5,-56.5 1741.5,-86.5 1863.5,-86.5 1863.5,-56.5 1741.5,-56.5"/>
<text text-anchor="start" x="1749.5" y="-74.5" font-family="Helvetica,sans-Serif" font-size="10.00">asm/dolphin/si/SIBios</text>
<text text-anchor="middle" x="1802.5" y="-63.5" font-family="Helvetica,sans-Serif" font-size="10.00">/SITransferCommands.s</text>
</a>
</g>
</g>
<!-- Node1&#45;&gt;Node16 -->
<g id="edge16" class="edge">
<title>Node1&#45;&gt;Node16</title>
<path fill="none" stroke="midnightblue" d="M1575.47,-123.48C1616.05,-114.36 1681.33,-99.71 1731.5,-88.44"/>
<polygon fill="midnightblue" stroke="midnightblue" points="1732.33,-91.84 1741.32,-86.24 1730.79,-85.01 1732.33,-91.84"/>
</g>
<!-- Node17 -->
<g id="node17" class="node">
<title>Node17</title>
<g id="a_node17"><a xlink:title=" ">
<polygon fill="white" stroke="#bfbfbf" points="1881.5,-56.5 1881.5,-86.5 1993.5,-86.5 1993.5,-56.5 1881.5,-56.5"/>
<text text-anchor="start" x="1889.5" y="-74.5" font-family="Helvetica,sans-Serif" font-size="10.00">asm/dolphin/si/SIBios</text>
<text text-anchor="middle" x="1937.5" y="-63.5" font-family="Helvetica,sans-Serif" font-size="10.00">/SISetXY.s</text>
</a>
</g>
</g>
<!-- Node1&#45;&gt;Node17 -->
<g id="edge17" class="edge">
<title>Node1&#45;&gt;Node17</title>
<path fill="none" stroke="midnightblue" d="M1600.73,-125.15C1666.09,-117.69 1771.28,-104.67 1871.22,-87.14"/>
<polygon fill="midnightblue" stroke="midnightblue" points="1871.95,-90.56 1881.19,-85.37 1870.73,-83.67 1871.95,-90.56"/>
</g>
<!-- Node18 -->
<g id="node18" class="node">
<title>Node18</title>
<g id="a_node18"><a xlink:title=" ">
<polygon fill="white" stroke="#bfbfbf" points="2011.5,-56.5 2011.5,-86.5 2123.5,-86.5 2123.5,-56.5 2011.5,-56.5"/>
<text text-anchor="start" x="2019.5" y="-74.5" font-family="Helvetica,sans-Serif" font-size="10.00">asm/dolphin/si/SIBios</text>
<text text-anchor="middle" x="2067.5" y="-63.5" font-family="Helvetica,sans-Serif" font-size="10.00">/SIEnablePolling.s</text>
</a>
</g>
</g>
<!-- Node1&#45;&gt;Node18 -->
<g id="edge18" class="edge">
<title>Node1&#45;&gt;Node18</title>
<path fill="none" stroke="midnightblue" d="M1600.61,-128.36C1688.32,-122.76 1852.16,-110.32 2000.98,-87.12"/>
<polygon fill="midnightblue" stroke="midnightblue" points="2001.88,-90.52 2011.21,-85.5 2000.79,-83.6 2001.88,-90.52"/>
</g>
<!-- Node19 -->
<g id="node19" class="node">
<title>Node19</title>
<g id="a_node19"><a xlink:title=" ">
<polygon fill="white" stroke="#bfbfbf" points="2141.5,-56.5 2141.5,-86.5 2253.5,-86.5 2253.5,-56.5 2141.5,-56.5"/>
<text text-anchor="start" x="2149.5" y="-74.5" font-family="Helvetica,sans-Serif" font-size="10.00">asm/dolphin/si/SIBios</text>
<text text-anchor="middle" x="2197.5" y="-63.5" font-family="Helvetica,sans-Serif" font-size="10.00">/SIDisablePolling.s</text>
</a>
</g>
</g>
<!-- Node1&#45;&gt;Node19 -->
<g id="edge19" class="edge">
<title>Node1&#45;&gt;Node19</title>
<path fill="none" stroke="midnightblue" d="M1600.8,-130.2C1708.07,-126.51 1932.5,-115.94 2131.18,-87.05"/>
<polygon fill="midnightblue" stroke="midnightblue" points="2131.84,-90.49 2141.22,-85.57 2130.82,-83.57 2131.84,-90.49"/>
</g>
<!-- Node20 -->
<g id="node20" class="node">
<title>Node20</title>
<g id="a_node20"><a xlink:title=" ">
<polygon fill="white" stroke="#bfbfbf" points="2271.5,-56.5 2271.5,-86.5 2387.5,-86.5 2387.5,-56.5 2271.5,-56.5"/>
<text text-anchor="start" x="2279.5" y="-74.5" font-family="Helvetica,sans-Serif" font-size="10.00">asm/dolphin/si/SIBios</text>
<text text-anchor="middle" x="2329.5" y="-63.5" font-family="Helvetica,sans-Serif" font-size="10.00">/SIGetResponseRaw.s</text>
</a>
</g>
</g>
<!-- Node1&#45;&gt;Node20 -->
<g id="edge20" class="edge">
<title>Node1&#45;&gt;Node20</title>
<path fill="none" stroke="midnightblue" d="M1600.85,-131.28C1725.59,-129.16 2011.86,-120.86 2261.51,-86.99"/>
<polygon fill="midnightblue" stroke="midnightblue" points="2262.06,-90.44 2271.49,-85.62 2261.11,-83.51 2262.06,-90.44"/>
</g>
<!-- Node21 -->
<g id="node21" class="node">
<title>Node21</title>
<g id="a_node21"><a xlink:title=" ">
<polygon fill="white" stroke="#bfbfbf" points="2405.5,-56.5 2405.5,-86.5 2517.5,-86.5 2517.5,-56.5 2405.5,-56.5"/>
<text text-anchor="start" x="2413.5" y="-74.5" font-family="Helvetica,sans-Serif" font-size="10.00">asm/dolphin/si/SIBios</text>
<text text-anchor="middle" x="2461.5" y="-63.5" font-family="Helvetica,sans-Serif" font-size="10.00">/SIGetResponse.s</text>
</a>
</g>
</g>
<!-- Node1&#45;&gt;Node21 -->
<g id="edge21" class="edge">
<title>Node1&#45;&gt;Node21</title>
<path fill="none" stroke="midnightblue" d="M1600.62,-132.29C1741.59,-132.17 2092.76,-127.55 2394.96,-87.05"/>
<polygon fill="midnightblue" stroke="midnightblue" points="2395.8,-90.47 2405.23,-85.66 2394.85,-83.53 2395.8,-90.47"/>
</g>
<!-- Node22 -->
<g id="node22" class="node">
<title>Node22</title>
<g id="a_node22"><a xlink:title=" ">
<polygon fill="white" stroke="#bfbfbf" points="2535.5,-56.5 2535.5,-86.5 2647.5,-86.5 2647.5,-56.5 2535.5,-56.5"/>
<text text-anchor="start" x="2543.5" y="-74.5" font-family="Helvetica,sans-Serif" font-size="10.00">asm/dolphin/si/SIBios</text>
<text text-anchor="middle" x="2591.5" y="-63.5" font-family="Helvetica,sans-Serif" font-size="10.00">/AlarmHandler.s</text>
</a>
</g>
</g>
<!-- Node1&#45;&gt;Node22 -->
<g id="edge22" class="edge">
<title>Node1&#45;&gt;Node22</title>
<path fill="none" stroke="midnightblue" d="M1600.76,-130.56C1786.25,-126.12 2327.51,-111.51 2525.24,-86.97"/>
<polygon fill="midnightblue" stroke="midnightblue" points="2525.77,-90.43 2535.24,-85.68 2524.87,-83.49 2525.77,-90.43"/>
</g>
<!-- Node23 -->
<g id="node23" class="node">
<title>Node23</title>
<g id="a_node23"><a xlink:title=" ">
<polygon fill="white" stroke="#bfbfbf" points="2665.5,-56.5 2665.5,-86.5 2777.5,-86.5 2777.5,-56.5 2665.5,-56.5"/>
<text text-anchor="start" x="2673.5" y="-74.5" font-family="Helvetica,sans-Serif" font-size="10.00">asm/dolphin/si/SIBios</text>
<text text-anchor="middle" x="2721.5" y="-63.5" font-family="Helvetica,sans-Serif" font-size="10.00">/SITransfer.s</text>
</a>
</g>
</g>
<!-- Node1&#45;&gt;Node23 -->
<g id="edge23" class="edge">
<title>Node1&#45;&gt;Node23</title>
<path fill="none" stroke="midnightblue" d="M1600.6,-130.95C1802.26,-127.37 2430.56,-114.37 2655.17,-86.97"/>
<polygon fill="midnightblue" stroke="midnightblue" points="2655.76,-90.43 2665.24,-85.7 2654.88,-83.48 2655.76,-90.43"/>
</g>
<!-- Node24 -->
<g id="node24" class="node">
<title>Node24</title>
<g id="a_node24"><a xlink:title=" ">
<polygon fill="white" stroke="#bfbfbf" points="2795.5,-56.5 2795.5,-86.5 2907.5,-86.5 2907.5,-56.5 2795.5,-56.5"/>
<text text-anchor="start" x="2803.5" y="-74.5" font-family="Helvetica,sans-Serif" font-size="10.00">asm/dolphin/si/SIBios</text>
<text text-anchor="middle" x="2851.5" y="-63.5" font-family="Helvetica,sans-Serif" font-size="10.00">/GetTypeCallback.s</text>
</a>
</g>
</g>
<!-- Node1&#45;&gt;Node24 -->
<g id="edge24" class="edge">
<title>Node1&#45;&gt;Node24</title>
<path fill="none" stroke="midnightblue" d="M1600.51,-131.26C1817.45,-128.47 2533.45,-117.25 2785.05,-86.98"/>
<polygon fill="midnightblue" stroke="midnightblue" points="2785.75,-90.42 2795.24,-85.71 2784.89,-83.48 2785.75,-90.42"/>
</g>
<!-- Node25 -->
<g id="node25" class="node">
<title>Node25</title>
<g id="a_node25"><a xlink:title=" ">
<polygon fill="white" stroke="#bfbfbf" points="2925.5,-56.5 2925.5,-86.5 3037.5,-86.5 3037.5,-56.5 2925.5,-56.5"/>
<text text-anchor="start" x="2933.5" y="-74.5" font-family="Helvetica,sans-Serif" font-size="10.00">asm/dolphin/si/SIBios</text>
<text text-anchor="middle" x="2981.5" y="-63.5" font-family="Helvetica,sans-Serif" font-size="10.00">/SIGetType.s</text>
</a>
</g>
</g>
<!-- Node1&#45;&gt;Node25 -->
<g id="edge25" class="edge">
<title>Node1&#45;&gt;Node25</title>
<path fill="none" stroke="midnightblue" d="M1600.89,-131.5C1832.99,-129.45 2636.92,-120.13 2915.17,-86.97"/>
<polygon fill="midnightblue" stroke="midnightblue" points="2915.75,-90.42 2925.24,-85.72 2914.89,-83.47 2915.75,-90.42"/>
</g>
<!-- Node26 -->
<g id="node26" class="node">
<title>Node26</title>
<g id="a_node26"><a xlink:title=" ">
<polygon fill="white" stroke="#bfbfbf" points="3055.5,-56.5 3055.5,-86.5 3167.5,-86.5 3167.5,-56.5 3055.5,-56.5"/>
<text text-anchor="start" x="3063.5" y="-74.5" font-family="Helvetica,sans-Serif" font-size="10.00">asm/dolphin/si/SIBios</text>
<text text-anchor="middle" x="3111.5" y="-63.5" font-family="Helvetica,sans-Serif" font-size="10.00">/SIGetTypeAsync.s</text>
</a>
</g>
</g>
<!-- Node1&#45;&gt;Node26 -->
<g id="edge26" class="edge">
<title>Node1&#45;&gt;Node26</title>
<path fill="none" stroke="midnightblue" d="M1600.81,-131.71C1846.75,-130.35 2739.74,-123.05 3045.07,-86.97"/>
<polygon fill="midnightblue" stroke="midnightblue" points="3045.74,-90.42 3055.24,-85.73 3044.89,-83.47 3045.74,-90.42"/>
</g>
<!-- Node4&#45;&gt;Node3 -->
<g id="edge4" class="edge">
<title>Node4&#45;&gt;Node3</title>
<path fill="none" stroke="midnightblue" d="M160.91,-61.98C155.12,-53.14 145.91,-39.09 138.63,-27.98"/>
<polygon fill="midnightblue" stroke="midnightblue" points="141.49,-25.95 133.08,-19.51 135.63,-29.79 141.49,-25.95"/>
</g>
</g>
</svg>
        <g id="navigator" transform="translate(0 0)" fill="#404254">
                <rect fill="#f2f5e9" fill-opacity="0.5" stroke="#606060" stroke-width=".5" x="0" y="0" width="60" height="60"/>
                <use id="zoomplus" xlink:href="#zoomPlus" x="17" y="9" onmousedown="handleZoom(evt,'in')"/>
                <use id="zoomminus" xlink:href="#zoomMin" x="42" y="9" onmousedown="handleZoom(evt,'out')"/>
                <use id="reset" xlink:href="#resetDef" x="30" y="36" onmousedown="handleReset()"/>
                <g id="arrowUp" xlink:href="#dirArrow" transform="translate(30 24)" onmousedown="handlePan(0,-1)">
                  <use xlink:href="#rim" fill="#404040">
                        <set attributeName="fill" to="#808080" begin="arrowUp.mouseover" end="arrowUp.mouseout"/>
                  </use>
                  <path fill="none" stroke="white" stroke-width="1.5" d="M0,-3.0v7 M-2.5,-0.5L0,-3.0L2.5,-0.5"/>
                </g>
                <g id="arrowRight" xlink:href="#dirArrow" transform="rotate(90) translate(36 -43)" onmousedown="handlePan(1,0)">
                  <use xlink:href="#rim" fill="#404040">
                        <set attributeName="fill" to="#808080" begin="arrowRight.mouseover" end="arrowRight.mouseout"/>
                  </use>
                  <path fill="none" stroke="white" stroke-width="1.5" d="M0,-3.0v7 M-2.5,-0.5L0,-3.0L2.5,-0.5"/>
                </g>
                <g id="arrowDown" xlink:href="#dirArrow" transform="rotate(180) translate(-30 -48)" onmousedown="handlePan(0,1)">
                  <use xlink:href="#rim" fill="#404040">
                        <set attributeName="fill" to="#808080" begin="arrowDown.mouseover" end="arrowDown.mouseout"/>
                  </use>
                  <path fill="none" stroke="white" stroke-width="1.5" d="M0,-3.0v7 M-2.5,-0.5L0,-3.0L2.5,-0.5"/>
                </g>
                <g id="arrowLeft" xlink:href="#dirArrow" transform="rotate(270) translate(-36 17)" onmousedown="handlePan(-1,0)">
                  <use xlink:href="#rim" fill="#404040">
                        <set attributeName="fill" to="#808080" begin="arrowLeft.mouseover" end="arrowLeft.mouseout"/>
                  </use>
                  <path fill="none" stroke="white" stroke-width="1.5" d="M0,-3.0v7 M-2.5,-0.5L0,-3.0L2.5,-0.5"/>
                </g>
        </g>
        <svg viewBox="0 0 15 15" width="100%" height="30px" preserveAspectRatio="xMaxYMin meet">
         <g id="arrow_out" transform="scale(0.3 0.3)">
          <a xlink:href="SIBios_8cpp__incl_org.svg" target="_base">
           <rect id="button" ry="5" rx="5" y="6" x="6" height="38" width="38"
                fill="#f2f5e9" fill-opacity="0.5" stroke="#606060" stroke-width="1.0"/>
           <path id="arrow"
             d="M 11.500037,31.436501 C 11.940474,20.09759 22.043105,11.32322 32.158766,21.979434 L 37.068811,17.246167 C 37.068811,17.246167 37.088388,32 37.088388,32 L 22.160133,31.978069 C 22.160133,31.978069 26.997745,27.140456 26.997745,27.140456 C 18.528582,18.264221 13.291696,25.230495 11.500037,31.436501 z"
             style="fill:#404040;"/>
          </a>
         </g>
        </svg>
</svg>
