<?xml version="1.0" encoding="UTF-8" standalone="no"?>
<!DOCTYPE svg PUBLIC "-//W3C//DTD SVG 1.1//EN"
 "http://www.w3.org/Graphics/SVG/1.1/DTD/svg11.dtd">
<!-- Generated by graphviz version 2.47.0 (20210316.2052)
 -->
<!-- Title: libs/JSystem/JStudio/JStudio/stb.cpp Pages: 1 -->
<!--zoomable 195 -->
<svg id="main" version="1.1" xmlns="http://www.w3.org/2000/svg" xmlns:xlink="http://www.w3.org/1999/xlink" xml:space="preserve" onload="init(evt)">
<style type="text/css"><![CDATA[
.edge:hover path { stroke: red; }
.edge:hover polygon { stroke: red; fill: red; }
]]></style>
<script type="text/javascript"><![CDATA[
var edges = document.getElementsByTagName('g');
if (edges && edges.length) {
  for (var i=0;i<edges.length;i++) {
    if (edges[i].id.substr(0,4)=='edge') {
      edges[i].setAttribute('class','edge');
    }
  }
}
]]></script>
        <defs>
                <circle id="rim" cx="0" cy="0" r="7"/>
                <circle id="rim2" cx="0" cy="0" r="3.5"/>
                <g id="zoomPlus">
                        <use xlink:href="#rim" fill="#404040">
                                <set attributeName="fill" to="#808080" begin="zoomplus.mouseover" end="zoomplus.mouseout"/>
                        </use>
                        <path d="M-4,0h8M0,-4v8" fill="none" stroke="white" stroke-width="1.5" pointer-events="none"/>
                </g>
                <g id="zoomMin">
                        <use xlink:href="#rim" fill="#404040">
                                <set attributeName="fill" to="#808080" begin="zoomminus.mouseover" end="zoomminus.mouseout"/>
                        </use>
                        <path d="M-4,0h8" fill="none" stroke="white" stroke-width="1.5" pointer-events="none"/>
                </g>
                <g id="dirArrow">
                        <path fill="none" stroke="white" stroke-width="1.5" d="M0,-3.0v7 M-2.5,-0.5L0,-3.0L2.5,-0.5"/>
                </g>
               <g id="resetDef">
                       <use xlink:href="#rim2" fill="#404040">
                               <set attributeName="fill" to="#808080" begin="reset.mouseover" end="reset.mouseout"/>
                       </use>
               </g>
        </defs>

<script type="text/javascript">
var viewWidth = 7178;
var viewHeight = 195;
var sectionId = 'dynsection-0';
</script>
<script xlink:href="svgpan.js"/>
<svg id="graph" class="graph">
<g id="viewport">
<title>libs/JSystem/JStudio/JStudio/stb.cpp</title>
<polygon fill="white" stroke="transparent" points="-4,4 -4,-191 7173.5,-191 7173.5,4 -4,4"/>
<!-- Node1 -->
<g id="node1" class="node">
<title>Node1</title>
<g id="a_node1"><a xlink:title=" ">
<polygon fill="#bfbfbf" stroke="black" points="3220,-156.5 3220,-186.5 3329,-186.5 3329,-156.5 3220,-156.5"/>
<text text-anchor="start" x="3228" y="-174.5" font-family="Helvetica,sans-Serif" font-size="10.00">libs/JSystem/JStudio</text>
<text text-anchor="middle" x="3274.5" y="-163.5" font-family="Helvetica,sans-Serif" font-size="10.00">/JStudio/stb.cpp</text>
</a>
</g>
</g>
<!-- Node2 -->
<g id="node2" class="node">
<title>Node2</title>
<g id="a_node2"><a xlink:href="dol2asm_8h.html" target="_top" xlink:title=" ">
<polygon fill="white" stroke="black" points="0,-78.5 0,-97.5 61,-97.5 61,-78.5 0,-78.5"/>
<text text-anchor="middle" x="30.5" y="-85.5" font-family="Helvetica,sans-Serif" font-size="10.00">dol2asm.h</text>
</a>
</g>
</g>
<!-- Node1&#45;&gt;Node2 -->
<g id="edge1" class="edge">
<title>Node1&#45;&gt;Node2</title>
<path fill="none" stroke="midnightblue" d="M3219.89,-170.54C2810.35,-170.71 231.32,-169.83 75.5,-120 65.28,-116.73 55.31,-110.3 47.36,-104.14"/>
<polygon fill="midnightblue" stroke="midnightblue" points="49.55,-101.41 39.61,-97.72 45.08,-106.8 49.55,-101.41"/>
</g>
<!-- Node3 -->
<g id="node3" class="node">
<title>Node3</title>
<g id="a_node3"><a xlink:href="types_8h.html" target="_top" xlink:title=" ">
<polygon fill="white" stroke="black" points="95,-0.5 95,-19.5 176,-19.5 176,-0.5 95,-0.5"/>
<text text-anchor="middle" x="135.5" y="-7.5" font-family="Helvetica,sans-Serif" font-size="10.00">dolphin/types.h</text>
</a>
</g>
</g>
<!-- Node1&#45;&gt;Node3 -->
<g id="edge2" class="edge">
<title>Node1&#45;&gt;Node3</title>
<path fill="none" stroke="midnightblue" d="M3219.95,-170.68C2805.37,-171.95 166.33,-177.74 109.5,-120 85.16,-95.27 107.35,-52.1 123.05,-28.18"/>
<polygon fill="midnightblue" stroke="midnightblue" points="126.06,-29.99 128.84,-19.76 120.29,-26.02 126.06,-29.99"/>
</g>
<!-- Node4 -->
<g id="node4" class="node">
<title>Node4</title>
<g id="a_node4"><a xlink:href="stb_8h.html" target="_top" xlink:title=" ">
<polygon fill="white" stroke="black" points="118,-73 118,-103 245,-103 245,-73 118,-73"/>
<text text-anchor="start" x="126" y="-91" font-family="Helvetica,sans-Serif" font-size="10.00">JSystem/JStudio/JStudio</text>
<text text-anchor="middle" x="181.5" y="-80" font-family="Helvetica,sans-Serif" font-size="10.00">/stb.h</text>
</a>
</g>
</g>
<!-- Node1&#45;&gt;Node4 -->
<g id="edge3" class="edge">
<title>Node1&#45;&gt;Node4</title>
<path fill="none" stroke="midnightblue" d="M3219.91,-170.18C2824.07,-167.8 405.18,-151.98 254.5,-120 241.87,-117.32 228.7,-112.45 217.08,-107.34"/>
<polygon fill="midnightblue" stroke="midnightblue" points="218.28,-104.04 207.73,-103.05 215.36,-110.4 218.28,-104.04"/>
</g>
<!-- Node5 -->
<g id="node5" class="node">
<title>Node5</title>
<g id="a_node5"><a xlink:title=" ">
<polygon fill="white" stroke="#bfbfbf" points="263.5,-67.5 263.5,-108.5 439.5,-108.5 439.5,-67.5 263.5,-67.5"/>
<text text-anchor="start" x="271.5" y="-96.5" font-family="Helvetica,sans-Serif" font-size="10.00">asm/JSystem/JStudio</text>
<text text-anchor="start" x="271.5" y="-85.5" font-family="Helvetica,sans-Serif" font-size="10.00">/JStudio/stb/__ct__Q37JStudio3stb7</text>
<text text-anchor="middle" x="351.5" y="-74.5" font-family="Helvetica,sans-Serif" font-size="10.00">TObjectFUlPCvUl.s</text>
</a>
</g>
</g>
<!-- Node1&#45;&gt;Node5 -->
<g id="edge5" class="edge">
<title>Node1&#45;&gt;Node5</title>
<path fill="none" stroke="midnightblue" d="M3219.99,-170.48C2851.52,-170.22 731.27,-166.68 448.5,-120 436.78,-118.07 424.53,-115.01 412.84,-111.56"/>
<polygon fill="midnightblue" stroke="midnightblue" points="413.76,-108.18 403.17,-108.58 411.69,-114.87 413.76,-108.18"/>
</g>
<!-- Node6 -->
<g id="node6" class="node">
<title>Node6</title>
<g id="a_node6"><a xlink:title=" ">
<polygon fill="white" stroke="#bfbfbf" points="457.5,-62 457.5,-114 663.5,-114 663.5,-62 457.5,-62"/>
<text text-anchor="start" x="465.5" y="-102" font-family="Helvetica,sans-Serif" font-size="10.00">asm/JSystem/JStudio</text>
<text text-anchor="start" x="465.5" y="-91" font-family="Helvetica,sans-Serif" font-size="10.00">/JStudio/stb/__ct__Q37JStudio3stb7</text>
<text text-anchor="start" x="465.5" y="-80" font-family="Helvetica,sans-Serif" font-size="10.00">TObjectFRCQ47JStudio3stb4data20TParse</text>
<text text-anchor="middle" x="560.5" y="-69" font-family="Helvetica,sans-Serif" font-size="10.00">_TBlock_object.s</text>
</a>
</g>
</g>
<!-- Node1&#45;&gt;Node6 -->
<g id="edge6" class="edge">
<title>Node1&#45;&gt;Node6</title>
<path fill="none" stroke="midnightblue" d="M3219.88,-170.26C2868.51,-168.62 932.52,-157.89 672.5,-120 665.73,-119.01 658.78,-117.74 651.83,-116.28"/>
<polygon fill="midnightblue" stroke="midnightblue" points="652.18,-112.77 641.65,-114.02 650.65,-119.61 652.18,-112.77"/>
</g>
<!-- Node7 -->
<g id="node7" class="node">
<title>Node7</title>
<g id="a_node7"><a xlink:title=" ">
<polygon fill="white" stroke="#bfbfbf" points="681.5,-67.5 681.5,-108.5 857.5,-108.5 857.5,-67.5 681.5,-67.5"/>
<text text-anchor="start" x="689.5" y="-96.5" font-family="Helvetica,sans-Serif" font-size="10.00">asm/JSystem/JStudio</text>
<text text-anchor="start" x="689.5" y="-85.5" font-family="Helvetica,sans-Serif" font-size="10.00">/JStudio/stb/__dt__Q37JStudio3stb7</text>
<text text-anchor="middle" x="769.5" y="-74.5" font-family="Helvetica,sans-Serif" font-size="10.00">TObjectFv.s</text>
</a>
</g>
</g>
<!-- Node1&#45;&gt;Node7 -->
<g id="edge7" class="edge">
<title>Node1&#45;&gt;Node7</title>
<path fill="none" stroke="midnightblue" d="M3219.96,-170.29C2884.39,-168.86 1106.36,-159.45 867.5,-120 855.67,-118.05 843.3,-114.98 831.49,-111.53"/>
<polygon fill="midnightblue" stroke="midnightblue" points="832.31,-108.12 821.72,-108.55 830.26,-114.81 832.31,-108.12"/>
</g>
<!-- Node8 -->
<g id="node8" class="node">
<title>Node8</title>
<g id="a_node8"><a xlink:title=" ">
<polygon fill="white" stroke="#bfbfbf" points="876,-62 876,-114 1023,-114 1023,-62 876,-62"/>
<text text-anchor="start" x="884" y="-102" font-family="Helvetica,sans-Serif" font-size="10.00">asm/JSystem/JStudio</text>
<text text-anchor="start" x="884" y="-91" font-family="Helvetica,sans-Serif" font-size="10.00">/JStudio/stb/setFlag</text>
<text text-anchor="start" x="884" y="-80" font-family="Helvetica,sans-Serif" font-size="10.00">_operation__Q37JStudio3stb7</text>
<text text-anchor="middle" x="949.5" y="-69" font-family="Helvetica,sans-Serif" font-size="10.00">TObjectFUci.s</text>
</a>
</g>
</g>
<!-- Node1&#45;&gt;Node8 -->
<g id="edge8" class="edge">
<title>Node1&#45;&gt;Node8</title>
<path fill="none" stroke="midnightblue" d="M3219.81,-170.36C2897.55,-169.4 1253.06,-162.41 1032.5,-120 1028.13,-119.16 1023.7,-118.12 1019.26,-116.92"/>
<polygon fill="midnightblue" stroke="midnightblue" points="1020.15,-113.54 1009.57,-114.09 1018.19,-120.25 1020.15,-113.54"/>
</g>
<!-- Node9 -->
<g id="node9" class="node">
<title>Node9</title>
<g id="a_node9"><a xlink:title=" ">
<polygon fill="white" stroke="#bfbfbf" points="1041.5,-67.5 1041.5,-108.5 1205.5,-108.5 1205.5,-67.5 1041.5,-67.5"/>
<text text-anchor="start" x="1049.5" y="-96.5" font-family="Helvetica,sans-Serif" font-size="10.00">asm/JSystem/JStudio</text>
<text text-anchor="start" x="1049.5" y="-85.5" font-family="Helvetica,sans-Serif" font-size="10.00">/JStudio/stb/reset_</text>
<text text-anchor="middle" x="1123.5" y="-74.5" font-family="Helvetica,sans-Serif" font-size="10.00">_Q37JStudio3stb7TObjectFPCv.s</text>
</a>
</g>
</g>
<!-- Node1&#45;&gt;Node9 -->
<g id="edge9" class="edge">
<title>Node1&#45;&gt;Node9</title>
<path fill="none" stroke="midnightblue" d="M3219.85,-170.15C2913.55,-168.06 1416.68,-156.04 1214.5,-120 1203.68,-118.07 1192.41,-115.08 1181.63,-111.71"/>
<polygon fill="midnightblue" stroke="midnightblue" points="1182.49,-108.31 1171.9,-108.52 1180.31,-114.96 1182.49,-108.31"/>
</g>
<!-- Node10 -->
<g id="node10" class="node">
<title>Node10</title>
<g id="a_node10"><a xlink:title=" ">
<polygon fill="white" stroke="#bfbfbf" points="1223.5,-67.5 1223.5,-108.5 1383.5,-108.5 1383.5,-67.5 1223.5,-67.5"/>
<text text-anchor="start" x="1231.5" y="-96.5" font-family="Helvetica,sans-Serif" font-size="10.00">asm/JSystem/JStudio</text>
<text text-anchor="start" x="1231.5" y="-85.5" font-family="Helvetica,sans-Serif" font-size="10.00">/JStudio/stb/forward</text>
<text text-anchor="middle" x="1303.5" y="-74.5" font-family="Helvetica,sans-Serif" font-size="10.00">__Q37JStudio3stb7TObjectFUl.s</text>
</a>
</g>
</g>
<!-- Node1&#45;&gt;Node10 -->
<g id="edge10" class="edge">
<title>Node1&#45;&gt;Node10</title>
<path fill="none" stroke="midnightblue" d="M3219.93,-170.02C2930.05,-167.37 1577.02,-153.26 1393.5,-120 1382.79,-118.06 1371.64,-115.07 1360.98,-111.69"/>
<polygon fill="midnightblue" stroke="midnightblue" points="1361.95,-108.32 1351.35,-108.5 1359.75,-114.97 1361.95,-108.32"/>
</g>
<!-- Node11 -->
<g id="node11" class="node">
<title>Node11</title>
<g id="a_node11"><a xlink:title=" ">
<polygon fill="white" stroke="#bfbfbf" points="1402,-67.5 1402,-108.5 1557,-108.5 1557,-67.5 1402,-67.5"/>
<text text-anchor="start" x="1410" y="-96.5" font-family="Helvetica,sans-Serif" font-size="10.00">asm/JSystem/JStudio</text>
<text text-anchor="start" x="1410" y="-85.5" font-family="Helvetica,sans-Serif" font-size="10.00">/JStudio/stb/do_begin</text>
<text text-anchor="middle" x="1479.5" y="-74.5" font-family="Helvetica,sans-Serif" font-size="10.00">__Q37JStudio3stb7TObjectFv.s</text>
</a>
</g>
</g>
<!-- Node1&#45;&gt;Node11 -->
<g id="edge11" class="edge">
<title>Node1&#45;&gt;Node11</title>
<path fill="none" stroke="midnightblue" d="M3219.63,-169.9C2945.6,-166.74 1731.86,-151.1 1566.5,-120 1556.35,-118.09 1545.8,-115.18 1535.69,-111.89"/>
<polygon fill="midnightblue" stroke="midnightblue" points="1536.76,-108.56 1526.17,-108.64 1534.5,-115.18 1536.76,-108.56"/>
</g>
<!-- Node12 -->
<g id="node12" class="node">
<title>Node12</title>
<g id="a_node12"><a xlink:title=" ">
<polygon fill="white" stroke="#bfbfbf" points="1575,-67.5 1575,-108.5 1730,-108.5 1730,-67.5 1575,-67.5"/>
<text text-anchor="start" x="1583" y="-96.5" font-family="Helvetica,sans-Serif" font-size="10.00">asm/JSystem/JStudio</text>
<text text-anchor="start" x="1583" y="-85.5" font-family="Helvetica,sans-Serif" font-size="10.00">/JStudio/stb/do_end</text>
<text text-anchor="middle" x="1652.5" y="-74.5" font-family="Helvetica,sans-Serif" font-size="10.00">__Q37JStudio3stb7TObjectFv.s</text>
</a>
</g>
</g>
<!-- Node1&#45;&gt;Node12 -->
<g id="edge12" class="edge">
<title>Node1&#45;&gt;Node12</title>
<path fill="none" stroke="midnightblue" d="M3219.76,-169.7C2963.33,-165.82 1887.02,-148 1739.5,-120 1729.35,-118.07 1718.8,-115.15 1708.7,-111.86"/>
<polygon fill="midnightblue" stroke="midnightblue" points="1709.77,-108.53 1699.17,-108.61 1707.51,-115.16 1709.77,-108.53"/>
</g>
<!-- Node13 -->
<g id="node13" class="node">
<title>Node13</title>
<g id="a_node13"><a xlink:title=" ">
<polygon fill="white" stroke="#bfbfbf" points="1748.5,-67.5 1748.5,-108.5 1936.5,-108.5 1936.5,-67.5 1748.5,-67.5"/>
<text text-anchor="start" x="1756.5" y="-96.5" font-family="Helvetica,sans-Serif" font-size="10.00">asm/JSystem/JStudio</text>
<text text-anchor="start" x="1756.5" y="-85.5" font-family="Helvetica,sans-Serif" font-size="10.00">/JStudio/stb/do_paragraph</text>
<text text-anchor="middle" x="1842.5" y="-74.5" font-family="Helvetica,sans-Serif" font-size="10.00">__Q37JStudio3stb7TObjectFUlPCvUl.s</text>
</a>
</g>
</g>
<!-- Node1&#45;&gt;Node13 -->
<g id="edge13" class="edge">
<title>Node1&#45;&gt;Node13</title>
<path fill="none" stroke="midnightblue" d="M3219.77,-170.27C3002.02,-169.08 2196.74,-161.88 1945.5,-120 1933.15,-117.94 1920.19,-114.83 1907.81,-111.37"/>
<polygon fill="midnightblue" stroke="midnightblue" points="1908.6,-107.95 1898.02,-108.52 1906.64,-114.67 1908.6,-107.95"/>
</g>
<!-- Node14 -->
<g id="node14" class="node">
<title>Node14</title>
<g id="a_node14"><a xlink:title=" ">
<polygon fill="white" stroke="#bfbfbf" points="1954.5,-67.5 1954.5,-108.5 2114.5,-108.5 2114.5,-67.5 1954.5,-67.5"/>
<text text-anchor="start" x="1962.5" y="-96.5" font-family="Helvetica,sans-Serif" font-size="10.00">asm/JSystem/JStudio</text>
<text text-anchor="start" x="1962.5" y="-85.5" font-family="Helvetica,sans-Serif" font-size="10.00">/JStudio/stb/do_wait</text>
<text text-anchor="middle" x="2034.5" y="-74.5" font-family="Helvetica,sans-Serif" font-size="10.00">__Q37JStudio3stb7TObjectFUl.s</text>
</a>
</g>
</g>
<!-- Node1&#45;&gt;Node14 -->
<g id="edge14" class="edge">
<title>Node1&#45;&gt;Node14</title>
<path fill="none" stroke="midnightblue" d="M3219.81,-170.18C3021.18,-168.68 2338.38,-160.65 2124.5,-120 2113.93,-117.99 2102.92,-115 2092.38,-111.66"/>
<polygon fill="midnightblue" stroke="midnightblue" points="2093.44,-108.32 2082.85,-108.51 2091.25,-114.97 2093.44,-108.32"/>
</g>
<!-- Node15 -->
<g id="node15" class="node">
<title>Node15</title>
<g id="a_node15"><a xlink:title=" ">
<polygon fill="white" stroke="#bfbfbf" points="2133,-62 2133,-114 2294,-114 2294,-62 2133,-62"/>
<text text-anchor="start" x="2141" y="-102" font-family="Helvetica,sans-Serif" font-size="10.00">asm/JSystem/JStudio</text>
<text text-anchor="start" x="2141" y="-91" font-family="Helvetica,sans-Serif" font-size="10.00">/JStudio/stb/do_data</text>
<text text-anchor="start" x="2141" y="-80" font-family="Helvetica,sans-Serif" font-size="10.00">__Q37JStudio3stb7TObjectFPCv</text>
<text text-anchor="middle" x="2213.5" y="-69" font-family="Helvetica,sans-Serif" font-size="10.00">UlPCvUl.s</text>
</a>
</g>
</g>
<!-- Node1&#45;&gt;Node15 -->
<g id="edge15" class="edge">
<title>Node1&#45;&gt;Node15</title>
<path fill="none" stroke="midnightblue" d="M3219.92,-169.67C3042.17,-166.63 2481.12,-154.5 2303.5,-120 2298.88,-119.1 2294.17,-118.02 2289.45,-116.81"/>
<polygon fill="midnightblue" stroke="midnightblue" points="2290.34,-113.42 2279.77,-114.14 2288.49,-120.17 2290.34,-113.42"/>
</g>
<!-- Node16 -->
<g id="node16" class="node">
<title>Node16</title>
<g id="a_node16"><a xlink:title=" ">
<polygon fill="white" stroke="#bfbfbf" points="2312,-62 2312,-114 2467,-114 2467,-62 2312,-62"/>
<text text-anchor="start" x="2320" y="-102" font-family="Helvetica,sans-Serif" font-size="10.00">asm/JSystem/JStudio</text>
<text text-anchor="start" x="2320" y="-91" font-family="Helvetica,sans-Serif" font-size="10.00">/JStudio/stb/process</text>
<text text-anchor="start" x="2320" y="-80" font-family="Helvetica,sans-Serif" font-size="10.00">_sequence___Q37JStudio3stb7</text>
<text text-anchor="middle" x="2389.5" y="-69" font-family="Helvetica,sans-Serif" font-size="10.00">TObjectFv.s</text>
</a>
</g>
</g>
<!-- Node1&#45;&gt;Node16 -->
<g id="edge16" class="edge">
<title>Node1&#45;&gt;Node16</title>
<path fill="none" stroke="midnightblue" d="M3219.74,-169.02C3063.73,-164.49 2619.1,-149.32 2476.5,-120 2472.14,-119.1 2467.71,-118.04 2463.26,-116.85"/>
<polygon fill="midnightblue" stroke="midnightblue" points="2464.12,-113.45 2453.54,-114.07 2462.19,-120.18 2464.12,-113.45"/>
</g>
<!-- Node17 -->
<g id="node17" class="node">
<title>Node17</title>
<g id="a_node17"><a xlink:title=" ">
<polygon fill="white" stroke="#bfbfbf" points="2485.5,-62 2485.5,-114 2673.5,-114 2673.5,-62 2485.5,-62"/>
<text text-anchor="start" x="2493.5" y="-102" font-family="Helvetica,sans-Serif" font-size="10.00">asm/JSystem/JStudio</text>
<text text-anchor="start" x="2493.5" y="-91" font-family="Helvetica,sans-Serif" font-size="10.00">/JStudio/stb/process</text>
<text text-anchor="start" x="2493.5" y="-80" font-family="Helvetica,sans-Serif" font-size="10.00">_paragraph_reserved_</text>
<text text-anchor="middle" x="2579.5" y="-69" font-family="Helvetica,sans-Serif" font-size="10.00">__Q37JStudio3stb7TObjectFUlPCvUl.s</text>
</a>
</g>
</g>
<!-- Node1&#45;&gt;Node17 -->
<g id="edge17" class="edge">
<title>Node1&#45;&gt;Node17</title>
<path fill="none" stroke="midnightblue" d="M3219.71,-169.61C3114.61,-167.06 2877.79,-157.3 2682.5,-120 2677.17,-118.98 2671.72,-117.8 2666.25,-116.49"/>
<polygon fill="midnightblue" stroke="midnightblue" points="2666.95,-113.06 2656.4,-114.03 2665.26,-119.85 2666.95,-113.06"/>
</g>
<!-- Node18 -->
<g id="node18" class="node">
<title>Node18</title>
<g id="a_node18"><a xlink:title=" ">
<polygon fill="white" stroke="#bfbfbf" points="2691.5,-67.5 2691.5,-108.5 2873.5,-108.5 2873.5,-67.5 2691.5,-67.5"/>
<text text-anchor="start" x="2699.5" y="-96.5" font-family="Helvetica,sans-Serif" font-size="10.00">asm/JSystem/JStudio</text>
<text text-anchor="start" x="2699.5" y="-85.5" font-family="Helvetica,sans-Serif" font-size="10.00">/JStudio/stb/__ct__Q37JStudio3stb15</text>
<text text-anchor="middle" x="2782.5" y="-74.5" font-family="Helvetica,sans-Serif" font-size="10.00">TObject_controlFPCvUl.s</text>
</a>
</g>
</g>
<!-- Node1&#45;&gt;Node18 -->
<g id="edge18" class="edge">
<title>Node1&#45;&gt;Node18</title>
<path fill="none" stroke="midnightblue" d="M3219.78,-166.45C3143.54,-160.13 3001.34,-145.87 2882.5,-120 2871.58,-117.62 2860.14,-114.6 2849.05,-111.38"/>
<polygon fill="midnightblue" stroke="midnightblue" points="2850.01,-108.01 2839.42,-108.5 2848.01,-114.72 2850.01,-108.01"/>
</g>
<!-- Node19 -->
<g id="node19" class="node">
<title>Node19</title>
<g id="a_node19"><a xlink:title=" ">
<polygon fill="white" stroke="#bfbfbf" points="2891.5,-67.5 2891.5,-108.5 3067.5,-108.5 3067.5,-67.5 2891.5,-67.5"/>
<text text-anchor="start" x="2899.5" y="-96.5" font-family="Helvetica,sans-Serif" font-size="10.00">asm/JSystem/JStudio</text>
<text text-anchor="start" x="2899.5" y="-85.5" font-family="Helvetica,sans-Serif" font-size="10.00">/JStudio/stb/__ct__Q37JStudio3stb8</text>
<text text-anchor="middle" x="2979.5" y="-74.5" font-family="Helvetica,sans-Serif" font-size="10.00">TControlFv.s</text>
</a>
</g>
</g>
<!-- Node1&#45;&gt;Node19 -->
<g id="edge19" class="edge">
<title>Node1&#45;&gt;Node19</title>
<path fill="none" stroke="midnightblue" d="M3219.64,-157.44C3179.76,-147.72 3124.58,-133.8 3076.5,-120 3067.42,-117.39 3057.9,-114.52 3048.53,-111.62"/>
<polygon fill="midnightblue" stroke="midnightblue" points="3049.42,-108.23 3038.84,-108.58 3047.33,-114.91 3049.42,-108.23"/>
</g>
<!-- Node20 -->
<g id="node20" class="node">
<title>Node20</title>
<g id="a_node20"><a xlink:title=" ">
<polygon fill="white" stroke="#bfbfbf" points="3085.5,-67.5 3085.5,-108.5 3267.5,-108.5 3267.5,-67.5 3085.5,-67.5"/>
<text text-anchor="start" x="3093.5" y="-96.5" font-family="Helvetica,sans-Serif" font-size="10.00">asm/JSystem/JStudio</text>
<text text-anchor="start" x="3093.5" y="-85.5" font-family="Helvetica,sans-Serif" font-size="10.00">/JStudio/stb/__dt__Q37JStudio3stb15</text>
<text text-anchor="middle" x="3176.5" y="-74.5" font-family="Helvetica,sans-Serif" font-size="10.00">TObject_controlFv.s</text>
</a>
</g>
</g>
<!-- Node1&#45;&gt;Node20 -->
<g id="edge20" class="edge">
<title>Node1&#45;&gt;Node20</title>
<path fill="none" stroke="midnightblue" d="M3257.43,-156.3C3243.76,-144.94 3224.23,-128.69 3207.77,-115.01"/>
<polygon fill="midnightblue" stroke="midnightblue" points="3209.91,-112.23 3199.98,-108.53 3205.43,-117.61 3209.91,-112.23"/>
</g>
<!-- Node21 -->
<g id="node21" class="node">
<title>Node21</title>
<g id="a_node21"><a xlink:title=" ">
<polygon fill="white" stroke="#bfbfbf" points="3285.5,-67.5 3285.5,-108.5 3461.5,-108.5 3461.5,-67.5 3285.5,-67.5"/>
<text text-anchor="start" x="3293.5" y="-96.5" font-family="Helvetica,sans-Serif" font-size="10.00">asm/JSystem/JStudio</text>
<text text-anchor="start" x="3293.5" y="-85.5" font-family="Helvetica,sans-Serif" font-size="10.00">/JStudio/stb/__dt__Q37JStudio3stb8</text>
<text text-anchor="middle" x="3373.5" y="-74.5" font-family="Helvetica,sans-Serif" font-size="10.00">TControlFv.s</text>
</a>
</g>
</g>
<!-- Node1&#45;&gt;Node21 -->
<g id="edge21" class="edge">
<title>Node1&#45;&gt;Node21</title>
<path fill="none" stroke="midnightblue" d="M3291.74,-156.3C3305.55,-144.94 3325.29,-128.69 3341.91,-115.01"/>
<polygon fill="midnightblue" stroke="midnightblue" points="3344.28,-117.59 3349.78,-108.53 3339.83,-112.18 3344.28,-117.59"/>
</g>
<!-- Node22 -->
<g id="node22" class="node">
<title>Node22</title>
<g id="a_node22"><a xlink:title=" ">
<polygon fill="white" stroke="#bfbfbf" points="3480,-62 3480,-114 3707,-114 3707,-62 3480,-62"/>
<text text-anchor="start" x="3488" y="-102" font-family="Helvetica,sans-Serif" font-size="10.00">asm/JSystem/JStudio</text>
<text text-anchor="start" x="3488" y="-91" font-family="Helvetica,sans-Serif" font-size="10.00">/JStudio/stb/appendObject</text>
<text text-anchor="start" x="3488" y="-80" font-family="Helvetica,sans-Serif" font-size="10.00">__Q37JStudio3stb8TControlFPQ37JStudio3stb7</text>
<text text-anchor="middle" x="3593.5" y="-69" font-family="Helvetica,sans-Serif" font-size="10.00">TObject.s</text>
</a>
</g>
</g>
<!-- Node1&#45;&gt;Node22 -->
<g id="edge22" class="edge">
<title>Node1&#45;&gt;Node22</title>
<path fill="none" stroke="midnightblue" d="M3329.34,-156.49C3372.27,-145.52 3433.31,-129.93 3485.91,-116.49"/>
<polygon fill="midnightblue" stroke="midnightblue" points="3486.8,-119.87 3495.62,-114.01 3485.07,-113.09 3486.8,-119.87"/>
</g>
<!-- Node23 -->
<g id="node23" class="node">
<title>Node23</title>
<g id="a_node23"><a xlink:title=" ">
<polygon fill="white" stroke="#bfbfbf" points="3725,-62 3725,-114 3952,-114 3952,-62 3725,-62"/>
<text text-anchor="start" x="3733" y="-102" font-family="Helvetica,sans-Serif" font-size="10.00">asm/JSystem/JStudio</text>
<text text-anchor="start" x="3733" y="-91" font-family="Helvetica,sans-Serif" font-size="10.00">/JStudio/stb/removeObject</text>
<text text-anchor="start" x="3733" y="-80" font-family="Helvetica,sans-Serif" font-size="10.00">__Q37JStudio3stb8TControlFPQ37JStudio3stb7</text>
<text text-anchor="middle" x="3838.5" y="-69" font-family="Helvetica,sans-Serif" font-size="10.00">TObject.s</text>
</a>
</g>
</g>
<!-- Node1&#45;&gt;Node23 -->
<g id="edge23" class="edge">
<title>Node1&#45;&gt;Node23</title>
<path fill="none" stroke="midnightblue" d="M3329.29,-166.63C3413.16,-160.18 3578.24,-145.35 3716.5,-120 3722.71,-118.86 3729.07,-117.59 3735.46,-116.22"/>
<polygon fill="midnightblue" stroke="midnightblue" points="3736.52,-119.57 3745.53,-114 3735.01,-112.73 3736.52,-119.57"/>
</g>
<!-- Node24 -->
<g id="node24" class="node">
<title>Node24</title>
<g id="a_node24"><a xlink:title=" ">
<polygon fill="white" stroke="#bfbfbf" points="3970,-62 3970,-114 4197,-114 4197,-62 3970,-62"/>
<text text-anchor="start" x="3978" y="-102" font-family="Helvetica,sans-Serif" font-size="10.00">asm/JSystem/JStudio</text>
<text text-anchor="start" x="3978" y="-91" font-family="Helvetica,sans-Serif" font-size="10.00">/JStudio/stb/destroyObject</text>
<text text-anchor="start" x="3978" y="-80" font-family="Helvetica,sans-Serif" font-size="10.00">__Q37JStudio3stb8TControlFPQ37JStudio3stb7</text>
<text text-anchor="middle" x="4083.5" y="-69" font-family="Helvetica,sans-Serif" font-size="10.00">TObject.s</text>
</a>
</g>
</g>
<!-- Node1&#45;&gt;Node24 -->
<g id="edge24" class="edge">
<title>Node1&#45;&gt;Node24</title>
<path fill="none" stroke="midnightblue" d="M3329.21,-169.73C3446.05,-167.37 3728.36,-157.89 3961.5,-120 3968.24,-118.9 3975.15,-117.62 3982.09,-116.2"/>
<polygon fill="midnightblue" stroke="midnightblue" points="3983.21,-119.53 3992.27,-114.03 3981.76,-112.69 3983.21,-119.53"/>
</g>
<!-- Node25 -->
<g id="node25" class="node">
<title>Node25</title>
<g id="a_node25"><a xlink:title=" ">
<polygon fill="white" stroke="#bfbfbf" points="4215,-67.5 4215,-108.5 4388,-108.5 4388,-67.5 4215,-67.5"/>
<text text-anchor="start" x="4223" y="-96.5" font-family="Helvetica,sans-Serif" font-size="10.00">asm/JSystem/JStudio</text>
<text text-anchor="start" x="4223" y="-85.5" font-family="Helvetica,sans-Serif" font-size="10.00">/JStudio/stb/destroyObject</text>
<text text-anchor="middle" x="4301.5" y="-74.5" font-family="Helvetica,sans-Serif" font-size="10.00">_all__Q37JStudio3stb8TControlFv.s</text>
</a>
</g>
</g>
<!-- Node1&#45;&gt;Node25 -->
<g id="edge25" class="edge">
<title>Node1&#45;&gt;Node25</title>
<path fill="none" stroke="midnightblue" d="M3329.28,-169.41C3502.43,-165.66 4036.56,-151.76 4206.5,-120 4217.58,-117.93 4229.15,-114.91 4240.26,-111.56"/>
<polygon fill="midnightblue" stroke="midnightblue" points="4241.38,-114.88 4249.87,-108.55 4239.28,-108.2 4241.38,-114.88"/>
</g>
<!-- Node26 -->
<g id="node26" class="node">
<title>Node26</title>
<g id="a_node26"><a xlink:title=" ">
<polygon fill="white" stroke="#bfbfbf" points="4406,-67.5 4406,-108.5 4587,-108.5 4587,-67.5 4406,-67.5"/>
<text text-anchor="start" x="4414" y="-96.5" font-family="Helvetica,sans-Serif" font-size="10.00">asm/JSystem/JStudio</text>
<text text-anchor="start" x="4414" y="-85.5" font-family="Helvetica,sans-Serif" font-size="10.00">/JStudio/stb/getObject</text>
<text text-anchor="middle" x="4496.5" y="-74.5" font-family="Helvetica,sans-Serif" font-size="10.00">__Q37JStudio3stb8TControlFPCvUl.s</text>
</a>
</g>
</g>
<!-- Node1&#45;&gt;Node26 -->
<g id="edge26" class="edge">
<title>Node1&#45;&gt;Node26</title>
<path fill="none" stroke="midnightblue" d="M3329.21,-169.91C3524.77,-167.5 4188.59,-156.76 4397.5,-120 4409.21,-117.94 4421.46,-114.88 4433.2,-111.47"/>
<polygon fill="midnightblue" stroke="midnightblue" points="4434.35,-114.78 4442.92,-108.55 4432.33,-108.08 4434.35,-114.78"/>
</g>
<!-- Node27 -->
<g id="node27" class="node">
<title>Node27</title>
<g id="a_node27"><a xlink:title=" ">
<polygon fill="white" stroke="#bfbfbf" points="4605.5,-67.5 4605.5,-108.5 4757.5,-108.5 4757.5,-67.5 4605.5,-67.5"/>
<text text-anchor="start" x="4613.5" y="-96.5" font-family="Helvetica,sans-Serif" font-size="10.00">asm/JSystem/JStudio</text>
<text text-anchor="start" x="4613.5" y="-85.5" font-family="Helvetica,sans-Serif" font-size="10.00">/JStudio/stb/reset_</text>
<text text-anchor="middle" x="4681.5" y="-74.5" font-family="Helvetica,sans-Serif" font-size="10.00">_Q37JStudio3stb8TControlFv.s</text>
</a>
</g>
</g>
<!-- Node1&#45;&gt;Node27 -->
<g id="edge27" class="edge">
<title>Node1&#45;&gt;Node27</title>
<path fill="none" stroke="midnightblue" d="M3329.01,-170.67C3545.9,-171 4347.88,-168.83 4596.5,-120 4606.33,-118.07 4616.53,-115.18 4626.31,-111.92"/>
<polygon fill="midnightblue" stroke="midnightblue" points="4627.64,-115.17 4635.93,-108.57 4625.33,-108.56 4627.64,-115.17"/>
</g>
<!-- Node28 -->
<g id="node28" class="node">
<title>Node28</title>
<g id="a_node28"><a xlink:title=" ">
<polygon fill="white" stroke="#bfbfbf" points="4775.5,-67.5 4775.5,-108.5 4937.5,-108.5 4937.5,-67.5 4775.5,-67.5"/>
<text text-anchor="start" x="4783.5" y="-96.5" font-family="Helvetica,sans-Serif" font-size="10.00">asm/JSystem/JStudio</text>
<text text-anchor="start" x="4783.5" y="-85.5" font-family="Helvetica,sans-Serif" font-size="10.00">/JStudio/stb/forward</text>
<text text-anchor="middle" x="4856.5" y="-74.5" font-family="Helvetica,sans-Serif" font-size="10.00">__Q37JStudio3stb8TControlFUl.s</text>
</a>
</g>
</g>
<!-- Node1&#45;&gt;Node28 -->
<g id="edge28" class="edge">
<title>Node1&#45;&gt;Node28</title>
<path fill="none" stroke="midnightblue" d="M3329.1,-170.82C3563.17,-171.86 4482.65,-172.47 4766.5,-120 4777.08,-118.05 4788.09,-115.08 4798.64,-111.75"/>
<polygon fill="midnightblue" stroke="midnightblue" points="4799.77,-115.06 4808.17,-108.6 4797.57,-108.41 4799.77,-115.06"/>
</g>
<!-- Node29 -->
<g id="node29" class="node">
<title>Node29</title>
<g id="a_node29"><a xlink:title=" ">
<polygon fill="white" stroke="#bfbfbf" points="4955.5,-67.5 4955.5,-108.5 5131.5,-108.5 5131.5,-67.5 4955.5,-67.5"/>
<text text-anchor="start" x="4963.5" y="-96.5" font-family="Helvetica,sans-Serif" font-size="10.00">asm/JSystem/JStudio</text>
<text text-anchor="start" x="4963.5" y="-85.5" font-family="Helvetica,sans-Serif" font-size="10.00">/JStudio/stb/__dt__Q37JStudio3stb8</text>
<text text-anchor="middle" x="5043.5" y="-74.5" font-family="Helvetica,sans-Serif" font-size="10.00">TFactoryFv.s</text>
</a>
</g>
</g>
<!-- Node1&#45;&gt;Node29 -->
<g id="edge29" class="edge">
<title>Node1&#45;&gt;Node29</title>
<path fill="none" stroke="midnightblue" d="M3329.2,-170.89C3580.42,-172.39 4625.02,-175.11 4946.5,-120 4958.14,-118 4970.31,-114.94 4981.94,-111.5"/>
<polygon fill="midnightblue" stroke="midnightblue" points="4983.03,-114.83 4991.56,-108.54 4980.97,-108.14 4983.03,-114.83"/>
</g>
<!-- Node30 -->
<g id="node30" class="node">
<title>Node30</title>
<g id="a_node30"><a xlink:title=" ">
<polygon fill="white" stroke="#bfbfbf" points="5149.5,-56.5 5149.5,-119.5 5327.5,-119.5 5327.5,-56.5 5149.5,-56.5"/>
<text text-anchor="start" x="5157.5" y="-107.5" font-family="Helvetica,sans-Serif" font-size="10.00">asm/JSystem/JStudio</text>
<text text-anchor="start" x="5157.5" y="-96.5" font-family="Helvetica,sans-Serif" font-size="10.00">/JStudio/stb/create</text>
<text text-anchor="start" x="5157.5" y="-85.5" font-family="Helvetica,sans-Serif" font-size="10.00">__Q37JStudio3stb8TFactoryFRCQ47</text>
<text text-anchor="start" x="5157.5" y="-74.5" font-family="Helvetica,sans-Serif" font-size="10.00">JStudio3stb4data20TParse_TBlock</text>
<text text-anchor="middle" x="5238.5" y="-63.5" font-family="Helvetica,sans-Serif" font-size="10.00">_object.s</text>
</a>
</g>
</g>
<!-- Node1&#45;&gt;Node30 -->
<g id="edge30" class="edge">
<title>Node1&#45;&gt;Node30</title>
<path fill="none" stroke="midnightblue" d="M3329.1,-169.93C3612.93,-166.85 4915.21,-151.2 5139.17,-119.9"/>
<polygon fill="midnightblue" stroke="midnightblue" points="5139.94,-123.32 5149.29,-118.35 5138.88,-116.4 5139.94,-123.32"/>
</g>
<!-- Node31 -->
<g id="node31" class="node">
<title>Node31</title>
<g id="a_node31"><a xlink:title=" ">
<polygon fill="white" stroke="#bfbfbf" points="5346,-62 5346,-114 5517,-114 5517,-62 5346,-62"/>
<text text-anchor="start" x="5354" y="-102" font-family="Helvetica,sans-Serif" font-size="10.00">asm/JSystem/JStudio</text>
<text text-anchor="start" x="5354" y="-91" font-family="Helvetica,sans-Serif" font-size="10.00">/JStudio/stb/destroy</text>
<text text-anchor="start" x="5354" y="-80" font-family="Helvetica,sans-Serif" font-size="10.00">__Q37JStudio3stb8TFactoryFPQ37</text>
<text text-anchor="middle" x="5431.5" y="-69" font-family="Helvetica,sans-Serif" font-size="10.00">JStudio3stb7TObject.s</text>
</a>
</g>
</g>
<!-- Node1&#45;&gt;Node31 -->
<g id="edge31" class="edge">
<title>Node1&#45;&gt;Node31</title>
<path fill="none" stroke="midnightblue" d="M3329.2,-170.11C3635.75,-167.79 5133.89,-154.77 5336.5,-120 5341.84,-119.08 5347.3,-117.93 5352.76,-116.61"/>
<polygon fill="midnightblue" stroke="midnightblue" points="5353.76,-119.96 5362.56,-114.06 5352.01,-113.19 5353.76,-119.96"/>
</g>
<!-- Node32 -->
<g id="node32" class="node">
<title>Node32</title>
<g id="a_node32"><a xlink:title=" ">
<polygon fill="white" stroke="#bfbfbf" points="5535.5,-67.5 5535.5,-108.5 5715.5,-108.5 5715.5,-67.5 5535.5,-67.5"/>
<text text-anchor="start" x="5543.5" y="-96.5" font-family="Helvetica,sans-Serif" font-size="10.00">asm/JSystem/JStudio</text>
<text text-anchor="start" x="5543.5" y="-85.5" font-family="Helvetica,sans-Serif" font-size="10.00">/JStudio/stb/__ct__Q37JStudio3stb6</text>
<text text-anchor="middle" x="5625.5" y="-74.5" font-family="Helvetica,sans-Serif" font-size="10.00">TParseFPQ37JStudio3stb8TControl.s</text>
</a>
</g>
</g>
<!-- Node1&#45;&gt;Node32 -->
<g id="edge32" class="edge">
<title>Node1&#45;&gt;Node32</title>
<path fill="none" stroke="midnightblue" d="M3329.14,-170.19C3652.03,-168.25 5303.83,-156.61 5526.5,-120 5538.44,-118.04 5550.93,-114.97 5562.86,-111.51"/>
<polygon fill="midnightblue" stroke="midnightblue" points="5564.17,-114.77 5572.73,-108.53 5562.15,-108.07 5564.17,-114.77"/>
</g>
<!-- Node33 -->
<g id="node33" class="node">
<title>Node33</title>
<g id="a_node33"><a xlink:title=" ">
<polygon fill="white" stroke="#bfbfbf" points="5733.5,-67.5 5733.5,-108.5 5909.5,-108.5 5909.5,-67.5 5733.5,-67.5"/>
<text text-anchor="start" x="5741.5" y="-96.5" font-family="Helvetica,sans-Serif" font-size="10.00">asm/JSystem/JStudio</text>
<text text-anchor="start" x="5741.5" y="-85.5" font-family="Helvetica,sans-Serif" font-size="10.00">/JStudio/stb/__dt__Q37JStudio3stb6</text>
<text text-anchor="middle" x="5821.5" y="-74.5" font-family="Helvetica,sans-Serif" font-size="10.00">TParseFv.s</text>
</a>
</g>
</g>
<!-- Node1&#45;&gt;Node33 -->
<g id="edge33" class="edge">
<title>Node1&#45;&gt;Node33</title>
<path fill="none" stroke="midnightblue" d="M3329.19,-170.32C3668.66,-169.06 5481.23,-160.5 5724.5,-120 5736.22,-118.05 5748.47,-114.99 5760.16,-111.53"/>
<polygon fill="midnightblue" stroke="midnightblue" points="5761.3,-114.84 5769.83,-108.55 5759.24,-108.15 5761.3,-114.84"/>
</g>
<!-- Node34 -->
<g id="node34" class="node">
<title>Node34</title>
<g id="a_node34"><a xlink:title=" ">
<polygon fill="white" stroke="#bfbfbf" points="5927.5,-62 5927.5,-114 6115.5,-114 6115.5,-62 5927.5,-62"/>
<text text-anchor="start" x="5935.5" y="-102" font-family="Helvetica,sans-Serif" font-size="10.00">asm/JSystem/JStudio</text>
<text text-anchor="start" x="5935.5" y="-91" font-family="Helvetica,sans-Serif" font-size="10.00">/JStudio/stb/parseHeader</text>
<text text-anchor="start" x="5935.5" y="-80" font-family="Helvetica,sans-Serif" font-size="10.00">_next__Q37JStudio3stb6TParseFPPCv</text>
<text text-anchor="middle" x="6021.5" y="-69" font-family="Helvetica,sans-Serif" font-size="10.00">PUlUl.s</text>
</a>
</g>
</g>
<!-- Node1&#45;&gt;Node34 -->
<g id="edge34" class="edge">
<title>Node1&#45;&gt;Node34</title>
<path fill="none" stroke="midnightblue" d="M3329.15,-170.35C3683.95,-169.27 5654.52,-161.44 5918.5,-120 5924.61,-119.04 5930.87,-117.81 5937.13,-116.39"/>
<polygon fill="midnightblue" stroke="midnightblue" points="5938.05,-119.77 5946.95,-114.03 5936.41,-112.97 5938.05,-119.77"/>
</g>
<!-- Node35 -->
<g id="node35" class="node">
<title>Node35</title>
<g id="a_node35"><a xlink:title=" ">
<polygon fill="white" stroke="#bfbfbf" points="6133.5,-62 6133.5,-114 6321.5,-114 6321.5,-62 6133.5,-62"/>
<text text-anchor="start" x="6141.5" y="-102" font-family="Helvetica,sans-Serif" font-size="10.00">asm/JSystem/JStudio</text>
<text text-anchor="start" x="6141.5" y="-91" font-family="Helvetica,sans-Serif" font-size="10.00">/JStudio/stb/parseBlock</text>
<text text-anchor="start" x="6141.5" y="-80" font-family="Helvetica,sans-Serif" font-size="10.00">_next__Q37JStudio3stb6TParseFPPCv</text>
<text text-anchor="middle" x="6227.5" y="-69" font-family="Helvetica,sans-Serif" font-size="10.00">PUlUl.s</text>
</a>
</g>
</g>
<!-- Node1&#45;&gt;Node35 -->
<g id="edge35" class="edge">
<title>Node1&#45;&gt;Node35</title>
<path fill="none" stroke="midnightblue" d="M3329.17,-170.43C3699.86,-169.86 5838.86,-164.64 6124.5,-120 6130.61,-119.04 6136.87,-117.82 6143.13,-116.4"/>
<polygon fill="midnightblue" stroke="midnightblue" points="6144.05,-119.78 6152.95,-114.04 6142.41,-112.98 6144.05,-119.78"/>
</g>
<!-- Node36 -->
<g id="node36" class="node">
<title>Node36</title>
<g id="a_node36"><a xlink:title=" ">
<polygon fill="white" stroke="#bfbfbf" points="6340,-62 6340,-114 6597,-114 6597,-62 6340,-62"/>
<text text-anchor="start" x="6348" y="-102" font-family="Helvetica,sans-Serif" font-size="10.00">asm/JSystem/JStudio</text>
<text text-anchor="start" x="6348" y="-91" font-family="Helvetica,sans-Serif" font-size="10.00">/JStudio/stb/parseHeader</text>
<text text-anchor="start" x="6348" y="-80" font-family="Helvetica,sans-Serif" font-size="10.00">__Q37JStudio3stb6TParseFRCQ47JStudio3stb4data14</text>
<text text-anchor="middle" x="6468.5" y="-69" font-family="Helvetica,sans-Serif" font-size="10.00">TParse_THeaderUl.s</text>
</a>
</g>
</g>
<!-- Node1&#45;&gt;Node36 -->
<g id="edge36" class="edge">
<title>Node1&#45;&gt;Node36</title>
<path fill="none" stroke="midnightblue" d="M3329.01,-170.27C3714.37,-168.56 6021.61,-156.85 6330.5,-120 6339.54,-118.92 6348.86,-117.5 6358.19,-115.87"/>
<polygon fill="midnightblue" stroke="midnightblue" points="6359.09,-119.26 6368.29,-114.02 6357.83,-112.38 6359.09,-119.26"/>
</g>
<!-- Node37 -->
<g id="node37" class="node">
<title>Node37</title>
<g id="a_node37"><a xlink:title=" ">
<polygon fill="white" stroke="#bfbfbf" points="6615.5,-62 6615.5,-114 6815.5,-114 6815.5,-62 6615.5,-62"/>
<text text-anchor="start" x="6623.5" y="-102" font-family="Helvetica,sans-Serif" font-size="10.00">asm/JSystem/JStudio</text>
<text text-anchor="start" x="6623.5" y="-91" font-family="Helvetica,sans-Serif" font-size="10.00">/JStudio/stb/parseBlock</text>
<text text-anchor="start" x="6623.5" y="-80" font-family="Helvetica,sans-Serif" font-size="10.00">_block__Q37JStudio3stb6TParseFRCQ47</text>
<text text-anchor="middle" x="6715.5" y="-69" font-family="Helvetica,sans-Serif" font-size="10.00">JStudio3stb4data13TParse_TBlockUl.s</text>
</a>
</g>
</g>
<!-- Node1&#45;&gt;Node37 -->
<g id="edge37" class="edge">
<title>Node1&#45;&gt;Node37</title>
<path fill="none" stroke="midnightblue" d="M3329.02,-170.53C3734.15,-170.68 6269.6,-169.58 6606.5,-120 6613.1,-119.03 6619.87,-117.77 6626.65,-116.32"/>
<polygon fill="midnightblue" stroke="midnightblue" points="6627.58,-119.69 6636.55,-114.06 6626.03,-112.87 6627.58,-119.69"/>
</g>
<!-- Node38 -->
<g id="node38" class="node">
<title>Node38</title>
<g id="a_node38"><a xlink:title=" ">
<polygon fill="white" stroke="#bfbfbf" points="6833.5,-56.5 6833.5,-119.5 7005.5,-119.5 7005.5,-56.5 6833.5,-56.5"/>
<text text-anchor="start" x="6841.5" y="-107.5" font-family="Helvetica,sans-Serif" font-size="10.00">asm/JSystem/JStudio</text>
<text text-anchor="start" x="6841.5" y="-96.5" font-family="Helvetica,sans-Serif" font-size="10.00">/JStudio/stb/parseBlock</text>
<text text-anchor="start" x="6841.5" y="-85.5" font-family="Helvetica,sans-Serif" font-size="10.00">_object__Q37JStudio3stb6TParse</text>
<text text-anchor="start" x="6841.5" y="-74.5" font-family="Helvetica,sans-Serif" font-size="10.00">FRCQ47JStudio3stb4data20TParse</text>
<text text-anchor="middle" x="6919.5" y="-63.5" font-family="Helvetica,sans-Serif" font-size="10.00">_TBlock_objectUl.s</text>
</a>
</g>
</g>
<!-- Node1&#45;&gt;Node38 -->
<g id="edge38" class="edge">
<title>Node1&#45;&gt;Node38</title>
<path fill="none" stroke="midnightblue" d="M3329.33,-170.19C3757.93,-167.71 6560.8,-150.43 6823.3,-119.72"/>
<polygon fill="midnightblue" stroke="midnightblue" points="6823.88,-123.17 6833.31,-118.34 6822.92,-116.24 6823.88,-123.17"/>
</g>
<!-- Node39 -->
<g id="node39" class="node">
<title>Node39</title>
<g id="a_node39"><a xlink:title=" ">
<polygon fill="white" stroke="#bfbfbf" points="7023.5,-73 7023.5,-103 7169.5,-103 7169.5,-73 7023.5,-73"/>
<text text-anchor="start" x="7031.5" y="-91" font-family="Helvetica,sans-Serif" font-size="10.00">asm/JSystem/JStudio</text>
<text text-anchor="middle" x="7096.5" y="-80" font-family="Helvetica,sans-Serif" font-size="10.00">/JStudio/stb/func_80289928.s</text>
</a>
</g>
</g>
<!-- Node1&#45;&gt;Node39 -->
<g id="edge39" class="edge">
<title>Node1&#45;&gt;Node39</title>
<path fill="none" stroke="midnightblue" d="M3329.06,-170.3C3776.18,-168.62 6825.35,-155.88 7014.5,-120 7028.94,-117.26 7044.15,-112.18 7057.5,-106.91"/>
<polygon fill="midnightblue" stroke="midnightblue" points="7058.93,-110.1 7066.85,-103.07 7056.27,-103.63 7058.93,-110.1"/>
</g>
<!-- Node4&#45;&gt;Node3 -->
<g id="edge4" class="edge">
<title>Node4&#45;&gt;Node3</title>
<path fill="none" stroke="midnightblue" d="M172.85,-72.7C165.22,-60.11 154.1,-41.73 145.98,-28.31"/>
<polygon fill="midnightblue" stroke="midnightblue" points="148.86,-26.31 140.68,-19.56 142.87,-29.93 148.86,-26.31"/>
</g>
</g>
</svg>
        <g id="navigator" transform="translate(0 0)" fill="#404254">
                <rect fill="#f2f5e9" fill-opacity="0.5" stroke="#606060" stroke-width=".5" x="0" y="0" width="60" height="60"/>
                <use id="zoomplus" xlink:href="#zoomPlus" x="17" y="9" onmousedown="handleZoom(evt,'in')"/>
                <use id="zoomminus" xlink:href="#zoomMin" x="42" y="9" onmousedown="handleZoom(evt,'out')"/>
                <use id="reset" xlink:href="#resetDef" x="30" y="36" onmousedown="handleReset()"/>
                <g id="arrowUp" xlink:href="#dirArrow" transform="translate(30 24)" onmousedown="handlePan(0,-1)">
                  <use xlink:href="#rim" fill="#404040">
                        <set attributeName="fill" to="#808080" begin="arrowUp.mouseover" end="arrowUp.mouseout"/>
                  </use>
                  <path fill="none" stroke="white" stroke-width="1.5" d="M0,-3.0v7 M-2.5,-0.5L0,-3.0L2.5,-0.5"/>
                </g>
                <g id="arrowRight" xlink:href="#dirArrow" transform="rotate(90) translate(36 -43)" onmousedown="handlePan(1,0)">
                  <use xlink:href="#rim" fill="#404040">
                        <set attributeName="fill" to="#808080" begin="arrowRight.mouseover" end="arrowRight.mouseout"/>
                  </use>
                  <path fill="none" stroke="white" stroke-width="1.5" d="M0,-3.0v7 M-2.5,-0.5L0,-3.0L2.5,-0.5"/>
                </g>
                <g id="arrowDown" xlink:href="#dirArrow" transform="rotate(180) translate(-30 -48)" onmousedown="handlePan(0,1)">
                  <use xlink:href="#rim" fill="#404040">
                        <set attributeName="fill" to="#808080" begin="arrowDown.mouseover" end="arrowDown.mouseout"/>
                  </use>
                  <path fill="none" stroke="white" stroke-width="1.5" d="M0,-3.0v7 M-2.5,-0.5L0,-3.0L2.5,-0.5"/>
                </g>
                <g id="arrowLeft" xlink:href="#dirArrow" transform="rotate(270) translate(-36 17)" onmousedown="handlePan(-1,0)">
                  <use xlink:href="#rim" fill="#404040">
                        <set attributeName="fill" to="#808080" begin="arrowLeft.mouseover" end="arrowLeft.mouseout"/>
                  </use>
                  <path fill="none" stroke="white" stroke-width="1.5" d="M0,-3.0v7 M-2.5,-0.5L0,-3.0L2.5,-0.5"/>
                </g>
        </g>
        <svg viewBox="0 0 15 15" width="100%" height="30px" preserveAspectRatio="xMaxYMin meet">
         <g id="arrow_out" transform="scale(0.3 0.3)">
          <a xlink:href="stb_8cpp__incl_org.svg" target="_base">
           <rect id="button" ry="5" rx="5" y="6" x="6" height="38" width="38"
                fill="#f2f5e9" fill-opacity="0.5" stroke="#606060" stroke-width="1.0"/>
           <path id="arrow"
             d="M 11.500037,31.436501 C 11.940474,20.09759 22.043105,11.32322 32.158766,21.979434 L 37.068811,17.246167 C 37.068811,17.246167 37.088388,32 37.088388,32 L 22.160133,31.978069 C 22.160133,31.978069 26.997745,27.140456 26.997745,27.140456 C 18.528582,18.264221 13.291696,25.230495 11.500037,31.436501 z"
             style="fill:#404040;"/>
          </a>
         </g>
        </svg>
</svg>
