<?xml version="1.0" encoding="UTF-8" standalone="no"?>
<!DOCTYPE svg PUBLIC "-//W3C//DTD SVG 1.1//EN"
 "http://www.w3.org/Graphics/SVG/1.1/DTD/svg11.dtd">
<!-- Generated by graphviz version 2.47.0 (20210316.2052)
 -->
<!-- Title: libs/TRK_MINNOW_DOLPHIN/Os/dolphin/UDP_Stubs.cpp Pages: 1 -->
<svg width="260pt" height="162pt"
 viewBox="0.00 0.00 259.50 162.00" xmlns="http://www.w3.org/2000/svg" xmlns:xlink="http://www.w3.org/1999/xlink">
<g id="graph0" class="graph" transform="scale(1 1) rotate(0) translate(4 158)">
<title>libs/TRK_MINNOW_DOLPHIN/Os/dolphin/UDP_Stubs.cpp</title>
<polygon fill="white" stroke="transparent" points="-4,4 -4,-158 255.5,-158 255.5,4 -4,4"/>
<!-- Node1 -->
<g id="node1" class="node">
<title>Node1</title>
<g id="a_node1"><a xlink:title=" ">
<polygon fill="#bfbfbf" stroke="black" points="13.5,-123.5 13.5,-153.5 165.5,-153.5 165.5,-123.5 13.5,-123.5"/>
<text text-anchor="start" x="21.5" y="-141.5" font-family="Helvetica,sans-Serif" font-size="10.00">libs/TRK_MINNOW_DOLPHIN</text>
<text text-anchor="middle" x="89.5" y="-130.5" font-family="Helvetica,sans-Serif" font-size="10.00">/Os/dolphin/UDP_Stubs.cpp</text>
</a>
</g>
</g>
<!-- Node2 -->
<g id="node2" class="node">
<title>Node2</title>
<g id="a_node2"><a xlink:href="dol2asm_8h.html" target="_top" xlink:title=" ">
<polygon fill="white" stroke="black" points="0,-62 0,-81 61,-81 61,-62 0,-62"/>
<text text-anchor="middle" x="30.5" y="-69" font-family="Helvetica,sans-Serif" font-size="10.00">dol2asm.h</text>
</a>
</g>
</g>
<!-- Node1&#45;&gt;Node2 -->
<g id="edge1" class="edge">
<title>Node1&#45;&gt;Node2</title>
<path fill="none" stroke="midnightblue" d="M76.7,-123.4C67.41,-113.16 54.82,-99.3 45.13,-88.62"/>
<polygon fill="midnightblue" stroke="midnightblue" points="47.7,-86.25 38.39,-81.19 42.52,-90.95 47.7,-86.25"/>
</g>
<!-- Node3 -->
<g id="node3" class="node">
<title>Node3</title>
<g id="a_node3"><a xlink:href="types_8h.html" target="_top" xlink:title=" ">
<polygon fill="white" stroke="black" points="96,-0.5 96,-19.5 177,-19.5 177,-0.5 96,-0.5"/>
<text text-anchor="middle" x="136.5" y="-7.5" font-family="Helvetica,sans-Serif" font-size="10.00">dolphin/types.h</text>
</a>
</g>
</g>
<!-- Node1&#45;&gt;Node3 -->
<g id="edge2" class="edge">
<title>Node1&#45;&gt;Node3</title>
<path fill="none" stroke="midnightblue" d="M91.38,-123.22C93.89,-106.6 99.16,-78.55 108.5,-56 112.59,-46.12 118.74,-35.93 124.24,-27.75"/>
<polygon fill="midnightblue" stroke="midnightblue" points="127.15,-29.7 130.02,-19.5 121.42,-25.68 127.15,-29.7"/>
</g>
<!-- Node4 -->
<g id="node4" class="node">
<title>Node4</title>
<g id="a_node4"><a xlink:href="UDP__Stubs_8h.html" target="_top" xlink:title=" ">
<polygon fill="white" stroke="black" points="117.5,-56.5 117.5,-86.5 251.5,-86.5 251.5,-56.5 117.5,-56.5"/>
<text text-anchor="start" x="125.5" y="-74.5" font-family="Helvetica,sans-Serif" font-size="10.00">TRK_MINNOW_DOLPHIN</text>
<text text-anchor="middle" x="184.5" y="-63.5" font-family="Helvetica,sans-Serif" font-size="10.00">/Os/dolphin/UDP_Stubs.h</text>
</a>
</g>
</g>
<!-- Node1&#45;&gt;Node4 -->
<g id="edge3" class="edge">
<title>Node1&#45;&gt;Node4</title>
<path fill="none" stroke="midnightblue" d="M110.11,-123.4C123.43,-114.28 140.96,-102.29 155.66,-92.24"/>
<polygon fill="midnightblue" stroke="midnightblue" points="157.65,-95.11 163.93,-86.58 153.7,-89.33 157.65,-95.11"/>
</g>
<!-- Node4&#45;&gt;Node3 -->
<g id="edge4" class="edge">
<title>Node4&#45;&gt;Node3</title>
<path fill="none" stroke="midnightblue" d="M173.12,-56.4C166.15,-47.75 157.19,-36.64 149.87,-27.58"/>
<polygon fill="midnightblue" stroke="midnightblue" points="152.49,-25.24 143.48,-19.66 147.04,-29.64 152.49,-25.24"/>
</g>
</g>
</svg>
