<?xml version="1.0" encoding="UTF-8" standalone="no"?>
<!DOCTYPE svg PUBLIC "-//W3C//DTD SVG 1.1//EN"
 "http://www.w3.org/Graphics/SVG/1.1/DTD/svg11.dtd">
<!-- Generated by graphviz version 2.47.0 (20210316.2052)
 -->
<!-- Title: libs/TRK_MINNOW_DOLPHIN/Os/dolphin/usr_put.cpp Pages: 1 -->
<svg width="608pt" height="173pt"
 viewBox="0.00 0.00 607.50 173.00" xmlns="http://www.w3.org/2000/svg" xmlns:xlink="http://www.w3.org/1999/xlink">
<g id="graph0" class="graph" transform="scale(1 1) rotate(0) translate(4 169)">
<title>libs/TRK_MINNOW_DOLPHIN/Os/dolphin/usr_put.cpp</title>
<polygon fill="white" stroke="transparent" points="-4,4 -4,-169 603.5,-169 603.5,4 -4,4"/>
<!-- Node1 -->
<g id="node1" class="node">
<title>Node1</title>
<g id="a_node1"><a xlink:title=" ">
<polygon fill="#bfbfbf" stroke="black" points="108.5,-134.5 108.5,-164.5 260.5,-164.5 260.5,-134.5 108.5,-134.5"/>
<text text-anchor="start" x="116.5" y="-152.5" font-family="Helvetica,sans-Serif" font-size="10.00">libs/TRK_MINNOW_DOLPHIN</text>
<text text-anchor="middle" x="184.5" y="-141.5" font-family="Helvetica,sans-Serif" font-size="10.00">/Os/dolphin/usr_put.cpp</text>
</a>
</g>
</g>
<!-- Node2 -->
<g id="node2" class="node">
<title>Node2</title>
<g id="a_node2"><a xlink:href="dol2asm_8h.html" target="_top" xlink:title=" ">
<polygon fill="white" stroke="black" points="0,-67.5 0,-86.5 61,-86.5 61,-67.5 0,-67.5"/>
<text text-anchor="middle" x="30.5" y="-74.5" font-family="Helvetica,sans-Serif" font-size="10.00">dol2asm.h</text>
</a>
</g>
</g>
<!-- Node1&#45;&gt;Node2 -->
<g id="edge1" class="edge">
<title>Node1&#45;&gt;Node2</title>
<path fill="none" stroke="midnightblue" d="M153.71,-134.4C125.88,-121.66 85.27,-103.07 58.38,-90.76"/>
<polygon fill="midnightblue" stroke="midnightblue" points="59.69,-87.51 49.14,-86.53 56.78,-93.88 59.69,-87.51"/>
</g>
<!-- Node3 -->
<g id="node3" class="node">
<title>Node3</title>
<g id="a_node3"><a xlink:href="types_8h.html" target="_top" xlink:title=" ">
<polygon fill="white" stroke="black" points="96,-0.5 96,-19.5 177,-19.5 177,-0.5 96,-0.5"/>
<text text-anchor="middle" x="136.5" y="-7.5" font-family="Helvetica,sans-Serif" font-size="10.00">dolphin/types.h</text>
</a>
</g>
</g>
<!-- Node1&#45;&gt;Node3 -->
<g id="edge2" class="edge">
<title>Node1&#45;&gt;Node3</title>
<path fill="none" stroke="midnightblue" d="M149.36,-134.45C133.89,-126.29 117.26,-114.34 108.5,-98 96.24,-75.14 111.06,-45.99 123.37,-27.91"/>
<polygon fill="midnightblue" stroke="midnightblue" points="126.39,-29.71 129.43,-19.56 120.72,-25.6 126.39,-29.71"/>
</g>
<!-- Node4 -->
<g id="node4" class="node">
<title>Node4</title>
<g id="a_node4"><a xlink:href="usr__put_8h.html" target="_top" xlink:title=" ">
<polygon fill="white" stroke="black" points="117.5,-62 117.5,-92 251.5,-92 251.5,-62 117.5,-62"/>
<text text-anchor="start" x="125.5" y="-80" font-family="Helvetica,sans-Serif" font-size="10.00">TRK_MINNOW_DOLPHIN</text>
<text text-anchor="middle" x="184.5" y="-69" font-family="Helvetica,sans-Serif" font-size="10.00">/Os/dolphin/usr_put.h</text>
</a>
</g>
</g>
<!-- Node1&#45;&gt;Node4 -->
<g id="edge3" class="edge">
<title>Node1&#45;&gt;Node4</title>
<path fill="none" stroke="midnightblue" d="M184.5,-134.23C184.5,-125.16 184.5,-113.16 184.5,-102.58"/>
<polygon fill="midnightblue" stroke="midnightblue" points="188,-102.25 184.5,-92.25 181,-102.25 188,-102.25"/>
</g>
<!-- Node5 -->
<g id="node5" class="node">
<title>Node5</title>
<g id="a_node5"><a xlink:title=" ">
<polygon fill="white" stroke="#bfbfbf" points="269.5,-56.5 269.5,-97.5 425.5,-97.5 425.5,-56.5 269.5,-56.5"/>
<text text-anchor="start" x="277.5" y="-85.5" font-family="Helvetica,sans-Serif" font-size="10.00">asm/TRK_MINNOW_DOLPHIN</text>
<text text-anchor="start" x="277.5" y="-74.5" font-family="Helvetica,sans-Serif" font-size="10.00">/Os/dolphin/usr_put/usr</text>
<text text-anchor="middle" x="347.5" y="-63.5" font-family="Helvetica,sans-Serif" font-size="10.00">_put_initialize.s</text>
</a>
</g>
</g>
<!-- Node1&#45;&gt;Node5 -->
<g id="edge5" class="edge">
<title>Node1&#45;&gt;Node5</title>
<path fill="none" stroke="midnightblue" d="M217.09,-134.4C238.76,-125.03 267.74,-112.5 292.88,-101.62"/>
<polygon fill="midnightblue" stroke="midnightblue" points="294.52,-104.73 302.31,-97.55 291.74,-98.3 294.52,-104.73"/>
</g>
<!-- Node6 -->
<g id="node6" class="node">
<title>Node6</title>
<g id="a_node6"><a xlink:title=" ">
<polygon fill="white" stroke="#bfbfbf" points="443.5,-56.5 443.5,-97.5 599.5,-97.5 599.5,-56.5 443.5,-56.5"/>
<text text-anchor="start" x="451.5" y="-85.5" font-family="Helvetica,sans-Serif" font-size="10.00">asm/TRK_MINNOW_DOLPHIN</text>
<text text-anchor="start" x="451.5" y="-74.5" font-family="Helvetica,sans-Serif" font-size="10.00">/Os/dolphin/usr_put/usr</text>
<text text-anchor="middle" x="521.5" y="-63.5" font-family="Helvetica,sans-Serif" font-size="10.00">_puts_serial.s</text>
</a>
</g>
</g>
<!-- Node1&#45;&gt;Node6 -->
<g id="edge6" class="edge">
<title>Node1&#45;&gt;Node6</title>
<path fill="none" stroke="midnightblue" d="M256.54,-134.48C304.1,-125.09 368.05,-112.25 433.22,-98.25"/>
<polygon fill="midnightblue" stroke="midnightblue" points="434.23,-101.62 443.27,-96.09 432.75,-94.77 434.23,-101.62"/>
</g>
<!-- Node4&#45;&gt;Node3 -->
<g id="edge4" class="edge">
<title>Node4&#45;&gt;Node3</title>
<path fill="none" stroke="midnightblue" d="M174.08,-61.9C166.67,-51.86 156.69,-38.34 148.87,-27.75"/>
<polygon fill="midnightblue" stroke="midnightblue" points="151.68,-25.66 142.92,-19.69 146.05,-29.82 151.68,-25.66"/>
</g>
</g>
</svg>
