<?xml version="1.0" encoding="UTF-8" standalone="no"?>
<!DOCTYPE svg PUBLIC "-//W3C//DTD SVG 1.1//EN"
 "http://www.w3.org/Graphics/SVG/1.1/DTD/svg11.dtd">
<!-- Generated by graphviz version 2.47.0 (20210316.2052)
 -->
<!-- Title: libs/dolphin/vi/vi.cpp Pages: 1 -->
<!--zoomable 151 -->
<svg id="main" version="1.1" xmlns="http://www.w3.org/2000/svg" xmlns:xlink="http://www.w3.org/1999/xlink" xml:space="preserve" onload="init(evt)">
<style type="text/css"><![CDATA[
.edge:hover path { stroke: red; }
.edge:hover polygon { stroke: red; fill: red; }
]]></style>
<script type="text/javascript"><![CDATA[
var edges = document.getElementsByTagName('g');
if (edges && edges.length) {
  for (var i=0;i<edges.length;i++) {
    if (edges[i].id.substr(0,4)=='edge') {
      edges[i].setAttribute('class','edge');
    }
  }
}
]]></script>
        <defs>
                <circle id="rim" cx="0" cy="0" r="7"/>
                <circle id="rim2" cx="0" cy="0" r="3.5"/>
                <g id="zoomPlus">
                        <use xlink:href="#rim" fill="#404040">
                                <set attributeName="fill" to="#808080" begin="zoomplus.mouseover" end="zoomplus.mouseout"/>
                        </use>
                        <path d="M-4,0h8M0,-4v8" fill="none" stroke="white" stroke-width="1.5" pointer-events="none"/>
                </g>
                <g id="zoomMin">
                        <use xlink:href="#rim" fill="#404040">
                                <set attributeName="fill" to="#808080" begin="zoomminus.mouseover" end="zoomminus.mouseout"/>
                        </use>
                        <path d="M-4,0h8" fill="none" stroke="white" stroke-width="1.5" pointer-events="none"/>
                </g>
                <g id="dirArrow">
                        <path fill="none" stroke="white" stroke-width="1.5" d="M0,-3.0v7 M-2.5,-0.5L0,-3.0L2.5,-0.5"/>
                </g>
               <g id="resetDef">
                       <use xlink:href="#rim2" fill="#404040">
                               <set attributeName="fill" to="#808080" begin="reset.mouseover" end="reset.mouseout"/>
                       </use>
               </g>
        </defs>

<script type="text/javascript">
var viewWidth = 3915;
var viewHeight = 151;
var sectionId = 'dynsection-0';
</script>
<script xlink:href="svgpan.js"/>
<svg id="graph" class="graph">
<g id="viewport">
<title>libs/dolphin/vi/vi.cpp</title>
<polygon fill="white" stroke="transparent" points="-4,4 -4,-147 3911,-147 3911,4 -4,4"/>
<!-- Node1 -->
<g id="node1" class="node">
<title>Node1</title>
<g id="a_node1"><a xlink:title=" ">
<polygon fill="#bfbfbf" stroke="black" points="1688.5,-123.5 1688.5,-142.5 1792.5,-142.5 1792.5,-123.5 1688.5,-123.5"/>
<text text-anchor="middle" x="1740.5" y="-130.5" font-family="Helvetica,sans-Serif" font-size="10.00">libs/dolphin/vi/vi.cpp</text>
</a>
</g>
</g>
<!-- Node2 -->
<g id="node2" class="node">
<title>Node2</title>
<g id="a_node2"><a xlink:href="dol2asm_8h.html" target="_top" xlink:title=" ">
<polygon fill="white" stroke="black" points="0,-62 0,-81 61,-81 61,-62 0,-62"/>
<text text-anchor="middle" x="30.5" y="-69" font-family="Helvetica,sans-Serif" font-size="10.00">dol2asm.h</text>
</a>
</g>
</g>
<!-- Node1&#45;&gt;Node2 -->
<g id="edge1" class="edge">
<title>Node1&#45;&gt;Node2</title>
<path fill="none" stroke="midnightblue" d="M1688.35,-131.47C1423.9,-128.68 237.43,-114.69 75.5,-87 71.22,-86.27 66.79,-85.22 62.45,-84.02"/>
<polygon fill="midnightblue" stroke="midnightblue" points="63.2,-80.59 52.62,-81.01 61.16,-87.28 63.2,-80.59"/>
</g>
<!-- Node3 -->
<g id="node3" class="node">
<title>Node3</title>
<g id="a_node3"><a xlink:href="types_8h.html" target="_top" xlink:title=" ">
<polygon fill="white" stroke="black" points="82,-0.5 82,-19.5 163,-19.5 163,-0.5 82,-0.5"/>
<text text-anchor="middle" x="122.5" y="-7.5" font-family="Helvetica,sans-Serif" font-size="10.00">dolphin/types.h</text>
</a>
</g>
</g>
<!-- Node1&#45;&gt;Node3 -->
<g id="edge2" class="edge">
<title>Node1&#45;&gt;Node3</title>
<path fill="none" stroke="midnightblue" d="M1688.12,-131.55C1411.98,-129.06 136.69,-115.98 108.5,-87 93.56,-71.65 102.7,-45.88 111.7,-28.66"/>
<polygon fill="midnightblue" stroke="midnightblue" points="114.92,-30.09 116.79,-19.66 108.82,-26.64 114.92,-30.09"/>
</g>
<!-- Node4 -->
<g id="node4" class="node">
<title>Node4</title>
<g id="a_node4"><a xlink:href="vi_8h.html" target="_top" xlink:title=" ">
<polygon fill="white" stroke="black" points="117.5,-62 117.5,-81 193.5,-81 193.5,-62 117.5,-62"/>
<text text-anchor="middle" x="155.5" y="-69" font-family="Helvetica,sans-Serif" font-size="10.00">dolphin/vi/vi.h</text>
</a>
</g>
</g>
<!-- Node1&#45;&gt;Node4 -->
<g id="edge3" class="edge">
<title>Node1&#45;&gt;Node4</title>
<path fill="none" stroke="midnightblue" d="M1688.25,-132.36C1453.82,-133.68 497.66,-135.92 202.5,-87 198.02,-86.26 193.37,-85.2 188.82,-83.98"/>
<polygon fill="midnightblue" stroke="midnightblue" points="189.69,-80.59 179.11,-81.15 187.73,-87.31 189.69,-80.59"/>
</g>
<!-- Node5 -->
<g id="node5" class="node">
<title>Node5</title>
<g id="a_node5"><a xlink:title=" ">
<polygon fill="white" stroke="#bfbfbf" points="211.5,-56.5 211.5,-86.5 323.5,-86.5 323.5,-56.5 211.5,-56.5"/>
<text text-anchor="start" x="219.5" y="-74.5" font-family="Helvetica,sans-Serif" font-size="10.00">asm/dolphin/vi/vi/</text>
<text text-anchor="middle" x="267.5" y="-63.5" font-family="Helvetica,sans-Serif" font-size="10.00">__VIRetraceHandler.s</text>
</a>
</g>
</g>
<!-- Node1&#45;&gt;Node5 -->
<g id="edge5" class="edge">
<title>Node1&#45;&gt;Node5</title>
<path fill="none" stroke="midnightblue" d="M1688.38,-131.62C1466.97,-129.8 603.3,-120.66 333.5,-87 333.4,-86.99 333.3,-86.97 333.19,-86.96"/>
<polygon fill="midnightblue" stroke="midnightblue" points="333.95,-83.53 323.55,-85.55 332.94,-90.46 333.95,-83.53"/>
</g>
<!-- Node6 -->
<g id="node6" class="node">
<title>Node6</title>
<g id="a_node6"><a xlink:title=" ">
<polygon fill="white" stroke="#bfbfbf" points="342,-56.5 342,-86.5 475,-86.5 475,-56.5 342,-56.5"/>
<text text-anchor="start" x="350" y="-74.5" font-family="Helvetica,sans-Serif" font-size="10.00">asm/dolphin/vi/vi/VISetPre</text>
<text text-anchor="middle" x="408.5" y="-63.5" font-family="Helvetica,sans-Serif" font-size="10.00">RetraceCallback.s</text>
</a>
</g>
</g>
<!-- Node1&#45;&gt;Node6 -->
<g id="edge6" class="edge">
<title>Node1&#45;&gt;Node6</title>
<path fill="none" stroke="midnightblue" d="M1688.18,-131.19C1484.47,-127.88 743.31,-114.28 485.22,-86.91"/>
<polygon fill="midnightblue" stroke="midnightblue" points="485.46,-83.42 475.14,-85.81 484.7,-90.38 485.46,-83.42"/>
</g>
<!-- Node7 -->
<g id="node7" class="node">
<title>Node7</title>
<g id="a_node7"><a xlink:title=" ">
<polygon fill="white" stroke="#bfbfbf" points="493.5,-56.5 493.5,-86.5 631.5,-86.5 631.5,-56.5 493.5,-56.5"/>
<text text-anchor="start" x="501.5" y="-74.5" font-family="Helvetica,sans-Serif" font-size="10.00">asm/dolphin/vi/vi/VISetPost</text>
<text text-anchor="middle" x="562.5" y="-63.5" font-family="Helvetica,sans-Serif" font-size="10.00">RetraceCallback.s</text>
</a>
</g>
</g>
<!-- Node1&#45;&gt;Node7 -->
<g id="edge7" class="edge">
<title>Node1&#45;&gt;Node7</title>
<path fill="none" stroke="midnightblue" d="M1688.25,-132.46C1531.3,-133.29 1050.24,-131.8 641.72,-86.89"/>
<polygon fill="midnightblue" stroke="midnightblue" points="642.11,-83.41 631.78,-85.79 641.33,-90.37 642.11,-83.41"/>
</g>
<!-- Node8 -->
<g id="node8" class="node">
<title>Node8</title>
<g id="a_node8"><a xlink:title=" ">
<polygon fill="white" stroke="#bfbfbf" points="650,-62 650,-81 793,-81 793,-62 650,-62"/>
<text text-anchor="middle" x="721.5" y="-69" font-family="Helvetica,sans-Serif" font-size="10.00">asm/dolphin/vi/vi/getTiming.s</text>
</a>
</g>
</g>
<!-- Node1&#45;&gt;Node8 -->
<g id="edge8" class="edge">
<title>Node1&#45;&gt;Node8</title>
<path fill="none" stroke="midnightblue" d="M1688.45,-131.86C1546.12,-130.96 1138.66,-124.99 802.5,-87 793.02,-85.93 782.97,-84.43 773.3,-82.8"/>
<polygon fill="midnightblue" stroke="midnightblue" points="773.84,-79.34 763.39,-81.06 772.64,-86.24 773.84,-79.34"/>
</g>
<!-- Node9 -->
<g id="node9" class="node">
<title>Node9</title>
<g id="a_node9"><a xlink:title=" ">
<polygon fill="white" stroke="#bfbfbf" points="811,-56.5 811,-86.5 904,-86.5 904,-56.5 811,-56.5"/>
<text text-anchor="start" x="819" y="-74.5" font-family="Helvetica,sans-Serif" font-size="10.00">asm/dolphin/vi/vi/</text>
<text text-anchor="middle" x="857.5" y="-63.5" font-family="Helvetica,sans-Serif" font-size="10.00">__VIInit.s</text>
</a>
</g>
</g>
<!-- Node1&#45;&gt;Node9 -->
<g id="edge9" class="edge">
<title>Node1&#45;&gt;Node9</title>
<path fill="none" stroke="midnightblue" d="M1688.33,-130.55C1534.2,-126.07 1081.68,-111.29 914.08,-87"/>
<polygon fill="midnightblue" stroke="midnightblue" points="914.58,-83.53 904.17,-85.5 913.53,-90.45 914.58,-83.53"/>
</g>
<!-- Node10 -->
<g id="node10" class="node">
<title>Node10</title>
<g id="a_node10"><a xlink:title=" ">
<polygon fill="white" stroke="#bfbfbf" points="921.5,-62 921.5,-81 1045.5,-81 1045.5,-62 921.5,-62"/>
<text text-anchor="middle" x="983.5" y="-69" font-family="Helvetica,sans-Serif" font-size="10.00">asm/dolphin/vi/vi/VIInit.s</text>
</a>
</g>
</g>
<!-- Node1&#45;&gt;Node10 -->
<g id="edge10" class="edge">
<title>Node1&#45;&gt;Node10</title>
<path fill="none" stroke="midnightblue" d="M1688.19,-130.99C1573.14,-128.24 1289.6,-118.57 1054.5,-87 1046.7,-85.95 1038.47,-84.55 1030.48,-83.03"/>
<polygon fill="midnightblue" stroke="midnightblue" points="1031.05,-79.57 1020.56,-81.06 1029.68,-86.44 1031.05,-79.57"/>
</g>
<!-- Node11 -->
<g id="node11" class="node">
<title>Node11</title>
<g id="a_node11"><a xlink:title=" ">
<polygon fill="white" stroke="#bfbfbf" points="1063.5,-56.5 1063.5,-86.5 1185.5,-86.5 1185.5,-56.5 1063.5,-56.5"/>
<text text-anchor="start" x="1071.5" y="-74.5" font-family="Helvetica,sans-Serif" font-size="10.00">asm/dolphin/vi/vi/VIWait</text>
<text text-anchor="middle" x="1124.5" y="-63.5" font-family="Helvetica,sans-Serif" font-size="10.00">ForRetrace.s</text>
</a>
</g>
</g>
<!-- Node1&#45;&gt;Node11 -->
<g id="edge11" class="edge">
<title>Node1&#45;&gt;Node11</title>
<path fill="none" stroke="midnightblue" d="M1688.42,-129.77C1591.16,-125.14 1375.48,-112.72 1195.5,-87 1195.4,-86.99 1195.3,-86.97 1195.2,-86.96"/>
<polygon fill="midnightblue" stroke="midnightblue" points="1196.03,-83.54 1185.61,-85.46 1194.95,-90.46 1196.03,-83.54"/>
</g>
<!-- Node12 -->
<g id="node12" class="node">
<title>Node12</title>
<g id="a_node12"><a xlink:title=" ">
<polygon fill="white" stroke="#bfbfbf" points="1204,-56.5 1204,-86.5 1327,-86.5 1327,-56.5 1204,-56.5"/>
<text text-anchor="start" x="1212" y="-74.5" font-family="Helvetica,sans-Serif" font-size="10.00">asm/dolphin/vi/vi/setFbb</text>
<text text-anchor="middle" x="1265.5" y="-63.5" font-family="Helvetica,sans-Serif" font-size="10.00">Regs.s</text>
</a>
</g>
</g>
<!-- Node1&#45;&gt;Node12 -->
<g id="edge12" class="edge">
<title>Node1&#45;&gt;Node12</title>
<path fill="none" stroke="midnightblue" d="M1688.32,-127.71C1613.04,-121.18 1469.39,-107.48 1336.93,-86.97"/>
<polygon fill="midnightblue" stroke="midnightblue" points="1337.43,-83.51 1327.01,-85.42 1336.35,-90.42 1337.43,-83.51"/>
</g>
<!-- Node13 -->
<g id="node13" class="node">
<title>Node13</title>
<g id="a_node13"><a xlink:title=" ">
<polygon fill="white" stroke="#bfbfbf" points="1345.5,-56.5 1345.5,-86.5 1485.5,-86.5 1485.5,-56.5 1345.5,-56.5"/>
<text text-anchor="start" x="1353.5" y="-74.5" font-family="Helvetica,sans-Serif" font-size="10.00">asm/dolphin/vi/vi/setVertical</text>
<text text-anchor="middle" x="1415.5" y="-63.5" font-family="Helvetica,sans-Serif" font-size="10.00">Regs.s</text>
</a>
</g>
</g>
<!-- Node1&#45;&gt;Node13 -->
<g id="edge13" class="edge">
<title>Node1&#45;&gt;Node13</title>
<path fill="none" stroke="midnightblue" d="M1693.94,-123.48C1642.31,-114.02 1558.11,-98.61 1495.8,-87.2"/>
<polygon fill="midnightblue" stroke="midnightblue" points="1496.08,-83.69 1485.61,-85.34 1494.82,-90.58 1496.08,-83.69"/>
</g>
<!-- Node14 -->
<g id="node14" class="node">
<title>Node14</title>
<g id="a_node14"><a xlink:title=" ">
<polygon fill="white" stroke="#bfbfbf" points="1504,-62 1504,-81 1655,-81 1655,-62 1504,-62"/>
<text text-anchor="middle" x="1579.5" y="-69" font-family="Helvetica,sans-Serif" font-size="10.00">asm/dolphin/vi/vi/VIConfigure.s</text>
</a>
</g>
</g>
<!-- Node1&#45;&gt;Node14 -->
<g id="edge14" class="edge">
<title>Node1&#45;&gt;Node14</title>
<path fill="none" stroke="midnightblue" d="M1717.43,-123.48C1689.82,-113.27 1643.38,-96.11 1612.1,-84.55"/>
<polygon fill="midnightblue" stroke="midnightblue" points="1613.12,-81.19 1602.52,-81.01 1610.69,-87.76 1613.12,-81.19"/>
</g>
<!-- Node15 -->
<g id="node15" class="node">
<title>Node15</title>
<g id="a_node15"><a xlink:title=" ">
<polygon fill="white" stroke="#bfbfbf" points="1673.5,-62 1673.5,-81 1807.5,-81 1807.5,-62 1673.5,-62"/>
<text text-anchor="middle" x="1740.5" y="-69" font-family="Helvetica,sans-Serif" font-size="10.00">asm/dolphin/vi/vi/VIFlush.s</text>
</a>
</g>
</g>
<!-- Node1&#45;&gt;Node15 -->
<g id="edge15" class="edge">
<title>Node1&#45;&gt;Node15</title>
<path fill="none" stroke="midnightblue" d="M1740.5,-123.48C1740.5,-115.08 1740.5,-101.98 1740.5,-91.16"/>
<polygon fill="midnightblue" stroke="midnightblue" points="1744,-91.01 1740.5,-81.01 1737,-91.01 1744,-91.01"/>
</g>
<!-- Node16 -->
<g id="node16" class="node">
<title>Node16</title>
<g id="a_node16"><a xlink:title=" ">
<polygon fill="white" stroke="#bfbfbf" points="1825.5,-56.5 1825.5,-86.5 1963.5,-86.5 1963.5,-56.5 1825.5,-56.5"/>
<text text-anchor="start" x="1833.5" y="-74.5" font-family="Helvetica,sans-Serif" font-size="10.00">asm/dolphin/vi/vi/VISetNext</text>
<text text-anchor="middle" x="1894.5" y="-63.5" font-family="Helvetica,sans-Serif" font-size="10.00">FrameBuffer.s</text>
</a>
</g>
</g>
<!-- Node1&#45;&gt;Node16 -->
<g id="edge16" class="edge">
<title>Node1&#45;&gt;Node16</title>
<path fill="none" stroke="midnightblue" d="M1762.56,-123.48C1784.98,-114.81 1820.36,-101.15 1848.84,-90.14"/>
<polygon fill="midnightblue" stroke="midnightblue" points="1850.14,-93.39 1858.21,-86.52 1847.62,-86.86 1850.14,-93.39"/>
</g>
<!-- Node17 -->
<g id="node17" class="node">
<title>Node17</title>
<g id="a_node17"><a xlink:title=" ">
<polygon fill="white" stroke="#bfbfbf" points="1982,-56.5 1982,-86.5 2121,-86.5 2121,-56.5 1982,-56.5"/>
<text text-anchor="start" x="1990" y="-74.5" font-family="Helvetica,sans-Serif" font-size="10.00">asm/dolphin/vi/vi/VIGetNext</text>
<text text-anchor="middle" x="2051.5" y="-63.5" font-family="Helvetica,sans-Serif" font-size="10.00">FrameBuffer.s</text>
</a>
</g>
</g>
<!-- Node1&#45;&gt;Node17 -->
<g id="edge17" class="edge">
<title>Node1&#45;&gt;Node17</title>
<path fill="none" stroke="midnightblue" d="M1785.06,-123.48C1833.64,-114.18 1912.38,-99.12 1971.68,-87.77"/>
<polygon fill="midnightblue" stroke="midnightblue" points="1972.61,-91.16 1981.77,-85.84 1971.29,-84.28 1972.61,-91.16"/>
</g>
<!-- Node18 -->
<g id="node18" class="node">
<title>Node18</title>
<g id="a_node18"><a xlink:title=" ">
<polygon fill="white" stroke="#bfbfbf" points="2139.5,-56.5 2139.5,-86.5 2289.5,-86.5 2289.5,-56.5 2139.5,-56.5"/>
<text text-anchor="start" x="2147.5" y="-74.5" font-family="Helvetica,sans-Serif" font-size="10.00">asm/dolphin/vi/vi/VIGetCurrent</text>
<text text-anchor="middle" x="2214.5" y="-63.5" font-family="Helvetica,sans-Serif" font-size="10.00">FrameBuffer.s</text>
</a>
</g>
</g>
<!-- Node1&#45;&gt;Node18 -->
<g id="edge18" class="edge">
<title>Node1&#45;&gt;Node18</title>
<path fill="none" stroke="midnightblue" d="M1792.66,-126.92C1865.61,-119.61 2002.45,-105.14 2129.16,-87.14"/>
<polygon fill="midnightblue" stroke="midnightblue" points="2130.02,-90.56 2139.43,-85.67 2129.03,-83.63 2130.02,-90.56"/>
</g>
<!-- Node19 -->
<g id="node19" class="node">
<title>Node19</title>
<g id="a_node19"><a xlink:title=" ">
<polygon fill="white" stroke="#bfbfbf" points="2307.5,-62 2307.5,-81 2457.5,-81 2457.5,-62 2307.5,-62"/>
<text text-anchor="middle" x="2382.5" y="-69" font-family="Helvetica,sans-Serif" font-size="10.00">asm/dolphin/vi/vi/VISetBlack.s</text>
</a>
</g>
</g>
<!-- Node1&#45;&gt;Node19 -->
<g id="edge19" class="edge">
<title>Node1&#45;&gt;Node19</title>
<path fill="none" stroke="midnightblue" d="M1792.59,-129.38C1891.48,-124.05 2113.13,-110.43 2298.5,-87 2307.98,-85.8 2318.02,-84.29 2327.74,-82.69"/>
<polygon fill="midnightblue" stroke="midnightblue" points="2328.43,-86.12 2337.71,-81 2327.27,-79.22 2328.43,-86.12"/>
</g>
<!-- Node20 -->
<g id="node20" class="node">
<title>Node20</title>
<g id="a_node20"><a xlink:title=" ">
<polygon fill="white" stroke="#bfbfbf" points="2475.5,-56.5 2475.5,-86.5 2627.5,-86.5 2627.5,-56.5 2475.5,-56.5"/>
<text text-anchor="start" x="2483.5" y="-74.5" font-family="Helvetica,sans-Serif" font-size="10.00">asm/dolphin/vi/vi/VIGetRetrace</text>
<text text-anchor="middle" x="2551.5" y="-63.5" font-family="Helvetica,sans-Serif" font-size="10.00">Count.s</text>
</a>
</g>
</g>
<!-- Node1&#45;&gt;Node20 -->
<g id="edge20" class="edge">
<title>Node1&#45;&gt;Node20</title>
<path fill="none" stroke="midnightblue" d="M1792.61,-130.68C1910.54,-127.29 2207.03,-116.45 2464.79,-87.12"/>
<polygon fill="midnightblue" stroke="midnightblue" points="2465.57,-90.55 2475.1,-85.93 2464.77,-83.6 2465.57,-90.55"/>
</g>
<!-- Node21 -->
<g id="node21" class="node">
<title>Node21</title>
<g id="a_node21"><a xlink:title=" ">
<polygon fill="white" stroke="#bfbfbf" points="2645.5,-56.5 2645.5,-86.5 2785.5,-86.5 2785.5,-56.5 2645.5,-56.5"/>
<text text-anchor="start" x="2653.5" y="-74.5" font-family="Helvetica,sans-Serif" font-size="10.00">asm/dolphin/vi/vi/GetCurrent</text>
<text text-anchor="middle" x="2715.5" y="-63.5" font-family="Helvetica,sans-Serif" font-size="10.00">DisplayPosition.s</text>
</a>
</g>
</g>
<!-- Node1&#45;&gt;Node21 -->
<g id="edge21" class="edge">
<title>Node1&#45;&gt;Node21</title>
<path fill="none" stroke="midnightblue" d="M1792.71,-131.77C1929.48,-130.65 2309.52,-124.27 2635.25,-87.03"/>
<polygon fill="midnightblue" stroke="midnightblue" points="2635.83,-90.49 2645.36,-85.87 2635.03,-83.54 2635.83,-90.49"/>
</g>
<!-- Node22 -->
<g id="node22" class="node">
<title>Node22</title>
<g id="a_node22"><a xlink:title=" ">
<polygon fill="white" stroke="#bfbfbf" points="2803.5,-56.5 2803.5,-86.5 2941.5,-86.5 2941.5,-56.5 2803.5,-56.5"/>
<text text-anchor="start" x="2811.5" y="-74.5" font-family="Helvetica,sans-Serif" font-size="10.00">asm/dolphin/vi/vi/getCurrent</text>
<text text-anchor="middle" x="2872.5" y="-63.5" font-family="Helvetica,sans-Serif" font-size="10.00">FieldEvenOdd.s</text>
</a>
</g>
</g>
<!-- Node1&#45;&gt;Node22 -->
<g id="edge22" class="edge">
<title>Node1&#45;&gt;Node22</title>
<path fill="none" stroke="midnightblue" d="M1792.52,-132.37C1944.94,-132.9 2403.73,-130.58 2793.2,-87.03"/>
<polygon fill="midnightblue" stroke="midnightblue" points="2793.71,-90.5 2803.25,-85.9 2792.92,-83.54 2793.71,-90.5"/>
</g>
<!-- Node23 -->
<g id="node23" class="node">
<title>Node23</title>
<g id="a_node23"><a xlink:title=" ">
<polygon fill="white" stroke="#bfbfbf" points="2960,-56.5 2960,-86.5 3099,-86.5 3099,-56.5 2960,-56.5"/>
<text text-anchor="start" x="2968" y="-74.5" font-family="Helvetica,sans-Serif" font-size="10.00">asm/dolphin/vi/vi/VIGetNext</text>
<text text-anchor="middle" x="3029.5" y="-63.5" font-family="Helvetica,sans-Serif" font-size="10.00">Field.s</text>
</a>
</g>
</g>
<!-- Node1&#45;&gt;Node23 -->
<g id="edge23" class="edge">
<title>Node1&#45;&gt;Node23</title>
<path fill="none" stroke="midnightblue" d="M1792.6,-131.06C1991.14,-127.35 2701.13,-112.62 2949.72,-86.93"/>
<polygon fill="midnightblue" stroke="midnightblue" points="2950.22,-90.4 2959.79,-85.86 2949.48,-83.44 2950.22,-90.4"/>
</g>
<!-- Node24 -->
<g id="node24" class="node">
<title>Node24</title>
<g id="a_node24"><a xlink:title=" ">
<polygon fill="white" stroke="#bfbfbf" points="3117.5,-56.5 3117.5,-86.5 3267.5,-86.5 3267.5,-56.5 3117.5,-56.5"/>
<text text-anchor="start" x="3125.5" y="-74.5" font-family="Helvetica,sans-Serif" font-size="10.00">asm/dolphin/vi/vi/VIGetCurrent</text>
<text text-anchor="middle" x="3192.5" y="-63.5" font-family="Helvetica,sans-Serif" font-size="10.00">Line.s</text>
</a>
</g>
</g>
<!-- Node1&#45;&gt;Node24 -->
<g id="edge24" class="edge">
<title>Node1&#45;&gt;Node24</title>
<path fill="none" stroke="midnightblue" d="M1792.6,-131.25C2007.39,-128.01 2825.78,-114.18 3107.28,-86.99"/>
<polygon fill="midnightblue" stroke="midnightblue" points="3107.86,-90.45 3117.47,-85.98 3107.17,-83.49 3107.86,-90.45"/>
</g>
<!-- Node25 -->
<g id="node25" class="node">
<title>Node25</title>
<g id="a_node25"><a xlink:title=" ">
<polygon fill="white" stroke="#bfbfbf" points="3285.5,-56.5 3285.5,-86.5 3415.5,-86.5 3415.5,-56.5 3285.5,-56.5"/>
<text text-anchor="start" x="3293.5" y="-74.5" font-family="Helvetica,sans-Serif" font-size="10.00">asm/dolphin/vi/vi/VIGetTv</text>
<text text-anchor="middle" x="3350.5" y="-63.5" font-family="Helvetica,sans-Serif" font-size="10.00">Format.s</text>
</a>
</g>
</g>
<!-- Node1&#45;&gt;Node25 -->
<g id="edge25" class="edge">
<title>Node1&#45;&gt;Node25</title>
<path fill="none" stroke="midnightblue" d="M1792.58,-131.62C2023.75,-129.78 2959.16,-120.42 3275.15,-86.99"/>
<polygon fill="midnightblue" stroke="midnightblue" points="3275.66,-90.46 3285.22,-85.89 3274.9,-83.5 3275.66,-90.46"/>
</g>
<!-- Node26 -->
<g id="node26" class="node">
<title>Node26</title>
<g id="a_node26"><a xlink:title=" ">
<polygon fill="white" stroke="#bfbfbf" points="3433.5,-62 3433.5,-81 3607.5,-81 3607.5,-62 3433.5,-62"/>
<text text-anchor="middle" x="3520.5" y="-69" font-family="Helvetica,sans-Serif" font-size="10.00">asm/dolphin/vi/vi/VIGetDTVStatus.s</text>
</a>
</g>
</g>
<!-- Node1&#45;&gt;Node26 -->
<g id="edge26" class="edge">
<title>Node1&#45;&gt;Node26</title>
<path fill="none" stroke="midnightblue" d="M1792.53,-131.47C2039.59,-128.85 3096.03,-116.08 3424.5,-87 3436.57,-85.93 3449.43,-84.32 3461.68,-82.55"/>
<polygon fill="midnightblue" stroke="midnightblue" points="3462.43,-85.98 3471.8,-81.04 3461.39,-79.06 3462.43,-85.98"/>
</g>
<!-- Node27 -->
<g id="node27" class="node">
<title>Node27</title>
<g id="a_node27"><a xlink:title=" ">
<polygon fill="white" stroke="#bfbfbf" points="3625.5,-56.5 3625.5,-86.5 3761.5,-86.5 3761.5,-56.5 3625.5,-56.5"/>
<text text-anchor="start" x="3633.5" y="-74.5" font-family="Helvetica,sans-Serif" font-size="10.00">asm/dolphin/vi/vi/</text>
<text text-anchor="middle" x="3693.5" y="-63.5" font-family="Helvetica,sans-Serif" font-size="10.00">__VIDisplayPositionToXY.s</text>
</a>
</g>
</g>
<!-- Node1&#45;&gt;Node27 -->
<g id="edge27" class="edge">
<title>Node1&#45;&gt;Node27</title>
<path fill="none" stroke="midnightblue" d="M1792.67,-131.89C2054.51,-131.18 3227.69,-125.89 3615.03,-87.01"/>
<polygon fill="midnightblue" stroke="midnightblue" points="3615.56,-90.47 3625.15,-85.97 3614.85,-83.51 3615.56,-90.47"/>
</g>
<!-- Node28 -->
<g id="node28" class="node">
<title>Node28</title>
<g id="a_node28"><a xlink:title=" ">
<polygon fill="white" stroke="#bfbfbf" points="3780,-56.5 3780,-86.5 3907,-86.5 3907,-56.5 3780,-56.5"/>
<text text-anchor="start" x="3788" y="-74.5" font-family="Helvetica,sans-Serif" font-size="10.00">asm/dolphin/vi/vi/</text>
<text text-anchor="middle" x="3843.5" y="-63.5" font-family="Helvetica,sans-Serif" font-size="10.00">__VIGetCurrentPosition.s</text>
</a>
</g>
</g>
<!-- Node1&#45;&gt;Node28 -->
<g id="edge28" class="edge">
<title>Node1&#45;&gt;Node28</title>
<path fill="none" stroke="midnightblue" d="M1792.79,-132.07C2067.81,-132.27 3349.69,-130.84 3769.83,-86.89"/>
<polygon fill="midnightblue" stroke="midnightblue" points="3770.33,-90.36 3779.9,-85.81 3769.58,-83.4 3770.33,-90.36"/>
</g>
<!-- Node4&#45;&gt;Node3 -->
<g id="edge4" class="edge">
<title>Node4&#45;&gt;Node3</title>
<path fill="none" stroke="midnightblue" d="M150.77,-61.98C145.92,-53.23 138.23,-39.37 132.1,-28.31"/>
<polygon fill="midnightblue" stroke="midnightblue" points="135.13,-26.56 127.22,-19.51 129.01,-29.95 135.13,-26.56"/>
</g>
</g>
</svg>
        <g id="navigator" transform="translate(0 0)" fill="#404254">
                <rect fill="#f2f5e9" fill-opacity="0.5" stroke="#606060" stroke-width=".5" x="0" y="0" width="60" height="60"/>
                <use id="zoomplus" xlink:href="#zoomPlus" x="17" y="9" onmousedown="handleZoom(evt,'in')"/>
                <use id="zoomminus" xlink:href="#zoomMin" x="42" y="9" onmousedown="handleZoom(evt,'out')"/>
                <use id="reset" xlink:href="#resetDef" x="30" y="36" onmousedown="handleReset()"/>
                <g id="arrowUp" xlink:href="#dirArrow" transform="translate(30 24)" onmousedown="handlePan(0,-1)">
                  <use xlink:href="#rim" fill="#404040">
                        <set attributeName="fill" to="#808080" begin="arrowUp.mouseover" end="arrowUp.mouseout"/>
                  </use>
                  <path fill="none" stroke="white" stroke-width="1.5" d="M0,-3.0v7 M-2.5,-0.5L0,-3.0L2.5,-0.5"/>
                </g>
                <g id="arrowRight" xlink:href="#dirArrow" transform="rotate(90) translate(36 -43)" onmousedown="handlePan(1,0)">
                  <use xlink:href="#rim" fill="#404040">
                        <set attributeName="fill" to="#808080" begin="arrowRight.mouseover" end="arrowRight.mouseout"/>
                  </use>
                  <path fill="none" stroke="white" stroke-width="1.5" d="M0,-3.0v7 M-2.5,-0.5L0,-3.0L2.5,-0.5"/>
                </g>
                <g id="arrowDown" xlink:href="#dirArrow" transform="rotate(180) translate(-30 -48)" onmousedown="handlePan(0,1)">
                  <use xlink:href="#rim" fill="#404040">
                        <set attributeName="fill" to="#808080" begin="arrowDown.mouseover" end="arrowDown.mouseout"/>
                  </use>
                  <path fill="none" stroke="white" stroke-width="1.5" d="M0,-3.0v7 M-2.5,-0.5L0,-3.0L2.5,-0.5"/>
                </g>
                <g id="arrowLeft" xlink:href="#dirArrow" transform="rotate(270) translate(-36 17)" onmousedown="handlePan(-1,0)">
                  <use xlink:href="#rim" fill="#404040">
                        <set attributeName="fill" to="#808080" begin="arrowLeft.mouseover" end="arrowLeft.mouseout"/>
                  </use>
                  <path fill="none" stroke="white" stroke-width="1.5" d="M0,-3.0v7 M-2.5,-0.5L0,-3.0L2.5,-0.5"/>
                </g>
        </g>
        <svg viewBox="0 0 15 15" width="100%" height="30px" preserveAspectRatio="xMaxYMin meet">
         <g id="arrow_out" transform="scale(0.3 0.3)">
          <a xlink:href="vi_8cpp__incl_org.svg" target="_base">
           <rect id="button" ry="5" rx="5" y="6" x="6" height="38" width="38"
                fill="#f2f5e9" fill-opacity="0.5" stroke="#606060" stroke-width="1.0"/>
           <path id="arrow"
             d="M 11.500037,31.436501 C 11.940474,20.09759 22.043105,11.32322 32.158766,21.979434 L 37.068811,17.246167 C 37.068811,17.246167 37.088388,32 37.088388,32 L 22.160133,31.978069 C 22.160133,31.978069 26.997745,27.140456 26.997745,27.140456 C 18.528582,18.264221 13.291696,25.230495 11.500037,31.436501 z"
             style="fill:#404040;"/>
          </a>
         </g>
        </svg>
</svg>
