<?xml version="1.0" encoding="UTF-8" standalone="no"?>
<!DOCTYPE svg PUBLIC "-//W3C//DTD SVG 1.1//EN"
 "http://www.w3.org/Graphics/SVG/1.1/DTD/svg11.dtd">
<!-- Generated by graphviz version 2.47.0 (20210316.2052)
 -->
<!-- Title: libs/MSL_C.PPCEABI.bare.H/Math/Double_precision/w_atan2.cpp Pages: 1 -->
<svg width="416pt" height="184pt"
 viewBox="0.00 0.00 416.00 184.00" xmlns="http://www.w3.org/2000/svg" xmlns:xlink="http://www.w3.org/1999/xlink">
<g id="graph0" class="graph" transform="scale(1 1) rotate(0) translate(4 180)">
<title>libs/MSL_C.PPCEABI.bare.H/Math/Double_precision/w_atan2.cpp</title>
<polygon fill="white" stroke="transparent" points="-4,4 -4,-180 412,-180 412,4 -4,4"/>
<!-- Node1 -->
<g id="node1" class="node">
<title>Node1</title>
<g id="a_node1"><a xlink:title=" ">
<polygon fill="#bfbfbf" stroke="black" points="66.5,-134.5 66.5,-175.5 202.5,-175.5 202.5,-134.5 66.5,-134.5"/>
<text text-anchor="start" x="74.5" y="-163.5" font-family="Helvetica,sans-Serif" font-size="10.00">libs/MSL_C.PPCEABI.bare.</text>
<text text-anchor="start" x="74.5" y="-152.5" font-family="Helvetica,sans-Serif" font-size="10.00">H/Math/Double_precision</text>
<text text-anchor="middle" x="134.5" y="-141.5" font-family="Helvetica,sans-Serif" font-size="10.00">/w_atan2.cpp</text>
</a>
</g>
</g>
<!-- Node2 -->
<g id="node2" class="node">
<title>Node2</title>
<g id="a_node2"><a xlink:href="dol2asm_8h.html" target="_top" xlink:title=" ">
<polygon fill="white" stroke="black" points="0,-67.5 0,-86.5 61,-86.5 61,-67.5 0,-67.5"/>
<text text-anchor="middle" x="30.5" y="-74.5" font-family="Helvetica,sans-Serif" font-size="10.00">dol2asm.h</text>
</a>
</g>
</g>
<!-- Node1&#45;&gt;Node2 -->
<g id="edge1" class="edge">
<title>Node1&#45;&gt;Node2</title>
<path fill="none" stroke="midnightblue" d="M107.72,-134.43C89.84,-121.37 66.72,-104.47 50.46,-92.58"/>
<polygon fill="midnightblue" stroke="midnightblue" points="52.34,-89.63 42.2,-86.55 48.21,-95.28 52.34,-89.63"/>
</g>
<!-- Node3 -->
<g id="node3" class="node">
<title>Node3</title>
<g id="a_node3"><a xlink:href="types_8h.html" target="_top" xlink:title=" ">
<polygon fill="white" stroke="black" points="94,-0.5 94,-19.5 175,-19.5 175,-0.5 94,-0.5"/>
<text text-anchor="middle" x="134.5" y="-7.5" font-family="Helvetica,sans-Serif" font-size="10.00">dolphin/types.h</text>
</a>
</g>
</g>
<!-- Node1&#45;&gt;Node3 -->
<g id="edge2" class="edge">
<title>Node1&#45;&gt;Node3</title>
<path fill="none" stroke="midnightblue" d="M123.35,-134.48C118.01,-124.02 112.21,-110.7 109.5,-98 105.61,-79.74 104.82,-74.07 109.5,-56 112.05,-46.18 117.25,-36.21 122.26,-28.17"/>
<polygon fill="midnightblue" stroke="midnightblue" points="125.25,-29.99 127.87,-19.73 119.42,-26.11 125.25,-29.99"/>
</g>
<!-- Node4 -->
<g id="node4" class="node">
<title>Node4</title>
<g id="a_node4"><a xlink:href="w__atan2_8h.html" target="_top" xlink:title=" ">
<polygon fill="white" stroke="black" points="118,-56.5 118,-97.5 243,-97.5 243,-56.5 118,-56.5"/>
<text text-anchor="start" x="126" y="-85.5" font-family="Helvetica,sans-Serif" font-size="10.00">MSL_C.PPCEABI.bare.H</text>
<text text-anchor="start" x="126" y="-74.5" font-family="Helvetica,sans-Serif" font-size="10.00">/Math/Double_precision</text>
<text text-anchor="middle" x="180.5" y="-63.5" font-family="Helvetica,sans-Serif" font-size="10.00">/w_atan2.h</text>
</a>
</g>
</g>
<!-- Node1&#45;&gt;Node4 -->
<g id="edge3" class="edge">
<title>Node1&#45;&gt;Node4</title>
<path fill="none" stroke="midnightblue" d="M146.35,-134.43C151.55,-125.83 157.76,-115.57 163.45,-106.17"/>
<polygon fill="midnightblue" stroke="midnightblue" points="166.51,-107.87 168.69,-97.51 160.52,-104.25 166.51,-107.87"/>
</g>
<!-- Node5 -->
<g id="node5" class="node">
<title>Node5</title>
<g id="a_node5"><a xlink:title=" ">
<polygon fill="white" stroke="#bfbfbf" points="261,-56.5 261,-97.5 408,-97.5 408,-56.5 261,-56.5"/>
<text text-anchor="start" x="269" y="-85.5" font-family="Helvetica,sans-Serif" font-size="10.00">asm/MSL_C.PPCEABI.bare.H</text>
<text text-anchor="start" x="269" y="-74.5" font-family="Helvetica,sans-Serif" font-size="10.00">/Math/Double_precision</text>
<text text-anchor="middle" x="334.5" y="-63.5" font-family="Helvetica,sans-Serif" font-size="10.00">/w_atan2/atan2.s</text>
</a>
</g>
</g>
<!-- Node1&#45;&gt;Node5 -->
<g id="edge5" class="edge">
<title>Node1&#45;&gt;Node5</title>
<path fill="none" stroke="midnightblue" d="M186,-134.43C212.72,-124.28 245.52,-111.81 273.49,-101.18"/>
<polygon fill="midnightblue" stroke="midnightblue" points="275.07,-104.33 283.17,-97.51 272.58,-97.79 275.07,-104.33"/>
</g>
<!-- Node4&#45;&gt;Node3 -->
<g id="edge4" class="edge">
<title>Node4&#45;&gt;Node3</title>
<path fill="none" stroke="midnightblue" d="M166.7,-56.5C160.26,-47.39 152.66,-36.66 146.47,-27.91"/>
<polygon fill="midnightblue" stroke="midnightblue" points="149.26,-25.79 140.62,-19.65 143.54,-29.84 149.26,-25.79"/>
</g>
</g>
</svg>
