<?xml version="1.0" encoding="UTF-8" standalone="no"?>
<!DOCTYPE svg PUBLIC "-//W3C//DTD SVG 1.1//EN"
 "http://www.w3.org/Graphics/SVG/1.1/DTD/svg11.dtd">
<!-- Generated by graphviz version 2.47.0 (20210316.2052)
 -->
<!-- Title: libs/Z2AudioLib/Z2AudioArcLoader.cpp Pages: 1 -->
<svg width="1054pt" height="173pt"
 viewBox="0.00 0.00 1054.00 173.00" xmlns="http://www.w3.org/2000/svg" xmlns:xlink="http://www.w3.org/1999/xlink">
<g id="graph0" class="graph" transform="scale(1 1) rotate(0) translate(4 169)">
<title>libs/Z2AudioLib/Z2AudioArcLoader.cpp</title>
<polygon fill="white" stroke="transparent" points="-4,4 -4,-169 1050,-169 1050,4 -4,4"/>
<!-- Node1 -->
<g id="node1" class="node">
<title>Node1</title>
<g id="a_node1"><a xlink:title=" ">
<polygon fill="#bfbfbf" stroke="black" points="309.5,-134.5 309.5,-164.5 447.5,-164.5 447.5,-134.5 309.5,-134.5"/>
<text text-anchor="start" x="317.5" y="-152.5" font-family="Helvetica,sans-Serif" font-size="10.00">libs/Z2AudioLib/Z2AudioArc</text>
<text text-anchor="middle" x="378.5" y="-141.5" font-family="Helvetica,sans-Serif" font-size="10.00">Loader.cpp</text>
</a>
</g>
</g>
<!-- Node2 -->
<g id="node2" class="node">
<title>Node2</title>
<g id="a_node2"><a xlink:href="dol2asm_8h.html" target="_top" xlink:title=" ">
<polygon fill="white" stroke="black" points="0,-67.5 0,-86.5 61,-86.5 61,-67.5 0,-67.5"/>
<text text-anchor="middle" x="30.5" y="-74.5" font-family="Helvetica,sans-Serif" font-size="10.00">dol2asm.h</text>
</a>
</g>
</g>
<!-- Node1&#45;&gt;Node2 -->
<g id="edge1" class="edge">
<title>Node1&#45;&gt;Node2</title>
<path fill="none" stroke="midnightblue" d="M309.38,-142.02C247.22,-135.01 153.9,-121.54 75.5,-98 69.16,-96.1 62.54,-93.51 56.38,-90.84"/>
<polygon fill="midnightblue" stroke="midnightblue" points="57.76,-87.62 47.21,-86.64 54.85,-93.98 57.76,-87.62"/>
</g>
<!-- Node3 -->
<g id="node3" class="node">
<title>Node3</title>
<g id="a_node3"><a xlink:href="types_8h.html" target="_top" xlink:title=" ">
<polygon fill="white" stroke="black" points="102,-0.5 102,-19.5 183,-19.5 183,-0.5 102,-0.5"/>
<text text-anchor="middle" x="142.5" y="-7.5" font-family="Helvetica,sans-Serif" font-size="10.00">dolphin/types.h</text>
</a>
</g>
</g>
<!-- Node1&#45;&gt;Node3 -->
<g id="edge2" class="edge">
<title>Node1&#45;&gt;Node3</title>
<path fill="none" stroke="midnightblue" d="M309.28,-145.32C237.9,-140.42 133.56,-128.18 108.5,-98 91.07,-77.01 111.23,-46.04 127.11,-27.26"/>
<polygon fill="midnightblue" stroke="midnightblue" points="129.91,-29.37 133.95,-19.58 124.68,-24.72 129.91,-29.37"/>
</g>
<!-- Node4 -->
<g id="node4" class="node">
<title>Node4</title>
<g id="a_node4"><a xlink:href="Z2AudioArcLoader_8h.html" target="_top" xlink:title=" ">
<polygon fill="white" stroke="black" points="117.5,-67.5 117.5,-86.5 275.5,-86.5 275.5,-67.5 117.5,-67.5"/>
<text text-anchor="middle" x="196.5" y="-74.5" font-family="Helvetica,sans-Serif" font-size="10.00">Z2AudioLib/Z2AudioArcLoader.h</text>
</a>
</g>
</g>
<!-- Node1&#45;&gt;Node4 -->
<g id="edge3" class="edge">
<title>Node1&#45;&gt;Node4</title>
<path fill="none" stroke="midnightblue" d="M342.11,-134.4C308.78,-121.49 259.96,-102.58 228.2,-90.28"/>
<polygon fill="midnightblue" stroke="midnightblue" points="229.12,-86.88 218.53,-86.53 226.59,-93.41 229.12,-86.88"/>
</g>
<!-- Node5 -->
<g id="node5" class="node">
<title>Node5</title>
<g id="a_node5"><a xlink:title=" ">
<polygon fill="white" stroke="#bfbfbf" points="293.5,-56.5 293.5,-97.5 463.5,-97.5 463.5,-56.5 293.5,-56.5"/>
<text text-anchor="start" x="301.5" y="-85.5" font-family="Helvetica,sans-Serif" font-size="10.00">asm/Z2AudioLib/Z2AudioArc</text>
<text text-anchor="start" x="301.5" y="-74.5" font-family="Helvetica,sans-Serif" font-size="10.00">Loader/__ct__16Z2AudioArcLoader</text>
<text text-anchor="middle" x="378.5" y="-63.5" font-family="Helvetica,sans-Serif" font-size="10.00">FP10JAUSection.s</text>
</a>
</g>
</g>
<!-- Node1&#45;&gt;Node5 -->
<g id="edge5" class="edge">
<title>Node1&#45;&gt;Node5</title>
<path fill="none" stroke="midnightblue" d="M378.5,-134.23C378.5,-126.57 378.5,-116.84 378.5,-107.63"/>
<polygon fill="midnightblue" stroke="midnightblue" points="382,-107.59 378.5,-97.59 375,-107.59 382,-107.59"/>
</g>
<!-- Node6 -->
<g id="node6" class="node">
<title>Node6</title>
<g id="a_node6"><a xlink:title=" ">
<polygon fill="white" stroke="#bfbfbf" points="481.5,-56.5 481.5,-97.5 623.5,-97.5 623.5,-56.5 481.5,-56.5"/>
<text text-anchor="start" x="489.5" y="-85.5" font-family="Helvetica,sans-Serif" font-size="10.00">asm/Z2AudioLib/Z2AudioArc</text>
<text text-anchor="start" x="489.5" y="-74.5" font-family="Helvetica,sans-Serif" font-size="10.00">Loader/readCommandMore</text>
<text text-anchor="middle" x="552.5" y="-63.5" font-family="Helvetica,sans-Serif" font-size="10.00">__16Z2AudioArcLoaderFUl.s</text>
</a>
</g>
</g>
<!-- Node1&#45;&gt;Node6 -->
<g id="edge6" class="edge">
<title>Node1&#45;&gt;Node6</title>
<path fill="none" stroke="midnightblue" d="M413.29,-134.4C436.63,-124.95 467.91,-112.27 494.91,-101.34"/>
<polygon fill="midnightblue" stroke="midnightblue" points="496.3,-104.55 504.26,-97.55 493.68,-98.06 496.3,-104.55"/>
</g>
<!-- Node7 -->
<g id="node7" class="node">
<title>Node7</title>
<g id="a_node7"><a xlink:title=" ">
<polygon fill="white" stroke="#bfbfbf" points="642,-56.5 642,-97.5 839,-97.5 839,-56.5 642,-56.5"/>
<text text-anchor="start" x="650" y="-85.5" font-family="Helvetica,sans-Serif" font-size="10.00">asm/Z2AudioLib/Z2AudioArc</text>
<text text-anchor="start" x="650" y="-74.5" font-family="Helvetica,sans-Serif" font-size="10.00">Loader/readBFCA__16Z2AudioArcLoader</text>
<text text-anchor="middle" x="740.5" y="-63.5" font-family="Helvetica,sans-Serif" font-size="10.00">FPCv.s</text>
</a>
</g>
</g>
<!-- Node1&#45;&gt;Node7 -->
<g id="edge7" class="edge">
<title>Node1&#45;&gt;Node7</title>
<path fill="none" stroke="midnightblue" d="M447.87,-134.99C499.99,-124.84 572.37,-110.74 632.1,-99.11"/>
<polygon fill="midnightblue" stroke="midnightblue" points="632.81,-102.54 641.95,-97.19 631.47,-95.67 632.81,-102.54"/>
</g>
<!-- Node8 -->
<g id="node8" class="node">
<title>Node8</title>
<g id="a_node8"><a xlink:title=" ">
<polygon fill="white" stroke="#bfbfbf" points="857,-62 857,-92 1046,-92 1046,-62 857,-62"/>
<text text-anchor="start" x="865" y="-80" font-family="Helvetica,sans-Serif" font-size="10.00">asm/Z2AudioLib/Z2AudioArc</text>
<text text-anchor="middle" x="951.5" y="-69" font-family="Helvetica,sans-Serif" font-size="10.00">Loader/__dt__16Z2AudioArcLoaderFv.s</text>
</a>
</g>
</g>
<!-- Node1&#45;&gt;Node8 -->
<g id="edge8" class="edge">
<title>Node1&#45;&gt;Node8</title>
<path fill="none" stroke="midnightblue" d="M447.62,-142.92C539.48,-135.08 706.69,-119.35 848.5,-98 856.66,-96.77 865.15,-95.35 873.61,-93.85"/>
<polygon fill="midnightblue" stroke="midnightblue" points="874.28,-97.28 883.49,-92.05 873.03,-90.4 874.28,-97.28"/>
</g>
<!-- Node4&#45;&gt;Node3 -->
<g id="edge4" class="edge">
<title>Node4&#45;&gt;Node3</title>
<path fill="none" stroke="midnightblue" d="M189.22,-67.23C180.8,-57.1 166.75,-40.19 156.25,-27.56"/>
<polygon fill="midnightblue" stroke="midnightblue" points="158.75,-25.08 149.67,-19.63 153.37,-29.56 158.75,-25.08"/>
</g>
</g>
</svg>
