<?xml version="1.0" encoding="UTF-8" standalone="no"?>
<!DOCTYPE svg PUBLIC "-//W3C//DTD SVG 1.1//EN"
 "http://www.w3.org/Graphics/SVG/1.1/DTD/svg11.dtd">
<!-- Generated by graphviz version 2.47.0 (20210316.2052)
 -->
<!-- Title: libs/Z2AudioLib/Z2AudioMgr.cpp Pages: 1 -->
<svg width="2582pt" height="162pt"
 viewBox="0.00 0.00 2582.00 162.00" xmlns="http://www.w3.org/2000/svg" xmlns:xlink="http://www.w3.org/1999/xlink">
<g id="graph0" class="graph" transform="scale(1 1) rotate(0) translate(4 158)">
<title>libs/Z2AudioLib/Z2AudioMgr.cpp</title>
<polygon fill="white" stroke="transparent" points="-4,4 -4,-158 2578,-158 2578,4 -4,4"/>
<!-- Node1 -->
<g id="node1" class="node">
<title>Node1</title>
<g id="a_node1"><a xlink:title=" ">
<polygon fill="#bfbfbf" stroke="black" points="1095.5,-134.5 1095.5,-153.5 1253.5,-153.5 1253.5,-134.5 1095.5,-134.5"/>
<text text-anchor="middle" x="1174.5" y="-141.5" font-family="Helvetica,sans-Serif" font-size="10.00">libs/Z2AudioLib/Z2AudioMgr.cpp</text>
</a>
</g>
</g>
<!-- Node2 -->
<g id="node2" class="node">
<title>Node2</title>
<g id="a_node2"><a xlink:href="dol2asm_8h.html" target="_top" xlink:title=" ">
<polygon fill="white" stroke="black" points="0,-67.5 0,-86.5 61,-86.5 61,-67.5 0,-67.5"/>
<text text-anchor="middle" x="30.5" y="-74.5" font-family="Helvetica,sans-Serif" font-size="10.00">dol2asm.h</text>
</a>
</g>
</g>
<!-- Node1&#45;&gt;Node2 -->
<g id="edge1" class="edge">
<title>Node1&#45;&gt;Node2</title>
<path fill="none" stroke="midnightblue" d="M1095.45,-143.6C877.17,-144.66 269.47,-143.33 75.5,-98 68.73,-96.42 61.71,-93.82 55.29,-91.01"/>
<polygon fill="midnightblue" stroke="midnightblue" points="56.36,-87.64 45.82,-86.54 53.37,-93.98 56.36,-87.64"/>
</g>
<!-- Node3 -->
<g id="node3" class="node">
<title>Node3</title>
<g id="a_node3"><a xlink:href="types_8h.html" target="_top" xlink:title=" ">
<polygon fill="white" stroke="black" points="95,-0.5 95,-19.5 176,-19.5 176,-0.5 95,-0.5"/>
<text text-anchor="middle" x="135.5" y="-7.5" font-family="Helvetica,sans-Serif" font-size="10.00">dolphin/types.h</text>
</a>
</g>
</g>
<!-- Node1&#45;&gt;Node3 -->
<g id="edge2" class="edge">
<title>Node1&#45;&gt;Node3</title>
<path fill="none" stroke="midnightblue" d="M1095.22,-142.61C854.04,-141.06 143.5,-133.46 109.5,-98 91.14,-78.84 108.17,-47.26 121.98,-27.88"/>
<polygon fill="midnightblue" stroke="midnightblue" points="124.93,-29.78 128.15,-19.69 119.34,-25.57 124.93,-29.78"/>
</g>
<!-- Node4 -->
<g id="node4" class="node">
<title>Node4</title>
<g id="a_node4"><a xlink:href="Z2AudioMgr_8h.html" target="_top" xlink:title=" ">
<polygon fill="white" stroke="black" points="118,-67.5 118,-86.5 247,-86.5 247,-67.5 118,-67.5"/>
<text text-anchor="middle" x="182.5" y="-74.5" font-family="Helvetica,sans-Serif" font-size="10.00">Z2AudioLib/Z2AudioMgr.h</text>
</a>
</g>
</g>
<!-- Node1&#45;&gt;Node4 -->
<g id="edge3" class="edge">
<title>Node1&#45;&gt;Node4</title>
<path fill="none" stroke="midnightblue" d="M1095.45,-141.31C903.56,-136.85 417.07,-123.33 256.5,-98 243.87,-96.01 230.29,-92.69 218.26,-89.33"/>
<polygon fill="midnightblue" stroke="midnightblue" points="219.15,-85.94 208.57,-86.52 217.2,-92.67 219.15,-85.94"/>
</g>
<!-- Node5 -->
<g id="node5" class="node">
<title>Node5</title>
<g id="a_node5"><a xlink:title=" ">
<polygon fill="white" stroke="#bfbfbf" points="265,-62 265,-92 408,-92 408,-62 265,-62"/>
<text text-anchor="start" x="273" y="-80" font-family="Helvetica,sans-Serif" font-size="10.00">asm/Z2AudioLib/Z2AudioMgr</text>
<text text-anchor="middle" x="336.5" y="-69" font-family="Helvetica,sans-Serif" font-size="10.00">/__ct__10Z2AudioMgrFv.s</text>
</a>
</g>
</g>
<!-- Node1&#45;&gt;Node5 -->
<g id="edge5" class="edge">
<title>Node1&#45;&gt;Node5</title>
<path fill="none" stroke="midnightblue" d="M1095.27,-143.03C956.93,-142.04 662.69,-135.24 417.5,-98 410.86,-96.99 403.97,-95.69 397.14,-94.24"/>
<polygon fill="midnightblue" stroke="midnightblue" points="397.72,-90.79 387.2,-92.02 396.2,-97.62 397.72,-90.79"/>
</g>
<!-- Node6 -->
<g id="node6" class="node">
<title>Node6</title>
<g id="a_node6"><a xlink:title=" ">
<polygon fill="white" stroke="#bfbfbf" points="426.5,-56.5 426.5,-97.5 596.5,-97.5 596.5,-56.5 426.5,-56.5"/>
<text text-anchor="start" x="434.5" y="-85.5" font-family="Helvetica,sans-Serif" font-size="10.00">asm/Z2AudioLib/Z2AudioMgr</text>
<text text-anchor="start" x="434.5" y="-74.5" font-family="Helvetica,sans-Serif" font-size="10.00">/init__10Z2AudioMgrFP12JKRSolid</text>
<text text-anchor="middle" x="511.5" y="-63.5" font-family="Helvetica,sans-Serif" font-size="10.00">HeapUlPvP10JKRArchive.s</text>
</a>
</g>
</g>
<!-- Node1&#45;&gt;Node6 -->
<g id="edge6" class="edge">
<title>Node1&#45;&gt;Node6</title>
<path fill="none" stroke="midnightblue" d="M1095.12,-139.93C984.98,-134.94 779.79,-123 606.5,-98 606.4,-97.99 606.3,-97.97 606.19,-97.96"/>
<polygon fill="midnightblue" stroke="midnightblue" points="607.02,-94.54 596.6,-96.47 605.95,-101.46 607.02,-94.54"/>
</g>
<!-- Node7 -->
<g id="node7" class="node">
<title>Node7</title>
<g id="a_node7"><a xlink:title=" ">
<polygon fill="white" stroke="#bfbfbf" points="615,-62 615,-92 758,-92 758,-62 615,-62"/>
<text text-anchor="start" x="623" y="-80" font-family="Helvetica,sans-Serif" font-size="10.00">asm/Z2AudioLib/Z2AudioMgr</text>
<text text-anchor="middle" x="686.5" y="-69" font-family="Helvetica,sans-Serif" font-size="10.00">/func_802CD7F8.s</text>
</a>
</g>
</g>
<!-- Node1&#45;&gt;Node7 -->
<g id="edge7" class="edge">
<title>Node1&#45;&gt;Node7</title>
<path fill="none" stroke="midnightblue" d="M1095.27,-137.35C1012.93,-130.76 880.54,-118.11 767.5,-98 761.42,-96.92 755.11,-95.64 748.83,-94.26"/>
<polygon fill="midnightblue" stroke="midnightblue" points="749.53,-90.83 739.01,-92.03 747.98,-97.66 749.53,-90.83"/>
</g>
<!-- Node8 -->
<g id="node8" class="node">
<title>Node8</title>
<g id="a_node8"><a xlink:title=" ">
<polygon fill="white" stroke="#bfbfbf" points="776,-62 776,-92 959,-92 959,-62 776,-62"/>
<text text-anchor="start" x="784" y="-80" font-family="Helvetica,sans-Serif" font-size="10.00">asm/Z2AudioLib/Z2AudioMgr</text>
<text text-anchor="middle" x="867.5" y="-69" font-family="Helvetica,sans-Serif" font-size="10.00">/setOutputMode__10Z2AudioMgrFUl.s</text>
</a>
</g>
</g>
<!-- Node1&#45;&gt;Node8 -->
<g id="edge8" class="edge">
<title>Node1&#45;&gt;Node8</title>
<path fill="none" stroke="midnightblue" d="M1134.05,-134.44C1085.77,-124.21 1004.02,-106.91 943.76,-94.15"/>
<polygon fill="midnightblue" stroke="midnightblue" points="944.41,-90.71 933.9,-92.06 942.96,-97.55 944.41,-90.71"/>
</g>
<!-- Node9 -->
<g id="node9" class="node">
<title>Node9</title>
<g id="a_node9"><a xlink:title=" ">
<polygon fill="white" stroke="#bfbfbf" points="977.5,-62 977.5,-92 1169.5,-92 1169.5,-62 977.5,-62"/>
<text text-anchor="start" x="985.5" y="-80" font-family="Helvetica,sans-Serif" font-size="10.00">asm/Z2AudioLib/Z2AudioMgr</text>
<text text-anchor="middle" x="1073.5" y="-69" font-family="Helvetica,sans-Serif" font-size="10.00">/zeldaGFrameWork__10Z2AudioMgrFv.s</text>
</a>
</g>
</g>
<!-- Node1&#45;&gt;Node9 -->
<g id="edge9" class="edge">
<title>Node1&#45;&gt;Node9</title>
<path fill="none" stroke="midnightblue" d="M1160.88,-134.23C1146.38,-124.9 1122.95,-109.82 1104,-97.63"/>
<polygon fill="midnightblue" stroke="midnightblue" points="1105.7,-94.56 1095.39,-92.09 1101.91,-100.44 1105.7,-94.56"/>
</g>
<!-- Node10 -->
<g id="node10" class="node">
<title>Node10</title>
<g id="a_node10"><a xlink:title=" ">
<polygon fill="white" stroke="#bfbfbf" points="1187.5,-62 1187.5,-92 1365.5,-92 1365.5,-62 1187.5,-62"/>
<text text-anchor="start" x="1195.5" y="-80" font-family="Helvetica,sans-Serif" font-size="10.00">asm/Z2AudioLib/Z2AudioMgr</text>
<text text-anchor="middle" x="1276.5" y="-69" font-family="Helvetica,sans-Serif" font-size="10.00">/gframeProcess__10Z2AudioMgrFv.s</text>
</a>
</g>
</g>
<!-- Node1&#45;&gt;Node10 -->
<g id="edge10" class="edge">
<title>Node1&#45;&gt;Node10</title>
<path fill="none" stroke="midnightblue" d="M1188.26,-134.23C1202.97,-124.86 1226.77,-109.69 1245.95,-97.47"/>
<polygon fill="midnightblue" stroke="midnightblue" points="1247.84,-100.41 1254.39,-92.09 1244.08,-94.51 1247.84,-100.41"/>
</g>
<!-- Node11 -->
<g id="node11" class="node">
<title>Node11</title>
<g id="a_node11"><a xlink:title=" ">
<polygon fill="white" stroke="#bfbfbf" points="1384,-62 1384,-92 1563,-92 1563,-62 1384,-62"/>
<text text-anchor="start" x="1392" y="-80" font-family="Helvetica,sans-Serif" font-size="10.00">asm/Z2AudioLib/Z2AudioMgr</text>
<text text-anchor="middle" x="1473.5" y="-69" font-family="Helvetica,sans-Serif" font-size="10.00">/resetProcess__10Z2AudioMgrFUlb.s</text>
</a>
</g>
</g>
<!-- Node1&#45;&gt;Node11 -->
<g id="edge11" class="edge">
<title>Node1&#45;&gt;Node11</title>
<path fill="none" stroke="midnightblue" d="M1213.9,-134.44C1260.82,-124.24 1340.21,-106.98 1398.87,-94.22"/>
<polygon fill="midnightblue" stroke="midnightblue" points="1399.8,-97.6 1408.83,-92.06 1398.31,-90.76 1399.8,-97.6"/>
</g>
<!-- Node12 -->
<g id="node12" class="node">
<title>Node12</title>
<g id="a_node12"><a xlink:title=" ">
<polygon fill="white" stroke="#bfbfbf" points="1581.5,-62 1581.5,-92 1751.5,-92 1751.5,-62 1581.5,-62"/>
<text text-anchor="start" x="1589.5" y="-80" font-family="Helvetica,sans-Serif" font-size="10.00">asm/Z2AudioLib/Z2AudioMgr</text>
<text text-anchor="middle" x="1666.5" y="-69" font-family="Helvetica,sans-Serif" font-size="10.00">/resetRecover__10Z2AudioMgrFv.s</text>
</a>
</g>
</g>
<!-- Node1&#45;&gt;Node12 -->
<g id="edge12" class="edge">
<title>Node1&#45;&gt;Node12</title>
<path fill="none" stroke="midnightblue" d="M1253.72,-136.33C1334.27,-129.01 1462.51,-115.88 1572.5,-98 1579.77,-96.82 1587.33,-95.45 1594.86,-93.99"/>
<polygon fill="midnightblue" stroke="midnightblue" points="1595.59,-97.42 1604.72,-92.04 1594.23,-90.55 1595.59,-97.42"/>
</g>
<!-- Node13 -->
<g id="node13" class="node">
<title>Node13</title>
<g id="a_node13"><a xlink:title=" ">
<polygon fill="white" stroke="#bfbfbf" points="1769.5,-62 1769.5,-92 1929.5,-92 1929.5,-62 1769.5,-62"/>
<text text-anchor="start" x="1777.5" y="-80" font-family="Helvetica,sans-Serif" font-size="10.00">asm/Z2AudioLib/Z2AudioMgr</text>
<text text-anchor="middle" x="1849.5" y="-69" font-family="Helvetica,sans-Serif" font-size="10.00">/hasReset__10Z2AudioMgrCFv.s</text>
</a>
</g>
</g>
<!-- Node1&#45;&gt;Node13 -->
<g id="edge13" class="edge">
<title>Node1&#45;&gt;Node13</title>
<path fill="none" stroke="midnightblue" d="M1253.58,-140.55C1366.54,-136.23 1580.38,-125.01 1760.5,-98 1767.8,-96.91 1775.38,-95.55 1782.92,-94.06"/>
<polygon fill="midnightblue" stroke="midnightblue" points="1783.67,-97.48 1792.76,-92.03 1782.26,-90.62 1783.67,-97.48"/>
</g>
<!-- Node14 -->
<g id="node14" class="node">
<title>Node14</title>
<g id="a_node14"><a xlink:title=" ">
<polygon fill="white" stroke="#bfbfbf" points="1948,-62 1948,-92 2091,-92 2091,-62 1948,-62"/>
<text text-anchor="start" x="1956" y="-80" font-family="Helvetica,sans-Serif" font-size="10.00">asm/Z2AudioLib/Z2AudioMgr</text>
<text text-anchor="middle" x="2019.5" y="-69" font-family="Helvetica,sans-Serif" font-size="10.00">/func_802CDB1C.s</text>
</a>
</g>
</g>
<!-- Node1&#45;&gt;Node14 -->
<g id="edge14" class="edge">
<title>Node1&#45;&gt;Node14</title>
<path fill="none" stroke="midnightblue" d="M1253.63,-143.1C1392.9,-142.21 1690.54,-135.59 1938.5,-98 1945.14,-96.99 1952.03,-95.7 1958.86,-94.25"/>
<polygon fill="midnightblue" stroke="midnightblue" points="1959.8,-97.62 1968.8,-92.03 1958.28,-90.79 1959.8,-97.62"/>
</g>
<!-- Node15 -->
<g id="node15" class="node">
<title>Node15</title>
<g id="a_node15"><a xlink:title=" ">
<polygon fill="white" stroke="#bfbfbf" points="2109,-62 2109,-92 2252,-92 2252,-62 2109,-62"/>
<text text-anchor="start" x="2117" y="-80" font-family="Helvetica,sans-Serif" font-size="10.00">asm/Z2AudioLib/Z2AudioMgr</text>
<text text-anchor="middle" x="2180.5" y="-69" font-family="Helvetica,sans-Serif" font-size="10.00">/func_802CDB68.s</text>
</a>
</g>
</g>
<!-- Node1&#45;&gt;Node15 -->
<g id="edge15" class="edge">
<title>Node1&#45;&gt;Node15</title>
<path fill="none" stroke="midnightblue" d="M1253.85,-141.15C1447.11,-136.31 1938.19,-121.99 2100.5,-98 2107.16,-97.02 2114.07,-95.72 2120.92,-94.25"/>
<polygon fill="midnightblue" stroke="midnightblue" points="2121.89,-97.62 2130.87,-92.01 2120.35,-90.8 2121.89,-97.62"/>
</g>
<!-- Node16 -->
<g id="node16" class="node">
<title>Node16</title>
<g id="a_node16"><a xlink:title=" ">
<polygon fill="white" stroke="#bfbfbf" points="2270,-62 2270,-92 2413,-92 2413,-62 2270,-62"/>
<text text-anchor="start" x="2278" y="-80" font-family="Helvetica,sans-Serif" font-size="10.00">asm/Z2AudioLib/Z2AudioMgr</text>
<text text-anchor="middle" x="2341.5" y="-69" font-family="Helvetica,sans-Serif" font-size="10.00">/func_802CDC08.s</text>
</a>
</g>
</g>
<!-- Node1&#45;&gt;Node16 -->
<g id="edge16" class="edge">
<title>Node1&#45;&gt;Node16</title>
<path fill="none" stroke="midnightblue" d="M1253.53,-141.82C1469.57,-138.25 2066.84,-126.06 2261.5,-98 2268.16,-97.04 2275.08,-95.76 2281.93,-94.3"/>
<polygon fill="midnightblue" stroke="midnightblue" points="2282.89,-97.67 2291.88,-92.07 2281.36,-90.84 2282.89,-97.67"/>
</g>
<!-- Node17 -->
<g id="node17" class="node">
<title>Node17</title>
<g id="a_node17"><a xlink:title=" ">
<polygon fill="white" stroke="#bfbfbf" points="2431,-62 2431,-92 2574,-92 2574,-62 2431,-62"/>
<text text-anchor="start" x="2439" y="-80" font-family="Helvetica,sans-Serif" font-size="10.00">asm/Z2AudioLib/Z2AudioMgr</text>
<text text-anchor="middle" x="2502.5" y="-69" font-family="Helvetica,sans-Serif" font-size="10.00">/func_802CDCEC.s</text>
</a>
</g>
</g>
<!-- Node1&#45;&gt;Node17 -->
<g id="edge17" class="edge">
<title>Node1&#45;&gt;Node17</title>
<path fill="none" stroke="midnightblue" d="M1253.52,-142.31C1490.91,-139.89 2195.35,-130.13 2422.5,-98 2429.26,-97.04 2436.28,-95.75 2443.23,-94.28"/>
<polygon fill="midnightblue" stroke="midnightblue" points="2444.33,-97.62 2453.32,-92.01 2442.79,-90.79 2444.33,-97.62"/>
</g>
<!-- Node4&#45;&gt;Node3 -->
<g id="edge4" class="edge">
<title>Node4&#45;&gt;Node3</title>
<path fill="none" stroke="midnightblue" d="M176.16,-67.23C168.9,-57.2 156.84,-40.51 147.74,-27.92"/>
<polygon fill="midnightblue" stroke="midnightblue" points="150.43,-25.68 141.74,-19.63 144.76,-29.78 150.43,-25.68"/>
</g>
</g>
</svg>
