<?xml version="1.0" encoding="UTF-8" standalone="no"?>
<!DOCTYPE svg PUBLIC "-//W3C//DTD SVG 1.1//EN"
 "http://www.w3.org/Graphics/SVG/1.1/DTD/svg11.dtd">
<!-- Generated by graphviz version 2.47.0 (20210316.2052)
 -->
<!-- Title: libs/Z2AudioLib/Z2Calc.cpp Pages: 1 -->
<!--zoomable 162 -->
<svg id="main" version="1.1" xmlns="http://www.w3.org/2000/svg" xmlns:xlink="http://www.w3.org/1999/xlink" xml:space="preserve" onload="init(evt)">
<style type="text/css"><![CDATA[
.edge:hover path { stroke: red; }
.edge:hover polygon { stroke: red; fill: red; }
]]></style>
<script type="text/javascript"><![CDATA[
var edges = document.getElementsByTagName('g');
if (edges && edges.length) {
  for (var i=0;i<edges.length;i++) {
    if (edges[i].id.substr(0,4)=='edge') {
      edges[i].setAttribute('class','edge');
    }
  }
}
]]></script>
        <defs>
                <circle id="rim" cx="0" cy="0" r="7"/>
                <circle id="rim2" cx="0" cy="0" r="3.5"/>
                <g id="zoomPlus">
                        <use xlink:href="#rim" fill="#404040">
                                <set attributeName="fill" to="#808080" begin="zoomplus.mouseover" end="zoomplus.mouseout"/>
                        </use>
                        <path d="M-4,0h8M0,-4v8" fill="none" stroke="white" stroke-width="1.5" pointer-events="none"/>
                </g>
                <g id="zoomMin">
                        <use xlink:href="#rim" fill="#404040">
                                <set attributeName="fill" to="#808080" begin="zoomminus.mouseover" end="zoomminus.mouseout"/>
                        </use>
                        <path d="M-4,0h8" fill="none" stroke="white" stroke-width="1.5" pointer-events="none"/>
                </g>
                <g id="dirArrow">
                        <path fill="none" stroke="white" stroke-width="1.5" d="M0,-3.0v7 M-2.5,-0.5L0,-3.0L2.5,-0.5"/>
                </g>
               <g id="resetDef">
                       <use xlink:href="#rim2" fill="#404040">
                               <set attributeName="fill" to="#808080" begin="reset.mouseover" end="reset.mouseout"/>
                       </use>
               </g>
        </defs>

<script type="text/javascript">
var viewWidth = 1490;
var viewHeight = 162;
var sectionId = 'dynsection-0';
</script>
<script xlink:href="svgpan.js"/>
<svg id="graph" class="graph">
<g id="viewport">
<title>libs/Z2AudioLib/Z2Calc.cpp</title>
<polygon fill="white" stroke="transparent" points="-4,4 -4,-158 1485.5,-158 1485.5,4 -4,4"/>
<!-- Node1 -->
<g id="node1" class="node">
<title>Node1</title>
<g id="a_node1"><a xlink:title=" ">
<polygon fill="#bfbfbf" stroke="black" points="520.5,-134.5 520.5,-153.5 656.5,-153.5 656.5,-134.5 520.5,-134.5"/>
<text text-anchor="middle" x="588.5" y="-141.5" font-family="Helvetica,sans-Serif" font-size="10.00">libs/Z2AudioLib/Z2Calc.cpp</text>
</a>
</g>
</g>
<!-- Node2 -->
<g id="node2" class="node">
<title>Node2</title>
<g id="a_node2"><a xlink:href="dol2asm_8h.html" target="_top" xlink:title=" ">
<polygon fill="white" stroke="black" points="0,-67.5 0,-86.5 61,-86.5 61,-67.5 0,-67.5"/>
<text text-anchor="middle" x="30.5" y="-74.5" font-family="Helvetica,sans-Serif" font-size="10.00">dol2asm.h</text>
</a>
</g>
</g>
<!-- Node1&#45;&gt;Node2 -->
<g id="edge1" class="edge">
<title>Node1&#45;&gt;Node2</title>
<path fill="none" stroke="midnightblue" d="M520.19,-139.81C400.48,-133.74 157.73,-119.25 75.5,-98 68.87,-96.29 61.99,-93.69 55.66,-90.93"/>
<polygon fill="midnightblue" stroke="midnightblue" points="56.82,-87.61 46.28,-86.56 53.87,-93.95 56.82,-87.61"/>
</g>
<!-- Node3 -->
<g id="node3" class="node">
<title>Node3</title>
<g id="a_node3"><a xlink:href="types_8h.html" target="_top" xlink:title=" ">
<polygon fill="white" stroke="black" points="90,-0.5 90,-19.5 171,-19.5 171,-0.5 90,-0.5"/>
<text text-anchor="middle" x="130.5" y="-7.5" font-family="Helvetica,sans-Serif" font-size="10.00">dolphin/types.h</text>
</a>
</g>
</g>
<!-- Node1&#45;&gt;Node3 -->
<g id="edge2" class="edge">
<title>Node1&#45;&gt;Node3</title>
<path fill="none" stroke="midnightblue" d="M520.19,-141.57C394.44,-138.22 136.6,-127.76 109.5,-98 91.97,-78.75 106.39,-47.42 118.44,-28.08"/>
<polygon fill="midnightblue" stroke="midnightblue" points="121.42,-29.92 124.02,-19.65 115.58,-26.06 121.42,-29.92"/>
</g>
<!-- Node4 -->
<g id="node4" class="node">
<title>Node4</title>
<g id="a_node4"><a xlink:href="Z2Calc_8h.html" target="_top" xlink:title=" ">
<polygon fill="white" stroke="black" points="118,-67.5 118,-86.5 225,-86.5 225,-67.5 118,-67.5"/>
<text text-anchor="middle" x="171.5" y="-74.5" font-family="Helvetica,sans-Serif" font-size="10.00">Z2AudioLib/Z2Calc.h</text>
</a>
</g>
</g>
<!-- Node1&#45;&gt;Node4 -->
<g id="edge3" class="edge">
<title>Node1&#45;&gt;Node4</title>
<path fill="none" stroke="midnightblue" d="M520.34,-138.02C448.59,-131.92 332.66,-119.63 234.5,-98 224.6,-95.82 214.04,-92.76 204.44,-89.69"/>
<polygon fill="midnightblue" stroke="midnightblue" points="205.45,-86.34 194.86,-86.53 203.26,-92.99 205.45,-86.34"/>
</g>
<!-- Node5 -->
<g id="node5" class="node">
<title>Node5</title>
<g id="a_node5"><a xlink:title=" ">
<polygon fill="white" stroke="#bfbfbf" points="243.5,-62 243.5,-92 409.5,-92 409.5,-62 243.5,-62"/>
<text text-anchor="start" x="251.5" y="-80" font-family="Helvetica,sans-Serif" font-size="10.00">asm/Z2AudioLib/Z2Calc</text>
<text text-anchor="middle" x="326.5" y="-69" font-family="Helvetica,sans-Serif" font-size="10.00">/linearTransform__6Z2CalcFfffffb.s</text>
</a>
</g>
</g>
<!-- Node1&#45;&gt;Node5 -->
<g id="edge5" class="edge">
<title>Node1&#45;&gt;Node5</title>
<path fill="none" stroke="midnightblue" d="M553.98,-134.44C513.2,-124.32 444.45,-107.26 393.18,-94.54"/>
<polygon fill="midnightblue" stroke="midnightblue" points="393.72,-91.07 383.17,-92.06 392.03,-97.86 393.72,-91.07"/>
</g>
<!-- Node6 -->
<g id="node6" class="node">
<title>Node6</title>
<g id="a_node6"><a xlink:title=" ">
<polygon fill="white" stroke="#bfbfbf" points="428,-56.5 428,-97.5 585,-97.5 585,-56.5 428,-56.5"/>
<text text-anchor="start" x="436" y="-85.5" font-family="Helvetica,sans-Serif" font-size="10.00">asm/Z2AudioLib/Z2Calc</text>
<text text-anchor="start" x="436" y="-74.5" font-family="Helvetica,sans-Serif" font-size="10.00">/getParamByExp__6Z2CalcFffffff</text>
<text text-anchor="middle" x="506.5" y="-63.5" font-family="Helvetica,sans-Serif" font-size="10.00">Q26Z2Calc9CurveSign.s</text>
</a>
</g>
</g>
<!-- Node1&#45;&gt;Node6 -->
<g id="edge6" class="edge">
<title>Node1&#45;&gt;Node6</title>
<path fill="none" stroke="midnightblue" d="M577.44,-134.23C567.67,-126.49 552.9,-114.78 539.37,-104.05"/>
<polygon fill="midnightblue" stroke="midnightblue" points="541.16,-101.01 531.15,-97.54 536.82,-106.5 541.16,-101.01"/>
</g>
<!-- Node7 -->
<g id="node7" class="node">
<title>Node7</title>
<g id="a_node7"><a xlink:title=" ">
<polygon fill="white" stroke="#bfbfbf" points="603,-62 603,-92 740,-92 740,-62 603,-62"/>
<text text-anchor="start" x="611" y="-80" font-family="Helvetica,sans-Serif" font-size="10.00">asm/Z2AudioLib/Z2Calc</text>
<text text-anchor="middle" x="671.5" y="-69" font-family="Helvetica,sans-Serif" font-size="10.00">/getRandom__6Z2CalcFfff.s</text>
</a>
</g>
</g>
<!-- Node1&#45;&gt;Node7 -->
<g id="edge7" class="edge">
<title>Node1&#45;&gt;Node7</title>
<path fill="none" stroke="midnightblue" d="M599.69,-134.23C611.34,-125.11 630,-110.5 645.37,-98.46"/>
<polygon fill="midnightblue" stroke="midnightblue" points="647.79,-101.01 653.51,-92.09 643.48,-95.5 647.79,-101.01"/>
</g>
<!-- Node8 -->
<g id="node8" class="node">
<title>Node8</title>
<g id="a_node8"><a xlink:title=" ">
<polygon fill="white" stroke="#bfbfbf" points="758,-62 758,-92 913,-92 913,-62 758,-62"/>
<text text-anchor="start" x="766" y="-80" font-family="Helvetica,sans-Serif" font-size="10.00">asm/Z2AudioLib/Z2Calc</text>
<text text-anchor="middle" x="835.5" y="-69" font-family="Helvetica,sans-Serif" font-size="10.00">/getRandom_0_1__6Z2CalcFv.s</text>
</a>
</g>
</g>
<!-- Node1&#45;&gt;Node8 -->
<g id="edge8" class="edge">
<title>Node1&#45;&gt;Node8</title>
<path fill="none" stroke="midnightblue" d="M621.04,-134.44C659.4,-124.34 724.03,-107.33 772.34,-94.62"/>
<polygon fill="midnightblue" stroke="midnightblue" points="773.3,-97.99 782.08,-92.06 771.51,-91.22 773.3,-97.99"/>
</g>
<!-- Node9 -->
<g id="node9" class="node">
<title>Node9</title>
<g id="a_node9"><a xlink:title=" ">
<polygon fill="white" stroke="#bfbfbf" points="931.5,-56.5 931.5,-97.5 1097.5,-97.5 1097.5,-56.5 931.5,-56.5"/>
<text text-anchor="start" x="939.5" y="-85.5" font-family="Helvetica,sans-Serif" font-size="10.00">asm/Z2AudioLib/Z2Calc</text>
<text text-anchor="start" x="939.5" y="-74.5" font-family="Helvetica,sans-Serif" font-size="10.00">/setParam__Q26Z2Calc8FNoise1f</text>
<text text-anchor="middle" x="1014.5" y="-63.5" font-family="Helvetica,sans-Serif" font-size="10.00">Ffff.s</text>
</a>
</g>
</g>
<!-- Node1&#45;&gt;Node9 -->
<g id="edge9" class="edge">
<title>Node1&#45;&gt;Node9</title>
<path fill="none" stroke="midnightblue" d="M656.55,-135.45C721.97,-127.83 823.83,-114.99 921.29,-98.15"/>
<polygon fill="midnightblue" stroke="midnightblue" points="922.07,-101.56 931.31,-96.4 920.86,-94.67 922.07,-101.56"/>
</g>
<!-- Node10 -->
<g id="node10" class="node">
<title>Node10</title>
<g id="a_node10"><a xlink:title=" ">
<polygon fill="white" stroke="#bfbfbf" points="1115.5,-62 1115.5,-92 1269.5,-92 1269.5,-62 1115.5,-62"/>
<text text-anchor="start" x="1123.5" y="-80" font-family="Helvetica,sans-Serif" font-size="10.00">asm/Z2AudioLib/Z2Calc</text>
<text text-anchor="middle" x="1192.5" y="-69" font-family="Helvetica,sans-Serif" font-size="10.00">/tau__Q26Z2Calc8FNoise1fFf.s</text>
</a>
</g>
</g>
<!-- Node1&#45;&gt;Node10 -->
<g id="edge10" class="edge">
<title>Node1&#45;&gt;Node10</title>
<path fill="none" stroke="midnightblue" d="M656.75,-140.16C756.19,-135.32 946.47,-123.43 1106.5,-98 1113.21,-96.93 1120.18,-95.64 1127.11,-94.22"/>
<polygon fill="midnightblue" stroke="midnightblue" points="1128.16,-97.58 1137.21,-92.07 1126.7,-90.73 1128.16,-97.58"/>
</g>
<!-- Node11 -->
<g id="node11" class="node">
<title>Node11</title>
<g id="a_node11"><a xlink:title=" ">
<polygon fill="white" stroke="#bfbfbf" points="1287.5,-62 1287.5,-92 1481.5,-92 1481.5,-62 1287.5,-62"/>
<text text-anchor="start" x="1295.5" y="-80" font-family="Helvetica,sans-Serif" font-size="10.00">asm/Z2AudioLib/Z2Calc</text>
<text text-anchor="middle" x="1384.5" y="-69" font-family="Helvetica,sans-Serif" font-size="10.00">/calcNoise1f__Q26Z2Calc8FNoise1fFv.s</text>
</a>
</g>
</g>
<!-- Node1&#45;&gt;Node11 -->
<g id="edge11" class="edge">
<title>Node1&#45;&gt;Node11</title>
<path fill="none" stroke="midnightblue" d="M656.83,-141.29C781.03,-137.57 1051.92,-126.66 1278.5,-98 1287.74,-96.83 1297.39,-95.36 1306.94,-93.75"/>
<polygon fill="midnightblue" stroke="midnightblue" points="1307.58,-97.19 1316.84,-92.03 1306.38,-90.3 1307.58,-97.19"/>
</g>
<!-- Node4&#45;&gt;Node3 -->
<g id="edge4" class="edge">
<title>Node4&#45;&gt;Node3</title>
<path fill="none" stroke="midnightblue" d="M165.97,-67.23C159.7,-57.29 149.32,-40.84 141.41,-28.29"/>
<polygon fill="midnightblue" stroke="midnightblue" points="144.24,-26.22 135.94,-19.63 138.32,-29.95 144.24,-26.22"/>
</g>
</g>
</svg>
        <g id="navigator" transform="translate(0 0)" fill="#404254">
                <rect fill="#f2f5e9" fill-opacity="0.5" stroke="#606060" stroke-width=".5" x="0" y="0" width="60" height="60"/>
                <use id="zoomplus" xlink:href="#zoomPlus" x="17" y="9" onmousedown="handleZoom(evt,'in')"/>
                <use id="zoomminus" xlink:href="#zoomMin" x="42" y="9" onmousedown="handleZoom(evt,'out')"/>
                <use id="reset" xlink:href="#resetDef" x="30" y="36" onmousedown="handleReset()"/>
                <g id="arrowUp" xlink:href="#dirArrow" transform="translate(30 24)" onmousedown="handlePan(0,-1)">
                  <use xlink:href="#rim" fill="#404040">
                        <set attributeName="fill" to="#808080" begin="arrowUp.mouseover" end="arrowUp.mouseout"/>
                  </use>
                  <path fill="none" stroke="white" stroke-width="1.5" d="M0,-3.0v7 M-2.5,-0.5L0,-3.0L2.5,-0.5"/>
                </g>
                <g id="arrowRight" xlink:href="#dirArrow" transform="rotate(90) translate(36 -43)" onmousedown="handlePan(1,0)">
                  <use xlink:href="#rim" fill="#404040">
                        <set attributeName="fill" to="#808080" begin="arrowRight.mouseover" end="arrowRight.mouseout"/>
                  </use>
                  <path fill="none" stroke="white" stroke-width="1.5" d="M0,-3.0v7 M-2.5,-0.5L0,-3.0L2.5,-0.5"/>
                </g>
                <g id="arrowDown" xlink:href="#dirArrow" transform="rotate(180) translate(-30 -48)" onmousedown="handlePan(0,1)">
                  <use xlink:href="#rim" fill="#404040">
                        <set attributeName="fill" to="#808080" begin="arrowDown.mouseover" end="arrowDown.mouseout"/>
                  </use>
                  <path fill="none" stroke="white" stroke-width="1.5" d="M0,-3.0v7 M-2.5,-0.5L0,-3.0L2.5,-0.5"/>
                </g>
                <g id="arrowLeft" xlink:href="#dirArrow" transform="rotate(270) translate(-36 17)" onmousedown="handlePan(-1,0)">
                  <use xlink:href="#rim" fill="#404040">
                        <set attributeName="fill" to="#808080" begin="arrowLeft.mouseover" end="arrowLeft.mouseout"/>
                  </use>
                  <path fill="none" stroke="white" stroke-width="1.5" d="M0,-3.0v7 M-2.5,-0.5L0,-3.0L2.5,-0.5"/>
                </g>
        </g>
        <svg viewBox="0 0 15 15" width="100%" height="30px" preserveAspectRatio="xMaxYMin meet">
         <g id="arrow_out" transform="scale(0.3 0.3)">
          <a xlink:href="Z2Calc_8cpp__incl_org.svg" target="_base">
           <rect id="button" ry="5" rx="5" y="6" x="6" height="38" width="38"
                fill="#f2f5e9" fill-opacity="0.5" stroke="#606060" stroke-width="1.0"/>
           <path id="arrow"
             d="M 11.500037,31.436501 C 11.940474,20.09759 22.043105,11.32322 32.158766,21.979434 L 37.068811,17.246167 C 37.068811,17.246167 37.088388,32 37.088388,32 L 22.160133,31.978069 C 22.160133,31.978069 26.997745,27.140456 26.997745,27.140456 C 18.528582,18.264221 13.291696,25.230495 11.500037,31.436501 z"
             style="fill:#404040;"/>
          </a>
         </g>
        </svg>
</svg>
