<?xml version="1.0" encoding="UTF-8" standalone="no"?>
<!DOCTYPE svg PUBLIC "-//W3C//DTD SVG 1.1//EN"
 "http://www.w3.org/Graphics/SVG/1.1/DTD/svg11.dtd">
<!-- Generated by graphviz version 2.47.0 (20210316.2052)
 -->
<!-- Title: libs/Z2AudioLib/Z2SceneMgr.cpp Pages: 1 -->
<svg width="6856pt" height="162pt"
 viewBox="0.00 0.00 6855.50 162.00" xmlns="http://www.w3.org/2000/svg" xmlns:xlink="http://www.w3.org/1999/xlink">
<g id="graph0" class="graph" transform="scale(1 1) rotate(0) translate(4 158)">
<title>libs/Z2AudioLib/Z2SceneMgr.cpp</title>
<polygon fill="white" stroke="transparent" points="-4,4 -4,-158 6851.5,-158 6851.5,4 -4,4"/>
<!-- Node1 -->
<g id="node1" class="node">
<title>Node1</title>
<g id="a_node1"><a xlink:title=" ">
<polygon fill="#bfbfbf" stroke="black" points="3161,-134.5 3161,-153.5 3322,-153.5 3322,-134.5 3161,-134.5"/>
<text text-anchor="middle" x="3241.5" y="-141.5" font-family="Helvetica,sans-Serif" font-size="10.00">libs/Z2AudioLib/Z2SceneMgr.cpp</text>
</a>
</g>
</g>
<!-- Node2 -->
<g id="node2" class="node">
<title>Node2</title>
<g id="a_node2"><a xlink:href="dol2asm_8h.html" target="_top" xlink:title=" ">
<polygon fill="white" stroke="black" points="0,-67.5 0,-86.5 61,-86.5 61,-67.5 0,-67.5"/>
<text text-anchor="middle" x="30.5" y="-74.5" font-family="Helvetica,sans-Serif" font-size="10.00">dol2asm.h</text>
</a>
</g>
</g>
<!-- Node1&#45;&gt;Node2 -->
<g id="edge1" class="edge">
<title>Node1&#45;&gt;Node2</title>
<path fill="none" stroke="midnightblue" d="M3160.86,-142.77C2682.29,-141.29 230.49,-132.04 75.5,-98 68.7,-96.51 61.68,-93.94 55.26,-91.14"/>
<polygon fill="midnightblue" stroke="midnightblue" points="56.33,-87.77 45.8,-86.65 53.34,-94.1 56.33,-87.77"/>
</g>
<!-- Node3 -->
<g id="node3" class="node">
<title>Node3</title>
<g id="a_node3"><a xlink:href="types_8h.html" target="_top" xlink:title=" ">
<polygon fill="white" stroke="black" points="96,-0.5 96,-19.5 177,-19.5 177,-0.5 96,-0.5"/>
<text text-anchor="middle" x="136.5" y="-7.5" font-family="Helvetica,sans-Serif" font-size="10.00">dolphin/types.h</text>
</a>
</g>
</g>
<!-- Node1&#45;&gt;Node3 -->
<g id="edge2" class="edge">
<title>Node1&#45;&gt;Node3</title>
<path fill="none" stroke="midnightblue" d="M3160.88,-142.61C2673.07,-140.15 136.11,-126.01 108.5,-98 89.66,-78.89 107.93,-47.07 122.5,-27.66"/>
<polygon fill="midnightblue" stroke="midnightblue" points="125.33,-29.73 128.79,-19.71 119.84,-25.38 125.33,-29.73"/>
</g>
<!-- Node4 -->
<g id="node4" class="node">
<title>Node4</title>
<g id="a_node4"><a xlink:href="Z2SceneMgr_8h.html" target="_top" xlink:title=" ">
<polygon fill="white" stroke="black" points="117.5,-67.5 117.5,-86.5 249.5,-86.5 249.5,-67.5 117.5,-67.5"/>
<text text-anchor="middle" x="183.5" y="-74.5" font-family="Helvetica,sans-Serif" font-size="10.00">Z2AudioLib/Z2SceneMgr.h</text>
</a>
</g>
</g>
<!-- Node1&#45;&gt;Node4 -->
<g id="edge3" class="edge">
<title>Node1&#45;&gt;Node4</title>
<path fill="none" stroke="midnightblue" d="M3160.96,-142.97C2714.47,-142.62 552.69,-138.81 258.5,-98 245.46,-96.19 231.46,-92.85 219.12,-89.41"/>
<polygon fill="midnightblue" stroke="midnightblue" points="219.79,-85.96 209.21,-86.53 217.84,-92.68 219.79,-85.96"/>
</g>
<!-- Node5 -->
<g id="node5" class="node">
<title>Node5</title>
<g id="a_node5"><a xlink:title=" ">
<polygon fill="white" stroke="#bfbfbf" points="267.5,-62 267.5,-92 413.5,-92 413.5,-62 267.5,-62"/>
<text text-anchor="start" x="275.5" y="-80" font-family="Helvetica,sans-Serif" font-size="10.00">asm/Z2AudioLib/Z2SceneMgr</text>
<text text-anchor="middle" x="340.5" y="-69" font-family="Helvetica,sans-Serif" font-size="10.00">/__ct__10Z2SceneMgrFv.s</text>
</a>
</g>
</g>
<!-- Node1&#45;&gt;Node5 -->
<g id="edge5" class="edge">
<title>Node1&#45;&gt;Node5</title>
<path fill="none" stroke="midnightblue" d="M3160.86,-142.79C2729.08,-141.5 699.91,-133.59 422.5,-98 415.31,-97.08 407.83,-95.76 400.44,-94.24"/>
<polygon fill="midnightblue" stroke="midnightblue" points="400.99,-90.78 390.47,-92.06 399.49,-97.62 400.99,-90.78"/>
</g>
<!-- Node6 -->
<g id="node6" class="node">
<title>Node6</title>
<g id="a_node6"><a xlink:title=" ">
<polygon fill="white" stroke="#bfbfbf" points="431.5,-62 431.5,-92 609.5,-92 609.5,-62 431.5,-62"/>
<text text-anchor="start" x="439.5" y="-80" font-family="Helvetica,sans-Serif" font-size="10.00">asm/Z2AudioLib/Z2SceneMgr</text>
<text text-anchor="middle" x="520.5" y="-69" font-family="Helvetica,sans-Serif" font-size="10.00">/setInDarkness__10Z2SceneMgrFb.s</text>
</a>
</g>
</g>
<!-- Node1&#45;&gt;Node6 -->
<g id="edge6" class="edge">
<title>Node1&#45;&gt;Node6</title>
<path fill="none" stroke="midnightblue" d="M3160.78,-142.5C2747.31,-139.83 875.99,-126.24 618.5,-98 609.37,-97 599.84,-95.56 590.45,-93.9"/>
<polygon fill="midnightblue" stroke="midnightblue" points="590.81,-90.41 580.34,-92.03 589.54,-97.29 590.81,-90.41"/>
</g>
<!-- Node7 -->
<g id="node7" class="node">
<title>Node7</title>
<g id="a_node7"><a xlink:title=" ">
<polygon fill="white" stroke="#bfbfbf" points="627,-62 627,-92 804,-92 804,-62 627,-62"/>
<text text-anchor="start" x="635" y="-80" font-family="Helvetica,sans-Serif" font-size="10.00">asm/Z2AudioLib/Z2SceneMgr</text>
<text text-anchor="middle" x="715.5" y="-69" font-family="Helvetica,sans-Serif" font-size="10.00">/setSceneExist__10Z2SceneMgrFb.s</text>
</a>
</g>
</g>
<!-- Node1&#45;&gt;Node7 -->
<g id="edge7" class="edge">
<title>Node1&#45;&gt;Node7</title>
<path fill="none" stroke="midnightblue" d="M3160.97,-142.39C2766.75,-139.3 1049.73,-124.42 812.5,-98 803.46,-96.99 794.02,-95.55 784.73,-93.89"/>
<polygon fill="midnightblue" stroke="midnightblue" points="785.2,-90.42 774.73,-92.02 783.91,-97.3 785.2,-90.42"/>
</g>
<!-- Node8 -->
<g id="node8" class="node">
<title>Node8</title>
<g id="a_node8"><a xlink:title=" ">
<polygon fill="white" stroke="#bfbfbf" points="821.5,-62 821.5,-92 1015.5,-92 1015.5,-62 821.5,-62"/>
<text text-anchor="start" x="829.5" y="-80" font-family="Helvetica,sans-Serif" font-size="10.00">asm/Z2AudioLib/Z2SceneMgr</text>
<text text-anchor="middle" x="918.5" y="-69" font-family="Helvetica,sans-Serif" font-size="10.00">/setFadeOutStart__10Z2SceneMgrFUc.s</text>
</a>
</g>
</g>
<!-- Node1&#45;&gt;Node8 -->
<g id="edge8" class="edge">
<title>Node1&#45;&gt;Node8</title>
<path fill="none" stroke="midnightblue" d="M3160.89,-143.16C2814.55,-143.57 1451.1,-142.26 1024.5,-98 1014.41,-96.95 1003.84,-95.45 993.45,-93.74"/>
<polygon fill="midnightblue" stroke="midnightblue" points="994.01,-90.28 983.56,-92.04 992.82,-97.18 994.01,-90.28"/>
</g>
<!-- Node9 -->
<g id="node9" class="node">
<title>Node9</title>
<g id="a_node9"><a xlink:title=" ">
<polygon fill="white" stroke="#bfbfbf" points="1033,-62 1033,-92 1220,-92 1220,-62 1033,-62"/>
<text text-anchor="start" x="1041" y="-80" font-family="Helvetica,sans-Serif" font-size="10.00">asm/Z2AudioLib/Z2SceneMgr</text>
<text text-anchor="middle" x="1126.5" y="-69" font-family="Helvetica,sans-Serif" font-size="10.00">/setFadeInStart__10Z2SceneMgrFUc.s</text>
</a>
</g>
</g>
<!-- Node1&#45;&gt;Node9 -->
<g id="edge9" class="edge">
<title>Node1&#45;&gt;Node9</title>
<path fill="none" stroke="midnightblue" d="M3161,-143.04C2835.08,-142.92 1612.74,-139.65 1228.5,-98 1218.98,-96.97 1209.02,-95.5 1199.22,-93.83"/>
<polygon fill="midnightblue" stroke="midnightblue" points="1199.55,-90.34 1189.09,-92.02 1198.32,-97.23 1199.55,-90.34"/>
</g>
<!-- Node10 -->
<g id="node10" class="node">
<title>Node10</title>
<g id="a_node10"><a xlink:title=" ">
<polygon fill="white" stroke="#bfbfbf" points="1237.5,-62 1237.5,-92 1431.5,-92 1431.5,-62 1237.5,-62"/>
<text text-anchor="start" x="1245.5" y="-80" font-family="Helvetica,sans-Serif" font-size="10.00">asm/Z2AudioLib/Z2SceneMgr</text>
<text text-anchor="middle" x="1334.5" y="-69" font-family="Helvetica,sans-Serif" font-size="10.00">/setSceneName__10Z2SceneMgrFPcll.s</text>
</a>
</g>
</g>
<!-- Node1&#45;&gt;Node10 -->
<g id="edge10" class="edge">
<title>Node1&#45;&gt;Node10</title>
<path fill="none" stroke="midnightblue" d="M3160.85,-142.72C2856.97,-141.38 1781.07,-134.14 1440.5,-98 1430.58,-96.95 1420.21,-95.47 1409.99,-93.78"/>
<polygon fill="midnightblue" stroke="midnightblue" points="1410.3,-90.29 1399.85,-92.04 1409.11,-97.18 1410.3,-90.29"/>
</g>
<!-- Node11 -->
<g id="node11" class="node">
<title>Node11</title>
<g id="a_node11"><a xlink:title=" ">
<polygon fill="white" stroke="#bfbfbf" points="1449.5,-62 1449.5,-92 1651.5,-92 1651.5,-62 1449.5,-62"/>
<text text-anchor="start" x="1457.5" y="-80" font-family="Helvetica,sans-Serif" font-size="10.00">asm/Z2AudioLib/Z2SceneMgr</text>
<text text-anchor="middle" x="1550.5" y="-69" font-family="Helvetica,sans-Serif" font-size="10.00">/__ct__10JAISoundIDFRC10JAISoundID.s</text>
</a>
</g>
</g>
<!-- Node1&#45;&gt;Node11 -->
<g id="edge11" class="edge">
<title>Node1&#45;&gt;Node11</title>
<path fill="none" stroke="midnightblue" d="M3160.88,-142.3C2881.65,-139.63 1956.8,-128.63 1661.5,-98 1650.99,-96.91 1639.97,-95.39 1629.14,-93.67"/>
<polygon fill="midnightblue" stroke="midnightblue" points="1629.69,-90.21 1619.25,-92.04 1628.55,-97.12 1629.69,-90.21"/>
</g>
<!-- Node12 -->
<g id="node12" class="node">
<title>Node12</title>
<g id="a_node12"><a xlink:title=" ">
<polygon fill="white" stroke="#bfbfbf" points="1670,-62 1670,-92 1843,-92 1843,-62 1670,-62"/>
<text text-anchor="start" x="1678" y="-80" font-family="Helvetica,sans-Serif" font-size="10.00">asm/Z2AudioLib/Z2SceneMgr</text>
<text text-anchor="middle" x="1756.5" y="-69" font-family="Helvetica,sans-Serif" font-size="10.00">/setFieldBgmPlay__8Z2SeqMgrFb.s</text>
</a>
</g>
</g>
<!-- Node1&#45;&gt;Node12 -->
<g id="edge12" class="edge">
<title>Node1&#45;&gt;Node12</title>
<path fill="none" stroke="midnightblue" d="M3160.96,-142.22C2904.44,-139.45 2108.39,-128.57 1852.5,-98 1843.84,-96.97 1834.8,-95.54 1825.89,-93.93"/>
<polygon fill="midnightblue" stroke="midnightblue" points="1826.37,-90.46 1815.9,-92.04 1825.07,-97.34 1826.37,-90.46"/>
</g>
<!-- Node13 -->
<g id="node13" class="node">
<title>Node13</title>
<g id="a_node13"><a xlink:title=" ">
<polygon fill="white" stroke="#bfbfbf" points="1861.5,-62 1861.5,-92 2025.5,-92 2025.5,-62 1861.5,-62"/>
<text text-anchor="start" x="1869.5" y="-80" font-family="Helvetica,sans-Serif" font-size="10.00">asm/Z2AudioLib/Z2SceneMgr</text>
<text text-anchor="middle" x="1943.5" y="-69" font-family="Helvetica,sans-Serif" font-size="10.00">/isActive__12JAIStreamMgrCFv.s</text>
</a>
</g>
</g>
<!-- Node1&#45;&gt;Node13 -->
<g id="edge13" class="edge">
<title>Node1&#45;&gt;Node13</title>
<path fill="none" stroke="midnightblue" d="M3160.58,-141.87C2926.8,-138.32 2253.17,-125.88 2034.5,-98 2026.51,-96.98 2018.2,-95.6 2009.97,-94.04"/>
<polygon fill="midnightblue" stroke="midnightblue" points="2010.51,-90.58 2000.02,-92.06 2009.15,-97.45 2010.51,-90.58"/>
</g>
<!-- Node14 -->
<g id="node14" class="node">
<title>Node14</title>
<g id="a_node14"><a xlink:title=" ">
<polygon fill="white" stroke="#bfbfbf" points="2043.5,-62 2043.5,-92 2189.5,-92 2189.5,-62 2043.5,-62"/>
<text text-anchor="start" x="2051.5" y="-80" font-family="Helvetica,sans-Serif" font-size="10.00">asm/Z2AudioLib/Z2SceneMgr</text>
<text text-anchor="middle" x="2116.5" y="-69" font-family="Helvetica,sans-Serif" font-size="10.00">/getID__8JAISoundCFv.s</text>
</a>
</g>
</g>
<!-- Node1&#45;&gt;Node14 -->
<g id="edge14" class="edge">
<title>Node1&#45;&gt;Node14</title>
<path fill="none" stroke="midnightblue" d="M3160.76,-141.56C2949.48,-137.48 2383.89,-124.35 2198.5,-98 2191.68,-97.03 2184.59,-95.74 2177.57,-94.28"/>
<polygon fill="midnightblue" stroke="midnightblue" points="2177.9,-90.77 2167.38,-92.05 2176.39,-97.61 2177.9,-90.77"/>
</g>
<!-- Node15 -->
<g id="node15" class="node">
<title>Node15</title>
<g id="a_node15"><a xlink:title=" ">
<polygon fill="white" stroke="#bfbfbf" points="2207.5,-62 2207.5,-92 2353.5,-92 2353.5,-62 2207.5,-62"/>
<text text-anchor="start" x="2215.5" y="-80" font-family="Helvetica,sans-Serif" font-size="10.00">asm/Z2AudioLib/Z2SceneMgr</text>
<text text-anchor="middle" x="2280.5" y="-69" font-family="Helvetica,sans-Serif" font-size="10.00">/func_802B9994.s</text>
</a>
</g>
</g>
<!-- Node1&#45;&gt;Node15 -->
<g id="edge15" class="edge">
<title>Node1&#45;&gt;Node15</title>
<path fill="none" stroke="midnightblue" d="M3160.82,-143.84C3005.57,-144.35 2654.85,-140.2 2363.5,-98 2356.7,-97.02 2349.64,-95.73 2342.64,-94.29"/>
<polygon fill="midnightblue" stroke="midnightblue" points="2342.97,-90.78 2332.46,-92.08 2341.49,-97.62 2342.97,-90.78"/>
</g>
<!-- Node16 -->
<g id="node16" class="node">
<title>Node16</title>
<g id="a_node16"><a xlink:title=" ">
<polygon fill="white" stroke="#bfbfbf" points="2372,-62 2372,-92 2527,-92 2527,-62 2372,-62"/>
<text text-anchor="start" x="2380" y="-80" font-family="Helvetica,sans-Serif" font-size="10.00">asm/Z2AudioLib/Z2SceneMgr</text>
<text text-anchor="middle" x="2449.5" y="-69" font-family="Helvetica,sans-Serif" font-size="10.00">/dComIfGs_getStartPoint__Fv.s</text>
</a>
</g>
</g>
<!-- Node1&#45;&gt;Node16 -->
<g id="edge16" class="edge">
<title>Node1&#45;&gt;Node16</title>
<path fill="none" stroke="midnightblue" d="M3160.97,-142.1C3029.57,-139.68 2761.17,-130.77 2536.5,-98 2529.33,-96.95 2521.88,-95.62 2514.49,-94.15"/>
<polygon fill="midnightblue" stroke="midnightblue" points="2514.98,-90.67 2504.47,-92.06 2513.55,-97.53 2514.98,-90.67"/>
</g>
<!-- Node17 -->
<g id="node17" class="node">
<title>Node17</title>
<g id="a_node17"><a xlink:title=" ">
<polygon fill="white" stroke="#bfbfbf" points="2545.5,-62 2545.5,-92 2729.5,-92 2729.5,-62 2545.5,-62"/>
<text text-anchor="start" x="2553.5" y="-80" font-family="Helvetica,sans-Serif" font-size="10.00">asm/Z2AudioLib/Z2SceneMgr</text>
<text text-anchor="middle" x="2637.5" y="-69" font-family="Helvetica,sans-Serif" font-size="10.00">/unMuteSceneBgm__8Z2SeqMgrFUl.s</text>
</a>
</g>
</g>
<!-- Node1&#45;&gt;Node17 -->
<g id="edge17" class="edge">
<title>Node1&#45;&gt;Node17</title>
<path fill="none" stroke="midnightblue" d="M3160.61,-138.42C3060.97,-132.17 2886.69,-119.24 2738.5,-98 2730.23,-96.82 2721.62,-95.4 2713.06,-93.87"/>
<polygon fill="midnightblue" stroke="midnightblue" points="2713.53,-90.4 2703.07,-92.03 2712.27,-97.28 2713.53,-90.4"/>
</g>
<!-- Node18 -->
<g id="node18" class="node">
<title>Node18</title>
<g id="a_node18"><a xlink:title=" ">
<polygon fill="white" stroke="#bfbfbf" points="2747.5,-62 2747.5,-92 2923.5,-92 2923.5,-62 2747.5,-62"/>
<text text-anchor="start" x="2755.5" y="-80" font-family="Helvetica,sans-Serif" font-size="10.00">asm/Z2AudioLib/Z2SceneMgr</text>
<text text-anchor="middle" x="2835.5" y="-69" font-family="Helvetica,sans-Serif" font-size="10.00">/muteSceneBgm__8Z2SeqMgrFUlf.s</text>
</a>
</g>
</g>
<!-- Node1&#45;&gt;Node18 -->
<g id="edge18" class="edge">
<title>Node1&#45;&gt;Node18</title>
<path fill="none" stroke="midnightblue" d="M3175.02,-134.47C3112.32,-126.15 3015.79,-112.64 2932.5,-98 2925.46,-96.76 2918.14,-95.4 2910.83,-93.98"/>
<polygon fill="midnightblue" stroke="midnightblue" points="2911.37,-90.52 2900.88,-92.03 2910.02,-97.39 2911.37,-90.52"/>
</g>
<!-- Node19 -->
<g id="node19" class="node">
<title>Node19</title>
<g id="a_node19"><a xlink:title=" ">
<polygon fill="white" stroke="#bfbfbf" points="2941.5,-62 2941.5,-92 3145.5,-92 3145.5,-62 2941.5,-62"/>
<text text-anchor="start" x="2949.5" y="-80" font-family="Helvetica,sans-Serif" font-size="10.00">asm/Z2AudioLib/Z2SceneMgr</text>
<text text-anchor="middle" x="3043.5" y="-69" font-family="Helvetica,sans-Serif" font-size="10.00">/__as__10JAISoundIDFRC10JAISoundID.s</text>
</a>
</g>
</g>
<!-- Node1&#45;&gt;Node19 -->
<g id="edge19" class="edge">
<title>Node1&#45;&gt;Node19</title>
<path fill="none" stroke="midnightblue" d="M3215.21,-134.37C3184.98,-124.45 3134.61,-107.91 3096.21,-95.31"/>
<polygon fill="midnightblue" stroke="midnightblue" points="3096.82,-91.82 3086.23,-92.03 3094.64,-98.47 3096.82,-91.82"/>
</g>
<!-- Node20 -->
<g id="node20" class="node">
<title>Node20</title>
<g id="a_node20"><a xlink:title=" ">
<polygon fill="white" stroke="#bfbfbf" points="3164,-62 3164,-92 3319,-92 3319,-62 3164,-62"/>
<text text-anchor="start" x="3172" y="-80" font-family="Helvetica,sans-Serif" font-size="10.00">asm/Z2AudioLib/Z2SceneMgr</text>
<text text-anchor="middle" x="3241.5" y="-69" font-family="Helvetica,sans-Serif" font-size="10.00">/dComIfGs_isSaveSwitch__Fi.s</text>
</a>
</g>
</g>
<!-- Node1&#45;&gt;Node20 -->
<g id="edge20" class="edge">
<title>Node1&#45;&gt;Node20</title>
<path fill="none" stroke="midnightblue" d="M3241.5,-134.23C3241.5,-126.04 3241.5,-113.42 3241.5,-102.21"/>
<polygon fill="midnightblue" stroke="midnightblue" points="3245,-102.09 3241.5,-92.09 3238,-102.09 3245,-102.09"/>
</g>
<!-- Node21 -->
<g id="node21" class="node">
<title>Node21</title>
<g id="a_node21"><a xlink:title=" ">
<polygon fill="white" stroke="#bfbfbf" points="3337.5,-62 3337.5,-92 3499.5,-92 3499.5,-62 3337.5,-62"/>
<text text-anchor="start" x="3345.5" y="-80" font-family="Helvetica,sans-Serif" font-size="10.00">asm/Z2AudioLib/Z2SceneMgr</text>
<text text-anchor="middle" x="3418.5" y="-69" font-family="Helvetica,sans-Serif" font-size="10.00">/resetCrowdSize__7Z2SeMgrFv.s</text>
</a>
</g>
</g>
<!-- Node1&#45;&gt;Node21 -->
<g id="edge21" class="edge">
<title>Node1&#45;&gt;Node21</title>
<path fill="none" stroke="midnightblue" d="M3265,-134.37C3291.79,-124.53 3336.29,-108.19 3370.5,-95.63"/>
<polygon fill="midnightblue" stroke="midnightblue" points="3372.12,-98.76 3380.3,-92.03 3369.71,-92.19 3372.12,-98.76"/>
</g>
<!-- Node22 -->
<g id="node22" class="node">
<title>Node22</title>
<g id="a_node22"><a xlink:title=" ">
<polygon fill="white" stroke="#bfbfbf" points="3518,-62 3518,-92 3697,-92 3697,-62 3518,-62"/>
<text text-anchor="start" x="3526" y="-80" font-family="Helvetica,sans-Serif" font-size="10.00">asm/Z2AudioLib/Z2SceneMgr</text>
<text text-anchor="middle" x="3607.5" y="-69" font-family="Helvetica,sans-Serif" font-size="10.00">/setTwilightGateVol__8Z2SeqMgrFf.s</text>
</a>
</g>
</g>
<!-- Node1&#45;&gt;Node22 -->
<g id="edge22" class="edge">
<title>Node1&#45;&gt;Node22</title>
<path fill="none" stroke="midnightblue" d="M3295.29,-134.46C3349.27,-125.76 3434.78,-111.66 3508.5,-98 3515.43,-96.72 3522.63,-95.34 3529.84,-93.94"/>
<polygon fill="midnightblue" stroke="midnightblue" points="3530.52,-97.37 3539.66,-92.01 3529.17,-90.5 3530.52,-97.37"/>
</g>
<!-- Node23 -->
<g id="node23" class="node">
<title>Node23</title>
<g id="a_node23"><a xlink:title=" ">
<polygon fill="white" stroke="#bfbfbf" points="3715.5,-62 3715.5,-92 3897.5,-92 3897.5,-62 3715.5,-62"/>
<text text-anchor="start" x="3723.5" y="-80" font-family="Helvetica,sans-Serif" font-size="10.00">asm/Z2AudioLib/Z2SceneMgr</text>
<text text-anchor="middle" x="3806.5" y="-69" font-family="Helvetica,sans-Serif" font-size="10.00">/setWindStoneVol__8Z2SeqMgrFfUl.s</text>
</a>
</g>
</g>
<!-- Node1&#45;&gt;Node23 -->
<g id="edge23" class="edge">
<title>Node1&#45;&gt;Node23</title>
<path fill="none" stroke="midnightblue" d="M3322.03,-137.69C3414.98,-130.98 3572.31,-117.86 3706.5,-98 3714.53,-96.81 3722.89,-95.41 3731.21,-93.9"/>
<polygon fill="midnightblue" stroke="midnightblue" points="3732.12,-97.29 3741.31,-92.02 3730.84,-90.41 3732.12,-97.29"/>
</g>
<!-- Node24 -->
<g id="node24" class="node">
<title>Node24</title>
<g id="a_node24"><a xlink:title=" ">
<polygon fill="white" stroke="#bfbfbf" points="3915.5,-62 3915.5,-92 4061.5,-92 4061.5,-62 3915.5,-62"/>
<text text-anchor="start" x="3923.5" y="-80" font-family="Helvetica,sans-Serif" font-size="10.00">asm/Z2AudioLib/Z2SceneMgr</text>
<text text-anchor="middle" x="3988.5" y="-69" font-family="Helvetica,sans-Serif" font-size="10.00">/__ct__10JAISoundIDFUl.s</text>
</a>
</g>
</g>
<!-- Node1&#45;&gt;Node24 -->
<g id="edge24" class="edge">
<title>Node1&#45;&gt;Node24</title>
<path fill="none" stroke="midnightblue" d="M3322.09,-142C3447.67,-139.44 3697.37,-130.33 3906.5,-98 3913.12,-96.98 3919.98,-95.68 3926.8,-94.25"/>
<polygon fill="midnightblue" stroke="midnightblue" points="3927.71,-97.63 3936.72,-92.05 3926.2,-90.79 3927.71,-97.63"/>
</g>
<!-- Node25 -->
<g id="node25" class="node">
<title>Node25</title>
<g id="a_node25"><a xlink:title=" ">
<polygon fill="white" stroke="#bfbfbf" points="4080,-56.5 4080,-97.5 4295,-97.5 4295,-56.5 4080,-56.5"/>
<text text-anchor="start" x="4088" y="-85.5" font-family="Helvetica,sans-Serif" font-size="10.00">asm/Z2AudioLib/Z2SceneMgr</text>
<text text-anchor="start" x="4088" y="-74.5" font-family="Helvetica,sans-Serif" font-size="10.00">/sceneChange__10Z2SceneMgrF10JAISound</text>
<text text-anchor="middle" x="4187.5" y="-63.5" font-family="Helvetica,sans-Serif" font-size="10.00">IDUcUcUcUcUcb.s</text>
</a>
</g>
</g>
<!-- Node1&#45;&gt;Node25 -->
<g id="edge25" class="edge">
<title>Node1&#45;&gt;Node25</title>
<path fill="none" stroke="midnightblue" d="M3322.07,-141.7C3468.79,-138.66 3789.47,-128.92 4069.87,-97.99"/>
<polygon fill="midnightblue" stroke="midnightblue" points="4070.27,-101.47 4079.83,-96.89 4069.5,-94.51 4070.27,-101.47"/>
</g>
<!-- Node26 -->
<g id="node26" class="node">
<title>Node26</title>
<g id="a_node26"><a xlink:title=" ">
<polygon fill="white" stroke="#bfbfbf" points="4313,-62 4313,-92 4474,-92 4474,-62 4313,-62"/>
<text text-anchor="start" x="4321" y="-80" font-family="Helvetica,sans-Serif" font-size="10.00">asm/Z2AudioLib/Z2SceneMgr</text>
<text text-anchor="middle" x="4393.5" y="-69" font-family="Helvetica,sans-Serif" font-size="10.00">/framework__10Z2SceneMgrFv.s</text>
</a>
</g>
</g>
<!-- Node1&#45;&gt;Node26 -->
<g id="edge26" class="edge">
<title>Node1&#45;&gt;Node26</title>
<path fill="none" stroke="midnightblue" d="M3322.21,-141.45C3536.23,-137.05 4114.86,-123.12 4304.5,-98 4312.23,-96.98 4320.27,-95.61 4328.23,-94.06"/>
<polygon fill="midnightblue" stroke="midnightblue" points="4329.13,-97.45 4338.23,-92.03 4327.73,-90.59 4329.13,-97.45"/>
</g>
<!-- Node27 -->
<g id="node27" class="node">
<title>Node27</title>
<g id="a_node27"><a xlink:title=" ">
<polygon fill="white" stroke="#bfbfbf" points="4492,-56.5 4492,-97.5 4665,-97.5 4665,-56.5 4492,-56.5"/>
<text text-anchor="start" x="4500" y="-85.5" font-family="Helvetica,sans-Serif" font-size="10.00">asm/Z2AudioLib/Z2SceneMgr</text>
<text text-anchor="start" x="4500" y="-74.5" font-family="Helvetica,sans-Serif" font-size="10.00">/load1stDynamicWave__10Z2Scene</text>
<text text-anchor="middle" x="4578.5" y="-63.5" font-family="Helvetica,sans-Serif" font-size="10.00">MgrFv.s</text>
</a>
</g>
</g>
<!-- Node1&#45;&gt;Node27 -->
<g id="edge27" class="edge">
<title>Node1&#45;&gt;Node27</title>
<path fill="none" stroke="midnightblue" d="M3322.19,-141.88C3556.96,-138.35 4237.9,-126.03 4481.65,-98.09"/>
<polygon fill="midnightblue" stroke="midnightblue" points="4482.36,-101.53 4491.88,-96.87 4481.54,-94.58 4482.36,-101.53"/>
</g>
<!-- Node28 -->
<g id="node28" class="node">
<title>Node28</title>
<g id="a_node28"><a xlink:title=" ">
<polygon fill="white" stroke="#bfbfbf" points="4683,-56.5 4683,-97.5 4856,-97.5 4856,-56.5 4683,-56.5"/>
<text text-anchor="start" x="4691" y="-85.5" font-family="Helvetica,sans-Serif" font-size="10.00">asm/Z2AudioLib/Z2SceneMgr</text>
<text text-anchor="start" x="4691" y="-74.5" font-family="Helvetica,sans-Serif" font-size="10.00">/_load1stWaveInner_1__10Z2Scene</text>
<text text-anchor="middle" x="4769.5" y="-63.5" font-family="Helvetica,sans-Serif" font-size="10.00">MgrFv.s</text>
</a>
</g>
</g>
<!-- Node1&#45;&gt;Node28 -->
<g id="edge28" class="edge">
<title>Node1&#45;&gt;Node28</title>
<path fill="none" stroke="midnightblue" d="M3322.28,-142.34C3581.24,-139.91 4389.69,-130.02 4672.64,-98.09"/>
<polygon fill="midnightblue" stroke="midnightblue" points="4673.36,-101.53 4682.88,-96.89 4672.55,-94.57 4673.36,-101.53"/>
</g>
<!-- Node29 -->
<g id="node29" class="node">
<title>Node29</title>
<g id="a_node29"><a xlink:title=" ">
<polygon fill="white" stroke="#bfbfbf" points="4874,-56.5 4874,-97.5 5047,-97.5 5047,-56.5 4874,-56.5"/>
<text text-anchor="start" x="4882" y="-85.5" font-family="Helvetica,sans-Serif" font-size="10.00">asm/Z2AudioLib/Z2SceneMgr</text>
<text text-anchor="start" x="4882" y="-74.5" font-family="Helvetica,sans-Serif" font-size="10.00">/_load1stWaveInner_2__10Z2Scene</text>
<text text-anchor="middle" x="4960.5" y="-63.5" font-family="Helvetica,sans-Serif" font-size="10.00">MgrFv.s</text>
</a>
</g>
</g>
<!-- Node1&#45;&gt;Node29 -->
<g id="edge29" class="edge">
<title>Node1&#45;&gt;Node29</title>
<path fill="none" stroke="midnightblue" d="M3322.42,-142.68C3604.07,-141.28 4541.33,-134.04 4863.61,-98.09"/>
<polygon fill="midnightblue" stroke="midnightblue" points="4864.35,-101.52 4873.88,-96.9 4863.55,-94.57 4864.35,-101.52"/>
</g>
<!-- Node30 -->
<g id="node30" class="node">
<title>Node30</title>
<g id="a_node30"><a xlink:title=" ">
<polygon fill="white" stroke="#bfbfbf" points="5065.5,-56.5 5065.5,-97.5 5247.5,-97.5 5247.5,-56.5 5065.5,-56.5"/>
<text text-anchor="start" x="5073.5" y="-85.5" font-family="Helvetica,sans-Serif" font-size="10.00">asm/Z2AudioLib/Z2SceneMgr</text>
<text text-anchor="start" x="5073.5" y="-74.5" font-family="Helvetica,sans-Serif" font-size="10.00">/check1stDynamicWave__10Z2Scene</text>
<text text-anchor="middle" x="5156.5" y="-63.5" font-family="Helvetica,sans-Serif" font-size="10.00">MgrFv.s</text>
</a>
</g>
</g>
<!-- Node1&#45;&gt;Node30 -->
<g id="edge30" class="edge">
<title>Node1&#45;&gt;Node30</title>
<path fill="none" stroke="midnightblue" d="M3322,-142.85C3624.39,-142.01 4693.11,-136.4 5055.33,-98"/>
<polygon fill="midnightblue" stroke="midnightblue" points="5055.75,-101.47 5065.32,-96.91 5055,-94.51 5055.75,-101.47"/>
</g>
<!-- Node31 -->
<g id="node31" class="node">
<title>Node31</title>
<g id="a_node31"><a xlink:title=" ">
<polygon fill="white" stroke="#bfbfbf" points="5265.5,-56.5 5265.5,-97.5 5441.5,-97.5 5441.5,-56.5 5265.5,-56.5"/>
<text text-anchor="start" x="5273.5" y="-85.5" font-family="Helvetica,sans-Serif" font-size="10.00">asm/Z2AudioLib/Z2SceneMgr</text>
<text text-anchor="start" x="5273.5" y="-74.5" font-family="Helvetica,sans-Serif" font-size="10.00">/load2ndDynamicWave__10Z2Scene</text>
<text text-anchor="middle" x="5353.5" y="-63.5" font-family="Helvetica,sans-Serif" font-size="10.00">MgrFv.s</text>
</a>
</g>
</g>
<!-- Node1&#45;&gt;Node31 -->
<g id="edge31" class="edge">
<title>Node1&#45;&gt;Node31</title>
<path fill="none" stroke="midnightblue" d="M3322.1,-143.15C3645.67,-143.44 4851.83,-141.59 5255.36,-97.99"/>
<polygon fill="midnightblue" stroke="midnightblue" points="5255.77,-101.47 5265.32,-96.89 5255,-94.51 5255.77,-101.47"/>
</g>
<!-- Node32 -->
<g id="node32" class="node">
<title>Node32</title>
<g id="a_node32"><a xlink:title=" ">
<polygon fill="white" stroke="#bfbfbf" points="5459.5,-62 5459.5,-92 5641.5,-92 5641.5,-62 5459.5,-62"/>
<text text-anchor="start" x="5467.5" y="-80" font-family="Helvetica,sans-Serif" font-size="10.00">asm/Z2AudioLib/Z2SceneMgr</text>
<text text-anchor="middle" x="5550.5" y="-69" font-family="Helvetica,sans-Serif" font-size="10.00">/sceneBgmStart__10Z2SceneMgrFv.s</text>
</a>
</g>
</g>
<!-- Node1&#45;&gt;Node32 -->
<g id="edge32" class="edge">
<title>Node1&#45;&gt;Node32</title>
<path fill="none" stroke="midnightblue" d="M3322.12,-143.27C3667.74,-144.13 5025.81,-144.42 5450.5,-98 5459.84,-96.98 5469.6,-95.52 5479.22,-93.85"/>
<polygon fill="midnightblue" stroke="midnightblue" points="5479.94,-97.28 5489.15,-92.05 5478.69,-90.39 5479.94,-97.28"/>
</g>
<!-- Node33 -->
<g id="node33" class="node">
<title>Node33</title>
<g id="a_node33"><a xlink:title=" ">
<polygon fill="white" stroke="#bfbfbf" points="5659.5,-62 5659.5,-92 5847.5,-92 5847.5,-62 5659.5,-62"/>
<text text-anchor="start" x="5667.5" y="-80" font-family="Helvetica,sans-Serif" font-size="10.00">asm/Z2AudioLib/Z2SceneMgr</text>
<text text-anchor="middle" x="5753.5" y="-69" font-family="Helvetica,sans-Serif" font-size="10.00">/loadStaticWaves__10Z2SceneMgrFv.s</text>
</a>
</g>
</g>
<!-- Node1&#45;&gt;Node33 -->
<g id="edge33" class="edge">
<title>Node1&#45;&gt;Node33</title>
<path fill="none" stroke="midnightblue" d="M3322.25,-143.37C3687.13,-144.75 5184.2,-147.25 5650.5,-98 5660.28,-96.97 5670.52,-95.48 5680.59,-93.78"/>
<polygon fill="midnightblue" stroke="midnightblue" points="5681.34,-97.2 5690.57,-92.01 5680.12,-90.3 5681.34,-97.2"/>
</g>
<!-- Node34 -->
<g id="node34" class="node">
<title>Node34</title>
<g id="a_node34"><a xlink:title=" ">
<polygon fill="white" stroke="#bfbfbf" points="5865.5,-62 5865.5,-92 6045.5,-92 6045.5,-62 5865.5,-62"/>
<text text-anchor="start" x="5873.5" y="-80" font-family="Helvetica,sans-Serif" font-size="10.00">asm/Z2AudioLib/Z2SceneMgr</text>
<text text-anchor="middle" x="5955.5" y="-69" font-family="Helvetica,sans-Serif" font-size="10.00">/eraseSeWave__10Z2SceneMgrFUl.s</text>
</a>
</g>
</g>
<!-- Node1&#45;&gt;Node34 -->
<g id="edge34" class="edge">
<title>Node1&#45;&gt;Node34</title>
<path fill="none" stroke="midnightblue" d="M3322.31,-142.49C3735.2,-139.74 5599.84,-125.9 5856.5,-98 5865.82,-96.99 5875.56,-95.53 5885.14,-93.85"/>
<polygon fill="midnightblue" stroke="midnightblue" points="5885.84,-97.28 5895.04,-92.03 5884.57,-90.39 5885.84,-97.28"/>
</g>
<!-- Node35 -->
<g id="node35" class="node">
<title>Node35</title>
<g id="a_node35"><a xlink:title=" ">
<polygon fill="white" stroke="#bfbfbf" points="6063.5,-62 6063.5,-92 6251.5,-92 6251.5,-62 6063.5,-62"/>
<text text-anchor="start" x="6071.5" y="-80" font-family="Helvetica,sans-Serif" font-size="10.00">asm/Z2AudioLib/Z2SceneMgr</text>
<text text-anchor="middle" x="6157.5" y="-69" font-family="Helvetica,sans-Serif" font-size="10.00">/eraseBgmWave__10Z2SceneMgrFUl.s</text>
</a>
</g>
</g>
<!-- Node1&#45;&gt;Node35 -->
<g id="edge35" class="edge">
<title>Node1&#45;&gt;Node35</title>
<path fill="none" stroke="midnightblue" d="M3322.3,-142.56C3753.77,-140.07 5776.99,-126.94 6054.5,-98 6064.28,-96.98 6074.52,-95.5 6084.59,-93.8"/>
<polygon fill="midnightblue" stroke="midnightblue" points="6085.34,-97.22 6094.58,-92.04 6084.12,-90.33 6085.34,-97.22"/>
</g>
<!-- Node36 -->
<g id="node36" class="node">
<title>Node36</title>
<g id="a_node36"><a xlink:title=" ">
<polygon fill="white" stroke="#bfbfbf" points="6270,-56.5 6270,-97.5 6455,-97.5 6455,-56.5 6270,-56.5"/>
<text text-anchor="start" x="6278" y="-85.5" font-family="Helvetica,sans-Serif" font-size="10.00">asm/Z2AudioLib/Z2SceneMgr</text>
<text text-anchor="start" x="6278" y="-74.5" font-family="Helvetica,sans-Serif" font-size="10.00">/getWaveLoadStatus__10Z2SceneMgr</text>
<text text-anchor="middle" x="6362.5" y="-63.5" font-family="Helvetica,sans-Serif" font-size="10.00">FUlUl.s</text>
</a>
</g>
</g>
<!-- Node1&#45;&gt;Node36 -->
<g id="edge36" class="edge">
<title>Node1&#45;&gt;Node36</title>
<path fill="none" stroke="midnightblue" d="M3322.24,-142.66C3767.64,-140.67 5916.67,-129.53 6259.69,-97.9"/>
<polygon fill="midnightblue" stroke="midnightblue" points="6260.16,-101.37 6269.77,-96.91 6259.47,-94.41 6260.16,-101.37"/>
</g>
<!-- Node37 -->
<g id="node37" class="node">
<title>Node37</title>
<g id="a_node37"><a xlink:title=" ">
<polygon fill="white" stroke="#bfbfbf" points="6473.5,-62 6473.5,-92 6647.5,-92 6647.5,-62 6473.5,-62"/>
<text text-anchor="start" x="6481.5" y="-80" font-family="Helvetica,sans-Serif" font-size="10.00">asm/Z2AudioLib/Z2SceneMgr</text>
<text text-anchor="middle" x="6560.5" y="-69" font-family="Helvetica,sans-Serif" font-size="10.00">/loadSeWave__10Z2SceneMgrFUl.s</text>
</a>
</g>
</g>
<!-- Node1&#45;&gt;Node37 -->
<g id="edge37" class="edge">
<title>Node1&#45;&gt;Node37</title>
<path fill="none" stroke="midnightblue" d="M3322.28,-142.8C3790.3,-141.5 6144.14,-133.28 6464.5,-98 6473.51,-97.01 6482.92,-95.56 6492.19,-93.9"/>
<polygon fill="midnightblue" stroke="midnightblue" points="6492.97,-97.31 6502.15,-92.01 6491.67,-90.43 6492.97,-97.31"/>
</g>
<!-- Node38 -->
<g id="node38" class="node">
<title>Node38</title>
<g id="a_node38"><a xlink:title=" ">
<polygon fill="white" stroke="#bfbfbf" points="6665.5,-62 6665.5,-92 6847.5,-92 6847.5,-62 6665.5,-62"/>
<text text-anchor="start" x="6673.5" y="-80" font-family="Helvetica,sans-Serif" font-size="10.00">asm/Z2AudioLib/Z2SceneMgr</text>
<text text-anchor="middle" x="6756.5" y="-69" font-family="Helvetica,sans-Serif" font-size="10.00">/loadBgmWave__10Z2SceneMgrFUl.s</text>
</a>
</g>
</g>
<!-- Node1&#45;&gt;Node38 -->
<g id="edge38" class="edge">
<title>Node1&#45;&gt;Node38</title>
<path fill="none" stroke="midnightblue" d="M3322.31,-142.83C3806.7,-141.68 6315.79,-134 6656.5,-98 6665.97,-97 6675.88,-95.53 6685.63,-93.85"/>
<polygon fill="midnightblue" stroke="midnightblue" points="6686.48,-97.25 6695.69,-92.02 6685.23,-90.36 6686.48,-97.25"/>
</g>
<!-- Node4&#45;&gt;Node3 -->
<g id="edge4" class="edge">
<title>Node4&#45;&gt;Node3</title>
<path fill="none" stroke="midnightblue" d="M177.16,-67.23C169.9,-57.2 157.84,-40.51 148.74,-27.92"/>
<polygon fill="midnightblue" stroke="midnightblue" points="151.43,-25.68 142.74,-19.63 145.76,-29.78 151.43,-25.68"/>
</g>
</g>
</svg>
