<?xml version="1.0" encoding="UTF-8" standalone="no"?>
<!DOCTYPE svg PUBLIC "-//W3C//DTD SVG 1.1//EN"
 "http://www.w3.org/Graphics/SVG/1.1/DTD/svg11.dtd">
<!-- Generated by graphviz version 2.47.0 (20210316.2052)
 -->
<!-- Title: libs/Z2AudioLib/Z2SoundObjMgr.cpp Pages: 1 -->
<!--zoomable 173 -->
<svg id="main" version="1.1" xmlns="http://www.w3.org/2000/svg" xmlns:xlink="http://www.w3.org/1999/xlink" xml:space="preserve" onload="init(evt)">
<style type="text/css"><![CDATA[
.edge:hover path { stroke: red; }
.edge:hover polygon { stroke: red; fill: red; }
]]></style>
<script type="text/javascript"><![CDATA[
var edges = document.getElementsByTagName('g');
if (edges && edges.length) {
  for (var i=0;i<edges.length;i++) {
    if (edges[i].id.substr(0,4)=='edge') {
      edges[i].setAttribute('class','edge');
    }
  }
}
]]></script>
        <defs>
                <circle id="rim" cx="0" cy="0" r="7"/>
                <circle id="rim2" cx="0" cy="0" r="3.5"/>
                <g id="zoomPlus">
                        <use xlink:href="#rim" fill="#404040">
                                <set attributeName="fill" to="#808080" begin="zoomplus.mouseover" end="zoomplus.mouseout"/>
                        </use>
                        <path d="M-4,0h8M0,-4v8" fill="none" stroke="white" stroke-width="1.5" pointer-events="none"/>
                </g>
                <g id="zoomMin">
                        <use xlink:href="#rim" fill="#404040">
                                <set attributeName="fill" to="#808080" begin="zoomminus.mouseover" end="zoomminus.mouseout"/>
                        </use>
                        <path d="M-4,0h8" fill="none" stroke="white" stroke-width="1.5" pointer-events="none"/>
                </g>
                <g id="dirArrow">
                        <path fill="none" stroke="white" stroke-width="1.5" d="M0,-3.0v7 M-2.5,-0.5L0,-3.0L2.5,-0.5"/>
                </g>
               <g id="resetDef">
                       <use xlink:href="#rim2" fill="#404040">
                               <set attributeName="fill" to="#808080" begin="reset.mouseover" end="reset.mouseout"/>
                       </use>
               </g>
        </defs>

<script type="text/javascript">
var viewWidth = 2262;
var viewHeight = 173;
var sectionId = 'dynsection-0';
</script>
<script xlink:href="svgpan.js"/>
<svg id="graph" class="graph">
<g id="viewport">
<title>libs/Z2AudioLib/Z2SoundObjMgr.cpp</title>
<polygon fill="white" stroke="transparent" points="-4,4 -4,-169 2258,-169 2258,4 -4,4"/>
<!-- Node1 -->
<g id="node1" class="node">
<title>Node1</title>
<g id="a_node1"><a xlink:title=" ">
<polygon fill="#bfbfbf" stroke="black" points="955,-134.5 955,-164.5 1096,-164.5 1096,-134.5 955,-134.5"/>
<text text-anchor="start" x="963" y="-152.5" font-family="Helvetica,sans-Serif" font-size="10.00">libs/Z2AudioLib/Z2SoundObj</text>
<text text-anchor="middle" x="1025.5" y="-141.5" font-family="Helvetica,sans-Serif" font-size="10.00">Mgr.cpp</text>
</a>
</g>
</g>
<!-- Node2 -->
<g id="node2" class="node">
<title>Node2</title>
<g id="a_node2"><a xlink:href="Z2SoundObjMgr_8h.html" target="_top" xlink:title=" ">
<polygon fill="white" stroke="black" points="0,-67.5 0,-86.5 147,-86.5 147,-67.5 0,-67.5"/>
<text text-anchor="middle" x="73.5" y="-74.5" font-family="Helvetica,sans-Serif" font-size="10.00">Z2AudioLib/Z2SoundObjMgr.h</text>
</a>
</g>
</g>
<!-- Node1&#45;&gt;Node2 -->
<g id="edge1" class="edge">
<title>Node1&#45;&gt;Node2</title>
<path fill="none" stroke="midnightblue" d="M954.83,-148.31C806.88,-147.04 454.01,-139.5 161.5,-98 146.25,-95.84 129.73,-92.39 115.17,-88.95"/>
<polygon fill="midnightblue" stroke="midnightblue" points="115.99,-85.55 105.45,-86.6 114.34,-92.35 115.99,-85.55"/>
</g>
<!-- Node3 -->
<g id="node3" class="node">
<title>Node3</title>
<g id="a_node3"><a xlink:href="types_8h.html" target="_top" xlink:title=" ">
<polygon fill="white" stroke="black" points="84,-0.5 84,-19.5 165,-19.5 165,-0.5 84,-0.5"/>
<text text-anchor="middle" x="124.5" y="-7.5" font-family="Helvetica,sans-Serif" font-size="10.00">dolphin/types.h</text>
</a>
</g>
</g>
<!-- Node1&#45;&gt;Node3 -->
<g id="edge4" class="edge">
<title>Node1&#45;&gt;Node3</title>
<path fill="none" stroke="midnightblue" d="M954.93,-147.43C766.66,-144.13 262.19,-132.17 195.5,-98 187.65,-93.98 155.45,-52.2 137.22,-28.03"/>
<polygon fill="midnightblue" stroke="midnightblue" points="139.81,-25.65 131,-19.75 134.21,-29.85 139.81,-25.65"/>
</g>
<!-- Node4 -->
<g id="node4" class="node">
<title>Node4</title>
<g id="a_node4"><a xlink:href="dol2asm_8h.html" target="_top" xlink:title=" ">
<polygon fill="white" stroke="black" points="204,-67.5 204,-86.5 265,-86.5 265,-67.5 204,-67.5"/>
<text text-anchor="middle" x="234.5" y="-74.5" font-family="Helvetica,sans-Serif" font-size="10.00">dol2asm.h</text>
</a>
</g>
</g>
<!-- Node1&#45;&gt;Node4 -->
<g id="edge3" class="edge">
<title>Node1&#45;&gt;Node4</title>
<path fill="none" stroke="midnightblue" d="M954.85,-147.3C793.38,-143.98 401.47,-132.51 274.5,-98 268.79,-96.45 262.93,-94.05 257.52,-91.44"/>
<polygon fill="midnightblue" stroke="midnightblue" points="258.87,-88.2 248.39,-86.66 255.63,-94.4 258.87,-88.2"/>
</g>
<!-- Node5 -->
<g id="node5" class="node">
<title>Node5</title>
<g id="a_node5"><a xlink:title=" ">
<polygon fill="white" stroke="#bfbfbf" points="283,-62 283,-92 448,-92 448,-62 283,-62"/>
<text text-anchor="start" x="291" y="-80" font-family="Helvetica,sans-Serif" font-size="10.00">asm/Z2AudioLib/Z2SoundObj</text>
<text text-anchor="middle" x="365.5" y="-69" font-family="Helvetica,sans-Serif" font-size="10.00">Mgr/__ct__13Z2SoundObjMgrFv.s</text>
</a>
</g>
</g>
<!-- Node1&#45;&gt;Node5 -->
<g id="edge5" class="edge">
<title>Node1&#45;&gt;Node5</title>
<path fill="none" stroke="midnightblue" d="M954.76,-145.07C846.98,-139.19 635.38,-125.13 457.5,-98 450.08,-96.87 442.37,-95.5 434.71,-94.02"/>
<polygon fill="midnightblue" stroke="midnightblue" points="435.18,-90.54 424.68,-92.01 433.8,-97.41 435.18,-90.54"/>
</g>
<!-- Node6 -->
<g id="node6" class="node">
<title>Node6</title>
<g id="a_node6"><a xlink:title=" ">
<polygon fill="white" stroke="#bfbfbf" points="466,-56.5 466,-97.5 631,-97.5 631,-56.5 466,-56.5"/>
<text text-anchor="start" x="474" y="-85.5" font-family="Helvetica,sans-Serif" font-size="10.00">asm/Z2AudioLib/Z2SoundObj</text>
<text text-anchor="start" x="474" y="-74.5" font-family="Helvetica,sans-Serif" font-size="10.00">Mgr/setForceBattleArea</text>
<text text-anchor="middle" x="548.5" y="-63.5" font-family="Helvetica,sans-Serif" font-size="10.00">__13Z2SoundObjMgrFbUsUsUs.s</text>
</a>
</g>
</g>
<!-- Node1&#45;&gt;Node6 -->
<g id="edge6" class="edge">
<title>Node1&#45;&gt;Node6</title>
<path fill="none" stroke="midnightblue" d="M954.98,-141.04C879.76,-132.68 756.95,-117.87 641.28,-98.06"/>
<polygon fill="midnightblue" stroke="midnightblue" points="641.64,-94.57 631.19,-96.32 640.45,-101.47 641.64,-94.57"/>
</g>
<!-- Node7 -->
<g id="node7" class="node">
<title>Node7</title>
<g id="a_node7"><a xlink:title=" ">
<polygon fill="white" stroke="#bfbfbf" points="649,-62 649,-92 854,-92 854,-62 649,-62"/>
<text text-anchor="start" x="657" y="-80" font-family="Helvetica,sans-Serif" font-size="10.00">asm/Z2AudioLib/Z2SoundObj</text>
<text text-anchor="middle" x="751.5" y="-69" font-family="Helvetica,sans-Serif" font-size="10.00">Mgr/searchEnemy__13Z2SoundObjMgrFv.s</text>
</a>
</g>
</g>
<!-- Node1&#45;&gt;Node7 -->
<g id="edge7" class="edge">
<title>Node1&#45;&gt;Node7</title>
<path fill="none" stroke="midnightblue" d="M971.04,-134.49C926.45,-123.02 863.27,-106.76 816.13,-94.63"/>
<polygon fill="midnightblue" stroke="midnightblue" points="816.88,-91.21 806.33,-92.11 815.14,-97.99 816.88,-91.21"/>
</g>
<!-- Node8 -->
<g id="node8" class="node">
<title>Node8</title>
<g id="a_node8"><a xlink:title=" ">
<polygon fill="white" stroke="#bfbfbf" points="872,-56.5 872,-97.5 1017,-97.5 1017,-56.5 872,-56.5"/>
<text text-anchor="start" x="880" y="-85.5" font-family="Helvetica,sans-Serif" font-size="10.00">asm/Z2AudioLib/Z2SoundObj</text>
<text text-anchor="start" x="880" y="-74.5" font-family="Helvetica,sans-Serif" font-size="10.00">Mgr/setGhostEnemyState</text>
<text text-anchor="middle" x="944.5" y="-63.5" font-family="Helvetica,sans-Serif" font-size="10.00">__13Z2SoundObjMgrFUc.s</text>
</a>
</g>
</g>
<!-- Node1&#45;&gt;Node8 -->
<g id="edge8" class="edge">
<title>Node1&#45;&gt;Node8</title>
<path fill="none" stroke="midnightblue" d="M1009.11,-134.23C999.27,-125.67 986.44,-114.5 974.81,-104.38"/>
<polygon fill="midnightblue" stroke="midnightblue" points="976.85,-101.51 967.01,-97.59 972.25,-106.79 976.85,-101.51"/>
</g>
<!-- Node9 -->
<g id="node9" class="node">
<title>Node9</title>
<g id="a_node9"><a xlink:title=" ">
<polygon fill="white" stroke="#bfbfbf" points="1035,-62 1035,-92 1180,-92 1180,-62 1035,-62"/>
<text text-anchor="start" x="1043" y="-80" font-family="Helvetica,sans-Serif" font-size="10.00">asm/Z2AudioLib/Z2SoundObj</text>
<text text-anchor="middle" x="1107.5" y="-69" font-family="Helvetica,sans-Serif" font-size="10.00">Mgr/func_802C0074.s</text>
</a>
</g>
</g>
<!-- Node1&#45;&gt;Node9 -->
<g id="edge9" class="edge">
<title>Node1&#45;&gt;Node9</title>
<path fill="none" stroke="midnightblue" d="M1042.09,-134.23C1053.95,-124.04 1070.09,-110.16 1083.38,-98.74"/>
<polygon fill="midnightblue" stroke="midnightblue" points="1085.91,-101.18 1091.21,-92 1081.35,-95.87 1085.91,-101.18"/>
</g>
<!-- Node10 -->
<g id="node10" class="node">
<title>Node10</title>
<g id="a_node10"><a xlink:title=" ">
<polygon fill="white" stroke="#bfbfbf" points="1198.5,-56.5 1198.5,-97.5 1362.5,-97.5 1362.5,-56.5 1198.5,-56.5"/>
<text text-anchor="start" x="1206.5" y="-85.5" font-family="Helvetica,sans-Serif" font-size="10.00">asm/Z2AudioLib/Z2SoundObj</text>
<text text-anchor="start" x="1206.5" y="-74.5" font-family="Helvetica,sans-Serif" font-size="10.00">Mgr/setBattleInit__13Z2SoundObj</text>
<text text-anchor="middle" x="1280.5" y="-63.5" font-family="Helvetica,sans-Serif" font-size="10.00">MgrFv.s</text>
</a>
</g>
</g>
<!-- Node1&#45;&gt;Node10 -->
<g id="edge10" class="edge">
<title>Node1&#45;&gt;Node10</title>
<path fill="none" stroke="midnightblue" d="M1076.18,-134.49C1111.47,-124.73 1159.28,-111.51 1199.78,-100.32"/>
<polygon fill="midnightblue" stroke="midnightblue" points="1200.93,-103.63 1209.64,-97.59 1199.06,-96.88 1200.93,-103.63"/>
</g>
<!-- Node11 -->
<g id="node11" class="node">
<title>Node11</title>
<g id="a_node11"><a xlink:title=" ">
<polygon fill="white" stroke="#bfbfbf" points="1381,-56.5 1381,-97.5 1526,-97.5 1526,-56.5 1381,-56.5"/>
<text text-anchor="start" x="1389" y="-85.5" font-family="Helvetica,sans-Serif" font-size="10.00">asm/Z2AudioLib/Z2SoundObj</text>
<text text-anchor="start" x="1389" y="-74.5" font-family="Helvetica,sans-Serif" font-size="10.00">Mgr/checkBattleFinish_</text>
<text text-anchor="middle" x="1453.5" y="-63.5" font-family="Helvetica,sans-Serif" font-size="10.00">_13Z2SoundObjMgrFv.s</text>
</a>
</g>
</g>
<!-- Node1&#45;&gt;Node11 -->
<g id="edge11" class="edge">
<title>Node1&#45;&gt;Node11</title>
<path fill="none" stroke="midnightblue" d="M1096.07,-140.18C1163.97,-131.73 1269.67,-117.39 1370.63,-98.08"/>
<polygon fill="midnightblue" stroke="midnightblue" points="1371.55,-101.47 1380.7,-96.13 1370.22,-94.59 1371.55,-101.47"/>
</g>
<!-- Node12 -->
<g id="node12" class="node">
<title>Node12</title>
<g id="a_node12"><a xlink:title=" ">
<polygon fill="white" stroke="#bfbfbf" points="1544.5,-56.5 1544.5,-97.5 1722.5,-97.5 1722.5,-56.5 1544.5,-56.5"/>
<text text-anchor="start" x="1552.5" y="-85.5" font-family="Helvetica,sans-Serif" font-size="10.00">asm/Z2AudioLib/Z2SoundObj</text>
<text text-anchor="start" x="1552.5" y="-74.5" font-family="Helvetica,sans-Serif" font-size="10.00">Mgr/deleteEnemyAll__13Z2SoundObj</text>
<text text-anchor="middle" x="1633.5" y="-63.5" font-family="Helvetica,sans-Serif" font-size="10.00">MgrFv.s</text>
</a>
</g>
</g>
<!-- Node1&#45;&gt;Node12 -->
<g id="edge12" class="edge">
<title>Node1&#45;&gt;Node12</title>
<path fill="none" stroke="midnightblue" d="M1096.32,-143.79C1193.05,-136.85 1372.03,-122.19 1534.21,-98.12"/>
<polygon fill="midnightblue" stroke="midnightblue" points="1535,-101.54 1544.37,-96.59 1533.96,-94.62 1535,-101.54"/>
</g>
<!-- Node13 -->
<g id="node13" class="node">
<title>Node13</title>
<g id="a_node13"><a xlink:title=" ">
<polygon fill="white" stroke="#bfbfbf" points="1741,-62 1741,-92 1886,-92 1886,-62 1741,-62"/>
<text text-anchor="start" x="1749" y="-80" font-family="Helvetica,sans-Serif" font-size="10.00">asm/Z2AudioLib/Z2SoundObj</text>
<text text-anchor="middle" x="1813.5" y="-69" font-family="Helvetica,sans-Serif" font-size="10.00">Mgr/func_802C0190.s</text>
</a>
</g>
</g>
<!-- Node1&#45;&gt;Node13 -->
<g id="edge13" class="edge">
<title>Node1&#45;&gt;Node13</title>
<path fill="none" stroke="midnightblue" d="M1096.09,-147.36C1223.67,-144.44 1500.83,-134.12 1731.5,-98 1738.11,-96.96 1744.98,-95.66 1751.8,-94.22"/>
<polygon fill="midnightblue" stroke="midnightblue" points="1752.7,-97.6 1761.71,-92.02 1751.19,-90.77 1752.7,-97.6"/>
</g>
<!-- Node14 -->
<g id="node14" class="node">
<title>Node14</title>
<g id="a_node14"><a xlink:title=" ">
<polygon fill="white" stroke="#bfbfbf" points="1904,-56.5 1904,-97.5 2067,-97.5 2067,-56.5 1904,-56.5"/>
<text text-anchor="start" x="1912" y="-85.5" font-family="Helvetica,sans-Serif" font-size="10.00">asm/Z2AudioLib/Z2SoundObj</text>
<text text-anchor="start" x="1912" y="-74.5" font-family="Helvetica,sans-Serif" font-size="10.00">Mgr/isTwilightBattle__13Z2Sound</text>
<text text-anchor="middle" x="1985.5" y="-63.5" font-family="Helvetica,sans-Serif" font-size="10.00">ObjMgrFv.s</text>
</a>
</g>
</g>
<!-- Node1&#45;&gt;Node14 -->
<g id="edge14" class="edge">
<title>Node1&#45;&gt;Node14</title>
<path fill="none" stroke="midnightblue" d="M1096.07,-148.24C1243.02,-146.85 1592.52,-139.24 1893.45,-98.18"/>
<polygon fill="midnightblue" stroke="midnightblue" points="1894.26,-101.6 1903.68,-96.77 1893.3,-94.67 1894.26,-101.6"/>
</g>
<!-- Node15 -->
<g id="node15" class="node">
<title>Node15</title>
<g id="a_node15"><a xlink:title=" ">
<polygon fill="white" stroke="#bfbfbf" points="2085,-62 2085,-92 2254,-92 2254,-62 2085,-62"/>
<text text-anchor="start" x="2093" y="-80" font-family="Helvetica,sans-Serif" font-size="10.00">asm/Z2AudioLib/Z2SoundObj</text>
<text text-anchor="middle" x="2169.5" y="-69" font-family="Helvetica,sans-Serif" font-size="10.00">Mgr/__sinit_Z2SoundObjMgr_cpp.s</text>
</a>
</g>
</g>
<!-- Node1&#45;&gt;Node15 -->
<g id="edge15" class="edge">
<title>Node1&#45;&gt;Node15</title>
<path fill="none" stroke="midnightblue" d="M1096.27,-149.09C1266.12,-149.62 1709.93,-145.9 2076.5,-98 2084.53,-96.95 2092.9,-95.57 2101.18,-94.02"/>
<polygon fill="midnightblue" stroke="midnightblue" points="2102.07,-97.41 2111.21,-92.06 2100.73,-90.54 2102.07,-97.41"/>
</g>
<!-- Node2&#45;&gt;Node3 -->
<g id="edge2" class="edge">
<title>Node2&#45;&gt;Node3</title>
<path fill="none" stroke="midnightblue" d="M80.38,-67.23C88.33,-57.1 101.6,-40.19 111.51,-27.56"/>
<polygon fill="midnightblue" stroke="midnightblue" points="114.31,-29.66 117.73,-19.63 108.8,-25.33 114.31,-29.66"/>
</g>
</g>
</svg>
        <g id="navigator" transform="translate(0 0)" fill="#404254">
                <rect fill="#f2f5e9" fill-opacity="0.5" stroke="#606060" stroke-width=".5" x="0" y="0" width="60" height="60"/>
                <use id="zoomplus" xlink:href="#zoomPlus" x="17" y="9" onmousedown="handleZoom(evt,'in')"/>
                <use id="zoomminus" xlink:href="#zoomMin" x="42" y="9" onmousedown="handleZoom(evt,'out')"/>
                <use id="reset" xlink:href="#resetDef" x="30" y="36" onmousedown="handleReset()"/>
                <g id="arrowUp" xlink:href="#dirArrow" transform="translate(30 24)" onmousedown="handlePan(0,-1)">
                  <use xlink:href="#rim" fill="#404040">
                        <set attributeName="fill" to="#808080" begin="arrowUp.mouseover" end="arrowUp.mouseout"/>
                  </use>
                  <path fill="none" stroke="white" stroke-width="1.5" d="M0,-3.0v7 M-2.5,-0.5L0,-3.0L2.5,-0.5"/>
                </g>
                <g id="arrowRight" xlink:href="#dirArrow" transform="rotate(90) translate(36 -43)" onmousedown="handlePan(1,0)">
                  <use xlink:href="#rim" fill="#404040">
                        <set attributeName="fill" to="#808080" begin="arrowRight.mouseover" end="arrowRight.mouseout"/>
                  </use>
                  <path fill="none" stroke="white" stroke-width="1.5" d="M0,-3.0v7 M-2.5,-0.5L0,-3.0L2.5,-0.5"/>
                </g>
                <g id="arrowDown" xlink:href="#dirArrow" transform="rotate(180) translate(-30 -48)" onmousedown="handlePan(0,1)">
                  <use xlink:href="#rim" fill="#404040">
                        <set attributeName="fill" to="#808080" begin="arrowDown.mouseover" end="arrowDown.mouseout"/>
                  </use>
                  <path fill="none" stroke="white" stroke-width="1.5" d="M0,-3.0v7 M-2.5,-0.5L0,-3.0L2.5,-0.5"/>
                </g>
                <g id="arrowLeft" xlink:href="#dirArrow" transform="rotate(270) translate(-36 17)" onmousedown="handlePan(-1,0)">
                  <use xlink:href="#rim" fill="#404040">
                        <set attributeName="fill" to="#808080" begin="arrowLeft.mouseover" end="arrowLeft.mouseout"/>
                  </use>
                  <path fill="none" stroke="white" stroke-width="1.5" d="M0,-3.0v7 M-2.5,-0.5L0,-3.0L2.5,-0.5"/>
                </g>
        </g>
        <svg viewBox="0 0 15 15" width="100%" height="30px" preserveAspectRatio="xMaxYMin meet">
         <g id="arrow_out" transform="scale(0.3 0.3)">
          <a xlink:href="Z2SoundObjMgr_8cpp__incl_org.svg" target="_base">
           <rect id="button" ry="5" rx="5" y="6" x="6" height="38" width="38"
                fill="#f2f5e9" fill-opacity="0.5" stroke="#606060" stroke-width="1.0"/>
           <path id="arrow"
             d="M 11.500037,31.436501 C 11.940474,20.09759 22.043105,11.32322 32.158766,21.979434 L 37.068811,17.246167 C 37.068811,17.246167 37.088388,32 37.088388,32 L 22.160133,31.978069 C 22.160133,31.978069 26.997745,27.140456 26.997745,27.140456 C 18.528582,18.264221 13.291696,25.230495 11.500037,31.436501 z"
             style="fill:#404040;"/>
          </a>
         </g>
        </svg>
</svg>
