<?xml version="1.0" encoding="UTF-8" standalone="no"?>
<!DOCTYPE svg PUBLIC "-//W3C//DTD SVG 1.1//EN"
 "http://www.w3.org/Graphics/SVG/1.1/DTD/svg11.dtd">
<!-- Generated by graphviz version 2.47.0 (20210316.2052)
 -->
<!-- Title: libs/Z2AudioLib/Z2StatusMgr.cpp Pages: 1 -->
<!--zoomable 173 -->
<svg id="main" version="1.1" xmlns="http://www.w3.org/2000/svg" xmlns:xlink="http://www.w3.org/1999/xlink" xml:space="preserve" onload="init(evt)">
<style type="text/css"><![CDATA[
.edge:hover path { stroke: red; }
.edge:hover polygon { stroke: red; fill: red; }
]]></style>
<script type="text/javascript"><![CDATA[
var edges = document.getElementsByTagName('g');
if (edges && edges.length) {
  for (var i=0;i<edges.length;i++) {
    if (edges[i].id.substr(0,4)=='edge') {
      edges[i].setAttribute('class','edge');
    }
  }
}
]]></script>
        <defs>
                <circle id="rim" cx="0" cy="0" r="7"/>
                <circle id="rim2" cx="0" cy="0" r="3.5"/>
                <g id="zoomPlus">
                        <use xlink:href="#rim" fill="#404040">
                                <set attributeName="fill" to="#808080" begin="zoomplus.mouseover" end="zoomplus.mouseout"/>
                        </use>
                        <path d="M-4,0h8M0,-4v8" fill="none" stroke="white" stroke-width="1.5" pointer-events="none"/>
                </g>
                <g id="zoomMin">
                        <use xlink:href="#rim" fill="#404040">
                                <set attributeName="fill" to="#808080" begin="zoomminus.mouseover" end="zoomminus.mouseout"/>
                        </use>
                        <path d="M-4,0h8" fill="none" stroke="white" stroke-width="1.5" pointer-events="none"/>
                </g>
                <g id="dirArrow">
                        <path fill="none" stroke="white" stroke-width="1.5" d="M0,-3.0v7 M-2.5,-0.5L0,-3.0L2.5,-0.5"/>
                </g>
               <g id="resetDef">
                       <use xlink:href="#rim2" fill="#404040">
                               <set attributeName="fill" to="#808080" begin="reset.mouseover" end="reset.mouseout"/>
                       </use>
               </g>
        </defs>

<script type="text/javascript">
var viewWidth = 2797;
var viewHeight = 173;
var sectionId = 'dynsection-0';
</script>
<script xlink:href="svgpan.js"/>
<svg id="graph" class="graph">
<g id="viewport">
<title>libs/Z2AudioLib/Z2StatusMgr.cpp</title>
<polygon fill="white" stroke="transparent" points="-4,4 -4,-169 2793,-169 2793,4 -4,4"/>
<!-- Node1 -->
<g id="node1" class="node">
<title>Node1</title>
<g id="a_node1"><a xlink:title=" ">
<polygon fill="#bfbfbf" stroke="black" points="1137,-134.5 1137,-164.5 1264,-164.5 1264,-134.5 1137,-134.5"/>
<text text-anchor="start" x="1145" y="-152.5" font-family="Helvetica,sans-Serif" font-size="10.00">libs/Z2AudioLib/Z2Status</text>
<text text-anchor="middle" x="1200.5" y="-141.5" font-family="Helvetica,sans-Serif" font-size="10.00">Mgr.cpp</text>
</a>
</g>
</g>
<!-- Node2 -->
<g id="node2" class="node">
<title>Node2</title>
<g id="a_node2"><a xlink:href="Z2StatusMgr_8h.html" target="_top" xlink:title=" ">
<polygon fill="white" stroke="black" points="0,-67.5 0,-86.5 133,-86.5 133,-67.5 0,-67.5"/>
<text text-anchor="middle" x="66.5" y="-74.5" font-family="Helvetica,sans-Serif" font-size="10.00">Z2AudioLib/Z2StatusMgr.h</text>
</a>
</g>
</g>
<!-- Node1&#45;&gt;Node2 -->
<g id="edge1" class="edge">
<title>Node1&#45;&gt;Node2</title>
<path fill="none" stroke="midnightblue" d="M1136.99,-147.07C939.85,-142.38 340.15,-126.13 147.5,-98 133.45,-95.95 118.29,-92.54 104.92,-89.11"/>
<polygon fill="midnightblue" stroke="midnightblue" points="105.66,-85.68 95.1,-86.5 103.87,-92.45 105.66,-85.68"/>
</g>
<!-- Node3 -->
<g id="node3" class="node">
<title>Node3</title>
<g id="a_node3"><a xlink:href="types_8h.html" target="_top" xlink:title=" ">
<polygon fill="white" stroke="black" points="73,-0.5 73,-19.5 154,-19.5 154,-0.5 73,-0.5"/>
<text text-anchor="middle" x="113.5" y="-7.5" font-family="Helvetica,sans-Serif" font-size="10.00">dolphin/types.h</text>
</a>
</g>
</g>
<!-- Node1&#45;&gt;Node3 -->
<g id="edge4" class="edge">
<title>Node1&#45;&gt;Node3</title>
<path fill="none" stroke="midnightblue" d="M1136.96,-148.4C927.31,-147.66 266.02,-141.83 181.5,-98 166.39,-90.17 139.53,-51.35 124.49,-28.3"/>
<polygon fill="midnightblue" stroke="midnightblue" points="127.37,-26.3 119.01,-19.79 121.48,-30.09 127.37,-26.3"/>
</g>
<!-- Node4 -->
<g id="node4" class="node">
<title>Node4</title>
<g id="a_node4"><a xlink:href="dol2asm_8h.html" target="_top" xlink:title=" ">
<polygon fill="white" stroke="black" points="190,-67.5 190,-86.5 251,-86.5 251,-67.5 190,-67.5"/>
<text text-anchor="middle" x="220.5" y="-74.5" font-family="Helvetica,sans-Serif" font-size="10.00">dol2asm.h</text>
</a>
</g>
</g>
<!-- Node1&#45;&gt;Node4 -->
<g id="edge3" class="edge">
<title>Node1&#45;&gt;Node4</title>
<path fill="none" stroke="midnightblue" d="M1136.75,-148.45C953.28,-147.76 426.49,-141.92 260.5,-98 254.68,-96.46 248.72,-94.02 243.24,-91.37"/>
<polygon fill="midnightblue" stroke="midnightblue" points="244.49,-88.07 234.01,-86.5 241.23,-94.26 244.49,-88.07"/>
</g>
<!-- Node5 -->
<g id="node5" class="node">
<title>Node5</title>
<g id="a_node5"><a xlink:title=" ">
<polygon fill="white" stroke="#bfbfbf" points="269,-62 269,-92 416,-92 416,-62 269,-62"/>
<text text-anchor="start" x="277" y="-80" font-family="Helvetica,sans-Serif" font-size="10.00">asm/Z2AudioLib/Z2StatusMgr</text>
<text text-anchor="middle" x="342.5" y="-69" font-family="Helvetica,sans-Serif" font-size="10.00">/__ct__11Z2StatusMgrFv.s</text>
</a>
</g>
</g>
<!-- Node1&#45;&gt;Node5 -->
<g id="edge5" class="edge">
<title>Node1&#45;&gt;Node5</title>
<path fill="none" stroke="midnightblue" d="M1136.82,-148.03C1003.87,-146.25 687.44,-137.79 425.5,-98 418.8,-96.98 411.86,-95.69 404.96,-94.26"/>
<polygon fill="midnightblue" stroke="midnightblue" points="405.44,-90.78 394.92,-92.07 403.94,-97.62 405.44,-90.78"/>
</g>
<!-- Node6 -->
<g id="node6" class="node">
<title>Node6</title>
<g id="a_node6"><a xlink:title=" ">
<polygon fill="white" stroke="#bfbfbf" points="434,-62 434,-92 613,-92 613,-62 434,-62"/>
<text text-anchor="start" x="442" y="-80" font-family="Helvetica,sans-Serif" font-size="10.00">asm/Z2AudioLib/Z2StatusMgr</text>
<text text-anchor="middle" x="523.5" y="-69" font-family="Helvetica,sans-Serif" font-size="10.00">/heartGaugeOn__11Z2StatusMgrFv.s</text>
</a>
</g>
</g>
<!-- Node1&#45;&gt;Node6 -->
<g id="edge6" class="edge">
<title>Node1&#45;&gt;Node6</title>
<path fill="none" stroke="midnightblue" d="M1136.94,-145.28C1030.22,-139.36 808.44,-124.82 622.5,-98 614.33,-96.82 605.82,-95.4 597.36,-93.87"/>
<polygon fill="midnightblue" stroke="midnightblue" points="597.96,-90.42 587.49,-92.02 596.68,-97.3 597.96,-90.42"/>
</g>
<!-- Node7 -->
<g id="node7" class="node">
<title>Node7</title>
<g id="a_node7"><a xlink:title=" ">
<polygon fill="white" stroke="#bfbfbf" points="631,-56.5 631,-97.5 778,-97.5 778,-56.5 631,-56.5"/>
<text text-anchor="start" x="639" y="-85.5" font-family="Helvetica,sans-Serif" font-size="10.00">asm/Z2AudioLib/Z2StatusMgr</text>
<text text-anchor="start" x="639" y="-74.5" font-family="Helvetica,sans-Serif" font-size="10.00">/processHeartGaugeSound</text>
<text text-anchor="middle" x="704.5" y="-63.5" font-family="Helvetica,sans-Serif" font-size="10.00">__11Z2StatusMgrFv.s</text>
</a>
</g>
</g>
<!-- Node1&#45;&gt;Node7 -->
<g id="edge7" class="edge">
<title>Node1&#45;&gt;Node7</title>
<path fill="none" stroke="midnightblue" d="M1136.84,-143C1057.49,-135.64 917.62,-120.99 788.26,-98.03"/>
<polygon fill="midnightblue" stroke="midnightblue" points="788.63,-94.54 778.17,-96.22 787.4,-101.43 788.63,-94.54"/>
</g>
<!-- Node8 -->
<g id="node8" class="node">
<title>Node8</title>
<g id="a_node8"><a xlink:title=" ">
<polygon fill="white" stroke="#bfbfbf" points="796,-62 796,-92 943,-92 943,-62 796,-62"/>
<text text-anchor="start" x="804" y="-80" font-family="Helvetica,sans-Serif" font-size="10.00">asm/Z2AudioLib/Z2StatusMgr</text>
<text text-anchor="middle" x="869.5" y="-69" font-family="Helvetica,sans-Serif" font-size="10.00">/talkIn__11Z2StatusMgrFv.s</text>
</a>
</g>
</g>
<!-- Node1&#45;&gt;Node8 -->
<g id="edge8" class="edge">
<title>Node1&#45;&gt;Node8</title>
<path fill="none" stroke="midnightblue" d="M1136.91,-136.2C1086.73,-126.34 1015.02,-111.89 952.5,-98 947.25,-96.83 941.83,-95.6 936.38,-94.33"/>
<polygon fill="midnightblue" stroke="midnightblue" points="937.12,-90.91 926.59,-92.04 935.53,-97.73 937.12,-90.91"/>
</g>
<!-- Node9 -->
<g id="node9" class="node">
<title>Node9</title>
<g id="a_node9"><a xlink:title=" ">
<polygon fill="white" stroke="#bfbfbf" points="961,-62 961,-92 1108,-92 1108,-62 961,-62"/>
<text text-anchor="start" x="969" y="-80" font-family="Helvetica,sans-Serif" font-size="10.00">asm/Z2AudioLib/Z2StatusMgr</text>
<text text-anchor="middle" x="1034.5" y="-69" font-family="Helvetica,sans-Serif" font-size="10.00">/talkOut__11Z2StatusMgrFv.s</text>
</a>
</g>
</g>
<!-- Node1&#45;&gt;Node9 -->
<g id="edge9" class="edge">
<title>Node1&#45;&gt;Node9</title>
<path fill="none" stroke="midnightblue" d="M1167.31,-134.4C1141.41,-123.4 1105.24,-108.04 1077.19,-96.13"/>
<polygon fill="midnightblue" stroke="midnightblue" points="1078.21,-92.76 1067.64,-92.07 1075.47,-99.2 1078.21,-92.76"/>
</g>
<!-- Node10 -->
<g id="node10" class="node">
<title>Node10</title>
<g id="a_node10"><a xlink:title=" ">
<polygon fill="white" stroke="#bfbfbf" points="1126.5,-62 1126.5,-92 1274.5,-92 1274.5,-62 1126.5,-62"/>
<text text-anchor="start" x="1134.5" y="-80" font-family="Helvetica,sans-Serif" font-size="10.00">asm/Z2AudioLib/Z2StatusMgr</text>
<text text-anchor="middle" x="1200.5" y="-69" font-family="Helvetica,sans-Serif" font-size="10.00">/menuIn__11Z2StatusMgrFv.s</text>
</a>
</g>
</g>
<!-- Node1&#45;&gt;Node10 -->
<g id="edge10" class="edge">
<title>Node1&#45;&gt;Node10</title>
<path fill="none" stroke="midnightblue" d="M1200.5,-134.23C1200.5,-125.16 1200.5,-113.16 1200.5,-102.58"/>
<polygon fill="midnightblue" stroke="midnightblue" points="1204,-102.25 1200.5,-92.25 1197,-102.25 1204,-102.25"/>
</g>
<!-- Node11 -->
<g id="node11" class="node">
<title>Node11</title>
<g id="a_node11"><a xlink:title=" ">
<polygon fill="white" stroke="#bfbfbf" points="1293,-62 1293,-92 1448,-92 1448,-62 1293,-62"/>
<text text-anchor="start" x="1301" y="-80" font-family="Helvetica,sans-Serif" font-size="10.00">asm/Z2AudioLib/Z2StatusMgr</text>
<text text-anchor="middle" x="1370.5" y="-69" font-family="Helvetica,sans-Serif" font-size="10.00">/menuOut__11Z2StatusMgrFv.s</text>
</a>
</g>
</g>
<!-- Node1&#45;&gt;Node11 -->
<g id="edge11" class="edge">
<title>Node1&#45;&gt;Node11</title>
<path fill="none" stroke="midnightblue" d="M1234.49,-134.4C1261.13,-123.36 1298.38,-107.91 1327.16,-95.97"/>
<polygon fill="midnightblue" stroke="midnightblue" points="1328.67,-99.14 1336.57,-92.07 1325.99,-92.67 1328.67,-99.14"/>
</g>
<!-- Node12 -->
<g id="node12" class="node">
<title>Node12</title>
<g id="a_node12"><a xlink:title=" ">
<polygon fill="white" stroke="#bfbfbf" points="1466,-62 1466,-92 1641,-92 1641,-62 1466,-62"/>
<text text-anchor="start" x="1474" y="-80" font-family="Helvetica,sans-Serif" font-size="10.00">asm/Z2AudioLib/Z2StatusMgr</text>
<text text-anchor="middle" x="1553.5" y="-69" font-family="Helvetica,sans-Serif" font-size="10.00">/isMovieDemo__11Z2StatusMgrFv.s</text>
</a>
</g>
</g>
<!-- Node1&#45;&gt;Node12 -->
<g id="edge12" class="edge">
<title>Node1&#45;&gt;Node12</title>
<path fill="none" stroke="midnightblue" d="M1264.17,-136.2C1316.2,-126.09 1391.65,-111.33 1457.5,-98 1463.69,-96.75 1470.1,-95.44 1476.53,-94.12"/>
<polygon fill="midnightblue" stroke="midnightblue" points="1477.55,-97.48 1486.64,-92.03 1476.14,-90.62 1477.55,-97.48"/>
</g>
<!-- Node13 -->
<g id="node13" class="node">
<title>Node13</title>
<g id="a_node13"><a xlink:title=" ">
<polygon fill="white" stroke="#bfbfbf" points="1659.5,-62 1659.5,-92 1847.5,-92 1847.5,-62 1659.5,-62"/>
<text text-anchor="start" x="1667.5" y="-80" font-family="Helvetica,sans-Serif" font-size="10.00">asm/Z2AudioLib/Z2StatusMgr</text>
<text text-anchor="middle" x="1753.5" y="-69" font-family="Helvetica,sans-Serif" font-size="10.00">/setDemoName__11Z2StatusMgrFPc.s</text>
</a>
</g>
</g>
<!-- Node1&#45;&gt;Node13 -->
<g id="edge13" class="edge">
<title>Node1&#45;&gt;Node13</title>
<path fill="none" stroke="midnightblue" d="M1264.06,-142.98C1351.4,-135.03 1513.34,-118.98 1650.5,-98 1658.65,-96.75 1667.15,-95.32 1675.6,-93.81"/>
<polygon fill="midnightblue" stroke="midnightblue" points="1676.28,-97.24 1685.49,-92 1675.02,-90.36 1676.28,-97.24"/>
</g>
<!-- Node14 -->
<g id="node14" class="node">
<title>Node14</title>
<g id="a_node14"><a xlink:title=" ">
<polygon fill="white" stroke="#bfbfbf" points="1865.5,-62 1865.5,-92 2037.5,-92 2037.5,-62 1865.5,-62"/>
<text text-anchor="start" x="1873.5" y="-80" font-family="Helvetica,sans-Serif" font-size="10.00">asm/Z2AudioLib/Z2StatusMgr</text>
<text text-anchor="middle" x="1951.5" y="-69" font-family="Helvetica,sans-Serif" font-size="10.00">/processTime__11Z2StatusMgrFv.s</text>
</a>
</g>
</g>
<!-- Node1&#45;&gt;Node14 -->
<g id="edge14" class="edge">
<title>Node1&#45;&gt;Node14</title>
<path fill="none" stroke="midnightblue" d="M1264.13,-146.36C1381.66,-141.81 1640.53,-128.91 1856.5,-98 1864.39,-96.87 1872.6,-95.48 1880.75,-93.95"/>
<polygon fill="midnightblue" stroke="midnightblue" points="1881.49,-97.38 1890.64,-92.04 1880.16,-90.5 1881.49,-97.38"/>
</g>
<!-- Node15 -->
<g id="node15" class="node">
<title>Node15</title>
<g id="a_node15"><a xlink:title=" ">
<polygon fill="white" stroke="#bfbfbf" points="2055.5,-62 2055.5,-92 2235.5,-92 2235.5,-62 2055.5,-62"/>
<text text-anchor="start" x="2063.5" y="-80" font-family="Helvetica,sans-Serif" font-size="10.00">asm/Z2AudioLib/Z2StatusMgr</text>
<text text-anchor="middle" x="2145.5" y="-69" font-family="Helvetica,sans-Serif" font-size="10.00">/checkDayTime__11Z2StatusMgrFv.s</text>
</a>
</g>
</g>
<!-- Node1&#45;&gt;Node15 -->
<g id="edge15" class="edge">
<title>Node1&#45;&gt;Node15</title>
<path fill="none" stroke="midnightblue" d="M1264.2,-147.73C1405.56,-145.36 1755.97,-135.83 2046.5,-98 2055.09,-96.88 2064.05,-95.45 2072.92,-93.87"/>
<polygon fill="midnightblue" stroke="midnightblue" points="2073.68,-97.29 2082.87,-92.03 2072.4,-90.4 2073.68,-97.29"/>
</g>
<!-- Node16 -->
<g id="node16" class="node">
<title>Node16</title>
<g id="a_node16"><a xlink:title=" ">
<polygon fill="white" stroke="#bfbfbf" points="2254,-62 2254,-92 2427,-92 2427,-62 2254,-62"/>
<text text-anchor="start" x="2262" y="-80" font-family="Helvetica,sans-Serif" font-size="10.00">asm/Z2AudioLib/Z2StatusMgr</text>
<text text-anchor="middle" x="2340.5" y="-69" font-family="Helvetica,sans-Serif" font-size="10.00">/setEventBit__11Z2StatusMgrFPv.s</text>
</a>
</g>
</g>
<!-- Node1&#45;&gt;Node16 -->
<g id="edge16" class="edge">
<title>Node1&#45;&gt;Node16</title>
<path fill="none" stroke="midnightblue" d="M1264.06,-148.89C1427.46,-149.14 1875.27,-145.1 2244.5,-98 2252.88,-96.93 2261.61,-95.53 2270.25,-93.96"/>
<polygon fill="midnightblue" stroke="midnightblue" points="2271.14,-97.35 2280.32,-92.05 2269.84,-90.47 2271.14,-97.35"/>
</g>
<!-- Node17 -->
<g id="node17" class="node">
<title>Node17</title>
<g id="a_node17"><a xlink:title=" ">
<polygon fill="white" stroke="#bfbfbf" points="2445,-56.5 2445,-97.5 2624,-97.5 2624,-56.5 2445,-56.5"/>
<text text-anchor="start" x="2453" y="-85.5" font-family="Helvetica,sans-Serif" font-size="10.00">asm/Z2AudioLib/Z2StatusMgr</text>
<text text-anchor="start" x="2453" y="-74.5" font-family="Helvetica,sans-Serif" font-size="10.00">/setCameraPolygonPos__11Z2Status</text>
<text text-anchor="middle" x="2534.5" y="-63.5" font-family="Helvetica,sans-Serif" font-size="10.00">MgrFP3Vec.s</text>
</a>
</g>
</g>
<!-- Node1&#45;&gt;Node17 -->
<g id="edge17" class="edge">
<title>Node1&#45;&gt;Node17</title>
<path fill="none" stroke="midnightblue" d="M1264.35,-147.25C1480.79,-142.79 2186.46,-126.48 2434.81,-98.08"/>
<polygon fill="midnightblue" stroke="midnightblue" points="2435.35,-101.54 2444.87,-96.89 2434.53,-94.59 2435.35,-101.54"/>
</g>
<!-- Node18 -->
<g id="node18" class="node">
<title>Node18</title>
<g id="a_node18"><a xlink:title=" ">
<polygon fill="white" stroke="#bfbfbf" points="2642,-56.5 2642,-97.5 2789,-97.5 2789,-56.5 2642,-56.5"/>
<text text-anchor="start" x="2650" y="-85.5" font-family="Helvetica,sans-Serif" font-size="10.00">asm/Z2AudioLib/Z2StatusMgr</text>
<text text-anchor="start" x="2650" y="-74.5" font-family="Helvetica,sans-Serif" font-size="10.00">/setCameraInWaterDepth_</text>
<text text-anchor="middle" x="2715.5" y="-63.5" font-family="Helvetica,sans-Serif" font-size="10.00">_11Z2StatusMgrFf.s</text>
</a>
</g>
</g>
<!-- Node1&#45;&gt;Node18 -->
<g id="edge18" class="edge">
<title>Node1&#45;&gt;Node18</title>
<path fill="none" stroke="midnightblue" d="M1264.31,-147.98C1502.93,-145.77 2343.31,-135.55 2631.85,-98.05"/>
<polygon fill="midnightblue" stroke="midnightblue" points="2632.43,-101.51 2641.88,-96.71 2631.5,-94.57 2632.43,-101.51"/>
</g>
<!-- Node2&#45;&gt;Node3 -->
<g id="edge2" class="edge">
<title>Node2&#45;&gt;Node3</title>
<path fill="none" stroke="midnightblue" d="M72.84,-67.23C80.1,-57.2 92.16,-40.51 101.26,-27.92"/>
<polygon fill="midnightblue" stroke="midnightblue" points="104.24,-29.78 107.26,-19.63 98.57,-25.68 104.24,-29.78"/>
</g>
</g>
</svg>
        <g id="navigator" transform="translate(0 0)" fill="#404254">
                <rect fill="#f2f5e9" fill-opacity="0.5" stroke="#606060" stroke-width=".5" x="0" y="0" width="60" height="60"/>
                <use id="zoomplus" xlink:href="#zoomPlus" x="17" y="9" onmousedown="handleZoom(evt,'in')"/>
                <use id="zoomminus" xlink:href="#zoomMin" x="42" y="9" onmousedown="handleZoom(evt,'out')"/>
                <use id="reset" xlink:href="#resetDef" x="30" y="36" onmousedown="handleReset()"/>
                <g id="arrowUp" xlink:href="#dirArrow" transform="translate(30 24)" onmousedown="handlePan(0,-1)">
                  <use xlink:href="#rim" fill="#404040">
                        <set attributeName="fill" to="#808080" begin="arrowUp.mouseover" end="arrowUp.mouseout"/>
                  </use>
                  <path fill="none" stroke="white" stroke-width="1.5" d="M0,-3.0v7 M-2.5,-0.5L0,-3.0L2.5,-0.5"/>
                </g>
                <g id="arrowRight" xlink:href="#dirArrow" transform="rotate(90) translate(36 -43)" onmousedown="handlePan(1,0)">
                  <use xlink:href="#rim" fill="#404040">
                        <set attributeName="fill" to="#808080" begin="arrowRight.mouseover" end="arrowRight.mouseout"/>
                  </use>
                  <path fill="none" stroke="white" stroke-width="1.5" d="M0,-3.0v7 M-2.5,-0.5L0,-3.0L2.5,-0.5"/>
                </g>
                <g id="arrowDown" xlink:href="#dirArrow" transform="rotate(180) translate(-30 -48)" onmousedown="handlePan(0,1)">
                  <use xlink:href="#rim" fill="#404040">
                        <set attributeName="fill" to="#808080" begin="arrowDown.mouseover" end="arrowDown.mouseout"/>
                  </use>
                  <path fill="none" stroke="white" stroke-width="1.5" d="M0,-3.0v7 M-2.5,-0.5L0,-3.0L2.5,-0.5"/>
                </g>
                <g id="arrowLeft" xlink:href="#dirArrow" transform="rotate(270) translate(-36 17)" onmousedown="handlePan(-1,0)">
                  <use xlink:href="#rim" fill="#404040">
                        <set attributeName="fill" to="#808080" begin="arrowLeft.mouseover" end="arrowLeft.mouseout"/>
                  </use>
                  <path fill="none" stroke="white" stroke-width="1.5" d="M0,-3.0v7 M-2.5,-0.5L0,-3.0L2.5,-0.5"/>
                </g>
        </g>
        <svg viewBox="0 0 15 15" width="100%" height="30px" preserveAspectRatio="xMaxYMin meet">
         <g id="arrow_out" transform="scale(0.3 0.3)">
          <a xlink:href="Z2StatusMgr_8cpp__incl_org.svg" target="_base">
           <rect id="button" ry="5" rx="5" y="6" x="6" height="38" width="38"
                fill="#f2f5e9" fill-opacity="0.5" stroke="#606060" stroke-width="1.0"/>
           <path id="arrow"
             d="M 11.500037,31.436501 C 11.940474,20.09759 22.043105,11.32322 32.158766,21.979434 L 37.068811,17.246167 C 37.068811,17.246167 37.088388,32 37.088388,32 L 22.160133,31.978069 C 22.160133,31.978069 26.997745,27.140456 26.997745,27.140456 C 18.528582,18.264221 13.291696,25.230495 11.500037,31.436501 z"
             style="fill:#404040;"/>
          </a>
         </g>
        </svg>
</svg>
