<?xml version="1.0" encoding="UTF-8" standalone="no"?>
<!DOCTYPE svg PUBLIC "-//W3C//DTD SVG 1.1//EN"
 "http://www.w3.org/Graphics/SVG/1.1/DTD/svg11.dtd">
<!-- Generated by graphviz version 2.47.0 (20210316.2052)
 -->
<!-- Title: libs/Z2AudioLib/Z2WolfHowlMgr.cpp Pages: 1 -->
<svg width="3321pt" height="173pt"
 viewBox="0.00 0.00 3320.50 173.00" xmlns="http://www.w3.org/2000/svg" xmlns:xlink="http://www.w3.org/1999/xlink">
<g id="graph0" class="graph" transform="scale(1 1) rotate(0) translate(4 169)">
<title>libs/Z2AudioLib/Z2WolfHowlMgr.cpp</title>
<polygon fill="white" stroke="transparent" points="-4,4 -4,-169 3316.5,-169 3316.5,4 -4,4"/>
<!-- Node1 -->
<g id="node1" class="node">
<title>Node1</title>
<g id="a_node1"><a xlink:title=" ">
<polygon fill="#bfbfbf" stroke="black" points="1467.5,-134.5 1467.5,-164.5 1607.5,-164.5 1607.5,-134.5 1467.5,-134.5"/>
<text text-anchor="start" x="1475.5" y="-152.5" font-family="Helvetica,sans-Serif" font-size="10.00">libs/Z2AudioLib/Z2WolfHowl</text>
<text text-anchor="middle" x="1537.5" y="-141.5" font-family="Helvetica,sans-Serif" font-size="10.00">Mgr.cpp</text>
</a>
</g>
</g>
<!-- Node2 -->
<g id="node2" class="node">
<title>Node2</title>
<g id="a_node2"><a xlink:href="dol2asm_8h.html" target="_top" xlink:title=" ">
<polygon fill="white" stroke="black" points="0,-67.5 0,-86.5 61,-86.5 61,-67.5 0,-67.5"/>
<text text-anchor="middle" x="30.5" y="-74.5" font-family="Helvetica,sans-Serif" font-size="10.00">dol2asm.h</text>
</a>
</g>
</g>
<!-- Node1&#45;&gt;Node2 -->
<g id="edge1" class="edge">
<title>Node1&#45;&gt;Node2</title>
<path fill="none" stroke="midnightblue" d="M1467.44,-147.65C1194.62,-144.13 211.7,-129.37 75.5,-98 68.72,-96.44 61.7,-93.85 55.29,-91.04"/>
<polygon fill="midnightblue" stroke="midnightblue" points="56.35,-87.68 45.81,-86.57 53.36,-94.01 56.35,-87.68"/>
</g>
<!-- Node3 -->
<g id="node3" class="node">
<title>Node3</title>
<g id="a_node3"><a xlink:href="types_8h.html" target="_top" xlink:title=" ">
<polygon fill="white" stroke="black" points="99,-0.5 99,-19.5 180,-19.5 180,-0.5 99,-0.5"/>
<text text-anchor="middle" x="139.5" y="-7.5" font-family="Helvetica,sans-Serif" font-size="10.00">dolphin/types.h</text>
</a>
</g>
</g>
<!-- Node1&#45;&gt;Node3 -->
<g id="edge2" class="edge">
<title>Node1&#45;&gt;Node3</title>
<path fill="none" stroke="midnightblue" d="M1467.34,-148.69C1186.49,-149.13 156.13,-147.34 108.5,-98 89.67,-78.49 109.24,-46.8 124.7,-27.52"/>
<polygon fill="midnightblue" stroke="midnightblue" points="127.58,-29.53 131.36,-19.63 122.24,-25.02 127.58,-29.53"/>
</g>
<!-- Node4 -->
<g id="node4" class="node">
<title>Node4</title>
<g id="a_node4"><a xlink:href="Z2WolfHowlMgr_8h.html" target="_top" xlink:title=" ">
<polygon fill="white" stroke="black" points="117.5,-67.5 117.5,-86.5 263.5,-86.5 263.5,-67.5 117.5,-67.5"/>
<text text-anchor="middle" x="190.5" y="-74.5" font-family="Helvetica,sans-Serif" font-size="10.00">Z2AudioLib/Z2WolfHowlMgr.h</text>
</a>
</g>
</g>
<!-- Node1&#45;&gt;Node4 -->
<g id="edge3" class="edge">
<title>Node1&#45;&gt;Node4</title>
<path fill="none" stroke="midnightblue" d="M1467.35,-147.54C1237.14,-144.1 506.07,-130.81 272.5,-98 258.28,-96 242.92,-92.6 229.39,-89.17"/>
<polygon fill="midnightblue" stroke="midnightblue" points="230.01,-85.71 219.45,-86.56 228.23,-92.48 230.01,-85.71"/>
</g>
<!-- Node5 -->
<g id="node5" class="node">
<title>Node5</title>
<g id="a_node5"><a xlink:title=" ">
<polygon fill="white" stroke="#bfbfbf" points="281.5,-62 281.5,-92 445.5,-92 445.5,-62 281.5,-62"/>
<text text-anchor="start" x="289.5" y="-80" font-family="Helvetica,sans-Serif" font-size="10.00">asm/Z2AudioLib/Z2WolfHowl</text>
<text text-anchor="middle" x="363.5" y="-69" font-family="Helvetica,sans-Serif" font-size="10.00">Mgr/__ct__13Z2WolfHowlMgrFv.s</text>
</a>
</g>
</g>
<!-- Node1&#45;&gt;Node5 -->
<g id="edge5" class="edge">
<title>Node1&#45;&gt;Node5</title>
<path fill="none" stroke="midnightblue" d="M1467.2,-149.28C1294.28,-150.31 834.71,-147.71 455.5,-98 447.55,-96.96 439.27,-95.58 431.07,-94.04"/>
<polygon fill="midnightblue" stroke="midnightblue" points="431.64,-90.58 421.15,-92.08 430.29,-97.45 431.64,-90.58"/>
</g>
<!-- Node6 -->
<g id="node6" class="node">
<title>Node6</title>
<g id="a_node6"><a xlink:title=" ">
<polygon fill="white" stroke="#bfbfbf" points="464,-62 464,-92 655,-92 655,-62 464,-62"/>
<text text-anchor="start" x="472" y="-80" font-family="Helvetica,sans-Serif" font-size="10.00">asm/Z2AudioLib/Z2WolfHowl</text>
<text text-anchor="middle" x="559.5" y="-69" font-family="Helvetica,sans-Serif" font-size="10.00">Mgr/resetState__13Z2WolfHowlMgrFv.s</text>
</a>
</g>
</g>
<!-- Node1&#45;&gt;Node6 -->
<g id="edge6" class="edge">
<title>Node1&#45;&gt;Node6</title>
<path fill="none" stroke="midnightblue" d="M1467.34,-147.54C1318.74,-144.83 961.51,-134.72 664.5,-98 655.21,-96.85 645.49,-95.38 635.89,-93.75"/>
<polygon fill="midnightblue" stroke="midnightblue" points="636.4,-90.29 625.95,-92.01 635.2,-97.18 636.4,-90.29"/>
</g>
<!-- Node7 -->
<g id="node7" class="node">
<title>Node7</title>
<g id="a_node7"><a xlink:title=" ">
<polygon fill="white" stroke="#bfbfbf" points="673.5,-56.5 673.5,-97.5 853.5,-97.5 853.5,-56.5 673.5,-56.5"/>
<text text-anchor="start" x="681.5" y="-85.5" font-family="Helvetica,sans-Serif" font-size="10.00">asm/Z2AudioLib/Z2WolfHowl</text>
<text text-anchor="start" x="681.5" y="-74.5" font-family="Helvetica,sans-Serif" font-size="10.00">Mgr/calcVolumeMod__13Z2WolfHowl</text>
<text text-anchor="middle" x="763.5" y="-63.5" font-family="Helvetica,sans-Serif" font-size="10.00">MgrFf.s</text>
</a>
</g>
</g>
<!-- Node1&#45;&gt;Node7 -->
<g id="edge7" class="edge">
<title>Node1&#45;&gt;Node7</title>
<path fill="none" stroke="midnightblue" d="M1467.23,-146.13C1345.99,-141.4 1089.59,-128.64 863.59,-98.06"/>
<polygon fill="midnightblue" stroke="midnightblue" points="863.91,-94.57 853.53,-96.68 862.96,-101.51 863.91,-94.57"/>
</g>
<!-- Node8 -->
<g id="node8" class="node">
<title>Node8</title>
<g id="a_node8"><a xlink:title=" ">
<polygon fill="white" stroke="#bfbfbf" points="871.5,-62 871.5,-92 1073.5,-92 1073.5,-62 871.5,-62"/>
<text text-anchor="start" x="879.5" y="-80" font-family="Helvetica,sans-Serif" font-size="10.00">asm/Z2AudioLib/Z2WolfHowl</text>
<text text-anchor="middle" x="972.5" y="-69" font-family="Helvetica,sans-Serif" font-size="10.00">Mgr/getNowPitch__13Z2WolfHowlMgrFv.s</text>
</a>
</g>
</g>
<!-- Node1&#45;&gt;Node8 -->
<g id="edge8" class="edge">
<title>Node1&#45;&gt;Node8</title>
<path fill="none" stroke="midnightblue" d="M1467.15,-142.22C1377.59,-133.87 1218.16,-117.84 1082.5,-98 1073.85,-96.73 1064.84,-95.3 1055.86,-93.78"/>
<polygon fill="midnightblue" stroke="midnightblue" points="1056.2,-90.29 1045.75,-92.05 1055.02,-97.19 1056.2,-90.29"/>
</g>
<!-- Node9 -->
<g id="node9" class="node">
<title>Node9</title>
<g id="a_node9"><a xlink:title=" ">
<polygon fill="white" stroke="#bfbfbf" points="1091.5,-56.5 1091.5,-97.5 1259.5,-97.5 1259.5,-56.5 1091.5,-56.5"/>
<text text-anchor="start" x="1099.5" y="-85.5" font-family="Helvetica,sans-Serif" font-size="10.00">asm/Z2AudioLib/Z2WolfHowl</text>
<text text-anchor="start" x="1099.5" y="-74.5" font-family="Helvetica,sans-Serif" font-size="10.00">Mgr/getNowInputValue__13Z2Wolf</text>
<text text-anchor="middle" x="1175.5" y="-63.5" font-family="Helvetica,sans-Serif" font-size="10.00">HowlMgrFv.s</text>
</a>
</g>
</g>
<!-- Node1&#45;&gt;Node9 -->
<g id="edge9" class="edge">
<title>Node1&#45;&gt;Node9</title>
<path fill="none" stroke="midnightblue" d="M1467.45,-135.87C1415.44,-126.37 1342.52,-112.8 1269.47,-98.17"/>
<polygon fill="midnightblue" stroke="midnightblue" points="1270.12,-94.73 1259.63,-96.2 1268.74,-101.6 1270.12,-94.73"/>
</g>
<!-- Node10 -->
<g id="node10" class="node">
<title>Node10</title>
<g id="a_node10"><a xlink:title=" ">
<polygon fill="white" stroke="#bfbfbf" points="1277.5,-56.5 1277.5,-97.5 1447.5,-97.5 1447.5,-56.5 1277.5,-56.5"/>
<text text-anchor="start" x="1285.5" y="-85.5" font-family="Helvetica,sans-Serif" font-size="10.00">asm/Z2AudioLib/Z2WolfHowl</text>
<text text-anchor="start" x="1285.5" y="-74.5" font-family="Helvetica,sans-Serif" font-size="10.00">Mgr/calcPitchMod__13Z2WolfHowl</text>
<text text-anchor="middle" x="1362.5" y="-63.5" font-family="Helvetica,sans-Serif" font-size="10.00">MgrFff.s</text>
</a>
</g>
</g>
<!-- Node1&#45;&gt;Node10 -->
<g id="edge10" class="edge">
<title>Node1&#45;&gt;Node10</title>
<path fill="none" stroke="midnightblue" d="M1502.51,-134.4C1479.04,-124.95 1447.58,-112.27 1420.42,-101.34"/>
<polygon fill="midnightblue" stroke="midnightblue" points="1421.6,-98.04 1411.02,-97.55 1418.99,-104.53 1421.6,-98.04"/>
</g>
<!-- Node11 -->
<g id="node11" class="node">
<title>Node11</title>
<g id="a_node11"><a xlink:title=" ">
<polygon fill="white" stroke="#bfbfbf" points="1465.5,-56.5 1465.5,-97.5 1609.5,-97.5 1609.5,-56.5 1465.5,-56.5"/>
<text text-anchor="start" x="1473.5" y="-85.5" font-family="Helvetica,sans-Serif" font-size="10.00">asm/Z2AudioLib/Z2WolfHowl</text>
<text text-anchor="start" x="1473.5" y="-74.5" font-family="Helvetica,sans-Serif" font-size="10.00">Mgr/startWolfHowlSound</text>
<text text-anchor="middle" x="1537.5" y="-63.5" font-family="Helvetica,sans-Serif" font-size="10.00">__13Z2WolfHowlMgrFffbf.s</text>
</a>
</g>
</g>
<!-- Node1&#45;&gt;Node11 -->
<g id="edge11" class="edge">
<title>Node1&#45;&gt;Node11</title>
<path fill="none" stroke="midnightblue" d="M1537.5,-134.23C1537.5,-126.57 1537.5,-116.84 1537.5,-107.63"/>
<polygon fill="midnightblue" stroke="midnightblue" points="1541,-107.59 1537.5,-97.59 1534,-107.59 1541,-107.59"/>
</g>
<!-- Node12 -->
<g id="node12" class="node">
<title>Node12</title>
<g id="a_node12"><a xlink:title=" ">
<polygon fill="white" stroke="#bfbfbf" points="1627.5,-56.5 1627.5,-97.5 1803.5,-97.5 1803.5,-56.5 1627.5,-56.5"/>
<text text-anchor="start" x="1635.5" y="-85.5" font-family="Helvetica,sans-Serif" font-size="10.00">asm/Z2AudioLib/Z2WolfHowl</text>
<text text-anchor="start" x="1635.5" y="-74.5" font-family="Helvetica,sans-Serif" font-size="10.00">Mgr/setCorrectData__13Z2WolfHowl</text>
<text text-anchor="middle" x="1715.5" y="-63.5" font-family="Helvetica,sans-Serif" font-size="10.00">MgrFScP14Z2WolfHowlData.s</text>
</a>
</g>
</g>
<!-- Node1&#45;&gt;Node12 -->
<g id="edge12" class="edge">
<title>Node1&#45;&gt;Node12</title>
<path fill="none" stroke="midnightblue" d="M1573.09,-134.4C1596.96,-124.95 1628.96,-112.27 1656.58,-101.34"/>
<polygon fill="midnightblue" stroke="midnightblue" points="1658.14,-104.48 1666.15,-97.55 1655.56,-97.97 1658.14,-104.48"/>
</g>
<!-- Node13 -->
<g id="node13" class="node">
<title>Node13</title>
<g id="a_node13"><a xlink:title=" ">
<polygon fill="white" stroke="#bfbfbf" points="1821.5,-56.5 1821.5,-97.5 1995.5,-97.5 1995.5,-56.5 1821.5,-56.5"/>
<text text-anchor="start" x="1829.5" y="-85.5" font-family="Helvetica,sans-Serif" font-size="10.00">asm/Z2AudioLib/Z2WolfHowl</text>
<text text-anchor="start" x="1829.5" y="-74.5" font-family="Helvetica,sans-Serif" font-size="10.00">Mgr/getCorrectLine__13Z2WolfHowl</text>
<text text-anchor="middle" x="1908.5" y="-63.5" font-family="Helvetica,sans-Serif" font-size="10.00">MgrFUc.s</text>
</a>
</g>
</g>
<!-- Node1&#45;&gt;Node13 -->
<g id="edge13" class="edge">
<title>Node1&#45;&gt;Node13</title>
<path fill="none" stroke="midnightblue" d="M1607.67,-136.09C1660.9,-126.56 1736.15,-112.87 1811.28,-98.22"/>
<polygon fill="midnightblue" stroke="midnightblue" points="1812.26,-101.59 1821.4,-96.24 1810.91,-94.72 1812.26,-101.59"/>
</g>
<!-- Node14 -->
<g id="node14" class="node">
<title>Node14</title>
<g id="a_node14"><a xlink:title=" ">
<polygon fill="white" stroke="#bfbfbf" points="2013.5,-56.5 2013.5,-97.5 2157.5,-97.5 2157.5,-56.5 2013.5,-56.5"/>
<text text-anchor="start" x="2021.5" y="-85.5" font-family="Helvetica,sans-Serif" font-size="10.00">asm/Z2AudioLib/Z2WolfHowl</text>
<text text-anchor="start" x="2021.5" y="-74.5" font-family="Helvetica,sans-Serif" font-size="10.00">Mgr/getCorrectLineNum_</text>
<text text-anchor="middle" x="2085.5" y="-63.5" font-family="Helvetica,sans-Serif" font-size="10.00">_13Z2WolfHowlMgrFv.s</text>
</a>
</g>
</g>
<!-- Node1&#45;&gt;Node14 -->
<g id="edge14" class="edge">
<title>Node1&#45;&gt;Node14</title>
<path fill="none" stroke="midnightblue" d="M1607.54,-143.88C1697.18,-137.3 1857.37,-123.34 2003.15,-98.12"/>
<polygon fill="midnightblue" stroke="midnightblue" points="2003.93,-101.54 2013.18,-96.37 2002.73,-94.65 2003.93,-101.54"/>
</g>
<!-- Node15 -->
<g id="node15" class="node">
<title>Node15</title>
<g id="a_node15"><a xlink:title=" ">
<polygon fill="white" stroke="#bfbfbf" points="2176,-62 2176,-92 2367,-92 2367,-62 2176,-62"/>
<text text-anchor="start" x="2184" y="-80" font-family="Helvetica,sans-Serif" font-size="10.00">asm/Z2AudioLib/Z2WolfHowl</text>
<text text-anchor="middle" x="2271.5" y="-69" font-family="Helvetica,sans-Serif" font-size="10.00">Mgr/checkLine__13Z2WolfHowlMgrFv.s</text>
</a>
</g>
</g>
<!-- Node1&#45;&gt;Node15 -->
<g id="edge15" class="edge">
<title>Node1&#45;&gt;Node15</title>
<path fill="none" stroke="midnightblue" d="M1607.57,-145.35C1724.02,-139.56 1964.56,-125.26 2166.5,-98 2175.35,-96.81 2184.57,-95.35 2193.73,-93.78"/>
<polygon fill="midnightblue" stroke="midnightblue" points="2194.37,-97.23 2203.61,-92.04 2193.16,-90.33 2194.37,-97.23"/>
</g>
<!-- Node16 -->
<g id="node16" class="node">
<title>Node16</title>
<g id="a_node16"><a xlink:title=" ">
<polygon fill="white" stroke="#bfbfbf" points="2385.5,-56.5 2385.5,-97.5 2561.5,-97.5 2561.5,-56.5 2385.5,-56.5"/>
<text text-anchor="start" x="2393.5" y="-85.5" font-family="Helvetica,sans-Serif" font-size="10.00">asm/Z2AudioLib/Z2WolfHowl</text>
<text text-anchor="start" x="2393.5" y="-74.5" font-family="Helvetica,sans-Serif" font-size="10.00">Mgr/getOnLineNum__13Z2WolfHowl</text>
<text text-anchor="middle" x="2473.5" y="-63.5" font-family="Helvetica,sans-Serif" font-size="10.00">MgrFv.s</text>
</a>
</g>
</g>
<!-- Node1&#45;&gt;Node16 -->
<g id="edge16" class="edge">
<title>Node1&#45;&gt;Node16</title>
<path fill="none" stroke="midnightblue" d="M1607.71,-147.66C1750.53,-145.23 2085.19,-135.77 2375.01,-98.1"/>
<polygon fill="midnightblue" stroke="midnightblue" points="2375.84,-101.52 2385.3,-96.74 2374.93,-94.58 2375.84,-101.52"/>
</g>
<!-- Node17 -->
<g id="node17" class="node">
<title>Node17</title>
<g id="a_node17"><a xlink:title=" ">
<polygon fill="white" stroke="#bfbfbf" points="2579.5,-56.5 2579.5,-97.5 2741.5,-97.5 2741.5,-56.5 2579.5,-56.5"/>
<text text-anchor="start" x="2587.5" y="-85.5" font-family="Helvetica,sans-Serif" font-size="10.00">asm/Z2AudioLib/Z2WolfHowl</text>
<text text-anchor="start" x="2587.5" y="-74.5" font-family="Helvetica,sans-Serif" font-size="10.00">Mgr/startWindStoneSound</text>
<text text-anchor="middle" x="2660.5" y="-63.5" font-family="Helvetica,sans-Serif" font-size="10.00">__13Z2WolfHowlMgrFScP3Vec.s</text>
</a>
</g>
</g>
<!-- Node1&#45;&gt;Node17 -->
<g id="edge17" class="edge">
<title>Node1&#45;&gt;Node17</title>
<path fill="none" stroke="midnightblue" d="M1607.71,-149.16C1773.64,-149.85 2202.97,-146.46 2569.18,-98.06"/>
<polygon fill="midnightblue" stroke="midnightblue" points="2569.73,-101.51 2579.18,-96.72 2568.8,-94.58 2569.73,-101.51"/>
</g>
<!-- Node18 -->
<g id="node18" class="node">
<title>Node18</title>
<g id="a_node18"><a xlink:title=" ">
<polygon fill="white" stroke="#bfbfbf" points="2759.5,-56.5 2759.5,-97.5 2923.5,-97.5 2923.5,-56.5 2759.5,-56.5"/>
<text text-anchor="start" x="2767.5" y="-85.5" font-family="Helvetica,sans-Serif" font-size="10.00">asm/Z2AudioLib/Z2WolfHowl</text>
<text text-anchor="start" x="2767.5" y="-74.5" font-family="Helvetica,sans-Serif" font-size="10.00">Mgr/startGuideMelody__13Z2Wolf</text>
<text text-anchor="middle" x="2841.5" y="-63.5" font-family="Helvetica,sans-Serif" font-size="10.00">HowlMgrFb.s</text>
</a>
</g>
</g>
<!-- Node1&#45;&gt;Node18 -->
<g id="edge18" class="edge">
<title>Node1&#45;&gt;Node18</title>
<path fill="none" stroke="midnightblue" d="M1607.85,-147.19C1828.75,-142.81 2507.64,-127.4 2749.14,-98.02"/>
<polygon fill="midnightblue" stroke="midnightblue" points="2749.79,-101.47 2759.27,-96.75 2748.91,-94.52 2749.79,-101.47"/>
</g>
<!-- Node19 -->
<g id="node19" class="node">
<title>Node19</title>
<g id="a_node19"><a xlink:title=" ">
<polygon fill="white" stroke="#bfbfbf" points="2942,-56.5 2942,-97.5 3127,-97.5 3127,-56.5 2942,-56.5"/>
<text text-anchor="start" x="2950" y="-85.5" font-family="Helvetica,sans-Serif" font-size="10.00">asm/Z2AudioLib/Z2WolfHowl</text>
<text text-anchor="start" x="2950" y="-74.5" font-family="Helvetica,sans-Serif" font-size="10.00">Mgr/skipCorrectDemo__13Z2WolfHowl</text>
<text text-anchor="middle" x="3034.5" y="-63.5" font-family="Helvetica,sans-Serif" font-size="10.00">MgrFv.s</text>
</a>
</g>
</g>
<!-- Node1&#45;&gt;Node19 -->
<g id="edge19" class="edge">
<title>Node1&#45;&gt;Node19</title>
<path fill="none" stroke="midnightblue" d="M1607.85,-147.42C1850.41,-143.47 2651.85,-128.47 2931.63,-97.97"/>
<polygon fill="midnightblue" stroke="midnightblue" points="2932.21,-101.42 2941.76,-96.83 2931.43,-94.47 2932.21,-101.42"/>
</g>
<!-- Node20 -->
<g id="node20" class="node">
<title>Node20</title>
<g id="a_node20"><a xlink:title=" ">
<polygon fill="white" stroke="#bfbfbf" points="3144.5,-62 3144.5,-92 3312.5,-92 3312.5,-62 3144.5,-62"/>
<text text-anchor="start" x="3152.5" y="-80" font-family="Helvetica,sans-Serif" font-size="10.00">asm/Z2AudioLib/Z2WolfHowl</text>
<text text-anchor="middle" x="3228.5" y="-69" font-family="Helvetica,sans-Serif" font-size="10.00">Mgr/__sinit_Z2WolfHowlMgr_cpp.s</text>
</a>
</g>
</g>
<!-- Node1&#45;&gt;Node20 -->
<g id="edge20" class="edge">
<title>Node1&#45;&gt;Node20</title>
<path fill="none" stroke="midnightblue" d="M1607.75,-147.99C1875.78,-145.76 2834.15,-135.32 3136.5,-98 3144.78,-96.98 3153.41,-95.57 3161.93,-93.97"/>
<polygon fill="midnightblue" stroke="midnightblue" points="3162.72,-97.38 3171.85,-92.01 3161.36,-90.51 3162.72,-97.38"/>
</g>
<!-- Node4&#45;&gt;Node3 -->
<g id="edge4" class="edge">
<title>Node4&#45;&gt;Node3</title>
<path fill="none" stroke="midnightblue" d="M183.62,-67.23C175.67,-57.1 162.4,-40.19 152.49,-27.56"/>
<polygon fill="midnightblue" stroke="midnightblue" points="155.2,-25.33 146.27,-19.63 149.69,-29.66 155.2,-25.33"/>
</g>
</g>
</svg>
